<?xml version="1.0" encoding="utf-8" standalone="no"?>
<!DOCTYPE svg PUBLIC "-//W3C//DTD SVG 1.1//EN"
  "http://www.w3.org/Graphics/SVG/1.1/DTD/svg11.dtd">
<svg xmlns:xlink="http://www.w3.org/1999/xlink" width="642.005562pt" height="683.737812pt" viewBox="0 0 642.005562 683.737812" xmlns="http://www.w3.org/2000/svg" version="1.1">
 <metadata>
  <rdf:RDF xmlns:dc="http://purl.org/dc/elements/1.1/" xmlns:cc="http://creativecommons.org/ns#" xmlns:rdf="http://www.w3.org/1999/02/22-rdf-syntax-ns#">
   <cc:Work>
    <dc:type rdf:resource="http://purl.org/dc/dcmitype/StillImage"/>
    <dc:date>2025-09-10T11:19:57.356391</dc:date>
    <dc:format>image/svg+xml</dc:format>
    <dc:creator>
     <cc:Agent>
      <dc:title>Matplotlib v3.10.6, https://matplotlib.org/</dc:title>
     </cc:Agent>
    </dc:creator>
   </cc:Work>
  </rdf:RDF>
 </metadata>
 <defs>
  <style type="text/css">*{stroke-linejoin: round; stroke-linecap: butt}</style>
 </defs>
 <g id="figure_1">
  <g id="patch_1">
   <path d="M 0 683.737812 
L 642.005562 683.737812 
L 642.005562 0 
L 0 0 
z
" style="fill: #ffffff"/>
  </g>
  <g id="axes_1">
   <g id="patch_2">
    <path d="M 54.84875 320.243478 
L 445.44875 320.243478 
L 445.44875 79.2 
L 54.84875 79.2 
z
" style="fill: #ffffff"/>
   </g>
   <g id="matplotlib.axis_1">
    <g id="xtick_1">
     <g id="line2d_1">
      <defs>
       <path id="m80dbd0ba69" d="M 0 0 
L 0 3.5 
" style="stroke: #000000; stroke-width: 0.8"/>
      </defs>
      <g>
       <use xlink:href="#m80dbd0ba69" x="105.796576" y="320.243478" style="stroke: #000000; stroke-width: 0.8"/>
      </g>
     </g>
     <g id="text_1">
      <!-- 0 -->
      <g transform="translate(101.024701 338.641135) scale(0.15 -0.15)">
       <defs>
        <path id="DejaVuSans-30" d="M 2034 4250 
Q 1547 4250 1301 3770 
Q 1056 3291 1056 2328 
Q 1056 1369 1301 889 
Q 1547 409 2034 409 
Q 2525 409 2770 889 
Q 3016 1369 3016 2328 
Q 3016 3291 2770 3770 
Q 2525 4250 2034 4250 
z
M 2034 4750 
Q 2819 4750 3233 4129 
Q 3647 3509 3647 2328 
Q 3647 1150 3233 529 
Q 2819 -91 2034 -91 
Q 1250 -91 836 529 
Q 422 1150 422 2328 
Q 422 3509 836 4129 
Q 1250 4750 2034 4750 
z
" transform="scale(0.015625)"/>
       </defs>
       <use xlink:href="#DejaVuSans-30"/>
      </g>
     </g>
    </g>
    <g id="xtick_2">
     <g id="line2d_2">
      <g>
       <use xlink:href="#m80dbd0ba69" x="176.557446" y="320.243478" style="stroke: #000000; stroke-width: 0.8"/>
      </g>
     </g>
     <g id="text_2">
      <!-- 10 -->
      <g transform="translate(167.013696 338.641135) scale(0.15 -0.15)">
       <defs>
        <path id="DejaVuSans-31" d="M 794 531 
L 1825 531 
L 1825 4091 
L 703 3866 
L 703 4441 
L 1819 4666 
L 2450 4666 
L 2450 531 
L 3481 531 
L 3481 0 
L 794 0 
L 794 531 
z
" transform="scale(0.015625)"/>
       </defs>
       <use xlink:href="#DejaVuSans-31"/>
       <use xlink:href="#DejaVuSans-30" transform="translate(63.623047 0)"/>
      </g>
     </g>
    </g>
    <g id="xtick_3">
     <g id="line2d_3">
      <g>
       <use xlink:href="#m80dbd0ba69" x="247.318315" y="320.243478" style="stroke: #000000; stroke-width: 0.8"/>
      </g>
     </g>
     <g id="text_3">
      <!-- 20 -->
      <g transform="translate(237.774565 338.641135) scale(0.15 -0.15)">
       <defs>
        <path id="DejaVuSans-32" d="M 1228 531 
L 3431 531 
L 3431 0 
L 469 0 
L 469 531 
Q 828 903 1448 1529 
Q 2069 2156 2228 2338 
Q 2531 2678 2651 2914 
Q 2772 3150 2772 3378 
Q 2772 3750 2511 3984 
Q 2250 4219 1831 4219 
Q 1534 4219 1204 4116 
Q 875 4013 500 3803 
L 500 4441 
Q 881 4594 1212 4672 
Q 1544 4750 1819 4750 
Q 2544 4750 2975 4387 
Q 3406 4025 3406 3419 
Q 3406 3131 3298 2873 
Q 3191 2616 2906 2266 
Q 2828 2175 2409 1742 
Q 1991 1309 1228 531 
z
" transform="scale(0.015625)"/>
       </defs>
       <use xlink:href="#DejaVuSans-32"/>
       <use xlink:href="#DejaVuSans-30" transform="translate(63.623047 0)"/>
      </g>
     </g>
    </g>
    <g id="xtick_4">
     <g id="line2d_4">
      <g>
       <use xlink:href="#m80dbd0ba69" x="318.079185" y="320.243478" style="stroke: #000000; stroke-width: 0.8"/>
      </g>
     </g>
     <g id="text_4">
      <!-- 30 -->
      <g transform="translate(308.535435 338.641135) scale(0.15 -0.15)">
       <defs>
        <path id="DejaVuSans-33" d="M 2597 2516 
Q 3050 2419 3304 2112 
Q 3559 1806 3559 1356 
Q 3559 666 3084 287 
Q 2609 -91 1734 -91 
Q 1441 -91 1130 -33 
Q 819 25 488 141 
L 488 750 
Q 750 597 1062 519 
Q 1375 441 1716 441 
Q 2309 441 2620 675 
Q 2931 909 2931 1356 
Q 2931 1769 2642 2001 
Q 2353 2234 1838 2234 
L 1294 2234 
L 1294 2753 
L 1863 2753 
Q 2328 2753 2575 2939 
Q 2822 3125 2822 3475 
Q 2822 3834 2567 4026 
Q 2313 4219 1838 4219 
Q 1578 4219 1281 4162 
Q 984 4106 628 3988 
L 628 4550 
Q 988 4650 1302 4700 
Q 1616 4750 1894 4750 
Q 2613 4750 3031 4423 
Q 3450 4097 3450 3541 
Q 3450 3153 3228 2886 
Q 3006 2619 2597 2516 
z
" transform="scale(0.015625)"/>
       </defs>
       <use xlink:href="#DejaVuSans-33"/>
       <use xlink:href="#DejaVuSans-30" transform="translate(63.623047 0)"/>
      </g>
     </g>
    </g>
    <g id="xtick_5">
     <g id="line2d_5">
      <g>
       <use xlink:href="#m80dbd0ba69" x="388.840054" y="320.243478" style="stroke: #000000; stroke-width: 0.8"/>
      </g>
     </g>
     <g id="text_5">
      <!-- 40 -->
      <g transform="translate(379.296304 338.641135) scale(0.15 -0.15)">
       <defs>
        <path id="DejaVuSans-34" d="M 2419 4116 
L 825 1625 
L 2419 1625 
L 2419 4116 
z
M 2253 4666 
L 3047 4666 
L 3047 1625 
L 3713 1625 
L 3713 1100 
L 3047 1100 
L 3047 0 
L 2419 0 
L 2419 1100 
L 313 1100 
L 313 1709 
L 2253 4666 
z
" transform="scale(0.015625)"/>
       </defs>
       <use xlink:href="#DejaVuSans-34"/>
       <use xlink:href="#DejaVuSans-30" transform="translate(63.623047 0)"/>
      </g>
     </g>
    </g>
    <g id="text_6">
     <!-- time [hr] -->
     <g transform="translate(205.074219 359.437853) scale(0.18 -0.18)">
      <defs>
       <path id="DejaVuSans-Bold-74" d="M 1759 4494 
L 1759 3500 
L 2913 3500 
L 2913 2700 
L 1759 2700 
L 1759 1216 
Q 1759 972 1856 886 
Q 1953 800 2241 800 
L 2816 800 
L 2816 0 
L 1856 0 
Q 1194 0 917 276 
Q 641 553 641 1216 
L 641 2700 
L 84 2700 
L 84 3500 
L 641 3500 
L 641 4494 
L 1759 4494 
z
" transform="scale(0.015625)"/>
       <path id="DejaVuSans-Bold-69" d="M 538 3500 
L 1656 3500 
L 1656 0 
L 538 0 
L 538 3500 
z
M 538 4863 
L 1656 4863 
L 1656 3950 
L 538 3950 
L 538 4863 
z
" transform="scale(0.015625)"/>
       <path id="DejaVuSans-Bold-6d" d="M 3781 2919 
Q 3994 3244 4286 3414 
Q 4578 3584 4928 3584 
Q 5531 3584 5847 3212 
Q 6163 2841 6163 2131 
L 6163 0 
L 5038 0 
L 5038 1825 
Q 5041 1866 5042 1909 
Q 5044 1953 5044 2034 
Q 5044 2406 4934 2573 
Q 4825 2741 4581 2741 
Q 4263 2741 4089 2478 
Q 3916 2216 3909 1719 
L 3909 0 
L 2784 0 
L 2784 1825 
Q 2784 2406 2684 2573 
Q 2584 2741 2328 2741 
Q 2006 2741 1831 2477 
Q 1656 2213 1656 1722 
L 1656 0 
L 531 0 
L 531 3500 
L 1656 3500 
L 1656 2988 
Q 1863 3284 2130 3434 
Q 2397 3584 2719 3584 
Q 3081 3584 3359 3409 
Q 3638 3234 3781 2919 
z
" transform="scale(0.015625)"/>
       <path id="DejaVuSans-Bold-65" d="M 4031 1759 
L 4031 1441 
L 1416 1441 
Q 1456 1047 1700 850 
Q 1944 653 2381 653 
Q 2734 653 3104 758 
Q 3475 863 3866 1075 
L 3866 213 
Q 3469 63 3072 -14 
Q 2675 -91 2278 -91 
Q 1328 -91 801 392 
Q 275 875 275 1747 
Q 275 2603 792 3093 
Q 1309 3584 2216 3584 
Q 3041 3584 3536 3087 
Q 4031 2591 4031 1759 
z
M 2881 2131 
Q 2881 2450 2695 2645 
Q 2509 2841 2209 2841 
Q 1884 2841 1681 2658 
Q 1478 2475 1428 2131 
L 2881 2131 
z
" transform="scale(0.015625)"/>
       <path id="DejaVuSans-Bold-20" transform="scale(0.015625)"/>
       <path id="DejaVuSans-Bold-5b" d="M 550 4863 
L 2491 4863 
L 2491 4159 
L 1613 4159 
L 1613 -141 
L 2491 -141 
L 2491 -844 
L 550 -844 
L 550 4863 
z
" transform="scale(0.015625)"/>
       <path id="DejaVuSans-Bold-68" d="M 4056 2131 
L 4056 0 
L 2931 0 
L 2931 347 
L 2931 1625 
Q 2931 2084 2911 2256 
Q 2891 2428 2841 2509 
Q 2775 2619 2662 2680 
Q 2550 2741 2406 2741 
Q 2056 2741 1856 2470 
Q 1656 2200 1656 1722 
L 1656 0 
L 538 0 
L 538 4863 
L 1656 4863 
L 1656 2988 
Q 1909 3294 2193 3439 
Q 2478 3584 2822 3584 
Q 3428 3584 3742 3212 
Q 4056 2841 4056 2131 
z
" transform="scale(0.015625)"/>
       <path id="DejaVuSans-Bold-72" d="M 3138 2547 
Q 2991 2616 2845 2648 
Q 2700 2681 2553 2681 
Q 2122 2681 1889 2404 
Q 1656 2128 1656 1613 
L 1656 0 
L 538 0 
L 538 3500 
L 1656 3500 
L 1656 2925 
Q 1872 3269 2151 3426 
Q 2431 3584 2822 3584 
Q 2878 3584 2943 3579 
Q 3009 3575 3134 3559 
L 3138 2547 
z
" transform="scale(0.015625)"/>
       <path id="DejaVuSans-Bold-5d" d="M 2375 -844 
L 434 -844 
L 434 -141 
L 1313 -141 
L 1313 4159 
L 434 4159 
L 434 4863 
L 2375 4863 
L 2375 -844 
z
" transform="scale(0.015625)"/>
      </defs>
      <use xlink:href="#DejaVuSans-Bold-74"/>
      <use xlink:href="#DejaVuSans-Bold-69" transform="translate(47.802734 0)"/>
      <use xlink:href="#DejaVuSans-Bold-6d" transform="translate(82.080078 0)"/>
      <use xlink:href="#DejaVuSans-Bold-65" transform="translate(186.279297 0)"/>
      <use xlink:href="#DejaVuSans-Bold-20" transform="translate(254.101562 0)"/>
      <use xlink:href="#DejaVuSans-Bold-5b" transform="translate(288.916016 0)"/>
      <use xlink:href="#DejaVuSans-Bold-68" transform="translate(334.619141 0)"/>
      <use xlink:href="#DejaVuSans-Bold-72" transform="translate(405.810547 0)"/>
      <use xlink:href="#DejaVuSans-Bold-5d" transform="translate(455.126953 0)"/>
     </g>
    </g>
   </g>
   <g id="matplotlib.axis_2">
    <g id="ytick_1">
     <g id="line2d_6">
      <defs>
       <path id="m45280fee1f" d="M 0 0 
L -3.5 0 
" style="stroke: #000000; stroke-width: 0.8"/>
      </defs>
      <g>
       <use xlink:href="#m45280fee1f" x="54.84875" y="309.286957" style="stroke: #000000; stroke-width: 0.8"/>
      </g>
     </g>
     <g id="text_7">
      <!-- 0 -->
      <g transform="translate(38.305 314.985785) scale(0.15 -0.15)">
       <use xlink:href="#DejaVuSans-30"/>
      </g>
     </g>
    </g>
    <g id="ytick_2">
     <g id="line2d_7">
      <g>
       <use xlink:href="#m45280fee1f" x="54.84875" y="276.247838" style="stroke: #000000; stroke-width: 0.8"/>
      </g>
     </g>
     <g id="text_8">
      <!-- 5 -->
      <g transform="translate(38.305 281.946666) scale(0.15 -0.15)">
       <defs>
        <path id="DejaVuSans-35" d="M 691 4666 
L 3169 4666 
L 3169 4134 
L 1269 4134 
L 1269 2991 
Q 1406 3038 1543 3061 
Q 1681 3084 1819 3084 
Q 2600 3084 3056 2656 
Q 3513 2228 3513 1497 
Q 3513 744 3044 326 
Q 2575 -91 1722 -91 
Q 1428 -91 1123 -41 
Q 819 9 494 109 
L 494 744 
Q 775 591 1075 516 
Q 1375 441 1709 441 
Q 2250 441 2565 725 
Q 2881 1009 2881 1497 
Q 2881 1984 2565 2268 
Q 2250 2553 1709 2553 
Q 1456 2553 1204 2497 
Q 953 2441 691 2322 
L 691 4666 
z
" transform="scale(0.015625)"/>
       </defs>
       <use xlink:href="#DejaVuSans-35"/>
      </g>
     </g>
    </g>
    <g id="ytick_3">
     <g id="line2d_8">
      <g>
       <use xlink:href="#m45280fee1f" x="54.84875" y="243.208719" style="stroke: #000000; stroke-width: 0.8"/>
      </g>
     </g>
     <g id="text_9">
      <!-- 10 -->
      <g transform="translate(28.76125 248.907547) scale(0.15 -0.15)">
       <use xlink:href="#DejaVuSans-31"/>
       <use xlink:href="#DejaVuSans-30" transform="translate(63.623047 0)"/>
      </g>
     </g>
    </g>
    <g id="ytick_4">
     <g id="line2d_9">
      <g>
       <use xlink:href="#m45280fee1f" x="54.84875" y="210.1696" style="stroke: #000000; stroke-width: 0.8"/>
      </g>
     </g>
     <g id="text_10">
      <!-- 15 -->
      <g transform="translate(28.76125 215.868428) scale(0.15 -0.15)">
       <use xlink:href="#DejaVuSans-31"/>
       <use xlink:href="#DejaVuSans-35" transform="translate(63.623047 0)"/>
      </g>
     </g>
    </g>
    <g id="ytick_5">
     <g id="line2d_10">
      <g>
       <use xlink:href="#m45280fee1f" x="54.84875" y="177.130481" style="stroke: #000000; stroke-width: 0.8"/>
      </g>
     </g>
     <g id="text_11">
      <!-- 20 -->
      <g transform="translate(28.76125 182.829309) scale(0.15 -0.15)">
       <use xlink:href="#DejaVuSans-32"/>
       <use xlink:href="#DejaVuSans-30" transform="translate(63.623047 0)"/>
      </g>
     </g>
    </g>
    <g id="ytick_6">
     <g id="line2d_11">
      <g>
       <use xlink:href="#m45280fee1f" x="54.84875" y="144.091362" style="stroke: #000000; stroke-width: 0.8"/>
      </g>
     </g>
     <g id="text_12">
      <!-- 25 -->
      <g transform="translate(28.76125 149.79019) scale(0.15 -0.15)">
       <use xlink:href="#DejaVuSans-32"/>
       <use xlink:href="#DejaVuSans-35" transform="translate(63.623047 0)"/>
      </g>
     </g>
    </g>
    <g id="ytick_7">
     <g id="line2d_12">
      <g>
       <use xlink:href="#m45280fee1f" x="54.84875" y="111.052243" style="stroke: #000000; stroke-width: 0.8"/>
      </g>
     </g>
     <g id="text_13">
      <!-- 30 -->
      <g transform="translate(28.76125 116.751071) scale(0.15 -0.15)">
       <use xlink:href="#DejaVuSans-33"/>
       <use xlink:href="#DejaVuSans-30" transform="translate(63.623047 0)"/>
      </g>
     </g>
    </g>
    <g id="text_14">
     <!-- rapamycin [µM] -->
     <g transform="translate(20.877188 279.759864) rotate(-90) scale(0.18 -0.18)">
      <defs>
       <path id="DejaVuSans-Bold-61" d="M 2106 1575 
Q 1756 1575 1579 1456 
Q 1403 1338 1403 1106 
Q 1403 894 1545 773 
Q 1688 653 1941 653 
Q 2256 653 2472 879 
Q 2688 1106 2688 1447 
L 2688 1575 
L 2106 1575 
z
M 3816 1997 
L 3816 0 
L 2688 0 
L 2688 519 
Q 2463 200 2181 54 
Q 1900 -91 1497 -91 
Q 953 -91 614 226 
Q 275 544 275 1050 
Q 275 1666 698 1953 
Q 1122 2241 2028 2241 
L 2688 2241 
L 2688 2328 
Q 2688 2594 2478 2717 
Q 2269 2841 1825 2841 
Q 1466 2841 1156 2769 
Q 847 2697 581 2553 
L 581 3406 
Q 941 3494 1303 3539 
Q 1666 3584 2028 3584 
Q 2975 3584 3395 3211 
Q 3816 2838 3816 1997 
z
" transform="scale(0.015625)"/>
       <path id="DejaVuSans-Bold-70" d="M 1656 506 
L 1656 -1331 
L 538 -1331 
L 538 3500 
L 1656 3500 
L 1656 2988 
Q 1888 3294 2169 3439 
Q 2450 3584 2816 3584 
Q 3463 3584 3878 3070 
Q 4294 2556 4294 1747 
Q 4294 938 3878 423 
Q 3463 -91 2816 -91 
Q 2450 -91 2169 54 
Q 1888 200 1656 506 
z
M 2400 2772 
Q 2041 2772 1848 2508 
Q 1656 2244 1656 1747 
Q 1656 1250 1848 986 
Q 2041 722 2400 722 
Q 2759 722 2948 984 
Q 3138 1247 3138 1747 
Q 3138 2247 2948 2509 
Q 2759 2772 2400 2772 
z
" transform="scale(0.015625)"/>
       <path id="DejaVuSans-Bold-79" d="M 78 3500 
L 1197 3500 
L 2138 1125 
L 2938 3500 
L 4056 3500 
L 2584 -331 
Q 2363 -916 2067 -1148 
Q 1772 -1381 1288 -1381 
L 641 -1381 
L 641 -647 
L 991 -647 
Q 1275 -647 1404 -556 
Q 1534 -466 1606 -231 
L 1638 -134 
L 78 3500 
z
" transform="scale(0.015625)"/>
       <path id="DejaVuSans-Bold-63" d="M 3366 3391 
L 3366 2478 
Q 3138 2634 2908 2709 
Q 2678 2784 2431 2784 
Q 1963 2784 1702 2511 
Q 1441 2238 1441 1747 
Q 1441 1256 1702 982 
Q 1963 709 2431 709 
Q 2694 709 2930 787 
Q 3166 866 3366 1019 
L 3366 103 
Q 3103 6 2833 -42 
Q 2563 -91 2291 -91 
Q 1344 -91 809 395 
Q 275 881 275 1747 
Q 275 2613 809 3098 
Q 1344 3584 2291 3584 
Q 2566 3584 2833 3536 
Q 3100 3488 3366 3391 
z
" transform="scale(0.015625)"/>
       <path id="DejaVuSans-Bold-6e" d="M 4056 2131 
L 4056 0 
L 2931 0 
L 2931 347 
L 2931 1631 
Q 2931 2084 2911 2256 
Q 2891 2428 2841 2509 
Q 2775 2619 2662 2680 
Q 2550 2741 2406 2741 
Q 2056 2741 1856 2470 
Q 1656 2200 1656 1722 
L 1656 0 
L 538 0 
L 538 3500 
L 1656 3500 
L 1656 2988 
Q 1909 3294 2193 3439 
Q 2478 3584 2822 3584 
Q 3428 3584 3742 3212 
Q 4056 2841 4056 2131 
z
" transform="scale(0.015625)"/>
       <path id="DejaVuSans-Bold-b5" d="M 544 -1338 
L 544 3500 
L 1672 3500 
L 1672 1466 
Q 1672 1103 1828 926 
Q 1984 750 2303 750 
Q 2625 750 2781 926 
Q 2938 1103 2938 1466 
L 2938 3500 
L 4063 3500 
L 4063 1159 
Q 4063 938 4114 850 
Q 4166 763 4288 763 
Q 4344 763 4395 778 
Q 4447 794 4506 831 
L 4506 50 
Q 4341 -22 4195 -56 
Q 4050 -91 3909 -91 
Q 3631 -91 3454 26 
Q 3278 144 3169 403 
Q 3022 156 2811 32 
Q 2600 -91 2322 -91 
Q 2091 -91 1928 -17 
Q 1766 56 1672 206 
L 1672 -1338 
L 544 -1338 
z
" transform="scale(0.015625)"/>
       <path id="DejaVuSans-Bold-4d" d="M 588 4666 
L 2119 4666 
L 3181 2169 
L 4250 4666 
L 5778 4666 
L 5778 0 
L 4641 0 
L 4641 3413 
L 3566 897 
L 2803 897 
L 1728 3413 
L 1728 0 
L 588 0 
L 588 4666 
z
" transform="scale(0.015625)"/>
      </defs>
      <use xlink:href="#DejaVuSans-Bold-72"/>
      <use xlink:href="#DejaVuSans-Bold-61" transform="translate(49.316406 0)"/>
      <use xlink:href="#DejaVuSans-Bold-70" transform="translate(116.796875 0)"/>
      <use xlink:href="#DejaVuSans-Bold-61" transform="translate(188.378906 0)"/>
      <use xlink:href="#DejaVuSans-Bold-6d" transform="translate(255.859375 0)"/>
      <use xlink:href="#DejaVuSans-Bold-79" transform="translate(360.058594 0)"/>
      <use xlink:href="#DejaVuSans-Bold-63" transform="translate(425.244141 0)"/>
      <use xlink:href="#DejaVuSans-Bold-69" transform="translate(484.521484 0)"/>
      <use xlink:href="#DejaVuSans-Bold-6e" transform="translate(518.798828 0)"/>
      <use xlink:href="#DejaVuSans-Bold-20" transform="translate(589.990234 0)"/>
      <use xlink:href="#DejaVuSans-Bold-5b" transform="translate(624.804688 0)"/>
      <use xlink:href="#DejaVuSans-Bold-b5" transform="translate(670.507812 0)"/>
      <use xlink:href="#DejaVuSans-Bold-4d" transform="translate(744.091797 0)"/>
      <use xlink:href="#DejaVuSans-Bold-5d" transform="translate(843.603516 0)"/>
     </g>
    </g>
   </g>
   <g id="LineCollection_1">
    <path d="M 108.131685 309.148516 
L 108.131685 309.073995 
" clip-path="url(#pca44e9f830)" style="fill: none; stroke: #000000"/>
    <path d="M 110.537554 308.966082 
L 110.537554 308.666201 
" clip-path="url(#pca44e9f830)" style="fill: none; stroke: #000000"/>
    <path d="M 112.872663 308.861273 
L 112.872663 308.543548 
" clip-path="url(#pca44e9f830)" style="fill: none; stroke: #000000"/>
    <path d="M 119.94875 309.010803 
L 119.94875 308.804685 
" clip-path="url(#pca44e9f830)" style="fill: none; stroke: #000000"/>
    <path d="M 127.024837 309.102304 
L 127.024837 308.916752 
" clip-path="url(#pca44e9f830)" style="fill: none; stroke: #000000"/>
    <path d="M 141.177011 309.183897 
L 141.177011 309.025711 
" clip-path="url(#pca44e9f830)" style="fill: none; stroke: #000000"/>
    <path d="M 162.405272 309.21929 
L 162.405272 309.115429 
" clip-path="url(#pca44e9f830)" style="fill: none; stroke: #000000"/>
    <path d="M 190.70962 309.243738 
L 190.70962 309.16736 
" clip-path="url(#pca44e9f830)" style="fill: none; stroke: #000000"/>
    <path d="M 275.622663 309.253717 
L 275.622663 309.20937 
" clip-path="url(#pca44e9f830)" style="fill: none; stroke: #000000"/>
    <path d="M 445.44875 309.266985 
L 445.44875 309.238407 
" clip-path="url(#pca44e9f830)" style="fill: none; stroke: #000000"/>
    <path d="M 615.274837 309.269942 
L 615.274837 309.248782 
" clip-path="url(#pca44e9f830)" style="fill: none; stroke: #000000"/>
    <path clip-path="url(#pca44e9f830)" style="fill: none; stroke: #000000"/>
    <path clip-path="url(#pca44e9f830)" style="fill: none; stroke: #000000"/>
    <path clip-path="url(#pca44e9f830)" style="fill: none; stroke: #000000"/>
   </g>
   <g id="LineCollection_2">
    <path d="M 108.131685 309.247219 
L 108.131685 309.201782 
" clip-path="url(#pca44e9f830)" style="fill: none; stroke: #d62728"/>
    <path d="M 110.537554 309.183896 
L 110.537554 309.061517 
" clip-path="url(#pca44e9f830)" style="fill: none; stroke: #d62728"/>
    <path d="M 112.872663 309.170149 
L 112.872663 309.044173 
" clip-path="url(#pca44e9f830)" style="fill: none; stroke: #d62728"/>
    <path d="M 119.94875 309.21054 
L 119.94875 309.137743 
" clip-path="url(#pca44e9f830)" style="fill: none; stroke: #d62728"/>
    <path d="M 127.024837 309.237997 
L 127.024837 309.192358 
" clip-path="url(#pca44e9f830)" style="fill: none; stroke: #d62728"/>
    <path d="M 141.177011 309.26114 
L 141.177011 309.237075 
" clip-path="url(#pca44e9f830)" style="fill: none; stroke: #d62728"/>
    <path d="M 162.405272 309.272763 
L 162.405272 309.259242 
" clip-path="url(#pca44e9f830)" style="fill: none; stroke: #d62728"/>
    <path d="M 190.70962 309.277275 
L 190.70962 309.269974 
" clip-path="url(#pca44e9f830)" style="fill: none; stroke: #d62728"/>
    <path d="M 275.622663 309.280667 
L 275.622663 309.275802 
" clip-path="url(#pca44e9f830)" style="fill: none; stroke: #d62728"/>
    <path d="M 445.44875 309.282784 
L 445.44875 309.279476 
" clip-path="url(#pca44e9f830)" style="fill: none; stroke: #d62728"/>
    <path d="M 615.274837 309.28382 
L 615.274837 309.281271 
" clip-path="url(#pca44e9f830)" style="fill: none; stroke: #d62728"/>
    <path clip-path="url(#pca44e9f830)" style="fill: none; stroke: #d62728"/>
    <path clip-path="url(#pca44e9f830)" style="fill: none; stroke: #d62728"/>
    <path clip-path="url(#pca44e9f830)" style="fill: none; stroke: #d62728"/>
   </g>
   <g id="line2d_13">
    <path d="M 105.796576 309.286957 
L 105.966402 308.292778 
L 106.136228 301.587755 
L 106.47588 271.653714 
L 107.664663 150.650432 
L 108.174141 118.339123 
L 108.68362 99.14776 
L 109.023272 92.596391 
L 109.362924 90.156522 
L 109.53275 90.241389 
L 109.702576 91.075429 
L 110.042228 94.654818 
L 110.551707 103.675233 
L 111.400837 124.405447 
L 113.948228 190.510044 
L 115.137011 214.200331 
L 116.155967 230.171493 
L 117.174924 242.665043 
L 118.19388 252.298175 
L 119.212837 259.657149 
L 120.231793 265.245393 
L 121.25075 269.472982 
L 122.269707 272.66389 
L 123.288663 275.069315 
L 124.30762 276.881744 
L 125.326576 278.247558 
L 126.345533 279.277527 
L 127.534315 280.164959 
L 128.892924 280.881881 
L 130.421359 281.429209 
L 132.289446 281.858621 
L 134.836837 282.198315 
L 138.573011 282.450478 
L 145.875533 282.675804 
L 180.180402 283.344282 
L 309.757707 285.681648 
L 445.44875 287.90539 
L 445.44875 287.90539 
" clip-path="url(#pca44e9f830)" style="fill: none; stroke: #000000; stroke-width: 2; stroke-linecap: square"/>
   </g>
   <g id="line2d_14">
    <path d="M 108.131685 309.111256 
L 110.537554 308.816141 
L 112.872663 308.702411 
L 119.94875 308.907744 
L 127.024837 309.009528 
L 141.177011 309.104804 
L 162.405272 309.16736 
L 190.70962 309.205549 
L 275.622663 309.231544 
L 445.44875 309.252696 
L 615.274837 309.259362 
L 643.005562 309.260325 
" clip-path="url(#pca44e9f830)" style="fill: none; stroke-dasharray: 3.7,1.6; stroke-dashoffset: 0; stroke: #000000"/>
    <defs>
     <path id="m571aaecfed" d="M -3 3 
L 3 3 
L 3 -3 
L -3 -3 
z
" style="stroke: #000000; stroke-linejoin: miter"/>
    </defs>
    <g clip-path="url(#pca44e9f830)">
     <use xlink:href="#m571aaecfed" x="108.131685" y="309.111256" style="stroke: #000000; stroke-linejoin: miter"/>
     <use xlink:href="#m571aaecfed" x="110.537554" y="308.816141" style="stroke: #000000; stroke-linejoin: miter"/>
     <use xlink:href="#m571aaecfed" x="112.872663" y="308.702411" style="stroke: #000000; stroke-linejoin: miter"/>
     <use xlink:href="#m571aaecfed" x="119.94875" y="308.907744" style="stroke: #000000; stroke-linejoin: miter"/>
     <use xlink:href="#m571aaecfed" x="127.024837" y="309.009528" style="stroke: #000000; stroke-linejoin: miter"/>
     <use xlink:href="#m571aaecfed" x="141.177011" y="309.104804" style="stroke: #000000; stroke-linejoin: miter"/>
     <use xlink:href="#m571aaecfed" x="162.405272" y="309.16736" style="stroke: #000000; stroke-linejoin: miter"/>
     <use xlink:href="#m571aaecfed" x="190.70962" y="309.205549" style="stroke: #000000; stroke-linejoin: miter"/>
     <use xlink:href="#m571aaecfed" x="275.622663" y="309.231544" style="stroke: #000000; stroke-linejoin: miter"/>
     <use xlink:href="#m571aaecfed" x="445.44875" y="309.252696" style="stroke: #000000; stroke-linejoin: miter"/>
     <use xlink:href="#m571aaecfed" x="615.274837" y="309.259362" style="stroke: #000000; stroke-linejoin: miter"/>
     <use xlink:href="#m571aaecfed" x="785.100924" y="309.265259" style="stroke: #000000; stroke-linejoin: miter"/>
     <use xlink:href="#m571aaecfed" x="954.927011" y="309.270099" style="stroke: #000000; stroke-linejoin: miter"/>
     <use xlink:href="#m571aaecfed" x="1124.753098" y="309.27386" style="stroke: #000000; stroke-linejoin: miter"/>
    </g>
   </g>
   <g id="line2d_15">
    <path d="M 105.796576 309.286957 
L 105.966402 308.302491 
L 106.136228 301.726045 
L 106.47588 272.758419 
L 107.664663 158.155616 
L 108.174141 128.21302 
L 108.68362 110.807558 
L 109.023272 105.117484 
L 109.362924 103.293322 
L 109.53275 103.601235 
L 109.872402 106.226427 
L 110.38188 114.036221 
L 111.061185 128.999662 
L 114.28788 207.035468 
L 115.306837 225.001642 
L 116.325793 239.249992 
L 117.34475 250.327884 
L 118.363707 258.83428 
L 119.382663 265.315213 
L 120.40162 270.229142 
L 121.420576 273.944345 
L 122.439533 276.749111 
L 123.458489 278.865575 
L 124.477446 280.463221 
L 125.496402 281.670546 
L 126.685185 282.713829 
L 127.873967 283.47068 
L 129.232576 284.088401 
L 130.930837 284.6106 
L 133.138576 285.033993 
L 136.195446 285.367547 
L 141.290228 285.661487 
L 154.366837 286.115035 
L 221.787793 288.138573 
L 298.888837 290.237125 
L 380.235533 292.226928 
L 445.44875 293.671556 
L 445.44875 293.671556 
" clip-path="url(#pca44e9f830)" style="fill: none; stroke: #d62728; stroke-width: 2; stroke-linecap: square"/>
   </g>
   <g id="line2d_16">
    <path d="M 108.131685 309.224501 
L 110.537554 309.122706 
L 112.872663 309.107161 
L 119.94875 309.174142 
L 127.024837 309.215178 
L 141.177011 309.249107 
L 162.405272 309.266003 
L 190.70962 309.273625 
L 275.622663 309.278235 
L 445.44875 309.28113 
L 615.274837 309.282546 
L 643.005562 309.282739 
" clip-path="url(#pca44e9f830)" style="fill: none; stroke-dasharray: 3.7,1.6; stroke-dashoffset: 0; stroke: #d62728"/>
    <defs>
     <path id="m07c1763fec" d="M -3 3 
L 3 3 
L 3 -3 
L -3 -3 
z
" style="stroke: #000000; stroke-linejoin: miter"/>
    </defs>
    <g clip-path="url(#pca44e9f830)">
     <use xlink:href="#m07c1763fec" x="108.131685" y="309.224501" style="fill: #d62728; stroke: #000000; stroke-linejoin: miter"/>
     <use xlink:href="#m07c1763fec" x="110.537554" y="309.122706" style="fill: #d62728; stroke: #000000; stroke-linejoin: miter"/>
     <use xlink:href="#m07c1763fec" x="112.872663" y="309.107161" style="fill: #d62728; stroke: #000000; stroke-linejoin: miter"/>
     <use xlink:href="#m07c1763fec" x="119.94875" y="309.174142" style="fill: #d62728; stroke: #000000; stroke-linejoin: miter"/>
     <use xlink:href="#m07c1763fec" x="127.024837" y="309.215178" style="fill: #d62728; stroke: #000000; stroke-linejoin: miter"/>
     <use xlink:href="#m07c1763fec" x="141.177011" y="309.249107" style="fill: #d62728; stroke: #000000; stroke-linejoin: miter"/>
     <use xlink:href="#m07c1763fec" x="162.405272" y="309.266003" style="fill: #d62728; stroke: #000000; stroke-linejoin: miter"/>
     <use xlink:href="#m07c1763fec" x="190.70962" y="309.273625" style="fill: #d62728; stroke: #000000; stroke-linejoin: miter"/>
     <use xlink:href="#m07c1763fec" x="275.622663" y="309.278235" style="fill: #d62728; stroke: #000000; stroke-linejoin: miter"/>
     <use xlink:href="#m07c1763fec" x="445.44875" y="309.28113" style="fill: #d62728; stroke: #000000; stroke-linejoin: miter"/>
     <use xlink:href="#m07c1763fec" x="615.274837" y="309.282546" style="fill: #d62728; stroke: #000000; stroke-linejoin: miter"/>
     <use xlink:href="#m07c1763fec" x="785.100924" y="309.283731" style="fill: #d62728; stroke: #000000; stroke-linejoin: miter"/>
     <use xlink:href="#m07c1763fec" x="954.927011" y="309.284497" style="fill: #d62728; stroke: #000000; stroke-linejoin: miter"/>
     <use xlink:href="#m07c1763fec" x="1124.753098" y="309.284947" style="fill: #d62728; stroke: #000000; stroke-linejoin: miter"/>
    </g>
   </g>
   <g id="patch_3">
    <path d="M 54.84875 320.243478 
L 54.84875 79.2 
" style="fill: none; stroke: #000000; stroke-width: 0.8; stroke-linejoin: miter; stroke-linecap: square"/>
   </g>
   <g id="patch_4">
    <path d="M 445.44875 320.243478 
L 445.44875 79.2 
" style="fill: none; stroke: #000000; stroke-width: 0.8; stroke-linejoin: miter; stroke-linecap: square"/>
   </g>
   <g id="patch_5">
    <path d="M 54.84875 320.243478 
L 445.44875 320.243478 
" style="fill: none; stroke: #000000; stroke-width: 0.8; stroke-linejoin: miter; stroke-linecap: square"/>
   </g>
   <g id="patch_6">
    <path d="M 54.84875 79.2 
L 445.44875 79.2 
" style="fill: none; stroke: #000000; stroke-width: 0.8; stroke-linejoin: miter; stroke-linecap: square"/>
   </g>
   <g id="legend_1">
    <g id="patch_7">
     <path d="M 468.07275 146.46875 
L 632.805563 146.46875 
Q 634.805563 146.46875 634.805563 144.46875 
L 634.805563 86.2 
Q 634.805563 84.2 632.805563 84.2 
L 468.07275 84.2 
Q 466.07275 84.2 466.07275 86.2 
L 466.07275 144.46875 
Q 466.07275 146.46875 468.07275 146.46875 
z
" style="fill: #ffffff; opacity: 0.8; stroke: #cccccc; stroke-linejoin: miter"/>
    </g>
    <g id="line2d_17">
     <path d="M 470.07275 92.298437 
L 490.07275 92.298437 
" style="fill: none; stroke: #000000; stroke-width: 2; stroke-linecap: square"/>
    </g>
    <g id="line2d_18"/>
    <g id="text_15">
     <!-- RAP20 -->
     <g transform="translate(498.07275 95.798437) scale(0.1 -0.1)">
      <defs>
       <path id="DejaVuSans-52" d="M 2841 2188 
Q 3044 2119 3236 1894 
Q 3428 1669 3622 1275 
L 4263 0 
L 3584 0 
L 2988 1197 
Q 2756 1666 2539 1819 
Q 2322 1972 1947 1972 
L 1259 1972 
L 1259 0 
L 628 0 
L 628 4666 
L 2053 4666 
Q 2853 4666 3247 4331 
Q 3641 3997 3641 3322 
Q 3641 2881 3436 2590 
Q 3231 2300 2841 2188 
z
M 1259 4147 
L 1259 2491 
L 2053 2491 
Q 2509 2491 2742 2702 
Q 2975 2913 2975 3322 
Q 2975 3731 2742 3939 
Q 2509 4147 2053 4147 
L 1259 4147 
z
" transform="scale(0.015625)"/>
       <path id="DejaVuSans-41" d="M 2188 4044 
L 1331 1722 
L 3047 1722 
L 2188 4044 
z
M 1831 4666 
L 2547 4666 
L 4325 0 
L 3669 0 
L 3244 1197 
L 1141 1197 
L 716 0 
L 50 0 
L 1831 4666 
z
" transform="scale(0.015625)"/>
       <path id="DejaVuSans-50" d="M 1259 4147 
L 1259 2394 
L 2053 2394 
Q 2494 2394 2734 2622 
Q 2975 2850 2975 3272 
Q 2975 3691 2734 3919 
Q 2494 4147 2053 4147 
L 1259 4147 
z
M 628 4666 
L 2053 4666 
Q 2838 4666 3239 4311 
Q 3641 3956 3641 3272 
Q 3641 2581 3239 2228 
Q 2838 1875 2053 1875 
L 1259 1875 
L 1259 0 
L 628 0 
L 628 4666 
z
" transform="scale(0.015625)"/>
      </defs>
      <use xlink:href="#DejaVuSans-52"/>
      <use xlink:href="#DejaVuSans-41" transform="translate(65.482422 0)"/>
      <use xlink:href="#DejaVuSans-50" transform="translate(133.890625 0)"/>
      <use xlink:href="#DejaVuSans-32" transform="translate(194.193359 0)"/>
      <use xlink:href="#DejaVuSans-30" transform="translate(257.816406 0)"/>
     </g>
    </g>
    <g id="LineCollection_3">
     <path d="M 480.07275 111.976562 
L 480.07275 101.976562 
" style="fill: none; stroke: #000000"/>
    </g>
    <g id="line2d_19">
     <path d="M 470.07275 106.976562 
L 490.07275 106.976562 
" style="fill: none; stroke-dasharray: 3.7,1.6; stroke-dashoffset: 0; stroke: #000000"/>
    </g>
    <g id="line2d_20">
     <g>
      <use xlink:href="#m571aaecfed" x="480.07275" y="106.976562" style="stroke: #000000; stroke-linejoin: miter"/>
     </g>
    </g>
    <g id="text_16">
     <!-- RAP20±SD (n=14) -->
     <g transform="translate(498.07275 110.476562) scale(0.1 -0.1)">
      <defs>
       <path id="DejaVuSans-b1" d="M 2944 4013 
L 2944 2803 
L 4684 2803 
L 4684 2272 
L 2944 2272 
L 2944 1063 
L 2419 1063 
L 2419 2272 
L 678 2272 
L 678 2803 
L 2419 2803 
L 2419 4013 
L 2944 4013 
z
M 678 531 
L 4684 531 
L 4684 0 
L 678 0 
L 678 531 
z
" transform="scale(0.015625)"/>
       <path id="DejaVuSans-53" d="M 3425 4513 
L 3425 3897 
Q 3066 4069 2747 4153 
Q 2428 4238 2131 4238 
Q 1616 4238 1336 4038 
Q 1056 3838 1056 3469 
Q 1056 3159 1242 3001 
Q 1428 2844 1947 2747 
L 2328 2669 
Q 3034 2534 3370 2195 
Q 3706 1856 3706 1288 
Q 3706 609 3251 259 
Q 2797 -91 1919 -91 
Q 1588 -91 1214 -16 
Q 841 59 441 206 
L 441 856 
Q 825 641 1194 531 
Q 1563 422 1919 422 
Q 2459 422 2753 634 
Q 3047 847 3047 1241 
Q 3047 1584 2836 1778 
Q 2625 1972 2144 2069 
L 1759 2144 
Q 1053 2284 737 2584 
Q 422 2884 422 3419 
Q 422 4038 858 4394 
Q 1294 4750 2059 4750 
Q 2388 4750 2728 4690 
Q 3069 4631 3425 4513 
z
" transform="scale(0.015625)"/>
       <path id="DejaVuSans-44" d="M 1259 4147 
L 1259 519 
L 2022 519 
Q 2988 519 3436 956 
Q 3884 1394 3884 2338 
Q 3884 3275 3436 3711 
Q 2988 4147 2022 4147 
L 1259 4147 
z
M 628 4666 
L 1925 4666 
Q 3281 4666 3915 4102 
Q 4550 3538 4550 2338 
Q 4550 1131 3912 565 
Q 3275 0 1925 0 
L 628 0 
L 628 4666 
z
" transform="scale(0.015625)"/>
       <path id="DejaVuSans-20" transform="scale(0.015625)"/>
       <path id="DejaVuSans-28" d="M 1984 4856 
Q 1566 4138 1362 3434 
Q 1159 2731 1159 2009 
Q 1159 1288 1364 580 
Q 1569 -128 1984 -844 
L 1484 -844 
Q 1016 -109 783 600 
Q 550 1309 550 2009 
Q 550 2706 781 3412 
Q 1013 4119 1484 4856 
L 1984 4856 
z
" transform="scale(0.015625)"/>
       <path id="DejaVuSans-6e" d="M 3513 2113 
L 3513 0 
L 2938 0 
L 2938 2094 
Q 2938 2591 2744 2837 
Q 2550 3084 2163 3084 
Q 1697 3084 1428 2787 
Q 1159 2491 1159 1978 
L 1159 0 
L 581 0 
L 581 3500 
L 1159 3500 
L 1159 2956 
Q 1366 3272 1645 3428 
Q 1925 3584 2291 3584 
Q 2894 3584 3203 3211 
Q 3513 2838 3513 2113 
z
" transform="scale(0.015625)"/>
       <path id="DejaVuSans-3d" d="M 678 2906 
L 4684 2906 
L 4684 2381 
L 678 2381 
L 678 2906 
z
M 678 1631 
L 4684 1631 
L 4684 1100 
L 678 1100 
L 678 1631 
z
" transform="scale(0.015625)"/>
       <path id="DejaVuSans-29" d="M 513 4856 
L 1013 4856 
Q 1481 4119 1714 3412 
Q 1947 2706 1947 2009 
Q 1947 1309 1714 600 
Q 1481 -109 1013 -844 
L 513 -844 
Q 928 -128 1133 580 
Q 1338 1288 1338 2009 
Q 1338 2731 1133 3434 
Q 928 4138 513 4856 
z
" transform="scale(0.015625)"/>
      </defs>
      <use xlink:href="#DejaVuSans-52"/>
      <use xlink:href="#DejaVuSans-41" transform="translate(65.482422 0)"/>
      <use xlink:href="#DejaVuSans-50" transform="translate(133.890625 0)"/>
      <use xlink:href="#DejaVuSans-32" transform="translate(194.193359 0)"/>
      <use xlink:href="#DejaVuSans-30" transform="translate(257.816406 0)"/>
      <use xlink:href="#DejaVuSans-b1" transform="translate(321.439453 0)"/>
      <use xlink:href="#DejaVuSans-53" transform="translate(405.228516 0)"/>
      <use xlink:href="#DejaVuSans-44" transform="translate(468.705078 0)"/>
      <use xlink:href="#DejaVuSans-20" transform="translate(545.707031 0)"/>
      <use xlink:href="#DejaVuSans-28" transform="translate(577.494141 0)"/>
      <use xlink:href="#DejaVuSans-6e" transform="translate(616.507812 0)"/>
      <use xlink:href="#DejaVuSans-3d" transform="translate(679.886719 0)"/>
      <use xlink:href="#DejaVuSans-31" transform="translate(763.675781 0)"/>
      <use xlink:href="#DejaVuSans-34" transform="translate(827.298828 0)"/>
      <use xlink:href="#DejaVuSans-29" transform="translate(890.921875 0)"/>
     </g>
    </g>
    <g id="line2d_21">
     <path d="M 470.07275 121.654687 
L 490.07275 121.654687 
" style="fill: none; stroke: #d62728; stroke-width: 2; stroke-linecap: square"/>
    </g>
    <g id="line2d_22"/>
    <g id="text_17">
     <!-- RAP20_RIF600 -->
     <g transform="translate(498.07275 125.154687) scale(0.1 -0.1)">
      <defs>
       <path id="DejaVuSans-5f" d="M 3263 -1063 
L 3263 -1509 
L -63 -1509 
L -63 -1063 
L 3263 -1063 
z
" transform="scale(0.015625)"/>
       <path id="DejaVuSans-49" d="M 628 4666 
L 1259 4666 
L 1259 0 
L 628 0 
L 628 4666 
z
" transform="scale(0.015625)"/>
       <path id="DejaVuSans-46" d="M 628 4666 
L 3309 4666 
L 3309 4134 
L 1259 4134 
L 1259 2759 
L 3109 2759 
L 3109 2228 
L 1259 2228 
L 1259 0 
L 628 0 
L 628 4666 
z
" transform="scale(0.015625)"/>
       <path id="DejaVuSans-36" d="M 2113 2584 
Q 1688 2584 1439 2293 
Q 1191 2003 1191 1497 
Q 1191 994 1439 701 
Q 1688 409 2113 409 
Q 2538 409 2786 701 
Q 3034 994 3034 1497 
Q 3034 2003 2786 2293 
Q 2538 2584 2113 2584 
z
M 3366 4563 
L 3366 3988 
Q 3128 4100 2886 4159 
Q 2644 4219 2406 4219 
Q 1781 4219 1451 3797 
Q 1122 3375 1075 2522 
Q 1259 2794 1537 2939 
Q 1816 3084 2150 3084 
Q 2853 3084 3261 2657 
Q 3669 2231 3669 1497 
Q 3669 778 3244 343 
Q 2819 -91 2113 -91 
Q 1303 -91 875 529 
Q 447 1150 447 2328 
Q 447 3434 972 4092 
Q 1497 4750 2381 4750 
Q 2619 4750 2861 4703 
Q 3103 4656 3366 4563 
z
" transform="scale(0.015625)"/>
      </defs>
      <use xlink:href="#DejaVuSans-52"/>
      <use xlink:href="#DejaVuSans-41" transform="translate(65.482422 0)"/>
      <use xlink:href="#DejaVuSans-50" transform="translate(133.890625 0)"/>
      <use xlink:href="#DejaVuSans-32" transform="translate(194.193359 0)"/>
      <use xlink:href="#DejaVuSans-30" transform="translate(257.816406 0)"/>
      <use xlink:href="#DejaVuSans-5f" transform="translate(321.439453 0)"/>
      <use xlink:href="#DejaVuSans-52" transform="translate(371.439453 0)"/>
      <use xlink:href="#DejaVuSans-49" transform="translate(440.921875 0)"/>
      <use xlink:href="#DejaVuSans-46" transform="translate(470.414062 0)"/>
      <use xlink:href="#DejaVuSans-36" transform="translate(527.933594 0)"/>
      <use xlink:href="#DejaVuSans-30" transform="translate(591.556641 0)"/>
      <use xlink:href="#DejaVuSans-30" transform="translate(655.179688 0)"/>
     </g>
    </g>
    <g id="LineCollection_4">
     <path d="M 480.07275 141.610937 
L 480.07275 131.610937 
" style="fill: none; stroke: #d62728"/>
    </g>
    <g id="line2d_23">
     <path d="M 470.07275 136.610937 
L 490.07275 136.610937 
" style="fill: none; stroke-dasharray: 3.7,1.6; stroke-dashoffset: 0; stroke: #d62728"/>
    </g>
    <g id="line2d_24">
     <g>
      <use xlink:href="#m07c1763fec" x="480.07275" y="136.610937" style="fill: #d62728; stroke: #000000; stroke-linejoin: miter"/>
     </g>
    </g>
    <g id="text_18">
     <!-- RAP20_RIF600±SD (n=14) -->
     <g transform="translate(498.07275 140.110937) scale(0.1 -0.1)">
      <use xlink:href="#DejaVuSans-52"/>
      <use xlink:href="#DejaVuSans-41" transform="translate(65.482422 0)"/>
      <use xlink:href="#DejaVuSans-50" transform="translate(133.890625 0)"/>
      <use xlink:href="#DejaVuSans-32" transform="translate(194.193359 0)"/>
      <use xlink:href="#DejaVuSans-30" transform="translate(257.816406 0)"/>
      <use xlink:href="#DejaVuSans-5f" transform="translate(321.439453 0)"/>
      <use xlink:href="#DejaVuSans-52" transform="translate(371.439453 0)"/>
      <use xlink:href="#DejaVuSans-49" transform="translate(440.921875 0)"/>
      <use xlink:href="#DejaVuSans-46" transform="translate(470.414062 0)"/>
      <use xlink:href="#DejaVuSans-36" transform="translate(527.933594 0)"/>
      <use xlink:href="#DejaVuSans-30" transform="translate(591.556641 0)"/>
      <use xlink:href="#DejaVuSans-30" transform="translate(655.179688 0)"/>
      <use xlink:href="#DejaVuSans-b1" transform="translate(718.802734 0)"/>
      <use xlink:href="#DejaVuSans-53" transform="translate(802.591797 0)"/>
      <use xlink:href="#DejaVuSans-44" transform="translate(866.068359 0)"/>
      <use xlink:href="#DejaVuSans-20" transform="translate(943.070312 0)"/>
      <use xlink:href="#DejaVuSans-28" transform="translate(974.857422 0)"/>
      <use xlink:href="#DejaVuSans-6e" transform="translate(1013.871094 0)"/>
      <use xlink:href="#DejaVuSans-3d" transform="translate(1077.25 0)"/>
      <use xlink:href="#DejaVuSans-31" transform="translate(1161.039062 0)"/>
      <use xlink:href="#DejaVuSans-34" transform="translate(1224.662109 0)"/>
      <use xlink:href="#DejaVuSans-29" transform="translate(1288.285156 0)"/>
     </g>
    </g>
   </g>
  </g>
  <g id="axes_2">
   <g id="patch_8">
    <path d="M 54.84875 633.6 
L 445.44875 633.6 
L 445.44875 392.556522 
L 54.84875 392.556522 
z
" style="fill: #ffffff"/>
   </g>
   <g id="matplotlib.axis_3">
    <g id="xtick_6">
     <g id="line2d_25">
      <g>
       <use xlink:href="#m80dbd0ba69" x="62.820179" y="633.6" style="stroke: #000000; stroke-width: 0.8"/>
      </g>
     </g>
     <g id="text_19">
      <!-- 0 -->
      <g transform="translate(58.048304 651.997656) scale(0.15 -0.15)">
       <use xlink:href="#DejaVuSans-30"/>
      </g>
     </g>
    </g>
    <g id="xtick_7">
     <g id="line2d_26">
      <g>
       <use xlink:href="#m80dbd0ba69" x="142.534464" y="633.6" style="stroke: #000000; stroke-width: 0.8"/>
      </g>
     </g>
     <g id="text_20">
      <!-- 10 -->
      <g transform="translate(132.990714 651.997656) scale(0.15 -0.15)">
       <use xlink:href="#DejaVuSans-31"/>
       <use xlink:href="#DejaVuSans-30" transform="translate(63.623047 0)"/>
      </g>
     </g>
    </g>
    <g id="xtick_8">
     <g id="line2d_27">
      <g>
       <use xlink:href="#m80dbd0ba69" x="222.24875" y="633.6" style="stroke: #000000; stroke-width: 0.8"/>
      </g>
     </g>
     <g id="text_21">
      <!-- 20 -->
      <g transform="translate(212.705 651.997656) scale(0.15 -0.15)">
       <use xlink:href="#DejaVuSans-32"/>
       <use xlink:href="#DejaVuSans-30" transform="translate(63.623047 0)"/>
      </g>
     </g>
    </g>
    <g id="xtick_9">
     <g id="line2d_28">
      <g>
       <use xlink:href="#m80dbd0ba69" x="301.963036" y="633.6" style="stroke: #000000; stroke-width: 0.8"/>
      </g>
     </g>
     <g id="text_22">
      <!-- 30 -->
      <g transform="translate(292.419286 651.997656) scale(0.15 -0.15)">
       <use xlink:href="#DejaVuSans-33"/>
       <use xlink:href="#DejaVuSans-30" transform="translate(63.623047 0)"/>
      </g>
     </g>
    </g>
    <g id="xtick_10">
     <g id="line2d_29">
      <g>
       <use xlink:href="#m80dbd0ba69" x="381.677321" y="633.6" style="stroke: #000000; stroke-width: 0.8"/>
      </g>
     </g>
     <g id="text_23">
      <!-- 40 -->
      <g transform="translate(372.133571 651.997656) scale(0.15 -0.15)">
       <use xlink:href="#DejaVuSans-34"/>
       <use xlink:href="#DejaVuSans-30" transform="translate(63.623047 0)"/>
      </g>
     </g>
    </g>
    <g id="text_24">
     <!-- time [hr] -->
     <g transform="translate(205.074219 672.794375) scale(0.18 -0.18)">
      <use xlink:href="#DejaVuSans-Bold-74"/>
      <use xlink:href="#DejaVuSans-Bold-69" transform="translate(47.802734 0)"/>
      <use xlink:href="#DejaVuSans-Bold-6d" transform="translate(82.080078 0)"/>
      <use xlink:href="#DejaVuSans-Bold-65" transform="translate(186.279297 0)"/>
      <use xlink:href="#DejaVuSans-Bold-20" transform="translate(254.101562 0)"/>
      <use xlink:href="#DejaVuSans-Bold-5b" transform="translate(288.916016 0)"/>
      <use xlink:href="#DejaVuSans-Bold-68" transform="translate(334.619141 0)"/>
      <use xlink:href="#DejaVuSans-Bold-72" transform="translate(405.810547 0)"/>
      <use xlink:href="#DejaVuSans-Bold-5d" transform="translate(455.126953 0)"/>
     </g>
    </g>
   </g>
   <g id="matplotlib.axis_4">
    <g id="ytick_8">
     <g id="line2d_30">
      <g>
       <use xlink:href="#m45280fee1f" x="54.84875" y="622.643478" style="stroke: #000000; stroke-width: 0.8"/>
      </g>
     </g>
     <g id="text_25">
      <!-- 0 -->
      <g transform="translate(38.305 628.342306) scale(0.15 -0.15)">
       <use xlink:href="#DejaVuSans-30"/>
      </g>
     </g>
    </g>
    <g id="ytick_9">
     <g id="line2d_31">
      <g>
       <use xlink:href="#m45280fee1f" x="54.84875" y="589.604359" style="stroke: #000000; stroke-width: 0.8"/>
      </g>
     </g>
     <g id="text_26">
      <!-- 5 -->
      <g transform="translate(38.305 595.303187) scale(0.15 -0.15)">
       <use xlink:href="#DejaVuSans-35"/>
      </g>
     </g>
    </g>
    <g id="ytick_10">
     <g id="line2d_32">
      <g>
       <use xlink:href="#m45280fee1f" x="54.84875" y="556.56524" style="stroke: #000000; stroke-width: 0.8"/>
      </g>
     </g>
     <g id="text_27">
      <!-- 10 -->
      <g transform="translate(28.76125 562.264068) scale(0.15 -0.15)">
       <use xlink:href="#DejaVuSans-31"/>
       <use xlink:href="#DejaVuSans-30" transform="translate(63.623047 0)"/>
      </g>
     </g>
    </g>
    <g id="ytick_11">
     <g id="line2d_33">
      <g>
       <use xlink:href="#m45280fee1f" x="54.84875" y="523.526121" style="stroke: #000000; stroke-width: 0.8"/>
      </g>
     </g>
     <g id="text_28">
      <!-- 15 -->
      <g transform="translate(28.76125 529.224949) scale(0.15 -0.15)">
       <use xlink:href="#DejaVuSans-31"/>
       <use xlink:href="#DejaVuSans-35" transform="translate(63.623047 0)"/>
      </g>
     </g>
    </g>
    <g id="ytick_12">
     <g id="line2d_34">
      <g>
       <use xlink:href="#m45280fee1f" x="54.84875" y="490.487002" style="stroke: #000000; stroke-width: 0.8"/>
      </g>
     </g>
     <g id="text_29">
      <!-- 20 -->
      <g transform="translate(28.76125 496.18583) scale(0.15 -0.15)">
       <use xlink:href="#DejaVuSans-32"/>
       <use xlink:href="#DejaVuSans-30" transform="translate(63.623047 0)"/>
      </g>
     </g>
    </g>
    <g id="ytick_13">
     <g id="line2d_35">
      <g>
       <use xlink:href="#m45280fee1f" x="54.84875" y="457.447883" style="stroke: #000000; stroke-width: 0.8"/>
      </g>
     </g>
     <g id="text_30">
      <!-- 25 -->
      <g transform="translate(28.76125 463.146712) scale(0.15 -0.15)">
       <use xlink:href="#DejaVuSans-32"/>
       <use xlink:href="#DejaVuSans-35" transform="translate(63.623047 0)"/>
      </g>
     </g>
    </g>
    <g id="ytick_14">
     <g id="line2d_36">
      <g>
       <use xlink:href="#m45280fee1f" x="54.84875" y="424.408764" style="stroke: #000000; stroke-width: 0.8"/>
      </g>
     </g>
     <g id="text_31">
      <!-- 30 -->
      <g transform="translate(28.76125 430.107593) scale(0.15 -0.15)">
       <use xlink:href="#DejaVuSans-33"/>
       <use xlink:href="#DejaVuSans-30" transform="translate(63.623047 0)"/>
      </g>
     </g>
    </g>
    <g id="text_32">
     <!-- rapamycin [µM] -->
     <g transform="translate(20.877188 593.116386) rotate(-90) scale(0.18 -0.18)">
      <use xlink:href="#DejaVuSans-Bold-72"/>
      <use xlink:href="#DejaVuSans-Bold-61" transform="translate(49.316406 0)"/>
      <use xlink:href="#DejaVuSans-Bold-70" transform="translate(116.796875 0)"/>
      <use xlink:href="#DejaVuSans-Bold-61" transform="translate(188.378906 0)"/>
      <use xlink:href="#DejaVuSans-Bold-6d" transform="translate(255.859375 0)"/>
      <use xlink:href="#DejaVuSans-Bold-79" transform="translate(360.058594 0)"/>
      <use xlink:href="#DejaVuSans-Bold-63" transform="translate(425.244141 0)"/>
      <use xlink:href="#DejaVuSans-Bold-69" transform="translate(484.521484 0)"/>
      <use xlink:href="#DejaVuSans-Bold-6e" transform="translate(518.798828 0)"/>
      <use xlink:href="#DejaVuSans-Bold-20" transform="translate(589.990234 0)"/>
      <use xlink:href="#DejaVuSans-Bold-5b" transform="translate(624.804688 0)"/>
      <use xlink:href="#DejaVuSans-Bold-b5" transform="translate(670.507812 0)"/>
      <use xlink:href="#DejaVuSans-Bold-4d" transform="translate(744.091797 0)"/>
      <use xlink:href="#DejaVuSans-Bold-5d" transform="translate(843.603516 0)"/>
     </g>
    </g>
   </g>
   <g id="LineCollection_5">
    <path d="M 65.45075 622.505038 
L 65.45075 622.430517 
" clip-path="url(#p4b046df110)" style="fill: none; stroke: #000000"/>
    <path d="M 68.161036 622.322604 
L 68.161036 622.022723 
" clip-path="url(#p4b046df110)" style="fill: none; stroke: #000000"/>
    <path d="M 70.791607 622.217795 
L 70.791607 621.90007 
" clip-path="url(#p4b046df110)" style="fill: none; stroke: #000000"/>
    <path d="M 78.763036 622.367325 
L 78.763036 622.161207 
" clip-path="url(#p4b046df110)" style="fill: none; stroke: #000000"/>
    <path d="M 86.734464 622.458826 
L 86.734464 622.273274 
" clip-path="url(#p4b046df110)" style="fill: none; stroke: #000000"/>
    <path d="M 102.677321 622.540419 
L 102.677321 622.382233 
" clip-path="url(#p4b046df110)" style="fill: none; stroke: #000000"/>
    <path d="M 126.591607 622.575812 
L 126.591607 622.471951 
" clip-path="url(#p4b046df110)" style="fill: none; stroke: #000000"/>
    <path d="M 158.477321 622.60026 
L 158.477321 622.523881 
" clip-path="url(#p4b046df110)" style="fill: none; stroke: #000000"/>
    <path d="M 254.134464 622.610238 
L 254.134464 622.565892 
" clip-path="url(#p4b046df110)" style="fill: none; stroke: #000000"/>
    <path d="M 445.44875 622.623507 
L 445.44875 622.594929 
" clip-path="url(#p4b046df110)" style="fill: none; stroke: #000000"/>
    <path d="M 636.763036 622.626464 
L 636.763036 622.605303 
" clip-path="url(#p4b046df110)" style="fill: none; stroke: #000000"/>
    <path clip-path="url(#p4b046df110)" style="fill: none; stroke: #000000"/>
    <path clip-path="url(#p4b046df110)" style="fill: none; stroke: #000000"/>
    <path clip-path="url(#p4b046df110)" style="fill: none; stroke: #000000"/>
   </g>
   <g id="LineCollection_6">
    <path d="M 65.45075 622.603741 
L 65.45075 622.558304 
" clip-path="url(#p4b046df110)" style="fill: none; stroke: #d62728"/>
    <path d="M 68.161036 622.540418 
L 68.161036 622.418039 
" clip-path="url(#p4b046df110)" style="fill: none; stroke: #d62728"/>
    <path d="M 70.791607 622.52667 
L 70.791607 622.400694 
" clip-path="url(#p4b046df110)" style="fill: none; stroke: #d62728"/>
    <path d="M 78.763036 622.567062 
L 78.763036 622.494265 
" clip-path="url(#p4b046df110)" style="fill: none; stroke: #d62728"/>
    <path d="M 86.734464 622.594519 
L 86.734464 622.54888 
" clip-path="url(#p4b046df110)" style="fill: none; stroke: #d62728"/>
    <path d="M 102.677321 622.617662 
L 102.677321 622.593596 
" clip-path="url(#p4b046df110)" style="fill: none; stroke: #d62728"/>
    <path d="M 126.591607 622.629285 
L 126.591607 622.615764 
" clip-path="url(#p4b046df110)" style="fill: none; stroke: #d62728"/>
    <path d="M 158.477321 622.633797 
L 158.477321 622.626496 
" clip-path="url(#p4b046df110)" style="fill: none; stroke: #d62728"/>
    <path d="M 254.134464 622.637189 
L 254.134464 622.632324 
" clip-path="url(#p4b046df110)" style="fill: none; stroke: #d62728"/>
    <path d="M 445.44875 622.639306 
L 445.44875 622.635998 
" clip-path="url(#p4b046df110)" style="fill: none; stroke: #d62728"/>
    <path d="M 636.763036 622.640341 
L 636.763036 622.637793 
" clip-path="url(#p4b046df110)" style="fill: none; stroke: #d62728"/>
    <path clip-path="url(#p4b046df110)" style="fill: none; stroke: #d62728"/>
    <path clip-path="url(#p4b046df110)" style="fill: none; stroke: #d62728"/>
    <path clip-path="url(#p4b046df110)" style="fill: none; stroke: #d62728"/>
   </g>
   <g id="line2d_37">
    <path d="M 62.820179 622.643478 
L 63.011493 621.6493 
L 63.202807 614.944276 
L 63.585436 585.010236 
L 64.924636 464.006953 
L 65.498579 431.695645 
L 66.072521 412.504281 
L 66.45515 405.952912 
L 66.837779 403.513043 
L 67.029093 403.597911 
L 67.220407 404.431951 
L 67.603036 408.01134 
L 68.176979 417.031755 
L 69.13355 437.761969 
L 72.003264 503.866566 
L 73.15115 524.51735 
L 74.299036 541.123849 
L 75.446921 554.154686 
L 76.403493 562.723839 
L 77.360064 569.584797 
L 78.316636 575.051021 
L 79.273207 579.391252 
L 80.229779 582.829504 
L 81.18635 585.549125 
L 82.142921 587.698361 
L 83.290807 589.690152 
L 84.438693 591.190963 
L 85.586579 592.322403 
L 86.925779 593.296749 
L 88.264979 594.000012 
L 89.986807 594.627437 
L 91.89995 595.082293 
L 94.387036 595.443168 
L 98.022007 595.725542 
L 104.335379 595.951668 
L 123.084179 596.302818 
L 261.787036 598.56303 
L 413.30795 600.812309 
L 445.44875 601.261912 
L 445.44875 601.261912 
" clip-path="url(#p4b046df110)" style="fill: none; stroke: #000000; stroke-width: 2; stroke-linecap: square"/>
   </g>
   <g id="line2d_38">
    <path d="M 65.45075 622.467777 
L 68.161036 622.172663 
L 70.791607 622.058933 
L 78.763036 622.264266 
L 86.734464 622.36605 
L 102.677321 622.461326 
L 126.591607 622.523881 
L 158.477321 622.562071 
L 254.134464 622.588065 
L 445.44875 622.609218 
L 636.763036 622.615884 
L 643.005562 622.616076 
" clip-path="url(#p4b046df110)" style="fill: none; stroke-dasharray: 3.7,1.6; stroke-dashoffset: 0; stroke: #000000"/>
    <g clip-path="url(#p4b046df110)">
     <use xlink:href="#m571aaecfed" x="65.45075" y="622.467777" style="stroke: #000000; stroke-linejoin: miter"/>
     <use xlink:href="#m571aaecfed" x="68.161036" y="622.172663" style="stroke: #000000; stroke-linejoin: miter"/>
     <use xlink:href="#m571aaecfed" x="70.791607" y="622.058933" style="stroke: #000000; stroke-linejoin: miter"/>
     <use xlink:href="#m571aaecfed" x="78.763036" y="622.264266" style="stroke: #000000; stroke-linejoin: miter"/>
     <use xlink:href="#m571aaecfed" x="86.734464" y="622.36605" style="stroke: #000000; stroke-linejoin: miter"/>
     <use xlink:href="#m571aaecfed" x="102.677321" y="622.461326" style="stroke: #000000; stroke-linejoin: miter"/>
     <use xlink:href="#m571aaecfed" x="126.591607" y="622.523881" style="stroke: #000000; stroke-linejoin: miter"/>
     <use xlink:href="#m571aaecfed" x="158.477321" y="622.562071" style="stroke: #000000; stroke-linejoin: miter"/>
     <use xlink:href="#m571aaecfed" x="254.134464" y="622.588065" style="stroke: #000000; stroke-linejoin: miter"/>
     <use xlink:href="#m571aaecfed" x="445.44875" y="622.609218" style="stroke: #000000; stroke-linejoin: miter"/>
     <use xlink:href="#m571aaecfed" x="636.763036" y="622.615884" style="stroke: #000000; stroke-linejoin: miter"/>
     <use xlink:href="#m571aaecfed" x="828.077321" y="622.62178" style="stroke: #000000; stroke-linejoin: miter"/>
     <use xlink:href="#m571aaecfed" x="1019.391607" y="622.626621" style="stroke: #000000; stroke-linejoin: miter"/>
     <use xlink:href="#m571aaecfed" x="1210.705893" y="622.630382" style="stroke: #000000; stroke-linejoin: miter"/>
    </g>
   </g>
   <g id="line2d_39">
    <path d="M 62.820179 622.643478 
L 63.011493 621.659012 
L 63.202807 615.082567 
L 63.585436 586.114941 
L 64.733321 484.486097 
L 65.307264 450.075682 
L 65.881207 428.693163 
L 66.263836 420.788903 
L 66.646464 417.125249 
L 66.837779 416.649843 
L 67.029093 416.957757 
L 67.220407 417.962722 
L 67.603036 421.741579 
L 68.176979 430.757891 
L 69.13355 450.891666 
L 71.81195 509.913229 
L 72.959836 529.86672 
L 74.107721 545.916017 
L 75.255607 558.503848 
L 76.212179 566.777008 
L 77.16875 573.398084 
L 78.125321 578.671735 
L 79.081893 582.858806 
L 80.038464 586.176365 
L 80.995036 588.801786 
L 81.951607 590.878267 
L 83.099493 592.805204 
L 84.247379 594.260195 
L 85.395264 595.360294 
L 86.734464 596.311741 
L 88.264979 597.084992 
L 89.986807 597.681024 
L 92.091264 598.156402 
L 94.769664 598.525064 
L 98.787264 598.833237 
L 106.248521 599.138909 
L 133.797779 599.921162 
L 217.593436 602.099544 
L 305.789321 604.168219 
L 398.768064 606.124934 
L 445.44875 607.028078 
L 445.44875 607.028078 
" clip-path="url(#p4b046df110)" style="fill: none; stroke: #d62728; stroke-width: 2; stroke-linecap: square"/>
   </g>
   <g id="line2d_40">
    <path d="M 65.45075 622.581022 
L 68.161036 622.479228 
L 70.791607 622.463682 
L 78.763036 622.530663 
L 86.734464 622.5717 
L 102.677321 622.605629 
L 126.591607 622.622524 
L 158.477321 622.630146 
L 254.134464 622.634756 
L 445.44875 622.637652 
L 636.763036 622.639067 
L 643.005562 622.639106 
" clip-path="url(#p4b046df110)" style="fill: none; stroke-dasharray: 3.7,1.6; stroke-dashoffset: 0; stroke: #d62728"/>
    <g clip-path="url(#p4b046df110)">
     <use xlink:href="#m07c1763fec" x="65.45075" y="622.581022" style="fill: #d62728; stroke: #000000; stroke-linejoin: miter"/>
     <use xlink:href="#m07c1763fec" x="68.161036" y="622.479228" style="fill: #d62728; stroke: #000000; stroke-linejoin: miter"/>
     <use xlink:href="#m07c1763fec" x="70.791607" y="622.463682" style="fill: #d62728; stroke: #000000; stroke-linejoin: miter"/>
     <use xlink:href="#m07c1763fec" x="78.763036" y="622.530663" style="fill: #d62728; stroke: #000000; stroke-linejoin: miter"/>
     <use xlink:href="#m07c1763fec" x="86.734464" y="622.5717" style="fill: #d62728; stroke: #000000; stroke-linejoin: miter"/>
     <use xlink:href="#m07c1763fec" x="102.677321" y="622.605629" style="fill: #d62728; stroke: #000000; stroke-linejoin: miter"/>
     <use xlink:href="#m07c1763fec" x="126.591607" y="622.622524" style="fill: #d62728; stroke: #000000; stroke-linejoin: miter"/>
     <use xlink:href="#m07c1763fec" x="158.477321" y="622.630146" style="fill: #d62728; stroke: #000000; stroke-linejoin: miter"/>
     <use xlink:href="#m07c1763fec" x="254.134464" y="622.634756" style="fill: #d62728; stroke: #000000; stroke-linejoin: miter"/>
     <use xlink:href="#m07c1763fec" x="445.44875" y="622.637652" style="fill: #d62728; stroke: #000000; stroke-linejoin: miter"/>
     <use xlink:href="#m07c1763fec" x="636.763036" y="622.639067" style="fill: #d62728; stroke: #000000; stroke-linejoin: miter"/>
     <use xlink:href="#m07c1763fec" x="828.077321" y="622.640253" style="fill: #d62728; stroke: #000000; stroke-linejoin: miter"/>
     <use xlink:href="#m07c1763fec" x="1019.391607" y="622.641019" style="fill: #d62728; stroke: #000000; stroke-linejoin: miter"/>
     <use xlink:href="#m07c1763fec" x="1210.705893" y="622.641468" style="fill: #d62728; stroke: #000000; stroke-linejoin: miter"/>
    </g>
   </g>
   <g id="patch_9">
    <path d="M 54.84875 633.6 
L 54.84875 392.556522 
" style="fill: none; stroke: #000000; stroke-width: 0.8; stroke-linejoin: miter; stroke-linecap: square"/>
   </g>
   <g id="patch_10">
    <path d="M 445.44875 633.6 
L 445.44875 392.556522 
" style="fill: none; stroke: #000000; stroke-width: 0.8; stroke-linejoin: miter; stroke-linecap: square"/>
   </g>
   <g id="patch_11">
    <path d="M 54.84875 633.6 
L 445.44875 633.6 
" style="fill: none; stroke: #000000; stroke-width: 0.8; stroke-linejoin: miter; stroke-linecap: square"/>
   </g>
   <g id="patch_12">
    <path d="M 54.84875 392.556522 
L 445.44875 392.556522 
" style="fill: none; stroke: #000000; stroke-width: 0.8; stroke-linejoin: miter; stroke-linecap: square"/>
   </g>
   <g id="legend_2">
    <g id="patch_13">
     <path d="M 468.07275 459.825272 
L 632.805563 459.825272 
Q 634.805563 459.825272 634.805563 457.825272 
L 634.805563 399.556522 
Q 634.805563 397.556522 632.805563 397.556522 
L 468.07275 397.556522 
Q 466.07275 397.556522 466.07275 399.556522 
L 466.07275 457.825272 
Q 466.07275 459.825272 468.07275 459.825272 
z
" style="fill: #ffffff; opacity: 0.8; stroke: #cccccc; stroke-linejoin: miter"/>
    </g>
    <g id="line2d_41">
     <path d="M 470.07275 405.654959 
L 490.07275 405.654959 
" style="fill: none; stroke: #000000; stroke-width: 2; stroke-linecap: square"/>
    </g>
    <g id="line2d_42"/>
    <g id="text_33">
     <!-- RAP20 -->
     <g transform="translate(498.07275 409.154959) scale(0.1 -0.1)">
      <use xlink:href="#DejaVuSans-52"/>
      <use xlink:href="#DejaVuSans-41" transform="translate(65.482422 0)"/>
      <use xlink:href="#DejaVuSans-50" transform="translate(133.890625 0)"/>
      <use xlink:href="#DejaVuSans-32" transform="translate(194.193359 0)"/>
      <use xlink:href="#DejaVuSans-30" transform="translate(257.816406 0)"/>
     </g>
    </g>
    <g id="LineCollection_7">
     <path d="M 480.07275 425.333084 
L 480.07275 415.333084 
" style="fill: none; stroke: #000000"/>
    </g>
    <g id="line2d_43">
     <path d="M 470.07275 420.333084 
L 490.07275 420.333084 
" style="fill: none; stroke-dasharray: 3.7,1.6; stroke-dashoffset: 0; stroke: #000000"/>
    </g>
    <g id="line2d_44">
     <g>
      <use xlink:href="#m571aaecfed" x="480.07275" y="420.333084" style="stroke: #000000; stroke-linejoin: miter"/>
     </g>
    </g>
    <g id="text_34">
     <!-- RAP20±SD (n=14) -->
     <g transform="translate(498.07275 423.833084) scale(0.1 -0.1)">
      <use xlink:href="#DejaVuSans-52"/>
      <use xlink:href="#DejaVuSans-41" transform="translate(65.482422 0)"/>
      <use xlink:href="#DejaVuSans-50" transform="translate(133.890625 0)"/>
      <use xlink:href="#DejaVuSans-32" transform="translate(194.193359 0)"/>
      <use xlink:href="#DejaVuSans-30" transform="translate(257.816406 0)"/>
      <use xlink:href="#DejaVuSans-b1" transform="translate(321.439453 0)"/>
      <use xlink:href="#DejaVuSans-53" transform="translate(405.228516 0)"/>
      <use xlink:href="#DejaVuSans-44" transform="translate(468.705078 0)"/>
      <use xlink:href="#DejaVuSans-20" transform="translate(545.707031 0)"/>
      <use xlink:href="#DejaVuSans-28" transform="translate(577.494141 0)"/>
      <use xlink:href="#DejaVuSans-6e" transform="translate(616.507812 0)"/>
      <use xlink:href="#DejaVuSans-3d" transform="translate(679.886719 0)"/>
      <use xlink:href="#DejaVuSans-31" transform="translate(763.675781 0)"/>
      <use xlink:href="#DejaVuSans-34" transform="translate(827.298828 0)"/>
      <use xlink:href="#DejaVuSans-29" transform="translate(890.921875 0)"/>
     </g>
    </g>
    <g id="line2d_45">
     <path d="M 470.07275 435.011209 
L 490.07275 435.011209 
" style="fill: none; stroke: #d62728; stroke-width: 2; stroke-linecap: square"/>
    </g>
    <g id="line2d_46"/>
    <g id="text_35">
     <!-- RAP20_RIF600 -->
     <g transform="translate(498.07275 438.511209) scale(0.1 -0.1)">
      <use xlink:href="#DejaVuSans-52"/>
      <use xlink:href="#DejaVuSans-41" transform="translate(65.482422 0)"/>
      <use xlink:href="#DejaVuSans-50" transform="translate(133.890625 0)"/>
      <use xlink:href="#DejaVuSans-32" transform="translate(194.193359 0)"/>
      <use xlink:href="#DejaVuSans-30" transform="translate(257.816406 0)"/>
      <use xlink:href="#DejaVuSans-5f" transform="translate(321.439453 0)"/>
      <use xlink:href="#DejaVuSans-52" transform="translate(371.439453 0)"/>
      <use xlink:href="#DejaVuSans-49" transform="translate(440.921875 0)"/>
      <use xlink:href="#DejaVuSans-46" transform="translate(470.414062 0)"/>
      <use xlink:href="#DejaVuSans-36" transform="translate(527.933594 0)"/>
      <use xlink:href="#DejaVuSans-30" transform="translate(591.556641 0)"/>
      <use xlink:href="#DejaVuSans-30" transform="translate(655.179688 0)"/>
     </g>
    </g>
    <g id="LineCollection_8">
     <path d="M 480.07275 454.967459 
L 480.07275 444.967459 
" style="fill: none; stroke: #d62728"/>
    </g>
    <g id="line2d_47">
     <path d="M 470.07275 449.967459 
L 490.07275 449.967459 
" style="fill: none; stroke-dasharray: 3.7,1.6; stroke-dashoffset: 0; stroke: #d62728"/>
    </g>
    <g id="line2d_48">
     <g>
      <use xlink:href="#m07c1763fec" x="480.07275" y="449.967459" style="fill: #d62728; stroke: #000000; stroke-linejoin: miter"/>
     </g>
    </g>
    <g id="text_36">
     <!-- RAP20_RIF600±SD (n=14) -->
     <g transform="translate(498.07275 453.467459) scale(0.1 -0.1)">
      <use xlink:href="#DejaVuSans-52"/>
      <use xlink:href="#DejaVuSans-41" transform="translate(65.482422 0)"/>
      <use xlink:href="#DejaVuSans-50" transform="translate(133.890625 0)"/>
      <use xlink:href="#DejaVuSans-32" transform="translate(194.193359 0)"/>
      <use xlink:href="#DejaVuSans-30" transform="translate(257.816406 0)"/>
      <use xlink:href="#DejaVuSans-5f" transform="translate(321.439453 0)"/>
      <use xlink:href="#DejaVuSans-52" transform="translate(371.439453 0)"/>
      <use xlink:href="#DejaVuSans-49" transform="translate(440.921875 0)"/>
      <use xlink:href="#DejaVuSans-46" transform="translate(470.414062 0)"/>
      <use xlink:href="#DejaVuSans-36" transform="translate(527.933594 0)"/>
      <use xlink:href="#DejaVuSans-30" transform="translate(591.556641 0)"/>
      <use xlink:href="#DejaVuSans-30" transform="translate(655.179688 0)"/>
      <use xlink:href="#DejaVuSans-b1" transform="translate(718.802734 0)"/>
      <use xlink:href="#DejaVuSans-53" transform="translate(802.591797 0)"/>
      <use xlink:href="#DejaVuSans-44" transform="translate(866.068359 0)"/>
      <use xlink:href="#DejaVuSans-20" transform="translate(943.070312 0)"/>
      <use xlink:href="#DejaVuSans-28" transform="translate(974.857422 0)"/>
      <use xlink:href="#DejaVuSans-6e" transform="translate(1013.871094 0)"/>
      <use xlink:href="#DejaVuSans-3d" transform="translate(1077.25 0)"/>
      <use xlink:href="#DejaVuSans-31" transform="translate(1161.039062 0)"/>
      <use xlink:href="#DejaVuSans-34" transform="translate(1224.662109 0)"/>
      <use xlink:href="#DejaVuSans-29" transform="translate(1288.285156 0)"/>
     </g>
    </g>
   </g>
  </g>
  <g id="text_37">
   <!-- Tortorici2014 -->
   <g transform="translate(150.729609 26.196094) scale(0.25 -0.25)">
    <defs>
     <path id="DejaVuSans-Bold-54" d="M 31 4666 
L 4331 4666 
L 4331 3756 
L 2784 3756 
L 2784 0 
L 1581 0 
L 1581 3756 
L 31 3756 
L 31 4666 
z
" transform="scale(0.015625)"/>
     <path id="DejaVuSans-Bold-6f" d="M 2203 2784 
Q 1831 2784 1636 2517 
Q 1441 2250 1441 1747 
Q 1441 1244 1636 976 
Q 1831 709 2203 709 
Q 2569 709 2762 976 
Q 2956 1244 2956 1747 
Q 2956 2250 2762 2517 
Q 2569 2784 2203 2784 
z
M 2203 3584 
Q 3106 3584 3614 3096 
Q 4122 2609 4122 1747 
Q 4122 884 3614 396 
Q 3106 -91 2203 -91 
Q 1297 -91 786 396 
Q 275 884 275 1747 
Q 275 2609 786 3096 
Q 1297 3584 2203 3584 
z
" transform="scale(0.015625)"/>
     <path id="DejaVuSans-Bold-32" d="M 1844 884 
L 3897 884 
L 3897 0 
L 506 0 
L 506 884 
L 2209 2388 
Q 2438 2594 2547 2791 
Q 2656 2988 2656 3200 
Q 2656 3528 2436 3728 
Q 2216 3928 1850 3928 
Q 1569 3928 1234 3808 
Q 900 3688 519 3450 
L 519 4475 
Q 925 4609 1322 4679 
Q 1719 4750 2100 4750 
Q 2938 4750 3402 4381 
Q 3866 4013 3866 3353 
Q 3866 2972 3669 2642 
Q 3472 2313 2841 1759 
L 1844 884 
z
" transform="scale(0.015625)"/>
     <path id="DejaVuSans-Bold-30" d="M 2944 2338 
Q 2944 3213 2780 3570 
Q 2616 3928 2228 3928 
Q 1841 3928 1675 3570 
Q 1509 3213 1509 2338 
Q 1509 1453 1675 1090 
Q 1841 728 2228 728 
Q 2613 728 2778 1090 
Q 2944 1453 2944 2338 
z
M 4147 2328 
Q 4147 1169 3647 539 
Q 3147 -91 2228 -91 
Q 1306 -91 806 539 
Q 306 1169 306 2328 
Q 306 3491 806 4120 
Q 1306 4750 2228 4750 
Q 3147 4750 3647 4120 
Q 4147 3491 4147 2328 
z
" transform="scale(0.015625)"/>
     <path id="DejaVuSans-Bold-31" d="M 750 831 
L 1813 831 
L 1813 3847 
L 722 3622 
L 722 4441 
L 1806 4666 
L 2950 4666 
L 2950 831 
L 4013 831 
L 4013 0 
L 750 0 
L 750 831 
z
" transform="scale(0.015625)"/>
     <path id="DejaVuSans-Bold-34" d="M 2356 3675 
L 1038 1722 
L 2356 1722 
L 2356 3675 
z
M 2156 4666 
L 3494 4666 
L 3494 1722 
L 4159 1722 
L 4159 850 
L 3494 850 
L 3494 0 
L 2356 0 
L 2356 850 
L 288 850 
L 288 1881 
L 2156 4666 
z
" transform="scale(0.015625)"/>
    </defs>
    <use xlink:href="#DejaVuSans-Bold-54"/>
    <use xlink:href="#DejaVuSans-Bold-6f" transform="translate(54.962891 0)"/>
    <use xlink:href="#DejaVuSans-Bold-72" transform="translate(123.664062 0)"/>
    <use xlink:href="#DejaVuSans-Bold-74" transform="translate(172.980469 0)"/>
    <use xlink:href="#DejaVuSans-Bold-6f" transform="translate(220.783203 0)"/>
    <use xlink:href="#DejaVuSans-Bold-72" transform="translate(289.484375 0)"/>
    <use xlink:href="#DejaVuSans-Bold-69" transform="translate(338.800781 0)"/>
    <use xlink:href="#DejaVuSans-Bold-63" transform="translate(373.078125 0)"/>
    <use xlink:href="#DejaVuSans-Bold-69" transform="translate(432.355469 0)"/>
    <use xlink:href="#DejaVuSans-Bold-32" transform="translate(466.632812 0)"/>
    <use xlink:href="#DejaVuSans-Bold-30" transform="translate(536.212891 0)"/>
    <use xlink:href="#DejaVuSans-Bold-31" transform="translate(605.792969 0)"/>
    <use xlink:href="#DejaVuSans-Bold-34" transform="translate(675.373047 0)"/>
   </g>
  </g>
 </g>
 <defs>
  <clipPath id="pca44e9f830">
   <rect x="54.84875" y="79.2" width="390.6" height="241.043478"/>
  </clipPath>
  <clipPath id="p4b046df110">
   <rect x="54.84875" y="392.556522" width="390.6" height="241.043478"/>
  </clipPath>
 </defs>
</svg>
