<?xml version="1.0" encoding="utf-8" standalone="no"?>
<!DOCTYPE svg PUBLIC "-//W3C//DTD SVG 1.1//EN"
  "http://www.w3.org/Graphics/SVG/1.1/DTD/svg11.dtd">
<svg xmlns:xlink="http://www.w3.org/1999/xlink" width="462.1925pt" height="370.537812pt" viewBox="0 0 462.1925 370.537812" xmlns="http://www.w3.org/2000/svg" version="1.1">
 <metadata>
  <rdf:RDF xmlns:dc="http://purl.org/dc/elements/1.1/" xmlns:cc="http://creativecommons.org/ns#" xmlns:rdf="http://www.w3.org/1999/02/22-rdf-syntax-ns#">
   <cc:Work>
    <dc:type rdf:resource="http://purl.org/dc/dcmitype/StillImage"/>
    <dc:date>2026-02-12T15:19:45.514398</dc:date>
    <dc:format>image/svg+xml</dc:format>
    <dc:creator>
     <cc:Agent>
      <dc:title>Matplotlib v3.10.7, https://matplotlib.org/</dc:title>
     </cc:Agent>
    </dc:creator>
   </cc:Work>
  </rdf:RDF>
 </metadata>
 <defs>
  <style type="text/css">*{stroke-linejoin: round; stroke-linecap: butt}</style>
 </defs>
 <g id="figure_1">
  <g id="patch_1">
   <path d="M 0 370.537812 
L 462.1925 370.537812 
L 462.1925 0 
L 0 0 
z
" style="fill: #ffffff"/>
  </g>
  <g id="axes_1">
   <g id="patch_2">
    <path d="M 64.3925 320.4 
L 454.9925 320.4 
L 454.9925 43.2 
L 64.3925 43.2 
z
" style="fill: #ffffff"/>
   </g>
   <g id="matplotlib.axis_1">
    <g id="xtick_1">
     <g id="line2d_1">
      <defs>
       <path id="m083986ef50" d="M 0 0 
L 0 3.5 
" style="stroke: #000000; stroke-width: 0.8"/>
      </defs>
      <g>
       <use xlink:href="#m083986ef50" x="82.147045" y="320.4" style="stroke: #000000; stroke-width: 0.8"/>
      </g>
     </g>
     <g id="text_1">
      <!-- 0 -->
      <g transform="translate(77.37517 338.797656) scale(0.15 -0.15)">
       <defs>
        <path id="DejaVuSans-30" d="M 2034 4250 
Q 1547 4250 1301 3770 
Q 1056 3291 1056 2328 
Q 1056 1369 1301 889 
Q 1547 409 2034 409 
Q 2525 409 2770 889 
Q 3016 1369 3016 2328 
Q 3016 3291 2770 3770 
Q 2525 4250 2034 4250 
z
M 2034 4750 
Q 2819 4750 3233 4129 
Q 3647 3509 3647 2328 
Q 3647 1150 3233 529 
Q 2819 -91 2034 -91 
Q 1250 -91 836 529 
Q 422 1150 422 2328 
Q 422 3509 836 4129 
Q 1250 4750 2034 4750 
z
" transform="scale(0.015625)"/>
       </defs>
       <use xlink:href="#DejaVuSans-30"/>
      </g>
     </g>
    </g>
    <g id="xtick_2">
     <g id="line2d_2">
      <g>
       <use xlink:href="#m083986ef50" x="141.328864" y="320.4" style="stroke: #000000; stroke-width: 0.8"/>
      </g>
     </g>
     <g id="text_2">
      <!-- 25 -->
      <g transform="translate(131.785114 338.797656) scale(0.15 -0.15)">
       <defs>
        <path id="DejaVuSans-32" d="M 1228 531 
L 3431 531 
L 3431 0 
L 469 0 
L 469 531 
Q 828 903 1448 1529 
Q 2069 2156 2228 2338 
Q 2531 2678 2651 2914 
Q 2772 3150 2772 3378 
Q 2772 3750 2511 3984 
Q 2250 4219 1831 4219 
Q 1534 4219 1204 4116 
Q 875 4013 500 3803 
L 500 4441 
Q 881 4594 1212 4672 
Q 1544 4750 1819 4750 
Q 2544 4750 2975 4387 
Q 3406 4025 3406 3419 
Q 3406 3131 3298 2873 
Q 3191 2616 2906 2266 
Q 2828 2175 2409 1742 
Q 1991 1309 1228 531 
z
" transform="scale(0.015625)"/>
        <path id="DejaVuSans-35" d="M 691 4666 
L 3169 4666 
L 3169 4134 
L 1269 4134 
L 1269 2991 
Q 1406 3038 1543 3061 
Q 1681 3084 1819 3084 
Q 2600 3084 3056 2656 
Q 3513 2228 3513 1497 
Q 3513 744 3044 326 
Q 2575 -91 1722 -91 
Q 1428 -91 1123 -41 
Q 819 9 494 109 
L 494 744 
Q 775 591 1075 516 
Q 1375 441 1709 441 
Q 2250 441 2565 725 
Q 2881 1009 2881 1497 
Q 2881 1984 2565 2268 
Q 2250 2553 1709 2553 
Q 1456 2553 1204 2497 
Q 953 2441 691 2322 
L 691 4666 
z
" transform="scale(0.015625)"/>
       </defs>
       <use xlink:href="#DejaVuSans-32"/>
       <use xlink:href="#DejaVuSans-35" transform="translate(63.623047 0)"/>
      </g>
     </g>
    </g>
    <g id="xtick_3">
     <g id="line2d_3">
      <g>
       <use xlink:href="#m083986ef50" x="200.510682" y="320.4" style="stroke: #000000; stroke-width: 0.8"/>
      </g>
     </g>
     <g id="text_3">
      <!-- 50 -->
      <g transform="translate(190.966932 338.797656) scale(0.15 -0.15)">
       <use xlink:href="#DejaVuSans-35"/>
       <use xlink:href="#DejaVuSans-30" transform="translate(63.623047 0)"/>
      </g>
     </g>
    </g>
    <g id="xtick_4">
     <g id="line2d_4">
      <g>
       <use xlink:href="#m083986ef50" x="259.6925" y="320.4" style="stroke: #000000; stroke-width: 0.8"/>
      </g>
     </g>
     <g id="text_4">
      <!-- 75 -->
      <g transform="translate(250.14875 338.797656) scale(0.15 -0.15)">
       <defs>
        <path id="DejaVuSans-37" d="M 525 4666 
L 3525 4666 
L 3525 4397 
L 1831 0 
L 1172 0 
L 2766 4134 
L 525 4134 
L 525 4666 
z
" transform="scale(0.015625)"/>
       </defs>
       <use xlink:href="#DejaVuSans-37"/>
       <use xlink:href="#DejaVuSans-35" transform="translate(63.623047 0)"/>
      </g>
     </g>
    </g>
    <g id="xtick_5">
     <g id="line2d_5">
      <g>
       <use xlink:href="#m083986ef50" x="318.874318" y="320.4" style="stroke: #000000; stroke-width: 0.8"/>
      </g>
     </g>
     <g id="text_5">
      <!-- 100 -->
      <g transform="translate(304.558693 338.797656) scale(0.15 -0.15)">
       <defs>
        <path id="DejaVuSans-31" d="M 794 531 
L 1825 531 
L 1825 4091 
L 703 3866 
L 703 4441 
L 1819 4666 
L 2450 4666 
L 2450 531 
L 3481 531 
L 3481 0 
L 794 0 
L 794 531 
z
" transform="scale(0.015625)"/>
       </defs>
       <use xlink:href="#DejaVuSans-31"/>
       <use xlink:href="#DejaVuSans-30" transform="translate(63.623047 0)"/>
       <use xlink:href="#DejaVuSans-30" transform="translate(127.246094 0)"/>
      </g>
     </g>
    </g>
    <g id="xtick_6">
     <g id="line2d_6">
      <g>
       <use xlink:href="#m083986ef50" x="378.056136" y="320.4" style="stroke: #000000; stroke-width: 0.8"/>
      </g>
     </g>
     <g id="text_6">
      <!-- 125 -->
      <g transform="translate(363.740511 338.797656) scale(0.15 -0.15)">
       <use xlink:href="#DejaVuSans-31"/>
       <use xlink:href="#DejaVuSans-32" transform="translate(63.623047 0)"/>
       <use xlink:href="#DejaVuSans-35" transform="translate(127.246094 0)"/>
      </g>
     </g>
    </g>
    <g id="xtick_7">
     <g id="line2d_7">
      <g>
       <use xlink:href="#m083986ef50" x="437.237955" y="320.4" style="stroke: #000000; stroke-width: 0.8"/>
      </g>
     </g>
     <g id="text_7">
      <!-- 150 -->
      <g transform="translate(422.92233 338.797656) scale(0.15 -0.15)">
       <use xlink:href="#DejaVuSans-31"/>
       <use xlink:href="#DejaVuSans-35" transform="translate(63.623047 0)"/>
       <use xlink:href="#DejaVuSans-30" transform="translate(127.246094 0)"/>
      </g>
     </g>
    </g>
    <g id="text_8">
     <!-- time [hr] -->
     <g transform="translate(214.617969 359.594375) scale(0.18 -0.18)">
      <defs>
       <path id="DejaVuSans-Bold-74" d="M 1759 4494 
L 1759 3500 
L 2913 3500 
L 2913 2700 
L 1759 2700 
L 1759 1216 
Q 1759 972 1856 886 
Q 1953 800 2241 800 
L 2816 800 
L 2816 0 
L 1856 0 
Q 1194 0 917 276 
Q 641 553 641 1216 
L 641 2700 
L 84 2700 
L 84 3500 
L 641 3500 
L 641 4494 
L 1759 4494 
z
" transform="scale(0.015625)"/>
       <path id="DejaVuSans-Bold-69" d="M 538 3500 
L 1656 3500 
L 1656 0 
L 538 0 
L 538 3500 
z
M 538 4863 
L 1656 4863 
L 1656 3950 
L 538 3950 
L 538 4863 
z
" transform="scale(0.015625)"/>
       <path id="DejaVuSans-Bold-6d" d="M 3781 2919 
Q 3994 3244 4286 3414 
Q 4578 3584 4928 3584 
Q 5531 3584 5847 3212 
Q 6163 2841 6163 2131 
L 6163 0 
L 5038 0 
L 5038 1825 
Q 5041 1866 5042 1909 
Q 5044 1953 5044 2034 
Q 5044 2406 4934 2573 
Q 4825 2741 4581 2741 
Q 4263 2741 4089 2478 
Q 3916 2216 3909 1719 
L 3909 0 
L 2784 0 
L 2784 1825 
Q 2784 2406 2684 2573 
Q 2584 2741 2328 2741 
Q 2006 2741 1831 2477 
Q 1656 2213 1656 1722 
L 1656 0 
L 531 0 
L 531 3500 
L 1656 3500 
L 1656 2988 
Q 1863 3284 2130 3434 
Q 2397 3584 2719 3584 
Q 3081 3584 3359 3409 
Q 3638 3234 3781 2919 
z
" transform="scale(0.015625)"/>
       <path id="DejaVuSans-Bold-65" d="M 4031 1759 
L 4031 1441 
L 1416 1441 
Q 1456 1047 1700 850 
Q 1944 653 2381 653 
Q 2734 653 3104 758 
Q 3475 863 3866 1075 
L 3866 213 
Q 3469 63 3072 -14 
Q 2675 -91 2278 -91 
Q 1328 -91 801 392 
Q 275 875 275 1747 
Q 275 2603 792 3093 
Q 1309 3584 2216 3584 
Q 3041 3584 3536 3087 
Q 4031 2591 4031 1759 
z
M 2881 2131 
Q 2881 2450 2695 2645 
Q 2509 2841 2209 2841 
Q 1884 2841 1681 2658 
Q 1478 2475 1428 2131 
L 2881 2131 
z
" transform="scale(0.015625)"/>
       <path id="DejaVuSans-Bold-20" transform="scale(0.015625)"/>
       <path id="DejaVuSans-Bold-5b" d="M 550 4863 
L 2491 4863 
L 2491 4159 
L 1613 4159 
L 1613 -141 
L 2491 -141 
L 2491 -844 
L 550 -844 
L 550 4863 
z
" transform="scale(0.015625)"/>
       <path id="DejaVuSans-Bold-68" d="M 4056 2131 
L 4056 0 
L 2931 0 
L 2931 347 
L 2931 1625 
Q 2931 2084 2911 2256 
Q 2891 2428 2841 2509 
Q 2775 2619 2662 2680 
Q 2550 2741 2406 2741 
Q 2056 2741 1856 2470 
Q 1656 2200 1656 1722 
L 1656 0 
L 538 0 
L 538 4863 
L 1656 4863 
L 1656 2988 
Q 1909 3294 2193 3439 
Q 2478 3584 2822 3584 
Q 3428 3584 3742 3212 
Q 4056 2841 4056 2131 
z
" transform="scale(0.015625)"/>
       <path id="DejaVuSans-Bold-72" d="M 3138 2547 
Q 2991 2616 2845 2648 
Q 2700 2681 2553 2681 
Q 2122 2681 1889 2404 
Q 1656 2128 1656 1613 
L 1656 0 
L 538 0 
L 538 3500 
L 1656 3500 
L 1656 2925 
Q 1872 3269 2151 3426 
Q 2431 3584 2822 3584 
Q 2878 3584 2943 3579 
Q 3009 3575 3134 3559 
L 3138 2547 
z
" transform="scale(0.015625)"/>
       <path id="DejaVuSans-Bold-5d" d="M 2375 -844 
L 434 -844 
L 434 -141 
L 1313 -141 
L 1313 4159 
L 434 4159 
L 434 4863 
L 2375 4863 
L 2375 -844 
z
" transform="scale(0.015625)"/>
      </defs>
      <use xlink:href="#DejaVuSans-Bold-74"/>
      <use xlink:href="#DejaVuSans-Bold-69" transform="translate(47.802734 0)"/>
      <use xlink:href="#DejaVuSans-Bold-6d" transform="translate(82.080078 0)"/>
      <use xlink:href="#DejaVuSans-Bold-65" transform="translate(186.279297 0)"/>
      <use xlink:href="#DejaVuSans-Bold-20" transform="translate(254.101562 0)"/>
      <use xlink:href="#DejaVuSans-Bold-5b" transform="translate(288.916016 0)"/>
      <use xlink:href="#DejaVuSans-Bold-68" transform="translate(334.619141 0)"/>
      <use xlink:href="#DejaVuSans-Bold-72" transform="translate(405.810547 0)"/>
      <use xlink:href="#DejaVuSans-Bold-5d" transform="translate(455.126953 0)"/>
     </g>
    </g>
   </g>
   <g id="matplotlib.axis_2">
    <g id="ytick_1">
     <g id="line2d_8">
      <defs>
       <path id="ma1bd01b61f" d="M 0 0 
L -3.5 0 
" style="stroke: #000000; stroke-width: 0.8"/>
      </defs>
      <g>
       <use xlink:href="#ma1bd01b61f" x="64.3925" y="307.709126" style="stroke: #000000; stroke-width: 0.8"/>
      </g>
     </g>
     <g id="text_9">
      <!-- 0 -->
      <g transform="translate(47.84875 313.407954) scale(0.15 -0.15)">
       <use xlink:href="#DejaVuSans-30"/>
      </g>
     </g>
    </g>
    <g id="ytick_2">
     <g id="line2d_9">
      <g>
       <use xlink:href="#ma1bd01b61f" x="64.3925" y="270.658107" style="stroke: #000000; stroke-width: 0.8"/>
      </g>
     </g>
     <g id="text_10">
      <!-- 20 -->
      <g transform="translate(38.305 276.356935) scale(0.15 -0.15)">
       <use xlink:href="#DejaVuSans-32"/>
       <use xlink:href="#DejaVuSans-30" transform="translate(63.623047 0)"/>
      </g>
     </g>
    </g>
    <g id="ytick_3">
     <g id="line2d_10">
      <g>
       <use xlink:href="#ma1bd01b61f" x="64.3925" y="233.607088" style="stroke: #000000; stroke-width: 0.8"/>
      </g>
     </g>
     <g id="text_11">
      <!-- 40 -->
      <g transform="translate(38.305 239.305917) scale(0.15 -0.15)">
       <defs>
        <path id="DejaVuSans-34" d="M 2419 4116 
L 825 1625 
L 2419 1625 
L 2419 4116 
z
M 2253 4666 
L 3047 4666 
L 3047 1625 
L 3713 1625 
L 3713 1100 
L 3047 1100 
L 3047 0 
L 2419 0 
L 2419 1100 
L 313 1100 
L 313 1709 
L 2253 4666 
z
" transform="scale(0.015625)"/>
       </defs>
       <use xlink:href="#DejaVuSans-34"/>
       <use xlink:href="#DejaVuSans-30" transform="translate(63.623047 0)"/>
      </g>
     </g>
    </g>
    <g id="ytick_4">
     <g id="line2d_11">
      <g>
       <use xlink:href="#ma1bd01b61f" x="64.3925" y="196.55607" style="stroke: #000000; stroke-width: 0.8"/>
      </g>
     </g>
     <g id="text_12">
      <!-- 60 -->
      <g transform="translate(38.305 202.254898) scale(0.15 -0.15)">
       <defs>
        <path id="DejaVuSans-36" d="M 2113 2584 
Q 1688 2584 1439 2293 
Q 1191 2003 1191 1497 
Q 1191 994 1439 701 
Q 1688 409 2113 409 
Q 2538 409 2786 701 
Q 3034 994 3034 1497 
Q 3034 2003 2786 2293 
Q 2538 2584 2113 2584 
z
M 3366 4563 
L 3366 3988 
Q 3128 4100 2886 4159 
Q 2644 4219 2406 4219 
Q 1781 4219 1451 3797 
Q 1122 3375 1075 2522 
Q 1259 2794 1537 2939 
Q 1816 3084 2150 3084 
Q 2853 3084 3261 2657 
Q 3669 2231 3669 1497 
Q 3669 778 3244 343 
Q 2819 -91 2113 -91 
Q 1303 -91 875 529 
Q 447 1150 447 2328 
Q 447 3434 972 4092 
Q 1497 4750 2381 4750 
Q 2619 4750 2861 4703 
Q 3103 4656 3366 4563 
z
" transform="scale(0.015625)"/>
       </defs>
       <use xlink:href="#DejaVuSans-36"/>
       <use xlink:href="#DejaVuSans-30" transform="translate(63.623047 0)"/>
      </g>
     </g>
    </g>
    <g id="ytick_5">
     <g id="line2d_12">
      <g>
       <use xlink:href="#ma1bd01b61f" x="64.3925" y="159.505051" style="stroke: #000000; stroke-width: 0.8"/>
      </g>
     </g>
     <g id="text_13">
      <!-- 80 -->
      <g transform="translate(38.305 165.203879) scale(0.15 -0.15)">
       <defs>
        <path id="DejaVuSans-38" d="M 2034 2216 
Q 1584 2216 1326 1975 
Q 1069 1734 1069 1313 
Q 1069 891 1326 650 
Q 1584 409 2034 409 
Q 2484 409 2743 651 
Q 3003 894 3003 1313 
Q 3003 1734 2745 1975 
Q 2488 2216 2034 2216 
z
M 1403 2484 
Q 997 2584 770 2862 
Q 544 3141 544 3541 
Q 544 4100 942 4425 
Q 1341 4750 2034 4750 
Q 2731 4750 3128 4425 
Q 3525 4100 3525 3541 
Q 3525 3141 3298 2862 
Q 3072 2584 2669 2484 
Q 3125 2378 3379 2068 
Q 3634 1759 3634 1313 
Q 3634 634 3220 271 
Q 2806 -91 2034 -91 
Q 1263 -91 848 271 
Q 434 634 434 1313 
Q 434 1759 690 2068 
Q 947 2378 1403 2484 
z
M 1172 3481 
Q 1172 3119 1398 2916 
Q 1625 2713 2034 2713 
Q 2441 2713 2670 2916 
Q 2900 3119 2900 3481 
Q 2900 3844 2670 4047 
Q 2441 4250 2034 4250 
Q 1625 4250 1398 4047 
Q 1172 3844 1172 3481 
z
" transform="scale(0.015625)"/>
       </defs>
       <use xlink:href="#DejaVuSans-38"/>
       <use xlink:href="#DejaVuSans-30" transform="translate(63.623047 0)"/>
      </g>
     </g>
    </g>
    <g id="ytick_6">
     <g id="line2d_13">
      <g>
       <use xlink:href="#ma1bd01b61f" x="64.3925" y="122.454032" style="stroke: #000000; stroke-width: 0.8"/>
      </g>
     </g>
     <g id="text_14">
      <!-- 100 -->
      <g transform="translate(28.76125 128.15286) scale(0.15 -0.15)">
       <use xlink:href="#DejaVuSans-31"/>
       <use xlink:href="#DejaVuSans-30" transform="translate(63.623047 0)"/>
       <use xlink:href="#DejaVuSans-30" transform="translate(127.246094 0)"/>
      </g>
     </g>
    </g>
    <g id="ytick_7">
     <g id="line2d_14">
      <g>
       <use xlink:href="#ma1bd01b61f" x="64.3925" y="85.403014" style="stroke: #000000; stroke-width: 0.8"/>
      </g>
     </g>
     <g id="text_15">
      <!-- 120 -->
      <g transform="translate(28.76125 91.101842) scale(0.15 -0.15)">
       <use xlink:href="#DejaVuSans-31"/>
       <use xlink:href="#DejaVuSans-32" transform="translate(63.623047 0)"/>
       <use xlink:href="#DejaVuSans-30" transform="translate(127.246094 0)"/>
      </g>
     </g>
    </g>
    <g id="ytick_8">
     <g id="line2d_15">
      <g>
       <use xlink:href="#ma1bd01b61f" x="64.3925" y="48.351995" style="stroke: #000000; stroke-width: 0.8"/>
      </g>
     </g>
     <g id="text_16">
      <!-- 140 -->
      <g transform="translate(28.76125 54.050823) scale(0.15 -0.15)">
       <use xlink:href="#DejaVuSans-31"/>
       <use xlink:href="#DejaVuSans-34" transform="translate(63.623047 0)"/>
       <use xlink:href="#DejaVuSans-30" transform="translate(127.246094 0)"/>
      </g>
     </g>
    </g>
    <g id="text_17">
     <!-- rapamycin blood [nM] -->
     <g transform="translate(20.877187 293.092031) rotate(-90) scale(0.18 -0.18)">
      <defs>
       <path id="DejaVuSans-Bold-61" d="M 2106 1575 
Q 1756 1575 1579 1456 
Q 1403 1338 1403 1106 
Q 1403 894 1545 773 
Q 1688 653 1941 653 
Q 2256 653 2472 879 
Q 2688 1106 2688 1447 
L 2688 1575 
L 2106 1575 
z
M 3816 1997 
L 3816 0 
L 2688 0 
L 2688 519 
Q 2463 200 2181 54 
Q 1900 -91 1497 -91 
Q 953 -91 614 226 
Q 275 544 275 1050 
Q 275 1666 698 1953 
Q 1122 2241 2028 2241 
L 2688 2241 
L 2688 2328 
Q 2688 2594 2478 2717 
Q 2269 2841 1825 2841 
Q 1466 2841 1156 2769 
Q 847 2697 581 2553 
L 581 3406 
Q 941 3494 1303 3539 
Q 1666 3584 2028 3584 
Q 2975 3584 3395 3211 
Q 3816 2838 3816 1997 
z
" transform="scale(0.015625)"/>
       <path id="DejaVuSans-Bold-70" d="M 1656 506 
L 1656 -1331 
L 538 -1331 
L 538 3500 
L 1656 3500 
L 1656 2988 
Q 1888 3294 2169 3439 
Q 2450 3584 2816 3584 
Q 3463 3584 3878 3070 
Q 4294 2556 4294 1747 
Q 4294 938 3878 423 
Q 3463 -91 2816 -91 
Q 2450 -91 2169 54 
Q 1888 200 1656 506 
z
M 2400 2772 
Q 2041 2772 1848 2508 
Q 1656 2244 1656 1747 
Q 1656 1250 1848 986 
Q 2041 722 2400 722 
Q 2759 722 2948 984 
Q 3138 1247 3138 1747 
Q 3138 2247 2948 2509 
Q 2759 2772 2400 2772 
z
" transform="scale(0.015625)"/>
       <path id="DejaVuSans-Bold-79" d="M 78 3500 
L 1197 3500 
L 2138 1125 
L 2938 3500 
L 4056 3500 
L 2584 -331 
Q 2363 -916 2067 -1148 
Q 1772 -1381 1288 -1381 
L 641 -1381 
L 641 -647 
L 991 -647 
Q 1275 -647 1404 -556 
Q 1534 -466 1606 -231 
L 1638 -134 
L 78 3500 
z
" transform="scale(0.015625)"/>
       <path id="DejaVuSans-Bold-63" d="M 3366 3391 
L 3366 2478 
Q 3138 2634 2908 2709 
Q 2678 2784 2431 2784 
Q 1963 2784 1702 2511 
Q 1441 2238 1441 1747 
Q 1441 1256 1702 982 
Q 1963 709 2431 709 
Q 2694 709 2930 787 
Q 3166 866 3366 1019 
L 3366 103 
Q 3103 6 2833 -42 
Q 2563 -91 2291 -91 
Q 1344 -91 809 395 
Q 275 881 275 1747 
Q 275 2613 809 3098 
Q 1344 3584 2291 3584 
Q 2566 3584 2833 3536 
Q 3100 3488 3366 3391 
z
" transform="scale(0.015625)"/>
       <path id="DejaVuSans-Bold-6e" d="M 4056 2131 
L 4056 0 
L 2931 0 
L 2931 347 
L 2931 1631 
Q 2931 2084 2911 2256 
Q 2891 2428 2841 2509 
Q 2775 2619 2662 2680 
Q 2550 2741 2406 2741 
Q 2056 2741 1856 2470 
Q 1656 2200 1656 1722 
L 1656 0 
L 538 0 
L 538 3500 
L 1656 3500 
L 1656 2988 
Q 1909 3294 2193 3439 
Q 2478 3584 2822 3584 
Q 3428 3584 3742 3212 
Q 4056 2841 4056 2131 
z
" transform="scale(0.015625)"/>
       <path id="DejaVuSans-Bold-62" d="M 2400 722 
Q 2759 722 2948 984 
Q 3138 1247 3138 1747 
Q 3138 2247 2948 2509 
Q 2759 2772 2400 2772 
Q 2041 2772 1848 2508 
Q 1656 2244 1656 1747 
Q 1656 1250 1848 986 
Q 2041 722 2400 722 
z
M 1656 2988 
Q 1888 3294 2169 3439 
Q 2450 3584 2816 3584 
Q 3463 3584 3878 3070 
Q 4294 2556 4294 1747 
Q 4294 938 3878 423 
Q 3463 -91 2816 -91 
Q 2450 -91 2169 54 
Q 1888 200 1656 506 
L 1656 0 
L 538 0 
L 538 4863 
L 1656 4863 
L 1656 2988 
z
" transform="scale(0.015625)"/>
       <path id="DejaVuSans-Bold-6c" d="M 538 4863 
L 1656 4863 
L 1656 0 
L 538 0 
L 538 4863 
z
" transform="scale(0.015625)"/>
       <path id="DejaVuSans-Bold-6f" d="M 2203 2784 
Q 1831 2784 1636 2517 
Q 1441 2250 1441 1747 
Q 1441 1244 1636 976 
Q 1831 709 2203 709 
Q 2569 709 2762 976 
Q 2956 1244 2956 1747 
Q 2956 2250 2762 2517 
Q 2569 2784 2203 2784 
z
M 2203 3584 
Q 3106 3584 3614 3096 
Q 4122 2609 4122 1747 
Q 4122 884 3614 396 
Q 3106 -91 2203 -91 
Q 1297 -91 786 396 
Q 275 884 275 1747 
Q 275 2609 786 3096 
Q 1297 3584 2203 3584 
z
" transform="scale(0.015625)"/>
       <path id="DejaVuSans-Bold-64" d="M 2919 2988 
L 2919 4863 
L 4044 4863 
L 4044 0 
L 2919 0 
L 2919 506 
Q 2688 197 2409 53 
Q 2131 -91 1766 -91 
Q 1119 -91 703 423 
Q 288 938 288 1747 
Q 288 2556 703 3070 
Q 1119 3584 1766 3584 
Q 2128 3584 2408 3439 
Q 2688 3294 2919 2988 
z
M 2181 722 
Q 2541 722 2730 984 
Q 2919 1247 2919 1747 
Q 2919 2247 2730 2509 
Q 2541 2772 2181 2772 
Q 1825 2772 1636 2509 
Q 1447 2247 1447 1747 
Q 1447 1247 1636 984 
Q 1825 722 2181 722 
z
" transform="scale(0.015625)"/>
       <path id="DejaVuSans-Bold-4d" d="M 588 4666 
L 2119 4666 
L 3181 2169 
L 4250 4666 
L 5778 4666 
L 5778 0 
L 4641 0 
L 4641 3413 
L 3566 897 
L 2803 897 
L 1728 3413 
L 1728 0 
L 588 0 
L 588 4666 
z
" transform="scale(0.015625)"/>
      </defs>
      <use xlink:href="#DejaVuSans-Bold-72"/>
      <use xlink:href="#DejaVuSans-Bold-61" transform="translate(49.316406 0)"/>
      <use xlink:href="#DejaVuSans-Bold-70" transform="translate(116.796875 0)"/>
      <use xlink:href="#DejaVuSans-Bold-61" transform="translate(188.378906 0)"/>
      <use xlink:href="#DejaVuSans-Bold-6d" transform="translate(255.859375 0)"/>
      <use xlink:href="#DejaVuSans-Bold-79" transform="translate(360.058594 0)"/>
      <use xlink:href="#DejaVuSans-Bold-63" transform="translate(425.244141 0)"/>
      <use xlink:href="#DejaVuSans-Bold-69" transform="translate(484.521484 0)"/>
      <use xlink:href="#DejaVuSans-Bold-6e" transform="translate(518.798828 0)"/>
      <use xlink:href="#DejaVuSans-Bold-20" transform="translate(589.990234 0)"/>
      <use xlink:href="#DejaVuSans-Bold-62" transform="translate(624.804688 0)"/>
      <use xlink:href="#DejaVuSans-Bold-6c" transform="translate(696.386719 0)"/>
      <use xlink:href="#DejaVuSans-Bold-6f" transform="translate(730.664062 0)"/>
      <use xlink:href="#DejaVuSans-Bold-6f" transform="translate(799.365234 0)"/>
      <use xlink:href="#DejaVuSans-Bold-64" transform="translate(868.066406 0)"/>
      <use xlink:href="#DejaVuSans-Bold-20" transform="translate(939.648438 0)"/>
      <use xlink:href="#DejaVuSans-Bold-5b" transform="translate(974.462891 0)"/>
      <use xlink:href="#DejaVuSans-Bold-6e" transform="translate(1020.166016 0)"/>
      <use xlink:href="#DejaVuSans-Bold-4d" transform="translate(1091.357422 0)"/>
      <use xlink:href="#DejaVuSans-Bold-5d" transform="translate(1190.869141 0)"/>
     </g>
    </g>
   </g>
   <g id="LineCollection_1">
    <path d="M 82.147045 307.8 
L 82.147045 307.456442 
" clip-path="url(#p39d7d7e054)" style="fill: none; stroke: #000000"/>
    <path d="M 82.928245 295.901529 
L 82.928245 245.798151 
" clip-path="url(#p39d7d7e054)" style="fill: none; stroke: #000000"/>
    <path clip-path="url(#p39d7d7e054)" style="fill: none; stroke: #000000"/>
    <path clip-path="url(#p39d7d7e054)" style="fill: none; stroke: #000000"/>
    <path clip-path="url(#p39d7d7e054)" style="fill: none; stroke: #000000"/>
    <path d="M 89.248864 289.085276 
L 89.248864 243.847824 
" clip-path="url(#p39d7d7e054)" style="fill: none; stroke: #000000"/>
    <path d="M 93.983409 288.925567 
L 93.983409 276.35623 
" clip-path="url(#p39d7d7e054)" style="fill: none; stroke: #000000"/>
    <path d="M 101.085227 296.567128 
L 101.085227 288.058648 
" clip-path="url(#p39d7d7e054)" style="fill: none; stroke: #000000"/>
    <path d="M 110.554318 300.492879 
L 110.554318 294.615015 
" clip-path="url(#p39d7d7e054)" style="fill: none; stroke: #000000"/>
    <path d="M 138.961591 303.432764 
L 138.961591 299.232753 
" clip-path="url(#p39d7d7e054)" style="fill: none; stroke: #000000"/>
    <path d="M 195.776136 304.673179 
L 195.776136 302.038845 
" clip-path="url(#p39d7d7e054)" style="fill: none; stroke: #000000"/>
    <path d="M 252.590682 305.73817 
L 252.590682 303.552472 
" clip-path="url(#p39d7d7e054)" style="fill: none; stroke: #000000"/>
    <path d="M 309.405227 306.108361 
L 309.405227 304.437153 
" clip-path="url(#p39d7d7e054)" style="fill: none; stroke: #000000"/>
    <path d="M 366.219773 306.462893 
L 366.219773 305.080879 
" clip-path="url(#p39d7d7e054)" style="fill: none; stroke: #000000"/>
    <path d="M 423.034318 306.589023 
L 423.034318 305.554585 
" clip-path="url(#p39d7d7e054)" style="fill: none; stroke: #000000"/>
   </g>
   <g id="LineCollection_2">
    <path d="M 82.147045 307.794624 
L 82.147045 307.542586 
" clip-path="url(#p39d7d7e054)" style="fill: none; stroke: #e3256b"/>
    <path d="M 82.928245 289.469521 
L 82.928245 245.165402 
" clip-path="url(#p39d7d7e054)" style="fill: none; stroke: #e3256b"/>
    <path d="M 83.733118 209.004435 
L 83.733118 151.506783 
" clip-path="url(#p39d7d7e054)" style="fill: none; stroke: #e3256b"/>
    <path d="M 84.514318 192.030394 
L 84.514318 55.8 
" clip-path="url(#p39d7d7e054)" style="fill: none; stroke: #e3256b"/>
    <path d="M 86.881591 191.880727 
L 86.881591 91.394591 
" clip-path="url(#p39d7d7e054)" style="fill: none; stroke: #e3256b"/>
    <path d="M 89.248864 195.688474 
L 89.248864 125.693287 
" clip-path="url(#p39d7d7e054)" style="fill: none; stroke: #e3256b"/>
    <path d="M 93.983409 245.918024 
L 93.983409 185.241804 
" clip-path="url(#p39d7d7e054)" style="fill: none; stroke: #e3256b"/>
    <path d="M 101.085227 270.531021 
L 101.085227 231.724225 
" clip-path="url(#p39d7d7e054)" style="fill: none; stroke: #e3256b"/>
    <path d="M 110.554318 284.455121 
L 110.554318 257.07491 
" clip-path="url(#p39d7d7e054)" style="fill: none; stroke: #e3256b"/>
    <path d="M 138.961591 290.338644 
L 138.961591 275.26306 
" clip-path="url(#p39d7d7e054)" style="fill: none; stroke: #e3256b"/>
    <path d="M 195.776136 297.558319 
L 195.776136 284.872234 
" clip-path="url(#p39d7d7e054)" style="fill: none; stroke: #e3256b"/>
    <path d="M 252.590682 300.316772 
L 252.590682 292.118994 
" clip-path="url(#p39d7d7e054)" style="fill: none; stroke: #e3256b"/>
    <path d="M 309.405227 302.558553 
L 309.405227 296.846808 
" clip-path="url(#p39d7d7e054)" style="fill: none; stroke: #e3256b"/>
    <path d="M 366.219773 304.299052 
L 366.219773 298.894679 
" clip-path="url(#p39d7d7e054)" style="fill: none; stroke: #e3256b"/>
    <path d="M 423.034318 304.986881 
L 423.034318 300.409514 
" clip-path="url(#p39d7d7e054)" style="fill: none; stroke: #e3256b"/>
   </g>
   <g id="LineCollection_3">
    <path d="M 82.147045 307.775563 
L 82.147045 307.52097 
" clip-path="url(#p39d7d7e054)" style="fill: none; stroke: #d65282"/>
    <path d="M 82.928245 279.396961 
L 82.928245 255.415079 
" clip-path="url(#p39d7d7e054)" style="fill: none; stroke: #d65282"/>
    <path clip-path="url(#p39d7d7e054)" style="fill: none; stroke: #d65282"/>
    <path d="M 84.514318 239.650577 
L 84.514318 151.336581 
" clip-path="url(#p39d7d7e054)" style="fill: none; stroke: #d65282"/>
    <path clip-path="url(#p39d7d7e054)" style="fill: none; stroke: #d65282"/>
    <path clip-path="url(#p39d7d7e054)" style="fill: none; stroke: #d65282"/>
    <path d="M 93.983409 282.024942 
L 93.983409 229.368552 
" clip-path="url(#p39d7d7e054)" style="fill: none; stroke: #d65282"/>
    <path d="M 101.085227 290.166184 
L 101.085227 257.115038 
" clip-path="url(#p39d7d7e054)" style="fill: none; stroke: #d65282"/>
    <path d="M 110.554318 295.731772 
L 110.554318 274.091552 
" clip-path="url(#p39d7d7e054)" style="fill: none; stroke: #d65282"/>
    <path d="M 138.961591 299.568254 
L 138.961591 290.235581 
" clip-path="url(#p39d7d7e054)" style="fill: none; stroke: #d65282"/>
    <path d="M 195.776136 300.864396 
L 195.776136 297.225013 
" clip-path="url(#p39d7d7e054)" style="fill: none; stroke: #d65282"/>
    <path d="M 252.590682 304.096505 
L 252.590682 299.00427 
" clip-path="url(#p39d7d7e054)" style="fill: none; stroke: #d65282"/>
    <path d="M 309.405227 304.860199 
L 309.405227 301.161465 
" clip-path="url(#p39d7d7e054)" style="fill: none; stroke: #d65282"/>
    <path d="M 366.219773 305.566021 
L 366.219773 302.78473 
" clip-path="url(#p39d7d7e054)" style="fill: none; stroke: #d65282"/>
    <path d="M 423.034318 306.077884 
L 423.034318 303.131392 
" clip-path="url(#p39d7d7e054)" style="fill: none; stroke: #d65282"/>
   </g>
   <g id="line2d_16">
    <path d="M 82.147045 307.709126 
L 82.324591 304.187437 
L 83.034773 273.016027 
L 83.567409 260.453284 
L 83.9225 255.77234 
L 84.277591 253.07794 
L 84.632682 251.787491 
L 84.810227 251.530967 
L 84.987773 251.475896 
L 85.165318 251.586962 
L 85.520409 252.191875 
L 86.053045 253.728381 
L 87.295864 258.412132 
L 88.893773 264.154421 
L 90.136591 267.761144 
L 91.379409 270.652626 
L 92.622227 272.977547 
L 94.042591 275.121869 
L 95.462955 276.876067 
L 97.238409 278.69482 
L 99.191409 280.377356 
L 101.677045 282.213529 
L 104.695318 284.15515 
L 108.423773 286.273011 
L 112.684864 288.424191 
L 117.301045 290.498271 
L 122.272318 292.47897 
L 127.421136 294.289329 
L 132.925045 295.986965 
L 138.784045 297.558738 
L 144.998136 298.996102 
L 151.744864 300.327173 
L 159.024227 301.536221 
L 167.013773 302.636542 
L 175.891045 303.630673 
L 185.833591 304.514694 
L 197.018955 305.282354 
L 209.979773 305.944236 
L 225.426227 306.501644 
L 244.246045 306.948721 
L 268.392227 307.28901 
L 302.125864 307.525734 
L 356.987409 307.661491 
L 437.237955 307.702496 
L 437.237955 307.702496 
" clip-path="url(#p39d7d7e054)" style="fill: none; stroke: #000000; stroke-width: 2; stroke-linecap: square"/>
   </g>
   <g id="line2d_17">
    <path d="M 82.147045 307.628221 
L 82.928245 270.84984 
M 84.514318 225.392499 
L 86.881591 245.774427 
L 89.248864 266.46655 
L 93.983409 282.640899 
L 101.085227 292.312888 
L 110.554318 297.553947 
L 138.961591 301.332758 
L 195.776136 303.356012 
L 252.590682 304.645321 
L 309.405227 305.272757 
L 366.219773 305.771886 
L 423.034318 306.071804 
" clip-path="url(#p39d7d7e054)" style="fill: none; stroke-dasharray: 3.7,1.6; stroke-dashoffset: 0; stroke: #000000"/>
    <defs>
     <path id="m83d3ecba45" d="M -3 3 
L 3 3 
L 3 -3 
L -3 -3 
z
" style="stroke: #000000; stroke-linejoin: miter"/>
    </defs>
    <g clip-path="url(#p39d7d7e054)">
     <use xlink:href="#m83d3ecba45" x="82.147045" y="307.628221" style="stroke: #000000; stroke-linejoin: miter"/>
     <use xlink:href="#m83d3ecba45" x="82.928245" y="270.84984" style="stroke: #000000; stroke-linejoin: miter"/>
     <use xlink:href="#m83d3ecba45" x="84.514318" y="225.392499" style="stroke: #000000; stroke-linejoin: miter"/>
     <use xlink:href="#m83d3ecba45" x="86.881591" y="245.774427" style="stroke: #000000; stroke-linejoin: miter"/>
     <use xlink:href="#m83d3ecba45" x="89.248864" y="266.46655" style="stroke: #000000; stroke-linejoin: miter"/>
     <use xlink:href="#m83d3ecba45" x="93.983409" y="282.640899" style="stroke: #000000; stroke-linejoin: miter"/>
     <use xlink:href="#m83d3ecba45" x="101.085227" y="292.312888" style="stroke: #000000; stroke-linejoin: miter"/>
     <use xlink:href="#m83d3ecba45" x="110.554318" y="297.553947" style="stroke: #000000; stroke-linejoin: miter"/>
     <use xlink:href="#m83d3ecba45" x="138.961591" y="301.332758" style="stroke: #000000; stroke-linejoin: miter"/>
     <use xlink:href="#m83d3ecba45" x="195.776136" y="303.356012" style="stroke: #000000; stroke-linejoin: miter"/>
     <use xlink:href="#m83d3ecba45" x="252.590682" y="304.645321" style="stroke: #000000; stroke-linejoin: miter"/>
     <use xlink:href="#m83d3ecba45" x="309.405227" y="305.272757" style="stroke: #000000; stroke-linejoin: miter"/>
     <use xlink:href="#m83d3ecba45" x="366.219773" y="305.771886" style="stroke: #000000; stroke-linejoin: miter"/>
     <use xlink:href="#m83d3ecba45" x="423.034318" y="306.071804" style="stroke: #000000; stroke-linejoin: miter"/>
    </g>
   </g>
   <g id="line2d_18">
    <path d="M 82.147045 307.709126 
L 82.324591 302.773842 
L 83.389864 217.314249 
L 83.9225 198.161012 
L 84.277591 191.418871 
L 84.632682 187.895008 
L 84.987773 186.625422 
L 85.165318 186.608461 
L 85.342864 186.908352 
L 85.697955 188.23525 
L 86.230591 191.410677 
L 87.650955 202.176729 
L 89.071318 212.156801 
L 90.314136 219.208093 
L 91.379409 224.091322 
L 92.622227 228.707666 
L 93.865045 232.442459 
L 95.107864 235.533912 
L 96.528227 238.504118 
L 98.126136 241.345848 
L 100.079136 244.340051 
L 102.387227 247.442085 
L 105.050409 250.649147 
L 108.246227 254.153263 
L 111.974682 257.903776 
L 115.880682 261.524057 
L 120.141773 265.163739 
L 124.402864 268.513331 
L 128.8415 271.721384 
L 133.457682 274.779237 
L 138.251409 277.679917 
L 143.222682 280.418428 
L 148.3715 282.991755 
L 153.697864 285.39876 
L 159.201773 287.640025 
L 165.060773 289.779026 
L 171.097318 291.744664 
L 177.488955 293.591573 
L 184.235682 295.309797 
L 191.515045 296.929907 
L 199.327045 298.43385 
L 207.671682 299.809315 
L 216.7265 301.072096 
L 226.669045 302.227431 
L 237.499318 303.258307 
L 249.572409 304.180687 
L 263.243409 304.996584 
L 278.867409 305.700703 
L 297.154591 306.29631 
L 319.170227 306.784067 
L 346.867318 307.166138 
L 384.151864 307.444081 
L 437.237955 307.613661 
L 437.237955 307.613661 
" clip-path="url(#p39d7d7e054)" style="fill: none; stroke: #e3256b; stroke-width: 2; stroke-linecap: square"/>
   </g>
   <g id="line2d_19">
    <path d="M 82.147045 307.668605 
L 82.928245 267.317461 
L 83.733118 180.255609 
L 84.514318 123.915197 
L 86.881591 141.637659 
L 89.248864 160.69088 
L 93.983409 215.579914 
L 101.085227 251.127623 
L 110.554318 270.765015 
L 138.961591 282.800852 
L 195.776136 291.215276 
L 252.590682 296.217883 
L 309.405227 299.70268 
L 366.219773 301.596866 
L 423.034318 302.698198 
" clip-path="url(#p39d7d7e054)" style="fill: none; stroke-dasharray: 3.7,1.6; stroke-dashoffset: 0; stroke: #e3256b"/>
    <defs>
     <path id="m1de3aa15e4" d="M -3 3 
L 3 3 
L 3 -3 
L -3 -3 
z
" style="stroke: #000000; stroke-linejoin: miter"/>
    </defs>
    <g clip-path="url(#p39d7d7e054)">
     <use xlink:href="#m1de3aa15e4" x="82.147045" y="307.668605" style="fill: #e3256b; stroke: #000000; stroke-linejoin: miter"/>
     <use xlink:href="#m1de3aa15e4" x="82.928245" y="267.317461" style="fill: #e3256b; stroke: #000000; stroke-linejoin: miter"/>
     <use xlink:href="#m1de3aa15e4" x="83.733118" y="180.255609" style="fill: #e3256b; stroke: #000000; stroke-linejoin: miter"/>
     <use xlink:href="#m1de3aa15e4" x="84.514318" y="123.915197" style="fill: #e3256b; stroke: #000000; stroke-linejoin: miter"/>
     <use xlink:href="#m1de3aa15e4" x="86.881591" y="141.637659" style="fill: #e3256b; stroke: #000000; stroke-linejoin: miter"/>
     <use xlink:href="#m1de3aa15e4" x="89.248864" y="160.69088" style="fill: #e3256b; stroke: #000000; stroke-linejoin: miter"/>
     <use xlink:href="#m1de3aa15e4" x="93.983409" y="215.579914" style="fill: #e3256b; stroke: #000000; stroke-linejoin: miter"/>
     <use xlink:href="#m1de3aa15e4" x="101.085227" y="251.127623" style="fill: #e3256b; stroke: #000000; stroke-linejoin: miter"/>
     <use xlink:href="#m1de3aa15e4" x="110.554318" y="270.765015" style="fill: #e3256b; stroke: #000000; stroke-linejoin: miter"/>
     <use xlink:href="#m1de3aa15e4" x="138.961591" y="282.800852" style="fill: #e3256b; stroke: #000000; stroke-linejoin: miter"/>
     <use xlink:href="#m1de3aa15e4" x="195.776136" y="291.215276" style="fill: #e3256b; stroke: #000000; stroke-linejoin: miter"/>
     <use xlink:href="#m1de3aa15e4" x="252.590682" y="296.217883" style="fill: #e3256b; stroke: #000000; stroke-linejoin: miter"/>
     <use xlink:href="#m1de3aa15e4" x="309.405227" y="299.70268" style="fill: #e3256b; stroke: #000000; stroke-linejoin: miter"/>
     <use xlink:href="#m1de3aa15e4" x="366.219773" y="301.596866" style="fill: #e3256b; stroke: #000000; stroke-linejoin: miter"/>
     <use xlink:href="#m1de3aa15e4" x="423.034318" y="302.698198" style="fill: #e3256b; stroke: #000000; stroke-linejoin: miter"/>
    </g>
   </g>
   <g id="line2d_20">
    <path d="M 82.147045 307.709126 
L 82.324591 303.561153 
L 83.212318 252.83934 
L 83.744955 238.062986 
L 84.100045 232.716278 
L 84.455136 229.782069 
L 84.810227 228.54493 
L 84.987773 228.393759 
L 85.165318 228.483519 
L 85.520409 229.219466 
L 86.053045 231.242518 
L 87.118318 236.658384 
L 88.716227 244.683506 
L 89.959045 249.785232 
L 91.201864 253.871517 
L 92.444682 257.140881 
L 93.6875 259.79566 
L 95.107864 262.285275 
L 96.705773 264.60136 
L 98.481227 266.770028 
L 100.611773 269.006609 
L 103.097409 271.293844 
L 106.115682 273.772108 
L 109.666591 276.402375 
L 113.750136 279.142012 
L 118.011227 281.732948 
L 122.449864 284.178283 
L 127.243591 286.560091 
L 132.214864 288.775439 
L 137.363682 290.825494 
L 142.867591 292.772075 
L 148.549045 294.54634 
L 154.585591 296.201163 
L 161.154773 297.766511 
L 168.079045 299.186559 
L 175.535955 300.489881 
L 183.703045 301.689792 
L 192.757864 302.788456 
L 202.700409 303.765287 
L 213.885773 304.634438 
L 226.4915 305.386637 
L 241.227773 306.036064 
L 258.627227 306.573257 
L 280.110227 307.004964 
L 307.984864 307.330478 
L 347.399955 307.551638 
L 413.801955 307.6732 
L 437.237955 307.687802 
L 437.237955 307.687802 
" clip-path="url(#p39d7d7e054)" style="fill: none; stroke: #d65282; stroke-width: 2; stroke-linecap: square"/>
   </g>
   <g id="line2d_21">
    <path d="M 82.147045 307.648267 
L 82.928245 267.40602 
L 83.733118 227.190304 
L 84.514318 195.493579 
L 86.881591 208.167378 
L 89.248864 227.723191 
L 93.983409 255.696747 
L 101.085227 273.640611 
L 110.554318 284.911662 
L 138.961591 294.901917 
L 195.776136 299.044704 
L 252.590682 301.550387 
L 309.405227 303.010832 
L 366.219773 304.175376 
L 423.034318 304.604638 
" clip-path="url(#p39d7d7e054)" style="fill: none; stroke-dasharray: 3.7,1.6; stroke-dashoffset: 0; stroke: #d65282"/>
    <defs>
     <path id="m3c5ca662cd" d="M -3 3 
L 3 3 
L 3 -3 
L -3 -3 
z
" style="stroke: #000000; stroke-linejoin: miter"/>
    </defs>
    <g clip-path="url(#p39d7d7e054)">
     <use xlink:href="#m3c5ca662cd" x="82.147045" y="307.648267" style="fill: #d65282; stroke: #000000; stroke-linejoin: miter"/>
     <use xlink:href="#m3c5ca662cd" x="82.928245" y="267.40602" style="fill: #d65282; stroke: #000000; stroke-linejoin: miter"/>
     <use xlink:href="#m3c5ca662cd" x="83.733118" y="227.190304" style="fill: #d65282; stroke: #000000; stroke-linejoin: miter"/>
     <use xlink:href="#m3c5ca662cd" x="84.514318" y="195.493579" style="fill: #d65282; stroke: #000000; stroke-linejoin: miter"/>
     <use xlink:href="#m3c5ca662cd" x="86.881591" y="208.167378" style="fill: #d65282; stroke: #000000; stroke-linejoin: miter"/>
     <use xlink:href="#m3c5ca662cd" x="89.248864" y="227.723191" style="fill: #d65282; stroke: #000000; stroke-linejoin: miter"/>
     <use xlink:href="#m3c5ca662cd" x="93.983409" y="255.696747" style="fill: #d65282; stroke: #000000; stroke-linejoin: miter"/>
     <use xlink:href="#m3c5ca662cd" x="101.085227" y="273.640611" style="fill: #d65282; stroke: #000000; stroke-linejoin: miter"/>
     <use xlink:href="#m3c5ca662cd" x="110.554318" y="284.911662" style="fill: #d65282; stroke: #000000; stroke-linejoin: miter"/>
     <use xlink:href="#m3c5ca662cd" x="138.961591" y="294.901917" style="fill: #d65282; stroke: #000000; stroke-linejoin: miter"/>
     <use xlink:href="#m3c5ca662cd" x="195.776136" y="299.044704" style="fill: #d65282; stroke: #000000; stroke-linejoin: miter"/>
     <use xlink:href="#m3c5ca662cd" x="252.590682" y="301.550387" style="fill: #d65282; stroke: #000000; stroke-linejoin: miter"/>
     <use xlink:href="#m3c5ca662cd" x="309.405227" y="303.010832" style="fill: #d65282; stroke: #000000; stroke-linejoin: miter"/>
     <use xlink:href="#m3c5ca662cd" x="366.219773" y="304.175376" style="fill: #d65282; stroke: #000000; stroke-linejoin: miter"/>
     <use xlink:href="#m3c5ca662cd" x="423.034318" y="304.604638" style="fill: #d65282; stroke: #000000; stroke-linejoin: miter"/>
    </g>
   </g>
   <g id="patch_3">
    <path d="M 64.3925 320.4 
L 64.3925 43.2 
" style="fill: none; stroke: #000000; stroke-width: 0.8; stroke-linejoin: miter; stroke-linecap: square"/>
   </g>
   <g id="patch_4">
    <path d="M 454.9925 320.4 
L 454.9925 43.2 
" style="fill: none; stroke: #000000; stroke-width: 0.8; stroke-linejoin: miter; stroke-linecap: square"/>
   </g>
   <g id="patch_5">
    <path d="M 64.3925 320.4 
L 454.9925 320.4 
" style="fill: none; stroke: #000000; stroke-width: 0.8; stroke-linejoin: miter; stroke-linecap: square"/>
   </g>
   <g id="patch_6">
    <path d="M 64.3925 43.2 
L 454.9925 43.2 
" style="fill: none; stroke: #000000; stroke-width: 0.8; stroke-linejoin: miter; stroke-linecap: square"/>
   </g>
   <g id="legend_1">
    <g id="patch_7">
     <path d="M 271.689375 140.38125 
L 447.9925 140.38125 
Q 449.9925 140.38125 449.9925 138.38125 
L 449.9925 50.2 
Q 449.9925 48.2 447.9925 48.2 
L 271.689375 48.2 
Q 269.689375 48.2 269.689375 50.2 
L 269.689375 138.38125 
Q 269.689375 140.38125 271.689375 140.38125 
z
" style="fill: #ffffff; opacity: 0.8; stroke: #cccccc; stroke-linejoin: miter"/>
    </g>
    <g id="line2d_22">
     <path d="M 273.689375 56.298437 
L 293.689375 56.298437 
" style="fill: none; stroke: #000000; stroke-width: 2; stroke-linecap: square"/>
    </g>
    <g id="line2d_23"/>
    <g id="text_18">
     <!-- RAP10 -->
     <g transform="translate(301.689375 59.798437) scale(0.1 -0.1)">
      <defs>
       <path id="DejaVuSans-52" d="M 2841 2188 
Q 3044 2119 3236 1894 
Q 3428 1669 3622 1275 
L 4263 0 
L 3584 0 
L 2988 1197 
Q 2756 1666 2539 1819 
Q 2322 1972 1947 1972 
L 1259 1972 
L 1259 0 
L 628 0 
L 628 4666 
L 2053 4666 
Q 2853 4666 3247 4331 
Q 3641 3997 3641 3322 
Q 3641 2881 3436 2590 
Q 3231 2300 2841 2188 
z
M 1259 4147 
L 1259 2491 
L 2053 2491 
Q 2509 2491 2742 2702 
Q 2975 2913 2975 3322 
Q 2975 3731 2742 3939 
Q 2509 4147 2053 4147 
L 1259 4147 
z
" transform="scale(0.015625)"/>
       <path id="DejaVuSans-41" d="M 2188 4044 
L 1331 1722 
L 3047 1722 
L 2188 4044 
z
M 1831 4666 
L 2547 4666 
L 4325 0 
L 3669 0 
L 3244 1197 
L 1141 1197 
L 716 0 
L 50 0 
L 1831 4666 
z
" transform="scale(0.015625)"/>
       <path id="DejaVuSans-50" d="M 1259 4147 
L 1259 2394 
L 2053 2394 
Q 2494 2394 2734 2622 
Q 2975 2850 2975 3272 
Q 2975 3691 2734 3919 
Q 2494 4147 2053 4147 
L 1259 4147 
z
M 628 4666 
L 2053 4666 
Q 2838 4666 3239 4311 
Q 3641 3956 3641 3272 
Q 3641 2581 3239 2228 
Q 2838 1875 2053 1875 
L 1259 1875 
L 1259 0 
L 628 0 
L 628 4666 
z
" transform="scale(0.015625)"/>
      </defs>
      <use xlink:href="#DejaVuSans-52"/>
      <use xlink:href="#DejaVuSans-41" transform="translate(65.482422 0)"/>
      <use xlink:href="#DejaVuSans-50" transform="translate(133.890625 0)"/>
      <use xlink:href="#DejaVuSans-31" transform="translate(194.193359 0)"/>
      <use xlink:href="#DejaVuSans-30" transform="translate(257.816406 0)"/>
     </g>
    </g>
    <g id="LineCollection_4">
     <path d="M 283.689375 75.976562 
L 283.689375 65.976562 
" style="fill: none; stroke: #000000"/>
    </g>
    <g id="line2d_24">
     <path d="M 273.689375 70.976562 
L 293.689375 70.976562 
" style="fill: none; stroke-dasharray: 3.7,1.6; stroke-dashoffset: 0; stroke: #000000"/>
    </g>
    <g id="line2d_25">
     <g>
      <use xlink:href="#m83d3ecba45" x="283.689375" y="70.976562" style="stroke: #000000; stroke-linejoin: miter"/>
     </g>
    </g>
    <g id="text_19">
     <!-- RAP10±SD (n=21) -->
     <g transform="translate(301.689375 74.476562) scale(0.1 -0.1)">
      <defs>
       <path id="DejaVuSans-b1" d="M 2944 4013 
L 2944 2803 
L 4684 2803 
L 4684 2272 
L 2944 2272 
L 2944 1063 
L 2419 1063 
L 2419 2272 
L 678 2272 
L 678 2803 
L 2419 2803 
L 2419 4013 
L 2944 4013 
z
M 678 531 
L 4684 531 
L 4684 0 
L 678 0 
L 678 531 
z
" transform="scale(0.015625)"/>
       <path id="DejaVuSans-53" d="M 3425 4513 
L 3425 3897 
Q 3066 4069 2747 4153 
Q 2428 4238 2131 4238 
Q 1616 4238 1336 4038 
Q 1056 3838 1056 3469 
Q 1056 3159 1242 3001 
Q 1428 2844 1947 2747 
L 2328 2669 
Q 3034 2534 3370 2195 
Q 3706 1856 3706 1288 
Q 3706 609 3251 259 
Q 2797 -91 1919 -91 
Q 1588 -91 1214 -16 
Q 841 59 441 206 
L 441 856 
Q 825 641 1194 531 
Q 1563 422 1919 422 
Q 2459 422 2753 634 
Q 3047 847 3047 1241 
Q 3047 1584 2836 1778 
Q 2625 1972 2144 2069 
L 1759 2144 
Q 1053 2284 737 2584 
Q 422 2884 422 3419 
Q 422 4038 858 4394 
Q 1294 4750 2059 4750 
Q 2388 4750 2728 4690 
Q 3069 4631 3425 4513 
z
" transform="scale(0.015625)"/>
       <path id="DejaVuSans-44" d="M 1259 4147 
L 1259 519 
L 2022 519 
Q 2988 519 3436 956 
Q 3884 1394 3884 2338 
Q 3884 3275 3436 3711 
Q 2988 4147 2022 4147 
L 1259 4147 
z
M 628 4666 
L 1925 4666 
Q 3281 4666 3915 4102 
Q 4550 3538 4550 2338 
Q 4550 1131 3912 565 
Q 3275 0 1925 0 
L 628 0 
L 628 4666 
z
" transform="scale(0.015625)"/>
       <path id="DejaVuSans-20" transform="scale(0.015625)"/>
       <path id="DejaVuSans-28" d="M 1984 4856 
Q 1566 4138 1362 3434 
Q 1159 2731 1159 2009 
Q 1159 1288 1364 580 
Q 1569 -128 1984 -844 
L 1484 -844 
Q 1016 -109 783 600 
Q 550 1309 550 2009 
Q 550 2706 781 3412 
Q 1013 4119 1484 4856 
L 1984 4856 
z
" transform="scale(0.015625)"/>
       <path id="DejaVuSans-6e" d="M 3513 2113 
L 3513 0 
L 2938 0 
L 2938 2094 
Q 2938 2591 2744 2837 
Q 2550 3084 2163 3084 
Q 1697 3084 1428 2787 
Q 1159 2491 1159 1978 
L 1159 0 
L 581 0 
L 581 3500 
L 1159 3500 
L 1159 2956 
Q 1366 3272 1645 3428 
Q 1925 3584 2291 3584 
Q 2894 3584 3203 3211 
Q 3513 2838 3513 2113 
z
" transform="scale(0.015625)"/>
       <path id="DejaVuSans-3d" d="M 678 2906 
L 4684 2906 
L 4684 2381 
L 678 2381 
L 678 2906 
z
M 678 1631 
L 4684 1631 
L 4684 1100 
L 678 1100 
L 678 1631 
z
" transform="scale(0.015625)"/>
       <path id="DejaVuSans-29" d="M 513 4856 
L 1013 4856 
Q 1481 4119 1714 3412 
Q 1947 2706 1947 2009 
Q 1947 1309 1714 600 
Q 1481 -109 1013 -844 
L 513 -844 
Q 928 -128 1133 580 
Q 1338 1288 1338 2009 
Q 1338 2731 1133 3434 
Q 928 4138 513 4856 
z
" transform="scale(0.015625)"/>
      </defs>
      <use xlink:href="#DejaVuSans-52"/>
      <use xlink:href="#DejaVuSans-41" transform="translate(65.482422 0)"/>
      <use xlink:href="#DejaVuSans-50" transform="translate(133.890625 0)"/>
      <use xlink:href="#DejaVuSans-31" transform="translate(194.193359 0)"/>
      <use xlink:href="#DejaVuSans-30" transform="translate(257.816406 0)"/>
      <use xlink:href="#DejaVuSans-b1" transform="translate(321.439453 0)"/>
      <use xlink:href="#DejaVuSans-53" transform="translate(405.228516 0)"/>
      <use xlink:href="#DejaVuSans-44" transform="translate(468.705078 0)"/>
      <use xlink:href="#DejaVuSans-20" transform="translate(545.707031 0)"/>
      <use xlink:href="#DejaVuSans-28" transform="translate(577.494141 0)"/>
      <use xlink:href="#DejaVuSans-6e" transform="translate(616.507812 0)"/>
      <use xlink:href="#DejaVuSans-3d" transform="translate(679.886719 0)"/>
      <use xlink:href="#DejaVuSans-32" transform="translate(763.675781 0)"/>
      <use xlink:href="#DejaVuSans-31" transform="translate(827.298828 0)"/>
      <use xlink:href="#DejaVuSans-29" transform="translate(890.921875 0)"/>
     </g>
    </g>
    <g id="line2d_26">
     <path d="M 273.689375 85.654687 
L 293.689375 85.654687 
" style="fill: none; stroke: #e3256b; stroke-width: 2; stroke-linecap: square"/>
    </g>
    <g id="line2d_27"/>
    <g id="text_20">
     <!-- RAP10_CSA300 -->
     <g transform="translate(301.689375 89.154687) scale(0.1 -0.1)">
      <defs>
       <path id="DejaVuSans-5f" d="M 3263 -1063 
L 3263 -1509 
L -63 -1509 
L -63 -1063 
L 3263 -1063 
z
" transform="scale(0.015625)"/>
       <path id="DejaVuSans-43" d="M 4122 4306 
L 4122 3641 
Q 3803 3938 3442 4084 
Q 3081 4231 2675 4231 
Q 1875 4231 1450 3742 
Q 1025 3253 1025 2328 
Q 1025 1406 1450 917 
Q 1875 428 2675 428 
Q 3081 428 3442 575 
Q 3803 722 4122 1019 
L 4122 359 
Q 3791 134 3420 21 
Q 3050 -91 2638 -91 
Q 1578 -91 968 557 
Q 359 1206 359 2328 
Q 359 3453 968 4101 
Q 1578 4750 2638 4750 
Q 3056 4750 3426 4639 
Q 3797 4528 4122 4306 
z
" transform="scale(0.015625)"/>
       <path id="DejaVuSans-33" d="M 2597 2516 
Q 3050 2419 3304 2112 
Q 3559 1806 3559 1356 
Q 3559 666 3084 287 
Q 2609 -91 1734 -91 
Q 1441 -91 1130 -33 
Q 819 25 488 141 
L 488 750 
Q 750 597 1062 519 
Q 1375 441 1716 441 
Q 2309 441 2620 675 
Q 2931 909 2931 1356 
Q 2931 1769 2642 2001 
Q 2353 2234 1838 2234 
L 1294 2234 
L 1294 2753 
L 1863 2753 
Q 2328 2753 2575 2939 
Q 2822 3125 2822 3475 
Q 2822 3834 2567 4026 
Q 2313 4219 1838 4219 
Q 1578 4219 1281 4162 
Q 984 4106 628 3988 
L 628 4550 
Q 988 4650 1302 4700 
Q 1616 4750 1894 4750 
Q 2613 4750 3031 4423 
Q 3450 4097 3450 3541 
Q 3450 3153 3228 2886 
Q 3006 2619 2597 2516 
z
" transform="scale(0.015625)"/>
      </defs>
      <use xlink:href="#DejaVuSans-52"/>
      <use xlink:href="#DejaVuSans-41" transform="translate(65.482422 0)"/>
      <use xlink:href="#DejaVuSans-50" transform="translate(133.890625 0)"/>
      <use xlink:href="#DejaVuSans-31" transform="translate(194.193359 0)"/>
      <use xlink:href="#DejaVuSans-30" transform="translate(257.816406 0)"/>
      <use xlink:href="#DejaVuSans-5f" transform="translate(321.439453 0)"/>
      <use xlink:href="#DejaVuSans-43" transform="translate(371.439453 0)"/>
      <use xlink:href="#DejaVuSans-53" transform="translate(441.263672 0)"/>
      <use xlink:href="#DejaVuSans-41" transform="translate(506.615234 0)"/>
      <use xlink:href="#DejaVuSans-33" transform="translate(575.023438 0)"/>
      <use xlink:href="#DejaVuSans-30" transform="translate(638.646484 0)"/>
      <use xlink:href="#DejaVuSans-30" transform="translate(702.269531 0)"/>
     </g>
    </g>
    <g id="LineCollection_5">
     <path d="M 283.689375 105.610937 
L 283.689375 95.610937 
" style="fill: none; stroke: #e3256b"/>
    </g>
    <g id="line2d_28">
     <path d="M 273.689375 100.610937 
L 293.689375 100.610937 
" style="fill: none; stroke-dasharray: 3.7,1.6; stroke-dashoffset: 0; stroke: #e3256b"/>
    </g>
    <g id="line2d_29">
     <g>
      <use xlink:href="#m1de3aa15e4" x="283.689375" y="100.610937" style="fill: #e3256b; stroke: #000000; stroke-linejoin: miter"/>
     </g>
    </g>
    <g id="text_21">
     <!-- RAP10_CSA300±SD (n=21) -->
     <g transform="translate(301.689375 104.110937) scale(0.1 -0.1)">
      <use xlink:href="#DejaVuSans-52"/>
      <use xlink:href="#DejaVuSans-41" transform="translate(65.482422 0)"/>
      <use xlink:href="#DejaVuSans-50" transform="translate(133.890625 0)"/>
      <use xlink:href="#DejaVuSans-31" transform="translate(194.193359 0)"/>
      <use xlink:href="#DejaVuSans-30" transform="translate(257.816406 0)"/>
      <use xlink:href="#DejaVuSans-5f" transform="translate(321.439453 0)"/>
      <use xlink:href="#DejaVuSans-43" transform="translate(371.439453 0)"/>
      <use xlink:href="#DejaVuSans-53" transform="translate(441.263672 0)"/>
      <use xlink:href="#DejaVuSans-41" transform="translate(506.615234 0)"/>
      <use xlink:href="#DejaVuSans-33" transform="translate(575.023438 0)"/>
      <use xlink:href="#DejaVuSans-30" transform="translate(638.646484 0)"/>
      <use xlink:href="#DejaVuSans-30" transform="translate(702.269531 0)"/>
      <use xlink:href="#DejaVuSans-b1" transform="translate(765.892578 0)"/>
      <use xlink:href="#DejaVuSans-53" transform="translate(849.681641 0)"/>
      <use xlink:href="#DejaVuSans-44" transform="translate(913.158203 0)"/>
      <use xlink:href="#DejaVuSans-20" transform="translate(990.160156 0)"/>
      <use xlink:href="#DejaVuSans-28" transform="translate(1021.947266 0)"/>
      <use xlink:href="#DejaVuSans-6e" transform="translate(1060.960938 0)"/>
      <use xlink:href="#DejaVuSans-3d" transform="translate(1124.339844 0)"/>
      <use xlink:href="#DejaVuSans-32" transform="translate(1208.128906 0)"/>
      <use xlink:href="#DejaVuSans-31" transform="translate(1271.751953 0)"/>
      <use xlink:href="#DejaVuSans-29" transform="translate(1335.375 0)"/>
     </g>
    </g>
    <g id="line2d_30">
     <path d="M 273.689375 115.567187 
L 293.689375 115.567187 
" style="fill: none; stroke: #d65282; stroke-width: 2; stroke-linecap: square"/>
    </g>
    <g id="line2d_31"/>
    <g id="text_22">
     <!-- RAP10_CSA300B -->
     <g transform="translate(301.689375 119.067187) scale(0.1 -0.1)">
      <defs>
       <path id="DejaVuSans-42" d="M 1259 2228 
L 1259 519 
L 2272 519 
Q 2781 519 3026 730 
Q 3272 941 3272 1375 
Q 3272 1813 3026 2020 
Q 2781 2228 2272 2228 
L 1259 2228 
z
M 1259 4147 
L 1259 2741 
L 2194 2741 
Q 2656 2741 2882 2914 
Q 3109 3088 3109 3444 
Q 3109 3797 2882 3972 
Q 2656 4147 2194 4147 
L 1259 4147 
z
M 628 4666 
L 2241 4666 
Q 2963 4666 3353 4366 
Q 3744 4066 3744 3513 
Q 3744 3084 3544 2831 
Q 3344 2578 2956 2516 
Q 3422 2416 3680 2098 
Q 3938 1781 3938 1306 
Q 3938 681 3513 340 
Q 3088 0 2303 0 
L 628 0 
L 628 4666 
z
" transform="scale(0.015625)"/>
      </defs>
      <use xlink:href="#DejaVuSans-52"/>
      <use xlink:href="#DejaVuSans-41" transform="translate(65.482422 0)"/>
      <use xlink:href="#DejaVuSans-50" transform="translate(133.890625 0)"/>
      <use xlink:href="#DejaVuSans-31" transform="translate(194.193359 0)"/>
      <use xlink:href="#DejaVuSans-30" transform="translate(257.816406 0)"/>
      <use xlink:href="#DejaVuSans-5f" transform="translate(321.439453 0)"/>
      <use xlink:href="#DejaVuSans-43" transform="translate(371.439453 0)"/>
      <use xlink:href="#DejaVuSans-53" transform="translate(441.263672 0)"/>
      <use xlink:href="#DejaVuSans-41" transform="translate(506.615234 0)"/>
      <use xlink:href="#DejaVuSans-33" transform="translate(575.023438 0)"/>
      <use xlink:href="#DejaVuSans-30" transform="translate(638.646484 0)"/>
      <use xlink:href="#DejaVuSans-30" transform="translate(702.269531 0)"/>
      <use xlink:href="#DejaVuSans-42" transform="translate(765.892578 0)"/>
     </g>
    </g>
    <g id="LineCollection_6">
     <path d="M 283.689375 135.523437 
L 283.689375 125.523437 
" style="fill: none; stroke: #d65282"/>
    </g>
    <g id="line2d_32">
     <path d="M 273.689375 130.523437 
L 293.689375 130.523437 
" style="fill: none; stroke-dasharray: 3.7,1.6; stroke-dashoffset: 0; stroke: #d65282"/>
    </g>
    <g id="line2d_33">
     <g>
      <use xlink:href="#m3c5ca662cd" x="283.689375" y="130.523437" style="fill: #d65282; stroke: #000000; stroke-linejoin: miter"/>
     </g>
    </g>
    <g id="text_23">
     <!-- RAP10_CSA300B±SD (n=21) -->
     <g transform="translate(301.689375 134.023437) scale(0.1 -0.1)">
      <use xlink:href="#DejaVuSans-52"/>
      <use xlink:href="#DejaVuSans-41" transform="translate(65.482422 0)"/>
      <use xlink:href="#DejaVuSans-50" transform="translate(133.890625 0)"/>
      <use xlink:href="#DejaVuSans-31" transform="translate(194.193359 0)"/>
      <use xlink:href="#DejaVuSans-30" transform="translate(257.816406 0)"/>
      <use xlink:href="#DejaVuSans-5f" transform="translate(321.439453 0)"/>
      <use xlink:href="#DejaVuSans-43" transform="translate(371.439453 0)"/>
      <use xlink:href="#DejaVuSans-53" transform="translate(441.263672 0)"/>
      <use xlink:href="#DejaVuSans-41" transform="translate(506.615234 0)"/>
      <use xlink:href="#DejaVuSans-33" transform="translate(575.023438 0)"/>
      <use xlink:href="#DejaVuSans-30" transform="translate(638.646484 0)"/>
      <use xlink:href="#DejaVuSans-30" transform="translate(702.269531 0)"/>
      <use xlink:href="#DejaVuSans-42" transform="translate(765.892578 0)"/>
      <use xlink:href="#DejaVuSans-b1" transform="translate(834.496094 0)"/>
      <use xlink:href="#DejaVuSans-53" transform="translate(918.285156 0)"/>
      <use xlink:href="#DejaVuSans-44" transform="translate(981.761719 0)"/>
      <use xlink:href="#DejaVuSans-20" transform="translate(1058.763672 0)"/>
      <use xlink:href="#DejaVuSans-28" transform="translate(1090.550781 0)"/>
      <use xlink:href="#DejaVuSans-6e" transform="translate(1129.564453 0)"/>
      <use xlink:href="#DejaVuSans-3d" transform="translate(1192.943359 0)"/>
      <use xlink:href="#DejaVuSans-32" transform="translate(1276.732422 0)"/>
      <use xlink:href="#DejaVuSans-31" transform="translate(1340.355469 0)"/>
      <use xlink:href="#DejaVuSans-29" transform="translate(1403.978516 0)"/>
     </g>
    </g>
   </g>
  </g>
  <g id="text_24">
   <!-- Zimmerman2003 -->
   <g transform="translate(134.201094 26.196094) scale(0.25 -0.25)">
    <defs>
     <path id="DejaVuSans-Bold-5a" d="M 359 4666 
L 4281 4666 
L 4281 3938 
L 1778 909 
L 4353 909 
L 4353 0 
L 288 0 
L 288 728 
L 2791 3756 
L 359 3756 
L 359 4666 
z
" transform="scale(0.015625)"/>
     <path id="DejaVuSans-Bold-32" d="M 1844 884 
L 3897 884 
L 3897 0 
L 506 0 
L 506 884 
L 2209 2388 
Q 2438 2594 2547 2791 
Q 2656 2988 2656 3200 
Q 2656 3528 2436 3728 
Q 2216 3928 1850 3928 
Q 1569 3928 1234 3808 
Q 900 3688 519 3450 
L 519 4475 
Q 925 4609 1322 4679 
Q 1719 4750 2100 4750 
Q 2938 4750 3402 4381 
Q 3866 4013 3866 3353 
Q 3866 2972 3669 2642 
Q 3472 2313 2841 1759 
L 1844 884 
z
" transform="scale(0.015625)"/>
     <path id="DejaVuSans-Bold-30" d="M 2944 2338 
Q 2944 3213 2780 3570 
Q 2616 3928 2228 3928 
Q 1841 3928 1675 3570 
Q 1509 3213 1509 2338 
Q 1509 1453 1675 1090 
Q 1841 728 2228 728 
Q 2613 728 2778 1090 
Q 2944 1453 2944 2338 
z
M 4147 2328 
Q 4147 1169 3647 539 
Q 3147 -91 2228 -91 
Q 1306 -91 806 539 
Q 306 1169 306 2328 
Q 306 3491 806 4120 
Q 1306 4750 2228 4750 
Q 3147 4750 3647 4120 
Q 4147 3491 4147 2328 
z
" transform="scale(0.015625)"/>
     <path id="DejaVuSans-Bold-33" d="M 2981 2516 
Q 3453 2394 3698 2092 
Q 3944 1791 3944 1325 
Q 3944 631 3412 270 
Q 2881 -91 1863 -91 
Q 1503 -91 1142 -33 
Q 781 25 428 141 
L 428 1069 
Q 766 900 1098 814 
Q 1431 728 1753 728 
Q 2231 728 2486 893 
Q 2741 1059 2741 1369 
Q 2741 1688 2480 1852 
Q 2219 2016 1709 2016 
L 1228 2016 
L 1228 2791 
L 1734 2791 
Q 2188 2791 2409 2933 
Q 2631 3075 2631 3366 
Q 2631 3634 2415 3781 
Q 2200 3928 1806 3928 
Q 1516 3928 1219 3862 
Q 922 3797 628 3669 
L 628 4550 
Q 984 4650 1334 4700 
Q 1684 4750 2022 4750 
Q 2931 4750 3382 4451 
Q 3834 4153 3834 3553 
Q 3834 3144 3618 2883 
Q 3403 2622 2981 2516 
z
" transform="scale(0.015625)"/>
    </defs>
    <use xlink:href="#DejaVuSans-Bold-5a"/>
    <use xlink:href="#DejaVuSans-Bold-69" transform="translate(72.509766 0)"/>
    <use xlink:href="#DejaVuSans-Bold-6d" transform="translate(106.787109 0)"/>
    <use xlink:href="#DejaVuSans-Bold-6d" transform="translate(210.986328 0)"/>
    <use xlink:href="#DejaVuSans-Bold-65" transform="translate(315.185547 0)"/>
    <use xlink:href="#DejaVuSans-Bold-72" transform="translate(383.007812 0)"/>
    <use xlink:href="#DejaVuSans-Bold-6d" transform="translate(432.324219 0)"/>
    <use xlink:href="#DejaVuSans-Bold-61" transform="translate(536.523438 0)"/>
    <use xlink:href="#DejaVuSans-Bold-6e" transform="translate(604.003906 0)"/>
    <use xlink:href="#DejaVuSans-Bold-32" transform="translate(675.195312 0)"/>
    <use xlink:href="#DejaVuSans-Bold-30" transform="translate(744.775391 0)"/>
    <use xlink:href="#DejaVuSans-Bold-30" transform="translate(814.355469 0)"/>
    <use xlink:href="#DejaVuSans-Bold-33" transform="translate(883.935547 0)"/>
   </g>
  </g>
 </g>
 <defs>
  <clipPath id="p39d7d7e054">
   <rect x="64.3925" y="43.2" width="390.6" height="277.2"/>
  </clipPath>
 </defs>
</svg>
