<?xml version="1.0" encoding="utf-8" standalone="no"?>
<!DOCTYPE svg PUBLIC "-//W3C//DTD SVG 1.1//EN"
  "http://www.w3.org/Graphics/SVG/1.1/DTD/svg11.dtd">
<svg xmlns:xlink="http://www.w3.org/1999/xlink" width="459.233409pt" height="370.537812pt" viewBox="0 0 459.233409 370.537812" xmlns="http://www.w3.org/2000/svg" version="1.1">
 <metadata>
  <rdf:RDF xmlns:dc="http://purl.org/dc/elements/1.1/" xmlns:cc="http://creativecommons.org/ns#" xmlns:rdf="http://www.w3.org/1999/02/22-rdf-syntax-ns#">
   <cc:Work>
    <dc:type rdf:resource="http://purl.org/dc/dcmitype/StillImage"/>
    <dc:date>2026-02-12T15:19:39.904342</dc:date>
    <dc:format>image/svg+xml</dc:format>
    <dc:creator>
     <cc:Agent>
      <dc:title>Matplotlib v3.10.7, https://matplotlib.org/</dc:title>
     </cc:Agent>
    </dc:creator>
   </cc:Work>
  </rdf:RDF>
 </metadata>
 <defs>
  <style type="text/css">*{stroke-linejoin: round; stroke-linecap: butt}</style>
 </defs>
 <g id="figure_1">
  <g id="patch_1">
   <path d="M 0 370.537812 
L 459.233409 370.537812 
L 459.233409 0 
L 0 0 
z
" style="fill: #ffffff"/>
  </g>
  <g id="axes_1">
   <g id="patch_2">
    <path d="M 54.84875 320.4 
L 445.44875 320.4 
L 445.44875 43.2 
L 54.84875 43.2 
z
" style="fill: #ffffff"/>
   </g>
   <g id="matplotlib.axis_1">
    <g id="xtick_1">
     <g id="line2d_1">
      <defs>
       <path id="m32731e5171" d="M 0 0 
L 0 3.5 
" style="stroke: #000000; stroke-width: 0.8"/>
      </defs>
      <g>
       <use xlink:href="#m32731e5171" x="72.603295" y="320.4" style="stroke: #000000; stroke-width: 0.8"/>
      </g>
     </g>
     <g id="text_1">
      <!-- 0 -->
      <g transform="translate(67.83142 338.797656) scale(0.15 -0.15)">
       <defs>
        <path id="DejaVuSans-30" d="M 2034 4250 
Q 1547 4250 1301 3770 
Q 1056 3291 1056 2328 
Q 1056 1369 1301 889 
Q 1547 409 2034 409 
Q 2525 409 2770 889 
Q 3016 1369 3016 2328 
Q 3016 3291 2770 3770 
Q 2525 4250 2034 4250 
z
M 2034 4750 
Q 2819 4750 3233 4129 
Q 3647 3509 3647 2328 
Q 3647 1150 3233 529 
Q 2819 -91 2034 -91 
Q 1250 -91 836 529 
Q 422 1150 422 2328 
Q 422 3509 836 4129 
Q 1250 4750 2034 4750 
z
" transform="scale(0.015625)"/>
       </defs>
       <use xlink:href="#DejaVuSans-30"/>
      </g>
     </g>
    </g>
    <g id="xtick_2">
     <g id="line2d_2">
      <g>
       <use xlink:href="#m32731e5171" x="146.580568" y="320.4" style="stroke: #000000; stroke-width: 0.8"/>
      </g>
     </g>
     <g id="text_2">
      <!-- 5 -->
      <g transform="translate(141.808693 338.797656) scale(0.15 -0.15)">
       <defs>
        <path id="DejaVuSans-35" d="M 691 4666 
L 3169 4666 
L 3169 4134 
L 1269 4134 
L 1269 2991 
Q 1406 3038 1543 3061 
Q 1681 3084 1819 3084 
Q 2600 3084 3056 2656 
Q 3513 2228 3513 1497 
Q 3513 744 3044 326 
Q 2575 -91 1722 -91 
Q 1428 -91 1123 -41 
Q 819 9 494 109 
L 494 744 
Q 775 591 1075 516 
Q 1375 441 1709 441 
Q 2250 441 2565 725 
Q 2881 1009 2881 1497 
Q 2881 1984 2565 2268 
Q 2250 2553 1709 2553 
Q 1456 2553 1204 2497 
Q 953 2441 691 2322 
L 691 4666 
z
" transform="scale(0.015625)"/>
       </defs>
       <use xlink:href="#DejaVuSans-35"/>
      </g>
     </g>
    </g>
    <g id="xtick_3">
     <g id="line2d_3">
      <g>
       <use xlink:href="#m32731e5171" x="220.557841" y="320.4" style="stroke: #000000; stroke-width: 0.8"/>
      </g>
     </g>
     <g id="text_3">
      <!-- 10 -->
      <g transform="translate(211.014091 338.797656) scale(0.15 -0.15)">
       <defs>
        <path id="DejaVuSans-31" d="M 794 531 
L 1825 531 
L 1825 4091 
L 703 3866 
L 703 4441 
L 1819 4666 
L 2450 4666 
L 2450 531 
L 3481 531 
L 3481 0 
L 794 0 
L 794 531 
z
" transform="scale(0.015625)"/>
       </defs>
       <use xlink:href="#DejaVuSans-31"/>
       <use xlink:href="#DejaVuSans-30" transform="translate(63.623047 0)"/>
      </g>
     </g>
    </g>
    <g id="xtick_4">
     <g id="line2d_4">
      <g>
       <use xlink:href="#m32731e5171" x="294.535114" y="320.4" style="stroke: #000000; stroke-width: 0.8"/>
      </g>
     </g>
     <g id="text_4">
      <!-- 15 -->
      <g transform="translate(284.991364 338.797656) scale(0.15 -0.15)">
       <use xlink:href="#DejaVuSans-31"/>
       <use xlink:href="#DejaVuSans-35" transform="translate(63.623047 0)"/>
      </g>
     </g>
    </g>
    <g id="xtick_5">
     <g id="line2d_5">
      <g>
       <use xlink:href="#m32731e5171" x="368.512386" y="320.4" style="stroke: #000000; stroke-width: 0.8"/>
      </g>
     </g>
     <g id="text_5">
      <!-- 20 -->
      <g transform="translate(358.968636 338.797656) scale(0.15 -0.15)">
       <defs>
        <path id="DejaVuSans-32" d="M 1228 531 
L 3431 531 
L 3431 0 
L 469 0 
L 469 531 
Q 828 903 1448 1529 
Q 2069 2156 2228 2338 
Q 2531 2678 2651 2914 
Q 2772 3150 2772 3378 
Q 2772 3750 2511 3984 
Q 2250 4219 1831 4219 
Q 1534 4219 1204 4116 
Q 875 4013 500 3803 
L 500 4441 
Q 881 4594 1212 4672 
Q 1544 4750 1819 4750 
Q 2544 4750 2975 4387 
Q 3406 4025 3406 3419 
Q 3406 3131 3298 2873 
Q 3191 2616 2906 2266 
Q 2828 2175 2409 1742 
Q 1991 1309 1228 531 
z
" transform="scale(0.015625)"/>
       </defs>
       <use xlink:href="#DejaVuSans-32"/>
       <use xlink:href="#DejaVuSans-30" transform="translate(63.623047 0)"/>
      </g>
     </g>
    </g>
    <g id="xtick_6">
     <g id="line2d_6">
      <g>
       <use xlink:href="#m32731e5171" x="442.489659" y="320.4" style="stroke: #000000; stroke-width: 0.8"/>
      </g>
     </g>
     <g id="text_6">
      <!-- 25 -->
      <g transform="translate(432.945909 338.797656) scale(0.15 -0.15)">
       <use xlink:href="#DejaVuSans-32"/>
       <use xlink:href="#DejaVuSans-35" transform="translate(63.623047 0)"/>
      </g>
     </g>
    </g>
    <g id="text_7">
     <!-- time [hr] -->
     <g transform="translate(205.074219 359.594375) scale(0.18 -0.18)">
      <defs>
       <path id="DejaVuSans-Bold-74" d="M 1759 4494 
L 1759 3500 
L 2913 3500 
L 2913 2700 
L 1759 2700 
L 1759 1216 
Q 1759 972 1856 886 
Q 1953 800 2241 800 
L 2816 800 
L 2816 0 
L 1856 0 
Q 1194 0 917 276 
Q 641 553 641 1216 
L 641 2700 
L 84 2700 
L 84 3500 
L 641 3500 
L 641 4494 
L 1759 4494 
z
" transform="scale(0.015625)"/>
       <path id="DejaVuSans-Bold-69" d="M 538 3500 
L 1656 3500 
L 1656 0 
L 538 0 
L 538 3500 
z
M 538 4863 
L 1656 4863 
L 1656 3950 
L 538 3950 
L 538 4863 
z
" transform="scale(0.015625)"/>
       <path id="DejaVuSans-Bold-6d" d="M 3781 2919 
Q 3994 3244 4286 3414 
Q 4578 3584 4928 3584 
Q 5531 3584 5847 3212 
Q 6163 2841 6163 2131 
L 6163 0 
L 5038 0 
L 5038 1825 
Q 5041 1866 5042 1909 
Q 5044 1953 5044 2034 
Q 5044 2406 4934 2573 
Q 4825 2741 4581 2741 
Q 4263 2741 4089 2478 
Q 3916 2216 3909 1719 
L 3909 0 
L 2784 0 
L 2784 1825 
Q 2784 2406 2684 2573 
Q 2584 2741 2328 2741 
Q 2006 2741 1831 2477 
Q 1656 2213 1656 1722 
L 1656 0 
L 531 0 
L 531 3500 
L 1656 3500 
L 1656 2988 
Q 1863 3284 2130 3434 
Q 2397 3584 2719 3584 
Q 3081 3584 3359 3409 
Q 3638 3234 3781 2919 
z
" transform="scale(0.015625)"/>
       <path id="DejaVuSans-Bold-65" d="M 4031 1759 
L 4031 1441 
L 1416 1441 
Q 1456 1047 1700 850 
Q 1944 653 2381 653 
Q 2734 653 3104 758 
Q 3475 863 3866 1075 
L 3866 213 
Q 3469 63 3072 -14 
Q 2675 -91 2278 -91 
Q 1328 -91 801 392 
Q 275 875 275 1747 
Q 275 2603 792 3093 
Q 1309 3584 2216 3584 
Q 3041 3584 3536 3087 
Q 4031 2591 4031 1759 
z
M 2881 2131 
Q 2881 2450 2695 2645 
Q 2509 2841 2209 2841 
Q 1884 2841 1681 2658 
Q 1478 2475 1428 2131 
L 2881 2131 
z
" transform="scale(0.015625)"/>
       <path id="DejaVuSans-Bold-20" transform="scale(0.015625)"/>
       <path id="DejaVuSans-Bold-5b" d="M 550 4863 
L 2491 4863 
L 2491 4159 
L 1613 4159 
L 1613 -141 
L 2491 -141 
L 2491 -844 
L 550 -844 
L 550 4863 
z
" transform="scale(0.015625)"/>
       <path id="DejaVuSans-Bold-68" d="M 4056 2131 
L 4056 0 
L 2931 0 
L 2931 347 
L 2931 1625 
Q 2931 2084 2911 2256 
Q 2891 2428 2841 2509 
Q 2775 2619 2662 2680 
Q 2550 2741 2406 2741 
Q 2056 2741 1856 2470 
Q 1656 2200 1656 1722 
L 1656 0 
L 538 0 
L 538 4863 
L 1656 4863 
L 1656 2988 
Q 1909 3294 2193 3439 
Q 2478 3584 2822 3584 
Q 3428 3584 3742 3212 
Q 4056 2841 4056 2131 
z
" transform="scale(0.015625)"/>
       <path id="DejaVuSans-Bold-72" d="M 3138 2547 
Q 2991 2616 2845 2648 
Q 2700 2681 2553 2681 
Q 2122 2681 1889 2404 
Q 1656 2128 1656 1613 
L 1656 0 
L 538 0 
L 538 3500 
L 1656 3500 
L 1656 2925 
Q 1872 3269 2151 3426 
Q 2431 3584 2822 3584 
Q 2878 3584 2943 3579 
Q 3009 3575 3134 3559 
L 3138 2547 
z
" transform="scale(0.015625)"/>
       <path id="DejaVuSans-Bold-5d" d="M 2375 -844 
L 434 -844 
L 434 -141 
L 1313 -141 
L 1313 4159 
L 434 4159 
L 434 4863 
L 2375 4863 
L 2375 -844 
z
" transform="scale(0.015625)"/>
      </defs>
      <use xlink:href="#DejaVuSans-Bold-74"/>
      <use xlink:href="#DejaVuSans-Bold-69" transform="translate(47.802734 0)"/>
      <use xlink:href="#DejaVuSans-Bold-6d" transform="translate(82.080078 0)"/>
      <use xlink:href="#DejaVuSans-Bold-65" transform="translate(186.279297 0)"/>
      <use xlink:href="#DejaVuSans-Bold-20" transform="translate(254.101562 0)"/>
      <use xlink:href="#DejaVuSans-Bold-5b" transform="translate(288.916016 0)"/>
      <use xlink:href="#DejaVuSans-Bold-68" transform="translate(334.619141 0)"/>
      <use xlink:href="#DejaVuSans-Bold-72" transform="translate(405.810547 0)"/>
      <use xlink:href="#DejaVuSans-Bold-5d" transform="translate(455.126953 0)"/>
     </g>
    </g>
   </g>
   <g id="matplotlib.axis_2">
    <g id="ytick_1">
     <g id="line2d_7">
      <defs>
       <path id="m579ca786d4" d="M 0 0 
L -3.5 0 
" style="stroke: #000000; stroke-width: 0.8"/>
      </defs>
      <g>
       <use xlink:href="#m579ca786d4" x="54.84875" y="307.8" style="stroke: #000000; stroke-width: 0.8"/>
      </g>
     </g>
     <g id="text_8">
      <!-- 0 -->
      <g transform="translate(38.305 313.498828) scale(0.15 -0.15)">
       <use xlink:href="#DejaVuSans-30"/>
      </g>
     </g>
    </g>
    <g id="ytick_2">
     <g id="line2d_8">
      <g>
       <use xlink:href="#m579ca786d4" x="54.84875" y="274.889812" style="stroke: #000000; stroke-width: 0.8"/>
      </g>
     </g>
     <g id="text_9">
      <!-- 5 -->
      <g transform="translate(38.305 280.58864) scale(0.15 -0.15)">
       <use xlink:href="#DejaVuSans-35"/>
      </g>
     </g>
    </g>
    <g id="ytick_3">
     <g id="line2d_9">
      <g>
       <use xlink:href="#m579ca786d4" x="54.84875" y="241.979623" style="stroke: #000000; stroke-width: 0.8"/>
      </g>
     </g>
     <g id="text_10">
      <!-- 10 -->
      <g transform="translate(28.76125 247.678451) scale(0.15 -0.15)">
       <use xlink:href="#DejaVuSans-31"/>
       <use xlink:href="#DejaVuSans-30" transform="translate(63.623047 0)"/>
      </g>
     </g>
    </g>
    <g id="ytick_4">
     <g id="line2d_10">
      <g>
       <use xlink:href="#m579ca786d4" x="54.84875" y="209.069435" style="stroke: #000000; stroke-width: 0.8"/>
      </g>
     </g>
     <g id="text_11">
      <!-- 15 -->
      <g transform="translate(28.76125 214.768263) scale(0.15 -0.15)">
       <use xlink:href="#DejaVuSans-31"/>
       <use xlink:href="#DejaVuSans-35" transform="translate(63.623047 0)"/>
      </g>
     </g>
    </g>
    <g id="ytick_5">
     <g id="line2d_11">
      <g>
       <use xlink:href="#m579ca786d4" x="54.84875" y="176.159246" style="stroke: #000000; stroke-width: 0.8"/>
      </g>
     </g>
     <g id="text_12">
      <!-- 20 -->
      <g transform="translate(28.76125 181.858075) scale(0.15 -0.15)">
       <use xlink:href="#DejaVuSans-32"/>
       <use xlink:href="#DejaVuSans-30" transform="translate(63.623047 0)"/>
      </g>
     </g>
    </g>
    <g id="ytick_6">
     <g id="line2d_12">
      <g>
       <use xlink:href="#m579ca786d4" x="54.84875" y="143.249058" style="stroke: #000000; stroke-width: 0.8"/>
      </g>
     </g>
     <g id="text_13">
      <!-- 25 -->
      <g transform="translate(28.76125 148.947886) scale(0.15 -0.15)">
       <use xlink:href="#DejaVuSans-32"/>
       <use xlink:href="#DejaVuSans-35" transform="translate(63.623047 0)"/>
      </g>
     </g>
    </g>
    <g id="ytick_7">
     <g id="line2d_13">
      <g>
       <use xlink:href="#m579ca786d4" x="54.84875" y="110.33887" style="stroke: #000000; stroke-width: 0.8"/>
      </g>
     </g>
     <g id="text_14">
      <!-- 30 -->
      <g transform="translate(28.76125 116.037698) scale(0.15 -0.15)">
       <defs>
        <path id="DejaVuSans-33" d="M 2597 2516 
Q 3050 2419 3304 2112 
Q 3559 1806 3559 1356 
Q 3559 666 3084 287 
Q 2609 -91 1734 -91 
Q 1441 -91 1130 -33 
Q 819 25 488 141 
L 488 750 
Q 750 597 1062 519 
Q 1375 441 1716 441 
Q 2309 441 2620 675 
Q 2931 909 2931 1356 
Q 2931 1769 2642 2001 
Q 2353 2234 1838 2234 
L 1294 2234 
L 1294 2753 
L 1863 2753 
Q 2328 2753 2575 2939 
Q 2822 3125 2822 3475 
Q 2822 3834 2567 4026 
Q 2313 4219 1838 4219 
Q 1578 4219 1281 4162 
Q 984 4106 628 3988 
L 628 4550 
Q 988 4650 1302 4700 
Q 1616 4750 1894 4750 
Q 2613 4750 3031 4423 
Q 3450 4097 3450 3541 
Q 3450 3153 3228 2886 
Q 3006 2619 2597 2516 
z
" transform="scale(0.015625)"/>
       </defs>
       <use xlink:href="#DejaVuSans-33"/>
       <use xlink:href="#DejaVuSans-30" transform="translate(63.623047 0)"/>
      </g>
     </g>
    </g>
    <g id="ytick_8">
     <g id="line2d_14">
      <g>
       <use xlink:href="#m579ca786d4" x="54.84875" y="77.428681" style="stroke: #000000; stroke-width: 0.8"/>
      </g>
     </g>
     <g id="text_15">
      <!-- 35 -->
      <g transform="translate(28.76125 83.127509) scale(0.15 -0.15)">
       <use xlink:href="#DejaVuSans-33"/>
       <use xlink:href="#DejaVuSans-35" transform="translate(63.623047 0)"/>
      </g>
     </g>
    </g>
    <g id="ytick_9">
     <g id="line2d_15">
      <g>
       <use xlink:href="#m579ca786d4" x="54.84875" y="44.518493" style="stroke: #000000; stroke-width: 0.8"/>
      </g>
     </g>
     <g id="text_16">
      <!-- 40 -->
      <g transform="translate(28.76125 50.217321) scale(0.15 -0.15)">
       <defs>
        <path id="DejaVuSans-34" d="M 2419 4116 
L 825 1625 
L 2419 1625 
L 2419 4116 
z
M 2253 4666 
L 3047 4666 
L 3047 1625 
L 3713 1625 
L 3713 1100 
L 3047 1100 
L 3047 0 
L 2419 0 
L 2419 1100 
L 313 1100 
L 313 1709 
L 2253 4666 
z
" transform="scale(0.015625)"/>
       </defs>
       <use xlink:href="#DejaVuSans-34"/>
       <use xlink:href="#DejaVuSans-30" transform="translate(63.623047 0)"/>
      </g>
     </g>
    </g>
    <g id="text_17">
     <!-- rapamycin blood [nM] -->
     <g transform="translate(20.877187 293.092031) rotate(-90) scale(0.18 -0.18)">
      <defs>
       <path id="DejaVuSans-Bold-61" d="M 2106 1575 
Q 1756 1575 1579 1456 
Q 1403 1338 1403 1106 
Q 1403 894 1545 773 
Q 1688 653 1941 653 
Q 2256 653 2472 879 
Q 2688 1106 2688 1447 
L 2688 1575 
L 2106 1575 
z
M 3816 1997 
L 3816 0 
L 2688 0 
L 2688 519 
Q 2463 200 2181 54 
Q 1900 -91 1497 -91 
Q 953 -91 614 226 
Q 275 544 275 1050 
Q 275 1666 698 1953 
Q 1122 2241 2028 2241 
L 2688 2241 
L 2688 2328 
Q 2688 2594 2478 2717 
Q 2269 2841 1825 2841 
Q 1466 2841 1156 2769 
Q 847 2697 581 2553 
L 581 3406 
Q 941 3494 1303 3539 
Q 1666 3584 2028 3584 
Q 2975 3584 3395 3211 
Q 3816 2838 3816 1997 
z
" transform="scale(0.015625)"/>
       <path id="DejaVuSans-Bold-70" d="M 1656 506 
L 1656 -1331 
L 538 -1331 
L 538 3500 
L 1656 3500 
L 1656 2988 
Q 1888 3294 2169 3439 
Q 2450 3584 2816 3584 
Q 3463 3584 3878 3070 
Q 4294 2556 4294 1747 
Q 4294 938 3878 423 
Q 3463 -91 2816 -91 
Q 2450 -91 2169 54 
Q 1888 200 1656 506 
z
M 2400 2772 
Q 2041 2772 1848 2508 
Q 1656 2244 1656 1747 
Q 1656 1250 1848 986 
Q 2041 722 2400 722 
Q 2759 722 2948 984 
Q 3138 1247 3138 1747 
Q 3138 2247 2948 2509 
Q 2759 2772 2400 2772 
z
" transform="scale(0.015625)"/>
       <path id="DejaVuSans-Bold-79" d="M 78 3500 
L 1197 3500 
L 2138 1125 
L 2938 3500 
L 4056 3500 
L 2584 -331 
Q 2363 -916 2067 -1148 
Q 1772 -1381 1288 -1381 
L 641 -1381 
L 641 -647 
L 991 -647 
Q 1275 -647 1404 -556 
Q 1534 -466 1606 -231 
L 1638 -134 
L 78 3500 
z
" transform="scale(0.015625)"/>
       <path id="DejaVuSans-Bold-63" d="M 3366 3391 
L 3366 2478 
Q 3138 2634 2908 2709 
Q 2678 2784 2431 2784 
Q 1963 2784 1702 2511 
Q 1441 2238 1441 1747 
Q 1441 1256 1702 982 
Q 1963 709 2431 709 
Q 2694 709 2930 787 
Q 3166 866 3366 1019 
L 3366 103 
Q 3103 6 2833 -42 
Q 2563 -91 2291 -91 
Q 1344 -91 809 395 
Q 275 881 275 1747 
Q 275 2613 809 3098 
Q 1344 3584 2291 3584 
Q 2566 3584 2833 3536 
Q 3100 3488 3366 3391 
z
" transform="scale(0.015625)"/>
       <path id="DejaVuSans-Bold-6e" d="M 4056 2131 
L 4056 0 
L 2931 0 
L 2931 347 
L 2931 1631 
Q 2931 2084 2911 2256 
Q 2891 2428 2841 2509 
Q 2775 2619 2662 2680 
Q 2550 2741 2406 2741 
Q 2056 2741 1856 2470 
Q 1656 2200 1656 1722 
L 1656 0 
L 538 0 
L 538 3500 
L 1656 3500 
L 1656 2988 
Q 1909 3294 2193 3439 
Q 2478 3584 2822 3584 
Q 3428 3584 3742 3212 
Q 4056 2841 4056 2131 
z
" transform="scale(0.015625)"/>
       <path id="DejaVuSans-Bold-62" d="M 2400 722 
Q 2759 722 2948 984 
Q 3138 1247 3138 1747 
Q 3138 2247 2948 2509 
Q 2759 2772 2400 2772 
Q 2041 2772 1848 2508 
Q 1656 2244 1656 1747 
Q 1656 1250 1848 986 
Q 2041 722 2400 722 
z
M 1656 2988 
Q 1888 3294 2169 3439 
Q 2450 3584 2816 3584 
Q 3463 3584 3878 3070 
Q 4294 2556 4294 1747 
Q 4294 938 3878 423 
Q 3463 -91 2816 -91 
Q 2450 -91 2169 54 
Q 1888 200 1656 506 
L 1656 0 
L 538 0 
L 538 4863 
L 1656 4863 
L 1656 2988 
z
" transform="scale(0.015625)"/>
       <path id="DejaVuSans-Bold-6c" d="M 538 4863 
L 1656 4863 
L 1656 0 
L 538 0 
L 538 4863 
z
" transform="scale(0.015625)"/>
       <path id="DejaVuSans-Bold-6f" d="M 2203 2784 
Q 1831 2784 1636 2517 
Q 1441 2250 1441 1747 
Q 1441 1244 1636 976 
Q 1831 709 2203 709 
Q 2569 709 2762 976 
Q 2956 1244 2956 1747 
Q 2956 2250 2762 2517 
Q 2569 2784 2203 2784 
z
M 2203 3584 
Q 3106 3584 3614 3096 
Q 4122 2609 4122 1747 
Q 4122 884 3614 396 
Q 3106 -91 2203 -91 
Q 1297 -91 786 396 
Q 275 884 275 1747 
Q 275 2609 786 3096 
Q 1297 3584 2203 3584 
z
" transform="scale(0.015625)"/>
       <path id="DejaVuSans-Bold-64" d="M 2919 2988 
L 2919 4863 
L 4044 4863 
L 4044 0 
L 2919 0 
L 2919 506 
Q 2688 197 2409 53 
Q 2131 -91 1766 -91 
Q 1119 -91 703 423 
Q 288 938 288 1747 
Q 288 2556 703 3070 
Q 1119 3584 1766 3584 
Q 2128 3584 2408 3439 
Q 2688 3294 2919 2988 
z
M 2181 722 
Q 2541 722 2730 984 
Q 2919 1247 2919 1747 
Q 2919 2247 2730 2509 
Q 2541 2772 2181 2772 
Q 1825 2772 1636 2509 
Q 1447 2247 1447 1747 
Q 1447 1247 1636 984 
Q 1825 722 2181 722 
z
" transform="scale(0.015625)"/>
       <path id="DejaVuSans-Bold-4d" d="M 588 4666 
L 2119 4666 
L 3181 2169 
L 4250 4666 
L 5778 4666 
L 5778 0 
L 4641 0 
L 4641 3413 
L 3566 897 
L 2803 897 
L 1728 3413 
L 1728 0 
L 588 0 
L 588 4666 
z
" transform="scale(0.015625)"/>
      </defs>
      <use xlink:href="#DejaVuSans-Bold-72"/>
      <use xlink:href="#DejaVuSans-Bold-61" transform="translate(49.316406 0)"/>
      <use xlink:href="#DejaVuSans-Bold-70" transform="translate(116.796875 0)"/>
      <use xlink:href="#DejaVuSans-Bold-61" transform="translate(188.378906 0)"/>
      <use xlink:href="#DejaVuSans-Bold-6d" transform="translate(255.859375 0)"/>
      <use xlink:href="#DejaVuSans-Bold-79" transform="translate(360.058594 0)"/>
      <use xlink:href="#DejaVuSans-Bold-63" transform="translate(425.244141 0)"/>
      <use xlink:href="#DejaVuSans-Bold-69" transform="translate(484.521484 0)"/>
      <use xlink:href="#DejaVuSans-Bold-6e" transform="translate(518.798828 0)"/>
      <use xlink:href="#DejaVuSans-Bold-20" transform="translate(589.990234 0)"/>
      <use xlink:href="#DejaVuSans-Bold-62" transform="translate(624.804688 0)"/>
      <use xlink:href="#DejaVuSans-Bold-6c" transform="translate(696.386719 0)"/>
      <use xlink:href="#DejaVuSans-Bold-6f" transform="translate(730.664062 0)"/>
      <use xlink:href="#DejaVuSans-Bold-6f" transform="translate(799.365234 0)"/>
      <use xlink:href="#DejaVuSans-Bold-64" transform="translate(868.066406 0)"/>
      <use xlink:href="#DejaVuSans-Bold-20" transform="translate(939.648438 0)"/>
      <use xlink:href="#DejaVuSans-Bold-5b" transform="translate(974.462891 0)"/>
      <use xlink:href="#DejaVuSans-Bold-6e" transform="translate(1020.166016 0)"/>
      <use xlink:href="#DejaVuSans-Bold-4d" transform="translate(1091.357422 0)"/>
      <use xlink:href="#DejaVuSans-Bold-5d" transform="translate(1190.869141 0)"/>
     </g>
    </g>
   </g>
   <g id="line2d_16">
    <path d="M 72.603295 307.8 
L 72.780841 307.776054 
L 72.958386 307.553647 
L 73.313477 306.097043 
L 73.846114 301.809711 
L 75.088932 288.285185 
L 76.509295 273.844453 
L 77.752114 263.570653 
L 78.994932 255.321619 
L 80.060205 249.622611 
L 81.125477 244.997634 
L 82.19075 241.289274 
L 83.256023 238.361663 
L 84.321295 236.097739 
L 85.386568 234.39672 
L 86.274295 233.346268 
L 87.162023 232.582644 
L 88.04975 232.067381 
L 89.115023 231.729496 
L 90.180295 231.649774 
L 91.245568 231.784581 
L 92.488386 232.163474 
L 93.90875 232.82818 
L 95.684205 233.918343 
L 97.992295 235.624956 
L 101.365659 238.42957 
L 110.065386 245.765306 
L 114.148932 248.858347 
L 118.054932 251.530813 
L 121.960932 253.926508 
L 125.866932 256.065144 
L 129.950477 258.054917 
L 134.389114 259.969219 
L 139.182841 261.789698 
L 144.331659 263.507942 
L 150.190659 265.22125 
L 156.759841 266.900472 
L 164.21675 268.569135 
L 172.916477 270.278418 
L 183.036568 272.034341 
L 195.287205 273.925229 
L 209.845932 275.941063 
L 227.245386 278.11958 
L 247.308023 280.402094 
L 269.501205 282.700408 
L 293.469841 284.95682 
L 318.858841 287.122437 
L 345.84575 289.198427 
L 374.253023 291.158501 
L 404.43575 293.015163 
L 427.694205 294.303297 
L 427.694205 294.303297 
" clip-path="url(#p7b6a9d04eb)" style="fill: none; stroke: #006d5e; stroke-width: 2; stroke-linecap: square"/>
   </g>
   <g id="line2d_17">
    <path d="M 80.001023 260.55 
L 87.39875 206.55 
M 116.989659 220.95 
L 131.785114 237.15 
L 161.376023 264.6 
L 190.966932 270.45 
L 250.14875 281.7 
L 257.546477 283.5 
L 264.944205 282.6 
L 279.739659 301.95 
" clip-path="url(#p7b6a9d04eb)" style="fill: none; stroke-dasharray: 3.7,1.6; stroke-dashoffset: 0; stroke: #006d5e"/>
    <defs>
     <path id="maa80b491cc" d="M -3 3 
L 3 3 
L 3 -3 
L -3 -3 
z
" style="stroke: #000000; stroke-linejoin: miter"/>
    </defs>
    <g clip-path="url(#p7b6a9d04eb)">
     <use xlink:href="#maa80b491cc" x="80.001023" y="260.55" style="fill: #006d5e; stroke: #000000; stroke-linejoin: miter"/>
     <use xlink:href="#maa80b491cc" x="87.39875" y="206.55" style="fill: #006d5e; stroke: #000000; stroke-linejoin: miter"/>
     <use xlink:href="#maa80b491cc" x="116.989659" y="220.95" style="fill: #006d5e; stroke: #000000; stroke-linejoin: miter"/>
     <use xlink:href="#maa80b491cc" x="131.785114" y="237.15" style="fill: #006d5e; stroke: #000000; stroke-linejoin: miter"/>
     <use xlink:href="#maa80b491cc" x="161.376023" y="264.6" style="fill: #006d5e; stroke: #000000; stroke-linejoin: miter"/>
     <use xlink:href="#maa80b491cc" x="190.966932" y="270.45" style="fill: #006d5e; stroke: #000000; stroke-linejoin: miter"/>
     <use xlink:href="#maa80b491cc" x="250.14875" y="281.7" style="fill: #006d5e; stroke: #000000; stroke-linejoin: miter"/>
     <use xlink:href="#maa80b491cc" x="257.546477" y="283.5" style="fill: #006d5e; stroke: #000000; stroke-linejoin: miter"/>
     <use xlink:href="#maa80b491cc" x="264.944205" y="282.6" style="fill: #006d5e; stroke: #000000; stroke-linejoin: miter"/>
     <use xlink:href="#maa80b491cc" x="279.739659" y="301.95" style="fill: #006d5e; stroke: #000000; stroke-linejoin: miter"/>
    </g>
   </g>
   <g id="line2d_18">
    <path d="M 72.603295 307.8 
L 72.780841 307.774514 
L 72.958386 307.537898 
L 73.313477 305.989257 
L 73.846114 301.434535 
L 75.088932 287.082229 
L 76.509295 271.768684 
L 77.752114 260.874393 
L 78.994932 252.125419 
L 80.060205 246.079366 
L 81.125477 241.171177 
L 82.19075 237.234138 
L 83.256023 234.124361 
L 84.321295 231.717868 
L 85.386568 229.907923 
L 86.274295 228.788678 
L 87.162023 227.973468 
L 88.04975 227.421551 
L 88.937477 227.097045 
L 90.00275 226.963625 
L 91.068023 227.064971 
L 92.310841 227.42608 
L 93.731205 228.093189 
L 95.329114 229.089223 
L 97.459659 230.698061 
L 100.477932 233.293825 
L 111.48575 243.013297 
L 115.39175 246.041768 
L 119.120205 248.655847 
L 122.848659 251.00816 
L 126.754659 253.213837 
L 130.838205 255.267415 
L 135.276841 257.245579 
L 140.070568 259.130098 
L 145.219386 260.912664 
L 150.900841 262.644028 
L 157.292477 264.357433 
L 164.571841 266.075218 
L 173.094023 267.84917 
L 183.036568 269.683454 
L 194.932114 271.642216 
L 209.13575 273.746027 
L 225.825023 275.987051 
L 244.999932 278.333756 
L 266.305386 280.714331 
L 289.20875 283.048523 
L 313.532477 285.303306 
L 339.276568 287.464836 
L 366.441023 289.520303 
L 395.025841 291.459135 
L 425.386114 293.293649 
L 427.694205 293.424383 
L 427.694205 293.424383 
" clip-path="url(#p7b6a9d04eb)" style="fill: none; stroke: #006d5e; stroke-width: 2; stroke-linecap: square"/>
   </g>
   <g id="line2d_19">
    <path d="M 80.001023 222.3 
L 87.39875 143.55 
L 102.194205 55.8 
L 116.989659 157.5 
M 161.376023 193.5 
L 190.966932 202.95 
L 250.14875 241.2 
M 264.944205 245.25 
L 279.739659 248.85 
L 294.535114 252 
M 338.921477 262.35 
L 368.512386 262.35 
L 427.694205 271.35 
" clip-path="url(#p7b6a9d04eb)" style="fill: none; stroke-dasharray: 3.7,1.6; stroke-dashoffset: 0; stroke: #006d5e"/>
    <defs>
     <path id="m72e531369f" d="M 0 3 
C 0.795609 3 1.55874 2.683901 2.12132 2.12132 
C 2.683901 1.55874 3 0.795609 3 0 
C 3 -0.795609 2.683901 -1.55874 2.12132 -2.12132 
C 1.55874 -2.683901 0.795609 -3 0 -3 
C -0.795609 -3 -1.55874 -2.683901 -2.12132 -2.12132 
C -2.683901 -1.55874 -3 -0.795609 -3 0 
C -3 0.795609 -2.683901 1.55874 -2.12132 2.12132 
C -1.55874 2.683901 -0.795609 3 0 3 
z
" style="stroke: #000000"/>
    </defs>
    <g clip-path="url(#p7b6a9d04eb)">
     <use xlink:href="#m72e531369f" x="80.001023" y="222.3" style="fill: #006d5e; stroke: #000000"/>
     <use xlink:href="#m72e531369f" x="87.39875" y="143.55" style="fill: #006d5e; stroke: #000000"/>
     <use xlink:href="#m72e531369f" x="102.194205" y="55.8" style="fill: #006d5e; stroke: #000000"/>
     <use xlink:href="#m72e531369f" x="116.989659" y="157.5" style="fill: #006d5e; stroke: #000000"/>
     <use xlink:href="#m72e531369f" x="161.376023" y="193.5" style="fill: #006d5e; stroke: #000000"/>
     <use xlink:href="#m72e531369f" x="190.966932" y="202.95" style="fill: #006d5e; stroke: #000000"/>
     <use xlink:href="#m72e531369f" x="250.14875" y="241.2" style="fill: #006d5e; stroke: #000000"/>
     <use xlink:href="#m72e531369f" x="264.944205" y="245.25" style="fill: #006d5e; stroke: #000000"/>
     <use xlink:href="#m72e531369f" x="279.739659" y="248.85" style="fill: #006d5e; stroke: #000000"/>
     <use xlink:href="#m72e531369f" x="294.535114" y="252" style="fill: #006d5e; stroke: #000000"/>
     <use xlink:href="#m72e531369f" x="338.921477" y="262.35" style="fill: #006d5e; stroke: #000000"/>
     <use xlink:href="#m72e531369f" x="368.512386" y="262.35" style="fill: #006d5e; stroke: #000000"/>
     <use xlink:href="#m72e531369f" x="427.694205" y="271.35" style="fill: #006d5e; stroke: #000000"/>
    </g>
   </g>
   <g id="line2d_20">
    <path d="M 72.603295 307.8 
L 72.780841 307.774294 
L 72.958386 307.535642 
L 73.313477 305.973825 
L 73.846114 301.380825 
L 75.088932 286.910024 
L 76.509295 271.47153 
L 77.752114 260.488408 
L 78.994932 251.667859 
L 80.060205 245.57212 
L 81.125477 240.623384 
L 82.19075 236.653606 
L 83.256023 233.517748 
L 84.321295 231.090843 
L 85.386568 229.265302 
L 86.274295 228.136207 
L 87.162023 227.313611 
L 88.04975 226.756445 
L 88.937477 226.428541 
L 90.00275 226.293132 
L 91.068023 226.394411 
L 92.310841 226.757439 
L 93.731205 227.428847 
L 95.329114 228.431767 
L 97.459659 230.052168 
L 100.477932 232.667092 
L 111.48575 242.460468 
L 115.39175 245.512393 
L 119.120205 248.146864 
L 122.848659 250.517655 
L 126.754659 252.74078 
L 130.838205 254.810726 
L 135.276841 256.804789 
L 140.070568 258.70459 
L 145.219386 260.501754 
L 150.900841 262.247449 
L 157.292477 263.975196 
L 164.571841 265.70753 
L 172.916477 267.461562 
L 182.859023 269.315634 
L 194.577023 271.266786 
L 208.603114 273.36929 
L 225.114841 275.614068 
L 244.112205 277.96871 
L 265.240114 280.36049 
L 287.965932 282.708223 
L 312.112114 284.978464 
L 337.678659 287.157095 
L 364.665568 289.23096 
L 393.072841 291.189112 
L 423.255568 293.043849 
L 427.694205 293.298551 
L 427.694205 293.298551 
" clip-path="url(#p7b6a9d04eb)" style="fill: none; stroke: #006d5e; stroke-width: 2; stroke-linecap: square"/>
   </g>
   <g id="line2d_21">
    <path d="M 80.001023 279.9 
L 87.39875 251.55 
L 102.194205 251.1 
L 116.989659 257.85 
M 161.376023 279.9 
L 190.966932 287.1 
L 250.14875 290.25 
M 264.944205 292.5 
L 279.739659 292.95 
L 294.535114 294.75 
M 338.921477 296.1 
L 368.512386 295.65 
L 427.694205 297 
" clip-path="url(#p7b6a9d04eb)" style="fill: none; stroke-dasharray: 3.7,1.6; stroke-dashoffset: 0; stroke: #006d5e"/>
    <defs>
     <path id="mb53728bb84" d="M 0 -3 
L -3 3 
L 3 3 
z
" style="stroke: #000000; stroke-linejoin: miter"/>
    </defs>
    <g clip-path="url(#p7b6a9d04eb)">
     <use xlink:href="#mb53728bb84" x="80.001023" y="279.9" style="fill: #006d5e; stroke: #000000; stroke-linejoin: miter"/>
     <use xlink:href="#mb53728bb84" x="87.39875" y="251.55" style="fill: #006d5e; stroke: #000000; stroke-linejoin: miter"/>
     <use xlink:href="#mb53728bb84" x="102.194205" y="251.1" style="fill: #006d5e; stroke: #000000; stroke-linejoin: miter"/>
     <use xlink:href="#mb53728bb84" x="116.989659" y="257.85" style="fill: #006d5e; stroke: #000000; stroke-linejoin: miter"/>
     <use xlink:href="#mb53728bb84" x="161.376023" y="279.9" style="fill: #006d5e; stroke: #000000; stroke-linejoin: miter"/>
     <use xlink:href="#mb53728bb84" x="190.966932" y="287.1" style="fill: #006d5e; stroke: #000000; stroke-linejoin: miter"/>
     <use xlink:href="#mb53728bb84" x="250.14875" y="290.25" style="fill: #006d5e; stroke: #000000; stroke-linejoin: miter"/>
     <use xlink:href="#mb53728bb84" x="264.944205" y="292.5" style="fill: #006d5e; stroke: #000000; stroke-linejoin: miter"/>
     <use xlink:href="#mb53728bb84" x="279.739659" y="292.95" style="fill: #006d5e; stroke: #000000; stroke-linejoin: miter"/>
     <use xlink:href="#mb53728bb84" x="294.535114" y="294.75" style="fill: #006d5e; stroke: #000000; stroke-linejoin: miter"/>
     <use xlink:href="#mb53728bb84" x="338.921477" y="296.1" style="fill: #006d5e; stroke: #000000; stroke-linejoin: miter"/>
     <use xlink:href="#mb53728bb84" x="368.512386" y="295.65" style="fill: #006d5e; stroke: #000000; stroke-linejoin: miter"/>
     <use xlink:href="#mb53728bb84" x="427.694205" y="297" style="fill: #006d5e; stroke: #000000; stroke-linejoin: miter"/>
    </g>
   </g>
   <g id="line2d_22">
    <path d="M 72.603295 307.8 
L 72.780841 307.773956 
L 72.958386 307.532186 
L 73.313477 305.950169 
L 73.846114 301.298493 
L 75.088932 286.646049 
L 76.509295 271.016016 
L 77.752114 259.896718 
L 78.994932 250.966448 
L 80.060205 244.794543 
L 81.125477 239.783649 
L 82.19075 235.763681 
L 83.256023 232.587841 
L 84.321295 230.129645 
L 85.386568 228.280196 
L 86.274295 227.136001 
L 87.162023 226.302082 
L 88.04975 225.73687 
L 88.937477 225.403756 
L 90.00275 225.265297 
L 91.068023 225.366473 
L 92.310841 225.732443 
L 93.731205 226.41044 
L 95.329114 227.423916 
L 97.459659 229.062042 
L 100.477932 231.706335 
L 111.48575 241.613 
L 115.39175 244.700878 
L 119.120205 247.366609 
L 122.848659 249.765725 
L 126.754659 252.015598 
L 130.838205 254.110636 
L 135.276841 256.129068 
L 140.070568 258.052297 
L 145.219386 259.871841 
L 150.900841 261.639502 
L 157.292477 263.389235 
L 164.571841 265.143873 
L 172.916477 266.920756 
L 182.681477 268.767538 
L 194.221932 270.71945 
L 208.070477 272.829905 
L 224.404659 275.088514 
L 243.224477 277.461792 
L 264.174841 279.875721 
L 286.723114 282.247785 
L 310.69175 284.543959 
L 335.903205 286.735116 
L 362.535023 288.825287 
L 390.587205 290.802854 
L 420.414841 292.679947 
L 427.694205 293.105655 
L 427.694205 293.105655 
" clip-path="url(#p7b6a9d04eb)" style="fill: none; stroke: #006d5e; stroke-width: 2; stroke-linecap: square"/>
   </g>
   <g id="line2d_23">
    <path d="M 87.39875 219.15 
L 102.194205 190.8 
L 116.989659 202.05 
L 131.785114 241.65 
L 161.376023 230.4 
L 190.966932 262.8 
L 250.14875 277.2 
L 257.546477 275.4 
L 264.944205 276.3 
L 279.739659 283.5 
L 294.535114 281.25 
L 309.330568 282.6 
L 338.921477 285.3 
L 368.512386 291.6 
" clip-path="url(#p7b6a9d04eb)" style="fill: none; stroke-dasharray: 3.7,1.6; stroke-dashoffset: 0; stroke: #006d5e"/>
    <defs>
     <path id="m4096b68c8a" d="M 0 -3 
L -0.673542 -0.927051 
L -2.85317 -0.927051 
L -1.089814 0.354102 
L -1.763356 2.427051 
L -0 1.145898 
L 1.763356 2.427051 
L 1.089814 0.354102 
L 2.85317 -0.927051 
L 0.673542 -0.927051 
z
" style="stroke: #000000; stroke-linejoin: bevel"/>
    </defs>
    <g clip-path="url(#p7b6a9d04eb)">
     <use xlink:href="#m4096b68c8a" x="87.39875" y="219.15" style="fill: #006d5e; stroke: #000000; stroke-linejoin: bevel"/>
     <use xlink:href="#m4096b68c8a" x="102.194205" y="190.8" style="fill: #006d5e; stroke: #000000; stroke-linejoin: bevel"/>
     <use xlink:href="#m4096b68c8a" x="116.989659" y="202.05" style="fill: #006d5e; stroke: #000000; stroke-linejoin: bevel"/>
     <use xlink:href="#m4096b68c8a" x="131.785114" y="241.65" style="fill: #006d5e; stroke: #000000; stroke-linejoin: bevel"/>
     <use xlink:href="#m4096b68c8a" x="161.376023" y="230.4" style="fill: #006d5e; stroke: #000000; stroke-linejoin: bevel"/>
     <use xlink:href="#m4096b68c8a" x="190.966932" y="262.8" style="fill: #006d5e; stroke: #000000; stroke-linejoin: bevel"/>
     <use xlink:href="#m4096b68c8a" x="250.14875" y="277.2" style="fill: #006d5e; stroke: #000000; stroke-linejoin: bevel"/>
     <use xlink:href="#m4096b68c8a" x="257.546477" y="275.4" style="fill: #006d5e; stroke: #000000; stroke-linejoin: bevel"/>
     <use xlink:href="#m4096b68c8a" x="264.944205" y="276.3" style="fill: #006d5e; stroke: #000000; stroke-linejoin: bevel"/>
     <use xlink:href="#m4096b68c8a" x="279.739659" y="283.5" style="fill: #006d5e; stroke: #000000; stroke-linejoin: bevel"/>
     <use xlink:href="#m4096b68c8a" x="294.535114" y="281.25" style="fill: #006d5e; stroke: #000000; stroke-linejoin: bevel"/>
     <use xlink:href="#m4096b68c8a" x="309.330568" y="282.6" style="fill: #006d5e; stroke: #000000; stroke-linejoin: bevel"/>
     <use xlink:href="#m4096b68c8a" x="338.921477" y="285.3" style="fill: #006d5e; stroke: #000000; stroke-linejoin: bevel"/>
     <use xlink:href="#m4096b68c8a" x="368.512386" y="291.6" style="fill: #006d5e; stroke: #000000; stroke-linejoin: bevel"/>
    </g>
   </g>
   <g id="patch_3">
    <path d="M 54.84875 320.4 
L 54.84875 43.2 
" style="fill: none; stroke: #000000; stroke-width: 0.8; stroke-linejoin: miter; stroke-linecap: square"/>
   </g>
   <g id="patch_4">
    <path d="M 445.44875 320.4 
L 445.44875 43.2 
" style="fill: none; stroke: #000000; stroke-width: 0.8; stroke-linejoin: miter; stroke-linecap: square"/>
   </g>
   <g id="patch_5">
    <path d="M 54.84875 320.4 
L 445.44875 320.4 
" style="fill: none; stroke: #000000; stroke-width: 0.8; stroke-linejoin: miter; stroke-linecap: square"/>
   </g>
   <g id="patch_6">
    <path d="M 54.84875 43.2 
L 445.44875 43.2 
" style="fill: none; stroke: #000000; stroke-width: 0.8; stroke-linejoin: miter; stroke-linecap: square"/>
   </g>
   <g id="legend_1">
    <g id="patch_7">
     <path d="M 361.995625 168.625 
L 438.44875 168.625 
Q 440.44875 168.625 440.44875 166.625 
L 440.44875 50.2 
Q 440.44875 48.2 438.44875 48.2 
L 361.995625 48.2 
Q 359.995625 48.2 359.995625 50.2 
L 359.995625 166.625 
Q 359.995625 168.625 361.995625 168.625 
z
" style="fill: #ffffff; opacity: 0.8; stroke: #cccccc; stroke-linejoin: miter"/>
    </g>
    <g id="line2d_24">
     <path d="M 363.995625 56.298437 
L 383.995625 56.298437 
" style="fill: none; stroke: #006d5e; stroke-width: 2; stroke-linecap: square"/>
    </g>
    <g id="line2d_25"/>
    <g id="text_18">
     <!-- P5 -->
     <g transform="translate(391.995625 59.798437) scale(0.1 -0.1)">
      <defs>
       <path id="DejaVuSans-50" d="M 1259 4147 
L 1259 2394 
L 2053 2394 
Q 2494 2394 2734 2622 
Q 2975 2850 2975 3272 
Q 2975 3691 2734 3919 
Q 2494 4147 2053 4147 
L 1259 4147 
z
M 628 4666 
L 2053 4666 
Q 2838 4666 3239 4311 
Q 3641 3956 3641 3272 
Q 3641 2581 3239 2228 
Q 2838 1875 2053 1875 
L 1259 1875 
L 1259 0 
L 628 0 
L 628 4666 
z
" transform="scale(0.015625)"/>
      </defs>
      <use xlink:href="#DejaVuSans-50"/>
      <use xlink:href="#DejaVuSans-35" transform="translate(60.302734 0)"/>
     </g>
    </g>
    <g id="line2d_26">
     <path d="M 363.995625 70.976562 
L 383.995625 70.976562 
" style="fill: none; stroke-dasharray: 3.7,1.6; stroke-dashoffset: 0; stroke: #006d5e"/>
    </g>
    <g id="line2d_27">
     <g>
      <use xlink:href="#maa80b491cc" x="373.995625" y="70.976562" style="fill: #006d5e; stroke: #000000; stroke-linejoin: miter"/>
     </g>
    </g>
    <g id="text_19">
     <!-- P5 (n=1) -->
     <g transform="translate(391.995625 74.476562) scale(0.1 -0.1)">
      <defs>
       <path id="DejaVuSans-20" transform="scale(0.015625)"/>
       <path id="DejaVuSans-28" d="M 1984 4856 
Q 1566 4138 1362 3434 
Q 1159 2731 1159 2009 
Q 1159 1288 1364 580 
Q 1569 -128 1984 -844 
L 1484 -844 
Q 1016 -109 783 600 
Q 550 1309 550 2009 
Q 550 2706 781 3412 
Q 1013 4119 1484 4856 
L 1984 4856 
z
" transform="scale(0.015625)"/>
       <path id="DejaVuSans-6e" d="M 3513 2113 
L 3513 0 
L 2938 0 
L 2938 2094 
Q 2938 2591 2744 2837 
Q 2550 3084 2163 3084 
Q 1697 3084 1428 2787 
Q 1159 2491 1159 1978 
L 1159 0 
L 581 0 
L 581 3500 
L 1159 3500 
L 1159 2956 
Q 1366 3272 1645 3428 
Q 1925 3584 2291 3584 
Q 2894 3584 3203 3211 
Q 3513 2838 3513 2113 
z
" transform="scale(0.015625)"/>
       <path id="DejaVuSans-3d" d="M 678 2906 
L 4684 2906 
L 4684 2381 
L 678 2381 
L 678 2906 
z
M 678 1631 
L 4684 1631 
L 4684 1100 
L 678 1100 
L 678 1631 
z
" transform="scale(0.015625)"/>
       <path id="DejaVuSans-29" d="M 513 4856 
L 1013 4856 
Q 1481 4119 1714 3412 
Q 1947 2706 1947 2009 
Q 1947 1309 1714 600 
Q 1481 -109 1013 -844 
L 513 -844 
Q 928 -128 1133 580 
Q 1338 1288 1338 2009 
Q 1338 2731 1133 3434 
Q 928 4138 513 4856 
z
" transform="scale(0.015625)"/>
      </defs>
      <use xlink:href="#DejaVuSans-50"/>
      <use xlink:href="#DejaVuSans-35" transform="translate(60.302734 0)"/>
      <use xlink:href="#DejaVuSans-20" transform="translate(123.925781 0)"/>
      <use xlink:href="#DejaVuSans-28" transform="translate(155.712891 0)"/>
      <use xlink:href="#DejaVuSans-6e" transform="translate(194.726562 0)"/>
      <use xlink:href="#DejaVuSans-3d" transform="translate(258.105469 0)"/>
      <use xlink:href="#DejaVuSans-31" transform="translate(341.894531 0)"/>
      <use xlink:href="#DejaVuSans-29" transform="translate(405.517578 0)"/>
     </g>
    </g>
    <g id="line2d_28">
     <path d="M 363.995625 85.654687 
L 383.995625 85.654687 
" style="fill: none; stroke: #006d5e; stroke-width: 2; stroke-linecap: square"/>
    </g>
    <g id="line2d_29"/>
    <g id="text_20">
     <!-- P6 -->
     <g transform="translate(391.995625 89.154687) scale(0.1 -0.1)">
      <defs>
       <path id="DejaVuSans-36" d="M 2113 2584 
Q 1688 2584 1439 2293 
Q 1191 2003 1191 1497 
Q 1191 994 1439 701 
Q 1688 409 2113 409 
Q 2538 409 2786 701 
Q 3034 994 3034 1497 
Q 3034 2003 2786 2293 
Q 2538 2584 2113 2584 
z
M 3366 4563 
L 3366 3988 
Q 3128 4100 2886 4159 
Q 2644 4219 2406 4219 
Q 1781 4219 1451 3797 
Q 1122 3375 1075 2522 
Q 1259 2794 1537 2939 
Q 1816 3084 2150 3084 
Q 2853 3084 3261 2657 
Q 3669 2231 3669 1497 
Q 3669 778 3244 343 
Q 2819 -91 2113 -91 
Q 1303 -91 875 529 
Q 447 1150 447 2328 
Q 447 3434 972 4092 
Q 1497 4750 2381 4750 
Q 2619 4750 2861 4703 
Q 3103 4656 3366 4563 
z
" transform="scale(0.015625)"/>
      </defs>
      <use xlink:href="#DejaVuSans-50"/>
      <use xlink:href="#DejaVuSans-36" transform="translate(60.302734 0)"/>
     </g>
    </g>
    <g id="line2d_30">
     <path d="M 363.995625 100.332812 
L 383.995625 100.332812 
" style="fill: none; stroke-dasharray: 3.7,1.6; stroke-dashoffset: 0; stroke: #006d5e"/>
    </g>
    <g id="line2d_31">
     <g>
      <use xlink:href="#m72e531369f" x="373.995625" y="100.332812" style="fill: #006d5e; stroke: #000000"/>
     </g>
    </g>
    <g id="text_21">
     <!-- P6 (n=1) -->
     <g transform="translate(391.995625 103.832812) scale(0.1 -0.1)">
      <use xlink:href="#DejaVuSans-50"/>
      <use xlink:href="#DejaVuSans-36" transform="translate(60.302734 0)"/>
      <use xlink:href="#DejaVuSans-20" transform="translate(123.925781 0)"/>
      <use xlink:href="#DejaVuSans-28" transform="translate(155.712891 0)"/>
      <use xlink:href="#DejaVuSans-6e" transform="translate(194.726562 0)"/>
      <use xlink:href="#DejaVuSans-3d" transform="translate(258.105469 0)"/>
      <use xlink:href="#DejaVuSans-31" transform="translate(341.894531 0)"/>
      <use xlink:href="#DejaVuSans-29" transform="translate(405.517578 0)"/>
     </g>
    </g>
    <g id="line2d_32">
     <path d="M 363.995625 115.010937 
L 383.995625 115.010937 
" style="fill: none; stroke: #006d5e; stroke-width: 2; stroke-linecap: square"/>
    </g>
    <g id="line2d_33"/>
    <g id="text_22">
     <!-- P7 -->
     <g transform="translate(391.995625 118.510937) scale(0.1 -0.1)">
      <defs>
       <path id="DejaVuSans-37" d="M 525 4666 
L 3525 4666 
L 3525 4397 
L 1831 0 
L 1172 0 
L 2766 4134 
L 525 4134 
L 525 4666 
z
" transform="scale(0.015625)"/>
      </defs>
      <use xlink:href="#DejaVuSans-50"/>
      <use xlink:href="#DejaVuSans-37" transform="translate(60.302734 0)"/>
     </g>
    </g>
    <g id="line2d_34">
     <path d="M 363.995625 129.689062 
L 383.995625 129.689062 
" style="fill: none; stroke-dasharray: 3.7,1.6; stroke-dashoffset: 0; stroke: #006d5e"/>
    </g>
    <g id="line2d_35">
     <g>
      <use xlink:href="#mb53728bb84" x="373.995625" y="129.689062" style="fill: #006d5e; stroke: #000000; stroke-linejoin: miter"/>
     </g>
    </g>
    <g id="text_23">
     <!-- P7 (n=1) -->
     <g transform="translate(391.995625 133.189062) scale(0.1 -0.1)">
      <use xlink:href="#DejaVuSans-50"/>
      <use xlink:href="#DejaVuSans-37" transform="translate(60.302734 0)"/>
      <use xlink:href="#DejaVuSans-20" transform="translate(123.925781 0)"/>
      <use xlink:href="#DejaVuSans-28" transform="translate(155.712891 0)"/>
      <use xlink:href="#DejaVuSans-6e" transform="translate(194.726562 0)"/>
      <use xlink:href="#DejaVuSans-3d" transform="translate(258.105469 0)"/>
      <use xlink:href="#DejaVuSans-31" transform="translate(341.894531 0)"/>
      <use xlink:href="#DejaVuSans-29" transform="translate(405.517578 0)"/>
     </g>
    </g>
    <g id="line2d_36">
     <path d="M 363.995625 144.367187 
L 383.995625 144.367187 
" style="fill: none; stroke: #006d5e; stroke-width: 2; stroke-linecap: square"/>
    </g>
    <g id="line2d_37"/>
    <g id="text_24">
     <!-- P8 -->
     <g transform="translate(391.995625 147.867187) scale(0.1 -0.1)">
      <defs>
       <path id="DejaVuSans-38" d="M 2034 2216 
Q 1584 2216 1326 1975 
Q 1069 1734 1069 1313 
Q 1069 891 1326 650 
Q 1584 409 2034 409 
Q 2484 409 2743 651 
Q 3003 894 3003 1313 
Q 3003 1734 2745 1975 
Q 2488 2216 2034 2216 
z
M 1403 2484 
Q 997 2584 770 2862 
Q 544 3141 544 3541 
Q 544 4100 942 4425 
Q 1341 4750 2034 4750 
Q 2731 4750 3128 4425 
Q 3525 4100 3525 3541 
Q 3525 3141 3298 2862 
Q 3072 2584 2669 2484 
Q 3125 2378 3379 2068 
Q 3634 1759 3634 1313 
Q 3634 634 3220 271 
Q 2806 -91 2034 -91 
Q 1263 -91 848 271 
Q 434 634 434 1313 
Q 434 1759 690 2068 
Q 947 2378 1403 2484 
z
M 1172 3481 
Q 1172 3119 1398 2916 
Q 1625 2713 2034 2713 
Q 2441 2713 2670 2916 
Q 2900 3119 2900 3481 
Q 2900 3844 2670 4047 
Q 2441 4250 2034 4250 
Q 1625 4250 1398 4047 
Q 1172 3844 1172 3481 
z
" transform="scale(0.015625)"/>
      </defs>
      <use xlink:href="#DejaVuSans-50"/>
      <use xlink:href="#DejaVuSans-38" transform="translate(60.302734 0)"/>
     </g>
    </g>
    <g id="line2d_38">
     <path d="M 363.995625 159.045312 
L 383.995625 159.045312 
" style="fill: none; stroke-dasharray: 3.7,1.6; stroke-dashoffset: 0; stroke: #006d5e"/>
    </g>
    <g id="line2d_39">
     <g>
      <use xlink:href="#m4096b68c8a" x="373.995625" y="159.045312" style="fill: #006d5e; stroke: #000000; stroke-linejoin: bevel"/>
     </g>
    </g>
    <g id="text_25">
     <!-- P8 (n=1) -->
     <g transform="translate(391.995625 162.545312) scale(0.1 -0.1)">
      <use xlink:href="#DejaVuSans-50"/>
      <use xlink:href="#DejaVuSans-38" transform="translate(60.302734 0)"/>
      <use xlink:href="#DejaVuSans-20" transform="translate(123.925781 0)"/>
      <use xlink:href="#DejaVuSans-28" transform="translate(155.712891 0)"/>
      <use xlink:href="#DejaVuSans-6e" transform="translate(194.726562 0)"/>
      <use xlink:href="#DejaVuSans-3d" transform="translate(258.105469 0)"/>
      <use xlink:href="#DejaVuSans-31" transform="translate(341.894531 0)"/>
      <use xlink:href="#DejaVuSans-29" transform="translate(405.517578 0)"/>
     </g>
    </g>
   </g>
  </g>
  <g id="text_26">
   <!-- Rogers2008 -->
   <g transform="translate(159.8175 26.000781) scale(0.25 -0.25)">
    <defs>
     <path id="DejaVuSans-Bold-52" d="M 2297 2597 
Q 2675 2597 2839 2737 
Q 3003 2878 3003 3200 
Q 3003 3519 2839 3656 
Q 2675 3794 2297 3794 
L 1791 3794 
L 1791 2597 
L 2297 2597 
z
M 1791 1766 
L 1791 0 
L 588 0 
L 588 4666 
L 2425 4666 
Q 3347 4666 3776 4356 
Q 4206 4047 4206 3378 
Q 4206 2916 3982 2619 
Q 3759 2322 3309 2181 
Q 3556 2125 3751 1926 
Q 3947 1728 4147 1325 
L 4800 0 
L 3519 0 
L 2950 1159 
Q 2778 1509 2601 1637 
Q 2425 1766 2131 1766 
L 1791 1766 
z
" transform="scale(0.015625)"/>
     <path id="DejaVuSans-Bold-67" d="M 2919 594 
Q 2688 288 2409 144 
Q 2131 0 1766 0 
Q 1125 0 706 504 
Q 288 1009 288 1791 
Q 288 2575 706 3076 
Q 1125 3578 1766 3578 
Q 2131 3578 2409 3434 
Q 2688 3291 2919 2981 
L 2919 3500 
L 4044 3500 
L 4044 353 
Q 4044 -491 3511 -936 
Q 2978 -1381 1966 -1381 
Q 1638 -1381 1331 -1331 
Q 1025 -1281 716 -1178 
L 716 -306 
Q 1009 -475 1290 -558 
Q 1572 -641 1856 -641 
Q 2406 -641 2662 -400 
Q 2919 -159 2919 353 
L 2919 594 
z
M 2181 2772 
Q 1834 2772 1640 2515 
Q 1447 2259 1447 1791 
Q 1447 1309 1634 1061 
Q 1822 813 2181 813 
Q 2531 813 2725 1069 
Q 2919 1325 2919 1791 
Q 2919 2259 2725 2515 
Q 2531 2772 2181 2772 
z
" transform="scale(0.015625)"/>
     <path id="DejaVuSans-Bold-73" d="M 3272 3391 
L 3272 2541 
Q 2913 2691 2578 2766 
Q 2244 2841 1947 2841 
Q 1628 2841 1473 2761 
Q 1319 2681 1319 2516 
Q 1319 2381 1436 2309 
Q 1553 2238 1856 2203 
L 2053 2175 
Q 2913 2066 3209 1816 
Q 3506 1566 3506 1031 
Q 3506 472 3093 190 
Q 2681 -91 1863 -91 
Q 1516 -91 1145 -36 
Q 775 19 384 128 
L 384 978 
Q 719 816 1070 734 
Q 1422 653 1784 653 
Q 2113 653 2278 743 
Q 2444 834 2444 1013 
Q 2444 1163 2330 1236 
Q 2216 1309 1875 1350 
L 1678 1375 
Q 931 1469 631 1722 
Q 331 1975 331 2491 
Q 331 3047 712 3315 
Q 1094 3584 1881 3584 
Q 2191 3584 2531 3537 
Q 2872 3491 3272 3391 
z
" transform="scale(0.015625)"/>
     <path id="DejaVuSans-Bold-32" d="M 1844 884 
L 3897 884 
L 3897 0 
L 506 0 
L 506 884 
L 2209 2388 
Q 2438 2594 2547 2791 
Q 2656 2988 2656 3200 
Q 2656 3528 2436 3728 
Q 2216 3928 1850 3928 
Q 1569 3928 1234 3808 
Q 900 3688 519 3450 
L 519 4475 
Q 925 4609 1322 4679 
Q 1719 4750 2100 4750 
Q 2938 4750 3402 4381 
Q 3866 4013 3866 3353 
Q 3866 2972 3669 2642 
Q 3472 2313 2841 1759 
L 1844 884 
z
" transform="scale(0.015625)"/>
     <path id="DejaVuSans-Bold-30" d="M 2944 2338 
Q 2944 3213 2780 3570 
Q 2616 3928 2228 3928 
Q 1841 3928 1675 3570 
Q 1509 3213 1509 2338 
Q 1509 1453 1675 1090 
Q 1841 728 2228 728 
Q 2613 728 2778 1090 
Q 2944 1453 2944 2338 
z
M 4147 2328 
Q 4147 1169 3647 539 
Q 3147 -91 2228 -91 
Q 1306 -91 806 539 
Q 306 1169 306 2328 
Q 306 3491 806 4120 
Q 1306 4750 2228 4750 
Q 3147 4750 3647 4120 
Q 4147 3491 4147 2328 
z
" transform="scale(0.015625)"/>
     <path id="DejaVuSans-Bold-38" d="M 2228 2088 
Q 1891 2088 1709 1903 
Q 1528 1719 1528 1375 
Q 1528 1031 1709 848 
Q 1891 666 2228 666 
Q 2563 666 2741 848 
Q 2919 1031 2919 1375 
Q 2919 1722 2741 1905 
Q 2563 2088 2228 2088 
z
M 1350 2484 
Q 925 2613 709 2878 
Q 494 3144 494 3541 
Q 494 4131 934 4440 
Q 1375 4750 2228 4750 
Q 3075 4750 3515 4442 
Q 3956 4134 3956 3541 
Q 3956 3144 3739 2878 
Q 3522 2613 3097 2484 
Q 3572 2353 3814 2058 
Q 4056 1763 4056 1313 
Q 4056 619 3595 264 
Q 3134 -91 2228 -91 
Q 1319 -91 855 264 
Q 391 619 391 1313 
Q 391 1763 633 2058 
Q 875 2353 1350 2484 
z
M 1631 3419 
Q 1631 3141 1786 2991 
Q 1941 2841 2228 2841 
Q 2509 2841 2662 2991 
Q 2816 3141 2816 3419 
Q 2816 3697 2662 3845 
Q 2509 3994 2228 3994 
Q 1941 3994 1786 3844 
Q 1631 3694 1631 3419 
z
" transform="scale(0.015625)"/>
    </defs>
    <use xlink:href="#DejaVuSans-Bold-52"/>
    <use xlink:href="#DejaVuSans-Bold-6f" transform="translate(77.001953 0)"/>
    <use xlink:href="#DejaVuSans-Bold-67" transform="translate(145.703125 0)"/>
    <use xlink:href="#DejaVuSans-Bold-65" transform="translate(217.285156 0)"/>
    <use xlink:href="#DejaVuSans-Bold-72" transform="translate(285.107422 0)"/>
    <use xlink:href="#DejaVuSans-Bold-73" transform="translate(334.423828 0)"/>
    <use xlink:href="#DejaVuSans-Bold-32" transform="translate(393.945312 0)"/>
    <use xlink:href="#DejaVuSans-Bold-30" transform="translate(463.525391 0)"/>
    <use xlink:href="#DejaVuSans-Bold-30" transform="translate(533.105469 0)"/>
    <use xlink:href="#DejaVuSans-Bold-38" transform="translate(602.685547 0)"/>
   </g>
  </g>
 </g>
 <defs>
  <clipPath id="p7b6a9d04eb">
   <rect x="54.84875" y="43.2" width="390.6" height="277.2"/>
  </clipPath>
 </defs>
</svg>
