<?xml version="1.0" encoding="utf-8" standalone="no"?>
<!DOCTYPE svg PUBLIC "-//W3C//DTD SVG 1.1//EN"
  "http://www.w3.org/Graphics/SVG/1.1/DTD/svg11.dtd">
<svg xmlns:xlink="http://www.w3.org/1999/xlink" width="620.2165pt" height="683.737812pt" viewBox="0 0 620.2165 683.737812" xmlns="http://www.w3.org/2000/svg" version="1.1">
 <metadata>
  <rdf:RDF xmlns:dc="http://purl.org/dc/elements/1.1/" xmlns:cc="http://creativecommons.org/ns#" xmlns:rdf="http://www.w3.org/1999/02/22-rdf-syntax-ns#">
   <cc:Work>
    <dc:type rdf:resource="http://purl.org/dc/dcmitype/StillImage"/>
    <dc:date>2025-09-10T11:19:54.990434</dc:date>
    <dc:format>image/svg+xml</dc:format>
    <dc:creator>
     <cc:Agent>
      <dc:title>Matplotlib v3.10.6, https://matplotlib.org/</dc:title>
     </cc:Agent>
    </dc:creator>
   </cc:Work>
  </rdf:RDF>
 </metadata>
 <defs>
  <style type="text/css">*{stroke-linejoin: round; stroke-linecap: butt}</style>
 </defs>
 <g id="figure_1">
  <g id="patch_1">
   <path d="M 0 683.737812 
L 620.2165 683.737812 
L 620.2165 0 
L 0 0 
z
" style="fill: #ffffff"/>
  </g>
  <g id="axes_1">
   <g id="patch_2">
    <path d="M 69.159688 320.243478 
L 459.759688 320.243478 
L 459.759688 79.2 
L 69.159688 79.2 
z
" style="fill: #ffffff"/>
   </g>
   <g id="matplotlib.axis_1">
    <g id="xtick_1">
     <g id="line2d_1">
      <defs>
       <path id="m27e30f0978" d="M 0 0 
L 0 3.5 
" style="stroke: #000000; stroke-width: 0.8"/>
      </defs>
      <g>
       <use xlink:href="#m27e30f0978" x="87.759688" y="320.243478" style="stroke: #000000; stroke-width: 0.8"/>
      </g>
     </g>
     <g id="text_1">
      <!-- 0 -->
      <g transform="translate(82.987813 338.641135) scale(0.15 -0.15)">
       <defs>
        <path id="DejaVuSans-30" d="M 2034 4250 
Q 1547 4250 1301 3770 
Q 1056 3291 1056 2328 
Q 1056 1369 1301 889 
Q 1547 409 2034 409 
Q 2525 409 2770 889 
Q 3016 1369 3016 2328 
Q 3016 3291 2770 3770 
Q 2525 4250 2034 4250 
z
M 2034 4750 
Q 2819 4750 3233 4129 
Q 3647 3509 3647 2328 
Q 3647 1150 3233 529 
Q 2819 -91 2034 -91 
Q 1250 -91 836 529 
Q 422 1150 422 2328 
Q 422 3509 836 4129 
Q 1250 4750 2034 4750 
z
" transform="scale(0.015625)"/>
       </defs>
       <use xlink:href="#DejaVuSans-30"/>
      </g>
     </g>
    </g>
    <g id="xtick_2">
     <g id="line2d_2">
      <g>
       <use xlink:href="#m27e30f0978" x="165.259688" y="320.243478" style="stroke: #000000; stroke-width: 0.8"/>
      </g>
     </g>
     <g id="text_2">
      <!-- 10 -->
      <g transform="translate(155.715938 338.641135) scale(0.15 -0.15)">
       <defs>
        <path id="DejaVuSans-31" d="M 794 531 
L 1825 531 
L 1825 4091 
L 703 3866 
L 703 4441 
L 1819 4666 
L 2450 4666 
L 2450 531 
L 3481 531 
L 3481 0 
L 794 0 
L 794 531 
z
" transform="scale(0.015625)"/>
       </defs>
       <use xlink:href="#DejaVuSans-31"/>
       <use xlink:href="#DejaVuSans-30" transform="translate(63.623047 0)"/>
      </g>
     </g>
    </g>
    <g id="xtick_3">
     <g id="line2d_3">
      <g>
       <use xlink:href="#m27e30f0978" x="242.759688" y="320.243478" style="stroke: #000000; stroke-width: 0.8"/>
      </g>
     </g>
     <g id="text_3">
      <!-- 20 -->
      <g transform="translate(233.215938 338.641135) scale(0.15 -0.15)">
       <defs>
        <path id="DejaVuSans-32" d="M 1228 531 
L 3431 531 
L 3431 0 
L 469 0 
L 469 531 
Q 828 903 1448 1529 
Q 2069 2156 2228 2338 
Q 2531 2678 2651 2914 
Q 2772 3150 2772 3378 
Q 2772 3750 2511 3984 
Q 2250 4219 1831 4219 
Q 1534 4219 1204 4116 
Q 875 4013 500 3803 
L 500 4441 
Q 881 4594 1212 4672 
Q 1544 4750 1819 4750 
Q 2544 4750 2975 4387 
Q 3406 4025 3406 3419 
Q 3406 3131 3298 2873 
Q 3191 2616 2906 2266 
Q 2828 2175 2409 1742 
Q 1991 1309 1228 531 
z
" transform="scale(0.015625)"/>
       </defs>
       <use xlink:href="#DejaVuSans-32"/>
       <use xlink:href="#DejaVuSans-30" transform="translate(63.623047 0)"/>
      </g>
     </g>
    </g>
    <g id="xtick_4">
     <g id="line2d_4">
      <g>
       <use xlink:href="#m27e30f0978" x="320.259688" y="320.243478" style="stroke: #000000; stroke-width: 0.8"/>
      </g>
     </g>
     <g id="text_4">
      <!-- 30 -->
      <g transform="translate(310.715938 338.641135) scale(0.15 -0.15)">
       <defs>
        <path id="DejaVuSans-33" d="M 2597 2516 
Q 3050 2419 3304 2112 
Q 3559 1806 3559 1356 
Q 3559 666 3084 287 
Q 2609 -91 1734 -91 
Q 1441 -91 1130 -33 
Q 819 25 488 141 
L 488 750 
Q 750 597 1062 519 
Q 1375 441 1716 441 
Q 2309 441 2620 675 
Q 2931 909 2931 1356 
Q 2931 1769 2642 2001 
Q 2353 2234 1838 2234 
L 1294 2234 
L 1294 2753 
L 1863 2753 
Q 2328 2753 2575 2939 
Q 2822 3125 2822 3475 
Q 2822 3834 2567 4026 
Q 2313 4219 1838 4219 
Q 1578 4219 1281 4162 
Q 984 4106 628 3988 
L 628 4550 
Q 988 4650 1302 4700 
Q 1616 4750 1894 4750 
Q 2613 4750 3031 4423 
Q 3450 4097 3450 3541 
Q 3450 3153 3228 2886 
Q 3006 2619 2597 2516 
z
" transform="scale(0.015625)"/>
       </defs>
       <use xlink:href="#DejaVuSans-33"/>
       <use xlink:href="#DejaVuSans-30" transform="translate(63.623047 0)"/>
      </g>
     </g>
    </g>
    <g id="xtick_5">
     <g id="line2d_5">
      <g>
       <use xlink:href="#m27e30f0978" x="397.759688" y="320.243478" style="stroke: #000000; stroke-width: 0.8"/>
      </g>
     </g>
     <g id="text_5">
      <!-- 40 -->
      <g transform="translate(388.215938 338.641135) scale(0.15 -0.15)">
       <defs>
        <path id="DejaVuSans-34" d="M 2419 4116 
L 825 1625 
L 2419 1625 
L 2419 4116 
z
M 2253 4666 
L 3047 4666 
L 3047 1625 
L 3713 1625 
L 3713 1100 
L 3047 1100 
L 3047 0 
L 2419 0 
L 2419 1100 
L 313 1100 
L 313 1709 
L 2253 4666 
z
" transform="scale(0.015625)"/>
       </defs>
       <use xlink:href="#DejaVuSans-34"/>
       <use xlink:href="#DejaVuSans-30" transform="translate(63.623047 0)"/>
      </g>
     </g>
    </g>
    <g id="text_6">
     <!-- time [hr] -->
     <g transform="translate(219.385156 359.437853) scale(0.18 -0.18)">
      <defs>
       <path id="DejaVuSans-Bold-74" d="M 1759 4494 
L 1759 3500 
L 2913 3500 
L 2913 2700 
L 1759 2700 
L 1759 1216 
Q 1759 972 1856 886 
Q 1953 800 2241 800 
L 2816 800 
L 2816 0 
L 1856 0 
Q 1194 0 917 276 
Q 641 553 641 1216 
L 641 2700 
L 84 2700 
L 84 3500 
L 641 3500 
L 641 4494 
L 1759 4494 
z
" transform="scale(0.015625)"/>
       <path id="DejaVuSans-Bold-69" d="M 538 3500 
L 1656 3500 
L 1656 0 
L 538 0 
L 538 3500 
z
M 538 4863 
L 1656 4863 
L 1656 3950 
L 538 3950 
L 538 4863 
z
" transform="scale(0.015625)"/>
       <path id="DejaVuSans-Bold-6d" d="M 3781 2919 
Q 3994 3244 4286 3414 
Q 4578 3584 4928 3584 
Q 5531 3584 5847 3212 
Q 6163 2841 6163 2131 
L 6163 0 
L 5038 0 
L 5038 1825 
Q 5041 1866 5042 1909 
Q 5044 1953 5044 2034 
Q 5044 2406 4934 2573 
Q 4825 2741 4581 2741 
Q 4263 2741 4089 2478 
Q 3916 2216 3909 1719 
L 3909 0 
L 2784 0 
L 2784 1825 
Q 2784 2406 2684 2573 
Q 2584 2741 2328 2741 
Q 2006 2741 1831 2477 
Q 1656 2213 1656 1722 
L 1656 0 
L 531 0 
L 531 3500 
L 1656 3500 
L 1656 2988 
Q 1863 3284 2130 3434 
Q 2397 3584 2719 3584 
Q 3081 3584 3359 3409 
Q 3638 3234 3781 2919 
z
" transform="scale(0.015625)"/>
       <path id="DejaVuSans-Bold-65" d="M 4031 1759 
L 4031 1441 
L 1416 1441 
Q 1456 1047 1700 850 
Q 1944 653 2381 653 
Q 2734 653 3104 758 
Q 3475 863 3866 1075 
L 3866 213 
Q 3469 63 3072 -14 
Q 2675 -91 2278 -91 
Q 1328 -91 801 392 
Q 275 875 275 1747 
Q 275 2603 792 3093 
Q 1309 3584 2216 3584 
Q 3041 3584 3536 3087 
Q 4031 2591 4031 1759 
z
M 2881 2131 
Q 2881 2450 2695 2645 
Q 2509 2841 2209 2841 
Q 1884 2841 1681 2658 
Q 1478 2475 1428 2131 
L 2881 2131 
z
" transform="scale(0.015625)"/>
       <path id="DejaVuSans-Bold-20" transform="scale(0.015625)"/>
       <path id="DejaVuSans-Bold-5b" d="M 550 4863 
L 2491 4863 
L 2491 4159 
L 1613 4159 
L 1613 -141 
L 2491 -141 
L 2491 -844 
L 550 -844 
L 550 4863 
z
" transform="scale(0.015625)"/>
       <path id="DejaVuSans-Bold-68" d="M 4056 2131 
L 4056 0 
L 2931 0 
L 2931 347 
L 2931 1625 
Q 2931 2084 2911 2256 
Q 2891 2428 2841 2509 
Q 2775 2619 2662 2680 
Q 2550 2741 2406 2741 
Q 2056 2741 1856 2470 
Q 1656 2200 1656 1722 
L 1656 0 
L 538 0 
L 538 4863 
L 1656 4863 
L 1656 2988 
Q 1909 3294 2193 3439 
Q 2478 3584 2822 3584 
Q 3428 3584 3742 3212 
Q 4056 2841 4056 2131 
z
" transform="scale(0.015625)"/>
       <path id="DejaVuSans-Bold-72" d="M 3138 2547 
Q 2991 2616 2845 2648 
Q 2700 2681 2553 2681 
Q 2122 2681 1889 2404 
Q 1656 2128 1656 1613 
L 1656 0 
L 538 0 
L 538 3500 
L 1656 3500 
L 1656 2925 
Q 1872 3269 2151 3426 
Q 2431 3584 2822 3584 
Q 2878 3584 2943 3579 
Q 3009 3575 3134 3559 
L 3138 2547 
z
" transform="scale(0.015625)"/>
       <path id="DejaVuSans-Bold-5d" d="M 2375 -844 
L 434 -844 
L 434 -141 
L 1313 -141 
L 1313 4159 
L 434 4159 
L 434 4863 
L 2375 4863 
L 2375 -844 
z
" transform="scale(0.015625)"/>
      </defs>
      <use xlink:href="#DejaVuSans-Bold-74"/>
      <use xlink:href="#DejaVuSans-Bold-69" transform="translate(47.802734 0)"/>
      <use xlink:href="#DejaVuSans-Bold-6d" transform="translate(82.080078 0)"/>
      <use xlink:href="#DejaVuSans-Bold-65" transform="translate(186.279297 0)"/>
      <use xlink:href="#DejaVuSans-Bold-20" transform="translate(254.101562 0)"/>
      <use xlink:href="#DejaVuSans-Bold-5b" transform="translate(288.916016 0)"/>
      <use xlink:href="#DejaVuSans-Bold-68" transform="translate(334.619141 0)"/>
      <use xlink:href="#DejaVuSans-Bold-72" transform="translate(405.810547 0)"/>
      <use xlink:href="#DejaVuSans-Bold-5d" transform="translate(455.126953 0)"/>
     </g>
    </g>
   </g>
   <g id="matplotlib.axis_2">
    <g id="ytick_1">
     <g id="line2d_6">
      <defs>
       <path id="mb221726d99" d="M 0 0 
L -3.5 0 
" style="stroke: #000000; stroke-width: 0.8"/>
      </defs>
      <g>
       <use xlink:href="#mb221726d99" x="69.159688" y="309.286957" style="stroke: #000000; stroke-width: 0.8"/>
      </g>
     </g>
     <g id="text_7">
      <!-- 0.00 -->
      <g transform="translate(28.76125 314.985785) scale(0.15 -0.15)">
       <defs>
        <path id="DejaVuSans-2e" d="M 684 794 
L 1344 794 
L 1344 0 
L 684 0 
L 684 794 
z
" transform="scale(0.015625)"/>
       </defs>
       <use xlink:href="#DejaVuSans-30"/>
       <use xlink:href="#DejaVuSans-2e" transform="translate(63.623047 0)"/>
       <use xlink:href="#DejaVuSans-30" transform="translate(95.410156 0)"/>
       <use xlink:href="#DejaVuSans-30" transform="translate(159.033203 0)"/>
      </g>
     </g>
    </g>
    <g id="ytick_2">
     <g id="line2d_7">
      <g>
       <use xlink:href="#mb221726d99" x="69.159688" y="251.420623" style="stroke: #000000; stroke-width: 0.8"/>
      </g>
     </g>
     <g id="text_8">
      <!-- 0.01 -->
      <g transform="translate(28.76125 257.119451) scale(0.15 -0.15)">
       <use xlink:href="#DejaVuSans-30"/>
       <use xlink:href="#DejaVuSans-2e" transform="translate(63.623047 0)"/>
       <use xlink:href="#DejaVuSans-30" transform="translate(95.410156 0)"/>
       <use xlink:href="#DejaVuSans-31" transform="translate(159.033203 0)"/>
      </g>
     </g>
    </g>
    <g id="ytick_3">
     <g id="line2d_8">
      <g>
       <use xlink:href="#mb221726d99" x="69.159688" y="193.554289" style="stroke: #000000; stroke-width: 0.8"/>
      </g>
     </g>
     <g id="text_9">
      <!-- 0.02 -->
      <g transform="translate(28.76125 199.253117) scale(0.15 -0.15)">
       <use xlink:href="#DejaVuSans-30"/>
       <use xlink:href="#DejaVuSans-2e" transform="translate(63.623047 0)"/>
       <use xlink:href="#DejaVuSans-30" transform="translate(95.410156 0)"/>
       <use xlink:href="#DejaVuSans-32" transform="translate(159.033203 0)"/>
      </g>
     </g>
    </g>
    <g id="ytick_4">
     <g id="line2d_9">
      <g>
       <use xlink:href="#mb221726d99" x="69.159688" y="135.687956" style="stroke: #000000; stroke-width: 0.8"/>
      </g>
     </g>
     <g id="text_10">
      <!-- 0.03 -->
      <g transform="translate(28.76125 141.386784) scale(0.15 -0.15)">
       <use xlink:href="#DejaVuSans-30"/>
       <use xlink:href="#DejaVuSans-2e" transform="translate(63.623047 0)"/>
       <use xlink:href="#DejaVuSans-30" transform="translate(95.410156 0)"/>
       <use xlink:href="#DejaVuSans-33" transform="translate(159.033203 0)"/>
      </g>
     </g>
    </g>
    <g id="text_11">
     <!-- rapamycin [µM] -->
     <g transform="translate(20.877188 279.759864) rotate(-90) scale(0.18 -0.18)">
      <defs>
       <path id="DejaVuSans-Bold-61" d="M 2106 1575 
Q 1756 1575 1579 1456 
Q 1403 1338 1403 1106 
Q 1403 894 1545 773 
Q 1688 653 1941 653 
Q 2256 653 2472 879 
Q 2688 1106 2688 1447 
L 2688 1575 
L 2106 1575 
z
M 3816 1997 
L 3816 0 
L 2688 0 
L 2688 519 
Q 2463 200 2181 54 
Q 1900 -91 1497 -91 
Q 953 -91 614 226 
Q 275 544 275 1050 
Q 275 1666 698 1953 
Q 1122 2241 2028 2241 
L 2688 2241 
L 2688 2328 
Q 2688 2594 2478 2717 
Q 2269 2841 1825 2841 
Q 1466 2841 1156 2769 
Q 847 2697 581 2553 
L 581 3406 
Q 941 3494 1303 3539 
Q 1666 3584 2028 3584 
Q 2975 3584 3395 3211 
Q 3816 2838 3816 1997 
z
" transform="scale(0.015625)"/>
       <path id="DejaVuSans-Bold-70" d="M 1656 506 
L 1656 -1331 
L 538 -1331 
L 538 3500 
L 1656 3500 
L 1656 2988 
Q 1888 3294 2169 3439 
Q 2450 3584 2816 3584 
Q 3463 3584 3878 3070 
Q 4294 2556 4294 1747 
Q 4294 938 3878 423 
Q 3463 -91 2816 -91 
Q 2450 -91 2169 54 
Q 1888 200 1656 506 
z
M 2400 2772 
Q 2041 2772 1848 2508 
Q 1656 2244 1656 1747 
Q 1656 1250 1848 986 
Q 2041 722 2400 722 
Q 2759 722 2948 984 
Q 3138 1247 3138 1747 
Q 3138 2247 2948 2509 
Q 2759 2772 2400 2772 
z
" transform="scale(0.015625)"/>
       <path id="DejaVuSans-Bold-79" d="M 78 3500 
L 1197 3500 
L 2138 1125 
L 2938 3500 
L 4056 3500 
L 2584 -331 
Q 2363 -916 2067 -1148 
Q 1772 -1381 1288 -1381 
L 641 -1381 
L 641 -647 
L 991 -647 
Q 1275 -647 1404 -556 
Q 1534 -466 1606 -231 
L 1638 -134 
L 78 3500 
z
" transform="scale(0.015625)"/>
       <path id="DejaVuSans-Bold-63" d="M 3366 3391 
L 3366 2478 
Q 3138 2634 2908 2709 
Q 2678 2784 2431 2784 
Q 1963 2784 1702 2511 
Q 1441 2238 1441 1747 
Q 1441 1256 1702 982 
Q 1963 709 2431 709 
Q 2694 709 2930 787 
Q 3166 866 3366 1019 
L 3366 103 
Q 3103 6 2833 -42 
Q 2563 -91 2291 -91 
Q 1344 -91 809 395 
Q 275 881 275 1747 
Q 275 2613 809 3098 
Q 1344 3584 2291 3584 
Q 2566 3584 2833 3536 
Q 3100 3488 3366 3391 
z
" transform="scale(0.015625)"/>
       <path id="DejaVuSans-Bold-6e" d="M 4056 2131 
L 4056 0 
L 2931 0 
L 2931 347 
L 2931 1631 
Q 2931 2084 2911 2256 
Q 2891 2428 2841 2509 
Q 2775 2619 2662 2680 
Q 2550 2741 2406 2741 
Q 2056 2741 1856 2470 
Q 1656 2200 1656 1722 
L 1656 0 
L 538 0 
L 538 3500 
L 1656 3500 
L 1656 2988 
Q 1909 3294 2193 3439 
Q 2478 3584 2822 3584 
Q 3428 3584 3742 3212 
Q 4056 2841 4056 2131 
z
" transform="scale(0.015625)"/>
       <path id="DejaVuSans-Bold-b5" d="M 544 -1338 
L 544 3500 
L 1672 3500 
L 1672 1466 
Q 1672 1103 1828 926 
Q 1984 750 2303 750 
Q 2625 750 2781 926 
Q 2938 1103 2938 1466 
L 2938 3500 
L 4063 3500 
L 4063 1159 
Q 4063 938 4114 850 
Q 4166 763 4288 763 
Q 4344 763 4395 778 
Q 4447 794 4506 831 
L 4506 50 
Q 4341 -22 4195 -56 
Q 4050 -91 3909 -91 
Q 3631 -91 3454 26 
Q 3278 144 3169 403 
Q 3022 156 2811 32 
Q 2600 -91 2322 -91 
Q 2091 -91 1928 -17 
Q 1766 56 1672 206 
L 1672 -1338 
L 544 -1338 
z
" transform="scale(0.015625)"/>
       <path id="DejaVuSans-Bold-4d" d="M 588 4666 
L 2119 4666 
L 3181 2169 
L 4250 4666 
L 5778 4666 
L 5778 0 
L 4641 0 
L 4641 3413 
L 3566 897 
L 2803 897 
L 1728 3413 
L 1728 0 
L 588 0 
L 588 4666 
z
" transform="scale(0.015625)"/>
      </defs>
      <use xlink:href="#DejaVuSans-Bold-72"/>
      <use xlink:href="#DejaVuSans-Bold-61" transform="translate(49.316406 0)"/>
      <use xlink:href="#DejaVuSans-Bold-70" transform="translate(116.796875 0)"/>
      <use xlink:href="#DejaVuSans-Bold-61" transform="translate(188.378906 0)"/>
      <use xlink:href="#DejaVuSans-Bold-6d" transform="translate(255.859375 0)"/>
      <use xlink:href="#DejaVuSans-Bold-79" transform="translate(360.058594 0)"/>
      <use xlink:href="#DejaVuSans-Bold-63" transform="translate(425.244141 0)"/>
      <use xlink:href="#DejaVuSans-Bold-69" transform="translate(484.521484 0)"/>
      <use xlink:href="#DejaVuSans-Bold-6e" transform="translate(518.798828 0)"/>
      <use xlink:href="#DejaVuSans-Bold-20" transform="translate(589.990234 0)"/>
      <use xlink:href="#DejaVuSans-Bold-5b" transform="translate(624.804688 0)"/>
      <use xlink:href="#DejaVuSans-Bold-b5" transform="translate(670.507812 0)"/>
      <use xlink:href="#DejaVuSans-Bold-4d" transform="translate(744.091797 0)"/>
      <use xlink:href="#DejaVuSans-Bold-5d" transform="translate(843.603516 0)"/>
     </g>
    </g>
   </g>
   <g id="LineCollection_1">
    <path d="M 87.759688 294.742484 
L 87.759688 257.869174 
" clip-path="url(#p69d9fe432d)" style="fill: none; stroke: #1f77b4"/>
    <path d="M 91.634688 282.109961 
L 91.634688 234.994065 
" clip-path="url(#p69d9fe432d)" style="fill: none; stroke: #1f77b4"/>
    <path d="M 95.509688 269.477439 
L 95.509688 201.193531 
" clip-path="url(#p69d9fe432d)" style="fill: none; stroke: #1f77b4"/>
    <path d="M 103.259688 274.257312 
L 103.259688 195.730819 
" clip-path="url(#p69d9fe432d)" style="fill: none; stroke: #1f77b4"/>
    <path d="M 111.009688 277.330088 
L 111.009688 214.508893 
" clip-path="url(#p69d9fe432d)" style="fill: none; stroke: #1f77b4"/>
    <path d="M 118.759688 280.061444 
L 118.759688 219.971606 
" clip-path="url(#p69d9fe432d)" style="fill: none; stroke: #1f77b4"/>
    <path d="M 134.259688 285.524157 
L 134.259688 230.214192 
" clip-path="url(#p69d9fe432d)" style="fill: none; stroke: #1f77b4"/>
    <path d="M 149.759688 289.621191 
L 149.759688 231.57987 
" clip-path="url(#p69d9fe432d)" style="fill: none; stroke: #1f77b4"/>
    <path d="M 157.509688 286.548415 
L 157.509688 237.384002 
" clip-path="url(#p69d9fe432d)" style="fill: none; stroke: #1f77b4"/>
    <path d="M 165.259688 290.30403 
L 165.259688 239.0911 
" clip-path="url(#p69d9fe432d)" style="fill: none; stroke: #1f77b4"/>
    <path d="M 173.009688 291.669708 
L 173.009688 233.628387 
" clip-path="url(#p69d9fe432d)" style="fill: none; stroke: #1f77b4"/>
    <path d="M 180.759688 291.669708 
L 180.759688 245.236651 
" clip-path="url(#p69d9fe432d)" style="fill: none; stroke: #1f77b4"/>
    <path d="M 273.759688 296.791001 
L 273.759688 255.137818 
" clip-path="url(#p69d9fe432d)" style="fill: none; stroke: #1f77b4"/>
   </g>
   <g id="LineCollection_2">
    <path d="M 87.759688 299.180938 
L 87.759688 268.45318 
" clip-path="url(#p69d9fe432d)" style="fill: none; stroke: #d62728"/>
    <path d="M 91.634688 300.546616 
L 91.634688 247.285169 
" clip-path="url(#p69d9fe432d)" style="fill: none; stroke: #d62728"/>
    <path d="M 95.509688 291.328289 
L 95.509688 228.507094 
" clip-path="url(#p69d9fe432d)" style="fill: none; stroke: #d62728"/>
    <path d="M 103.259688 290.986869 
L 103.259688 224.06864 
" clip-path="url(#p69d9fe432d)" style="fill: none; stroke: #d62728"/>
    <path d="M 111.009688 298.498099 
L 111.009688 218.605928 
" clip-path="url(#p69d9fe432d)" style="fill: none; stroke: #d62728"/>
    <path d="M 118.759688 296.791001 
L 118.759688 227.141416 
" clip-path="url(#p69d9fe432d)" style="fill: none; stroke: #d62728"/>
    <path d="M 134.259688 299.180938 
L 134.259688 238.408261 
" clip-path="url(#p69d9fe432d)" style="fill: none; stroke: #d62728"/>
    <path d="M 149.759688 299.180938 
L 149.759688 245.91949 
" clip-path="url(#p69d9fe432d)" style="fill: none; stroke: #d62728"/>
    <path d="M 157.509688 300.205197 
L 157.509688 240.798197 
" clip-path="url(#p69d9fe432d)" style="fill: none; stroke: #d62728"/>
    <path d="M 165.259688 299.180938 
L 165.259688 251.382203 
" clip-path="url(#p69d9fe432d)" style="fill: none; stroke: #d62728"/>
    <path d="M 173.009688 296.449582 
L 173.009688 267.770341 
" clip-path="url(#p69d9fe432d)" style="fill: none; stroke: #d62728"/>
    <path d="M 180.759688 300.888036 
L 180.759688 280.402864 
" clip-path="url(#p69d9fe432d)" style="fill: none; stroke: #d62728"/>
    <path d="M 273.759688 302.253714 
L 273.759688 283.817059 
" clip-path="url(#p69d9fe432d)" style="fill: none; stroke: #d62728"/>
   </g>
   <g id="line2d_10">
    <path d="M 87.759688 309.286957 
L 87.945688 308.302038 
L 88.131688 301.647704 
L 88.503688 271.865672 
L 89.805688 150.665658 
L 90.363688 118.276945 
L 90.921688 99.095718 
L 91.293688 92.572017 
L 91.665688 90.156522 
L 91.851688 90.248235 
L 92.037688 91.083999 
L 92.409688 94.648579 
L 92.967688 103.59686 
L 93.897688 124.086017 
L 96.501688 185.344271 
L 97.617688 206.301282 
L 98.733688 223.240241 
L 99.849688 236.577084 
L 100.779688 245.366116 
L 101.709688 252.412051 
L 102.639688 258.029915 
L 103.569688 262.491883 
L 104.499688 266.026054 
L 105.429688 268.819861 
L 106.359688 271.025308 
L 107.475688 273.065424 
L 108.591688 274.598148 
L 109.707688 275.748893 
L 111.009688 276.733779 
L 112.311688 277.438074 
L 113.799688 278.000693 
L 115.659688 278.45898 
L 118.077688 278.804361 
L 121.425688 279.035016 
L 127.005688 279.163248 
L 141.885688 279.202208 
L 459.759688 279.203064 
L 459.759688 279.203064 
" clip-path="url(#p69d9fe432d)" style="fill: none; stroke: #1f77b4; stroke-width: 2; stroke-linecap: square"/>
   </g>
   <g id="line2d_11">
    <path d="M 87.759688 276.305829 
L 91.634688 258.552013 
L 95.509688 235.335485 
L 103.259688 234.994065 
L 111.009688 245.91949 
L 118.759688 250.016525 
L 134.259688 257.869174 
L 149.759688 260.600531 
L 157.509688 261.966209 
L 165.259688 264.697565 
L 173.009688 262.649048 
L 180.759688 268.45318 
L 273.759688 275.96441 
" clip-path="url(#p69d9fe432d)" style="fill: none; stroke-dasharray: 3.7,1.6; stroke-dashoffset: 0; stroke: #1f77b4"/>
    <defs>
     <path id="mf5e337464d" d="M -3 3 
L 3 3 
L 3 -3 
L -3 -3 
z
" style="stroke: #000000; stroke-linejoin: miter"/>
    </defs>
    <g clip-path="url(#p69d9fe432d)">
     <use xlink:href="#mf5e337464d" x="87.759688" y="276.305829" style="fill: #1f77b4; stroke: #000000; stroke-linejoin: miter"/>
     <use xlink:href="#mf5e337464d" x="91.634688" y="258.552013" style="fill: #1f77b4; stroke: #000000; stroke-linejoin: miter"/>
     <use xlink:href="#mf5e337464d" x="95.509688" y="235.335485" style="fill: #1f77b4; stroke: #000000; stroke-linejoin: miter"/>
     <use xlink:href="#mf5e337464d" x="103.259688" y="234.994065" style="fill: #1f77b4; stroke: #000000; stroke-linejoin: miter"/>
     <use xlink:href="#mf5e337464d" x="111.009688" y="245.91949" style="fill: #1f77b4; stroke: #000000; stroke-linejoin: miter"/>
     <use xlink:href="#mf5e337464d" x="118.759688" y="250.016525" style="fill: #1f77b4; stroke: #000000; stroke-linejoin: miter"/>
     <use xlink:href="#mf5e337464d" x="134.259688" y="257.869174" style="fill: #1f77b4; stroke: #000000; stroke-linejoin: miter"/>
     <use xlink:href="#mf5e337464d" x="149.759688" y="260.600531" style="fill: #1f77b4; stroke: #000000; stroke-linejoin: miter"/>
     <use xlink:href="#mf5e337464d" x="157.509688" y="261.966209" style="fill: #1f77b4; stroke: #000000; stroke-linejoin: miter"/>
     <use xlink:href="#mf5e337464d" x="165.259688" y="264.697565" style="fill: #1f77b4; stroke: #000000; stroke-linejoin: miter"/>
     <use xlink:href="#mf5e337464d" x="173.009688" y="262.649048" style="fill: #1f77b4; stroke: #000000; stroke-linejoin: miter"/>
     <use xlink:href="#mf5e337464d" x="180.759688" y="268.45318" style="fill: #1f77b4; stroke: #000000; stroke-linejoin: miter"/>
     <use xlink:href="#mf5e337464d" x="273.759688" y="275.96441" style="fill: #1f77b4; stroke: #000000; stroke-linejoin: miter"/>
    </g>
   </g>
   <g id="line2d_12">
    <path d="M 87.759688 309.286957 
L 87.945688 308.306916 
L 88.131688 301.71833 
L 88.503688 272.448166 
L 89.805688 154.938678 
L 90.363688 123.995534 
L 90.921688 105.921526 
L 91.293688 99.935128 
L 91.479688 98.473212 
L 91.665688 97.903935 
L 91.851688 98.134567 
L 92.037688 99.076447 
L 92.409688 102.763671 
L 92.967688 111.705885 
L 93.897688 131.821254 
L 96.501688 191.129741 
L 97.617688 211.276486 
L 98.733688 227.524164 
L 99.849688 240.297491 
L 100.779688 248.707518 
L 101.709688 255.446298 
L 102.639688 260.818024 
L 103.569688 265.084531 
L 104.499688 268.464686 
L 105.429688 271.138007 
L 106.359688 273.249883 
L 107.475688 275.205673 
L 108.591688 276.677602 
L 109.707688 277.785349 
L 111.009688 278.736784 
L 112.311688 279.42077 
L 113.985688 280.027057 
L 116.031688 280.495077 
L 118.635688 280.835799 
L 122.355688 281.075264 
L 129.051688 281.244348 
L 152.487688 281.494702 
L 408.981688 283.872499 
L 459.759688 284.318558 
L 459.759688 284.318558 
" clip-path="url(#p69d9fe432d)" style="fill: none; stroke: #d62728; stroke-width: 2; stroke-linecap: square"/>
   </g>
   <g id="line2d_13">
    <path d="M 87.759688 283.817059 
L 91.634688 273.915892 
L 95.509688 259.917691 
L 103.259688 257.527755 
L 111.009688 258.552013 
L 118.759688 261.966209 
L 134.259688 268.794599 
L 149.759688 272.550214 
L 157.509688 270.501697 
L 165.259688 275.281571 
L 173.009688 282.109961 
L 180.759688 290.64545 
L 273.759688 293.035387 
" clip-path="url(#p69d9fe432d)" style="fill: none; stroke-dasharray: 3.7,1.6; stroke-dashoffset: 0; stroke: #d62728"/>
    <defs>
     <path id="mb3968e6576" d="M -3 3 
L 3 3 
L 3 -3 
L -3 -3 
z
" style="stroke: #000000; stroke-linejoin: miter"/>
    </defs>
    <g clip-path="url(#p69d9fe432d)">
     <use xlink:href="#mb3968e6576" x="87.759688" y="283.817059" style="fill: #d62728; stroke: #000000; stroke-linejoin: miter"/>
     <use xlink:href="#mb3968e6576" x="91.634688" y="273.915892" style="fill: #d62728; stroke: #000000; stroke-linejoin: miter"/>
     <use xlink:href="#mb3968e6576" x="95.509688" y="259.917691" style="fill: #d62728; stroke: #000000; stroke-linejoin: miter"/>
     <use xlink:href="#mb3968e6576" x="103.259688" y="257.527755" style="fill: #d62728; stroke: #000000; stroke-linejoin: miter"/>
     <use xlink:href="#mb3968e6576" x="111.009688" y="258.552013" style="fill: #d62728; stroke: #000000; stroke-linejoin: miter"/>
     <use xlink:href="#mb3968e6576" x="118.759688" y="261.966209" style="fill: #d62728; stroke: #000000; stroke-linejoin: miter"/>
     <use xlink:href="#mb3968e6576" x="134.259688" y="268.794599" style="fill: #d62728; stroke: #000000; stroke-linejoin: miter"/>
     <use xlink:href="#mb3968e6576" x="149.759688" y="272.550214" style="fill: #d62728; stroke: #000000; stroke-linejoin: miter"/>
     <use xlink:href="#mb3968e6576" x="157.509688" y="270.501697" style="fill: #d62728; stroke: #000000; stroke-linejoin: miter"/>
     <use xlink:href="#mb3968e6576" x="165.259688" y="275.281571" style="fill: #d62728; stroke: #000000; stroke-linejoin: miter"/>
     <use xlink:href="#mb3968e6576" x="173.009688" y="282.109961" style="fill: #d62728; stroke: #000000; stroke-linejoin: miter"/>
     <use xlink:href="#mb3968e6576" x="180.759688" y="290.64545" style="fill: #d62728; stroke: #000000; stroke-linejoin: miter"/>
     <use xlink:href="#mb3968e6576" x="273.759688" y="293.035387" style="fill: #d62728; stroke: #000000; stroke-linejoin: miter"/>
    </g>
   </g>
   <g id="patch_3">
    <path d="M 69.159688 320.243478 
L 69.159688 79.2 
" style="fill: none; stroke: #000000; stroke-width: 0.8; stroke-linejoin: miter; stroke-linecap: square"/>
   </g>
   <g id="patch_4">
    <path d="M 459.759688 320.243478 
L 459.759688 79.2 
" style="fill: none; stroke: #000000; stroke-width: 0.8; stroke-linejoin: miter; stroke-linecap: square"/>
   </g>
   <g id="patch_5">
    <path d="M 69.159688 320.243478 
L 459.759688 320.243478 
" style="fill: none; stroke: #000000; stroke-width: 0.8; stroke-linejoin: miter; stroke-linecap: square"/>
   </g>
   <g id="patch_6">
    <path d="M 69.159688 79.2 
L 459.759688 79.2 
" style="fill: none; stroke: #000000; stroke-width: 0.8; stroke-linejoin: miter; stroke-linecap: square"/>
   </g>
   <g id="legend_1">
    <g id="patch_7">
     <path d="M 482.383688 147.025 
L 611.0165 147.025 
Q 613.0165 147.025 613.0165 145.025 
L 613.0165 86.2 
Q 613.0165 84.2 611.0165 84.2 
L 482.383688 84.2 
Q 480.383688 84.2 480.383688 86.2 
L 480.383688 145.025 
Q 480.383688 147.025 482.383688 147.025 
z
" style="fill: #ffffff; opacity: 0.8; stroke: #cccccc; stroke-linejoin: miter"/>
    </g>
    <g id="line2d_14">
     <path d="M 484.383688 92.298437 
L 504.383688 92.298437 
" style="fill: none; stroke: #1f77b4; stroke-width: 2; stroke-linecap: square"/>
    </g>
    <g id="line2d_15"/>
    <g id="text_12">
     <!-- RAP_3_3 -->
     <g transform="translate(512.383688 95.798437) scale(0.1 -0.1)">
      <defs>
       <path id="DejaVuSans-52" d="M 2841 2188 
Q 3044 2119 3236 1894 
Q 3428 1669 3622 1275 
L 4263 0 
L 3584 0 
L 2988 1197 
Q 2756 1666 2539 1819 
Q 2322 1972 1947 1972 
L 1259 1972 
L 1259 0 
L 628 0 
L 628 4666 
L 2053 4666 
Q 2853 4666 3247 4331 
Q 3641 3997 3641 3322 
Q 3641 2881 3436 2590 
Q 3231 2300 2841 2188 
z
M 1259 4147 
L 1259 2491 
L 2053 2491 
Q 2509 2491 2742 2702 
Q 2975 2913 2975 3322 
Q 2975 3731 2742 3939 
Q 2509 4147 2053 4147 
L 1259 4147 
z
" transform="scale(0.015625)"/>
       <path id="DejaVuSans-41" d="M 2188 4044 
L 1331 1722 
L 3047 1722 
L 2188 4044 
z
M 1831 4666 
L 2547 4666 
L 4325 0 
L 3669 0 
L 3244 1197 
L 1141 1197 
L 716 0 
L 50 0 
L 1831 4666 
z
" transform="scale(0.015625)"/>
       <path id="DejaVuSans-50" d="M 1259 4147 
L 1259 2394 
L 2053 2394 
Q 2494 2394 2734 2622 
Q 2975 2850 2975 3272 
Q 2975 3691 2734 3919 
Q 2494 4147 2053 4147 
L 1259 4147 
z
M 628 4666 
L 2053 4666 
Q 2838 4666 3239 4311 
Q 3641 3956 3641 3272 
Q 3641 2581 3239 2228 
Q 2838 1875 2053 1875 
L 1259 1875 
L 1259 0 
L 628 0 
L 628 4666 
z
" transform="scale(0.015625)"/>
       <path id="DejaVuSans-5f" d="M 3263 -1063 
L 3263 -1509 
L -63 -1509 
L -63 -1063 
L 3263 -1063 
z
" transform="scale(0.015625)"/>
      </defs>
      <use xlink:href="#DejaVuSans-52"/>
      <use xlink:href="#DejaVuSans-41" transform="translate(65.482422 0)"/>
      <use xlink:href="#DejaVuSans-50" transform="translate(133.890625 0)"/>
      <use xlink:href="#DejaVuSans-5f" transform="translate(194.193359 0)"/>
      <use xlink:href="#DejaVuSans-33" transform="translate(244.193359 0)"/>
      <use xlink:href="#DejaVuSans-5f" transform="translate(307.816406 0)"/>
      <use xlink:href="#DejaVuSans-33" transform="translate(357.816406 0)"/>
     </g>
    </g>
    <g id="LineCollection_3">
     <path d="M 494.383688 112.254687 
L 494.383688 102.254687 
" style="fill: none; stroke: #1f77b4"/>
    </g>
    <g id="line2d_16">
     <path d="M 484.383688 107.254687 
L 504.383688 107.254687 
" style="fill: none; stroke-dasharray: 3.7,1.6; stroke-dashoffset: 0; stroke: #1f77b4"/>
    </g>
    <g id="line2d_17">
     <g>
      <use xlink:href="#mf5e337464d" x="494.383688" y="107.254687" style="fill: #1f77b4; stroke: #000000; stroke-linejoin: miter"/>
     </g>
    </g>
    <g id="text_13">
     <!-- RAP_3_3±SD (n=7) -->
     <g transform="translate(512.383688 110.754687) scale(0.1 -0.1)">
      <defs>
       <path id="DejaVuSans-b1" d="M 2944 4013 
L 2944 2803 
L 4684 2803 
L 4684 2272 
L 2944 2272 
L 2944 1063 
L 2419 1063 
L 2419 2272 
L 678 2272 
L 678 2803 
L 2419 2803 
L 2419 4013 
L 2944 4013 
z
M 678 531 
L 4684 531 
L 4684 0 
L 678 0 
L 678 531 
z
" transform="scale(0.015625)"/>
       <path id="DejaVuSans-53" d="M 3425 4513 
L 3425 3897 
Q 3066 4069 2747 4153 
Q 2428 4238 2131 4238 
Q 1616 4238 1336 4038 
Q 1056 3838 1056 3469 
Q 1056 3159 1242 3001 
Q 1428 2844 1947 2747 
L 2328 2669 
Q 3034 2534 3370 2195 
Q 3706 1856 3706 1288 
Q 3706 609 3251 259 
Q 2797 -91 1919 -91 
Q 1588 -91 1214 -16 
Q 841 59 441 206 
L 441 856 
Q 825 641 1194 531 
Q 1563 422 1919 422 
Q 2459 422 2753 634 
Q 3047 847 3047 1241 
Q 3047 1584 2836 1778 
Q 2625 1972 2144 2069 
L 1759 2144 
Q 1053 2284 737 2584 
Q 422 2884 422 3419 
Q 422 4038 858 4394 
Q 1294 4750 2059 4750 
Q 2388 4750 2728 4690 
Q 3069 4631 3425 4513 
z
" transform="scale(0.015625)"/>
       <path id="DejaVuSans-44" d="M 1259 4147 
L 1259 519 
L 2022 519 
Q 2988 519 3436 956 
Q 3884 1394 3884 2338 
Q 3884 3275 3436 3711 
Q 2988 4147 2022 4147 
L 1259 4147 
z
M 628 4666 
L 1925 4666 
Q 3281 4666 3915 4102 
Q 4550 3538 4550 2338 
Q 4550 1131 3912 565 
Q 3275 0 1925 0 
L 628 0 
L 628 4666 
z
" transform="scale(0.015625)"/>
       <path id="DejaVuSans-20" transform="scale(0.015625)"/>
       <path id="DejaVuSans-28" d="M 1984 4856 
Q 1566 4138 1362 3434 
Q 1159 2731 1159 2009 
Q 1159 1288 1364 580 
Q 1569 -128 1984 -844 
L 1484 -844 
Q 1016 -109 783 600 
Q 550 1309 550 2009 
Q 550 2706 781 3412 
Q 1013 4119 1484 4856 
L 1984 4856 
z
" transform="scale(0.015625)"/>
       <path id="DejaVuSans-6e" d="M 3513 2113 
L 3513 0 
L 2938 0 
L 2938 2094 
Q 2938 2591 2744 2837 
Q 2550 3084 2163 3084 
Q 1697 3084 1428 2787 
Q 1159 2491 1159 1978 
L 1159 0 
L 581 0 
L 581 3500 
L 1159 3500 
L 1159 2956 
Q 1366 3272 1645 3428 
Q 1925 3584 2291 3584 
Q 2894 3584 3203 3211 
Q 3513 2838 3513 2113 
z
" transform="scale(0.015625)"/>
       <path id="DejaVuSans-3d" d="M 678 2906 
L 4684 2906 
L 4684 2381 
L 678 2381 
L 678 2906 
z
M 678 1631 
L 4684 1631 
L 4684 1100 
L 678 1100 
L 678 1631 
z
" transform="scale(0.015625)"/>
       <path id="DejaVuSans-37" d="M 525 4666 
L 3525 4666 
L 3525 4397 
L 1831 0 
L 1172 0 
L 2766 4134 
L 525 4134 
L 525 4666 
z
" transform="scale(0.015625)"/>
       <path id="DejaVuSans-29" d="M 513 4856 
L 1013 4856 
Q 1481 4119 1714 3412 
Q 1947 2706 1947 2009 
Q 1947 1309 1714 600 
Q 1481 -109 1013 -844 
L 513 -844 
Q 928 -128 1133 580 
Q 1338 1288 1338 2009 
Q 1338 2731 1133 3434 
Q 928 4138 513 4856 
z
" transform="scale(0.015625)"/>
      </defs>
      <use xlink:href="#DejaVuSans-52"/>
      <use xlink:href="#DejaVuSans-41" transform="translate(65.482422 0)"/>
      <use xlink:href="#DejaVuSans-50" transform="translate(133.890625 0)"/>
      <use xlink:href="#DejaVuSans-5f" transform="translate(194.193359 0)"/>
      <use xlink:href="#DejaVuSans-33" transform="translate(244.193359 0)"/>
      <use xlink:href="#DejaVuSans-5f" transform="translate(307.816406 0)"/>
      <use xlink:href="#DejaVuSans-33" transform="translate(357.816406 0)"/>
      <use xlink:href="#DejaVuSans-b1" transform="translate(421.439453 0)"/>
      <use xlink:href="#DejaVuSans-53" transform="translate(505.228516 0)"/>
      <use xlink:href="#DejaVuSans-44" transform="translate(568.705078 0)"/>
      <use xlink:href="#DejaVuSans-20" transform="translate(645.707031 0)"/>
      <use xlink:href="#DejaVuSans-28" transform="translate(677.494141 0)"/>
      <use xlink:href="#DejaVuSans-6e" transform="translate(716.507812 0)"/>
      <use xlink:href="#DejaVuSans-3d" transform="translate(779.886719 0)"/>
      <use xlink:href="#DejaVuSans-37" transform="translate(863.675781 0)"/>
      <use xlink:href="#DejaVuSans-29" transform="translate(927.298828 0)"/>
     </g>
    </g>
    <g id="line2d_18">
     <path d="M 484.383688 122.210938 
L 504.383688 122.210938 
" style="fill: none; stroke: #d62728; stroke-width: 2; stroke-linecap: square"/>
    </g>
    <g id="line2d_19"/>
    <g id="text_14">
     <!-- RAP_1_3 -->
     <g transform="translate(512.383688 125.710938) scale(0.1 -0.1)">
      <use xlink:href="#DejaVuSans-52"/>
      <use xlink:href="#DejaVuSans-41" transform="translate(65.482422 0)"/>
      <use xlink:href="#DejaVuSans-50" transform="translate(133.890625 0)"/>
      <use xlink:href="#DejaVuSans-5f" transform="translate(194.193359 0)"/>
      <use xlink:href="#DejaVuSans-31" transform="translate(244.193359 0)"/>
      <use xlink:href="#DejaVuSans-5f" transform="translate(307.816406 0)"/>
      <use xlink:href="#DejaVuSans-33" transform="translate(357.816406 0)"/>
     </g>
    </g>
    <g id="LineCollection_4">
     <path d="M 494.383688 142.167187 
L 494.383688 132.167187 
" style="fill: none; stroke: #d62728"/>
    </g>
    <g id="line2d_20">
     <path d="M 484.383688 137.167187 
L 504.383688 137.167187 
" style="fill: none; stroke-dasharray: 3.7,1.6; stroke-dashoffset: 0; stroke: #d62728"/>
    </g>
    <g id="line2d_21">
     <g>
      <use xlink:href="#mb3968e6576" x="494.383688" y="137.167187" style="fill: #d62728; stroke: #000000; stroke-linejoin: miter"/>
     </g>
    </g>
    <g id="text_15">
     <!-- RAP_1_3±SD (n=3) -->
     <g transform="translate(512.383688 140.667187) scale(0.1 -0.1)">
      <use xlink:href="#DejaVuSans-52"/>
      <use xlink:href="#DejaVuSans-41" transform="translate(65.482422 0)"/>
      <use xlink:href="#DejaVuSans-50" transform="translate(133.890625 0)"/>
      <use xlink:href="#DejaVuSans-5f" transform="translate(194.193359 0)"/>
      <use xlink:href="#DejaVuSans-31" transform="translate(244.193359 0)"/>
      <use xlink:href="#DejaVuSans-5f" transform="translate(307.816406 0)"/>
      <use xlink:href="#DejaVuSans-33" transform="translate(357.816406 0)"/>
      <use xlink:href="#DejaVuSans-b1" transform="translate(421.439453 0)"/>
      <use xlink:href="#DejaVuSans-53" transform="translate(505.228516 0)"/>
      <use xlink:href="#DejaVuSans-44" transform="translate(568.705078 0)"/>
      <use xlink:href="#DejaVuSans-20" transform="translate(645.707031 0)"/>
      <use xlink:href="#DejaVuSans-28" transform="translate(677.494141 0)"/>
      <use xlink:href="#DejaVuSans-6e" transform="translate(716.507812 0)"/>
      <use xlink:href="#DejaVuSans-3d" transform="translate(779.886719 0)"/>
      <use xlink:href="#DejaVuSans-33" transform="translate(863.675781 0)"/>
      <use xlink:href="#DejaVuSans-29" transform="translate(927.298828 0)"/>
     </g>
    </g>
   </g>
  </g>
  <g id="axes_2">
   <g id="patch_8">
    <path d="M 69.159688 633.6 
L 459.759688 633.6 
L 459.759688 392.556522 
L 69.159688 392.556522 
z
" style="fill: #ffffff"/>
   </g>
   <g id="matplotlib.axis_3">
    <g id="xtick_6">
     <g id="line2d_22">
      <g>
       <use xlink:href="#m27e30f0978" x="77.131116" y="633.6" style="stroke: #000000; stroke-width: 0.8"/>
      </g>
     </g>
     <g id="text_16">
      <!-- 0 -->
      <g transform="translate(72.359241 651.997656) scale(0.15 -0.15)">
       <use xlink:href="#DejaVuSans-30"/>
      </g>
     </g>
    </g>
    <g id="xtick_7">
     <g id="line2d_23">
      <g>
       <use xlink:href="#m27e30f0978" x="156.845402" y="633.6" style="stroke: #000000; stroke-width: 0.8"/>
      </g>
     </g>
     <g id="text_17">
      <!-- 10 -->
      <g transform="translate(147.301652 651.997656) scale(0.15 -0.15)">
       <use xlink:href="#DejaVuSans-31"/>
       <use xlink:href="#DejaVuSans-30" transform="translate(63.623047 0)"/>
      </g>
     </g>
    </g>
    <g id="xtick_8">
     <g id="line2d_24">
      <g>
       <use xlink:href="#m27e30f0978" x="236.559688" y="633.6" style="stroke: #000000; stroke-width: 0.8"/>
      </g>
     </g>
     <g id="text_18">
      <!-- 20 -->
      <g transform="translate(227.015938 651.997656) scale(0.15 -0.15)">
       <use xlink:href="#DejaVuSans-32"/>
       <use xlink:href="#DejaVuSans-30" transform="translate(63.623047 0)"/>
      </g>
     </g>
    </g>
    <g id="xtick_9">
     <g id="line2d_25">
      <g>
       <use xlink:href="#m27e30f0978" x="316.273973" y="633.6" style="stroke: #000000; stroke-width: 0.8"/>
      </g>
     </g>
     <g id="text_19">
      <!-- 30 -->
      <g transform="translate(306.730223 651.997656) scale(0.15 -0.15)">
       <use xlink:href="#DejaVuSans-33"/>
       <use xlink:href="#DejaVuSans-30" transform="translate(63.623047 0)"/>
      </g>
     </g>
    </g>
    <g id="xtick_10">
     <g id="line2d_26">
      <g>
       <use xlink:href="#m27e30f0978" x="395.988259" y="633.6" style="stroke: #000000; stroke-width: 0.8"/>
      </g>
     </g>
     <g id="text_20">
      <!-- 40 -->
      <g transform="translate(386.444509 651.997656) scale(0.15 -0.15)">
       <use xlink:href="#DejaVuSans-34"/>
       <use xlink:href="#DejaVuSans-30" transform="translate(63.623047 0)"/>
      </g>
     </g>
    </g>
    <g id="text_21">
     <!-- time [hr] -->
     <g transform="translate(219.385156 672.794375) scale(0.18 -0.18)">
      <use xlink:href="#DejaVuSans-Bold-74"/>
      <use xlink:href="#DejaVuSans-Bold-69" transform="translate(47.802734 0)"/>
      <use xlink:href="#DejaVuSans-Bold-6d" transform="translate(82.080078 0)"/>
      <use xlink:href="#DejaVuSans-Bold-65" transform="translate(186.279297 0)"/>
      <use xlink:href="#DejaVuSans-Bold-20" transform="translate(254.101562 0)"/>
      <use xlink:href="#DejaVuSans-Bold-5b" transform="translate(288.916016 0)"/>
      <use xlink:href="#DejaVuSans-Bold-68" transform="translate(334.619141 0)"/>
      <use xlink:href="#DejaVuSans-Bold-72" transform="translate(405.810547 0)"/>
      <use xlink:href="#DejaVuSans-Bold-5d" transform="translate(455.126953 0)"/>
     </g>
    </g>
   </g>
   <g id="matplotlib.axis_4">
    <g id="ytick_5">
     <g id="line2d_27">
      <g>
       <use xlink:href="#mb221726d99" x="69.159688" y="622.643478" style="stroke: #000000; stroke-width: 0.8"/>
      </g>
     </g>
     <g id="text_22">
      <!-- 0.00 -->
      <g transform="translate(28.76125 628.342306) scale(0.15 -0.15)">
       <use xlink:href="#DejaVuSans-30"/>
       <use xlink:href="#DejaVuSans-2e" transform="translate(63.623047 0)"/>
       <use xlink:href="#DejaVuSans-30" transform="translate(95.410156 0)"/>
       <use xlink:href="#DejaVuSans-30" transform="translate(159.033203 0)"/>
      </g>
     </g>
    </g>
    <g id="ytick_6">
     <g id="line2d_28">
      <g>
       <use xlink:href="#mb221726d99" x="69.159688" y="564.777145" style="stroke: #000000; stroke-width: 0.8"/>
      </g>
     </g>
     <g id="text_23">
      <!-- 0.01 -->
      <g transform="translate(28.76125 570.475973) scale(0.15 -0.15)">
       <use xlink:href="#DejaVuSans-30"/>
       <use xlink:href="#DejaVuSans-2e" transform="translate(63.623047 0)"/>
       <use xlink:href="#DejaVuSans-30" transform="translate(95.410156 0)"/>
       <use xlink:href="#DejaVuSans-31" transform="translate(159.033203 0)"/>
      </g>
     </g>
    </g>
    <g id="ytick_7">
     <g id="line2d_29">
      <g>
       <use xlink:href="#mb221726d99" x="69.159688" y="506.910811" style="stroke: #000000; stroke-width: 0.8"/>
      </g>
     </g>
     <g id="text_24">
      <!-- 0.02 -->
      <g transform="translate(28.76125 512.609639) scale(0.15 -0.15)">
       <use xlink:href="#DejaVuSans-30"/>
       <use xlink:href="#DejaVuSans-2e" transform="translate(63.623047 0)"/>
       <use xlink:href="#DejaVuSans-30" transform="translate(95.410156 0)"/>
       <use xlink:href="#DejaVuSans-32" transform="translate(159.033203 0)"/>
      </g>
     </g>
    </g>
    <g id="ytick_8">
     <g id="line2d_30">
      <g>
       <use xlink:href="#mb221726d99" x="69.159688" y="449.044477" style="stroke: #000000; stroke-width: 0.8"/>
      </g>
     </g>
     <g id="text_25">
      <!-- 0.03 -->
      <g transform="translate(28.76125 454.743306) scale(0.15 -0.15)">
       <use xlink:href="#DejaVuSans-30"/>
       <use xlink:href="#DejaVuSans-2e" transform="translate(63.623047 0)"/>
       <use xlink:href="#DejaVuSans-30" transform="translate(95.410156 0)"/>
       <use xlink:href="#DejaVuSans-33" transform="translate(159.033203 0)"/>
      </g>
     </g>
    </g>
    <g id="text_26">
     <!-- rapamycin [µM] -->
     <g transform="translate(20.877188 593.116386) rotate(-90) scale(0.18 -0.18)">
      <use xlink:href="#DejaVuSans-Bold-72"/>
      <use xlink:href="#DejaVuSans-Bold-61" transform="translate(49.316406 0)"/>
      <use xlink:href="#DejaVuSans-Bold-70" transform="translate(116.796875 0)"/>
      <use xlink:href="#DejaVuSans-Bold-61" transform="translate(188.378906 0)"/>
      <use xlink:href="#DejaVuSans-Bold-6d" transform="translate(255.859375 0)"/>
      <use xlink:href="#DejaVuSans-Bold-79" transform="translate(360.058594 0)"/>
      <use xlink:href="#DejaVuSans-Bold-63" transform="translate(425.244141 0)"/>
      <use xlink:href="#DejaVuSans-Bold-69" transform="translate(484.521484 0)"/>
      <use xlink:href="#DejaVuSans-Bold-6e" transform="translate(518.798828 0)"/>
      <use xlink:href="#DejaVuSans-Bold-20" transform="translate(589.990234 0)"/>
      <use xlink:href="#DejaVuSans-Bold-5b" transform="translate(624.804688 0)"/>
      <use xlink:href="#DejaVuSans-Bold-b5" transform="translate(670.507812 0)"/>
      <use xlink:href="#DejaVuSans-Bold-4d" transform="translate(744.091797 0)"/>
      <use xlink:href="#DejaVuSans-Bold-5d" transform="translate(843.603516 0)"/>
     </g>
    </g>
   </g>
   <g id="LineCollection_5">
    <path d="M 77.131116 608.099006 
L 77.131116 571.225696 
" clip-path="url(#p8751232d2a)" style="fill: none; stroke: #1f77b4"/>
    <path d="M 81.11683 595.466483 
L 81.11683 548.350587 
" clip-path="url(#p8751232d2a)" style="fill: none; stroke: #1f77b4"/>
    <path d="M 85.102545 582.83396 
L 85.102545 514.550053 
" clip-path="url(#p8751232d2a)" style="fill: none; stroke: #1f77b4"/>
    <path d="M 93.073973 587.613834 
L 93.073973 509.08734 
" clip-path="url(#p8751232d2a)" style="fill: none; stroke: #1f77b4"/>
    <path d="M 101.045402 590.68661 
L 101.045402 527.865415 
" clip-path="url(#p8751232d2a)" style="fill: none; stroke: #1f77b4"/>
    <path d="M 109.01683 593.417966 
L 109.01683 533.328127 
" clip-path="url(#p8751232d2a)" style="fill: none; stroke: #1f77b4"/>
    <path d="M 124.959688 598.880678 
L 124.959688 543.570714 
" clip-path="url(#p8751232d2a)" style="fill: none; stroke: #1f77b4"/>
    <path d="M 140.902545 602.977713 
L 140.902545 544.936392 
" clip-path="url(#p8751232d2a)" style="fill: none; stroke: #1f77b4"/>
    <path d="M 148.873973 599.904937 
L 148.873973 550.740524 
" clip-path="url(#p8751232d2a)" style="fill: none; stroke: #1f77b4"/>
    <path d="M 156.845402 603.660552 
L 156.845402 552.447621 
" clip-path="url(#p8751232d2a)" style="fill: none; stroke: #1f77b4"/>
    <path d="M 164.81683 605.02623 
L 164.81683 546.984909 
" clip-path="url(#p8751232d2a)" style="fill: none; stroke: #1f77b4"/>
    <path d="M 172.788259 605.02623 
L 172.788259 558.593173 
" clip-path="url(#p8751232d2a)" style="fill: none; stroke: #1f77b4"/>
    <path d="M 268.445402 610.147523 
L 268.445402 568.49434 
" clip-path="url(#p8751232d2a)" style="fill: none; stroke: #1f77b4"/>
   </g>
   <g id="LineCollection_6">
    <path d="M 77.131116 612.53746 
L 77.131116 581.809702 
" clip-path="url(#p8751232d2a)" style="fill: none; stroke: #d62728"/>
    <path d="M 81.11683 613.903138 
L 81.11683 560.64169 
" clip-path="url(#p8751232d2a)" style="fill: none; stroke: #d62728"/>
    <path d="M 85.102545 604.684811 
L 85.102545 541.863616 
" clip-path="url(#p8751232d2a)" style="fill: none; stroke: #d62728"/>
    <path d="M 93.073973 604.343391 
L 93.073973 537.425162 
" clip-path="url(#p8751232d2a)" style="fill: none; stroke: #d62728"/>
    <path d="M 101.045402 611.854621 
L 101.045402 531.962449 
" clip-path="url(#p8751232d2a)" style="fill: none; stroke: #d62728"/>
    <path d="M 109.01683 610.147523 
L 109.01683 540.497938 
" clip-path="url(#p8751232d2a)" style="fill: none; stroke: #d62728"/>
    <path d="M 124.959688 612.53746 
L 124.959688 551.764782 
" clip-path="url(#p8751232d2a)" style="fill: none; stroke: #d62728"/>
    <path d="M 140.902545 612.53746 
L 140.902545 559.276012 
" clip-path="url(#p8751232d2a)" style="fill: none; stroke: #d62728"/>
    <path d="M 148.873973 613.561719 
L 148.873973 554.154719 
" clip-path="url(#p8751232d2a)" style="fill: none; stroke: #d62728"/>
    <path d="M 156.845402 612.53746 
L 156.845402 564.738725 
" clip-path="url(#p8751232d2a)" style="fill: none; stroke: #d62728"/>
    <path d="M 164.81683 609.806104 
L 164.81683 581.126863 
" clip-path="url(#p8751232d2a)" style="fill: none; stroke: #d62728"/>
    <path d="M 172.788259 614.244558 
L 172.788259 593.759385 
" clip-path="url(#p8751232d2a)" style="fill: none; stroke: #d62728"/>
    <path d="M 268.445402 615.610236 
L 268.445402 597.173581 
" clip-path="url(#p8751232d2a)" style="fill: none; stroke: #d62728"/>
   </g>
   <g id="line2d_31">
    <path d="M 77.131116 622.643478 
L 77.32243 621.65856 
L 77.513745 615.004226 
L 77.896373 585.222194 
L 79.235573 464.022179 
L 79.809516 431.633466 
L 80.383459 412.45224 
L 80.766088 405.928539 
L 81.148716 403.513043 
L 81.34003 403.604757 
L 81.531345 404.440521 
L 81.913973 408.005101 
L 82.487916 416.953382 
L 83.444488 437.442539 
L 86.122888 498.700793 
L 87.270773 519.657803 
L 88.418659 536.596762 
L 89.566545 549.933606 
L 90.523116 558.722638 
L 91.479688 565.768573 
L 92.436259 571.386437 
L 93.39283 575.848404 
L 94.349402 579.382575 
L 95.305973 582.176383 
L 96.262545 584.38183 
L 97.219116 586.121077 
L 98.367002 587.728706 
L 99.514888 588.935804 
L 100.662773 589.841723 
L 102.001973 590.616857 
L 103.532488 591.236105 
L 105.44563 591.740541 
L 107.741402 592.099135 
L 110.993745 592.355968 
L 116.15923 592.50387 
L 128.020716 592.556744 
L 291.59443 592.559586 
L 459.759688 592.559586 
L 459.759688 592.559586 
" clip-path="url(#p8751232d2a)" style="fill: none; stroke: #1f77b4; stroke-width: 2; stroke-linecap: square"/>
   </g>
   <g id="line2d_32">
    <path d="M 77.131116 589.662351 
L 81.11683 571.908535 
L 85.102545 548.692007 
L 93.073973 548.350587 
L 101.045402 559.276012 
L 109.01683 563.373047 
L 124.959688 571.225696 
L 140.902545 573.957052 
L 148.873973 575.32273 
L 156.845402 578.054087 
L 164.81683 576.00557 
L 172.788259 581.809702 
L 268.445402 589.320931 
" clip-path="url(#p8751232d2a)" style="fill: none; stroke-dasharray: 3.7,1.6; stroke-dashoffset: 0; stroke: #1f77b4"/>
    <g clip-path="url(#p8751232d2a)">
     <use xlink:href="#mf5e337464d" x="77.131116" y="589.662351" style="fill: #1f77b4; stroke: #000000; stroke-linejoin: miter"/>
     <use xlink:href="#mf5e337464d" x="81.11683" y="571.908535" style="fill: #1f77b4; stroke: #000000; stroke-linejoin: miter"/>
     <use xlink:href="#mf5e337464d" x="85.102545" y="548.692007" style="fill: #1f77b4; stroke: #000000; stroke-linejoin: miter"/>
     <use xlink:href="#mf5e337464d" x="93.073973" y="548.350587" style="fill: #1f77b4; stroke: #000000; stroke-linejoin: miter"/>
     <use xlink:href="#mf5e337464d" x="101.045402" y="559.276012" style="fill: #1f77b4; stroke: #000000; stroke-linejoin: miter"/>
     <use xlink:href="#mf5e337464d" x="109.01683" y="563.373047" style="fill: #1f77b4; stroke: #000000; stroke-linejoin: miter"/>
     <use xlink:href="#mf5e337464d" x="124.959688" y="571.225696" style="fill: #1f77b4; stroke: #000000; stroke-linejoin: miter"/>
     <use xlink:href="#mf5e337464d" x="140.902545" y="573.957052" style="fill: #1f77b4; stroke: #000000; stroke-linejoin: miter"/>
     <use xlink:href="#mf5e337464d" x="148.873973" y="575.32273" style="fill: #1f77b4; stroke: #000000; stroke-linejoin: miter"/>
     <use xlink:href="#mf5e337464d" x="156.845402" y="578.054087" style="fill: #1f77b4; stroke: #000000; stroke-linejoin: miter"/>
     <use xlink:href="#mf5e337464d" x="164.81683" y="576.00557" style="fill: #1f77b4; stroke: #000000; stroke-linejoin: miter"/>
     <use xlink:href="#mf5e337464d" x="172.788259" y="581.809702" style="fill: #1f77b4; stroke: #000000; stroke-linejoin: miter"/>
     <use xlink:href="#mf5e337464d" x="268.445402" y="589.320931" style="fill: #1f77b4; stroke: #000000; stroke-linejoin: miter"/>
    </g>
   </g>
   <g id="line2d_33">
    <path d="M 77.131116 622.643478 
L 77.32243 621.663437 
L 77.513745 615.074852 
L 77.896373 585.804688 
L 79.044259 481.677384 
L 79.618202 446.152815 
L 80.192145 423.996842 
L 80.574773 415.741971 
L 80.957402 411.829734 
L 81.148716 411.260457 
L 81.34003 411.491088 
L 81.531345 412.432968 
L 81.913973 416.120193 
L 82.487916 425.062407 
L 83.444488 445.177775 
L 86.122888 504.486263 
L 87.270773 524.633008 
L 88.418659 540.880686 
L 89.566545 553.654013 
L 90.523116 562.06404 
L 91.479688 568.80282 
L 92.436259 574.174546 
L 93.39283 578.441053 
L 94.349402 581.821207 
L 95.305973 584.494529 
L 96.262545 586.606405 
L 97.41043 588.562194 
L 98.558316 590.034124 
L 99.706202 591.141871 
L 101.045402 592.093305 
L 102.384602 592.777292 
L 104.10643 593.383578 
L 106.210888 593.851599 
L 108.889288 594.192321 
L 112.715573 594.431785 
L 119.602888 594.600869 
L 143.708487 594.851223 
L 407.530888 597.229021 
L 459.759688 597.675079 
L 459.759688 597.675079 
" clip-path="url(#p8751232d2a)" style="fill: none; stroke: #d62728; stroke-width: 2; stroke-linecap: square"/>
   </g>
   <g id="line2d_34">
    <path d="M 77.131116 597.173581 
L 81.11683 587.272414 
L 85.102545 573.274213 
L 93.073973 570.884276 
L 101.045402 571.908535 
L 109.01683 575.32273 
L 124.959688 582.151121 
L 140.902545 585.906736 
L 148.873973 583.858219 
L 156.845402 588.638092 
L 164.81683 595.466483 
L 172.788259 604.001972 
L 268.445402 606.391908 
" clip-path="url(#p8751232d2a)" style="fill: none; stroke-dasharray: 3.7,1.6; stroke-dashoffset: 0; stroke: #d62728"/>
    <g clip-path="url(#p8751232d2a)">
     <use xlink:href="#mb3968e6576" x="77.131116" y="597.173581" style="fill: #d62728; stroke: #000000; stroke-linejoin: miter"/>
     <use xlink:href="#mb3968e6576" x="81.11683" y="587.272414" style="fill: #d62728; stroke: #000000; stroke-linejoin: miter"/>
     <use xlink:href="#mb3968e6576" x="85.102545" y="573.274213" style="fill: #d62728; stroke: #000000; stroke-linejoin: miter"/>
     <use xlink:href="#mb3968e6576" x="93.073973" y="570.884276" style="fill: #d62728; stroke: #000000; stroke-linejoin: miter"/>
     <use xlink:href="#mb3968e6576" x="101.045402" y="571.908535" style="fill: #d62728; stroke: #000000; stroke-linejoin: miter"/>
     <use xlink:href="#mb3968e6576" x="109.01683" y="575.32273" style="fill: #d62728; stroke: #000000; stroke-linejoin: miter"/>
     <use xlink:href="#mb3968e6576" x="124.959688" y="582.151121" style="fill: #d62728; stroke: #000000; stroke-linejoin: miter"/>
     <use xlink:href="#mb3968e6576" x="140.902545" y="585.906736" style="fill: #d62728; stroke: #000000; stroke-linejoin: miter"/>
     <use xlink:href="#mb3968e6576" x="148.873973" y="583.858219" style="fill: #d62728; stroke: #000000; stroke-linejoin: miter"/>
     <use xlink:href="#mb3968e6576" x="156.845402" y="588.638092" style="fill: #d62728; stroke: #000000; stroke-linejoin: miter"/>
     <use xlink:href="#mb3968e6576" x="164.81683" y="595.466483" style="fill: #d62728; stroke: #000000; stroke-linejoin: miter"/>
     <use xlink:href="#mb3968e6576" x="172.788259" y="604.001972" style="fill: #d62728; stroke: #000000; stroke-linejoin: miter"/>
     <use xlink:href="#mb3968e6576" x="268.445402" y="606.391908" style="fill: #d62728; stroke: #000000; stroke-linejoin: miter"/>
    </g>
   </g>
   <g id="patch_9">
    <path d="M 69.159688 633.6 
L 69.159688 392.556522 
" style="fill: none; stroke: #000000; stroke-width: 0.8; stroke-linejoin: miter; stroke-linecap: square"/>
   </g>
   <g id="patch_10">
    <path d="M 459.759688 633.6 
L 459.759688 392.556522 
" style="fill: none; stroke: #000000; stroke-width: 0.8; stroke-linejoin: miter; stroke-linecap: square"/>
   </g>
   <g id="patch_11">
    <path d="M 69.159688 633.6 
L 459.759688 633.6 
" style="fill: none; stroke: #000000; stroke-width: 0.8; stroke-linejoin: miter; stroke-linecap: square"/>
   </g>
   <g id="patch_12">
    <path d="M 69.159688 392.556522 
L 459.759688 392.556522 
" style="fill: none; stroke: #000000; stroke-width: 0.8; stroke-linejoin: miter; stroke-linecap: square"/>
   </g>
   <g id="legend_2">
    <g id="patch_13">
     <path d="M 482.383688 460.381522 
L 611.0165 460.381522 
Q 613.0165 460.381522 613.0165 458.381522 
L 613.0165 399.556522 
Q 613.0165 397.556522 611.0165 397.556522 
L 482.383688 397.556522 
Q 480.383688 397.556522 480.383688 399.556522 
L 480.383688 458.381522 
Q 480.383688 460.381522 482.383688 460.381522 
z
" style="fill: #ffffff; opacity: 0.8; stroke: #cccccc; stroke-linejoin: miter"/>
    </g>
    <g id="line2d_35">
     <path d="M 484.383688 405.654959 
L 504.383688 405.654959 
" style="fill: none; stroke: #1f77b4; stroke-width: 2; stroke-linecap: square"/>
    </g>
    <g id="line2d_36"/>
    <g id="text_27">
     <!-- RAP_3_3 -->
     <g transform="translate(512.383688 409.154959) scale(0.1 -0.1)">
      <use xlink:href="#DejaVuSans-52"/>
      <use xlink:href="#DejaVuSans-41" transform="translate(65.482422 0)"/>
      <use xlink:href="#DejaVuSans-50" transform="translate(133.890625 0)"/>
      <use xlink:href="#DejaVuSans-5f" transform="translate(194.193359 0)"/>
      <use xlink:href="#DejaVuSans-33" transform="translate(244.193359 0)"/>
      <use xlink:href="#DejaVuSans-5f" transform="translate(307.816406 0)"/>
      <use xlink:href="#DejaVuSans-33" transform="translate(357.816406 0)"/>
     </g>
    </g>
    <g id="LineCollection_7">
     <path d="M 494.383688 425.611209 
L 494.383688 415.611209 
" style="fill: none; stroke: #1f77b4"/>
    </g>
    <g id="line2d_37">
     <path d="M 484.383688 420.611209 
L 504.383688 420.611209 
" style="fill: none; stroke-dasharray: 3.7,1.6; stroke-dashoffset: 0; stroke: #1f77b4"/>
    </g>
    <g id="line2d_38">
     <g>
      <use xlink:href="#mf5e337464d" x="494.383688" y="420.611209" style="fill: #1f77b4; stroke: #000000; stroke-linejoin: miter"/>
     </g>
    </g>
    <g id="text_28">
     <!-- RAP_3_3±SD (n=7) -->
     <g transform="translate(512.383688 424.111209) scale(0.1 -0.1)">
      <use xlink:href="#DejaVuSans-52"/>
      <use xlink:href="#DejaVuSans-41" transform="translate(65.482422 0)"/>
      <use xlink:href="#DejaVuSans-50" transform="translate(133.890625 0)"/>
      <use xlink:href="#DejaVuSans-5f" transform="translate(194.193359 0)"/>
      <use xlink:href="#DejaVuSans-33" transform="translate(244.193359 0)"/>
      <use xlink:href="#DejaVuSans-5f" transform="translate(307.816406 0)"/>
      <use xlink:href="#DejaVuSans-33" transform="translate(357.816406 0)"/>
      <use xlink:href="#DejaVuSans-b1" transform="translate(421.439453 0)"/>
      <use xlink:href="#DejaVuSans-53" transform="translate(505.228516 0)"/>
      <use xlink:href="#DejaVuSans-44" transform="translate(568.705078 0)"/>
      <use xlink:href="#DejaVuSans-20" transform="translate(645.707031 0)"/>
      <use xlink:href="#DejaVuSans-28" transform="translate(677.494141 0)"/>
      <use xlink:href="#DejaVuSans-6e" transform="translate(716.507812 0)"/>
      <use xlink:href="#DejaVuSans-3d" transform="translate(779.886719 0)"/>
      <use xlink:href="#DejaVuSans-37" transform="translate(863.675781 0)"/>
      <use xlink:href="#DejaVuSans-29" transform="translate(927.298828 0)"/>
     </g>
    </g>
    <g id="line2d_39">
     <path d="M 484.383688 435.567459 
L 504.383688 435.567459 
" style="fill: none; stroke: #d62728; stroke-width: 2; stroke-linecap: square"/>
    </g>
    <g id="line2d_40"/>
    <g id="text_29">
     <!-- RAP_1_3 -->
     <g transform="translate(512.383688 439.067459) scale(0.1 -0.1)">
      <use xlink:href="#DejaVuSans-52"/>
      <use xlink:href="#DejaVuSans-41" transform="translate(65.482422 0)"/>
      <use xlink:href="#DejaVuSans-50" transform="translate(133.890625 0)"/>
      <use xlink:href="#DejaVuSans-5f" transform="translate(194.193359 0)"/>
      <use xlink:href="#DejaVuSans-31" transform="translate(244.193359 0)"/>
      <use xlink:href="#DejaVuSans-5f" transform="translate(307.816406 0)"/>
      <use xlink:href="#DejaVuSans-33" transform="translate(357.816406 0)"/>
     </g>
    </g>
    <g id="LineCollection_8">
     <path d="M 494.383688 455.523709 
L 494.383688 445.523709 
" style="fill: none; stroke: #d62728"/>
    </g>
    <g id="line2d_41">
     <path d="M 484.383688 450.523709 
L 504.383688 450.523709 
" style="fill: none; stroke-dasharray: 3.7,1.6; stroke-dashoffset: 0; stroke: #d62728"/>
    </g>
    <g id="line2d_42">
     <g>
      <use xlink:href="#mb3968e6576" x="494.383688" y="450.523709" style="fill: #d62728; stroke: #000000; stroke-linejoin: miter"/>
     </g>
    </g>
    <g id="text_30">
     <!-- RAP_1_3±SD (n=3) -->
     <g transform="translate(512.383688 454.023709) scale(0.1 -0.1)">
      <use xlink:href="#DejaVuSans-52"/>
      <use xlink:href="#DejaVuSans-41" transform="translate(65.482422 0)"/>
      <use xlink:href="#DejaVuSans-50" transform="translate(133.890625 0)"/>
      <use xlink:href="#DejaVuSans-5f" transform="translate(194.193359 0)"/>
      <use xlink:href="#DejaVuSans-31" transform="translate(244.193359 0)"/>
      <use xlink:href="#DejaVuSans-5f" transform="translate(307.816406 0)"/>
      <use xlink:href="#DejaVuSans-33" transform="translate(357.816406 0)"/>
      <use xlink:href="#DejaVuSans-b1" transform="translate(421.439453 0)"/>
      <use xlink:href="#DejaVuSans-53" transform="translate(505.228516 0)"/>
      <use xlink:href="#DejaVuSans-44" transform="translate(568.705078 0)"/>
      <use xlink:href="#DejaVuSans-20" transform="translate(645.707031 0)"/>
      <use xlink:href="#DejaVuSans-28" transform="translate(677.494141 0)"/>
      <use xlink:href="#DejaVuSans-6e" transform="translate(716.507812 0)"/>
      <use xlink:href="#DejaVuSans-3d" transform="translate(779.886719 0)"/>
      <use xlink:href="#DejaVuSans-33" transform="translate(863.675781 0)"/>
      <use xlink:href="#DejaVuSans-29" transform="translate(927.298828 0)"/>
     </g>
    </g>
   </g>
  </g>
  <g id="text_31">
   <!-- Renders2007 -->
   <g transform="translate(165.339375 26.196094) scale(0.25 -0.25)">
    <defs>
     <path id="DejaVuSans-Bold-52" d="M 2297 2597 
Q 2675 2597 2839 2737 
Q 3003 2878 3003 3200 
Q 3003 3519 2839 3656 
Q 2675 3794 2297 3794 
L 1791 3794 
L 1791 2597 
L 2297 2597 
z
M 1791 1766 
L 1791 0 
L 588 0 
L 588 4666 
L 2425 4666 
Q 3347 4666 3776 4356 
Q 4206 4047 4206 3378 
Q 4206 2916 3982 2619 
Q 3759 2322 3309 2181 
Q 3556 2125 3751 1926 
Q 3947 1728 4147 1325 
L 4800 0 
L 3519 0 
L 2950 1159 
Q 2778 1509 2601 1637 
Q 2425 1766 2131 1766 
L 1791 1766 
z
" transform="scale(0.015625)"/>
     <path id="DejaVuSans-Bold-64" d="M 2919 2988 
L 2919 4863 
L 4044 4863 
L 4044 0 
L 2919 0 
L 2919 506 
Q 2688 197 2409 53 
Q 2131 -91 1766 -91 
Q 1119 -91 703 423 
Q 288 938 288 1747 
Q 288 2556 703 3070 
Q 1119 3584 1766 3584 
Q 2128 3584 2408 3439 
Q 2688 3294 2919 2988 
z
M 2181 722 
Q 2541 722 2730 984 
Q 2919 1247 2919 1747 
Q 2919 2247 2730 2509 
Q 2541 2772 2181 2772 
Q 1825 2772 1636 2509 
Q 1447 2247 1447 1747 
Q 1447 1247 1636 984 
Q 1825 722 2181 722 
z
" transform="scale(0.015625)"/>
     <path id="DejaVuSans-Bold-73" d="M 3272 3391 
L 3272 2541 
Q 2913 2691 2578 2766 
Q 2244 2841 1947 2841 
Q 1628 2841 1473 2761 
Q 1319 2681 1319 2516 
Q 1319 2381 1436 2309 
Q 1553 2238 1856 2203 
L 2053 2175 
Q 2913 2066 3209 1816 
Q 3506 1566 3506 1031 
Q 3506 472 3093 190 
Q 2681 -91 1863 -91 
Q 1516 -91 1145 -36 
Q 775 19 384 128 
L 384 978 
Q 719 816 1070 734 
Q 1422 653 1784 653 
Q 2113 653 2278 743 
Q 2444 834 2444 1013 
Q 2444 1163 2330 1236 
Q 2216 1309 1875 1350 
L 1678 1375 
Q 931 1469 631 1722 
Q 331 1975 331 2491 
Q 331 3047 712 3315 
Q 1094 3584 1881 3584 
Q 2191 3584 2531 3537 
Q 2872 3491 3272 3391 
z
" transform="scale(0.015625)"/>
     <path id="DejaVuSans-Bold-32" d="M 1844 884 
L 3897 884 
L 3897 0 
L 506 0 
L 506 884 
L 2209 2388 
Q 2438 2594 2547 2791 
Q 2656 2988 2656 3200 
Q 2656 3528 2436 3728 
Q 2216 3928 1850 3928 
Q 1569 3928 1234 3808 
Q 900 3688 519 3450 
L 519 4475 
Q 925 4609 1322 4679 
Q 1719 4750 2100 4750 
Q 2938 4750 3402 4381 
Q 3866 4013 3866 3353 
Q 3866 2972 3669 2642 
Q 3472 2313 2841 1759 
L 1844 884 
z
" transform="scale(0.015625)"/>
     <path id="DejaVuSans-Bold-30" d="M 2944 2338 
Q 2944 3213 2780 3570 
Q 2616 3928 2228 3928 
Q 1841 3928 1675 3570 
Q 1509 3213 1509 2338 
Q 1509 1453 1675 1090 
Q 1841 728 2228 728 
Q 2613 728 2778 1090 
Q 2944 1453 2944 2338 
z
M 4147 2328 
Q 4147 1169 3647 539 
Q 3147 -91 2228 -91 
Q 1306 -91 806 539 
Q 306 1169 306 2328 
Q 306 3491 806 4120 
Q 1306 4750 2228 4750 
Q 3147 4750 3647 4120 
Q 4147 3491 4147 2328 
z
" transform="scale(0.015625)"/>
     <path id="DejaVuSans-Bold-37" d="M 428 4666 
L 3944 4666 
L 3944 3988 
L 2125 0 
L 953 0 
L 2675 3781 
L 428 3781 
L 428 4666 
z
" transform="scale(0.015625)"/>
    </defs>
    <use xlink:href="#DejaVuSans-Bold-52"/>
    <use xlink:href="#DejaVuSans-Bold-65" transform="translate(77.001953 0)"/>
    <use xlink:href="#DejaVuSans-Bold-6e" transform="translate(144.824219 0)"/>
    <use xlink:href="#DejaVuSans-Bold-64" transform="translate(216.015625 0)"/>
    <use xlink:href="#DejaVuSans-Bold-65" transform="translate(287.597656 0)"/>
    <use xlink:href="#DejaVuSans-Bold-72" transform="translate(355.419922 0)"/>
    <use xlink:href="#DejaVuSans-Bold-73" transform="translate(404.736328 0)"/>
    <use xlink:href="#DejaVuSans-Bold-32" transform="translate(464.257812 0)"/>
    <use xlink:href="#DejaVuSans-Bold-30" transform="translate(533.837891 0)"/>
    <use xlink:href="#DejaVuSans-Bold-30" transform="translate(603.417969 0)"/>
    <use xlink:href="#DejaVuSans-Bold-37" transform="translate(672.998047 0)"/>
   </g>
  </g>
 </g>
 <defs>
  <clipPath id="p69d9fe432d">
   <rect x="69.159688" y="79.2" width="390.6" height="241.043478"/>
  </clipPath>
  <clipPath id="p8751232d2a">
   <rect x="69.159688" y="392.556522" width="390.6" height="241.043478"/>
  </clipPath>
 </defs>
</svg>
