<?xml version="1.0" encoding="utf-8" standalone="no"?>
<!DOCTYPE svg PUBLIC "-//W3C//DTD SVG 1.1//EN"
  "http://www.w3.org/Graphics/SVG/1.1/DTD/svg11.dtd">
<svg xmlns:xlink="http://www.w3.org/1999/xlink" width="605.1915pt" height="683.737812pt" viewBox="0 0 605.1915 683.737812" xmlns="http://www.w3.org/2000/svg" version="1.1">
 <metadata>
  <rdf:RDF xmlns:dc="http://purl.org/dc/elements/1.1/" xmlns:cc="http://creativecommons.org/ns#" xmlns:rdf="http://www.w3.org/1999/02/22-rdf-syntax-ns#">
   <cc:Work>
    <dc:type rdf:resource="http://purl.org/dc/dcmitype/StillImage"/>
    <dc:date>2025-09-10T11:19:53.346879</dc:date>
    <dc:format>image/svg+xml</dc:format>
    <dc:creator>
     <cc:Agent>
      <dc:title>Matplotlib v3.10.6, https://matplotlib.org/</dc:title>
     </cc:Agent>
    </dc:creator>
   </cc:Work>
  </rdf:RDF>
 </metadata>
 <defs>
  <style type="text/css">*{stroke-linejoin: round; stroke-linecap: butt}</style>
 </defs>
 <g id="figure_1">
  <g id="patch_1">
   <path d="M 0 683.737812 
L 605.1915 683.737812 
L 605.1915 0 
L 0 0 
z
" style="fill: #ffffff"/>
  </g>
  <g id="axes_1">
   <g id="patch_2">
    <path d="M 45.305 320.243478 
L 435.905 320.243478 
L 435.905 79.2 
L 45.305 79.2 
z
" style="fill: #ffffff"/>
   </g>
   <g id="matplotlib.axis_1">
    <g id="xtick_1">
     <g id="line2d_1">
      <defs>
       <path id="m84b4bfeea9" d="M 0 0 
L 0 3.5 
" style="stroke: #000000; stroke-width: 0.8"/>
      </defs>
      <g>
       <use xlink:href="#m84b4bfeea9" x="63.059545" y="320.243478" style="stroke: #000000; stroke-width: 0.8"/>
      </g>
     </g>
     <g id="text_1">
      <!-- 0 -->
      <g transform="translate(58.28767 338.641135) scale(0.15 -0.15)">
       <defs>
        <path id="DejaVuSans-30" d="M 2034 4250 
Q 1547 4250 1301 3770 
Q 1056 3291 1056 2328 
Q 1056 1369 1301 889 
Q 1547 409 2034 409 
Q 2525 409 2770 889 
Q 3016 1369 3016 2328 
Q 3016 3291 2770 3770 
Q 2525 4250 2034 4250 
z
M 2034 4750 
Q 2819 4750 3233 4129 
Q 3647 3509 3647 2328 
Q 3647 1150 3233 529 
Q 2819 -91 2034 -91 
Q 1250 -91 836 529 
Q 422 1150 422 2328 
Q 422 3509 836 4129 
Q 1250 4750 2034 4750 
z
" transform="scale(0.015625)"/>
       </defs>
       <use xlink:href="#DejaVuSans-30"/>
      </g>
     </g>
    </g>
    <g id="xtick_2">
     <g id="line2d_2">
      <g>
       <use xlink:href="#m84b4bfeea9" x="122.241364" y="320.243478" style="stroke: #000000; stroke-width: 0.8"/>
      </g>
     </g>
     <g id="text_2">
      <!-- 25 -->
      <g transform="translate(112.697614 338.641135) scale(0.15 -0.15)">
       <defs>
        <path id="DejaVuSans-32" d="M 1228 531 
L 3431 531 
L 3431 0 
L 469 0 
L 469 531 
Q 828 903 1448 1529 
Q 2069 2156 2228 2338 
Q 2531 2678 2651 2914 
Q 2772 3150 2772 3378 
Q 2772 3750 2511 3984 
Q 2250 4219 1831 4219 
Q 1534 4219 1204 4116 
Q 875 4013 500 3803 
L 500 4441 
Q 881 4594 1212 4672 
Q 1544 4750 1819 4750 
Q 2544 4750 2975 4387 
Q 3406 4025 3406 3419 
Q 3406 3131 3298 2873 
Q 3191 2616 2906 2266 
Q 2828 2175 2409 1742 
Q 1991 1309 1228 531 
z
" transform="scale(0.015625)"/>
        <path id="DejaVuSans-35" d="M 691 4666 
L 3169 4666 
L 3169 4134 
L 1269 4134 
L 1269 2991 
Q 1406 3038 1543 3061 
Q 1681 3084 1819 3084 
Q 2600 3084 3056 2656 
Q 3513 2228 3513 1497 
Q 3513 744 3044 326 
Q 2575 -91 1722 -91 
Q 1428 -91 1123 -41 
Q 819 9 494 109 
L 494 744 
Q 775 591 1075 516 
Q 1375 441 1709 441 
Q 2250 441 2565 725 
Q 2881 1009 2881 1497 
Q 2881 1984 2565 2268 
Q 2250 2553 1709 2553 
Q 1456 2553 1204 2497 
Q 953 2441 691 2322 
L 691 4666 
z
" transform="scale(0.015625)"/>
       </defs>
       <use xlink:href="#DejaVuSans-32"/>
       <use xlink:href="#DejaVuSans-35" transform="translate(63.623047 0)"/>
      </g>
     </g>
    </g>
    <g id="xtick_3">
     <g id="line2d_3">
      <g>
       <use xlink:href="#m84b4bfeea9" x="181.423182" y="320.243478" style="stroke: #000000; stroke-width: 0.8"/>
      </g>
     </g>
     <g id="text_3">
      <!-- 50 -->
      <g transform="translate(171.879432 338.641135) scale(0.15 -0.15)">
       <use xlink:href="#DejaVuSans-35"/>
       <use xlink:href="#DejaVuSans-30" transform="translate(63.623047 0)"/>
      </g>
     </g>
    </g>
    <g id="xtick_4">
     <g id="line2d_4">
      <g>
       <use xlink:href="#m84b4bfeea9" x="240.605" y="320.243478" style="stroke: #000000; stroke-width: 0.8"/>
      </g>
     </g>
     <g id="text_4">
      <!-- 75 -->
      <g transform="translate(231.06125 338.641135) scale(0.15 -0.15)">
       <defs>
        <path id="DejaVuSans-37" d="M 525 4666 
L 3525 4666 
L 3525 4397 
L 1831 0 
L 1172 0 
L 2766 4134 
L 525 4134 
L 525 4666 
z
" transform="scale(0.015625)"/>
       </defs>
       <use xlink:href="#DejaVuSans-37"/>
       <use xlink:href="#DejaVuSans-35" transform="translate(63.623047 0)"/>
      </g>
     </g>
    </g>
    <g id="xtick_5">
     <g id="line2d_5">
      <g>
       <use xlink:href="#m84b4bfeea9" x="299.786818" y="320.243478" style="stroke: #000000; stroke-width: 0.8"/>
      </g>
     </g>
     <g id="text_5">
      <!-- 100 -->
      <g transform="translate(285.471193 338.641135) scale(0.15 -0.15)">
       <defs>
        <path id="DejaVuSans-31" d="M 794 531 
L 1825 531 
L 1825 4091 
L 703 3866 
L 703 4441 
L 1819 4666 
L 2450 4666 
L 2450 531 
L 3481 531 
L 3481 0 
L 794 0 
L 794 531 
z
" transform="scale(0.015625)"/>
       </defs>
       <use xlink:href="#DejaVuSans-31"/>
       <use xlink:href="#DejaVuSans-30" transform="translate(63.623047 0)"/>
       <use xlink:href="#DejaVuSans-30" transform="translate(127.246094 0)"/>
      </g>
     </g>
    </g>
    <g id="xtick_6">
     <g id="line2d_6">
      <g>
       <use xlink:href="#m84b4bfeea9" x="358.968636" y="320.243478" style="stroke: #000000; stroke-width: 0.8"/>
      </g>
     </g>
     <g id="text_6">
      <!-- 125 -->
      <g transform="translate(344.653011 338.641135) scale(0.15 -0.15)">
       <use xlink:href="#DejaVuSans-31"/>
       <use xlink:href="#DejaVuSans-32" transform="translate(63.623047 0)"/>
       <use xlink:href="#DejaVuSans-35" transform="translate(127.246094 0)"/>
      </g>
     </g>
    </g>
    <g id="xtick_7">
     <g id="line2d_7">
      <g>
       <use xlink:href="#m84b4bfeea9" x="418.150455" y="320.243478" style="stroke: #000000; stroke-width: 0.8"/>
      </g>
     </g>
     <g id="text_7">
      <!-- 150 -->
      <g transform="translate(403.83483 338.641135) scale(0.15 -0.15)">
       <use xlink:href="#DejaVuSans-31"/>
       <use xlink:href="#DejaVuSans-35" transform="translate(63.623047 0)"/>
       <use xlink:href="#DejaVuSans-30" transform="translate(127.246094 0)"/>
      </g>
     </g>
    </g>
    <g id="text_8">
     <!-- time [hr] -->
     <g transform="translate(195.530469 359.437853) scale(0.18 -0.18)">
      <defs>
       <path id="DejaVuSans-Bold-74" d="M 1759 4494 
L 1759 3500 
L 2913 3500 
L 2913 2700 
L 1759 2700 
L 1759 1216 
Q 1759 972 1856 886 
Q 1953 800 2241 800 
L 2816 800 
L 2816 0 
L 1856 0 
Q 1194 0 917 276 
Q 641 553 641 1216 
L 641 2700 
L 84 2700 
L 84 3500 
L 641 3500 
L 641 4494 
L 1759 4494 
z
" transform="scale(0.015625)"/>
       <path id="DejaVuSans-Bold-69" d="M 538 3500 
L 1656 3500 
L 1656 0 
L 538 0 
L 538 3500 
z
M 538 4863 
L 1656 4863 
L 1656 3950 
L 538 3950 
L 538 4863 
z
" transform="scale(0.015625)"/>
       <path id="DejaVuSans-Bold-6d" d="M 3781 2919 
Q 3994 3244 4286 3414 
Q 4578 3584 4928 3584 
Q 5531 3584 5847 3212 
Q 6163 2841 6163 2131 
L 6163 0 
L 5038 0 
L 5038 1825 
Q 5041 1866 5042 1909 
Q 5044 1953 5044 2034 
Q 5044 2406 4934 2573 
Q 4825 2741 4581 2741 
Q 4263 2741 4089 2478 
Q 3916 2216 3909 1719 
L 3909 0 
L 2784 0 
L 2784 1825 
Q 2784 2406 2684 2573 
Q 2584 2741 2328 2741 
Q 2006 2741 1831 2477 
Q 1656 2213 1656 1722 
L 1656 0 
L 531 0 
L 531 3500 
L 1656 3500 
L 1656 2988 
Q 1863 3284 2130 3434 
Q 2397 3584 2719 3584 
Q 3081 3584 3359 3409 
Q 3638 3234 3781 2919 
z
" transform="scale(0.015625)"/>
       <path id="DejaVuSans-Bold-65" d="M 4031 1759 
L 4031 1441 
L 1416 1441 
Q 1456 1047 1700 850 
Q 1944 653 2381 653 
Q 2734 653 3104 758 
Q 3475 863 3866 1075 
L 3866 213 
Q 3469 63 3072 -14 
Q 2675 -91 2278 -91 
Q 1328 -91 801 392 
Q 275 875 275 1747 
Q 275 2603 792 3093 
Q 1309 3584 2216 3584 
Q 3041 3584 3536 3087 
Q 4031 2591 4031 1759 
z
M 2881 2131 
Q 2881 2450 2695 2645 
Q 2509 2841 2209 2841 
Q 1884 2841 1681 2658 
Q 1478 2475 1428 2131 
L 2881 2131 
z
" transform="scale(0.015625)"/>
       <path id="DejaVuSans-Bold-20" transform="scale(0.015625)"/>
       <path id="DejaVuSans-Bold-5b" d="M 550 4863 
L 2491 4863 
L 2491 4159 
L 1613 4159 
L 1613 -141 
L 2491 -141 
L 2491 -844 
L 550 -844 
L 550 4863 
z
" transform="scale(0.015625)"/>
       <path id="DejaVuSans-Bold-68" d="M 4056 2131 
L 4056 0 
L 2931 0 
L 2931 347 
L 2931 1625 
Q 2931 2084 2911 2256 
Q 2891 2428 2841 2509 
Q 2775 2619 2662 2680 
Q 2550 2741 2406 2741 
Q 2056 2741 1856 2470 
Q 1656 2200 1656 1722 
L 1656 0 
L 538 0 
L 538 4863 
L 1656 4863 
L 1656 2988 
Q 1909 3294 2193 3439 
Q 2478 3584 2822 3584 
Q 3428 3584 3742 3212 
Q 4056 2841 4056 2131 
z
" transform="scale(0.015625)"/>
       <path id="DejaVuSans-Bold-72" d="M 3138 2547 
Q 2991 2616 2845 2648 
Q 2700 2681 2553 2681 
Q 2122 2681 1889 2404 
Q 1656 2128 1656 1613 
L 1656 0 
L 538 0 
L 538 3500 
L 1656 3500 
L 1656 2925 
Q 1872 3269 2151 3426 
Q 2431 3584 2822 3584 
Q 2878 3584 2943 3579 
Q 3009 3575 3134 3559 
L 3138 2547 
z
" transform="scale(0.015625)"/>
       <path id="DejaVuSans-Bold-5d" d="M 2375 -844 
L 434 -844 
L 434 -141 
L 1313 -141 
L 1313 4159 
L 434 4159 
L 434 4863 
L 2375 4863 
L 2375 -844 
z
" transform="scale(0.015625)"/>
      </defs>
      <use xlink:href="#DejaVuSans-Bold-74"/>
      <use xlink:href="#DejaVuSans-Bold-69" transform="translate(47.802734 0)"/>
      <use xlink:href="#DejaVuSans-Bold-6d" transform="translate(82.080078 0)"/>
      <use xlink:href="#DejaVuSans-Bold-65" transform="translate(186.279297 0)"/>
      <use xlink:href="#DejaVuSans-Bold-20" transform="translate(254.101562 0)"/>
      <use xlink:href="#DejaVuSans-Bold-5b" transform="translate(288.916016 0)"/>
      <use xlink:href="#DejaVuSans-Bold-68" transform="translate(334.619141 0)"/>
      <use xlink:href="#DejaVuSans-Bold-72" transform="translate(405.810547 0)"/>
      <use xlink:href="#DejaVuSans-Bold-5d" transform="translate(455.126953 0)"/>
     </g>
    </g>
   </g>
   <g id="matplotlib.axis_2">
    <g id="ytick_1">
     <g id="line2d_8">
      <defs>
       <path id="m1ffa33756c" d="M 0 0 
L -3.5 0 
" style="stroke: #000000; stroke-width: 0.8"/>
      </defs>
      <g>
       <use xlink:href="#m1ffa33756c" x="45.305" y="309.286957" style="stroke: #000000; stroke-width: 0.8"/>
      </g>
     </g>
     <g id="text_9">
      <!-- 0 -->
      <g transform="translate(28.76125 314.985785) scale(0.15 -0.15)">
       <use xlink:href="#DejaVuSans-30"/>
      </g>
     </g>
    </g>
    <g id="ytick_2">
     <g id="line2d_9">
      <g>
       <use xlink:href="#m1ffa33756c" x="45.305" y="255.419614" style="stroke: #000000; stroke-width: 0.8"/>
      </g>
     </g>
     <g id="text_10">
      <!-- 2 -->
      <g transform="translate(28.76125 261.118442) scale(0.15 -0.15)">
       <use xlink:href="#DejaVuSans-32"/>
      </g>
     </g>
    </g>
    <g id="ytick_3">
     <g id="line2d_10">
      <g>
       <use xlink:href="#m1ffa33756c" x="45.305" y="201.552271" style="stroke: #000000; stroke-width: 0.8"/>
      </g>
     </g>
     <g id="text_11">
      <!-- 4 -->
      <g transform="translate(28.76125 207.251099) scale(0.15 -0.15)">
       <defs>
        <path id="DejaVuSans-34" d="M 2419 4116 
L 825 1625 
L 2419 1625 
L 2419 4116 
z
M 2253 4666 
L 3047 4666 
L 3047 1625 
L 3713 1625 
L 3713 1100 
L 3047 1100 
L 3047 0 
L 2419 0 
L 2419 1100 
L 313 1100 
L 313 1709 
L 2253 4666 
z
" transform="scale(0.015625)"/>
       </defs>
       <use xlink:href="#DejaVuSans-34"/>
      </g>
     </g>
    </g>
    <g id="ytick_4">
     <g id="line2d_11">
      <g>
       <use xlink:href="#m1ffa33756c" x="45.305" y="147.684929" style="stroke: #000000; stroke-width: 0.8"/>
      </g>
     </g>
     <g id="text_12">
      <!-- 6 -->
      <g transform="translate(28.76125 153.383757) scale(0.15 -0.15)">
       <defs>
        <path id="DejaVuSans-36" d="M 2113 2584 
Q 1688 2584 1439 2293 
Q 1191 2003 1191 1497 
Q 1191 994 1439 701 
Q 1688 409 2113 409 
Q 2538 409 2786 701 
Q 3034 994 3034 1497 
Q 3034 2003 2786 2293 
Q 2538 2584 2113 2584 
z
M 3366 4563 
L 3366 3988 
Q 3128 4100 2886 4159 
Q 2644 4219 2406 4219 
Q 1781 4219 1451 3797 
Q 1122 3375 1075 2522 
Q 1259 2794 1537 2939 
Q 1816 3084 2150 3084 
Q 2853 3084 3261 2657 
Q 3669 2231 3669 1497 
Q 3669 778 3244 343 
Q 2819 -91 2113 -91 
Q 1303 -91 875 529 
Q 447 1150 447 2328 
Q 447 3434 972 4092 
Q 1497 4750 2381 4750 
Q 2619 4750 2861 4703 
Q 3103 4656 3366 4563 
z
" transform="scale(0.015625)"/>
       </defs>
       <use xlink:href="#DejaVuSans-36"/>
      </g>
     </g>
    </g>
    <g id="ytick_5">
     <g id="line2d_12">
      <g>
       <use xlink:href="#m1ffa33756c" x="45.305" y="93.817586" style="stroke: #000000; stroke-width: 0.8"/>
      </g>
     </g>
     <g id="text_13">
      <!-- 8 -->
      <g transform="translate(28.76125 99.516414) scale(0.15 -0.15)">
       <defs>
        <path id="DejaVuSans-38" d="M 2034 2216 
Q 1584 2216 1326 1975 
Q 1069 1734 1069 1313 
Q 1069 891 1326 650 
Q 1584 409 2034 409 
Q 2484 409 2743 651 
Q 3003 894 3003 1313 
Q 3003 1734 2745 1975 
Q 2488 2216 2034 2216 
z
M 1403 2484 
Q 997 2584 770 2862 
Q 544 3141 544 3541 
Q 544 4100 942 4425 
Q 1341 4750 2034 4750 
Q 2731 4750 3128 4425 
Q 3525 4100 3525 3541 
Q 3525 3141 3298 2862 
Q 3072 2584 2669 2484 
Q 3125 2378 3379 2068 
Q 3634 1759 3634 1313 
Q 3634 634 3220 271 
Q 2806 -91 2034 -91 
Q 1263 -91 848 271 
Q 434 634 434 1313 
Q 434 1759 690 2068 
Q 947 2378 1403 2484 
z
M 1172 3481 
Q 1172 3119 1398 2916 
Q 1625 2713 2034 2713 
Q 2441 2713 2670 2916 
Q 2900 3119 2900 3481 
Q 2900 3844 2670 4047 
Q 2441 4250 2034 4250 
Q 1625 4250 1398 4047 
Q 1172 3844 1172 3481 
z
" transform="scale(0.015625)"/>
       </defs>
       <use xlink:href="#DejaVuSans-38"/>
      </g>
     </g>
    </g>
    <g id="text_14">
     <!-- rapamycin [µM] -->
     <g transform="translate(20.877188 279.759864) rotate(-90) scale(0.18 -0.18)">
      <defs>
       <path id="DejaVuSans-Bold-61" d="M 2106 1575 
Q 1756 1575 1579 1456 
Q 1403 1338 1403 1106 
Q 1403 894 1545 773 
Q 1688 653 1941 653 
Q 2256 653 2472 879 
Q 2688 1106 2688 1447 
L 2688 1575 
L 2106 1575 
z
M 3816 1997 
L 3816 0 
L 2688 0 
L 2688 519 
Q 2463 200 2181 54 
Q 1900 -91 1497 -91 
Q 953 -91 614 226 
Q 275 544 275 1050 
Q 275 1666 698 1953 
Q 1122 2241 2028 2241 
L 2688 2241 
L 2688 2328 
Q 2688 2594 2478 2717 
Q 2269 2841 1825 2841 
Q 1466 2841 1156 2769 
Q 847 2697 581 2553 
L 581 3406 
Q 941 3494 1303 3539 
Q 1666 3584 2028 3584 
Q 2975 3584 3395 3211 
Q 3816 2838 3816 1997 
z
" transform="scale(0.015625)"/>
       <path id="DejaVuSans-Bold-70" d="M 1656 506 
L 1656 -1331 
L 538 -1331 
L 538 3500 
L 1656 3500 
L 1656 2988 
Q 1888 3294 2169 3439 
Q 2450 3584 2816 3584 
Q 3463 3584 3878 3070 
Q 4294 2556 4294 1747 
Q 4294 938 3878 423 
Q 3463 -91 2816 -91 
Q 2450 -91 2169 54 
Q 1888 200 1656 506 
z
M 2400 2772 
Q 2041 2772 1848 2508 
Q 1656 2244 1656 1747 
Q 1656 1250 1848 986 
Q 2041 722 2400 722 
Q 2759 722 2948 984 
Q 3138 1247 3138 1747 
Q 3138 2247 2948 2509 
Q 2759 2772 2400 2772 
z
" transform="scale(0.015625)"/>
       <path id="DejaVuSans-Bold-79" d="M 78 3500 
L 1197 3500 
L 2138 1125 
L 2938 3500 
L 4056 3500 
L 2584 -331 
Q 2363 -916 2067 -1148 
Q 1772 -1381 1288 -1381 
L 641 -1381 
L 641 -647 
L 991 -647 
Q 1275 -647 1404 -556 
Q 1534 -466 1606 -231 
L 1638 -134 
L 78 3500 
z
" transform="scale(0.015625)"/>
       <path id="DejaVuSans-Bold-63" d="M 3366 3391 
L 3366 2478 
Q 3138 2634 2908 2709 
Q 2678 2784 2431 2784 
Q 1963 2784 1702 2511 
Q 1441 2238 1441 1747 
Q 1441 1256 1702 982 
Q 1963 709 2431 709 
Q 2694 709 2930 787 
Q 3166 866 3366 1019 
L 3366 103 
Q 3103 6 2833 -42 
Q 2563 -91 2291 -91 
Q 1344 -91 809 395 
Q 275 881 275 1747 
Q 275 2613 809 3098 
Q 1344 3584 2291 3584 
Q 2566 3584 2833 3536 
Q 3100 3488 3366 3391 
z
" transform="scale(0.015625)"/>
       <path id="DejaVuSans-Bold-6e" d="M 4056 2131 
L 4056 0 
L 2931 0 
L 2931 347 
L 2931 1631 
Q 2931 2084 2911 2256 
Q 2891 2428 2841 2509 
Q 2775 2619 2662 2680 
Q 2550 2741 2406 2741 
Q 2056 2741 1856 2470 
Q 1656 2200 1656 1722 
L 1656 0 
L 538 0 
L 538 3500 
L 1656 3500 
L 1656 2988 
Q 1909 3294 2193 3439 
Q 2478 3584 2822 3584 
Q 3428 3584 3742 3212 
Q 4056 2841 4056 2131 
z
" transform="scale(0.015625)"/>
       <path id="DejaVuSans-Bold-b5" d="M 544 -1338 
L 544 3500 
L 1672 3500 
L 1672 1466 
Q 1672 1103 1828 926 
Q 1984 750 2303 750 
Q 2625 750 2781 926 
Q 2938 1103 2938 1466 
L 2938 3500 
L 4063 3500 
L 4063 1159 
Q 4063 938 4114 850 
Q 4166 763 4288 763 
Q 4344 763 4395 778 
Q 4447 794 4506 831 
L 4506 50 
Q 4341 -22 4195 -56 
Q 4050 -91 3909 -91 
Q 3631 -91 3454 26 
Q 3278 144 3169 403 
Q 3022 156 2811 32 
Q 2600 -91 2322 -91 
Q 2091 -91 1928 -17 
Q 1766 56 1672 206 
L 1672 -1338 
L 544 -1338 
z
" transform="scale(0.015625)"/>
       <path id="DejaVuSans-Bold-4d" d="M 588 4666 
L 2119 4666 
L 3181 2169 
L 4250 4666 
L 5778 4666 
L 5778 0 
L 4641 0 
L 4641 3413 
L 3566 897 
L 2803 897 
L 1728 3413 
L 1728 0 
L 588 0 
L 588 4666 
z
" transform="scale(0.015625)"/>
      </defs>
      <use xlink:href="#DejaVuSans-Bold-72"/>
      <use xlink:href="#DejaVuSans-Bold-61" transform="translate(49.316406 0)"/>
      <use xlink:href="#DejaVuSans-Bold-70" transform="translate(116.796875 0)"/>
      <use xlink:href="#DejaVuSans-Bold-61" transform="translate(188.378906 0)"/>
      <use xlink:href="#DejaVuSans-Bold-6d" transform="translate(255.859375 0)"/>
      <use xlink:href="#DejaVuSans-Bold-79" transform="translate(360.058594 0)"/>
      <use xlink:href="#DejaVuSans-Bold-63" transform="translate(425.244141 0)"/>
      <use xlink:href="#DejaVuSans-Bold-69" transform="translate(484.521484 0)"/>
      <use xlink:href="#DejaVuSans-Bold-6e" transform="translate(518.798828 0)"/>
      <use xlink:href="#DejaVuSans-Bold-20" transform="translate(589.990234 0)"/>
      <use xlink:href="#DejaVuSans-Bold-5b" transform="translate(624.804688 0)"/>
      <use xlink:href="#DejaVuSans-Bold-b5" transform="translate(670.507812 0)"/>
      <use xlink:href="#DejaVuSans-Bold-4d" transform="translate(744.091797 0)"/>
      <use xlink:href="#DejaVuSans-Bold-5d" transform="translate(843.603516 0)"/>
     </g>
    </g>
   </g>
   <g id="LineCollection_1">
    <path clip-path="url(#p719da0bc46)" style="fill: none; stroke: #1f77b4"/>
    <path d="M 64.243182 309.279741 
L 64.243182 309.150689 
" clip-path="url(#p719da0bc46)" style="fill: none; stroke: #1f77b4"/>
    <path d="M 65.426818 309.091876 
L 65.426818 309.044048 
" clip-path="url(#p719da0bc46)" style="fill: none; stroke: #1f77b4"/>
    <path d="M 67.794091 309.042912 
L 67.794091 308.933371 
" clip-path="url(#p719da0bc46)" style="fill: none; stroke: #1f77b4"/>
    <path d="M 70.161364 309.157007 
L 70.161364 308.86395 
" clip-path="url(#p719da0bc46)" style="fill: none; stroke: #1f77b4"/>
    <path d="M 74.895909 309.126205 
L 74.895909 308.990758 
" clip-path="url(#p719da0bc46)" style="fill: none; stroke: #1f77b4"/>
    <path d="M 81.997727 309.142911 
L 81.997727 309.061307 
" clip-path="url(#p719da0bc46)" style="fill: none; stroke: #1f77b4"/>
    <path d="M 91.466818 309.194949 
L 91.466818 309.117425 
" clip-path="url(#p719da0bc46)" style="fill: none; stroke: #1f77b4"/>
    <path d="M 119.874091 309.236607 
L 119.874091 309.176656 
" clip-path="url(#p719da0bc46)" style="fill: none; stroke: #1f77b4"/>
    <path d="M 176.688636 309.251638 
L 176.688636 309.22702 
" clip-path="url(#p719da0bc46)" style="fill: none; stroke: #1f77b4"/>
    <path d="M 233.503182 309.259952 
L 233.503182 309.241129 
" clip-path="url(#p719da0bc46)" style="fill: none; stroke: #1f77b4"/>
    <path d="M 290.317727 309.267504 
L 290.317727 309.251113 
" clip-path="url(#p719da0bc46)" style="fill: none; stroke: #1f77b4"/>
    <path d="M 347.132273 309.270369 
L 347.132273 309.258807 
" clip-path="url(#p719da0bc46)" style="fill: none; stroke: #1f77b4"/>
    <path d="M 403.946818 309.273859 
L 403.946818 309.262823 
" clip-path="url(#p719da0bc46)" style="fill: none; stroke: #1f77b4"/>
   </g>
   <g id="LineCollection_2">
    <path clip-path="url(#p719da0bc46)" style="fill: none; stroke: #d62728"/>
    <path d="M 64.243182 309.268846 
L 64.243182 309.105798 
" clip-path="url(#p719da0bc46)" style="fill: none; stroke: #d62728"/>
    <path d="M 65.426818 309.160436 
L 65.426818 308.923086 
" clip-path="url(#p719da0bc46)" style="fill: none; stroke: #d62728"/>
    <path d="M 67.794091 309.057613 
L 67.794091 308.906589 
" clip-path="url(#p719da0bc46)" style="fill: none; stroke: #d62728"/>
    <path d="M 70.161364 309.133972 
L 70.161364 308.878459 
" clip-path="url(#p719da0bc46)" style="fill: none; stroke: #d62728"/>
    <path d="M 74.895909 309.151089 
L 74.895909 308.949448 
" clip-path="url(#p719da0bc46)" style="fill: none; stroke: #d62728"/>
    <path d="M 81.997727 309.168765 
L 81.997727 309.048281 
" clip-path="url(#p719da0bc46)" style="fill: none; stroke: #d62728"/>
    <path d="M 91.466818 309.205863 
L 91.466818 309.123196 
" clip-path="url(#p719da0bc46)" style="fill: none; stroke: #d62728"/>
    <path d="M 119.874091 309.234659 
L 119.874091 309.188144 
" clip-path="url(#p719da0bc46)" style="fill: none; stroke: #d62728"/>
    <path d="M 176.688636 309.257797 
L 176.688636 309.22395 
" clip-path="url(#p719da0bc46)" style="fill: none; stroke: #d62728"/>
    <path d="M 233.503182 309.263022 
L 233.503182 309.244605 
" clip-path="url(#p719da0bc46)" style="fill: none; stroke: #d62728"/>
    <path d="M 290.317727 309.268396 
L 290.317727 309.251888 
" clip-path="url(#p719da0bc46)" style="fill: none; stroke: #d62728"/>
    <path d="M 347.132273 309.273229 
L 347.132273 309.257295 
" clip-path="url(#p719da0bc46)" style="fill: none; stroke: #d62728"/>
    <path d="M 403.946818 309.273903 
L 403.946818 309.263858 
" clip-path="url(#p719da0bc46)" style="fill: none; stroke: #d62728"/>
   </g>
   <g id="LineCollection_3">
    <path clip-path="url(#p719da0bc46)" style="fill: none; stroke: #2ca02c"/>
    <path d="M 64.243182 309.248153 
L 64.243182 309.098943 
" clip-path="url(#p719da0bc46)" style="fill: none; stroke: #2ca02c"/>
    <path d="M 65.426818 309.137552 
L 65.426818 308.881449 
" clip-path="url(#p719da0bc46)" style="fill: none; stroke: #2ca02c"/>
    <path d="M 67.794091 309.050769 
L 67.794091 308.84529 
" clip-path="url(#p719da0bc46)" style="fill: none; stroke: #2ca02c"/>
    <path d="M 70.161364 309.083088 
L 70.161364 308.905725 
" clip-path="url(#p719da0bc46)" style="fill: none; stroke: #2ca02c"/>
    <path d="M 74.895909 309.115661 
L 74.895909 308.987655 
" clip-path="url(#p719da0bc46)" style="fill: none; stroke: #2ca02c"/>
    <path d="M 81.997727 309.155073 
L 81.997727 309.040337 
" clip-path="url(#p719da0bc46)" style="fill: none; stroke: #2ca02c"/>
    <path d="M 91.466818 309.200024 
L 91.466818 309.112658 
" clip-path="url(#p719da0bc46)" style="fill: none; stroke: #2ca02c"/>
    <path d="M 119.874091 309.236443 
L 119.874091 309.178139 
" clip-path="url(#p719da0bc46)" style="fill: none; stroke: #2ca02c"/>
    <path d="M 176.688636 309.252188 
L 176.688636 309.2301 
" clip-path="url(#p719da0bc46)" style="fill: none; stroke: #2ca02c"/>
    <path d="M 233.503182 309.263698 
L 233.503182 309.240323 
" clip-path="url(#p719da0bc46)" style="fill: none; stroke: #2ca02c"/>
    <path d="M 290.317727 309.263765 
L 290.317727 309.253602 
" clip-path="url(#p719da0bc46)" style="fill: none; stroke: #2ca02c"/>
    <path d="M 347.132273 309.270827 
L 347.132273 309.256795 
" clip-path="url(#p719da0bc46)" style="fill: none; stroke: #2ca02c"/>
    <path d="M 403.946818 309.2748 
L 403.946818 309.260769 
" clip-path="url(#p719da0bc46)" style="fill: none; stroke: #2ca02c"/>
   </g>
   <g id="line2d_13">
    <path d="M 63.059545 309.286957 
L 63.237091 286.678222 
L 63.769727 132.851505 
L 64.124818 93.229093 
L 64.302364 90.156522 
L 64.479909 94.515254 
L 64.835 116.286458 
L 66.077818 207.988874 
L 66.610455 233.342981 
L 67.143091 250.592696 
L 67.675727 261.981388 
L 68.208364 269.38608 
L 68.741 274.164118 
L 69.273636 277.237477 
L 69.806273 279.213643 
L 70.338909 280.486711 
L 70.871545 281.310269 
L 71.581727 281.981042 
L 72.469455 282.436665 
L 73.534727 282.713071 
L 75.487727 282.944664 
L 81.524273 283.318184 
L 123.425 285.594554 
L 168.521545 287.822313 
L 215.926182 289.938966 
L 265.816455 291.941871 
L 318.547455 293.834155 
L 374.474273 295.61628 
L 418.150455 296.863997 
L 418.150455 296.863997 
" clip-path="url(#p719da0bc46)" style="fill: none; stroke: #1f77b4; stroke-width: 2; stroke-linecap: square"/>
   </g>
   <g id="line2d_14">
    <path d="M 64.243182 309.215215 
L 65.426818 309.067962 
L 67.794091 308.988141 
L 70.161364 309.010479 
L 74.895909 309.058482 
L 81.997727 309.102109 
L 91.466818 309.156187 
L 119.874091 309.206632 
L 176.688636 309.239329 
L 233.503182 309.250541 
L 290.317727 309.259309 
L 347.132273 309.264588 
L 403.946818 309.268341 
" clip-path="url(#p719da0bc46)" style="fill: none; stroke-dasharray: 3.7,1.6; stroke-dashoffset: 0; stroke: #1f77b4"/>
    <defs>
     <path id="me948434b48" d="M -3 3 
L 3 3 
L 3 -3 
L -3 -3 
z
" style="stroke: #000000; stroke-linejoin: miter"/>
    </defs>
    <g clip-path="url(#p719da0bc46)">
     <use xlink:href="#me948434b48" x="64.243182" y="309.215215" style="fill: #1f77b4; stroke: #000000; stroke-linejoin: miter"/>
     <use xlink:href="#me948434b48" x="65.426818" y="309.067962" style="fill: #1f77b4; stroke: #000000; stroke-linejoin: miter"/>
     <use xlink:href="#me948434b48" x="67.794091" y="308.988141" style="fill: #1f77b4; stroke: #000000; stroke-linejoin: miter"/>
     <use xlink:href="#me948434b48" x="70.161364" y="309.010479" style="fill: #1f77b4; stroke: #000000; stroke-linejoin: miter"/>
     <use xlink:href="#me948434b48" x="74.895909" y="309.058482" style="fill: #1f77b4; stroke: #000000; stroke-linejoin: miter"/>
     <use xlink:href="#me948434b48" x="81.997727" y="309.102109" style="fill: #1f77b4; stroke: #000000; stroke-linejoin: miter"/>
     <use xlink:href="#me948434b48" x="91.466818" y="309.156187" style="fill: #1f77b4; stroke: #000000; stroke-linejoin: miter"/>
     <use xlink:href="#me948434b48" x="119.874091" y="309.206632" style="fill: #1f77b4; stroke: #000000; stroke-linejoin: miter"/>
     <use xlink:href="#me948434b48" x="176.688636" y="309.239329" style="fill: #1f77b4; stroke: #000000; stroke-linejoin: miter"/>
     <use xlink:href="#me948434b48" x="233.503182" y="309.250541" style="fill: #1f77b4; stroke: #000000; stroke-linejoin: miter"/>
     <use xlink:href="#me948434b48" x="290.317727" y="309.259309" style="fill: #1f77b4; stroke: #000000; stroke-linejoin: miter"/>
     <use xlink:href="#me948434b48" x="347.132273" y="309.264588" style="fill: #1f77b4; stroke: #000000; stroke-linejoin: miter"/>
     <use xlink:href="#me948434b48" x="403.946818" y="309.268341" style="fill: #1f77b4; stroke: #000000; stroke-linejoin: miter"/>
    </g>
   </g>
   <g id="line2d_15">
    <path d="M 63.059545 309.286957 
L 63.237091 286.678222 
L 63.769727 132.851505 
L 64.124818 93.229093 
L 64.302364 90.156522 
L 64.479909 94.515254 
L 64.835 116.286458 
L 66.077818 207.988874 
L 66.610455 233.342981 
L 67.143091 250.592696 
L 67.675727 261.981388 
L 68.208364 269.38608 
L 68.741 274.164118 
L 69.273636 277.237477 
L 69.806273 279.213643 
L 70.338909 280.486711 
L 70.871545 281.310269 
L 71.581727 281.981042 
L 72.469455 282.436665 
L 73.534727 282.713071 
L 75.487727 282.944664 
L 81.524273 283.318184 
L 123.425 285.594554 
L 168.521545 287.822313 
L 215.926182 289.938966 
L 265.816455 291.941871 
L 318.547455 293.834155 
L 374.474273 295.61628 
L 418.150455 296.863997 
L 418.150455 296.863997 
" clip-path="url(#p719da0bc46)" style="fill: none; stroke: #d62728; stroke-width: 2; stroke-linecap: square"/>
   </g>
   <g id="line2d_16">
    <path d="M 64.243182 309.187322 
L 65.426818 309.041761 
L 67.794091 308.982101 
L 70.161364 309.006215 
L 74.895909 309.050269 
L 81.997727 309.108523 
L 91.466818 309.16453 
L 119.874091 309.211401 
L 176.688636 309.240873 
L 233.503182 309.253813 
L 290.317727 309.260142 
L 347.132273 309.265262 
L 403.946818 309.268881 
" clip-path="url(#p719da0bc46)" style="fill: none; stroke-dasharray: 3.7,1.6; stroke-dashoffset: 0; stroke: #d62728"/>
    <defs>
     <path id="m3a596068aa" d="M -3 3 
L 3 3 
L 3 -3 
L -3 -3 
z
" style="stroke: #000000; stroke-linejoin: miter"/>
    </defs>
    <g clip-path="url(#p719da0bc46)">
     <use xlink:href="#m3a596068aa" x="64.243182" y="309.187322" style="fill: #d62728; stroke: #000000; stroke-linejoin: miter"/>
     <use xlink:href="#m3a596068aa" x="65.426818" y="309.041761" style="fill: #d62728; stroke: #000000; stroke-linejoin: miter"/>
     <use xlink:href="#m3a596068aa" x="67.794091" y="308.982101" style="fill: #d62728; stroke: #000000; stroke-linejoin: miter"/>
     <use xlink:href="#m3a596068aa" x="70.161364" y="309.006215" style="fill: #d62728; stroke: #000000; stroke-linejoin: miter"/>
     <use xlink:href="#m3a596068aa" x="74.895909" y="309.050269" style="fill: #d62728; stroke: #000000; stroke-linejoin: miter"/>
     <use xlink:href="#m3a596068aa" x="81.997727" y="309.108523" style="fill: #d62728; stroke: #000000; stroke-linejoin: miter"/>
     <use xlink:href="#m3a596068aa" x="91.466818" y="309.16453" style="fill: #d62728; stroke: #000000; stroke-linejoin: miter"/>
     <use xlink:href="#m3a596068aa" x="119.874091" y="309.211401" style="fill: #d62728; stroke: #000000; stroke-linejoin: miter"/>
     <use xlink:href="#m3a596068aa" x="176.688636" y="309.240873" style="fill: #d62728; stroke: #000000; stroke-linejoin: miter"/>
     <use xlink:href="#m3a596068aa" x="233.503182" y="309.253813" style="fill: #d62728; stroke: #000000; stroke-linejoin: miter"/>
     <use xlink:href="#m3a596068aa" x="290.317727" y="309.260142" style="fill: #d62728; stroke: #000000; stroke-linejoin: miter"/>
     <use xlink:href="#m3a596068aa" x="347.132273" y="309.265262" style="fill: #d62728; stroke: #000000; stroke-linejoin: miter"/>
     <use xlink:href="#m3a596068aa" x="403.946818" y="309.268881" style="fill: #d62728; stroke: #000000; stroke-linejoin: miter"/>
    </g>
   </g>
   <g id="line2d_17">
    <path d="M 63.059545 309.286957 
L 63.237091 286.678222 
L 63.769727 132.851505 
L 64.124818 93.229093 
L 64.302364 90.156522 
L 64.479909 94.515254 
L 64.835 116.286458 
L 66.077818 207.988874 
L 66.610455 233.342981 
L 67.143091 250.592696 
L 67.675727 261.981388 
L 68.208364 269.38608 
L 68.741 274.164118 
L 69.273636 277.237477 
L 69.806273 279.213643 
L 70.338909 280.486711 
L 70.871545 281.310269 
L 71.581727 281.981042 
L 72.469455 282.436665 
L 73.534727 282.713071 
L 75.487727 282.944664 
L 81.524273 283.318184 
L 123.425 285.594554 
L 168.521545 287.822313 
L 215.926182 289.938966 
L 265.816455 291.941871 
L 318.547455 293.834155 
L 374.474273 295.61628 
L 418.150455 296.863997 
L 418.150455 296.863997 
" clip-path="url(#p719da0bc46)" style="fill: none; stroke: #2ca02c; stroke-width: 2; stroke-linecap: square"/>
   </g>
   <g id="line2d_18">
    <path d="M 64.243182 309.173548 
L 65.426818 309.009501 
L 67.794091 308.94803 
L 70.161364 308.994406 
L 74.895909 309.051658 
L 81.997727 309.097705 
L 91.466818 309.156341 
L 119.874091 309.207291 
L 176.688636 309.241144 
L 233.503182 309.25201 
L 290.317727 309.258683 
L 347.132273 309.263811 
L 403.946818 309.267785 
" clip-path="url(#p719da0bc46)" style="fill: none; stroke-dasharray: 3.7,1.6; stroke-dashoffset: 0; stroke: #2ca02c"/>
    <defs>
     <path id="mb8dc1650e7" d="M -3 3 
L 3 3 
L 3 -3 
L -3 -3 
z
" style="stroke: #000000; stroke-linejoin: miter"/>
    </defs>
    <g clip-path="url(#p719da0bc46)">
     <use xlink:href="#mb8dc1650e7" x="64.243182" y="309.173548" style="fill: #2ca02c; stroke: #000000; stroke-linejoin: miter"/>
     <use xlink:href="#mb8dc1650e7" x="65.426818" y="309.009501" style="fill: #2ca02c; stroke: #000000; stroke-linejoin: miter"/>
     <use xlink:href="#mb8dc1650e7" x="67.794091" y="308.94803" style="fill: #2ca02c; stroke: #000000; stroke-linejoin: miter"/>
     <use xlink:href="#mb8dc1650e7" x="70.161364" y="308.994406" style="fill: #2ca02c; stroke: #000000; stroke-linejoin: miter"/>
     <use xlink:href="#mb8dc1650e7" x="74.895909" y="309.051658" style="fill: #2ca02c; stroke: #000000; stroke-linejoin: miter"/>
     <use xlink:href="#mb8dc1650e7" x="81.997727" y="309.097705" style="fill: #2ca02c; stroke: #000000; stroke-linejoin: miter"/>
     <use xlink:href="#mb8dc1650e7" x="91.466818" y="309.156341" style="fill: #2ca02c; stroke: #000000; stroke-linejoin: miter"/>
     <use xlink:href="#mb8dc1650e7" x="119.874091" y="309.207291" style="fill: #2ca02c; stroke: #000000; stroke-linejoin: miter"/>
     <use xlink:href="#mb8dc1650e7" x="176.688636" y="309.241144" style="fill: #2ca02c; stroke: #000000; stroke-linejoin: miter"/>
     <use xlink:href="#mb8dc1650e7" x="233.503182" y="309.25201" style="fill: #2ca02c; stroke: #000000; stroke-linejoin: miter"/>
     <use xlink:href="#mb8dc1650e7" x="290.317727" y="309.258683" style="fill: #2ca02c; stroke: #000000; stroke-linejoin: miter"/>
     <use xlink:href="#mb8dc1650e7" x="347.132273" y="309.263811" style="fill: #2ca02c; stroke: #000000; stroke-linejoin: miter"/>
     <use xlink:href="#mb8dc1650e7" x="403.946818" y="309.267785" style="fill: #2ca02c; stroke: #000000; stroke-linejoin: miter"/>
    </g>
   </g>
   <g id="patch_3">
    <path d="M 45.305 320.243478 
L 45.305 79.2 
" style="fill: none; stroke: #000000; stroke-width: 0.8; stroke-linejoin: miter; stroke-linecap: square"/>
   </g>
   <g id="patch_4">
    <path d="M 435.905 320.243478 
L 435.905 79.2 
" style="fill: none; stroke: #000000; stroke-width: 0.8; stroke-linejoin: miter; stroke-linecap: square"/>
   </g>
   <g id="patch_5">
    <path d="M 45.305 320.243478 
L 435.905 320.243478 
" style="fill: none; stroke: #000000; stroke-width: 0.8; stroke-linejoin: miter; stroke-linecap: square"/>
   </g>
   <g id="patch_6">
    <path d="M 45.305 79.2 
L 435.905 79.2 
" style="fill: none; stroke: #000000; stroke-width: 0.8; stroke-linejoin: miter; stroke-linecap: square"/>
   </g>
   <g id="legend_1">
    <g id="patch_7">
     <path d="M 458.529 176.9375 
L 595.9915 176.9375 
Q 597.9915 176.9375 597.9915 174.9375 
L 597.9915 86.2 
Q 597.9915 84.2 595.9915 84.2 
L 458.529 84.2 
Q 456.529 84.2 456.529 86.2 
L 456.529 174.9375 
Q 456.529 176.9375 458.529 176.9375 
z
" style="fill: #ffffff; opacity: 0.8; stroke: #cccccc; stroke-linejoin: miter"/>
    </g>
    <g id="line2d_19">
     <path d="M 460.529 92.298437 
L 480.529 92.298437 
" style="fill: none; stroke: #1f77b4; stroke-width: 2; stroke-linecap: square"/>
    </g>
    <g id="line2d_20"/>
    <g id="text_15">
     <!-- RAP_T5 -->
     <g transform="translate(488.529 95.798437) scale(0.1 -0.1)">
      <defs>
       <path id="DejaVuSans-52" d="M 2841 2188 
Q 3044 2119 3236 1894 
Q 3428 1669 3622 1275 
L 4263 0 
L 3584 0 
L 2988 1197 
Q 2756 1666 2539 1819 
Q 2322 1972 1947 1972 
L 1259 1972 
L 1259 0 
L 628 0 
L 628 4666 
L 2053 4666 
Q 2853 4666 3247 4331 
Q 3641 3997 3641 3322 
Q 3641 2881 3436 2590 
Q 3231 2300 2841 2188 
z
M 1259 4147 
L 1259 2491 
L 2053 2491 
Q 2509 2491 2742 2702 
Q 2975 2913 2975 3322 
Q 2975 3731 2742 3939 
Q 2509 4147 2053 4147 
L 1259 4147 
z
" transform="scale(0.015625)"/>
       <path id="DejaVuSans-41" d="M 2188 4044 
L 1331 1722 
L 3047 1722 
L 2188 4044 
z
M 1831 4666 
L 2547 4666 
L 4325 0 
L 3669 0 
L 3244 1197 
L 1141 1197 
L 716 0 
L 50 0 
L 1831 4666 
z
" transform="scale(0.015625)"/>
       <path id="DejaVuSans-50" d="M 1259 4147 
L 1259 2394 
L 2053 2394 
Q 2494 2394 2734 2622 
Q 2975 2850 2975 3272 
Q 2975 3691 2734 3919 
Q 2494 4147 2053 4147 
L 1259 4147 
z
M 628 4666 
L 2053 4666 
Q 2838 4666 3239 4311 
Q 3641 3956 3641 3272 
Q 3641 2581 3239 2228 
Q 2838 1875 2053 1875 
L 1259 1875 
L 1259 0 
L 628 0 
L 628 4666 
z
" transform="scale(0.015625)"/>
       <path id="DejaVuSans-5f" d="M 3263 -1063 
L 3263 -1509 
L -63 -1509 
L -63 -1063 
L 3263 -1063 
z
" transform="scale(0.015625)"/>
       <path id="DejaVuSans-54" d="M -19 4666 
L 3928 4666 
L 3928 4134 
L 2272 4134 
L 2272 0 
L 1638 0 
L 1638 4134 
L -19 4134 
L -19 4666 
z
" transform="scale(0.015625)"/>
      </defs>
      <use xlink:href="#DejaVuSans-52"/>
      <use xlink:href="#DejaVuSans-41" transform="translate(65.482422 0)"/>
      <use xlink:href="#DejaVuSans-50" transform="translate(133.890625 0)"/>
      <use xlink:href="#DejaVuSans-5f" transform="translate(194.193359 0)"/>
      <use xlink:href="#DejaVuSans-54" transform="translate(244.193359 0)"/>
      <use xlink:href="#DejaVuSans-35" transform="translate(305.277344 0)"/>
     </g>
    </g>
    <g id="LineCollection_4">
     <path d="M 470.529 112.254687 
L 470.529 102.254687 
" style="fill: none; stroke: #1f77b4"/>
    </g>
    <g id="line2d_21">
     <path d="M 460.529 107.254687 
L 480.529 107.254687 
" style="fill: none; stroke-dasharray: 3.7,1.6; stroke-dashoffset: 0; stroke: #1f77b4"/>
    </g>
    <g id="line2d_22">
     <g>
      <use xlink:href="#me948434b48" x="470.529" y="107.254687" style="fill: #1f77b4; stroke: #000000; stroke-linejoin: miter"/>
     </g>
    </g>
    <g id="text_16">
     <!-- RAP_T5±SD (n=26) -->
     <g transform="translate(488.529 110.754687) scale(0.1 -0.1)">
      <defs>
       <path id="DejaVuSans-b1" d="M 2944 4013 
L 2944 2803 
L 4684 2803 
L 4684 2272 
L 2944 2272 
L 2944 1063 
L 2419 1063 
L 2419 2272 
L 678 2272 
L 678 2803 
L 2419 2803 
L 2419 4013 
L 2944 4013 
z
M 678 531 
L 4684 531 
L 4684 0 
L 678 0 
L 678 531 
z
" transform="scale(0.015625)"/>
       <path id="DejaVuSans-53" d="M 3425 4513 
L 3425 3897 
Q 3066 4069 2747 4153 
Q 2428 4238 2131 4238 
Q 1616 4238 1336 4038 
Q 1056 3838 1056 3469 
Q 1056 3159 1242 3001 
Q 1428 2844 1947 2747 
L 2328 2669 
Q 3034 2534 3370 2195 
Q 3706 1856 3706 1288 
Q 3706 609 3251 259 
Q 2797 -91 1919 -91 
Q 1588 -91 1214 -16 
Q 841 59 441 206 
L 441 856 
Q 825 641 1194 531 
Q 1563 422 1919 422 
Q 2459 422 2753 634 
Q 3047 847 3047 1241 
Q 3047 1584 2836 1778 
Q 2625 1972 2144 2069 
L 1759 2144 
Q 1053 2284 737 2584 
Q 422 2884 422 3419 
Q 422 4038 858 4394 
Q 1294 4750 2059 4750 
Q 2388 4750 2728 4690 
Q 3069 4631 3425 4513 
z
" transform="scale(0.015625)"/>
       <path id="DejaVuSans-44" d="M 1259 4147 
L 1259 519 
L 2022 519 
Q 2988 519 3436 956 
Q 3884 1394 3884 2338 
Q 3884 3275 3436 3711 
Q 2988 4147 2022 4147 
L 1259 4147 
z
M 628 4666 
L 1925 4666 
Q 3281 4666 3915 4102 
Q 4550 3538 4550 2338 
Q 4550 1131 3912 565 
Q 3275 0 1925 0 
L 628 0 
L 628 4666 
z
" transform="scale(0.015625)"/>
       <path id="DejaVuSans-20" transform="scale(0.015625)"/>
       <path id="DejaVuSans-28" d="M 1984 4856 
Q 1566 4138 1362 3434 
Q 1159 2731 1159 2009 
Q 1159 1288 1364 580 
Q 1569 -128 1984 -844 
L 1484 -844 
Q 1016 -109 783 600 
Q 550 1309 550 2009 
Q 550 2706 781 3412 
Q 1013 4119 1484 4856 
L 1984 4856 
z
" transform="scale(0.015625)"/>
       <path id="DejaVuSans-6e" d="M 3513 2113 
L 3513 0 
L 2938 0 
L 2938 2094 
Q 2938 2591 2744 2837 
Q 2550 3084 2163 3084 
Q 1697 3084 1428 2787 
Q 1159 2491 1159 1978 
L 1159 0 
L 581 0 
L 581 3500 
L 1159 3500 
L 1159 2956 
Q 1366 3272 1645 3428 
Q 1925 3584 2291 3584 
Q 2894 3584 3203 3211 
Q 3513 2838 3513 2113 
z
" transform="scale(0.015625)"/>
       <path id="DejaVuSans-3d" d="M 678 2906 
L 4684 2906 
L 4684 2381 
L 678 2381 
L 678 2906 
z
M 678 1631 
L 4684 1631 
L 4684 1100 
L 678 1100 
L 678 1631 
z
" transform="scale(0.015625)"/>
       <path id="DejaVuSans-29" d="M 513 4856 
L 1013 4856 
Q 1481 4119 1714 3412 
Q 1947 2706 1947 2009 
Q 1947 1309 1714 600 
Q 1481 -109 1013 -844 
L 513 -844 
Q 928 -128 1133 580 
Q 1338 1288 1338 2009 
Q 1338 2731 1133 3434 
Q 928 4138 513 4856 
z
" transform="scale(0.015625)"/>
      </defs>
      <use xlink:href="#DejaVuSans-52"/>
      <use xlink:href="#DejaVuSans-41" transform="translate(65.482422 0)"/>
      <use xlink:href="#DejaVuSans-50" transform="translate(133.890625 0)"/>
      <use xlink:href="#DejaVuSans-5f" transform="translate(194.193359 0)"/>
      <use xlink:href="#DejaVuSans-54" transform="translate(244.193359 0)"/>
      <use xlink:href="#DejaVuSans-35" transform="translate(305.277344 0)"/>
      <use xlink:href="#DejaVuSans-b1" transform="translate(368.900391 0)"/>
      <use xlink:href="#DejaVuSans-53" transform="translate(452.689453 0)"/>
      <use xlink:href="#DejaVuSans-44" transform="translate(516.166016 0)"/>
      <use xlink:href="#DejaVuSans-20" transform="translate(593.167969 0)"/>
      <use xlink:href="#DejaVuSans-28" transform="translate(624.955078 0)"/>
      <use xlink:href="#DejaVuSans-6e" transform="translate(663.96875 0)"/>
      <use xlink:href="#DejaVuSans-3d" transform="translate(727.347656 0)"/>
      <use xlink:href="#DejaVuSans-32" transform="translate(811.136719 0)"/>
      <use xlink:href="#DejaVuSans-36" transform="translate(874.759766 0)"/>
      <use xlink:href="#DejaVuSans-29" transform="translate(938.382812 0)"/>
     </g>
    </g>
    <g id="line2d_23">
     <path d="M 460.529 122.210938 
L 480.529 122.210938 
" style="fill: none; stroke: #d62728; stroke-width: 2; stroke-linecap: square"/>
    </g>
    <g id="line2d_24"/>
    <g id="text_17">
     <!-- RAP_NS5 -->
     <g transform="translate(488.529 125.710938) scale(0.1 -0.1)">
      <defs>
       <path id="DejaVuSans-4e" d="M 628 4666 
L 1478 4666 
L 3547 763 
L 3547 4666 
L 4159 4666 
L 4159 0 
L 3309 0 
L 1241 3903 
L 1241 0 
L 628 0 
L 628 4666 
z
" transform="scale(0.015625)"/>
      </defs>
      <use xlink:href="#DejaVuSans-52"/>
      <use xlink:href="#DejaVuSans-41" transform="translate(65.482422 0)"/>
      <use xlink:href="#DejaVuSans-50" transform="translate(133.890625 0)"/>
      <use xlink:href="#DejaVuSans-5f" transform="translate(194.193359 0)"/>
      <use xlink:href="#DejaVuSans-4e" transform="translate(244.193359 0)"/>
      <use xlink:href="#DejaVuSans-53" transform="translate(318.998047 0)"/>
      <use xlink:href="#DejaVuSans-35" transform="translate(382.474609 0)"/>
     </g>
    </g>
    <g id="LineCollection_5">
     <path d="M 470.529 142.167187 
L 470.529 132.167187 
" style="fill: none; stroke: #d62728"/>
    </g>
    <g id="line2d_25">
     <path d="M 460.529 137.167187 
L 480.529 137.167187 
" style="fill: none; stroke-dasharray: 3.7,1.6; stroke-dashoffset: 0; stroke: #d62728"/>
    </g>
    <g id="line2d_26">
     <g>
      <use xlink:href="#m3a596068aa" x="470.529" y="137.167187" style="fill: #d62728; stroke: #000000; stroke-linejoin: miter"/>
     </g>
    </g>
    <g id="text_18">
     <!-- RAP_NS5±SD (n=29) -->
     <g transform="translate(488.529 140.667187) scale(0.1 -0.1)">
      <defs>
       <path id="DejaVuSans-39" d="M 703 97 
L 703 672 
Q 941 559 1184 500 
Q 1428 441 1663 441 
Q 2288 441 2617 861 
Q 2947 1281 2994 2138 
Q 2813 1869 2534 1725 
Q 2256 1581 1919 1581 
Q 1219 1581 811 2004 
Q 403 2428 403 3163 
Q 403 3881 828 4315 
Q 1253 4750 1959 4750 
Q 2769 4750 3195 4129 
Q 3622 3509 3622 2328 
Q 3622 1225 3098 567 
Q 2575 -91 1691 -91 
Q 1453 -91 1209 -44 
Q 966 3 703 97 
z
M 1959 2075 
Q 2384 2075 2632 2365 
Q 2881 2656 2881 3163 
Q 2881 3666 2632 3958 
Q 2384 4250 1959 4250 
Q 1534 4250 1286 3958 
Q 1038 3666 1038 3163 
Q 1038 2656 1286 2365 
Q 1534 2075 1959 2075 
z
" transform="scale(0.015625)"/>
      </defs>
      <use xlink:href="#DejaVuSans-52"/>
      <use xlink:href="#DejaVuSans-41" transform="translate(65.482422 0)"/>
      <use xlink:href="#DejaVuSans-50" transform="translate(133.890625 0)"/>
      <use xlink:href="#DejaVuSans-5f" transform="translate(194.193359 0)"/>
      <use xlink:href="#DejaVuSans-4e" transform="translate(244.193359 0)"/>
      <use xlink:href="#DejaVuSans-53" transform="translate(318.998047 0)"/>
      <use xlink:href="#DejaVuSans-35" transform="translate(382.474609 0)"/>
      <use xlink:href="#DejaVuSans-b1" transform="translate(446.097656 0)"/>
      <use xlink:href="#DejaVuSans-53" transform="translate(529.886719 0)"/>
      <use xlink:href="#DejaVuSans-44" transform="translate(593.363281 0)"/>
      <use xlink:href="#DejaVuSans-20" transform="translate(670.365234 0)"/>
      <use xlink:href="#DejaVuSans-28" transform="translate(702.152344 0)"/>
      <use xlink:href="#DejaVuSans-6e" transform="translate(741.166016 0)"/>
      <use xlink:href="#DejaVuSans-3d" transform="translate(804.544922 0)"/>
      <use xlink:href="#DejaVuSans-32" transform="translate(888.333984 0)"/>
      <use xlink:href="#DejaVuSans-39" transform="translate(951.957031 0)"/>
      <use xlink:href="#DejaVuSans-29" transform="translate(1015.580078 0)"/>
     </g>
    </g>
    <g id="line2d_27">
     <path d="M 460.529 152.123438 
L 480.529 152.123438 
" style="fill: none; stroke: #2ca02c; stroke-width: 2; stroke-linecap: square"/>
    </g>
    <g id="line2d_28"/>
    <g id="text_19">
     <!-- RAP_S5 -->
     <g transform="translate(488.529 155.623438) scale(0.1 -0.1)">
      <use xlink:href="#DejaVuSans-52"/>
      <use xlink:href="#DejaVuSans-41" transform="translate(65.482422 0)"/>
      <use xlink:href="#DejaVuSans-50" transform="translate(133.890625 0)"/>
      <use xlink:href="#DejaVuSans-5f" transform="translate(194.193359 0)"/>
      <use xlink:href="#DejaVuSans-53" transform="translate(244.193359 0)"/>
      <use xlink:href="#DejaVuSans-35" transform="translate(307.669922 0)"/>
     </g>
    </g>
    <g id="LineCollection_6">
     <path d="M 470.529 172.079687 
L 470.529 162.079687 
" style="fill: none; stroke: #2ca02c"/>
    </g>
    <g id="line2d_29">
     <path d="M 460.529 167.079687 
L 480.529 167.079687 
" style="fill: none; stroke-dasharray: 3.7,1.6; stroke-dashoffset: 0; stroke: #2ca02c"/>
    </g>
    <g id="line2d_30">
     <g>
      <use xlink:href="#mb8dc1650e7" x="470.529" y="167.079687" style="fill: #2ca02c; stroke: #000000; stroke-linejoin: miter"/>
     </g>
    </g>
    <g id="text_20">
     <!-- RAP_S5±SD (n=25) -->
     <g transform="translate(488.529 170.579687) scale(0.1 -0.1)">
      <use xlink:href="#DejaVuSans-52"/>
      <use xlink:href="#DejaVuSans-41" transform="translate(65.482422 0)"/>
      <use xlink:href="#DejaVuSans-50" transform="translate(133.890625 0)"/>
      <use xlink:href="#DejaVuSans-5f" transform="translate(194.193359 0)"/>
      <use xlink:href="#DejaVuSans-53" transform="translate(244.193359 0)"/>
      <use xlink:href="#DejaVuSans-35" transform="translate(307.669922 0)"/>
      <use xlink:href="#DejaVuSans-b1" transform="translate(371.292969 0)"/>
      <use xlink:href="#DejaVuSans-53" transform="translate(455.082031 0)"/>
      <use xlink:href="#DejaVuSans-44" transform="translate(518.558594 0)"/>
      <use xlink:href="#DejaVuSans-20" transform="translate(595.560547 0)"/>
      <use xlink:href="#DejaVuSans-28" transform="translate(627.347656 0)"/>
      <use xlink:href="#DejaVuSans-6e" transform="translate(666.361328 0)"/>
      <use xlink:href="#DejaVuSans-3d" transform="translate(729.740234 0)"/>
      <use xlink:href="#DejaVuSans-32" transform="translate(813.529297 0)"/>
      <use xlink:href="#DejaVuSans-35" transform="translate(877.152344 0)"/>
      <use xlink:href="#DejaVuSans-29" transform="translate(940.775391 0)"/>
     </g>
    </g>
   </g>
  </g>
  <g id="axes_2">
   <g id="patch_8">
    <path d="M 45.305 633.6 
L 435.905 633.6 
L 435.905 392.556522 
L 45.305 392.556522 
z
" style="fill: #ffffff"/>
   </g>
   <g id="matplotlib.axis_3">
    <g id="xtick_8">
     <g id="line2d_31">
      <g>
       <use xlink:href="#m84b4bfeea9" x="53.276429" y="633.6" style="stroke: #000000; stroke-width: 0.8"/>
      </g>
     </g>
     <g id="text_21">
      <!-- 0 -->
      <g transform="translate(48.504554 651.997656) scale(0.15 -0.15)">
       <use xlink:href="#DejaVuSans-30"/>
      </g>
     </g>
    </g>
    <g id="xtick_9">
     <g id="line2d_32">
      <g>
       <use xlink:href="#m84b4bfeea9" x="132.990714" y="633.6" style="stroke: #000000; stroke-width: 0.8"/>
      </g>
     </g>
     <g id="text_22">
      <!-- 10 -->
      <g transform="translate(123.446964 651.997656) scale(0.15 -0.15)">
       <use xlink:href="#DejaVuSans-31"/>
       <use xlink:href="#DejaVuSans-30" transform="translate(63.623047 0)"/>
      </g>
     </g>
    </g>
    <g id="xtick_10">
     <g id="line2d_33">
      <g>
       <use xlink:href="#m84b4bfeea9" x="212.705" y="633.6" style="stroke: #000000; stroke-width: 0.8"/>
      </g>
     </g>
     <g id="text_23">
      <!-- 20 -->
      <g transform="translate(203.16125 651.997656) scale(0.15 -0.15)">
       <use xlink:href="#DejaVuSans-32"/>
       <use xlink:href="#DejaVuSans-30" transform="translate(63.623047 0)"/>
      </g>
     </g>
    </g>
    <g id="xtick_11">
     <g id="line2d_34">
      <g>
       <use xlink:href="#m84b4bfeea9" x="292.419286" y="633.6" style="stroke: #000000; stroke-width: 0.8"/>
      </g>
     </g>
     <g id="text_24">
      <!-- 30 -->
      <g transform="translate(282.875536 651.997656) scale(0.15 -0.15)">
       <defs>
        <path id="DejaVuSans-33" d="M 2597 2516 
Q 3050 2419 3304 2112 
Q 3559 1806 3559 1356 
Q 3559 666 3084 287 
Q 2609 -91 1734 -91 
Q 1441 -91 1130 -33 
Q 819 25 488 141 
L 488 750 
Q 750 597 1062 519 
Q 1375 441 1716 441 
Q 2309 441 2620 675 
Q 2931 909 2931 1356 
Q 2931 1769 2642 2001 
Q 2353 2234 1838 2234 
L 1294 2234 
L 1294 2753 
L 1863 2753 
Q 2328 2753 2575 2939 
Q 2822 3125 2822 3475 
Q 2822 3834 2567 4026 
Q 2313 4219 1838 4219 
Q 1578 4219 1281 4162 
Q 984 4106 628 3988 
L 628 4550 
Q 988 4650 1302 4700 
Q 1616 4750 1894 4750 
Q 2613 4750 3031 4423 
Q 3450 4097 3450 3541 
Q 3450 3153 3228 2886 
Q 3006 2619 2597 2516 
z
" transform="scale(0.015625)"/>
       </defs>
       <use xlink:href="#DejaVuSans-33"/>
       <use xlink:href="#DejaVuSans-30" transform="translate(63.623047 0)"/>
      </g>
     </g>
    </g>
    <g id="xtick_12">
     <g id="line2d_35">
      <g>
       <use xlink:href="#m84b4bfeea9" x="372.133571" y="633.6" style="stroke: #000000; stroke-width: 0.8"/>
      </g>
     </g>
     <g id="text_25">
      <!-- 40 -->
      <g transform="translate(362.589821 651.997656) scale(0.15 -0.15)">
       <use xlink:href="#DejaVuSans-34"/>
       <use xlink:href="#DejaVuSans-30" transform="translate(63.623047 0)"/>
      </g>
     </g>
    </g>
    <g id="text_26">
     <!-- time [hr] -->
     <g transform="translate(195.530469 672.794375) scale(0.18 -0.18)">
      <use xlink:href="#DejaVuSans-Bold-74"/>
      <use xlink:href="#DejaVuSans-Bold-69" transform="translate(47.802734 0)"/>
      <use xlink:href="#DejaVuSans-Bold-6d" transform="translate(82.080078 0)"/>
      <use xlink:href="#DejaVuSans-Bold-65" transform="translate(186.279297 0)"/>
      <use xlink:href="#DejaVuSans-Bold-20" transform="translate(254.101562 0)"/>
      <use xlink:href="#DejaVuSans-Bold-5b" transform="translate(288.916016 0)"/>
      <use xlink:href="#DejaVuSans-Bold-68" transform="translate(334.619141 0)"/>
      <use xlink:href="#DejaVuSans-Bold-72" transform="translate(405.810547 0)"/>
      <use xlink:href="#DejaVuSans-Bold-5d" transform="translate(455.126953 0)"/>
     </g>
    </g>
   </g>
   <g id="matplotlib.axis_4">
    <g id="ytick_6">
     <g id="line2d_36">
      <g>
       <use xlink:href="#m1ffa33756c" x="45.305" y="622.643478" style="stroke: #000000; stroke-width: 0.8"/>
      </g>
     </g>
     <g id="text_27">
      <!-- 0 -->
      <g transform="translate(28.76125 628.342306) scale(0.15 -0.15)">
       <use xlink:href="#DejaVuSans-30"/>
      </g>
     </g>
    </g>
    <g id="ytick_7">
     <g id="line2d_37">
      <g>
       <use xlink:href="#m1ffa33756c" x="45.305" y="568.776136" style="stroke: #000000; stroke-width: 0.8"/>
      </g>
     </g>
     <g id="text_28">
      <!-- 2 -->
      <g transform="translate(28.76125 574.474964) scale(0.15 -0.15)">
       <use xlink:href="#DejaVuSans-32"/>
      </g>
     </g>
    </g>
    <g id="ytick_8">
     <g id="line2d_38">
      <g>
       <use xlink:href="#m1ffa33756c" x="45.305" y="514.908793" style="stroke: #000000; stroke-width: 0.8"/>
      </g>
     </g>
     <g id="text_29">
      <!-- 4 -->
      <g transform="translate(28.76125 520.607621) scale(0.15 -0.15)">
       <use xlink:href="#DejaVuSans-34"/>
      </g>
     </g>
    </g>
    <g id="ytick_9">
     <g id="line2d_39">
      <g>
       <use xlink:href="#m1ffa33756c" x="45.305" y="461.041451" style="stroke: #000000; stroke-width: 0.8"/>
      </g>
     </g>
     <g id="text_30">
      <!-- 6 -->
      <g transform="translate(28.76125 466.740279) scale(0.15 -0.15)">
       <use xlink:href="#DejaVuSans-36"/>
      </g>
     </g>
    </g>
    <g id="ytick_10">
     <g id="line2d_40">
      <g>
       <use xlink:href="#m1ffa33756c" x="45.305" y="407.174108" style="stroke: #000000; stroke-width: 0.8"/>
      </g>
     </g>
     <g id="text_31">
      <!-- 8 -->
      <g transform="translate(28.76125 412.872936) scale(0.15 -0.15)">
       <use xlink:href="#DejaVuSans-38"/>
      </g>
     </g>
    </g>
    <g id="text_32">
     <!-- rapamycin [µM] -->
     <g transform="translate(20.877188 593.116386) rotate(-90) scale(0.18 -0.18)">
      <use xlink:href="#DejaVuSans-Bold-72"/>
      <use xlink:href="#DejaVuSans-Bold-61" transform="translate(49.316406 0)"/>
      <use xlink:href="#DejaVuSans-Bold-70" transform="translate(116.796875 0)"/>
      <use xlink:href="#DejaVuSans-Bold-61" transform="translate(188.378906 0)"/>
      <use xlink:href="#DejaVuSans-Bold-6d" transform="translate(255.859375 0)"/>
      <use xlink:href="#DejaVuSans-Bold-79" transform="translate(360.058594 0)"/>
      <use xlink:href="#DejaVuSans-Bold-63" transform="translate(425.244141 0)"/>
      <use xlink:href="#DejaVuSans-Bold-69" transform="translate(484.521484 0)"/>
      <use xlink:href="#DejaVuSans-Bold-6e" transform="translate(518.798828 0)"/>
      <use xlink:href="#DejaVuSans-Bold-20" transform="translate(589.990234 0)"/>
      <use xlink:href="#DejaVuSans-Bold-5b" transform="translate(624.804688 0)"/>
      <use xlink:href="#DejaVuSans-Bold-b5" transform="translate(670.507812 0)"/>
      <use xlink:href="#DejaVuSans-Bold-4d" transform="translate(744.091797 0)"/>
      <use xlink:href="#DejaVuSans-Bold-5d" transform="translate(843.603516 0)"/>
     </g>
    </g>
   </g>
   <g id="LineCollection_7">
    <path clip-path="url(#p407c18e476)" style="fill: none; stroke: #1f77b4"/>
    <path d="M 57.262143 622.636263 
L 57.262143 622.50721 
" clip-path="url(#p407c18e476)" style="fill: none; stroke: #1f77b4"/>
    <path d="M 61.247857 622.448398 
L 61.247857 622.40057 
" clip-path="url(#p407c18e476)" style="fill: none; stroke: #1f77b4"/>
    <path d="M 69.219286 622.399434 
L 69.219286 622.289892 
" clip-path="url(#p407c18e476)" style="fill: none; stroke: #1f77b4"/>
    <path d="M 77.190714 622.513529 
L 77.190714 622.220472 
" clip-path="url(#p407c18e476)" style="fill: none; stroke: #1f77b4"/>
    <path d="M 93.133571 622.482727 
L 93.133571 622.34728 
" clip-path="url(#p407c18e476)" style="fill: none; stroke: #1f77b4"/>
    <path d="M 117.047857 622.499433 
L 117.047857 622.417828 
" clip-path="url(#p407c18e476)" style="fill: none; stroke: #1f77b4"/>
    <path d="M 148.933571 622.551471 
L 148.933571 622.473946 
" clip-path="url(#p407c18e476)" style="fill: none; stroke: #1f77b4"/>
    <path d="M 244.590714 622.593129 
L 244.590714 622.533178 
" clip-path="url(#p407c18e476)" style="fill: none; stroke: #1f77b4"/>
    <path d="M 435.905 622.60816 
L 435.905 622.583542 
" clip-path="url(#p407c18e476)" style="fill: none; stroke: #1f77b4"/>
    <path clip-path="url(#p407c18e476)" style="fill: none; stroke: #1f77b4"/>
    <path clip-path="url(#p407c18e476)" style="fill: none; stroke: #1f77b4"/>
    <path clip-path="url(#p407c18e476)" style="fill: none; stroke: #1f77b4"/>
    <path clip-path="url(#p407c18e476)" style="fill: none; stroke: #1f77b4"/>
   </g>
   <g id="LineCollection_8">
    <path clip-path="url(#p407c18e476)" style="fill: none; stroke: #d62728"/>
    <path d="M 57.262143 622.625368 
L 57.262143 622.46232 
" clip-path="url(#p407c18e476)" style="fill: none; stroke: #d62728"/>
    <path d="M 61.247857 622.516957 
L 61.247857 622.279607 
" clip-path="url(#p407c18e476)" style="fill: none; stroke: #d62728"/>
    <path d="M 69.219286 622.414135 
L 69.219286 622.263111 
" clip-path="url(#p407c18e476)" style="fill: none; stroke: #d62728"/>
    <path d="M 77.190714 622.490493 
L 77.190714 622.23498 
" clip-path="url(#p407c18e476)" style="fill: none; stroke: #d62728"/>
    <path d="M 93.133571 622.507611 
L 93.133571 622.30597 
" clip-path="url(#p407c18e476)" style="fill: none; stroke: #d62728"/>
    <path d="M 117.047857 622.525287 
L 117.047857 622.404803 
" clip-path="url(#p407c18e476)" style="fill: none; stroke: #d62728"/>
    <path d="M 148.933571 622.562385 
L 148.933571 622.479718 
" clip-path="url(#p407c18e476)" style="fill: none; stroke: #d62728"/>
    <path d="M 244.590714 622.59118 
L 244.590714 622.544665 
" clip-path="url(#p407c18e476)" style="fill: none; stroke: #d62728"/>
    <path d="M 435.905 622.614319 
L 435.905 622.580472 
" clip-path="url(#p407c18e476)" style="fill: none; stroke: #d62728"/>
    <path clip-path="url(#p407c18e476)" style="fill: none; stroke: #d62728"/>
    <path clip-path="url(#p407c18e476)" style="fill: none; stroke: #d62728"/>
    <path clip-path="url(#p407c18e476)" style="fill: none; stroke: #d62728"/>
    <path clip-path="url(#p407c18e476)" style="fill: none; stroke: #d62728"/>
   </g>
   <g id="LineCollection_9">
    <path clip-path="url(#p407c18e476)" style="fill: none; stroke: #2ca02c"/>
    <path d="M 57.262143 622.604675 
L 57.262143 622.455464 
" clip-path="url(#p407c18e476)" style="fill: none; stroke: #2ca02c"/>
    <path d="M 61.247857 622.494074 
L 61.247857 622.237971 
" clip-path="url(#p407c18e476)" style="fill: none; stroke: #2ca02c"/>
    <path d="M 69.219286 622.407291 
L 69.219286 622.201812 
" clip-path="url(#p407c18e476)" style="fill: none; stroke: #2ca02c"/>
    <path d="M 77.190714 622.439609 
L 77.190714 622.262247 
" clip-path="url(#p407c18e476)" style="fill: none; stroke: #2ca02c"/>
    <path d="M 93.133571 622.472183 
L 93.133571 622.344176 
" clip-path="url(#p407c18e476)" style="fill: none; stroke: #2ca02c"/>
    <path d="M 117.047857 622.511595 
L 117.047857 622.396859 
" clip-path="url(#p407c18e476)" style="fill: none; stroke: #2ca02c"/>
    <path d="M 148.933571 622.556545 
L 148.933571 622.46918 
" clip-path="url(#p407c18e476)" style="fill: none; stroke: #2ca02c"/>
    <path d="M 244.590714 622.592964 
L 244.590714 622.534661 
" clip-path="url(#p407c18e476)" style="fill: none; stroke: #2ca02c"/>
    <path d="M 435.905 622.60871 
L 435.905 622.586622 
" clip-path="url(#p407c18e476)" style="fill: none; stroke: #2ca02c"/>
    <path clip-path="url(#p407c18e476)" style="fill: none; stroke: #2ca02c"/>
    <path clip-path="url(#p407c18e476)" style="fill: none; stroke: #2ca02c"/>
    <path clip-path="url(#p407c18e476)" style="fill: none; stroke: #2ca02c"/>
    <path clip-path="url(#p407c18e476)" style="fill: none; stroke: #2ca02c"/>
   </g>
   <g id="line2d_41">
    <path d="M 53.276429 622.643478 
L 53.874286 600.034743 
L 55.07 487.373552 
L 55.667857 446.208027 
L 56.265714 419.890577 
L 56.863571 406.585615 
L 57.461429 403.513043 
L 58.059286 407.871776 
L 58.657143 417.229639 
L 59.852857 443.646189 
L 61.646429 486.253093 
L 62.842143 510.750555 
L 64.037857 530.83169 
L 65.233571 546.699503 
L 66.429286 558.957785 
L 67.625 568.29318 
L 68.820714 575.33791 
L 70.016429 580.62312 
L 71.212143 584.573835 
L 72.407857 587.52064 
L 73.603571 589.716217 
L 74.799286 591.351594 
L 75.995 592.570165 
L 77.190714 593.479081 
L 78.386429 594.158171 
L 80.18 594.871432 
L 81.973571 595.337564 
L 84.365 595.724339 
L 87.952143 596.035513 
L 93.930714 596.27084 
L 110.072857 596.583217 
L 241.003571 598.710402 
L 391.663571 600.943886 
L 436.502857 601.567516 
L 436.502857 601.567516 
" clip-path="url(#p407c18e476)" style="fill: none; stroke: #1f77b4; stroke-width: 2; stroke-linecap: square"/>
   </g>
   <g id="line2d_42">
    <path d="M 57.262143 622.571737 
L 61.247857 622.424484 
L 69.219286 622.344663 
L 77.190714 622.367 
L 93.133571 622.415003 
L 117.047857 622.458631 
L 148.933571 622.512709 
L 244.590714 622.563153 
L 435.905 622.595851 
L 606.1915 622.60583 
" clip-path="url(#p407c18e476)" style="fill: none; stroke-dasharray: 3.7,1.6; stroke-dashoffset: 0; stroke: #1f77b4"/>
    <g clip-path="url(#p407c18e476)">
     <use xlink:href="#me948434b48" x="57.262143" y="622.571737" style="fill: #1f77b4; stroke: #000000; stroke-linejoin: miter"/>
     <use xlink:href="#me948434b48" x="61.247857" y="622.424484" style="fill: #1f77b4; stroke: #000000; stroke-linejoin: miter"/>
     <use xlink:href="#me948434b48" x="69.219286" y="622.344663" style="fill: #1f77b4; stroke: #000000; stroke-linejoin: miter"/>
     <use xlink:href="#me948434b48" x="77.190714" y="622.367" style="fill: #1f77b4; stroke: #000000; stroke-linejoin: miter"/>
     <use xlink:href="#me948434b48" x="93.133571" y="622.415003" style="fill: #1f77b4; stroke: #000000; stroke-linejoin: miter"/>
     <use xlink:href="#me948434b48" x="117.047857" y="622.458631" style="fill: #1f77b4; stroke: #000000; stroke-linejoin: miter"/>
     <use xlink:href="#me948434b48" x="148.933571" y="622.512709" style="fill: #1f77b4; stroke: #000000; stroke-linejoin: miter"/>
     <use xlink:href="#me948434b48" x="244.590714" y="622.563153" style="fill: #1f77b4; stroke: #000000; stroke-linejoin: miter"/>
     <use xlink:href="#me948434b48" x="435.905" y="622.595851" style="fill: #1f77b4; stroke: #000000; stroke-linejoin: miter"/>
     <use xlink:href="#me948434b48" x="627.219286" y="622.607062" style="fill: #1f77b4; stroke: #000000; stroke-linejoin: miter"/>
     <use xlink:href="#me948434b48" x="818.533571" y="622.61583" style="fill: #1f77b4; stroke: #000000; stroke-linejoin: miter"/>
     <use xlink:href="#me948434b48" x="1009.847857" y="622.62111" style="fill: #1f77b4; stroke: #000000; stroke-linejoin: miter"/>
     <use xlink:href="#me948434b48" x="1201.162143" y="622.624862" style="fill: #1f77b4; stroke: #000000; stroke-linejoin: miter"/>
    </g>
   </g>
   <g id="line2d_43">
    <path d="M 53.276429 622.643478 
L 53.874286 600.034743 
L 55.07 487.373552 
L 55.667857 446.208027 
L 56.265714 419.890577 
L 56.863571 406.585615 
L 57.461429 403.513043 
L 58.059286 407.871776 
L 58.657143 417.229639 
L 59.852857 443.646189 
L 61.646429 486.253093 
L 62.842143 510.750555 
L 64.037857 530.83169 
L 65.233571 546.699503 
L 66.429286 558.957785 
L 67.625 568.29318 
L 68.820714 575.33791 
L 70.016429 580.62312 
L 71.212143 584.573835 
L 72.407857 587.52064 
L 73.603571 589.716217 
L 74.799286 591.351594 
L 75.995 592.570165 
L 77.190714 593.479081 
L 78.386429 594.158171 
L 80.18 594.871432 
L 81.973571 595.337564 
L 84.365 595.724339 
L 87.952143 596.035513 
L 93.930714 596.27084 
L 110.072857 596.583217 
L 241.003571 598.710402 
L 391.663571 600.943886 
L 436.502857 601.567516 
L 436.502857 601.567516 
" clip-path="url(#p407c18e476)" style="fill: none; stroke: #d62728; stroke-width: 2; stroke-linecap: square"/>
   </g>
   <g id="line2d_44">
    <path d="M 57.262143 622.543844 
L 61.247857 622.398282 
L 69.219286 622.338623 
L 77.190714 622.362737 
L 93.133571 622.406791 
L 117.047857 622.465045 
L 148.933571 622.521051 
L 244.590714 622.567923 
L 435.905 622.597395 
L 606.1915 622.608913 
" clip-path="url(#p407c18e476)" style="fill: none; stroke-dasharray: 3.7,1.6; stroke-dashoffset: 0; stroke: #d62728"/>
    <g clip-path="url(#p407c18e476)">
     <use xlink:href="#m3a596068aa" x="57.262143" y="622.543844" style="fill: #d62728; stroke: #000000; stroke-linejoin: miter"/>
     <use xlink:href="#m3a596068aa" x="61.247857" y="622.398282" style="fill: #d62728; stroke: #000000; stroke-linejoin: miter"/>
     <use xlink:href="#m3a596068aa" x="69.219286" y="622.338623" style="fill: #d62728; stroke: #000000; stroke-linejoin: miter"/>
     <use xlink:href="#m3a596068aa" x="77.190714" y="622.362737" style="fill: #d62728; stroke: #000000; stroke-linejoin: miter"/>
     <use xlink:href="#m3a596068aa" x="93.133571" y="622.406791" style="fill: #d62728; stroke: #000000; stroke-linejoin: miter"/>
     <use xlink:href="#m3a596068aa" x="117.047857" y="622.465045" style="fill: #d62728; stroke: #000000; stroke-linejoin: miter"/>
     <use xlink:href="#m3a596068aa" x="148.933571" y="622.521051" style="fill: #d62728; stroke: #000000; stroke-linejoin: miter"/>
     <use xlink:href="#m3a596068aa" x="244.590714" y="622.567923" style="fill: #d62728; stroke: #000000; stroke-linejoin: miter"/>
     <use xlink:href="#m3a596068aa" x="435.905" y="622.597395" style="fill: #d62728; stroke: #000000; stroke-linejoin: miter"/>
     <use xlink:href="#m3a596068aa" x="627.219286" y="622.610335" style="fill: #d62728; stroke: #000000; stroke-linejoin: miter"/>
     <use xlink:href="#m3a596068aa" x="818.533571" y="622.616664" style="fill: #d62728; stroke: #000000; stroke-linejoin: miter"/>
     <use xlink:href="#m3a596068aa" x="1009.847857" y="622.621784" style="fill: #d62728; stroke: #000000; stroke-linejoin: miter"/>
     <use xlink:href="#m3a596068aa" x="1201.162143" y="622.625402" style="fill: #d62728; stroke: #000000; stroke-linejoin: miter"/>
    </g>
   </g>
   <g id="line2d_45">
    <path d="M 53.276429 622.643478 
L 53.874286 600.034743 
L 55.07 487.373552 
L 55.667857 446.208027 
L 56.265714 419.890577 
L 56.863571 406.585615 
L 57.461429 403.513043 
L 58.059286 407.871776 
L 58.657143 417.229639 
L 59.852857 443.646189 
L 61.646429 486.253093 
L 62.842143 510.750555 
L 64.037857 530.83169 
L 65.233571 546.699503 
L 66.429286 558.957785 
L 67.625 568.29318 
L 68.820714 575.33791 
L 70.016429 580.62312 
L 71.212143 584.573835 
L 72.407857 587.52064 
L 73.603571 589.716217 
L 74.799286 591.351594 
L 75.995 592.570165 
L 77.190714 593.479081 
L 78.386429 594.158171 
L 80.18 594.871432 
L 81.973571 595.337564 
L 84.365 595.724339 
L 87.952143 596.035513 
L 93.930714 596.27084 
L 110.072857 596.583217 
L 241.003571 598.710402 
L 391.663571 600.943886 
L 436.502857 601.567516 
L 436.502857 601.567516 
" clip-path="url(#p407c18e476)" style="fill: none; stroke: #2ca02c; stroke-width: 2; stroke-linecap: square"/>
   </g>
   <g id="line2d_46">
    <path d="M 57.262143 622.53007 
L 61.247857 622.366022 
L 69.219286 622.304551 
L 77.190714 622.350928 
L 93.133571 622.40818 
L 117.047857 622.454227 
L 148.933571 622.512862 
L 244.590714 622.563812 
L 435.905 622.597666 
L 606.1915 622.607338 
" clip-path="url(#p407c18e476)" style="fill: none; stroke-dasharray: 3.7,1.6; stroke-dashoffset: 0; stroke: #2ca02c"/>
    <g clip-path="url(#p407c18e476)">
     <use xlink:href="#mb8dc1650e7" x="57.262143" y="622.53007" style="fill: #2ca02c; stroke: #000000; stroke-linejoin: miter"/>
     <use xlink:href="#mb8dc1650e7" x="61.247857" y="622.366022" style="fill: #2ca02c; stroke: #000000; stroke-linejoin: miter"/>
     <use xlink:href="#mb8dc1650e7" x="69.219286" y="622.304551" style="fill: #2ca02c; stroke: #000000; stroke-linejoin: miter"/>
     <use xlink:href="#mb8dc1650e7" x="77.190714" y="622.350928" style="fill: #2ca02c; stroke: #000000; stroke-linejoin: miter"/>
     <use xlink:href="#mb8dc1650e7" x="93.133571" y="622.40818" style="fill: #2ca02c; stroke: #000000; stroke-linejoin: miter"/>
     <use xlink:href="#mb8dc1650e7" x="117.047857" y="622.454227" style="fill: #2ca02c; stroke: #000000; stroke-linejoin: miter"/>
     <use xlink:href="#mb8dc1650e7" x="148.933571" y="622.512862" style="fill: #2ca02c; stroke: #000000; stroke-linejoin: miter"/>
     <use xlink:href="#mb8dc1650e7" x="244.590714" y="622.563812" style="fill: #2ca02c; stroke: #000000; stroke-linejoin: miter"/>
     <use xlink:href="#mb8dc1650e7" x="435.905" y="622.597666" style="fill: #2ca02c; stroke: #000000; stroke-linejoin: miter"/>
     <use xlink:href="#mb8dc1650e7" x="627.219286" y="622.608532" style="fill: #2ca02c; stroke: #000000; stroke-linejoin: miter"/>
     <use xlink:href="#mb8dc1650e7" x="818.533571" y="622.615205" style="fill: #2ca02c; stroke: #000000; stroke-linejoin: miter"/>
     <use xlink:href="#mb8dc1650e7" x="1009.847857" y="622.620333" style="fill: #2ca02c; stroke: #000000; stroke-linejoin: miter"/>
     <use xlink:href="#mb8dc1650e7" x="1201.162143" y="622.624306" style="fill: #2ca02c; stroke: #000000; stroke-linejoin: miter"/>
    </g>
   </g>
   <g id="patch_9">
    <path d="M 45.305 633.6 
L 45.305 392.556522 
" style="fill: none; stroke: #000000; stroke-width: 0.8; stroke-linejoin: miter; stroke-linecap: square"/>
   </g>
   <g id="patch_10">
    <path d="M 435.905 633.6 
L 435.905 392.556522 
" style="fill: none; stroke: #000000; stroke-width: 0.8; stroke-linejoin: miter; stroke-linecap: square"/>
   </g>
   <g id="patch_11">
    <path d="M 45.305 633.6 
L 435.905 633.6 
" style="fill: none; stroke: #000000; stroke-width: 0.8; stroke-linejoin: miter; stroke-linecap: square"/>
   </g>
   <g id="patch_12">
    <path d="M 45.305 392.556522 
L 435.905 392.556522 
" style="fill: none; stroke: #000000; stroke-width: 0.8; stroke-linejoin: miter; stroke-linecap: square"/>
   </g>
   <g id="legend_2">
    <g id="patch_13">
     <path d="M 458.529 490.294022 
L 595.9915 490.294022 
Q 597.9915 490.294022 597.9915 488.294022 
L 597.9915 399.556522 
Q 597.9915 397.556522 595.9915 397.556522 
L 458.529 397.556522 
Q 456.529 397.556522 456.529 399.556522 
L 456.529 488.294022 
Q 456.529 490.294022 458.529 490.294022 
z
" style="fill: #ffffff; opacity: 0.8; stroke: #cccccc; stroke-linejoin: miter"/>
    </g>
    <g id="line2d_47">
     <path d="M 460.529 405.654959 
L 480.529 405.654959 
" style="fill: none; stroke: #1f77b4; stroke-width: 2; stroke-linecap: square"/>
    </g>
    <g id="line2d_48"/>
    <g id="text_33">
     <!-- RAP_T5 -->
     <g transform="translate(488.529 409.154959) scale(0.1 -0.1)">
      <use xlink:href="#DejaVuSans-52"/>
      <use xlink:href="#DejaVuSans-41" transform="translate(65.482422 0)"/>
      <use xlink:href="#DejaVuSans-50" transform="translate(133.890625 0)"/>
      <use xlink:href="#DejaVuSans-5f" transform="translate(194.193359 0)"/>
      <use xlink:href="#DejaVuSans-54" transform="translate(244.193359 0)"/>
      <use xlink:href="#DejaVuSans-35" transform="translate(305.277344 0)"/>
     </g>
    </g>
    <g id="LineCollection_10">
     <path d="M 470.529 425.611209 
L 470.529 415.611209 
" style="fill: none; stroke: #1f77b4"/>
    </g>
    <g id="line2d_49">
     <path d="M 460.529 420.611209 
L 480.529 420.611209 
" style="fill: none; stroke-dasharray: 3.7,1.6; stroke-dashoffset: 0; stroke: #1f77b4"/>
    </g>
    <g id="line2d_50">
     <g>
      <use xlink:href="#me948434b48" x="470.529" y="420.611209" style="fill: #1f77b4; stroke: #000000; stroke-linejoin: miter"/>
     </g>
    </g>
    <g id="text_34">
     <!-- RAP_T5±SD (n=26) -->
     <g transform="translate(488.529 424.111209) scale(0.1 -0.1)">
      <use xlink:href="#DejaVuSans-52"/>
      <use xlink:href="#DejaVuSans-41" transform="translate(65.482422 0)"/>
      <use xlink:href="#DejaVuSans-50" transform="translate(133.890625 0)"/>
      <use xlink:href="#DejaVuSans-5f" transform="translate(194.193359 0)"/>
      <use xlink:href="#DejaVuSans-54" transform="translate(244.193359 0)"/>
      <use xlink:href="#DejaVuSans-35" transform="translate(305.277344 0)"/>
      <use xlink:href="#DejaVuSans-b1" transform="translate(368.900391 0)"/>
      <use xlink:href="#DejaVuSans-53" transform="translate(452.689453 0)"/>
      <use xlink:href="#DejaVuSans-44" transform="translate(516.166016 0)"/>
      <use xlink:href="#DejaVuSans-20" transform="translate(593.167969 0)"/>
      <use xlink:href="#DejaVuSans-28" transform="translate(624.955078 0)"/>
      <use xlink:href="#DejaVuSans-6e" transform="translate(663.96875 0)"/>
      <use xlink:href="#DejaVuSans-3d" transform="translate(727.347656 0)"/>
      <use xlink:href="#DejaVuSans-32" transform="translate(811.136719 0)"/>
      <use xlink:href="#DejaVuSans-36" transform="translate(874.759766 0)"/>
      <use xlink:href="#DejaVuSans-29" transform="translate(938.382812 0)"/>
     </g>
    </g>
    <g id="line2d_51">
     <path d="M 460.529 435.567459 
L 480.529 435.567459 
" style="fill: none; stroke: #d62728; stroke-width: 2; stroke-linecap: square"/>
    </g>
    <g id="line2d_52"/>
    <g id="text_35">
     <!-- RAP_NS5 -->
     <g transform="translate(488.529 439.067459) scale(0.1 -0.1)">
      <use xlink:href="#DejaVuSans-52"/>
      <use xlink:href="#DejaVuSans-41" transform="translate(65.482422 0)"/>
      <use xlink:href="#DejaVuSans-50" transform="translate(133.890625 0)"/>
      <use xlink:href="#DejaVuSans-5f" transform="translate(194.193359 0)"/>
      <use xlink:href="#DejaVuSans-4e" transform="translate(244.193359 0)"/>
      <use xlink:href="#DejaVuSans-53" transform="translate(318.998047 0)"/>
      <use xlink:href="#DejaVuSans-35" transform="translate(382.474609 0)"/>
     </g>
    </g>
    <g id="LineCollection_11">
     <path d="M 470.529 455.523709 
L 470.529 445.523709 
" style="fill: none; stroke: #d62728"/>
    </g>
    <g id="line2d_53">
     <path d="M 460.529 450.523709 
L 480.529 450.523709 
" style="fill: none; stroke-dasharray: 3.7,1.6; stroke-dashoffset: 0; stroke: #d62728"/>
    </g>
    <g id="line2d_54">
     <g>
      <use xlink:href="#m3a596068aa" x="470.529" y="450.523709" style="fill: #d62728; stroke: #000000; stroke-linejoin: miter"/>
     </g>
    </g>
    <g id="text_36">
     <!-- RAP_NS5±SD (n=29) -->
     <g transform="translate(488.529 454.023709) scale(0.1 -0.1)">
      <use xlink:href="#DejaVuSans-52"/>
      <use xlink:href="#DejaVuSans-41" transform="translate(65.482422 0)"/>
      <use xlink:href="#DejaVuSans-50" transform="translate(133.890625 0)"/>
      <use xlink:href="#DejaVuSans-5f" transform="translate(194.193359 0)"/>
      <use xlink:href="#DejaVuSans-4e" transform="translate(244.193359 0)"/>
      <use xlink:href="#DejaVuSans-53" transform="translate(318.998047 0)"/>
      <use xlink:href="#DejaVuSans-35" transform="translate(382.474609 0)"/>
      <use xlink:href="#DejaVuSans-b1" transform="translate(446.097656 0)"/>
      <use xlink:href="#DejaVuSans-53" transform="translate(529.886719 0)"/>
      <use xlink:href="#DejaVuSans-44" transform="translate(593.363281 0)"/>
      <use xlink:href="#DejaVuSans-20" transform="translate(670.365234 0)"/>
      <use xlink:href="#DejaVuSans-28" transform="translate(702.152344 0)"/>
      <use xlink:href="#DejaVuSans-6e" transform="translate(741.166016 0)"/>
      <use xlink:href="#DejaVuSans-3d" transform="translate(804.544922 0)"/>
      <use xlink:href="#DejaVuSans-32" transform="translate(888.333984 0)"/>
      <use xlink:href="#DejaVuSans-39" transform="translate(951.957031 0)"/>
      <use xlink:href="#DejaVuSans-29" transform="translate(1015.580078 0)"/>
     </g>
    </g>
    <g id="line2d_55">
     <path d="M 460.529 465.479959 
L 480.529 465.479959 
" style="fill: none; stroke: #2ca02c; stroke-width: 2; stroke-linecap: square"/>
    </g>
    <g id="line2d_56"/>
    <g id="text_37">
     <!-- RAP_S5 -->
     <g transform="translate(488.529 468.979959) scale(0.1 -0.1)">
      <use xlink:href="#DejaVuSans-52"/>
      <use xlink:href="#DejaVuSans-41" transform="translate(65.482422 0)"/>
      <use xlink:href="#DejaVuSans-50" transform="translate(133.890625 0)"/>
      <use xlink:href="#DejaVuSans-5f" transform="translate(194.193359 0)"/>
      <use xlink:href="#DejaVuSans-53" transform="translate(244.193359 0)"/>
      <use xlink:href="#DejaVuSans-35" transform="translate(307.669922 0)"/>
     </g>
    </g>
    <g id="LineCollection_12">
     <path d="M 470.529 485.436209 
L 470.529 475.436209 
" style="fill: none; stroke: #2ca02c"/>
    </g>
    <g id="line2d_57">
     <path d="M 460.529 480.436209 
L 480.529 480.436209 
" style="fill: none; stroke-dasharray: 3.7,1.6; stroke-dashoffset: 0; stroke: #2ca02c"/>
    </g>
    <g id="line2d_58">
     <g>
      <use xlink:href="#mb8dc1650e7" x="470.529" y="480.436209" style="fill: #2ca02c; stroke: #000000; stroke-linejoin: miter"/>
     </g>
    </g>
    <g id="text_38">
     <!-- RAP_S5±SD (n=25) -->
     <g transform="translate(488.529 483.936209) scale(0.1 -0.1)">
      <use xlink:href="#DejaVuSans-52"/>
      <use xlink:href="#DejaVuSans-41" transform="translate(65.482422 0)"/>
      <use xlink:href="#DejaVuSans-50" transform="translate(133.890625 0)"/>
      <use xlink:href="#DejaVuSans-5f" transform="translate(194.193359 0)"/>
      <use xlink:href="#DejaVuSans-53" transform="translate(244.193359 0)"/>
      <use xlink:href="#DejaVuSans-35" transform="translate(307.669922 0)"/>
      <use xlink:href="#DejaVuSans-b1" transform="translate(371.292969 0)"/>
      <use xlink:href="#DejaVuSans-53" transform="translate(455.082031 0)"/>
      <use xlink:href="#DejaVuSans-44" transform="translate(518.558594 0)"/>
      <use xlink:href="#DejaVuSans-20" transform="translate(595.560547 0)"/>
      <use xlink:href="#DejaVuSans-28" transform="translate(627.347656 0)"/>
      <use xlink:href="#DejaVuSans-6e" transform="translate(666.361328 0)"/>
      <use xlink:href="#DejaVuSans-3d" transform="translate(729.740234 0)"/>
      <use xlink:href="#DejaVuSans-32" transform="translate(813.529297 0)"/>
      <use xlink:href="#DejaVuSans-35" transform="translate(877.152344 0)"/>
      <use xlink:href="#DejaVuSans-29" transform="translate(940.775391 0)"/>
     </g>
    </g>
   </g>
  </g>
  <g id="text_39">
   <!-- KorthBradley2012 (healthy) -->
   <g transform="translate(37.541328 26.196094) scale(0.25 -0.25)">
    <defs>
     <path id="DejaVuSans-Bold-4b" d="M 588 4666 
L 1791 4666 
L 1791 2963 
L 3525 4666 
L 4922 4666 
L 2675 2456 
L 5153 0 
L 3647 0 
L 1791 1838 
L 1791 0 
L 588 0 
L 588 4666 
z
" transform="scale(0.015625)"/>
     <path id="DejaVuSans-Bold-6f" d="M 2203 2784 
Q 1831 2784 1636 2517 
Q 1441 2250 1441 1747 
Q 1441 1244 1636 976 
Q 1831 709 2203 709 
Q 2569 709 2762 976 
Q 2956 1244 2956 1747 
Q 2956 2250 2762 2517 
Q 2569 2784 2203 2784 
z
M 2203 3584 
Q 3106 3584 3614 3096 
Q 4122 2609 4122 1747 
Q 4122 884 3614 396 
Q 3106 -91 2203 -91 
Q 1297 -91 786 396 
Q 275 884 275 1747 
Q 275 2609 786 3096 
Q 1297 3584 2203 3584 
z
" transform="scale(0.015625)"/>
     <path id="DejaVuSans-Bold-42" d="M 2456 2859 
Q 2741 2859 2887 2984 
Q 3034 3109 3034 3353 
Q 3034 3594 2887 3720 
Q 2741 3847 2456 3847 
L 1791 3847 
L 1791 2859 
L 2456 2859 
z
M 2497 819 
Q 2859 819 3042 972 
Q 3225 1125 3225 1434 
Q 3225 1738 3044 1889 
Q 2863 2041 2497 2041 
L 1791 2041 
L 1791 819 
L 2497 819 
z
M 3616 2497 
Q 4003 2384 4215 2081 
Q 4428 1778 4428 1338 
Q 4428 663 3972 331 
Q 3516 0 2584 0 
L 588 0 
L 588 4666 
L 2394 4666 
Q 3366 4666 3802 4372 
Q 4238 4078 4238 3431 
Q 4238 3091 4078 2852 
Q 3919 2613 3616 2497 
z
" transform="scale(0.015625)"/>
     <path id="DejaVuSans-Bold-64" d="M 2919 2988 
L 2919 4863 
L 4044 4863 
L 4044 0 
L 2919 0 
L 2919 506 
Q 2688 197 2409 53 
Q 2131 -91 1766 -91 
Q 1119 -91 703 423 
Q 288 938 288 1747 
Q 288 2556 703 3070 
Q 1119 3584 1766 3584 
Q 2128 3584 2408 3439 
Q 2688 3294 2919 2988 
z
M 2181 722 
Q 2541 722 2730 984 
Q 2919 1247 2919 1747 
Q 2919 2247 2730 2509 
Q 2541 2772 2181 2772 
Q 1825 2772 1636 2509 
Q 1447 2247 1447 1747 
Q 1447 1247 1636 984 
Q 1825 722 2181 722 
z
" transform="scale(0.015625)"/>
     <path id="DejaVuSans-Bold-6c" d="M 538 4863 
L 1656 4863 
L 1656 0 
L 538 0 
L 538 4863 
z
" transform="scale(0.015625)"/>
     <path id="DejaVuSans-Bold-32" d="M 1844 884 
L 3897 884 
L 3897 0 
L 506 0 
L 506 884 
L 2209 2388 
Q 2438 2594 2547 2791 
Q 2656 2988 2656 3200 
Q 2656 3528 2436 3728 
Q 2216 3928 1850 3928 
Q 1569 3928 1234 3808 
Q 900 3688 519 3450 
L 519 4475 
Q 925 4609 1322 4679 
Q 1719 4750 2100 4750 
Q 2938 4750 3402 4381 
Q 3866 4013 3866 3353 
Q 3866 2972 3669 2642 
Q 3472 2313 2841 1759 
L 1844 884 
z
" transform="scale(0.015625)"/>
     <path id="DejaVuSans-Bold-30" d="M 2944 2338 
Q 2944 3213 2780 3570 
Q 2616 3928 2228 3928 
Q 1841 3928 1675 3570 
Q 1509 3213 1509 2338 
Q 1509 1453 1675 1090 
Q 1841 728 2228 728 
Q 2613 728 2778 1090 
Q 2944 1453 2944 2338 
z
M 4147 2328 
Q 4147 1169 3647 539 
Q 3147 -91 2228 -91 
Q 1306 -91 806 539 
Q 306 1169 306 2328 
Q 306 3491 806 4120 
Q 1306 4750 2228 4750 
Q 3147 4750 3647 4120 
Q 4147 3491 4147 2328 
z
" transform="scale(0.015625)"/>
     <path id="DejaVuSans-Bold-31" d="M 750 831 
L 1813 831 
L 1813 3847 
L 722 3622 
L 722 4441 
L 1806 4666 
L 2950 4666 
L 2950 831 
L 4013 831 
L 4013 0 
L 750 0 
L 750 831 
z
" transform="scale(0.015625)"/>
     <path id="DejaVuSans-Bold-28" d="M 2413 -844 
L 1484 -844 
Q 1006 -72 778 623 
Q 550 1319 550 2003 
Q 550 2688 779 3389 
Q 1009 4091 1484 4856 
L 2413 4856 
Q 2013 4116 1813 3408 
Q 1613 2700 1613 2009 
Q 1613 1319 1811 609 
Q 2009 -100 2413 -844 
z
" transform="scale(0.015625)"/>
     <path id="DejaVuSans-Bold-29" d="M 513 -844 
Q 913 -100 1113 609 
Q 1313 1319 1313 2009 
Q 1313 2700 1113 3408 
Q 913 4116 513 4856 
L 1441 4856 
Q 1916 4091 2145 3389 
Q 2375 2688 2375 2003 
Q 2375 1319 2147 623 
Q 1919 -72 1441 -844 
L 513 -844 
z
" transform="scale(0.015625)"/>
    </defs>
    <use xlink:href="#DejaVuSans-Bold-4b"/>
    <use xlink:href="#DejaVuSans-Bold-6f" transform="translate(75.740234 0)"/>
    <use xlink:href="#DejaVuSans-Bold-72" transform="translate(144.441406 0)"/>
    <use xlink:href="#DejaVuSans-Bold-74" transform="translate(193.757812 0)"/>
    <use xlink:href="#DejaVuSans-Bold-68" transform="translate(241.560547 0)"/>
    <use xlink:href="#DejaVuSans-Bold-42" transform="translate(312.751953 0)"/>
    <use xlink:href="#DejaVuSans-Bold-72" transform="translate(388.972656 0)"/>
    <use xlink:href="#DejaVuSans-Bold-61" transform="translate(438.289062 0)"/>
    <use xlink:href="#DejaVuSans-Bold-64" transform="translate(505.769531 0)"/>
    <use xlink:href="#DejaVuSans-Bold-6c" transform="translate(577.351562 0)"/>
    <use xlink:href="#DejaVuSans-Bold-65" transform="translate(611.628906 0)"/>
    <use xlink:href="#DejaVuSans-Bold-79" transform="translate(679.451172 0)"/>
    <use xlink:href="#DejaVuSans-Bold-32" transform="translate(744.636719 0)"/>
    <use xlink:href="#DejaVuSans-Bold-30" transform="translate(814.216797 0)"/>
    <use xlink:href="#DejaVuSans-Bold-31" transform="translate(883.796875 0)"/>
    <use xlink:href="#DejaVuSans-Bold-32" transform="translate(953.376953 0)"/>
    <use xlink:href="#DejaVuSans-Bold-20" transform="translate(1022.957031 0)"/>
    <use xlink:href="#DejaVuSans-Bold-28" transform="translate(1057.771484 0)"/>
    <use xlink:href="#DejaVuSans-Bold-68" transform="translate(1103.474609 0)"/>
    <use xlink:href="#DejaVuSans-Bold-65" transform="translate(1174.666016 0)"/>
    <use xlink:href="#DejaVuSans-Bold-61" transform="translate(1242.488281 0)"/>
    <use xlink:href="#DejaVuSans-Bold-6c" transform="translate(1309.96875 0)"/>
    <use xlink:href="#DejaVuSans-Bold-74" transform="translate(1344.246094 0)"/>
    <use xlink:href="#DejaVuSans-Bold-68" transform="translate(1392.048828 0)"/>
    <use xlink:href="#DejaVuSans-Bold-79" transform="translate(1463.240234 0)"/>
    <use xlink:href="#DejaVuSans-Bold-29" transform="translate(1528.425781 0)"/>
   </g>
  </g>
 </g>
 <defs>
  <clipPath id="p719da0bc46">
   <rect x="45.305" y="79.2" width="390.6" height="241.043478"/>
  </clipPath>
  <clipPath id="p407c18e476">
   <rect x="45.305" y="392.556522" width="390.6" height="241.043478"/>
  </clipPath>
 </defs>
</svg>
