<?xml version="1.0" encoding="utf-8" standalone="no"?>
<!DOCTYPE svg PUBLIC "-//W3C//DTD SVG 1.1//EN"
  "http://www.w3.org/Graphics/SVG/1.1/DTD/svg11.dtd">
<svg xmlns:xlink="http://www.w3.org/1999/xlink" width="452.64875pt" height="370.537812pt" viewBox="0 0 452.64875 370.537812" xmlns="http://www.w3.org/2000/svg" version="1.1">
 <metadata>
  <rdf:RDF xmlns:dc="http://purl.org/dc/elements/1.1/" xmlns:cc="http://creativecommons.org/ns#" xmlns:rdf="http://www.w3.org/1999/02/22-rdf-syntax-ns#">
   <cc:Work>
    <dc:type rdf:resource="http://purl.org/dc/dcmitype/StillImage"/>
    <dc:date>2026-02-12T15:19:38.053486</dc:date>
    <dc:format>image/svg+xml</dc:format>
    <dc:creator>
     <cc:Agent>
      <dc:title>Matplotlib v3.10.7, https://matplotlib.org/</dc:title>
     </cc:Agent>
    </dc:creator>
   </cc:Work>
  </rdf:RDF>
 </metadata>
 <defs>
  <style type="text/css">*{stroke-linejoin: round; stroke-linecap: butt}</style>
 </defs>
 <g id="figure_1">
  <g id="patch_1">
   <path d="M 0 370.537812 
L 452.64875 370.537812 
L 452.64875 0 
L 0 0 
z
" style="fill: #ffffff"/>
  </g>
  <g id="axes_1">
   <g id="patch_2">
    <path d="M 54.84875 320.4 
L 445.44875 320.4 
L 445.44875 43.2 
L 54.84875 43.2 
z
" style="fill: #ffffff"/>
   </g>
   <g id="matplotlib.axis_1">
    <g id="xtick_1">
     <g id="line2d_1">
      <defs>
       <path id="mceb75df88e" d="M 0 0 
L 0 3.5 
" style="stroke: #000000; stroke-width: 0.8"/>
      </defs>
      <g>
       <use xlink:href="#mceb75df88e" x="72.603295" y="320.4" style="stroke: #000000; stroke-width: 0.8"/>
      </g>
     </g>
     <g id="text_1">
      <!-- 0 -->
      <g transform="translate(67.83142 338.797656) scale(0.15 -0.15)">
       <defs>
        <path id="DejaVuSans-30" d="M 2034 4250 
Q 1547 4250 1301 3770 
Q 1056 3291 1056 2328 
Q 1056 1369 1301 889 
Q 1547 409 2034 409 
Q 2525 409 2770 889 
Q 3016 1369 3016 2328 
Q 3016 3291 2770 3770 
Q 2525 4250 2034 4250 
z
M 2034 4750 
Q 2819 4750 3233 4129 
Q 3647 3509 3647 2328 
Q 3647 1150 3233 529 
Q 2819 -91 2034 -91 
Q 1250 -91 836 529 
Q 422 1150 422 2328 
Q 422 3509 836 4129 
Q 1250 4750 2034 4750 
z
" transform="scale(0.015625)"/>
       </defs>
       <use xlink:href="#DejaVuSans-30"/>
      </g>
     </g>
    </g>
    <g id="xtick_2">
     <g id="line2d_2">
      <g>
       <use xlink:href="#mceb75df88e" x="131.785114" y="320.4" style="stroke: #000000; stroke-width: 0.8"/>
      </g>
     </g>
     <g id="text_2">
      <!-- 5 -->
      <g transform="translate(127.013239 338.797656) scale(0.15 -0.15)">
       <defs>
        <path id="DejaVuSans-35" d="M 691 4666 
L 3169 4666 
L 3169 4134 
L 1269 4134 
L 1269 2991 
Q 1406 3038 1543 3061 
Q 1681 3084 1819 3084 
Q 2600 3084 3056 2656 
Q 3513 2228 3513 1497 
Q 3513 744 3044 326 
Q 2575 -91 1722 -91 
Q 1428 -91 1123 -41 
Q 819 9 494 109 
L 494 744 
Q 775 591 1075 516 
Q 1375 441 1709 441 
Q 2250 441 2565 725 
Q 2881 1009 2881 1497 
Q 2881 1984 2565 2268 
Q 2250 2553 1709 2553 
Q 1456 2553 1204 2497 
Q 953 2441 691 2322 
L 691 4666 
z
" transform="scale(0.015625)"/>
       </defs>
       <use xlink:href="#DejaVuSans-35"/>
      </g>
     </g>
    </g>
    <g id="xtick_3">
     <g id="line2d_3">
      <g>
       <use xlink:href="#mceb75df88e" x="190.966932" y="320.4" style="stroke: #000000; stroke-width: 0.8"/>
      </g>
     </g>
     <g id="text_3">
      <!-- 10 -->
      <g transform="translate(181.423182 338.797656) scale(0.15 -0.15)">
       <defs>
        <path id="DejaVuSans-31" d="M 794 531 
L 1825 531 
L 1825 4091 
L 703 3866 
L 703 4441 
L 1819 4666 
L 2450 4666 
L 2450 531 
L 3481 531 
L 3481 0 
L 794 0 
L 794 531 
z
" transform="scale(0.015625)"/>
       </defs>
       <use xlink:href="#DejaVuSans-31"/>
       <use xlink:href="#DejaVuSans-30" transform="translate(63.623047 0)"/>
      </g>
     </g>
    </g>
    <g id="xtick_4">
     <g id="line2d_4">
      <g>
       <use xlink:href="#mceb75df88e" x="250.14875" y="320.4" style="stroke: #000000; stroke-width: 0.8"/>
      </g>
     </g>
     <g id="text_4">
      <!-- 15 -->
      <g transform="translate(240.605 338.797656) scale(0.15 -0.15)">
       <use xlink:href="#DejaVuSans-31"/>
       <use xlink:href="#DejaVuSans-35" transform="translate(63.623047 0)"/>
      </g>
     </g>
    </g>
    <g id="xtick_5">
     <g id="line2d_5">
      <g>
       <use xlink:href="#mceb75df88e" x="309.330568" y="320.4" style="stroke: #000000; stroke-width: 0.8"/>
      </g>
     </g>
     <g id="text_5">
      <!-- 20 -->
      <g transform="translate(299.786818 338.797656) scale(0.15 -0.15)">
       <defs>
        <path id="DejaVuSans-32" d="M 1228 531 
L 3431 531 
L 3431 0 
L 469 0 
L 469 531 
Q 828 903 1448 1529 
Q 2069 2156 2228 2338 
Q 2531 2678 2651 2914 
Q 2772 3150 2772 3378 
Q 2772 3750 2511 3984 
Q 2250 4219 1831 4219 
Q 1534 4219 1204 4116 
Q 875 4013 500 3803 
L 500 4441 
Q 881 4594 1212 4672 
Q 1544 4750 1819 4750 
Q 2544 4750 2975 4387 
Q 3406 4025 3406 3419 
Q 3406 3131 3298 2873 
Q 3191 2616 2906 2266 
Q 2828 2175 2409 1742 
Q 1991 1309 1228 531 
z
" transform="scale(0.015625)"/>
       </defs>
       <use xlink:href="#DejaVuSans-32"/>
       <use xlink:href="#DejaVuSans-30" transform="translate(63.623047 0)"/>
      </g>
     </g>
    </g>
    <g id="xtick_6">
     <g id="line2d_6">
      <g>
       <use xlink:href="#mceb75df88e" x="368.512386" y="320.4" style="stroke: #000000; stroke-width: 0.8"/>
      </g>
     </g>
     <g id="text_6">
      <!-- 25 -->
      <g transform="translate(358.968636 338.797656) scale(0.15 -0.15)">
       <use xlink:href="#DejaVuSans-32"/>
       <use xlink:href="#DejaVuSans-35" transform="translate(63.623047 0)"/>
      </g>
     </g>
    </g>
    <g id="xtick_7">
     <g id="line2d_7">
      <g>
       <use xlink:href="#mceb75df88e" x="427.694205" y="320.4" style="stroke: #000000; stroke-width: 0.8"/>
      </g>
     </g>
     <g id="text_7">
      <!-- 30 -->
      <g transform="translate(418.150455 338.797656) scale(0.15 -0.15)">
       <defs>
        <path id="DejaVuSans-33" d="M 2597 2516 
Q 3050 2419 3304 2112 
Q 3559 1806 3559 1356 
Q 3559 666 3084 287 
Q 2609 -91 1734 -91 
Q 1441 -91 1130 -33 
Q 819 25 488 141 
L 488 750 
Q 750 597 1062 519 
Q 1375 441 1716 441 
Q 2309 441 2620 675 
Q 2931 909 2931 1356 
Q 2931 1769 2642 2001 
Q 2353 2234 1838 2234 
L 1294 2234 
L 1294 2753 
L 1863 2753 
Q 2328 2753 2575 2939 
Q 2822 3125 2822 3475 
Q 2822 3834 2567 4026 
Q 2313 4219 1838 4219 
Q 1578 4219 1281 4162 
Q 984 4106 628 3988 
L 628 4550 
Q 988 4650 1302 4700 
Q 1616 4750 1894 4750 
Q 2613 4750 3031 4423 
Q 3450 4097 3450 3541 
Q 3450 3153 3228 2886 
Q 3006 2619 2597 2516 
z
" transform="scale(0.015625)"/>
       </defs>
       <use xlink:href="#DejaVuSans-33"/>
       <use xlink:href="#DejaVuSans-30" transform="translate(63.623047 0)"/>
      </g>
     </g>
    </g>
    <g id="text_8">
     <!-- time [hr] -->
     <g transform="translate(205.074219 359.594375) scale(0.18 -0.18)">
      <defs>
       <path id="DejaVuSans-Bold-74" d="M 1759 4494 
L 1759 3500 
L 2913 3500 
L 2913 2700 
L 1759 2700 
L 1759 1216 
Q 1759 972 1856 886 
Q 1953 800 2241 800 
L 2816 800 
L 2816 0 
L 1856 0 
Q 1194 0 917 276 
Q 641 553 641 1216 
L 641 2700 
L 84 2700 
L 84 3500 
L 641 3500 
L 641 4494 
L 1759 4494 
z
" transform="scale(0.015625)"/>
       <path id="DejaVuSans-Bold-69" d="M 538 3500 
L 1656 3500 
L 1656 0 
L 538 0 
L 538 3500 
z
M 538 4863 
L 1656 4863 
L 1656 3950 
L 538 3950 
L 538 4863 
z
" transform="scale(0.015625)"/>
       <path id="DejaVuSans-Bold-6d" d="M 3781 2919 
Q 3994 3244 4286 3414 
Q 4578 3584 4928 3584 
Q 5531 3584 5847 3212 
Q 6163 2841 6163 2131 
L 6163 0 
L 5038 0 
L 5038 1825 
Q 5041 1866 5042 1909 
Q 5044 1953 5044 2034 
Q 5044 2406 4934 2573 
Q 4825 2741 4581 2741 
Q 4263 2741 4089 2478 
Q 3916 2216 3909 1719 
L 3909 0 
L 2784 0 
L 2784 1825 
Q 2784 2406 2684 2573 
Q 2584 2741 2328 2741 
Q 2006 2741 1831 2477 
Q 1656 2213 1656 1722 
L 1656 0 
L 531 0 
L 531 3500 
L 1656 3500 
L 1656 2988 
Q 1863 3284 2130 3434 
Q 2397 3584 2719 3584 
Q 3081 3584 3359 3409 
Q 3638 3234 3781 2919 
z
" transform="scale(0.015625)"/>
       <path id="DejaVuSans-Bold-65" d="M 4031 1759 
L 4031 1441 
L 1416 1441 
Q 1456 1047 1700 850 
Q 1944 653 2381 653 
Q 2734 653 3104 758 
Q 3475 863 3866 1075 
L 3866 213 
Q 3469 63 3072 -14 
Q 2675 -91 2278 -91 
Q 1328 -91 801 392 
Q 275 875 275 1747 
Q 275 2603 792 3093 
Q 1309 3584 2216 3584 
Q 3041 3584 3536 3087 
Q 4031 2591 4031 1759 
z
M 2881 2131 
Q 2881 2450 2695 2645 
Q 2509 2841 2209 2841 
Q 1884 2841 1681 2658 
Q 1478 2475 1428 2131 
L 2881 2131 
z
" transform="scale(0.015625)"/>
       <path id="DejaVuSans-Bold-20" transform="scale(0.015625)"/>
       <path id="DejaVuSans-Bold-5b" d="M 550 4863 
L 2491 4863 
L 2491 4159 
L 1613 4159 
L 1613 -141 
L 2491 -141 
L 2491 -844 
L 550 -844 
L 550 4863 
z
" transform="scale(0.015625)"/>
       <path id="DejaVuSans-Bold-68" d="M 4056 2131 
L 4056 0 
L 2931 0 
L 2931 347 
L 2931 1625 
Q 2931 2084 2911 2256 
Q 2891 2428 2841 2509 
Q 2775 2619 2662 2680 
Q 2550 2741 2406 2741 
Q 2056 2741 1856 2470 
Q 1656 2200 1656 1722 
L 1656 0 
L 538 0 
L 538 4863 
L 1656 4863 
L 1656 2988 
Q 1909 3294 2193 3439 
Q 2478 3584 2822 3584 
Q 3428 3584 3742 3212 
Q 4056 2841 4056 2131 
z
" transform="scale(0.015625)"/>
       <path id="DejaVuSans-Bold-72" d="M 3138 2547 
Q 2991 2616 2845 2648 
Q 2700 2681 2553 2681 
Q 2122 2681 1889 2404 
Q 1656 2128 1656 1613 
L 1656 0 
L 538 0 
L 538 3500 
L 1656 3500 
L 1656 2925 
Q 1872 3269 2151 3426 
Q 2431 3584 2822 3584 
Q 2878 3584 2943 3579 
Q 3009 3575 3134 3559 
L 3138 2547 
z
" transform="scale(0.015625)"/>
       <path id="DejaVuSans-Bold-5d" d="M 2375 -844 
L 434 -844 
L 434 -141 
L 1313 -141 
L 1313 4159 
L 434 4159 
L 434 4863 
L 2375 4863 
L 2375 -844 
z
" transform="scale(0.015625)"/>
      </defs>
      <use xlink:href="#DejaVuSans-Bold-74"/>
      <use xlink:href="#DejaVuSans-Bold-69" transform="translate(47.802734 0)"/>
      <use xlink:href="#DejaVuSans-Bold-6d" transform="translate(82.080078 0)"/>
      <use xlink:href="#DejaVuSans-Bold-65" transform="translate(186.279297 0)"/>
      <use xlink:href="#DejaVuSans-Bold-20" transform="translate(254.101562 0)"/>
      <use xlink:href="#DejaVuSans-Bold-5b" transform="translate(288.916016 0)"/>
      <use xlink:href="#DejaVuSans-Bold-68" transform="translate(334.619141 0)"/>
      <use xlink:href="#DejaVuSans-Bold-72" transform="translate(405.810547 0)"/>
      <use xlink:href="#DejaVuSans-Bold-5d" transform="translate(455.126953 0)"/>
     </g>
    </g>
   </g>
   <g id="matplotlib.axis_2">
    <g id="ytick_1">
     <g id="line2d_8">
      <defs>
       <path id="m8231bc673a" d="M 0 0 
L -3.5 0 
" style="stroke: #000000; stroke-width: 0.8"/>
      </defs>
      <g>
       <use xlink:href="#m8231bc673a" x="54.84875" y="307.8" style="stroke: #000000; stroke-width: 0.8"/>
      </g>
     </g>
     <g id="text_9">
      <!-- 0 -->
      <g transform="translate(38.305 313.498828) scale(0.15 -0.15)">
       <use xlink:href="#DejaVuSans-30"/>
      </g>
     </g>
    </g>
    <g id="ytick_2">
     <g id="line2d_9">
      <g>
       <use xlink:href="#m8231bc673a" x="54.84875" y="250.547956" style="stroke: #000000; stroke-width: 0.8"/>
      </g>
     </g>
     <g id="text_10">
      <!-- 10 -->
      <g transform="translate(28.76125 256.246784) scale(0.15 -0.15)">
       <use xlink:href="#DejaVuSans-31"/>
       <use xlink:href="#DejaVuSans-30" transform="translate(63.623047 0)"/>
      </g>
     </g>
    </g>
    <g id="ytick_3">
     <g id="line2d_10">
      <g>
       <use xlink:href="#m8231bc673a" x="54.84875" y="193.295913" style="stroke: #000000; stroke-width: 0.8"/>
      </g>
     </g>
     <g id="text_11">
      <!-- 20 -->
      <g transform="translate(28.76125 198.994741) scale(0.15 -0.15)">
       <use xlink:href="#DejaVuSans-32"/>
       <use xlink:href="#DejaVuSans-30" transform="translate(63.623047 0)"/>
      </g>
     </g>
    </g>
    <g id="ytick_4">
     <g id="line2d_11">
      <g>
       <use xlink:href="#m8231bc673a" x="54.84875" y="136.043869" style="stroke: #000000; stroke-width: 0.8"/>
      </g>
     </g>
     <g id="text_12">
      <!-- 30 -->
      <g transform="translate(28.76125 141.742697) scale(0.15 -0.15)">
       <use xlink:href="#DejaVuSans-33"/>
       <use xlink:href="#DejaVuSans-30" transform="translate(63.623047 0)"/>
      </g>
     </g>
    </g>
    <g id="ytick_5">
     <g id="line2d_12">
      <g>
       <use xlink:href="#m8231bc673a" x="54.84875" y="78.791825" style="stroke: #000000; stroke-width: 0.8"/>
      </g>
     </g>
     <g id="text_13">
      <!-- 40 -->
      <g transform="translate(28.76125 84.490653) scale(0.15 -0.15)">
       <defs>
        <path id="DejaVuSans-34" d="M 2419 4116 
L 825 1625 
L 2419 1625 
L 2419 4116 
z
M 2253 4666 
L 3047 4666 
L 3047 1625 
L 3713 1625 
L 3713 1100 
L 3047 1100 
L 3047 0 
L 2419 0 
L 2419 1100 
L 313 1100 
L 313 1709 
L 2253 4666 
z
" transform="scale(0.015625)"/>
       </defs>
       <use xlink:href="#DejaVuSans-34"/>
       <use xlink:href="#DejaVuSans-30" transform="translate(63.623047 0)"/>
      </g>
     </g>
    </g>
    <g id="text_14">
     <!-- rapamycin blood [nM] -->
     <g transform="translate(20.877187 293.092031) rotate(-90) scale(0.18 -0.18)">
      <defs>
       <path id="DejaVuSans-Bold-61" d="M 2106 1575 
Q 1756 1575 1579 1456 
Q 1403 1338 1403 1106 
Q 1403 894 1545 773 
Q 1688 653 1941 653 
Q 2256 653 2472 879 
Q 2688 1106 2688 1447 
L 2688 1575 
L 2106 1575 
z
M 3816 1997 
L 3816 0 
L 2688 0 
L 2688 519 
Q 2463 200 2181 54 
Q 1900 -91 1497 -91 
Q 953 -91 614 226 
Q 275 544 275 1050 
Q 275 1666 698 1953 
Q 1122 2241 2028 2241 
L 2688 2241 
L 2688 2328 
Q 2688 2594 2478 2717 
Q 2269 2841 1825 2841 
Q 1466 2841 1156 2769 
Q 847 2697 581 2553 
L 581 3406 
Q 941 3494 1303 3539 
Q 1666 3584 2028 3584 
Q 2975 3584 3395 3211 
Q 3816 2838 3816 1997 
z
" transform="scale(0.015625)"/>
       <path id="DejaVuSans-Bold-70" d="M 1656 506 
L 1656 -1331 
L 538 -1331 
L 538 3500 
L 1656 3500 
L 1656 2988 
Q 1888 3294 2169 3439 
Q 2450 3584 2816 3584 
Q 3463 3584 3878 3070 
Q 4294 2556 4294 1747 
Q 4294 938 3878 423 
Q 3463 -91 2816 -91 
Q 2450 -91 2169 54 
Q 1888 200 1656 506 
z
M 2400 2772 
Q 2041 2772 1848 2508 
Q 1656 2244 1656 1747 
Q 1656 1250 1848 986 
Q 2041 722 2400 722 
Q 2759 722 2948 984 
Q 3138 1247 3138 1747 
Q 3138 2247 2948 2509 
Q 2759 2772 2400 2772 
z
" transform="scale(0.015625)"/>
       <path id="DejaVuSans-Bold-79" d="M 78 3500 
L 1197 3500 
L 2138 1125 
L 2938 3500 
L 4056 3500 
L 2584 -331 
Q 2363 -916 2067 -1148 
Q 1772 -1381 1288 -1381 
L 641 -1381 
L 641 -647 
L 991 -647 
Q 1275 -647 1404 -556 
Q 1534 -466 1606 -231 
L 1638 -134 
L 78 3500 
z
" transform="scale(0.015625)"/>
       <path id="DejaVuSans-Bold-63" d="M 3366 3391 
L 3366 2478 
Q 3138 2634 2908 2709 
Q 2678 2784 2431 2784 
Q 1963 2784 1702 2511 
Q 1441 2238 1441 1747 
Q 1441 1256 1702 982 
Q 1963 709 2431 709 
Q 2694 709 2930 787 
Q 3166 866 3366 1019 
L 3366 103 
Q 3103 6 2833 -42 
Q 2563 -91 2291 -91 
Q 1344 -91 809 395 
Q 275 881 275 1747 
Q 275 2613 809 3098 
Q 1344 3584 2291 3584 
Q 2566 3584 2833 3536 
Q 3100 3488 3366 3391 
z
" transform="scale(0.015625)"/>
       <path id="DejaVuSans-Bold-6e" d="M 4056 2131 
L 4056 0 
L 2931 0 
L 2931 347 
L 2931 1631 
Q 2931 2084 2911 2256 
Q 2891 2428 2841 2509 
Q 2775 2619 2662 2680 
Q 2550 2741 2406 2741 
Q 2056 2741 1856 2470 
Q 1656 2200 1656 1722 
L 1656 0 
L 538 0 
L 538 3500 
L 1656 3500 
L 1656 2988 
Q 1909 3294 2193 3439 
Q 2478 3584 2822 3584 
Q 3428 3584 3742 3212 
Q 4056 2841 4056 2131 
z
" transform="scale(0.015625)"/>
       <path id="DejaVuSans-Bold-62" d="M 2400 722 
Q 2759 722 2948 984 
Q 3138 1247 3138 1747 
Q 3138 2247 2948 2509 
Q 2759 2772 2400 2772 
Q 2041 2772 1848 2508 
Q 1656 2244 1656 1747 
Q 1656 1250 1848 986 
Q 2041 722 2400 722 
z
M 1656 2988 
Q 1888 3294 2169 3439 
Q 2450 3584 2816 3584 
Q 3463 3584 3878 3070 
Q 4294 2556 4294 1747 
Q 4294 938 3878 423 
Q 3463 -91 2816 -91 
Q 2450 -91 2169 54 
Q 1888 200 1656 506 
L 1656 0 
L 538 0 
L 538 4863 
L 1656 4863 
L 1656 2988 
z
" transform="scale(0.015625)"/>
       <path id="DejaVuSans-Bold-6c" d="M 538 4863 
L 1656 4863 
L 1656 0 
L 538 0 
L 538 4863 
z
" transform="scale(0.015625)"/>
       <path id="DejaVuSans-Bold-6f" d="M 2203 2784 
Q 1831 2784 1636 2517 
Q 1441 2250 1441 1747 
Q 1441 1244 1636 976 
Q 1831 709 2203 709 
Q 2569 709 2762 976 
Q 2956 1244 2956 1747 
Q 2956 2250 2762 2517 
Q 2569 2784 2203 2784 
z
M 2203 3584 
Q 3106 3584 3614 3096 
Q 4122 2609 4122 1747 
Q 4122 884 3614 396 
Q 3106 -91 2203 -91 
Q 1297 -91 786 396 
Q 275 884 275 1747 
Q 275 2609 786 3096 
Q 1297 3584 2203 3584 
z
" transform="scale(0.015625)"/>
       <path id="DejaVuSans-Bold-64" d="M 2919 2988 
L 2919 4863 
L 4044 4863 
L 4044 0 
L 2919 0 
L 2919 506 
Q 2688 197 2409 53 
Q 2131 -91 1766 -91 
Q 1119 -91 703 423 
Q 288 938 288 1747 
Q 288 2556 703 3070 
Q 1119 3584 1766 3584 
Q 2128 3584 2408 3439 
Q 2688 3294 2919 2988 
z
M 2181 722 
Q 2541 722 2730 984 
Q 2919 1247 2919 1747 
Q 2919 2247 2730 2509 
Q 2541 2772 2181 2772 
Q 1825 2772 1636 2509 
Q 1447 2247 1447 1747 
Q 1447 1247 1636 984 
Q 1825 722 2181 722 
z
" transform="scale(0.015625)"/>
       <path id="DejaVuSans-Bold-4d" d="M 588 4666 
L 2119 4666 
L 3181 2169 
L 4250 4666 
L 5778 4666 
L 5778 0 
L 4641 0 
L 4641 3413 
L 3566 897 
L 2803 897 
L 1728 3413 
L 1728 0 
L 588 0 
L 588 4666 
z
" transform="scale(0.015625)"/>
      </defs>
      <use xlink:href="#DejaVuSans-Bold-72"/>
      <use xlink:href="#DejaVuSans-Bold-61" transform="translate(49.316406 0)"/>
      <use xlink:href="#DejaVuSans-Bold-70" transform="translate(116.796875 0)"/>
      <use xlink:href="#DejaVuSans-Bold-61" transform="translate(188.378906 0)"/>
      <use xlink:href="#DejaVuSans-Bold-6d" transform="translate(255.859375 0)"/>
      <use xlink:href="#DejaVuSans-Bold-79" transform="translate(360.058594 0)"/>
      <use xlink:href="#DejaVuSans-Bold-63" transform="translate(425.244141 0)"/>
      <use xlink:href="#DejaVuSans-Bold-69" transform="translate(484.521484 0)"/>
      <use xlink:href="#DejaVuSans-Bold-6e" transform="translate(518.798828 0)"/>
      <use xlink:href="#DejaVuSans-Bold-20" transform="translate(589.990234 0)"/>
      <use xlink:href="#DejaVuSans-Bold-62" transform="translate(624.804688 0)"/>
      <use xlink:href="#DejaVuSans-Bold-6c" transform="translate(696.386719 0)"/>
      <use xlink:href="#DejaVuSans-Bold-6f" transform="translate(730.664062 0)"/>
      <use xlink:href="#DejaVuSans-Bold-6f" transform="translate(799.365234 0)"/>
      <use xlink:href="#DejaVuSans-Bold-64" transform="translate(868.066406 0)"/>
      <use xlink:href="#DejaVuSans-Bold-20" transform="translate(939.648438 0)"/>
      <use xlink:href="#DejaVuSans-Bold-5b" transform="translate(974.462891 0)"/>
      <use xlink:href="#DejaVuSans-Bold-6e" transform="translate(1020.166016 0)"/>
      <use xlink:href="#DejaVuSans-Bold-4d" transform="translate(1091.357422 0)"/>
      <use xlink:href="#DejaVuSans-Bold-5d" transform="translate(1190.869141 0)"/>
     </g>
    </g>
   </g>
   <g id="line2d_13">
    <path d="M 72.603295 307.8 
L 72.958386 307.036505 
L 73.313477 303.199718 
L 74.023659 289.540727 
L 75.444023 259.806086 
L 76.509295 241.701627 
L 77.574568 227.322053 
L 78.639841 216.067817 
L 79.705114 207.388266 
L 80.770386 200.820711 
L 81.835659 195.980475 
L 82.545841 193.553292 
L 83.256023 191.670124 
L 83.966205 190.259796 
L 84.676386 189.259566 
L 85.386568 188.614152 
L 86.09675 188.274877 
L 86.806932 188.19891 
L 87.517114 188.348587 
L 88.227295 188.690817 
L 89.292568 189.502641 
L 90.357841 190.59978 
L 91.778205 192.390195 
L 93.90875 195.529643 
L 97.459659 201.280602 
L 102.075841 208.674214 
L 105.271659 213.379858 
L 108.112386 217.199525 
L 110.953114 220.671592 
L 113.793841 223.813022 
L 116.634568 226.651073 
L 119.830386 229.519996 
L 123.026205 232.088763 
L 126.577114 234.641336 
L 130.128023 236.925334 
L 134.034023 239.17941 
L 138.295114 241.384727 
L 142.911295 243.532413 
L 148.237659 245.763213 
L 154.274205 248.042722 
L 161.020932 250.35233 
L 168.832932 252.791066 
L 178.065295 255.430799 
L 188.718023 258.232938 
L 200.436023 261.0838 
L 213.574386 264.048715 
L 227.778023 267.021921 
L 242.691841 269.916243 
L 258.315841 272.723496 
L 274.650023 275.434047 
L 291.694386 278.038478 
L 309.448932 280.528457 
L 328.26875 282.940631 
L 347.79875 285.218446 
L 368.394023 287.394773 
L 390.054568 289.457747 
L 412.780386 291.398352 
L 427.694205 292.55889 
L 427.694205 292.55889 
" clip-path="url(#pcebe4ee8c6)" style="fill: none; stroke: #000000; stroke-width: 2; stroke-linecap: square"/>
   </g>
   <g id="line2d_14">
    <path d="M 72.603295 307.8 
L 78.521477 140.887129 
L 84.439659 83.169884 
L 90.357841 153.25511 
L 96.276023 197.573709 
L 102.194205 216.12568 
L 108.112386 221.279006 
L 119.94875 244.755266 
L 143.621477 260.501538 
L 167.294205 278.39503 
L 214.639659 283.405207 
L 356.676023 285.552426 
" clip-path="url(#pcebe4ee8c6)" style="fill: none; stroke-dasharray: 3.7,1.6; stroke-dashoffset: 0; stroke: #000000"/>
    <defs>
     <path id="m1f2d0c29ae" d="M -3 3 
L 3 3 
L 3 -3 
L -3 -3 
z
" style="stroke: #000000; stroke-linejoin: miter"/>
    </defs>
    <g clip-path="url(#pcebe4ee8c6)">
     <use xlink:href="#m1f2d0c29ae" x="72.603295" y="307.8" style="stroke: #000000; stroke-linejoin: miter"/>
     <use xlink:href="#m1f2d0c29ae" x="78.521477" y="140.887129" style="stroke: #000000; stroke-linejoin: miter"/>
     <use xlink:href="#m1f2d0c29ae" x="84.439659" y="83.169884" style="stroke: #000000; stroke-linejoin: miter"/>
     <use xlink:href="#m1f2d0c29ae" x="90.357841" y="153.25511" style="stroke: #000000; stroke-linejoin: miter"/>
     <use xlink:href="#m1f2d0c29ae" x="96.276023" y="197.573709" style="stroke: #000000; stroke-linejoin: miter"/>
     <use xlink:href="#m1f2d0c29ae" x="102.194205" y="216.12568" style="stroke: #000000; stroke-linejoin: miter"/>
     <use xlink:href="#m1f2d0c29ae" x="108.112386" y="221.279006" style="stroke: #000000; stroke-linejoin: miter"/>
     <use xlink:href="#m1f2d0c29ae" x="119.94875" y="244.755266" style="stroke: #000000; stroke-linejoin: miter"/>
     <use xlink:href="#m1f2d0c29ae" x="143.621477" y="260.501538" style="stroke: #000000; stroke-linejoin: miter"/>
     <use xlink:href="#m1f2d0c29ae" x="167.294205" y="278.39503" style="stroke: #000000; stroke-linejoin: miter"/>
     <use xlink:href="#m1f2d0c29ae" x="214.639659" y="283.405207" style="stroke: #000000; stroke-linejoin: miter"/>
     <use xlink:href="#m1f2d0c29ae" x="356.676023" y="285.552426" style="stroke: #000000; stroke-linejoin: miter"/>
    </g>
   </g>
   <g id="line2d_15">
    <path d="M 72.603295 307.8 
L 72.958386 307.036505 
L 73.313477 303.199718 
L 74.023659 289.540727 
L 75.444023 259.806086 
L 76.509295 241.701627 
L 77.574568 227.322053 
L 78.639841 216.067817 
L 79.705114 207.388266 
L 80.770386 200.820711 
L 81.835659 195.980475 
L 82.545841 193.553292 
L 83.256023 191.670124 
L 83.966205 190.259796 
L 84.676386 189.259566 
L 85.386568 188.614152 
L 86.09675 188.274877 
L 86.806932 188.19891 
L 87.517114 188.348587 
L 88.227295 188.690817 
L 89.292568 189.502641 
L 90.357841 190.59978 
L 91.778205 192.390195 
L 93.90875 195.529643 
L 97.459659 201.280602 
L 102.075841 208.674214 
L 105.271659 213.379858 
L 108.112386 217.199525 
L 110.953114 220.671592 
L 113.793841 223.813022 
L 116.634568 226.651073 
L 119.830386 229.519996 
L 123.026205 232.088763 
L 126.577114 234.641336 
L 130.128023 236.925334 
L 134.034023 239.17941 
L 138.295114 241.384727 
L 142.911295 243.532413 
L 148.237659 245.763213 
L 154.274205 248.042722 
L 161.020932 250.35233 
L 168.832932 252.791066 
L 178.065295 255.430799 
L 188.718023 258.232938 
L 200.436023 261.0838 
L 213.574386 264.048715 
L 227.778023 267.021921 
L 242.691841 269.916243 
L 258.315841 272.723496 
L 274.650023 275.434047 
L 291.694386 278.038478 
L 309.448932 280.528457 
L 328.26875 282.940631 
L 347.79875 285.218446 
L 368.394023 287.394773 
L 390.054568 289.457747 
L 412.780386 291.398352 
L 427.694205 292.55889 
L 427.694205 292.55889 
" clip-path="url(#pcebe4ee8c6)" style="fill: none; stroke: #1c120b; stroke-width: 2; stroke-linecap: square"/>
   </g>
   <g id="line2d_16">
    <path d="M 72.603295 307.8 
L 78.521477 204.673846 
L 84.439659 174.612781 
L 90.357841 190.359053 
L 96.276023 215.409941 
L 102.194205 224.714556 
L 108.112386 191.074793 
L 119.94875 239.745089 
L 143.621477 249.049704 
L 167.294205 271.953373 
L 214.639659 274.100592 
L 356.676023 279.110769 
" clip-path="url(#pcebe4ee8c6)" style="fill: none; stroke-dasharray: 3.7,1.6; stroke-dashoffset: 0; stroke: #1c120b"/>
    <defs>
     <path id="mbc712005e8" d="M -3 3 
L 3 3 
L 3 -3 
L -3 -3 
z
" style="stroke: #000000; stroke-linejoin: miter"/>
    </defs>
    <g clip-path="url(#pcebe4ee8c6)">
     <use xlink:href="#mbc712005e8" x="72.603295" y="307.8" style="fill: #1c120b; stroke: #000000; stroke-linejoin: miter"/>
     <use xlink:href="#mbc712005e8" x="78.521477" y="204.673846" style="fill: #1c120b; stroke: #000000; stroke-linejoin: miter"/>
     <use xlink:href="#mbc712005e8" x="84.439659" y="174.612781" style="fill: #1c120b; stroke: #000000; stroke-linejoin: miter"/>
     <use xlink:href="#mbc712005e8" x="90.357841" y="190.359053" style="fill: #1c120b; stroke: #000000; stroke-linejoin: miter"/>
     <use xlink:href="#mbc712005e8" x="96.276023" y="215.409941" style="fill: #1c120b; stroke: #000000; stroke-linejoin: miter"/>
     <use xlink:href="#mbc712005e8" x="102.194205" y="224.714556" style="fill: #1c120b; stroke: #000000; stroke-linejoin: miter"/>
     <use xlink:href="#mbc712005e8" x="108.112386" y="191.074793" style="fill: #1c120b; stroke: #000000; stroke-linejoin: miter"/>
     <use xlink:href="#mbc712005e8" x="119.94875" y="239.745089" style="fill: #1c120b; stroke: #000000; stroke-linejoin: miter"/>
     <use xlink:href="#mbc712005e8" x="143.621477" y="249.049704" style="fill: #1c120b; stroke: #000000; stroke-linejoin: miter"/>
     <use xlink:href="#mbc712005e8" x="167.294205" y="271.953373" style="fill: #1c120b; stroke: #000000; stroke-linejoin: miter"/>
     <use xlink:href="#mbc712005e8" x="214.639659" y="274.100592" style="fill: #1c120b; stroke: #000000; stroke-linejoin: miter"/>
     <use xlink:href="#mbc712005e8" x="356.676023" y="279.110769" style="fill: #1c120b; stroke: #000000; stroke-linejoin: miter"/>
    </g>
   </g>
   <g id="line2d_17">
    <path d="M 72.603295 307.8 
L 72.958386 307.036505 
L 73.313477 303.199718 
L 74.023659 289.540727 
L 75.444023 259.806086 
L 76.509295 241.701627 
L 77.574568 227.322053 
L 78.639841 216.067817 
L 79.705114 207.388266 
L 80.770386 200.820711 
L 81.835659 195.980475 
L 82.545841 193.553292 
L 83.256023 191.670124 
L 83.966205 190.259796 
L 84.676386 189.259566 
L 85.386568 188.614152 
L 86.09675 188.274877 
L 86.806932 188.19891 
L 87.517114 188.348587 
L 88.227295 188.690817 
L 89.292568 189.502641 
L 90.357841 190.59978 
L 91.778205 192.390195 
L 93.90875 195.529643 
L 97.459659 201.280602 
L 102.075841 208.674214 
L 105.271659 213.379858 
L 108.112386 217.199525 
L 110.953114 220.671592 
L 113.793841 223.813022 
L 116.634568 226.651073 
L 119.830386 229.519996 
L 123.026205 232.088763 
L 126.577114 234.641336 
L 130.128023 236.925334 
L 134.034023 239.17941 
L 138.295114 241.384727 
L 142.911295 243.532413 
L 148.237659 245.763213 
L 154.274205 248.042722 
L 161.020932 250.35233 
L 168.832932 252.791066 
L 178.065295 255.430799 
L 188.718023 258.232938 
L 200.436023 261.0838 
L 213.574386 264.048715 
L 227.778023 267.021921 
L 242.691841 269.916243 
L 258.315841 272.723496 
L 274.650023 275.434047 
L 291.694386 278.038478 
L 309.448932 280.528457 
L 328.26875 282.940631 
L 347.79875 285.218446 
L 368.394023 287.394773 
L 390.054568 289.457747 
L 412.780386 291.398352 
L 427.694205 292.55889 
L 427.694205 292.55889 
" clip-path="url(#pcebe4ee8c6)" style="fill: none; stroke: #392417; stroke-width: 2; stroke-linecap: square"/>
   </g>
   <g id="line2d_18">
    <path d="M 72.603295 307.8 
L 78.521477 257.63858 
L 84.439659 241.176568 
L 90.357841 148.130414 
L 96.276023 140.257278 
L 102.194205 125.226746 
L 108.112386 163.160947 
L 119.94875 185.348876 
L 143.621477 216.84142 
L 167.294205 218.988639 
L 214.639659 281.973728 
L 356.676023 281.973728 
" clip-path="url(#pcebe4ee8c6)" style="fill: none; stroke-dasharray: 3.7,1.6; stroke-dashoffset: 0; stroke: #392417"/>
    <defs>
     <path id="m8ca5f6d774" d="M -3 3 
L 3 3 
L 3 -3 
L -3 -3 
z
" style="stroke: #000000; stroke-linejoin: miter"/>
    </defs>
    <g clip-path="url(#pcebe4ee8c6)">
     <use xlink:href="#m8ca5f6d774" x="72.603295" y="307.8" style="fill: #392417; stroke: #000000; stroke-linejoin: miter"/>
     <use xlink:href="#m8ca5f6d774" x="78.521477" y="257.63858" style="fill: #392417; stroke: #000000; stroke-linejoin: miter"/>
     <use xlink:href="#m8ca5f6d774" x="84.439659" y="241.176568" style="fill: #392417; stroke: #000000; stroke-linejoin: miter"/>
     <use xlink:href="#m8ca5f6d774" x="90.357841" y="148.130414" style="fill: #392417; stroke: #000000; stroke-linejoin: miter"/>
     <use xlink:href="#m8ca5f6d774" x="96.276023" y="140.257278" style="fill: #392417; stroke: #000000; stroke-linejoin: miter"/>
     <use xlink:href="#m8ca5f6d774" x="102.194205" y="125.226746" style="fill: #392417; stroke: #000000; stroke-linejoin: miter"/>
     <use xlink:href="#m8ca5f6d774" x="108.112386" y="163.160947" style="fill: #392417; stroke: #000000; stroke-linejoin: miter"/>
     <use xlink:href="#m8ca5f6d774" x="119.94875" y="185.348876" style="fill: #392417; stroke: #000000; stroke-linejoin: miter"/>
     <use xlink:href="#m8ca5f6d774" x="143.621477" y="216.84142" style="fill: #392417; stroke: #000000; stroke-linejoin: miter"/>
     <use xlink:href="#m8ca5f6d774" x="167.294205" y="218.988639" style="fill: #392417; stroke: #000000; stroke-linejoin: miter"/>
     <use xlink:href="#m8ca5f6d774" x="214.639659" y="281.973728" style="fill: #392417; stroke: #000000; stroke-linejoin: miter"/>
     <use xlink:href="#m8ca5f6d774" x="356.676023" y="281.973728" style="fill: #392417; stroke: #000000; stroke-linejoin: miter"/>
    </g>
   </g>
   <g id="line2d_19">
    <path d="M 72.603295 307.8 
L 72.958386 307.036505 
L 73.313477 303.199718 
L 74.023659 289.540727 
L 75.444023 259.806086 
L 76.509295 241.701627 
L 77.574568 227.322053 
L 78.639841 216.067817 
L 79.705114 207.388266 
L 80.770386 200.820711 
L 81.835659 195.980475 
L 82.545841 193.553292 
L 83.256023 191.670124 
L 83.966205 190.259796 
L 84.676386 189.259566 
L 85.386568 188.614152 
L 86.09675 188.274877 
L 86.806932 188.19891 
L 87.517114 188.348587 
L 88.227295 188.690817 
L 89.292568 189.502641 
L 90.357841 190.59978 
L 91.778205 192.390195 
L 93.90875 195.529643 
L 97.459659 201.280602 
L 102.075841 208.674214 
L 105.271659 213.379858 
L 108.112386 217.199525 
L 110.953114 220.671592 
L 113.793841 223.813022 
L 116.634568 226.651073 
L 119.830386 229.519996 
L 123.026205 232.088763 
L 126.577114 234.641336 
L 130.128023 236.925334 
L 134.034023 239.17941 
L 138.295114 241.384727 
L 142.911295 243.532413 
L 148.237659 245.763213 
L 154.274205 248.042722 
L 161.020932 250.35233 
L 168.832932 252.791066 
L 178.065295 255.430799 
L 188.718023 258.232938 
L 200.436023 261.0838 
L 213.574386 264.048715 
L 227.778023 267.021921 
L 242.691841 269.916243 
L 258.315841 272.723496 
L 274.650023 275.434047 
L 291.694386 278.038478 
L 309.448932 280.528457 
L 328.26875 282.940631 
L 347.79875 285.218446 
L 368.394023 287.394773 
L 390.054568 289.457747 
L 412.780386 291.398352 
L 427.694205 292.55889 
L 427.694205 292.55889 
" clip-path="url(#pcebe4ee8c6)" style="fill: none; stroke: #553622; stroke-width: 2; stroke-linecap: square"/>
   </g>
   <g id="line2d_20">
    <path d="M 72.603295 307.8 
L 78.521477 266.227456 
L 84.439659 112.343432 
L 90.357841 55.8 
L 96.276023 65.104615 
L 102.194205 84.429586 
L 108.112386 82.282367 
L 119.94875 160.297988 
L 143.621477 236.166391 
L 167.294205 256.207101 
L 214.639659 271.953373 
L 356.676023 280.542249 
" clip-path="url(#pcebe4ee8c6)" style="fill: none; stroke-dasharray: 3.7,1.6; stroke-dashoffset: 0; stroke: #553622"/>
    <defs>
     <path id="maa18d613b4" d="M -3 3 
L 3 3 
L 3 -3 
L -3 -3 
z
" style="stroke: #000000; stroke-linejoin: miter"/>
    </defs>
    <g clip-path="url(#pcebe4ee8c6)">
     <use xlink:href="#maa18d613b4" x="72.603295" y="307.8" style="fill: #553622; stroke: #000000; stroke-linejoin: miter"/>
     <use xlink:href="#maa18d613b4" x="78.521477" y="266.227456" style="fill: #553622; stroke: #000000; stroke-linejoin: miter"/>
     <use xlink:href="#maa18d613b4" x="84.439659" y="112.343432" style="fill: #553622; stroke: #000000; stroke-linejoin: miter"/>
     <use xlink:href="#maa18d613b4" x="90.357841" y="55.8" style="fill: #553622; stroke: #000000; stroke-linejoin: miter"/>
     <use xlink:href="#maa18d613b4" x="96.276023" y="65.104615" style="fill: #553622; stroke: #000000; stroke-linejoin: miter"/>
     <use xlink:href="#maa18d613b4" x="102.194205" y="84.429586" style="fill: #553622; stroke: #000000; stroke-linejoin: miter"/>
     <use xlink:href="#maa18d613b4" x="108.112386" y="82.282367" style="fill: #553622; stroke: #000000; stroke-linejoin: miter"/>
     <use xlink:href="#maa18d613b4" x="119.94875" y="160.297988" style="fill: #553622; stroke: #000000; stroke-linejoin: miter"/>
     <use xlink:href="#maa18d613b4" x="143.621477" y="236.166391" style="fill: #553622; stroke: #000000; stroke-linejoin: miter"/>
     <use xlink:href="#maa18d613b4" x="167.294205" y="256.207101" style="fill: #553622; stroke: #000000; stroke-linejoin: miter"/>
     <use xlink:href="#maa18d613b4" x="214.639659" y="271.953373" style="fill: #553622; stroke: #000000; stroke-linejoin: miter"/>
     <use xlink:href="#maa18d613b4" x="356.676023" y="280.542249" style="fill: #553622; stroke: #000000; stroke-linejoin: miter"/>
    </g>
   </g>
   <g id="line2d_21">
    <path d="M 72.603295 307.8 
L 72.958386 307.036505 
L 73.313477 303.199718 
L 74.023659 289.540727 
L 75.444023 259.806086 
L 76.509295 241.701627 
L 77.574568 227.322053 
L 78.639841 216.067817 
L 79.705114 207.388266 
L 80.770386 200.820711 
L 81.835659 195.980475 
L 82.545841 193.553292 
L 83.256023 191.670124 
L 83.966205 190.259796 
L 84.676386 189.259566 
L 85.386568 188.614152 
L 86.09675 188.274877 
L 86.806932 188.19891 
L 87.517114 188.348587 
L 88.227295 188.690817 
L 89.292568 189.502641 
L 90.357841 190.59978 
L 91.778205 192.390195 
L 93.90875 195.529643 
L 97.459659 201.280602 
L 102.075841 208.674214 
L 105.271659 213.379858 
L 108.112386 217.199525 
L 110.953114 220.671592 
L 113.793841 223.813022 
L 116.634568 226.651073 
L 119.830386 229.519996 
L 123.026205 232.088763 
L 126.577114 234.641336 
L 130.128023 236.925334 
L 134.034023 239.17941 
L 138.295114 241.384727 
L 142.911295 243.532413 
L 148.237659 245.763213 
L 154.274205 248.042722 
L 161.020932 250.35233 
L 168.832932 252.791066 
L 178.065295 255.430799 
L 188.718023 258.232938 
L 200.436023 261.0838 
L 213.574386 264.048715 
L 227.778023 267.021921 
L 242.691841 269.916243 
L 258.315841 272.723496 
L 274.650023 275.434047 
L 291.694386 278.038478 
L 309.448932 280.528457 
L 328.26875 282.940631 
L 347.79875 285.218446 
L 368.394023 287.394773 
L 390.054568 289.457747 
L 412.780386 291.398352 
L 427.694205 292.55889 
L 427.694205 292.55889 
" clip-path="url(#pcebe4ee8c6)" style="fill: none; stroke: #73492e; stroke-width: 2; stroke-linecap: square"/>
   </g>
   <g id="line2d_22">
    <path d="M 72.603295 307.8 
L 78.521477 259.070059 
L 84.439659 223.998817 
L 90.357841 207.536805 
L 96.276023 198.232189 
L 102.194205 171.034083 
L 108.112386 198.947929 
L 119.94875 222.567337 
L 143.621477 259.255621 
L 167.294205 270.024852 
L 214.639659 277.480473 
L 356.676023 282.865089 
" clip-path="url(#pcebe4ee8c6)" style="fill: none; stroke-dasharray: 3.7,1.6; stroke-dashoffset: 0; stroke: #73492e"/>
    <defs>
     <path id="mbfe1ddedb7" d="M -3 3 
L 3 3 
L 3 -3 
L -3 -3 
z
" style="stroke: #000000; stroke-linejoin: miter"/>
    </defs>
    <g clip-path="url(#pcebe4ee8c6)">
     <use xlink:href="#mbfe1ddedb7" x="72.603295" y="307.8" style="fill: #73492e; stroke: #000000; stroke-linejoin: miter"/>
     <use xlink:href="#mbfe1ddedb7" x="78.521477" y="259.070059" style="fill: #73492e; stroke: #000000; stroke-linejoin: miter"/>
     <use xlink:href="#mbfe1ddedb7" x="84.439659" y="223.998817" style="fill: #73492e; stroke: #000000; stroke-linejoin: miter"/>
     <use xlink:href="#mbfe1ddedb7" x="90.357841" y="207.536805" style="fill: #73492e; stroke: #000000; stroke-linejoin: miter"/>
     <use xlink:href="#mbfe1ddedb7" x="96.276023" y="198.232189" style="fill: #73492e; stroke: #000000; stroke-linejoin: miter"/>
     <use xlink:href="#mbfe1ddedb7" x="102.194205" y="171.034083" style="fill: #73492e; stroke: #000000; stroke-linejoin: miter"/>
     <use xlink:href="#mbfe1ddedb7" x="108.112386" y="198.947929" style="fill: #73492e; stroke: #000000; stroke-linejoin: miter"/>
     <use xlink:href="#mbfe1ddedb7" x="119.94875" y="222.567337" style="fill: #73492e; stroke: #000000; stroke-linejoin: miter"/>
     <use xlink:href="#mbfe1ddedb7" x="143.621477" y="259.255621" style="fill: #73492e; stroke: #000000; stroke-linejoin: miter"/>
     <use xlink:href="#mbfe1ddedb7" x="167.294205" y="270.024852" style="fill: #73492e; stroke: #000000; stroke-linejoin: miter"/>
     <use xlink:href="#mbfe1ddedb7" x="214.639659" y="277.480473" style="fill: #73492e; stroke: #000000; stroke-linejoin: miter"/>
     <use xlink:href="#mbfe1ddedb7" x="356.676023" y="282.865089" style="fill: #73492e; stroke: #000000; stroke-linejoin: miter"/>
    </g>
   </g>
   <g id="line2d_23">
    <path d="M 72.603295 307.8 
L 72.958386 307.036505 
L 73.313477 303.199718 
L 74.023659 289.540727 
L 75.444023 259.806086 
L 76.509295 241.701627 
L 77.574568 227.322053 
L 78.639841 216.067817 
L 79.705114 207.388266 
L 80.770386 200.820711 
L 81.835659 195.980475 
L 82.545841 193.553292 
L 83.256023 191.670124 
L 83.966205 190.259796 
L 84.676386 189.259566 
L 85.386568 188.614152 
L 86.09675 188.274877 
L 86.806932 188.19891 
L 87.517114 188.348587 
L 88.227295 188.690817 
L 89.292568 189.502641 
L 90.357841 190.59978 
L 91.778205 192.390195 
L 93.90875 195.529643 
L 97.459659 201.280602 
L 102.075841 208.674214 
L 105.271659 213.379858 
L 108.112386 217.199525 
L 110.953114 220.671592 
L 113.793841 223.813022 
L 116.634568 226.651073 
L 119.830386 229.519996 
L 123.026205 232.088763 
L 126.577114 234.641336 
L 130.128023 236.925334 
L 134.034023 239.17941 
L 138.295114 241.384727 
L 142.911295 243.532413 
L 148.237659 245.763213 
L 154.274205 248.042722 
L 161.020932 250.35233 
L 168.832932 252.791066 
L 178.065295 255.430799 
L 188.718023 258.232938 
L 200.436023 261.0838 
L 213.574386 264.048715 
L 227.778023 267.021921 
L 242.691841 269.916243 
L 258.315841 272.723496 
L 274.650023 275.434047 
L 291.694386 278.038478 
L 309.448932 280.528457 
L 328.26875 282.940631 
L 347.79875 285.218446 
L 368.394023 287.394773 
L 390.054568 289.457747 
L 412.780386 291.398352 
L 427.694205 292.55889 
L 427.694205 292.55889 
" clip-path="url(#pcebe4ee8c6)" style="fill: none; stroke: #8f5b3a; stroke-width: 2; stroke-linecap: square"/>
   </g>
   <g id="line2d_24">
    <path d="M 72.603295 307.8 
L 78.521477 221.149112 
L 84.439659 127.125444 
L 90.357841 193.811834 
L 96.276023 221.977515 
L 102.194205 233.989349 
L 108.112386 231.089941 
L 119.94875 260.084024 
L 143.621477 267.125444 
L 167.294205 266.943195 
L 214.639659 274.299385 
L 356.676023 281.433941 
" clip-path="url(#pcebe4ee8c6)" style="fill: none; stroke-dasharray: 3.7,1.6; stroke-dashoffset: 0; stroke: #8f5b3a"/>
    <defs>
     <path id="mfe4e4e6a68" d="M -3 3 
L 3 3 
L 3 -3 
L -3 -3 
z
" style="stroke: #000000; stroke-linejoin: miter"/>
    </defs>
    <g clip-path="url(#pcebe4ee8c6)">
     <use xlink:href="#mfe4e4e6a68" x="72.603295" y="307.8" style="fill: #8f5b3a; stroke: #000000; stroke-linejoin: miter"/>
     <use xlink:href="#mfe4e4e6a68" x="78.521477" y="221.149112" style="fill: #8f5b3a; stroke: #000000; stroke-linejoin: miter"/>
     <use xlink:href="#mfe4e4e6a68" x="84.439659" y="127.125444" style="fill: #8f5b3a; stroke: #000000; stroke-linejoin: miter"/>
     <use xlink:href="#mfe4e4e6a68" x="90.357841" y="193.811834" style="fill: #8f5b3a; stroke: #000000; stroke-linejoin: miter"/>
     <use xlink:href="#mfe4e4e6a68" x="96.276023" y="221.977515" style="fill: #8f5b3a; stroke: #000000; stroke-linejoin: miter"/>
     <use xlink:href="#mfe4e4e6a68" x="102.194205" y="233.989349" style="fill: #8f5b3a; stroke: #000000; stroke-linejoin: miter"/>
     <use xlink:href="#mfe4e4e6a68" x="108.112386" y="231.089941" style="fill: #8f5b3a; stroke: #000000; stroke-linejoin: miter"/>
     <use xlink:href="#mfe4e4e6a68" x="119.94875" y="260.084024" style="fill: #8f5b3a; stroke: #000000; stroke-linejoin: miter"/>
     <use xlink:href="#mfe4e4e6a68" x="143.621477" y="267.125444" style="fill: #8f5b3a; stroke: #000000; stroke-linejoin: miter"/>
     <use xlink:href="#mfe4e4e6a68" x="167.294205" y="266.943195" style="fill: #8f5b3a; stroke: #000000; stroke-linejoin: miter"/>
     <use xlink:href="#mfe4e4e6a68" x="214.639659" y="274.299385" style="fill: #8f5b3a; stroke: #000000; stroke-linejoin: miter"/>
     <use xlink:href="#mfe4e4e6a68" x="356.676023" y="281.433941" style="fill: #8f5b3a; stroke: #000000; stroke-linejoin: miter"/>
    </g>
   </g>
   <g id="line2d_25">
    <path d="M 72.603295 307.8 
L 72.958386 307.036505 
L 73.313477 303.199718 
L 74.023659 289.540727 
L 75.444023 259.806086 
L 76.509295 241.701627 
L 77.574568 227.322053 
L 78.639841 216.067817 
L 79.705114 207.388266 
L 80.770386 200.820711 
L 81.835659 195.980475 
L 82.545841 193.553292 
L 83.256023 191.670124 
L 83.966205 190.259796 
L 84.676386 189.259566 
L 85.386568 188.614152 
L 86.09675 188.274877 
L 86.806932 188.19891 
L 87.517114 188.348587 
L 88.227295 188.690817 
L 89.292568 189.502641 
L 90.357841 190.59978 
L 91.778205 192.390195 
L 93.90875 195.529643 
L 97.459659 201.280602 
L 102.075841 208.674214 
L 105.271659 213.379858 
L 108.112386 217.199525 
L 110.953114 220.671592 
L 113.793841 223.813022 
L 116.634568 226.651073 
L 119.830386 229.519996 
L 123.026205 232.088763 
L 126.577114 234.641336 
L 130.128023 236.925334 
L 134.034023 239.17941 
L 138.295114 241.384727 
L 142.911295 243.532413 
L 148.237659 245.763213 
L 154.274205 248.042722 
L 161.020932 250.35233 
L 168.832932 252.791066 
L 178.065295 255.430799 
L 188.718023 258.232938 
L 200.436023 261.0838 
L 213.574386 264.048715 
L 227.778023 267.021921 
L 242.691841 269.916243 
L 258.315841 272.723496 
L 274.650023 275.434047 
L 291.694386 278.038478 
L 309.448932 280.528457 
L 328.26875 282.940631 
L 347.79875 285.218446 
L 368.394023 287.394773 
L 390.054568 289.457747 
L 412.780386 291.398352 
L 427.694205 292.55889 
L 427.694205 292.55889 
" clip-path="url(#pcebe4ee8c6)" style="fill: none; stroke: #ac6d45; stroke-width: 2; stroke-linecap: square"/>
   </g>
   <g id="line2d_26">
    <path d="M 72.603295 307.8 
L 78.521477 236.723077 
L 84.439659 181.054438 
L 90.357841 167.63432 
L 96.276023 142.285207 
L 102.194205 162.166864 
L 108.112386 162.166864 
L 119.94875 173.101775 
L 143.621477 206.900592 
L 167.294205 227.776331 
L 214.639659 244.67574 
L 356.676023 262.072189 
" clip-path="url(#pcebe4ee8c6)" style="fill: none; stroke-dasharray: 3.7,1.6; stroke-dashoffset: 0; stroke: #ac6d45"/>
    <defs>
     <path id="m9d30afaa87" d="M -3 3 
L 3 3 
L 3 -3 
L -3 -3 
z
" style="stroke: #000000; stroke-linejoin: miter"/>
    </defs>
    <g clip-path="url(#pcebe4ee8c6)">
     <use xlink:href="#m9d30afaa87" x="72.603295" y="307.8" style="fill: #ac6d45; stroke: #000000; stroke-linejoin: miter"/>
     <use xlink:href="#m9d30afaa87" x="78.521477" y="236.723077" style="fill: #ac6d45; stroke: #000000; stroke-linejoin: miter"/>
     <use xlink:href="#m9d30afaa87" x="84.439659" y="181.054438" style="fill: #ac6d45; stroke: #000000; stroke-linejoin: miter"/>
     <use xlink:href="#m9d30afaa87" x="90.357841" y="167.63432" style="fill: #ac6d45; stroke: #000000; stroke-linejoin: miter"/>
     <use xlink:href="#m9d30afaa87" x="96.276023" y="142.285207" style="fill: #ac6d45; stroke: #000000; stroke-linejoin: miter"/>
     <use xlink:href="#m9d30afaa87" x="102.194205" y="162.166864" style="fill: #ac6d45; stroke: #000000; stroke-linejoin: miter"/>
     <use xlink:href="#m9d30afaa87" x="108.112386" y="162.166864" style="fill: #ac6d45; stroke: #000000; stroke-linejoin: miter"/>
     <use xlink:href="#m9d30afaa87" x="119.94875" y="173.101775" style="fill: #ac6d45; stroke: #000000; stroke-linejoin: miter"/>
     <use xlink:href="#m9d30afaa87" x="143.621477" y="206.900592" style="fill: #ac6d45; stroke: #000000; stroke-linejoin: miter"/>
     <use xlink:href="#m9d30afaa87" x="167.294205" y="227.776331" style="fill: #ac6d45; stroke: #000000; stroke-linejoin: miter"/>
     <use xlink:href="#m9d30afaa87" x="214.639659" y="244.67574" style="fill: #ac6d45; stroke: #000000; stroke-linejoin: miter"/>
     <use xlink:href="#m9d30afaa87" x="356.676023" y="262.072189" style="fill: #ac6d45; stroke: #000000; stroke-linejoin: miter"/>
    </g>
   </g>
   <g id="line2d_27">
    <path d="M 72.603295 307.8 
L 72.958386 307.036505 
L 73.313477 303.199718 
L 74.023659 289.540727 
L 75.444023 259.806086 
L 76.509295 241.701627 
L 77.574568 227.322053 
L 78.639841 216.067817 
L 79.705114 207.388266 
L 80.770386 200.820711 
L 81.835659 195.980475 
L 82.545841 193.553292 
L 83.256023 191.670124 
L 83.966205 190.259796 
L 84.676386 189.259566 
L 85.386568 188.614152 
L 86.09675 188.274877 
L 86.806932 188.19891 
L 87.517114 188.348587 
L 88.227295 188.690817 
L 89.292568 189.502641 
L 90.357841 190.59978 
L 91.778205 192.390195 
L 93.90875 195.529643 
L 97.459659 201.280602 
L 102.075841 208.674214 
L 105.271659 213.379858 
L 108.112386 217.199525 
L 110.953114 220.671592 
L 113.793841 223.813022 
L 116.634568 226.651073 
L 119.830386 229.519996 
L 123.026205 232.088763 
L 126.577114 234.641336 
L 130.128023 236.925334 
L 134.034023 239.17941 
L 138.295114 241.384727 
L 142.911295 243.532413 
L 148.237659 245.763213 
L 154.274205 248.042722 
L 161.020932 250.35233 
L 168.832932 252.791066 
L 178.065295 255.430799 
L 188.718023 258.232938 
L 200.436023 261.0838 
L 213.574386 264.048715 
L 227.778023 267.021921 
L 242.691841 269.916243 
L 258.315841 272.723496 
L 274.650023 275.434047 
L 291.694386 278.038478 
L 309.448932 280.528457 
L 328.26875 282.940631 
L 347.79875 285.218446 
L 368.394023 287.394773 
L 390.054568 289.457747 
L 412.780386 291.398352 
L 427.694205 292.55889 
L 427.694205 292.55889 
" clip-path="url(#pcebe4ee8c6)" style="fill: none; stroke: #c87f51; stroke-width: 2; stroke-linecap: square"/>
   </g>
   <g id="line2d_28">
    <path d="M 72.603295 307.8 
L 78.521477 250.143195 
L 84.439659 150.23787 
L 90.357841 139.8 
L 96.276023 191.989349 
L 102.194205 208.391716 
L 108.112386 214.853254 
L 119.94875 238.214201 
L 143.621477 255.610651 
L 167.294205 265.551479 
L 214.639659 269.030769 
L 356.676023 282.450888 
" clip-path="url(#pcebe4ee8c6)" style="fill: none; stroke-dasharray: 3.7,1.6; stroke-dashoffset: 0; stroke: #c87f51"/>
    <defs>
     <path id="mda2811a32b" d="M -3 3 
L 3 3 
L 3 -3 
L -3 -3 
z
" style="stroke: #000000; stroke-linejoin: miter"/>
    </defs>
    <g clip-path="url(#pcebe4ee8c6)">
     <use xlink:href="#mda2811a32b" x="72.603295" y="307.8" style="fill: #c87f51; stroke: #000000; stroke-linejoin: miter"/>
     <use xlink:href="#mda2811a32b" x="78.521477" y="250.143195" style="fill: #c87f51; stroke: #000000; stroke-linejoin: miter"/>
     <use xlink:href="#mda2811a32b" x="84.439659" y="150.23787" style="fill: #c87f51; stroke: #000000; stroke-linejoin: miter"/>
     <use xlink:href="#mda2811a32b" x="90.357841" y="139.8" style="fill: #c87f51; stroke: #000000; stroke-linejoin: miter"/>
     <use xlink:href="#mda2811a32b" x="96.276023" y="191.989349" style="fill: #c87f51; stroke: #000000; stroke-linejoin: miter"/>
     <use xlink:href="#mda2811a32b" x="102.194205" y="208.391716" style="fill: #c87f51; stroke: #000000; stroke-linejoin: miter"/>
     <use xlink:href="#mda2811a32b" x="108.112386" y="214.853254" style="fill: #c87f51; stroke: #000000; stroke-linejoin: miter"/>
     <use xlink:href="#mda2811a32b" x="119.94875" y="238.214201" style="fill: #c87f51; stroke: #000000; stroke-linejoin: miter"/>
     <use xlink:href="#mda2811a32b" x="143.621477" y="255.610651" style="fill: #c87f51; stroke: #000000; stroke-linejoin: miter"/>
     <use xlink:href="#mda2811a32b" x="167.294205" y="265.551479" style="fill: #c87f51; stroke: #000000; stroke-linejoin: miter"/>
     <use xlink:href="#mda2811a32b" x="214.639659" y="269.030769" style="fill: #c87f51; stroke: #000000; stroke-linejoin: miter"/>
     <use xlink:href="#mda2811a32b" x="356.676023" y="282.450888" style="fill: #c87f51; stroke: #000000; stroke-linejoin: miter"/>
    </g>
   </g>
   <g id="line2d_29">
    <path d="M 72.603295 307.8 
L 72.958386 307.036505 
L 73.313477 303.199718 
L 74.023659 289.540727 
L 75.444023 259.806086 
L 76.509295 241.701627 
L 77.574568 227.322053 
L 78.639841 216.067817 
L 79.705114 207.388266 
L 80.770386 200.820711 
L 81.835659 195.980475 
L 82.545841 193.553292 
L 83.256023 191.670124 
L 83.966205 190.259796 
L 84.676386 189.259566 
L 85.386568 188.614152 
L 86.09675 188.274877 
L 86.806932 188.19891 
L 87.517114 188.348587 
L 88.227295 188.690817 
L 89.292568 189.502641 
L 90.357841 190.59978 
L 91.778205 192.390195 
L 93.90875 195.529643 
L 97.459659 201.280602 
L 102.075841 208.674214 
L 105.271659 213.379858 
L 108.112386 217.199525 
L 110.953114 220.671592 
L 113.793841 223.813022 
L 116.634568 226.651073 
L 119.830386 229.519996 
L 123.026205 232.088763 
L 126.577114 234.641336 
L 130.128023 236.925334 
L 134.034023 239.17941 
L 138.295114 241.384727 
L 142.911295 243.532413 
L 148.237659 245.763213 
L 154.274205 248.042722 
L 161.020932 250.35233 
L 168.832932 252.791066 
L 178.065295 255.430799 
L 188.718023 258.232938 
L 200.436023 261.0838 
L 213.574386 264.048715 
L 227.778023 267.021921 
L 242.691841 269.916243 
L 258.315841 272.723496 
L 274.650023 275.434047 
L 291.694386 278.038478 
L 309.448932 280.528457 
L 328.26875 282.940631 
L 347.79875 285.218446 
L 368.394023 287.394773 
L 390.054568 289.457747 
L 412.780386 291.398352 
L 427.694205 292.55889 
L 427.694205 292.55889 
" clip-path="url(#pcebe4ee8c6)" style="fill: none; stroke: #e6915d; stroke-width: 2; stroke-linecap: square"/>
   </g>
   <g id="line2d_30">
    <path d="M 72.603295 307.8 
L 78.521477 259.586982 
L 84.439659 156.699408 
L 90.357841 161.172781 
L 96.276023 168.628402 
L 102.194205 182.048521 
L 108.112386 184.036686 
L 119.94875 223.302959 
L 143.621477 259.586982 
L 167.294205 268.533728 
L 214.639659 278.474556 
L 356.676023 281.456805 
" clip-path="url(#pcebe4ee8c6)" style="fill: none; stroke-dasharray: 3.7,1.6; stroke-dashoffset: 0; stroke: #e6915d"/>
    <defs>
     <path id="me6fa7afd93" d="M -3 3 
L 3 3 
L 3 -3 
L -3 -3 
z
" style="stroke: #000000; stroke-linejoin: miter"/>
    </defs>
    <g clip-path="url(#pcebe4ee8c6)">
     <use xlink:href="#me6fa7afd93" x="72.603295" y="307.8" style="fill: #e6915d; stroke: #000000; stroke-linejoin: miter"/>
     <use xlink:href="#me6fa7afd93" x="78.521477" y="259.586982" style="fill: #e6915d; stroke: #000000; stroke-linejoin: miter"/>
     <use xlink:href="#me6fa7afd93" x="84.439659" y="156.699408" style="fill: #e6915d; stroke: #000000; stroke-linejoin: miter"/>
     <use xlink:href="#me6fa7afd93" x="90.357841" y="161.172781" style="fill: #e6915d; stroke: #000000; stroke-linejoin: miter"/>
     <use xlink:href="#me6fa7afd93" x="96.276023" y="168.628402" style="fill: #e6915d; stroke: #000000; stroke-linejoin: miter"/>
     <use xlink:href="#me6fa7afd93" x="102.194205" y="182.048521" style="fill: #e6915d; stroke: #000000; stroke-linejoin: miter"/>
     <use xlink:href="#me6fa7afd93" x="108.112386" y="184.036686" style="fill: #e6915d; stroke: #000000; stroke-linejoin: miter"/>
     <use xlink:href="#me6fa7afd93" x="119.94875" y="223.302959" style="fill: #e6915d; stroke: #000000; stroke-linejoin: miter"/>
     <use xlink:href="#me6fa7afd93" x="143.621477" y="259.586982" style="fill: #e6915d; stroke: #000000; stroke-linejoin: miter"/>
     <use xlink:href="#me6fa7afd93" x="167.294205" y="268.533728" style="fill: #e6915d; stroke: #000000; stroke-linejoin: miter"/>
     <use xlink:href="#me6fa7afd93" x="214.639659" y="278.474556" style="fill: #e6915d; stroke: #000000; stroke-linejoin: miter"/>
     <use xlink:href="#me6fa7afd93" x="356.676023" y="281.456805" style="fill: #e6915d; stroke: #000000; stroke-linejoin: miter"/>
    </g>
   </g>
   <g id="line2d_31">
    <path d="M 72.603295 307.8 
L 72.958386 307.036505 
L 73.313477 303.199718 
L 74.023659 289.540727 
L 75.444023 259.806086 
L 76.509295 241.701627 
L 77.574568 227.322053 
L 78.639841 216.067817 
L 79.705114 207.388266 
L 80.770386 200.820711 
L 81.835659 195.980475 
L 82.545841 193.553292 
L 83.256023 191.670124 
L 83.966205 190.259796 
L 84.676386 189.259566 
L 85.386568 188.614152 
L 86.09675 188.274877 
L 86.806932 188.19891 
L 87.517114 188.348587 
L 88.227295 188.690817 
L 89.292568 189.502641 
L 90.357841 190.59978 
L 91.778205 192.390195 
L 93.90875 195.529643 
L 97.459659 201.280602 
L 102.075841 208.674214 
L 105.271659 213.379858 
L 108.112386 217.199525 
L 110.953114 220.671592 
L 113.793841 223.813022 
L 116.634568 226.651073 
L 119.830386 229.519996 
L 123.026205 232.088763 
L 126.577114 234.641336 
L 130.128023 236.925334 
L 134.034023 239.17941 
L 138.295114 241.384727 
L 142.911295 243.532413 
L 148.237659 245.763213 
L 154.274205 248.042722 
L 161.020932 250.35233 
L 168.832932 252.791066 
L 178.065295 255.430799 
L 188.718023 258.232938 
L 200.436023 261.0838 
L 213.574386 264.048715 
L 227.778023 267.021921 
L 242.691841 269.916243 
L 258.315841 272.723496 
L 274.650023 275.434047 
L 291.694386 278.038478 
L 309.448932 280.528457 
L 328.26875 282.940631 
L 347.79875 285.218446 
L 368.394023 287.394773 
L 390.054568 289.457747 
L 412.780386 291.398352 
L 427.694205 292.55889 
L 427.694205 292.55889 
" clip-path="url(#pcebe4ee8c6)" style="fill: none; stroke: #ffa368; stroke-width: 2; stroke-linecap: square"/>
   </g>
   <g id="line2d_32">
    <path d="M 72.603295 307.8 
L 78.521477 264.060355 
L 84.439659 232.746746 
L 90.357841 194.971598 
L 96.276023 223.8 
L 102.194205 234.23787 
L 108.112386 241.693491 
L 119.94875 251.63432 
L 143.621477 270.024852 
L 167.294205 272.013018 
L 214.639659 277.977515 
L 356.676023 285.930178 
" clip-path="url(#pcebe4ee8c6)" style="fill: none; stroke-dasharray: 3.7,1.6; stroke-dashoffset: 0; stroke: #ffa368"/>
    <defs>
     <path id="m98666cb7e4" d="M -3 3 
L 3 3 
L 3 -3 
L -3 -3 
z
" style="stroke: #000000; stroke-linejoin: miter"/>
    </defs>
    <g clip-path="url(#pcebe4ee8c6)">
     <use xlink:href="#m98666cb7e4" x="72.603295" y="307.8" style="fill: #ffa368; stroke: #000000; stroke-linejoin: miter"/>
     <use xlink:href="#m98666cb7e4" x="78.521477" y="264.060355" style="fill: #ffa368; stroke: #000000; stroke-linejoin: miter"/>
     <use xlink:href="#m98666cb7e4" x="84.439659" y="232.746746" style="fill: #ffa368; stroke: #000000; stroke-linejoin: miter"/>
     <use xlink:href="#m98666cb7e4" x="90.357841" y="194.971598" style="fill: #ffa368; stroke: #000000; stroke-linejoin: miter"/>
     <use xlink:href="#m98666cb7e4" x="96.276023" y="223.8" style="fill: #ffa368; stroke: #000000; stroke-linejoin: miter"/>
     <use xlink:href="#m98666cb7e4" x="102.194205" y="234.23787" style="fill: #ffa368; stroke: #000000; stroke-linejoin: miter"/>
     <use xlink:href="#m98666cb7e4" x="108.112386" y="241.693491" style="fill: #ffa368; stroke: #000000; stroke-linejoin: miter"/>
     <use xlink:href="#m98666cb7e4" x="119.94875" y="251.63432" style="fill: #ffa368; stroke: #000000; stroke-linejoin: miter"/>
     <use xlink:href="#m98666cb7e4" x="143.621477" y="270.024852" style="fill: #ffa368; stroke: #000000; stroke-linejoin: miter"/>
     <use xlink:href="#m98666cb7e4" x="167.294205" y="272.013018" style="fill: #ffa368; stroke: #000000; stroke-linejoin: miter"/>
     <use xlink:href="#m98666cb7e4" x="214.639659" y="277.977515" style="fill: #ffa368; stroke: #000000; stroke-linejoin: miter"/>
     <use xlink:href="#m98666cb7e4" x="356.676023" y="285.930178" style="fill: #ffa368; stroke: #000000; stroke-linejoin: miter"/>
    </g>
   </g>
   <g id="line2d_33">
    <path d="M 72.603295 307.8 
L 72.958386 307.036505 
L 73.313477 303.199718 
L 74.023659 289.540727 
L 75.444023 259.806086 
L 76.509295 241.701627 
L 77.574568 227.322053 
L 78.639841 216.067817 
L 79.705114 207.388266 
L 80.770386 200.820711 
L 81.835659 195.980475 
L 82.545841 193.553292 
L 83.256023 191.670124 
L 83.966205 190.259796 
L 84.676386 189.259566 
L 85.386568 188.614152 
L 86.09675 188.274877 
L 86.806932 188.19891 
L 87.517114 188.348587 
L 88.227295 188.690817 
L 89.292568 189.502641 
L 90.357841 190.59978 
L 91.778205 192.390195 
L 93.90875 195.529643 
L 97.459659 201.280602 
L 102.075841 208.674214 
L 105.271659 213.379858 
L 108.112386 217.199525 
L 110.953114 220.671592 
L 113.793841 223.813022 
L 116.634568 226.651073 
L 119.830386 229.519996 
L 123.026205 232.088763 
L 126.577114 234.641336 
L 130.128023 236.925334 
L 134.034023 239.17941 
L 138.295114 241.384727 
L 142.911295 243.532413 
L 148.237659 245.763213 
L 154.274205 248.042722 
L 161.020932 250.35233 
L 168.832932 252.791066 
L 178.065295 255.430799 
L 188.718023 258.232938 
L 200.436023 261.0838 
L 213.574386 264.048715 
L 227.778023 267.021921 
L 242.691841 269.916243 
L 258.315841 272.723496 
L 274.650023 275.434047 
L 291.694386 278.038478 
L 309.448932 280.528457 
L 328.26875 282.940631 
L 347.79875 285.218446 
L 368.394023 287.394773 
L 390.054568 289.457747 
L 412.780386 291.398352 
L 427.694205 292.55889 
L 427.694205 292.55889 
" clip-path="url(#pcebe4ee8c6)" style="fill: none; stroke: #ffb573; stroke-width: 2; stroke-linecap: square"/>
   </g>
   <g id="line2d_34">
    <path d="M 72.603295 307.8 
L 78.521477 269.527811 
L 84.439659 215.847337 
L 90.357841 184.036686 
L 96.276023 216.84142 
L 102.194205 208.888757 
L 108.112386 235.728994 
L 119.94875 249.149112 
L 143.621477 263.563314 
L 167.294205 266.048521 
L 214.639659 276.486391 
L 356.676023 284.439053 
" clip-path="url(#pcebe4ee8c6)" style="fill: none; stroke-dasharray: 3.7,1.6; stroke-dashoffset: 0; stroke: #ffb573"/>
    <defs>
     <path id="m4312f093d4" d="M -3 3 
L 3 3 
L 3 -3 
L -3 -3 
z
" style="stroke: #000000; stroke-linejoin: miter"/>
    </defs>
    <g clip-path="url(#pcebe4ee8c6)">
     <use xlink:href="#m4312f093d4" x="72.603295" y="307.8" style="fill: #ffb573; stroke: #000000; stroke-linejoin: miter"/>
     <use xlink:href="#m4312f093d4" x="78.521477" y="269.527811" style="fill: #ffb573; stroke: #000000; stroke-linejoin: miter"/>
     <use xlink:href="#m4312f093d4" x="84.439659" y="215.847337" style="fill: #ffb573; stroke: #000000; stroke-linejoin: miter"/>
     <use xlink:href="#m4312f093d4" x="90.357841" y="184.036686" style="fill: #ffb573; stroke: #000000; stroke-linejoin: miter"/>
     <use xlink:href="#m4312f093d4" x="96.276023" y="216.84142" style="fill: #ffb573; stroke: #000000; stroke-linejoin: miter"/>
     <use xlink:href="#m4312f093d4" x="102.194205" y="208.888757" style="fill: #ffb573; stroke: #000000; stroke-linejoin: miter"/>
     <use xlink:href="#m4312f093d4" x="108.112386" y="235.728994" style="fill: #ffb573; stroke: #000000; stroke-linejoin: miter"/>
     <use xlink:href="#m4312f093d4" x="119.94875" y="249.149112" style="fill: #ffb573; stroke: #000000; stroke-linejoin: miter"/>
     <use xlink:href="#m4312f093d4" x="143.621477" y="263.563314" style="fill: #ffb573; stroke: #000000; stroke-linejoin: miter"/>
     <use xlink:href="#m4312f093d4" x="167.294205" y="266.048521" style="fill: #ffb573; stroke: #000000; stroke-linejoin: miter"/>
     <use xlink:href="#m4312f093d4" x="214.639659" y="276.486391" style="fill: #ffb573; stroke: #000000; stroke-linejoin: miter"/>
     <use xlink:href="#m4312f093d4" x="356.676023" y="284.439053" style="fill: #ffb573; stroke: #000000; stroke-linejoin: miter"/>
    </g>
   </g>
   <g id="line2d_35">
    <path d="M 72.603295 307.8 
L 72.958386 307.036505 
L 73.313477 303.199718 
L 74.023659 289.540727 
L 75.444023 259.806086 
L 76.509295 241.701627 
L 77.574568 227.322053 
L 78.639841 216.067817 
L 79.705114 207.388266 
L 80.770386 200.820711 
L 81.835659 195.980475 
L 82.545841 193.553292 
L 83.256023 191.670124 
L 83.966205 190.259796 
L 84.676386 189.259566 
L 85.386568 188.614152 
L 86.09675 188.274877 
L 86.806932 188.19891 
L 87.517114 188.348587 
L 88.227295 188.690817 
L 89.292568 189.502641 
L 90.357841 190.59978 
L 91.778205 192.390195 
L 93.90875 195.529643 
L 97.459659 201.280602 
L 102.075841 208.674214 
L 105.271659 213.379858 
L 108.112386 217.199525 
L 110.953114 220.671592 
L 113.793841 223.813022 
L 116.634568 226.651073 
L 119.830386 229.519996 
L 123.026205 232.088763 
L 126.577114 234.641336 
L 130.128023 236.925334 
L 134.034023 239.17941 
L 138.295114 241.384727 
L 142.911295 243.532413 
L 148.237659 245.763213 
L 154.274205 248.042722 
L 161.020932 250.35233 
L 168.832932 252.791066 
L 178.065295 255.430799 
L 188.718023 258.232938 
L 200.436023 261.0838 
L 213.574386 264.048715 
L 227.778023 267.021921 
L 242.691841 269.916243 
L 258.315841 272.723496 
L 274.650023 275.434047 
L 291.694386 278.038478 
L 309.448932 280.528457 
L 328.26875 282.940631 
L 347.79875 285.218446 
L 368.394023 287.394773 
L 390.054568 289.457747 
L 412.780386 291.398352 
L 427.694205 292.55889 
L 427.694205 292.55889 
" clip-path="url(#pcebe4ee8c6)" style="fill: none; stroke: #ffc77f; stroke-width: 2; stroke-linecap: square"/>
   </g>
   <g id="line2d_36">
    <path d="M 72.603295 307.8 
L 78.521477 258.095858 
L 84.439659 243.184615 
L 90.357841 154.711243 
L 96.276023 197.953846 
L 102.194205 216.84142 
L 108.112386 220.817751 
L 119.94875 243.681657 
L 143.621477 259.089941 
L 167.294205 277.480473 
L 214.639659 280.959763 
L 356.676023 287.421302 
" clip-path="url(#pcebe4ee8c6)" style="fill: none; stroke-dasharray: 3.7,1.6; stroke-dashoffset: 0; stroke: #ffc77f"/>
    <defs>
     <path id="mb5bbea4002" d="M -3 3 
L 3 3 
L 3 -3 
L -3 -3 
z
" style="stroke: #000000; stroke-linejoin: miter"/>
    </defs>
    <g clip-path="url(#pcebe4ee8c6)">
     <use xlink:href="#mb5bbea4002" x="72.603295" y="307.8" style="fill: #ffc77f; stroke: #000000; stroke-linejoin: miter"/>
     <use xlink:href="#mb5bbea4002" x="78.521477" y="258.095858" style="fill: #ffc77f; stroke: #000000; stroke-linejoin: miter"/>
     <use xlink:href="#mb5bbea4002" x="84.439659" y="243.184615" style="fill: #ffc77f; stroke: #000000; stroke-linejoin: miter"/>
     <use xlink:href="#mb5bbea4002" x="90.357841" y="154.711243" style="fill: #ffc77f; stroke: #000000; stroke-linejoin: miter"/>
     <use xlink:href="#mb5bbea4002" x="96.276023" y="197.953846" style="fill: #ffc77f; stroke: #000000; stroke-linejoin: miter"/>
     <use xlink:href="#mb5bbea4002" x="102.194205" y="216.84142" style="fill: #ffc77f; stroke: #000000; stroke-linejoin: miter"/>
     <use xlink:href="#mb5bbea4002" x="108.112386" y="220.817751" style="fill: #ffc77f; stroke: #000000; stroke-linejoin: miter"/>
     <use xlink:href="#mb5bbea4002" x="119.94875" y="243.681657" style="fill: #ffc77f; stroke: #000000; stroke-linejoin: miter"/>
     <use xlink:href="#mb5bbea4002" x="143.621477" y="259.089941" style="fill: #ffc77f; stroke: #000000; stroke-linejoin: miter"/>
     <use xlink:href="#mb5bbea4002" x="167.294205" y="277.480473" style="fill: #ffc77f; stroke: #000000; stroke-linejoin: miter"/>
     <use xlink:href="#mb5bbea4002" x="214.639659" y="280.959763" style="fill: #ffc77f; stroke: #000000; stroke-linejoin: miter"/>
     <use xlink:href="#mb5bbea4002" x="356.676023" y="287.421302" style="fill: #ffc77f; stroke: #000000; stroke-linejoin: miter"/>
    </g>
   </g>
   <g id="patch_3">
    <path d="M 54.84875 320.4 
L 54.84875 43.2 
" style="fill: none; stroke: #000000; stroke-width: 0.8; stroke-linejoin: miter; stroke-linecap: square"/>
   </g>
   <g id="patch_4">
    <path d="M 445.44875 320.4 
L 445.44875 43.2 
" style="fill: none; stroke: #000000; stroke-width: 0.8; stroke-linejoin: miter; stroke-linecap: square"/>
   </g>
   <g id="patch_5">
    <path d="M 54.84875 320.4 
L 445.44875 320.4 
" style="fill: none; stroke: #000000; stroke-width: 0.8; stroke-linejoin: miter; stroke-linecap: square"/>
   </g>
   <g id="patch_6">
    <path d="M 54.84875 43.2 
L 445.44875 43.2 
" style="fill: none; stroke: #000000; stroke-width: 0.8; stroke-linejoin: miter; stroke-linecap: square"/>
   </g>
   <g id="legend_1">
    <g id="patch_7">
     <path d="M 355.314375 242.015625 
L 438.44875 242.015625 
Q 440.44875 242.015625 440.44875 240.015625 
L 440.44875 50.2 
Q 440.44875 48.2 438.44875 48.2 
L 355.314375 48.2 
Q 353.314375 48.2 353.314375 50.2 
L 353.314375 240.015625 
Q 353.314375 242.015625 355.314375 242.015625 
z
" style="fill: #ffffff; opacity: 0.8; stroke: #cccccc; stroke-linejoin: miter"/>
    </g>
    <g id="line2d_37">
     <path d="M 357.314375 56.298437 
L 377.314375 56.298437 
" style="fill: none; stroke: #000000; stroke-width: 2; stroke-linecap: square"/>
    </g>
    <g id="line2d_38"/>
    <g id="text_15">
     <!-- RAP6 -->
     <g transform="translate(385.314375 59.798437) scale(0.1 -0.1)">
      <defs>
       <path id="DejaVuSans-52" d="M 2841 2188 
Q 3044 2119 3236 1894 
Q 3428 1669 3622 1275 
L 4263 0 
L 3584 0 
L 2988 1197 
Q 2756 1666 2539 1819 
Q 2322 1972 1947 1972 
L 1259 1972 
L 1259 0 
L 628 0 
L 628 4666 
L 2053 4666 
Q 2853 4666 3247 4331 
Q 3641 3997 3641 3322 
Q 3641 2881 3436 2590 
Q 3231 2300 2841 2188 
z
M 1259 4147 
L 1259 2491 
L 2053 2491 
Q 2509 2491 2742 2702 
Q 2975 2913 2975 3322 
Q 2975 3731 2742 3939 
Q 2509 4147 2053 4147 
L 1259 4147 
z
" transform="scale(0.015625)"/>
       <path id="DejaVuSans-41" d="M 2188 4044 
L 1331 1722 
L 3047 1722 
L 2188 4044 
z
M 1831 4666 
L 2547 4666 
L 4325 0 
L 3669 0 
L 3244 1197 
L 1141 1197 
L 716 0 
L 50 0 
L 1831 4666 
z
" transform="scale(0.015625)"/>
       <path id="DejaVuSans-50" d="M 1259 4147 
L 1259 2394 
L 2053 2394 
Q 2494 2394 2734 2622 
Q 2975 2850 2975 3272 
Q 2975 3691 2734 3919 
Q 2494 4147 2053 4147 
L 1259 4147 
z
M 628 4666 
L 2053 4666 
Q 2838 4666 3239 4311 
Q 3641 3956 3641 3272 
Q 3641 2581 3239 2228 
Q 2838 1875 2053 1875 
L 1259 1875 
L 1259 0 
L 628 0 
L 628 4666 
z
" transform="scale(0.015625)"/>
       <path id="DejaVuSans-36" d="M 2113 2584 
Q 1688 2584 1439 2293 
Q 1191 2003 1191 1497 
Q 1191 994 1439 701 
Q 1688 409 2113 409 
Q 2538 409 2786 701 
Q 3034 994 3034 1497 
Q 3034 2003 2786 2293 
Q 2538 2584 2113 2584 
z
M 3366 4563 
L 3366 3988 
Q 3128 4100 2886 4159 
Q 2644 4219 2406 4219 
Q 1781 4219 1451 3797 
Q 1122 3375 1075 2522 
Q 1259 2794 1537 2939 
Q 1816 3084 2150 3084 
Q 2853 3084 3261 2657 
Q 3669 2231 3669 1497 
Q 3669 778 3244 343 
Q 2819 -91 2113 -91 
Q 1303 -91 875 529 
Q 447 1150 447 2328 
Q 447 3434 972 4092 
Q 1497 4750 2381 4750 
Q 2619 4750 2861 4703 
Q 3103 4656 3366 4563 
z
" transform="scale(0.015625)"/>
      </defs>
      <use xlink:href="#DejaVuSans-52"/>
      <use xlink:href="#DejaVuSans-41" transform="translate(65.482422 0)"/>
      <use xlink:href="#DejaVuSans-50" transform="translate(133.890625 0)"/>
      <use xlink:href="#DejaVuSans-36" transform="translate(194.193359 0)"/>
     </g>
    </g>
    <g id="line2d_39">
     <path d="M 357.314375 70.976562 
L 377.314375 70.976562 
" style="fill: none; stroke-dasharray: 3.7,1.6; stroke-dashoffset: 0; stroke: #000000"/>
    </g>
    <g id="line2d_40">
     <g>
      <use xlink:href="#m1f2d0c29ae" x="367.314375" y="70.976562" style="stroke: #000000; stroke-linejoin: miter"/>
     </g>
    </g>
    <g id="text_16">
     <!-- S1 (n=1) -->
     <g transform="translate(385.314375 74.476562) scale(0.1 -0.1)">
      <defs>
       <path id="DejaVuSans-53" d="M 3425 4513 
L 3425 3897 
Q 3066 4069 2747 4153 
Q 2428 4238 2131 4238 
Q 1616 4238 1336 4038 
Q 1056 3838 1056 3469 
Q 1056 3159 1242 3001 
Q 1428 2844 1947 2747 
L 2328 2669 
Q 3034 2534 3370 2195 
Q 3706 1856 3706 1288 
Q 3706 609 3251 259 
Q 2797 -91 1919 -91 
Q 1588 -91 1214 -16 
Q 841 59 441 206 
L 441 856 
Q 825 641 1194 531 
Q 1563 422 1919 422 
Q 2459 422 2753 634 
Q 3047 847 3047 1241 
Q 3047 1584 2836 1778 
Q 2625 1972 2144 2069 
L 1759 2144 
Q 1053 2284 737 2584 
Q 422 2884 422 3419 
Q 422 4038 858 4394 
Q 1294 4750 2059 4750 
Q 2388 4750 2728 4690 
Q 3069 4631 3425 4513 
z
" transform="scale(0.015625)"/>
       <path id="DejaVuSans-20" transform="scale(0.015625)"/>
       <path id="DejaVuSans-28" d="M 1984 4856 
Q 1566 4138 1362 3434 
Q 1159 2731 1159 2009 
Q 1159 1288 1364 580 
Q 1569 -128 1984 -844 
L 1484 -844 
Q 1016 -109 783 600 
Q 550 1309 550 2009 
Q 550 2706 781 3412 
Q 1013 4119 1484 4856 
L 1984 4856 
z
" transform="scale(0.015625)"/>
       <path id="DejaVuSans-6e" d="M 3513 2113 
L 3513 0 
L 2938 0 
L 2938 2094 
Q 2938 2591 2744 2837 
Q 2550 3084 2163 3084 
Q 1697 3084 1428 2787 
Q 1159 2491 1159 1978 
L 1159 0 
L 581 0 
L 581 3500 
L 1159 3500 
L 1159 2956 
Q 1366 3272 1645 3428 
Q 1925 3584 2291 3584 
Q 2894 3584 3203 3211 
Q 3513 2838 3513 2113 
z
" transform="scale(0.015625)"/>
       <path id="DejaVuSans-3d" d="M 678 2906 
L 4684 2906 
L 4684 2381 
L 678 2381 
L 678 2906 
z
M 678 1631 
L 4684 1631 
L 4684 1100 
L 678 1100 
L 678 1631 
z
" transform="scale(0.015625)"/>
       <path id="DejaVuSans-29" d="M 513 4856 
L 1013 4856 
Q 1481 4119 1714 3412 
Q 1947 2706 1947 2009 
Q 1947 1309 1714 600 
Q 1481 -109 1013 -844 
L 513 -844 
Q 928 -128 1133 580 
Q 1338 1288 1338 2009 
Q 1338 2731 1133 3434 
Q 928 4138 513 4856 
z
" transform="scale(0.015625)"/>
      </defs>
      <use xlink:href="#DejaVuSans-53"/>
      <use xlink:href="#DejaVuSans-31" transform="translate(63.476562 0)"/>
      <use xlink:href="#DejaVuSans-20" transform="translate(127.099609 0)"/>
      <use xlink:href="#DejaVuSans-28" transform="translate(158.886719 0)"/>
      <use xlink:href="#DejaVuSans-6e" transform="translate(197.900391 0)"/>
      <use xlink:href="#DejaVuSans-3d" transform="translate(261.279297 0)"/>
      <use xlink:href="#DejaVuSans-31" transform="translate(345.068359 0)"/>
      <use xlink:href="#DejaVuSans-29" transform="translate(408.691406 0)"/>
     </g>
    </g>
    <g id="line2d_41">
     <path d="M 357.314375 85.654687 
L 377.314375 85.654687 
" style="fill: none; stroke-dasharray: 3.7,1.6; stroke-dashoffset: 0; stroke: #1c120b"/>
    </g>
    <g id="line2d_42">
     <g>
      <use xlink:href="#mbc712005e8" x="367.314375" y="85.654687" style="fill: #1c120b; stroke: #000000; stroke-linejoin: miter"/>
     </g>
    </g>
    <g id="text_17">
     <!-- S2 (n=1) -->
     <g transform="translate(385.314375 89.154687) scale(0.1 -0.1)">
      <use xlink:href="#DejaVuSans-53"/>
      <use xlink:href="#DejaVuSans-32" transform="translate(63.476562 0)"/>
      <use xlink:href="#DejaVuSans-20" transform="translate(127.099609 0)"/>
      <use xlink:href="#DejaVuSans-28" transform="translate(158.886719 0)"/>
      <use xlink:href="#DejaVuSans-6e" transform="translate(197.900391 0)"/>
      <use xlink:href="#DejaVuSans-3d" transform="translate(261.279297 0)"/>
      <use xlink:href="#DejaVuSans-31" transform="translate(345.068359 0)"/>
      <use xlink:href="#DejaVuSans-29" transform="translate(408.691406 0)"/>
     </g>
    </g>
    <g id="line2d_43">
     <path d="M 357.314375 100.332812 
L 377.314375 100.332812 
" style="fill: none; stroke-dasharray: 3.7,1.6; stroke-dashoffset: 0; stroke: #392417"/>
    </g>
    <g id="line2d_44">
     <g>
      <use xlink:href="#m8ca5f6d774" x="367.314375" y="100.332812" style="fill: #392417; stroke: #000000; stroke-linejoin: miter"/>
     </g>
    </g>
    <g id="text_18">
     <!-- S3 (n=1) -->
     <g transform="translate(385.314375 103.832812) scale(0.1 -0.1)">
      <use xlink:href="#DejaVuSans-53"/>
      <use xlink:href="#DejaVuSans-33" transform="translate(63.476562 0)"/>
      <use xlink:href="#DejaVuSans-20" transform="translate(127.099609 0)"/>
      <use xlink:href="#DejaVuSans-28" transform="translate(158.886719 0)"/>
      <use xlink:href="#DejaVuSans-6e" transform="translate(197.900391 0)"/>
      <use xlink:href="#DejaVuSans-3d" transform="translate(261.279297 0)"/>
      <use xlink:href="#DejaVuSans-31" transform="translate(345.068359 0)"/>
      <use xlink:href="#DejaVuSans-29" transform="translate(408.691406 0)"/>
     </g>
    </g>
    <g id="line2d_45">
     <path d="M 357.314375 115.010937 
L 377.314375 115.010937 
" style="fill: none; stroke-dasharray: 3.7,1.6; stroke-dashoffset: 0; stroke: #553622"/>
    </g>
    <g id="line2d_46">
     <g>
      <use xlink:href="#maa18d613b4" x="367.314375" y="115.010937" style="fill: #553622; stroke: #000000; stroke-linejoin: miter"/>
     </g>
    </g>
    <g id="text_19">
     <!-- S4 (n=1) -->
     <g transform="translate(385.314375 118.510937) scale(0.1 -0.1)">
      <use xlink:href="#DejaVuSans-53"/>
      <use xlink:href="#DejaVuSans-34" transform="translate(63.476562 0)"/>
      <use xlink:href="#DejaVuSans-20" transform="translate(127.099609 0)"/>
      <use xlink:href="#DejaVuSans-28" transform="translate(158.886719 0)"/>
      <use xlink:href="#DejaVuSans-6e" transform="translate(197.900391 0)"/>
      <use xlink:href="#DejaVuSans-3d" transform="translate(261.279297 0)"/>
      <use xlink:href="#DejaVuSans-31" transform="translate(345.068359 0)"/>
      <use xlink:href="#DejaVuSans-29" transform="translate(408.691406 0)"/>
     </g>
    </g>
    <g id="line2d_47">
     <path d="M 357.314375 129.689062 
L 377.314375 129.689062 
" style="fill: none; stroke-dasharray: 3.7,1.6; stroke-dashoffset: 0; stroke: #73492e"/>
    </g>
    <g id="line2d_48">
     <g>
      <use xlink:href="#mbfe1ddedb7" x="367.314375" y="129.689062" style="fill: #73492e; stroke: #000000; stroke-linejoin: miter"/>
     </g>
    </g>
    <g id="text_20">
     <!-- S5 (n=1) -->
     <g transform="translate(385.314375 133.189062) scale(0.1 -0.1)">
      <use xlink:href="#DejaVuSans-53"/>
      <use xlink:href="#DejaVuSans-35" transform="translate(63.476562 0)"/>
      <use xlink:href="#DejaVuSans-20" transform="translate(127.099609 0)"/>
      <use xlink:href="#DejaVuSans-28" transform="translate(158.886719 0)"/>
      <use xlink:href="#DejaVuSans-6e" transform="translate(197.900391 0)"/>
      <use xlink:href="#DejaVuSans-3d" transform="translate(261.279297 0)"/>
      <use xlink:href="#DejaVuSans-31" transform="translate(345.068359 0)"/>
      <use xlink:href="#DejaVuSans-29" transform="translate(408.691406 0)"/>
     </g>
    </g>
    <g id="line2d_49">
     <path d="M 357.314375 144.367187 
L 377.314375 144.367187 
" style="fill: none; stroke-dasharray: 3.7,1.6; stroke-dashoffset: 0; stroke: #8f5b3a"/>
    </g>
    <g id="line2d_50">
     <g>
      <use xlink:href="#mfe4e4e6a68" x="367.314375" y="144.367187" style="fill: #8f5b3a; stroke: #000000; stroke-linejoin: miter"/>
     </g>
    </g>
    <g id="text_21">
     <!-- S6 (n=1) -->
     <g transform="translate(385.314375 147.867187) scale(0.1 -0.1)">
      <use xlink:href="#DejaVuSans-53"/>
      <use xlink:href="#DejaVuSans-36" transform="translate(63.476562 0)"/>
      <use xlink:href="#DejaVuSans-20" transform="translate(127.099609 0)"/>
      <use xlink:href="#DejaVuSans-28" transform="translate(158.886719 0)"/>
      <use xlink:href="#DejaVuSans-6e" transform="translate(197.900391 0)"/>
      <use xlink:href="#DejaVuSans-3d" transform="translate(261.279297 0)"/>
      <use xlink:href="#DejaVuSans-31" transform="translate(345.068359 0)"/>
      <use xlink:href="#DejaVuSans-29" transform="translate(408.691406 0)"/>
     </g>
    </g>
    <g id="line2d_51">
     <path d="M 357.314375 159.045312 
L 377.314375 159.045312 
" style="fill: none; stroke-dasharray: 3.7,1.6; stroke-dashoffset: 0; stroke: #ac6d45"/>
    </g>
    <g id="line2d_52">
     <g>
      <use xlink:href="#m9d30afaa87" x="367.314375" y="159.045312" style="fill: #ac6d45; stroke: #000000; stroke-linejoin: miter"/>
     </g>
    </g>
    <g id="text_22">
     <!-- S7 (n=1) -->
     <g transform="translate(385.314375 162.545312) scale(0.1 -0.1)">
      <defs>
       <path id="DejaVuSans-37" d="M 525 4666 
L 3525 4666 
L 3525 4397 
L 1831 0 
L 1172 0 
L 2766 4134 
L 525 4134 
L 525 4666 
z
" transform="scale(0.015625)"/>
      </defs>
      <use xlink:href="#DejaVuSans-53"/>
      <use xlink:href="#DejaVuSans-37" transform="translate(63.476562 0)"/>
      <use xlink:href="#DejaVuSans-20" transform="translate(127.099609 0)"/>
      <use xlink:href="#DejaVuSans-28" transform="translate(158.886719 0)"/>
      <use xlink:href="#DejaVuSans-6e" transform="translate(197.900391 0)"/>
      <use xlink:href="#DejaVuSans-3d" transform="translate(261.279297 0)"/>
      <use xlink:href="#DejaVuSans-31" transform="translate(345.068359 0)"/>
      <use xlink:href="#DejaVuSans-29" transform="translate(408.691406 0)"/>
     </g>
    </g>
    <g id="line2d_53">
     <path d="M 357.314375 173.723437 
L 377.314375 173.723437 
" style="fill: none; stroke-dasharray: 3.7,1.6; stroke-dashoffset: 0; stroke: #c87f51"/>
    </g>
    <g id="line2d_54">
     <g>
      <use xlink:href="#mda2811a32b" x="367.314375" y="173.723437" style="fill: #c87f51; stroke: #000000; stroke-linejoin: miter"/>
     </g>
    </g>
    <g id="text_23">
     <!-- S8 (n=1) -->
     <g transform="translate(385.314375 177.223437) scale(0.1 -0.1)">
      <defs>
       <path id="DejaVuSans-38" d="M 2034 2216 
Q 1584 2216 1326 1975 
Q 1069 1734 1069 1313 
Q 1069 891 1326 650 
Q 1584 409 2034 409 
Q 2484 409 2743 651 
Q 3003 894 3003 1313 
Q 3003 1734 2745 1975 
Q 2488 2216 2034 2216 
z
M 1403 2484 
Q 997 2584 770 2862 
Q 544 3141 544 3541 
Q 544 4100 942 4425 
Q 1341 4750 2034 4750 
Q 2731 4750 3128 4425 
Q 3525 4100 3525 3541 
Q 3525 3141 3298 2862 
Q 3072 2584 2669 2484 
Q 3125 2378 3379 2068 
Q 3634 1759 3634 1313 
Q 3634 634 3220 271 
Q 2806 -91 2034 -91 
Q 1263 -91 848 271 
Q 434 634 434 1313 
Q 434 1759 690 2068 
Q 947 2378 1403 2484 
z
M 1172 3481 
Q 1172 3119 1398 2916 
Q 1625 2713 2034 2713 
Q 2441 2713 2670 2916 
Q 2900 3119 2900 3481 
Q 2900 3844 2670 4047 
Q 2441 4250 2034 4250 
Q 1625 4250 1398 4047 
Q 1172 3844 1172 3481 
z
" transform="scale(0.015625)"/>
      </defs>
      <use xlink:href="#DejaVuSans-53"/>
      <use xlink:href="#DejaVuSans-38" transform="translate(63.476562 0)"/>
      <use xlink:href="#DejaVuSans-20" transform="translate(127.099609 0)"/>
      <use xlink:href="#DejaVuSans-28" transform="translate(158.886719 0)"/>
      <use xlink:href="#DejaVuSans-6e" transform="translate(197.900391 0)"/>
      <use xlink:href="#DejaVuSans-3d" transform="translate(261.279297 0)"/>
      <use xlink:href="#DejaVuSans-31" transform="translate(345.068359 0)"/>
      <use xlink:href="#DejaVuSans-29" transform="translate(408.691406 0)"/>
     </g>
    </g>
    <g id="line2d_55">
     <path d="M 357.314375 188.401562 
L 377.314375 188.401562 
" style="fill: none; stroke-dasharray: 3.7,1.6; stroke-dashoffset: 0; stroke: #e6915d"/>
    </g>
    <g id="line2d_56">
     <g>
      <use xlink:href="#me6fa7afd93" x="367.314375" y="188.401562" style="fill: #e6915d; stroke: #000000; stroke-linejoin: miter"/>
     </g>
    </g>
    <g id="text_24">
     <!-- S9 (n=1) -->
     <g transform="translate(385.314375 191.901562) scale(0.1 -0.1)">
      <defs>
       <path id="DejaVuSans-39" d="M 703 97 
L 703 672 
Q 941 559 1184 500 
Q 1428 441 1663 441 
Q 2288 441 2617 861 
Q 2947 1281 2994 2138 
Q 2813 1869 2534 1725 
Q 2256 1581 1919 1581 
Q 1219 1581 811 2004 
Q 403 2428 403 3163 
Q 403 3881 828 4315 
Q 1253 4750 1959 4750 
Q 2769 4750 3195 4129 
Q 3622 3509 3622 2328 
Q 3622 1225 3098 567 
Q 2575 -91 1691 -91 
Q 1453 -91 1209 -44 
Q 966 3 703 97 
z
M 1959 2075 
Q 2384 2075 2632 2365 
Q 2881 2656 2881 3163 
Q 2881 3666 2632 3958 
Q 2384 4250 1959 4250 
Q 1534 4250 1286 3958 
Q 1038 3666 1038 3163 
Q 1038 2656 1286 2365 
Q 1534 2075 1959 2075 
z
" transform="scale(0.015625)"/>
      </defs>
      <use xlink:href="#DejaVuSans-53"/>
      <use xlink:href="#DejaVuSans-39" transform="translate(63.476562 0)"/>
      <use xlink:href="#DejaVuSans-20" transform="translate(127.099609 0)"/>
      <use xlink:href="#DejaVuSans-28" transform="translate(158.886719 0)"/>
      <use xlink:href="#DejaVuSans-6e" transform="translate(197.900391 0)"/>
      <use xlink:href="#DejaVuSans-3d" transform="translate(261.279297 0)"/>
      <use xlink:href="#DejaVuSans-31" transform="translate(345.068359 0)"/>
      <use xlink:href="#DejaVuSans-29" transform="translate(408.691406 0)"/>
     </g>
    </g>
    <g id="line2d_57">
     <path d="M 357.314375 203.079687 
L 377.314375 203.079687 
" style="fill: none; stroke-dasharray: 3.7,1.6; stroke-dashoffset: 0; stroke: #ffa368"/>
    </g>
    <g id="line2d_58">
     <g>
      <use xlink:href="#m98666cb7e4" x="367.314375" y="203.079687" style="fill: #ffa368; stroke: #000000; stroke-linejoin: miter"/>
     </g>
    </g>
    <g id="text_25">
     <!-- S10 (n=1) -->
     <g transform="translate(385.314375 206.579687) scale(0.1 -0.1)">
      <use xlink:href="#DejaVuSans-53"/>
      <use xlink:href="#DejaVuSans-31" transform="translate(63.476562 0)"/>
      <use xlink:href="#DejaVuSans-30" transform="translate(127.099609 0)"/>
      <use xlink:href="#DejaVuSans-20" transform="translate(190.722656 0)"/>
      <use xlink:href="#DejaVuSans-28" transform="translate(222.509766 0)"/>
      <use xlink:href="#DejaVuSans-6e" transform="translate(261.523438 0)"/>
      <use xlink:href="#DejaVuSans-3d" transform="translate(324.902344 0)"/>
      <use xlink:href="#DejaVuSans-31" transform="translate(408.691406 0)"/>
      <use xlink:href="#DejaVuSans-29" transform="translate(472.314453 0)"/>
     </g>
    </g>
    <g id="line2d_59">
     <path d="M 357.314375 217.757812 
L 377.314375 217.757812 
" style="fill: none; stroke-dasharray: 3.7,1.6; stroke-dashoffset: 0; stroke: #ffb573"/>
    </g>
    <g id="line2d_60">
     <g>
      <use xlink:href="#m4312f093d4" x="367.314375" y="217.757812" style="fill: #ffb573; stroke: #000000; stroke-linejoin: miter"/>
     </g>
    </g>
    <g id="text_26">
     <!-- S11 (n=1) -->
     <g transform="translate(385.314375 221.257812) scale(0.1 -0.1)">
      <use xlink:href="#DejaVuSans-53"/>
      <use xlink:href="#DejaVuSans-31" transform="translate(63.476562 0)"/>
      <use xlink:href="#DejaVuSans-31" transform="translate(127.099609 0)"/>
      <use xlink:href="#DejaVuSans-20" transform="translate(190.722656 0)"/>
      <use xlink:href="#DejaVuSans-28" transform="translate(222.509766 0)"/>
      <use xlink:href="#DejaVuSans-6e" transform="translate(261.523438 0)"/>
      <use xlink:href="#DejaVuSans-3d" transform="translate(324.902344 0)"/>
      <use xlink:href="#DejaVuSans-31" transform="translate(408.691406 0)"/>
      <use xlink:href="#DejaVuSans-29" transform="translate(472.314453 0)"/>
     </g>
    </g>
    <g id="line2d_61">
     <path d="M 357.314375 232.435937 
L 377.314375 232.435937 
" style="fill: none; stroke-dasharray: 3.7,1.6; stroke-dashoffset: 0; stroke: #ffc77f"/>
    </g>
    <g id="line2d_62">
     <g>
      <use xlink:href="#mb5bbea4002" x="367.314375" y="232.435937" style="fill: #ffc77f; stroke: #000000; stroke-linejoin: miter"/>
     </g>
    </g>
    <g id="text_27">
     <!-- S12 (n=1) -->
     <g transform="translate(385.314375 235.935937) scale(0.1 -0.1)">
      <use xlink:href="#DejaVuSans-53"/>
      <use xlink:href="#DejaVuSans-31" transform="translate(63.476562 0)"/>
      <use xlink:href="#DejaVuSans-32" transform="translate(127.099609 0)"/>
      <use xlink:href="#DejaVuSans-20" transform="translate(190.722656 0)"/>
      <use xlink:href="#DejaVuSans-28" transform="translate(222.509766 0)"/>
      <use xlink:href="#DejaVuSans-6e" transform="translate(261.523438 0)"/>
      <use xlink:href="#DejaVuSans-3d" transform="translate(324.902344 0)"/>
      <use xlink:href="#DejaVuSans-31" transform="translate(408.691406 0)"/>
      <use xlink:href="#DejaVuSans-29" transform="translate(472.314453 0)"/>
     </g>
    </g>
   </g>
  </g>
  <g id="text_28">
   <!-- Leelahavanichkul2005 -->
   <g transform="translate(86.510859 26.196094) scale(0.25 -0.25)">
    <defs>
     <path id="DejaVuSans-Bold-4c" d="M 588 4666 
L 1791 4666 
L 1791 909 
L 3903 909 
L 3903 0 
L 588 0 
L 588 4666 
z
" transform="scale(0.015625)"/>
     <path id="DejaVuSans-Bold-76" d="M 97 3500 
L 1216 3500 
L 2088 1081 
L 2956 3500 
L 4078 3500 
L 2700 0 
L 1472 0 
L 97 3500 
z
" transform="scale(0.015625)"/>
     <path id="DejaVuSans-Bold-6b" d="M 538 4863 
L 1656 4863 
L 1656 2216 
L 2944 3500 
L 4244 3500 
L 2534 1894 
L 4378 0 
L 3022 0 
L 1656 1459 
L 1656 0 
L 538 0 
L 538 4863 
z
" transform="scale(0.015625)"/>
     <path id="DejaVuSans-Bold-75" d="M 500 1363 
L 500 3500 
L 1625 3500 
L 1625 3150 
Q 1625 2866 1622 2436 
Q 1619 2006 1619 1863 
Q 1619 1441 1641 1255 
Q 1663 1069 1716 984 
Q 1784 875 1895 815 
Q 2006 756 2150 756 
Q 2500 756 2700 1025 
Q 2900 1294 2900 1772 
L 2900 3500 
L 4019 3500 
L 4019 0 
L 2900 0 
L 2900 506 
Q 2647 200 2364 54 
Q 2081 -91 1741 -91 
Q 1134 -91 817 281 
Q 500 653 500 1363 
z
" transform="scale(0.015625)"/>
     <path id="DejaVuSans-Bold-32" d="M 1844 884 
L 3897 884 
L 3897 0 
L 506 0 
L 506 884 
L 2209 2388 
Q 2438 2594 2547 2791 
Q 2656 2988 2656 3200 
Q 2656 3528 2436 3728 
Q 2216 3928 1850 3928 
Q 1569 3928 1234 3808 
Q 900 3688 519 3450 
L 519 4475 
Q 925 4609 1322 4679 
Q 1719 4750 2100 4750 
Q 2938 4750 3402 4381 
Q 3866 4013 3866 3353 
Q 3866 2972 3669 2642 
Q 3472 2313 2841 1759 
L 1844 884 
z
" transform="scale(0.015625)"/>
     <path id="DejaVuSans-Bold-30" d="M 2944 2338 
Q 2944 3213 2780 3570 
Q 2616 3928 2228 3928 
Q 1841 3928 1675 3570 
Q 1509 3213 1509 2338 
Q 1509 1453 1675 1090 
Q 1841 728 2228 728 
Q 2613 728 2778 1090 
Q 2944 1453 2944 2338 
z
M 4147 2328 
Q 4147 1169 3647 539 
Q 3147 -91 2228 -91 
Q 1306 -91 806 539 
Q 306 1169 306 2328 
Q 306 3491 806 4120 
Q 1306 4750 2228 4750 
Q 3147 4750 3647 4120 
Q 4147 3491 4147 2328 
z
" transform="scale(0.015625)"/>
     <path id="DejaVuSans-Bold-35" d="M 678 4666 
L 3669 4666 
L 3669 3781 
L 1638 3781 
L 1638 3059 
Q 1775 3097 1914 3117 
Q 2053 3138 2203 3138 
Q 3056 3138 3531 2711 
Q 4006 2284 4006 1522 
Q 4006 766 3489 337 
Q 2972 -91 2053 -91 
Q 1656 -91 1267 -14 
Q 878 63 494 219 
L 494 1166 
Q 875 947 1217 837 
Q 1559 728 1863 728 
Q 2300 728 2551 942 
Q 2803 1156 2803 1522 
Q 2803 1891 2551 2103 
Q 2300 2316 1863 2316 
Q 1603 2316 1309 2248 
Q 1016 2181 678 2041 
L 678 4666 
z
" transform="scale(0.015625)"/>
    </defs>
    <use xlink:href="#DejaVuSans-Bold-4c"/>
    <use xlink:href="#DejaVuSans-Bold-65" transform="translate(63.720703 0)"/>
    <use xlink:href="#DejaVuSans-Bold-65" transform="translate(131.542969 0)"/>
    <use xlink:href="#DejaVuSans-Bold-6c" transform="translate(199.365234 0)"/>
    <use xlink:href="#DejaVuSans-Bold-61" transform="translate(233.642578 0)"/>
    <use xlink:href="#DejaVuSans-Bold-68" transform="translate(301.123047 0)"/>
    <use xlink:href="#DejaVuSans-Bold-61" transform="translate(372.314453 0)"/>
    <use xlink:href="#DejaVuSans-Bold-76" transform="translate(439.794922 0)"/>
    <use xlink:href="#DejaVuSans-Bold-61" transform="translate(504.980469 0)"/>
    <use xlink:href="#DejaVuSans-Bold-6e" transform="translate(572.460938 0)"/>
    <use xlink:href="#DejaVuSans-Bold-69" transform="translate(643.652344 0)"/>
    <use xlink:href="#DejaVuSans-Bold-63" transform="translate(677.929688 0)"/>
    <use xlink:href="#DejaVuSans-Bold-68" transform="translate(737.207031 0)"/>
    <use xlink:href="#DejaVuSans-Bold-6b" transform="translate(808.398438 0)"/>
    <use xlink:href="#DejaVuSans-Bold-75" transform="translate(874.902344 0)"/>
    <use xlink:href="#DejaVuSans-Bold-6c" transform="translate(946.09375 0)"/>
    <use xlink:href="#DejaVuSans-Bold-32" transform="translate(980.371094 0)"/>
    <use xlink:href="#DejaVuSans-Bold-30" transform="translate(1049.951172 0)"/>
    <use xlink:href="#DejaVuSans-Bold-30" transform="translate(1119.53125 0)"/>
    <use xlink:href="#DejaVuSans-Bold-35" transform="translate(1189.111328 0)"/>
   </g>
  </g>
 </g>
 <defs>
  <clipPath id="pcebe4ee8c6">
   <rect x="54.84875" y="43.2" width="390.6" height="277.2"/>
  </clipPath>
 </defs>
</svg>
