<?xml version="1.0" encoding="utf-8" standalone="no"?>
<!DOCTYPE svg PUBLIC "-//W3C//DTD SVG 1.1//EN"
  "http://www.w3.org/Graphics/SVG/1.1/DTD/svg11.dtd">
<svg xmlns:xlink="http://www.w3.org/1999/xlink" width="452.64875pt" height="370.678437pt" viewBox="0 0 452.64875 370.678437" xmlns="http://www.w3.org/2000/svg" version="1.1">
 <metadata>
  <rdf:RDF xmlns:dc="http://purl.org/dc/elements/1.1/" xmlns:cc="http://creativecommons.org/ns#" xmlns:rdf="http://www.w3.org/1999/02/22-rdf-syntax-ns#">
   <cc:Work>
    <dc:type rdf:resource="http://purl.org/dc/dcmitype/StillImage"/>
    <dc:date>2026-02-12T15:19:36.549654</dc:date>
    <dc:format>image/svg+xml</dc:format>
    <dc:creator>
     <cc:Agent>
      <dc:title>Matplotlib v3.10.7, https://matplotlib.org/</dc:title>
     </cc:Agent>
    </dc:creator>
   </cc:Work>
  </rdf:RDF>
 </metadata>
 <defs>
  <style type="text/css">*{stroke-linejoin: round; stroke-linecap: butt}</style>
 </defs>
 <g id="figure_1">
  <g id="patch_1">
   <path d="M 0 370.678437 
L 452.64875 370.678437 
L 452.64875 0 
L 0 0 
z
" style="fill: #ffffff"/>
  </g>
  <g id="axes_1">
   <g id="patch_2">
    <path d="M 54.84875 320.4 
L 445.44875 320.4 
L 445.44875 43.2 
L 54.84875 43.2 
z
" style="fill: #ffffff"/>
   </g>
   <g id="matplotlib.axis_1">
    <g id="xtick_1">
     <g id="line2d_1">
      <defs>
       <path id="m91012b8f62" d="M 0 0 
L 0 3.5 
" style="stroke: #000000; stroke-width: 0.8"/>
      </defs>
      <g>
       <use xlink:href="#m91012b8f62" x="54.84875" y="320.4" style="stroke: #000000; stroke-width: 0.8"/>
      </g>
     </g>
     <g id="text_1">
      <!-- −1.5 -->
      <g transform="translate(36.636641 338.797656) scale(0.15 -0.15)">
       <defs>
        <path id="DejaVuSans-2212" d="M 678 2272 
L 4684 2272 
L 4684 1741 
L 678 1741 
L 678 2272 
z
" transform="scale(0.015625)"/>
        <path id="DejaVuSans-31" d="M 794 531 
L 1825 531 
L 1825 4091 
L 703 3866 
L 703 4441 
L 1819 4666 
L 2450 4666 
L 2450 531 
L 3481 531 
L 3481 0 
L 794 0 
L 794 531 
z
" transform="scale(0.015625)"/>
        <path id="DejaVuSans-2e" d="M 684 794 
L 1344 794 
L 1344 0 
L 684 0 
L 684 794 
z
" transform="scale(0.015625)"/>
        <path id="DejaVuSans-35" d="M 691 4666 
L 3169 4666 
L 3169 4134 
L 1269 4134 
L 1269 2991 
Q 1406 3038 1543 3061 
Q 1681 3084 1819 3084 
Q 2600 3084 3056 2656 
Q 3513 2228 3513 1497 
Q 3513 744 3044 326 
Q 2575 -91 1722 -91 
Q 1428 -91 1123 -41 
Q 819 9 494 109 
L 494 744 
Q 775 591 1075 516 
Q 1375 441 1709 441 
Q 2250 441 2565 725 
Q 2881 1009 2881 1497 
Q 2881 1984 2565 2268 
Q 2250 2553 1709 2553 
Q 1456 2553 1204 2497 
Q 953 2441 691 2322 
L 691 4666 
z
" transform="scale(0.015625)"/>
       </defs>
       <use xlink:href="#DejaVuSans-2212"/>
       <use xlink:href="#DejaVuSans-31" transform="translate(83.789062 0)"/>
       <use xlink:href="#DejaVuSans-2e" transform="translate(147.412109 0)"/>
       <use xlink:href="#DejaVuSans-35" transform="translate(179.199219 0)"/>
      </g>
     </g>
    </g>
    <g id="xtick_2">
     <g id="line2d_2">
      <g>
       <use xlink:href="#m91012b8f62" x="143.621477" y="320.4" style="stroke: #000000; stroke-width: 0.8"/>
      </g>
     </g>
     <g id="text_2">
      <!-- −1.0 -->
      <g transform="translate(125.409368 338.797656) scale(0.15 -0.15)">
       <defs>
        <path id="DejaVuSans-30" d="M 2034 4250 
Q 1547 4250 1301 3770 
Q 1056 3291 1056 2328 
Q 1056 1369 1301 889 
Q 1547 409 2034 409 
Q 2525 409 2770 889 
Q 3016 1369 3016 2328 
Q 3016 3291 2770 3770 
Q 2525 4250 2034 4250 
z
M 2034 4750 
Q 2819 4750 3233 4129 
Q 3647 3509 3647 2328 
Q 3647 1150 3233 529 
Q 2819 -91 2034 -91 
Q 1250 -91 836 529 
Q 422 1150 422 2328 
Q 422 3509 836 4129 
Q 1250 4750 2034 4750 
z
" transform="scale(0.015625)"/>
       </defs>
       <use xlink:href="#DejaVuSans-2212"/>
       <use xlink:href="#DejaVuSans-31" transform="translate(83.789062 0)"/>
       <use xlink:href="#DejaVuSans-2e" transform="translate(147.412109 0)"/>
       <use xlink:href="#DejaVuSans-30" transform="translate(179.199219 0)"/>
      </g>
     </g>
    </g>
    <g id="xtick_3">
     <g id="line2d_3">
      <g>
       <use xlink:href="#m91012b8f62" x="232.394205" y="320.4" style="stroke: #000000; stroke-width: 0.8"/>
      </g>
     </g>
     <g id="text_3">
      <!-- −0.5 -->
      <g transform="translate(214.182095 338.797656) scale(0.15 -0.15)">
       <use xlink:href="#DejaVuSans-2212"/>
       <use xlink:href="#DejaVuSans-30" transform="translate(83.789062 0)"/>
       <use xlink:href="#DejaVuSans-2e" transform="translate(147.412109 0)"/>
       <use xlink:href="#DejaVuSans-35" transform="translate(179.199219 0)"/>
      </g>
     </g>
    </g>
    <g id="xtick_4">
     <g id="line2d_4">
      <g>
       <use xlink:href="#m91012b8f62" x="321.166932" y="320.4" style="stroke: #000000; stroke-width: 0.8"/>
      </g>
     </g>
     <g id="text_4">
      <!-- 0.0 -->
      <g transform="translate(309.239588 338.797656) scale(0.15 -0.15)">
       <use xlink:href="#DejaVuSans-30"/>
       <use xlink:href="#DejaVuSans-2e" transform="translate(63.623047 0)"/>
       <use xlink:href="#DejaVuSans-30" transform="translate(95.410156 0)"/>
      </g>
     </g>
    </g>
    <g id="xtick_5">
     <g id="line2d_5">
      <g>
       <use xlink:href="#m91012b8f62" x="409.939659" y="320.4" style="stroke: #000000; stroke-width: 0.8"/>
      </g>
     </g>
     <g id="text_5">
      <!-- 0.5 -->
      <g transform="translate(398.012315 338.797656) scale(0.15 -0.15)">
       <use xlink:href="#DejaVuSans-30"/>
       <use xlink:href="#DejaVuSans-2e" transform="translate(63.623047 0)"/>
       <use xlink:href="#DejaVuSans-35" transform="translate(95.410156 0)"/>
      </g>
     </g>
    </g>
    <g id="text_6">
     <!-- time [day] -->
     <g transform="translate(197.817969 359.594375) scale(0.18 -0.18)">
      <defs>
       <path id="DejaVuSans-Bold-74" d="M 1759 4494 
L 1759 3500 
L 2913 3500 
L 2913 2700 
L 1759 2700 
L 1759 1216 
Q 1759 972 1856 886 
Q 1953 800 2241 800 
L 2816 800 
L 2816 0 
L 1856 0 
Q 1194 0 917 276 
Q 641 553 641 1216 
L 641 2700 
L 84 2700 
L 84 3500 
L 641 3500 
L 641 4494 
L 1759 4494 
z
" transform="scale(0.015625)"/>
       <path id="DejaVuSans-Bold-69" d="M 538 3500 
L 1656 3500 
L 1656 0 
L 538 0 
L 538 3500 
z
M 538 4863 
L 1656 4863 
L 1656 3950 
L 538 3950 
L 538 4863 
z
" transform="scale(0.015625)"/>
       <path id="DejaVuSans-Bold-6d" d="M 3781 2919 
Q 3994 3244 4286 3414 
Q 4578 3584 4928 3584 
Q 5531 3584 5847 3212 
Q 6163 2841 6163 2131 
L 6163 0 
L 5038 0 
L 5038 1825 
Q 5041 1866 5042 1909 
Q 5044 1953 5044 2034 
Q 5044 2406 4934 2573 
Q 4825 2741 4581 2741 
Q 4263 2741 4089 2478 
Q 3916 2216 3909 1719 
L 3909 0 
L 2784 0 
L 2784 1825 
Q 2784 2406 2684 2573 
Q 2584 2741 2328 2741 
Q 2006 2741 1831 2477 
Q 1656 2213 1656 1722 
L 1656 0 
L 531 0 
L 531 3500 
L 1656 3500 
L 1656 2988 
Q 1863 3284 2130 3434 
Q 2397 3584 2719 3584 
Q 3081 3584 3359 3409 
Q 3638 3234 3781 2919 
z
" transform="scale(0.015625)"/>
       <path id="DejaVuSans-Bold-65" d="M 4031 1759 
L 4031 1441 
L 1416 1441 
Q 1456 1047 1700 850 
Q 1944 653 2381 653 
Q 2734 653 3104 758 
Q 3475 863 3866 1075 
L 3866 213 
Q 3469 63 3072 -14 
Q 2675 -91 2278 -91 
Q 1328 -91 801 392 
Q 275 875 275 1747 
Q 275 2603 792 3093 
Q 1309 3584 2216 3584 
Q 3041 3584 3536 3087 
Q 4031 2591 4031 1759 
z
M 2881 2131 
Q 2881 2450 2695 2645 
Q 2509 2841 2209 2841 
Q 1884 2841 1681 2658 
Q 1478 2475 1428 2131 
L 2881 2131 
z
" transform="scale(0.015625)"/>
       <path id="DejaVuSans-Bold-20" transform="scale(0.015625)"/>
       <path id="DejaVuSans-Bold-5b" d="M 550 4863 
L 2491 4863 
L 2491 4159 
L 1613 4159 
L 1613 -141 
L 2491 -141 
L 2491 -844 
L 550 -844 
L 550 4863 
z
" transform="scale(0.015625)"/>
       <path id="DejaVuSans-Bold-64" d="M 2919 2988 
L 2919 4863 
L 4044 4863 
L 4044 0 
L 2919 0 
L 2919 506 
Q 2688 197 2409 53 
Q 2131 -91 1766 -91 
Q 1119 -91 703 423 
Q 288 938 288 1747 
Q 288 2556 703 3070 
Q 1119 3584 1766 3584 
Q 2128 3584 2408 3439 
Q 2688 3294 2919 2988 
z
M 2181 722 
Q 2541 722 2730 984 
Q 2919 1247 2919 1747 
Q 2919 2247 2730 2509 
Q 2541 2772 2181 2772 
Q 1825 2772 1636 2509 
Q 1447 2247 1447 1747 
Q 1447 1247 1636 984 
Q 1825 722 2181 722 
z
" transform="scale(0.015625)"/>
       <path id="DejaVuSans-Bold-61" d="M 2106 1575 
Q 1756 1575 1579 1456 
Q 1403 1338 1403 1106 
Q 1403 894 1545 773 
Q 1688 653 1941 653 
Q 2256 653 2472 879 
Q 2688 1106 2688 1447 
L 2688 1575 
L 2106 1575 
z
M 3816 1997 
L 3816 0 
L 2688 0 
L 2688 519 
Q 2463 200 2181 54 
Q 1900 -91 1497 -91 
Q 953 -91 614 226 
Q 275 544 275 1050 
Q 275 1666 698 1953 
Q 1122 2241 2028 2241 
L 2688 2241 
L 2688 2328 
Q 2688 2594 2478 2717 
Q 2269 2841 1825 2841 
Q 1466 2841 1156 2769 
Q 847 2697 581 2553 
L 581 3406 
Q 941 3494 1303 3539 
Q 1666 3584 2028 3584 
Q 2975 3584 3395 3211 
Q 3816 2838 3816 1997 
z
" transform="scale(0.015625)"/>
       <path id="DejaVuSans-Bold-79" d="M 78 3500 
L 1197 3500 
L 2138 1125 
L 2938 3500 
L 4056 3500 
L 2584 -331 
Q 2363 -916 2067 -1148 
Q 1772 -1381 1288 -1381 
L 641 -1381 
L 641 -647 
L 991 -647 
Q 1275 -647 1404 -556 
Q 1534 -466 1606 -231 
L 1638 -134 
L 78 3500 
z
" transform="scale(0.015625)"/>
       <path id="DejaVuSans-Bold-5d" d="M 2375 -844 
L 434 -844 
L 434 -141 
L 1313 -141 
L 1313 4159 
L 434 4159 
L 434 4863 
L 2375 4863 
L 2375 -844 
z
" transform="scale(0.015625)"/>
      </defs>
      <use xlink:href="#DejaVuSans-Bold-74"/>
      <use xlink:href="#DejaVuSans-Bold-69" transform="translate(47.802734 0)"/>
      <use xlink:href="#DejaVuSans-Bold-6d" transform="translate(82.080078 0)"/>
      <use xlink:href="#DejaVuSans-Bold-65" transform="translate(186.279297 0)"/>
      <use xlink:href="#DejaVuSans-Bold-20" transform="translate(254.101562 0)"/>
      <use xlink:href="#DejaVuSans-Bold-5b" transform="translate(288.916016 0)"/>
      <use xlink:href="#DejaVuSans-Bold-64" transform="translate(334.619141 0)"/>
      <use xlink:href="#DejaVuSans-Bold-61" transform="translate(406.201172 0)"/>
      <use xlink:href="#DejaVuSans-Bold-79" transform="translate(470.556641 0)"/>
      <use xlink:href="#DejaVuSans-Bold-5d" transform="translate(535.742188 0)"/>
     </g>
    </g>
   </g>
   <g id="matplotlib.axis_2">
    <g id="ytick_1">
     <g id="line2d_6">
      <defs>
       <path id="m2cf5f512de" d="M 0 0 
L -3.5 0 
" style="stroke: #000000; stroke-width: 0.8"/>
      </defs>
      <g>
       <use xlink:href="#m2cf5f512de" x="54.84875" y="307.8" style="stroke: #000000; stroke-width: 0.8"/>
      </g>
     </g>
     <g id="text_7">
      <!-- 0 -->
      <g transform="translate(38.305 313.498828) scale(0.15 -0.15)">
       <use xlink:href="#DejaVuSans-30"/>
      </g>
     </g>
    </g>
    <g id="ytick_2">
     <g id="line2d_7">
      <g>
       <use xlink:href="#m2cf5f512de" x="54.84875" y="275.992386" style="stroke: #000000; stroke-width: 0.8"/>
      </g>
     </g>
     <g id="text_8">
      <!-- 5 -->
      <g transform="translate(38.305 281.691215) scale(0.15 -0.15)">
       <use xlink:href="#DejaVuSans-35"/>
      </g>
     </g>
    </g>
    <g id="ytick_3">
     <g id="line2d_8">
      <g>
       <use xlink:href="#m2cf5f512de" x="54.84875" y="244.184773" style="stroke: #000000; stroke-width: 0.8"/>
      </g>
     </g>
     <g id="text_9">
      <!-- 10 -->
      <g transform="translate(28.76125 249.883601) scale(0.15 -0.15)">
       <use xlink:href="#DejaVuSans-31"/>
       <use xlink:href="#DejaVuSans-30" transform="translate(63.623047 0)"/>
      </g>
     </g>
    </g>
    <g id="ytick_4">
     <g id="line2d_9">
      <g>
       <use xlink:href="#m2cf5f512de" x="54.84875" y="212.377159" style="stroke: #000000; stroke-width: 0.8"/>
      </g>
     </g>
     <g id="text_10">
      <!-- 15 -->
      <g transform="translate(28.76125 218.075987) scale(0.15 -0.15)">
       <use xlink:href="#DejaVuSans-31"/>
       <use xlink:href="#DejaVuSans-35" transform="translate(63.623047 0)"/>
      </g>
     </g>
    </g>
    <g id="ytick_5">
     <g id="line2d_10">
      <g>
       <use xlink:href="#m2cf5f512de" x="54.84875" y="180.569546" style="stroke: #000000; stroke-width: 0.8"/>
      </g>
     </g>
     <g id="text_11">
      <!-- 20 -->
      <g transform="translate(28.76125 186.268374) scale(0.15 -0.15)">
       <defs>
        <path id="DejaVuSans-32" d="M 1228 531 
L 3431 531 
L 3431 0 
L 469 0 
L 469 531 
Q 828 903 1448 1529 
Q 2069 2156 2228 2338 
Q 2531 2678 2651 2914 
Q 2772 3150 2772 3378 
Q 2772 3750 2511 3984 
Q 2250 4219 1831 4219 
Q 1534 4219 1204 4116 
Q 875 4013 500 3803 
L 500 4441 
Q 881 4594 1212 4672 
Q 1544 4750 1819 4750 
Q 2544 4750 2975 4387 
Q 3406 4025 3406 3419 
Q 3406 3131 3298 2873 
Q 3191 2616 2906 2266 
Q 2828 2175 2409 1742 
Q 1991 1309 1228 531 
z
" transform="scale(0.015625)"/>
       </defs>
       <use xlink:href="#DejaVuSans-32"/>
       <use xlink:href="#DejaVuSans-30" transform="translate(63.623047 0)"/>
      </g>
     </g>
    </g>
    <g id="ytick_6">
     <g id="line2d_11">
      <g>
       <use xlink:href="#m2cf5f512de" x="54.84875" y="148.761932" style="stroke: #000000; stroke-width: 0.8"/>
      </g>
     </g>
     <g id="text_12">
      <!-- 25 -->
      <g transform="translate(28.76125 154.46076) scale(0.15 -0.15)">
       <use xlink:href="#DejaVuSans-32"/>
       <use xlink:href="#DejaVuSans-35" transform="translate(63.623047 0)"/>
      </g>
     </g>
    </g>
    <g id="ytick_7">
     <g id="line2d_12">
      <g>
       <use xlink:href="#m2cf5f512de" x="54.84875" y="116.954319" style="stroke: #000000; stroke-width: 0.8"/>
      </g>
     </g>
     <g id="text_13">
      <!-- 30 -->
      <g transform="translate(28.76125 122.653147) scale(0.15 -0.15)">
       <defs>
        <path id="DejaVuSans-33" d="M 2597 2516 
Q 3050 2419 3304 2112 
Q 3559 1806 3559 1356 
Q 3559 666 3084 287 
Q 2609 -91 1734 -91 
Q 1441 -91 1130 -33 
Q 819 25 488 141 
L 488 750 
Q 750 597 1062 519 
Q 1375 441 1716 441 
Q 2309 441 2620 675 
Q 2931 909 2931 1356 
Q 2931 1769 2642 2001 
Q 2353 2234 1838 2234 
L 1294 2234 
L 1294 2753 
L 1863 2753 
Q 2328 2753 2575 2939 
Q 2822 3125 2822 3475 
Q 2822 3834 2567 4026 
Q 2313 4219 1838 4219 
Q 1578 4219 1281 4162 
Q 984 4106 628 3988 
L 628 4550 
Q 988 4650 1302 4700 
Q 1616 4750 1894 4750 
Q 2613 4750 3031 4423 
Q 3450 4097 3450 3541 
Q 3450 3153 3228 2886 
Q 3006 2619 2597 2516 
z
" transform="scale(0.015625)"/>
       </defs>
       <use xlink:href="#DejaVuSans-33"/>
       <use xlink:href="#DejaVuSans-30" transform="translate(63.623047 0)"/>
      </g>
     </g>
    </g>
    <g id="ytick_8">
     <g id="line2d_13">
      <g>
       <use xlink:href="#m2cf5f512de" x="54.84875" y="85.146705" style="stroke: #000000; stroke-width: 0.8"/>
      </g>
     </g>
     <g id="text_14">
      <!-- 35 -->
      <g transform="translate(28.76125 90.845533) scale(0.15 -0.15)">
       <use xlink:href="#DejaVuSans-33"/>
       <use xlink:href="#DejaVuSans-35" transform="translate(63.623047 0)"/>
      </g>
     </g>
    </g>
    <g id="ytick_9">
     <g id="line2d_14">
      <g>
       <use xlink:href="#m2cf5f512de" x="54.84875" y="53.339092" style="stroke: #000000; stroke-width: 0.8"/>
      </g>
     </g>
     <g id="text_15">
      <!-- 40 -->
      <g transform="translate(28.76125 59.03792) scale(0.15 -0.15)">
       <defs>
        <path id="DejaVuSans-34" d="M 2419 4116 
L 825 1625 
L 2419 1625 
L 2419 4116 
z
M 2253 4666 
L 3047 4666 
L 3047 1625 
L 3713 1625 
L 3713 1100 
L 3047 1100 
L 3047 0 
L 2419 0 
L 2419 1100 
L 313 1100 
L 313 1709 
L 2253 4666 
z
" transform="scale(0.015625)"/>
       </defs>
       <use xlink:href="#DejaVuSans-34"/>
       <use xlink:href="#DejaVuSans-30" transform="translate(63.623047 0)"/>
      </g>
     </g>
    </g>
    <g id="text_16">
     <!-- rapamycin blood [nM] -->
     <g transform="translate(20.877187 293.092031) rotate(-90) scale(0.18 -0.18)">
      <defs>
       <path id="DejaVuSans-Bold-72" d="M 3138 2547 
Q 2991 2616 2845 2648 
Q 2700 2681 2553 2681 
Q 2122 2681 1889 2404 
Q 1656 2128 1656 1613 
L 1656 0 
L 538 0 
L 538 3500 
L 1656 3500 
L 1656 2925 
Q 1872 3269 2151 3426 
Q 2431 3584 2822 3584 
Q 2878 3584 2943 3579 
Q 3009 3575 3134 3559 
L 3138 2547 
z
" transform="scale(0.015625)"/>
       <path id="DejaVuSans-Bold-70" d="M 1656 506 
L 1656 -1331 
L 538 -1331 
L 538 3500 
L 1656 3500 
L 1656 2988 
Q 1888 3294 2169 3439 
Q 2450 3584 2816 3584 
Q 3463 3584 3878 3070 
Q 4294 2556 4294 1747 
Q 4294 938 3878 423 
Q 3463 -91 2816 -91 
Q 2450 -91 2169 54 
Q 1888 200 1656 506 
z
M 2400 2772 
Q 2041 2772 1848 2508 
Q 1656 2244 1656 1747 
Q 1656 1250 1848 986 
Q 2041 722 2400 722 
Q 2759 722 2948 984 
Q 3138 1247 3138 1747 
Q 3138 2247 2948 2509 
Q 2759 2772 2400 2772 
z
" transform="scale(0.015625)"/>
       <path id="DejaVuSans-Bold-63" d="M 3366 3391 
L 3366 2478 
Q 3138 2634 2908 2709 
Q 2678 2784 2431 2784 
Q 1963 2784 1702 2511 
Q 1441 2238 1441 1747 
Q 1441 1256 1702 982 
Q 1963 709 2431 709 
Q 2694 709 2930 787 
Q 3166 866 3366 1019 
L 3366 103 
Q 3103 6 2833 -42 
Q 2563 -91 2291 -91 
Q 1344 -91 809 395 
Q 275 881 275 1747 
Q 275 2613 809 3098 
Q 1344 3584 2291 3584 
Q 2566 3584 2833 3536 
Q 3100 3488 3366 3391 
z
" transform="scale(0.015625)"/>
       <path id="DejaVuSans-Bold-6e" d="M 4056 2131 
L 4056 0 
L 2931 0 
L 2931 347 
L 2931 1631 
Q 2931 2084 2911 2256 
Q 2891 2428 2841 2509 
Q 2775 2619 2662 2680 
Q 2550 2741 2406 2741 
Q 2056 2741 1856 2470 
Q 1656 2200 1656 1722 
L 1656 0 
L 538 0 
L 538 3500 
L 1656 3500 
L 1656 2988 
Q 1909 3294 2193 3439 
Q 2478 3584 2822 3584 
Q 3428 3584 3742 3212 
Q 4056 2841 4056 2131 
z
" transform="scale(0.015625)"/>
       <path id="DejaVuSans-Bold-62" d="M 2400 722 
Q 2759 722 2948 984 
Q 3138 1247 3138 1747 
Q 3138 2247 2948 2509 
Q 2759 2772 2400 2772 
Q 2041 2772 1848 2508 
Q 1656 2244 1656 1747 
Q 1656 1250 1848 986 
Q 2041 722 2400 722 
z
M 1656 2988 
Q 1888 3294 2169 3439 
Q 2450 3584 2816 3584 
Q 3463 3584 3878 3070 
Q 4294 2556 4294 1747 
Q 4294 938 3878 423 
Q 3463 -91 2816 -91 
Q 2450 -91 2169 54 
Q 1888 200 1656 506 
L 1656 0 
L 538 0 
L 538 4863 
L 1656 4863 
L 1656 2988 
z
" transform="scale(0.015625)"/>
       <path id="DejaVuSans-Bold-6c" d="M 538 4863 
L 1656 4863 
L 1656 0 
L 538 0 
L 538 4863 
z
" transform="scale(0.015625)"/>
       <path id="DejaVuSans-Bold-6f" d="M 2203 2784 
Q 1831 2784 1636 2517 
Q 1441 2250 1441 1747 
Q 1441 1244 1636 976 
Q 1831 709 2203 709 
Q 2569 709 2762 976 
Q 2956 1244 2956 1747 
Q 2956 2250 2762 2517 
Q 2569 2784 2203 2784 
z
M 2203 3584 
Q 3106 3584 3614 3096 
Q 4122 2609 4122 1747 
Q 4122 884 3614 396 
Q 3106 -91 2203 -91 
Q 1297 -91 786 396 
Q 275 884 275 1747 
Q 275 2609 786 3096 
Q 1297 3584 2203 3584 
z
" transform="scale(0.015625)"/>
       <path id="DejaVuSans-Bold-4d" d="M 588 4666 
L 2119 4666 
L 3181 2169 
L 4250 4666 
L 5778 4666 
L 5778 0 
L 4641 0 
L 4641 3413 
L 3566 897 
L 2803 897 
L 1728 3413 
L 1728 0 
L 588 0 
L 588 4666 
z
" transform="scale(0.015625)"/>
      </defs>
      <use xlink:href="#DejaVuSans-Bold-72"/>
      <use xlink:href="#DejaVuSans-Bold-61" transform="translate(49.316406 0)"/>
      <use xlink:href="#DejaVuSans-Bold-70" transform="translate(116.796875 0)"/>
      <use xlink:href="#DejaVuSans-Bold-61" transform="translate(188.378906 0)"/>
      <use xlink:href="#DejaVuSans-Bold-6d" transform="translate(255.859375 0)"/>
      <use xlink:href="#DejaVuSans-Bold-79" transform="translate(360.058594 0)"/>
      <use xlink:href="#DejaVuSans-Bold-63" transform="translate(425.244141 0)"/>
      <use xlink:href="#DejaVuSans-Bold-69" transform="translate(484.521484 0)"/>
      <use xlink:href="#DejaVuSans-Bold-6e" transform="translate(518.798828 0)"/>
      <use xlink:href="#DejaVuSans-Bold-20" transform="translate(589.990234 0)"/>
      <use xlink:href="#DejaVuSans-Bold-62" transform="translate(624.804688 0)"/>
      <use xlink:href="#DejaVuSans-Bold-6c" transform="translate(696.386719 0)"/>
      <use xlink:href="#DejaVuSans-Bold-6f" transform="translate(730.664062 0)"/>
      <use xlink:href="#DejaVuSans-Bold-6f" transform="translate(799.365234 0)"/>
      <use xlink:href="#DejaVuSans-Bold-64" transform="translate(868.066406 0)"/>
      <use xlink:href="#DejaVuSans-Bold-20" transform="translate(939.648438 0)"/>
      <use xlink:href="#DejaVuSans-Bold-5b" transform="translate(974.462891 0)"/>
      <use xlink:href="#DejaVuSans-Bold-6e" transform="translate(1020.166016 0)"/>
      <use xlink:href="#DejaVuSans-Bold-4d" transform="translate(1091.357422 0)"/>
      <use xlink:href="#DejaVuSans-Bold-5d" transform="translate(1190.869141 0)"/>
     </g>
    </g>
   </g>
   <g id="LineCollection_1">
    <path d="M 321.166932 260.61705 
L 321.166932 227.534372 
" clip-path="url(#p9ebf535d0f)" style="fill: none; stroke: #000000"/>
    <path d="M 324.865795 258.713845 
L 324.865795 177.157346 
" clip-path="url(#p9ebf535d0f)" style="fill: none; stroke: #000000"/>
    <path d="M 328.564659 226.226952 
L 328.564659 131.877602 
" clip-path="url(#p9ebf535d0f)" style="fill: none; stroke: #000000"/>
    <path d="M 335.962386 212.151505 
L 335.962386 87.268118 
" clip-path="url(#p9ebf535d0f)" style="fill: none; stroke: #000000"/>
    <path d="M 343.360114 199.424852 
L 343.360114 99.978221 
" clip-path="url(#p9ebf535d0f)" style="fill: none; stroke: #000000"/>
    <path d="M 358.155568 214.675322 
L 358.155568 145.862026 
" clip-path="url(#p9ebf535d0f)" style="fill: none; stroke: #000000"/>
    <path d="M 380.34875 250.281816 
L 380.34875 189.114443 
" clip-path="url(#p9ebf535d0f)" style="fill: none; stroke: #000000"/>
    <path d="M 409.939659 266.988652 
L 409.939659 193.127724 
" clip-path="url(#p9ebf535d0f)" style="fill: none; stroke: #000000"/>
   </g>
   <g id="LineCollection_2">
    <path d="M 321.166932 267.459236 
L 321.166932 196.8629 
" clip-path="url(#p9ebf535d0f)" style="fill: none; stroke: #ff944d"/>
    <path d="M 324.865795 266.198588 
L 324.865795 190.559656 
" clip-path="url(#p9ebf535d0f)" style="fill: none; stroke: #ff944d"/>
    <path d="M 328.564659 240.98561 
L 328.564659 130.04851 
" clip-path="url(#p9ebf535d0f)" style="fill: none; stroke: #ff944d"/>
    <path d="M 335.962386 210.730038 
L 335.962386 89.707747 
" clip-path="url(#p9ebf535d0f)" style="fill: none; stroke: #ff944d"/>
    <path d="M 343.360114 208.20874 
L 343.360114 82.143853 
" clip-path="url(#p9ebf535d0f)" style="fill: none; stroke: #ff944d"/>
    <path d="M 358.155568 222.075877 
L 358.155568 88.447098 
" clip-path="url(#p9ebf535d0f)" style="fill: none; stroke: #ff944d"/>
    <path d="M 380.34875 240.98561 
L 380.34875 125.005915 
" clip-path="url(#p9ebf535d0f)" style="fill: none; stroke: #ff944d"/>
    <path d="M 409.939659 247.288855 
L 409.939659 156.522136 
" clip-path="url(#p9ebf535d0f)" style="fill: none; stroke: #ff944d"/>
   </g>
   <g id="LineCollection_3">
    <path d="M 321.166932 261.749239 
L 321.166932 205.464975 
" clip-path="url(#p9ebf535d0f)" style="fill: none; stroke: #d2691e"/>
    <path d="M 324.865795 254.074112 
L 324.865795 177.322843 
" clip-path="url(#p9ebf535d0f)" style="fill: none; stroke: #d2691e"/>
    <path d="M 328.564659 241.282234 
L 328.564659 133.830457 
" clip-path="url(#p9ebf535d0f)" style="fill: none; stroke: #d2691e"/>
    <path d="M 335.962386 216.977665 
L 335.962386 55.8 
" clip-path="url(#p9ebf535d0f)" style="fill: none; stroke: #d2691e"/>
    <path d="M 343.360114 205.464975 
L 343.360114 69.871066 
" clip-path="url(#p9ebf535d0f)" style="fill: none; stroke: #d2691e"/>
    <path d="M 358.155568 223.373604 
L 358.155568 118.480203 
" clip-path="url(#p9ebf535d0f)" style="fill: none; stroke: #d2691e"/>
    <path d="M 380.34875 237.44467 
L 380.34875 124.876142 
" clip-path="url(#p9ebf535d0f)" style="fill: none; stroke: #d2691e"/>
    <path d="M 409.939659 250.236548 
L 409.939659 160.693401 
" clip-path="url(#p9ebf535d0f)" style="fill: none; stroke: #d2691e"/>
   </g>
   <g id="line2d_15">
    <path d="M -1 167.590243 
L 1.585114 171.470538 
L 5.136023 176.062535 
L 8.686932 180.099561 
L 12.237841 183.718349 
L 15.78875 187.019476 
L 19.339659 190.076384 
L 22.890568 192.942554 
L 29.992386 198.247877 
L 37.094205 203.137119 
L 44.196023 207.719097 
L 51.297841 212.054189 
L 58.399659 216.17746 
L 65.501477 220.110685 
L 76.154205 225.685301 
L 86.806932 230.899989 
L 97.459659 235.781451 
L 108.112386 240.352277 
L 118.765114 244.632717 
L 129.417841 248.641402 
L 140.070568 252.395651 
L 143.621477 253.593352 
L 143.621477 253.593352 
L 147.172386 151.522458 
L 150.723295 112.240639 
L 154.274205 110.84745 
L 157.825114 120.676827 
L 161.376023 132.418301 
L 164.926932 143.163141 
L 168.477841 152.270419 
L 172.02875 159.835461 
L 175.579659 166.14039 
L 179.130568 171.470364 
L 182.681477 176.062365 
L 186.232386 180.099394 
L 189.783295 183.718186 
L 193.334205 187.019316 
L 196.885114 190.076228 
L 200.436023 192.942401 
L 207.537841 198.247731 
L 214.639659 203.136979 
L 221.741477 207.718963 
L 228.843295 212.05406 
L 235.945114 216.177337 
L 243.046932 220.110568 
L 253.699659 225.68519 
L 264.352386 230.899886 
L 275.005114 235.781355 
L 285.657841 240.352186 
L 296.310568 244.632633 
L 306.963295 248.641322 
L 317.616023 252.395576 
L 321.166932 253.593279 
L 321.166932 253.593279 
L 321.684773 248.658285 
L 322.202614 232.128552 
L 323.756136 176.074709 
L 324.791818 149.961091 
L 325.8275 132.212105 
L 326.863182 120.730201 
L 327.381023 116.798588 
L 327.898864 113.839854 
L 328.416705 111.708261 
L 328.934545 110.277931 
L 329.452386 109.44024 
L 329.970227 109.101536 
L 330.488068 109.181149 
L 331.005909 109.609662 
L 331.52375 110.327408 
L 332.559432 112.433019 
L 333.595114 115.170159 
L 335.148636 119.954979 
L 341.362727 139.973865 
L 343.434091 145.79402 
L 345.505455 151.044014 
L 347.576818 155.754459 
L 349.648182 159.978559 
L 351.719545 163.776222 
L 354.30875 168.012468 
L 356.897955 171.776766 
L 359.487159 175.15673 
L 362.594205 178.806044 
L 365.70125 182.104293 
L 369.326136 185.608867 
L 373.468864 189.269031 
L 378.129432 193.058252 
L 383.307841 196.966179 
L 389.004091 200.989951 
L 395.736023 205.461767 
L 402.985795 210.004958 
L 410.753409 214.611612 
L 419.038864 219.265551 
L 424.735114 222.323186 
L 424.735114 222.323186 
" clip-path="url(#p9ebf535d0f)" style="fill: none; stroke: #000000; stroke-width: 2; stroke-linecap: square"/>
   </g>
   <g id="line2d_16">
    <path d="M 321.166932 244.075711 
L 324.865795 217.935596 
L 328.564659 179.052277 
L 335.962386 149.709812 
L 343.360114 149.701537 
L 358.155568 180.268674 
L 380.34875 219.698129 
L 409.939659 230.058188 
" clip-path="url(#p9ebf535d0f)" style="fill: none; stroke-dasharray: 3.7,1.6; stroke-dashoffset: 0; stroke: #000000"/>
    <defs>
     <path id="md4a237882a" d="M -3 3 
L 3 3 
L 3 -3 
L -3 -3 
z
" style="stroke: #000000; stroke-linejoin: miter"/>
    </defs>
    <g clip-path="url(#p9ebf535d0f)">
     <use xlink:href="#md4a237882a" x="321.166932" y="244.075711" style="stroke: #000000; stroke-linejoin: miter"/>
     <use xlink:href="#md4a237882a" x="324.865795" y="217.935596" style="stroke: #000000; stroke-linejoin: miter"/>
     <use xlink:href="#md4a237882a" x="328.564659" y="179.052277" style="stroke: #000000; stroke-linejoin: miter"/>
     <use xlink:href="#md4a237882a" x="335.962386" y="149.709812" style="stroke: #000000; stroke-linejoin: miter"/>
     <use xlink:href="#md4a237882a" x="343.360114" y="149.701537" style="stroke: #000000; stroke-linejoin: miter"/>
     <use xlink:href="#md4a237882a" x="358.155568" y="180.268674" style="stroke: #000000; stroke-linejoin: miter"/>
     <use xlink:href="#md4a237882a" x="380.34875" y="219.698129" style="stroke: #000000; stroke-linejoin: miter"/>
     <use xlink:href="#md4a237882a" x="409.939659" y="230.058188" style="stroke: #000000; stroke-linejoin: miter"/>
    </g>
   </g>
   <g id="line2d_17">
    <path d="M 51.297841 212.053995 
L 58.399659 216.177275 
L 65.501477 220.110508 
L 76.154205 225.685135 
L 86.806932 230.899833 
L 97.459659 235.781306 
L 108.112386 240.352141 
L 118.765114 244.63259 
L 129.417841 248.641282 
L 140.070568 252.395539 
L 143.621477 253.593243 
L 143.621477 253.593243 
L 147.172386 151.522351 
L 150.723295 112.240534 
L 154.274205 110.847348 
L 157.825114 120.676727 
L 161.376023 132.418203 
L 164.926932 143.163045 
L 168.477841 152.270325 
L 172.02875 159.835369 
L 175.579659 166.1403 
L 179.130568 171.470276 
L 182.681477 176.062278 
L 186.232386 180.09931 
L 189.783295 183.718103 
L 193.334205 187.019235 
L 196.885114 190.076149 
L 200.436023 192.942324 
L 207.537841 198.247657 
L 214.639659 203.136908 
L 221.741477 207.718895 
L 228.843295 212.053995 
L 235.945114 216.177275 
L 243.046932 220.110508 
L 253.699659 225.685135 
L 264.352386 230.899833 
L 275.005114 235.781306 
L 285.657841 240.352141 
L 296.310568 244.63259 
L 306.963295 248.641282 
L 317.616023 252.395539 
L 321.166932 253.593243 
L 321.166932 253.593243 
L 321.684773 248.658248 
L 322.202614 232.128516 
L 323.756136 176.074672 
L 324.791818 149.961055 
L 325.8275 132.212069 
L 326.863182 120.730165 
L 327.381023 116.798552 
L 327.898864 113.839818 
L 328.416705 111.708226 
L 328.934545 110.277896 
L 329.452386 109.440205 
L 329.970227 109.101501 
L 330.488068 109.181114 
L 331.005909 109.609628 
L 331.52375 110.327374 
L 332.559432 112.432985 
L 333.595114 115.170125 
L 335.148636 119.954945 
L 341.362727 139.973832 
L 343.434091 145.793988 
L 345.505455 151.043983 
L 347.576818 155.754428 
L 349.648182 159.978528 
L 351.719545 163.776191 
L 354.30875 168.012438 
L 356.897955 171.776736 
L 359.487159 175.156701 
L 362.594205 178.806016 
L 365.70125 182.104265 
L 369.326136 185.608839 
L 373.468864 189.269004 
L 378.129432 193.058226 
L 383.307841 196.966154 
L 389.004091 200.989926 
L 395.736023 205.461744 
L 402.985795 210.004936 
L 410.753409 214.61159 
L 419.038864 219.265531 
L 424.735114 222.323167 
L 424.735114 222.323167 
" clip-path="url(#p9ebf535d0f)" style="fill: none; stroke: #ff944d; stroke-width: 2; stroke-linecap: square"/>
   </g>
   <g id="line2d_18">
    <path d="M 321.166932 232.161068 
L 324.865795 228.379122 
L 328.564659 185.51706 
L 335.962386 150.218892 
L 343.360114 145.176297 
L 358.155568 155.261488 
L 380.34875 182.995763 
L 409.939659 201.905495 
" clip-path="url(#p9ebf535d0f)" style="fill: none; stroke-dasharray: 3.7,1.6; stroke-dashoffset: 0; stroke: #ff944d"/>
    <defs>
     <path id="m932844a31b" d="M -3 3 
L 3 3 
L 3 -3 
L -3 -3 
z
" style="stroke: #000000; stroke-linejoin: miter"/>
    </defs>
    <g clip-path="url(#p9ebf535d0f)">
     <use xlink:href="#m932844a31b" x="321.166932" y="232.161068" style="fill: #ff944d; stroke: #000000; stroke-linejoin: miter"/>
     <use xlink:href="#m932844a31b" x="324.865795" y="228.379122" style="fill: #ff944d; stroke: #000000; stroke-linejoin: miter"/>
     <use xlink:href="#m932844a31b" x="328.564659" y="185.51706" style="fill: #ff944d; stroke: #000000; stroke-linejoin: miter"/>
     <use xlink:href="#m932844a31b" x="335.962386" y="150.218892" style="fill: #ff944d; stroke: #000000; stroke-linejoin: miter"/>
     <use xlink:href="#m932844a31b" x="343.360114" y="145.176297" style="fill: #ff944d; stroke: #000000; stroke-linejoin: miter"/>
     <use xlink:href="#m932844a31b" x="358.155568" y="155.261488" style="fill: #ff944d; stroke: #000000; stroke-linejoin: miter"/>
     <use xlink:href="#m932844a31b" x="380.34875" y="182.995763" style="fill: #ff944d; stroke: #000000; stroke-linejoin: miter"/>
     <use xlink:href="#m932844a31b" x="409.939659" y="201.905495" style="fill: #ff944d; stroke: #000000; stroke-linejoin: miter"/>
    </g>
   </g>
   <g id="line2d_19">
    <path d="M 51.297841 212.053995 
L 58.399659 216.177275 
L 65.501477 220.110508 
L 76.154205 225.685135 
L 86.806932 230.899833 
L 97.459659 235.781306 
L 108.112386 240.352141 
L 118.765114 244.63259 
L 129.417841 248.641282 
L 140.070568 252.395539 
L 143.621477 253.593243 
L 143.621477 253.593243 
L 147.172386 151.522351 
L 150.723295 112.240534 
L 154.274205 110.847348 
L 157.825114 120.676727 
L 161.376023 132.418203 
L 164.926932 143.163045 
L 168.477841 152.270325 
L 172.02875 159.835369 
L 175.579659 166.1403 
L 179.130568 171.470276 
L 182.681477 176.062278 
L 186.232386 180.09931 
L 189.783295 183.718103 
L 193.334205 187.019235 
L 196.885114 190.076149 
L 200.436023 192.942324 
L 207.537841 198.247657 
L 214.639659 203.136908 
L 221.741477 207.718895 
L 228.843295 212.053995 
L 235.945114 216.177275 
L 243.046932 220.110508 
L 253.699659 225.685135 
L 264.352386 230.899833 
L 275.005114 235.781306 
L 285.657841 240.352141 
L 296.310568 244.63259 
L 306.963295 248.641282 
L 317.616023 252.395539 
L 321.166932 253.593243 
L 321.166932 253.593243 
L 321.684773 248.658248 
L 322.202614 232.128516 
L 323.756136 176.074672 
L 324.791818 149.961055 
L 325.8275 132.212069 
L 326.863182 120.730165 
L 327.381023 116.798552 
L 327.898864 113.839818 
L 328.416705 111.708226 
L 328.934545 110.277896 
L 329.452386 109.440205 
L 329.970227 109.101501 
L 330.488068 109.181114 
L 331.005909 109.609628 
L 331.52375 110.327374 
L 332.559432 112.432985 
L 333.595114 115.170125 
L 335.148636 119.954945 
L 341.362727 139.973832 
L 343.434091 145.793988 
L 345.505455 151.043983 
L 347.576818 155.754428 
L 349.648182 159.978528 
L 351.719545 163.776191 
L 354.30875 168.012438 
L 356.897955 171.776736 
L 359.487159 175.156701 
L 362.594205 178.806016 
L 365.70125 182.104265 
L 369.326136 185.608839 
L 373.468864 189.269004 
L 378.129432 193.058226 
L 383.307841 196.966154 
L 389.004091 200.989926 
L 395.736023 205.461744 
L 402.985795 210.004936 
L 410.753409 214.61159 
L 419.038864 219.265531 
L 424.735114 222.323167 
L 424.735114 222.323167 
" clip-path="url(#p9ebf535d0f)" style="fill: none; stroke: #d2691e; stroke-width: 2; stroke-linecap: square"/>
   </g>
   <g id="line2d_20">
    <path d="M 321.166932 233.607107 
L 324.865795 215.698477 
L 328.564659 187.556345 
L 335.962386 136.388832 
L 343.360114 137.66802 
L 358.155568 170.926904 
L 380.34875 181.160406 
L 409.939659 205.464975 
" clip-path="url(#p9ebf535d0f)" style="fill: none; stroke-dasharray: 3.7,1.6; stroke-dashoffset: 0; stroke: #d2691e"/>
    <defs>
     <path id="m51d6a253b7" d="M -3 3 
L 3 3 
L 3 -3 
L -3 -3 
z
" style="stroke: #000000; stroke-linejoin: miter"/>
    </defs>
    <g clip-path="url(#p9ebf535d0f)">
     <use xlink:href="#m51d6a253b7" x="321.166932" y="233.607107" style="fill: #d2691e; stroke: #000000; stroke-linejoin: miter"/>
     <use xlink:href="#m51d6a253b7" x="324.865795" y="215.698477" style="fill: #d2691e; stroke: #000000; stroke-linejoin: miter"/>
     <use xlink:href="#m51d6a253b7" x="328.564659" y="187.556345" style="fill: #d2691e; stroke: #000000; stroke-linejoin: miter"/>
     <use xlink:href="#m51d6a253b7" x="335.962386" y="136.388832" style="fill: #d2691e; stroke: #000000; stroke-linejoin: miter"/>
     <use xlink:href="#m51d6a253b7" x="343.360114" y="137.66802" style="fill: #d2691e; stroke: #000000; stroke-linejoin: miter"/>
     <use xlink:href="#m51d6a253b7" x="358.155568" y="170.926904" style="fill: #d2691e; stroke: #000000; stroke-linejoin: miter"/>
     <use xlink:href="#m51d6a253b7" x="380.34875" y="181.160406" style="fill: #d2691e; stroke: #000000; stroke-linejoin: miter"/>
     <use xlink:href="#m51d6a253b7" x="409.939659" y="205.464975" style="fill: #d2691e; stroke: #000000; stroke-linejoin: miter"/>
    </g>
   </g>
   <g id="patch_3">
    <path d="M 54.84875 320.4 
L 54.84875 43.2 
" style="fill: none; stroke: #000000; stroke-width: 0.8; stroke-linejoin: miter; stroke-linecap: square"/>
   </g>
   <g id="patch_4">
    <path d="M 445.44875 320.4 
L 445.44875 43.2 
" style="fill: none; stroke: #000000; stroke-width: 0.8; stroke-linejoin: miter; stroke-linecap: square"/>
   </g>
   <g id="patch_5">
    <path d="M 54.84875 320.4 
L 445.44875 320.4 
" style="fill: none; stroke: #000000; stroke-width: 0.8; stroke-linejoin: miter; stroke-linecap: square"/>
   </g>
   <g id="patch_6">
    <path d="M 54.84875 43.2 
L 445.44875 43.2 
" style="fill: none; stroke: #000000; stroke-width: 0.8; stroke-linejoin: miter; stroke-linecap: square"/>
   </g>
   <g id="legend_1">
    <g id="patch_7">
     <path d="M 61.84875 140.9375 
L 218.305 140.9375 
Q 220.305 140.9375 220.305 138.9375 
L 220.305 50.2 
Q 220.305 48.2 218.305 48.2 
L 61.84875 48.2 
Q 59.84875 48.2 59.84875 50.2 
L 59.84875 138.9375 
Q 59.84875 140.9375 61.84875 140.9375 
z
" style="fill: #ffffff; opacity: 0.8; stroke: #cccccc; stroke-linejoin: miter"/>
    </g>
    <g id="line2d_21">
     <path d="M 63.84875 56.298437 
L 83.84875 56.298437 
" style="fill: none; stroke: #000000; stroke-width: 2; stroke-linecap: square"/>
    </g>
    <g id="line2d_22"/>
    <g id="text_17">
     <!-- RAP_T2, CSA -->
     <g transform="translate(91.84875 59.798437) scale(0.1 -0.1)">
      <defs>
       <path id="DejaVuSans-52" d="M 2841 2188 
Q 3044 2119 3236 1894 
Q 3428 1669 3622 1275 
L 4263 0 
L 3584 0 
L 2988 1197 
Q 2756 1666 2539 1819 
Q 2322 1972 1947 1972 
L 1259 1972 
L 1259 0 
L 628 0 
L 628 4666 
L 2053 4666 
Q 2853 4666 3247 4331 
Q 3641 3997 3641 3322 
Q 3641 2881 3436 2590 
Q 3231 2300 2841 2188 
z
M 1259 4147 
L 1259 2491 
L 2053 2491 
Q 2509 2491 2742 2702 
Q 2975 2913 2975 3322 
Q 2975 3731 2742 3939 
Q 2509 4147 2053 4147 
L 1259 4147 
z
" transform="scale(0.015625)"/>
       <path id="DejaVuSans-41" d="M 2188 4044 
L 1331 1722 
L 3047 1722 
L 2188 4044 
z
M 1831 4666 
L 2547 4666 
L 4325 0 
L 3669 0 
L 3244 1197 
L 1141 1197 
L 716 0 
L 50 0 
L 1831 4666 
z
" transform="scale(0.015625)"/>
       <path id="DejaVuSans-50" d="M 1259 4147 
L 1259 2394 
L 2053 2394 
Q 2494 2394 2734 2622 
Q 2975 2850 2975 3272 
Q 2975 3691 2734 3919 
Q 2494 4147 2053 4147 
L 1259 4147 
z
M 628 4666 
L 2053 4666 
Q 2838 4666 3239 4311 
Q 3641 3956 3641 3272 
Q 3641 2581 3239 2228 
Q 2838 1875 2053 1875 
L 1259 1875 
L 1259 0 
L 628 0 
L 628 4666 
z
" transform="scale(0.015625)"/>
       <path id="DejaVuSans-5f" d="M 3263 -1063 
L 3263 -1509 
L -63 -1509 
L -63 -1063 
L 3263 -1063 
z
" transform="scale(0.015625)"/>
       <path id="DejaVuSans-54" d="M -19 4666 
L 3928 4666 
L 3928 4134 
L 2272 4134 
L 2272 0 
L 1638 0 
L 1638 4134 
L -19 4134 
L -19 4666 
z
" transform="scale(0.015625)"/>
       <path id="DejaVuSans-2c" d="M 750 794 
L 1409 794 
L 1409 256 
L 897 -744 
L 494 -744 
L 750 256 
L 750 794 
z
" transform="scale(0.015625)"/>
       <path id="DejaVuSans-20" transform="scale(0.015625)"/>
       <path id="DejaVuSans-43" d="M 4122 4306 
L 4122 3641 
Q 3803 3938 3442 4084 
Q 3081 4231 2675 4231 
Q 1875 4231 1450 3742 
Q 1025 3253 1025 2328 
Q 1025 1406 1450 917 
Q 1875 428 2675 428 
Q 3081 428 3442 575 
Q 3803 722 4122 1019 
L 4122 359 
Q 3791 134 3420 21 
Q 3050 -91 2638 -91 
Q 1578 -91 968 557 
Q 359 1206 359 2328 
Q 359 3453 968 4101 
Q 1578 4750 2638 4750 
Q 3056 4750 3426 4639 
Q 3797 4528 4122 4306 
z
" transform="scale(0.015625)"/>
       <path id="DejaVuSans-53" d="M 3425 4513 
L 3425 3897 
Q 3066 4069 2747 4153 
Q 2428 4238 2131 4238 
Q 1616 4238 1336 4038 
Q 1056 3838 1056 3469 
Q 1056 3159 1242 3001 
Q 1428 2844 1947 2747 
L 2328 2669 
Q 3034 2534 3370 2195 
Q 3706 1856 3706 1288 
Q 3706 609 3251 259 
Q 2797 -91 1919 -91 
Q 1588 -91 1214 -16 
Q 841 59 441 206 
L 441 856 
Q 825 641 1194 531 
Q 1563 422 1919 422 
Q 2459 422 2753 634 
Q 3047 847 3047 1241 
Q 3047 1584 2836 1778 
Q 2625 1972 2144 2069 
L 1759 2144 
Q 1053 2284 737 2584 
Q 422 2884 422 3419 
Q 422 4038 858 4394 
Q 1294 4750 2059 4750 
Q 2388 4750 2728 4690 
Q 3069 4631 3425 4513 
z
" transform="scale(0.015625)"/>
      </defs>
      <use xlink:href="#DejaVuSans-52"/>
      <use xlink:href="#DejaVuSans-41" transform="translate(65.482422 0)"/>
      <use xlink:href="#DejaVuSans-50" transform="translate(133.890625 0)"/>
      <use xlink:href="#DejaVuSans-5f" transform="translate(194.193359 0)"/>
      <use xlink:href="#DejaVuSans-54" transform="translate(244.193359 0)"/>
      <use xlink:href="#DejaVuSans-32" transform="translate(305.277344 0)"/>
      <use xlink:href="#DejaVuSans-2c" transform="translate(368.900391 0)"/>
      <use xlink:href="#DejaVuSans-20" transform="translate(400.6875 0)"/>
      <use xlink:href="#DejaVuSans-43" transform="translate(432.474609 0)"/>
      <use xlink:href="#DejaVuSans-53" transform="translate(502.298828 0)"/>
      <use xlink:href="#DejaVuSans-41" transform="translate(567.650391 0)"/>
     </g>
    </g>
    <g id="LineCollection_4">
     <path d="M 73.84875 76.254687 
L 73.84875 66.254687 
" style="fill: none; stroke: #000000"/>
    </g>
    <g id="line2d_23">
     <path d="M 63.84875 71.254687 
L 83.84875 71.254687 
" style="fill: none; stroke-dasharray: 3.7,1.6; stroke-dashoffset: 0; stroke: #000000"/>
    </g>
    <g id="line2d_24">
     <g>
      <use xlink:href="#md4a237882a" x="73.84875" y="71.254687" style="stroke: #000000; stroke-linejoin: miter"/>
     </g>
    </g>
    <g id="text_18">
     <!-- RAP_T2, CSA±SD (n=21) -->
     <g transform="translate(91.84875 74.754687) scale(0.1 -0.1)">
      <defs>
       <path id="DejaVuSans-b1" d="M 2944 4013 
L 2944 2803 
L 4684 2803 
L 4684 2272 
L 2944 2272 
L 2944 1063 
L 2419 1063 
L 2419 2272 
L 678 2272 
L 678 2803 
L 2419 2803 
L 2419 4013 
L 2944 4013 
z
M 678 531 
L 4684 531 
L 4684 0 
L 678 0 
L 678 531 
z
" transform="scale(0.015625)"/>
       <path id="DejaVuSans-44" d="M 1259 4147 
L 1259 519 
L 2022 519 
Q 2988 519 3436 956 
Q 3884 1394 3884 2338 
Q 3884 3275 3436 3711 
Q 2988 4147 2022 4147 
L 1259 4147 
z
M 628 4666 
L 1925 4666 
Q 3281 4666 3915 4102 
Q 4550 3538 4550 2338 
Q 4550 1131 3912 565 
Q 3275 0 1925 0 
L 628 0 
L 628 4666 
z
" transform="scale(0.015625)"/>
       <path id="DejaVuSans-28" d="M 1984 4856 
Q 1566 4138 1362 3434 
Q 1159 2731 1159 2009 
Q 1159 1288 1364 580 
Q 1569 -128 1984 -844 
L 1484 -844 
Q 1016 -109 783 600 
Q 550 1309 550 2009 
Q 550 2706 781 3412 
Q 1013 4119 1484 4856 
L 1984 4856 
z
" transform="scale(0.015625)"/>
       <path id="DejaVuSans-6e" d="M 3513 2113 
L 3513 0 
L 2938 0 
L 2938 2094 
Q 2938 2591 2744 2837 
Q 2550 3084 2163 3084 
Q 1697 3084 1428 2787 
Q 1159 2491 1159 1978 
L 1159 0 
L 581 0 
L 581 3500 
L 1159 3500 
L 1159 2956 
Q 1366 3272 1645 3428 
Q 1925 3584 2291 3584 
Q 2894 3584 3203 3211 
Q 3513 2838 3513 2113 
z
" transform="scale(0.015625)"/>
       <path id="DejaVuSans-3d" d="M 678 2906 
L 4684 2906 
L 4684 2381 
L 678 2381 
L 678 2906 
z
M 678 1631 
L 4684 1631 
L 4684 1100 
L 678 1100 
L 678 1631 
z
" transform="scale(0.015625)"/>
       <path id="DejaVuSans-29" d="M 513 4856 
L 1013 4856 
Q 1481 4119 1714 3412 
Q 1947 2706 1947 2009 
Q 1947 1309 1714 600 
Q 1481 -109 1013 -844 
L 513 -844 
Q 928 -128 1133 580 
Q 1338 1288 1338 2009 
Q 1338 2731 1133 3434 
Q 928 4138 513 4856 
z
" transform="scale(0.015625)"/>
      </defs>
      <use xlink:href="#DejaVuSans-52"/>
      <use xlink:href="#DejaVuSans-41" transform="translate(65.482422 0)"/>
      <use xlink:href="#DejaVuSans-50" transform="translate(133.890625 0)"/>
      <use xlink:href="#DejaVuSans-5f" transform="translate(194.193359 0)"/>
      <use xlink:href="#DejaVuSans-54" transform="translate(244.193359 0)"/>
      <use xlink:href="#DejaVuSans-32" transform="translate(305.277344 0)"/>
      <use xlink:href="#DejaVuSans-2c" transform="translate(368.900391 0)"/>
      <use xlink:href="#DejaVuSans-20" transform="translate(400.6875 0)"/>
      <use xlink:href="#DejaVuSans-43" transform="translate(432.474609 0)"/>
      <use xlink:href="#DejaVuSans-53" transform="translate(502.298828 0)"/>
      <use xlink:href="#DejaVuSans-41" transform="translate(567.650391 0)"/>
      <use xlink:href="#DejaVuSans-b1" transform="translate(636.058594 0)"/>
      <use xlink:href="#DejaVuSans-53" transform="translate(719.847656 0)"/>
      <use xlink:href="#DejaVuSans-44" transform="translate(783.324219 0)"/>
      <use xlink:href="#DejaVuSans-20" transform="translate(860.326172 0)"/>
      <use xlink:href="#DejaVuSans-28" transform="translate(892.113281 0)"/>
      <use xlink:href="#DejaVuSans-6e" transform="translate(931.126953 0)"/>
      <use xlink:href="#DejaVuSans-3d" transform="translate(994.505859 0)"/>
      <use xlink:href="#DejaVuSans-32" transform="translate(1078.294922 0)"/>
      <use xlink:href="#DejaVuSans-31" transform="translate(1141.917969 0)"/>
      <use xlink:href="#DejaVuSans-29" transform="translate(1205.541016 0)"/>
     </g>
    </g>
    <g id="line2d_25">
     <path d="M 63.84875 86.210938 
L 83.84875 86.210938 
" style="fill: none; stroke: #ff944d; stroke-width: 2; stroke-linecap: square"/>
    </g>
    <g id="line2d_26"/>
    <g id="text_19">
     <!-- RAP_T4, CSA -->
     <g transform="translate(91.84875 89.710938) scale(0.1 -0.1)">
      <use xlink:href="#DejaVuSans-52"/>
      <use xlink:href="#DejaVuSans-41" transform="translate(65.482422 0)"/>
      <use xlink:href="#DejaVuSans-50" transform="translate(133.890625 0)"/>
      <use xlink:href="#DejaVuSans-5f" transform="translate(194.193359 0)"/>
      <use xlink:href="#DejaVuSans-54" transform="translate(244.193359 0)"/>
      <use xlink:href="#DejaVuSans-34" transform="translate(305.277344 0)"/>
      <use xlink:href="#DejaVuSans-2c" transform="translate(368.900391 0)"/>
      <use xlink:href="#DejaVuSans-20" transform="translate(400.6875 0)"/>
      <use xlink:href="#DejaVuSans-43" transform="translate(432.474609 0)"/>
      <use xlink:href="#DejaVuSans-53" transform="translate(502.298828 0)"/>
      <use xlink:href="#DejaVuSans-41" transform="translate(567.650391 0)"/>
     </g>
    </g>
    <g id="LineCollection_5">
     <path d="M 73.84875 106.167187 
L 73.84875 96.167187 
" style="fill: none; stroke: #ff944d"/>
    </g>
    <g id="line2d_27">
     <path d="M 63.84875 101.167187 
L 83.84875 101.167187 
" style="fill: none; stroke-dasharray: 3.7,1.6; stroke-dashoffset: 0; stroke: #ff944d"/>
    </g>
    <g id="line2d_28">
     <g>
      <use xlink:href="#m932844a31b" x="73.84875" y="101.167187" style="fill: #ff944d; stroke: #000000; stroke-linejoin: miter"/>
     </g>
    </g>
    <g id="text_20">
     <!-- RAP_T4, CSA±SD (n=21) -->
     <g transform="translate(91.84875 104.667187) scale(0.1 -0.1)">
      <use xlink:href="#DejaVuSans-52"/>
      <use xlink:href="#DejaVuSans-41" transform="translate(65.482422 0)"/>
      <use xlink:href="#DejaVuSans-50" transform="translate(133.890625 0)"/>
      <use xlink:href="#DejaVuSans-5f" transform="translate(194.193359 0)"/>
      <use xlink:href="#DejaVuSans-54" transform="translate(244.193359 0)"/>
      <use xlink:href="#DejaVuSans-34" transform="translate(305.277344 0)"/>
      <use xlink:href="#DejaVuSans-2c" transform="translate(368.900391 0)"/>
      <use xlink:href="#DejaVuSans-20" transform="translate(400.6875 0)"/>
      <use xlink:href="#DejaVuSans-43" transform="translate(432.474609 0)"/>
      <use xlink:href="#DejaVuSans-53" transform="translate(502.298828 0)"/>
      <use xlink:href="#DejaVuSans-41" transform="translate(567.650391 0)"/>
      <use xlink:href="#DejaVuSans-b1" transform="translate(636.058594 0)"/>
      <use xlink:href="#DejaVuSans-53" transform="translate(719.847656 0)"/>
      <use xlink:href="#DejaVuSans-44" transform="translate(783.324219 0)"/>
      <use xlink:href="#DejaVuSans-20" transform="translate(860.326172 0)"/>
      <use xlink:href="#DejaVuSans-28" transform="translate(892.113281 0)"/>
      <use xlink:href="#DejaVuSans-6e" transform="translate(931.126953 0)"/>
      <use xlink:href="#DejaVuSans-3d" transform="translate(994.505859 0)"/>
      <use xlink:href="#DejaVuSans-32" transform="translate(1078.294922 0)"/>
      <use xlink:href="#DejaVuSans-31" transform="translate(1141.917969 0)"/>
      <use xlink:href="#DejaVuSans-29" transform="translate(1205.541016 0)"/>
     </g>
    </g>
    <g id="line2d_29">
     <path d="M 63.84875 116.123437 
L 83.84875 116.123437 
" style="fill: none; stroke: #d2691e; stroke-width: 2; stroke-linecap: square"/>
    </g>
    <g id="line2d_30"/>
    <g id="text_21">
     <!-- RAP_T8, CSA -->
     <g transform="translate(91.84875 119.623437) scale(0.1 -0.1)">
      <defs>
       <path id="DejaVuSans-38" d="M 2034 2216 
Q 1584 2216 1326 1975 
Q 1069 1734 1069 1313 
Q 1069 891 1326 650 
Q 1584 409 2034 409 
Q 2484 409 2743 651 
Q 3003 894 3003 1313 
Q 3003 1734 2745 1975 
Q 2488 2216 2034 2216 
z
M 1403 2484 
Q 997 2584 770 2862 
Q 544 3141 544 3541 
Q 544 4100 942 4425 
Q 1341 4750 2034 4750 
Q 2731 4750 3128 4425 
Q 3525 4100 3525 3541 
Q 3525 3141 3298 2862 
Q 3072 2584 2669 2484 
Q 3125 2378 3379 2068 
Q 3634 1759 3634 1313 
Q 3634 634 3220 271 
Q 2806 -91 2034 -91 
Q 1263 -91 848 271 
Q 434 634 434 1313 
Q 434 1759 690 2068 
Q 947 2378 1403 2484 
z
M 1172 3481 
Q 1172 3119 1398 2916 
Q 1625 2713 2034 2713 
Q 2441 2713 2670 2916 
Q 2900 3119 2900 3481 
Q 2900 3844 2670 4047 
Q 2441 4250 2034 4250 
Q 1625 4250 1398 4047 
Q 1172 3844 1172 3481 
z
" transform="scale(0.015625)"/>
      </defs>
      <use xlink:href="#DejaVuSans-52"/>
      <use xlink:href="#DejaVuSans-41" transform="translate(65.482422 0)"/>
      <use xlink:href="#DejaVuSans-50" transform="translate(133.890625 0)"/>
      <use xlink:href="#DejaVuSans-5f" transform="translate(194.193359 0)"/>
      <use xlink:href="#DejaVuSans-54" transform="translate(244.193359 0)"/>
      <use xlink:href="#DejaVuSans-38" transform="translate(305.277344 0)"/>
      <use xlink:href="#DejaVuSans-2c" transform="translate(368.900391 0)"/>
      <use xlink:href="#DejaVuSans-20" transform="translate(400.6875 0)"/>
      <use xlink:href="#DejaVuSans-43" transform="translate(432.474609 0)"/>
      <use xlink:href="#DejaVuSans-53" transform="translate(502.298828 0)"/>
      <use xlink:href="#DejaVuSans-41" transform="translate(567.650391 0)"/>
     </g>
    </g>
    <g id="LineCollection_6">
     <path d="M 73.84875 136.079687 
L 73.84875 126.079687 
" style="fill: none; stroke: #d2691e"/>
    </g>
    <g id="line2d_31">
     <path d="M 63.84875 131.079687 
L 83.84875 131.079687 
" style="fill: none; stroke-dasharray: 3.7,1.6; stroke-dashoffset: 0; stroke: #d2691e"/>
    </g>
    <g id="line2d_32">
     <g>
      <use xlink:href="#m51d6a253b7" x="73.84875" y="131.079687" style="fill: #d2691e; stroke: #000000; stroke-linejoin: miter"/>
     </g>
    </g>
    <g id="text_22">
     <!-- RAP_T8, CSA±SD (n=21) -->
     <g transform="translate(91.84875 134.579687) scale(0.1 -0.1)">
      <use xlink:href="#DejaVuSans-52"/>
      <use xlink:href="#DejaVuSans-41" transform="translate(65.482422 0)"/>
      <use xlink:href="#DejaVuSans-50" transform="translate(133.890625 0)"/>
      <use xlink:href="#DejaVuSans-5f" transform="translate(194.193359 0)"/>
      <use xlink:href="#DejaVuSans-54" transform="translate(244.193359 0)"/>
      <use xlink:href="#DejaVuSans-38" transform="translate(305.277344 0)"/>
      <use xlink:href="#DejaVuSans-2c" transform="translate(368.900391 0)"/>
      <use xlink:href="#DejaVuSans-20" transform="translate(400.6875 0)"/>
      <use xlink:href="#DejaVuSans-43" transform="translate(432.474609 0)"/>
      <use xlink:href="#DejaVuSans-53" transform="translate(502.298828 0)"/>
      <use xlink:href="#DejaVuSans-41" transform="translate(567.650391 0)"/>
      <use xlink:href="#DejaVuSans-b1" transform="translate(636.058594 0)"/>
      <use xlink:href="#DejaVuSans-53" transform="translate(719.847656 0)"/>
      <use xlink:href="#DejaVuSans-44" transform="translate(783.324219 0)"/>
      <use xlink:href="#DejaVuSans-20" transform="translate(860.326172 0)"/>
      <use xlink:href="#DejaVuSans-28" transform="translate(892.113281 0)"/>
      <use xlink:href="#DejaVuSans-6e" transform="translate(931.126953 0)"/>
      <use xlink:href="#DejaVuSans-3d" transform="translate(994.505859 0)"/>
      <use xlink:href="#DejaVuSans-32" transform="translate(1078.294922 0)"/>
      <use xlink:href="#DejaVuSans-31" transform="translate(1141.917969 0)"/>
      <use xlink:href="#DejaVuSans-29" transform="translate(1205.541016 0)"/>
     </g>
    </g>
   </g>
  </g>
  <g id="text_23">
   <!-- Kelly1999 -->
   <g transform="translate(174.395625 26.196094) scale(0.25 -0.25)">
    <defs>
     <path id="DejaVuSans-Bold-4b" d="M 588 4666 
L 1791 4666 
L 1791 2963 
L 3525 4666 
L 4922 4666 
L 2675 2456 
L 5153 0 
L 3647 0 
L 1791 1838 
L 1791 0 
L 588 0 
L 588 4666 
z
" transform="scale(0.015625)"/>
     <path id="DejaVuSans-Bold-31" d="M 750 831 
L 1813 831 
L 1813 3847 
L 722 3622 
L 722 4441 
L 1806 4666 
L 2950 4666 
L 2950 831 
L 4013 831 
L 4013 0 
L 750 0 
L 750 831 
z
" transform="scale(0.015625)"/>
     <path id="DejaVuSans-Bold-39" d="M 641 103 
L 641 966 
Q 928 831 1190 764 
Q 1453 697 1709 697 
Q 2247 697 2547 995 
Q 2847 1294 2900 1881 
Q 2688 1725 2447 1647 
Q 2206 1569 1925 1569 
Q 1209 1569 770 1986 
Q 331 2403 331 3084 
Q 331 3838 820 4291 
Q 1309 4744 2131 4744 
Q 3044 4744 3544 4128 
Q 4044 3513 4044 2388 
Q 4044 1231 3459 570 
Q 2875 -91 1856 -91 
Q 1528 -91 1228 -42 
Q 928 6 641 103 
z
M 2125 2350 
Q 2441 2350 2600 2554 
Q 2759 2759 2759 3169 
Q 2759 3575 2600 3781 
Q 2441 3988 2125 3988 
Q 1809 3988 1650 3781 
Q 1491 3575 1491 3169 
Q 1491 2759 1650 2554 
Q 1809 2350 2125 2350 
z
" transform="scale(0.015625)"/>
    </defs>
    <use xlink:href="#DejaVuSans-Bold-4b"/>
    <use xlink:href="#DejaVuSans-Bold-65" transform="translate(75.740234 0)"/>
    <use xlink:href="#DejaVuSans-Bold-6c" transform="translate(143.5625 0)"/>
    <use xlink:href="#DejaVuSans-Bold-6c" transform="translate(177.839844 0)"/>
    <use xlink:href="#DejaVuSans-Bold-79" transform="translate(212.117188 0)"/>
    <use xlink:href="#DejaVuSans-Bold-31" transform="translate(277.302734 0)"/>
    <use xlink:href="#DejaVuSans-Bold-39" transform="translate(346.882812 0)"/>
    <use xlink:href="#DejaVuSans-Bold-39" transform="translate(416.462891 0)"/>
    <use xlink:href="#DejaVuSans-Bold-39" transform="translate(486.042969 0)"/>
   </g>
  </g>
 </g>
 <defs>
  <clipPath id="p9ebf535d0f">
   <rect x="54.84875" y="43.2" width="390.6" height="277.2"/>
  </clipPath>
 </defs>
</svg>
