<?xml version="1.0" encoding="utf-8" standalone="no"?>
<!DOCTYPE svg PUBLIC "-//W3C//DTD SVG 1.1//EN"
  "http://www.w3.org/Graphics/SVG/1.1/DTD/svg11.dtd">
<svg xmlns:xlink="http://www.w3.org/1999/xlink" width="613.307125pt" height="683.737812pt" viewBox="0 0 613.307125 683.737812" xmlns="http://www.w3.org/2000/svg" version="1.1">
 <metadata>
  <rdf:RDF xmlns:dc="http://purl.org/dc/elements/1.1/" xmlns:cc="http://creativecommons.org/ns#" xmlns:rdf="http://www.w3.org/1999/02/22-rdf-syntax-ns#">
   <cc:Work>
    <dc:type rdf:resource="http://purl.org/dc/dcmitype/StillImage"/>
    <dc:date>2025-09-10T11:19:58.138629</dc:date>
    <dc:format>image/svg+xml</dc:format>
    <dc:creator>
     <cc:Agent>
      <dc:title>Matplotlib v3.10.6, https://matplotlib.org/</dc:title>
     </cc:Agent>
    </dc:creator>
   </cc:Work>
  </rdf:RDF>
 </metadata>
 <defs>
  <style type="text/css">*{stroke-linejoin: round; stroke-linecap: butt}</style>
 </defs>
 <g id="figure_1">
  <g id="patch_1">
   <path d="M 0 683.737812 
L 613.307125 683.737812 
L 613.307125 0 
L 0 0 
z
" style="fill: #ffffff"/>
  </g>
  <g id="axes_1">
   <g id="patch_2">
    <path d="M 59.615938 320.243478 
L 450.215937 320.243478 
L 450.215937 79.2 
L 59.615938 79.2 
z
" style="fill: #ffffff"/>
   </g>
   <g id="matplotlib.axis_1">
    <g id="xtick_1">
     <g id="line2d_1">
      <defs>
       <path id="m7673d0496a" d="M 0 0 
L 0 3.5 
" style="stroke: #000000; stroke-width: 0.8"/>
      </defs>
      <g>
       <use xlink:href="#m7673d0496a" x="77.370483" y="320.243478" style="stroke: #000000; stroke-width: 0.8"/>
      </g>
     </g>
     <g id="text_1">
      <!-- 0 -->
      <g transform="translate(72.598608 338.641135) scale(0.15 -0.15)">
       <defs>
        <path id="DejaVuSans-30" d="M 2034 4250 
Q 1547 4250 1301 3770 
Q 1056 3291 1056 2328 
Q 1056 1369 1301 889 
Q 1547 409 2034 409 
Q 2525 409 2770 889 
Q 3016 1369 3016 2328 
Q 3016 3291 2770 3770 
Q 2525 4250 2034 4250 
z
M 2034 4750 
Q 2819 4750 3233 4129 
Q 3647 3509 3647 2328 
Q 3647 1150 3233 529 
Q 2819 -91 2034 -91 
Q 1250 -91 836 529 
Q 422 1150 422 2328 
Q 422 3509 836 4129 
Q 1250 4750 2034 4750 
z
" transform="scale(0.015625)"/>
       </defs>
       <use xlink:href="#DejaVuSans-30"/>
      </g>
     </g>
    </g>
    <g id="xtick_2">
     <g id="line2d_2">
      <g>
       <use xlink:href="#m7673d0496a" x="136.552301" y="320.243478" style="stroke: #000000; stroke-width: 0.8"/>
      </g>
     </g>
     <g id="text_2">
      <!-- 25 -->
      <g transform="translate(127.008551 338.641135) scale(0.15 -0.15)">
       <defs>
        <path id="DejaVuSans-32" d="M 1228 531 
L 3431 531 
L 3431 0 
L 469 0 
L 469 531 
Q 828 903 1448 1529 
Q 2069 2156 2228 2338 
Q 2531 2678 2651 2914 
Q 2772 3150 2772 3378 
Q 2772 3750 2511 3984 
Q 2250 4219 1831 4219 
Q 1534 4219 1204 4116 
Q 875 4013 500 3803 
L 500 4441 
Q 881 4594 1212 4672 
Q 1544 4750 1819 4750 
Q 2544 4750 2975 4387 
Q 3406 4025 3406 3419 
Q 3406 3131 3298 2873 
Q 3191 2616 2906 2266 
Q 2828 2175 2409 1742 
Q 1991 1309 1228 531 
z
" transform="scale(0.015625)"/>
        <path id="DejaVuSans-35" d="M 691 4666 
L 3169 4666 
L 3169 4134 
L 1269 4134 
L 1269 2991 
Q 1406 3038 1543 3061 
Q 1681 3084 1819 3084 
Q 2600 3084 3056 2656 
Q 3513 2228 3513 1497 
Q 3513 744 3044 326 
Q 2575 -91 1722 -91 
Q 1428 -91 1123 -41 
Q 819 9 494 109 
L 494 744 
Q 775 591 1075 516 
Q 1375 441 1709 441 
Q 2250 441 2565 725 
Q 2881 1009 2881 1497 
Q 2881 1984 2565 2268 
Q 2250 2553 1709 2553 
Q 1456 2553 1204 2497 
Q 953 2441 691 2322 
L 691 4666 
z
" transform="scale(0.015625)"/>
       </defs>
       <use xlink:href="#DejaVuSans-32"/>
       <use xlink:href="#DejaVuSans-35" transform="translate(63.623047 0)"/>
      </g>
     </g>
    </g>
    <g id="xtick_3">
     <g id="line2d_3">
      <g>
       <use xlink:href="#m7673d0496a" x="195.734119" y="320.243478" style="stroke: #000000; stroke-width: 0.8"/>
      </g>
     </g>
     <g id="text_3">
      <!-- 50 -->
      <g transform="translate(186.190369 338.641135) scale(0.15 -0.15)">
       <use xlink:href="#DejaVuSans-35"/>
       <use xlink:href="#DejaVuSans-30" transform="translate(63.623047 0)"/>
      </g>
     </g>
    </g>
    <g id="xtick_4">
     <g id="line2d_4">
      <g>
       <use xlink:href="#m7673d0496a" x="254.915937" y="320.243478" style="stroke: #000000; stroke-width: 0.8"/>
      </g>
     </g>
     <g id="text_4">
      <!-- 75 -->
      <g transform="translate(245.372187 338.641135) scale(0.15 -0.15)">
       <defs>
        <path id="DejaVuSans-37" d="M 525 4666 
L 3525 4666 
L 3525 4397 
L 1831 0 
L 1172 0 
L 2766 4134 
L 525 4134 
L 525 4666 
z
" transform="scale(0.015625)"/>
       </defs>
       <use xlink:href="#DejaVuSans-37"/>
       <use xlink:href="#DejaVuSans-35" transform="translate(63.623047 0)"/>
      </g>
     </g>
    </g>
    <g id="xtick_5">
     <g id="line2d_5">
      <g>
       <use xlink:href="#m7673d0496a" x="314.097756" y="320.243478" style="stroke: #000000; stroke-width: 0.8"/>
      </g>
     </g>
     <g id="text_5">
      <!-- 100 -->
      <g transform="translate(299.782131 338.641135) scale(0.15 -0.15)">
       <defs>
        <path id="DejaVuSans-31" d="M 794 531 
L 1825 531 
L 1825 4091 
L 703 3866 
L 703 4441 
L 1819 4666 
L 2450 4666 
L 2450 531 
L 3481 531 
L 3481 0 
L 794 0 
L 794 531 
z
" transform="scale(0.015625)"/>
       </defs>
       <use xlink:href="#DejaVuSans-31"/>
       <use xlink:href="#DejaVuSans-30" transform="translate(63.623047 0)"/>
       <use xlink:href="#DejaVuSans-30" transform="translate(127.246094 0)"/>
      </g>
     </g>
    </g>
    <g id="xtick_6">
     <g id="line2d_6">
      <g>
       <use xlink:href="#m7673d0496a" x="373.279574" y="320.243478" style="stroke: #000000; stroke-width: 0.8"/>
      </g>
     </g>
     <g id="text_6">
      <!-- 125 -->
      <g transform="translate(358.963949 338.641135) scale(0.15 -0.15)">
       <use xlink:href="#DejaVuSans-31"/>
       <use xlink:href="#DejaVuSans-32" transform="translate(63.623047 0)"/>
       <use xlink:href="#DejaVuSans-35" transform="translate(127.246094 0)"/>
      </g>
     </g>
    </g>
    <g id="xtick_7">
     <g id="line2d_7">
      <g>
       <use xlink:href="#m7673d0496a" x="432.461392" y="320.243478" style="stroke: #000000; stroke-width: 0.8"/>
      </g>
     </g>
     <g id="text_7">
      <!-- 150 -->
      <g transform="translate(418.145767 338.641135) scale(0.15 -0.15)">
       <use xlink:href="#DejaVuSans-31"/>
       <use xlink:href="#DejaVuSans-35" transform="translate(63.623047 0)"/>
       <use xlink:href="#DejaVuSans-30" transform="translate(127.246094 0)"/>
      </g>
     </g>
    </g>
    <g id="text_8">
     <!-- time [hr] -->
     <g transform="translate(209.841406 359.437853) scale(0.18 -0.18)">
      <defs>
       <path id="DejaVuSans-Bold-74" d="M 1759 4494 
L 1759 3500 
L 2913 3500 
L 2913 2700 
L 1759 2700 
L 1759 1216 
Q 1759 972 1856 886 
Q 1953 800 2241 800 
L 2816 800 
L 2816 0 
L 1856 0 
Q 1194 0 917 276 
Q 641 553 641 1216 
L 641 2700 
L 84 2700 
L 84 3500 
L 641 3500 
L 641 4494 
L 1759 4494 
z
" transform="scale(0.015625)"/>
       <path id="DejaVuSans-Bold-69" d="M 538 3500 
L 1656 3500 
L 1656 0 
L 538 0 
L 538 3500 
z
M 538 4863 
L 1656 4863 
L 1656 3950 
L 538 3950 
L 538 4863 
z
" transform="scale(0.015625)"/>
       <path id="DejaVuSans-Bold-6d" d="M 3781 2919 
Q 3994 3244 4286 3414 
Q 4578 3584 4928 3584 
Q 5531 3584 5847 3212 
Q 6163 2841 6163 2131 
L 6163 0 
L 5038 0 
L 5038 1825 
Q 5041 1866 5042 1909 
Q 5044 1953 5044 2034 
Q 5044 2406 4934 2573 
Q 4825 2741 4581 2741 
Q 4263 2741 4089 2478 
Q 3916 2216 3909 1719 
L 3909 0 
L 2784 0 
L 2784 1825 
Q 2784 2406 2684 2573 
Q 2584 2741 2328 2741 
Q 2006 2741 1831 2477 
Q 1656 2213 1656 1722 
L 1656 0 
L 531 0 
L 531 3500 
L 1656 3500 
L 1656 2988 
Q 1863 3284 2130 3434 
Q 2397 3584 2719 3584 
Q 3081 3584 3359 3409 
Q 3638 3234 3781 2919 
z
" transform="scale(0.015625)"/>
       <path id="DejaVuSans-Bold-65" d="M 4031 1759 
L 4031 1441 
L 1416 1441 
Q 1456 1047 1700 850 
Q 1944 653 2381 653 
Q 2734 653 3104 758 
Q 3475 863 3866 1075 
L 3866 213 
Q 3469 63 3072 -14 
Q 2675 -91 2278 -91 
Q 1328 -91 801 392 
Q 275 875 275 1747 
Q 275 2603 792 3093 
Q 1309 3584 2216 3584 
Q 3041 3584 3536 3087 
Q 4031 2591 4031 1759 
z
M 2881 2131 
Q 2881 2450 2695 2645 
Q 2509 2841 2209 2841 
Q 1884 2841 1681 2658 
Q 1478 2475 1428 2131 
L 2881 2131 
z
" transform="scale(0.015625)"/>
       <path id="DejaVuSans-Bold-20" transform="scale(0.015625)"/>
       <path id="DejaVuSans-Bold-5b" d="M 550 4863 
L 2491 4863 
L 2491 4159 
L 1613 4159 
L 1613 -141 
L 2491 -141 
L 2491 -844 
L 550 -844 
L 550 4863 
z
" transform="scale(0.015625)"/>
       <path id="DejaVuSans-Bold-68" d="M 4056 2131 
L 4056 0 
L 2931 0 
L 2931 347 
L 2931 1625 
Q 2931 2084 2911 2256 
Q 2891 2428 2841 2509 
Q 2775 2619 2662 2680 
Q 2550 2741 2406 2741 
Q 2056 2741 1856 2470 
Q 1656 2200 1656 1722 
L 1656 0 
L 538 0 
L 538 4863 
L 1656 4863 
L 1656 2988 
Q 1909 3294 2193 3439 
Q 2478 3584 2822 3584 
Q 3428 3584 3742 3212 
Q 4056 2841 4056 2131 
z
" transform="scale(0.015625)"/>
       <path id="DejaVuSans-Bold-72" d="M 3138 2547 
Q 2991 2616 2845 2648 
Q 2700 2681 2553 2681 
Q 2122 2681 1889 2404 
Q 1656 2128 1656 1613 
L 1656 0 
L 538 0 
L 538 3500 
L 1656 3500 
L 1656 2925 
Q 1872 3269 2151 3426 
Q 2431 3584 2822 3584 
Q 2878 3584 2943 3579 
Q 3009 3575 3134 3559 
L 3138 2547 
z
" transform="scale(0.015625)"/>
       <path id="DejaVuSans-Bold-5d" d="M 2375 -844 
L 434 -844 
L 434 -141 
L 1313 -141 
L 1313 4159 
L 434 4159 
L 434 4863 
L 2375 4863 
L 2375 -844 
z
" transform="scale(0.015625)"/>
      </defs>
      <use xlink:href="#DejaVuSans-Bold-74"/>
      <use xlink:href="#DejaVuSans-Bold-69" transform="translate(47.802734 0)"/>
      <use xlink:href="#DejaVuSans-Bold-6d" transform="translate(82.080078 0)"/>
      <use xlink:href="#DejaVuSans-Bold-65" transform="translate(186.279297 0)"/>
      <use xlink:href="#DejaVuSans-Bold-20" transform="translate(254.101562 0)"/>
      <use xlink:href="#DejaVuSans-Bold-5b" transform="translate(288.916016 0)"/>
      <use xlink:href="#DejaVuSans-Bold-68" transform="translate(334.619141 0)"/>
      <use xlink:href="#DejaVuSans-Bold-72" transform="translate(405.810547 0)"/>
      <use xlink:href="#DejaVuSans-Bold-5d" transform="translate(455.126953 0)"/>
     </g>
    </g>
   </g>
   <g id="matplotlib.axis_2">
    <g id="ytick_1">
     <g id="line2d_8">
      <defs>
       <path id="m59dd913f3f" d="M 0 0 
L -3.5 0 
" style="stroke: #000000; stroke-width: 0.8"/>
      </defs>
      <g>
       <use xlink:href="#m59dd913f3f" x="59.615938" y="309.286957" style="stroke: #000000; stroke-width: 0.8"/>
      </g>
     </g>
     <g id="text_9">
      <!-- 0.0 -->
      <g transform="translate(28.76125 314.985785) scale(0.15 -0.15)">
       <defs>
        <path id="DejaVuSans-2e" d="M 684 794 
L 1344 794 
L 1344 0 
L 684 0 
L 684 794 
z
" transform="scale(0.015625)"/>
       </defs>
       <use xlink:href="#DejaVuSans-30"/>
       <use xlink:href="#DejaVuSans-2e" transform="translate(63.623047 0)"/>
       <use xlink:href="#DejaVuSans-30" transform="translate(95.410156 0)"/>
      </g>
     </g>
    </g>
    <g id="ytick_2">
     <g id="line2d_9">
      <g>
       <use xlink:href="#m59dd913f3f" x="59.615938" y="275.569485" style="stroke: #000000; stroke-width: 0.8"/>
      </g>
     </g>
     <g id="text_10">
      <!-- 0.5 -->
      <g transform="translate(28.76125 281.268314) scale(0.15 -0.15)">
       <use xlink:href="#DejaVuSans-30"/>
       <use xlink:href="#DejaVuSans-2e" transform="translate(63.623047 0)"/>
       <use xlink:href="#DejaVuSans-35" transform="translate(95.410156 0)"/>
      </g>
     </g>
    </g>
    <g id="ytick_3">
     <g id="line2d_10">
      <g>
       <use xlink:href="#m59dd913f3f" x="59.615938" y="241.852014" style="stroke: #000000; stroke-width: 0.8"/>
      </g>
     </g>
     <g id="text_11">
      <!-- 1.0 -->
      <g transform="translate(28.76125 247.550843) scale(0.15 -0.15)">
       <use xlink:href="#DejaVuSans-31"/>
       <use xlink:href="#DejaVuSans-2e" transform="translate(63.623047 0)"/>
       <use xlink:href="#DejaVuSans-30" transform="translate(95.410156 0)"/>
      </g>
     </g>
    </g>
    <g id="ytick_4">
     <g id="line2d_11">
      <g>
       <use xlink:href="#m59dd913f3f" x="59.615938" y="208.134543" style="stroke: #000000; stroke-width: 0.8"/>
      </g>
     </g>
     <g id="text_12">
      <!-- 1.5 -->
      <g transform="translate(28.76125 213.833372) scale(0.15 -0.15)">
       <use xlink:href="#DejaVuSans-31"/>
       <use xlink:href="#DejaVuSans-2e" transform="translate(63.623047 0)"/>
       <use xlink:href="#DejaVuSans-35" transform="translate(95.410156 0)"/>
      </g>
     </g>
    </g>
    <g id="ytick_5">
     <g id="line2d_12">
      <g>
       <use xlink:href="#m59dd913f3f" x="59.615938" y="174.417072" style="stroke: #000000; stroke-width: 0.8"/>
      </g>
     </g>
     <g id="text_13">
      <!-- 2.0 -->
      <g transform="translate(28.76125 180.1159) scale(0.15 -0.15)">
       <use xlink:href="#DejaVuSans-32"/>
       <use xlink:href="#DejaVuSans-2e" transform="translate(63.623047 0)"/>
       <use xlink:href="#DejaVuSans-30" transform="translate(95.410156 0)"/>
      </g>
     </g>
    </g>
    <g id="ytick_6">
     <g id="line2d_13">
      <g>
       <use xlink:href="#m59dd913f3f" x="59.615938" y="140.699601" style="stroke: #000000; stroke-width: 0.8"/>
      </g>
     </g>
     <g id="text_14">
      <!-- 2.5 -->
      <g transform="translate(28.76125 146.398429) scale(0.15 -0.15)">
       <use xlink:href="#DejaVuSans-32"/>
       <use xlink:href="#DejaVuSans-2e" transform="translate(63.623047 0)"/>
       <use xlink:href="#DejaVuSans-35" transform="translate(95.410156 0)"/>
      </g>
     </g>
    </g>
    <g id="ytick_7">
     <g id="line2d_14">
      <g>
       <use xlink:href="#m59dd913f3f" x="59.615938" y="106.98213" style="stroke: #000000; stroke-width: 0.8"/>
      </g>
     </g>
     <g id="text_15">
      <!-- 3.0 -->
      <g transform="translate(28.76125 112.680958) scale(0.15 -0.15)">
       <defs>
        <path id="DejaVuSans-33" d="M 2597 2516 
Q 3050 2419 3304 2112 
Q 3559 1806 3559 1356 
Q 3559 666 3084 287 
Q 2609 -91 1734 -91 
Q 1441 -91 1130 -33 
Q 819 25 488 141 
L 488 750 
Q 750 597 1062 519 
Q 1375 441 1716 441 
Q 2309 441 2620 675 
Q 2931 909 2931 1356 
Q 2931 1769 2642 2001 
Q 2353 2234 1838 2234 
L 1294 2234 
L 1294 2753 
L 1863 2753 
Q 2328 2753 2575 2939 
Q 2822 3125 2822 3475 
Q 2822 3834 2567 4026 
Q 2313 4219 1838 4219 
Q 1578 4219 1281 4162 
Q 984 4106 628 3988 
L 628 4550 
Q 988 4650 1302 4700 
Q 1616 4750 1894 4750 
Q 2613 4750 3031 4423 
Q 3450 4097 3450 3541 
Q 3450 3153 3228 2886 
Q 3006 2619 2597 2516 
z
" transform="scale(0.015625)"/>
       </defs>
       <use xlink:href="#DejaVuSans-33"/>
       <use xlink:href="#DejaVuSans-2e" transform="translate(63.623047 0)"/>
       <use xlink:href="#DejaVuSans-30" transform="translate(95.410156 0)"/>
      </g>
     </g>
    </g>
    <g id="text_16">
     <!-- rapamycin [µM] -->
     <g transform="translate(20.877187 279.759864) rotate(-90) scale(0.18 -0.18)">
      <defs>
       <path id="DejaVuSans-Bold-61" d="M 2106 1575 
Q 1756 1575 1579 1456 
Q 1403 1338 1403 1106 
Q 1403 894 1545 773 
Q 1688 653 1941 653 
Q 2256 653 2472 879 
Q 2688 1106 2688 1447 
L 2688 1575 
L 2106 1575 
z
M 3816 1997 
L 3816 0 
L 2688 0 
L 2688 519 
Q 2463 200 2181 54 
Q 1900 -91 1497 -91 
Q 953 -91 614 226 
Q 275 544 275 1050 
Q 275 1666 698 1953 
Q 1122 2241 2028 2241 
L 2688 2241 
L 2688 2328 
Q 2688 2594 2478 2717 
Q 2269 2841 1825 2841 
Q 1466 2841 1156 2769 
Q 847 2697 581 2553 
L 581 3406 
Q 941 3494 1303 3539 
Q 1666 3584 2028 3584 
Q 2975 3584 3395 3211 
Q 3816 2838 3816 1997 
z
" transform="scale(0.015625)"/>
       <path id="DejaVuSans-Bold-70" d="M 1656 506 
L 1656 -1331 
L 538 -1331 
L 538 3500 
L 1656 3500 
L 1656 2988 
Q 1888 3294 2169 3439 
Q 2450 3584 2816 3584 
Q 3463 3584 3878 3070 
Q 4294 2556 4294 1747 
Q 4294 938 3878 423 
Q 3463 -91 2816 -91 
Q 2450 -91 2169 54 
Q 1888 200 1656 506 
z
M 2400 2772 
Q 2041 2772 1848 2508 
Q 1656 2244 1656 1747 
Q 1656 1250 1848 986 
Q 2041 722 2400 722 
Q 2759 722 2948 984 
Q 3138 1247 3138 1747 
Q 3138 2247 2948 2509 
Q 2759 2772 2400 2772 
z
" transform="scale(0.015625)"/>
       <path id="DejaVuSans-Bold-79" d="M 78 3500 
L 1197 3500 
L 2138 1125 
L 2938 3500 
L 4056 3500 
L 2584 -331 
Q 2363 -916 2067 -1148 
Q 1772 -1381 1288 -1381 
L 641 -1381 
L 641 -647 
L 991 -647 
Q 1275 -647 1404 -556 
Q 1534 -466 1606 -231 
L 1638 -134 
L 78 3500 
z
" transform="scale(0.015625)"/>
       <path id="DejaVuSans-Bold-63" d="M 3366 3391 
L 3366 2478 
Q 3138 2634 2908 2709 
Q 2678 2784 2431 2784 
Q 1963 2784 1702 2511 
Q 1441 2238 1441 1747 
Q 1441 1256 1702 982 
Q 1963 709 2431 709 
Q 2694 709 2930 787 
Q 3166 866 3366 1019 
L 3366 103 
Q 3103 6 2833 -42 
Q 2563 -91 2291 -91 
Q 1344 -91 809 395 
Q 275 881 275 1747 
Q 275 2613 809 3098 
Q 1344 3584 2291 3584 
Q 2566 3584 2833 3536 
Q 3100 3488 3366 3391 
z
" transform="scale(0.015625)"/>
       <path id="DejaVuSans-Bold-6e" d="M 4056 2131 
L 4056 0 
L 2931 0 
L 2931 347 
L 2931 1631 
Q 2931 2084 2911 2256 
Q 2891 2428 2841 2509 
Q 2775 2619 2662 2680 
Q 2550 2741 2406 2741 
Q 2056 2741 1856 2470 
Q 1656 2200 1656 1722 
L 1656 0 
L 538 0 
L 538 3500 
L 1656 3500 
L 1656 2988 
Q 1909 3294 2193 3439 
Q 2478 3584 2822 3584 
Q 3428 3584 3742 3212 
Q 4056 2841 4056 2131 
z
" transform="scale(0.015625)"/>
       <path id="DejaVuSans-Bold-b5" d="M 544 -1338 
L 544 3500 
L 1672 3500 
L 1672 1466 
Q 1672 1103 1828 926 
Q 1984 750 2303 750 
Q 2625 750 2781 926 
Q 2938 1103 2938 1466 
L 2938 3500 
L 4063 3500 
L 4063 1159 
Q 4063 938 4114 850 
Q 4166 763 4288 763 
Q 4344 763 4395 778 
Q 4447 794 4506 831 
L 4506 50 
Q 4341 -22 4195 -56 
Q 4050 -91 3909 -91 
Q 3631 -91 3454 26 
Q 3278 144 3169 403 
Q 3022 156 2811 32 
Q 2600 -91 2322 -91 
Q 2091 -91 1928 -17 
Q 1766 56 1672 206 
L 1672 -1338 
L 544 -1338 
z
" transform="scale(0.015625)"/>
       <path id="DejaVuSans-Bold-4d" d="M 588 4666 
L 2119 4666 
L 3181 2169 
L 4250 4666 
L 5778 4666 
L 5778 0 
L 4641 0 
L 4641 3413 
L 3566 897 
L 2803 897 
L 1728 3413 
L 1728 0 
L 588 0 
L 588 4666 
z
" transform="scale(0.015625)"/>
      </defs>
      <use xlink:href="#DejaVuSans-Bold-72"/>
      <use xlink:href="#DejaVuSans-Bold-61" transform="translate(49.316406 0)"/>
      <use xlink:href="#DejaVuSans-Bold-70" transform="translate(116.796875 0)"/>
      <use xlink:href="#DejaVuSans-Bold-61" transform="translate(188.378906 0)"/>
      <use xlink:href="#DejaVuSans-Bold-6d" transform="translate(255.859375 0)"/>
      <use xlink:href="#DejaVuSans-Bold-79" transform="translate(360.058594 0)"/>
      <use xlink:href="#DejaVuSans-Bold-63" transform="translate(425.244141 0)"/>
      <use xlink:href="#DejaVuSans-Bold-69" transform="translate(484.521484 0)"/>
      <use xlink:href="#DejaVuSans-Bold-6e" transform="translate(518.798828 0)"/>
      <use xlink:href="#DejaVuSans-Bold-20" transform="translate(589.990234 0)"/>
      <use xlink:href="#DejaVuSans-Bold-5b" transform="translate(624.804688 0)"/>
      <use xlink:href="#DejaVuSans-Bold-b5" transform="translate(670.507812 0)"/>
      <use xlink:href="#DejaVuSans-Bold-4d" transform="translate(744.091797 0)"/>
      <use xlink:href="#DejaVuSans-Bold-5d" transform="translate(843.603516 0)"/>
     </g>
    </g>
   </g>
   <g id="LineCollection_1">
    <path d="M 77.370483 308.966205 
L 77.370483 308.78352 
" clip-path="url(#pbe5426570f)" style="fill: none; stroke: #000000"/>
    <path d="M 78.554119 308.908135 
L 78.554119 308.703306 
" clip-path="url(#pbe5426570f)" style="fill: none; stroke: #000000"/>
    <path d="M 79.737756 308.783629 
L 79.737756 308.562192 
" clip-path="url(#pbe5426570f)" style="fill: none; stroke: #000000"/>
    <path d="M 80.921392 308.681272 
L 80.921392 308.448763 
" clip-path="url(#pbe5426570f)" style="fill: none; stroke: #000000"/>
    <path d="M 82.105028 308.631505 
L 82.105028 308.410068 
" clip-path="url(#pbe5426570f)" style="fill: none; stroke: #000000"/>
    <path d="M 83.288665 308.603878 
L 83.288665 308.371369 
" clip-path="url(#pbe5426570f)" style="fill: none; stroke: #000000"/>
    <path d="M 84.472301 308.570719 
L 84.472301 308.2441 
" clip-path="url(#pbe5426570f)" style="fill: none; stroke: #000000"/>
    <path d="M 86.839574 308.592972 
L 86.839574 308.122419 
" clip-path="url(#pbe5426570f)" style="fill: none; stroke: #000000"/>
    <path d="M 89.206847 308.642909 
L 89.206847 308.249859 
" clip-path="url(#pbe5426570f)" style="fill: none; stroke: #000000"/>
    <path d="M 91.574119 308.68177 
L 91.574119 308.321935 
" clip-path="url(#pbe5426570f)" style="fill: none; stroke: #000000"/>
    <path d="M 96.308665 308.784408 
L 96.308665 308.496531 
" clip-path="url(#pbe5426570f)" style="fill: none; stroke: #000000"/>
    <path d="M 105.777756 308.884496 
L 105.777756 308.657523 
" clip-path="url(#pbe5426570f)" style="fill: none; stroke: #000000"/>
    <path d="M 134.185028 308.968864 
L 134.185028 308.780643 
" clip-path="url(#pbe5426570f)" style="fill: none; stroke: #000000"/>
   </g>
   <g id="LineCollection_2">
    <path d="M 77.370483 309.018797 
L 77.370483 308.598067 
" clip-path="url(#pbe5426570f)" style="fill: none; stroke: #d62728"/>
    <path d="M 78.554119 308.949655 
L 78.554119 308.517853 
" clip-path="url(#pbe5426570f)" style="fill: none; stroke: #d62728"/>
    <path d="M 79.737756 308.866668 
L 79.737756 308.246645 
" clip-path="url(#pbe5426570f)" style="fill: none; stroke: #d62728"/>
    <path d="M 80.921392 308.797526 
L 80.921392 308.07232 
" clip-path="url(#pbe5426570f)" style="fill: none; stroke: #d62728"/>
    <path d="M 82.105028 308.714544 
L 82.105028 307.911835 
" clip-path="url(#pbe5426570f)" style="fill: none; stroke: #d62728"/>
    <path d="M 83.288665 308.70352 
L 83.288665 307.9285 
" clip-path="url(#pbe5426570f)" style="fill: none; stroke: #d62728"/>
    <path d="M 84.472301 308.703581 
L 84.472301 307.917481 
" clip-path="url(#pbe5426570f)" style="fill: none; stroke: #d62728"/>
    <path d="M 86.839574 308.734138 
L 86.839574 307.936966 
" clip-path="url(#pbe5426570f)" style="fill: none; stroke: #d62728"/>
    <path d="M 89.206847 308.784075 
L 89.206847 307.986903 
" clip-path="url(#pbe5426570f)" style="fill: none; stroke: #d62728"/>
    <path d="M 91.574119 308.825704 
L 91.574119 308.122642 
" clip-path="url(#pbe5426570f)" style="fill: none; stroke: #d62728"/>
    <path d="M 96.308665 308.884054 
L 96.308665 308.275103 
" clip-path="url(#pbe5426570f)" style="fill: none; stroke: #d62728"/>
    <path d="M 105.777756 308.950927 
L 105.777756 308.380727 
" clip-path="url(#pbe5426570f)" style="fill: none; stroke: #d62728"/>
    <path d="M 134.185028 309.018683 
L 134.185028 308.553674 
" clip-path="url(#pbe5426570f)" style="fill: none; stroke: #d62728"/>
   </g>
   <g id="line2d_15">
    <path d="M 77.370483 309.286957 
L 77.548028 286.645913 
L 78.080665 132.752261 
L 78.435756 93.200797 
L 78.613301 90.156522 
L 78.790847 94.532385 
L 79.145938 116.308763 
L 80.388756 207.959039 
L 80.921392 233.309209 
L 81.454028 250.562454 
L 81.986665 261.956926 
L 82.519301 269.367082 
L 83.051937 274.149435 
L 83.584574 277.22592 
L 84.11721 279.204248 
L 84.649847 280.478775 
L 85.182483 281.303306 
L 85.892665 281.974891 
L 86.780392 282.431076 
L 87.845665 282.707832 
L 89.798665 282.939729 
L 95.83521 283.31376 
L 137.735937 285.592993 
L 182.654938 287.814738 
L 229.882028 289.926484 
L 279.772301 291.932277 
L 332.503301 293.82695 
L 388.252574 295.6057 
L 432.461392 296.869605 
L 432.461392 296.869605 
" clip-path="url(#pbe5426570f)" style="fill: none; stroke: #000000; stroke-width: 2; stroke-linecap: square"/>
   </g>
   <g id="line2d_16">
    <path d="M 77.370483 308.874863 
L 78.554119 308.805721 
L 79.737756 308.672911 
L 80.921392 308.565017 
L 82.105028 308.520787 
L 83.288665 308.487624 
L 84.472301 308.40741 
L 86.839574 308.357696 
L 89.206847 308.446384 
L 91.574119 308.501853 
L 96.308665 308.640469 
L 105.777756 308.77101 
L 134.185028 308.874753 
" clip-path="url(#pbe5426570f)" style="fill: none; stroke-dasharray: 3.7,1.6; stroke-dashoffset: 0; stroke: #000000"/>
    <defs>
     <path id="m9d27a71ea2" d="M -3 3 
L 3 3 
L 3 -3 
L -3 -3 
z
" style="stroke: #000000; stroke-linejoin: miter"/>
    </defs>
    <g clip-path="url(#pbe5426570f)">
     <use xlink:href="#m9d27a71ea2" x="77.370483" y="308.874863" style="stroke: #000000; stroke-linejoin: miter"/>
     <use xlink:href="#m9d27a71ea2" x="78.554119" y="308.805721" style="stroke: #000000; stroke-linejoin: miter"/>
     <use xlink:href="#m9d27a71ea2" x="79.737756" y="308.672911" style="stroke: #000000; stroke-linejoin: miter"/>
     <use xlink:href="#m9d27a71ea2" x="80.921392" y="308.565017" style="stroke: #000000; stroke-linejoin: miter"/>
     <use xlink:href="#m9d27a71ea2" x="82.105028" y="308.520787" style="stroke: #000000; stroke-linejoin: miter"/>
     <use xlink:href="#m9d27a71ea2" x="83.288665" y="308.487624" style="stroke: #000000; stroke-linejoin: miter"/>
     <use xlink:href="#m9d27a71ea2" x="84.472301" y="308.40741" style="stroke: #000000; stroke-linejoin: miter"/>
     <use xlink:href="#m9d27a71ea2" x="86.839574" y="308.357696" style="stroke: #000000; stroke-linejoin: miter"/>
     <use xlink:href="#m9d27a71ea2" x="89.206847" y="308.446384" style="stroke: #000000; stroke-linejoin: miter"/>
     <use xlink:href="#m9d27a71ea2" x="91.574119" y="308.501853" style="stroke: #000000; stroke-linejoin: miter"/>
     <use xlink:href="#m9d27a71ea2" x="96.308665" y="308.640469" style="stroke: #000000; stroke-linejoin: miter"/>
     <use xlink:href="#m9d27a71ea2" x="105.777756" y="308.77101" style="stroke: #000000; stroke-linejoin: miter"/>
     <use xlink:href="#m9d27a71ea2" x="134.185028" y="308.874753" style="stroke: #000000; stroke-linejoin: miter"/>
    </g>
   </g>
   <g id="line2d_17">
    <path d="M 77.370483 309.286957 
L 77.548028 286.645913 
L 78.080665 132.752261 
L 78.435756 93.200797 
L 78.613301 90.156522 
L 78.790847 94.532385 
L 79.145938 116.308763 
L 80.388756 207.959039 
L 80.921392 233.309209 
L 81.454028 250.562454 
L 81.986665 261.956926 
L 82.519301 269.367082 
L 83.051937 274.149435 
L 83.584574 277.22592 
L 84.11721 279.204248 
L 84.649847 280.478775 
L 85.182483 281.303306 
L 85.892665 281.974891 
L 86.780392 282.431076 
L 87.845665 282.707832 
L 89.798665 282.939729 
L 95.83521 283.31376 
L 137.735937 285.592993 
L 182.654938 287.814738 
L 229.882028 289.926484 
L 279.772301 291.932277 
L 332.503301 293.82695 
L 388.252574 295.6057 
L 432.461392 296.869605 
L 432.461392 296.869605 
" clip-path="url(#pbe5426570f)" style="fill: none; stroke: #d62728; stroke-width: 2; stroke-linecap: square"/>
   </g>
   <g id="line2d_18">
    <path d="M 77.370483 308.808432 
L 78.554119 308.733754 
L 79.737756 308.556657 
L 80.921392 308.434923 
L 82.105028 308.31319 
L 83.288665 308.31601 
L 84.472301 308.310531 
L 86.839574 308.335552 
L 89.206847 308.385489 
L 91.574119 308.474173 
L 96.308665 308.579579 
L 105.777756 308.665827 
L 134.185028 308.786179 
" clip-path="url(#pbe5426570f)" style="fill: none; stroke-dasharray: 3.7,1.6; stroke-dashoffset: 0; stroke: #d62728"/>
    <defs>
     <path id="m9c4b820473" d="M -3 3 
L 3 3 
L 3 -3 
L -3 -3 
z
" style="stroke: #000000; stroke-linejoin: miter"/>
    </defs>
    <g clip-path="url(#pbe5426570f)">
     <use xlink:href="#m9c4b820473" x="77.370483" y="308.808432" style="fill: #d62728; stroke: #000000; stroke-linejoin: miter"/>
     <use xlink:href="#m9c4b820473" x="78.554119" y="308.733754" style="fill: #d62728; stroke: #000000; stroke-linejoin: miter"/>
     <use xlink:href="#m9c4b820473" x="79.737756" y="308.556657" style="fill: #d62728; stroke: #000000; stroke-linejoin: miter"/>
     <use xlink:href="#m9c4b820473" x="80.921392" y="308.434923" style="fill: #d62728; stroke: #000000; stroke-linejoin: miter"/>
     <use xlink:href="#m9c4b820473" x="82.105028" y="308.31319" style="fill: #d62728; stroke: #000000; stroke-linejoin: miter"/>
     <use xlink:href="#m9c4b820473" x="83.288665" y="308.31601" style="fill: #d62728; stroke: #000000; stroke-linejoin: miter"/>
     <use xlink:href="#m9c4b820473" x="84.472301" y="308.310531" style="fill: #d62728; stroke: #000000; stroke-linejoin: miter"/>
     <use xlink:href="#m9c4b820473" x="86.839574" y="308.335552" style="fill: #d62728; stroke: #000000; stroke-linejoin: miter"/>
     <use xlink:href="#m9c4b820473" x="89.206847" y="308.385489" style="fill: #d62728; stroke: #000000; stroke-linejoin: miter"/>
     <use xlink:href="#m9c4b820473" x="91.574119" y="308.474173" style="fill: #d62728; stroke: #000000; stroke-linejoin: miter"/>
     <use xlink:href="#m9c4b820473" x="96.308665" y="308.579579" style="fill: #d62728; stroke: #000000; stroke-linejoin: miter"/>
     <use xlink:href="#m9c4b820473" x="105.777756" y="308.665827" style="fill: #d62728; stroke: #000000; stroke-linejoin: miter"/>
     <use xlink:href="#m9c4b820473" x="134.185028" y="308.786179" style="fill: #d62728; stroke: #000000; stroke-linejoin: miter"/>
    </g>
   </g>
   <g id="patch_3">
    <path d="M 59.615938 320.243478 
L 59.615938 79.2 
" style="fill: none; stroke: #000000; stroke-width: 0.8; stroke-linejoin: miter; stroke-linecap: square"/>
   </g>
   <g id="patch_4">
    <path d="M 450.215937 320.243478 
L 450.215937 79.2 
" style="fill: none; stroke: #000000; stroke-width: 0.8; stroke-linejoin: miter; stroke-linecap: square"/>
   </g>
   <g id="patch_5">
    <path d="M 59.615938 320.243478 
L 450.215937 320.243478 
" style="fill: none; stroke: #000000; stroke-width: 0.8; stroke-linejoin: miter; stroke-linecap: square"/>
   </g>
   <g id="patch_6">
    <path d="M 59.615938 79.2 
L 450.215937 79.2 
" style="fill: none; stroke: #000000; stroke-width: 0.8; stroke-linejoin: miter; stroke-linecap: square"/>
   </g>
   <g id="legend_1">
    <g id="patch_7">
     <path d="M 472.839938 147.025 
L 604.107125 147.025 
Q 606.107125 147.025 606.107125 145.025 
L 606.107125 86.2 
Q 606.107125 84.2 604.107125 84.2 
L 472.839938 84.2 
Q 470.839938 84.2 470.839938 86.2 
L 470.839938 145.025 
Q 470.839938 147.025 472.839938 147.025 
z
" style="fill: #ffffff; opacity: 0.8; stroke: #cccccc; stroke-linejoin: miter"/>
    </g>
    <g id="line2d_19">
     <path d="M 474.839938 92.298437 
L 494.839938 92.298437 
" style="fill: none; stroke: #000000; stroke-width: 2; stroke-linecap: square"/>
    </g>
    <g id="line2d_20"/>
    <g id="text_17">
     <!-- RAP1_4 -->
     <g transform="translate(502.839938 95.798437) scale(0.1 -0.1)">
      <defs>
       <path id="DejaVuSans-52" d="M 2841 2188 
Q 3044 2119 3236 1894 
Q 3428 1669 3622 1275 
L 4263 0 
L 3584 0 
L 2988 1197 
Q 2756 1666 2539 1819 
Q 2322 1972 1947 1972 
L 1259 1972 
L 1259 0 
L 628 0 
L 628 4666 
L 2053 4666 
Q 2853 4666 3247 4331 
Q 3641 3997 3641 3322 
Q 3641 2881 3436 2590 
Q 3231 2300 2841 2188 
z
M 1259 4147 
L 1259 2491 
L 2053 2491 
Q 2509 2491 2742 2702 
Q 2975 2913 2975 3322 
Q 2975 3731 2742 3939 
Q 2509 4147 2053 4147 
L 1259 4147 
z
" transform="scale(0.015625)"/>
       <path id="DejaVuSans-41" d="M 2188 4044 
L 1331 1722 
L 3047 1722 
L 2188 4044 
z
M 1831 4666 
L 2547 4666 
L 4325 0 
L 3669 0 
L 3244 1197 
L 1141 1197 
L 716 0 
L 50 0 
L 1831 4666 
z
" transform="scale(0.015625)"/>
       <path id="DejaVuSans-50" d="M 1259 4147 
L 1259 2394 
L 2053 2394 
Q 2494 2394 2734 2622 
Q 2975 2850 2975 3272 
Q 2975 3691 2734 3919 
Q 2494 4147 2053 4147 
L 1259 4147 
z
M 628 4666 
L 2053 4666 
Q 2838 4666 3239 4311 
Q 3641 3956 3641 3272 
Q 3641 2581 3239 2228 
Q 2838 1875 2053 1875 
L 1259 1875 
L 1259 0 
L 628 0 
L 628 4666 
z
" transform="scale(0.015625)"/>
       <path id="DejaVuSans-5f" d="M 3263 -1063 
L 3263 -1509 
L -63 -1509 
L -63 -1063 
L 3263 -1063 
z
" transform="scale(0.015625)"/>
       <path id="DejaVuSans-34" d="M 2419 4116 
L 825 1625 
L 2419 1625 
L 2419 4116 
z
M 2253 4666 
L 3047 4666 
L 3047 1625 
L 3713 1625 
L 3713 1100 
L 3047 1100 
L 3047 0 
L 2419 0 
L 2419 1100 
L 313 1100 
L 313 1709 
L 2253 4666 
z
" transform="scale(0.015625)"/>
      </defs>
      <use xlink:href="#DejaVuSans-52"/>
      <use xlink:href="#DejaVuSans-41" transform="translate(65.482422 0)"/>
      <use xlink:href="#DejaVuSans-50" transform="translate(133.890625 0)"/>
      <use xlink:href="#DejaVuSans-31" transform="translate(194.193359 0)"/>
      <use xlink:href="#DejaVuSans-5f" transform="translate(257.816406 0)"/>
      <use xlink:href="#DejaVuSans-34" transform="translate(307.816406 0)"/>
     </g>
    </g>
    <g id="LineCollection_3">
     <path d="M 484.839938 112.254687 
L 484.839938 102.254687 
" style="fill: none; stroke: #000000"/>
    </g>
    <g id="line2d_21">
     <path d="M 474.839938 107.254687 
L 494.839938 107.254687 
" style="fill: none; stroke-dasharray: 3.7,1.6; stroke-dashoffset: 0; stroke: #000000"/>
    </g>
    <g id="line2d_22">
     <g>
      <use xlink:href="#m9d27a71ea2" x="484.839938" y="107.254687" style="stroke: #000000; stroke-linejoin: miter"/>
     </g>
    </g>
    <g id="text_18">
     <!-- RAP1_4±SD (n=15) -->
     <g transform="translate(502.839938 110.754687) scale(0.1 -0.1)">
      <defs>
       <path id="DejaVuSans-b1" d="M 2944 4013 
L 2944 2803 
L 4684 2803 
L 4684 2272 
L 2944 2272 
L 2944 1063 
L 2419 1063 
L 2419 2272 
L 678 2272 
L 678 2803 
L 2419 2803 
L 2419 4013 
L 2944 4013 
z
M 678 531 
L 4684 531 
L 4684 0 
L 678 0 
L 678 531 
z
" transform="scale(0.015625)"/>
       <path id="DejaVuSans-53" d="M 3425 4513 
L 3425 3897 
Q 3066 4069 2747 4153 
Q 2428 4238 2131 4238 
Q 1616 4238 1336 4038 
Q 1056 3838 1056 3469 
Q 1056 3159 1242 3001 
Q 1428 2844 1947 2747 
L 2328 2669 
Q 3034 2534 3370 2195 
Q 3706 1856 3706 1288 
Q 3706 609 3251 259 
Q 2797 -91 1919 -91 
Q 1588 -91 1214 -16 
Q 841 59 441 206 
L 441 856 
Q 825 641 1194 531 
Q 1563 422 1919 422 
Q 2459 422 2753 634 
Q 3047 847 3047 1241 
Q 3047 1584 2836 1778 
Q 2625 1972 2144 2069 
L 1759 2144 
Q 1053 2284 737 2584 
Q 422 2884 422 3419 
Q 422 4038 858 4394 
Q 1294 4750 2059 4750 
Q 2388 4750 2728 4690 
Q 3069 4631 3425 4513 
z
" transform="scale(0.015625)"/>
       <path id="DejaVuSans-44" d="M 1259 4147 
L 1259 519 
L 2022 519 
Q 2988 519 3436 956 
Q 3884 1394 3884 2338 
Q 3884 3275 3436 3711 
Q 2988 4147 2022 4147 
L 1259 4147 
z
M 628 4666 
L 1925 4666 
Q 3281 4666 3915 4102 
Q 4550 3538 4550 2338 
Q 4550 1131 3912 565 
Q 3275 0 1925 0 
L 628 0 
L 628 4666 
z
" transform="scale(0.015625)"/>
       <path id="DejaVuSans-20" transform="scale(0.015625)"/>
       <path id="DejaVuSans-28" d="M 1984 4856 
Q 1566 4138 1362 3434 
Q 1159 2731 1159 2009 
Q 1159 1288 1364 580 
Q 1569 -128 1984 -844 
L 1484 -844 
Q 1016 -109 783 600 
Q 550 1309 550 2009 
Q 550 2706 781 3412 
Q 1013 4119 1484 4856 
L 1984 4856 
z
" transform="scale(0.015625)"/>
       <path id="DejaVuSans-6e" d="M 3513 2113 
L 3513 0 
L 2938 0 
L 2938 2094 
Q 2938 2591 2744 2837 
Q 2550 3084 2163 3084 
Q 1697 3084 1428 2787 
Q 1159 2491 1159 1978 
L 1159 0 
L 581 0 
L 581 3500 
L 1159 3500 
L 1159 2956 
Q 1366 3272 1645 3428 
Q 1925 3584 2291 3584 
Q 2894 3584 3203 3211 
Q 3513 2838 3513 2113 
z
" transform="scale(0.015625)"/>
       <path id="DejaVuSans-3d" d="M 678 2906 
L 4684 2906 
L 4684 2381 
L 678 2381 
L 678 2906 
z
M 678 1631 
L 4684 1631 
L 4684 1100 
L 678 1100 
L 678 1631 
z
" transform="scale(0.015625)"/>
       <path id="DejaVuSans-29" d="M 513 4856 
L 1013 4856 
Q 1481 4119 1714 3412 
Q 1947 2706 1947 2009 
Q 1947 1309 1714 600 
Q 1481 -109 1013 -844 
L 513 -844 
Q 928 -128 1133 580 
Q 1338 1288 1338 2009 
Q 1338 2731 1133 3434 
Q 928 4138 513 4856 
z
" transform="scale(0.015625)"/>
      </defs>
      <use xlink:href="#DejaVuSans-52"/>
      <use xlink:href="#DejaVuSans-41" transform="translate(65.482422 0)"/>
      <use xlink:href="#DejaVuSans-50" transform="translate(133.890625 0)"/>
      <use xlink:href="#DejaVuSans-31" transform="translate(194.193359 0)"/>
      <use xlink:href="#DejaVuSans-5f" transform="translate(257.816406 0)"/>
      <use xlink:href="#DejaVuSans-34" transform="translate(307.816406 0)"/>
      <use xlink:href="#DejaVuSans-b1" transform="translate(371.439453 0)"/>
      <use xlink:href="#DejaVuSans-53" transform="translate(455.228516 0)"/>
      <use xlink:href="#DejaVuSans-44" transform="translate(518.705078 0)"/>
      <use xlink:href="#DejaVuSans-20" transform="translate(595.707031 0)"/>
      <use xlink:href="#DejaVuSans-28" transform="translate(627.494141 0)"/>
      <use xlink:href="#DejaVuSans-6e" transform="translate(666.507812 0)"/>
      <use xlink:href="#DejaVuSans-3d" transform="translate(729.886719 0)"/>
      <use xlink:href="#DejaVuSans-31" transform="translate(813.675781 0)"/>
      <use xlink:href="#DejaVuSans-35" transform="translate(877.298828 0)"/>
      <use xlink:href="#DejaVuSans-29" transform="translate(940.921875 0)"/>
     </g>
    </g>
    <g id="line2d_23">
     <path d="M 474.839938 122.210938 
L 494.839938 122.210938 
" style="fill: none; stroke: #d62728; stroke-width: 2; stroke-linecap: square"/>
    </g>
    <g id="line2d_24"/>
    <g id="text_19">
     <!-- RAP_CSA -->
     <g transform="translate(502.839938 125.710938) scale(0.1 -0.1)">
      <defs>
       <path id="DejaVuSans-43" d="M 4122 4306 
L 4122 3641 
Q 3803 3938 3442 4084 
Q 3081 4231 2675 4231 
Q 1875 4231 1450 3742 
Q 1025 3253 1025 2328 
Q 1025 1406 1450 917 
Q 1875 428 2675 428 
Q 3081 428 3442 575 
Q 3803 722 4122 1019 
L 4122 359 
Q 3791 134 3420 21 
Q 3050 -91 2638 -91 
Q 1578 -91 968 557 
Q 359 1206 359 2328 
Q 359 3453 968 4101 
Q 1578 4750 2638 4750 
Q 3056 4750 3426 4639 
Q 3797 4528 4122 4306 
z
" transform="scale(0.015625)"/>
      </defs>
      <use xlink:href="#DejaVuSans-52"/>
      <use xlink:href="#DejaVuSans-41" transform="translate(65.482422 0)"/>
      <use xlink:href="#DejaVuSans-50" transform="translate(133.890625 0)"/>
      <use xlink:href="#DejaVuSans-5f" transform="translate(194.193359 0)"/>
      <use xlink:href="#DejaVuSans-43" transform="translate(244.193359 0)"/>
      <use xlink:href="#DejaVuSans-53" transform="translate(314.017578 0)"/>
      <use xlink:href="#DejaVuSans-41" transform="translate(379.369141 0)"/>
     </g>
    </g>
    <g id="LineCollection_4">
     <path d="M 484.839938 142.167187 
L 484.839938 132.167187 
" style="fill: none; stroke: #d62728"/>
    </g>
    <g id="line2d_25">
     <path d="M 474.839938 137.167187 
L 494.839938 137.167187 
" style="fill: none; stroke-dasharray: 3.7,1.6; stroke-dashoffset: 0; stroke: #d62728"/>
    </g>
    <g id="line2d_26">
     <g>
      <use xlink:href="#m9c4b820473" x="484.839938" y="137.167187" style="fill: #d62728; stroke: #000000; stroke-linejoin: miter"/>
     </g>
    </g>
    <g id="text_20">
     <!-- RAP_CSA±SD (n=9) -->
     <g transform="translate(502.839938 140.667187) scale(0.1 -0.1)">
      <defs>
       <path id="DejaVuSans-39" d="M 703 97 
L 703 672 
Q 941 559 1184 500 
Q 1428 441 1663 441 
Q 2288 441 2617 861 
Q 2947 1281 2994 2138 
Q 2813 1869 2534 1725 
Q 2256 1581 1919 1581 
Q 1219 1581 811 2004 
Q 403 2428 403 3163 
Q 403 3881 828 4315 
Q 1253 4750 1959 4750 
Q 2769 4750 3195 4129 
Q 3622 3509 3622 2328 
Q 3622 1225 3098 567 
Q 2575 -91 1691 -91 
Q 1453 -91 1209 -44 
Q 966 3 703 97 
z
M 1959 2075 
Q 2384 2075 2632 2365 
Q 2881 2656 2881 3163 
Q 2881 3666 2632 3958 
Q 2384 4250 1959 4250 
Q 1534 4250 1286 3958 
Q 1038 3666 1038 3163 
Q 1038 2656 1286 2365 
Q 1534 2075 1959 2075 
z
" transform="scale(0.015625)"/>
      </defs>
      <use xlink:href="#DejaVuSans-52"/>
      <use xlink:href="#DejaVuSans-41" transform="translate(65.482422 0)"/>
      <use xlink:href="#DejaVuSans-50" transform="translate(133.890625 0)"/>
      <use xlink:href="#DejaVuSans-5f" transform="translate(194.193359 0)"/>
      <use xlink:href="#DejaVuSans-43" transform="translate(244.193359 0)"/>
      <use xlink:href="#DejaVuSans-53" transform="translate(314.017578 0)"/>
      <use xlink:href="#DejaVuSans-41" transform="translate(379.369141 0)"/>
      <use xlink:href="#DejaVuSans-b1" transform="translate(447.777344 0)"/>
      <use xlink:href="#DejaVuSans-53" transform="translate(531.566406 0)"/>
      <use xlink:href="#DejaVuSans-44" transform="translate(595.042969 0)"/>
      <use xlink:href="#DejaVuSans-20" transform="translate(672.044922 0)"/>
      <use xlink:href="#DejaVuSans-28" transform="translate(703.832031 0)"/>
      <use xlink:href="#DejaVuSans-6e" transform="translate(742.845703 0)"/>
      <use xlink:href="#DejaVuSans-3d" transform="translate(806.224609 0)"/>
      <use xlink:href="#DejaVuSans-39" transform="translate(890.013672 0)"/>
      <use xlink:href="#DejaVuSans-29" transform="translate(953.636719 0)"/>
     </g>
    </g>
   </g>
  </g>
  <g id="axes_2">
   <g id="patch_8">
    <path d="M 59.615938 633.6 
L 450.215937 633.6 
L 450.215937 392.556522 
L 59.615938 392.556522 
z
" style="fill: #ffffff"/>
   </g>
   <g id="matplotlib.axis_3">
    <g id="xtick_8">
     <g id="line2d_27">
      <g>
       <use xlink:href="#m7673d0496a" x="67.587366" y="633.6" style="stroke: #000000; stroke-width: 0.8"/>
      </g>
     </g>
     <g id="text_21">
      <!-- 0 -->
      <g transform="translate(62.815491 651.997656) scale(0.15 -0.15)">
       <use xlink:href="#DejaVuSans-30"/>
      </g>
     </g>
    </g>
    <g id="xtick_9">
     <g id="line2d_28">
      <g>
       <use xlink:href="#m7673d0496a" x="147.301652" y="633.6" style="stroke: #000000; stroke-width: 0.8"/>
      </g>
     </g>
     <g id="text_22">
      <!-- 10 -->
      <g transform="translate(137.757902 651.997656) scale(0.15 -0.15)">
       <use xlink:href="#DejaVuSans-31"/>
       <use xlink:href="#DejaVuSans-30" transform="translate(63.623047 0)"/>
      </g>
     </g>
    </g>
    <g id="xtick_10">
     <g id="line2d_29">
      <g>
       <use xlink:href="#m7673d0496a" x="227.015938" y="633.6" style="stroke: #000000; stroke-width: 0.8"/>
      </g>
     </g>
     <g id="text_23">
      <!-- 20 -->
      <g transform="translate(217.472188 651.997656) scale(0.15 -0.15)">
       <use xlink:href="#DejaVuSans-32"/>
       <use xlink:href="#DejaVuSans-30" transform="translate(63.623047 0)"/>
      </g>
     </g>
    </g>
    <g id="xtick_11">
     <g id="line2d_30">
      <g>
       <use xlink:href="#m7673d0496a" x="306.730223" y="633.6" style="stroke: #000000; stroke-width: 0.8"/>
      </g>
     </g>
     <g id="text_24">
      <!-- 30 -->
      <g transform="translate(297.186473 651.997656) scale(0.15 -0.15)">
       <use xlink:href="#DejaVuSans-33"/>
       <use xlink:href="#DejaVuSans-30" transform="translate(63.623047 0)"/>
      </g>
     </g>
    </g>
    <g id="xtick_12">
     <g id="line2d_31">
      <g>
       <use xlink:href="#m7673d0496a" x="386.444509" y="633.6" style="stroke: #000000; stroke-width: 0.8"/>
      </g>
     </g>
     <g id="text_25">
      <!-- 40 -->
      <g transform="translate(376.900759 651.997656) scale(0.15 -0.15)">
       <use xlink:href="#DejaVuSans-34"/>
       <use xlink:href="#DejaVuSans-30" transform="translate(63.623047 0)"/>
      </g>
     </g>
    </g>
    <g id="text_26">
     <!-- time [hr] -->
     <g transform="translate(209.841406 672.794375) scale(0.18 -0.18)">
      <use xlink:href="#DejaVuSans-Bold-74"/>
      <use xlink:href="#DejaVuSans-Bold-69" transform="translate(47.802734 0)"/>
      <use xlink:href="#DejaVuSans-Bold-6d" transform="translate(82.080078 0)"/>
      <use xlink:href="#DejaVuSans-Bold-65" transform="translate(186.279297 0)"/>
      <use xlink:href="#DejaVuSans-Bold-20" transform="translate(254.101562 0)"/>
      <use xlink:href="#DejaVuSans-Bold-5b" transform="translate(288.916016 0)"/>
      <use xlink:href="#DejaVuSans-Bold-68" transform="translate(334.619141 0)"/>
      <use xlink:href="#DejaVuSans-Bold-72" transform="translate(405.810547 0)"/>
      <use xlink:href="#DejaVuSans-Bold-5d" transform="translate(455.126953 0)"/>
     </g>
    </g>
   </g>
   <g id="matplotlib.axis_4">
    <g id="ytick_8">
     <g id="line2d_32">
      <g>
       <use xlink:href="#m59dd913f3f" x="59.615938" y="622.643478" style="stroke: #000000; stroke-width: 0.8"/>
      </g>
     </g>
     <g id="text_27">
      <!-- 0.0 -->
      <g transform="translate(28.76125 628.342306) scale(0.15 -0.15)">
       <use xlink:href="#DejaVuSans-30"/>
       <use xlink:href="#DejaVuSans-2e" transform="translate(63.623047 0)"/>
       <use xlink:href="#DejaVuSans-30" transform="translate(95.410156 0)"/>
      </g>
     </g>
    </g>
    <g id="ytick_9">
     <g id="line2d_33">
      <g>
       <use xlink:href="#m59dd913f3f" x="59.615938" y="588.926007" style="stroke: #000000; stroke-width: 0.8"/>
      </g>
     </g>
     <g id="text_28">
      <!-- 0.5 -->
      <g transform="translate(28.76125 594.624835) scale(0.15 -0.15)">
       <use xlink:href="#DejaVuSans-30"/>
       <use xlink:href="#DejaVuSans-2e" transform="translate(63.623047 0)"/>
       <use xlink:href="#DejaVuSans-35" transform="translate(95.410156 0)"/>
      </g>
     </g>
    </g>
    <g id="ytick_10">
     <g id="line2d_34">
      <g>
       <use xlink:href="#m59dd913f3f" x="59.615938" y="555.208536" style="stroke: #000000; stroke-width: 0.8"/>
      </g>
     </g>
     <g id="text_29">
      <!-- 1.0 -->
      <g transform="translate(28.76125 560.907364) scale(0.15 -0.15)">
       <use xlink:href="#DejaVuSans-31"/>
       <use xlink:href="#DejaVuSans-2e" transform="translate(63.623047 0)"/>
       <use xlink:href="#DejaVuSans-30" transform="translate(95.410156 0)"/>
      </g>
     </g>
    </g>
    <g id="ytick_11">
     <g id="line2d_35">
      <g>
       <use xlink:href="#m59dd913f3f" x="59.615938" y="521.491065" style="stroke: #000000; stroke-width: 0.8"/>
      </g>
     </g>
     <g id="text_30">
      <!-- 1.5 -->
      <g transform="translate(28.76125 527.189893) scale(0.15 -0.15)">
       <use xlink:href="#DejaVuSans-31"/>
       <use xlink:href="#DejaVuSans-2e" transform="translate(63.623047 0)"/>
       <use xlink:href="#DejaVuSans-35" transform="translate(95.410156 0)"/>
      </g>
     </g>
    </g>
    <g id="ytick_12">
     <g id="line2d_36">
      <g>
       <use xlink:href="#m59dd913f3f" x="59.615938" y="487.773594" style="stroke: #000000; stroke-width: 0.8"/>
      </g>
     </g>
     <g id="text_31">
      <!-- 2.0 -->
      <g transform="translate(28.76125 493.472422) scale(0.15 -0.15)">
       <use xlink:href="#DejaVuSans-32"/>
       <use xlink:href="#DejaVuSans-2e" transform="translate(63.623047 0)"/>
       <use xlink:href="#DejaVuSans-30" transform="translate(95.410156 0)"/>
      </g>
     </g>
    </g>
    <g id="ytick_13">
     <g id="line2d_37">
      <g>
       <use xlink:href="#m59dd913f3f" x="59.615938" y="454.056123" style="stroke: #000000; stroke-width: 0.8"/>
      </g>
     </g>
     <g id="text_32">
      <!-- 2.5 -->
      <g transform="translate(28.76125 459.754951) scale(0.15 -0.15)">
       <use xlink:href="#DejaVuSans-32"/>
       <use xlink:href="#DejaVuSans-2e" transform="translate(63.623047 0)"/>
       <use xlink:href="#DejaVuSans-35" transform="translate(95.410156 0)"/>
      </g>
     </g>
    </g>
    <g id="ytick_14">
     <g id="line2d_38">
      <g>
       <use xlink:href="#m59dd913f3f" x="59.615938" y="420.338652" style="stroke: #000000; stroke-width: 0.8"/>
      </g>
     </g>
     <g id="text_33">
      <!-- 3.0 -->
      <g transform="translate(28.76125 426.03748) scale(0.15 -0.15)">
       <use xlink:href="#DejaVuSans-33"/>
       <use xlink:href="#DejaVuSans-2e" transform="translate(63.623047 0)"/>
       <use xlink:href="#DejaVuSans-30" transform="translate(95.410156 0)"/>
      </g>
     </g>
    </g>
    <g id="text_34">
     <!-- rapamycin [µM] -->
     <g transform="translate(20.877187 593.116386) rotate(-90) scale(0.18 -0.18)">
      <use xlink:href="#DejaVuSans-Bold-72"/>
      <use xlink:href="#DejaVuSans-Bold-61" transform="translate(49.316406 0)"/>
      <use xlink:href="#DejaVuSans-Bold-70" transform="translate(116.796875 0)"/>
      <use xlink:href="#DejaVuSans-Bold-61" transform="translate(188.378906 0)"/>
      <use xlink:href="#DejaVuSans-Bold-6d" transform="translate(255.859375 0)"/>
      <use xlink:href="#DejaVuSans-Bold-79" transform="translate(360.058594 0)"/>
      <use xlink:href="#DejaVuSans-Bold-63" transform="translate(425.244141 0)"/>
      <use xlink:href="#DejaVuSans-Bold-69" transform="translate(484.521484 0)"/>
      <use xlink:href="#DejaVuSans-Bold-6e" transform="translate(518.798828 0)"/>
      <use xlink:href="#DejaVuSans-Bold-20" transform="translate(589.990234 0)"/>
      <use xlink:href="#DejaVuSans-Bold-5b" transform="translate(624.804688 0)"/>
      <use xlink:href="#DejaVuSans-Bold-b5" transform="translate(670.507812 0)"/>
      <use xlink:href="#DejaVuSans-Bold-4d" transform="translate(744.091797 0)"/>
      <use xlink:href="#DejaVuSans-Bold-5d" transform="translate(843.603516 0)"/>
     </g>
    </g>
   </g>
   <g id="LineCollection_5">
    <path d="M 67.587366 622.322727 
L 67.587366 622.140042 
" clip-path="url(#p5655d58f80)" style="fill: none; stroke: #000000"/>
    <path d="M 71.57308 622.264657 
L 71.57308 622.059828 
" clip-path="url(#p5655d58f80)" style="fill: none; stroke: #000000"/>
    <path d="M 75.558795 622.140151 
L 75.558795 621.918714 
" clip-path="url(#p5655d58f80)" style="fill: none; stroke: #000000"/>
    <path d="M 79.544509 622.037793 
L 79.544509 621.805285 
" clip-path="url(#p5655d58f80)" style="fill: none; stroke: #000000"/>
    <path d="M 83.530223 621.988027 
L 83.530223 621.76659 
" clip-path="url(#p5655d58f80)" style="fill: none; stroke: #000000"/>
    <path d="M 87.515938 621.9604 
L 87.515938 621.727891 
" clip-path="url(#p5655d58f80)" style="fill: none; stroke: #000000"/>
    <path d="M 91.501652 621.927241 
L 91.501652 621.600622 
" clip-path="url(#p5655d58f80)" style="fill: none; stroke: #000000"/>
    <path d="M 99.47308 621.949494 
L 99.47308 621.478941 
" clip-path="url(#p5655d58f80)" style="fill: none; stroke: #000000"/>
    <path d="M 107.444509 621.999431 
L 107.444509 621.606381 
" clip-path="url(#p5655d58f80)" style="fill: none; stroke: #000000"/>
    <path d="M 115.415938 622.038292 
L 115.415938 621.678457 
" clip-path="url(#p5655d58f80)" style="fill: none; stroke: #000000"/>
    <path d="M 131.358795 622.140929 
L 131.358795 621.853053 
" clip-path="url(#p5655d58f80)" style="fill: none; stroke: #000000"/>
    <path d="M 163.244509 622.241018 
L 163.244509 622.014045 
" clip-path="url(#p5655d58f80)" style="fill: none; stroke: #000000"/>
    <path d="M 258.901652 622.325386 
L 258.901652 622.137164 
" clip-path="url(#p5655d58f80)" style="fill: none; stroke: #000000"/>
   </g>
   <g id="LineCollection_6">
    <path d="M 67.587366 622.375318 
L 67.587366 621.954588 
" clip-path="url(#p5655d58f80)" style="fill: none; stroke: #d62728"/>
    <path d="M 71.57308 622.306176 
L 71.57308 621.874374 
" clip-path="url(#p5655d58f80)" style="fill: none; stroke: #d62728"/>
    <path d="M 75.558795 622.22319 
L 75.558795 621.603167 
" clip-path="url(#p5655d58f80)" style="fill: none; stroke: #d62728"/>
    <path d="M 79.544509 622.154048 
L 79.544509 621.428842 
" clip-path="url(#p5655d58f80)" style="fill: none; stroke: #d62728"/>
    <path d="M 83.530223 622.071066 
L 83.530223 621.268357 
" clip-path="url(#p5655d58f80)" style="fill: none; stroke: #d62728"/>
    <path d="M 87.515938 622.060042 
L 87.515938 621.285022 
" clip-path="url(#p5655d58f80)" style="fill: none; stroke: #d62728"/>
    <path d="M 91.501652 622.060103 
L 91.501652 621.274002 
" clip-path="url(#p5655d58f80)" style="fill: none; stroke: #d62728"/>
    <path d="M 99.47308 622.09066 
L 99.47308 621.293487 
" clip-path="url(#p5655d58f80)" style="fill: none; stroke: #d62728"/>
    <path d="M 107.444509 622.140597 
L 107.444509 621.343424 
" clip-path="url(#p5655d58f80)" style="fill: none; stroke: #d62728"/>
    <path d="M 115.415938 622.182226 
L 115.415938 621.479164 
" clip-path="url(#p5655d58f80)" style="fill: none; stroke: #d62728"/>
    <path d="M 131.358795 622.240576 
L 131.358795 621.631625 
" clip-path="url(#p5655d58f80)" style="fill: none; stroke: #d62728"/>
    <path d="M 163.244509 622.307449 
L 163.244509 621.737249 
" clip-path="url(#p5655d58f80)" style="fill: none; stroke: #d62728"/>
    <path d="M 258.901652 622.375205 
L 258.901652 621.910196 
" clip-path="url(#p5655d58f80)" style="fill: none; stroke: #d62728"/>
   </g>
   <g id="line2d_39">
    <path d="M 67.587366 622.643478 
L 68.185223 600.002435 
L 69.380938 487.257756 
L 69.978795 446.108783 
L 70.576652 419.826058 
L 71.174509 406.557319 
L 71.772366 403.513043 
L 72.370223 407.888907 
L 72.96808 417.253382 
L 74.163795 443.661914 
L 75.957366 486.240909 
L 77.15308 510.724868 
L 78.348795 530.799291 
L 79.544509 546.665731 
L 80.740223 558.925917 
L 81.935938 568.264789 
L 83.131652 575.313448 
L 84.327366 580.60241 
L 85.52308 584.556414 
L 86.718795 587.505957 
L 87.914509 589.703739 
L 89.110223 591.340851 
L 90.305937 592.56077 
L 91.501652 593.470723 
L 92.697366 594.150604 
L 94.490938 594.864715 
L 96.284509 595.331412 
L 98.675938 595.718664 
L 102.26308 596.03023 
L 108.241652 596.265864 
L 124.383795 596.578667 
L 254.716652 598.699244 
L 405.376652 600.935995 
L 450.813795 601.568658 
L 450.813795 601.568658 
" clip-path="url(#p5655d58f80)" style="fill: none; stroke: #000000; stroke-width: 2; stroke-linecap: square"/>
   </g>
   <g id="line2d_40">
    <path d="M 67.587366 622.231384 
L 71.57308 622.162242 
L 75.558795 622.029433 
L 79.544509 621.921539 
L 83.530223 621.877309 
L 87.515938 621.844145 
L 91.501652 621.763931 
L 99.47308 621.714217 
L 107.444509 621.802906 
L 115.415938 621.858374 
L 131.358795 621.996991 
L 163.244509 622.127531 
L 258.901652 622.231275 
" clip-path="url(#p5655d58f80)" style="fill: none; stroke-dasharray: 3.7,1.6; stroke-dashoffset: 0; stroke: #000000"/>
    <g clip-path="url(#p5655d58f80)">
     <use xlink:href="#m9d27a71ea2" x="67.587366" y="622.231384" style="stroke: #000000; stroke-linejoin: miter"/>
     <use xlink:href="#m9d27a71ea2" x="71.57308" y="622.162242" style="stroke: #000000; stroke-linejoin: miter"/>
     <use xlink:href="#m9d27a71ea2" x="75.558795" y="622.029433" style="stroke: #000000; stroke-linejoin: miter"/>
     <use xlink:href="#m9d27a71ea2" x="79.544509" y="621.921539" style="stroke: #000000; stroke-linejoin: miter"/>
     <use xlink:href="#m9d27a71ea2" x="83.530223" y="621.877309" style="stroke: #000000; stroke-linejoin: miter"/>
     <use xlink:href="#m9d27a71ea2" x="87.515938" y="621.844145" style="stroke: #000000; stroke-linejoin: miter"/>
     <use xlink:href="#m9d27a71ea2" x="91.501652" y="621.763931" style="stroke: #000000; stroke-linejoin: miter"/>
     <use xlink:href="#m9d27a71ea2" x="99.47308" y="621.714217" style="stroke: #000000; stroke-linejoin: miter"/>
     <use xlink:href="#m9d27a71ea2" x="107.444509" y="621.802906" style="stroke: #000000; stroke-linejoin: miter"/>
     <use xlink:href="#m9d27a71ea2" x="115.415938" y="621.858374" style="stroke: #000000; stroke-linejoin: miter"/>
     <use xlink:href="#m9d27a71ea2" x="131.358795" y="621.996991" style="stroke: #000000; stroke-linejoin: miter"/>
     <use xlink:href="#m9d27a71ea2" x="163.244509" y="622.127531" style="stroke: #000000; stroke-linejoin: miter"/>
     <use xlink:href="#m9d27a71ea2" x="258.901652" y="622.231275" style="stroke: #000000; stroke-linejoin: miter"/>
    </g>
   </g>
   <g id="line2d_41">
    <path d="M 67.587366 622.643478 
L 68.185223 600.002435 
L 69.380938 487.257756 
L 69.978795 446.108783 
L 70.576652 419.826058 
L 71.174509 406.557319 
L 71.772366 403.513043 
L 72.370223 407.888907 
L 72.96808 417.253382 
L 74.163795 443.661914 
L 75.957366 486.240909 
L 77.15308 510.724868 
L 78.348795 530.799291 
L 79.544509 546.665731 
L 80.740223 558.925917 
L 81.935938 568.264789 
L 83.131652 575.313448 
L 84.327366 580.60241 
L 85.52308 584.556414 
L 86.718795 587.505957 
L 87.914509 589.703739 
L 89.110223 591.340851 
L 90.305937 592.56077 
L 91.501652 593.470723 
L 92.697366 594.150604 
L 94.490938 594.864715 
L 96.284509 595.331412 
L 98.675938 595.718664 
L 102.26308 596.03023 
L 108.241652 596.265864 
L 124.383795 596.578667 
L 254.716652 598.699244 
L 405.376652 600.935995 
L 450.813795 601.568658 
L 450.813795 601.568658 
" clip-path="url(#p5655d58f80)" style="fill: none; stroke: #d62728; stroke-width: 2; stroke-linecap: square"/>
   </g>
   <g id="line2d_42">
    <path d="M 67.587366 622.164953 
L 71.57308 622.090275 
L 75.558795 621.913178 
L 79.544509 621.791445 
L 83.530223 621.669711 
L 87.515938 621.672532 
L 91.501652 621.667053 
L 99.47308 621.692074 
L 107.444509 621.742011 
L 115.415938 621.830695 
L 131.358795 621.9361 
L 163.244509 622.022349 
L 258.901652 622.1427 
" clip-path="url(#p5655d58f80)" style="fill: none; stroke-dasharray: 3.7,1.6; stroke-dashoffset: 0; stroke: #d62728"/>
    <g clip-path="url(#p5655d58f80)">
     <use xlink:href="#m9c4b820473" x="67.587366" y="622.164953" style="fill: #d62728; stroke: #000000; stroke-linejoin: miter"/>
     <use xlink:href="#m9c4b820473" x="71.57308" y="622.090275" style="fill: #d62728; stroke: #000000; stroke-linejoin: miter"/>
     <use xlink:href="#m9c4b820473" x="75.558795" y="621.913178" style="fill: #d62728; stroke: #000000; stroke-linejoin: miter"/>
     <use xlink:href="#m9c4b820473" x="79.544509" y="621.791445" style="fill: #d62728; stroke: #000000; stroke-linejoin: miter"/>
     <use xlink:href="#m9c4b820473" x="83.530223" y="621.669711" style="fill: #d62728; stroke: #000000; stroke-linejoin: miter"/>
     <use xlink:href="#m9c4b820473" x="87.515938" y="621.672532" style="fill: #d62728; stroke: #000000; stroke-linejoin: miter"/>
     <use xlink:href="#m9c4b820473" x="91.501652" y="621.667053" style="fill: #d62728; stroke: #000000; stroke-linejoin: miter"/>
     <use xlink:href="#m9c4b820473" x="99.47308" y="621.692074" style="fill: #d62728; stroke: #000000; stroke-linejoin: miter"/>
     <use xlink:href="#m9c4b820473" x="107.444509" y="621.742011" style="fill: #d62728; stroke: #000000; stroke-linejoin: miter"/>
     <use xlink:href="#m9c4b820473" x="115.415938" y="621.830695" style="fill: #d62728; stroke: #000000; stroke-linejoin: miter"/>
     <use xlink:href="#m9c4b820473" x="131.358795" y="621.9361" style="fill: #d62728; stroke: #000000; stroke-linejoin: miter"/>
     <use xlink:href="#m9c4b820473" x="163.244509" y="622.022349" style="fill: #d62728; stroke: #000000; stroke-linejoin: miter"/>
     <use xlink:href="#m9c4b820473" x="258.901652" y="622.1427" style="fill: #d62728; stroke: #000000; stroke-linejoin: miter"/>
    </g>
   </g>
   <g id="patch_9">
    <path d="M 59.615938 633.6 
L 59.615938 392.556522 
" style="fill: none; stroke: #000000; stroke-width: 0.8; stroke-linejoin: miter; stroke-linecap: square"/>
   </g>
   <g id="patch_10">
    <path d="M 450.215937 633.6 
L 450.215937 392.556522 
" style="fill: none; stroke: #000000; stroke-width: 0.8; stroke-linejoin: miter; stroke-linecap: square"/>
   </g>
   <g id="patch_11">
    <path d="M 59.615938 633.6 
L 450.215937 633.6 
" style="fill: none; stroke: #000000; stroke-width: 0.8; stroke-linejoin: miter; stroke-linecap: square"/>
   </g>
   <g id="patch_12">
    <path d="M 59.615938 392.556522 
L 450.215937 392.556522 
" style="fill: none; stroke: #000000; stroke-width: 0.8; stroke-linejoin: miter; stroke-linecap: square"/>
   </g>
   <g id="legend_2">
    <g id="patch_13">
     <path d="M 472.839938 460.381522 
L 604.107125 460.381522 
Q 606.107125 460.381522 606.107125 458.381522 
L 606.107125 399.556522 
Q 606.107125 397.556522 604.107125 397.556522 
L 472.839938 397.556522 
Q 470.839938 397.556522 470.839938 399.556522 
L 470.839938 458.381522 
Q 470.839938 460.381522 472.839938 460.381522 
z
" style="fill: #ffffff; opacity: 0.8; stroke: #cccccc; stroke-linejoin: miter"/>
    </g>
    <g id="line2d_43">
     <path d="M 474.839938 405.654959 
L 494.839938 405.654959 
" style="fill: none; stroke: #000000; stroke-width: 2; stroke-linecap: square"/>
    </g>
    <g id="line2d_44"/>
    <g id="text_35">
     <!-- RAP1_4 -->
     <g transform="translate(502.839938 409.154959) scale(0.1 -0.1)">
      <use xlink:href="#DejaVuSans-52"/>
      <use xlink:href="#DejaVuSans-41" transform="translate(65.482422 0)"/>
      <use xlink:href="#DejaVuSans-50" transform="translate(133.890625 0)"/>
      <use xlink:href="#DejaVuSans-31" transform="translate(194.193359 0)"/>
      <use xlink:href="#DejaVuSans-5f" transform="translate(257.816406 0)"/>
      <use xlink:href="#DejaVuSans-34" transform="translate(307.816406 0)"/>
     </g>
    </g>
    <g id="LineCollection_7">
     <path d="M 484.839938 425.611209 
L 484.839938 415.611209 
" style="fill: none; stroke: #000000"/>
    </g>
    <g id="line2d_45">
     <path d="M 474.839938 420.611209 
L 494.839938 420.611209 
" style="fill: none; stroke-dasharray: 3.7,1.6; stroke-dashoffset: 0; stroke: #000000"/>
    </g>
    <g id="line2d_46">
     <g>
      <use xlink:href="#m9d27a71ea2" x="484.839938" y="420.611209" style="stroke: #000000; stroke-linejoin: miter"/>
     </g>
    </g>
    <g id="text_36">
     <!-- RAP1_4±SD (n=15) -->
     <g transform="translate(502.839938 424.111209) scale(0.1 -0.1)">
      <use xlink:href="#DejaVuSans-52"/>
      <use xlink:href="#DejaVuSans-41" transform="translate(65.482422 0)"/>
      <use xlink:href="#DejaVuSans-50" transform="translate(133.890625 0)"/>
      <use xlink:href="#DejaVuSans-31" transform="translate(194.193359 0)"/>
      <use xlink:href="#DejaVuSans-5f" transform="translate(257.816406 0)"/>
      <use xlink:href="#DejaVuSans-34" transform="translate(307.816406 0)"/>
      <use xlink:href="#DejaVuSans-b1" transform="translate(371.439453 0)"/>
      <use xlink:href="#DejaVuSans-53" transform="translate(455.228516 0)"/>
      <use xlink:href="#DejaVuSans-44" transform="translate(518.705078 0)"/>
      <use xlink:href="#DejaVuSans-20" transform="translate(595.707031 0)"/>
      <use xlink:href="#DejaVuSans-28" transform="translate(627.494141 0)"/>
      <use xlink:href="#DejaVuSans-6e" transform="translate(666.507812 0)"/>
      <use xlink:href="#DejaVuSans-3d" transform="translate(729.886719 0)"/>
      <use xlink:href="#DejaVuSans-31" transform="translate(813.675781 0)"/>
      <use xlink:href="#DejaVuSans-35" transform="translate(877.298828 0)"/>
      <use xlink:href="#DejaVuSans-29" transform="translate(940.921875 0)"/>
     </g>
    </g>
    <g id="line2d_47">
     <path d="M 474.839938 435.567459 
L 494.839938 435.567459 
" style="fill: none; stroke: #d62728; stroke-width: 2; stroke-linecap: square"/>
    </g>
    <g id="line2d_48"/>
    <g id="text_37">
     <!-- RAP_CSA -->
     <g transform="translate(502.839938 439.067459) scale(0.1 -0.1)">
      <use xlink:href="#DejaVuSans-52"/>
      <use xlink:href="#DejaVuSans-41" transform="translate(65.482422 0)"/>
      <use xlink:href="#DejaVuSans-50" transform="translate(133.890625 0)"/>
      <use xlink:href="#DejaVuSans-5f" transform="translate(194.193359 0)"/>
      <use xlink:href="#DejaVuSans-43" transform="translate(244.193359 0)"/>
      <use xlink:href="#DejaVuSans-53" transform="translate(314.017578 0)"/>
      <use xlink:href="#DejaVuSans-41" transform="translate(379.369141 0)"/>
     </g>
    </g>
    <g id="LineCollection_8">
     <path d="M 484.839938 455.523709 
L 484.839938 445.523709 
" style="fill: none; stroke: #d62728"/>
    </g>
    <g id="line2d_49">
     <path d="M 474.839938 450.523709 
L 494.839938 450.523709 
" style="fill: none; stroke-dasharray: 3.7,1.6; stroke-dashoffset: 0; stroke: #d62728"/>
    </g>
    <g id="line2d_50">
     <g>
      <use xlink:href="#m9c4b820473" x="484.839938" y="450.523709" style="fill: #d62728; stroke: #000000; stroke-linejoin: miter"/>
     </g>
    </g>
    <g id="text_38">
     <!-- RAP_CSA±SD (n=9) -->
     <g transform="translate(502.839938 454.023709) scale(0.1 -0.1)">
      <use xlink:href="#DejaVuSans-52"/>
      <use xlink:href="#DejaVuSans-41" transform="translate(65.482422 0)"/>
      <use xlink:href="#DejaVuSans-50" transform="translate(133.890625 0)"/>
      <use xlink:href="#DejaVuSans-5f" transform="translate(194.193359 0)"/>
      <use xlink:href="#DejaVuSans-43" transform="translate(244.193359 0)"/>
      <use xlink:href="#DejaVuSans-53" transform="translate(314.017578 0)"/>
      <use xlink:href="#DejaVuSans-41" transform="translate(379.369141 0)"/>
      <use xlink:href="#DejaVuSans-b1" transform="translate(447.777344 0)"/>
      <use xlink:href="#DejaVuSans-53" transform="translate(531.566406 0)"/>
      <use xlink:href="#DejaVuSans-44" transform="translate(595.042969 0)"/>
      <use xlink:href="#DejaVuSans-20" transform="translate(672.044922 0)"/>
      <use xlink:href="#DejaVuSans-28" transform="translate(703.832031 0)"/>
      <use xlink:href="#DejaVuSans-6e" transform="translate(742.845703 0)"/>
      <use xlink:href="#DejaVuSans-3d" transform="translate(806.224609 0)"/>
      <use xlink:href="#DejaVuSans-39" transform="translate(890.013672 0)"/>
      <use xlink:href="#DejaVuSans-29" transform="translate(953.636719 0)"/>
     </g>
    </g>
   </g>
  </g>
  <g id="text_39">
   <!-- Wang2014 (healthy) -->
   <g transform="translate(105.315156 26.196094) scale(0.25 -0.25)">
    <defs>
     <path id="DejaVuSans-Bold-57" d="M 191 4666 
L 1344 4666 
L 2150 1275 
L 2950 4666 
L 4109 4666 
L 4909 1275 
L 5716 4666 
L 6859 4666 
L 5759 0 
L 4372 0 
L 3525 3547 
L 2688 0 
L 1300 0 
L 191 4666 
z
" transform="scale(0.015625)"/>
     <path id="DejaVuSans-Bold-67" d="M 2919 594 
Q 2688 288 2409 144 
Q 2131 0 1766 0 
Q 1125 0 706 504 
Q 288 1009 288 1791 
Q 288 2575 706 3076 
Q 1125 3578 1766 3578 
Q 2131 3578 2409 3434 
Q 2688 3291 2919 2981 
L 2919 3500 
L 4044 3500 
L 4044 353 
Q 4044 -491 3511 -936 
Q 2978 -1381 1966 -1381 
Q 1638 -1381 1331 -1331 
Q 1025 -1281 716 -1178 
L 716 -306 
Q 1009 -475 1290 -558 
Q 1572 -641 1856 -641 
Q 2406 -641 2662 -400 
Q 2919 -159 2919 353 
L 2919 594 
z
M 2181 2772 
Q 1834 2772 1640 2515 
Q 1447 2259 1447 1791 
Q 1447 1309 1634 1061 
Q 1822 813 2181 813 
Q 2531 813 2725 1069 
Q 2919 1325 2919 1791 
Q 2919 2259 2725 2515 
Q 2531 2772 2181 2772 
z
" transform="scale(0.015625)"/>
     <path id="DejaVuSans-Bold-32" d="M 1844 884 
L 3897 884 
L 3897 0 
L 506 0 
L 506 884 
L 2209 2388 
Q 2438 2594 2547 2791 
Q 2656 2988 2656 3200 
Q 2656 3528 2436 3728 
Q 2216 3928 1850 3928 
Q 1569 3928 1234 3808 
Q 900 3688 519 3450 
L 519 4475 
Q 925 4609 1322 4679 
Q 1719 4750 2100 4750 
Q 2938 4750 3402 4381 
Q 3866 4013 3866 3353 
Q 3866 2972 3669 2642 
Q 3472 2313 2841 1759 
L 1844 884 
z
" transform="scale(0.015625)"/>
     <path id="DejaVuSans-Bold-30" d="M 2944 2338 
Q 2944 3213 2780 3570 
Q 2616 3928 2228 3928 
Q 1841 3928 1675 3570 
Q 1509 3213 1509 2338 
Q 1509 1453 1675 1090 
Q 1841 728 2228 728 
Q 2613 728 2778 1090 
Q 2944 1453 2944 2338 
z
M 4147 2328 
Q 4147 1169 3647 539 
Q 3147 -91 2228 -91 
Q 1306 -91 806 539 
Q 306 1169 306 2328 
Q 306 3491 806 4120 
Q 1306 4750 2228 4750 
Q 3147 4750 3647 4120 
Q 4147 3491 4147 2328 
z
" transform="scale(0.015625)"/>
     <path id="DejaVuSans-Bold-31" d="M 750 831 
L 1813 831 
L 1813 3847 
L 722 3622 
L 722 4441 
L 1806 4666 
L 2950 4666 
L 2950 831 
L 4013 831 
L 4013 0 
L 750 0 
L 750 831 
z
" transform="scale(0.015625)"/>
     <path id="DejaVuSans-Bold-34" d="M 2356 3675 
L 1038 1722 
L 2356 1722 
L 2356 3675 
z
M 2156 4666 
L 3494 4666 
L 3494 1722 
L 4159 1722 
L 4159 850 
L 3494 850 
L 3494 0 
L 2356 0 
L 2356 850 
L 288 850 
L 288 1881 
L 2156 4666 
z
" transform="scale(0.015625)"/>
     <path id="DejaVuSans-Bold-28" d="M 2413 -844 
L 1484 -844 
Q 1006 -72 778 623 
Q 550 1319 550 2003 
Q 550 2688 779 3389 
Q 1009 4091 1484 4856 
L 2413 4856 
Q 2013 4116 1813 3408 
Q 1613 2700 1613 2009 
Q 1613 1319 1811 609 
Q 2009 -100 2413 -844 
z
" transform="scale(0.015625)"/>
     <path id="DejaVuSans-Bold-6c" d="M 538 4863 
L 1656 4863 
L 1656 0 
L 538 0 
L 538 4863 
z
" transform="scale(0.015625)"/>
     <path id="DejaVuSans-Bold-29" d="M 513 -844 
Q 913 -100 1113 609 
Q 1313 1319 1313 2009 
Q 1313 2700 1113 3408 
Q 913 4116 513 4856 
L 1441 4856 
Q 1916 4091 2145 3389 
Q 2375 2688 2375 2003 
Q 2375 1319 2147 623 
Q 1919 -72 1441 -844 
L 513 -844 
z
" transform="scale(0.015625)"/>
    </defs>
    <use xlink:href="#DejaVuSans-Bold-57"/>
    <use xlink:href="#DejaVuSans-Bold-61" transform="translate(106.677734 0)"/>
    <use xlink:href="#DejaVuSans-Bold-6e" transform="translate(174.158203 0)"/>
    <use xlink:href="#DejaVuSans-Bold-67" transform="translate(245.349609 0)"/>
    <use xlink:href="#DejaVuSans-Bold-32" transform="translate(316.931641 0)"/>
    <use xlink:href="#DejaVuSans-Bold-30" transform="translate(386.511719 0)"/>
    <use xlink:href="#DejaVuSans-Bold-31" transform="translate(456.091797 0)"/>
    <use xlink:href="#DejaVuSans-Bold-34" transform="translate(525.671875 0)"/>
    <use xlink:href="#DejaVuSans-Bold-20" transform="translate(595.251953 0)"/>
    <use xlink:href="#DejaVuSans-Bold-28" transform="translate(630.066406 0)"/>
    <use xlink:href="#DejaVuSans-Bold-68" transform="translate(675.769531 0)"/>
    <use xlink:href="#DejaVuSans-Bold-65" transform="translate(746.960938 0)"/>
    <use xlink:href="#DejaVuSans-Bold-61" transform="translate(814.783203 0)"/>
    <use xlink:href="#DejaVuSans-Bold-6c" transform="translate(882.263672 0)"/>
    <use xlink:href="#DejaVuSans-Bold-74" transform="translate(916.541016 0)"/>
    <use xlink:href="#DejaVuSans-Bold-68" transform="translate(964.34375 0)"/>
    <use xlink:href="#DejaVuSans-Bold-79" transform="translate(1035.535156 0)"/>
    <use xlink:href="#DejaVuSans-Bold-29" transform="translate(1100.720703 0)"/>
   </g>
  </g>
 </g>
 <defs>
  <clipPath id="pbe5426570f">
   <rect x="59.615938" y="79.2" width="390.6" height="241.043478"/>
  </clipPath>
  <clipPath id="p5655d58f80">
   <rect x="59.615938" y="392.556522" width="390.6" height="241.043478"/>
  </clipPath>
 </defs>
</svg>
