<?xml version="1.0" encoding="utf-8" standalone="no"?>
<!DOCTYPE svg PUBLIC "-//W3C//DTD SVG 1.1//EN"
  "http://www.w3.org/Graphics/SVG/1.1/DTD/svg11.dtd">
<svg xmlns:xlink="http://www.w3.org/1999/xlink" width="452.64875pt" height="370.537812pt" viewBox="0 0 452.64875 370.537812" xmlns="http://www.w3.org/2000/svg" version="1.1">
 <metadata>
  <rdf:RDF xmlns:dc="http://purl.org/dc/elements/1.1/" xmlns:cc="http://creativecommons.org/ns#" xmlns:rdf="http://www.w3.org/1999/02/22-rdf-syntax-ns#">
   <cc:Work>
    <dc:type rdf:resource="http://purl.org/dc/dcmitype/StillImage"/>
    <dc:date>2026-02-12T15:19:40.474013</dc:date>
    <dc:format>image/svg+xml</dc:format>
    <dc:creator>
     <cc:Agent>
      <dc:title>Matplotlib v3.10.7, https://matplotlib.org/</dc:title>
     </cc:Agent>
    </dc:creator>
   </cc:Work>
  </rdf:RDF>
 </metadata>
 <defs>
  <style type="text/css">*{stroke-linejoin: round; stroke-linecap: butt}</style>
 </defs>
 <g id="figure_1">
  <g id="patch_1">
   <path d="M 0 370.537812 
L 452.64875 370.537812 
L 452.64875 0 
L 0 0 
z
" style="fill: #ffffff"/>
  </g>
  <g id="axes_1">
   <g id="patch_2">
    <path d="M 54.84875 320.4 
L 445.44875 320.4 
L 445.44875 43.2 
L 54.84875 43.2 
z
" style="fill: #ffffff"/>
   </g>
   <g id="matplotlib.axis_1">
    <g id="xtick_1">
     <g id="line2d_1">
      <defs>
       <path id="md0a68ea4ac" d="M 0 0 
L 0 3.5 
" style="stroke: #000000; stroke-width: 0.8"/>
      </defs>
      <g>
       <use xlink:href="#md0a68ea4ac" x="72.603295" y="320.4" style="stroke: #000000; stroke-width: 0.8"/>
      </g>
     </g>
     <g id="text_1">
      <!-- 0 -->
      <g transform="translate(67.83142 338.797656) scale(0.15 -0.15)">
       <defs>
        <path id="DejaVuSans-30" d="M 2034 4250 
Q 1547 4250 1301 3770 
Q 1056 3291 1056 2328 
Q 1056 1369 1301 889 
Q 1547 409 2034 409 
Q 2525 409 2770 889 
Q 3016 1369 3016 2328 
Q 3016 3291 2770 3770 
Q 2525 4250 2034 4250 
z
M 2034 4750 
Q 2819 4750 3233 4129 
Q 3647 3509 3647 2328 
Q 3647 1150 3233 529 
Q 2819 -91 2034 -91 
Q 1250 -91 836 529 
Q 422 1150 422 2328 
Q 422 3509 836 4129 
Q 1250 4750 2034 4750 
z
" transform="scale(0.015625)"/>
       </defs>
       <use xlink:href="#DejaVuSans-30"/>
      </g>
     </g>
    </g>
    <g id="xtick_2">
     <g id="line2d_2">
      <g>
       <use xlink:href="#md0a68ea4ac" x="131.785114" y="320.4" style="stroke: #000000; stroke-width: 0.8"/>
      </g>
     </g>
     <g id="text_2">
      <!-- 25 -->
      <g transform="translate(122.241364 338.797656) scale(0.15 -0.15)">
       <defs>
        <path id="DejaVuSans-32" d="M 1228 531 
L 3431 531 
L 3431 0 
L 469 0 
L 469 531 
Q 828 903 1448 1529 
Q 2069 2156 2228 2338 
Q 2531 2678 2651 2914 
Q 2772 3150 2772 3378 
Q 2772 3750 2511 3984 
Q 2250 4219 1831 4219 
Q 1534 4219 1204 4116 
Q 875 4013 500 3803 
L 500 4441 
Q 881 4594 1212 4672 
Q 1544 4750 1819 4750 
Q 2544 4750 2975 4387 
Q 3406 4025 3406 3419 
Q 3406 3131 3298 2873 
Q 3191 2616 2906 2266 
Q 2828 2175 2409 1742 
Q 1991 1309 1228 531 
z
" transform="scale(0.015625)"/>
        <path id="DejaVuSans-35" d="M 691 4666 
L 3169 4666 
L 3169 4134 
L 1269 4134 
L 1269 2991 
Q 1406 3038 1543 3061 
Q 1681 3084 1819 3084 
Q 2600 3084 3056 2656 
Q 3513 2228 3513 1497 
Q 3513 744 3044 326 
Q 2575 -91 1722 -91 
Q 1428 -91 1123 -41 
Q 819 9 494 109 
L 494 744 
Q 775 591 1075 516 
Q 1375 441 1709 441 
Q 2250 441 2565 725 
Q 2881 1009 2881 1497 
Q 2881 1984 2565 2268 
Q 2250 2553 1709 2553 
Q 1456 2553 1204 2497 
Q 953 2441 691 2322 
L 691 4666 
z
" transform="scale(0.015625)"/>
       </defs>
       <use xlink:href="#DejaVuSans-32"/>
       <use xlink:href="#DejaVuSans-35" transform="translate(63.623047 0)"/>
      </g>
     </g>
    </g>
    <g id="xtick_3">
     <g id="line2d_3">
      <g>
       <use xlink:href="#md0a68ea4ac" x="190.966932" y="320.4" style="stroke: #000000; stroke-width: 0.8"/>
      </g>
     </g>
     <g id="text_3">
      <!-- 50 -->
      <g transform="translate(181.423182 338.797656) scale(0.15 -0.15)">
       <use xlink:href="#DejaVuSans-35"/>
       <use xlink:href="#DejaVuSans-30" transform="translate(63.623047 0)"/>
      </g>
     </g>
    </g>
    <g id="xtick_4">
     <g id="line2d_4">
      <g>
       <use xlink:href="#md0a68ea4ac" x="250.14875" y="320.4" style="stroke: #000000; stroke-width: 0.8"/>
      </g>
     </g>
     <g id="text_4">
      <!-- 75 -->
      <g transform="translate(240.605 338.797656) scale(0.15 -0.15)">
       <defs>
        <path id="DejaVuSans-37" d="M 525 4666 
L 3525 4666 
L 3525 4397 
L 1831 0 
L 1172 0 
L 2766 4134 
L 525 4134 
L 525 4666 
z
" transform="scale(0.015625)"/>
       </defs>
       <use xlink:href="#DejaVuSans-37"/>
       <use xlink:href="#DejaVuSans-35" transform="translate(63.623047 0)"/>
      </g>
     </g>
    </g>
    <g id="xtick_5">
     <g id="line2d_5">
      <g>
       <use xlink:href="#md0a68ea4ac" x="309.330568" y="320.4" style="stroke: #000000; stroke-width: 0.8"/>
      </g>
     </g>
     <g id="text_5">
      <!-- 100 -->
      <g transform="translate(295.014943 338.797656) scale(0.15 -0.15)">
       <defs>
        <path id="DejaVuSans-31" d="M 794 531 
L 1825 531 
L 1825 4091 
L 703 3866 
L 703 4441 
L 1819 4666 
L 2450 4666 
L 2450 531 
L 3481 531 
L 3481 0 
L 794 0 
L 794 531 
z
" transform="scale(0.015625)"/>
       </defs>
       <use xlink:href="#DejaVuSans-31"/>
       <use xlink:href="#DejaVuSans-30" transform="translate(63.623047 0)"/>
       <use xlink:href="#DejaVuSans-30" transform="translate(127.246094 0)"/>
      </g>
     </g>
    </g>
    <g id="xtick_6">
     <g id="line2d_6">
      <g>
       <use xlink:href="#md0a68ea4ac" x="368.512386" y="320.4" style="stroke: #000000; stroke-width: 0.8"/>
      </g>
     </g>
     <g id="text_6">
      <!-- 125 -->
      <g transform="translate(354.196761 338.797656) scale(0.15 -0.15)">
       <use xlink:href="#DejaVuSans-31"/>
       <use xlink:href="#DejaVuSans-32" transform="translate(63.623047 0)"/>
       <use xlink:href="#DejaVuSans-35" transform="translate(127.246094 0)"/>
      </g>
     </g>
    </g>
    <g id="xtick_7">
     <g id="line2d_7">
      <g>
       <use xlink:href="#md0a68ea4ac" x="427.694205" y="320.4" style="stroke: #000000; stroke-width: 0.8"/>
      </g>
     </g>
     <g id="text_7">
      <!-- 150 -->
      <g transform="translate(413.37858 338.797656) scale(0.15 -0.15)">
       <use xlink:href="#DejaVuSans-31"/>
       <use xlink:href="#DejaVuSans-35" transform="translate(63.623047 0)"/>
       <use xlink:href="#DejaVuSans-30" transform="translate(127.246094 0)"/>
      </g>
     </g>
    </g>
    <g id="text_8">
     <!-- time [hr] -->
     <g transform="translate(205.074219 359.594375) scale(0.18 -0.18)">
      <defs>
       <path id="DejaVuSans-Bold-74" d="M 1759 4494 
L 1759 3500 
L 2913 3500 
L 2913 2700 
L 1759 2700 
L 1759 1216 
Q 1759 972 1856 886 
Q 1953 800 2241 800 
L 2816 800 
L 2816 0 
L 1856 0 
Q 1194 0 917 276 
Q 641 553 641 1216 
L 641 2700 
L 84 2700 
L 84 3500 
L 641 3500 
L 641 4494 
L 1759 4494 
z
" transform="scale(0.015625)"/>
       <path id="DejaVuSans-Bold-69" d="M 538 3500 
L 1656 3500 
L 1656 0 
L 538 0 
L 538 3500 
z
M 538 4863 
L 1656 4863 
L 1656 3950 
L 538 3950 
L 538 4863 
z
" transform="scale(0.015625)"/>
       <path id="DejaVuSans-Bold-6d" d="M 3781 2919 
Q 3994 3244 4286 3414 
Q 4578 3584 4928 3584 
Q 5531 3584 5847 3212 
Q 6163 2841 6163 2131 
L 6163 0 
L 5038 0 
L 5038 1825 
Q 5041 1866 5042 1909 
Q 5044 1953 5044 2034 
Q 5044 2406 4934 2573 
Q 4825 2741 4581 2741 
Q 4263 2741 4089 2478 
Q 3916 2216 3909 1719 
L 3909 0 
L 2784 0 
L 2784 1825 
Q 2784 2406 2684 2573 
Q 2584 2741 2328 2741 
Q 2006 2741 1831 2477 
Q 1656 2213 1656 1722 
L 1656 0 
L 531 0 
L 531 3500 
L 1656 3500 
L 1656 2988 
Q 1863 3284 2130 3434 
Q 2397 3584 2719 3584 
Q 3081 3584 3359 3409 
Q 3638 3234 3781 2919 
z
" transform="scale(0.015625)"/>
       <path id="DejaVuSans-Bold-65" d="M 4031 1759 
L 4031 1441 
L 1416 1441 
Q 1456 1047 1700 850 
Q 1944 653 2381 653 
Q 2734 653 3104 758 
Q 3475 863 3866 1075 
L 3866 213 
Q 3469 63 3072 -14 
Q 2675 -91 2278 -91 
Q 1328 -91 801 392 
Q 275 875 275 1747 
Q 275 2603 792 3093 
Q 1309 3584 2216 3584 
Q 3041 3584 3536 3087 
Q 4031 2591 4031 1759 
z
M 2881 2131 
Q 2881 2450 2695 2645 
Q 2509 2841 2209 2841 
Q 1884 2841 1681 2658 
Q 1478 2475 1428 2131 
L 2881 2131 
z
" transform="scale(0.015625)"/>
       <path id="DejaVuSans-Bold-20" transform="scale(0.015625)"/>
       <path id="DejaVuSans-Bold-5b" d="M 550 4863 
L 2491 4863 
L 2491 4159 
L 1613 4159 
L 1613 -141 
L 2491 -141 
L 2491 -844 
L 550 -844 
L 550 4863 
z
" transform="scale(0.015625)"/>
       <path id="DejaVuSans-Bold-68" d="M 4056 2131 
L 4056 0 
L 2931 0 
L 2931 347 
L 2931 1625 
Q 2931 2084 2911 2256 
Q 2891 2428 2841 2509 
Q 2775 2619 2662 2680 
Q 2550 2741 2406 2741 
Q 2056 2741 1856 2470 
Q 1656 2200 1656 1722 
L 1656 0 
L 538 0 
L 538 4863 
L 1656 4863 
L 1656 2988 
Q 1909 3294 2193 3439 
Q 2478 3584 2822 3584 
Q 3428 3584 3742 3212 
Q 4056 2841 4056 2131 
z
" transform="scale(0.015625)"/>
       <path id="DejaVuSans-Bold-72" d="M 3138 2547 
Q 2991 2616 2845 2648 
Q 2700 2681 2553 2681 
Q 2122 2681 1889 2404 
Q 1656 2128 1656 1613 
L 1656 0 
L 538 0 
L 538 3500 
L 1656 3500 
L 1656 2925 
Q 1872 3269 2151 3426 
Q 2431 3584 2822 3584 
Q 2878 3584 2943 3579 
Q 3009 3575 3134 3559 
L 3138 2547 
z
" transform="scale(0.015625)"/>
       <path id="DejaVuSans-Bold-5d" d="M 2375 -844 
L 434 -844 
L 434 -141 
L 1313 -141 
L 1313 4159 
L 434 4159 
L 434 4863 
L 2375 4863 
L 2375 -844 
z
" transform="scale(0.015625)"/>
      </defs>
      <use xlink:href="#DejaVuSans-Bold-74"/>
      <use xlink:href="#DejaVuSans-Bold-69" transform="translate(47.802734 0)"/>
      <use xlink:href="#DejaVuSans-Bold-6d" transform="translate(82.080078 0)"/>
      <use xlink:href="#DejaVuSans-Bold-65" transform="translate(186.279297 0)"/>
      <use xlink:href="#DejaVuSans-Bold-20" transform="translate(254.101562 0)"/>
      <use xlink:href="#DejaVuSans-Bold-5b" transform="translate(288.916016 0)"/>
      <use xlink:href="#DejaVuSans-Bold-68" transform="translate(334.619141 0)"/>
      <use xlink:href="#DejaVuSans-Bold-72" transform="translate(405.810547 0)"/>
      <use xlink:href="#DejaVuSans-Bold-5d" transform="translate(455.126953 0)"/>
     </g>
    </g>
   </g>
   <g id="matplotlib.axis_2">
    <g id="ytick_1">
     <g id="line2d_8">
      <defs>
       <path id="m7a6be4148d" d="M 0 0 
L -3.5 0 
" style="stroke: #000000; stroke-width: 0.8"/>
      </defs>
      <g>
       <use xlink:href="#m7a6be4148d" x="54.84875" y="302.03961" style="stroke: #000000; stroke-width: 0.8"/>
      </g>
     </g>
     <g id="text_9">
      <!-- 0 -->
      <g transform="translate(38.305 307.738438) scale(0.15 -0.15)">
       <use xlink:href="#DejaVuSans-30"/>
      </g>
     </g>
    </g>
    <g id="ytick_2">
     <g id="line2d_9">
      <g>
       <use xlink:href="#m7a6be4148d" x="54.84875" y="250.203285" style="stroke: #000000; stroke-width: 0.8"/>
      </g>
     </g>
     <g id="text_10">
      <!-- 10 -->
      <g transform="translate(28.76125 255.902113) scale(0.15 -0.15)">
       <use xlink:href="#DejaVuSans-31"/>
       <use xlink:href="#DejaVuSans-30" transform="translate(63.623047 0)"/>
      </g>
     </g>
    </g>
    <g id="ytick_3">
     <g id="line2d_10">
      <g>
       <use xlink:href="#m7a6be4148d" x="54.84875" y="198.36696" style="stroke: #000000; stroke-width: 0.8"/>
      </g>
     </g>
     <g id="text_11">
      <!-- 20 -->
      <g transform="translate(28.76125 204.065788) scale(0.15 -0.15)">
       <use xlink:href="#DejaVuSans-32"/>
       <use xlink:href="#DejaVuSans-30" transform="translate(63.623047 0)"/>
      </g>
     </g>
    </g>
    <g id="ytick_4">
     <g id="line2d_11">
      <g>
       <use xlink:href="#m7a6be4148d" x="54.84875" y="146.530636" style="stroke: #000000; stroke-width: 0.8"/>
      </g>
     </g>
     <g id="text_12">
      <!-- 30 -->
      <g transform="translate(28.76125 152.229464) scale(0.15 -0.15)">
       <defs>
        <path id="DejaVuSans-33" d="M 2597 2516 
Q 3050 2419 3304 2112 
Q 3559 1806 3559 1356 
Q 3559 666 3084 287 
Q 2609 -91 1734 -91 
Q 1441 -91 1130 -33 
Q 819 25 488 141 
L 488 750 
Q 750 597 1062 519 
Q 1375 441 1716 441 
Q 2309 441 2620 675 
Q 2931 909 2931 1356 
Q 2931 1769 2642 2001 
Q 2353 2234 1838 2234 
L 1294 2234 
L 1294 2753 
L 1863 2753 
Q 2328 2753 2575 2939 
Q 2822 3125 2822 3475 
Q 2822 3834 2567 4026 
Q 2313 4219 1838 4219 
Q 1578 4219 1281 4162 
Q 984 4106 628 3988 
L 628 4550 
Q 988 4650 1302 4700 
Q 1616 4750 1894 4750 
Q 2613 4750 3031 4423 
Q 3450 4097 3450 3541 
Q 3450 3153 3228 2886 
Q 3006 2619 2597 2516 
z
" transform="scale(0.015625)"/>
       </defs>
       <use xlink:href="#DejaVuSans-33"/>
       <use xlink:href="#DejaVuSans-30" transform="translate(63.623047 0)"/>
      </g>
     </g>
    </g>
    <g id="ytick_5">
     <g id="line2d_12">
      <g>
       <use xlink:href="#m7a6be4148d" x="54.84875" y="94.694311" style="stroke: #000000; stroke-width: 0.8"/>
      </g>
     </g>
     <g id="text_13">
      <!-- 40 -->
      <g transform="translate(28.76125 100.393139) scale(0.15 -0.15)">
       <defs>
        <path id="DejaVuSans-34" d="M 2419 4116 
L 825 1625 
L 2419 1625 
L 2419 4116 
z
M 2253 4666 
L 3047 4666 
L 3047 1625 
L 3713 1625 
L 3713 1100 
L 3047 1100 
L 3047 0 
L 2419 0 
L 2419 1100 
L 313 1100 
L 313 1709 
L 2253 4666 
z
" transform="scale(0.015625)"/>
       </defs>
       <use xlink:href="#DejaVuSans-34"/>
       <use xlink:href="#DejaVuSans-30" transform="translate(63.623047 0)"/>
      </g>
     </g>
    </g>
    <g id="text_14">
     <!-- rapamycin blood [nM] -->
     <g transform="translate(20.877187 293.092031) rotate(-90) scale(0.18 -0.18)">
      <defs>
       <path id="DejaVuSans-Bold-61" d="M 2106 1575 
Q 1756 1575 1579 1456 
Q 1403 1338 1403 1106 
Q 1403 894 1545 773 
Q 1688 653 1941 653 
Q 2256 653 2472 879 
Q 2688 1106 2688 1447 
L 2688 1575 
L 2106 1575 
z
M 3816 1997 
L 3816 0 
L 2688 0 
L 2688 519 
Q 2463 200 2181 54 
Q 1900 -91 1497 -91 
Q 953 -91 614 226 
Q 275 544 275 1050 
Q 275 1666 698 1953 
Q 1122 2241 2028 2241 
L 2688 2241 
L 2688 2328 
Q 2688 2594 2478 2717 
Q 2269 2841 1825 2841 
Q 1466 2841 1156 2769 
Q 847 2697 581 2553 
L 581 3406 
Q 941 3494 1303 3539 
Q 1666 3584 2028 3584 
Q 2975 3584 3395 3211 
Q 3816 2838 3816 1997 
z
" transform="scale(0.015625)"/>
       <path id="DejaVuSans-Bold-70" d="M 1656 506 
L 1656 -1331 
L 538 -1331 
L 538 3500 
L 1656 3500 
L 1656 2988 
Q 1888 3294 2169 3439 
Q 2450 3584 2816 3584 
Q 3463 3584 3878 3070 
Q 4294 2556 4294 1747 
Q 4294 938 3878 423 
Q 3463 -91 2816 -91 
Q 2450 -91 2169 54 
Q 1888 200 1656 506 
z
M 2400 2772 
Q 2041 2772 1848 2508 
Q 1656 2244 1656 1747 
Q 1656 1250 1848 986 
Q 2041 722 2400 722 
Q 2759 722 2948 984 
Q 3138 1247 3138 1747 
Q 3138 2247 2948 2509 
Q 2759 2772 2400 2772 
z
" transform="scale(0.015625)"/>
       <path id="DejaVuSans-Bold-79" d="M 78 3500 
L 1197 3500 
L 2138 1125 
L 2938 3500 
L 4056 3500 
L 2584 -331 
Q 2363 -916 2067 -1148 
Q 1772 -1381 1288 -1381 
L 641 -1381 
L 641 -647 
L 991 -647 
Q 1275 -647 1404 -556 
Q 1534 -466 1606 -231 
L 1638 -134 
L 78 3500 
z
" transform="scale(0.015625)"/>
       <path id="DejaVuSans-Bold-63" d="M 3366 3391 
L 3366 2478 
Q 3138 2634 2908 2709 
Q 2678 2784 2431 2784 
Q 1963 2784 1702 2511 
Q 1441 2238 1441 1747 
Q 1441 1256 1702 982 
Q 1963 709 2431 709 
Q 2694 709 2930 787 
Q 3166 866 3366 1019 
L 3366 103 
Q 3103 6 2833 -42 
Q 2563 -91 2291 -91 
Q 1344 -91 809 395 
Q 275 881 275 1747 
Q 275 2613 809 3098 
Q 1344 3584 2291 3584 
Q 2566 3584 2833 3536 
Q 3100 3488 3366 3391 
z
" transform="scale(0.015625)"/>
       <path id="DejaVuSans-Bold-6e" d="M 4056 2131 
L 4056 0 
L 2931 0 
L 2931 347 
L 2931 1631 
Q 2931 2084 2911 2256 
Q 2891 2428 2841 2509 
Q 2775 2619 2662 2680 
Q 2550 2741 2406 2741 
Q 2056 2741 1856 2470 
Q 1656 2200 1656 1722 
L 1656 0 
L 538 0 
L 538 3500 
L 1656 3500 
L 1656 2988 
Q 1909 3294 2193 3439 
Q 2478 3584 2822 3584 
Q 3428 3584 3742 3212 
Q 4056 2841 4056 2131 
z
" transform="scale(0.015625)"/>
       <path id="DejaVuSans-Bold-62" d="M 2400 722 
Q 2759 722 2948 984 
Q 3138 1247 3138 1747 
Q 3138 2247 2948 2509 
Q 2759 2772 2400 2772 
Q 2041 2772 1848 2508 
Q 1656 2244 1656 1747 
Q 1656 1250 1848 986 
Q 2041 722 2400 722 
z
M 1656 2988 
Q 1888 3294 2169 3439 
Q 2450 3584 2816 3584 
Q 3463 3584 3878 3070 
Q 4294 2556 4294 1747 
Q 4294 938 3878 423 
Q 3463 -91 2816 -91 
Q 2450 -91 2169 54 
Q 1888 200 1656 506 
L 1656 0 
L 538 0 
L 538 4863 
L 1656 4863 
L 1656 2988 
z
" transform="scale(0.015625)"/>
       <path id="DejaVuSans-Bold-6c" d="M 538 4863 
L 1656 4863 
L 1656 0 
L 538 0 
L 538 4863 
z
" transform="scale(0.015625)"/>
       <path id="DejaVuSans-Bold-6f" d="M 2203 2784 
Q 1831 2784 1636 2517 
Q 1441 2250 1441 1747 
Q 1441 1244 1636 976 
Q 1831 709 2203 709 
Q 2569 709 2762 976 
Q 2956 1244 2956 1747 
Q 2956 2250 2762 2517 
Q 2569 2784 2203 2784 
z
M 2203 3584 
Q 3106 3584 3614 3096 
Q 4122 2609 4122 1747 
Q 4122 884 3614 396 
Q 3106 -91 2203 -91 
Q 1297 -91 786 396 
Q 275 884 275 1747 
Q 275 2609 786 3096 
Q 1297 3584 2203 3584 
z
" transform="scale(0.015625)"/>
       <path id="DejaVuSans-Bold-64" d="M 2919 2988 
L 2919 4863 
L 4044 4863 
L 4044 0 
L 2919 0 
L 2919 506 
Q 2688 197 2409 53 
Q 2131 -91 1766 -91 
Q 1119 -91 703 423 
Q 288 938 288 1747 
Q 288 2556 703 3070 
Q 1119 3584 1766 3584 
Q 2128 3584 2408 3439 
Q 2688 3294 2919 2988 
z
M 2181 722 
Q 2541 722 2730 984 
Q 2919 1247 2919 1747 
Q 2919 2247 2730 2509 
Q 2541 2772 2181 2772 
Q 1825 2772 1636 2509 
Q 1447 2247 1447 1747 
Q 1447 1247 1636 984 
Q 1825 722 2181 722 
z
" transform="scale(0.015625)"/>
       <path id="DejaVuSans-Bold-4d" d="M 588 4666 
L 2119 4666 
L 3181 2169 
L 4250 4666 
L 5778 4666 
L 5778 0 
L 4641 0 
L 4641 3413 
L 3566 897 
L 2803 897 
L 1728 3413 
L 1728 0 
L 588 0 
L 588 4666 
z
" transform="scale(0.015625)"/>
      </defs>
      <use xlink:href="#DejaVuSans-Bold-72"/>
      <use xlink:href="#DejaVuSans-Bold-61" transform="translate(49.316406 0)"/>
      <use xlink:href="#DejaVuSans-Bold-70" transform="translate(116.796875 0)"/>
      <use xlink:href="#DejaVuSans-Bold-61" transform="translate(188.378906 0)"/>
      <use xlink:href="#DejaVuSans-Bold-6d" transform="translate(255.859375 0)"/>
      <use xlink:href="#DejaVuSans-Bold-79" transform="translate(360.058594 0)"/>
      <use xlink:href="#DejaVuSans-Bold-63" transform="translate(425.244141 0)"/>
      <use xlink:href="#DejaVuSans-Bold-69" transform="translate(484.521484 0)"/>
      <use xlink:href="#DejaVuSans-Bold-6e" transform="translate(518.798828 0)"/>
      <use xlink:href="#DejaVuSans-Bold-20" transform="translate(589.990234 0)"/>
      <use xlink:href="#DejaVuSans-Bold-62" transform="translate(624.804688 0)"/>
      <use xlink:href="#DejaVuSans-Bold-6c" transform="translate(696.386719 0)"/>
      <use xlink:href="#DejaVuSans-Bold-6f" transform="translate(730.664062 0)"/>
      <use xlink:href="#DejaVuSans-Bold-6f" transform="translate(799.365234 0)"/>
      <use xlink:href="#DejaVuSans-Bold-64" transform="translate(868.066406 0)"/>
      <use xlink:href="#DejaVuSans-Bold-20" transform="translate(939.648438 0)"/>
      <use xlink:href="#DejaVuSans-Bold-5b" transform="translate(974.462891 0)"/>
      <use xlink:href="#DejaVuSans-Bold-6e" transform="translate(1020.166016 0)"/>
      <use xlink:href="#DejaVuSans-Bold-4d" transform="translate(1091.357422 0)"/>
      <use xlink:href="#DejaVuSans-Bold-5d" transform="translate(1190.869141 0)"/>
     </g>
    </g>
   </g>
   <g id="LineCollection_1">
    <path clip-path="url(#p890430b23b)" style="fill: none; stroke: #000000"/>
    <path d="M 73.384495 301.012349 
L 73.384495 276.847794 
" clip-path="url(#p890430b23b)" style="fill: none; stroke: #000000"/>
    <path d="M 74.189368 270.386587 
L 74.189368 214.82947 
" clip-path="url(#p890430b23b)" style="fill: none; stroke: #000000"/>
    <path d="M 74.970568 253.450891 
L 74.970568 178.496096 
" clip-path="url(#p890430b23b)" style="fill: none; stroke: #000000"/>
    <path d="M 77.337841 235.728499 
L 77.337841 151.945405 
" clip-path="url(#p890430b23b)" style="fill: none; stroke: #000000"/>
    <path clip-path="url(#p890430b23b)" style="fill: none; stroke: #000000"/>
    <path d="M 84.439659 277.803791 
L 84.439659 135.868815 
" clip-path="url(#p890430b23b)" style="fill: none; stroke: #000000"/>
    <path d="M 91.541477 255.468814 
L 91.541477 192.513469 
" clip-path="url(#p890430b23b)" style="fill: none; stroke: #000000"/>
    <path d="M 101.010568 261.844642 
L 101.010568 217.668598 
" clip-path="url(#p890430b23b)" style="fill: none; stroke: #000000"/>
    <path d="M 129.417841 278.294225 
L 129.417841 239.211818 
" clip-path="url(#p890430b23b)" style="fill: none; stroke: #000000"/>
    <path d="M 157.825114 283.910378 
L 157.825114 259.797456 
" clip-path="url(#p890430b23b)" style="fill: none; stroke: #000000"/>
    <path d="M 186.232386 287.79207 
L 186.232386 267.302087 
" clip-path="url(#p890430b23b)" style="fill: none; stroke: #000000"/>
    <path d="M 243.046932 292.680649 
L 243.046932 274.375364 
" clip-path="url(#p890430b23b)" style="fill: none; stroke: #000000"/>
    <path d="M 299.861477 294.077557 
L 299.861477 283.486489 
" clip-path="url(#p890430b23b)" style="fill: none; stroke: #000000"/>
    <path d="M 356.676023 307.8 
L 356.676023 275.55278 
" clip-path="url(#p890430b23b)" style="fill: none; stroke: #000000"/>
    <path clip-path="url(#p890430b23b)" style="fill: none; stroke: #000000"/>
   </g>
   <g id="line2d_13">
    <path d="M 72.603295 302.03961 
L 72.780841 286.609777 
L 73.491023 150.17356 
L 74.023659 95.176139 
L 74.37875 74.671151 
L 74.733841 62.857367 
L 75.088932 57.186762 
L 75.266477 56.052516 
L 75.444023 55.8 
L 75.621568 56.274734 
L 75.976659 58.900128 
L 76.509295 65.593938 
L 77.752114 86.033681 
L 79.350023 111.115286 
L 80.592841 126.877736 
L 81.835659 139.520162 
L 83.078477 149.690344 
L 84.321295 158.008149 
L 85.741659 165.871395 
L 87.162023 172.488231 
L 88.759932 178.894366 
L 90.535386 185.120297 
L 92.665932 191.746256 
L 94.974023 198.206633 
L 97.637205 204.998732 
L 100.477932 211.646318 
L 103.496205 218.156999 
L 106.692023 224.514763 
L 109.887841 230.38002 
L 113.083659 235.797309 
L 116.457023 241.070108 
L 119.830386 245.922493 
L 123.20375 250.388426 
L 126.577114 254.498849 
L 130.128023 258.472687 
L 133.678932 262.114346 
L 137.407386 265.610941 
L 141.135841 268.801308 
L 145.041841 271.84434 
L 148.947841 274.608778 
L 153.031386 277.228648 
L 157.292477 279.69603 
L 161.731114 282.005666 
L 166.347295 284.154786 
L 171.141023 286.142893 
L 176.289841 288.032798 
L 181.616205 289.751765 
L 187.297659 291.353462 
L 193.334205 292.827147 
L 199.903386 294.200912 
L 207.005205 295.456581 
L 214.817205 296.606784 
L 223.339386 297.633615 
L 232.926841 298.558727 
L 243.757114 299.372342 
L 256.185295 300.074509 
L 270.744023 300.665702 
L 288.321023 301.147728 
L 310.514205 301.522747 
L 340.519386 301.792412 
L 386.326114 301.959439 
L 427.694205 302.010611 
L 427.694205 302.010611 
" clip-path="url(#p890430b23b)" style="fill: none; stroke: #000000; stroke-width: 2; stroke-linecap: square"/>
   </g>
   <g id="line2d_14">
    <path d="M 73.384495 288.930072 
L 74.189368 242.608029 
L 74.970568 215.973494 
L 77.337841 193.836952 
L 79.705114 199.168167 
L 84.439659 206.836303 
L 91.541477 223.991141 
L 101.010568 239.75662 
L 129.417841 258.753022 
L 157.825114 271.853917 
L 186.232386 277.547079 
L 243.046932 283.528007 
L 299.861477 288.782023 
L 356.676023 291.67639 
L 413.490568 294.020228 
" clip-path="url(#p890430b23b)" style="fill: none; stroke-dasharray: 3.7,1.6; stroke-dashoffset: 0; stroke: #000000"/>
    <defs>
     <path id="m8def1c4b32" d="M -3 3 
L 3 3 
L 3 -3 
L -3 -3 
z
" style="stroke: #000000; stroke-linejoin: miter"/>
    </defs>
    <g clip-path="url(#p890430b23b)">
     <use xlink:href="#m8def1c4b32" x="73.384495" y="288.930072" style="stroke: #000000; stroke-linejoin: miter"/>
     <use xlink:href="#m8def1c4b32" x="74.189368" y="242.608029" style="stroke: #000000; stroke-linejoin: miter"/>
     <use xlink:href="#m8def1c4b32" x="74.970568" y="215.973494" style="stroke: #000000; stroke-linejoin: miter"/>
     <use xlink:href="#m8def1c4b32" x="77.337841" y="193.836952" style="stroke: #000000; stroke-linejoin: miter"/>
     <use xlink:href="#m8def1c4b32" x="79.705114" y="199.168167" style="stroke: #000000; stroke-linejoin: miter"/>
     <use xlink:href="#m8def1c4b32" x="84.439659" y="206.836303" style="stroke: #000000; stroke-linejoin: miter"/>
     <use xlink:href="#m8def1c4b32" x="91.541477" y="223.991141" style="stroke: #000000; stroke-linejoin: miter"/>
     <use xlink:href="#m8def1c4b32" x="101.010568" y="239.75662" style="stroke: #000000; stroke-linejoin: miter"/>
     <use xlink:href="#m8def1c4b32" x="129.417841" y="258.753022" style="stroke: #000000; stroke-linejoin: miter"/>
     <use xlink:href="#m8def1c4b32" x="157.825114" y="271.853917" style="stroke: #000000; stroke-linejoin: miter"/>
     <use xlink:href="#m8def1c4b32" x="186.232386" y="277.547079" style="stroke: #000000; stroke-linejoin: miter"/>
     <use xlink:href="#m8def1c4b32" x="243.046932" y="283.528007" style="stroke: #000000; stroke-linejoin: miter"/>
     <use xlink:href="#m8def1c4b32" x="299.861477" y="288.782023" style="stroke: #000000; stroke-linejoin: miter"/>
     <use xlink:href="#m8def1c4b32" x="356.676023" y="291.67639" style="stroke: #000000; stroke-linejoin: miter"/>
     <use xlink:href="#m8def1c4b32" x="413.490568" y="294.020228" style="stroke: #000000; stroke-linejoin: miter"/>
    </g>
   </g>
   <g id="line2d_15">
    <path d="M 72.603295 302.03961 
L 72.780841 286.609777 
L 73.491023 150.17356 
L 74.023659 95.176139 
L 74.37875 74.671151 
L 74.733841 62.857367 
L 75.088932 57.186762 
L 75.266477 56.052516 
L 75.444023 55.8 
L 75.621568 56.274734 
L 75.976659 58.900128 
L 76.509295 65.593938 
L 77.752114 86.033681 
L 79.350023 111.115286 
L 80.592841 126.877736 
L 81.835659 139.520162 
L 83.078477 149.690344 
L 84.321295 158.008149 
L 85.741659 165.871395 
L 87.162023 172.488231 
L 88.759932 178.894366 
L 90.535386 185.120297 
L 92.665932 191.746256 
L 94.974023 198.206633 
L 97.637205 204.998732 
L 100.477932 211.646318 
L 103.496205 218.156999 
L 106.692023 224.514763 
L 109.887841 230.38002 
L 113.083659 235.797309 
L 116.457023 241.070108 
L 119.830386 245.922493 
L 123.20375 250.388426 
L 126.577114 254.498849 
L 130.128023 258.472687 
L 133.678932 262.114346 
L 137.407386 265.610941 
L 141.135841 268.801308 
L 145.041841 271.84434 
L 148.947841 274.608778 
L 153.031386 277.228648 
L 157.292477 279.69603 
L 161.731114 282.005666 
L 166.347295 284.154786 
L 171.141023 286.142893 
L 176.289841 288.032798 
L 181.616205 289.751765 
L 187.297659 291.353462 
L 193.334205 292.827147 
L 199.903386 294.200912 
L 207.005205 295.456581 
L 214.817205 296.606784 
L 223.339386 297.633615 
L 232.926841 298.558727 
L 243.757114 299.372342 
L 256.185295 300.074509 
L 270.744023 300.665702 
L 288.321023 301.147728 
L 310.514205 301.522747 
L 340.519386 301.792412 
L 386.326114 301.959439 
L 427.694205 302.010611 
L 427.694205 302.010611 
" clip-path="url(#p890430b23b)" style="fill: none; stroke: #e3256b; stroke-width: 2; stroke-linecap: square"/>
   </g>
   <g id="line2d_16">
    <path d="M 73.384495 283.118609 
L 74.189368 234.270172 
L 74.970568 214.217254 
L 77.337841 197.419036 
L 79.705114 204.561778 
L 84.439659 214.520805 
L 91.541477 234.736226 
L 101.010568 241.411435 
L 129.417841 260.185855 
L 157.825114 272.754871 
L 186.232386 278.437396 
L 243.046932 285.474308 
L 299.861477 289.561476 
L 356.676023 292.153467 
L 413.490568 294.491744 
" clip-path="url(#p890430b23b)" style="fill: none; stroke-dasharray: 3.7,1.6; stroke-dashoffset: 0; stroke: #e3256b"/>
    <defs>
     <path id="m1885ead3f2" d="M -3 3 
L 3 3 
L 3 -3 
L -3 -3 
z
" style="stroke: #000000; stroke-linejoin: miter"/>
    </defs>
    <g clip-path="url(#p890430b23b)">
     <use xlink:href="#m1885ead3f2" x="73.384495" y="283.118609" style="fill: #e3256b; stroke: #000000; stroke-linejoin: miter"/>
     <use xlink:href="#m1885ead3f2" x="74.189368" y="234.270172" style="fill: #e3256b; stroke: #000000; stroke-linejoin: miter"/>
     <use xlink:href="#m1885ead3f2" x="74.970568" y="214.217254" style="fill: #e3256b; stroke: #000000; stroke-linejoin: miter"/>
     <use xlink:href="#m1885ead3f2" x="77.337841" y="197.419036" style="fill: #e3256b; stroke: #000000; stroke-linejoin: miter"/>
     <use xlink:href="#m1885ead3f2" x="79.705114" y="204.561778" style="fill: #e3256b; stroke: #000000; stroke-linejoin: miter"/>
     <use xlink:href="#m1885ead3f2" x="84.439659" y="214.520805" style="fill: #e3256b; stroke: #000000; stroke-linejoin: miter"/>
     <use xlink:href="#m1885ead3f2" x="91.541477" y="234.736226" style="fill: #e3256b; stroke: #000000; stroke-linejoin: miter"/>
     <use xlink:href="#m1885ead3f2" x="101.010568" y="241.411435" style="fill: #e3256b; stroke: #000000; stroke-linejoin: miter"/>
     <use xlink:href="#m1885ead3f2" x="129.417841" y="260.185855" style="fill: #e3256b; stroke: #000000; stroke-linejoin: miter"/>
     <use xlink:href="#m1885ead3f2" x="157.825114" y="272.754871" style="fill: #e3256b; stroke: #000000; stroke-linejoin: miter"/>
     <use xlink:href="#m1885ead3f2" x="186.232386" y="278.437396" style="fill: #e3256b; stroke: #000000; stroke-linejoin: miter"/>
     <use xlink:href="#m1885ead3f2" x="243.046932" y="285.474308" style="fill: #e3256b; stroke: #000000; stroke-linejoin: miter"/>
     <use xlink:href="#m1885ead3f2" x="299.861477" y="289.561476" style="fill: #e3256b; stroke: #000000; stroke-linejoin: miter"/>
     <use xlink:href="#m1885ead3f2" x="356.676023" y="292.153467" style="fill: #e3256b; stroke: #000000; stroke-linejoin: miter"/>
     <use xlink:href="#m1885ead3f2" x="413.490568" y="294.491744" style="fill: #e3256b; stroke: #000000; stroke-linejoin: miter"/>
    </g>
   </g>
   <g id="line2d_17">
    <path d="M 72.603295 302.03961 
L 72.780841 286.609777 
L 73.491023 150.17356 
L 74.023659 95.176139 
L 74.37875 74.671151 
L 74.733841 62.857367 
L 75.088932 57.186762 
L 75.266477 56.052516 
L 75.444023 55.8 
L 75.621568 56.274734 
L 75.976659 58.900128 
L 76.509295 65.593938 
L 77.752114 86.033681 
L 79.350023 111.115286 
L 80.592841 126.877736 
L 81.835659 139.520162 
L 83.078477 149.690344 
L 84.321295 158.008149 
L 85.741659 165.871395 
L 87.162023 172.488231 
L 88.759932 178.894366 
L 90.535386 185.120297 
L 92.665932 191.746256 
L 94.974023 198.206633 
L 97.637205 204.998732 
L 100.477932 211.646318 
L 103.496205 218.156999 
L 106.692023 224.514763 
L 109.887841 230.38002 
L 113.083659 235.797309 
L 116.457023 241.070108 
L 119.830386 245.922493 
L 123.20375 250.388426 
L 126.577114 254.498849 
L 130.128023 258.472687 
L 133.678932 262.114346 
L 137.407386 265.610941 
L 141.135841 268.801308 
L 145.041841 271.84434 
L 148.947841 274.608778 
L 153.031386 277.228648 
L 157.292477 279.69603 
L 161.731114 282.005666 
L 166.347295 284.154786 
L 171.141023 286.142893 
L 176.289841 288.032798 
L 181.616205 289.751765 
L 187.297659 291.353462 
L 193.334205 292.827147 
L 199.903386 294.200912 
L 207.005205 295.456581 
L 214.817205 296.606784 
L 223.339386 297.633615 
L 232.926841 298.558727 
L 243.757114 299.372342 
L 256.185295 300.074509 
L 270.744023 300.665702 
L 288.321023 301.147728 
L 310.514205 301.522747 
L 340.519386 301.792412 
L 386.326114 301.959439 
L 427.694205 302.010611 
L 427.694205 302.010611 
" clip-path="url(#p890430b23b)" style="fill: none; stroke: #d65282; stroke-width: 2; stroke-linecap: square"/>
   </g>
   <g id="line2d_18">
    <path d="M 73.384495 287.040418 
L 74.189368 240.573296 
L 74.970568 211.210717 
L 77.337841 181.935031 
L 79.705114 170.952245 
L 84.439659 193.113607 
L 91.541477 214.231632 
L 101.010568 229.569341 
L 129.417841 258.753022 
L 157.825114 272.951374 
L 186.232386 278.437447 
L 243.046932 285.079319 
L 299.861477 289.220892 
L 356.676023 291.917739 
L 413.490568 293.717705 
" clip-path="url(#p890430b23b)" style="fill: none; stroke-dasharray: 3.7,1.6; stroke-dashoffset: 0; stroke: #d65282"/>
    <defs>
     <path id="m653b24b570" d="M -3 3 
L 3 3 
L 3 -3 
L -3 -3 
z
" style="stroke: #000000; stroke-linejoin: miter"/>
    </defs>
    <g clip-path="url(#p890430b23b)">
     <use xlink:href="#m653b24b570" x="73.384495" y="287.040418" style="fill: #d65282; stroke: #000000; stroke-linejoin: miter"/>
     <use xlink:href="#m653b24b570" x="74.189368" y="240.573296" style="fill: #d65282; stroke: #000000; stroke-linejoin: miter"/>
     <use xlink:href="#m653b24b570" x="74.970568" y="211.210717" style="fill: #d65282; stroke: #000000; stroke-linejoin: miter"/>
     <use xlink:href="#m653b24b570" x="77.337841" y="181.935031" style="fill: #d65282; stroke: #000000; stroke-linejoin: miter"/>
     <use xlink:href="#m653b24b570" x="79.705114" y="170.952245" style="fill: #d65282; stroke: #000000; stroke-linejoin: miter"/>
     <use xlink:href="#m653b24b570" x="84.439659" y="193.113607" style="fill: #d65282; stroke: #000000; stroke-linejoin: miter"/>
     <use xlink:href="#m653b24b570" x="91.541477" y="214.231632" style="fill: #d65282; stroke: #000000; stroke-linejoin: miter"/>
     <use xlink:href="#m653b24b570" x="101.010568" y="229.569341" style="fill: #d65282; stroke: #000000; stroke-linejoin: miter"/>
     <use xlink:href="#m653b24b570" x="129.417841" y="258.753022" style="fill: #d65282; stroke: #000000; stroke-linejoin: miter"/>
     <use xlink:href="#m653b24b570" x="157.825114" y="272.951374" style="fill: #d65282; stroke: #000000; stroke-linejoin: miter"/>
     <use xlink:href="#m653b24b570" x="186.232386" y="278.437447" style="fill: #d65282; stroke: #000000; stroke-linejoin: miter"/>
     <use xlink:href="#m653b24b570" x="243.046932" y="285.079319" style="fill: #d65282; stroke: #000000; stroke-linejoin: miter"/>
     <use xlink:href="#m653b24b570" x="299.861477" y="289.220892" style="fill: #d65282; stroke: #000000; stroke-linejoin: miter"/>
     <use xlink:href="#m653b24b570" x="356.676023" y="291.917739" style="fill: #d65282; stroke: #000000; stroke-linejoin: miter"/>
     <use xlink:href="#m653b24b570" x="413.490568" y="293.717705" style="fill: #d65282; stroke: #000000; stroke-linejoin: miter"/>
    </g>
   </g>
   <g id="patch_3">
    <path d="M 54.84875 320.4 
L 54.84875 43.2 
" style="fill: none; stroke: #000000; stroke-width: 0.8; stroke-linejoin: miter; stroke-linecap: square"/>
   </g>
   <g id="patch_4">
    <path d="M 445.44875 320.4 
L 445.44875 43.2 
" style="fill: none; stroke: #000000; stroke-width: 0.8; stroke-linejoin: miter; stroke-linecap: square"/>
   </g>
   <g id="patch_5">
    <path d="M 54.84875 320.4 
L 445.44875 320.4 
" style="fill: none; stroke: #000000; stroke-width: 0.8; stroke-linejoin: miter; stroke-linecap: square"/>
   </g>
   <g id="patch_6">
    <path d="M 54.84875 43.2 
L 445.44875 43.2 
" style="fill: none; stroke: #000000; stroke-width: 0.8; stroke-linejoin: miter; stroke-linecap: square"/>
   </g>
   <g id="legend_1">
    <g id="patch_7">
     <path d="M 313.453438 139.825 
L 438.44875 139.825 
Q 440.44875 139.825 440.44875 137.825 
L 440.44875 50.2 
Q 440.44875 48.2 438.44875 48.2 
L 313.453438 48.2 
Q 311.453438 48.2 311.453438 50.2 
L 311.453438 137.825 
Q 311.453438 139.825 313.453438 139.825 
z
" style="fill: #ffffff; opacity: 0.8; stroke: #cccccc; stroke-linejoin: miter"/>
    </g>
    <g id="line2d_19">
     <path d="M 315.453438 56.298437 
L 335.453438 56.298437 
" style="fill: none; stroke: #000000; stroke-width: 2; stroke-linecap: square"/>
    </g>
    <g id="line2d_20"/>
    <g id="text_15">
     <!-- RAP15 -->
     <g transform="translate(343.453438 59.798437) scale(0.1 -0.1)">
      <defs>
       <path id="DejaVuSans-52" d="M 2841 2188 
Q 3044 2119 3236 1894 
Q 3428 1669 3622 1275 
L 4263 0 
L 3584 0 
L 2988 1197 
Q 2756 1666 2539 1819 
Q 2322 1972 1947 1972 
L 1259 1972 
L 1259 0 
L 628 0 
L 628 4666 
L 2053 4666 
Q 2853 4666 3247 4331 
Q 3641 3997 3641 3322 
Q 3641 2881 3436 2590 
Q 3231 2300 2841 2188 
z
M 1259 4147 
L 1259 2491 
L 2053 2491 
Q 2509 2491 2742 2702 
Q 2975 2913 2975 3322 
Q 2975 3731 2742 3939 
Q 2509 4147 2053 4147 
L 1259 4147 
z
" transform="scale(0.015625)"/>
       <path id="DejaVuSans-41" d="M 2188 4044 
L 1331 1722 
L 3047 1722 
L 2188 4044 
z
M 1831 4666 
L 2547 4666 
L 4325 0 
L 3669 0 
L 3244 1197 
L 1141 1197 
L 716 0 
L 50 0 
L 1831 4666 
z
" transform="scale(0.015625)"/>
       <path id="DejaVuSans-50" d="M 1259 4147 
L 1259 2394 
L 2053 2394 
Q 2494 2394 2734 2622 
Q 2975 2850 2975 3272 
Q 2975 3691 2734 3919 
Q 2494 4147 2053 4147 
L 1259 4147 
z
M 628 4666 
L 2053 4666 
Q 2838 4666 3239 4311 
Q 3641 3956 3641 3272 
Q 3641 2581 3239 2228 
Q 2838 1875 2053 1875 
L 1259 1875 
L 1259 0 
L 628 0 
L 628 4666 
z
" transform="scale(0.015625)"/>
      </defs>
      <use xlink:href="#DejaVuSans-52"/>
      <use xlink:href="#DejaVuSans-41" transform="translate(65.482422 0)"/>
      <use xlink:href="#DejaVuSans-50" transform="translate(133.890625 0)"/>
      <use xlink:href="#DejaVuSans-31" transform="translate(194.193359 0)"/>
      <use xlink:href="#DejaVuSans-35" transform="translate(257.816406 0)"/>
     </g>
    </g>
    <g id="LineCollection_2">
     <path d="M 325.453438 75.976562 
L 325.453438 65.976562 
" style="fill: none; stroke: #000000"/>
    </g>
    <g id="line2d_21">
     <path d="M 315.453438 70.976562 
L 335.453438 70.976562 
" style="fill: none; stroke-dasharray: 3.7,1.6; stroke-dashoffset: 0; stroke: #000000"/>
    </g>
    <g id="line2d_22">
     <g>
      <use xlink:href="#m8def1c4b32" x="325.453438" y="70.976562" style="stroke: #000000; stroke-linejoin: miter"/>
     </g>
    </g>
    <g id="text_16">
     <!-- RAP15±SD (n=27) -->
     <g transform="translate(343.453438 74.476562) scale(0.1 -0.1)">
      <defs>
       <path id="DejaVuSans-b1" d="M 2944 4013 
L 2944 2803 
L 4684 2803 
L 4684 2272 
L 2944 2272 
L 2944 1063 
L 2419 1063 
L 2419 2272 
L 678 2272 
L 678 2803 
L 2419 2803 
L 2419 4013 
L 2944 4013 
z
M 678 531 
L 4684 531 
L 4684 0 
L 678 0 
L 678 531 
z
" transform="scale(0.015625)"/>
       <path id="DejaVuSans-53" d="M 3425 4513 
L 3425 3897 
Q 3066 4069 2747 4153 
Q 2428 4238 2131 4238 
Q 1616 4238 1336 4038 
Q 1056 3838 1056 3469 
Q 1056 3159 1242 3001 
Q 1428 2844 1947 2747 
L 2328 2669 
Q 3034 2534 3370 2195 
Q 3706 1856 3706 1288 
Q 3706 609 3251 259 
Q 2797 -91 1919 -91 
Q 1588 -91 1214 -16 
Q 841 59 441 206 
L 441 856 
Q 825 641 1194 531 
Q 1563 422 1919 422 
Q 2459 422 2753 634 
Q 3047 847 3047 1241 
Q 3047 1584 2836 1778 
Q 2625 1972 2144 2069 
L 1759 2144 
Q 1053 2284 737 2584 
Q 422 2884 422 3419 
Q 422 4038 858 4394 
Q 1294 4750 2059 4750 
Q 2388 4750 2728 4690 
Q 3069 4631 3425 4513 
z
" transform="scale(0.015625)"/>
       <path id="DejaVuSans-44" d="M 1259 4147 
L 1259 519 
L 2022 519 
Q 2988 519 3436 956 
Q 3884 1394 3884 2338 
Q 3884 3275 3436 3711 
Q 2988 4147 2022 4147 
L 1259 4147 
z
M 628 4666 
L 1925 4666 
Q 3281 4666 3915 4102 
Q 4550 3538 4550 2338 
Q 4550 1131 3912 565 
Q 3275 0 1925 0 
L 628 0 
L 628 4666 
z
" transform="scale(0.015625)"/>
       <path id="DejaVuSans-20" transform="scale(0.015625)"/>
       <path id="DejaVuSans-28" d="M 1984 4856 
Q 1566 4138 1362 3434 
Q 1159 2731 1159 2009 
Q 1159 1288 1364 580 
Q 1569 -128 1984 -844 
L 1484 -844 
Q 1016 -109 783 600 
Q 550 1309 550 2009 
Q 550 2706 781 3412 
Q 1013 4119 1484 4856 
L 1984 4856 
z
" transform="scale(0.015625)"/>
       <path id="DejaVuSans-6e" d="M 3513 2113 
L 3513 0 
L 2938 0 
L 2938 2094 
Q 2938 2591 2744 2837 
Q 2550 3084 2163 3084 
Q 1697 3084 1428 2787 
Q 1159 2491 1159 1978 
L 1159 0 
L 581 0 
L 581 3500 
L 1159 3500 
L 1159 2956 
Q 1366 3272 1645 3428 
Q 1925 3584 2291 3584 
Q 2894 3584 3203 3211 
Q 3513 2838 3513 2113 
z
" transform="scale(0.015625)"/>
       <path id="DejaVuSans-3d" d="M 678 2906 
L 4684 2906 
L 4684 2381 
L 678 2381 
L 678 2906 
z
M 678 1631 
L 4684 1631 
L 4684 1100 
L 678 1100 
L 678 1631 
z
" transform="scale(0.015625)"/>
       <path id="DejaVuSans-29" d="M 513 4856 
L 1013 4856 
Q 1481 4119 1714 3412 
Q 1947 2706 1947 2009 
Q 1947 1309 1714 600 
Q 1481 -109 1013 -844 
L 513 -844 
Q 928 -128 1133 580 
Q 1338 1288 1338 2009 
Q 1338 2731 1133 3434 
Q 928 4138 513 4856 
z
" transform="scale(0.015625)"/>
      </defs>
      <use xlink:href="#DejaVuSans-52"/>
      <use xlink:href="#DejaVuSans-41" transform="translate(65.482422 0)"/>
      <use xlink:href="#DejaVuSans-50" transform="translate(133.890625 0)"/>
      <use xlink:href="#DejaVuSans-31" transform="translate(194.193359 0)"/>
      <use xlink:href="#DejaVuSans-35" transform="translate(257.816406 0)"/>
      <use xlink:href="#DejaVuSans-b1" transform="translate(321.439453 0)"/>
      <use xlink:href="#DejaVuSans-53" transform="translate(405.228516 0)"/>
      <use xlink:href="#DejaVuSans-44" transform="translate(468.705078 0)"/>
      <use xlink:href="#DejaVuSans-20" transform="translate(545.707031 0)"/>
      <use xlink:href="#DejaVuSans-28" transform="translate(577.494141 0)"/>
      <use xlink:href="#DejaVuSans-6e" transform="translate(616.507812 0)"/>
      <use xlink:href="#DejaVuSans-3d" transform="translate(679.886719 0)"/>
      <use xlink:href="#DejaVuSans-32" transform="translate(763.675781 0)"/>
      <use xlink:href="#DejaVuSans-37" transform="translate(827.298828 0)"/>
      <use xlink:href="#DejaVuSans-29" transform="translate(890.921875 0)"/>
     </g>
    </g>
    <g id="line2d_23">
     <path d="M 315.453438 85.654687 
L 335.453438 85.654687 
" style="fill: none; stroke: #e3256b; stroke-width: 2; stroke-linecap: square"/>
    </g>
    <g id="line2d_24"/>
    <g id="text_17">
     <!-- TAC10 -->
     <g transform="translate(343.453438 89.154687) scale(0.1 -0.1)">
      <defs>
       <path id="DejaVuSans-54" d="M -19 4666 
L 3928 4666 
L 3928 4134 
L 2272 4134 
L 2272 0 
L 1638 0 
L 1638 4134 
L -19 4134 
L -19 4666 
z
" transform="scale(0.015625)"/>
       <path id="DejaVuSans-43" d="M 4122 4306 
L 4122 3641 
Q 3803 3938 3442 4084 
Q 3081 4231 2675 4231 
Q 1875 4231 1450 3742 
Q 1025 3253 1025 2328 
Q 1025 1406 1450 917 
Q 1875 428 2675 428 
Q 3081 428 3442 575 
Q 3803 722 4122 1019 
L 4122 359 
Q 3791 134 3420 21 
Q 3050 -91 2638 -91 
Q 1578 -91 968 557 
Q 359 1206 359 2328 
Q 359 3453 968 4101 
Q 1578 4750 2638 4750 
Q 3056 4750 3426 4639 
Q 3797 4528 4122 4306 
z
" transform="scale(0.015625)"/>
      </defs>
      <use xlink:href="#DejaVuSans-54"/>
      <use xlink:href="#DejaVuSans-41" transform="translate(53.333984 0)"/>
      <use xlink:href="#DejaVuSans-43" transform="translate(119.992188 0)"/>
      <use xlink:href="#DejaVuSans-31" transform="translate(189.816406 0)"/>
      <use xlink:href="#DejaVuSans-30" transform="translate(253.439453 0)"/>
     </g>
    </g>
    <g id="line2d_25">
     <path d="M 315.453438 100.332812 
L 335.453438 100.332812 
" style="fill: none; stroke-dasharray: 3.7,1.6; stroke-dashoffset: 0; stroke: #e3256b"/>
    </g>
    <g id="line2d_26">
     <g>
      <use xlink:href="#m1885ead3f2" x="325.453438" y="100.332812" style="fill: #e3256b; stroke: #000000; stroke-linejoin: miter"/>
     </g>
    </g>
    <g id="text_18">
     <!-- TAC10 (n=27) -->
     <g transform="translate(343.453438 103.832812) scale(0.1 -0.1)">
      <use xlink:href="#DejaVuSans-54"/>
      <use xlink:href="#DejaVuSans-41" transform="translate(53.333984 0)"/>
      <use xlink:href="#DejaVuSans-43" transform="translate(119.992188 0)"/>
      <use xlink:href="#DejaVuSans-31" transform="translate(189.816406 0)"/>
      <use xlink:href="#DejaVuSans-30" transform="translate(253.439453 0)"/>
      <use xlink:href="#DejaVuSans-20" transform="translate(317.0625 0)"/>
      <use xlink:href="#DejaVuSans-28" transform="translate(348.849609 0)"/>
      <use xlink:href="#DejaVuSans-6e" transform="translate(387.863281 0)"/>
      <use xlink:href="#DejaVuSans-3d" transform="translate(451.242188 0)"/>
      <use xlink:href="#DejaVuSans-32" transform="translate(535.03125 0)"/>
      <use xlink:href="#DejaVuSans-37" transform="translate(598.654297 0)"/>
      <use xlink:href="#DejaVuSans-29" transform="translate(662.277344 0)"/>
     </g>
    </g>
    <g id="line2d_27">
     <path d="M 315.453438 115.010937 
L 335.453438 115.010937 
" style="fill: none; stroke: #d65282; stroke-width: 2; stroke-linecap: square"/>
    </g>
    <g id="line2d_28"/>
    <g id="text_19">
     <!-- TAC10_4H -->
     <g transform="translate(343.453438 118.510937) scale(0.1 -0.1)">
      <defs>
       <path id="DejaVuSans-5f" d="M 3263 -1063 
L 3263 -1509 
L -63 -1509 
L -63 -1063 
L 3263 -1063 
z
" transform="scale(0.015625)"/>
       <path id="DejaVuSans-48" d="M 628 4666 
L 1259 4666 
L 1259 2753 
L 3553 2753 
L 3553 4666 
L 4184 4666 
L 4184 0 
L 3553 0 
L 3553 2222 
L 1259 2222 
L 1259 0 
L 628 0 
L 628 4666 
z
" transform="scale(0.015625)"/>
      </defs>
      <use xlink:href="#DejaVuSans-54"/>
      <use xlink:href="#DejaVuSans-41" transform="translate(53.333984 0)"/>
      <use xlink:href="#DejaVuSans-43" transform="translate(119.992188 0)"/>
      <use xlink:href="#DejaVuSans-31" transform="translate(189.816406 0)"/>
      <use xlink:href="#DejaVuSans-30" transform="translate(253.439453 0)"/>
      <use xlink:href="#DejaVuSans-5f" transform="translate(317.0625 0)"/>
      <use xlink:href="#DejaVuSans-34" transform="translate(367.0625 0)"/>
      <use xlink:href="#DejaVuSans-48" transform="translate(430.685547 0)"/>
     </g>
    </g>
    <g id="line2d_29">
     <path d="M 315.453438 129.967187 
L 335.453438 129.967187 
" style="fill: none; stroke-dasharray: 3.7,1.6; stroke-dashoffset: 0; stroke: #d65282"/>
    </g>
    <g id="line2d_30">
     <g>
      <use xlink:href="#m653b24b570" x="325.453438" y="129.967187" style="fill: #d65282; stroke: #000000; stroke-linejoin: miter"/>
     </g>
    </g>
    <g id="text_20">
     <!-- TAC10_4H (n=27) -->
     <g transform="translate(343.453438 133.467187) scale(0.1 -0.1)">
      <use xlink:href="#DejaVuSans-54"/>
      <use xlink:href="#DejaVuSans-41" transform="translate(53.333984 0)"/>
      <use xlink:href="#DejaVuSans-43" transform="translate(119.992188 0)"/>
      <use xlink:href="#DejaVuSans-31" transform="translate(189.816406 0)"/>
      <use xlink:href="#DejaVuSans-30" transform="translate(253.439453 0)"/>
      <use xlink:href="#DejaVuSans-5f" transform="translate(317.0625 0)"/>
      <use xlink:href="#DejaVuSans-34" transform="translate(367.0625 0)"/>
      <use xlink:href="#DejaVuSans-48" transform="translate(430.685547 0)"/>
      <use xlink:href="#DejaVuSans-20" transform="translate(505.880859 0)"/>
      <use xlink:href="#DejaVuSans-28" transform="translate(537.667969 0)"/>
      <use xlink:href="#DejaVuSans-6e" transform="translate(576.681641 0)"/>
      <use xlink:href="#DejaVuSans-3d" transform="translate(640.060547 0)"/>
      <use xlink:href="#DejaVuSans-32" transform="translate(723.849609 0)"/>
      <use xlink:href="#DejaVuSans-37" transform="translate(787.472656 0)"/>
      <use xlink:href="#DejaVuSans-29" transform="translate(851.095703 0)"/>
     </g>
    </g>
   </g>
  </g>
  <g id="text_21">
   <!-- Tortorici2013 -->
   <g transform="translate(150.729609 26.196094) scale(0.25 -0.25)">
    <defs>
     <path id="DejaVuSans-Bold-54" d="M 31 4666 
L 4331 4666 
L 4331 3756 
L 2784 3756 
L 2784 0 
L 1581 0 
L 1581 3756 
L 31 3756 
L 31 4666 
z
" transform="scale(0.015625)"/>
     <path id="DejaVuSans-Bold-32" d="M 1844 884 
L 3897 884 
L 3897 0 
L 506 0 
L 506 884 
L 2209 2388 
Q 2438 2594 2547 2791 
Q 2656 2988 2656 3200 
Q 2656 3528 2436 3728 
Q 2216 3928 1850 3928 
Q 1569 3928 1234 3808 
Q 900 3688 519 3450 
L 519 4475 
Q 925 4609 1322 4679 
Q 1719 4750 2100 4750 
Q 2938 4750 3402 4381 
Q 3866 4013 3866 3353 
Q 3866 2972 3669 2642 
Q 3472 2313 2841 1759 
L 1844 884 
z
" transform="scale(0.015625)"/>
     <path id="DejaVuSans-Bold-30" d="M 2944 2338 
Q 2944 3213 2780 3570 
Q 2616 3928 2228 3928 
Q 1841 3928 1675 3570 
Q 1509 3213 1509 2338 
Q 1509 1453 1675 1090 
Q 1841 728 2228 728 
Q 2613 728 2778 1090 
Q 2944 1453 2944 2338 
z
M 4147 2328 
Q 4147 1169 3647 539 
Q 3147 -91 2228 -91 
Q 1306 -91 806 539 
Q 306 1169 306 2328 
Q 306 3491 806 4120 
Q 1306 4750 2228 4750 
Q 3147 4750 3647 4120 
Q 4147 3491 4147 2328 
z
" transform="scale(0.015625)"/>
     <path id="DejaVuSans-Bold-31" d="M 750 831 
L 1813 831 
L 1813 3847 
L 722 3622 
L 722 4441 
L 1806 4666 
L 2950 4666 
L 2950 831 
L 4013 831 
L 4013 0 
L 750 0 
L 750 831 
z
" transform="scale(0.015625)"/>
     <path id="DejaVuSans-Bold-33" d="M 2981 2516 
Q 3453 2394 3698 2092 
Q 3944 1791 3944 1325 
Q 3944 631 3412 270 
Q 2881 -91 1863 -91 
Q 1503 -91 1142 -33 
Q 781 25 428 141 
L 428 1069 
Q 766 900 1098 814 
Q 1431 728 1753 728 
Q 2231 728 2486 893 
Q 2741 1059 2741 1369 
Q 2741 1688 2480 1852 
Q 2219 2016 1709 2016 
L 1228 2016 
L 1228 2791 
L 1734 2791 
Q 2188 2791 2409 2933 
Q 2631 3075 2631 3366 
Q 2631 3634 2415 3781 
Q 2200 3928 1806 3928 
Q 1516 3928 1219 3862 
Q 922 3797 628 3669 
L 628 4550 
Q 984 4650 1334 4700 
Q 1684 4750 2022 4750 
Q 2931 4750 3382 4451 
Q 3834 4153 3834 3553 
Q 3834 3144 3618 2883 
Q 3403 2622 2981 2516 
z
" transform="scale(0.015625)"/>
    </defs>
    <use xlink:href="#DejaVuSans-Bold-54"/>
    <use xlink:href="#DejaVuSans-Bold-6f" transform="translate(54.962891 0)"/>
    <use xlink:href="#DejaVuSans-Bold-72" transform="translate(123.664062 0)"/>
    <use xlink:href="#DejaVuSans-Bold-74" transform="translate(172.980469 0)"/>
    <use xlink:href="#DejaVuSans-Bold-6f" transform="translate(220.783203 0)"/>
    <use xlink:href="#DejaVuSans-Bold-72" transform="translate(289.484375 0)"/>
    <use xlink:href="#DejaVuSans-Bold-69" transform="translate(338.800781 0)"/>
    <use xlink:href="#DejaVuSans-Bold-63" transform="translate(373.078125 0)"/>
    <use xlink:href="#DejaVuSans-Bold-69" transform="translate(432.355469 0)"/>
    <use xlink:href="#DejaVuSans-Bold-32" transform="translate(466.632812 0)"/>
    <use xlink:href="#DejaVuSans-Bold-30" transform="translate(536.212891 0)"/>
    <use xlink:href="#DejaVuSans-Bold-31" transform="translate(605.792969 0)"/>
    <use xlink:href="#DejaVuSans-Bold-33" transform="translate(675.373047 0)"/>
   </g>
  </g>
 </g>
 <defs>
  <clipPath id="p890430b23b">
   <rect x="54.84875" y="43.2" width="390.6" height="277.2"/>
  </clipPath>
 </defs>
</svg>
