<?xml version="1.0" encoding="utf-8" standalone="no"?>
<!DOCTYPE svg PUBLIC "-//W3C//DTD SVG 1.1//EN"
  "http://www.w3.org/Graphics/SVG/1.1/DTD/svg11.dtd">
<svg xmlns:xlink="http://www.w3.org/1999/xlink" width="452.64875pt" height="370.537812pt" viewBox="0 0 452.64875 370.537812" xmlns="http://www.w3.org/2000/svg" version="1.1">
 <metadata>
  <rdf:RDF xmlns:dc="http://purl.org/dc/elements/1.1/" xmlns:cc="http://creativecommons.org/ns#" xmlns:rdf="http://www.w3.org/1999/02/22-rdf-syntax-ns#">
   <cc:Work>
    <dc:type rdf:resource="http://purl.org/dc/dcmitype/StillImage"/>
    <dc:date>2026-02-12T15:19:39.364794</dc:date>
    <dc:format>image/svg+xml</dc:format>
    <dc:creator>
     <cc:Agent>
      <dc:title>Matplotlib v3.10.7, https://matplotlib.org/</dc:title>
     </cc:Agent>
    </dc:creator>
   </cc:Work>
  </rdf:RDF>
 </metadata>
 <defs>
  <style type="text/css">*{stroke-linejoin: round; stroke-linecap: butt}</style>
 </defs>
 <g id="figure_1">
  <g id="patch_1">
   <path d="M 0 370.537812 
L 452.64875 370.537812 
L 452.64875 0 
L 0 0 
z
" style="fill: #ffffff"/>
  </g>
  <g id="axes_1">
   <g id="patch_2">
    <path d="M 54.84875 320.4 
L 445.44875 320.4 
L 445.44875 43.2 
L 54.84875 43.2 
z
" style="fill: #ffffff"/>
   </g>
   <g id="matplotlib.axis_1">
    <g id="xtick_1">
     <g id="line2d_1">
      <defs>
       <path id="m2de29b5afb" d="M 0 0 
L 0 3.5 
" style="stroke: #000000; stroke-width: 0.8"/>
      </defs>
      <g>
       <use xlink:href="#m2de29b5afb" x="72.603295" y="320.4" style="stroke: #000000; stroke-width: 0.8"/>
      </g>
     </g>
     <g id="text_1">
      <!-- 0 -->
      <g transform="translate(67.83142 338.797656) scale(0.15 -0.15)">
       <defs>
        <path id="DejaVuSans-30" d="M 2034 4250 
Q 1547 4250 1301 3770 
Q 1056 3291 1056 2328 
Q 1056 1369 1301 889 
Q 1547 409 2034 409 
Q 2525 409 2770 889 
Q 3016 1369 3016 2328 
Q 3016 3291 2770 3770 
Q 2525 4250 2034 4250 
z
M 2034 4750 
Q 2819 4750 3233 4129 
Q 3647 3509 3647 2328 
Q 3647 1150 3233 529 
Q 2819 -91 2034 -91 
Q 1250 -91 836 529 
Q 422 1150 422 2328 
Q 422 3509 836 4129 
Q 1250 4750 2034 4750 
z
" transform="scale(0.015625)"/>
       </defs>
       <use xlink:href="#DejaVuSans-30"/>
      </g>
     </g>
    </g>
    <g id="xtick_2">
     <g id="line2d_2">
      <g>
       <use xlink:href="#m2de29b5afb" x="143.621477" y="320.4" style="stroke: #000000; stroke-width: 0.8"/>
      </g>
     </g>
     <g id="text_2">
      <!-- 5 -->
      <g transform="translate(138.849602 338.797656) scale(0.15 -0.15)">
       <defs>
        <path id="DejaVuSans-35" d="M 691 4666 
L 3169 4666 
L 3169 4134 
L 1269 4134 
L 1269 2991 
Q 1406 3038 1543 3061 
Q 1681 3084 1819 3084 
Q 2600 3084 3056 2656 
Q 3513 2228 3513 1497 
Q 3513 744 3044 326 
Q 2575 -91 1722 -91 
Q 1428 -91 1123 -41 
Q 819 9 494 109 
L 494 744 
Q 775 591 1075 516 
Q 1375 441 1709 441 
Q 2250 441 2565 725 
Q 2881 1009 2881 1497 
Q 2881 1984 2565 2268 
Q 2250 2553 1709 2553 
Q 1456 2553 1204 2497 
Q 953 2441 691 2322 
L 691 4666 
z
" transform="scale(0.015625)"/>
       </defs>
       <use xlink:href="#DejaVuSans-35"/>
      </g>
     </g>
    </g>
    <g id="xtick_3">
     <g id="line2d_3">
      <g>
       <use xlink:href="#m2de29b5afb" x="214.639659" y="320.4" style="stroke: #000000; stroke-width: 0.8"/>
      </g>
     </g>
     <g id="text_3">
      <!-- 10 -->
      <g transform="translate(205.095909 338.797656) scale(0.15 -0.15)">
       <defs>
        <path id="DejaVuSans-31" d="M 794 531 
L 1825 531 
L 1825 4091 
L 703 3866 
L 703 4441 
L 1819 4666 
L 2450 4666 
L 2450 531 
L 3481 531 
L 3481 0 
L 794 0 
L 794 531 
z
" transform="scale(0.015625)"/>
       </defs>
       <use xlink:href="#DejaVuSans-31"/>
       <use xlink:href="#DejaVuSans-30" transform="translate(63.623047 0)"/>
      </g>
     </g>
    </g>
    <g id="xtick_4">
     <g id="line2d_4">
      <g>
       <use xlink:href="#m2de29b5afb" x="285.657841" y="320.4" style="stroke: #000000; stroke-width: 0.8"/>
      </g>
     </g>
     <g id="text_4">
      <!-- 15 -->
      <g transform="translate(276.114091 338.797656) scale(0.15 -0.15)">
       <use xlink:href="#DejaVuSans-31"/>
       <use xlink:href="#DejaVuSans-35" transform="translate(63.623047 0)"/>
      </g>
     </g>
    </g>
    <g id="xtick_5">
     <g id="line2d_5">
      <g>
       <use xlink:href="#m2de29b5afb" x="356.676023" y="320.4" style="stroke: #000000; stroke-width: 0.8"/>
      </g>
     </g>
     <g id="text_5">
      <!-- 20 -->
      <g transform="translate(347.132273 338.797656) scale(0.15 -0.15)">
       <defs>
        <path id="DejaVuSans-32" d="M 1228 531 
L 3431 531 
L 3431 0 
L 469 0 
L 469 531 
Q 828 903 1448 1529 
Q 2069 2156 2228 2338 
Q 2531 2678 2651 2914 
Q 2772 3150 2772 3378 
Q 2772 3750 2511 3984 
Q 2250 4219 1831 4219 
Q 1534 4219 1204 4116 
Q 875 4013 500 3803 
L 500 4441 
Q 881 4594 1212 4672 
Q 1544 4750 1819 4750 
Q 2544 4750 2975 4387 
Q 3406 4025 3406 3419 
Q 3406 3131 3298 2873 
Q 3191 2616 2906 2266 
Q 2828 2175 2409 1742 
Q 1991 1309 1228 531 
z
" transform="scale(0.015625)"/>
       </defs>
       <use xlink:href="#DejaVuSans-32"/>
       <use xlink:href="#DejaVuSans-30" transform="translate(63.623047 0)"/>
      </g>
     </g>
    </g>
    <g id="xtick_6">
     <g id="line2d_6">
      <g>
       <use xlink:href="#m2de29b5afb" x="427.694205" y="320.4" style="stroke: #000000; stroke-width: 0.8"/>
      </g>
     </g>
     <g id="text_6">
      <!-- 25 -->
      <g transform="translate(418.150455 338.797656) scale(0.15 -0.15)">
       <use xlink:href="#DejaVuSans-32"/>
       <use xlink:href="#DejaVuSans-35" transform="translate(63.623047 0)"/>
      </g>
     </g>
    </g>
    <g id="text_7">
     <!-- time [hr] -->
     <g transform="translate(205.074219 359.594375) scale(0.18 -0.18)">
      <defs>
       <path id="DejaVuSans-Bold-74" d="M 1759 4494 
L 1759 3500 
L 2913 3500 
L 2913 2700 
L 1759 2700 
L 1759 1216 
Q 1759 972 1856 886 
Q 1953 800 2241 800 
L 2816 800 
L 2816 0 
L 1856 0 
Q 1194 0 917 276 
Q 641 553 641 1216 
L 641 2700 
L 84 2700 
L 84 3500 
L 641 3500 
L 641 4494 
L 1759 4494 
z
" transform="scale(0.015625)"/>
       <path id="DejaVuSans-Bold-69" d="M 538 3500 
L 1656 3500 
L 1656 0 
L 538 0 
L 538 3500 
z
M 538 4863 
L 1656 4863 
L 1656 3950 
L 538 3950 
L 538 4863 
z
" transform="scale(0.015625)"/>
       <path id="DejaVuSans-Bold-6d" d="M 3781 2919 
Q 3994 3244 4286 3414 
Q 4578 3584 4928 3584 
Q 5531 3584 5847 3212 
Q 6163 2841 6163 2131 
L 6163 0 
L 5038 0 
L 5038 1825 
Q 5041 1866 5042 1909 
Q 5044 1953 5044 2034 
Q 5044 2406 4934 2573 
Q 4825 2741 4581 2741 
Q 4263 2741 4089 2478 
Q 3916 2216 3909 1719 
L 3909 0 
L 2784 0 
L 2784 1825 
Q 2784 2406 2684 2573 
Q 2584 2741 2328 2741 
Q 2006 2741 1831 2477 
Q 1656 2213 1656 1722 
L 1656 0 
L 531 0 
L 531 3500 
L 1656 3500 
L 1656 2988 
Q 1863 3284 2130 3434 
Q 2397 3584 2719 3584 
Q 3081 3584 3359 3409 
Q 3638 3234 3781 2919 
z
" transform="scale(0.015625)"/>
       <path id="DejaVuSans-Bold-65" d="M 4031 1759 
L 4031 1441 
L 1416 1441 
Q 1456 1047 1700 850 
Q 1944 653 2381 653 
Q 2734 653 3104 758 
Q 3475 863 3866 1075 
L 3866 213 
Q 3469 63 3072 -14 
Q 2675 -91 2278 -91 
Q 1328 -91 801 392 
Q 275 875 275 1747 
Q 275 2603 792 3093 
Q 1309 3584 2216 3584 
Q 3041 3584 3536 3087 
Q 4031 2591 4031 1759 
z
M 2881 2131 
Q 2881 2450 2695 2645 
Q 2509 2841 2209 2841 
Q 1884 2841 1681 2658 
Q 1478 2475 1428 2131 
L 2881 2131 
z
" transform="scale(0.015625)"/>
       <path id="DejaVuSans-Bold-20" transform="scale(0.015625)"/>
       <path id="DejaVuSans-Bold-5b" d="M 550 4863 
L 2491 4863 
L 2491 4159 
L 1613 4159 
L 1613 -141 
L 2491 -141 
L 2491 -844 
L 550 -844 
L 550 4863 
z
" transform="scale(0.015625)"/>
       <path id="DejaVuSans-Bold-68" d="M 4056 2131 
L 4056 0 
L 2931 0 
L 2931 347 
L 2931 1625 
Q 2931 2084 2911 2256 
Q 2891 2428 2841 2509 
Q 2775 2619 2662 2680 
Q 2550 2741 2406 2741 
Q 2056 2741 1856 2470 
Q 1656 2200 1656 1722 
L 1656 0 
L 538 0 
L 538 4863 
L 1656 4863 
L 1656 2988 
Q 1909 3294 2193 3439 
Q 2478 3584 2822 3584 
Q 3428 3584 3742 3212 
Q 4056 2841 4056 2131 
z
" transform="scale(0.015625)"/>
       <path id="DejaVuSans-Bold-72" d="M 3138 2547 
Q 2991 2616 2845 2648 
Q 2700 2681 2553 2681 
Q 2122 2681 1889 2404 
Q 1656 2128 1656 1613 
L 1656 0 
L 538 0 
L 538 3500 
L 1656 3500 
L 1656 2925 
Q 1872 3269 2151 3426 
Q 2431 3584 2822 3584 
Q 2878 3584 2943 3579 
Q 3009 3575 3134 3559 
L 3138 2547 
z
" transform="scale(0.015625)"/>
       <path id="DejaVuSans-Bold-5d" d="M 2375 -844 
L 434 -844 
L 434 -141 
L 1313 -141 
L 1313 4159 
L 434 4159 
L 434 4863 
L 2375 4863 
L 2375 -844 
z
" transform="scale(0.015625)"/>
      </defs>
      <use xlink:href="#DejaVuSans-Bold-74"/>
      <use xlink:href="#DejaVuSans-Bold-69" transform="translate(47.802734 0)"/>
      <use xlink:href="#DejaVuSans-Bold-6d" transform="translate(82.080078 0)"/>
      <use xlink:href="#DejaVuSans-Bold-65" transform="translate(186.279297 0)"/>
      <use xlink:href="#DejaVuSans-Bold-20" transform="translate(254.101562 0)"/>
      <use xlink:href="#DejaVuSans-Bold-5b" transform="translate(288.916016 0)"/>
      <use xlink:href="#DejaVuSans-Bold-68" transform="translate(334.619141 0)"/>
      <use xlink:href="#DejaVuSans-Bold-72" transform="translate(405.810547 0)"/>
      <use xlink:href="#DejaVuSans-Bold-5d" transform="translate(455.126953 0)"/>
     </g>
    </g>
   </g>
   <g id="matplotlib.axis_2">
    <g id="ytick_1">
     <g id="line2d_7">
      <defs>
       <path id="m27d66f8a02" d="M 0 0 
L -3.5 0 
" style="stroke: #000000; stroke-width: 0.8"/>
      </defs>
      <g>
       <use xlink:href="#m27d66f8a02" x="54.84875" y="307.8" style="stroke: #000000; stroke-width: 0.8"/>
      </g>
     </g>
     <g id="text_8">
      <!-- 0 -->
      <g transform="translate(38.305 313.498828) scale(0.15 -0.15)">
       <use xlink:href="#DejaVuSans-30"/>
      </g>
     </g>
    </g>
    <g id="ytick_2">
     <g id="line2d_8">
      <g>
       <use xlink:href="#m27d66f8a02" x="54.84875" y="259.426209" style="stroke: #000000; stroke-width: 0.8"/>
      </g>
     </g>
     <g id="text_9">
      <!-- 5 -->
      <g transform="translate(38.305 265.125037) scale(0.15 -0.15)">
       <use xlink:href="#DejaVuSans-35"/>
      </g>
     </g>
    </g>
    <g id="ytick_3">
     <g id="line2d_9">
      <g>
       <use xlink:href="#m27d66f8a02" x="54.84875" y="211.052418" style="stroke: #000000; stroke-width: 0.8"/>
      </g>
     </g>
     <g id="text_10">
      <!-- 10 -->
      <g transform="translate(28.76125 216.751246) scale(0.15 -0.15)">
       <use xlink:href="#DejaVuSans-31"/>
       <use xlink:href="#DejaVuSans-30" transform="translate(63.623047 0)"/>
      </g>
     </g>
    </g>
    <g id="ytick_4">
     <g id="line2d_10">
      <g>
       <use xlink:href="#m27d66f8a02" x="54.84875" y="162.678627" style="stroke: #000000; stroke-width: 0.8"/>
      </g>
     </g>
     <g id="text_11">
      <!-- 15 -->
      <g transform="translate(28.76125 168.377455) scale(0.15 -0.15)">
       <use xlink:href="#DejaVuSans-31"/>
       <use xlink:href="#DejaVuSans-35" transform="translate(63.623047 0)"/>
      </g>
     </g>
    </g>
    <g id="ytick_5">
     <g id="line2d_11">
      <g>
       <use xlink:href="#m27d66f8a02" x="54.84875" y="114.304836" style="stroke: #000000; stroke-width: 0.8"/>
      </g>
     </g>
     <g id="text_12">
      <!-- 20 -->
      <g transform="translate(28.76125 120.003665) scale(0.15 -0.15)">
       <use xlink:href="#DejaVuSans-32"/>
       <use xlink:href="#DejaVuSans-30" transform="translate(63.623047 0)"/>
      </g>
     </g>
    </g>
    <g id="ytick_6">
     <g id="line2d_12">
      <g>
       <use xlink:href="#m27d66f8a02" x="54.84875" y="65.931046" style="stroke: #000000; stroke-width: 0.8"/>
      </g>
     </g>
     <g id="text_13">
      <!-- 25 -->
      <g transform="translate(28.76125 71.629874) scale(0.15 -0.15)">
       <use xlink:href="#DejaVuSans-32"/>
       <use xlink:href="#DejaVuSans-35" transform="translate(63.623047 0)"/>
      </g>
     </g>
    </g>
    <g id="text_14">
     <!-- rapamycin blood [nM] -->
     <g transform="translate(20.877187 293.092031) rotate(-90) scale(0.18 -0.18)">
      <defs>
       <path id="DejaVuSans-Bold-61" d="M 2106 1575 
Q 1756 1575 1579 1456 
Q 1403 1338 1403 1106 
Q 1403 894 1545 773 
Q 1688 653 1941 653 
Q 2256 653 2472 879 
Q 2688 1106 2688 1447 
L 2688 1575 
L 2106 1575 
z
M 3816 1997 
L 3816 0 
L 2688 0 
L 2688 519 
Q 2463 200 2181 54 
Q 1900 -91 1497 -91 
Q 953 -91 614 226 
Q 275 544 275 1050 
Q 275 1666 698 1953 
Q 1122 2241 2028 2241 
L 2688 2241 
L 2688 2328 
Q 2688 2594 2478 2717 
Q 2269 2841 1825 2841 
Q 1466 2841 1156 2769 
Q 847 2697 581 2553 
L 581 3406 
Q 941 3494 1303 3539 
Q 1666 3584 2028 3584 
Q 2975 3584 3395 3211 
Q 3816 2838 3816 1997 
z
" transform="scale(0.015625)"/>
       <path id="DejaVuSans-Bold-70" d="M 1656 506 
L 1656 -1331 
L 538 -1331 
L 538 3500 
L 1656 3500 
L 1656 2988 
Q 1888 3294 2169 3439 
Q 2450 3584 2816 3584 
Q 3463 3584 3878 3070 
Q 4294 2556 4294 1747 
Q 4294 938 3878 423 
Q 3463 -91 2816 -91 
Q 2450 -91 2169 54 
Q 1888 200 1656 506 
z
M 2400 2772 
Q 2041 2772 1848 2508 
Q 1656 2244 1656 1747 
Q 1656 1250 1848 986 
Q 2041 722 2400 722 
Q 2759 722 2948 984 
Q 3138 1247 3138 1747 
Q 3138 2247 2948 2509 
Q 2759 2772 2400 2772 
z
" transform="scale(0.015625)"/>
       <path id="DejaVuSans-Bold-79" d="M 78 3500 
L 1197 3500 
L 2138 1125 
L 2938 3500 
L 4056 3500 
L 2584 -331 
Q 2363 -916 2067 -1148 
Q 1772 -1381 1288 -1381 
L 641 -1381 
L 641 -647 
L 991 -647 
Q 1275 -647 1404 -556 
Q 1534 -466 1606 -231 
L 1638 -134 
L 78 3500 
z
" transform="scale(0.015625)"/>
       <path id="DejaVuSans-Bold-63" d="M 3366 3391 
L 3366 2478 
Q 3138 2634 2908 2709 
Q 2678 2784 2431 2784 
Q 1963 2784 1702 2511 
Q 1441 2238 1441 1747 
Q 1441 1256 1702 982 
Q 1963 709 2431 709 
Q 2694 709 2930 787 
Q 3166 866 3366 1019 
L 3366 103 
Q 3103 6 2833 -42 
Q 2563 -91 2291 -91 
Q 1344 -91 809 395 
Q 275 881 275 1747 
Q 275 2613 809 3098 
Q 1344 3584 2291 3584 
Q 2566 3584 2833 3536 
Q 3100 3488 3366 3391 
z
" transform="scale(0.015625)"/>
       <path id="DejaVuSans-Bold-6e" d="M 4056 2131 
L 4056 0 
L 2931 0 
L 2931 347 
L 2931 1631 
Q 2931 2084 2911 2256 
Q 2891 2428 2841 2509 
Q 2775 2619 2662 2680 
Q 2550 2741 2406 2741 
Q 2056 2741 1856 2470 
Q 1656 2200 1656 1722 
L 1656 0 
L 538 0 
L 538 3500 
L 1656 3500 
L 1656 2988 
Q 1909 3294 2193 3439 
Q 2478 3584 2822 3584 
Q 3428 3584 3742 3212 
Q 4056 2841 4056 2131 
z
" transform="scale(0.015625)"/>
       <path id="DejaVuSans-Bold-62" d="M 2400 722 
Q 2759 722 2948 984 
Q 3138 1247 3138 1747 
Q 3138 2247 2948 2509 
Q 2759 2772 2400 2772 
Q 2041 2772 1848 2508 
Q 1656 2244 1656 1747 
Q 1656 1250 1848 986 
Q 2041 722 2400 722 
z
M 1656 2988 
Q 1888 3294 2169 3439 
Q 2450 3584 2816 3584 
Q 3463 3584 3878 3070 
Q 4294 2556 4294 1747 
Q 4294 938 3878 423 
Q 3463 -91 2816 -91 
Q 2450 -91 2169 54 
Q 1888 200 1656 506 
L 1656 0 
L 538 0 
L 538 4863 
L 1656 4863 
L 1656 2988 
z
" transform="scale(0.015625)"/>
       <path id="DejaVuSans-Bold-6c" d="M 538 4863 
L 1656 4863 
L 1656 0 
L 538 0 
L 538 4863 
z
" transform="scale(0.015625)"/>
       <path id="DejaVuSans-Bold-6f" d="M 2203 2784 
Q 1831 2784 1636 2517 
Q 1441 2250 1441 1747 
Q 1441 1244 1636 976 
Q 1831 709 2203 709 
Q 2569 709 2762 976 
Q 2956 1244 2956 1747 
Q 2956 2250 2762 2517 
Q 2569 2784 2203 2784 
z
M 2203 3584 
Q 3106 3584 3614 3096 
Q 4122 2609 4122 1747 
Q 4122 884 3614 396 
Q 3106 -91 2203 -91 
Q 1297 -91 786 396 
Q 275 884 275 1747 
Q 275 2609 786 3096 
Q 1297 3584 2203 3584 
z
" transform="scale(0.015625)"/>
       <path id="DejaVuSans-Bold-64" d="M 2919 2988 
L 2919 4863 
L 4044 4863 
L 4044 0 
L 2919 0 
L 2919 506 
Q 2688 197 2409 53 
Q 2131 -91 1766 -91 
Q 1119 -91 703 423 
Q 288 938 288 1747 
Q 288 2556 703 3070 
Q 1119 3584 1766 3584 
Q 2128 3584 2408 3439 
Q 2688 3294 2919 2988 
z
M 2181 722 
Q 2541 722 2730 984 
Q 2919 1247 2919 1747 
Q 2919 2247 2730 2509 
Q 2541 2772 2181 2772 
Q 1825 2772 1636 2509 
Q 1447 2247 1447 1747 
Q 1447 1247 1636 984 
Q 1825 722 2181 722 
z
" transform="scale(0.015625)"/>
       <path id="DejaVuSans-Bold-4d" d="M 588 4666 
L 2119 4666 
L 3181 2169 
L 4250 4666 
L 5778 4666 
L 5778 0 
L 4641 0 
L 4641 3413 
L 3566 897 
L 2803 897 
L 1728 3413 
L 1728 0 
L 588 0 
L 588 4666 
z
" transform="scale(0.015625)"/>
      </defs>
      <use xlink:href="#DejaVuSans-Bold-72"/>
      <use xlink:href="#DejaVuSans-Bold-61" transform="translate(49.316406 0)"/>
      <use xlink:href="#DejaVuSans-Bold-70" transform="translate(116.796875 0)"/>
      <use xlink:href="#DejaVuSans-Bold-61" transform="translate(188.378906 0)"/>
      <use xlink:href="#DejaVuSans-Bold-6d" transform="translate(255.859375 0)"/>
      <use xlink:href="#DejaVuSans-Bold-79" transform="translate(360.058594 0)"/>
      <use xlink:href="#DejaVuSans-Bold-63" transform="translate(425.244141 0)"/>
      <use xlink:href="#DejaVuSans-Bold-69" transform="translate(484.521484 0)"/>
      <use xlink:href="#DejaVuSans-Bold-6e" transform="translate(518.798828 0)"/>
      <use xlink:href="#DejaVuSans-Bold-20" transform="translate(589.990234 0)"/>
      <use xlink:href="#DejaVuSans-Bold-62" transform="translate(624.804688 0)"/>
      <use xlink:href="#DejaVuSans-Bold-6c" transform="translate(696.386719 0)"/>
      <use xlink:href="#DejaVuSans-Bold-6f" transform="translate(730.664062 0)"/>
      <use xlink:href="#DejaVuSans-Bold-6f" transform="translate(799.365234 0)"/>
      <use xlink:href="#DejaVuSans-Bold-64" transform="translate(868.066406 0)"/>
      <use xlink:href="#DejaVuSans-Bold-20" transform="translate(939.648438 0)"/>
      <use xlink:href="#DejaVuSans-Bold-5b" transform="translate(974.462891 0)"/>
      <use xlink:href="#DejaVuSans-Bold-6e" transform="translate(1020.166016 0)"/>
      <use xlink:href="#DejaVuSans-Bold-4d" transform="translate(1091.357422 0)"/>
      <use xlink:href="#DejaVuSans-Bold-5d" transform="translate(1190.869141 0)"/>
     </g>
    </g>
   </g>
   <g id="LineCollection_1">
    <path d="M 72.603295 290.903598 
L 72.603295 239.529403 
" clip-path="url(#p48ba0ba28f)" style="fill: none; stroke: #cc3333"/>
    <path d="M 79.705114 293.186896 
L 79.705114 204.138291 
" clip-path="url(#p48ba0ba28f)" style="fill: none; stroke: #cc3333"/>
    <path d="M 86.806932 277.774637 
L 86.806932 172.742949 
" clip-path="url(#p48ba0ba28f)" style="fill: none; stroke: #cc3333"/>
    <path d="M 101.010568 277.203813 
L 101.010568 165.322232 
" clip-path="url(#p48ba0ba28f)" style="fill: none; stroke: #cc3333"/>
    <path d="M 115.214205 289.761949 
L 115.214205 156.189042 
" clip-path="url(#p48ba0ba28f)" style="fill: none; stroke: #cc3333"/>
    <path d="M 129.417841 286.907827 
L 129.417841 170.459652 
" clip-path="url(#p48ba0ba28f)" style="fill: none; stroke: #cc3333"/>
    <path d="M 157.825114 290.903598 
L 157.825114 189.296857 
" clip-path="url(#p48ba0ba28f)" style="fill: none; stroke: #cc3333"/>
    <path d="M 186.232386 290.903598 
L 186.232386 201.854993 
" clip-path="url(#p48ba0ba28f)" style="fill: none; stroke: #cc3333"/>
    <path d="M 200.436023 292.616071 
L 200.436023 193.292627 
" clip-path="url(#p48ba0ba28f)" style="fill: none; stroke: #cc3333"/>
    <path d="M 214.639659 290.903598 
L 214.639659 210.988184 
" clip-path="url(#p48ba0ba28f)" style="fill: none; stroke: #cc3333"/>
    <path d="M 228.843295 286.337003 
L 228.843295 238.387754 
" clip-path="url(#p48ba0ba28f)" style="fill: none; stroke: #cc3333"/>
    <path d="M 243.046932 293.75772 
L 243.046932 259.508257 
" clip-path="url(#p48ba0ba28f)" style="fill: none; stroke: #cc3333"/>
    <path d="M 413.490568 296.041018 
L 413.490568 265.216501 
" clip-path="url(#p48ba0ba28f)" style="fill: none; stroke: #cc3333"/>
   </g>
   <g id="LineCollection_2">
    <path d="M 72.603295 283.482881 
L 72.603295 221.833847 
" clip-path="url(#p48ba0ba28f)" style="fill: none; stroke: #ff6666"/>
    <path d="M 79.705114 262.362379 
L 79.705114 183.588613 
" clip-path="url(#p48ba0ba28f)" style="fill: none; stroke: #ff6666"/>
    <path d="M 86.806932 241.241876 
L 86.806932 127.076998 
" clip-path="url(#p48ba0ba28f)" style="fill: none; stroke: #ff6666"/>
    <path d="M 101.010568 249.233418 
L 101.010568 117.943808 
" clip-path="url(#p48ba0ba28f)" style="fill: none; stroke: #ff6666"/>
    <path d="M 115.214205 254.370837 
L 115.214205 149.339149 
" clip-path="url(#p48ba0ba28f)" style="fill: none; stroke: #ff6666"/>
    <path d="M 129.417841 258.937432 
L 129.417841 158.47234 
" clip-path="url(#p48ba0ba28f)" style="fill: none; stroke: #ff6666"/>
    <path d="M 157.825114 268.070622 
L 157.825114 175.597071 
" clip-path="url(#p48ba0ba28f)" style="fill: none; stroke: #ff6666"/>
    <path d="M 186.232386 274.920515 
L 186.232386 177.880369 
" clip-path="url(#p48ba0ba28f)" style="fill: none; stroke: #ff6666"/>
    <path d="M 200.436023 269.783096 
L 200.436023 187.584384 
" clip-path="url(#p48ba0ba28f)" style="fill: none; stroke: #ff6666"/>
    <path d="M 214.639659 276.062164 
L 214.639659 190.438505 
" clip-path="url(#p48ba0ba28f)" style="fill: none; stroke: #ff6666"/>
    <path d="M 228.843295 278.345461 
L 228.843295 181.305315 
" clip-path="url(#p48ba0ba28f)" style="fill: none; stroke: #ff6666"/>
    <path d="M 243.046932 278.345461 
L 243.046932 200.713345 
" clip-path="url(#p48ba0ba28f)" style="fill: none; stroke: #ff6666"/>
    <path d="M 413.490568 286.907827 
L 413.490568 217.267252 
" clip-path="url(#p48ba0ba28f)" style="fill: none; stroke: #ff6666"/>
   </g>
   <g id="line2d_13">
    <path d="M 72.603295 307.8 
L 72.780841 307.766582 
L 72.958386 307.464273 
L 73.313477 305.541843 
L 73.846114 300.036564 
L 77.219477 258.41303 
L 78.28475 249.033252 
L 79.350023 241.36926 
L 80.415295 235.167499 
L 81.480568 230.206893 
L 82.545841 226.297515 
L 83.611114 223.276663 
L 84.498841 221.336936 
L 85.386568 219.84743 
L 86.274295 218.746942 
L 87.162023 217.981802 
L 88.04975 217.504977 
L 88.937477 217.275274 
L 89.825205 217.256646 
L 90.890477 217.468809 
L 92.133295 217.981083 
L 93.553659 218.840068 
L 95.329114 220.2149 
L 97.637205 222.32948 
L 101.188114 225.935193 
L 108.112386 232.992221 
L 112.018386 236.620587 
L 115.569295 239.620797 
L 119.120205 242.334355 
L 122.671114 244.777466 
L 126.399568 247.078373 
L 130.305568 249.231978 
L 134.566659 251.322478 
L 139.182841 253.329602 
L 144.154114 255.243264 
L 149.658023 257.118963 
L 155.872114 258.99341 
L 162.796386 260.846714 
L 170.785932 262.752268 
L 180.195841 264.760798 
L 191.203659 266.876945 
L 204.164477 269.137759 
L 219.433386 271.568765 
L 236.655295 274.081992 
L 255.652659 276.62781 
L 276.070386 279.138334 
L 297.730932 281.576006 
L 320.45675 283.909045 
L 344.425386 286.144415 
L 369.636841 288.270108 
L 396.268659 290.289281 
L 424.320841 292.190785 
L 427.694205 292.405071 
L 427.694205 292.405071 
" clip-path="url(#p48ba0ba28f)" style="fill: none; stroke: #000000; stroke-width: 2; stroke-linecap: square"/>
   </g>
   <g id="line2d_14">
    <path d="M 72.603295 307.8 
L 72.780841 307.765041 
L 72.958386 307.433413 
L 73.135932 306.580438 
L 73.491023 303.218278 
L 74.023659 294.999921 
L 75.266477 270.233584 
L 76.686841 243.553104 
L 77.929659 224.495734 
L 78.994932 211.224407 
L 80.060205 200.399328 
L 81.125477 191.664053 
L 82.19075 184.70344 
L 83.256023 179.245397 
L 84.321295 175.056515 
L 85.209023 172.390224 
L 86.09675 170.365942 
L 86.984477 168.89587 
L 87.872205 167.903041 
L 88.582386 167.406786 
L 89.292568 167.142035 
L 90.00275 167.08128 
L 90.890477 167.254807 
L 91.778205 167.665879 
L 92.843477 168.420489 
L 94.086295 169.591923 
L 95.684205 171.447353 
L 97.637205 174.082913 
L 100.655477 178.591262 
L 108.822568 190.985067 
L 112.373477 195.870805 
L 115.569295 199.900608 
L 118.765114 203.578826 
L 121.960932 206.921667 
L 125.15675 209.954784 
L 128.530114 212.853002 
L 132.081023 215.605271 
L 135.809477 218.20785 
L 139.715477 220.662969 
L 143.976568 223.072885 
L 148.59275 225.419816 
L 153.564023 227.695213 
L 159.067932 229.967963 
L 165.282023 232.287011 
L 172.206295 234.631041 
L 180.195841 237.096063 
L 189.428205 239.705126 
L 200.080932 242.479572 
L 212.509114 245.479449 
L 226.535205 248.63223 
L 242.159205 251.913598 
L 259.026023 255.227713 
L 276.958114 258.523511 
L 295.777932 261.754675 
L 315.307932 264.881382 
L 335.548114 267.896859 
L 356.676023 270.818378 
L 378.514114 273.61331 
L 401.239932 276.297742 
L 425.031023 278.882424 
L 427.694205 279.158222 
L 427.694205 279.158222 
" clip-path="url(#p48ba0ba28f)" style="fill: none; stroke: #cc3333; stroke-width: 2; stroke-linecap: square"/>
   </g>
   <g id="line2d_15">
    <path d="M 72.603295 265.216501 
L 79.705114 248.662593 
L 86.806932 225.258793 
L 101.010568 221.263023 
L 115.214205 222.975496 
L 129.417841 228.68374 
L 157.825114 240.100227 
L 186.232386 246.379296 
L 200.436023 242.954349 
L 214.639659 250.945891 
L 228.843295 262.362379 
L 243.046932 276.632988 
L 413.490568 280.628759 
" clip-path="url(#p48ba0ba28f)" style="fill: none; stroke-dasharray: 3.7,1.6; stroke-dashoffset: 0; stroke: #cc3333"/>
    <defs>
     <path id="m360bef0165" d="M -3 3 
L 3 3 
L 3 -3 
L -3 -3 
z
" style="stroke: #000000; stroke-linejoin: miter"/>
    </defs>
    <g clip-path="url(#p48ba0ba28f)">
     <use xlink:href="#m360bef0165" x="72.603295" y="265.216501" style="fill: #cc3333; stroke: #000000; stroke-linejoin: miter"/>
     <use xlink:href="#m360bef0165" x="79.705114" y="248.662593" style="fill: #cc3333; stroke: #000000; stroke-linejoin: miter"/>
     <use xlink:href="#m360bef0165" x="86.806932" y="225.258793" style="fill: #cc3333; stroke: #000000; stroke-linejoin: miter"/>
     <use xlink:href="#m360bef0165" x="101.010568" y="221.263023" style="fill: #cc3333; stroke: #000000; stroke-linejoin: miter"/>
     <use xlink:href="#m360bef0165" x="115.214205" y="222.975496" style="fill: #cc3333; stroke: #000000; stroke-linejoin: miter"/>
     <use xlink:href="#m360bef0165" x="129.417841" y="228.68374" style="fill: #cc3333; stroke: #000000; stroke-linejoin: miter"/>
     <use xlink:href="#m360bef0165" x="157.825114" y="240.100227" style="fill: #cc3333; stroke: #000000; stroke-linejoin: miter"/>
     <use xlink:href="#m360bef0165" x="186.232386" y="246.379296" style="fill: #cc3333; stroke: #000000; stroke-linejoin: miter"/>
     <use xlink:href="#m360bef0165" x="200.436023" y="242.954349" style="fill: #cc3333; stroke: #000000; stroke-linejoin: miter"/>
     <use xlink:href="#m360bef0165" x="214.639659" y="250.945891" style="fill: #cc3333; stroke: #000000; stroke-linejoin: miter"/>
     <use xlink:href="#m360bef0165" x="228.843295" y="262.362379" style="fill: #cc3333; stroke: #000000; stroke-linejoin: miter"/>
     <use xlink:href="#m360bef0165" x="243.046932" y="276.632988" style="fill: #cc3333; stroke: #000000; stroke-linejoin: miter"/>
     <use xlink:href="#m360bef0165" x="413.490568" y="280.628759" style="fill: #cc3333; stroke: #000000; stroke-linejoin: miter"/>
    </g>
   </g>
   <g id="line2d_16">
    <path d="M 72.603295 307.8 
L 72.780841 307.763408 
L 72.958386 307.398649 
L 73.135932 306.411239 
L 73.491023 302.232358 
L 74.023659 291.035657 
L 74.911386 264.391462 
L 77.397023 184.832715 
L 78.639841 153.033905 
L 79.705114 130.681534 
L 80.770386 112.369483 
L 81.835659 97.561491 
L 82.900932 85.750361 
L 83.966205 76.48452 
L 84.853932 70.422284 
L 85.741659 65.655834 
L 86.629386 62.010889 
L 87.517114 59.334383 
L 88.227295 57.79965 
L 88.937477 56.737458 
L 89.647659 56.092941 
L 90.180295 55.853791 
L 90.712932 55.802804 
L 91.423114 55.997531 
L 92.133295 56.458187 
L 93.021023 57.356803 
L 94.086295 58.832488 
L 95.329114 60.993709 
L 96.927023 64.294326 
L 99.057568 69.303568 
L 102.430932 77.927748 
L 108.467477 93.362212 
L 111.840841 101.331238 
L 114.859114 107.909994 
L 117.877386 113.946763 
L 120.718114 119.145739 
L 123.558841 123.903642 
L 126.577114 128.513416 
L 129.595386 132.707104 
L 132.613659 136.528391 
L 135.809477 140.214759 
L 139.182841 143.753865 
L 142.73375 147.140516 
L 146.462205 150.375628 
L 150.368205 153.46506 
L 154.629295 156.541156 
L 159.245477 159.585791 
L 164.21675 162.590295 
L 169.720659 165.648582 
L 175.757205 168.74474 
L 182.503932 171.95449 
L 190.138386 175.339769 
L 199.015659 179.024836 
L 209.13575 182.976112 
L 220.498659 187.170632 
L 233.281932 191.64971 
L 247.308023 196.325753 
L 262.399386 201.118558 
L 278.200932 205.900855 
L 294.535114 210.611368 
L 311.401932 215.243305 
L 328.801386 219.788523 
L 346.555932 224.195683 
L 364.843114 228.504093 
L 383.485386 232.667546 
L 402.660295 236.721943 
L 422.367841 240.66106 
L 427.694205 241.687693 
L 427.694205 241.687693 
" clip-path="url(#p48ba0ba28f)" style="fill: none; stroke: #ff6666; stroke-width: 2; stroke-linecap: square"/>
   </g>
   <g id="line2d_17">
    <path d="M 72.603295 252.658364 
L 79.705114 222.975496 
L 86.806932 184.159437 
L 101.010568 183.588613 
L 115.214205 201.854993 
L 129.417841 208.704886 
L 157.825114 221.833847 
L 186.232386 226.400442 
L 200.436023 228.68374 
L 214.639659 233.250335 
L 228.843295 229.825388 
L 243.046932 239.529403 
L 413.490568 252.08754 
" clip-path="url(#p48ba0ba28f)" style="fill: none; stroke-dasharray: 3.7,1.6; stroke-dashoffset: 0; stroke: #ff6666"/>
    <defs>
     <path id="mb00d0a6607" d="M -3 3 
L 3 3 
L 3 -3 
L -3 -3 
z
" style="stroke: #000000; stroke-linejoin: miter"/>
    </defs>
    <g clip-path="url(#p48ba0ba28f)">
     <use xlink:href="#mb00d0a6607" x="72.603295" y="252.658364" style="fill: #ff6666; stroke: #000000; stroke-linejoin: miter"/>
     <use xlink:href="#mb00d0a6607" x="79.705114" y="222.975496" style="fill: #ff6666; stroke: #000000; stroke-linejoin: miter"/>
     <use xlink:href="#mb00d0a6607" x="86.806932" y="184.159437" style="fill: #ff6666; stroke: #000000; stroke-linejoin: miter"/>
     <use xlink:href="#mb00d0a6607" x="101.010568" y="183.588613" style="fill: #ff6666; stroke: #000000; stroke-linejoin: miter"/>
     <use xlink:href="#mb00d0a6607" x="115.214205" y="201.854993" style="fill: #ff6666; stroke: #000000; stroke-linejoin: miter"/>
     <use xlink:href="#mb00d0a6607" x="129.417841" y="208.704886" style="fill: #ff6666; stroke: #000000; stroke-linejoin: miter"/>
     <use xlink:href="#mb00d0a6607" x="157.825114" y="221.833847" style="fill: #ff6666; stroke: #000000; stroke-linejoin: miter"/>
     <use xlink:href="#mb00d0a6607" x="186.232386" y="226.400442" style="fill: #ff6666; stroke: #000000; stroke-linejoin: miter"/>
     <use xlink:href="#mb00d0a6607" x="200.436023" y="228.68374" style="fill: #ff6666; stroke: #000000; stroke-linejoin: miter"/>
     <use xlink:href="#mb00d0a6607" x="214.639659" y="233.250335" style="fill: #ff6666; stroke: #000000; stroke-linejoin: miter"/>
     <use xlink:href="#mb00d0a6607" x="228.843295" y="229.825388" style="fill: #ff6666; stroke: #000000; stroke-linejoin: miter"/>
     <use xlink:href="#mb00d0a6607" x="243.046932" y="239.529403" style="fill: #ff6666; stroke: #000000; stroke-linejoin: miter"/>
     <use xlink:href="#mb00d0a6607" x="413.490568" y="252.08754" style="fill: #ff6666; stroke: #000000; stroke-linejoin: miter"/>
    </g>
   </g>
   <g id="patch_3">
    <path d="M 54.84875 320.4 
L 54.84875 43.2 
" style="fill: none; stroke: #000000; stroke-width: 0.8; stroke-linejoin: miter; stroke-linecap: square"/>
   </g>
   <g id="patch_4">
    <path d="M 445.44875 320.4 
L 445.44875 43.2 
" style="fill: none; stroke: #000000; stroke-width: 0.8; stroke-linejoin: miter; stroke-linecap: square"/>
   </g>
   <g id="patch_5">
    <path d="M 54.84875 320.4 
L 445.44875 320.4 
" style="fill: none; stroke: #000000; stroke-width: 0.8; stroke-linejoin: miter; stroke-linecap: square"/>
   </g>
   <g id="patch_6">
    <path d="M 54.84875 43.2 
L 445.44875 43.2 
" style="fill: none; stroke: #000000; stroke-width: 0.8; stroke-linejoin: miter; stroke-linecap: square"/>
   </g>
   <g id="legend_1">
    <g id="patch_7">
     <path d="M 290.72375 125.98125 
L 438.44875 125.98125 
Q 440.44875 125.98125 440.44875 123.98125 
L 440.44875 50.2 
Q 440.44875 48.2 438.44875 48.2 
L 290.72375 48.2 
Q 288.72375 48.2 288.72375 50.2 
L 288.72375 123.98125 
Q 288.72375 125.98125 290.72375 125.98125 
z
" style="fill: #ffffff; opacity: 0.8; stroke: #cccccc; stroke-linejoin: miter"/>
    </g>
    <g id="line2d_18">
     <path d="M 292.72375 56.298437 
L 312.72375 56.298437 
" style="fill: none; stroke: #000000; stroke-width: 2; stroke-linecap: square"/>
    </g>
    <g id="line2d_19"/>
    <g id="text_15">
     <!-- CYP3A5_1_1 -->
     <g transform="translate(320.72375 59.798437) scale(0.1 -0.1)">
      <defs>
       <path id="DejaVuSans-43" d="M 4122 4306 
L 4122 3641 
Q 3803 3938 3442 4084 
Q 3081 4231 2675 4231 
Q 1875 4231 1450 3742 
Q 1025 3253 1025 2328 
Q 1025 1406 1450 917 
Q 1875 428 2675 428 
Q 3081 428 3442 575 
Q 3803 722 4122 1019 
L 4122 359 
Q 3791 134 3420 21 
Q 3050 -91 2638 -91 
Q 1578 -91 968 557 
Q 359 1206 359 2328 
Q 359 3453 968 4101 
Q 1578 4750 2638 4750 
Q 3056 4750 3426 4639 
Q 3797 4528 4122 4306 
z
" transform="scale(0.015625)"/>
       <path id="DejaVuSans-59" d="M -13 4666 
L 666 4666 
L 1959 2747 
L 3244 4666 
L 3922 4666 
L 2272 2222 
L 2272 0 
L 1638 0 
L 1638 2222 
L -13 4666 
z
" transform="scale(0.015625)"/>
       <path id="DejaVuSans-50" d="M 1259 4147 
L 1259 2394 
L 2053 2394 
Q 2494 2394 2734 2622 
Q 2975 2850 2975 3272 
Q 2975 3691 2734 3919 
Q 2494 4147 2053 4147 
L 1259 4147 
z
M 628 4666 
L 2053 4666 
Q 2838 4666 3239 4311 
Q 3641 3956 3641 3272 
Q 3641 2581 3239 2228 
Q 2838 1875 2053 1875 
L 1259 1875 
L 1259 0 
L 628 0 
L 628 4666 
z
" transform="scale(0.015625)"/>
       <path id="DejaVuSans-33" d="M 2597 2516 
Q 3050 2419 3304 2112 
Q 3559 1806 3559 1356 
Q 3559 666 3084 287 
Q 2609 -91 1734 -91 
Q 1441 -91 1130 -33 
Q 819 25 488 141 
L 488 750 
Q 750 597 1062 519 
Q 1375 441 1716 441 
Q 2309 441 2620 675 
Q 2931 909 2931 1356 
Q 2931 1769 2642 2001 
Q 2353 2234 1838 2234 
L 1294 2234 
L 1294 2753 
L 1863 2753 
Q 2328 2753 2575 2939 
Q 2822 3125 2822 3475 
Q 2822 3834 2567 4026 
Q 2313 4219 1838 4219 
Q 1578 4219 1281 4162 
Q 984 4106 628 3988 
L 628 4550 
Q 988 4650 1302 4700 
Q 1616 4750 1894 4750 
Q 2613 4750 3031 4423 
Q 3450 4097 3450 3541 
Q 3450 3153 3228 2886 
Q 3006 2619 2597 2516 
z
" transform="scale(0.015625)"/>
       <path id="DejaVuSans-41" d="M 2188 4044 
L 1331 1722 
L 3047 1722 
L 2188 4044 
z
M 1831 4666 
L 2547 4666 
L 4325 0 
L 3669 0 
L 3244 1197 
L 1141 1197 
L 716 0 
L 50 0 
L 1831 4666 
z
" transform="scale(0.015625)"/>
       <path id="DejaVuSans-5f" d="M 3263 -1063 
L 3263 -1509 
L -63 -1509 
L -63 -1063 
L 3263 -1063 
z
" transform="scale(0.015625)"/>
      </defs>
      <use xlink:href="#DejaVuSans-43"/>
      <use xlink:href="#DejaVuSans-59" transform="translate(68.074219 0)"/>
      <use xlink:href="#DejaVuSans-50" transform="translate(129.158203 0)"/>
      <use xlink:href="#DejaVuSans-33" transform="translate(189.460938 0)"/>
      <use xlink:href="#DejaVuSans-41" transform="translate(253.083984 0)"/>
      <use xlink:href="#DejaVuSans-35" transform="translate(321.492188 0)"/>
      <use xlink:href="#DejaVuSans-5f" transform="translate(385.115234 0)"/>
      <use xlink:href="#DejaVuSans-31" transform="translate(435.115234 0)"/>
      <use xlink:href="#DejaVuSans-5f" transform="translate(498.738281 0)"/>
      <use xlink:href="#DejaVuSans-31" transform="translate(548.738281 0)"/>
     </g>
    </g>
    <g id="line2d_20">
     <path d="M 292.72375 71.254687 
L 312.72375 71.254687 
" style="fill: none; stroke: #cc3333; stroke-width: 2; stroke-linecap: square"/>
    </g>
    <g id="line2d_21"/>
    <g id="text_16">
     <!-- CYP3A5_1_3 -->
     <g transform="translate(320.72375 74.754687) scale(0.1 -0.1)">
      <use xlink:href="#DejaVuSans-43"/>
      <use xlink:href="#DejaVuSans-59" transform="translate(68.074219 0)"/>
      <use xlink:href="#DejaVuSans-50" transform="translate(129.158203 0)"/>
      <use xlink:href="#DejaVuSans-33" transform="translate(189.460938 0)"/>
      <use xlink:href="#DejaVuSans-41" transform="translate(253.083984 0)"/>
      <use xlink:href="#DejaVuSans-35" transform="translate(321.492188 0)"/>
      <use xlink:href="#DejaVuSans-5f" transform="translate(385.115234 0)"/>
      <use xlink:href="#DejaVuSans-31" transform="translate(435.115234 0)"/>
      <use xlink:href="#DejaVuSans-5f" transform="translate(498.738281 0)"/>
      <use xlink:href="#DejaVuSans-33" transform="translate(548.738281 0)"/>
     </g>
    </g>
    <g id="LineCollection_3">
     <path d="M 302.72375 91.210937 
L 302.72375 81.210937 
" style="fill: none; stroke: #cc3333"/>
    </g>
    <g id="line2d_22">
     <path d="M 292.72375 86.210937 
L 312.72375 86.210937 
" style="fill: none; stroke-dasharray: 3.7,1.6; stroke-dashoffset: 0; stroke: #cc3333"/>
    </g>
    <g id="line2d_23">
     <g>
      <use xlink:href="#m360bef0165" x="302.72375" y="86.210937" style="fill: #cc3333; stroke: #000000; stroke-linejoin: miter"/>
     </g>
    </g>
    <g id="text_17">
     <!-- CYP3A5_1_3±SD (n=3) -->
     <g transform="translate(320.72375 89.710937) scale(0.1 -0.1)">
      <defs>
       <path id="DejaVuSans-b1" d="M 2944 4013 
L 2944 2803 
L 4684 2803 
L 4684 2272 
L 2944 2272 
L 2944 1063 
L 2419 1063 
L 2419 2272 
L 678 2272 
L 678 2803 
L 2419 2803 
L 2419 4013 
L 2944 4013 
z
M 678 531 
L 4684 531 
L 4684 0 
L 678 0 
L 678 531 
z
" transform="scale(0.015625)"/>
       <path id="DejaVuSans-53" d="M 3425 4513 
L 3425 3897 
Q 3066 4069 2747 4153 
Q 2428 4238 2131 4238 
Q 1616 4238 1336 4038 
Q 1056 3838 1056 3469 
Q 1056 3159 1242 3001 
Q 1428 2844 1947 2747 
L 2328 2669 
Q 3034 2534 3370 2195 
Q 3706 1856 3706 1288 
Q 3706 609 3251 259 
Q 2797 -91 1919 -91 
Q 1588 -91 1214 -16 
Q 841 59 441 206 
L 441 856 
Q 825 641 1194 531 
Q 1563 422 1919 422 
Q 2459 422 2753 634 
Q 3047 847 3047 1241 
Q 3047 1584 2836 1778 
Q 2625 1972 2144 2069 
L 1759 2144 
Q 1053 2284 737 2584 
Q 422 2884 422 3419 
Q 422 4038 858 4394 
Q 1294 4750 2059 4750 
Q 2388 4750 2728 4690 
Q 3069 4631 3425 4513 
z
" transform="scale(0.015625)"/>
       <path id="DejaVuSans-44" d="M 1259 4147 
L 1259 519 
L 2022 519 
Q 2988 519 3436 956 
Q 3884 1394 3884 2338 
Q 3884 3275 3436 3711 
Q 2988 4147 2022 4147 
L 1259 4147 
z
M 628 4666 
L 1925 4666 
Q 3281 4666 3915 4102 
Q 4550 3538 4550 2338 
Q 4550 1131 3912 565 
Q 3275 0 1925 0 
L 628 0 
L 628 4666 
z
" transform="scale(0.015625)"/>
       <path id="DejaVuSans-20" transform="scale(0.015625)"/>
       <path id="DejaVuSans-28" d="M 1984 4856 
Q 1566 4138 1362 3434 
Q 1159 2731 1159 2009 
Q 1159 1288 1364 580 
Q 1569 -128 1984 -844 
L 1484 -844 
Q 1016 -109 783 600 
Q 550 1309 550 2009 
Q 550 2706 781 3412 
Q 1013 4119 1484 4856 
L 1984 4856 
z
" transform="scale(0.015625)"/>
       <path id="DejaVuSans-6e" d="M 3513 2113 
L 3513 0 
L 2938 0 
L 2938 2094 
Q 2938 2591 2744 2837 
Q 2550 3084 2163 3084 
Q 1697 3084 1428 2787 
Q 1159 2491 1159 1978 
L 1159 0 
L 581 0 
L 581 3500 
L 1159 3500 
L 1159 2956 
Q 1366 3272 1645 3428 
Q 1925 3584 2291 3584 
Q 2894 3584 3203 3211 
Q 3513 2838 3513 2113 
z
" transform="scale(0.015625)"/>
       <path id="DejaVuSans-3d" d="M 678 2906 
L 4684 2906 
L 4684 2381 
L 678 2381 
L 678 2906 
z
M 678 1631 
L 4684 1631 
L 4684 1100 
L 678 1100 
L 678 1631 
z
" transform="scale(0.015625)"/>
       <path id="DejaVuSans-29" d="M 513 4856 
L 1013 4856 
Q 1481 4119 1714 3412 
Q 1947 2706 1947 2009 
Q 1947 1309 1714 600 
Q 1481 -109 1013 -844 
L 513 -844 
Q 928 -128 1133 580 
Q 1338 1288 1338 2009 
Q 1338 2731 1133 3434 
Q 928 4138 513 4856 
z
" transform="scale(0.015625)"/>
      </defs>
      <use xlink:href="#DejaVuSans-43"/>
      <use xlink:href="#DejaVuSans-59" transform="translate(68.074219 0)"/>
      <use xlink:href="#DejaVuSans-50" transform="translate(129.158203 0)"/>
      <use xlink:href="#DejaVuSans-33" transform="translate(189.460938 0)"/>
      <use xlink:href="#DejaVuSans-41" transform="translate(253.083984 0)"/>
      <use xlink:href="#DejaVuSans-35" transform="translate(321.492188 0)"/>
      <use xlink:href="#DejaVuSans-5f" transform="translate(385.115234 0)"/>
      <use xlink:href="#DejaVuSans-31" transform="translate(435.115234 0)"/>
      <use xlink:href="#DejaVuSans-5f" transform="translate(498.738281 0)"/>
      <use xlink:href="#DejaVuSans-33" transform="translate(548.738281 0)"/>
      <use xlink:href="#DejaVuSans-b1" transform="translate(612.361328 0)"/>
      <use xlink:href="#DejaVuSans-53" transform="translate(696.150391 0)"/>
      <use xlink:href="#DejaVuSans-44" transform="translate(759.626953 0)"/>
      <use xlink:href="#DejaVuSans-20" transform="translate(836.628906 0)"/>
      <use xlink:href="#DejaVuSans-28" transform="translate(868.416016 0)"/>
      <use xlink:href="#DejaVuSans-6e" transform="translate(907.429688 0)"/>
      <use xlink:href="#DejaVuSans-3d" transform="translate(970.808594 0)"/>
      <use xlink:href="#DejaVuSans-33" transform="translate(1054.597656 0)"/>
      <use xlink:href="#DejaVuSans-29" transform="translate(1118.220703 0)"/>
     </g>
    </g>
    <g id="line2d_24">
     <path d="M 292.72375 101.167187 
L 312.72375 101.167187 
" style="fill: none; stroke: #ff6666; stroke-width: 2; stroke-linecap: square"/>
    </g>
    <g id="line2d_25"/>
    <g id="text_18">
     <!-- CYP3A5_3_3 -->
     <g transform="translate(320.72375 104.667187) scale(0.1 -0.1)">
      <use xlink:href="#DejaVuSans-43"/>
      <use xlink:href="#DejaVuSans-59" transform="translate(68.074219 0)"/>
      <use xlink:href="#DejaVuSans-50" transform="translate(129.158203 0)"/>
      <use xlink:href="#DejaVuSans-33" transform="translate(189.460938 0)"/>
      <use xlink:href="#DejaVuSans-41" transform="translate(253.083984 0)"/>
      <use xlink:href="#DejaVuSans-35" transform="translate(321.492188 0)"/>
      <use xlink:href="#DejaVuSans-5f" transform="translate(385.115234 0)"/>
      <use xlink:href="#DejaVuSans-33" transform="translate(435.115234 0)"/>
      <use xlink:href="#DejaVuSans-5f" transform="translate(498.738281 0)"/>
      <use xlink:href="#DejaVuSans-33" transform="translate(548.738281 0)"/>
     </g>
    </g>
    <g id="LineCollection_4">
     <path d="M 302.72375 121.123437 
L 302.72375 111.123437 
" style="fill: none; stroke: #ff6666"/>
    </g>
    <g id="line2d_26">
     <path d="M 292.72375 116.123437 
L 312.72375 116.123437 
" style="fill: none; stroke-dasharray: 3.7,1.6; stroke-dashoffset: 0; stroke: #ff6666"/>
    </g>
    <g id="line2d_27">
     <g>
      <use xlink:href="#mb00d0a6607" x="302.72375" y="116.123437" style="fill: #ff6666; stroke: #000000; stroke-linejoin: miter"/>
     </g>
    </g>
    <g id="text_19">
     <!-- CYP3A5_3_3±SD (n=7) -->
     <g transform="translate(320.72375 119.623437) scale(0.1 -0.1)">
      <defs>
       <path id="DejaVuSans-37" d="M 525 4666 
L 3525 4666 
L 3525 4397 
L 1831 0 
L 1172 0 
L 2766 4134 
L 525 4134 
L 525 4666 
z
" transform="scale(0.015625)"/>
      </defs>
      <use xlink:href="#DejaVuSans-43"/>
      <use xlink:href="#DejaVuSans-59" transform="translate(68.074219 0)"/>
      <use xlink:href="#DejaVuSans-50" transform="translate(129.158203 0)"/>
      <use xlink:href="#DejaVuSans-33" transform="translate(189.460938 0)"/>
      <use xlink:href="#DejaVuSans-41" transform="translate(253.083984 0)"/>
      <use xlink:href="#DejaVuSans-35" transform="translate(321.492188 0)"/>
      <use xlink:href="#DejaVuSans-5f" transform="translate(385.115234 0)"/>
      <use xlink:href="#DejaVuSans-33" transform="translate(435.115234 0)"/>
      <use xlink:href="#DejaVuSans-5f" transform="translate(498.738281 0)"/>
      <use xlink:href="#DejaVuSans-33" transform="translate(548.738281 0)"/>
      <use xlink:href="#DejaVuSans-b1" transform="translate(612.361328 0)"/>
      <use xlink:href="#DejaVuSans-53" transform="translate(696.150391 0)"/>
      <use xlink:href="#DejaVuSans-44" transform="translate(759.626953 0)"/>
      <use xlink:href="#DejaVuSans-20" transform="translate(836.628906 0)"/>
      <use xlink:href="#DejaVuSans-28" transform="translate(868.416016 0)"/>
      <use xlink:href="#DejaVuSans-6e" transform="translate(907.429688 0)"/>
      <use xlink:href="#DejaVuSans-3d" transform="translate(970.808594 0)"/>
      <use xlink:href="#DejaVuSans-37" transform="translate(1054.597656 0)"/>
      <use xlink:href="#DejaVuSans-29" transform="translate(1118.220703 0)"/>
     </g>
    </g>
   </g>
  </g>
  <g id="text_20">
   <!-- Renders2007 -->
   <g transform="translate(151.028437 26.196094) scale(0.25 -0.25)">
    <defs>
     <path id="DejaVuSans-Bold-52" d="M 2297 2597 
Q 2675 2597 2839 2737 
Q 3003 2878 3003 3200 
Q 3003 3519 2839 3656 
Q 2675 3794 2297 3794 
L 1791 3794 
L 1791 2597 
L 2297 2597 
z
M 1791 1766 
L 1791 0 
L 588 0 
L 588 4666 
L 2425 4666 
Q 3347 4666 3776 4356 
Q 4206 4047 4206 3378 
Q 4206 2916 3982 2619 
Q 3759 2322 3309 2181 
Q 3556 2125 3751 1926 
Q 3947 1728 4147 1325 
L 4800 0 
L 3519 0 
L 2950 1159 
Q 2778 1509 2601 1637 
Q 2425 1766 2131 1766 
L 1791 1766 
z
" transform="scale(0.015625)"/>
     <path id="DejaVuSans-Bold-73" d="M 3272 3391 
L 3272 2541 
Q 2913 2691 2578 2766 
Q 2244 2841 1947 2841 
Q 1628 2841 1473 2761 
Q 1319 2681 1319 2516 
Q 1319 2381 1436 2309 
Q 1553 2238 1856 2203 
L 2053 2175 
Q 2913 2066 3209 1816 
Q 3506 1566 3506 1031 
Q 3506 472 3093 190 
Q 2681 -91 1863 -91 
Q 1516 -91 1145 -36 
Q 775 19 384 128 
L 384 978 
Q 719 816 1070 734 
Q 1422 653 1784 653 
Q 2113 653 2278 743 
Q 2444 834 2444 1013 
Q 2444 1163 2330 1236 
Q 2216 1309 1875 1350 
L 1678 1375 
Q 931 1469 631 1722 
Q 331 1975 331 2491 
Q 331 3047 712 3315 
Q 1094 3584 1881 3584 
Q 2191 3584 2531 3537 
Q 2872 3491 3272 3391 
z
" transform="scale(0.015625)"/>
     <path id="DejaVuSans-Bold-32" d="M 1844 884 
L 3897 884 
L 3897 0 
L 506 0 
L 506 884 
L 2209 2388 
Q 2438 2594 2547 2791 
Q 2656 2988 2656 3200 
Q 2656 3528 2436 3728 
Q 2216 3928 1850 3928 
Q 1569 3928 1234 3808 
Q 900 3688 519 3450 
L 519 4475 
Q 925 4609 1322 4679 
Q 1719 4750 2100 4750 
Q 2938 4750 3402 4381 
Q 3866 4013 3866 3353 
Q 3866 2972 3669 2642 
Q 3472 2313 2841 1759 
L 1844 884 
z
" transform="scale(0.015625)"/>
     <path id="DejaVuSans-Bold-30" d="M 2944 2338 
Q 2944 3213 2780 3570 
Q 2616 3928 2228 3928 
Q 1841 3928 1675 3570 
Q 1509 3213 1509 2338 
Q 1509 1453 1675 1090 
Q 1841 728 2228 728 
Q 2613 728 2778 1090 
Q 2944 1453 2944 2338 
z
M 4147 2328 
Q 4147 1169 3647 539 
Q 3147 -91 2228 -91 
Q 1306 -91 806 539 
Q 306 1169 306 2328 
Q 306 3491 806 4120 
Q 1306 4750 2228 4750 
Q 3147 4750 3647 4120 
Q 4147 3491 4147 2328 
z
" transform="scale(0.015625)"/>
     <path id="DejaVuSans-Bold-37" d="M 428 4666 
L 3944 4666 
L 3944 3988 
L 2125 0 
L 953 0 
L 2675 3781 
L 428 3781 
L 428 4666 
z
" transform="scale(0.015625)"/>
    </defs>
    <use xlink:href="#DejaVuSans-Bold-52"/>
    <use xlink:href="#DejaVuSans-Bold-65" transform="translate(77.001953 0)"/>
    <use xlink:href="#DejaVuSans-Bold-6e" transform="translate(144.824219 0)"/>
    <use xlink:href="#DejaVuSans-Bold-64" transform="translate(216.015625 0)"/>
    <use xlink:href="#DejaVuSans-Bold-65" transform="translate(287.597656 0)"/>
    <use xlink:href="#DejaVuSans-Bold-72" transform="translate(355.419922 0)"/>
    <use xlink:href="#DejaVuSans-Bold-73" transform="translate(404.736328 0)"/>
    <use xlink:href="#DejaVuSans-Bold-32" transform="translate(464.257812 0)"/>
    <use xlink:href="#DejaVuSans-Bold-30" transform="translate(533.837891 0)"/>
    <use xlink:href="#DejaVuSans-Bold-30" transform="translate(603.417969 0)"/>
    <use xlink:href="#DejaVuSans-Bold-37" transform="translate(672.998047 0)"/>
   </g>
  </g>
 </g>
 <defs>
  <clipPath id="p48ba0ba28f">
   <rect x="54.84875" y="43.2" width="390.6" height="277.2"/>
  </clipPath>
 </defs>
</svg>
