<?xml version="1.0" encoding="utf-8" standalone="no"?>
<!DOCTYPE svg PUBLIC "-//W3C//DTD SVG 1.1//EN"
  "http://www.w3.org/Graphics/SVG/1.1/DTD/svg11.dtd">
<svg xmlns:xlink="http://www.w3.org/1999/xlink" width="656.888375pt" height="683.737812pt" viewBox="0 0 656.888375 683.737812" xmlns="http://www.w3.org/2000/svg" version="1.1">
 <metadata>
  <rdf:RDF xmlns:dc="http://purl.org/dc/elements/1.1/" xmlns:cc="http://creativecommons.org/ns#" xmlns:rdf="http://www.w3.org/1999/02/22-rdf-syntax-ns#">
   <cc:Work>
    <dc:type rdf:resource="http://purl.org/dc/dcmitype/StillImage"/>
    <dc:date>2025-09-10T11:19:49.910844</dc:date>
    <dc:format>image/svg+xml</dc:format>
    <dc:creator>
     <cc:Agent>
      <dc:title>Matplotlib v3.10.6, https://matplotlib.org/</dc:title>
     </cc:Agent>
    </dc:creator>
   </cc:Work>
  </rdf:RDF>
 </metadata>
 <defs>
  <style type="text/css">*{stroke-linejoin: round; stroke-linecap: butt}</style>
 </defs>
 <g id="figure_1">
  <g id="patch_1">
   <path d="M 0 683.737812 
L 656.888375 683.737812 
L 656.888375 0 
L 0 0 
z
" style="fill: #ffffff"/>
  </g>
  <g id="axes_1">
   <g id="patch_2">
    <path d="M 69.159688 320.243478 
L 459.759688 320.243478 
L 459.759688 79.2 
L 69.159688 79.2 
z
" style="fill: #ffffff"/>
   </g>
   <g id="matplotlib.axis_1">
    <g id="xtick_1">
     <g id="line2d_1">
      <defs>
       <path id="m344105a20e" d="M 0 0 
L 0 3.5 
" style="stroke: #000000; stroke-width: 0.8"/>
      </defs>
      <g>
       <use xlink:href="#m344105a20e" x="86.914233" y="320.243478" style="stroke: #000000; stroke-width: 0.8"/>
      </g>
     </g>
     <g id="text_1">
      <!-- 0 -->
      <g transform="translate(82.142358 338.641135) scale(0.15 -0.15)">
       <defs>
        <path id="DejaVuSans-30" d="M 2034 4250 
Q 1547 4250 1301 3770 
Q 1056 3291 1056 2328 
Q 1056 1369 1301 889 
Q 1547 409 2034 409 
Q 2525 409 2770 889 
Q 3016 1369 3016 2328 
Q 3016 3291 2770 3770 
Q 2525 4250 2034 4250 
z
M 2034 4750 
Q 2819 4750 3233 4129 
Q 3647 3509 3647 2328 
Q 3647 1150 3233 529 
Q 2819 -91 2034 -91 
Q 1250 -91 836 529 
Q 422 1150 422 2328 
Q 422 3509 836 4129 
Q 1250 4750 2034 4750 
z
" transform="scale(0.015625)"/>
       </defs>
       <use xlink:href="#DejaVuSans-30"/>
      </g>
     </g>
    </g>
    <g id="xtick_2">
     <g id="line2d_2">
      <g>
       <use xlink:href="#m344105a20e" x="146.096051" y="320.243478" style="stroke: #000000; stroke-width: 0.8"/>
      </g>
     </g>
     <g id="text_2">
      <!-- 25 -->
      <g transform="translate(136.552301 338.641135) scale(0.15 -0.15)">
       <defs>
        <path id="DejaVuSans-32" d="M 1228 531 
L 3431 531 
L 3431 0 
L 469 0 
L 469 531 
Q 828 903 1448 1529 
Q 2069 2156 2228 2338 
Q 2531 2678 2651 2914 
Q 2772 3150 2772 3378 
Q 2772 3750 2511 3984 
Q 2250 4219 1831 4219 
Q 1534 4219 1204 4116 
Q 875 4013 500 3803 
L 500 4441 
Q 881 4594 1212 4672 
Q 1544 4750 1819 4750 
Q 2544 4750 2975 4387 
Q 3406 4025 3406 3419 
Q 3406 3131 3298 2873 
Q 3191 2616 2906 2266 
Q 2828 2175 2409 1742 
Q 1991 1309 1228 531 
z
" transform="scale(0.015625)"/>
        <path id="DejaVuSans-35" d="M 691 4666 
L 3169 4666 
L 3169 4134 
L 1269 4134 
L 1269 2991 
Q 1406 3038 1543 3061 
Q 1681 3084 1819 3084 
Q 2600 3084 3056 2656 
Q 3513 2228 3513 1497 
Q 3513 744 3044 326 
Q 2575 -91 1722 -91 
Q 1428 -91 1123 -41 
Q 819 9 494 109 
L 494 744 
Q 775 591 1075 516 
Q 1375 441 1709 441 
Q 2250 441 2565 725 
Q 2881 1009 2881 1497 
Q 2881 1984 2565 2268 
Q 2250 2553 1709 2553 
Q 1456 2553 1204 2497 
Q 953 2441 691 2322 
L 691 4666 
z
" transform="scale(0.015625)"/>
       </defs>
       <use xlink:href="#DejaVuSans-32"/>
       <use xlink:href="#DejaVuSans-35" transform="translate(63.623047 0)"/>
      </g>
     </g>
    </g>
    <g id="xtick_3">
     <g id="line2d_3">
      <g>
       <use xlink:href="#m344105a20e" x="205.277869" y="320.243478" style="stroke: #000000; stroke-width: 0.8"/>
      </g>
     </g>
     <g id="text_3">
      <!-- 50 -->
      <g transform="translate(195.734119 338.641135) scale(0.15 -0.15)">
       <use xlink:href="#DejaVuSans-35"/>
       <use xlink:href="#DejaVuSans-30" transform="translate(63.623047 0)"/>
      </g>
     </g>
    </g>
    <g id="xtick_4">
     <g id="line2d_4">
      <g>
       <use xlink:href="#m344105a20e" x="264.459687" y="320.243478" style="stroke: #000000; stroke-width: 0.8"/>
      </g>
     </g>
     <g id="text_4">
      <!-- 75 -->
      <g transform="translate(254.915937 338.641135) scale(0.15 -0.15)">
       <defs>
        <path id="DejaVuSans-37" d="M 525 4666 
L 3525 4666 
L 3525 4397 
L 1831 0 
L 1172 0 
L 2766 4134 
L 525 4134 
L 525 4666 
z
" transform="scale(0.015625)"/>
       </defs>
       <use xlink:href="#DejaVuSans-37"/>
       <use xlink:href="#DejaVuSans-35" transform="translate(63.623047 0)"/>
      </g>
     </g>
    </g>
    <g id="xtick_5">
     <g id="line2d_5">
      <g>
       <use xlink:href="#m344105a20e" x="323.641506" y="320.243478" style="stroke: #000000; stroke-width: 0.8"/>
      </g>
     </g>
     <g id="text_5">
      <!-- 100 -->
      <g transform="translate(309.325881 338.641135) scale(0.15 -0.15)">
       <defs>
        <path id="DejaVuSans-31" d="M 794 531 
L 1825 531 
L 1825 4091 
L 703 3866 
L 703 4441 
L 1819 4666 
L 2450 4666 
L 2450 531 
L 3481 531 
L 3481 0 
L 794 0 
L 794 531 
z
" transform="scale(0.015625)"/>
       </defs>
       <use xlink:href="#DejaVuSans-31"/>
       <use xlink:href="#DejaVuSans-30" transform="translate(63.623047 0)"/>
       <use xlink:href="#DejaVuSans-30" transform="translate(127.246094 0)"/>
      </g>
     </g>
    </g>
    <g id="xtick_6">
     <g id="line2d_6">
      <g>
       <use xlink:href="#m344105a20e" x="382.823324" y="320.243478" style="stroke: #000000; stroke-width: 0.8"/>
      </g>
     </g>
     <g id="text_6">
      <!-- 125 -->
      <g transform="translate(368.507699 338.641135) scale(0.15 -0.15)">
       <use xlink:href="#DejaVuSans-31"/>
       <use xlink:href="#DejaVuSans-32" transform="translate(63.623047 0)"/>
       <use xlink:href="#DejaVuSans-35" transform="translate(127.246094 0)"/>
      </g>
     </g>
    </g>
    <g id="xtick_7">
     <g id="line2d_7">
      <g>
       <use xlink:href="#m344105a20e" x="442.005142" y="320.243478" style="stroke: #000000; stroke-width: 0.8"/>
      </g>
     </g>
     <g id="text_7">
      <!-- 150 -->
      <g transform="translate(427.689517 338.641135) scale(0.15 -0.15)">
       <use xlink:href="#DejaVuSans-31"/>
       <use xlink:href="#DejaVuSans-35" transform="translate(63.623047 0)"/>
       <use xlink:href="#DejaVuSans-30" transform="translate(127.246094 0)"/>
      </g>
     </g>
    </g>
    <g id="text_8">
     <!-- time [hr] -->
     <g transform="translate(219.385156 359.437853) scale(0.18 -0.18)">
      <defs>
       <path id="DejaVuSans-Bold-74" d="M 1759 4494 
L 1759 3500 
L 2913 3500 
L 2913 2700 
L 1759 2700 
L 1759 1216 
Q 1759 972 1856 886 
Q 1953 800 2241 800 
L 2816 800 
L 2816 0 
L 1856 0 
Q 1194 0 917 276 
Q 641 553 641 1216 
L 641 2700 
L 84 2700 
L 84 3500 
L 641 3500 
L 641 4494 
L 1759 4494 
z
" transform="scale(0.015625)"/>
       <path id="DejaVuSans-Bold-69" d="M 538 3500 
L 1656 3500 
L 1656 0 
L 538 0 
L 538 3500 
z
M 538 4863 
L 1656 4863 
L 1656 3950 
L 538 3950 
L 538 4863 
z
" transform="scale(0.015625)"/>
       <path id="DejaVuSans-Bold-6d" d="M 3781 2919 
Q 3994 3244 4286 3414 
Q 4578 3584 4928 3584 
Q 5531 3584 5847 3212 
Q 6163 2841 6163 2131 
L 6163 0 
L 5038 0 
L 5038 1825 
Q 5041 1866 5042 1909 
Q 5044 1953 5044 2034 
Q 5044 2406 4934 2573 
Q 4825 2741 4581 2741 
Q 4263 2741 4089 2478 
Q 3916 2216 3909 1719 
L 3909 0 
L 2784 0 
L 2784 1825 
Q 2784 2406 2684 2573 
Q 2584 2741 2328 2741 
Q 2006 2741 1831 2477 
Q 1656 2213 1656 1722 
L 1656 0 
L 531 0 
L 531 3500 
L 1656 3500 
L 1656 2988 
Q 1863 3284 2130 3434 
Q 2397 3584 2719 3584 
Q 3081 3584 3359 3409 
Q 3638 3234 3781 2919 
z
" transform="scale(0.015625)"/>
       <path id="DejaVuSans-Bold-65" d="M 4031 1759 
L 4031 1441 
L 1416 1441 
Q 1456 1047 1700 850 
Q 1944 653 2381 653 
Q 2734 653 3104 758 
Q 3475 863 3866 1075 
L 3866 213 
Q 3469 63 3072 -14 
Q 2675 -91 2278 -91 
Q 1328 -91 801 392 
Q 275 875 275 1747 
Q 275 2603 792 3093 
Q 1309 3584 2216 3584 
Q 3041 3584 3536 3087 
Q 4031 2591 4031 1759 
z
M 2881 2131 
Q 2881 2450 2695 2645 
Q 2509 2841 2209 2841 
Q 1884 2841 1681 2658 
Q 1478 2475 1428 2131 
L 2881 2131 
z
" transform="scale(0.015625)"/>
       <path id="DejaVuSans-Bold-20" transform="scale(0.015625)"/>
       <path id="DejaVuSans-Bold-5b" d="M 550 4863 
L 2491 4863 
L 2491 4159 
L 1613 4159 
L 1613 -141 
L 2491 -141 
L 2491 -844 
L 550 -844 
L 550 4863 
z
" transform="scale(0.015625)"/>
       <path id="DejaVuSans-Bold-68" d="M 4056 2131 
L 4056 0 
L 2931 0 
L 2931 347 
L 2931 1625 
Q 2931 2084 2911 2256 
Q 2891 2428 2841 2509 
Q 2775 2619 2662 2680 
Q 2550 2741 2406 2741 
Q 2056 2741 1856 2470 
Q 1656 2200 1656 1722 
L 1656 0 
L 538 0 
L 538 4863 
L 1656 4863 
L 1656 2988 
Q 1909 3294 2193 3439 
Q 2478 3584 2822 3584 
Q 3428 3584 3742 3212 
Q 4056 2841 4056 2131 
z
" transform="scale(0.015625)"/>
       <path id="DejaVuSans-Bold-72" d="M 3138 2547 
Q 2991 2616 2845 2648 
Q 2700 2681 2553 2681 
Q 2122 2681 1889 2404 
Q 1656 2128 1656 1613 
L 1656 0 
L 538 0 
L 538 3500 
L 1656 3500 
L 1656 2925 
Q 1872 3269 2151 3426 
Q 2431 3584 2822 3584 
Q 2878 3584 2943 3579 
Q 3009 3575 3134 3559 
L 3138 2547 
z
" transform="scale(0.015625)"/>
       <path id="DejaVuSans-Bold-5d" d="M 2375 -844 
L 434 -844 
L 434 -141 
L 1313 -141 
L 1313 4159 
L 434 4159 
L 434 4863 
L 2375 4863 
L 2375 -844 
z
" transform="scale(0.015625)"/>
      </defs>
      <use xlink:href="#DejaVuSans-Bold-74"/>
      <use xlink:href="#DejaVuSans-Bold-69" transform="translate(47.802734 0)"/>
      <use xlink:href="#DejaVuSans-Bold-6d" transform="translate(82.080078 0)"/>
      <use xlink:href="#DejaVuSans-Bold-65" transform="translate(186.279297 0)"/>
      <use xlink:href="#DejaVuSans-Bold-20" transform="translate(254.101562 0)"/>
      <use xlink:href="#DejaVuSans-Bold-5b" transform="translate(288.916016 0)"/>
      <use xlink:href="#DejaVuSans-Bold-68" transform="translate(334.619141 0)"/>
      <use xlink:href="#DejaVuSans-Bold-72" transform="translate(405.810547 0)"/>
      <use xlink:href="#DejaVuSans-Bold-5d" transform="translate(455.126953 0)"/>
     </g>
    </g>
   </g>
   <g id="matplotlib.axis_2">
    <g id="ytick_1">
     <g id="line2d_8">
      <defs>
       <path id="mae80512738" d="M 0 0 
L -3.5 0 
" style="stroke: #000000; stroke-width: 0.8"/>
      </defs>
      <g>
       <use xlink:href="#mae80512738" x="69.159688" y="309.286957" style="stroke: #000000; stroke-width: 0.8"/>
      </g>
     </g>
     <g id="text_9">
      <!-- 0.0 -->
      <g transform="translate(38.305 314.985785) scale(0.15 -0.15)">
       <defs>
        <path id="DejaVuSans-2e" d="M 684 794 
L 1344 794 
L 1344 0 
L 684 0 
L 684 794 
z
" transform="scale(0.015625)"/>
       </defs>
       <use xlink:href="#DejaVuSans-30"/>
       <use xlink:href="#DejaVuSans-2e" transform="translate(63.623047 0)"/>
       <use xlink:href="#DejaVuSans-30" transform="translate(95.410156 0)"/>
      </g>
     </g>
    </g>
    <g id="ytick_2">
     <g id="line2d_9">
      <g>
       <use xlink:href="#mae80512738" x="69.159688" y="276.778436" style="stroke: #000000; stroke-width: 0.8"/>
      </g>
     </g>
     <g id="text_10">
      <!-- 2.5 -->
      <g transform="translate(38.305 282.477264) scale(0.15 -0.15)">
       <use xlink:href="#DejaVuSans-32"/>
       <use xlink:href="#DejaVuSans-2e" transform="translate(63.623047 0)"/>
       <use xlink:href="#DejaVuSans-35" transform="translate(95.410156 0)"/>
      </g>
     </g>
    </g>
    <g id="ytick_3">
     <g id="line2d_10">
      <g>
       <use xlink:href="#mae80512738" x="69.159688" y="244.269916" style="stroke: #000000; stroke-width: 0.8"/>
      </g>
     </g>
     <g id="text_11">
      <!-- 5.0 -->
      <g transform="translate(38.305 249.968744) scale(0.15 -0.15)">
       <use xlink:href="#DejaVuSans-35"/>
       <use xlink:href="#DejaVuSans-2e" transform="translate(63.623047 0)"/>
       <use xlink:href="#DejaVuSans-30" transform="translate(95.410156 0)"/>
      </g>
     </g>
    </g>
    <g id="ytick_4">
     <g id="line2d_11">
      <g>
       <use xlink:href="#mae80512738" x="69.159688" y="211.761396" style="stroke: #000000; stroke-width: 0.8"/>
      </g>
     </g>
     <g id="text_12">
      <!-- 7.5 -->
      <g transform="translate(38.305 217.460224) scale(0.15 -0.15)">
       <use xlink:href="#DejaVuSans-37"/>
       <use xlink:href="#DejaVuSans-2e" transform="translate(63.623047 0)"/>
       <use xlink:href="#DejaVuSans-35" transform="translate(95.410156 0)"/>
      </g>
     </g>
    </g>
    <g id="ytick_5">
     <g id="line2d_12">
      <g>
       <use xlink:href="#mae80512738" x="69.159688" y="179.252875" style="stroke: #000000; stroke-width: 0.8"/>
      </g>
     </g>
     <g id="text_13">
      <!-- 10.0 -->
      <g transform="translate(28.76125 184.951703) scale(0.15 -0.15)">
       <use xlink:href="#DejaVuSans-31"/>
       <use xlink:href="#DejaVuSans-30" transform="translate(63.623047 0)"/>
       <use xlink:href="#DejaVuSans-2e" transform="translate(127.246094 0)"/>
       <use xlink:href="#DejaVuSans-30" transform="translate(159.033203 0)"/>
      </g>
     </g>
    </g>
    <g id="ytick_6">
     <g id="line2d_13">
      <g>
       <use xlink:href="#mae80512738" x="69.159688" y="146.744355" style="stroke: #000000; stroke-width: 0.8"/>
      </g>
     </g>
     <g id="text_14">
      <!-- 12.5 -->
      <g transform="translate(28.76125 152.443183) scale(0.15 -0.15)">
       <use xlink:href="#DejaVuSans-31"/>
       <use xlink:href="#DejaVuSans-32" transform="translate(63.623047 0)"/>
       <use xlink:href="#DejaVuSans-2e" transform="translate(127.246094 0)"/>
       <use xlink:href="#DejaVuSans-35" transform="translate(159.033203 0)"/>
      </g>
     </g>
    </g>
    <g id="ytick_7">
     <g id="line2d_14">
      <g>
       <use xlink:href="#mae80512738" x="69.159688" y="114.235835" style="stroke: #000000; stroke-width: 0.8"/>
      </g>
     </g>
     <g id="text_15">
      <!-- 15.0 -->
      <g transform="translate(28.76125 119.934663) scale(0.15 -0.15)">
       <use xlink:href="#DejaVuSans-31"/>
       <use xlink:href="#DejaVuSans-35" transform="translate(63.623047 0)"/>
       <use xlink:href="#DejaVuSans-2e" transform="translate(127.246094 0)"/>
       <use xlink:href="#DejaVuSans-30" transform="translate(159.033203 0)"/>
      </g>
     </g>
    </g>
    <g id="ytick_8">
     <g id="line2d_15">
      <g>
       <use xlink:href="#mae80512738" x="69.159688" y="81.727314" style="stroke: #000000; stroke-width: 0.8"/>
      </g>
     </g>
     <g id="text_16">
      <!-- 17.5 -->
      <g transform="translate(28.76125 87.426143) scale(0.15 -0.15)">
       <use xlink:href="#DejaVuSans-31"/>
       <use xlink:href="#DejaVuSans-37" transform="translate(63.623047 0)"/>
       <use xlink:href="#DejaVuSans-2e" transform="translate(127.246094 0)"/>
       <use xlink:href="#DejaVuSans-35" transform="translate(159.033203 0)"/>
      </g>
     </g>
    </g>
    <g id="text_17">
     <!-- rapamycin [µM] -->
     <g transform="translate(20.877188 279.759864) rotate(-90) scale(0.18 -0.18)">
      <defs>
       <path id="DejaVuSans-Bold-61" d="M 2106 1575 
Q 1756 1575 1579 1456 
Q 1403 1338 1403 1106 
Q 1403 894 1545 773 
Q 1688 653 1941 653 
Q 2256 653 2472 879 
Q 2688 1106 2688 1447 
L 2688 1575 
L 2106 1575 
z
M 3816 1997 
L 3816 0 
L 2688 0 
L 2688 519 
Q 2463 200 2181 54 
Q 1900 -91 1497 -91 
Q 953 -91 614 226 
Q 275 544 275 1050 
Q 275 1666 698 1953 
Q 1122 2241 2028 2241 
L 2688 2241 
L 2688 2328 
Q 2688 2594 2478 2717 
Q 2269 2841 1825 2841 
Q 1466 2841 1156 2769 
Q 847 2697 581 2553 
L 581 3406 
Q 941 3494 1303 3539 
Q 1666 3584 2028 3584 
Q 2975 3584 3395 3211 
Q 3816 2838 3816 1997 
z
" transform="scale(0.015625)"/>
       <path id="DejaVuSans-Bold-70" d="M 1656 506 
L 1656 -1331 
L 538 -1331 
L 538 3500 
L 1656 3500 
L 1656 2988 
Q 1888 3294 2169 3439 
Q 2450 3584 2816 3584 
Q 3463 3584 3878 3070 
Q 4294 2556 4294 1747 
Q 4294 938 3878 423 
Q 3463 -91 2816 -91 
Q 2450 -91 2169 54 
Q 1888 200 1656 506 
z
M 2400 2772 
Q 2041 2772 1848 2508 
Q 1656 2244 1656 1747 
Q 1656 1250 1848 986 
Q 2041 722 2400 722 
Q 2759 722 2948 984 
Q 3138 1247 3138 1747 
Q 3138 2247 2948 2509 
Q 2759 2772 2400 2772 
z
" transform="scale(0.015625)"/>
       <path id="DejaVuSans-Bold-79" d="M 78 3500 
L 1197 3500 
L 2138 1125 
L 2938 3500 
L 4056 3500 
L 2584 -331 
Q 2363 -916 2067 -1148 
Q 1772 -1381 1288 -1381 
L 641 -1381 
L 641 -647 
L 991 -647 
Q 1275 -647 1404 -556 
Q 1534 -466 1606 -231 
L 1638 -134 
L 78 3500 
z
" transform="scale(0.015625)"/>
       <path id="DejaVuSans-Bold-63" d="M 3366 3391 
L 3366 2478 
Q 3138 2634 2908 2709 
Q 2678 2784 2431 2784 
Q 1963 2784 1702 2511 
Q 1441 2238 1441 1747 
Q 1441 1256 1702 982 
Q 1963 709 2431 709 
Q 2694 709 2930 787 
Q 3166 866 3366 1019 
L 3366 103 
Q 3103 6 2833 -42 
Q 2563 -91 2291 -91 
Q 1344 -91 809 395 
Q 275 881 275 1747 
Q 275 2613 809 3098 
Q 1344 3584 2291 3584 
Q 2566 3584 2833 3536 
Q 3100 3488 3366 3391 
z
" transform="scale(0.015625)"/>
       <path id="DejaVuSans-Bold-6e" d="M 4056 2131 
L 4056 0 
L 2931 0 
L 2931 347 
L 2931 1631 
Q 2931 2084 2911 2256 
Q 2891 2428 2841 2509 
Q 2775 2619 2662 2680 
Q 2550 2741 2406 2741 
Q 2056 2741 1856 2470 
Q 1656 2200 1656 1722 
L 1656 0 
L 538 0 
L 538 3500 
L 1656 3500 
L 1656 2988 
Q 1909 3294 2193 3439 
Q 2478 3584 2822 3584 
Q 3428 3584 3742 3212 
Q 4056 2841 4056 2131 
z
" transform="scale(0.015625)"/>
       <path id="DejaVuSans-Bold-b5" d="M 544 -1338 
L 544 3500 
L 1672 3500 
L 1672 1466 
Q 1672 1103 1828 926 
Q 1984 750 2303 750 
Q 2625 750 2781 926 
Q 2938 1103 2938 1466 
L 2938 3500 
L 4063 3500 
L 4063 1159 
Q 4063 938 4114 850 
Q 4166 763 4288 763 
Q 4344 763 4395 778 
Q 4447 794 4506 831 
L 4506 50 
Q 4341 -22 4195 -56 
Q 4050 -91 3909 -91 
Q 3631 -91 3454 26 
Q 3278 144 3169 403 
Q 3022 156 2811 32 
Q 2600 -91 2322 -91 
Q 2091 -91 1928 -17 
Q 1766 56 1672 206 
L 1672 -1338 
L 544 -1338 
z
" transform="scale(0.015625)"/>
       <path id="DejaVuSans-Bold-4d" d="M 588 4666 
L 2119 4666 
L 3181 2169 
L 4250 4666 
L 5778 4666 
L 5778 0 
L 4641 0 
L 4641 3413 
L 3566 897 
L 2803 897 
L 1728 3413 
L 1728 0 
L 588 0 
L 588 4666 
z
" transform="scale(0.015625)"/>
      </defs>
      <use xlink:href="#DejaVuSans-Bold-72"/>
      <use xlink:href="#DejaVuSans-Bold-61" transform="translate(49.316406 0)"/>
      <use xlink:href="#DejaVuSans-Bold-70" transform="translate(116.796875 0)"/>
      <use xlink:href="#DejaVuSans-Bold-61" transform="translate(188.378906 0)"/>
      <use xlink:href="#DejaVuSans-Bold-6d" transform="translate(255.859375 0)"/>
      <use xlink:href="#DejaVuSans-Bold-79" transform="translate(360.058594 0)"/>
      <use xlink:href="#DejaVuSans-Bold-63" transform="translate(425.244141 0)"/>
      <use xlink:href="#DejaVuSans-Bold-69" transform="translate(484.521484 0)"/>
      <use xlink:href="#DejaVuSans-Bold-6e" transform="translate(518.798828 0)"/>
      <use xlink:href="#DejaVuSans-Bold-20" transform="translate(589.990234 0)"/>
      <use xlink:href="#DejaVuSans-Bold-5b" transform="translate(624.804688 0)"/>
      <use xlink:href="#DejaVuSans-Bold-b5" transform="translate(670.507812 0)"/>
      <use xlink:href="#DejaVuSans-Bold-4d" transform="translate(744.091797 0)"/>
      <use xlink:href="#DejaVuSans-Bold-5d" transform="translate(843.603516 0)"/>
     </g>
    </g>
   </g>
   <g id="LineCollection_1">
    <path d="M 86.914233 308.573391 
L 86.914233 308.040167 
" clip-path="url(#pe37c980deb)" style="fill: none; stroke: #000000"/>
    <path d="M 88.500306 308.809564 
L 88.500306 307.95196 
" clip-path="url(#pe37c980deb)" style="fill: none; stroke: #000000"/>
    <path d="M 89.281506 309.030129 
L 89.281506 308.487138 
" clip-path="url(#pe37c980deb)" style="fill: none; stroke: #000000"/>
    <path d="M 91.648778 309.008251 
L 91.648778 308.754889 
" clip-path="url(#pe37c980deb)" style="fill: none; stroke: #000000"/>
    <path d="M 94.016051 309.085986 
L 94.016051 308.859682 
" clip-path="url(#pe37c980deb)" style="fill: none; stroke: #000000"/>
    <path d="M 96.383324 309.161357 
L 96.383324 309.000523 
" clip-path="url(#pe37c980deb)" style="fill: none; stroke: #000000"/>
    <path d="M 101.117869 309.207924 
L 101.117869 309.070814 
" clip-path="url(#pe37c980deb)" style="fill: none; stroke: #000000"/>
    <path d="M 105.852415 309.224265 
L 105.852415 309.152223 
" clip-path="url(#pe37c980deb)" style="fill: none; stroke: #000000"/>
    <path d="M 115.321506 309.23225 
L 115.321506 309.180993 
" clip-path="url(#pe37c980deb)" style="fill: none; stroke: #000000"/>
    <path d="M 122.423324 309.244148 
L 122.423324 309.196417 
" clip-path="url(#pe37c980deb)" style="fill: none; stroke: #000000"/>
    <path d="M 143.728778 309.258704 
L 143.728778 309.221536 
" clip-path="url(#pe37c980deb)" style="fill: none; stroke: #000000"/>
    <path d="M 200.543324 309.266305 
L 200.543324 309.229865 
" clip-path="url(#pe37c980deb)" style="fill: none; stroke: #000000"/>
    <path d="M 257.357869 309.273783 
L 257.357869 309.238089 
" clip-path="url(#pe37c980deb)" style="fill: none; stroke: #000000"/>
    <path d="M 370.98696 309.277713 
L 370.98696 309.249977 
" clip-path="url(#pe37c980deb)" style="fill: none; stroke: #000000"/>
    <path d="M 427.801506 309.278322 
L 427.801506 309.258704 
" clip-path="url(#pe37c980deb)" style="fill: none; stroke: #000000"/>
   </g>
   <g id="LineCollection_2">
    <path d="M 86.914233 308.805628 
L 86.914233 307.484751 
" clip-path="url(#pe37c980deb)" style="fill: none; stroke: #1f77b4"/>
    <path d="M 88.500306 308.567482 
L 88.500306 307.659816 
" clip-path="url(#pe37c980deb)" style="fill: none; stroke: #1f77b4"/>
    <path d="M 89.281506 308.843454 
L 89.281506 308.213091 
" clip-path="url(#pe37c980deb)" style="fill: none; stroke: #1f77b4"/>
    <path d="M 91.648778 308.776834 
L 91.648778 308.330525 
" clip-path="url(#pe37c980deb)" style="fill: none; stroke: #1f77b4"/>
    <path d="M 94.016051 308.947888 
L 94.016051 308.568514 
" clip-path="url(#pe37c980deb)" style="fill: none; stroke: #1f77b4"/>
    <path d="M 96.383324 309.053175 
L 96.383324 308.8732 
" clip-path="url(#pe37c980deb)" style="fill: none; stroke: #1f77b4"/>
    <path d="M 101.117869 309.107066 
L 101.117869 308.94968 
" clip-path="url(#pe37c980deb)" style="fill: none; stroke: #1f77b4"/>
    <path d="M 105.852415 309.158121 
L 105.852415 309.045402 
" clip-path="url(#pe37c980deb)" style="fill: none; stroke: #1f77b4"/>
    <path d="M 115.321506 309.176913 
L 115.321506 309.084612 
" clip-path="url(#pe37c980deb)" style="fill: none; stroke: #1f77b4"/>
    <path d="M 122.423324 309.205414 
L 122.423324 309.137018 
" clip-path="url(#pe37c980deb)" style="fill: none; stroke: #1f77b4"/>
    <path d="M 143.728778 309.22964 
L 143.728778 309.177355 
" clip-path="url(#pe37c980deb)" style="fill: none; stroke: #1f77b4"/>
    <path d="M 200.543324 309.256959 
L 200.543324 309.195769 
" clip-path="url(#pe37c980deb)" style="fill: none; stroke: #1f77b4"/>
    <path d="M 257.357869 309.259607 
L 257.357869 309.21752 
" clip-path="url(#pe37c980deb)" style="fill: none; stroke: #1f77b4"/>
    <path d="M 370.98696 309.273114 
L 370.98696 309.22297 
" clip-path="url(#pe37c980deb)" style="fill: none; stroke: #1f77b4"/>
    <path d="M 427.801506 309.274717 
L 427.801506 309.24113 
" clip-path="url(#pe37c980deb)" style="fill: none; stroke: #1f77b4"/>
   </g>
   <g id="line2d_16">
    <path d="M 86.914233 309.286957 
L 87.091778 286.74872 
L 87.624415 134.533461 
L 87.979506 95.871814 
L 88.157051 93.125466 
L 88.334597 97.689516 
L 88.689688 119.538023 
L 89.932506 209.852607 
L 90.465142 234.582294 
L 90.997778 251.358076 
L 91.530415 262.413083 
L 92.063051 269.59253 
L 92.595688 274.222175 
L 93.128324 277.199155 
L 93.66096 279.113255 
L 94.193597 280.346568 
L 94.726233 281.144758 
L 95.436415 281.795455 
L 96.324142 282.238342 
L 97.56696 282.538373 
L 99.697506 282.764381 
L 107.687051 283.243582 
L 150.475506 285.570237 
L 195.572051 287.798531 
L 242.976687 289.916227 
L 292.86696 291.920577 
L 345.59796 293.814614 
L 401.524778 295.598712 
L 442.005142 296.76056 
L 442.005142 296.76056 
" clip-path="url(#pe37c980deb)" style="fill: none; stroke: #000000; stroke-width: 2; stroke-linecap: square"/>
   </g>
   <g id="line2d_17">
    <path d="M 86.914233 308.306779 
L 88.500306 308.380762 
L 89.281506 308.758633 
L 91.648778 308.88157 
L 94.016051 308.972834 
L 96.383324 309.08094 
L 101.117869 309.139369 
L 105.852415 309.188244 
L 115.321506 309.206622 
L 122.423324 309.220283 
L 143.728778 309.24012 
L 200.543324 309.248085 
L 257.357869 309.255936 
L 370.98696 309.263845 
L 427.801506 309.268513 
" clip-path="url(#pe37c980deb)" style="fill: none; stroke-dasharray: 3.7,1.6; stroke-dashoffset: 0; stroke: #000000"/>
    <defs>
     <path id="m8618f8b898" d="M -3 3 
L 3 3 
L 3 -3 
L -3 -3 
z
" style="stroke: #000000; stroke-linejoin: miter"/>
    </defs>
    <g clip-path="url(#pe37c980deb)">
     <use xlink:href="#m8618f8b898" x="86.914233" y="308.306779" style="stroke: #000000; stroke-linejoin: miter"/>
     <use xlink:href="#m8618f8b898" x="88.500306" y="308.380762" style="stroke: #000000; stroke-linejoin: miter"/>
     <use xlink:href="#m8618f8b898" x="89.281506" y="308.758633" style="stroke: #000000; stroke-linejoin: miter"/>
     <use xlink:href="#m8618f8b898" x="91.648778" y="308.88157" style="stroke: #000000; stroke-linejoin: miter"/>
     <use xlink:href="#m8618f8b898" x="94.016051" y="308.972834" style="stroke: #000000; stroke-linejoin: miter"/>
     <use xlink:href="#m8618f8b898" x="96.383324" y="309.08094" style="stroke: #000000; stroke-linejoin: miter"/>
     <use xlink:href="#m8618f8b898" x="101.117869" y="309.139369" style="stroke: #000000; stroke-linejoin: miter"/>
     <use xlink:href="#m8618f8b898" x="105.852415" y="309.188244" style="stroke: #000000; stroke-linejoin: miter"/>
     <use xlink:href="#m8618f8b898" x="115.321506" y="309.206622" style="stroke: #000000; stroke-linejoin: miter"/>
     <use xlink:href="#m8618f8b898" x="122.423324" y="309.220283" style="stroke: #000000; stroke-linejoin: miter"/>
     <use xlink:href="#m8618f8b898" x="143.728778" y="309.24012" style="stroke: #000000; stroke-linejoin: miter"/>
     <use xlink:href="#m8618f8b898" x="200.543324" y="309.248085" style="stroke: #000000; stroke-linejoin: miter"/>
     <use xlink:href="#m8618f8b898" x="257.357869" y="309.255936" style="stroke: #000000; stroke-linejoin: miter"/>
     <use xlink:href="#m8618f8b898" x="370.98696" y="309.263845" style="stroke: #000000; stroke-linejoin: miter"/>
     <use xlink:href="#m8618f8b898" x="427.801506" y="309.268513" style="stroke: #000000; stroke-linejoin: miter"/>
    </g>
   </g>
   <g id="line2d_18">
    <path d="M 86.914233 309.286957 
L 87.091778 286.631806 
L 87.624415 132.617916 
L 87.979506 93.114625 
L 88.157051 90.156522 
L 88.334597 94.626463 
L 88.689688 116.544138 
L 89.932506 207.963168 
L 90.465142 233.088992 
L 90.997778 250.149363 
L 91.530415 261.397302 
L 92.063051 268.702976 
L 92.595688 273.413121 
L 93.128324 276.44024 
L 93.66096 278.384678 
L 94.193597 279.635541 
L 94.726233 280.443072 
L 95.436415 281.098405 
L 96.324142 281.54008 
L 97.56696 281.832387 
L 99.697506 282.039823 
L 107.509506 282.435628 
L 159.352778 284.798431 
L 214.036778 287.066547 
L 271.38396 289.220542 
L 331.749415 291.263384 
L 395.488233 293.195689 
L 442.005142 294.474145 
L 442.005142 294.474145 
" clip-path="url(#pe37c980deb)" style="fill: none; stroke: #1f77b4; stroke-width: 2; stroke-linecap: square"/>
   </g>
   <g id="line2d_19">
    <path d="M 86.914233 308.145189 
L 88.500306 308.113649 
L 89.281506 308.528272 
L 91.648778 308.55368 
L 94.016051 308.758201 
L 96.383324 308.963188 
L 101.117869 309.028373 
L 105.852415 309.101762 
L 115.321506 309.130763 
L 122.423324 309.171216 
L 143.728778 309.203498 
L 200.543324 309.226364 
L 257.357869 309.238563 
L 370.98696 309.248042 
L 427.801506 309.257924 
" clip-path="url(#pe37c980deb)" style="fill: none; stroke-dasharray: 3.7,1.6; stroke-dashoffset: 0; stroke: #1f77b4"/>
    <defs>
     <path id="m536b198e3d" d="M -3 3 
L 3 3 
L 3 -3 
L -3 -3 
z
" style="stroke: #000000; stroke-linejoin: miter"/>
    </defs>
    <g clip-path="url(#pe37c980deb)">
     <use xlink:href="#m536b198e3d" x="86.914233" y="308.145189" style="fill: #1f77b4; stroke: #000000; stroke-linejoin: miter"/>
     <use xlink:href="#m536b198e3d" x="88.500306" y="308.113649" style="fill: #1f77b4; stroke: #000000; stroke-linejoin: miter"/>
     <use xlink:href="#m536b198e3d" x="89.281506" y="308.528272" style="fill: #1f77b4; stroke: #000000; stroke-linejoin: miter"/>
     <use xlink:href="#m536b198e3d" x="91.648778" y="308.55368" style="fill: #1f77b4; stroke: #000000; stroke-linejoin: miter"/>
     <use xlink:href="#m536b198e3d" x="94.016051" y="308.758201" style="fill: #1f77b4; stroke: #000000; stroke-linejoin: miter"/>
     <use xlink:href="#m536b198e3d" x="96.383324" y="308.963188" style="fill: #1f77b4; stroke: #000000; stroke-linejoin: miter"/>
     <use xlink:href="#m536b198e3d" x="101.117869" y="309.028373" style="fill: #1f77b4; stroke: #000000; stroke-linejoin: miter"/>
     <use xlink:href="#m536b198e3d" x="105.852415" y="309.101762" style="fill: #1f77b4; stroke: #000000; stroke-linejoin: miter"/>
     <use xlink:href="#m536b198e3d" x="115.321506" y="309.130763" style="fill: #1f77b4; stroke: #000000; stroke-linejoin: miter"/>
     <use xlink:href="#m536b198e3d" x="122.423324" y="309.171216" style="fill: #1f77b4; stroke: #000000; stroke-linejoin: miter"/>
     <use xlink:href="#m536b198e3d" x="143.728778" y="309.203498" style="fill: #1f77b4; stroke: #000000; stroke-linejoin: miter"/>
     <use xlink:href="#m536b198e3d" x="200.543324" y="309.226364" style="fill: #1f77b4; stroke: #000000; stroke-linejoin: miter"/>
     <use xlink:href="#m536b198e3d" x="257.357869" y="309.238563" style="fill: #1f77b4; stroke: #000000; stroke-linejoin: miter"/>
     <use xlink:href="#m536b198e3d" x="370.98696" y="309.248042" style="fill: #1f77b4; stroke: #000000; stroke-linejoin: miter"/>
     <use xlink:href="#m536b198e3d" x="427.801506" y="309.257924" style="fill: #1f77b4; stroke: #000000; stroke-linejoin: miter"/>
    </g>
   </g>
   <g id="patch_3">
    <path d="M 69.159688 320.243478 
L 69.159688 79.2 
" style="fill: none; stroke: #000000; stroke-width: 0.8; stroke-linejoin: miter; stroke-linecap: square"/>
   </g>
   <g id="patch_4">
    <path d="M 459.759688 320.243478 
L 459.759688 79.2 
" style="fill: none; stroke: #000000; stroke-width: 0.8; stroke-linejoin: miter; stroke-linecap: square"/>
   </g>
   <g id="patch_5">
    <path d="M 69.159688 320.243478 
L 459.759687 320.243478 
" style="fill: none; stroke: #000000; stroke-width: 0.8; stroke-linejoin: miter; stroke-linecap: square"/>
   </g>
   <g id="patch_6">
    <path d="M 69.159688 79.2 
L 459.759687 79.2 
" style="fill: none; stroke: #000000; stroke-width: 0.8; stroke-linejoin: miter; stroke-linecap: square"/>
   </g>
   <g id="legend_1">
    <g id="patch_7">
     <path d="M 482.383688 146.46875 
L 647.688375 146.46875 
Q 649.688375 146.46875 649.688375 144.46875 
L 649.688375 86.2 
Q 649.688375 84.2 647.688375 84.2 
L 482.383688 84.2 
Q 480.383688 84.2 480.383688 86.2 
L 480.383688 144.46875 
Q 480.383688 146.46875 482.383688 146.46875 
z
" style="fill: #ffffff; opacity: 0.8; stroke: #cccccc; stroke-linejoin: miter"/>
    </g>
    <g id="line2d_20">
     <path d="M 484.383688 92.298437 
L 504.383688 92.298437 
" style="fill: none; stroke: #000000; stroke-width: 2; stroke-linecap: square"/>
    </g>
    <g id="line2d_21"/>
    <g id="text_18">
     <!-- RAP10 -->
     <g transform="translate(512.383688 95.798437) scale(0.1 -0.1)">
      <defs>
       <path id="DejaVuSans-52" d="M 2841 2188 
Q 3044 2119 3236 1894 
Q 3428 1669 3622 1275 
L 4263 0 
L 3584 0 
L 2988 1197 
Q 2756 1666 2539 1819 
Q 2322 1972 1947 1972 
L 1259 1972 
L 1259 0 
L 628 0 
L 628 4666 
L 2053 4666 
Q 2853 4666 3247 4331 
Q 3641 3997 3641 3322 
Q 3641 2881 3436 2590 
Q 3231 2300 2841 2188 
z
M 1259 4147 
L 1259 2491 
L 2053 2491 
Q 2509 2491 2742 2702 
Q 2975 2913 2975 3322 
Q 2975 3731 2742 3939 
Q 2509 4147 2053 4147 
L 1259 4147 
z
" transform="scale(0.015625)"/>
       <path id="DejaVuSans-41" d="M 2188 4044 
L 1331 1722 
L 3047 1722 
L 2188 4044 
z
M 1831 4666 
L 2547 4666 
L 4325 0 
L 3669 0 
L 3244 1197 
L 1141 1197 
L 716 0 
L 50 0 
L 1831 4666 
z
" transform="scale(0.015625)"/>
       <path id="DejaVuSans-50" d="M 1259 4147 
L 1259 2394 
L 2053 2394 
Q 2494 2394 2734 2622 
Q 2975 2850 2975 3272 
Q 2975 3691 2734 3919 
Q 2494 4147 2053 4147 
L 1259 4147 
z
M 628 4666 
L 2053 4666 
Q 2838 4666 3239 4311 
Q 3641 3956 3641 3272 
Q 3641 2581 3239 2228 
Q 2838 1875 2053 1875 
L 1259 1875 
L 1259 0 
L 628 0 
L 628 4666 
z
" transform="scale(0.015625)"/>
      </defs>
      <use xlink:href="#DejaVuSans-52"/>
      <use xlink:href="#DejaVuSans-41" transform="translate(65.482422 0)"/>
      <use xlink:href="#DejaVuSans-50" transform="translate(133.890625 0)"/>
      <use xlink:href="#DejaVuSans-31" transform="translate(194.193359 0)"/>
      <use xlink:href="#DejaVuSans-30" transform="translate(257.816406 0)"/>
     </g>
    </g>
    <g id="LineCollection_3">
     <path d="M 494.383688 111.976562 
L 494.383688 101.976562 
" style="fill: none; stroke: #000000"/>
    </g>
    <g id="line2d_22">
     <path d="M 484.383688 106.976562 
L 504.383688 106.976562 
" style="fill: none; stroke-dasharray: 3.7,1.6; stroke-dashoffset: 0; stroke: #000000"/>
    </g>
    <g id="line2d_23">
     <g>
      <use xlink:href="#m8618f8b898" x="494.383688" y="106.976562" style="stroke: #000000; stroke-linejoin: miter"/>
     </g>
    </g>
    <g id="text_19">
     <!-- RAP10±SD (n=18) -->
     <g transform="translate(512.383688 110.476562) scale(0.1 -0.1)">
      <defs>
       <path id="DejaVuSans-b1" d="M 2944 4013 
L 2944 2803 
L 4684 2803 
L 4684 2272 
L 2944 2272 
L 2944 1063 
L 2419 1063 
L 2419 2272 
L 678 2272 
L 678 2803 
L 2419 2803 
L 2419 4013 
L 2944 4013 
z
M 678 531 
L 4684 531 
L 4684 0 
L 678 0 
L 678 531 
z
" transform="scale(0.015625)"/>
       <path id="DejaVuSans-53" d="M 3425 4513 
L 3425 3897 
Q 3066 4069 2747 4153 
Q 2428 4238 2131 4238 
Q 1616 4238 1336 4038 
Q 1056 3838 1056 3469 
Q 1056 3159 1242 3001 
Q 1428 2844 1947 2747 
L 2328 2669 
Q 3034 2534 3370 2195 
Q 3706 1856 3706 1288 
Q 3706 609 3251 259 
Q 2797 -91 1919 -91 
Q 1588 -91 1214 -16 
Q 841 59 441 206 
L 441 856 
Q 825 641 1194 531 
Q 1563 422 1919 422 
Q 2459 422 2753 634 
Q 3047 847 3047 1241 
Q 3047 1584 2836 1778 
Q 2625 1972 2144 2069 
L 1759 2144 
Q 1053 2284 737 2584 
Q 422 2884 422 3419 
Q 422 4038 858 4394 
Q 1294 4750 2059 4750 
Q 2388 4750 2728 4690 
Q 3069 4631 3425 4513 
z
" transform="scale(0.015625)"/>
       <path id="DejaVuSans-44" d="M 1259 4147 
L 1259 519 
L 2022 519 
Q 2988 519 3436 956 
Q 3884 1394 3884 2338 
Q 3884 3275 3436 3711 
Q 2988 4147 2022 4147 
L 1259 4147 
z
M 628 4666 
L 1925 4666 
Q 3281 4666 3915 4102 
Q 4550 3538 4550 2338 
Q 4550 1131 3912 565 
Q 3275 0 1925 0 
L 628 0 
L 628 4666 
z
" transform="scale(0.015625)"/>
       <path id="DejaVuSans-20" transform="scale(0.015625)"/>
       <path id="DejaVuSans-28" d="M 1984 4856 
Q 1566 4138 1362 3434 
Q 1159 2731 1159 2009 
Q 1159 1288 1364 580 
Q 1569 -128 1984 -844 
L 1484 -844 
Q 1016 -109 783 600 
Q 550 1309 550 2009 
Q 550 2706 781 3412 
Q 1013 4119 1484 4856 
L 1984 4856 
z
" transform="scale(0.015625)"/>
       <path id="DejaVuSans-6e" d="M 3513 2113 
L 3513 0 
L 2938 0 
L 2938 2094 
Q 2938 2591 2744 2837 
Q 2550 3084 2163 3084 
Q 1697 3084 1428 2787 
Q 1159 2491 1159 1978 
L 1159 0 
L 581 0 
L 581 3500 
L 1159 3500 
L 1159 2956 
Q 1366 3272 1645 3428 
Q 1925 3584 2291 3584 
Q 2894 3584 3203 3211 
Q 3513 2838 3513 2113 
z
" transform="scale(0.015625)"/>
       <path id="DejaVuSans-3d" d="M 678 2906 
L 4684 2906 
L 4684 2381 
L 678 2381 
L 678 2906 
z
M 678 1631 
L 4684 1631 
L 4684 1100 
L 678 1100 
L 678 1631 
z
" transform="scale(0.015625)"/>
       <path id="DejaVuSans-38" d="M 2034 2216 
Q 1584 2216 1326 1975 
Q 1069 1734 1069 1313 
Q 1069 891 1326 650 
Q 1584 409 2034 409 
Q 2484 409 2743 651 
Q 3003 894 3003 1313 
Q 3003 1734 2745 1975 
Q 2488 2216 2034 2216 
z
M 1403 2484 
Q 997 2584 770 2862 
Q 544 3141 544 3541 
Q 544 4100 942 4425 
Q 1341 4750 2034 4750 
Q 2731 4750 3128 4425 
Q 3525 4100 3525 3541 
Q 3525 3141 3298 2862 
Q 3072 2584 2669 2484 
Q 3125 2378 3379 2068 
Q 3634 1759 3634 1313 
Q 3634 634 3220 271 
Q 2806 -91 2034 -91 
Q 1263 -91 848 271 
Q 434 634 434 1313 
Q 434 1759 690 2068 
Q 947 2378 1403 2484 
z
M 1172 3481 
Q 1172 3119 1398 2916 
Q 1625 2713 2034 2713 
Q 2441 2713 2670 2916 
Q 2900 3119 2900 3481 
Q 2900 3844 2670 4047 
Q 2441 4250 2034 4250 
Q 1625 4250 1398 4047 
Q 1172 3844 1172 3481 
z
" transform="scale(0.015625)"/>
       <path id="DejaVuSans-29" d="M 513 4856 
L 1013 4856 
Q 1481 4119 1714 3412 
Q 1947 2706 1947 2009 
Q 1947 1309 1714 600 
Q 1481 -109 1013 -844 
L 513 -844 
Q 928 -128 1133 580 
Q 1338 1288 1338 2009 
Q 1338 2731 1133 3434 
Q 928 4138 513 4856 
z
" transform="scale(0.015625)"/>
      </defs>
      <use xlink:href="#DejaVuSans-52"/>
      <use xlink:href="#DejaVuSans-41" transform="translate(65.482422 0)"/>
      <use xlink:href="#DejaVuSans-50" transform="translate(133.890625 0)"/>
      <use xlink:href="#DejaVuSans-31" transform="translate(194.193359 0)"/>
      <use xlink:href="#DejaVuSans-30" transform="translate(257.816406 0)"/>
      <use xlink:href="#DejaVuSans-b1" transform="translate(321.439453 0)"/>
      <use xlink:href="#DejaVuSans-53" transform="translate(405.228516 0)"/>
      <use xlink:href="#DejaVuSans-44" transform="translate(468.705078 0)"/>
      <use xlink:href="#DejaVuSans-20" transform="translate(545.707031 0)"/>
      <use xlink:href="#DejaVuSans-28" transform="translate(577.494141 0)"/>
      <use xlink:href="#DejaVuSans-6e" transform="translate(616.507812 0)"/>
      <use xlink:href="#DejaVuSans-3d" transform="translate(679.886719 0)"/>
      <use xlink:href="#DejaVuSans-31" transform="translate(763.675781 0)"/>
      <use xlink:href="#DejaVuSans-38" transform="translate(827.298828 0)"/>
      <use xlink:href="#DejaVuSans-29" transform="translate(890.921875 0)"/>
     </g>
    </g>
    <g id="line2d_24">
     <path d="M 484.383688 121.654687 
L 504.383688 121.654687 
" style="fill: none; stroke: #1f77b4; stroke-width: 2; stroke-linecap: square"/>
    </g>
    <g id="line2d_25"/>
    <g id="text_20">
     <!-- RAP10_DIL120 -->
     <g transform="translate(512.383688 125.154687) scale(0.1 -0.1)">
      <defs>
       <path id="DejaVuSans-5f" d="M 3263 -1063 
L 3263 -1509 
L -63 -1509 
L -63 -1063 
L 3263 -1063 
z
" transform="scale(0.015625)"/>
       <path id="DejaVuSans-49" d="M 628 4666 
L 1259 4666 
L 1259 0 
L 628 0 
L 628 4666 
z
" transform="scale(0.015625)"/>
       <path id="DejaVuSans-4c" d="M 628 4666 
L 1259 4666 
L 1259 531 
L 3531 531 
L 3531 0 
L 628 0 
L 628 4666 
z
" transform="scale(0.015625)"/>
      </defs>
      <use xlink:href="#DejaVuSans-52"/>
      <use xlink:href="#DejaVuSans-41" transform="translate(65.482422 0)"/>
      <use xlink:href="#DejaVuSans-50" transform="translate(133.890625 0)"/>
      <use xlink:href="#DejaVuSans-31" transform="translate(194.193359 0)"/>
      <use xlink:href="#DejaVuSans-30" transform="translate(257.816406 0)"/>
      <use xlink:href="#DejaVuSans-5f" transform="translate(321.439453 0)"/>
      <use xlink:href="#DejaVuSans-44" transform="translate(371.439453 0)"/>
      <use xlink:href="#DejaVuSans-49" transform="translate(448.441406 0)"/>
      <use xlink:href="#DejaVuSans-4c" transform="translate(477.933594 0)"/>
      <use xlink:href="#DejaVuSans-31" transform="translate(533.646484 0)"/>
      <use xlink:href="#DejaVuSans-32" transform="translate(597.269531 0)"/>
      <use xlink:href="#DejaVuSans-30" transform="translate(660.892578 0)"/>
     </g>
    </g>
    <g id="LineCollection_4">
     <path d="M 494.383688 141.610937 
L 494.383688 131.610937 
" style="fill: none; stroke: #1f77b4"/>
    </g>
    <g id="line2d_26">
     <path d="M 484.383688 136.610937 
L 504.383688 136.610937 
" style="fill: none; stroke-dasharray: 3.7,1.6; stroke-dashoffset: 0; stroke: #1f77b4"/>
    </g>
    <g id="line2d_27">
     <g>
      <use xlink:href="#m536b198e3d" x="494.383688" y="136.610937" style="fill: #1f77b4; stroke: #000000; stroke-linejoin: miter"/>
     </g>
    </g>
    <g id="text_21">
     <!-- RAP10_DIL120±SD (n=18) -->
     <g transform="translate(512.383688 140.110937) scale(0.1 -0.1)">
      <use xlink:href="#DejaVuSans-52"/>
      <use xlink:href="#DejaVuSans-41" transform="translate(65.482422 0)"/>
      <use xlink:href="#DejaVuSans-50" transform="translate(133.890625 0)"/>
      <use xlink:href="#DejaVuSans-31" transform="translate(194.193359 0)"/>
      <use xlink:href="#DejaVuSans-30" transform="translate(257.816406 0)"/>
      <use xlink:href="#DejaVuSans-5f" transform="translate(321.439453 0)"/>
      <use xlink:href="#DejaVuSans-44" transform="translate(371.439453 0)"/>
      <use xlink:href="#DejaVuSans-49" transform="translate(448.441406 0)"/>
      <use xlink:href="#DejaVuSans-4c" transform="translate(477.933594 0)"/>
      <use xlink:href="#DejaVuSans-31" transform="translate(533.646484 0)"/>
      <use xlink:href="#DejaVuSans-32" transform="translate(597.269531 0)"/>
      <use xlink:href="#DejaVuSans-30" transform="translate(660.892578 0)"/>
      <use xlink:href="#DejaVuSans-b1" transform="translate(724.515625 0)"/>
      <use xlink:href="#DejaVuSans-53" transform="translate(808.304688 0)"/>
      <use xlink:href="#DejaVuSans-44" transform="translate(871.78125 0)"/>
      <use xlink:href="#DejaVuSans-20" transform="translate(948.783203 0)"/>
      <use xlink:href="#DejaVuSans-28" transform="translate(980.570312 0)"/>
      <use xlink:href="#DejaVuSans-6e" transform="translate(1019.583984 0)"/>
      <use xlink:href="#DejaVuSans-3d" transform="translate(1082.962891 0)"/>
      <use xlink:href="#DejaVuSans-31" transform="translate(1166.751953 0)"/>
      <use xlink:href="#DejaVuSans-38" transform="translate(1230.375 0)"/>
      <use xlink:href="#DejaVuSans-29" transform="translate(1293.998047 0)"/>
     </g>
    </g>
   </g>
  </g>
  <g id="axes_2">
   <g id="patch_8">
    <path d="M 69.159688 633.6 
L 459.759688 633.6 
L 459.759688 392.556522 
L 69.159688 392.556522 
z
" style="fill: #ffffff"/>
   </g>
   <g id="matplotlib.axis_3">
    <g id="xtick_8">
     <g id="line2d_28">
      <g>
       <use xlink:href="#m344105a20e" x="77.131116" y="633.6" style="stroke: #000000; stroke-width: 0.8"/>
      </g>
     </g>
     <g id="text_22">
      <!-- 0 -->
      <g transform="translate(72.359241 651.997656) scale(0.15 -0.15)">
       <use xlink:href="#DejaVuSans-30"/>
      </g>
     </g>
    </g>
    <g id="xtick_9">
     <g id="line2d_29">
      <g>
       <use xlink:href="#m344105a20e" x="156.845402" y="633.6" style="stroke: #000000; stroke-width: 0.8"/>
      </g>
     </g>
     <g id="text_23">
      <!-- 10 -->
      <g transform="translate(147.301652 651.997656) scale(0.15 -0.15)">
       <use xlink:href="#DejaVuSans-31"/>
       <use xlink:href="#DejaVuSans-30" transform="translate(63.623047 0)"/>
      </g>
     </g>
    </g>
    <g id="xtick_10">
     <g id="line2d_30">
      <g>
       <use xlink:href="#m344105a20e" x="236.559688" y="633.6" style="stroke: #000000; stroke-width: 0.8"/>
      </g>
     </g>
     <g id="text_24">
      <!-- 20 -->
      <g transform="translate(227.015938 651.997656) scale(0.15 -0.15)">
       <use xlink:href="#DejaVuSans-32"/>
       <use xlink:href="#DejaVuSans-30" transform="translate(63.623047 0)"/>
      </g>
     </g>
    </g>
    <g id="xtick_11">
     <g id="line2d_31">
      <g>
       <use xlink:href="#m344105a20e" x="316.273973" y="633.6" style="stroke: #000000; stroke-width: 0.8"/>
      </g>
     </g>
     <g id="text_25">
      <!-- 30 -->
      <g transform="translate(306.730223 651.997656) scale(0.15 -0.15)">
       <defs>
        <path id="DejaVuSans-33" d="M 2597 2516 
Q 3050 2419 3304 2112 
Q 3559 1806 3559 1356 
Q 3559 666 3084 287 
Q 2609 -91 1734 -91 
Q 1441 -91 1130 -33 
Q 819 25 488 141 
L 488 750 
Q 750 597 1062 519 
Q 1375 441 1716 441 
Q 2309 441 2620 675 
Q 2931 909 2931 1356 
Q 2931 1769 2642 2001 
Q 2353 2234 1838 2234 
L 1294 2234 
L 1294 2753 
L 1863 2753 
Q 2328 2753 2575 2939 
Q 2822 3125 2822 3475 
Q 2822 3834 2567 4026 
Q 2313 4219 1838 4219 
Q 1578 4219 1281 4162 
Q 984 4106 628 3988 
L 628 4550 
Q 988 4650 1302 4700 
Q 1616 4750 1894 4750 
Q 2613 4750 3031 4423 
Q 3450 4097 3450 3541 
Q 3450 3153 3228 2886 
Q 3006 2619 2597 2516 
z
" transform="scale(0.015625)"/>
       </defs>
       <use xlink:href="#DejaVuSans-33"/>
       <use xlink:href="#DejaVuSans-30" transform="translate(63.623047 0)"/>
      </g>
     </g>
    </g>
    <g id="xtick_12">
     <g id="line2d_32">
      <g>
       <use xlink:href="#m344105a20e" x="395.988259" y="633.6" style="stroke: #000000; stroke-width: 0.8"/>
      </g>
     </g>
     <g id="text_26">
      <!-- 40 -->
      <g transform="translate(386.444509 651.997656) scale(0.15 -0.15)">
       <defs>
        <path id="DejaVuSans-34" d="M 2419 4116 
L 825 1625 
L 2419 1625 
L 2419 4116 
z
M 2253 4666 
L 3047 4666 
L 3047 1625 
L 3713 1625 
L 3713 1100 
L 3047 1100 
L 3047 0 
L 2419 0 
L 2419 1100 
L 313 1100 
L 313 1709 
L 2253 4666 
z
" transform="scale(0.015625)"/>
       </defs>
       <use xlink:href="#DejaVuSans-34"/>
       <use xlink:href="#DejaVuSans-30" transform="translate(63.623047 0)"/>
      </g>
     </g>
    </g>
    <g id="text_27">
     <!-- time [hr] -->
     <g transform="translate(219.385156 672.794375) scale(0.18 -0.18)">
      <use xlink:href="#DejaVuSans-Bold-74"/>
      <use xlink:href="#DejaVuSans-Bold-69" transform="translate(47.802734 0)"/>
      <use xlink:href="#DejaVuSans-Bold-6d" transform="translate(82.080078 0)"/>
      <use xlink:href="#DejaVuSans-Bold-65" transform="translate(186.279297 0)"/>
      <use xlink:href="#DejaVuSans-Bold-20" transform="translate(254.101562 0)"/>
      <use xlink:href="#DejaVuSans-Bold-5b" transform="translate(288.916016 0)"/>
      <use xlink:href="#DejaVuSans-Bold-68" transform="translate(334.619141 0)"/>
      <use xlink:href="#DejaVuSans-Bold-72" transform="translate(405.810547 0)"/>
      <use xlink:href="#DejaVuSans-Bold-5d" transform="translate(455.126953 0)"/>
     </g>
    </g>
   </g>
   <g id="matplotlib.axis_4">
    <g id="ytick_9">
     <g id="line2d_33">
      <g>
       <use xlink:href="#mae80512738" x="69.159688" y="622.643478" style="stroke: #000000; stroke-width: 0.8"/>
      </g>
     </g>
     <g id="text_28">
      <!-- 0.0 -->
      <g transform="translate(38.305 628.342306) scale(0.15 -0.15)">
       <use xlink:href="#DejaVuSans-30"/>
       <use xlink:href="#DejaVuSans-2e" transform="translate(63.623047 0)"/>
       <use xlink:href="#DejaVuSans-30" transform="translate(95.410156 0)"/>
      </g>
     </g>
    </g>
    <g id="ytick_10">
     <g id="line2d_34">
      <g>
       <use xlink:href="#mae80512738" x="69.159688" y="590.134958" style="stroke: #000000; stroke-width: 0.8"/>
      </g>
     </g>
     <g id="text_29">
      <!-- 2.5 -->
      <g transform="translate(38.305 595.833786) scale(0.15 -0.15)">
       <use xlink:href="#DejaVuSans-32"/>
       <use xlink:href="#DejaVuSans-2e" transform="translate(63.623047 0)"/>
       <use xlink:href="#DejaVuSans-35" transform="translate(95.410156 0)"/>
      </g>
     </g>
    </g>
    <g id="ytick_11">
     <g id="line2d_35">
      <g>
       <use xlink:href="#mae80512738" x="69.159688" y="557.626438" style="stroke: #000000; stroke-width: 0.8"/>
      </g>
     </g>
     <g id="text_30">
      <!-- 5.0 -->
      <g transform="translate(38.305 563.325266) scale(0.15 -0.15)">
       <use xlink:href="#DejaVuSans-35"/>
       <use xlink:href="#DejaVuSans-2e" transform="translate(63.623047 0)"/>
       <use xlink:href="#DejaVuSans-30" transform="translate(95.410156 0)"/>
      </g>
     </g>
    </g>
    <g id="ytick_12">
     <g id="line2d_36">
      <g>
       <use xlink:href="#mae80512738" x="69.159688" y="525.117917" style="stroke: #000000; stroke-width: 0.8"/>
      </g>
     </g>
     <g id="text_31">
      <!-- 7.5 -->
      <g transform="translate(38.305 530.816745) scale(0.15 -0.15)">
       <use xlink:href="#DejaVuSans-37"/>
       <use xlink:href="#DejaVuSans-2e" transform="translate(63.623047 0)"/>
       <use xlink:href="#DejaVuSans-35" transform="translate(95.410156 0)"/>
      </g>
     </g>
    </g>
    <g id="ytick_13">
     <g id="line2d_37">
      <g>
       <use xlink:href="#mae80512738" x="69.159688" y="492.609397" style="stroke: #000000; stroke-width: 0.8"/>
      </g>
     </g>
     <g id="text_32">
      <!-- 10.0 -->
      <g transform="translate(28.76125 498.308225) scale(0.15 -0.15)">
       <use xlink:href="#DejaVuSans-31"/>
       <use xlink:href="#DejaVuSans-30" transform="translate(63.623047 0)"/>
       <use xlink:href="#DejaVuSans-2e" transform="translate(127.246094 0)"/>
       <use xlink:href="#DejaVuSans-30" transform="translate(159.033203 0)"/>
      </g>
     </g>
    </g>
    <g id="ytick_14">
     <g id="line2d_38">
      <g>
       <use xlink:href="#mae80512738" x="69.159688" y="460.100877" style="stroke: #000000; stroke-width: 0.8"/>
      </g>
     </g>
     <g id="text_33">
      <!-- 12.5 -->
      <g transform="translate(28.76125 465.799705) scale(0.15 -0.15)">
       <use xlink:href="#DejaVuSans-31"/>
       <use xlink:href="#DejaVuSans-32" transform="translate(63.623047 0)"/>
       <use xlink:href="#DejaVuSans-2e" transform="translate(127.246094 0)"/>
       <use xlink:href="#DejaVuSans-35" transform="translate(159.033203 0)"/>
      </g>
     </g>
    </g>
    <g id="ytick_15">
     <g id="line2d_39">
      <g>
       <use xlink:href="#mae80512738" x="69.159688" y="427.592356" style="stroke: #000000; stroke-width: 0.8"/>
      </g>
     </g>
     <g id="text_34">
      <!-- 15.0 -->
      <g transform="translate(28.76125 433.291185) scale(0.15 -0.15)">
       <use xlink:href="#DejaVuSans-31"/>
       <use xlink:href="#DejaVuSans-35" transform="translate(63.623047 0)"/>
       <use xlink:href="#DejaVuSans-2e" transform="translate(127.246094 0)"/>
       <use xlink:href="#DejaVuSans-30" transform="translate(159.033203 0)"/>
      </g>
     </g>
    </g>
    <g id="ytick_16">
     <g id="line2d_40">
      <g>
       <use xlink:href="#mae80512738" x="69.159688" y="395.083836" style="stroke: #000000; stroke-width: 0.8"/>
      </g>
     </g>
     <g id="text_35">
      <!-- 17.5 -->
      <g transform="translate(28.76125 400.782664) scale(0.15 -0.15)">
       <use xlink:href="#DejaVuSans-31"/>
       <use xlink:href="#DejaVuSans-37" transform="translate(63.623047 0)"/>
       <use xlink:href="#DejaVuSans-2e" transform="translate(127.246094 0)"/>
       <use xlink:href="#DejaVuSans-35" transform="translate(159.033203 0)"/>
      </g>
     </g>
    </g>
    <g id="text_36">
     <!-- rapamycin [µM] -->
     <g transform="translate(20.877188 593.116386) rotate(-90) scale(0.18 -0.18)">
      <use xlink:href="#DejaVuSans-Bold-72"/>
      <use xlink:href="#DejaVuSans-Bold-61" transform="translate(49.316406 0)"/>
      <use xlink:href="#DejaVuSans-Bold-70" transform="translate(116.796875 0)"/>
      <use xlink:href="#DejaVuSans-Bold-61" transform="translate(188.378906 0)"/>
      <use xlink:href="#DejaVuSans-Bold-6d" transform="translate(255.859375 0)"/>
      <use xlink:href="#DejaVuSans-Bold-79" transform="translate(360.058594 0)"/>
      <use xlink:href="#DejaVuSans-Bold-63" transform="translate(425.244141 0)"/>
      <use xlink:href="#DejaVuSans-Bold-69" transform="translate(484.521484 0)"/>
      <use xlink:href="#DejaVuSans-Bold-6e" transform="translate(518.798828 0)"/>
      <use xlink:href="#DejaVuSans-Bold-20" transform="translate(589.990234 0)"/>
      <use xlink:href="#DejaVuSans-Bold-5b" transform="translate(624.804688 0)"/>
      <use xlink:href="#DejaVuSans-Bold-b5" transform="translate(670.507812 0)"/>
      <use xlink:href="#DejaVuSans-Bold-4d" transform="translate(744.091797 0)"/>
      <use xlink:href="#DejaVuSans-Bold-5d" transform="translate(843.603516 0)"/>
     </g>
    </g>
   </g>
   <g id="LineCollection_5">
    <path d="M 77.131116 621.929913 
L 77.131116 621.396688 
" clip-path="url(#p85c2cbb537)" style="fill: none; stroke: #000000"/>
    <path d="M 82.471973 622.166086 
L 82.471973 621.308481 
" clip-path="url(#p85c2cbb537)" style="fill: none; stroke: #000000"/>
    <path d="M 85.102545 622.38665 
L 85.102545 621.84366 
" clip-path="url(#p85c2cbb537)" style="fill: none; stroke: #000000"/>
    <path d="M 93.073973 622.364773 
L 93.073973 622.111411 
" clip-path="url(#p85c2cbb537)" style="fill: none; stroke: #000000"/>
    <path d="M 101.045402 622.442508 
L 101.045402 622.216204 
" clip-path="url(#p85c2cbb537)" style="fill: none; stroke: #000000"/>
    <path d="M 109.01683 622.517879 
L 109.01683 622.357045 
" clip-path="url(#p85c2cbb537)" style="fill: none; stroke: #000000"/>
    <path d="M 124.959688 622.564446 
L 124.959688 622.427336 
" clip-path="url(#p85c2cbb537)" style="fill: none; stroke: #000000"/>
    <path d="M 140.902545 622.580786 
L 140.902545 622.508745 
" clip-path="url(#p85c2cbb537)" style="fill: none; stroke: #000000"/>
    <path d="M 172.788259 622.588772 
L 172.788259 622.537515 
" clip-path="url(#p85c2cbb537)" style="fill: none; stroke: #000000"/>
    <path d="M 196.702545 622.60067 
L 196.702545 622.552939 
" clip-path="url(#p85c2cbb537)" style="fill: none; stroke: #000000"/>
    <path d="M 268.445402 622.615226 
L 268.445402 622.578058 
" clip-path="url(#p85c2cbb537)" style="fill: none; stroke: #000000"/>
    <path d="M 459.759688 622.622826 
L 459.759688 622.586386 
" clip-path="url(#p85c2cbb537)" style="fill: none; stroke: #000000"/>
    <path d="M 651.073973 622.630305 
L 651.073973 622.594611 
" clip-path="url(#p85c2cbb537)" style="fill: none; stroke: #000000"/>
    <path clip-path="url(#p85c2cbb537)" style="fill: none; stroke: #000000"/>
    <path clip-path="url(#p85c2cbb537)" style="fill: none; stroke: #000000"/>
   </g>
   <g id="LineCollection_6">
    <path d="M 77.131116 622.162149 
L 77.131116 620.841273 
" clip-path="url(#p85c2cbb537)" style="fill: none; stroke: #1f77b4"/>
    <path d="M 82.471973 621.924003 
L 82.471973 621.016337 
" clip-path="url(#p85c2cbb537)" style="fill: none; stroke: #1f77b4"/>
    <path d="M 85.102545 622.199976 
L 85.102545 621.569612 
" clip-path="url(#p85c2cbb537)" style="fill: none; stroke: #1f77b4"/>
    <path d="M 93.073973 622.133356 
L 93.073973 621.687047 
" clip-path="url(#p85c2cbb537)" style="fill: none; stroke: #1f77b4"/>
    <path d="M 101.045402 622.30441 
L 101.045402 621.925035 
" clip-path="url(#p85c2cbb537)" style="fill: none; stroke: #1f77b4"/>
    <path d="M 109.01683 622.409697 
L 109.01683 622.229722 
" clip-path="url(#p85c2cbb537)" style="fill: none; stroke: #1f77b4"/>
    <path d="M 124.959688 622.463588 
L 124.959688 622.306201 
" clip-path="url(#p85c2cbb537)" style="fill: none; stroke: #1f77b4"/>
    <path d="M 140.902545 622.514643 
L 140.902545 622.401924 
" clip-path="url(#p85c2cbb537)" style="fill: none; stroke: #1f77b4"/>
    <path d="M 172.788259 622.533435 
L 172.788259 622.441134 
" clip-path="url(#p85c2cbb537)" style="fill: none; stroke: #1f77b4"/>
    <path d="M 196.702545 622.561936 
L 196.702545 622.49354 
" clip-path="url(#p85c2cbb537)" style="fill: none; stroke: #1f77b4"/>
    <path d="M 268.445402 622.586162 
L 268.445402 622.533877 
" clip-path="url(#p85c2cbb537)" style="fill: none; stroke: #1f77b4"/>
    <path d="M 459.759688 622.613481 
L 459.759688 622.552291 
" clip-path="url(#p85c2cbb537)" style="fill: none; stroke: #1f77b4"/>
    <path d="M 651.073973 622.616129 
L 651.073973 622.574041 
" clip-path="url(#p85c2cbb537)" style="fill: none; stroke: #1f77b4"/>
    <path clip-path="url(#p85c2cbb537)" style="fill: none; stroke: #1f77b4"/>
    <path clip-path="url(#p85c2cbb537)" style="fill: none; stroke: #1f77b4"/>
   </g>
   <g id="line2d_41">
    <path d="M 77.131116 622.643478 
L 77.728973 600.105242 
L 78.924688 488.484594 
L 79.522545 447.889983 
L 80.120402 422.09559 
L 80.718259 409.228336 
L 81.316116 406.481988 
L 81.913973 411.046038 
L 82.51183 420.49329 
L 83.707545 446.803386 
L 85.501116 488.829377 
L 86.69683 512.848697 
L 87.892545 532.4721 
L 89.088259 547.938816 
L 90.283973 559.864276 
L 91.479688 568.933178 
L 92.675402 575.769605 
L 93.871116 580.894668 
L 95.06683 584.723664 
L 96.262545 587.578697 
L 97.458259 589.705469 
L 98.653973 591.289464 
L 99.849688 592.469777 
L 101.045402 593.350268 
L 102.241116 594.008274 
L 104.034688 594.699711 
L 105.828259 595.151977 
L 108.219688 595.527843 
L 111.80683 595.831352 
L 117.785402 596.063068 
L 134.525402 596.38638 
L 267.249688 598.555451 
L 417.909688 600.801545 
L 460.357545 601.395807 
L 460.357545 601.395807 
" clip-path="url(#p85c2cbb537)" style="fill: none; stroke: #000000; stroke-width: 2; stroke-linecap: square"/>
   </g>
   <g id="line2d_42">
    <path d="M 77.131116 621.663301 
L 82.471973 621.737283 
L 85.102545 622.115155 
L 93.073973 622.238092 
L 101.045402 622.329356 
L 109.01683 622.437462 
L 124.959688 622.495891 
L 140.902545 622.544766 
L 172.788259 622.563143 
L 196.702545 622.576804 
L 268.445402 622.596642 
L 459.759688 622.604606 
L 651.073973 622.612458 
L 657.888375 622.612599 
" clip-path="url(#p85c2cbb537)" style="fill: none; stroke-dasharray: 3.7,1.6; stroke-dashoffset: 0; stroke: #000000"/>
    <g clip-path="url(#p85c2cbb537)">
     <use xlink:href="#m8618f8b898" x="77.131116" y="621.663301" style="stroke: #000000; stroke-linejoin: miter"/>
     <use xlink:href="#m8618f8b898" x="82.471973" y="621.737283" style="stroke: #000000; stroke-linejoin: miter"/>
     <use xlink:href="#m8618f8b898" x="85.102545" y="622.115155" style="stroke: #000000; stroke-linejoin: miter"/>
     <use xlink:href="#m8618f8b898" x="93.073973" y="622.238092" style="stroke: #000000; stroke-linejoin: miter"/>
     <use xlink:href="#m8618f8b898" x="101.045402" y="622.329356" style="stroke: #000000; stroke-linejoin: miter"/>
     <use xlink:href="#m8618f8b898" x="109.01683" y="622.437462" style="stroke: #000000; stroke-linejoin: miter"/>
     <use xlink:href="#m8618f8b898" x="124.959688" y="622.495891" style="stroke: #000000; stroke-linejoin: miter"/>
     <use xlink:href="#m8618f8b898" x="140.902545" y="622.544766" style="stroke: #000000; stroke-linejoin: miter"/>
     <use xlink:href="#m8618f8b898" x="172.788259" y="622.563143" style="stroke: #000000; stroke-linejoin: miter"/>
     <use xlink:href="#m8618f8b898" x="196.702545" y="622.576804" style="stroke: #000000; stroke-linejoin: miter"/>
     <use xlink:href="#m8618f8b898" x="268.445402" y="622.596642" style="stroke: #000000; stroke-linejoin: miter"/>
     <use xlink:href="#m8618f8b898" x="459.759688" y="622.604606" style="stroke: #000000; stroke-linejoin: miter"/>
     <use xlink:href="#m8618f8b898" x="651.073973" y="622.612458" style="stroke: #000000; stroke-linejoin: miter"/>
     <use xlink:href="#m8618f8b898" x="1033.702545" y="622.620366" style="stroke: #000000; stroke-linejoin: miter"/>
     <use xlink:href="#m8618f8b898" x="1225.01683" y="622.625035" style="stroke: #000000; stroke-linejoin: miter"/>
    </g>
   </g>
   <g id="line2d_43">
    <path d="M 77.131116 622.643478 
L 77.728973 599.988327 
L 78.924688 487.184636 
L 79.522545 445.974437 
L 80.120402 419.687325 
L 80.718259 406.471146 
L 81.316116 403.513043 
L 81.913973 407.982985 
L 82.51183 417.429825 
L 83.707545 443.927946 
L 85.501116 486.444298 
L 86.69683 510.802655 
L 87.892545 530.727499 
L 89.088259 546.445514 
L 90.283973 558.572123 
L 91.479688 567.797696 
L 92.675402 574.753823 
L 93.871116 579.969038 
L 95.06683 583.865154 
L 96.262545 586.769643 
L 97.458259 588.932478 
L 98.653973 590.542455 
L 99.849688 591.7412 
L 101.045402 592.634489 
L 102.241116 593.3011 
L 104.034688 593.99986 
L 105.828259 594.454927 
L 108.219688 594.830231 
L 111.80683 595.127989 
L 117.785402 595.345013 
L 134.525402 595.621713 
L 292.359688 597.781283 
L 460.357545 599.890826 
L 460.357545 599.890826 
" clip-path="url(#p85c2cbb537)" style="fill: none; stroke: #1f77b4; stroke-width: 2; stroke-linecap: square"/>
   </g>
   <g id="line2d_44">
    <path d="M 77.131116 621.501711 
L 82.471973 621.47017 
L 85.102545 621.884794 
L 93.073973 621.910201 
L 101.045402 622.114723 
L 109.01683 622.319709 
L 124.959688 622.384895 
L 140.902545 622.458283 
L 172.788259 622.487284 
L 196.702545 622.527738 
L 268.445402 622.560019 
L 459.759688 622.582886 
L 651.073973 622.595085 
L 657.888375 622.595254 
" clip-path="url(#p85c2cbb537)" style="fill: none; stroke-dasharray: 3.7,1.6; stroke-dashoffset: 0; stroke: #1f77b4"/>
    <g clip-path="url(#p85c2cbb537)">
     <use xlink:href="#m536b198e3d" x="77.131116" y="621.501711" style="fill: #1f77b4; stroke: #000000; stroke-linejoin: miter"/>
     <use xlink:href="#m536b198e3d" x="82.471973" y="621.47017" style="fill: #1f77b4; stroke: #000000; stroke-linejoin: miter"/>
     <use xlink:href="#m536b198e3d" x="85.102545" y="621.884794" style="fill: #1f77b4; stroke: #000000; stroke-linejoin: miter"/>
     <use xlink:href="#m536b198e3d" x="93.073973" y="621.910201" style="fill: #1f77b4; stroke: #000000; stroke-linejoin: miter"/>
     <use xlink:href="#m536b198e3d" x="101.045402" y="622.114723" style="fill: #1f77b4; stroke: #000000; stroke-linejoin: miter"/>
     <use xlink:href="#m536b198e3d" x="109.01683" y="622.319709" style="fill: #1f77b4; stroke: #000000; stroke-linejoin: miter"/>
     <use xlink:href="#m536b198e3d" x="124.959688" y="622.384895" style="fill: #1f77b4; stroke: #000000; stroke-linejoin: miter"/>
     <use xlink:href="#m536b198e3d" x="140.902545" y="622.458283" style="fill: #1f77b4; stroke: #000000; stroke-linejoin: miter"/>
     <use xlink:href="#m536b198e3d" x="172.788259" y="622.487284" style="fill: #1f77b4; stroke: #000000; stroke-linejoin: miter"/>
     <use xlink:href="#m536b198e3d" x="196.702545" y="622.527738" style="fill: #1f77b4; stroke: #000000; stroke-linejoin: miter"/>
     <use xlink:href="#m536b198e3d" x="268.445402" y="622.560019" style="fill: #1f77b4; stroke: #000000; stroke-linejoin: miter"/>
     <use xlink:href="#m536b198e3d" x="459.759688" y="622.582886" style="fill: #1f77b4; stroke: #000000; stroke-linejoin: miter"/>
     <use xlink:href="#m536b198e3d" x="651.073973" y="622.595085" style="fill: #1f77b4; stroke: #000000; stroke-linejoin: miter"/>
     <use xlink:href="#m536b198e3d" x="1033.702545" y="622.604564" style="fill: #1f77b4; stroke: #000000; stroke-linejoin: miter"/>
     <use xlink:href="#m536b198e3d" x="1225.01683" y="622.614446" style="fill: #1f77b4; stroke: #000000; stroke-linejoin: miter"/>
    </g>
   </g>
   <g id="patch_9">
    <path d="M 69.159688 633.6 
L 69.159688 392.556522 
" style="fill: none; stroke: #000000; stroke-width: 0.8; stroke-linejoin: miter; stroke-linecap: square"/>
   </g>
   <g id="patch_10">
    <path d="M 459.759688 633.6 
L 459.759688 392.556522 
" style="fill: none; stroke: #000000; stroke-width: 0.8; stroke-linejoin: miter; stroke-linecap: square"/>
   </g>
   <g id="patch_11">
    <path d="M 69.159688 633.6 
L 459.759688 633.6 
" style="fill: none; stroke: #000000; stroke-width: 0.8; stroke-linejoin: miter; stroke-linecap: square"/>
   </g>
   <g id="patch_12">
    <path d="M 69.159688 392.556522 
L 459.759688 392.556522 
" style="fill: none; stroke: #000000; stroke-width: 0.8; stroke-linejoin: miter; stroke-linecap: square"/>
   </g>
   <g id="legend_2">
    <g id="patch_13">
     <path d="M 482.383688 459.825272 
L 647.688375 459.825272 
Q 649.688375 459.825272 649.688375 457.825272 
L 649.688375 399.556522 
Q 649.688375 397.556522 647.688375 397.556522 
L 482.383688 397.556522 
Q 480.383688 397.556522 480.383688 399.556522 
L 480.383688 457.825272 
Q 480.383688 459.825272 482.383688 459.825272 
z
" style="fill: #ffffff; opacity: 0.8; stroke: #cccccc; stroke-linejoin: miter"/>
    </g>
    <g id="line2d_45">
     <path d="M 484.383688 405.654959 
L 504.383688 405.654959 
" style="fill: none; stroke: #000000; stroke-width: 2; stroke-linecap: square"/>
    </g>
    <g id="line2d_46"/>
    <g id="text_37">
     <!-- RAP10 -->
     <g transform="translate(512.383688 409.154959) scale(0.1 -0.1)">
      <use xlink:href="#DejaVuSans-52"/>
      <use xlink:href="#DejaVuSans-41" transform="translate(65.482422 0)"/>
      <use xlink:href="#DejaVuSans-50" transform="translate(133.890625 0)"/>
      <use xlink:href="#DejaVuSans-31" transform="translate(194.193359 0)"/>
      <use xlink:href="#DejaVuSans-30" transform="translate(257.816406 0)"/>
     </g>
    </g>
    <g id="LineCollection_7">
     <path d="M 494.383688 425.333084 
L 494.383688 415.333084 
" style="fill: none; stroke: #000000"/>
    </g>
    <g id="line2d_47">
     <path d="M 484.383688 420.333084 
L 504.383688 420.333084 
" style="fill: none; stroke-dasharray: 3.7,1.6; stroke-dashoffset: 0; stroke: #000000"/>
    </g>
    <g id="line2d_48">
     <g>
      <use xlink:href="#m8618f8b898" x="494.383688" y="420.333084" style="stroke: #000000; stroke-linejoin: miter"/>
     </g>
    </g>
    <g id="text_38">
     <!-- RAP10±SD (n=18) -->
     <g transform="translate(512.383688 423.833084) scale(0.1 -0.1)">
      <use xlink:href="#DejaVuSans-52"/>
      <use xlink:href="#DejaVuSans-41" transform="translate(65.482422 0)"/>
      <use xlink:href="#DejaVuSans-50" transform="translate(133.890625 0)"/>
      <use xlink:href="#DejaVuSans-31" transform="translate(194.193359 0)"/>
      <use xlink:href="#DejaVuSans-30" transform="translate(257.816406 0)"/>
      <use xlink:href="#DejaVuSans-b1" transform="translate(321.439453 0)"/>
      <use xlink:href="#DejaVuSans-53" transform="translate(405.228516 0)"/>
      <use xlink:href="#DejaVuSans-44" transform="translate(468.705078 0)"/>
      <use xlink:href="#DejaVuSans-20" transform="translate(545.707031 0)"/>
      <use xlink:href="#DejaVuSans-28" transform="translate(577.494141 0)"/>
      <use xlink:href="#DejaVuSans-6e" transform="translate(616.507812 0)"/>
      <use xlink:href="#DejaVuSans-3d" transform="translate(679.886719 0)"/>
      <use xlink:href="#DejaVuSans-31" transform="translate(763.675781 0)"/>
      <use xlink:href="#DejaVuSans-38" transform="translate(827.298828 0)"/>
      <use xlink:href="#DejaVuSans-29" transform="translate(890.921875 0)"/>
     </g>
    </g>
    <g id="line2d_49">
     <path d="M 484.383688 435.011209 
L 504.383688 435.011209 
" style="fill: none; stroke: #1f77b4; stroke-width: 2; stroke-linecap: square"/>
    </g>
    <g id="line2d_50"/>
    <g id="text_39">
     <!-- RAP10_DIL120 -->
     <g transform="translate(512.383688 438.511209) scale(0.1 -0.1)">
      <use xlink:href="#DejaVuSans-52"/>
      <use xlink:href="#DejaVuSans-41" transform="translate(65.482422 0)"/>
      <use xlink:href="#DejaVuSans-50" transform="translate(133.890625 0)"/>
      <use xlink:href="#DejaVuSans-31" transform="translate(194.193359 0)"/>
      <use xlink:href="#DejaVuSans-30" transform="translate(257.816406 0)"/>
      <use xlink:href="#DejaVuSans-5f" transform="translate(321.439453 0)"/>
      <use xlink:href="#DejaVuSans-44" transform="translate(371.439453 0)"/>
      <use xlink:href="#DejaVuSans-49" transform="translate(448.441406 0)"/>
      <use xlink:href="#DejaVuSans-4c" transform="translate(477.933594 0)"/>
      <use xlink:href="#DejaVuSans-31" transform="translate(533.646484 0)"/>
      <use xlink:href="#DejaVuSans-32" transform="translate(597.269531 0)"/>
      <use xlink:href="#DejaVuSans-30" transform="translate(660.892578 0)"/>
     </g>
    </g>
    <g id="LineCollection_8">
     <path d="M 494.383688 454.967459 
L 494.383688 444.967459 
" style="fill: none; stroke: #1f77b4"/>
    </g>
    <g id="line2d_51">
     <path d="M 484.383688 449.967459 
L 504.383688 449.967459 
" style="fill: none; stroke-dasharray: 3.7,1.6; stroke-dashoffset: 0; stroke: #1f77b4"/>
    </g>
    <g id="line2d_52">
     <g>
      <use xlink:href="#m536b198e3d" x="494.383688" y="449.967459" style="fill: #1f77b4; stroke: #000000; stroke-linejoin: miter"/>
     </g>
    </g>
    <g id="text_40">
     <!-- RAP10_DIL120±SD (n=18) -->
     <g transform="translate(512.383688 453.467459) scale(0.1 -0.1)">
      <use xlink:href="#DejaVuSans-52"/>
      <use xlink:href="#DejaVuSans-41" transform="translate(65.482422 0)"/>
      <use xlink:href="#DejaVuSans-50" transform="translate(133.890625 0)"/>
      <use xlink:href="#DejaVuSans-31" transform="translate(194.193359 0)"/>
      <use xlink:href="#DejaVuSans-30" transform="translate(257.816406 0)"/>
      <use xlink:href="#DejaVuSans-5f" transform="translate(321.439453 0)"/>
      <use xlink:href="#DejaVuSans-44" transform="translate(371.439453 0)"/>
      <use xlink:href="#DejaVuSans-49" transform="translate(448.441406 0)"/>
      <use xlink:href="#DejaVuSans-4c" transform="translate(477.933594 0)"/>
      <use xlink:href="#DejaVuSans-31" transform="translate(533.646484 0)"/>
      <use xlink:href="#DejaVuSans-32" transform="translate(597.269531 0)"/>
      <use xlink:href="#DejaVuSans-30" transform="translate(660.892578 0)"/>
      <use xlink:href="#DejaVuSans-b1" transform="translate(724.515625 0)"/>
      <use xlink:href="#DejaVuSans-53" transform="translate(808.304688 0)"/>
      <use xlink:href="#DejaVuSans-44" transform="translate(871.78125 0)"/>
      <use xlink:href="#DejaVuSans-20" transform="translate(948.783203 0)"/>
      <use xlink:href="#DejaVuSans-28" transform="translate(980.570312 0)"/>
      <use xlink:href="#DejaVuSans-6e" transform="translate(1019.583984 0)"/>
      <use xlink:href="#DejaVuSans-3d" transform="translate(1082.962891 0)"/>
      <use xlink:href="#DejaVuSans-31" transform="translate(1166.751953 0)"/>
      <use xlink:href="#DejaVuSans-38" transform="translate(1230.375 0)"/>
      <use xlink:href="#DejaVuSans-29" transform="translate(1293.998047 0)"/>
     </g>
    </g>
   </g>
  </g>
  <g id="text_41">
   <!-- Bottiger2001 (healthy) -->
   <g transform="translate(96.534688 26.196094) scale(0.25 -0.25)">
    <defs>
     <path id="DejaVuSans-Bold-42" d="M 2456 2859 
Q 2741 2859 2887 2984 
Q 3034 3109 3034 3353 
Q 3034 3594 2887 3720 
Q 2741 3847 2456 3847 
L 1791 3847 
L 1791 2859 
L 2456 2859 
z
M 2497 819 
Q 2859 819 3042 972 
Q 3225 1125 3225 1434 
Q 3225 1738 3044 1889 
Q 2863 2041 2497 2041 
L 1791 2041 
L 1791 819 
L 2497 819 
z
M 3616 2497 
Q 4003 2384 4215 2081 
Q 4428 1778 4428 1338 
Q 4428 663 3972 331 
Q 3516 0 2584 0 
L 588 0 
L 588 4666 
L 2394 4666 
Q 3366 4666 3802 4372 
Q 4238 4078 4238 3431 
Q 4238 3091 4078 2852 
Q 3919 2613 3616 2497 
z
" transform="scale(0.015625)"/>
     <path id="DejaVuSans-Bold-6f" d="M 2203 2784 
Q 1831 2784 1636 2517 
Q 1441 2250 1441 1747 
Q 1441 1244 1636 976 
Q 1831 709 2203 709 
Q 2569 709 2762 976 
Q 2956 1244 2956 1747 
Q 2956 2250 2762 2517 
Q 2569 2784 2203 2784 
z
M 2203 3584 
Q 3106 3584 3614 3096 
Q 4122 2609 4122 1747 
Q 4122 884 3614 396 
Q 3106 -91 2203 -91 
Q 1297 -91 786 396 
Q 275 884 275 1747 
Q 275 2609 786 3096 
Q 1297 3584 2203 3584 
z
" transform="scale(0.015625)"/>
     <path id="DejaVuSans-Bold-67" d="M 2919 594 
Q 2688 288 2409 144 
Q 2131 0 1766 0 
Q 1125 0 706 504 
Q 288 1009 288 1791 
Q 288 2575 706 3076 
Q 1125 3578 1766 3578 
Q 2131 3578 2409 3434 
Q 2688 3291 2919 2981 
L 2919 3500 
L 4044 3500 
L 4044 353 
Q 4044 -491 3511 -936 
Q 2978 -1381 1966 -1381 
Q 1638 -1381 1331 -1331 
Q 1025 -1281 716 -1178 
L 716 -306 
Q 1009 -475 1290 -558 
Q 1572 -641 1856 -641 
Q 2406 -641 2662 -400 
Q 2919 -159 2919 353 
L 2919 594 
z
M 2181 2772 
Q 1834 2772 1640 2515 
Q 1447 2259 1447 1791 
Q 1447 1309 1634 1061 
Q 1822 813 2181 813 
Q 2531 813 2725 1069 
Q 2919 1325 2919 1791 
Q 2919 2259 2725 2515 
Q 2531 2772 2181 2772 
z
" transform="scale(0.015625)"/>
     <path id="DejaVuSans-Bold-32" d="M 1844 884 
L 3897 884 
L 3897 0 
L 506 0 
L 506 884 
L 2209 2388 
Q 2438 2594 2547 2791 
Q 2656 2988 2656 3200 
Q 2656 3528 2436 3728 
Q 2216 3928 1850 3928 
Q 1569 3928 1234 3808 
Q 900 3688 519 3450 
L 519 4475 
Q 925 4609 1322 4679 
Q 1719 4750 2100 4750 
Q 2938 4750 3402 4381 
Q 3866 4013 3866 3353 
Q 3866 2972 3669 2642 
Q 3472 2313 2841 1759 
L 1844 884 
z
" transform="scale(0.015625)"/>
     <path id="DejaVuSans-Bold-30" d="M 2944 2338 
Q 2944 3213 2780 3570 
Q 2616 3928 2228 3928 
Q 1841 3928 1675 3570 
Q 1509 3213 1509 2338 
Q 1509 1453 1675 1090 
Q 1841 728 2228 728 
Q 2613 728 2778 1090 
Q 2944 1453 2944 2338 
z
M 4147 2328 
Q 4147 1169 3647 539 
Q 3147 -91 2228 -91 
Q 1306 -91 806 539 
Q 306 1169 306 2328 
Q 306 3491 806 4120 
Q 1306 4750 2228 4750 
Q 3147 4750 3647 4120 
Q 4147 3491 4147 2328 
z
" transform="scale(0.015625)"/>
     <path id="DejaVuSans-Bold-31" d="M 750 831 
L 1813 831 
L 1813 3847 
L 722 3622 
L 722 4441 
L 1806 4666 
L 2950 4666 
L 2950 831 
L 4013 831 
L 4013 0 
L 750 0 
L 750 831 
z
" transform="scale(0.015625)"/>
     <path id="DejaVuSans-Bold-28" d="M 2413 -844 
L 1484 -844 
Q 1006 -72 778 623 
Q 550 1319 550 2003 
Q 550 2688 779 3389 
Q 1009 4091 1484 4856 
L 2413 4856 
Q 2013 4116 1813 3408 
Q 1613 2700 1613 2009 
Q 1613 1319 1811 609 
Q 2009 -100 2413 -844 
z
" transform="scale(0.015625)"/>
     <path id="DejaVuSans-Bold-6c" d="M 538 4863 
L 1656 4863 
L 1656 0 
L 538 0 
L 538 4863 
z
" transform="scale(0.015625)"/>
     <path id="DejaVuSans-Bold-29" d="M 513 -844 
Q 913 -100 1113 609 
Q 1313 1319 1313 2009 
Q 1313 2700 1113 3408 
Q 913 4116 513 4856 
L 1441 4856 
Q 1916 4091 2145 3389 
Q 2375 2688 2375 2003 
Q 2375 1319 2147 623 
Q 1919 -72 1441 -844 
L 513 -844 
z
" transform="scale(0.015625)"/>
    </defs>
    <use xlink:href="#DejaVuSans-Bold-42"/>
    <use xlink:href="#DejaVuSans-Bold-6f" transform="translate(76.220703 0)"/>
    <use xlink:href="#DejaVuSans-Bold-74" transform="translate(144.921875 0)"/>
    <use xlink:href="#DejaVuSans-Bold-74" transform="translate(192.724609 0)"/>
    <use xlink:href="#DejaVuSans-Bold-69" transform="translate(240.527344 0)"/>
    <use xlink:href="#DejaVuSans-Bold-67" transform="translate(274.804688 0)"/>
    <use xlink:href="#DejaVuSans-Bold-65" transform="translate(346.386719 0)"/>
    <use xlink:href="#DejaVuSans-Bold-72" transform="translate(414.208984 0)"/>
    <use xlink:href="#DejaVuSans-Bold-32" transform="translate(463.525391 0)"/>
    <use xlink:href="#DejaVuSans-Bold-30" transform="translate(533.105469 0)"/>
    <use xlink:href="#DejaVuSans-Bold-30" transform="translate(602.685547 0)"/>
    <use xlink:href="#DejaVuSans-Bold-31" transform="translate(672.265625 0)"/>
    <use xlink:href="#DejaVuSans-Bold-20" transform="translate(741.845703 0)"/>
    <use xlink:href="#DejaVuSans-Bold-28" transform="translate(776.660156 0)"/>
    <use xlink:href="#DejaVuSans-Bold-68" transform="translate(822.363281 0)"/>
    <use xlink:href="#DejaVuSans-Bold-65" transform="translate(893.554688 0)"/>
    <use xlink:href="#DejaVuSans-Bold-61" transform="translate(961.376953 0)"/>
    <use xlink:href="#DejaVuSans-Bold-6c" transform="translate(1028.857422 0)"/>
    <use xlink:href="#DejaVuSans-Bold-74" transform="translate(1063.134766 0)"/>
    <use xlink:href="#DejaVuSans-Bold-68" transform="translate(1110.9375 0)"/>
    <use xlink:href="#DejaVuSans-Bold-79" transform="translate(1182.128906 0)"/>
    <use xlink:href="#DejaVuSans-Bold-29" transform="translate(1247.314453 0)"/>
   </g>
  </g>
 </g>
 <defs>
  <clipPath id="pe37c980deb">
   <rect x="69.159688" y="79.2" width="390.6" height="241.043478"/>
  </clipPath>
  <clipPath id="p85c2cbb537">
   <rect x="69.159688" y="392.556522" width="390.6" height="241.043478"/>
  </clipPath>
 </defs>
</svg>
