<?xml version="1.0" encoding="utf-8" standalone="no"?>
<!DOCTYPE svg PUBLIC "-//W3C//DTD SVG 1.1//EN"
  "http://www.w3.org/Graphics/SVG/1.1/DTD/svg11.dtd">
<svg xmlns:xlink="http://www.w3.org/1999/xlink" width="621.8165pt" height="683.737812pt" viewBox="0 0 621.8165 683.737812" xmlns="http://www.w3.org/2000/svg" version="1.1">
 <metadata>
  <rdf:RDF xmlns:dc="http://purl.org/dc/elements/1.1/" xmlns:cc="http://creativecommons.org/ns#" xmlns:rdf="http://www.w3.org/1999/02/22-rdf-syntax-ns#">
   <cc:Work>
    <dc:type rdf:resource="http://purl.org/dc/dcmitype/StillImage"/>
    <dc:date>2025-09-10T11:20:00.560556</dc:date>
    <dc:format>image/svg+xml</dc:format>
    <dc:creator>
     <cc:Agent>
      <dc:title>Matplotlib v3.10.6, https://matplotlib.org/</dc:title>
     </cc:Agent>
    </dc:creator>
   </cc:Work>
  </rdf:RDF>
 </metadata>
 <defs>
  <style type="text/css">*{stroke-linejoin: round; stroke-linecap: butt}</style>
 </defs>
 <g id="figure_1">
  <g id="patch_1">
   <path d="M 0 683.737812 
L 621.8165 683.737812 
L 621.8165 0 
L 0 0 
z
" style="fill: #ffffff"/>
  </g>
  <g id="axes_1">
   <g id="patch_2">
    <path d="M 45.305 320.243478 
L 435.905 320.243478 
L 435.905 79.2 
L 45.305 79.2 
z
" style="fill: #ffffff"/>
   </g>
   <g id="matplotlib.axis_1">
    <g id="xtick_1">
     <g id="line2d_1">
      <defs>
       <path id="m235d9022cb" d="M 0 0 
L 0 3.5 
" style="stroke: #000000; stroke-width: 0.8"/>
      </defs>
      <g>
       <use xlink:href="#m235d9022cb" x="63.059545" y="320.243478" style="stroke: #000000; stroke-width: 0.8"/>
      </g>
     </g>
     <g id="text_1">
      <!-- 0 -->
      <g transform="translate(58.28767 338.641135) scale(0.15 -0.15)">
       <defs>
        <path id="DejaVuSans-30" d="M 2034 4250 
Q 1547 4250 1301 3770 
Q 1056 3291 1056 2328 
Q 1056 1369 1301 889 
Q 1547 409 2034 409 
Q 2525 409 2770 889 
Q 3016 1369 3016 2328 
Q 3016 3291 2770 3770 
Q 2525 4250 2034 4250 
z
M 2034 4750 
Q 2819 4750 3233 4129 
Q 3647 3509 3647 2328 
Q 3647 1150 3233 529 
Q 2819 -91 2034 -91 
Q 1250 -91 836 529 
Q 422 1150 422 2328 
Q 422 3509 836 4129 
Q 1250 4750 2034 4750 
z
" transform="scale(0.015625)"/>
       </defs>
       <use xlink:href="#DejaVuSans-30"/>
      </g>
     </g>
    </g>
    <g id="xtick_2">
     <g id="line2d_2">
      <g>
       <use xlink:href="#m235d9022cb" x="122.241364" y="320.243478" style="stroke: #000000; stroke-width: 0.8"/>
      </g>
     </g>
     <g id="text_2">
      <!-- 25 -->
      <g transform="translate(112.697614 338.641135) scale(0.15 -0.15)">
       <defs>
        <path id="DejaVuSans-32" d="M 1228 531 
L 3431 531 
L 3431 0 
L 469 0 
L 469 531 
Q 828 903 1448 1529 
Q 2069 2156 2228 2338 
Q 2531 2678 2651 2914 
Q 2772 3150 2772 3378 
Q 2772 3750 2511 3984 
Q 2250 4219 1831 4219 
Q 1534 4219 1204 4116 
Q 875 4013 500 3803 
L 500 4441 
Q 881 4594 1212 4672 
Q 1544 4750 1819 4750 
Q 2544 4750 2975 4387 
Q 3406 4025 3406 3419 
Q 3406 3131 3298 2873 
Q 3191 2616 2906 2266 
Q 2828 2175 2409 1742 
Q 1991 1309 1228 531 
z
" transform="scale(0.015625)"/>
        <path id="DejaVuSans-35" d="M 691 4666 
L 3169 4666 
L 3169 4134 
L 1269 4134 
L 1269 2991 
Q 1406 3038 1543 3061 
Q 1681 3084 1819 3084 
Q 2600 3084 3056 2656 
Q 3513 2228 3513 1497 
Q 3513 744 3044 326 
Q 2575 -91 1722 -91 
Q 1428 -91 1123 -41 
Q 819 9 494 109 
L 494 744 
Q 775 591 1075 516 
Q 1375 441 1709 441 
Q 2250 441 2565 725 
Q 2881 1009 2881 1497 
Q 2881 1984 2565 2268 
Q 2250 2553 1709 2553 
Q 1456 2553 1204 2497 
Q 953 2441 691 2322 
L 691 4666 
z
" transform="scale(0.015625)"/>
       </defs>
       <use xlink:href="#DejaVuSans-32"/>
       <use xlink:href="#DejaVuSans-35" transform="translate(63.623047 0)"/>
      </g>
     </g>
    </g>
    <g id="xtick_3">
     <g id="line2d_3">
      <g>
       <use xlink:href="#m235d9022cb" x="181.423182" y="320.243478" style="stroke: #000000; stroke-width: 0.8"/>
      </g>
     </g>
     <g id="text_3">
      <!-- 50 -->
      <g transform="translate(171.879432 338.641135) scale(0.15 -0.15)">
       <use xlink:href="#DejaVuSans-35"/>
       <use xlink:href="#DejaVuSans-30" transform="translate(63.623047 0)"/>
      </g>
     </g>
    </g>
    <g id="xtick_4">
     <g id="line2d_4">
      <g>
       <use xlink:href="#m235d9022cb" x="240.605" y="320.243478" style="stroke: #000000; stroke-width: 0.8"/>
      </g>
     </g>
     <g id="text_4">
      <!-- 75 -->
      <g transform="translate(231.06125 338.641135) scale(0.15 -0.15)">
       <defs>
        <path id="DejaVuSans-37" d="M 525 4666 
L 3525 4666 
L 3525 4397 
L 1831 0 
L 1172 0 
L 2766 4134 
L 525 4134 
L 525 4666 
z
" transform="scale(0.015625)"/>
       </defs>
       <use xlink:href="#DejaVuSans-37"/>
       <use xlink:href="#DejaVuSans-35" transform="translate(63.623047 0)"/>
      </g>
     </g>
    </g>
    <g id="xtick_5">
     <g id="line2d_5">
      <g>
       <use xlink:href="#m235d9022cb" x="299.786818" y="320.243478" style="stroke: #000000; stroke-width: 0.8"/>
      </g>
     </g>
     <g id="text_5">
      <!-- 100 -->
      <g transform="translate(285.471193 338.641135) scale(0.15 -0.15)">
       <defs>
        <path id="DejaVuSans-31" d="M 794 531 
L 1825 531 
L 1825 4091 
L 703 3866 
L 703 4441 
L 1819 4666 
L 2450 4666 
L 2450 531 
L 3481 531 
L 3481 0 
L 794 0 
L 794 531 
z
" transform="scale(0.015625)"/>
       </defs>
       <use xlink:href="#DejaVuSans-31"/>
       <use xlink:href="#DejaVuSans-30" transform="translate(63.623047 0)"/>
       <use xlink:href="#DejaVuSans-30" transform="translate(127.246094 0)"/>
      </g>
     </g>
    </g>
    <g id="xtick_6">
     <g id="line2d_6">
      <g>
       <use xlink:href="#m235d9022cb" x="358.968636" y="320.243478" style="stroke: #000000; stroke-width: 0.8"/>
      </g>
     </g>
     <g id="text_6">
      <!-- 125 -->
      <g transform="translate(344.653011 338.641135) scale(0.15 -0.15)">
       <use xlink:href="#DejaVuSans-31"/>
       <use xlink:href="#DejaVuSans-32" transform="translate(63.623047 0)"/>
       <use xlink:href="#DejaVuSans-35" transform="translate(127.246094 0)"/>
      </g>
     </g>
    </g>
    <g id="xtick_7">
     <g id="line2d_7">
      <g>
       <use xlink:href="#m235d9022cb" x="418.150455" y="320.243478" style="stroke: #000000; stroke-width: 0.8"/>
      </g>
     </g>
     <g id="text_7">
      <!-- 150 -->
      <g transform="translate(403.83483 338.641135) scale(0.15 -0.15)">
       <use xlink:href="#DejaVuSans-31"/>
       <use xlink:href="#DejaVuSans-35" transform="translate(63.623047 0)"/>
       <use xlink:href="#DejaVuSans-30" transform="translate(127.246094 0)"/>
      </g>
     </g>
    </g>
    <g id="text_8">
     <!-- time [hr] -->
     <g transform="translate(195.530469 359.437853) scale(0.18 -0.18)">
      <defs>
       <path id="DejaVuSans-Bold-74" d="M 1759 4494 
L 1759 3500 
L 2913 3500 
L 2913 2700 
L 1759 2700 
L 1759 1216 
Q 1759 972 1856 886 
Q 1953 800 2241 800 
L 2816 800 
L 2816 0 
L 1856 0 
Q 1194 0 917 276 
Q 641 553 641 1216 
L 641 2700 
L 84 2700 
L 84 3500 
L 641 3500 
L 641 4494 
L 1759 4494 
z
" transform="scale(0.015625)"/>
       <path id="DejaVuSans-Bold-69" d="M 538 3500 
L 1656 3500 
L 1656 0 
L 538 0 
L 538 3500 
z
M 538 4863 
L 1656 4863 
L 1656 3950 
L 538 3950 
L 538 4863 
z
" transform="scale(0.015625)"/>
       <path id="DejaVuSans-Bold-6d" d="M 3781 2919 
Q 3994 3244 4286 3414 
Q 4578 3584 4928 3584 
Q 5531 3584 5847 3212 
Q 6163 2841 6163 2131 
L 6163 0 
L 5038 0 
L 5038 1825 
Q 5041 1866 5042 1909 
Q 5044 1953 5044 2034 
Q 5044 2406 4934 2573 
Q 4825 2741 4581 2741 
Q 4263 2741 4089 2478 
Q 3916 2216 3909 1719 
L 3909 0 
L 2784 0 
L 2784 1825 
Q 2784 2406 2684 2573 
Q 2584 2741 2328 2741 
Q 2006 2741 1831 2477 
Q 1656 2213 1656 1722 
L 1656 0 
L 531 0 
L 531 3500 
L 1656 3500 
L 1656 2988 
Q 1863 3284 2130 3434 
Q 2397 3584 2719 3584 
Q 3081 3584 3359 3409 
Q 3638 3234 3781 2919 
z
" transform="scale(0.015625)"/>
       <path id="DejaVuSans-Bold-65" d="M 4031 1759 
L 4031 1441 
L 1416 1441 
Q 1456 1047 1700 850 
Q 1944 653 2381 653 
Q 2734 653 3104 758 
Q 3475 863 3866 1075 
L 3866 213 
Q 3469 63 3072 -14 
Q 2675 -91 2278 -91 
Q 1328 -91 801 392 
Q 275 875 275 1747 
Q 275 2603 792 3093 
Q 1309 3584 2216 3584 
Q 3041 3584 3536 3087 
Q 4031 2591 4031 1759 
z
M 2881 2131 
Q 2881 2450 2695 2645 
Q 2509 2841 2209 2841 
Q 1884 2841 1681 2658 
Q 1478 2475 1428 2131 
L 2881 2131 
z
" transform="scale(0.015625)"/>
       <path id="DejaVuSans-Bold-20" transform="scale(0.015625)"/>
       <path id="DejaVuSans-Bold-5b" d="M 550 4863 
L 2491 4863 
L 2491 4159 
L 1613 4159 
L 1613 -141 
L 2491 -141 
L 2491 -844 
L 550 -844 
L 550 4863 
z
" transform="scale(0.015625)"/>
       <path id="DejaVuSans-Bold-68" d="M 4056 2131 
L 4056 0 
L 2931 0 
L 2931 347 
L 2931 1625 
Q 2931 2084 2911 2256 
Q 2891 2428 2841 2509 
Q 2775 2619 2662 2680 
Q 2550 2741 2406 2741 
Q 2056 2741 1856 2470 
Q 1656 2200 1656 1722 
L 1656 0 
L 538 0 
L 538 4863 
L 1656 4863 
L 1656 2988 
Q 1909 3294 2193 3439 
Q 2478 3584 2822 3584 
Q 3428 3584 3742 3212 
Q 4056 2841 4056 2131 
z
" transform="scale(0.015625)"/>
       <path id="DejaVuSans-Bold-72" d="M 3138 2547 
Q 2991 2616 2845 2648 
Q 2700 2681 2553 2681 
Q 2122 2681 1889 2404 
Q 1656 2128 1656 1613 
L 1656 0 
L 538 0 
L 538 3500 
L 1656 3500 
L 1656 2925 
Q 1872 3269 2151 3426 
Q 2431 3584 2822 3584 
Q 2878 3584 2943 3579 
Q 3009 3575 3134 3559 
L 3138 2547 
z
" transform="scale(0.015625)"/>
       <path id="DejaVuSans-Bold-5d" d="M 2375 -844 
L 434 -844 
L 434 -141 
L 1313 -141 
L 1313 4159 
L 434 4159 
L 434 4863 
L 2375 4863 
L 2375 -844 
z
" transform="scale(0.015625)"/>
      </defs>
      <use xlink:href="#DejaVuSans-Bold-74"/>
      <use xlink:href="#DejaVuSans-Bold-69" transform="translate(47.802734 0)"/>
      <use xlink:href="#DejaVuSans-Bold-6d" transform="translate(82.080078 0)"/>
      <use xlink:href="#DejaVuSans-Bold-65" transform="translate(186.279297 0)"/>
      <use xlink:href="#DejaVuSans-Bold-20" transform="translate(254.101562 0)"/>
      <use xlink:href="#DejaVuSans-Bold-5b" transform="translate(288.916016 0)"/>
      <use xlink:href="#DejaVuSans-Bold-68" transform="translate(334.619141 0)"/>
      <use xlink:href="#DejaVuSans-Bold-72" transform="translate(405.810547 0)"/>
      <use xlink:href="#DejaVuSans-Bold-5d" transform="translate(455.126953 0)"/>
     </g>
    </g>
   </g>
   <g id="matplotlib.axis_2">
    <g id="ytick_1">
     <g id="line2d_8">
      <defs>
       <path id="m61fa538b87" d="M 0 0 
L -3.5 0 
" style="stroke: #000000; stroke-width: 0.8"/>
      </defs>
      <g>
       <use xlink:href="#m61fa538b87" x="45.305" y="309.286957" style="stroke: #000000; stroke-width: 0.8"/>
      </g>
     </g>
     <g id="text_9">
      <!-- 0 -->
      <g transform="translate(28.76125 314.985785) scale(0.15 -0.15)">
       <use xlink:href="#DejaVuSans-30"/>
      </g>
     </g>
    </g>
    <g id="ytick_2">
     <g id="line2d_9">
      <g>
       <use xlink:href="#m61fa538b87" x="45.305" y="260.334869" style="stroke: #000000; stroke-width: 0.8"/>
      </g>
     </g>
     <g id="text_10">
      <!-- 2 -->
      <g transform="translate(28.76125 266.033697) scale(0.15 -0.15)">
       <use xlink:href="#DejaVuSans-32"/>
      </g>
     </g>
    </g>
    <g id="ytick_3">
     <g id="line2d_10">
      <g>
       <use xlink:href="#m61fa538b87" x="45.305" y="211.382782" style="stroke: #000000; stroke-width: 0.8"/>
      </g>
     </g>
     <g id="text_11">
      <!-- 4 -->
      <g transform="translate(28.76125 217.08161) scale(0.15 -0.15)">
       <defs>
        <path id="DejaVuSans-34" d="M 2419 4116 
L 825 1625 
L 2419 1625 
L 2419 4116 
z
M 2253 4666 
L 3047 4666 
L 3047 1625 
L 3713 1625 
L 3713 1100 
L 3047 1100 
L 3047 0 
L 2419 0 
L 2419 1100 
L 313 1100 
L 313 1709 
L 2253 4666 
z
" transform="scale(0.015625)"/>
       </defs>
       <use xlink:href="#DejaVuSans-34"/>
      </g>
     </g>
    </g>
    <g id="ytick_4">
     <g id="line2d_11">
      <g>
       <use xlink:href="#m61fa538b87" x="45.305" y="162.430694" style="stroke: #000000; stroke-width: 0.8"/>
      </g>
     </g>
     <g id="text_12">
      <!-- 6 -->
      <g transform="translate(28.76125 168.129522) scale(0.15 -0.15)">
       <defs>
        <path id="DejaVuSans-36" d="M 2113 2584 
Q 1688 2584 1439 2293 
Q 1191 2003 1191 1497 
Q 1191 994 1439 701 
Q 1688 409 2113 409 
Q 2538 409 2786 701 
Q 3034 994 3034 1497 
Q 3034 2003 2786 2293 
Q 2538 2584 2113 2584 
z
M 3366 4563 
L 3366 3988 
Q 3128 4100 2886 4159 
Q 2644 4219 2406 4219 
Q 1781 4219 1451 3797 
Q 1122 3375 1075 2522 
Q 1259 2794 1537 2939 
Q 1816 3084 2150 3084 
Q 2853 3084 3261 2657 
Q 3669 2231 3669 1497 
Q 3669 778 3244 343 
Q 2819 -91 2113 -91 
Q 1303 -91 875 529 
Q 447 1150 447 2328 
Q 447 3434 972 4092 
Q 1497 4750 2381 4750 
Q 2619 4750 2861 4703 
Q 3103 4656 3366 4563 
z
" transform="scale(0.015625)"/>
       </defs>
       <use xlink:href="#DejaVuSans-36"/>
      </g>
     </g>
    </g>
    <g id="ytick_5">
     <g id="line2d_12">
      <g>
       <use xlink:href="#m61fa538b87" x="45.305" y="113.478607" style="stroke: #000000; stroke-width: 0.8"/>
      </g>
     </g>
     <g id="text_13">
      <!-- 8 -->
      <g transform="translate(28.76125 119.177435) scale(0.15 -0.15)">
       <defs>
        <path id="DejaVuSans-38" d="M 2034 2216 
Q 1584 2216 1326 1975 
Q 1069 1734 1069 1313 
Q 1069 891 1326 650 
Q 1584 409 2034 409 
Q 2484 409 2743 651 
Q 3003 894 3003 1313 
Q 3003 1734 2745 1975 
Q 2488 2216 2034 2216 
z
M 1403 2484 
Q 997 2584 770 2862 
Q 544 3141 544 3541 
Q 544 4100 942 4425 
Q 1341 4750 2034 4750 
Q 2731 4750 3128 4425 
Q 3525 4100 3525 3541 
Q 3525 3141 3298 2862 
Q 3072 2584 2669 2484 
Q 3125 2378 3379 2068 
Q 3634 1759 3634 1313 
Q 3634 634 3220 271 
Q 2806 -91 2034 -91 
Q 1263 -91 848 271 
Q 434 634 434 1313 
Q 434 1759 690 2068 
Q 947 2378 1403 2484 
z
M 1172 3481 
Q 1172 3119 1398 2916 
Q 1625 2713 2034 2713 
Q 2441 2713 2670 2916 
Q 2900 3119 2900 3481 
Q 2900 3844 2670 4047 
Q 2441 4250 2034 4250 
Q 1625 4250 1398 4047 
Q 1172 3844 1172 3481 
z
" transform="scale(0.015625)"/>
       </defs>
       <use xlink:href="#DejaVuSans-38"/>
      </g>
     </g>
    </g>
    <g id="text_14">
     <!-- rapamycin [µM] -->
     <g transform="translate(20.877188 279.759864) rotate(-90) scale(0.18 -0.18)">
      <defs>
       <path id="DejaVuSans-Bold-61" d="M 2106 1575 
Q 1756 1575 1579 1456 
Q 1403 1338 1403 1106 
Q 1403 894 1545 773 
Q 1688 653 1941 653 
Q 2256 653 2472 879 
Q 2688 1106 2688 1447 
L 2688 1575 
L 2106 1575 
z
M 3816 1997 
L 3816 0 
L 2688 0 
L 2688 519 
Q 2463 200 2181 54 
Q 1900 -91 1497 -91 
Q 953 -91 614 226 
Q 275 544 275 1050 
Q 275 1666 698 1953 
Q 1122 2241 2028 2241 
L 2688 2241 
L 2688 2328 
Q 2688 2594 2478 2717 
Q 2269 2841 1825 2841 
Q 1466 2841 1156 2769 
Q 847 2697 581 2553 
L 581 3406 
Q 941 3494 1303 3539 
Q 1666 3584 2028 3584 
Q 2975 3584 3395 3211 
Q 3816 2838 3816 1997 
z
" transform="scale(0.015625)"/>
       <path id="DejaVuSans-Bold-70" d="M 1656 506 
L 1656 -1331 
L 538 -1331 
L 538 3500 
L 1656 3500 
L 1656 2988 
Q 1888 3294 2169 3439 
Q 2450 3584 2816 3584 
Q 3463 3584 3878 3070 
Q 4294 2556 4294 1747 
Q 4294 938 3878 423 
Q 3463 -91 2816 -91 
Q 2450 -91 2169 54 
Q 1888 200 1656 506 
z
M 2400 2772 
Q 2041 2772 1848 2508 
Q 1656 2244 1656 1747 
Q 1656 1250 1848 986 
Q 2041 722 2400 722 
Q 2759 722 2948 984 
Q 3138 1247 3138 1747 
Q 3138 2247 2948 2509 
Q 2759 2772 2400 2772 
z
" transform="scale(0.015625)"/>
       <path id="DejaVuSans-Bold-79" d="M 78 3500 
L 1197 3500 
L 2138 1125 
L 2938 3500 
L 4056 3500 
L 2584 -331 
Q 2363 -916 2067 -1148 
Q 1772 -1381 1288 -1381 
L 641 -1381 
L 641 -647 
L 991 -647 
Q 1275 -647 1404 -556 
Q 1534 -466 1606 -231 
L 1638 -134 
L 78 3500 
z
" transform="scale(0.015625)"/>
       <path id="DejaVuSans-Bold-63" d="M 3366 3391 
L 3366 2478 
Q 3138 2634 2908 2709 
Q 2678 2784 2431 2784 
Q 1963 2784 1702 2511 
Q 1441 2238 1441 1747 
Q 1441 1256 1702 982 
Q 1963 709 2431 709 
Q 2694 709 2930 787 
Q 3166 866 3366 1019 
L 3366 103 
Q 3103 6 2833 -42 
Q 2563 -91 2291 -91 
Q 1344 -91 809 395 
Q 275 881 275 1747 
Q 275 2613 809 3098 
Q 1344 3584 2291 3584 
Q 2566 3584 2833 3536 
Q 3100 3488 3366 3391 
z
" transform="scale(0.015625)"/>
       <path id="DejaVuSans-Bold-6e" d="M 4056 2131 
L 4056 0 
L 2931 0 
L 2931 347 
L 2931 1631 
Q 2931 2084 2911 2256 
Q 2891 2428 2841 2509 
Q 2775 2619 2662 2680 
Q 2550 2741 2406 2741 
Q 2056 2741 1856 2470 
Q 1656 2200 1656 1722 
L 1656 0 
L 538 0 
L 538 3500 
L 1656 3500 
L 1656 2988 
Q 1909 3294 2193 3439 
Q 2478 3584 2822 3584 
Q 3428 3584 3742 3212 
Q 4056 2841 4056 2131 
z
" transform="scale(0.015625)"/>
       <path id="DejaVuSans-Bold-b5" d="M 544 -1338 
L 544 3500 
L 1672 3500 
L 1672 1466 
Q 1672 1103 1828 926 
Q 1984 750 2303 750 
Q 2625 750 2781 926 
Q 2938 1103 2938 1466 
L 2938 3500 
L 4063 3500 
L 4063 1159 
Q 4063 938 4114 850 
Q 4166 763 4288 763 
Q 4344 763 4395 778 
Q 4447 794 4506 831 
L 4506 50 
Q 4341 -22 4195 -56 
Q 4050 -91 3909 -91 
Q 3631 -91 3454 26 
Q 3278 144 3169 403 
Q 3022 156 2811 32 
Q 2600 -91 2322 -91 
Q 2091 -91 1928 -17 
Q 1766 56 1672 206 
L 1672 -1338 
L 544 -1338 
z
" transform="scale(0.015625)"/>
       <path id="DejaVuSans-Bold-4d" d="M 588 4666 
L 2119 4666 
L 3181 2169 
L 4250 4666 
L 5778 4666 
L 5778 0 
L 4641 0 
L 4641 3413 
L 3566 897 
L 2803 897 
L 1728 3413 
L 1728 0 
L 588 0 
L 588 4666 
z
" transform="scale(0.015625)"/>
      </defs>
      <use xlink:href="#DejaVuSans-Bold-72"/>
      <use xlink:href="#DejaVuSans-Bold-61" transform="translate(49.316406 0)"/>
      <use xlink:href="#DejaVuSans-Bold-70" transform="translate(116.796875 0)"/>
      <use xlink:href="#DejaVuSans-Bold-61" transform="translate(188.378906 0)"/>
      <use xlink:href="#DejaVuSans-Bold-6d" transform="translate(255.859375 0)"/>
      <use xlink:href="#DejaVuSans-Bold-79" transform="translate(360.058594 0)"/>
      <use xlink:href="#DejaVuSans-Bold-63" transform="translate(425.244141 0)"/>
      <use xlink:href="#DejaVuSans-Bold-69" transform="translate(484.521484 0)"/>
      <use xlink:href="#DejaVuSans-Bold-6e" transform="translate(518.798828 0)"/>
      <use xlink:href="#DejaVuSans-Bold-20" transform="translate(589.990234 0)"/>
      <use xlink:href="#DejaVuSans-Bold-5b" transform="translate(624.804688 0)"/>
      <use xlink:href="#DejaVuSans-Bold-b5" transform="translate(670.507812 0)"/>
      <use xlink:href="#DejaVuSans-Bold-4d" transform="translate(744.091797 0)"/>
      <use xlink:href="#DejaVuSans-Bold-5d" transform="translate(843.603516 0)"/>
     </g>
    </g>
   </g>
   <g id="LineCollection_1">
    <path clip-path="url(#pa4f1d3d8b6)" style="fill: none; stroke: #d62728"/>
    <path d="M 64.243182 309.269316 
L 64.243182 309.169518 
" clip-path="url(#pa4f1d3d8b6)" style="fill: none; stroke: #d62728"/>
    <path d="M 65.426818 309.10853 
L 65.426818 309.090385 
" clip-path="url(#pa4f1d3d8b6)" style="fill: none; stroke: #d62728"/>
    <path clip-path="url(#pa4f1d3d8b6)" style="fill: none; stroke: #d62728"/>
    <path d="M 67.794091 309.098954 
L 67.794091 309.02839 
" clip-path="url(#pa4f1d3d8b6)" style="fill: none; stroke: #d62728"/>
    <path clip-path="url(#pa4f1d3d8b6)" style="fill: none; stroke: #d62728"/>
    <path clip-path="url(#pa4f1d3d8b6)" style="fill: none; stroke: #d62728"/>
    <path d="M 72.528636 309.13726 
L 72.528636 309.076777 
" clip-path="url(#pa4f1d3d8b6)" style="fill: none; stroke: #d62728"/>
    <path d="M 77.263182 309.145324 
L 77.263182 309.080809 
" clip-path="url(#pa4f1d3d8b6)" style="fill: none; stroke: #d62728"/>
    <path d="M 81.997727 309.216393 
L 81.997727 309.076273 
" clip-path="url(#pa4f1d3d8b6)" style="fill: none; stroke: #d62728"/>
    <path d="M 91.466818 309.211352 
L 91.466818 309.082321 
" clip-path="url(#pa4f1d3d8b6)" style="fill: none; stroke: #d62728"/>
    <path d="M 119.874091 309.245122 
L 119.874091 309.153389 
" clip-path="url(#pa4f1d3d8b6)" style="fill: none; stroke: #d62728"/>
    <path d="M 176.688636 309.245122 
L 176.688636 309.208832 
" clip-path="url(#pa4f1d3d8b6)" style="fill: none; stroke: #d62728"/>
    <path d="M 233.503182 309.250666 
L 233.503182 309.232521 
" clip-path="url(#pa4f1d3d8b6)" style="fill: none; stroke: #d62728"/>
    <path clip-path="url(#pa4f1d3d8b6)" style="fill: none; stroke: #d62728"/>
    <path clip-path="url(#pa4f1d3d8b6)" style="fill: none; stroke: #d62728"/>
    <path clip-path="url(#pa4f1d3d8b6)" style="fill: none; stroke: #d62728"/>
   </g>
   <g id="LineCollection_2">
    <path clip-path="url(#pa4f1d3d8b6)" style="fill: none; stroke: #9467bd"/>
    <path clip-path="url(#pa4f1d3d8b6)" style="fill: none; stroke: #9467bd"/>
    <path d="M 65.426818 309.108026 
L 65.426818 309.003188 
" clip-path="url(#pa4f1d3d8b6)" style="fill: none; stroke: #9467bd"/>
    <path clip-path="url(#pa4f1d3d8b6)" style="fill: none; stroke: #9467bd"/>
    <path d="M 67.794091 309.063168 
L 67.794091 308.81317 
" clip-path="url(#pa4f1d3d8b6)" style="fill: none; stroke: #9467bd"/>
    <path clip-path="url(#pa4f1d3d8b6)" style="fill: none; stroke: #9467bd"/>
    <path d="M 70.161364 309.033934 
L 70.161364 308.907927 
" clip-path="url(#pa4f1d3d8b6)" style="fill: none; stroke: #9467bd"/>
    <path d="M 72.528636 309.10853 
L 72.528636 308.907927 
" clip-path="url(#pa4f1d3d8b6)" style="fill: none; stroke: #9467bd"/>
    <path d="M 77.263182 309.114075 
L 77.263182 308.956818 
" clip-path="url(#pa4f1d3d8b6)" style="fill: none; stroke: #9467bd"/>
    <path d="M 81.997727 309.135748 
L 81.997727 308.985547 
" clip-path="url(#pa4f1d3d8b6)" style="fill: none; stroke: #9467bd"/>
    <path d="M 91.466818 309.178086 
L 91.466818 309.033934 
" clip-path="url(#pa4f1d3d8b6)" style="fill: none; stroke: #9467bd"/>
    <path d="M 119.874091 309.212864 
L 119.874091 309.108026 
" clip-path="url(#pa4f1d3d8b6)" style="fill: none; stroke: #9467bd"/>
    <path d="M 176.688636 309.236554 
L 176.688636 309.182119 
" clip-path="url(#pa4f1d3d8b6)" style="fill: none; stroke: #9467bd"/>
    <path d="M 233.503182 309.253691 
L 233.503182 309.210344 
" clip-path="url(#pa4f1d3d8b6)" style="fill: none; stroke: #9467bd"/>
    <path d="M 290.317727 309.258227 
L 290.317727 309.233025 
" clip-path="url(#pa4f1d3d8b6)" style="fill: none; stroke: #9467bd"/>
    <path d="M 347.132273 309.263267 
L 347.132273 309.240082 
" clip-path="url(#pa4f1d3d8b6)" style="fill: none; stroke: #9467bd"/>
    <path d="M 403.946818 309.274356 
L 403.946818 309.247138 
" clip-path="url(#pa4f1d3d8b6)" style="fill: none; stroke: #9467bd"/>
   </g>
   <g id="LineCollection_3">
    <path clip-path="url(#pa4f1d3d8b6)" style="fill: none; stroke: #e377c2"/>
    <path clip-path="url(#pa4f1d3d8b6)" style="fill: none; stroke: #e377c2"/>
    <path d="M 65.426818 309.221937 
L 65.426818 308.68565 
" clip-path="url(#pa4f1d3d8b6)" style="fill: none; stroke: #e377c2"/>
    <path clip-path="url(#pa4f1d3d8b6)" style="fill: none; stroke: #e377c2"/>
    <path d="M 67.794091 309.021837 
L 67.794091 308.804097 
" clip-path="url(#pa4f1d3d8b6)" style="fill: none; stroke: #e377c2"/>
    <path clip-path="url(#pa4f1d3d8b6)" style="fill: none; stroke: #e377c2"/>
    <path d="M 70.161364 309.03595 
L 70.161364 308.690187 
" clip-path="url(#pa4f1d3d8b6)" style="fill: none; stroke: #e377c2"/>
    <path d="M 72.528636 309.03595 
L 72.528636 308.824258 
" clip-path="url(#pa4f1d3d8b6)" style="fill: none; stroke: #e377c2"/>
    <path d="M 77.263182 309.06216 
L 77.263182 308.784944 
" clip-path="url(#pa4f1d3d8b6)" style="fill: none; stroke: #e377c2"/>
    <path d="M 81.997727 309.092905 
L 81.997727 308.785448 
" clip-path="url(#pa4f1d3d8b6)" style="fill: none; stroke: #e377c2"/>
    <path d="M 91.466818 309.118611 
L 91.466818 308.905911 
" clip-path="url(#pa4f1d3d8b6)" style="fill: none; stroke: #e377c2"/>
    <path d="M 119.874091 309.181615 
L 119.874091 309.070728 
" clip-path="url(#pa4f1d3d8b6)" style="fill: none; stroke: #e377c2"/>
    <path d="M 176.688636 309.217905 
L 176.688636 309.159437 
" clip-path="url(#pa4f1d3d8b6)" style="fill: none; stroke: #e377c2"/>
    <path d="M 233.503182 309.231513 
L 233.503182 309.20228 
" clip-path="url(#pa4f1d3d8b6)" style="fill: none; stroke: #e377c2"/>
    <path d="M 290.317727 309.24613 
L 290.317727 309.224961 
" clip-path="url(#pa4f1d3d8b6)" style="fill: none; stroke: #e377c2"/>
    <path d="M 347.132273 309.265787 
L 347.132273 309.236554 
" clip-path="url(#pa4f1d3d8b6)" style="fill: none; stroke: #e377c2"/>
    <path d="M 403.946818 309.267803 
L 403.946818 309.247642 
" clip-path="url(#pa4f1d3d8b6)" style="fill: none; stroke: #e377c2"/>
   </g>
   <g id="line2d_13">
    <path d="M 63.059545 309.286957 
L 63.237091 287.608431 
L 63.769727 142.338728 
L 64.124818 106.021474 
L 64.302364 103.664085 
L 64.479909 108.217541 
L 64.835 129.24745 
L 66.077818 214.919767 
L 66.610455 238.253776 
L 67.143091 254.067997 
L 67.675727 264.485254 
L 68.208364 271.249751 
L 68.741 275.611953 
L 69.273636 278.417292 
L 69.806273 280.22138 
L 70.338909 281.384135 
L 71.049091 282.324196 
L 71.759273 282.858436 
L 72.647 283.225755 
L 73.889818 283.480455 
L 76.375455 283.707357 
L 88.271 284.377744 
L 132.124727 286.661544 
L 178.109 288.83213 
L 226.578909 290.895367 
L 277.712 292.847127 
L 331.863364 294.689032 
L 389.388091 296.420413 
L 418.150455 297.207584 
L 418.150455 297.207584 
" clip-path="url(#pa4f1d3d8b6)" style="fill: none; stroke: #d62728; stroke-width: 2; stroke-linecap: square"/>
   </g>
   <g id="line2d_14">
    <path d="M 64.243182 309.219417 
L 65.426818 309.099458 
M 67.794091 309.063672 
M 70.161364 309.075264 
L 72.528636 309.107018 
L 77.263182 309.113067 
L 81.997727 309.146333 
L 91.466818 309.146837 
L 119.874091 309.199256 
L 176.688636 309.226977 
L 233.503182 309.241594 
L 290.317727 309.251675 
L 347.132273 309.267299 
L 403.946818 309.263267 
" clip-path="url(#pa4f1d3d8b6)" style="fill: none; stroke-dasharray: 3.7,1.6; stroke-dashoffset: 0; stroke: #d62728"/>
    <defs>
     <path id="mb1a4913022" d="M -3 3 
L 3 3 
L 3 -3 
L -3 -3 
z
" style="stroke: #000000; stroke-linejoin: miter"/>
    </defs>
    <g clip-path="url(#pa4f1d3d8b6)">
     <use xlink:href="#mb1a4913022" x="64.243182" y="309.219417" style="fill: #d62728; stroke: #000000; stroke-linejoin: miter"/>
     <use xlink:href="#mb1a4913022" x="65.426818" y="309.099458" style="fill: #d62728; stroke: #000000; stroke-linejoin: miter"/>
     <use xlink:href="#mb1a4913022" x="67.794091" y="309.063672" style="fill: #d62728; stroke: #000000; stroke-linejoin: miter"/>
     <use xlink:href="#mb1a4913022" x="70.161364" y="309.075264" style="fill: #d62728; stroke: #000000; stroke-linejoin: miter"/>
     <use xlink:href="#mb1a4913022" x="72.528636" y="309.107018" style="fill: #d62728; stroke: #000000; stroke-linejoin: miter"/>
     <use xlink:href="#mb1a4913022" x="77.263182" y="309.113067" style="fill: #d62728; stroke: #000000; stroke-linejoin: miter"/>
     <use xlink:href="#mb1a4913022" x="81.997727" y="309.146333" style="fill: #d62728; stroke: #000000; stroke-linejoin: miter"/>
     <use xlink:href="#mb1a4913022" x="91.466818" y="309.146837" style="fill: #d62728; stroke: #000000; stroke-linejoin: miter"/>
     <use xlink:href="#mb1a4913022" x="119.874091" y="309.199256" style="fill: #d62728; stroke: #000000; stroke-linejoin: miter"/>
     <use xlink:href="#mb1a4913022" x="176.688636" y="309.226977" style="fill: #d62728; stroke: #000000; stroke-linejoin: miter"/>
     <use xlink:href="#mb1a4913022" x="233.503182" y="309.241594" style="fill: #d62728; stroke: #000000; stroke-linejoin: miter"/>
     <use xlink:href="#mb1a4913022" x="290.317727" y="309.251675" style="fill: #d62728; stroke: #000000; stroke-linejoin: miter"/>
     <use xlink:href="#mb1a4913022" x="347.132273" y="309.267299" style="fill: #d62728; stroke: #000000; stroke-linejoin: miter"/>
     <use xlink:href="#mb1a4913022" x="403.946818" y="309.263267" style="fill: #d62728; stroke: #000000; stroke-linejoin: miter"/>
    </g>
   </g>
   <g id="line2d_15">
    <path d="M 63.059545 309.286957 
L 63.237091 285.203356 
L 63.769727 128.473532 
L 64.124818 91.607253 
L 64.302364 90.156522 
L 64.479909 95.912605 
L 64.835 119.42235 
L 65.900273 199.635287 
L 66.432909 226.719623 
L 66.965545 245.211757 
L 67.498182 257.432272 
L 68.030818 265.379208 
L 68.563455 270.507219 
L 69.096091 273.805862 
L 69.628727 275.927233 
L 70.161364 277.294284 
L 70.694 278.179118 
L 71.404182 278.900525 
L 72.114364 279.317296 
L 73.179636 279.653917 
L 74.955091 279.911064 
L 79.571273 280.24735 
L 115.613 282.46059 
L 157.691273 284.831645 
L 201.900091 287.097771 
L 248.239455 289.248421 
L 297.064455 291.289656 
L 348.552636 293.217713 
L 403.059091 295.034478 
L 418.150455 295.500186 
L 418.150455 295.500186 
" clip-path="url(#pa4f1d3d8b6)" style="fill: none; stroke: #9467bd; stroke-width: 2; stroke-linecap: square"/>
   </g>
   <g id="line2d_16">
    <path d="M 64.243182 309.158429 
L 65.426818 309.055607 
M 67.794091 308.938169 
M 70.161364 308.970931 
L 72.528636 309.008229 
L 77.263182 309.035446 
L 81.997727 309.060648 
L 91.466818 309.10601 
L 119.874091 309.160445 
L 176.688636 309.209336 
L 233.503182 309.232017 
L 290.317727 309.245626 
L 347.132273 309.251675 
L 403.946818 309.260747 
" clip-path="url(#pa4f1d3d8b6)" style="fill: none; stroke-dasharray: 3.7,1.6; stroke-dashoffset: 0; stroke: #9467bd"/>
    <defs>
     <path id="m207d36d25f" d="M -3 3 
L 3 3 
L 3 -3 
L -3 -3 
z
" style="stroke: #000000; stroke-linejoin: miter"/>
    </defs>
    <g clip-path="url(#pa4f1d3d8b6)">
     <use xlink:href="#m207d36d25f" x="64.243182" y="309.158429" style="fill: #9467bd; stroke: #000000; stroke-linejoin: miter"/>
     <use xlink:href="#m207d36d25f" x="65.426818" y="309.055607" style="fill: #9467bd; stroke: #000000; stroke-linejoin: miter"/>
     <use xlink:href="#m207d36d25f" x="67.794091" y="308.938169" style="fill: #9467bd; stroke: #000000; stroke-linejoin: miter"/>
     <use xlink:href="#m207d36d25f" x="70.161364" y="308.970931" style="fill: #9467bd; stroke: #000000; stroke-linejoin: miter"/>
     <use xlink:href="#m207d36d25f" x="72.528636" y="309.008229" style="fill: #9467bd; stroke: #000000; stroke-linejoin: miter"/>
     <use xlink:href="#m207d36d25f" x="77.263182" y="309.035446" style="fill: #9467bd; stroke: #000000; stroke-linejoin: miter"/>
     <use xlink:href="#m207d36d25f" x="81.997727" y="309.060648" style="fill: #9467bd; stroke: #000000; stroke-linejoin: miter"/>
     <use xlink:href="#m207d36d25f" x="91.466818" y="309.10601" style="fill: #9467bd; stroke: #000000; stroke-linejoin: miter"/>
     <use xlink:href="#m207d36d25f" x="119.874091" y="309.160445" style="fill: #9467bd; stroke: #000000; stroke-linejoin: miter"/>
     <use xlink:href="#m207d36d25f" x="176.688636" y="309.209336" style="fill: #9467bd; stroke: #000000; stroke-linejoin: miter"/>
     <use xlink:href="#m207d36d25f" x="233.503182" y="309.232017" style="fill: #9467bd; stroke: #000000; stroke-linejoin: miter"/>
     <use xlink:href="#m207d36d25f" x="290.317727" y="309.245626" style="fill: #9467bd; stroke: #000000; stroke-linejoin: miter"/>
     <use xlink:href="#m207d36d25f" x="347.132273" y="309.251675" style="fill: #9467bd; stroke: #000000; stroke-linejoin: miter"/>
     <use xlink:href="#m207d36d25f" x="403.946818" y="309.260747" style="fill: #9467bd; stroke: #000000; stroke-linejoin: miter"/>
    </g>
   </g>
   <g id="line2d_17">
    <path d="M 63.059545 309.286957 
L 63.237091 284.76871 
L 63.769727 127.873408 
L 64.124818 92.080606 
L 64.302364 91.122714 
L 64.479909 97.262656 
L 65.012545 135.58964 
L 65.900273 201.003118 
L 66.432909 227.697966 
L 66.965545 245.878439 
L 67.498182 257.878099 
L 68.030818 265.678243 
L 68.563455 270.712704 
L 69.096091 273.953917 
L 69.628727 276.041655 
L 70.161364 277.39051 
L 70.694 278.267078 
L 71.404182 278.986929 
L 72.291909 279.484547 
L 73.357182 279.797645 
L 75.310182 280.082387 
L 81.169182 280.586385 
L 112.417182 282.99039 
L 145.795727 285.336555 
L 180.772182 287.571165 
L 217.524091 289.695291 
L 256.229 291.708387 
L 297.242 293.616567 
L 340.740636 295.414813 
L 386.902455 297.098228 
L 418.150455 298.120349 
L 418.150455 298.120349 
" clip-path="url(#pa4f1d3d8b6)" style="fill: none; stroke: #e377c2; stroke-width: 2; stroke-linecap: square"/>
   </g>
   <g id="line2d_18">
    <path d="M 64.243182 309.135244 
L 65.426818 308.953794 
M 67.794091 308.912967 
M 70.161364 308.863068 
L 72.528636 308.930104 
L 77.263182 308.923552 
L 81.997727 308.939177 
L 91.466818 309.012261 
L 119.874091 309.126171 
L 176.688636 309.188671 
L 233.503182 309.216897 
L 290.317727 309.235546 
L 347.132273 309.25117 
L 403.946818 309.257723 
" clip-path="url(#pa4f1d3d8b6)" style="fill: none; stroke-dasharray: 3.7,1.6; stroke-dashoffset: 0; stroke: #e377c2"/>
    <defs>
     <path id="m381cbd1277" d="M -3 3 
L 3 3 
L 3 -3 
L -3 -3 
z
" style="stroke: #000000; stroke-linejoin: miter"/>
    </defs>
    <g clip-path="url(#pa4f1d3d8b6)">
     <use xlink:href="#m381cbd1277" x="64.243182" y="309.135244" style="fill: #e377c2; stroke: #000000; stroke-linejoin: miter"/>
     <use xlink:href="#m381cbd1277" x="65.426818" y="308.953794" style="fill: #e377c2; stroke: #000000; stroke-linejoin: miter"/>
     <use xlink:href="#m381cbd1277" x="67.794091" y="308.912967" style="fill: #e377c2; stroke: #000000; stroke-linejoin: miter"/>
     <use xlink:href="#m381cbd1277" x="70.161364" y="308.863068" style="fill: #e377c2; stroke: #000000; stroke-linejoin: miter"/>
     <use xlink:href="#m381cbd1277" x="72.528636" y="308.930104" style="fill: #e377c2; stroke: #000000; stroke-linejoin: miter"/>
     <use xlink:href="#m381cbd1277" x="77.263182" y="308.923552" style="fill: #e377c2; stroke: #000000; stroke-linejoin: miter"/>
     <use xlink:href="#m381cbd1277" x="81.997727" y="308.939177" style="fill: #e377c2; stroke: #000000; stroke-linejoin: miter"/>
     <use xlink:href="#m381cbd1277" x="91.466818" y="309.012261" style="fill: #e377c2; stroke: #000000; stroke-linejoin: miter"/>
     <use xlink:href="#m381cbd1277" x="119.874091" y="309.126171" style="fill: #e377c2; stroke: #000000; stroke-linejoin: miter"/>
     <use xlink:href="#m381cbd1277" x="176.688636" y="309.188671" style="fill: #e377c2; stroke: #000000; stroke-linejoin: miter"/>
     <use xlink:href="#m381cbd1277" x="233.503182" y="309.216897" style="fill: #e377c2; stroke: #000000; stroke-linejoin: miter"/>
     <use xlink:href="#m381cbd1277" x="290.317727" y="309.235546" style="fill: #e377c2; stroke: #000000; stroke-linejoin: miter"/>
     <use xlink:href="#m381cbd1277" x="347.132273" y="309.25117" style="fill: #e377c2; stroke: #000000; stroke-linejoin: miter"/>
     <use xlink:href="#m381cbd1277" x="403.946818" y="309.257723" style="fill: #e377c2; stroke: #000000; stroke-linejoin: miter"/>
    </g>
   </g>
   <g id="patch_3">
    <path d="M 45.305 320.243478 
L 45.305 79.2 
" style="fill: none; stroke: #000000; stroke-width: 0.8; stroke-linejoin: miter; stroke-linecap: square"/>
   </g>
   <g id="patch_4">
    <path d="M 435.905 320.243478 
L 435.905 79.2 
" style="fill: none; stroke: #000000; stroke-width: 0.8; stroke-linejoin: miter; stroke-linecap: square"/>
   </g>
   <g id="patch_5">
    <path d="M 45.305 320.243478 
L 435.905 320.243478 
" style="fill: none; stroke: #000000; stroke-width: 0.8; stroke-linejoin: miter; stroke-linecap: square"/>
   </g>
   <g id="patch_6">
    <path d="M 45.305 79.2 
L 435.905 79.2 
" style="fill: none; stroke: #000000; stroke-width: 0.8; stroke-linejoin: miter; stroke-linecap: square"/>
   </g>
   <g id="legend_1">
    <g id="patch_7">
     <path d="M 458.529 176.9375 
L 612.6165 176.9375 
Q 614.6165 176.9375 614.6165 174.9375 
L 614.6165 86.2 
Q 614.6165 84.2 612.6165 84.2 
L 458.529 84.2 
Q 456.529 84.2 456.529 86.2 
L 456.529 174.9375 
Q 456.529 176.9375 458.529 176.9375 
z
" style="fill: #ffffff; opacity: 0.8; stroke: #cccccc; stroke-linejoin: miter"/>
    </g>
    <g id="line2d_19">
     <path d="M 460.529 92.298437 
L 480.529 92.298437 
" style="fill: none; stroke: #d62728; stroke-width: 2; stroke-linecap: square"/>
    </g>
    <g id="line2d_20"/>
    <g id="text_15">
     <!-- CYP3A5_1_1 -->
     <g transform="translate(488.529 95.798437) scale(0.1 -0.1)">
      <defs>
       <path id="DejaVuSans-43" d="M 4122 4306 
L 4122 3641 
Q 3803 3938 3442 4084 
Q 3081 4231 2675 4231 
Q 1875 4231 1450 3742 
Q 1025 3253 1025 2328 
Q 1025 1406 1450 917 
Q 1875 428 2675 428 
Q 3081 428 3442 575 
Q 3803 722 4122 1019 
L 4122 359 
Q 3791 134 3420 21 
Q 3050 -91 2638 -91 
Q 1578 -91 968 557 
Q 359 1206 359 2328 
Q 359 3453 968 4101 
Q 1578 4750 2638 4750 
Q 3056 4750 3426 4639 
Q 3797 4528 4122 4306 
z
" transform="scale(0.015625)"/>
       <path id="DejaVuSans-59" d="M -13 4666 
L 666 4666 
L 1959 2747 
L 3244 4666 
L 3922 4666 
L 2272 2222 
L 2272 0 
L 1638 0 
L 1638 2222 
L -13 4666 
z
" transform="scale(0.015625)"/>
       <path id="DejaVuSans-50" d="M 1259 4147 
L 1259 2394 
L 2053 2394 
Q 2494 2394 2734 2622 
Q 2975 2850 2975 3272 
Q 2975 3691 2734 3919 
Q 2494 4147 2053 4147 
L 1259 4147 
z
M 628 4666 
L 2053 4666 
Q 2838 4666 3239 4311 
Q 3641 3956 3641 3272 
Q 3641 2581 3239 2228 
Q 2838 1875 2053 1875 
L 1259 1875 
L 1259 0 
L 628 0 
L 628 4666 
z
" transform="scale(0.015625)"/>
       <path id="DejaVuSans-33" d="M 2597 2516 
Q 3050 2419 3304 2112 
Q 3559 1806 3559 1356 
Q 3559 666 3084 287 
Q 2609 -91 1734 -91 
Q 1441 -91 1130 -33 
Q 819 25 488 141 
L 488 750 
Q 750 597 1062 519 
Q 1375 441 1716 441 
Q 2309 441 2620 675 
Q 2931 909 2931 1356 
Q 2931 1769 2642 2001 
Q 2353 2234 1838 2234 
L 1294 2234 
L 1294 2753 
L 1863 2753 
Q 2328 2753 2575 2939 
Q 2822 3125 2822 3475 
Q 2822 3834 2567 4026 
Q 2313 4219 1838 4219 
Q 1578 4219 1281 4162 
Q 984 4106 628 3988 
L 628 4550 
Q 988 4650 1302 4700 
Q 1616 4750 1894 4750 
Q 2613 4750 3031 4423 
Q 3450 4097 3450 3541 
Q 3450 3153 3228 2886 
Q 3006 2619 2597 2516 
z
" transform="scale(0.015625)"/>
       <path id="DejaVuSans-41" d="M 2188 4044 
L 1331 1722 
L 3047 1722 
L 2188 4044 
z
M 1831 4666 
L 2547 4666 
L 4325 0 
L 3669 0 
L 3244 1197 
L 1141 1197 
L 716 0 
L 50 0 
L 1831 4666 
z
" transform="scale(0.015625)"/>
       <path id="DejaVuSans-5f" d="M 3263 -1063 
L 3263 -1509 
L -63 -1509 
L -63 -1063 
L 3263 -1063 
z
" transform="scale(0.015625)"/>
      </defs>
      <use xlink:href="#DejaVuSans-43"/>
      <use xlink:href="#DejaVuSans-59" transform="translate(68.074219 0)"/>
      <use xlink:href="#DejaVuSans-50" transform="translate(129.158203 0)"/>
      <use xlink:href="#DejaVuSans-33" transform="translate(189.460938 0)"/>
      <use xlink:href="#DejaVuSans-41" transform="translate(253.083984 0)"/>
      <use xlink:href="#DejaVuSans-35" transform="translate(321.492188 0)"/>
      <use xlink:href="#DejaVuSans-5f" transform="translate(385.115234 0)"/>
      <use xlink:href="#DejaVuSans-31" transform="translate(435.115234 0)"/>
      <use xlink:href="#DejaVuSans-5f" transform="translate(498.738281 0)"/>
      <use xlink:href="#DejaVuSans-31" transform="translate(548.738281 0)"/>
     </g>
    </g>
    <g id="LineCollection_4">
     <path d="M 470.529 112.254687 
L 470.529 102.254687 
" style="fill: none; stroke: #d62728"/>
    </g>
    <g id="line2d_21">
     <path d="M 460.529 107.254687 
L 480.529 107.254687 
" style="fill: none; stroke-dasharray: 3.7,1.6; stroke-dashoffset: 0; stroke: #d62728"/>
    </g>
    <g id="line2d_22">
     <g>
      <use xlink:href="#mb1a4913022" x="470.529" y="107.254687" style="fill: #d62728; stroke: #000000; stroke-linejoin: miter"/>
     </g>
    </g>
    <g id="text_16">
     <!-- CYP3A5_1_1±SD (n=2) -->
     <g transform="translate(488.529 110.754687) scale(0.1 -0.1)">
      <defs>
       <path id="DejaVuSans-b1" d="M 2944 4013 
L 2944 2803 
L 4684 2803 
L 4684 2272 
L 2944 2272 
L 2944 1063 
L 2419 1063 
L 2419 2272 
L 678 2272 
L 678 2803 
L 2419 2803 
L 2419 4013 
L 2944 4013 
z
M 678 531 
L 4684 531 
L 4684 0 
L 678 0 
L 678 531 
z
" transform="scale(0.015625)"/>
       <path id="DejaVuSans-53" d="M 3425 4513 
L 3425 3897 
Q 3066 4069 2747 4153 
Q 2428 4238 2131 4238 
Q 1616 4238 1336 4038 
Q 1056 3838 1056 3469 
Q 1056 3159 1242 3001 
Q 1428 2844 1947 2747 
L 2328 2669 
Q 3034 2534 3370 2195 
Q 3706 1856 3706 1288 
Q 3706 609 3251 259 
Q 2797 -91 1919 -91 
Q 1588 -91 1214 -16 
Q 841 59 441 206 
L 441 856 
Q 825 641 1194 531 
Q 1563 422 1919 422 
Q 2459 422 2753 634 
Q 3047 847 3047 1241 
Q 3047 1584 2836 1778 
Q 2625 1972 2144 2069 
L 1759 2144 
Q 1053 2284 737 2584 
Q 422 2884 422 3419 
Q 422 4038 858 4394 
Q 1294 4750 2059 4750 
Q 2388 4750 2728 4690 
Q 3069 4631 3425 4513 
z
" transform="scale(0.015625)"/>
       <path id="DejaVuSans-44" d="M 1259 4147 
L 1259 519 
L 2022 519 
Q 2988 519 3436 956 
Q 3884 1394 3884 2338 
Q 3884 3275 3436 3711 
Q 2988 4147 2022 4147 
L 1259 4147 
z
M 628 4666 
L 1925 4666 
Q 3281 4666 3915 4102 
Q 4550 3538 4550 2338 
Q 4550 1131 3912 565 
Q 3275 0 1925 0 
L 628 0 
L 628 4666 
z
" transform="scale(0.015625)"/>
       <path id="DejaVuSans-20" transform="scale(0.015625)"/>
       <path id="DejaVuSans-28" d="M 1984 4856 
Q 1566 4138 1362 3434 
Q 1159 2731 1159 2009 
Q 1159 1288 1364 580 
Q 1569 -128 1984 -844 
L 1484 -844 
Q 1016 -109 783 600 
Q 550 1309 550 2009 
Q 550 2706 781 3412 
Q 1013 4119 1484 4856 
L 1984 4856 
z
" transform="scale(0.015625)"/>
       <path id="DejaVuSans-6e" d="M 3513 2113 
L 3513 0 
L 2938 0 
L 2938 2094 
Q 2938 2591 2744 2837 
Q 2550 3084 2163 3084 
Q 1697 3084 1428 2787 
Q 1159 2491 1159 1978 
L 1159 0 
L 581 0 
L 581 3500 
L 1159 3500 
L 1159 2956 
Q 1366 3272 1645 3428 
Q 1925 3584 2291 3584 
Q 2894 3584 3203 3211 
Q 3513 2838 3513 2113 
z
" transform="scale(0.015625)"/>
       <path id="DejaVuSans-3d" d="M 678 2906 
L 4684 2906 
L 4684 2381 
L 678 2381 
L 678 2906 
z
M 678 1631 
L 4684 1631 
L 4684 1100 
L 678 1100 
L 678 1631 
z
" transform="scale(0.015625)"/>
       <path id="DejaVuSans-29" d="M 513 4856 
L 1013 4856 
Q 1481 4119 1714 3412 
Q 1947 2706 1947 2009 
Q 1947 1309 1714 600 
Q 1481 -109 1013 -844 
L 513 -844 
Q 928 -128 1133 580 
Q 1338 1288 1338 2009 
Q 1338 2731 1133 3434 
Q 928 4138 513 4856 
z
" transform="scale(0.015625)"/>
      </defs>
      <use xlink:href="#DejaVuSans-43"/>
      <use xlink:href="#DejaVuSans-59" transform="translate(68.074219 0)"/>
      <use xlink:href="#DejaVuSans-50" transform="translate(129.158203 0)"/>
      <use xlink:href="#DejaVuSans-33" transform="translate(189.460938 0)"/>
      <use xlink:href="#DejaVuSans-41" transform="translate(253.083984 0)"/>
      <use xlink:href="#DejaVuSans-35" transform="translate(321.492188 0)"/>
      <use xlink:href="#DejaVuSans-5f" transform="translate(385.115234 0)"/>
      <use xlink:href="#DejaVuSans-31" transform="translate(435.115234 0)"/>
      <use xlink:href="#DejaVuSans-5f" transform="translate(498.738281 0)"/>
      <use xlink:href="#DejaVuSans-31" transform="translate(548.738281 0)"/>
      <use xlink:href="#DejaVuSans-b1" transform="translate(612.361328 0)"/>
      <use xlink:href="#DejaVuSans-53" transform="translate(696.150391 0)"/>
      <use xlink:href="#DejaVuSans-44" transform="translate(759.626953 0)"/>
      <use xlink:href="#DejaVuSans-20" transform="translate(836.628906 0)"/>
      <use xlink:href="#DejaVuSans-28" transform="translate(868.416016 0)"/>
      <use xlink:href="#DejaVuSans-6e" transform="translate(907.429688 0)"/>
      <use xlink:href="#DejaVuSans-3d" transform="translate(970.808594 0)"/>
      <use xlink:href="#DejaVuSans-32" transform="translate(1054.597656 0)"/>
      <use xlink:href="#DejaVuSans-29" transform="translate(1118.220703 0)"/>
     </g>
    </g>
    <g id="line2d_23">
     <path d="M 460.529 122.210938 
L 480.529 122.210938 
" style="fill: none; stroke: #9467bd; stroke-width: 2; stroke-linecap: square"/>
    </g>
    <g id="line2d_24"/>
    <g id="text_17">
     <!-- CYP3A5_1_3 -->
     <g transform="translate(488.529 125.710938) scale(0.1 -0.1)">
      <use xlink:href="#DejaVuSans-43"/>
      <use xlink:href="#DejaVuSans-59" transform="translate(68.074219 0)"/>
      <use xlink:href="#DejaVuSans-50" transform="translate(129.158203 0)"/>
      <use xlink:href="#DejaVuSans-33" transform="translate(189.460938 0)"/>
      <use xlink:href="#DejaVuSans-41" transform="translate(253.083984 0)"/>
      <use xlink:href="#DejaVuSans-35" transform="translate(321.492188 0)"/>
      <use xlink:href="#DejaVuSans-5f" transform="translate(385.115234 0)"/>
      <use xlink:href="#DejaVuSans-31" transform="translate(435.115234 0)"/>
      <use xlink:href="#DejaVuSans-5f" transform="translate(498.738281 0)"/>
      <use xlink:href="#DejaVuSans-33" transform="translate(548.738281 0)"/>
     </g>
    </g>
    <g id="LineCollection_5">
     <path d="M 470.529 142.167187 
L 470.529 132.167187 
" style="fill: none; stroke: #9467bd"/>
    </g>
    <g id="line2d_25">
     <path d="M 460.529 137.167187 
L 480.529 137.167187 
" style="fill: none; stroke-dasharray: 3.7,1.6; stroke-dashoffset: 0; stroke: #9467bd"/>
    </g>
    <g id="line2d_26">
     <g>
      <use xlink:href="#m207d36d25f" x="470.529" y="137.167187" style="fill: #9467bd; stroke: #000000; stroke-linejoin: miter"/>
     </g>
    </g>
    <g id="text_18">
     <!-- CYP3A5_1_3±SD (n=14) -->
     <g transform="translate(488.529 140.667187) scale(0.1 -0.1)">
      <use xlink:href="#DejaVuSans-43"/>
      <use xlink:href="#DejaVuSans-59" transform="translate(68.074219 0)"/>
      <use xlink:href="#DejaVuSans-50" transform="translate(129.158203 0)"/>
      <use xlink:href="#DejaVuSans-33" transform="translate(189.460938 0)"/>
      <use xlink:href="#DejaVuSans-41" transform="translate(253.083984 0)"/>
      <use xlink:href="#DejaVuSans-35" transform="translate(321.492188 0)"/>
      <use xlink:href="#DejaVuSans-5f" transform="translate(385.115234 0)"/>
      <use xlink:href="#DejaVuSans-31" transform="translate(435.115234 0)"/>
      <use xlink:href="#DejaVuSans-5f" transform="translate(498.738281 0)"/>
      <use xlink:href="#DejaVuSans-33" transform="translate(548.738281 0)"/>
      <use xlink:href="#DejaVuSans-b1" transform="translate(612.361328 0)"/>
      <use xlink:href="#DejaVuSans-53" transform="translate(696.150391 0)"/>
      <use xlink:href="#DejaVuSans-44" transform="translate(759.626953 0)"/>
      <use xlink:href="#DejaVuSans-20" transform="translate(836.628906 0)"/>
      <use xlink:href="#DejaVuSans-28" transform="translate(868.416016 0)"/>
      <use xlink:href="#DejaVuSans-6e" transform="translate(907.429688 0)"/>
      <use xlink:href="#DejaVuSans-3d" transform="translate(970.808594 0)"/>
      <use xlink:href="#DejaVuSans-31" transform="translate(1054.597656 0)"/>
      <use xlink:href="#DejaVuSans-34" transform="translate(1118.220703 0)"/>
      <use xlink:href="#DejaVuSans-29" transform="translate(1181.84375 0)"/>
     </g>
    </g>
    <g id="line2d_27">
     <path d="M 460.529 152.123438 
L 480.529 152.123438 
" style="fill: none; stroke: #e377c2; stroke-width: 2; stroke-linecap: square"/>
    </g>
    <g id="line2d_28"/>
    <g id="text_19">
     <!-- CYP3A5_3_3 -->
     <g transform="translate(488.529 155.623438) scale(0.1 -0.1)">
      <use xlink:href="#DejaVuSans-43"/>
      <use xlink:href="#DejaVuSans-59" transform="translate(68.074219 0)"/>
      <use xlink:href="#DejaVuSans-50" transform="translate(129.158203 0)"/>
      <use xlink:href="#DejaVuSans-33" transform="translate(189.460938 0)"/>
      <use xlink:href="#DejaVuSans-41" transform="translate(253.083984 0)"/>
      <use xlink:href="#DejaVuSans-35" transform="translate(321.492188 0)"/>
      <use xlink:href="#DejaVuSans-5f" transform="translate(385.115234 0)"/>
      <use xlink:href="#DejaVuSans-33" transform="translate(435.115234 0)"/>
      <use xlink:href="#DejaVuSans-5f" transform="translate(498.738281 0)"/>
      <use xlink:href="#DejaVuSans-33" transform="translate(548.738281 0)"/>
     </g>
    </g>
    <g id="LineCollection_6">
     <path d="M 470.529 172.079687 
L 470.529 162.079687 
" style="fill: none; stroke: #e377c2"/>
    </g>
    <g id="line2d_29">
     <path d="M 460.529 167.079687 
L 480.529 167.079687 
" style="fill: none; stroke-dasharray: 3.7,1.6; stroke-dashoffset: 0; stroke: #e377c2"/>
    </g>
    <g id="line2d_30">
     <g>
      <use xlink:href="#m381cbd1277" x="470.529" y="167.079687" style="fill: #e377c2; stroke: #000000; stroke-linejoin: miter"/>
     </g>
    </g>
    <g id="text_20">
     <!-- CYP3A5_3_3±SD (n=15) -->
     <g transform="translate(488.529 170.579687) scale(0.1 -0.1)">
      <use xlink:href="#DejaVuSans-43"/>
      <use xlink:href="#DejaVuSans-59" transform="translate(68.074219 0)"/>
      <use xlink:href="#DejaVuSans-50" transform="translate(129.158203 0)"/>
      <use xlink:href="#DejaVuSans-33" transform="translate(189.460938 0)"/>
      <use xlink:href="#DejaVuSans-41" transform="translate(253.083984 0)"/>
      <use xlink:href="#DejaVuSans-35" transform="translate(321.492188 0)"/>
      <use xlink:href="#DejaVuSans-5f" transform="translate(385.115234 0)"/>
      <use xlink:href="#DejaVuSans-33" transform="translate(435.115234 0)"/>
      <use xlink:href="#DejaVuSans-5f" transform="translate(498.738281 0)"/>
      <use xlink:href="#DejaVuSans-33" transform="translate(548.738281 0)"/>
      <use xlink:href="#DejaVuSans-b1" transform="translate(612.361328 0)"/>
      <use xlink:href="#DejaVuSans-53" transform="translate(696.150391 0)"/>
      <use xlink:href="#DejaVuSans-44" transform="translate(759.626953 0)"/>
      <use xlink:href="#DejaVuSans-20" transform="translate(836.628906 0)"/>
      <use xlink:href="#DejaVuSans-28" transform="translate(868.416016 0)"/>
      <use xlink:href="#DejaVuSans-6e" transform="translate(907.429688 0)"/>
      <use xlink:href="#DejaVuSans-3d" transform="translate(970.808594 0)"/>
      <use xlink:href="#DejaVuSans-31" transform="translate(1054.597656 0)"/>
      <use xlink:href="#DejaVuSans-35" transform="translate(1118.220703 0)"/>
      <use xlink:href="#DejaVuSans-29" transform="translate(1181.84375 0)"/>
     </g>
    </g>
   </g>
  </g>
  <g id="axes_2">
   <g id="patch_8">
    <path d="M 45.305 633.6 
L 435.905 633.6 
L 435.905 392.556522 
L 45.305 392.556522 
z
" style="fill: #ffffff"/>
   </g>
   <g id="matplotlib.axis_3">
    <g id="xtick_8">
     <g id="line2d_31">
      <g>
       <use xlink:href="#m235d9022cb" x="53.276429" y="633.6" style="stroke: #000000; stroke-width: 0.8"/>
      </g>
     </g>
     <g id="text_21">
      <!-- 0 -->
      <g transform="translate(48.504554 651.997656) scale(0.15 -0.15)">
       <use xlink:href="#DejaVuSans-30"/>
      </g>
     </g>
    </g>
    <g id="xtick_9">
     <g id="line2d_32">
      <g>
       <use xlink:href="#m235d9022cb" x="132.990714" y="633.6" style="stroke: #000000; stroke-width: 0.8"/>
      </g>
     </g>
     <g id="text_22">
      <!-- 10 -->
      <g transform="translate(123.446964 651.997656) scale(0.15 -0.15)">
       <use xlink:href="#DejaVuSans-31"/>
       <use xlink:href="#DejaVuSans-30" transform="translate(63.623047 0)"/>
      </g>
     </g>
    </g>
    <g id="xtick_10">
     <g id="line2d_33">
      <g>
       <use xlink:href="#m235d9022cb" x="212.705" y="633.6" style="stroke: #000000; stroke-width: 0.8"/>
      </g>
     </g>
     <g id="text_23">
      <!-- 20 -->
      <g transform="translate(203.16125 651.997656) scale(0.15 -0.15)">
       <use xlink:href="#DejaVuSans-32"/>
       <use xlink:href="#DejaVuSans-30" transform="translate(63.623047 0)"/>
      </g>
     </g>
    </g>
    <g id="xtick_11">
     <g id="line2d_34">
      <g>
       <use xlink:href="#m235d9022cb" x="292.419286" y="633.6" style="stroke: #000000; stroke-width: 0.8"/>
      </g>
     </g>
     <g id="text_24">
      <!-- 30 -->
      <g transform="translate(282.875536 651.997656) scale(0.15 -0.15)">
       <use xlink:href="#DejaVuSans-33"/>
       <use xlink:href="#DejaVuSans-30" transform="translate(63.623047 0)"/>
      </g>
     </g>
    </g>
    <g id="xtick_12">
     <g id="line2d_35">
      <g>
       <use xlink:href="#m235d9022cb" x="372.133571" y="633.6" style="stroke: #000000; stroke-width: 0.8"/>
      </g>
     </g>
     <g id="text_25">
      <!-- 40 -->
      <g transform="translate(362.589821 651.997656) scale(0.15 -0.15)">
       <use xlink:href="#DejaVuSans-34"/>
       <use xlink:href="#DejaVuSans-30" transform="translate(63.623047 0)"/>
      </g>
     </g>
    </g>
    <g id="text_26">
     <!-- time [hr] -->
     <g transform="translate(195.530469 672.794375) scale(0.18 -0.18)">
      <use xlink:href="#DejaVuSans-Bold-74"/>
      <use xlink:href="#DejaVuSans-Bold-69" transform="translate(47.802734 0)"/>
      <use xlink:href="#DejaVuSans-Bold-6d" transform="translate(82.080078 0)"/>
      <use xlink:href="#DejaVuSans-Bold-65" transform="translate(186.279297 0)"/>
      <use xlink:href="#DejaVuSans-Bold-20" transform="translate(254.101562 0)"/>
      <use xlink:href="#DejaVuSans-Bold-5b" transform="translate(288.916016 0)"/>
      <use xlink:href="#DejaVuSans-Bold-68" transform="translate(334.619141 0)"/>
      <use xlink:href="#DejaVuSans-Bold-72" transform="translate(405.810547 0)"/>
      <use xlink:href="#DejaVuSans-Bold-5d" transform="translate(455.126953 0)"/>
     </g>
    </g>
   </g>
   <g id="matplotlib.axis_4">
    <g id="ytick_6">
     <g id="line2d_36">
      <g>
       <use xlink:href="#m61fa538b87" x="45.305" y="622.643478" style="stroke: #000000; stroke-width: 0.8"/>
      </g>
     </g>
     <g id="text_27">
      <!-- 0 -->
      <g transform="translate(28.76125 628.342306) scale(0.15 -0.15)">
       <use xlink:href="#DejaVuSans-30"/>
      </g>
     </g>
    </g>
    <g id="ytick_7">
     <g id="line2d_37">
      <g>
       <use xlink:href="#m61fa538b87" x="45.305" y="573.691391" style="stroke: #000000; stroke-width: 0.8"/>
      </g>
     </g>
     <g id="text_28">
      <!-- 2 -->
      <g transform="translate(28.76125 579.390219) scale(0.15 -0.15)">
       <use xlink:href="#DejaVuSans-32"/>
      </g>
     </g>
    </g>
    <g id="ytick_8">
     <g id="line2d_38">
      <g>
       <use xlink:href="#m61fa538b87" x="45.305" y="524.739303" style="stroke: #000000; stroke-width: 0.8"/>
      </g>
     </g>
     <g id="text_29">
      <!-- 4 -->
      <g transform="translate(28.76125 530.438132) scale(0.15 -0.15)">
       <use xlink:href="#DejaVuSans-34"/>
      </g>
     </g>
    </g>
    <g id="ytick_9">
     <g id="line2d_39">
      <g>
       <use xlink:href="#m61fa538b87" x="45.305" y="475.787216" style="stroke: #000000; stroke-width: 0.8"/>
      </g>
     </g>
     <g id="text_30">
      <!-- 6 -->
      <g transform="translate(28.76125 481.486044) scale(0.15 -0.15)">
       <use xlink:href="#DejaVuSans-36"/>
      </g>
     </g>
    </g>
    <g id="ytick_10">
     <g id="line2d_40">
      <g>
       <use xlink:href="#m61fa538b87" x="45.305" y="426.835129" style="stroke: #000000; stroke-width: 0.8"/>
      </g>
     </g>
     <g id="text_31">
      <!-- 8 -->
      <g transform="translate(28.76125 432.533957) scale(0.15 -0.15)">
       <use xlink:href="#DejaVuSans-38"/>
      </g>
     </g>
    </g>
    <g id="text_32">
     <!-- rapamycin [µM] -->
     <g transform="translate(20.877188 593.116386) rotate(-90) scale(0.18 -0.18)">
      <use xlink:href="#DejaVuSans-Bold-72"/>
      <use xlink:href="#DejaVuSans-Bold-61" transform="translate(49.316406 0)"/>
      <use xlink:href="#DejaVuSans-Bold-70" transform="translate(116.796875 0)"/>
      <use xlink:href="#DejaVuSans-Bold-61" transform="translate(188.378906 0)"/>
      <use xlink:href="#DejaVuSans-Bold-6d" transform="translate(255.859375 0)"/>
      <use xlink:href="#DejaVuSans-Bold-79" transform="translate(360.058594 0)"/>
      <use xlink:href="#DejaVuSans-Bold-63" transform="translate(425.244141 0)"/>
      <use xlink:href="#DejaVuSans-Bold-69" transform="translate(484.521484 0)"/>
      <use xlink:href="#DejaVuSans-Bold-6e" transform="translate(518.798828 0)"/>
      <use xlink:href="#DejaVuSans-Bold-20" transform="translate(589.990234 0)"/>
      <use xlink:href="#DejaVuSans-Bold-5b" transform="translate(624.804688 0)"/>
      <use xlink:href="#DejaVuSans-Bold-b5" transform="translate(670.507812 0)"/>
      <use xlink:href="#DejaVuSans-Bold-4d" transform="translate(744.091797 0)"/>
      <use xlink:href="#DejaVuSans-Bold-5d" transform="translate(843.603516 0)"/>
     </g>
    </g>
   </g>
   <g id="LineCollection_7">
    <path clip-path="url(#pd4bd31d203)" style="fill: none; stroke: #d62728"/>
    <path d="M 57.262143 622.625837 
L 57.262143 622.52604 
" clip-path="url(#pd4bd31d203)" style="fill: none; stroke: #d62728"/>
    <path d="M 61.247857 622.465052 
L 61.247857 622.446907 
" clip-path="url(#pd4bd31d203)" style="fill: none; stroke: #d62728"/>
    <path clip-path="url(#pd4bd31d203)" style="fill: none; stroke: #d62728"/>
    <path d="M 69.219286 622.455476 
L 69.219286 622.384912 
" clip-path="url(#pd4bd31d203)" style="fill: none; stroke: #d62728"/>
    <path clip-path="url(#pd4bd31d203)" style="fill: none; stroke: #d62728"/>
    <path clip-path="url(#pd4bd31d203)" style="fill: none; stroke: #d62728"/>
    <path d="M 85.162143 622.493782 
L 85.162143 622.433298 
" clip-path="url(#pd4bd31d203)" style="fill: none; stroke: #d62728"/>
    <path d="M 101.105 622.501846 
L 101.105 622.437331 
" clip-path="url(#pd4bd31d203)" style="fill: none; stroke: #d62728"/>
    <path d="M 117.047857 622.572914 
L 117.047857 622.432794 
" clip-path="url(#pd4bd31d203)" style="fill: none; stroke: #d62728"/>
    <path d="M 148.933571 622.567874 
L 148.933571 622.438843 
" clip-path="url(#pd4bd31d203)" style="fill: none; stroke: #d62728"/>
    <path d="M 244.590714 622.601644 
L 244.590714 622.509911 
" clip-path="url(#pd4bd31d203)" style="fill: none; stroke: #d62728"/>
    <path d="M 435.905 622.601644 
L 435.905 622.565354 
" clip-path="url(#pd4bd31d203)" style="fill: none; stroke: #d62728"/>
    <path clip-path="url(#pd4bd31d203)" style="fill: none; stroke: #d62728"/>
    <path clip-path="url(#pd4bd31d203)" style="fill: none; stroke: #d62728"/>
    <path clip-path="url(#pd4bd31d203)" style="fill: none; stroke: #d62728"/>
    <path clip-path="url(#pd4bd31d203)" style="fill: none; stroke: #d62728"/>
   </g>
   <g id="LineCollection_8">
    <path clip-path="url(#pd4bd31d203)" style="fill: none; stroke: #9467bd"/>
    <path clip-path="url(#pd4bd31d203)" style="fill: none; stroke: #9467bd"/>
    <path d="M 61.247857 622.464548 
L 61.247857 622.35971 
" clip-path="url(#pd4bd31d203)" style="fill: none; stroke: #9467bd"/>
    <path clip-path="url(#pd4bd31d203)" style="fill: none; stroke: #9467bd"/>
    <path d="M 69.219286 622.41969 
L 69.219286 622.169691 
" clip-path="url(#pd4bd31d203)" style="fill: none; stroke: #9467bd"/>
    <path clip-path="url(#pd4bd31d203)" style="fill: none; stroke: #9467bd"/>
    <path d="M 77.190714 622.390456 
L 77.190714 622.264449 
" clip-path="url(#pd4bd31d203)" style="fill: none; stroke: #9467bd"/>
    <path d="M 85.162143 622.465052 
L 85.162143 622.264449 
" clip-path="url(#pd4bd31d203)" style="fill: none; stroke: #9467bd"/>
    <path d="M 101.105 622.470596 
L 101.105 622.313339 
" clip-path="url(#pd4bd31d203)" style="fill: none; stroke: #9467bd"/>
    <path d="M 117.047857 622.49227 
L 117.047857 622.342069 
" clip-path="url(#pd4bd31d203)" style="fill: none; stroke: #9467bd"/>
    <path d="M 148.933571 622.534608 
L 148.933571 622.390456 
" clip-path="url(#pd4bd31d203)" style="fill: none; stroke: #9467bd"/>
    <path d="M 244.590714 622.569386 
L 244.590714 622.464548 
" clip-path="url(#pd4bd31d203)" style="fill: none; stroke: #9467bd"/>
    <path d="M 435.905 622.593075 
L 435.905 622.53864 
" clip-path="url(#pd4bd31d203)" style="fill: none; stroke: #9467bd"/>
    <path clip-path="url(#pd4bd31d203)" style="fill: none; stroke: #9467bd"/>
    <path clip-path="url(#pd4bd31d203)" style="fill: none; stroke: #9467bd"/>
    <path clip-path="url(#pd4bd31d203)" style="fill: none; stroke: #9467bd"/>
    <path clip-path="url(#pd4bd31d203)" style="fill: none; stroke: #9467bd"/>
   </g>
   <g id="LineCollection_9">
    <path clip-path="url(#pd4bd31d203)" style="fill: none; stroke: #e377c2"/>
    <path clip-path="url(#pd4bd31d203)" style="fill: none; stroke: #e377c2"/>
    <path d="M 61.247857 622.578459 
L 61.247857 622.042172 
" clip-path="url(#pd4bd31d203)" style="fill: none; stroke: #e377c2"/>
    <path clip-path="url(#pd4bd31d203)" style="fill: none; stroke: #e377c2"/>
    <path d="M 69.219286 622.378359 
L 69.219286 622.160619 
" clip-path="url(#pd4bd31d203)" style="fill: none; stroke: #e377c2"/>
    <path clip-path="url(#pd4bd31d203)" style="fill: none; stroke: #e377c2"/>
    <path d="M 77.190714 622.392472 
L 77.190714 622.046708 
" clip-path="url(#pd4bd31d203)" style="fill: none; stroke: #e377c2"/>
    <path d="M 85.162143 622.392472 
L 85.162143 622.18078 
" clip-path="url(#pd4bd31d203)" style="fill: none; stroke: #e377c2"/>
    <path d="M 101.105 622.418681 
L 101.105 622.141466 
" clip-path="url(#pd4bd31d203)" style="fill: none; stroke: #e377c2"/>
    <path d="M 117.047857 622.449427 
L 117.047857 622.14197 
" clip-path="url(#pd4bd31d203)" style="fill: none; stroke: #e377c2"/>
    <path d="M 148.933571 622.475133 
L 148.933571 622.262433 
" clip-path="url(#pd4bd31d203)" style="fill: none; stroke: #e377c2"/>
    <path d="M 244.590714 622.538136 
L 244.590714 622.42725 
" clip-path="url(#pd4bd31d203)" style="fill: none; stroke: #e377c2"/>
    <path d="M 435.905 622.574426 
L 435.905 622.515959 
" clip-path="url(#pd4bd31d203)" style="fill: none; stroke: #e377c2"/>
    <path clip-path="url(#pd4bd31d203)" style="fill: none; stroke: #e377c2"/>
    <path clip-path="url(#pd4bd31d203)" style="fill: none; stroke: #e377c2"/>
    <path clip-path="url(#pd4bd31d203)" style="fill: none; stroke: #e377c2"/>
    <path clip-path="url(#pd4bd31d203)" style="fill: none; stroke: #e377c2"/>
   </g>
   <g id="line2d_41">
    <path d="M 53.276429 622.643478 
L 53.874286 600.964952 
L 55.07 494.256156 
L 55.667857 455.69525 
L 56.265714 431.357958 
L 56.863571 419.377996 
L 57.461429 417.020607 
L 58.059286 421.574063 
L 58.657143 430.713815 
L 59.852857 455.876063 
L 61.646429 495.772556 
L 62.842143 518.490327 
L 64.037857 537.020146 
L 65.233571 551.610298 
L 66.429286 562.853138 
L 67.625 571.400007 
L 68.820714 577.841775 
L 70.016429 582.670636 
L 71.212143 586.278331 
L 72.407857 588.968475 
L 73.603571 590.972579 
L 74.799286 592.46538 
L 75.995 593.577902 
L 77.190714 594.407977 
L 78.386429 595.028457 
L 80.18 595.680718 
L 81.973571 596.10765 
L 84.365 596.462877 
L 87.952143 596.750477 
L 93.930714 596.971515 
L 111.268571 597.293621 
L 248.177857 599.456215 
L 401.229286 601.656103 
L 436.502857 602.132814 
L 436.502857 602.132814 
" clip-path="url(#pd4bd31d203)" style="fill: none; stroke: #d62728; stroke-width: 2; stroke-linecap: square"/>
   </g>
   <g id="line2d_42">
    <path d="M 57.262143 622.575938 
L 61.247857 622.45598 
M 69.219286 622.420194 
M 77.190714 622.431786 
L 85.162143 622.46354 
L 101.105 622.469588 
L 117.047857 622.502854 
L 148.933571 622.503358 
L 244.590714 622.555777 
L 435.905 622.583499 
L 622.8165 622.597779 
" clip-path="url(#pd4bd31d203)" style="fill: none; stroke-dasharray: 3.7,1.6; stroke-dashoffset: 0; stroke: #d62728"/>
    <g clip-path="url(#pd4bd31d203)">
     <use xlink:href="#mb1a4913022" x="57.262143" y="622.575938" style="fill: #d62728; stroke: #000000; stroke-linejoin: miter"/>
     <use xlink:href="#mb1a4913022" x="61.247857" y="622.45598" style="fill: #d62728; stroke: #000000; stroke-linejoin: miter"/>
     <use xlink:href="#mb1a4913022" x="69.219286" y="622.420194" style="fill: #d62728; stroke: #000000; stroke-linejoin: miter"/>
     <use xlink:href="#mb1a4913022" x="77.190714" y="622.431786" style="fill: #d62728; stroke: #000000; stroke-linejoin: miter"/>
     <use xlink:href="#mb1a4913022" x="85.162143" y="622.46354" style="fill: #d62728; stroke: #000000; stroke-linejoin: miter"/>
     <use xlink:href="#mb1a4913022" x="101.105" y="622.469588" style="fill: #d62728; stroke: #000000; stroke-linejoin: miter"/>
     <use xlink:href="#mb1a4913022" x="117.047857" y="622.502854" style="fill: #d62728; stroke: #000000; stroke-linejoin: miter"/>
     <use xlink:href="#mb1a4913022" x="148.933571" y="622.503358" style="fill: #d62728; stroke: #000000; stroke-linejoin: miter"/>
     <use xlink:href="#mb1a4913022" x="244.590714" y="622.555777" style="fill: #d62728; stroke: #000000; stroke-linejoin: miter"/>
     <use xlink:href="#mb1a4913022" x="435.905" y="622.583499" style="fill: #d62728; stroke: #000000; stroke-linejoin: miter"/>
     <use xlink:href="#mb1a4913022" x="627.219286" y="622.598116" style="fill: #d62728; stroke: #000000; stroke-linejoin: miter"/>
     <use xlink:href="#mb1a4913022" x="818.533571" y="622.608196" style="fill: #d62728; stroke: #000000; stroke-linejoin: miter"/>
     <use xlink:href="#mb1a4913022" x="1009.847857" y="622.623821" style="fill: #d62728; stroke: #000000; stroke-linejoin: miter"/>
     <use xlink:href="#mb1a4913022" x="1201.162143" y="622.619789" style="fill: #d62728; stroke: #000000; stroke-linejoin: miter"/>
    </g>
   </g>
   <g id="line2d_43">
    <path d="M 53.276429 622.643478 
L 53.874286 598.559877 
L 55.07 482.745502 
L 55.667857 441.830054 
L 56.265714 416.675433 
L 56.863571 404.963775 
L 57.461429 403.513043 
L 58.059286 409.269127 
L 58.657143 419.680635 
L 59.852857 447.128993 
L 61.646429 489.352335 
L 62.842143 512.991809 
L 64.037857 532.112259 
L 65.233571 547.080341 
L 66.429286 558.568278 
L 67.625 567.277617 
L 68.820714 573.829847 
L 70.016429 578.73573 
L 71.212143 582.398392 
L 72.407857 585.128575 
L 73.603571 587.162384 
L 74.799286 588.677598 
L 75.995 589.807313 
L 77.190714 590.650806 
L 78.386429 591.281948 
L 80.18 591.946591 
L 81.973571 592.383006 
L 84.365 592.748141 
L 87.952143 593.047468 
L 93.930714 593.284732 
L 111.268571 593.64955 
L 239.21 595.973755 
L 381.5 598.340486 
L 436.502857 599.198125 
L 436.502857 599.198125 
" clip-path="url(#pd4bd31d203)" style="fill: none; stroke: #9467bd; stroke-width: 2; stroke-linecap: square"/>
   </g>
   <g id="line2d_44">
    <path d="M 57.262143 622.514951 
L 61.247857 622.412129 
M 69.219286 622.29469 
M 77.190714 622.327452 
L 85.162143 622.36475 
L 101.105 622.391968 
L 117.047857 622.417169 
L 148.933571 622.462532 
L 244.590714 622.516967 
L 435.905 622.565858 
L 622.8165 622.588017 
" clip-path="url(#pd4bd31d203)" style="fill: none; stroke-dasharray: 3.7,1.6; stroke-dashoffset: 0; stroke: #9467bd"/>
    <g clip-path="url(#pd4bd31d203)">
     <use xlink:href="#m207d36d25f" x="57.262143" y="622.514951" style="fill: #9467bd; stroke: #000000; stroke-linejoin: miter"/>
     <use xlink:href="#m207d36d25f" x="61.247857" y="622.412129" style="fill: #9467bd; stroke: #000000; stroke-linejoin: miter"/>
     <use xlink:href="#m207d36d25f" x="69.219286" y="622.29469" style="fill: #9467bd; stroke: #000000; stroke-linejoin: miter"/>
     <use xlink:href="#m207d36d25f" x="77.190714" y="622.327452" style="fill: #9467bd; stroke: #000000; stroke-linejoin: miter"/>
     <use xlink:href="#m207d36d25f" x="85.162143" y="622.36475" style="fill: #9467bd; stroke: #000000; stroke-linejoin: miter"/>
     <use xlink:href="#m207d36d25f" x="101.105" y="622.391968" style="fill: #9467bd; stroke: #000000; stroke-linejoin: miter"/>
     <use xlink:href="#m207d36d25f" x="117.047857" y="622.417169" style="fill: #9467bd; stroke: #000000; stroke-linejoin: miter"/>
     <use xlink:href="#m207d36d25f" x="148.933571" y="622.462532" style="fill: #9467bd; stroke: #000000; stroke-linejoin: miter"/>
     <use xlink:href="#m207d36d25f" x="244.590714" y="622.516967" style="fill: #9467bd; stroke: #000000; stroke-linejoin: miter"/>
     <use xlink:href="#m207d36d25f" x="435.905" y="622.565858" style="fill: #9467bd; stroke: #000000; stroke-linejoin: miter"/>
     <use xlink:href="#m207d36d25f" x="627.219286" y="622.588539" style="fill: #9467bd; stroke: #000000; stroke-linejoin: miter"/>
     <use xlink:href="#m207d36d25f" x="818.533571" y="622.602148" style="fill: #9467bd; stroke: #000000; stroke-linejoin: miter"/>
     <use xlink:href="#m207d36d25f" x="1009.847857" y="622.608196" style="fill: #9467bd; stroke: #000000; stroke-linejoin: miter"/>
     <use xlink:href="#m207d36d25f" x="1201.162143" y="622.617269" style="fill: #9467bd; stroke: #000000; stroke-linejoin: miter"/>
    </g>
   </g>
   <g id="line2d_45">
    <path d="M 53.276429 622.643478 
L 53.874286 598.125232 
L 55.07 481.809523 
L 55.667857 441.229929 
L 56.265714 416.594476 
L 56.863571 405.437128 
L 57.461429 404.479235 
L 58.059286 410.619178 
L 58.657143 421.293151 
L 59.852857 448.946161 
L 61.646429 490.977873 
L 62.842143 514.35964 
L 64.037857 533.214217 
L 65.233571 547.944417 
L 66.429286 559.234961 
L 67.625 567.787785 
L 68.820714 574.219578 
L 70.016429 579.034765 
L 71.212143 582.630303 
L 72.407857 585.311606 
L 73.603571 587.310439 
L 74.799286 588.801171 
L 75.995 589.914275 
L 77.190714 590.747031 
L 78.386429 591.371812 
L 80.18 592.032735 
L 82.571429 592.581227 
L 85.560714 592.968784 
L 89.745714 593.253853 
L 98.115714 593.543375 
L 136.378571 594.46602 
L 245.188571 596.902994 
L 358.781429 599.22294 
L 436.502857 600.688835 
L 436.502857 600.688835 
" clip-path="url(#pd4bd31d203)" style="fill: none; stroke: #e377c2; stroke-width: 2; stroke-linecap: square"/>
   </g>
   <g id="line2d_46">
    <path d="M 57.262143 622.491766 
L 61.247857 622.310315 
M 69.219286 622.269489 
M 77.190714 622.21959 
L 85.162143 622.286626 
L 101.105 622.280074 
L 117.047857 622.295698 
L 148.933571 622.368783 
L 244.590714 622.482693 
L 435.905 622.545193 
L 622.8165 622.572769 
" clip-path="url(#pd4bd31d203)" style="fill: none; stroke-dasharray: 3.7,1.6; stroke-dashoffset: 0; stroke: #e377c2"/>
    <g clip-path="url(#pd4bd31d203)">
     <use xlink:href="#m381cbd1277" x="57.262143" y="622.491766" style="fill: #e377c2; stroke: #000000; stroke-linejoin: miter"/>
     <use xlink:href="#m381cbd1277" x="61.247857" y="622.310315" style="fill: #e377c2; stroke: #000000; stroke-linejoin: miter"/>
     <use xlink:href="#m381cbd1277" x="69.219286" y="622.269489" style="fill: #e377c2; stroke: #000000; stroke-linejoin: miter"/>
     <use xlink:href="#m381cbd1277" x="77.190714" y="622.21959" style="fill: #e377c2; stroke: #000000; stroke-linejoin: miter"/>
     <use xlink:href="#m381cbd1277" x="85.162143" y="622.286626" style="fill: #e377c2; stroke: #000000; stroke-linejoin: miter"/>
     <use xlink:href="#m381cbd1277" x="101.105" y="622.280074" style="fill: #e377c2; stroke: #000000; stroke-linejoin: miter"/>
     <use xlink:href="#m381cbd1277" x="117.047857" y="622.295698" style="fill: #e377c2; stroke: #000000; stroke-linejoin: miter"/>
     <use xlink:href="#m381cbd1277" x="148.933571" y="622.368783" style="fill: #e377c2; stroke: #000000; stroke-linejoin: miter"/>
     <use xlink:href="#m381cbd1277" x="244.590714" y="622.482693" style="fill: #e377c2; stroke: #000000; stroke-linejoin: miter"/>
     <use xlink:href="#m381cbd1277" x="435.905" y="622.545193" style="fill: #e377c2; stroke: #000000; stroke-linejoin: miter"/>
     <use xlink:href="#m381cbd1277" x="627.219286" y="622.573418" style="fill: #e377c2; stroke: #000000; stroke-linejoin: miter"/>
     <use xlink:href="#m381cbd1277" x="818.533571" y="622.592067" style="fill: #e377c2; stroke: #000000; stroke-linejoin: miter"/>
     <use xlink:href="#m381cbd1277" x="1009.847857" y="622.607692" style="fill: #e377c2; stroke: #000000; stroke-linejoin: miter"/>
     <use xlink:href="#m381cbd1277" x="1201.162143" y="622.614245" style="fill: #e377c2; stroke: #000000; stroke-linejoin: miter"/>
    </g>
   </g>
   <g id="patch_9">
    <path d="M 45.305 633.6 
L 45.305 392.556522 
" style="fill: none; stroke: #000000; stroke-width: 0.8; stroke-linejoin: miter; stroke-linecap: square"/>
   </g>
   <g id="patch_10">
    <path d="M 435.905 633.6 
L 435.905 392.556522 
" style="fill: none; stroke: #000000; stroke-width: 0.8; stroke-linejoin: miter; stroke-linecap: square"/>
   </g>
   <g id="patch_11">
    <path d="M 45.305 633.6 
L 435.905 633.6 
" style="fill: none; stroke: #000000; stroke-width: 0.8; stroke-linejoin: miter; stroke-linecap: square"/>
   </g>
   <g id="patch_12">
    <path d="M 45.305 392.556522 
L 435.905 392.556522 
" style="fill: none; stroke: #000000; stroke-width: 0.8; stroke-linejoin: miter; stroke-linecap: square"/>
   </g>
   <g id="legend_2">
    <g id="patch_13">
     <path d="M 458.529 490.294022 
L 612.6165 490.294022 
Q 614.6165 490.294022 614.6165 488.294022 
L 614.6165 399.556522 
Q 614.6165 397.556522 612.6165 397.556522 
L 458.529 397.556522 
Q 456.529 397.556522 456.529 399.556522 
L 456.529 488.294022 
Q 456.529 490.294022 458.529 490.294022 
z
" style="fill: #ffffff; opacity: 0.8; stroke: #cccccc; stroke-linejoin: miter"/>
    </g>
    <g id="line2d_47">
     <path d="M 460.529 405.654959 
L 480.529 405.654959 
" style="fill: none; stroke: #d62728; stroke-width: 2; stroke-linecap: square"/>
    </g>
    <g id="line2d_48"/>
    <g id="text_33">
     <!-- CYP3A5_1_1 -->
     <g transform="translate(488.529 409.154959) scale(0.1 -0.1)">
      <use xlink:href="#DejaVuSans-43"/>
      <use xlink:href="#DejaVuSans-59" transform="translate(68.074219 0)"/>
      <use xlink:href="#DejaVuSans-50" transform="translate(129.158203 0)"/>
      <use xlink:href="#DejaVuSans-33" transform="translate(189.460938 0)"/>
      <use xlink:href="#DejaVuSans-41" transform="translate(253.083984 0)"/>
      <use xlink:href="#DejaVuSans-35" transform="translate(321.492188 0)"/>
      <use xlink:href="#DejaVuSans-5f" transform="translate(385.115234 0)"/>
      <use xlink:href="#DejaVuSans-31" transform="translate(435.115234 0)"/>
      <use xlink:href="#DejaVuSans-5f" transform="translate(498.738281 0)"/>
      <use xlink:href="#DejaVuSans-31" transform="translate(548.738281 0)"/>
     </g>
    </g>
    <g id="LineCollection_10">
     <path d="M 470.529 425.611209 
L 470.529 415.611209 
" style="fill: none; stroke: #d62728"/>
    </g>
    <g id="line2d_49">
     <path d="M 460.529 420.611209 
L 480.529 420.611209 
" style="fill: none; stroke-dasharray: 3.7,1.6; stroke-dashoffset: 0; stroke: #d62728"/>
    </g>
    <g id="line2d_50">
     <g>
      <use xlink:href="#mb1a4913022" x="470.529" y="420.611209" style="fill: #d62728; stroke: #000000; stroke-linejoin: miter"/>
     </g>
    </g>
    <g id="text_34">
     <!-- CYP3A5_1_1±SD (n=2) -->
     <g transform="translate(488.529 424.111209) scale(0.1 -0.1)">
      <use xlink:href="#DejaVuSans-43"/>
      <use xlink:href="#DejaVuSans-59" transform="translate(68.074219 0)"/>
      <use xlink:href="#DejaVuSans-50" transform="translate(129.158203 0)"/>
      <use xlink:href="#DejaVuSans-33" transform="translate(189.460938 0)"/>
      <use xlink:href="#DejaVuSans-41" transform="translate(253.083984 0)"/>
      <use xlink:href="#DejaVuSans-35" transform="translate(321.492188 0)"/>
      <use xlink:href="#DejaVuSans-5f" transform="translate(385.115234 0)"/>
      <use xlink:href="#DejaVuSans-31" transform="translate(435.115234 0)"/>
      <use xlink:href="#DejaVuSans-5f" transform="translate(498.738281 0)"/>
      <use xlink:href="#DejaVuSans-31" transform="translate(548.738281 0)"/>
      <use xlink:href="#DejaVuSans-b1" transform="translate(612.361328 0)"/>
      <use xlink:href="#DejaVuSans-53" transform="translate(696.150391 0)"/>
      <use xlink:href="#DejaVuSans-44" transform="translate(759.626953 0)"/>
      <use xlink:href="#DejaVuSans-20" transform="translate(836.628906 0)"/>
      <use xlink:href="#DejaVuSans-28" transform="translate(868.416016 0)"/>
      <use xlink:href="#DejaVuSans-6e" transform="translate(907.429688 0)"/>
      <use xlink:href="#DejaVuSans-3d" transform="translate(970.808594 0)"/>
      <use xlink:href="#DejaVuSans-32" transform="translate(1054.597656 0)"/>
      <use xlink:href="#DejaVuSans-29" transform="translate(1118.220703 0)"/>
     </g>
    </g>
    <g id="line2d_51">
     <path d="M 460.529 435.567459 
L 480.529 435.567459 
" style="fill: none; stroke: #9467bd; stroke-width: 2; stroke-linecap: square"/>
    </g>
    <g id="line2d_52"/>
    <g id="text_35">
     <!-- CYP3A5_1_3 -->
     <g transform="translate(488.529 439.067459) scale(0.1 -0.1)">
      <use xlink:href="#DejaVuSans-43"/>
      <use xlink:href="#DejaVuSans-59" transform="translate(68.074219 0)"/>
      <use xlink:href="#DejaVuSans-50" transform="translate(129.158203 0)"/>
      <use xlink:href="#DejaVuSans-33" transform="translate(189.460938 0)"/>
      <use xlink:href="#DejaVuSans-41" transform="translate(253.083984 0)"/>
      <use xlink:href="#DejaVuSans-35" transform="translate(321.492188 0)"/>
      <use xlink:href="#DejaVuSans-5f" transform="translate(385.115234 0)"/>
      <use xlink:href="#DejaVuSans-31" transform="translate(435.115234 0)"/>
      <use xlink:href="#DejaVuSans-5f" transform="translate(498.738281 0)"/>
      <use xlink:href="#DejaVuSans-33" transform="translate(548.738281 0)"/>
     </g>
    </g>
    <g id="LineCollection_11">
     <path d="M 470.529 455.523709 
L 470.529 445.523709 
" style="fill: none; stroke: #9467bd"/>
    </g>
    <g id="line2d_53">
     <path d="M 460.529 450.523709 
L 480.529 450.523709 
" style="fill: none; stroke-dasharray: 3.7,1.6; stroke-dashoffset: 0; stroke: #9467bd"/>
    </g>
    <g id="line2d_54">
     <g>
      <use xlink:href="#m207d36d25f" x="470.529" y="450.523709" style="fill: #9467bd; stroke: #000000; stroke-linejoin: miter"/>
     </g>
    </g>
    <g id="text_36">
     <!-- CYP3A5_1_3±SD (n=14) -->
     <g transform="translate(488.529 454.023709) scale(0.1 -0.1)">
      <use xlink:href="#DejaVuSans-43"/>
      <use xlink:href="#DejaVuSans-59" transform="translate(68.074219 0)"/>
      <use xlink:href="#DejaVuSans-50" transform="translate(129.158203 0)"/>
      <use xlink:href="#DejaVuSans-33" transform="translate(189.460938 0)"/>
      <use xlink:href="#DejaVuSans-41" transform="translate(253.083984 0)"/>
      <use xlink:href="#DejaVuSans-35" transform="translate(321.492188 0)"/>
      <use xlink:href="#DejaVuSans-5f" transform="translate(385.115234 0)"/>
      <use xlink:href="#DejaVuSans-31" transform="translate(435.115234 0)"/>
      <use xlink:href="#DejaVuSans-5f" transform="translate(498.738281 0)"/>
      <use xlink:href="#DejaVuSans-33" transform="translate(548.738281 0)"/>
      <use xlink:href="#DejaVuSans-b1" transform="translate(612.361328 0)"/>
      <use xlink:href="#DejaVuSans-53" transform="translate(696.150391 0)"/>
      <use xlink:href="#DejaVuSans-44" transform="translate(759.626953 0)"/>
      <use xlink:href="#DejaVuSans-20" transform="translate(836.628906 0)"/>
      <use xlink:href="#DejaVuSans-28" transform="translate(868.416016 0)"/>
      <use xlink:href="#DejaVuSans-6e" transform="translate(907.429688 0)"/>
      <use xlink:href="#DejaVuSans-3d" transform="translate(970.808594 0)"/>
      <use xlink:href="#DejaVuSans-31" transform="translate(1054.597656 0)"/>
      <use xlink:href="#DejaVuSans-34" transform="translate(1118.220703 0)"/>
      <use xlink:href="#DejaVuSans-29" transform="translate(1181.84375 0)"/>
     </g>
    </g>
    <g id="line2d_55">
     <path d="M 460.529 465.479959 
L 480.529 465.479959 
" style="fill: none; stroke: #e377c2; stroke-width: 2; stroke-linecap: square"/>
    </g>
    <g id="line2d_56"/>
    <g id="text_37">
     <!-- CYP3A5_3_3 -->
     <g transform="translate(488.529 468.979959) scale(0.1 -0.1)">
      <use xlink:href="#DejaVuSans-43"/>
      <use xlink:href="#DejaVuSans-59" transform="translate(68.074219 0)"/>
      <use xlink:href="#DejaVuSans-50" transform="translate(129.158203 0)"/>
      <use xlink:href="#DejaVuSans-33" transform="translate(189.460938 0)"/>
      <use xlink:href="#DejaVuSans-41" transform="translate(253.083984 0)"/>
      <use xlink:href="#DejaVuSans-35" transform="translate(321.492188 0)"/>
      <use xlink:href="#DejaVuSans-5f" transform="translate(385.115234 0)"/>
      <use xlink:href="#DejaVuSans-33" transform="translate(435.115234 0)"/>
      <use xlink:href="#DejaVuSans-5f" transform="translate(498.738281 0)"/>
      <use xlink:href="#DejaVuSans-33" transform="translate(548.738281 0)"/>
     </g>
    </g>
    <g id="LineCollection_12">
     <path d="M 470.529 485.436209 
L 470.529 475.436209 
" style="fill: none; stroke: #e377c2"/>
    </g>
    <g id="line2d_57">
     <path d="M 460.529 480.436209 
L 480.529 480.436209 
" style="fill: none; stroke-dasharray: 3.7,1.6; stroke-dashoffset: 0; stroke: #e377c2"/>
    </g>
    <g id="line2d_58">
     <g>
      <use xlink:href="#m381cbd1277" x="470.529" y="480.436209" style="fill: #e377c2; stroke: #000000; stroke-linejoin: miter"/>
     </g>
    </g>
    <g id="text_38">
     <!-- CYP3A5_3_3±SD (n=15) -->
     <g transform="translate(488.529 483.936209) scale(0.1 -0.1)">
      <use xlink:href="#DejaVuSans-43"/>
      <use xlink:href="#DejaVuSans-59" transform="translate(68.074219 0)"/>
      <use xlink:href="#DejaVuSans-50" transform="translate(129.158203 0)"/>
      <use xlink:href="#DejaVuSans-33" transform="translate(189.460938 0)"/>
      <use xlink:href="#DejaVuSans-41" transform="translate(253.083984 0)"/>
      <use xlink:href="#DejaVuSans-35" transform="translate(321.492188 0)"/>
      <use xlink:href="#DejaVuSans-5f" transform="translate(385.115234 0)"/>
      <use xlink:href="#DejaVuSans-33" transform="translate(435.115234 0)"/>
      <use xlink:href="#DejaVuSans-5f" transform="translate(498.738281 0)"/>
      <use xlink:href="#DejaVuSans-33" transform="translate(548.738281 0)"/>
      <use xlink:href="#DejaVuSans-b1" transform="translate(612.361328 0)"/>
      <use xlink:href="#DejaVuSans-53" transform="translate(696.150391 0)"/>
      <use xlink:href="#DejaVuSans-44" transform="translate(759.626953 0)"/>
      <use xlink:href="#DejaVuSans-20" transform="translate(836.628906 0)"/>
      <use xlink:href="#DejaVuSans-28" transform="translate(868.416016 0)"/>
      <use xlink:href="#DejaVuSans-6e" transform="translate(907.429688 0)"/>
      <use xlink:href="#DejaVuSans-3d" transform="translate(970.808594 0)"/>
      <use xlink:href="#DejaVuSans-31" transform="translate(1054.597656 0)"/>
      <use xlink:href="#DejaVuSans-35" transform="translate(1118.220703 0)"/>
      <use xlink:href="#DejaVuSans-29" transform="translate(1181.84375 0)"/>
     </g>
    </g>
   </g>
  </g>
  <g id="text_39">
   <!-- Zhang2017 (CYP3A5, healthy) -->
   <g transform="translate(22.820625 26.196094) scale(0.25 -0.25)">
    <defs>
     <path id="DejaVuSans-Bold-5a" d="M 359 4666 
L 4281 4666 
L 4281 3938 
L 1778 909 
L 4353 909 
L 4353 0 
L 288 0 
L 288 728 
L 2791 3756 
L 359 3756 
L 359 4666 
z
" transform="scale(0.015625)"/>
     <path id="DejaVuSans-Bold-67" d="M 2919 594 
Q 2688 288 2409 144 
Q 2131 0 1766 0 
Q 1125 0 706 504 
Q 288 1009 288 1791 
Q 288 2575 706 3076 
Q 1125 3578 1766 3578 
Q 2131 3578 2409 3434 
Q 2688 3291 2919 2981 
L 2919 3500 
L 4044 3500 
L 4044 353 
Q 4044 -491 3511 -936 
Q 2978 -1381 1966 -1381 
Q 1638 -1381 1331 -1331 
Q 1025 -1281 716 -1178 
L 716 -306 
Q 1009 -475 1290 -558 
Q 1572 -641 1856 -641 
Q 2406 -641 2662 -400 
Q 2919 -159 2919 353 
L 2919 594 
z
M 2181 2772 
Q 1834 2772 1640 2515 
Q 1447 2259 1447 1791 
Q 1447 1309 1634 1061 
Q 1822 813 2181 813 
Q 2531 813 2725 1069 
Q 2919 1325 2919 1791 
Q 2919 2259 2725 2515 
Q 2531 2772 2181 2772 
z
" transform="scale(0.015625)"/>
     <path id="DejaVuSans-Bold-32" d="M 1844 884 
L 3897 884 
L 3897 0 
L 506 0 
L 506 884 
L 2209 2388 
Q 2438 2594 2547 2791 
Q 2656 2988 2656 3200 
Q 2656 3528 2436 3728 
Q 2216 3928 1850 3928 
Q 1569 3928 1234 3808 
Q 900 3688 519 3450 
L 519 4475 
Q 925 4609 1322 4679 
Q 1719 4750 2100 4750 
Q 2938 4750 3402 4381 
Q 3866 4013 3866 3353 
Q 3866 2972 3669 2642 
Q 3472 2313 2841 1759 
L 1844 884 
z
" transform="scale(0.015625)"/>
     <path id="DejaVuSans-Bold-30" d="M 2944 2338 
Q 2944 3213 2780 3570 
Q 2616 3928 2228 3928 
Q 1841 3928 1675 3570 
Q 1509 3213 1509 2338 
Q 1509 1453 1675 1090 
Q 1841 728 2228 728 
Q 2613 728 2778 1090 
Q 2944 1453 2944 2338 
z
M 4147 2328 
Q 4147 1169 3647 539 
Q 3147 -91 2228 -91 
Q 1306 -91 806 539 
Q 306 1169 306 2328 
Q 306 3491 806 4120 
Q 1306 4750 2228 4750 
Q 3147 4750 3647 4120 
Q 4147 3491 4147 2328 
z
" transform="scale(0.015625)"/>
     <path id="DejaVuSans-Bold-31" d="M 750 831 
L 1813 831 
L 1813 3847 
L 722 3622 
L 722 4441 
L 1806 4666 
L 2950 4666 
L 2950 831 
L 4013 831 
L 4013 0 
L 750 0 
L 750 831 
z
" transform="scale(0.015625)"/>
     <path id="DejaVuSans-Bold-37" d="M 428 4666 
L 3944 4666 
L 3944 3988 
L 2125 0 
L 953 0 
L 2675 3781 
L 428 3781 
L 428 4666 
z
" transform="scale(0.015625)"/>
     <path id="DejaVuSans-Bold-28" d="M 2413 -844 
L 1484 -844 
Q 1006 -72 778 623 
Q 550 1319 550 2003 
Q 550 2688 779 3389 
Q 1009 4091 1484 4856 
L 2413 4856 
Q 2013 4116 1813 3408 
Q 1613 2700 1613 2009 
Q 1613 1319 1811 609 
Q 2009 -100 2413 -844 
z
" transform="scale(0.015625)"/>
     <path id="DejaVuSans-Bold-43" d="M 4288 256 
Q 3956 84 3597 -3 
Q 3238 -91 2847 -91 
Q 1681 -91 1000 561 
Q 319 1213 319 2328 
Q 319 3447 1000 4098 
Q 1681 4750 2847 4750 
Q 3238 4750 3597 4662 
Q 3956 4575 4288 4403 
L 4288 3438 
Q 3953 3666 3628 3772 
Q 3303 3878 2944 3878 
Q 2300 3878 1931 3465 
Q 1563 3053 1563 2328 
Q 1563 1606 1931 1193 
Q 2300 781 2944 781 
Q 3303 781 3628 887 
Q 3953 994 4288 1222 
L 4288 256 
z
" transform="scale(0.015625)"/>
     <path id="DejaVuSans-Bold-59" d="M -63 4666 
L 1253 4666 
L 2316 3003 
L 3378 4666 
L 4697 4666 
L 2919 1966 
L 2919 0 
L 1716 0 
L 1716 1966 
L -63 4666 
z
" transform="scale(0.015625)"/>
     <path id="DejaVuSans-Bold-50" d="M 588 4666 
L 2584 4666 
Q 3475 4666 3951 4270 
Q 4428 3875 4428 3144 
Q 4428 2409 3951 2014 
Q 3475 1619 2584 1619 
L 1791 1619 
L 1791 0 
L 588 0 
L 588 4666 
z
M 1791 3794 
L 1791 2491 
L 2456 2491 
Q 2806 2491 2997 2661 
Q 3188 2831 3188 3144 
Q 3188 3456 2997 3625 
Q 2806 3794 2456 3794 
L 1791 3794 
z
" transform="scale(0.015625)"/>
     <path id="DejaVuSans-Bold-33" d="M 2981 2516 
Q 3453 2394 3698 2092 
Q 3944 1791 3944 1325 
Q 3944 631 3412 270 
Q 2881 -91 1863 -91 
Q 1503 -91 1142 -33 
Q 781 25 428 141 
L 428 1069 
Q 766 900 1098 814 
Q 1431 728 1753 728 
Q 2231 728 2486 893 
Q 2741 1059 2741 1369 
Q 2741 1688 2480 1852 
Q 2219 2016 1709 2016 
L 1228 2016 
L 1228 2791 
L 1734 2791 
Q 2188 2791 2409 2933 
Q 2631 3075 2631 3366 
Q 2631 3634 2415 3781 
Q 2200 3928 1806 3928 
Q 1516 3928 1219 3862 
Q 922 3797 628 3669 
L 628 4550 
Q 984 4650 1334 4700 
Q 1684 4750 2022 4750 
Q 2931 4750 3382 4451 
Q 3834 4153 3834 3553 
Q 3834 3144 3618 2883 
Q 3403 2622 2981 2516 
z
" transform="scale(0.015625)"/>
     <path id="DejaVuSans-Bold-41" d="M 3419 850 
L 1538 850 
L 1241 0 
L 31 0 
L 1759 4666 
L 3194 4666 
L 4922 0 
L 3713 0 
L 3419 850 
z
M 1838 1716 
L 3116 1716 
L 2478 3572 
L 1838 1716 
z
" transform="scale(0.015625)"/>
     <path id="DejaVuSans-Bold-35" d="M 678 4666 
L 3669 4666 
L 3669 3781 
L 1638 3781 
L 1638 3059 
Q 1775 3097 1914 3117 
Q 2053 3138 2203 3138 
Q 3056 3138 3531 2711 
Q 4006 2284 4006 1522 
Q 4006 766 3489 337 
Q 2972 -91 2053 -91 
Q 1656 -91 1267 -14 
Q 878 63 494 219 
L 494 1166 
Q 875 947 1217 837 
Q 1559 728 1863 728 
Q 2300 728 2551 942 
Q 2803 1156 2803 1522 
Q 2803 1891 2551 2103 
Q 2300 2316 1863 2316 
Q 1603 2316 1309 2248 
Q 1016 2181 678 2041 
L 678 4666 
z
" transform="scale(0.015625)"/>
     <path id="DejaVuSans-Bold-2c" d="M 653 1209 
L 1778 1209 
L 1778 256 
L 1006 -909 
L 341 -909 
L 653 256 
L 653 1209 
z
" transform="scale(0.015625)"/>
     <path id="DejaVuSans-Bold-6c" d="M 538 4863 
L 1656 4863 
L 1656 0 
L 538 0 
L 538 4863 
z
" transform="scale(0.015625)"/>
     <path id="DejaVuSans-Bold-29" d="M 513 -844 
Q 913 -100 1113 609 
Q 1313 1319 1313 2009 
Q 1313 2700 1113 3408 
Q 913 4116 513 4856 
L 1441 4856 
Q 1916 4091 2145 3389 
Q 2375 2688 2375 2003 
Q 2375 1319 2147 623 
Q 1919 -72 1441 -844 
L 513 -844 
z
" transform="scale(0.015625)"/>
    </defs>
    <use xlink:href="#DejaVuSans-Bold-5a"/>
    <use xlink:href="#DejaVuSans-Bold-68" transform="translate(72.509766 0)"/>
    <use xlink:href="#DejaVuSans-Bold-61" transform="translate(143.701172 0)"/>
    <use xlink:href="#DejaVuSans-Bold-6e" transform="translate(211.181641 0)"/>
    <use xlink:href="#DejaVuSans-Bold-67" transform="translate(282.373047 0)"/>
    <use xlink:href="#DejaVuSans-Bold-32" transform="translate(353.955078 0)"/>
    <use xlink:href="#DejaVuSans-Bold-30" transform="translate(423.535156 0)"/>
    <use xlink:href="#DejaVuSans-Bold-31" transform="translate(493.115234 0)"/>
    <use xlink:href="#DejaVuSans-Bold-37" transform="translate(562.695312 0)"/>
    <use xlink:href="#DejaVuSans-Bold-20" transform="translate(632.275391 0)"/>
    <use xlink:href="#DejaVuSans-Bold-28" transform="translate(667.089844 0)"/>
    <use xlink:href="#DejaVuSans-Bold-43" transform="translate(712.792969 0)"/>
    <use xlink:href="#DejaVuSans-Bold-59" transform="translate(786.181641 0)"/>
    <use xlink:href="#DejaVuSans-Bold-50" transform="translate(858.59375 0)"/>
    <use xlink:href="#DejaVuSans-Bold-33" transform="translate(931.884766 0)"/>
    <use xlink:href="#DejaVuSans-Bold-41" transform="translate(1001.464844 0)"/>
    <use xlink:href="#DejaVuSans-Bold-35" transform="translate(1078.857422 0)"/>
    <use xlink:href="#DejaVuSans-Bold-2c" transform="translate(1148.4375 0)"/>
    <use xlink:href="#DejaVuSans-Bold-20" transform="translate(1186.425781 0)"/>
    <use xlink:href="#DejaVuSans-Bold-68" transform="translate(1221.240234 0)"/>
    <use xlink:href="#DejaVuSans-Bold-65" transform="translate(1292.431641 0)"/>
    <use xlink:href="#DejaVuSans-Bold-61" transform="translate(1360.253906 0)"/>
    <use xlink:href="#DejaVuSans-Bold-6c" transform="translate(1427.734375 0)"/>
    <use xlink:href="#DejaVuSans-Bold-74" transform="translate(1462.011719 0)"/>
    <use xlink:href="#DejaVuSans-Bold-68" transform="translate(1509.814453 0)"/>
    <use xlink:href="#DejaVuSans-Bold-79" transform="translate(1581.005859 0)"/>
    <use xlink:href="#DejaVuSans-Bold-29" transform="translate(1646.191406 0)"/>
   </g>
  </g>
 </g>
 <defs>
  <clipPath id="pa4f1d3d8b6">
   <rect x="45.305" y="79.2" width="390.6" height="241.043478"/>
  </clipPath>
  <clipPath id="pd4bd31d203">
   <rect x="45.305" y="392.556522" width="390.6" height="241.043478"/>
  </clipPath>
 </defs>
</svg>
