<?xml version="1.0" encoding="utf-8" standalone="no"?>
<!DOCTYPE svg PUBLIC "-//W3C//DTD SVG 1.1//EN"
  "http://www.w3.org/Graphics/SVG/1.1/DTD/svg11.dtd">
<svg xmlns:xlink="http://www.w3.org/1999/xlink" width="630.950875pt" height="683.737812pt" viewBox="0 0 630.950875 683.737812" xmlns="http://www.w3.org/2000/svg" version="1.1">
 <metadata>
  <rdf:RDF xmlns:dc="http://purl.org/dc/elements/1.1/" xmlns:cc="http://creativecommons.org/ns#" xmlns:rdf="http://www.w3.org/1999/02/22-rdf-syntax-ns#">
   <cc:Work>
    <dc:type rdf:resource="http://purl.org/dc/dcmitype/StillImage"/>
    <dc:date>2025-09-10T11:20:00.257229</dc:date>
    <dc:format>image/svg+xml</dc:format>
    <dc:creator>
     <cc:Agent>
      <dc:title>Matplotlib v3.10.6, https://matplotlib.org/</dc:title>
     </cc:Agent>
    </dc:creator>
   </cc:Work>
  </rdf:RDF>
 </metadata>
 <defs>
  <style type="text/css">*{stroke-linejoin: round; stroke-linecap: butt}</style>
 </defs>
 <g id="figure_1">
  <g id="patch_1">
   <path d="M 0 683.737812 
L 630.950875 683.737812 
L 630.950875 0 
L 0 0 
z
" style="fill: #ffffff"/>
  </g>
  <g id="axes_1">
   <g id="patch_2">
    <path d="M 45.305 320.243478 
L 435.905 320.243478 
L 435.905 79.2 
L 45.305 79.2 
z
" style="fill: #ffffff"/>
   </g>
   <g id="matplotlib.axis_1">
    <g id="xtick_1">
     <g id="line2d_1">
      <defs>
       <path id="maff499dc5d" d="M 0 0 
L 0 3.5 
" style="stroke: #000000; stroke-width: 0.8"/>
      </defs>
      <g>
       <use xlink:href="#maff499dc5d" x="63.059545" y="320.243478" style="stroke: #000000; stroke-width: 0.8"/>
      </g>
     </g>
     <g id="text_1">
      <!-- 0 -->
      <g transform="translate(58.28767 338.641135) scale(0.15 -0.15)">
       <defs>
        <path id="DejaVuSans-30" d="M 2034 4250 
Q 1547 4250 1301 3770 
Q 1056 3291 1056 2328 
Q 1056 1369 1301 889 
Q 1547 409 2034 409 
Q 2525 409 2770 889 
Q 3016 1369 3016 2328 
Q 3016 3291 2770 3770 
Q 2525 4250 2034 4250 
z
M 2034 4750 
Q 2819 4750 3233 4129 
Q 3647 3509 3647 2328 
Q 3647 1150 3233 529 
Q 2819 -91 2034 -91 
Q 1250 -91 836 529 
Q 422 1150 422 2328 
Q 422 3509 836 4129 
Q 1250 4750 2034 4750 
z
" transform="scale(0.015625)"/>
       </defs>
       <use xlink:href="#DejaVuSans-30"/>
      </g>
     </g>
    </g>
    <g id="xtick_2">
     <g id="line2d_2">
      <g>
       <use xlink:href="#maff499dc5d" x="122.241364" y="320.243478" style="stroke: #000000; stroke-width: 0.8"/>
      </g>
     </g>
     <g id="text_2">
      <!-- 25 -->
      <g transform="translate(112.697614 338.641135) scale(0.15 -0.15)">
       <defs>
        <path id="DejaVuSans-32" d="M 1228 531 
L 3431 531 
L 3431 0 
L 469 0 
L 469 531 
Q 828 903 1448 1529 
Q 2069 2156 2228 2338 
Q 2531 2678 2651 2914 
Q 2772 3150 2772 3378 
Q 2772 3750 2511 3984 
Q 2250 4219 1831 4219 
Q 1534 4219 1204 4116 
Q 875 4013 500 3803 
L 500 4441 
Q 881 4594 1212 4672 
Q 1544 4750 1819 4750 
Q 2544 4750 2975 4387 
Q 3406 4025 3406 3419 
Q 3406 3131 3298 2873 
Q 3191 2616 2906 2266 
Q 2828 2175 2409 1742 
Q 1991 1309 1228 531 
z
" transform="scale(0.015625)"/>
        <path id="DejaVuSans-35" d="M 691 4666 
L 3169 4666 
L 3169 4134 
L 1269 4134 
L 1269 2991 
Q 1406 3038 1543 3061 
Q 1681 3084 1819 3084 
Q 2600 3084 3056 2656 
Q 3513 2228 3513 1497 
Q 3513 744 3044 326 
Q 2575 -91 1722 -91 
Q 1428 -91 1123 -41 
Q 819 9 494 109 
L 494 744 
Q 775 591 1075 516 
Q 1375 441 1709 441 
Q 2250 441 2565 725 
Q 2881 1009 2881 1497 
Q 2881 1984 2565 2268 
Q 2250 2553 1709 2553 
Q 1456 2553 1204 2497 
Q 953 2441 691 2322 
L 691 4666 
z
" transform="scale(0.015625)"/>
       </defs>
       <use xlink:href="#DejaVuSans-32"/>
       <use xlink:href="#DejaVuSans-35" transform="translate(63.623047 0)"/>
      </g>
     </g>
    </g>
    <g id="xtick_3">
     <g id="line2d_3">
      <g>
       <use xlink:href="#maff499dc5d" x="181.423182" y="320.243478" style="stroke: #000000; stroke-width: 0.8"/>
      </g>
     </g>
     <g id="text_3">
      <!-- 50 -->
      <g transform="translate(171.879432 338.641135) scale(0.15 -0.15)">
       <use xlink:href="#DejaVuSans-35"/>
       <use xlink:href="#DejaVuSans-30" transform="translate(63.623047 0)"/>
      </g>
     </g>
    </g>
    <g id="xtick_4">
     <g id="line2d_4">
      <g>
       <use xlink:href="#maff499dc5d" x="240.605" y="320.243478" style="stroke: #000000; stroke-width: 0.8"/>
      </g>
     </g>
     <g id="text_4">
      <!-- 75 -->
      <g transform="translate(231.06125 338.641135) scale(0.15 -0.15)">
       <defs>
        <path id="DejaVuSans-37" d="M 525 4666 
L 3525 4666 
L 3525 4397 
L 1831 0 
L 1172 0 
L 2766 4134 
L 525 4134 
L 525 4666 
z
" transform="scale(0.015625)"/>
       </defs>
       <use xlink:href="#DejaVuSans-37"/>
       <use xlink:href="#DejaVuSans-35" transform="translate(63.623047 0)"/>
      </g>
     </g>
    </g>
    <g id="xtick_5">
     <g id="line2d_5">
      <g>
       <use xlink:href="#maff499dc5d" x="299.786818" y="320.243478" style="stroke: #000000; stroke-width: 0.8"/>
      </g>
     </g>
     <g id="text_5">
      <!-- 100 -->
      <g transform="translate(285.471193 338.641135) scale(0.15 -0.15)">
       <defs>
        <path id="DejaVuSans-31" d="M 794 531 
L 1825 531 
L 1825 4091 
L 703 3866 
L 703 4441 
L 1819 4666 
L 2450 4666 
L 2450 531 
L 3481 531 
L 3481 0 
L 794 0 
L 794 531 
z
" transform="scale(0.015625)"/>
       </defs>
       <use xlink:href="#DejaVuSans-31"/>
       <use xlink:href="#DejaVuSans-30" transform="translate(63.623047 0)"/>
       <use xlink:href="#DejaVuSans-30" transform="translate(127.246094 0)"/>
      </g>
     </g>
    </g>
    <g id="xtick_6">
     <g id="line2d_6">
      <g>
       <use xlink:href="#maff499dc5d" x="358.968636" y="320.243478" style="stroke: #000000; stroke-width: 0.8"/>
      </g>
     </g>
     <g id="text_6">
      <!-- 125 -->
      <g transform="translate(344.653011 338.641135) scale(0.15 -0.15)">
       <use xlink:href="#DejaVuSans-31"/>
       <use xlink:href="#DejaVuSans-32" transform="translate(63.623047 0)"/>
       <use xlink:href="#DejaVuSans-35" transform="translate(127.246094 0)"/>
      </g>
     </g>
    </g>
    <g id="xtick_7">
     <g id="line2d_7">
      <g>
       <use xlink:href="#maff499dc5d" x="418.150455" y="320.243478" style="stroke: #000000; stroke-width: 0.8"/>
      </g>
     </g>
     <g id="text_7">
      <!-- 150 -->
      <g transform="translate(403.83483 338.641135) scale(0.15 -0.15)">
       <use xlink:href="#DejaVuSans-31"/>
       <use xlink:href="#DejaVuSans-35" transform="translate(63.623047 0)"/>
       <use xlink:href="#DejaVuSans-30" transform="translate(127.246094 0)"/>
      </g>
     </g>
    </g>
    <g id="text_8">
     <!-- time [hr] -->
     <g transform="translate(195.530469 359.437853) scale(0.18 -0.18)">
      <defs>
       <path id="DejaVuSans-Bold-74" d="M 1759 4494 
L 1759 3500 
L 2913 3500 
L 2913 2700 
L 1759 2700 
L 1759 1216 
Q 1759 972 1856 886 
Q 1953 800 2241 800 
L 2816 800 
L 2816 0 
L 1856 0 
Q 1194 0 917 276 
Q 641 553 641 1216 
L 641 2700 
L 84 2700 
L 84 3500 
L 641 3500 
L 641 4494 
L 1759 4494 
z
" transform="scale(0.015625)"/>
       <path id="DejaVuSans-Bold-69" d="M 538 3500 
L 1656 3500 
L 1656 0 
L 538 0 
L 538 3500 
z
M 538 4863 
L 1656 4863 
L 1656 3950 
L 538 3950 
L 538 4863 
z
" transform="scale(0.015625)"/>
       <path id="DejaVuSans-Bold-6d" d="M 3781 2919 
Q 3994 3244 4286 3414 
Q 4578 3584 4928 3584 
Q 5531 3584 5847 3212 
Q 6163 2841 6163 2131 
L 6163 0 
L 5038 0 
L 5038 1825 
Q 5041 1866 5042 1909 
Q 5044 1953 5044 2034 
Q 5044 2406 4934 2573 
Q 4825 2741 4581 2741 
Q 4263 2741 4089 2478 
Q 3916 2216 3909 1719 
L 3909 0 
L 2784 0 
L 2784 1825 
Q 2784 2406 2684 2573 
Q 2584 2741 2328 2741 
Q 2006 2741 1831 2477 
Q 1656 2213 1656 1722 
L 1656 0 
L 531 0 
L 531 3500 
L 1656 3500 
L 1656 2988 
Q 1863 3284 2130 3434 
Q 2397 3584 2719 3584 
Q 3081 3584 3359 3409 
Q 3638 3234 3781 2919 
z
" transform="scale(0.015625)"/>
       <path id="DejaVuSans-Bold-65" d="M 4031 1759 
L 4031 1441 
L 1416 1441 
Q 1456 1047 1700 850 
Q 1944 653 2381 653 
Q 2734 653 3104 758 
Q 3475 863 3866 1075 
L 3866 213 
Q 3469 63 3072 -14 
Q 2675 -91 2278 -91 
Q 1328 -91 801 392 
Q 275 875 275 1747 
Q 275 2603 792 3093 
Q 1309 3584 2216 3584 
Q 3041 3584 3536 3087 
Q 4031 2591 4031 1759 
z
M 2881 2131 
Q 2881 2450 2695 2645 
Q 2509 2841 2209 2841 
Q 1884 2841 1681 2658 
Q 1478 2475 1428 2131 
L 2881 2131 
z
" transform="scale(0.015625)"/>
       <path id="DejaVuSans-Bold-20" transform="scale(0.015625)"/>
       <path id="DejaVuSans-Bold-5b" d="M 550 4863 
L 2491 4863 
L 2491 4159 
L 1613 4159 
L 1613 -141 
L 2491 -141 
L 2491 -844 
L 550 -844 
L 550 4863 
z
" transform="scale(0.015625)"/>
       <path id="DejaVuSans-Bold-68" d="M 4056 2131 
L 4056 0 
L 2931 0 
L 2931 347 
L 2931 1625 
Q 2931 2084 2911 2256 
Q 2891 2428 2841 2509 
Q 2775 2619 2662 2680 
Q 2550 2741 2406 2741 
Q 2056 2741 1856 2470 
Q 1656 2200 1656 1722 
L 1656 0 
L 538 0 
L 538 4863 
L 1656 4863 
L 1656 2988 
Q 1909 3294 2193 3439 
Q 2478 3584 2822 3584 
Q 3428 3584 3742 3212 
Q 4056 2841 4056 2131 
z
" transform="scale(0.015625)"/>
       <path id="DejaVuSans-Bold-72" d="M 3138 2547 
Q 2991 2616 2845 2648 
Q 2700 2681 2553 2681 
Q 2122 2681 1889 2404 
Q 1656 2128 1656 1613 
L 1656 0 
L 538 0 
L 538 3500 
L 1656 3500 
L 1656 2925 
Q 1872 3269 2151 3426 
Q 2431 3584 2822 3584 
Q 2878 3584 2943 3579 
Q 3009 3575 3134 3559 
L 3138 2547 
z
" transform="scale(0.015625)"/>
       <path id="DejaVuSans-Bold-5d" d="M 2375 -844 
L 434 -844 
L 434 -141 
L 1313 -141 
L 1313 4159 
L 434 4159 
L 434 4863 
L 2375 4863 
L 2375 -844 
z
" transform="scale(0.015625)"/>
      </defs>
      <use xlink:href="#DejaVuSans-Bold-74"/>
      <use xlink:href="#DejaVuSans-Bold-69" transform="translate(47.802734 0)"/>
      <use xlink:href="#DejaVuSans-Bold-6d" transform="translate(82.080078 0)"/>
      <use xlink:href="#DejaVuSans-Bold-65" transform="translate(186.279297 0)"/>
      <use xlink:href="#DejaVuSans-Bold-20" transform="translate(254.101562 0)"/>
      <use xlink:href="#DejaVuSans-Bold-5b" transform="translate(288.916016 0)"/>
      <use xlink:href="#DejaVuSans-Bold-68" transform="translate(334.619141 0)"/>
      <use xlink:href="#DejaVuSans-Bold-72" transform="translate(405.810547 0)"/>
      <use xlink:href="#DejaVuSans-Bold-5d" transform="translate(455.126953 0)"/>
     </g>
    </g>
   </g>
   <g id="matplotlib.axis_2">
    <g id="ytick_1">
     <g id="line2d_8">
      <defs>
       <path id="m9cbdfd17a4" d="M 0 0 
L -3.5 0 
" style="stroke: #000000; stroke-width: 0.8"/>
      </defs>
      <g>
       <use xlink:href="#m9cbdfd17a4" x="45.305" y="309.185369" style="stroke: #000000; stroke-width: 0.8"/>
      </g>
     </g>
     <g id="text_9">
      <!-- 0 -->
      <g transform="translate(28.76125 314.884197) scale(0.15 -0.15)">
       <use xlink:href="#DejaVuSans-30"/>
      </g>
     </g>
    </g>
    <g id="ytick_2">
     <g id="line2d_9">
      <g>
       <use xlink:href="#m9cbdfd17a4" x="45.305" y="260.82579" style="stroke: #000000; stroke-width: 0.8"/>
      </g>
     </g>
     <g id="text_10">
      <!-- 2 -->
      <g transform="translate(28.76125 266.524618) scale(0.15 -0.15)">
       <use xlink:href="#DejaVuSans-32"/>
      </g>
     </g>
    </g>
    <g id="ytick_3">
     <g id="line2d_10">
      <g>
       <use xlink:href="#m9cbdfd17a4" x="45.305" y="212.466211" style="stroke: #000000; stroke-width: 0.8"/>
      </g>
     </g>
     <g id="text_11">
      <!-- 4 -->
      <g transform="translate(28.76125 218.165039) scale(0.15 -0.15)">
       <defs>
        <path id="DejaVuSans-34" d="M 2419 4116 
L 825 1625 
L 2419 1625 
L 2419 4116 
z
M 2253 4666 
L 3047 4666 
L 3047 1625 
L 3713 1625 
L 3713 1100 
L 3047 1100 
L 3047 0 
L 2419 0 
L 2419 1100 
L 313 1100 
L 313 1709 
L 2253 4666 
z
" transform="scale(0.015625)"/>
       </defs>
       <use xlink:href="#DejaVuSans-34"/>
      </g>
     </g>
    </g>
    <g id="ytick_4">
     <g id="line2d_11">
      <g>
       <use xlink:href="#m9cbdfd17a4" x="45.305" y="164.106632" style="stroke: #000000; stroke-width: 0.8"/>
      </g>
     </g>
     <g id="text_12">
      <!-- 6 -->
      <g transform="translate(28.76125 169.80546) scale(0.15 -0.15)">
       <defs>
        <path id="DejaVuSans-36" d="M 2113 2584 
Q 1688 2584 1439 2293 
Q 1191 2003 1191 1497 
Q 1191 994 1439 701 
Q 1688 409 2113 409 
Q 2538 409 2786 701 
Q 3034 994 3034 1497 
Q 3034 2003 2786 2293 
Q 2538 2584 2113 2584 
z
M 3366 4563 
L 3366 3988 
Q 3128 4100 2886 4159 
Q 2644 4219 2406 4219 
Q 1781 4219 1451 3797 
Q 1122 3375 1075 2522 
Q 1259 2794 1537 2939 
Q 1816 3084 2150 3084 
Q 2853 3084 3261 2657 
Q 3669 2231 3669 1497 
Q 3669 778 3244 343 
Q 2819 -91 2113 -91 
Q 1303 -91 875 529 
Q 447 1150 447 2328 
Q 447 3434 972 4092 
Q 1497 4750 2381 4750 
Q 2619 4750 2861 4703 
Q 3103 4656 3366 4563 
z
" transform="scale(0.015625)"/>
       </defs>
       <use xlink:href="#DejaVuSans-36"/>
      </g>
     </g>
    </g>
    <g id="ytick_5">
     <g id="line2d_12">
      <g>
       <use xlink:href="#m9cbdfd17a4" x="45.305" y="115.747053" style="stroke: #000000; stroke-width: 0.8"/>
      </g>
     </g>
     <g id="text_13">
      <!-- 8 -->
      <g transform="translate(28.76125 121.445881) scale(0.15 -0.15)">
       <defs>
        <path id="DejaVuSans-38" d="M 2034 2216 
Q 1584 2216 1326 1975 
Q 1069 1734 1069 1313 
Q 1069 891 1326 650 
Q 1584 409 2034 409 
Q 2484 409 2743 651 
Q 3003 894 3003 1313 
Q 3003 1734 2745 1975 
Q 2488 2216 2034 2216 
z
M 1403 2484 
Q 997 2584 770 2862 
Q 544 3141 544 3541 
Q 544 4100 942 4425 
Q 1341 4750 2034 4750 
Q 2731 4750 3128 4425 
Q 3525 4100 3525 3541 
Q 3525 3141 3298 2862 
Q 3072 2584 2669 2484 
Q 3125 2378 3379 2068 
Q 3634 1759 3634 1313 
Q 3634 634 3220 271 
Q 2806 -91 2034 -91 
Q 1263 -91 848 271 
Q 434 634 434 1313 
Q 434 1759 690 2068 
Q 947 2378 1403 2484 
z
M 1172 3481 
Q 1172 3119 1398 2916 
Q 1625 2713 2034 2713 
Q 2441 2713 2670 2916 
Q 2900 3119 2900 3481 
Q 2900 3844 2670 4047 
Q 2441 4250 2034 4250 
Q 1625 4250 1398 4047 
Q 1172 3844 1172 3481 
z
" transform="scale(0.015625)"/>
       </defs>
       <use xlink:href="#DejaVuSans-38"/>
      </g>
     </g>
    </g>
    <g id="text_14">
     <!-- rapamycin [µM] -->
     <g transform="translate(20.877188 279.759864) rotate(-90) scale(0.18 -0.18)">
      <defs>
       <path id="DejaVuSans-Bold-61" d="M 2106 1575 
Q 1756 1575 1579 1456 
Q 1403 1338 1403 1106 
Q 1403 894 1545 773 
Q 1688 653 1941 653 
Q 2256 653 2472 879 
Q 2688 1106 2688 1447 
L 2688 1575 
L 2106 1575 
z
M 3816 1997 
L 3816 0 
L 2688 0 
L 2688 519 
Q 2463 200 2181 54 
Q 1900 -91 1497 -91 
Q 953 -91 614 226 
Q 275 544 275 1050 
Q 275 1666 698 1953 
Q 1122 2241 2028 2241 
L 2688 2241 
L 2688 2328 
Q 2688 2594 2478 2717 
Q 2269 2841 1825 2841 
Q 1466 2841 1156 2769 
Q 847 2697 581 2553 
L 581 3406 
Q 941 3494 1303 3539 
Q 1666 3584 2028 3584 
Q 2975 3584 3395 3211 
Q 3816 2838 3816 1997 
z
" transform="scale(0.015625)"/>
       <path id="DejaVuSans-Bold-70" d="M 1656 506 
L 1656 -1331 
L 538 -1331 
L 538 3500 
L 1656 3500 
L 1656 2988 
Q 1888 3294 2169 3439 
Q 2450 3584 2816 3584 
Q 3463 3584 3878 3070 
Q 4294 2556 4294 1747 
Q 4294 938 3878 423 
Q 3463 -91 2816 -91 
Q 2450 -91 2169 54 
Q 1888 200 1656 506 
z
M 2400 2772 
Q 2041 2772 1848 2508 
Q 1656 2244 1656 1747 
Q 1656 1250 1848 986 
Q 2041 722 2400 722 
Q 2759 722 2948 984 
Q 3138 1247 3138 1747 
Q 3138 2247 2948 2509 
Q 2759 2772 2400 2772 
z
" transform="scale(0.015625)"/>
       <path id="DejaVuSans-Bold-79" d="M 78 3500 
L 1197 3500 
L 2138 1125 
L 2938 3500 
L 4056 3500 
L 2584 -331 
Q 2363 -916 2067 -1148 
Q 1772 -1381 1288 -1381 
L 641 -1381 
L 641 -647 
L 991 -647 
Q 1275 -647 1404 -556 
Q 1534 -466 1606 -231 
L 1638 -134 
L 78 3500 
z
" transform="scale(0.015625)"/>
       <path id="DejaVuSans-Bold-63" d="M 3366 3391 
L 3366 2478 
Q 3138 2634 2908 2709 
Q 2678 2784 2431 2784 
Q 1963 2784 1702 2511 
Q 1441 2238 1441 1747 
Q 1441 1256 1702 982 
Q 1963 709 2431 709 
Q 2694 709 2930 787 
Q 3166 866 3366 1019 
L 3366 103 
Q 3103 6 2833 -42 
Q 2563 -91 2291 -91 
Q 1344 -91 809 395 
Q 275 881 275 1747 
Q 275 2613 809 3098 
Q 1344 3584 2291 3584 
Q 2566 3584 2833 3536 
Q 3100 3488 3366 3391 
z
" transform="scale(0.015625)"/>
       <path id="DejaVuSans-Bold-6e" d="M 4056 2131 
L 4056 0 
L 2931 0 
L 2931 347 
L 2931 1631 
Q 2931 2084 2911 2256 
Q 2891 2428 2841 2509 
Q 2775 2619 2662 2680 
Q 2550 2741 2406 2741 
Q 2056 2741 1856 2470 
Q 1656 2200 1656 1722 
L 1656 0 
L 538 0 
L 538 3500 
L 1656 3500 
L 1656 2988 
Q 1909 3294 2193 3439 
Q 2478 3584 2822 3584 
Q 3428 3584 3742 3212 
Q 4056 2841 4056 2131 
z
" transform="scale(0.015625)"/>
       <path id="DejaVuSans-Bold-b5" d="M 544 -1338 
L 544 3500 
L 1672 3500 
L 1672 1466 
Q 1672 1103 1828 926 
Q 1984 750 2303 750 
Q 2625 750 2781 926 
Q 2938 1103 2938 1466 
L 2938 3500 
L 4063 3500 
L 4063 1159 
Q 4063 938 4114 850 
Q 4166 763 4288 763 
Q 4344 763 4395 778 
Q 4447 794 4506 831 
L 4506 50 
Q 4341 -22 4195 -56 
Q 4050 -91 3909 -91 
Q 3631 -91 3454 26 
Q 3278 144 3169 403 
Q 3022 156 2811 32 
Q 2600 -91 2322 -91 
Q 2091 -91 1928 -17 
Q 1766 56 1672 206 
L 1672 -1338 
L 544 -1338 
z
" transform="scale(0.015625)"/>
       <path id="DejaVuSans-Bold-4d" d="M 588 4666 
L 2119 4666 
L 3181 2169 
L 4250 4666 
L 5778 4666 
L 5778 0 
L 4641 0 
L 4641 3413 
L 3566 897 
L 2803 897 
L 1728 3413 
L 1728 0 
L 588 0 
L 588 4666 
z
" transform="scale(0.015625)"/>
      </defs>
      <use xlink:href="#DejaVuSans-Bold-72"/>
      <use xlink:href="#DejaVuSans-Bold-61" transform="translate(49.316406 0)"/>
      <use xlink:href="#DejaVuSans-Bold-70" transform="translate(116.796875 0)"/>
      <use xlink:href="#DejaVuSans-Bold-61" transform="translate(188.378906 0)"/>
      <use xlink:href="#DejaVuSans-Bold-6d" transform="translate(255.859375 0)"/>
      <use xlink:href="#DejaVuSans-Bold-79" transform="translate(360.058594 0)"/>
      <use xlink:href="#DejaVuSans-Bold-63" transform="translate(425.244141 0)"/>
      <use xlink:href="#DejaVuSans-Bold-69" transform="translate(484.521484 0)"/>
      <use xlink:href="#DejaVuSans-Bold-6e" transform="translate(518.798828 0)"/>
      <use xlink:href="#DejaVuSans-Bold-20" transform="translate(589.990234 0)"/>
      <use xlink:href="#DejaVuSans-Bold-5b" transform="translate(624.804688 0)"/>
      <use xlink:href="#DejaVuSans-Bold-b5" transform="translate(670.507812 0)"/>
      <use xlink:href="#DejaVuSans-Bold-4d" transform="translate(744.091797 0)"/>
      <use xlink:href="#DejaVuSans-Bold-5d" transform="translate(843.603516 0)"/>
     </g>
    </g>
   </g>
   <g id="LineCollection_1">
    <path clip-path="url(#pda925dd996)" style="fill: none; stroke: #1f77b4"/>
    <path d="M 64.243182 309.152306 
L 64.243182 308.90209 
" clip-path="url(#pda925dd996)" style="fill: none; stroke: #1f77b4"/>
    <path d="M 65.426818 309.108095 
L 65.426818 308.618282 
" clip-path="url(#pda925dd996)" style="fill: none; stroke: #1f77b4"/>
    <path clip-path="url(#pda925dd996)" style="fill: none; stroke: #1f77b4"/>
    <path d="M 67.794091 308.913913 
L 67.794091 308.685605 
" clip-path="url(#pda925dd996)" style="fill: none; stroke: #1f77b4"/>
    <path clip-path="url(#pda925dd996)" style="fill: none; stroke: #1f77b4"/>
    <path d="M 70.161364 308.864846 
L 70.161364 308.685605 
" clip-path="url(#pda925dd996)" style="fill: none; stroke: #1f77b4"/>
    <path d="M 72.528636 308.959551 
L 72.528636 308.721096 
" clip-path="url(#pda925dd996)" style="fill: none; stroke: #1f77b4"/>
    <path d="M 77.263182 308.961195 
L 77.263182 308.721096 
" clip-path="url(#pda925dd996)" style="fill: none; stroke: #1f77b4"/>
    <path d="M 81.997727 309.009397 
L 81.997727 308.711747 
" clip-path="url(#pda925dd996)" style="fill: none; stroke: #1f77b4"/>
    <path d="M 91.466818 309.035561 
L 91.466818 308.817399 
" clip-path="url(#pda925dd996)" style="fill: none; stroke: #1f77b4"/>
    <path d="M 119.874091 309.086999 
L 119.874091 308.966925 
" clip-path="url(#pda925dd996)" style="fill: none; stroke: #1f77b4"/>
    <path d="M 176.688636 309.121385 
L 176.688636 309.057121 
" clip-path="url(#pda925dd996)" style="fill: none; stroke: #1f77b4"/>
    <path d="M 233.503182 309.132943 
L 233.503182 309.09912 
" clip-path="url(#pda925dd996)" style="fill: none; stroke: #1f77b4"/>
    <path d="M 290.317727 309.143654 
L 290.317727 309.121668 
" clip-path="url(#pda925dd996)" style="fill: none; stroke: #1f77b4"/>
    <path d="M 347.132273 309.160283 
L 347.132273 309.134916 
" clip-path="url(#pda925dd996)" style="fill: none; stroke: #1f77b4"/>
    <path d="M 403.946818 309.162538 
L 403.946818 309.142244 
" clip-path="url(#pda925dd996)" style="fill: none; stroke: #1f77b4"/>
   </g>
   <g id="LineCollection_2">
    <path clip-path="url(#pda925dd996)" style="fill: none; stroke: #ff7f0e"/>
    <path clip-path="url(#pda925dd996)" style="fill: none; stroke: #ff7f0e"/>
    <path d="M 65.426818 309.252897 
L 65.426818 308.686897 
" clip-path="url(#pda925dd996)" style="fill: none; stroke: #ff7f0e"/>
    <path clip-path="url(#pda925dd996)" style="fill: none; stroke: #ff7f0e"/>
    <path d="M 67.794091 309.286957 
L 67.794091 308.451989 
" clip-path="url(#pda925dd996)" style="fill: none; stroke: #ff7f0e"/>
    <path clip-path="url(#pda925dd996)" style="fill: none; stroke: #ff7f0e"/>
    <path d="M 70.161364 309.261117 
L 70.161364 308.502463 
" clip-path="url(#pda925dd996)" style="fill: none; stroke: #ff7f0e"/>
    <path d="M 72.528636 309.2435 
L 72.528636 308.57878 
" clip-path="url(#pda925dd996)" style="fill: none; stroke: #ff7f0e"/>
    <path d="M 77.263182 309.247026 
L 77.263182 308.625707 
" clip-path="url(#pda925dd996)" style="fill: none; stroke: #ff7f0e"/>
    <path d="M 81.997727 309.247611 
L 81.997727 308.657959 
" clip-path="url(#pda925dd996)" style="fill: none; stroke: #ff7f0e"/>
    <path d="M 91.466818 309.239392 
L 91.466818 308.772958 
" clip-path="url(#pda925dd996)" style="fill: none; stroke: #ff7f0e"/>
    <path d="M 119.874091 309.214802 
L 119.874091 308.913533 
" clip-path="url(#pda925dd996)" style="fill: none; stroke: #ff7f0e"/>
    <path d="M 176.688636 309.202188 
L 176.688636 309.025409 
" clip-path="url(#pda925dd996)" style="fill: none; stroke: #ff7f0e"/>
    <path clip-path="url(#pda925dd996)" style="fill: none; stroke: #ff7f0e"/>
    <path clip-path="url(#pda925dd996)" style="fill: none; stroke: #ff7f0e"/>
    <path clip-path="url(#pda925dd996)" style="fill: none; stroke: #ff7f0e"/>
    <path clip-path="url(#pda925dd996)" style="fill: none; stroke: #ff7f0e"/>
   </g>
   <g id="LineCollection_3">
    <path clip-path="url(#pda925dd996)" style="fill: none; stroke: #2ca02c"/>
    <path d="M 64.243182 309.146951 
L 64.243182 309.044183 
" clip-path="url(#pda925dd996)" style="fill: none; stroke: #2ca02c"/>
    <path d="M 65.426818 309.014814 
L 65.426818 308.994265 
" clip-path="url(#pda925dd996)" style="fill: none; stroke: #2ca02c"/>
    <path clip-path="url(#pda925dd996)" style="fill: none; stroke: #2ca02c"/>
    <path d="M 67.794091 308.983977 
L 67.794091 308.918407 
" clip-path="url(#pda925dd996)" style="fill: none; stroke: #2ca02c"/>
    <path clip-path="url(#pda925dd996)" style="fill: none; stroke: #2ca02c"/>
    <path d="M 70.161364 308.981521 
L 70.161364 308.944329 
" clip-path="url(#pda925dd996)" style="fill: none; stroke: #2ca02c"/>
    <path d="M 72.528636 309.02457 
L 72.528636 308.979551 
" clip-path="url(#pda925dd996)" style="fill: none; stroke: #2ca02c"/>
    <path d="M 77.263182 309.033844 
L 77.263182 308.986867 
" clip-path="url(#pda925dd996)" style="fill: none; stroke: #2ca02c"/>
    <path d="M 81.997727 309.100862 
L 81.997727 309.000057 
" clip-path="url(#pda925dd996)" style="fill: none; stroke: #2ca02c"/>
    <path d="M 91.466818 309.099834 
L 91.466818 309.004903 
" clip-path="url(#pda925dd996)" style="fill: none; stroke: #2ca02c"/>
    <path d="M 119.874091 309.129055 
L 119.874091 309.06544 
" clip-path="url(#pda925dd996)" style="fill: none; stroke: #2ca02c"/>
    <path d="M 176.688636 309.135136 
L 176.688636 309.110667 
" clip-path="url(#pda925dd996)" style="fill: none; stroke: #2ca02c"/>
    <path d="M 233.503182 309.152469 
L 233.503182 309.132895 
" clip-path="url(#pda925dd996)" style="fill: none; stroke: #2ca02c"/>
    <path clip-path="url(#pda925dd996)" style="fill: none; stroke: #2ca02c"/>
    <path clip-path="url(#pda925dd996)" style="fill: none; stroke: #2ca02c"/>
    <path clip-path="url(#pda925dd996)" style="fill: none; stroke: #2ca02c"/>
   </g>
   <g id="line2d_13">
    <path d="M 63.059545 309.185369 
L 63.237091 284.93312 
L 63.769727 127.932233 
L 64.124818 91.420026 
L 64.302364 90.156522 
L 64.479909 96.06423 
L 65.012545 134.112164 
L 65.900273 199.773143 
L 66.432909 226.68426 
L 66.965545 245.037094 
L 67.498182 257.157946 
L 68.030818 265.037508 
L 68.563455 270.121313 
L 69.096091 273.391443 
L 69.628727 275.494626 
L 70.161364 276.850183 
L 70.694 277.727828 
L 71.404182 278.443757 
L 72.114364 278.857782 
L 73.179636 279.192876 
L 74.955091 279.450202 
L 79.571273 279.789894 
L 115.435455 282.020613 
L 157.336182 284.412956 
L 201.189909 286.691909 
L 247.174182 288.857138 
L 295.644091 290.91453 
L 346.777182 292.86001 
L 400.928545 294.695236 
L 418.150455 295.234551 
L 418.150455 295.234551 
" clip-path="url(#pda925dd996)" style="fill: none; stroke: #1f77b4; stroke-width: 2; stroke-linecap: square"/>
   </g>
   <g id="line2d_14">
    <path d="M 64.243182 309.027198 
L 65.426818 308.863188 
M 67.794091 308.799759 
M 70.161364 308.775225 
L 72.528636 308.840324 
L 77.263182 308.841145 
L 81.997727 308.860572 
L 91.466818 308.92648 
L 119.874091 309.026962 
L 176.688636 309.089253 
L 233.503182 309.116032 
L 290.317727 309.132661 
L 347.132273 309.147599 
L 403.946818 309.152391 
" clip-path="url(#pda925dd996)" style="fill: none; stroke-dasharray: 3.7,1.6; stroke-dashoffset: 0; stroke: #1f77b4"/>
    <defs>
     <path id="mf606e37bc1" d="M -3 3 
L 3 3 
L 3 -3 
L -3 -3 
z
" style="stroke: #000000; stroke-linejoin: miter"/>
    </defs>
    <g clip-path="url(#pda925dd996)">
     <use xlink:href="#mf606e37bc1" x="64.243182" y="309.027198" style="fill: #1f77b4; stroke: #000000; stroke-linejoin: miter"/>
     <use xlink:href="#mf606e37bc1" x="65.426818" y="308.863188" style="fill: #1f77b4; stroke: #000000; stroke-linejoin: miter"/>
     <use xlink:href="#mf606e37bc1" x="67.794091" y="308.799759" style="fill: #1f77b4; stroke: #000000; stroke-linejoin: miter"/>
     <use xlink:href="#mf606e37bc1" x="70.161364" y="308.775225" style="fill: #1f77b4; stroke: #000000; stroke-linejoin: miter"/>
     <use xlink:href="#mf606e37bc1" x="72.528636" y="308.840324" style="fill: #1f77b4; stroke: #000000; stroke-linejoin: miter"/>
     <use xlink:href="#mf606e37bc1" x="77.263182" y="308.841145" style="fill: #1f77b4; stroke: #000000; stroke-linejoin: miter"/>
     <use xlink:href="#mf606e37bc1" x="81.997727" y="308.860572" style="fill: #1f77b4; stroke: #000000; stroke-linejoin: miter"/>
     <use xlink:href="#mf606e37bc1" x="91.466818" y="308.92648" style="fill: #1f77b4; stroke: #000000; stroke-linejoin: miter"/>
     <use xlink:href="#mf606e37bc1" x="119.874091" y="309.026962" style="fill: #1f77b4; stroke: #000000; stroke-linejoin: miter"/>
     <use xlink:href="#mf606e37bc1" x="176.688636" y="309.089253" style="fill: #1f77b4; stroke: #000000; stroke-linejoin: miter"/>
     <use xlink:href="#mf606e37bc1" x="233.503182" y="309.116032" style="fill: #1f77b4; stroke: #000000; stroke-linejoin: miter"/>
     <use xlink:href="#mf606e37bc1" x="290.317727" y="309.132661" style="fill: #1f77b4; stroke: #000000; stroke-linejoin: miter"/>
     <use xlink:href="#mf606e37bc1" x="347.132273" y="309.147599" style="fill: #1f77b4; stroke: #000000; stroke-linejoin: miter"/>
     <use xlink:href="#mf606e37bc1" x="403.946818" y="309.152391" style="fill: #1f77b4; stroke: #000000; stroke-linejoin: miter"/>
    </g>
   </g>
   <g id="line2d_15">
    <path d="M 63.059545 309.185369 
L 63.237091 285.336032 
L 63.769727 132.07862 
L 64.124818 96.792008 
L 64.302364 95.711013 
L 64.479909 101.601246 
L 65.012545 138.951935 
L 65.900273 203.096675 
L 66.432909 229.341418 
L 66.965545 247.230877 
L 67.498182 259.043976 
L 68.030818 266.724643 
L 68.563455 271.682443 
L 69.096091 274.874282 
L 69.628727 276.930033 
L 70.161364 278.257985 
L 70.694 279.120716 
L 71.404182 279.828822 
L 72.291909 280.317765 
L 73.357182 280.624694 
L 75.310182 280.902451 
L 81.169182 281.390808 
L 112.949818 283.755787 
L 147.038545 286.06955 
L 182.725182 288.26693 
L 220.187273 290.349613 
L 259.779909 292.32611 
L 301.680636 294.192691 
L 346.067 295.94534 
L 393.471636 297.591744 
L 418.150455 298.366211 
L 418.150455 298.366211 
" clip-path="url(#pda925dd996)" style="fill: none; stroke: #ff7f0e; stroke-width: 2; stroke-linecap: square"/>
   </g>
   <g id="line2d_16">
    <path d="M 64.243182 309.0756 
L 65.426818 308.969897 
M 67.794091 308.869473 
M 70.161364 308.88179 
L 72.528636 308.91114 
L 77.263182 308.936367 
L 81.997727 308.952785 
L 91.466818 309.006175 
L 119.874091 309.064168 
L 176.688636 309.113799 
L 233.503182 309.132307 
L 290.317727 309.144357 
L 347.132273 309.148186 
L 403.946818 309.155538 
" clip-path="url(#pda925dd996)" style="fill: none; stroke-dasharray: 3.7,1.6; stroke-dashoffset: 0; stroke: #ff7f0e"/>
    <defs>
     <path id="md1ee95cbce" d="M -3 3 
L 3 3 
L 3 -3 
L -3 -3 
z
" style="stroke: #000000; stroke-linejoin: miter"/>
    </defs>
    <g clip-path="url(#pda925dd996)">
     <use xlink:href="#md1ee95cbce" x="64.243182" y="309.0756" style="fill: #ff7f0e; stroke: #000000; stroke-linejoin: miter"/>
     <use xlink:href="#md1ee95cbce" x="65.426818" y="308.969897" style="fill: #ff7f0e; stroke: #000000; stroke-linejoin: miter"/>
     <use xlink:href="#md1ee95cbce" x="67.794091" y="308.869473" style="fill: #ff7f0e; stroke: #000000; stroke-linejoin: miter"/>
     <use xlink:href="#md1ee95cbce" x="70.161364" y="308.88179" style="fill: #ff7f0e; stroke: #000000; stroke-linejoin: miter"/>
     <use xlink:href="#md1ee95cbce" x="72.528636" y="308.91114" style="fill: #ff7f0e; stroke: #000000; stroke-linejoin: miter"/>
     <use xlink:href="#md1ee95cbce" x="77.263182" y="308.936367" style="fill: #ff7f0e; stroke: #000000; stroke-linejoin: miter"/>
     <use xlink:href="#md1ee95cbce" x="81.997727" y="308.952785" style="fill: #ff7f0e; stroke: #000000; stroke-linejoin: miter"/>
     <use xlink:href="#md1ee95cbce" x="91.466818" y="309.006175" style="fill: #ff7f0e; stroke: #000000; stroke-linejoin: miter"/>
     <use xlink:href="#md1ee95cbce" x="119.874091" y="309.064168" style="fill: #ff7f0e; stroke: #000000; stroke-linejoin: miter"/>
     <use xlink:href="#md1ee95cbce" x="176.688636" y="309.113799" style="fill: #ff7f0e; stroke: #000000; stroke-linejoin: miter"/>
     <use xlink:href="#md1ee95cbce" x="233.503182" y="309.132307" style="fill: #ff7f0e; stroke: #000000; stroke-linejoin: miter"/>
     <use xlink:href="#md1ee95cbce" x="290.317727" y="309.144357" style="fill: #ff7f0e; stroke: #000000; stroke-linejoin: miter"/>
     <use xlink:href="#md1ee95cbce" x="347.132273" y="309.148186" style="fill: #ff7f0e; stroke: #000000; stroke-linejoin: miter"/>
     <use xlink:href="#md1ee95cbce" x="403.946818" y="309.155538" style="fill: #ff7f0e; stroke: #000000; stroke-linejoin: miter"/>
    </g>
   </g>
   <g id="line2d_17">
    <path d="M 63.059545 309.185369 
L 63.237091 287.356789 
L 63.769727 141.864018 
L 64.124818 105.882695 
L 64.302364 103.711264 
L 64.479909 108.421259 
L 64.835 129.637215 
L 66.077818 215.097787 
L 66.610455 238.257248 
L 67.143091 253.933619 
L 67.675727 264.252666 
L 68.208364 270.950781 
L 68.741 275.269386 
L 69.273636 278.046567 
L 69.806273 279.832666 
L 70.338909 280.984032 
L 71.049091 281.915233 
L 71.759273 282.444835 
L 72.647 282.809488 
L 73.889818 283.063163 
L 76.375455 283.29095 
L 88.448545 283.979486 
L 131.947182 286.273815 
L 177.576364 288.456826 
L 225.691182 290.534212 
L 276.469182 292.501534 
L 330.087909 294.354404 
L 387.08 296.099035 
L 418.150455 296.962198 
L 418.150455 296.962198 
" clip-path="url(#pda925dd996)" style="fill: none; stroke: #2ca02c; stroke-width: 2; stroke-linecap: square"/>
   </g>
   <g id="line2d_18">
    <path d="M 64.243182 309.095567 
L 65.426818 309.00454 
M 67.794091 308.951192 
M 70.161364 308.962925 
L 72.528636 309.002061 
L 77.263182 309.010356 
L 81.997727 309.050459 
L 91.466818 309.052369 
L 119.874091 309.097248 
L 176.688636 309.122901 
L 233.503182 309.142682 
L 290.317727 309.15072 
L 347.132273 309.160224 
L 403.946818 309.158474 
" clip-path="url(#pda925dd996)" style="fill: none; stroke-dasharray: 3.7,1.6; stroke-dashoffset: 0; stroke: #2ca02c"/>
    <defs>
     <path id="mc7002495f3" d="M -3 3 
L 3 3 
L 3 -3 
L -3 -3 
z
" style="stroke: #000000; stroke-linejoin: miter"/>
    </defs>
    <g clip-path="url(#pda925dd996)">
     <use xlink:href="#mc7002495f3" x="64.243182" y="309.095567" style="fill: #2ca02c; stroke: #000000; stroke-linejoin: miter"/>
     <use xlink:href="#mc7002495f3" x="65.426818" y="309.00454" style="fill: #2ca02c; stroke: #000000; stroke-linejoin: miter"/>
     <use xlink:href="#mc7002495f3" x="67.794091" y="308.951192" style="fill: #2ca02c; stroke: #000000; stroke-linejoin: miter"/>
     <use xlink:href="#mc7002495f3" x="70.161364" y="308.962925" style="fill: #2ca02c; stroke: #000000; stroke-linejoin: miter"/>
     <use xlink:href="#mc7002495f3" x="72.528636" y="309.002061" style="fill: #2ca02c; stroke: #000000; stroke-linejoin: miter"/>
     <use xlink:href="#mc7002495f3" x="77.263182" y="309.010356" style="fill: #2ca02c; stroke: #000000; stroke-linejoin: miter"/>
     <use xlink:href="#mc7002495f3" x="81.997727" y="309.050459" style="fill: #2ca02c; stroke: #000000; stroke-linejoin: miter"/>
     <use xlink:href="#mc7002495f3" x="91.466818" y="309.052369" style="fill: #2ca02c; stroke: #000000; stroke-linejoin: miter"/>
     <use xlink:href="#mc7002495f3" x="119.874091" y="309.097248" style="fill: #2ca02c; stroke: #000000; stroke-linejoin: miter"/>
     <use xlink:href="#mc7002495f3" x="176.688636" y="309.122901" style="fill: #2ca02c; stroke: #000000; stroke-linejoin: miter"/>
     <use xlink:href="#mc7002495f3" x="233.503182" y="309.142682" style="fill: #2ca02c; stroke: #000000; stroke-linejoin: miter"/>
     <use xlink:href="#mc7002495f3" x="290.317727" y="309.15072" style="fill: #2ca02c; stroke: #000000; stroke-linejoin: miter"/>
     <use xlink:href="#mc7002495f3" x="347.132273" y="309.160224" style="fill: #2ca02c; stroke: #000000; stroke-linejoin: miter"/>
     <use xlink:href="#mc7002495f3" x="403.946818" y="309.158474" style="fill: #2ca02c; stroke: #000000; stroke-linejoin: miter"/>
    </g>
   </g>
   <g id="patch_3">
    <path d="M 45.305 320.243478 
L 45.305 79.2 
" style="fill: none; stroke: #000000; stroke-width: 0.8; stroke-linejoin: miter; stroke-linecap: square"/>
   </g>
   <g id="patch_4">
    <path d="M 435.905 320.243478 
L 435.905 79.2 
" style="fill: none; stroke: #000000; stroke-width: 0.8; stroke-linejoin: miter; stroke-linecap: square"/>
   </g>
   <g id="patch_5">
    <path d="M 45.305 320.243478 
L 435.905 320.243478 
" style="fill: none; stroke: #000000; stroke-width: 0.8; stroke-linejoin: miter; stroke-linecap: square"/>
   </g>
   <g id="patch_6">
    <path d="M 45.305 79.2 
L 435.905 79.2 
" style="fill: none; stroke: #000000; stroke-width: 0.8; stroke-linejoin: miter; stroke-linecap: square"/>
   </g>
   <g id="legend_1">
    <g id="patch_7">
     <path d="M 458.529 176.9375 
L 621.750875 176.9375 
Q 623.750875 176.9375 623.750875 174.9375 
L 623.750875 86.2 
Q 623.750875 84.2 621.750875 84.2 
L 458.529 84.2 
Q 456.529 84.2 456.529 86.2 
L 456.529 174.9375 
Q 456.529 176.9375 458.529 176.9375 
z
" style="fill: #ffffff; opacity: 0.8; stroke: #cccccc; stroke-linejoin: miter"/>
    </g>
    <g id="line2d_19">
     <path d="M 460.529 92.298437 
L 480.529 92.298437 
" style="fill: none; stroke: #1f77b4; stroke-width: 2; stroke-linecap: square"/>
    </g>
    <g id="line2d_20"/>
    <g id="text_15">
     <!-- CYP3A4_1_1 -->
     <g transform="translate(488.529 95.798437) scale(0.1 -0.1)">
      <defs>
       <path id="DejaVuSans-43" d="M 4122 4306 
L 4122 3641 
Q 3803 3938 3442 4084 
Q 3081 4231 2675 4231 
Q 1875 4231 1450 3742 
Q 1025 3253 1025 2328 
Q 1025 1406 1450 917 
Q 1875 428 2675 428 
Q 3081 428 3442 575 
Q 3803 722 4122 1019 
L 4122 359 
Q 3791 134 3420 21 
Q 3050 -91 2638 -91 
Q 1578 -91 968 557 
Q 359 1206 359 2328 
Q 359 3453 968 4101 
Q 1578 4750 2638 4750 
Q 3056 4750 3426 4639 
Q 3797 4528 4122 4306 
z
" transform="scale(0.015625)"/>
       <path id="DejaVuSans-59" d="M -13 4666 
L 666 4666 
L 1959 2747 
L 3244 4666 
L 3922 4666 
L 2272 2222 
L 2272 0 
L 1638 0 
L 1638 2222 
L -13 4666 
z
" transform="scale(0.015625)"/>
       <path id="DejaVuSans-50" d="M 1259 4147 
L 1259 2394 
L 2053 2394 
Q 2494 2394 2734 2622 
Q 2975 2850 2975 3272 
Q 2975 3691 2734 3919 
Q 2494 4147 2053 4147 
L 1259 4147 
z
M 628 4666 
L 2053 4666 
Q 2838 4666 3239 4311 
Q 3641 3956 3641 3272 
Q 3641 2581 3239 2228 
Q 2838 1875 2053 1875 
L 1259 1875 
L 1259 0 
L 628 0 
L 628 4666 
z
" transform="scale(0.015625)"/>
       <path id="DejaVuSans-33" d="M 2597 2516 
Q 3050 2419 3304 2112 
Q 3559 1806 3559 1356 
Q 3559 666 3084 287 
Q 2609 -91 1734 -91 
Q 1441 -91 1130 -33 
Q 819 25 488 141 
L 488 750 
Q 750 597 1062 519 
Q 1375 441 1716 441 
Q 2309 441 2620 675 
Q 2931 909 2931 1356 
Q 2931 1769 2642 2001 
Q 2353 2234 1838 2234 
L 1294 2234 
L 1294 2753 
L 1863 2753 
Q 2328 2753 2575 2939 
Q 2822 3125 2822 3475 
Q 2822 3834 2567 4026 
Q 2313 4219 1838 4219 
Q 1578 4219 1281 4162 
Q 984 4106 628 3988 
L 628 4550 
Q 988 4650 1302 4700 
Q 1616 4750 1894 4750 
Q 2613 4750 3031 4423 
Q 3450 4097 3450 3541 
Q 3450 3153 3228 2886 
Q 3006 2619 2597 2516 
z
" transform="scale(0.015625)"/>
       <path id="DejaVuSans-41" d="M 2188 4044 
L 1331 1722 
L 3047 1722 
L 2188 4044 
z
M 1831 4666 
L 2547 4666 
L 4325 0 
L 3669 0 
L 3244 1197 
L 1141 1197 
L 716 0 
L 50 0 
L 1831 4666 
z
" transform="scale(0.015625)"/>
       <path id="DejaVuSans-5f" d="M 3263 -1063 
L 3263 -1509 
L -63 -1509 
L -63 -1063 
L 3263 -1063 
z
" transform="scale(0.015625)"/>
      </defs>
      <use xlink:href="#DejaVuSans-43"/>
      <use xlink:href="#DejaVuSans-59" transform="translate(68.074219 0)"/>
      <use xlink:href="#DejaVuSans-50" transform="translate(129.158203 0)"/>
      <use xlink:href="#DejaVuSans-33" transform="translate(189.460938 0)"/>
      <use xlink:href="#DejaVuSans-41" transform="translate(253.083984 0)"/>
      <use xlink:href="#DejaVuSans-34" transform="translate(321.492188 0)"/>
      <use xlink:href="#DejaVuSans-5f" transform="translate(385.115234 0)"/>
      <use xlink:href="#DejaVuSans-31" transform="translate(435.115234 0)"/>
      <use xlink:href="#DejaVuSans-5f" transform="translate(498.738281 0)"/>
      <use xlink:href="#DejaVuSans-31" transform="translate(548.738281 0)"/>
     </g>
    </g>
    <g id="LineCollection_4">
     <path d="M 470.529 112.254687 
L 470.529 102.254687 
" style="fill: none; stroke: #1f77b4"/>
    </g>
    <g id="line2d_21">
     <path d="M 460.529 107.254687 
L 480.529 107.254687 
" style="fill: none; stroke-dasharray: 3.7,1.6; stroke-dashoffset: 0; stroke: #1f77b4"/>
    </g>
    <g id="line2d_22">
     <g>
      <use xlink:href="#mf606e37bc1" x="470.529" y="107.254687" style="fill: #1f77b4; stroke: #000000; stroke-linejoin: miter"/>
     </g>
    </g>
    <g id="text_16">
     <!-- CYP3A4_1_1±SD (n=18) -->
     <g transform="translate(488.529 110.754687) scale(0.1 -0.1)">
      <defs>
       <path id="DejaVuSans-b1" d="M 2944 4013 
L 2944 2803 
L 4684 2803 
L 4684 2272 
L 2944 2272 
L 2944 1063 
L 2419 1063 
L 2419 2272 
L 678 2272 
L 678 2803 
L 2419 2803 
L 2419 4013 
L 2944 4013 
z
M 678 531 
L 4684 531 
L 4684 0 
L 678 0 
L 678 531 
z
" transform="scale(0.015625)"/>
       <path id="DejaVuSans-53" d="M 3425 4513 
L 3425 3897 
Q 3066 4069 2747 4153 
Q 2428 4238 2131 4238 
Q 1616 4238 1336 4038 
Q 1056 3838 1056 3469 
Q 1056 3159 1242 3001 
Q 1428 2844 1947 2747 
L 2328 2669 
Q 3034 2534 3370 2195 
Q 3706 1856 3706 1288 
Q 3706 609 3251 259 
Q 2797 -91 1919 -91 
Q 1588 -91 1214 -16 
Q 841 59 441 206 
L 441 856 
Q 825 641 1194 531 
Q 1563 422 1919 422 
Q 2459 422 2753 634 
Q 3047 847 3047 1241 
Q 3047 1584 2836 1778 
Q 2625 1972 2144 2069 
L 1759 2144 
Q 1053 2284 737 2584 
Q 422 2884 422 3419 
Q 422 4038 858 4394 
Q 1294 4750 2059 4750 
Q 2388 4750 2728 4690 
Q 3069 4631 3425 4513 
z
" transform="scale(0.015625)"/>
       <path id="DejaVuSans-44" d="M 1259 4147 
L 1259 519 
L 2022 519 
Q 2988 519 3436 956 
Q 3884 1394 3884 2338 
Q 3884 3275 3436 3711 
Q 2988 4147 2022 4147 
L 1259 4147 
z
M 628 4666 
L 1925 4666 
Q 3281 4666 3915 4102 
Q 4550 3538 4550 2338 
Q 4550 1131 3912 565 
Q 3275 0 1925 0 
L 628 0 
L 628 4666 
z
" transform="scale(0.015625)"/>
       <path id="DejaVuSans-20" transform="scale(0.015625)"/>
       <path id="DejaVuSans-28" d="M 1984 4856 
Q 1566 4138 1362 3434 
Q 1159 2731 1159 2009 
Q 1159 1288 1364 580 
Q 1569 -128 1984 -844 
L 1484 -844 
Q 1016 -109 783 600 
Q 550 1309 550 2009 
Q 550 2706 781 3412 
Q 1013 4119 1484 4856 
L 1984 4856 
z
" transform="scale(0.015625)"/>
       <path id="DejaVuSans-6e" d="M 3513 2113 
L 3513 0 
L 2938 0 
L 2938 2094 
Q 2938 2591 2744 2837 
Q 2550 3084 2163 3084 
Q 1697 3084 1428 2787 
Q 1159 2491 1159 1978 
L 1159 0 
L 581 0 
L 581 3500 
L 1159 3500 
L 1159 2956 
Q 1366 3272 1645 3428 
Q 1925 3584 2291 3584 
Q 2894 3584 3203 3211 
Q 3513 2838 3513 2113 
z
" transform="scale(0.015625)"/>
       <path id="DejaVuSans-3d" d="M 678 2906 
L 4684 2906 
L 4684 2381 
L 678 2381 
L 678 2906 
z
M 678 1631 
L 4684 1631 
L 4684 1100 
L 678 1100 
L 678 1631 
z
" transform="scale(0.015625)"/>
       <path id="DejaVuSans-29" d="M 513 4856 
L 1013 4856 
Q 1481 4119 1714 3412 
Q 1947 2706 1947 2009 
Q 1947 1309 1714 600 
Q 1481 -109 1013 -844 
L 513 -844 
Q 928 -128 1133 580 
Q 1338 1288 1338 2009 
Q 1338 2731 1133 3434 
Q 928 4138 513 4856 
z
" transform="scale(0.015625)"/>
      </defs>
      <use xlink:href="#DejaVuSans-43"/>
      <use xlink:href="#DejaVuSans-59" transform="translate(68.074219 0)"/>
      <use xlink:href="#DejaVuSans-50" transform="translate(129.158203 0)"/>
      <use xlink:href="#DejaVuSans-33" transform="translate(189.460938 0)"/>
      <use xlink:href="#DejaVuSans-41" transform="translate(253.083984 0)"/>
      <use xlink:href="#DejaVuSans-34" transform="translate(321.492188 0)"/>
      <use xlink:href="#DejaVuSans-5f" transform="translate(385.115234 0)"/>
      <use xlink:href="#DejaVuSans-31" transform="translate(435.115234 0)"/>
      <use xlink:href="#DejaVuSans-5f" transform="translate(498.738281 0)"/>
      <use xlink:href="#DejaVuSans-31" transform="translate(548.738281 0)"/>
      <use xlink:href="#DejaVuSans-b1" transform="translate(612.361328 0)"/>
      <use xlink:href="#DejaVuSans-53" transform="translate(696.150391 0)"/>
      <use xlink:href="#DejaVuSans-44" transform="translate(759.626953 0)"/>
      <use xlink:href="#DejaVuSans-20" transform="translate(836.628906 0)"/>
      <use xlink:href="#DejaVuSans-28" transform="translate(868.416016 0)"/>
      <use xlink:href="#DejaVuSans-6e" transform="translate(907.429688 0)"/>
      <use xlink:href="#DejaVuSans-3d" transform="translate(970.808594 0)"/>
      <use xlink:href="#DejaVuSans-31" transform="translate(1054.597656 0)"/>
      <use xlink:href="#DejaVuSans-38" transform="translate(1118.220703 0)"/>
      <use xlink:href="#DejaVuSans-29" transform="translate(1181.84375 0)"/>
     </g>
    </g>
    <g id="line2d_23">
     <path d="M 460.529 122.210938 
L 480.529 122.210938 
" style="fill: none; stroke: #ff7f0e; stroke-width: 2; stroke-linecap: square"/>
    </g>
    <g id="line2d_24"/>
    <g id="text_17">
     <!-- CYP3A4_1_1G -->
     <g transform="translate(488.529 125.710938) scale(0.1 -0.1)">
      <defs>
       <path id="DejaVuSans-47" d="M 3809 666 
L 3809 1919 
L 2778 1919 
L 2778 2438 
L 4434 2438 
L 4434 434 
Q 4069 175 3628 42 
Q 3188 -91 2688 -91 
Q 1594 -91 976 548 
Q 359 1188 359 2328 
Q 359 3472 976 4111 
Q 1594 4750 2688 4750 
Q 3144 4750 3555 4637 
Q 3966 4525 4313 4306 
L 4313 3634 
Q 3963 3931 3569 4081 
Q 3175 4231 2741 4231 
Q 1884 4231 1454 3753 
Q 1025 3275 1025 2328 
Q 1025 1384 1454 906 
Q 1884 428 2741 428 
Q 3075 428 3337 486 
Q 3600 544 3809 666 
z
" transform="scale(0.015625)"/>
      </defs>
      <use xlink:href="#DejaVuSans-43"/>
      <use xlink:href="#DejaVuSans-59" transform="translate(68.074219 0)"/>
      <use xlink:href="#DejaVuSans-50" transform="translate(129.158203 0)"/>
      <use xlink:href="#DejaVuSans-33" transform="translate(189.460938 0)"/>
      <use xlink:href="#DejaVuSans-41" transform="translate(253.083984 0)"/>
      <use xlink:href="#DejaVuSans-34" transform="translate(321.492188 0)"/>
      <use xlink:href="#DejaVuSans-5f" transform="translate(385.115234 0)"/>
      <use xlink:href="#DejaVuSans-31" transform="translate(435.115234 0)"/>
      <use xlink:href="#DejaVuSans-5f" transform="translate(498.738281 0)"/>
      <use xlink:href="#DejaVuSans-31" transform="translate(548.738281 0)"/>
      <use xlink:href="#DejaVuSans-47" transform="translate(612.361328 0)"/>
     </g>
    </g>
    <g id="LineCollection_5">
     <path d="M 470.529 142.167187 
L 470.529 132.167187 
" style="fill: none; stroke: #ff7f0e"/>
    </g>
    <g id="line2d_25">
     <path d="M 460.529 137.167187 
L 480.529 137.167187 
" style="fill: none; stroke-dasharray: 3.7,1.6; stroke-dashoffset: 0; stroke: #ff7f0e"/>
    </g>
    <g id="line2d_26">
     <g>
      <use xlink:href="#md1ee95cbce" x="470.529" y="137.167187" style="fill: #ff7f0e; stroke: #000000; stroke-linejoin: miter"/>
     </g>
    </g>
    <g id="text_18">
     <!-- CYP3A4_1_1G±SD (n=10) -->
     <g transform="translate(488.529 140.667187) scale(0.1 -0.1)">
      <use xlink:href="#DejaVuSans-43"/>
      <use xlink:href="#DejaVuSans-59" transform="translate(68.074219 0)"/>
      <use xlink:href="#DejaVuSans-50" transform="translate(129.158203 0)"/>
      <use xlink:href="#DejaVuSans-33" transform="translate(189.460938 0)"/>
      <use xlink:href="#DejaVuSans-41" transform="translate(253.083984 0)"/>
      <use xlink:href="#DejaVuSans-34" transform="translate(321.492188 0)"/>
      <use xlink:href="#DejaVuSans-5f" transform="translate(385.115234 0)"/>
      <use xlink:href="#DejaVuSans-31" transform="translate(435.115234 0)"/>
      <use xlink:href="#DejaVuSans-5f" transform="translate(498.738281 0)"/>
      <use xlink:href="#DejaVuSans-31" transform="translate(548.738281 0)"/>
      <use xlink:href="#DejaVuSans-47" transform="translate(612.361328 0)"/>
      <use xlink:href="#DejaVuSans-b1" transform="translate(689.851562 0)"/>
      <use xlink:href="#DejaVuSans-53" transform="translate(773.640625 0)"/>
      <use xlink:href="#DejaVuSans-44" transform="translate(837.117188 0)"/>
      <use xlink:href="#DejaVuSans-20" transform="translate(914.119141 0)"/>
      <use xlink:href="#DejaVuSans-28" transform="translate(945.90625 0)"/>
      <use xlink:href="#DejaVuSans-6e" transform="translate(984.919922 0)"/>
      <use xlink:href="#DejaVuSans-3d" transform="translate(1048.298828 0)"/>
      <use xlink:href="#DejaVuSans-31" transform="translate(1132.087891 0)"/>
      <use xlink:href="#DejaVuSans-30" transform="translate(1195.710938 0)"/>
      <use xlink:href="#DejaVuSans-29" transform="translate(1259.333984 0)"/>
     </g>
    </g>
    <g id="line2d_27">
     <path d="M 460.529 152.123438 
L 480.529 152.123438 
" style="fill: none; stroke: #2ca02c; stroke-width: 2; stroke-linecap: square"/>
    </g>
    <g id="line2d_28"/>
    <g id="text_19">
     <!-- CYP3A4_1G_1G -->
     <g transform="translate(488.529 155.623438) scale(0.1 -0.1)">
      <use xlink:href="#DejaVuSans-43"/>
      <use xlink:href="#DejaVuSans-59" transform="translate(68.074219 0)"/>
      <use xlink:href="#DejaVuSans-50" transform="translate(129.158203 0)"/>
      <use xlink:href="#DejaVuSans-33" transform="translate(189.460938 0)"/>
      <use xlink:href="#DejaVuSans-41" transform="translate(253.083984 0)"/>
      <use xlink:href="#DejaVuSans-34" transform="translate(321.492188 0)"/>
      <use xlink:href="#DejaVuSans-5f" transform="translate(385.115234 0)"/>
      <use xlink:href="#DejaVuSans-31" transform="translate(435.115234 0)"/>
      <use xlink:href="#DejaVuSans-47" transform="translate(498.738281 0)"/>
      <use xlink:href="#DejaVuSans-5f" transform="translate(576.228516 0)"/>
      <use xlink:href="#DejaVuSans-31" transform="translate(626.228516 0)"/>
      <use xlink:href="#DejaVuSans-47" transform="translate(689.851562 0)"/>
     </g>
    </g>
    <g id="LineCollection_6">
     <path d="M 470.529 172.079687 
L 470.529 162.079687 
" style="fill: none; stroke: #2ca02c"/>
    </g>
    <g id="line2d_29">
     <path d="M 460.529 167.079687 
L 480.529 167.079687 
" style="fill: none; stroke-dasharray: 3.7,1.6; stroke-dashoffset: 0; stroke: #2ca02c"/>
    </g>
    <g id="line2d_30">
     <g>
      <use xlink:href="#mc7002495f3" x="470.529" y="167.079687" style="fill: #2ca02c; stroke: #000000; stroke-linejoin: miter"/>
     </g>
    </g>
    <g id="text_20">
     <!-- CYP3A4_1G_1G±SD (n=3) -->
     <g transform="translate(488.529 170.579687) scale(0.1 -0.1)">
      <use xlink:href="#DejaVuSans-43"/>
      <use xlink:href="#DejaVuSans-59" transform="translate(68.074219 0)"/>
      <use xlink:href="#DejaVuSans-50" transform="translate(129.158203 0)"/>
      <use xlink:href="#DejaVuSans-33" transform="translate(189.460938 0)"/>
      <use xlink:href="#DejaVuSans-41" transform="translate(253.083984 0)"/>
      <use xlink:href="#DejaVuSans-34" transform="translate(321.492188 0)"/>
      <use xlink:href="#DejaVuSans-5f" transform="translate(385.115234 0)"/>
      <use xlink:href="#DejaVuSans-31" transform="translate(435.115234 0)"/>
      <use xlink:href="#DejaVuSans-47" transform="translate(498.738281 0)"/>
      <use xlink:href="#DejaVuSans-5f" transform="translate(576.228516 0)"/>
      <use xlink:href="#DejaVuSans-31" transform="translate(626.228516 0)"/>
      <use xlink:href="#DejaVuSans-47" transform="translate(689.851562 0)"/>
      <use xlink:href="#DejaVuSans-b1" transform="translate(767.341797 0)"/>
      <use xlink:href="#DejaVuSans-53" transform="translate(851.130859 0)"/>
      <use xlink:href="#DejaVuSans-44" transform="translate(914.607422 0)"/>
      <use xlink:href="#DejaVuSans-20" transform="translate(991.609375 0)"/>
      <use xlink:href="#DejaVuSans-28" transform="translate(1023.396484 0)"/>
      <use xlink:href="#DejaVuSans-6e" transform="translate(1062.410156 0)"/>
      <use xlink:href="#DejaVuSans-3d" transform="translate(1125.789062 0)"/>
      <use xlink:href="#DejaVuSans-33" transform="translate(1209.578125 0)"/>
      <use xlink:href="#DejaVuSans-29" transform="translate(1273.201172 0)"/>
     </g>
    </g>
   </g>
  </g>
  <g id="axes_2">
   <g id="patch_8">
    <path d="M 45.305 633.6 
L 435.905 633.6 
L 435.905 392.556522 
L 45.305 392.556522 
z
" style="fill: #ffffff"/>
   </g>
   <g id="matplotlib.axis_3">
    <g id="xtick_8">
     <g id="line2d_31">
      <g>
       <use xlink:href="#maff499dc5d" x="53.276429" y="633.6" style="stroke: #000000; stroke-width: 0.8"/>
      </g>
     </g>
     <g id="text_21">
      <!-- 0 -->
      <g transform="translate(48.504554 651.997656) scale(0.15 -0.15)">
       <use xlink:href="#DejaVuSans-30"/>
      </g>
     </g>
    </g>
    <g id="xtick_9">
     <g id="line2d_32">
      <g>
       <use xlink:href="#maff499dc5d" x="132.990714" y="633.6" style="stroke: #000000; stroke-width: 0.8"/>
      </g>
     </g>
     <g id="text_22">
      <!-- 10 -->
      <g transform="translate(123.446964 651.997656) scale(0.15 -0.15)">
       <use xlink:href="#DejaVuSans-31"/>
       <use xlink:href="#DejaVuSans-30" transform="translate(63.623047 0)"/>
      </g>
     </g>
    </g>
    <g id="xtick_10">
     <g id="line2d_33">
      <g>
       <use xlink:href="#maff499dc5d" x="212.705" y="633.6" style="stroke: #000000; stroke-width: 0.8"/>
      </g>
     </g>
     <g id="text_23">
      <!-- 20 -->
      <g transform="translate(203.16125 651.997656) scale(0.15 -0.15)">
       <use xlink:href="#DejaVuSans-32"/>
       <use xlink:href="#DejaVuSans-30" transform="translate(63.623047 0)"/>
      </g>
     </g>
    </g>
    <g id="xtick_11">
     <g id="line2d_34">
      <g>
       <use xlink:href="#maff499dc5d" x="292.419286" y="633.6" style="stroke: #000000; stroke-width: 0.8"/>
      </g>
     </g>
     <g id="text_24">
      <!-- 30 -->
      <g transform="translate(282.875536 651.997656) scale(0.15 -0.15)">
       <use xlink:href="#DejaVuSans-33"/>
       <use xlink:href="#DejaVuSans-30" transform="translate(63.623047 0)"/>
      </g>
     </g>
    </g>
    <g id="xtick_12">
     <g id="line2d_35">
      <g>
       <use xlink:href="#maff499dc5d" x="372.133571" y="633.6" style="stroke: #000000; stroke-width: 0.8"/>
      </g>
     </g>
     <g id="text_25">
      <!-- 40 -->
      <g transform="translate(362.589821 651.997656) scale(0.15 -0.15)">
       <use xlink:href="#DejaVuSans-34"/>
       <use xlink:href="#DejaVuSans-30" transform="translate(63.623047 0)"/>
      </g>
     </g>
    </g>
    <g id="text_26">
     <!-- time [hr] -->
     <g transform="translate(195.530469 672.794375) scale(0.18 -0.18)">
      <use xlink:href="#DejaVuSans-Bold-74"/>
      <use xlink:href="#DejaVuSans-Bold-69" transform="translate(47.802734 0)"/>
      <use xlink:href="#DejaVuSans-Bold-6d" transform="translate(82.080078 0)"/>
      <use xlink:href="#DejaVuSans-Bold-65" transform="translate(186.279297 0)"/>
      <use xlink:href="#DejaVuSans-Bold-20" transform="translate(254.101562 0)"/>
      <use xlink:href="#DejaVuSans-Bold-5b" transform="translate(288.916016 0)"/>
      <use xlink:href="#DejaVuSans-Bold-68" transform="translate(334.619141 0)"/>
      <use xlink:href="#DejaVuSans-Bold-72" transform="translate(405.810547 0)"/>
      <use xlink:href="#DejaVuSans-Bold-5d" transform="translate(455.126953 0)"/>
     </g>
    </g>
   </g>
   <g id="matplotlib.axis_4">
    <g id="ytick_6">
     <g id="line2d_36">
      <g>
       <use xlink:href="#m9cbdfd17a4" x="45.305" y="622.54189" style="stroke: #000000; stroke-width: 0.8"/>
      </g>
     </g>
     <g id="text_27">
      <!-- 0 -->
      <g transform="translate(28.76125 628.240719) scale(0.15 -0.15)">
       <use xlink:href="#DejaVuSans-30"/>
      </g>
     </g>
    </g>
    <g id="ytick_7">
     <g id="line2d_37">
      <g>
       <use xlink:href="#m9cbdfd17a4" x="45.305" y="574.182312" style="stroke: #000000; stroke-width: 0.8"/>
      </g>
     </g>
     <g id="text_28">
      <!-- 2 -->
      <g transform="translate(28.76125 579.88114) scale(0.15 -0.15)">
       <use xlink:href="#DejaVuSans-32"/>
      </g>
     </g>
    </g>
    <g id="ytick_8">
     <g id="line2d_38">
      <g>
       <use xlink:href="#m9cbdfd17a4" x="45.305" y="525.822733" style="stroke: #000000; stroke-width: 0.8"/>
      </g>
     </g>
     <g id="text_29">
      <!-- 4 -->
      <g transform="translate(28.76125 531.521561) scale(0.15 -0.15)">
       <use xlink:href="#DejaVuSans-34"/>
      </g>
     </g>
    </g>
    <g id="ytick_9">
     <g id="line2d_39">
      <g>
       <use xlink:href="#m9cbdfd17a4" x="45.305" y="477.463154" style="stroke: #000000; stroke-width: 0.8"/>
      </g>
     </g>
     <g id="text_30">
      <!-- 6 -->
      <g transform="translate(28.76125 483.161982) scale(0.15 -0.15)">
       <use xlink:href="#DejaVuSans-36"/>
      </g>
     </g>
    </g>
    <g id="ytick_10">
     <g id="line2d_40">
      <g>
       <use xlink:href="#m9cbdfd17a4" x="45.305" y="429.103575" style="stroke: #000000; stroke-width: 0.8"/>
      </g>
     </g>
     <g id="text_31">
      <!-- 8 -->
      <g transform="translate(28.76125 434.802403) scale(0.15 -0.15)">
       <use xlink:href="#DejaVuSans-38"/>
      </g>
     </g>
    </g>
    <g id="text_32">
     <!-- rapamycin [µM] -->
     <g transform="translate(20.877188 593.116386) rotate(-90) scale(0.18 -0.18)">
      <use xlink:href="#DejaVuSans-Bold-72"/>
      <use xlink:href="#DejaVuSans-Bold-61" transform="translate(49.316406 0)"/>
      <use xlink:href="#DejaVuSans-Bold-70" transform="translate(116.796875 0)"/>
      <use xlink:href="#DejaVuSans-Bold-61" transform="translate(188.378906 0)"/>
      <use xlink:href="#DejaVuSans-Bold-6d" transform="translate(255.859375 0)"/>
      <use xlink:href="#DejaVuSans-Bold-79" transform="translate(360.058594 0)"/>
      <use xlink:href="#DejaVuSans-Bold-63" transform="translate(425.244141 0)"/>
      <use xlink:href="#DejaVuSans-Bold-69" transform="translate(484.521484 0)"/>
      <use xlink:href="#DejaVuSans-Bold-6e" transform="translate(518.798828 0)"/>
      <use xlink:href="#DejaVuSans-Bold-20" transform="translate(589.990234 0)"/>
      <use xlink:href="#DejaVuSans-Bold-5b" transform="translate(624.804688 0)"/>
      <use xlink:href="#DejaVuSans-Bold-b5" transform="translate(670.507812 0)"/>
      <use xlink:href="#DejaVuSans-Bold-4d" transform="translate(744.091797 0)"/>
      <use xlink:href="#DejaVuSans-Bold-5d" transform="translate(843.603516 0)"/>
     </g>
    </g>
   </g>
   <g id="LineCollection_7">
    <path clip-path="url(#pb849b0bf08)" style="fill: none; stroke: #1f77b4"/>
    <path d="M 57.262143 622.508828 
L 57.262143 622.258612 
" clip-path="url(#pb849b0bf08)" style="fill: none; stroke: #1f77b4"/>
    <path d="M 61.247857 622.464617 
L 61.247857 621.974804 
" clip-path="url(#pb849b0bf08)" style="fill: none; stroke: #1f77b4"/>
    <path clip-path="url(#pb849b0bf08)" style="fill: none; stroke: #1f77b4"/>
    <path d="M 69.219286 622.270435 
L 69.219286 622.042127 
" clip-path="url(#pb849b0bf08)" style="fill: none; stroke: #1f77b4"/>
    <path clip-path="url(#pb849b0bf08)" style="fill: none; stroke: #1f77b4"/>
    <path d="M 77.190714 622.221367 
L 77.190714 622.042127 
" clip-path="url(#pb849b0bf08)" style="fill: none; stroke: #1f77b4"/>
    <path d="M 85.162143 622.316073 
L 85.162143 622.077618 
" clip-path="url(#pb849b0bf08)" style="fill: none; stroke: #1f77b4"/>
    <path d="M 101.105 622.317717 
L 101.105 622.077618 
" clip-path="url(#pb849b0bf08)" style="fill: none; stroke: #1f77b4"/>
    <path d="M 117.047857 622.365918 
L 117.047857 622.068269 
" clip-path="url(#pb849b0bf08)" style="fill: none; stroke: #1f77b4"/>
    <path d="M 148.933571 622.392082 
L 148.933571 622.173921 
" clip-path="url(#pb849b0bf08)" style="fill: none; stroke: #1f77b4"/>
    <path d="M 244.590714 622.44352 
L 244.590714 622.323447 
" clip-path="url(#pb849b0bf08)" style="fill: none; stroke: #1f77b4"/>
    <path d="M 435.905 622.477907 
L 435.905 622.413643 
" clip-path="url(#pb849b0bf08)" style="fill: none; stroke: #1f77b4"/>
    <path d="M 627.219286 622.489465 
L 627.219286 622.455642 
" clip-path="url(#pb849b0bf08)" style="fill: none; stroke: #1f77b4"/>
    <path clip-path="url(#pb849b0bf08)" style="fill: none; stroke: #1f77b4"/>
    <path clip-path="url(#pb849b0bf08)" style="fill: none; stroke: #1f77b4"/>
    <path clip-path="url(#pb849b0bf08)" style="fill: none; stroke: #1f77b4"/>
   </g>
   <g id="LineCollection_8">
    <path clip-path="url(#pb849b0bf08)" style="fill: none; stroke: #ff7f0e"/>
    <path clip-path="url(#pb849b0bf08)" style="fill: none; stroke: #ff7f0e"/>
    <path d="M 61.247857 622.609419 
L 61.247857 622.043418 
" clip-path="url(#pb849b0bf08)" style="fill: none; stroke: #ff7f0e"/>
    <path clip-path="url(#pb849b0bf08)" style="fill: none; stroke: #ff7f0e"/>
    <path d="M 69.219286 622.643478 
L 69.219286 621.808511 
" clip-path="url(#pb849b0bf08)" style="fill: none; stroke: #ff7f0e"/>
    <path clip-path="url(#pb849b0bf08)" style="fill: none; stroke: #ff7f0e"/>
    <path d="M 77.190714 622.617639 
L 77.190714 621.858985 
" clip-path="url(#pb849b0bf08)" style="fill: none; stroke: #ff7f0e"/>
    <path d="M 85.162143 622.600022 
L 85.162143 621.935301 
" clip-path="url(#pb849b0bf08)" style="fill: none; stroke: #ff7f0e"/>
    <path d="M 101.105 622.603548 
L 101.105 621.982229 
" clip-path="url(#pb849b0bf08)" style="fill: none; stroke: #ff7f0e"/>
    <path d="M 117.047857 622.604133 
L 117.047857 622.014481 
" clip-path="url(#pb849b0bf08)" style="fill: none; stroke: #ff7f0e"/>
    <path d="M 148.933571 622.595914 
L 148.933571 622.12948 
" clip-path="url(#pb849b0bf08)" style="fill: none; stroke: #ff7f0e"/>
    <path d="M 244.590714 622.571324 
L 244.590714 622.270055 
" clip-path="url(#pb849b0bf08)" style="fill: none; stroke: #ff7f0e"/>
    <path d="M 435.905 622.55871 
L 435.905 622.381931 
" clip-path="url(#pb849b0bf08)" style="fill: none; stroke: #ff7f0e"/>
    <path clip-path="url(#pb849b0bf08)" style="fill: none; stroke: #ff7f0e"/>
    <path clip-path="url(#pb849b0bf08)" style="fill: none; stroke: #ff7f0e"/>
    <path clip-path="url(#pb849b0bf08)" style="fill: none; stroke: #ff7f0e"/>
    <path clip-path="url(#pb849b0bf08)" style="fill: none; stroke: #ff7f0e"/>
   </g>
   <g id="LineCollection_9">
    <path clip-path="url(#pb849b0bf08)" style="fill: none; stroke: #2ca02c"/>
    <path d="M 57.262143 622.503472 
L 57.262143 622.400704 
" clip-path="url(#pb849b0bf08)" style="fill: none; stroke: #2ca02c"/>
    <path d="M 61.247857 622.371336 
L 61.247857 622.350787 
" clip-path="url(#pb849b0bf08)" style="fill: none; stroke: #2ca02c"/>
    <path clip-path="url(#pb849b0bf08)" style="fill: none; stroke: #2ca02c"/>
    <path d="M 69.219286 622.340499 
L 69.219286 622.274929 
" clip-path="url(#pb849b0bf08)" style="fill: none; stroke: #2ca02c"/>
    <path clip-path="url(#pb849b0bf08)" style="fill: none; stroke: #2ca02c"/>
    <path d="M 77.190714 622.338043 
L 77.190714 622.300851 
" clip-path="url(#pb849b0bf08)" style="fill: none; stroke: #2ca02c"/>
    <path d="M 85.162143 622.381092 
L 85.162143 622.336072 
" clip-path="url(#pb849b0bf08)" style="fill: none; stroke: #2ca02c"/>
    <path d="M 101.105 622.390366 
L 101.105 622.343389 
" clip-path="url(#pb849b0bf08)" style="fill: none; stroke: #2ca02c"/>
    <path d="M 117.047857 622.457384 
L 117.047857 622.356579 
" clip-path="url(#pb849b0bf08)" style="fill: none; stroke: #2ca02c"/>
    <path d="M 148.933571 622.456356 
L 148.933571 622.361425 
" clip-path="url(#pb849b0bf08)" style="fill: none; stroke: #2ca02c"/>
    <path d="M 244.590714 622.485577 
L 244.590714 622.421962 
" clip-path="url(#pb849b0bf08)" style="fill: none; stroke: #2ca02c"/>
    <path d="M 435.905 622.491658 
L 435.905 622.467189 
" clip-path="url(#pb849b0bf08)" style="fill: none; stroke: #2ca02c"/>
    <path d="M 627.219286 622.508991 
L 627.219286 622.489417 
" clip-path="url(#pb849b0bf08)" style="fill: none; stroke: #2ca02c"/>
    <path clip-path="url(#pb849b0bf08)" style="fill: none; stroke: #2ca02c"/>
    <path clip-path="url(#pb849b0bf08)" style="fill: none; stroke: #2ca02c"/>
    <path clip-path="url(#pb849b0bf08)" style="fill: none; stroke: #2ca02c"/>
   </g>
   <g id="line2d_41">
    <path d="M 53.276429 622.54189 
L 53.874286 598.289642 
L 55.07 482.146797 
L 55.667857 441.288754 
L 56.265714 416.292042 
L 56.863571 404.776548 
L 57.461429 403.513043 
L 58.059286 409.420751 
L 58.657143 419.938146 
L 59.852857 447.468685 
L 61.646429 489.6047 
L 62.842143 513.129665 
L 64.037857 532.131937 
L 65.233571 546.994013 
L 66.429286 558.393615 
L 67.625 567.032465 
L 68.820714 573.529942 
L 70.016429 578.394029 
L 71.212143 582.025153 
L 72.407857 584.731728 
L 73.603571 586.747965 
L 74.799286 588.25016 
L 75.995 589.37027 
L 77.190714 590.206705 
L 78.386429 590.832685 
L 80.18 591.492111 
L 81.973571 591.925356 
L 84.365 592.288209 
L 87.952143 592.586343 
L 93.930714 592.823964 
L 111.268571 593.192667 
L 238.612143 595.535826 
L 379.706429 597.914223 
L 436.502857 598.811546 
L 436.502857 598.811546 
" clip-path="url(#pb849b0bf08)" style="fill: none; stroke: #1f77b4; stroke-width: 2; stroke-linecap: square"/>
   </g>
   <g id="line2d_42">
    <path d="M 57.262143 622.38372 
L 61.247857 622.21971 
M 69.219286 622.156281 
M 77.190714 622.131747 
L 85.162143 622.196845 
L 101.105 622.197667 
L 117.047857 622.217094 
L 148.933571 622.283002 
L 244.590714 622.383484 
L 435.905 622.445775 
L 627.219286 622.472553 
L 631.950875 622.472965 
" clip-path="url(#pb849b0bf08)" style="fill: none; stroke-dasharray: 3.7,1.6; stroke-dashoffset: 0; stroke: #1f77b4"/>
    <g clip-path="url(#pb849b0bf08)">
     <use xlink:href="#mf606e37bc1" x="57.262143" y="622.38372" style="fill: #1f77b4; stroke: #000000; stroke-linejoin: miter"/>
     <use xlink:href="#mf606e37bc1" x="61.247857" y="622.21971" style="fill: #1f77b4; stroke: #000000; stroke-linejoin: miter"/>
     <use xlink:href="#mf606e37bc1" x="69.219286" y="622.156281" style="fill: #1f77b4; stroke: #000000; stroke-linejoin: miter"/>
     <use xlink:href="#mf606e37bc1" x="77.190714" y="622.131747" style="fill: #1f77b4; stroke: #000000; stroke-linejoin: miter"/>
     <use xlink:href="#mf606e37bc1" x="85.162143" y="622.196845" style="fill: #1f77b4; stroke: #000000; stroke-linejoin: miter"/>
     <use xlink:href="#mf606e37bc1" x="101.105" y="622.197667" style="fill: #1f77b4; stroke: #000000; stroke-linejoin: miter"/>
     <use xlink:href="#mf606e37bc1" x="117.047857" y="622.217094" style="fill: #1f77b4; stroke: #000000; stroke-linejoin: miter"/>
     <use xlink:href="#mf606e37bc1" x="148.933571" y="622.283002" style="fill: #1f77b4; stroke: #000000; stroke-linejoin: miter"/>
     <use xlink:href="#mf606e37bc1" x="244.590714" y="622.383484" style="fill: #1f77b4; stroke: #000000; stroke-linejoin: miter"/>
     <use xlink:href="#mf606e37bc1" x="435.905" y="622.445775" style="fill: #1f77b4; stroke: #000000; stroke-linejoin: miter"/>
     <use xlink:href="#mf606e37bc1" x="627.219286" y="622.472553" style="fill: #1f77b4; stroke: #000000; stroke-linejoin: miter"/>
     <use xlink:href="#mf606e37bc1" x="818.533571" y="622.489183" style="fill: #1f77b4; stroke: #000000; stroke-linejoin: miter"/>
     <use xlink:href="#mf606e37bc1" x="1009.847857" y="622.504121" style="fill: #1f77b4; stroke: #000000; stroke-linejoin: miter"/>
     <use xlink:href="#mf606e37bc1" x="1201.162143" y="622.508913" style="fill: #1f77b4; stroke: #000000; stroke-linejoin: miter"/>
    </g>
   </g>
   <g id="line2d_43">
    <path d="M 53.276429 622.54189 
L 53.874286 598.692554 
L 55.07 485.174148 
L 55.667857 445.435142 
L 56.265714 421.214283 
L 56.863571 410.148529 
L 57.461429 409.067534 
L 58.059286 414.957768 
L 58.657143 425.318833 
L 59.852857 452.308457 
L 61.646429 493.493159 
L 62.842143 516.453197 
L 64.037857 534.986813 
L 65.233571 549.476265 
L 66.429286 560.587399 
L 67.625 569.006867 
L 68.820714 575.339597 
L 70.016429 580.081165 
L 71.212143 583.621938 
L 72.407857 586.262436 
L 73.603571 588.230803 
L 74.799286 589.698726 
L 75.995 590.79469 
L 77.190714 591.614507 
L 78.984286 592.477238 
L 80.777857 593.04293 
L 83.169286 593.51501 
L 86.158571 593.852359 
L 90.941429 594.131983 
L 101.105 594.436536 
L 162.684286 595.843652 
L 274.483571 598.21225 
L 391.663571 600.470032 
L 436.502857 601.277551 
L 436.502857 601.277551 
" clip-path="url(#pb849b0bf08)" style="fill: none; stroke: #ff7f0e; stroke-width: 2; stroke-linecap: square"/>
   </g>
   <g id="line2d_44">
    <path d="M 57.262143 622.432122 
L 61.247857 622.326419 
M 69.219286 622.225995 
M 77.190714 622.238312 
L 85.162143 622.267662 
L 101.105 622.292888 
L 117.047857 622.309307 
L 148.933571 622.362697 
L 244.590714 622.420689 
L 435.905 622.47032 
L 627.219286 622.488829 
L 631.950875 622.489127 
" clip-path="url(#pb849b0bf08)" style="fill: none; stroke-dasharray: 3.7,1.6; stroke-dashoffset: 0; stroke: #ff7f0e"/>
    <g clip-path="url(#pb849b0bf08)">
     <use xlink:href="#md1ee95cbce" x="57.262143" y="622.432122" style="fill: #ff7f0e; stroke: #000000; stroke-linejoin: miter"/>
     <use xlink:href="#md1ee95cbce" x="61.247857" y="622.326419" style="fill: #ff7f0e; stroke: #000000; stroke-linejoin: miter"/>
     <use xlink:href="#md1ee95cbce" x="69.219286" y="622.225995" style="fill: #ff7f0e; stroke: #000000; stroke-linejoin: miter"/>
     <use xlink:href="#md1ee95cbce" x="77.190714" y="622.238312" style="fill: #ff7f0e; stroke: #000000; stroke-linejoin: miter"/>
     <use xlink:href="#md1ee95cbce" x="85.162143" y="622.267662" style="fill: #ff7f0e; stroke: #000000; stroke-linejoin: miter"/>
     <use xlink:href="#md1ee95cbce" x="101.105" y="622.292888" style="fill: #ff7f0e; stroke: #000000; stroke-linejoin: miter"/>
     <use xlink:href="#md1ee95cbce" x="117.047857" y="622.309307" style="fill: #ff7f0e; stroke: #000000; stroke-linejoin: miter"/>
     <use xlink:href="#md1ee95cbce" x="148.933571" y="622.362697" style="fill: #ff7f0e; stroke: #000000; stroke-linejoin: miter"/>
     <use xlink:href="#md1ee95cbce" x="244.590714" y="622.420689" style="fill: #ff7f0e; stroke: #000000; stroke-linejoin: miter"/>
     <use xlink:href="#md1ee95cbce" x="435.905" y="622.47032" style="fill: #ff7f0e; stroke: #000000; stroke-linejoin: miter"/>
     <use xlink:href="#md1ee95cbce" x="627.219286" y="622.488829" style="fill: #ff7f0e; stroke: #000000; stroke-linejoin: miter"/>
     <use xlink:href="#md1ee95cbce" x="818.533571" y="622.500878" style="fill: #ff7f0e; stroke: #000000; stroke-linejoin: miter"/>
     <use xlink:href="#md1ee95cbce" x="1009.847857" y="622.504708" style="fill: #ff7f0e; stroke: #000000; stroke-linejoin: miter"/>
     <use xlink:href="#md1ee95cbce" x="1201.162143" y="622.51206" style="fill: #ff7f0e; stroke: #000000; stroke-linejoin: miter"/>
    </g>
   </g>
   <g id="line2d_45">
    <path d="M 53.276429 622.54189 
L 53.874286 600.713311 
L 55.07 493.726873 
L 55.667857 455.22054 
L 56.265714 431.030785 
L 56.863571 419.239217 
L 57.461429 417.067785 
L 58.059286 421.777781 
L 58.657143 431.032374 
L 59.852857 456.297561 
L 61.646429 496.125425 
L 62.842143 518.730036 
L 64.037857 537.137098 
L 65.233571 551.613769 
L 66.429286 562.760082 
L 67.625 571.228786 
L 68.820714 577.609188 
L 70.016429 582.390839 
L 71.212143 585.962705 
L 72.407857 588.625907 
L 73.603571 590.609889 
L 74.799286 592.087734 
L 75.995 593.189188 
L 77.190714 594.011104 
L 78.386429 594.625591 
L 80.18 595.271755 
L 82.571429 595.801357 
L 85.560714 596.16601 
L 89.745714 596.419685 
L 98.115714 596.647472 
L 138.77 597.336007 
L 285.245 599.630337 
L 436.502857 601.781016 
L 436.502857 601.781016 
" clip-path="url(#pb849b0bf08)" style="fill: none; stroke: #2ca02c; stroke-width: 2; stroke-linecap: square"/>
   </g>
   <g id="line2d_46">
    <path d="M 57.262143 622.452088 
L 61.247857 622.361061 
M 69.219286 622.307714 
M 77.190714 622.319447 
L 85.162143 622.358582 
L 101.105 622.366878 
L 117.047857 622.406981 
L 148.933571 622.40889 
L 244.590714 622.453769 
L 435.905 622.479423 
L 627.219286 622.499204 
L 631.950875 622.499403 
" clip-path="url(#pb849b0bf08)" style="fill: none; stroke-dasharray: 3.7,1.6; stroke-dashoffset: 0; stroke: #2ca02c"/>
    <g clip-path="url(#pb849b0bf08)">
     <use xlink:href="#mc7002495f3" x="57.262143" y="622.452088" style="fill: #2ca02c; stroke: #000000; stroke-linejoin: miter"/>
     <use xlink:href="#mc7002495f3" x="61.247857" y="622.361061" style="fill: #2ca02c; stroke: #000000; stroke-linejoin: miter"/>
     <use xlink:href="#mc7002495f3" x="69.219286" y="622.307714" style="fill: #2ca02c; stroke: #000000; stroke-linejoin: miter"/>
     <use xlink:href="#mc7002495f3" x="77.190714" y="622.319447" style="fill: #2ca02c; stroke: #000000; stroke-linejoin: miter"/>
     <use xlink:href="#mc7002495f3" x="85.162143" y="622.358582" style="fill: #2ca02c; stroke: #000000; stroke-linejoin: miter"/>
     <use xlink:href="#mc7002495f3" x="101.105" y="622.366878" style="fill: #2ca02c; stroke: #000000; stroke-linejoin: miter"/>
     <use xlink:href="#mc7002495f3" x="117.047857" y="622.406981" style="fill: #2ca02c; stroke: #000000; stroke-linejoin: miter"/>
     <use xlink:href="#mc7002495f3" x="148.933571" y="622.40889" style="fill: #2ca02c; stroke: #000000; stroke-linejoin: miter"/>
     <use xlink:href="#mc7002495f3" x="244.590714" y="622.453769" style="fill: #2ca02c; stroke: #000000; stroke-linejoin: miter"/>
     <use xlink:href="#mc7002495f3" x="435.905" y="622.479423" style="fill: #2ca02c; stroke: #000000; stroke-linejoin: miter"/>
     <use xlink:href="#mc7002495f3" x="627.219286" y="622.499204" style="fill: #2ca02c; stroke: #000000; stroke-linejoin: miter"/>
     <use xlink:href="#mc7002495f3" x="818.533571" y="622.507242" style="fill: #2ca02c; stroke: #000000; stroke-linejoin: miter"/>
     <use xlink:href="#mc7002495f3" x="1009.847857" y="622.516746" style="fill: #2ca02c; stroke: #000000; stroke-linejoin: miter"/>
     <use xlink:href="#mc7002495f3" x="1201.162143" y="622.514996" style="fill: #2ca02c; stroke: #000000; stroke-linejoin: miter"/>
    </g>
   </g>
   <g id="patch_9">
    <path d="M 45.305 633.6 
L 45.305 392.556522 
" style="fill: none; stroke: #000000; stroke-width: 0.8; stroke-linejoin: miter; stroke-linecap: square"/>
   </g>
   <g id="patch_10">
    <path d="M 435.905 633.6 
L 435.905 392.556522 
" style="fill: none; stroke: #000000; stroke-width: 0.8; stroke-linejoin: miter; stroke-linecap: square"/>
   </g>
   <g id="patch_11">
    <path d="M 45.305 633.6 
L 435.905 633.6 
" style="fill: none; stroke: #000000; stroke-width: 0.8; stroke-linejoin: miter; stroke-linecap: square"/>
   </g>
   <g id="patch_12">
    <path d="M 45.305 392.556522 
L 435.905 392.556522 
" style="fill: none; stroke: #000000; stroke-width: 0.8; stroke-linejoin: miter; stroke-linecap: square"/>
   </g>
   <g id="legend_2">
    <g id="patch_13">
     <path d="M 458.529 490.294022 
L 621.750875 490.294022 
Q 623.750875 490.294022 623.750875 488.294022 
L 623.750875 399.556522 
Q 623.750875 397.556522 621.750875 397.556522 
L 458.529 397.556522 
Q 456.529 397.556522 456.529 399.556522 
L 456.529 488.294022 
Q 456.529 490.294022 458.529 490.294022 
z
" style="fill: #ffffff; opacity: 0.8; stroke: #cccccc; stroke-linejoin: miter"/>
    </g>
    <g id="line2d_47">
     <path d="M 460.529 405.654959 
L 480.529 405.654959 
" style="fill: none; stroke: #1f77b4; stroke-width: 2; stroke-linecap: square"/>
    </g>
    <g id="line2d_48"/>
    <g id="text_33">
     <!-- CYP3A4_1_1 -->
     <g transform="translate(488.529 409.154959) scale(0.1 -0.1)">
      <use xlink:href="#DejaVuSans-43"/>
      <use xlink:href="#DejaVuSans-59" transform="translate(68.074219 0)"/>
      <use xlink:href="#DejaVuSans-50" transform="translate(129.158203 0)"/>
      <use xlink:href="#DejaVuSans-33" transform="translate(189.460938 0)"/>
      <use xlink:href="#DejaVuSans-41" transform="translate(253.083984 0)"/>
      <use xlink:href="#DejaVuSans-34" transform="translate(321.492188 0)"/>
      <use xlink:href="#DejaVuSans-5f" transform="translate(385.115234 0)"/>
      <use xlink:href="#DejaVuSans-31" transform="translate(435.115234 0)"/>
      <use xlink:href="#DejaVuSans-5f" transform="translate(498.738281 0)"/>
      <use xlink:href="#DejaVuSans-31" transform="translate(548.738281 0)"/>
     </g>
    </g>
    <g id="LineCollection_10">
     <path d="M 470.529 425.611209 
L 470.529 415.611209 
" style="fill: none; stroke: #1f77b4"/>
    </g>
    <g id="line2d_49">
     <path d="M 460.529 420.611209 
L 480.529 420.611209 
" style="fill: none; stroke-dasharray: 3.7,1.6; stroke-dashoffset: 0; stroke: #1f77b4"/>
    </g>
    <g id="line2d_50">
     <g>
      <use xlink:href="#mf606e37bc1" x="470.529" y="420.611209" style="fill: #1f77b4; stroke: #000000; stroke-linejoin: miter"/>
     </g>
    </g>
    <g id="text_34">
     <!-- CYP3A4_1_1±SD (n=18) -->
     <g transform="translate(488.529 424.111209) scale(0.1 -0.1)">
      <use xlink:href="#DejaVuSans-43"/>
      <use xlink:href="#DejaVuSans-59" transform="translate(68.074219 0)"/>
      <use xlink:href="#DejaVuSans-50" transform="translate(129.158203 0)"/>
      <use xlink:href="#DejaVuSans-33" transform="translate(189.460938 0)"/>
      <use xlink:href="#DejaVuSans-41" transform="translate(253.083984 0)"/>
      <use xlink:href="#DejaVuSans-34" transform="translate(321.492188 0)"/>
      <use xlink:href="#DejaVuSans-5f" transform="translate(385.115234 0)"/>
      <use xlink:href="#DejaVuSans-31" transform="translate(435.115234 0)"/>
      <use xlink:href="#DejaVuSans-5f" transform="translate(498.738281 0)"/>
      <use xlink:href="#DejaVuSans-31" transform="translate(548.738281 0)"/>
      <use xlink:href="#DejaVuSans-b1" transform="translate(612.361328 0)"/>
      <use xlink:href="#DejaVuSans-53" transform="translate(696.150391 0)"/>
      <use xlink:href="#DejaVuSans-44" transform="translate(759.626953 0)"/>
      <use xlink:href="#DejaVuSans-20" transform="translate(836.628906 0)"/>
      <use xlink:href="#DejaVuSans-28" transform="translate(868.416016 0)"/>
      <use xlink:href="#DejaVuSans-6e" transform="translate(907.429688 0)"/>
      <use xlink:href="#DejaVuSans-3d" transform="translate(970.808594 0)"/>
      <use xlink:href="#DejaVuSans-31" transform="translate(1054.597656 0)"/>
      <use xlink:href="#DejaVuSans-38" transform="translate(1118.220703 0)"/>
      <use xlink:href="#DejaVuSans-29" transform="translate(1181.84375 0)"/>
     </g>
    </g>
    <g id="line2d_51">
     <path d="M 460.529 435.567459 
L 480.529 435.567459 
" style="fill: none; stroke: #ff7f0e; stroke-width: 2; stroke-linecap: square"/>
    </g>
    <g id="line2d_52"/>
    <g id="text_35">
     <!-- CYP3A4_1_1G -->
     <g transform="translate(488.529 439.067459) scale(0.1 -0.1)">
      <use xlink:href="#DejaVuSans-43"/>
      <use xlink:href="#DejaVuSans-59" transform="translate(68.074219 0)"/>
      <use xlink:href="#DejaVuSans-50" transform="translate(129.158203 0)"/>
      <use xlink:href="#DejaVuSans-33" transform="translate(189.460938 0)"/>
      <use xlink:href="#DejaVuSans-41" transform="translate(253.083984 0)"/>
      <use xlink:href="#DejaVuSans-34" transform="translate(321.492188 0)"/>
      <use xlink:href="#DejaVuSans-5f" transform="translate(385.115234 0)"/>
      <use xlink:href="#DejaVuSans-31" transform="translate(435.115234 0)"/>
      <use xlink:href="#DejaVuSans-5f" transform="translate(498.738281 0)"/>
      <use xlink:href="#DejaVuSans-31" transform="translate(548.738281 0)"/>
      <use xlink:href="#DejaVuSans-47" transform="translate(612.361328 0)"/>
     </g>
    </g>
    <g id="LineCollection_11">
     <path d="M 470.529 455.523709 
L 470.529 445.523709 
" style="fill: none; stroke: #ff7f0e"/>
    </g>
    <g id="line2d_53">
     <path d="M 460.529 450.523709 
L 480.529 450.523709 
" style="fill: none; stroke-dasharray: 3.7,1.6; stroke-dashoffset: 0; stroke: #ff7f0e"/>
    </g>
    <g id="line2d_54">
     <g>
      <use xlink:href="#md1ee95cbce" x="470.529" y="450.523709" style="fill: #ff7f0e; stroke: #000000; stroke-linejoin: miter"/>
     </g>
    </g>
    <g id="text_36">
     <!-- CYP3A4_1_1G±SD (n=10) -->
     <g transform="translate(488.529 454.023709) scale(0.1 -0.1)">
      <use xlink:href="#DejaVuSans-43"/>
      <use xlink:href="#DejaVuSans-59" transform="translate(68.074219 0)"/>
      <use xlink:href="#DejaVuSans-50" transform="translate(129.158203 0)"/>
      <use xlink:href="#DejaVuSans-33" transform="translate(189.460938 0)"/>
      <use xlink:href="#DejaVuSans-41" transform="translate(253.083984 0)"/>
      <use xlink:href="#DejaVuSans-34" transform="translate(321.492188 0)"/>
      <use xlink:href="#DejaVuSans-5f" transform="translate(385.115234 0)"/>
      <use xlink:href="#DejaVuSans-31" transform="translate(435.115234 0)"/>
      <use xlink:href="#DejaVuSans-5f" transform="translate(498.738281 0)"/>
      <use xlink:href="#DejaVuSans-31" transform="translate(548.738281 0)"/>
      <use xlink:href="#DejaVuSans-47" transform="translate(612.361328 0)"/>
      <use xlink:href="#DejaVuSans-b1" transform="translate(689.851562 0)"/>
      <use xlink:href="#DejaVuSans-53" transform="translate(773.640625 0)"/>
      <use xlink:href="#DejaVuSans-44" transform="translate(837.117188 0)"/>
      <use xlink:href="#DejaVuSans-20" transform="translate(914.119141 0)"/>
      <use xlink:href="#DejaVuSans-28" transform="translate(945.90625 0)"/>
      <use xlink:href="#DejaVuSans-6e" transform="translate(984.919922 0)"/>
      <use xlink:href="#DejaVuSans-3d" transform="translate(1048.298828 0)"/>
      <use xlink:href="#DejaVuSans-31" transform="translate(1132.087891 0)"/>
      <use xlink:href="#DejaVuSans-30" transform="translate(1195.710938 0)"/>
      <use xlink:href="#DejaVuSans-29" transform="translate(1259.333984 0)"/>
     </g>
    </g>
    <g id="line2d_55">
     <path d="M 460.529 465.479959 
L 480.529 465.479959 
" style="fill: none; stroke: #2ca02c; stroke-width: 2; stroke-linecap: square"/>
    </g>
    <g id="line2d_56"/>
    <g id="text_37">
     <!-- CYP3A4_1G_1G -->
     <g transform="translate(488.529 468.979959) scale(0.1 -0.1)">
      <use xlink:href="#DejaVuSans-43"/>
      <use xlink:href="#DejaVuSans-59" transform="translate(68.074219 0)"/>
      <use xlink:href="#DejaVuSans-50" transform="translate(129.158203 0)"/>
      <use xlink:href="#DejaVuSans-33" transform="translate(189.460938 0)"/>
      <use xlink:href="#DejaVuSans-41" transform="translate(253.083984 0)"/>
      <use xlink:href="#DejaVuSans-34" transform="translate(321.492188 0)"/>
      <use xlink:href="#DejaVuSans-5f" transform="translate(385.115234 0)"/>
      <use xlink:href="#DejaVuSans-31" transform="translate(435.115234 0)"/>
      <use xlink:href="#DejaVuSans-47" transform="translate(498.738281 0)"/>
      <use xlink:href="#DejaVuSans-5f" transform="translate(576.228516 0)"/>
      <use xlink:href="#DejaVuSans-31" transform="translate(626.228516 0)"/>
      <use xlink:href="#DejaVuSans-47" transform="translate(689.851562 0)"/>
     </g>
    </g>
    <g id="LineCollection_12">
     <path d="M 470.529 485.436209 
L 470.529 475.436209 
" style="fill: none; stroke: #2ca02c"/>
    </g>
    <g id="line2d_57">
     <path d="M 460.529 480.436209 
L 480.529 480.436209 
" style="fill: none; stroke-dasharray: 3.7,1.6; stroke-dashoffset: 0; stroke: #2ca02c"/>
    </g>
    <g id="line2d_58">
     <g>
      <use xlink:href="#mc7002495f3" x="470.529" y="480.436209" style="fill: #2ca02c; stroke: #000000; stroke-linejoin: miter"/>
     </g>
    </g>
    <g id="text_38">
     <!-- CYP3A4_1G_1G±SD (n=3) -->
     <g transform="translate(488.529 483.936209) scale(0.1 -0.1)">
      <use xlink:href="#DejaVuSans-43"/>
      <use xlink:href="#DejaVuSans-59" transform="translate(68.074219 0)"/>
      <use xlink:href="#DejaVuSans-50" transform="translate(129.158203 0)"/>
      <use xlink:href="#DejaVuSans-33" transform="translate(189.460938 0)"/>
      <use xlink:href="#DejaVuSans-41" transform="translate(253.083984 0)"/>
      <use xlink:href="#DejaVuSans-34" transform="translate(321.492188 0)"/>
      <use xlink:href="#DejaVuSans-5f" transform="translate(385.115234 0)"/>
      <use xlink:href="#DejaVuSans-31" transform="translate(435.115234 0)"/>
      <use xlink:href="#DejaVuSans-47" transform="translate(498.738281 0)"/>
      <use xlink:href="#DejaVuSans-5f" transform="translate(576.228516 0)"/>
      <use xlink:href="#DejaVuSans-31" transform="translate(626.228516 0)"/>
      <use xlink:href="#DejaVuSans-47" transform="translate(689.851562 0)"/>
      <use xlink:href="#DejaVuSans-b1" transform="translate(767.341797 0)"/>
      <use xlink:href="#DejaVuSans-53" transform="translate(851.130859 0)"/>
      <use xlink:href="#DejaVuSans-44" transform="translate(914.607422 0)"/>
      <use xlink:href="#DejaVuSans-20" transform="translate(991.609375 0)"/>
      <use xlink:href="#DejaVuSans-28" transform="translate(1023.396484 0)"/>
      <use xlink:href="#DejaVuSans-6e" transform="translate(1062.410156 0)"/>
      <use xlink:href="#DejaVuSans-3d" transform="translate(1125.789062 0)"/>
      <use xlink:href="#DejaVuSans-33" transform="translate(1209.578125 0)"/>
      <use xlink:href="#DejaVuSans-29" transform="translate(1273.201172 0)"/>
     </g>
    </g>
   </g>
  </g>
  <g id="text_39">
   <!-- Zhang2017 -->
   <g transform="translate(155.271797 26.196094) scale(0.25 -0.25)">
    <defs>
     <path id="DejaVuSans-Bold-5a" d="M 359 4666 
L 4281 4666 
L 4281 3938 
L 1778 909 
L 4353 909 
L 4353 0 
L 288 0 
L 288 728 
L 2791 3756 
L 359 3756 
L 359 4666 
z
" transform="scale(0.015625)"/>
     <path id="DejaVuSans-Bold-67" d="M 2919 594 
Q 2688 288 2409 144 
Q 2131 0 1766 0 
Q 1125 0 706 504 
Q 288 1009 288 1791 
Q 288 2575 706 3076 
Q 1125 3578 1766 3578 
Q 2131 3578 2409 3434 
Q 2688 3291 2919 2981 
L 2919 3500 
L 4044 3500 
L 4044 353 
Q 4044 -491 3511 -936 
Q 2978 -1381 1966 -1381 
Q 1638 -1381 1331 -1331 
Q 1025 -1281 716 -1178 
L 716 -306 
Q 1009 -475 1290 -558 
Q 1572 -641 1856 -641 
Q 2406 -641 2662 -400 
Q 2919 -159 2919 353 
L 2919 594 
z
M 2181 2772 
Q 1834 2772 1640 2515 
Q 1447 2259 1447 1791 
Q 1447 1309 1634 1061 
Q 1822 813 2181 813 
Q 2531 813 2725 1069 
Q 2919 1325 2919 1791 
Q 2919 2259 2725 2515 
Q 2531 2772 2181 2772 
z
" transform="scale(0.015625)"/>
     <path id="DejaVuSans-Bold-32" d="M 1844 884 
L 3897 884 
L 3897 0 
L 506 0 
L 506 884 
L 2209 2388 
Q 2438 2594 2547 2791 
Q 2656 2988 2656 3200 
Q 2656 3528 2436 3728 
Q 2216 3928 1850 3928 
Q 1569 3928 1234 3808 
Q 900 3688 519 3450 
L 519 4475 
Q 925 4609 1322 4679 
Q 1719 4750 2100 4750 
Q 2938 4750 3402 4381 
Q 3866 4013 3866 3353 
Q 3866 2972 3669 2642 
Q 3472 2313 2841 1759 
L 1844 884 
z
" transform="scale(0.015625)"/>
     <path id="DejaVuSans-Bold-30" d="M 2944 2338 
Q 2944 3213 2780 3570 
Q 2616 3928 2228 3928 
Q 1841 3928 1675 3570 
Q 1509 3213 1509 2338 
Q 1509 1453 1675 1090 
Q 1841 728 2228 728 
Q 2613 728 2778 1090 
Q 2944 1453 2944 2338 
z
M 4147 2328 
Q 4147 1169 3647 539 
Q 3147 -91 2228 -91 
Q 1306 -91 806 539 
Q 306 1169 306 2328 
Q 306 3491 806 4120 
Q 1306 4750 2228 4750 
Q 3147 4750 3647 4120 
Q 4147 3491 4147 2328 
z
" transform="scale(0.015625)"/>
     <path id="DejaVuSans-Bold-31" d="M 750 831 
L 1813 831 
L 1813 3847 
L 722 3622 
L 722 4441 
L 1806 4666 
L 2950 4666 
L 2950 831 
L 4013 831 
L 4013 0 
L 750 0 
L 750 831 
z
" transform="scale(0.015625)"/>
     <path id="DejaVuSans-Bold-37" d="M 428 4666 
L 3944 4666 
L 3944 3988 
L 2125 0 
L 953 0 
L 2675 3781 
L 428 3781 
L 428 4666 
z
" transform="scale(0.015625)"/>
    </defs>
    <use xlink:href="#DejaVuSans-Bold-5a"/>
    <use xlink:href="#DejaVuSans-Bold-68" transform="translate(72.509766 0)"/>
    <use xlink:href="#DejaVuSans-Bold-61" transform="translate(143.701172 0)"/>
    <use xlink:href="#DejaVuSans-Bold-6e" transform="translate(211.181641 0)"/>
    <use xlink:href="#DejaVuSans-Bold-67" transform="translate(282.373047 0)"/>
    <use xlink:href="#DejaVuSans-Bold-32" transform="translate(353.955078 0)"/>
    <use xlink:href="#DejaVuSans-Bold-30" transform="translate(423.535156 0)"/>
    <use xlink:href="#DejaVuSans-Bold-31" transform="translate(493.115234 0)"/>
    <use xlink:href="#DejaVuSans-Bold-37" transform="translate(562.695312 0)"/>
   </g>
  </g>
 </g>
 <defs>
  <clipPath id="pda925dd996">
   <rect x="45.305" y="79.2" width="390.6" height="241.043478"/>
  </clipPath>
  <clipPath id="pb849b0bf08">
   <rect x="45.305" y="392.556522" width="390.6" height="241.043478"/>
  </clipPath>
 </defs>
</svg>
