<?xml version="1.0" encoding="utf-8" standalone="no"?>
<!DOCTYPE svg PUBLIC "-//W3C//DTD SVG 1.1//EN"
  "http://www.w3.org/Graphics/SVG/1.1/DTD/svg11.dtd">
<svg xmlns:xlink="http://www.w3.org/1999/xlink" width="452.64875pt" height="370.537812pt" viewBox="0 0 452.64875 370.537812" xmlns="http://www.w3.org/2000/svg" version="1.1">
 <metadata>
  <rdf:RDF xmlns:dc="http://purl.org/dc/elements/1.1/" xmlns:cc="http://creativecommons.org/ns#" xmlns:rdf="http://www.w3.org/1999/02/22-rdf-syntax-ns#">
   <cc:Work>
    <dc:type rdf:resource="http://purl.org/dc/dcmitype/StillImage"/>
    <dc:date>2026-02-12T15:19:42.083429</dc:date>
    <dc:format>image/svg+xml</dc:format>
    <dc:creator>
     <cc:Agent>
      <dc:title>Matplotlib v3.10.7, https://matplotlib.org/</dc:title>
     </cc:Agent>
    </dc:creator>
   </cc:Work>
  </rdf:RDF>
 </metadata>
 <defs>
  <style type="text/css">*{stroke-linejoin: round; stroke-linecap: butt}</style>
 </defs>
 <g id="figure_1">
  <g id="patch_1">
   <path d="M 0 370.537812 
L 452.64875 370.537812 
L 452.64875 0 
L 0 0 
z
" style="fill: #ffffff"/>
  </g>
  <g id="axes_1">
   <g id="patch_2">
    <path d="M 54.84875 320.4 
L 445.44875 320.4 
L 445.44875 43.2 
L 54.84875 43.2 
z
" style="fill: #ffffff"/>
   </g>
   <g id="matplotlib.axis_1">
    <g id="xtick_1">
     <g id="line2d_1">
      <defs>
       <path id="m5731d7079a" d="M 0 0 
L 0 3.5 
" style="stroke: #000000; stroke-width: 0.8"/>
      </defs>
      <g>
       <use xlink:href="#m5731d7079a" x="72.603295" y="320.4" style="stroke: #000000; stroke-width: 0.8"/>
      </g>
     </g>
     <g id="text_1">
      <!-- 0 -->
      <g transform="translate(67.83142 338.797656) scale(0.15 -0.15)">
       <defs>
        <path id="DejaVuSans-30" d="M 2034 4250 
Q 1547 4250 1301 3770 
Q 1056 3291 1056 2328 
Q 1056 1369 1301 889 
Q 1547 409 2034 409 
Q 2525 409 2770 889 
Q 3016 1369 3016 2328 
Q 3016 3291 2770 3770 
Q 2525 4250 2034 4250 
z
M 2034 4750 
Q 2819 4750 3233 4129 
Q 3647 3509 3647 2328 
Q 3647 1150 3233 529 
Q 2819 -91 2034 -91 
Q 1250 -91 836 529 
Q 422 1150 422 2328 
Q 422 3509 836 4129 
Q 1250 4750 2034 4750 
z
" transform="scale(0.015625)"/>
       </defs>
       <use xlink:href="#DejaVuSans-30"/>
      </g>
     </g>
    </g>
    <g id="xtick_2">
     <g id="line2d_2">
      <g>
       <use xlink:href="#m5731d7079a" x="143.621477" y="320.4" style="stroke: #000000; stroke-width: 0.8"/>
      </g>
     </g>
     <g id="text_2">
      <!-- 100 -->
      <g transform="translate(129.305852 338.797656) scale(0.15 -0.15)">
       <defs>
        <path id="DejaVuSans-31" d="M 794 531 
L 1825 531 
L 1825 4091 
L 703 3866 
L 703 4441 
L 1819 4666 
L 2450 4666 
L 2450 531 
L 3481 531 
L 3481 0 
L 794 0 
L 794 531 
z
" transform="scale(0.015625)"/>
       </defs>
       <use xlink:href="#DejaVuSans-31"/>
       <use xlink:href="#DejaVuSans-30" transform="translate(63.623047 0)"/>
       <use xlink:href="#DejaVuSans-30" transform="translate(127.246094 0)"/>
      </g>
     </g>
    </g>
    <g id="xtick_3">
     <g id="line2d_3">
      <g>
       <use xlink:href="#m5731d7079a" x="214.639659" y="320.4" style="stroke: #000000; stroke-width: 0.8"/>
      </g>
     </g>
     <g id="text_3">
      <!-- 200 -->
      <g transform="translate(200.324034 338.797656) scale(0.15 -0.15)">
       <defs>
        <path id="DejaVuSans-32" d="M 1228 531 
L 3431 531 
L 3431 0 
L 469 0 
L 469 531 
Q 828 903 1448 1529 
Q 2069 2156 2228 2338 
Q 2531 2678 2651 2914 
Q 2772 3150 2772 3378 
Q 2772 3750 2511 3984 
Q 2250 4219 1831 4219 
Q 1534 4219 1204 4116 
Q 875 4013 500 3803 
L 500 4441 
Q 881 4594 1212 4672 
Q 1544 4750 1819 4750 
Q 2544 4750 2975 4387 
Q 3406 4025 3406 3419 
Q 3406 3131 3298 2873 
Q 3191 2616 2906 2266 
Q 2828 2175 2409 1742 
Q 1991 1309 1228 531 
z
" transform="scale(0.015625)"/>
       </defs>
       <use xlink:href="#DejaVuSans-32"/>
       <use xlink:href="#DejaVuSans-30" transform="translate(63.623047 0)"/>
       <use xlink:href="#DejaVuSans-30" transform="translate(127.246094 0)"/>
      </g>
     </g>
    </g>
    <g id="xtick_4">
     <g id="line2d_4">
      <g>
       <use xlink:href="#m5731d7079a" x="285.657841" y="320.4" style="stroke: #000000; stroke-width: 0.8"/>
      </g>
     </g>
     <g id="text_4">
      <!-- 300 -->
      <g transform="translate(271.342216 338.797656) scale(0.15 -0.15)">
       <defs>
        <path id="DejaVuSans-33" d="M 2597 2516 
Q 3050 2419 3304 2112 
Q 3559 1806 3559 1356 
Q 3559 666 3084 287 
Q 2609 -91 1734 -91 
Q 1441 -91 1130 -33 
Q 819 25 488 141 
L 488 750 
Q 750 597 1062 519 
Q 1375 441 1716 441 
Q 2309 441 2620 675 
Q 2931 909 2931 1356 
Q 2931 1769 2642 2001 
Q 2353 2234 1838 2234 
L 1294 2234 
L 1294 2753 
L 1863 2753 
Q 2328 2753 2575 2939 
Q 2822 3125 2822 3475 
Q 2822 3834 2567 4026 
Q 2313 4219 1838 4219 
Q 1578 4219 1281 4162 
Q 984 4106 628 3988 
L 628 4550 
Q 988 4650 1302 4700 
Q 1616 4750 1894 4750 
Q 2613 4750 3031 4423 
Q 3450 4097 3450 3541 
Q 3450 3153 3228 2886 
Q 3006 2619 2597 2516 
z
" transform="scale(0.015625)"/>
       </defs>
       <use xlink:href="#DejaVuSans-33"/>
       <use xlink:href="#DejaVuSans-30" transform="translate(63.623047 0)"/>
       <use xlink:href="#DejaVuSans-30" transform="translate(127.246094 0)"/>
      </g>
     </g>
    </g>
    <g id="xtick_5">
     <g id="line2d_5">
      <g>
       <use xlink:href="#m5731d7079a" x="356.676023" y="320.4" style="stroke: #000000; stroke-width: 0.8"/>
      </g>
     </g>
     <g id="text_5">
      <!-- 400 -->
      <g transform="translate(342.360398 338.797656) scale(0.15 -0.15)">
       <defs>
        <path id="DejaVuSans-34" d="M 2419 4116 
L 825 1625 
L 2419 1625 
L 2419 4116 
z
M 2253 4666 
L 3047 4666 
L 3047 1625 
L 3713 1625 
L 3713 1100 
L 3047 1100 
L 3047 0 
L 2419 0 
L 2419 1100 
L 313 1100 
L 313 1709 
L 2253 4666 
z
" transform="scale(0.015625)"/>
       </defs>
       <use xlink:href="#DejaVuSans-34"/>
       <use xlink:href="#DejaVuSans-30" transform="translate(63.623047 0)"/>
       <use xlink:href="#DejaVuSans-30" transform="translate(127.246094 0)"/>
      </g>
     </g>
    </g>
    <g id="xtick_6">
     <g id="line2d_6">
      <g>
       <use xlink:href="#m5731d7079a" x="427.694205" y="320.4" style="stroke: #000000; stroke-width: 0.8"/>
      </g>
     </g>
     <g id="text_6">
      <!-- 500 -->
      <g transform="translate(413.37858 338.797656) scale(0.15 -0.15)">
       <defs>
        <path id="DejaVuSans-35" d="M 691 4666 
L 3169 4666 
L 3169 4134 
L 1269 4134 
L 1269 2991 
Q 1406 3038 1543 3061 
Q 1681 3084 1819 3084 
Q 2600 3084 3056 2656 
Q 3513 2228 3513 1497 
Q 3513 744 3044 326 
Q 2575 -91 1722 -91 
Q 1428 -91 1123 -41 
Q 819 9 494 109 
L 494 744 
Q 775 591 1075 516 
Q 1375 441 1709 441 
Q 2250 441 2565 725 
Q 2881 1009 2881 1497 
Q 2881 1984 2565 2268 
Q 2250 2553 1709 2553 
Q 1456 2553 1204 2497 
Q 953 2441 691 2322 
L 691 4666 
z
" transform="scale(0.015625)"/>
       </defs>
       <use xlink:href="#DejaVuSans-35"/>
       <use xlink:href="#DejaVuSans-30" transform="translate(63.623047 0)"/>
       <use xlink:href="#DejaVuSans-30" transform="translate(127.246094 0)"/>
      </g>
     </g>
    </g>
    <g id="text_7">
     <!-- time [hr] -->
     <g transform="translate(205.074219 359.594375) scale(0.18 -0.18)">
      <defs>
       <path id="DejaVuSans-Bold-74" d="M 1759 4494 
L 1759 3500 
L 2913 3500 
L 2913 2700 
L 1759 2700 
L 1759 1216 
Q 1759 972 1856 886 
Q 1953 800 2241 800 
L 2816 800 
L 2816 0 
L 1856 0 
Q 1194 0 917 276 
Q 641 553 641 1216 
L 641 2700 
L 84 2700 
L 84 3500 
L 641 3500 
L 641 4494 
L 1759 4494 
z
" transform="scale(0.015625)"/>
       <path id="DejaVuSans-Bold-69" d="M 538 3500 
L 1656 3500 
L 1656 0 
L 538 0 
L 538 3500 
z
M 538 4863 
L 1656 4863 
L 1656 3950 
L 538 3950 
L 538 4863 
z
" transform="scale(0.015625)"/>
       <path id="DejaVuSans-Bold-6d" d="M 3781 2919 
Q 3994 3244 4286 3414 
Q 4578 3584 4928 3584 
Q 5531 3584 5847 3212 
Q 6163 2841 6163 2131 
L 6163 0 
L 5038 0 
L 5038 1825 
Q 5041 1866 5042 1909 
Q 5044 1953 5044 2034 
Q 5044 2406 4934 2573 
Q 4825 2741 4581 2741 
Q 4263 2741 4089 2478 
Q 3916 2216 3909 1719 
L 3909 0 
L 2784 0 
L 2784 1825 
Q 2784 2406 2684 2573 
Q 2584 2741 2328 2741 
Q 2006 2741 1831 2477 
Q 1656 2213 1656 1722 
L 1656 0 
L 531 0 
L 531 3500 
L 1656 3500 
L 1656 2988 
Q 1863 3284 2130 3434 
Q 2397 3584 2719 3584 
Q 3081 3584 3359 3409 
Q 3638 3234 3781 2919 
z
" transform="scale(0.015625)"/>
       <path id="DejaVuSans-Bold-65" d="M 4031 1759 
L 4031 1441 
L 1416 1441 
Q 1456 1047 1700 850 
Q 1944 653 2381 653 
Q 2734 653 3104 758 
Q 3475 863 3866 1075 
L 3866 213 
Q 3469 63 3072 -14 
Q 2675 -91 2278 -91 
Q 1328 -91 801 392 
Q 275 875 275 1747 
Q 275 2603 792 3093 
Q 1309 3584 2216 3584 
Q 3041 3584 3536 3087 
Q 4031 2591 4031 1759 
z
M 2881 2131 
Q 2881 2450 2695 2645 
Q 2509 2841 2209 2841 
Q 1884 2841 1681 2658 
Q 1478 2475 1428 2131 
L 2881 2131 
z
" transform="scale(0.015625)"/>
       <path id="DejaVuSans-Bold-20" transform="scale(0.015625)"/>
       <path id="DejaVuSans-Bold-5b" d="M 550 4863 
L 2491 4863 
L 2491 4159 
L 1613 4159 
L 1613 -141 
L 2491 -141 
L 2491 -844 
L 550 -844 
L 550 4863 
z
" transform="scale(0.015625)"/>
       <path id="DejaVuSans-Bold-68" d="M 4056 2131 
L 4056 0 
L 2931 0 
L 2931 347 
L 2931 1625 
Q 2931 2084 2911 2256 
Q 2891 2428 2841 2509 
Q 2775 2619 2662 2680 
Q 2550 2741 2406 2741 
Q 2056 2741 1856 2470 
Q 1656 2200 1656 1722 
L 1656 0 
L 538 0 
L 538 4863 
L 1656 4863 
L 1656 2988 
Q 1909 3294 2193 3439 
Q 2478 3584 2822 3584 
Q 3428 3584 3742 3212 
Q 4056 2841 4056 2131 
z
" transform="scale(0.015625)"/>
       <path id="DejaVuSans-Bold-72" d="M 3138 2547 
Q 2991 2616 2845 2648 
Q 2700 2681 2553 2681 
Q 2122 2681 1889 2404 
Q 1656 2128 1656 1613 
L 1656 0 
L 538 0 
L 538 3500 
L 1656 3500 
L 1656 2925 
Q 1872 3269 2151 3426 
Q 2431 3584 2822 3584 
Q 2878 3584 2943 3579 
Q 3009 3575 3134 3559 
L 3138 2547 
z
" transform="scale(0.015625)"/>
       <path id="DejaVuSans-Bold-5d" d="M 2375 -844 
L 434 -844 
L 434 -141 
L 1313 -141 
L 1313 4159 
L 434 4159 
L 434 4863 
L 2375 4863 
L 2375 -844 
z
" transform="scale(0.015625)"/>
      </defs>
      <use xlink:href="#DejaVuSans-Bold-74"/>
      <use xlink:href="#DejaVuSans-Bold-69" transform="translate(47.802734 0)"/>
      <use xlink:href="#DejaVuSans-Bold-6d" transform="translate(82.080078 0)"/>
      <use xlink:href="#DejaVuSans-Bold-65" transform="translate(186.279297 0)"/>
      <use xlink:href="#DejaVuSans-Bold-20" transform="translate(254.101562 0)"/>
      <use xlink:href="#DejaVuSans-Bold-5b" transform="translate(288.916016 0)"/>
      <use xlink:href="#DejaVuSans-Bold-68" transform="translate(334.619141 0)"/>
      <use xlink:href="#DejaVuSans-Bold-72" transform="translate(405.810547 0)"/>
      <use xlink:href="#DejaVuSans-Bold-5d" transform="translate(455.126953 0)"/>
     </g>
    </g>
   </g>
   <g id="matplotlib.axis_2">
    <g id="ytick_1">
     <g id="line2d_7">
      <defs>
       <path id="m4c1796cdfd" d="M 0 0 
L -3.5 0 
" style="stroke: #000000; stroke-width: 0.8"/>
      </defs>
      <g>
       <use xlink:href="#m4c1796cdfd" x="54.84875" y="307.8" style="stroke: #000000; stroke-width: 0.8"/>
      </g>
     </g>
     <g id="text_8">
      <!-- 0 -->
      <g transform="translate(38.305 313.498828) scale(0.15 -0.15)">
       <use xlink:href="#DejaVuSans-30"/>
      </g>
     </g>
    </g>
    <g id="ytick_2">
     <g id="line2d_8">
      <g>
       <use xlink:href="#m4c1796cdfd" x="54.84875" y="267.21851" style="stroke: #000000; stroke-width: 0.8"/>
      </g>
     </g>
     <g id="text_9">
      <!-- 5 -->
      <g transform="translate(38.305 272.917338) scale(0.15 -0.15)">
       <use xlink:href="#DejaVuSans-35"/>
      </g>
     </g>
    </g>
    <g id="ytick_3">
     <g id="line2d_9">
      <g>
       <use xlink:href="#m4c1796cdfd" x="54.84875" y="226.637019" style="stroke: #000000; stroke-width: 0.8"/>
      </g>
     </g>
     <g id="text_10">
      <!-- 10 -->
      <g transform="translate(28.76125 232.335848) scale(0.15 -0.15)">
       <use xlink:href="#DejaVuSans-31"/>
       <use xlink:href="#DejaVuSans-30" transform="translate(63.623047 0)"/>
      </g>
     </g>
    </g>
    <g id="ytick_4">
     <g id="line2d_10">
      <g>
       <use xlink:href="#m4c1796cdfd" x="54.84875" y="186.055529" style="stroke: #000000; stroke-width: 0.8"/>
      </g>
     </g>
     <g id="text_11">
      <!-- 15 -->
      <g transform="translate(28.76125 191.754357) scale(0.15 -0.15)">
       <use xlink:href="#DejaVuSans-31"/>
       <use xlink:href="#DejaVuSans-35" transform="translate(63.623047 0)"/>
      </g>
     </g>
    </g>
    <g id="ytick_5">
     <g id="line2d_11">
      <g>
       <use xlink:href="#m4c1796cdfd" x="54.84875" y="145.474039" style="stroke: #000000; stroke-width: 0.8"/>
      </g>
     </g>
     <g id="text_12">
      <!-- 20 -->
      <g transform="translate(28.76125 151.172867) scale(0.15 -0.15)">
       <use xlink:href="#DejaVuSans-32"/>
       <use xlink:href="#DejaVuSans-30" transform="translate(63.623047 0)"/>
      </g>
     </g>
    </g>
    <g id="ytick_6">
     <g id="line2d_12">
      <g>
       <use xlink:href="#m4c1796cdfd" x="54.84875" y="104.892549" style="stroke: #000000; stroke-width: 0.8"/>
      </g>
     </g>
     <g id="text_13">
      <!-- 25 -->
      <g transform="translate(28.76125 110.591377) scale(0.15 -0.15)">
       <use xlink:href="#DejaVuSans-32"/>
       <use xlink:href="#DejaVuSans-35" transform="translate(63.623047 0)"/>
      </g>
     </g>
    </g>
    <g id="ytick_7">
     <g id="line2d_13">
      <g>
       <use xlink:href="#m4c1796cdfd" x="54.84875" y="64.311058" style="stroke: #000000; stroke-width: 0.8"/>
      </g>
     </g>
     <g id="text_14">
      <!-- 30 -->
      <g transform="translate(28.76125 70.009887) scale(0.15 -0.15)">
       <use xlink:href="#DejaVuSans-33"/>
       <use xlink:href="#DejaVuSans-30" transform="translate(63.623047 0)"/>
      </g>
     </g>
    </g>
    <g id="text_15">
     <!-- rapamycin blood [nM] -->
     <g transform="translate(20.877187 293.092031) rotate(-90) scale(0.18 -0.18)">
      <defs>
       <path id="DejaVuSans-Bold-61" d="M 2106 1575 
Q 1756 1575 1579 1456 
Q 1403 1338 1403 1106 
Q 1403 894 1545 773 
Q 1688 653 1941 653 
Q 2256 653 2472 879 
Q 2688 1106 2688 1447 
L 2688 1575 
L 2106 1575 
z
M 3816 1997 
L 3816 0 
L 2688 0 
L 2688 519 
Q 2463 200 2181 54 
Q 1900 -91 1497 -91 
Q 953 -91 614 226 
Q 275 544 275 1050 
Q 275 1666 698 1953 
Q 1122 2241 2028 2241 
L 2688 2241 
L 2688 2328 
Q 2688 2594 2478 2717 
Q 2269 2841 1825 2841 
Q 1466 2841 1156 2769 
Q 847 2697 581 2553 
L 581 3406 
Q 941 3494 1303 3539 
Q 1666 3584 2028 3584 
Q 2975 3584 3395 3211 
Q 3816 2838 3816 1997 
z
" transform="scale(0.015625)"/>
       <path id="DejaVuSans-Bold-70" d="M 1656 506 
L 1656 -1331 
L 538 -1331 
L 538 3500 
L 1656 3500 
L 1656 2988 
Q 1888 3294 2169 3439 
Q 2450 3584 2816 3584 
Q 3463 3584 3878 3070 
Q 4294 2556 4294 1747 
Q 4294 938 3878 423 
Q 3463 -91 2816 -91 
Q 2450 -91 2169 54 
Q 1888 200 1656 506 
z
M 2400 2772 
Q 2041 2772 1848 2508 
Q 1656 2244 1656 1747 
Q 1656 1250 1848 986 
Q 2041 722 2400 722 
Q 2759 722 2948 984 
Q 3138 1247 3138 1747 
Q 3138 2247 2948 2509 
Q 2759 2772 2400 2772 
z
" transform="scale(0.015625)"/>
       <path id="DejaVuSans-Bold-79" d="M 78 3500 
L 1197 3500 
L 2138 1125 
L 2938 3500 
L 4056 3500 
L 2584 -331 
Q 2363 -916 2067 -1148 
Q 1772 -1381 1288 -1381 
L 641 -1381 
L 641 -647 
L 991 -647 
Q 1275 -647 1404 -556 
Q 1534 -466 1606 -231 
L 1638 -134 
L 78 3500 
z
" transform="scale(0.015625)"/>
       <path id="DejaVuSans-Bold-63" d="M 3366 3391 
L 3366 2478 
Q 3138 2634 2908 2709 
Q 2678 2784 2431 2784 
Q 1963 2784 1702 2511 
Q 1441 2238 1441 1747 
Q 1441 1256 1702 982 
Q 1963 709 2431 709 
Q 2694 709 2930 787 
Q 3166 866 3366 1019 
L 3366 103 
Q 3103 6 2833 -42 
Q 2563 -91 2291 -91 
Q 1344 -91 809 395 
Q 275 881 275 1747 
Q 275 2613 809 3098 
Q 1344 3584 2291 3584 
Q 2566 3584 2833 3536 
Q 3100 3488 3366 3391 
z
" transform="scale(0.015625)"/>
       <path id="DejaVuSans-Bold-6e" d="M 4056 2131 
L 4056 0 
L 2931 0 
L 2931 347 
L 2931 1631 
Q 2931 2084 2911 2256 
Q 2891 2428 2841 2509 
Q 2775 2619 2662 2680 
Q 2550 2741 2406 2741 
Q 2056 2741 1856 2470 
Q 1656 2200 1656 1722 
L 1656 0 
L 538 0 
L 538 3500 
L 1656 3500 
L 1656 2988 
Q 1909 3294 2193 3439 
Q 2478 3584 2822 3584 
Q 3428 3584 3742 3212 
Q 4056 2841 4056 2131 
z
" transform="scale(0.015625)"/>
       <path id="DejaVuSans-Bold-62" d="M 2400 722 
Q 2759 722 2948 984 
Q 3138 1247 3138 1747 
Q 3138 2247 2948 2509 
Q 2759 2772 2400 2772 
Q 2041 2772 1848 2508 
Q 1656 2244 1656 1747 
Q 1656 1250 1848 986 
Q 2041 722 2400 722 
z
M 1656 2988 
Q 1888 3294 2169 3439 
Q 2450 3584 2816 3584 
Q 3463 3584 3878 3070 
Q 4294 2556 4294 1747 
Q 4294 938 3878 423 
Q 3463 -91 2816 -91 
Q 2450 -91 2169 54 
Q 1888 200 1656 506 
L 1656 0 
L 538 0 
L 538 4863 
L 1656 4863 
L 1656 2988 
z
" transform="scale(0.015625)"/>
       <path id="DejaVuSans-Bold-6c" d="M 538 4863 
L 1656 4863 
L 1656 0 
L 538 0 
L 538 4863 
z
" transform="scale(0.015625)"/>
       <path id="DejaVuSans-Bold-6f" d="M 2203 2784 
Q 1831 2784 1636 2517 
Q 1441 2250 1441 1747 
Q 1441 1244 1636 976 
Q 1831 709 2203 709 
Q 2569 709 2762 976 
Q 2956 1244 2956 1747 
Q 2956 2250 2762 2517 
Q 2569 2784 2203 2784 
z
M 2203 3584 
Q 3106 3584 3614 3096 
Q 4122 2609 4122 1747 
Q 4122 884 3614 396 
Q 3106 -91 2203 -91 
Q 1297 -91 786 396 
Q 275 884 275 1747 
Q 275 2609 786 3096 
Q 1297 3584 2203 3584 
z
" transform="scale(0.015625)"/>
       <path id="DejaVuSans-Bold-64" d="M 2919 2988 
L 2919 4863 
L 4044 4863 
L 4044 0 
L 2919 0 
L 2919 506 
Q 2688 197 2409 53 
Q 2131 -91 1766 -91 
Q 1119 -91 703 423 
Q 288 938 288 1747 
Q 288 2556 703 3070 
Q 1119 3584 1766 3584 
Q 2128 3584 2408 3439 
Q 2688 3294 2919 2988 
z
M 2181 722 
Q 2541 722 2730 984 
Q 2919 1247 2919 1747 
Q 2919 2247 2730 2509 
Q 2541 2772 2181 2772 
Q 1825 2772 1636 2509 
Q 1447 2247 1447 1747 
Q 1447 1247 1636 984 
Q 1825 722 2181 722 
z
" transform="scale(0.015625)"/>
       <path id="DejaVuSans-Bold-4d" d="M 588 4666 
L 2119 4666 
L 3181 2169 
L 4250 4666 
L 5778 4666 
L 5778 0 
L 4641 0 
L 4641 3413 
L 3566 897 
L 2803 897 
L 1728 3413 
L 1728 0 
L 588 0 
L 588 4666 
z
" transform="scale(0.015625)"/>
      </defs>
      <use xlink:href="#DejaVuSans-Bold-72"/>
      <use xlink:href="#DejaVuSans-Bold-61" transform="translate(49.316406 0)"/>
      <use xlink:href="#DejaVuSans-Bold-70" transform="translate(116.796875 0)"/>
      <use xlink:href="#DejaVuSans-Bold-61" transform="translate(188.378906 0)"/>
      <use xlink:href="#DejaVuSans-Bold-6d" transform="translate(255.859375 0)"/>
      <use xlink:href="#DejaVuSans-Bold-79" transform="translate(360.058594 0)"/>
      <use xlink:href="#DejaVuSans-Bold-63" transform="translate(425.244141 0)"/>
      <use xlink:href="#DejaVuSans-Bold-69" transform="translate(484.521484 0)"/>
      <use xlink:href="#DejaVuSans-Bold-6e" transform="translate(518.798828 0)"/>
      <use xlink:href="#DejaVuSans-Bold-20" transform="translate(589.990234 0)"/>
      <use xlink:href="#DejaVuSans-Bold-62" transform="translate(624.804688 0)"/>
      <use xlink:href="#DejaVuSans-Bold-6c" transform="translate(696.386719 0)"/>
      <use xlink:href="#DejaVuSans-Bold-6f" transform="translate(730.664062 0)"/>
      <use xlink:href="#DejaVuSans-Bold-6f" transform="translate(799.365234 0)"/>
      <use xlink:href="#DejaVuSans-Bold-64" transform="translate(868.066406 0)"/>
      <use xlink:href="#DejaVuSans-Bold-20" transform="translate(939.648438 0)"/>
      <use xlink:href="#DejaVuSans-Bold-5b" transform="translate(974.462891 0)"/>
      <use xlink:href="#DejaVuSans-Bold-6e" transform="translate(1020.166016 0)"/>
      <use xlink:href="#DejaVuSans-Bold-4d" transform="translate(1091.357422 0)"/>
      <use xlink:href="#DejaVuSans-Bold-5d" transform="translate(1190.869141 0)"/>
     </g>
    </g>
   </g>
   <g id="LineCollection_1">
    <path clip-path="url(#pf6e305b88f)" style="fill: none; stroke: #000000"/>
    <path d="M 72.958386 298.059519 
L 72.958386 289.684076 
" clip-path="url(#pf6e305b88f)" style="fill: none; stroke: #000000"/>
    <path d="M 73.313477 283.647771 
L 73.313477 266.820815 
" clip-path="url(#pf6e305b88f)" style="fill: none; stroke: #000000"/>
    <path d="M 73.668568 272.07555 
L 73.668568 254.849129 
" clip-path="url(#pf6e305b88f)" style="fill: none; stroke: #000000"/>
    <path clip-path="url(#pf6e305b88f)" style="fill: none; stroke: #000000"/>
    <path clip-path="url(#pf6e305b88f)" style="fill: none; stroke: #000000"/>
    <path clip-path="url(#pf6e305b88f)" style="fill: none; stroke: #000000"/>
    <path clip-path="url(#pf6e305b88f)" style="fill: none; stroke: #000000"/>
    <path d="M 76.864386 274.334347 
L 76.864386 263.141872 
" clip-path="url(#pf6e305b88f)" style="fill: none; stroke: #000000"/>
    <path d="M 78.28475 283.401323 
L 78.28475 274.066635 
" clip-path="url(#pf6e305b88f)" style="fill: none; stroke: #000000"/>
    <path d="M 79.705114 288.595883 
L 79.705114 280.811341 
" clip-path="url(#pf6e305b88f)" style="fill: none; stroke: #000000"/>
    <path d="M 81.125477 292.168408 
L 81.125477 286.321939 
" clip-path="url(#pf6e305b88f)" style="fill: none; stroke: #000000"/>
    <path d="M 83.966205 295.3705 
L 83.966205 290.416908 
" clip-path="url(#pf6e305b88f)" style="fill: none; stroke: #000000"/>
    <path d="M 89.647659 298.968191 
L 89.647659 295.398649 
" clip-path="url(#pf6e305b88f)" style="fill: none; stroke: #000000"/>
    <path d="M 106.692023 302.085813 
L 106.692023 299.959611 
" clip-path="url(#pf6e305b88f)" style="fill: none; stroke: #000000"/>
    <path d="M 123.736386 303.377441 
L 123.736386 301.685105 
" clip-path="url(#pf6e305b88f)" style="fill: none; stroke: #000000"/>
    <path d="M 140.78075 304.244881 
L 140.78075 302.702307 
" clip-path="url(#pf6e305b88f)" style="fill: none; stroke: #000000"/>
    <path d="M 157.825114 305.067452 
L 157.825114 303.805771 
" clip-path="url(#pf6e305b88f)" style="fill: none; stroke: #000000"/>
    <path d="M 174.869477 305.447808 
L 174.869477 304.253513 
" clip-path="url(#pf6e305b88f)" style="fill: none; stroke: #000000"/>
    <path d="M 191.913841 305.84342 
L 191.913841 304.696077 
" clip-path="url(#pf6e305b88f)" style="fill: none; stroke: #000000"/>
    <path d="M 208.958205 306.116414 
L 208.958205 305.189425 
" clip-path="url(#pf6e305b88f)" style="fill: none; stroke: #000000"/>
    <path d="M 226.002568 306.370186 
L 226.002568 305.585944 
" clip-path="url(#pf6e305b88f)" style="fill: none; stroke: #000000"/>
    <path d="M 243.046932 306.768676 
L 243.046932 305.998545 
" clip-path="url(#pf6e305b88f)" style="fill: none; stroke: #000000"/>
    <path d="M 260.091295 307.037211 
L 260.091295 306.211053 
" clip-path="url(#pf6e305b88f)" style="fill: none; stroke: #000000"/>
    <path d="M 277.135659 307.22892 
L 277.135659 306.481778 
" clip-path="url(#pf6e305b88f)" style="fill: none; stroke: #000000"/>
    <path clip-path="url(#pf6e305b88f)" style="fill: none; stroke: #000000"/>
    <path clip-path="url(#pf6e305b88f)" style="fill: none; stroke: #000000"/>
    <path clip-path="url(#pf6e305b88f)" style="fill: none; stroke: #000000"/>
    <path clip-path="url(#pf6e305b88f)" style="fill: none; stroke: #000000"/>
    <path clip-path="url(#pf6e305b88f)" style="fill: none; stroke: #000000"/>
    <path clip-path="url(#pf6e305b88f)" style="fill: none; stroke: #000000"/>
    <path clip-path="url(#pf6e305b88f)" style="fill: none; stroke: #000000"/>
    <path clip-path="url(#pf6e305b88f)" style="fill: none; stroke: #000000"/>
   </g>
   <g id="LineCollection_2">
    <path clip-path="url(#pf6e305b88f)" style="fill: none; stroke: #e3256b"/>
    <path d="M 72.958386 307.657333 
L 72.958386 303.264861 
" clip-path="url(#pf6e305b88f)" style="fill: none; stroke: #e3256b"/>
    <path d="M 73.313477 294.632318 
L 73.313477 289.586278 
" clip-path="url(#pf6e305b88f)" style="fill: none; stroke: #e3256b"/>
    <path d="M 73.668568 280.628372 
L 73.668568 263.150895 
" clip-path="url(#pf6e305b88f)" style="fill: none; stroke: #e3256b"/>
    <path d="M 74.023659 255.243497 
L 74.023659 244.681618 
" clip-path="url(#pf6e305b88f)" style="fill: none; stroke: #e3256b"/>
    <path d="M 74.37875 243.432479 
L 74.37875 231.081303 
" clip-path="url(#pf6e305b88f)" style="fill: none; stroke: #e3256b"/>
    <path clip-path="url(#pf6e305b88f)" style="fill: none; stroke: #e3256b"/>
    <path clip-path="url(#pf6e305b88f)" style="fill: none; stroke: #e3256b"/>
    <path d="M 76.864386 224.760907 
L 76.864386 199.338553 
" clip-path="url(#pf6e305b88f)" style="fill: none; stroke: #e3256b"/>
    <path clip-path="url(#pf6e305b88f)" style="fill: none; stroke: #e3256b"/>
    <path d="M 79.705114 236.800157 
L 79.705114 225.113064 
" clip-path="url(#pf6e305b88f)" style="fill: none; stroke: #e3256b"/>
    <path clip-path="url(#pf6e305b88f)" style="fill: none; stroke: #e3256b"/>
    <path d="M 83.966205 248.018465 
L 83.966205 242.725245 
" clip-path="url(#pf6e305b88f)" style="fill: none; stroke: #e3256b"/>
    <path d="M 89.647659 259.629001 
L 89.647659 253.602836 
" clip-path="url(#pf6e305b88f)" style="fill: none; stroke: #e3256b"/>
    <path d="M 106.692023 271.880798 
L 106.692023 267.605988 
" clip-path="url(#pf6e305b88f)" style="fill: none; stroke: #e3256b"/>
    <path d="M 123.736386 277.375521 
L 123.736386 273.291751 
" clip-path="url(#pf6e305b88f)" style="fill: none; stroke: #e3256b"/>
    <path d="M 140.78075 279.800576 
L 140.78075 276.553562 
" clip-path="url(#pf6e305b88f)" style="fill: none; stroke: #e3256b"/>
    <path clip-path="url(#pf6e305b88f)" style="fill: none; stroke: #e3256b"/>
    <path d="M 174.869477 283.247576 
L 174.869477 280.400301 
" clip-path="url(#pf6e305b88f)" style="fill: none; stroke: #e3256b"/>
    <path d="M 191.913841 284.456643 
L 191.913841 281.820665 
" clip-path="url(#pf6e305b88f)" style="fill: none; stroke: #e3256b"/>
    <path d="M 208.958205 286.6954 
L 208.958205 284.312226 
" clip-path="url(#pf6e305b88f)" style="fill: none; stroke: #e3256b"/>
    <path d="M 226.002568 287.702249 
L 226.002568 285.432771 
" clip-path="url(#pf6e305b88f)" style="fill: none; stroke: #e3256b"/>
    <path d="M 243.046932 289.233664 
L 243.046932 287.024051 
" clip-path="url(#pf6e305b88f)" style="fill: none; stroke: #e3256b"/>
    <path d="M 260.091295 290.965435 
L 260.091295 288.296536 
" clip-path="url(#pf6e305b88f)" style="fill: none; stroke: #e3256b"/>
    <path d="M 277.135659 291.730524 
L 277.135659 289.475847 
" clip-path="url(#pf6e305b88f)" style="fill: none; stroke: #e3256b"/>
    <path d="M 294.180023 292.440244 
L 294.180023 290.70579 
" clip-path="url(#pf6e305b88f)" style="fill: none; stroke: #e3256b"/>
    <path d="M 311.224386 293.74717 
L 311.224386 292.331543 
" clip-path="url(#pf6e305b88f)" style="fill: none; stroke: #e3256b"/>
    <path d="M 328.26875 293.845788 
L 328.26875 292.142594 
" clip-path="url(#pf6e305b88f)" style="fill: none; stroke: #e3256b"/>
    <path d="M 345.313114 294.834721 
L 345.313114 293.331174 
" clip-path="url(#pf6e305b88f)" style="fill: none; stroke: #e3256b"/>
    <path d="M 362.357477 295.307568 
L 362.357477 294.087202 
" clip-path="url(#pf6e305b88f)" style="fill: none; stroke: #e3256b"/>
    <path d="M 379.401841 296.430872 
L 379.401841 295.112427 
" clip-path="url(#pf6e305b88f)" style="fill: none; stroke: #e3256b"/>
    <path d="M 396.446205 297.243664 
L 396.446205 295.79462 
" clip-path="url(#pf6e305b88f)" style="fill: none; stroke: #e3256b"/>
    <path d="M 413.490568 297.368119 
L 413.490568 296.349045 
" clip-path="url(#pf6e305b88f)" style="fill: none; stroke: #e3256b"/>
   </g>
   <g id="line2d_14">
    <path d="M 72.603295 307.8 
L 73.07675 265.722432 
L 73.313477 260.648733 
L 73.431841 260.133104 
L 73.550205 260.383698 
L 73.786932 262.165717 
L 75.088932 274.608123 
L 75.799114 278.649409 
L 76.509295 281.417095 
L 77.337841 283.775971 
L 78.403114 286.109486 
L 79.705114 288.431782 
L 81.362205 290.929447 
L 83.137659 293.220368 
L 85.031477 295.316124 
L 87.043659 297.212672 
L 89.174205 298.907522 
L 91.423114 300.403066 
L 93.790386 301.706428 
L 96.394386 302.876497 
L 99.235114 303.898259 
L 102.312568 304.767333 
L 105.863477 305.53246 
L 109.887841 306.169017 
L 114.74075 306.703823 
L 120.658932 307.124802 
L 128.470932 307.443846 
L 139.597114 307.656784 
L 158.772023 307.770205 
L 216.651841 307.799739 
L 427.694205 307.8 
L 427.694205 307.8 
" clip-path="url(#pf6e305b88f)" style="fill: none; stroke: #000000; stroke-width: 2; stroke-linecap: square"/>
   </g>
   <g id="line2d_15">
    <path d="M 72.958386 293.871798 
L 73.313477 275.234293 
L 73.668568 263.46234 
M 74.733841 251.359059 
L 75.444023 257.553768 
L 76.864386 268.73811 
L 78.28475 278.733979 
L 79.705114 284.703612 
L 81.125477 289.245173 
L 83.966205 292.893704 
L 89.647659 297.18342 
L 106.692023 301.022712 
L 123.736386 302.531273 
L 140.78075 303.473594 
L 157.825114 304.436612 
L 174.869477 304.850661 
L 191.913841 305.269748 
L 208.958205 305.652919 
L 226.002568 305.978065 
L 243.046932 306.38361 
L 260.091295 306.624132 
L 277.135659 306.855349 
" clip-path="url(#pf6e305b88f)" style="fill: none; stroke-dasharray: 3.7,1.6; stroke-dashoffset: 0; stroke: #000000"/>
    <defs>
     <path id="mf17d54ebb1" d="M -3 3 
L 3 3 
L 3 -3 
L -3 -3 
z
" style="stroke: #000000; stroke-linejoin: miter"/>
    </defs>
    <g clip-path="url(#pf6e305b88f)">
     <use xlink:href="#mf17d54ebb1" x="72.958386" y="293.871798" style="stroke: #000000; stroke-linejoin: miter"/>
     <use xlink:href="#mf17d54ebb1" x="73.313477" y="275.234293" style="stroke: #000000; stroke-linejoin: miter"/>
     <use xlink:href="#mf17d54ebb1" x="73.668568" y="263.46234" style="stroke: #000000; stroke-linejoin: miter"/>
     <use xlink:href="#mf17d54ebb1" x="74.733841" y="251.359059" style="stroke: #000000; stroke-linejoin: miter"/>
     <use xlink:href="#mf17d54ebb1" x="75.444023" y="257.553768" style="stroke: #000000; stroke-linejoin: miter"/>
     <use xlink:href="#mf17d54ebb1" x="76.864386" y="268.73811" style="stroke: #000000; stroke-linejoin: miter"/>
     <use xlink:href="#mf17d54ebb1" x="78.28475" y="278.733979" style="stroke: #000000; stroke-linejoin: miter"/>
     <use xlink:href="#mf17d54ebb1" x="79.705114" y="284.703612" style="stroke: #000000; stroke-linejoin: miter"/>
     <use xlink:href="#mf17d54ebb1" x="81.125477" y="289.245173" style="stroke: #000000; stroke-linejoin: miter"/>
     <use xlink:href="#mf17d54ebb1" x="83.966205" y="292.893704" style="stroke: #000000; stroke-linejoin: miter"/>
     <use xlink:href="#mf17d54ebb1" x="89.647659" y="297.18342" style="stroke: #000000; stroke-linejoin: miter"/>
     <use xlink:href="#mf17d54ebb1" x="106.692023" y="301.022712" style="stroke: #000000; stroke-linejoin: miter"/>
     <use xlink:href="#mf17d54ebb1" x="123.736386" y="302.531273" style="stroke: #000000; stroke-linejoin: miter"/>
     <use xlink:href="#mf17d54ebb1" x="140.78075" y="303.473594" style="stroke: #000000; stroke-linejoin: miter"/>
     <use xlink:href="#mf17d54ebb1" x="157.825114" y="304.436612" style="stroke: #000000; stroke-linejoin: miter"/>
     <use xlink:href="#mf17d54ebb1" x="174.869477" y="304.850661" style="stroke: #000000; stroke-linejoin: miter"/>
     <use xlink:href="#mf17d54ebb1" x="191.913841" y="305.269748" style="stroke: #000000; stroke-linejoin: miter"/>
     <use xlink:href="#mf17d54ebb1" x="208.958205" y="305.652919" style="stroke: #000000; stroke-linejoin: miter"/>
     <use xlink:href="#mf17d54ebb1" x="226.002568" y="305.978065" style="stroke: #000000; stroke-linejoin: miter"/>
     <use xlink:href="#mf17d54ebb1" x="243.046932" y="306.38361" style="stroke: #000000; stroke-linejoin: miter"/>
     <use xlink:href="#mf17d54ebb1" x="260.091295" y="306.624132" style="stroke: #000000; stroke-linejoin: miter"/>
     <use xlink:href="#mf17d54ebb1" x="277.135659" y="306.855349" style="stroke: #000000; stroke-linejoin: miter"/>
    </g>
   </g>
   <g id="line2d_16">
    <path d="M 72.603295 307.8 
L 72.721659 295.232289 
L 73.431841 83.091553 
L 73.668568 61.120483 
L 73.905295 55.8 
L 74.023659 56.829914 
L 74.260386 62.787181 
L 75.562386 103.562671 
L 76.154205 113.849631 
L 76.746023 120.455733 
L 77.337841 124.865776 
L 78.048023 128.53561 
L 78.876568 131.655998 
L 80.060205 135.154054 
L 81.954023 139.942651 
L 85.386568 147.939986 
L 89.529295 157.041185 
L 93.790386 165.860722 
L 98.051477 174.164299 
L 102.312568 181.982123 
L 106.573659 189.342609 
L 110.953114 196.459108 
L 115.332568 203.148084 
L 119.712023 209.435219 
L 124.209841 215.499341 
L 128.707659 221.189621 
L 133.205477 226.529106 
L 137.821659 231.667014 
L 142.556205 236.599438 
L 147.29075 241.21231 
L 152.143659 245.630525 
L 157.114932 249.852703 
L 162.204568 253.878508 
L 167.412568 257.70858 
L 172.738932 261.344459 
L 178.183659 264.788516 
L 183.74675 268.043873 
L 189.428205 271.114332 
L 195.346386 274.060838 
L 201.501295 276.874435 
L 207.892932 279.548177 
L 214.521295 282.077049 
L 221.386386 284.457864 
L 228.606568 286.724463 
L 236.181841 288.866324 
L 244.112205 290.875749 
L 252.516023 292.772907 
L 261.393295 294.546472 
L 270.862386 296.208177 
L 280.923295 297.746073 
L 291.81275 299.181554 
L 303.53075 300.498174 
L 316.314023 301.706193 
L 330.280932 302.798809 
L 345.786568 303.783906 
L 363.067659 304.654964 
L 382.716023 305.418216 
L 405.441841 306.073086 
L 427.694205 306.539485 
L 427.694205 306.539485 
" clip-path="url(#pf6e305b88f)" style="fill: none; stroke: #e3256b; stroke-width: 2; stroke-linecap: square"/>
   </g>
   <g id="line2d_17">
    <path d="M 72.958386 305.461097 
L 73.313477 292.109298 
L 73.668568 271.889633 
L 74.023659 249.962558 
L 74.37875 237.256891 
L 74.733841 228.572664 
L 75.444023 214.646684 
L 76.864386 212.04973 
L 78.28475 221.760057 
L 79.705114 230.956611 
L 81.125477 237.256891 
L 83.966205 245.371855 
L 89.647659 256.615918 
L 106.692023 269.743393 
L 123.736386 275.333636 
L 140.78075 278.177069 
M 174.869477 281.823939 
L 191.913841 283.138654 
L 208.958205 285.503813 
L 226.002568 286.56751 
L 243.046932 288.128858 
L 260.091295 289.630985 
L 277.135659 290.603186 
L 294.180023 291.573017 
L 311.224386 293.039356 
L 328.26875 292.994191 
L 345.313114 294.082948 
L 362.357477 294.697385 
L 379.401841 295.77165 
L 396.446205 296.519142 
L 413.490568 296.858582 
" clip-path="url(#pf6e305b88f)" style="fill: none; stroke-dasharray: 3.7,1.6; stroke-dashoffset: 0; stroke: #e3256b"/>
    <defs>
     <path id="mcf3150f088" d="M -3 3 
L 3 3 
L 3 -3 
L -3 -3 
z
" style="stroke: #000000; stroke-linejoin: miter"/>
    </defs>
    <g clip-path="url(#pf6e305b88f)">
     <use xlink:href="#mcf3150f088" x="72.958386" y="305.461097" style="fill: #e3256b; stroke: #000000; stroke-linejoin: miter"/>
     <use xlink:href="#mcf3150f088" x="73.313477" y="292.109298" style="fill: #e3256b; stroke: #000000; stroke-linejoin: miter"/>
     <use xlink:href="#mcf3150f088" x="73.668568" y="271.889633" style="fill: #e3256b; stroke: #000000; stroke-linejoin: miter"/>
     <use xlink:href="#mcf3150f088" x="74.023659" y="249.962558" style="fill: #e3256b; stroke: #000000; stroke-linejoin: miter"/>
     <use xlink:href="#mcf3150f088" x="74.37875" y="237.256891" style="fill: #e3256b; stroke: #000000; stroke-linejoin: miter"/>
     <use xlink:href="#mcf3150f088" x="74.733841" y="228.572664" style="fill: #e3256b; stroke: #000000; stroke-linejoin: miter"/>
     <use xlink:href="#mcf3150f088" x="75.444023" y="214.646684" style="fill: #e3256b; stroke: #000000; stroke-linejoin: miter"/>
     <use xlink:href="#mcf3150f088" x="76.864386" y="212.04973" style="fill: #e3256b; stroke: #000000; stroke-linejoin: miter"/>
     <use xlink:href="#mcf3150f088" x="78.28475" y="221.760057" style="fill: #e3256b; stroke: #000000; stroke-linejoin: miter"/>
     <use xlink:href="#mcf3150f088" x="79.705114" y="230.956611" style="fill: #e3256b; stroke: #000000; stroke-linejoin: miter"/>
     <use xlink:href="#mcf3150f088" x="81.125477" y="237.256891" style="fill: #e3256b; stroke: #000000; stroke-linejoin: miter"/>
     <use xlink:href="#mcf3150f088" x="83.966205" y="245.371855" style="fill: #e3256b; stroke: #000000; stroke-linejoin: miter"/>
     <use xlink:href="#mcf3150f088" x="89.647659" y="256.615918" style="fill: #e3256b; stroke: #000000; stroke-linejoin: miter"/>
     <use xlink:href="#mcf3150f088" x="106.692023" y="269.743393" style="fill: #e3256b; stroke: #000000; stroke-linejoin: miter"/>
     <use xlink:href="#mcf3150f088" x="123.736386" y="275.333636" style="fill: #e3256b; stroke: #000000; stroke-linejoin: miter"/>
     <use xlink:href="#mcf3150f088" x="140.78075" y="278.177069" style="fill: #e3256b; stroke: #000000; stroke-linejoin: miter"/>
     <use xlink:href="#mcf3150f088" x="174.869477" y="281.823939" style="fill: #e3256b; stroke: #000000; stroke-linejoin: miter"/>
     <use xlink:href="#mcf3150f088" x="191.913841" y="283.138654" style="fill: #e3256b; stroke: #000000; stroke-linejoin: miter"/>
     <use xlink:href="#mcf3150f088" x="208.958205" y="285.503813" style="fill: #e3256b; stroke: #000000; stroke-linejoin: miter"/>
     <use xlink:href="#mcf3150f088" x="226.002568" y="286.56751" style="fill: #e3256b; stroke: #000000; stroke-linejoin: miter"/>
     <use xlink:href="#mcf3150f088" x="243.046932" y="288.128858" style="fill: #e3256b; stroke: #000000; stroke-linejoin: miter"/>
     <use xlink:href="#mcf3150f088" x="260.091295" y="289.630985" style="fill: #e3256b; stroke: #000000; stroke-linejoin: miter"/>
     <use xlink:href="#mcf3150f088" x="277.135659" y="290.603186" style="fill: #e3256b; stroke: #000000; stroke-linejoin: miter"/>
     <use xlink:href="#mcf3150f088" x="294.180023" y="291.573017" style="fill: #e3256b; stroke: #000000; stroke-linejoin: miter"/>
     <use xlink:href="#mcf3150f088" x="311.224386" y="293.039356" style="fill: #e3256b; stroke: #000000; stroke-linejoin: miter"/>
     <use xlink:href="#mcf3150f088" x="328.26875" y="292.994191" style="fill: #e3256b; stroke: #000000; stroke-linejoin: miter"/>
     <use xlink:href="#mcf3150f088" x="345.313114" y="294.082948" style="fill: #e3256b; stroke: #000000; stroke-linejoin: miter"/>
     <use xlink:href="#mcf3150f088" x="362.357477" y="294.697385" style="fill: #e3256b; stroke: #000000; stroke-linejoin: miter"/>
     <use xlink:href="#mcf3150f088" x="379.401841" y="295.77165" style="fill: #e3256b; stroke: #000000; stroke-linejoin: miter"/>
     <use xlink:href="#mcf3150f088" x="396.446205" y="296.519142" style="fill: #e3256b; stroke: #000000; stroke-linejoin: miter"/>
     <use xlink:href="#mcf3150f088" x="413.490568" y="296.858582" style="fill: #e3256b; stroke: #000000; stroke-linejoin: miter"/>
    </g>
   </g>
   <g id="patch_3">
    <path d="M 54.84875 320.4 
L 54.84875 43.2 
" style="fill: none; stroke: #000000; stroke-width: 0.8; stroke-linejoin: miter; stroke-linecap: square"/>
   </g>
   <g id="patch_4">
    <path d="M 445.44875 320.4 
L 445.44875 43.2 
" style="fill: none; stroke: #000000; stroke-width: 0.8; stroke-linejoin: miter; stroke-linecap: square"/>
   </g>
   <g id="patch_5">
    <path d="M 54.84875 320.4 
L 445.44875 320.4 
" style="fill: none; stroke: #000000; stroke-width: 0.8; stroke-linejoin: miter; stroke-linecap: square"/>
   </g>
   <g id="patch_6">
    <path d="M 54.84875 43.2 
L 445.44875 43.2 
" style="fill: none; stroke: #000000; stroke-width: 0.8; stroke-linejoin: miter; stroke-linecap: square"/>
   </g>
   <g id="legend_1">
    <g id="patch_7">
     <path d="M 294.390938 110.46875 
L 438.44875 110.46875 
Q 440.44875 110.46875 440.44875 108.46875 
L 440.44875 50.2 
Q 440.44875 48.2 438.44875 48.2 
L 294.390938 48.2 
Q 292.390938 48.2 292.390938 50.2 
L 292.390938 108.46875 
Q 292.390938 110.46875 294.390938 110.46875 
z
" style="fill: #ffffff; opacity: 0.8; stroke: #cccccc; stroke-linejoin: miter"/>
    </g>
    <g id="line2d_18">
     <path d="M 296.390938 56.298437 
L 316.390938 56.298437 
" style="fill: none; stroke: #000000; stroke-width: 2; stroke-linecap: square"/>
    </g>
    <g id="line2d_19"/>
    <g id="text_16">
     <!-- RAP2 -->
     <g transform="translate(324.390938 59.798437) scale(0.1 -0.1)">
      <defs>
       <path id="DejaVuSans-52" d="M 2841 2188 
Q 3044 2119 3236 1894 
Q 3428 1669 3622 1275 
L 4263 0 
L 3584 0 
L 2988 1197 
Q 2756 1666 2539 1819 
Q 2322 1972 1947 1972 
L 1259 1972 
L 1259 0 
L 628 0 
L 628 4666 
L 2053 4666 
Q 2853 4666 3247 4331 
Q 3641 3997 3641 3322 
Q 3641 2881 3436 2590 
Q 3231 2300 2841 2188 
z
M 1259 4147 
L 1259 2491 
L 2053 2491 
Q 2509 2491 2742 2702 
Q 2975 2913 2975 3322 
Q 2975 3731 2742 3939 
Q 2509 4147 2053 4147 
L 1259 4147 
z
" transform="scale(0.015625)"/>
       <path id="DejaVuSans-41" d="M 2188 4044 
L 1331 1722 
L 3047 1722 
L 2188 4044 
z
M 1831 4666 
L 2547 4666 
L 4325 0 
L 3669 0 
L 3244 1197 
L 1141 1197 
L 716 0 
L 50 0 
L 1831 4666 
z
" transform="scale(0.015625)"/>
       <path id="DejaVuSans-50" d="M 1259 4147 
L 1259 2394 
L 2053 2394 
Q 2494 2394 2734 2622 
Q 2975 2850 2975 3272 
Q 2975 3691 2734 3919 
Q 2494 4147 2053 4147 
L 1259 4147 
z
M 628 4666 
L 2053 4666 
Q 2838 4666 3239 4311 
Q 3641 3956 3641 3272 
Q 3641 2581 3239 2228 
Q 2838 1875 2053 1875 
L 1259 1875 
L 1259 0 
L 628 0 
L 628 4666 
z
" transform="scale(0.015625)"/>
      </defs>
      <use xlink:href="#DejaVuSans-52"/>
      <use xlink:href="#DejaVuSans-41" transform="translate(65.482422 0)"/>
      <use xlink:href="#DejaVuSans-50" transform="translate(133.890625 0)"/>
      <use xlink:href="#DejaVuSans-32" transform="translate(194.193359 0)"/>
     </g>
    </g>
    <g id="LineCollection_3">
     <path d="M 306.390938 75.976562 
L 306.390938 65.976562 
" style="fill: none; stroke: #000000"/>
    </g>
    <g id="line2d_20">
     <path d="M 296.390938 70.976562 
L 316.390938 70.976562 
" style="fill: none; stroke-dasharray: 3.7,1.6; stroke-dashoffset: 0; stroke: #000000"/>
    </g>
    <g id="line2d_21">
     <g>
      <use xlink:href="#mf17d54ebb1" x="306.390938" y="70.976562" style="stroke: #000000; stroke-linejoin: miter"/>
     </g>
    </g>
    <g id="text_17">
     <!-- RAP2±SD (n=11) -->
     <g transform="translate(324.390938 74.476562) scale(0.1 -0.1)">
      <defs>
       <path id="DejaVuSans-b1" d="M 2944 4013 
L 2944 2803 
L 4684 2803 
L 4684 2272 
L 2944 2272 
L 2944 1063 
L 2419 1063 
L 2419 2272 
L 678 2272 
L 678 2803 
L 2419 2803 
L 2419 4013 
L 2944 4013 
z
M 678 531 
L 4684 531 
L 4684 0 
L 678 0 
L 678 531 
z
" transform="scale(0.015625)"/>
       <path id="DejaVuSans-53" d="M 3425 4513 
L 3425 3897 
Q 3066 4069 2747 4153 
Q 2428 4238 2131 4238 
Q 1616 4238 1336 4038 
Q 1056 3838 1056 3469 
Q 1056 3159 1242 3001 
Q 1428 2844 1947 2747 
L 2328 2669 
Q 3034 2534 3370 2195 
Q 3706 1856 3706 1288 
Q 3706 609 3251 259 
Q 2797 -91 1919 -91 
Q 1588 -91 1214 -16 
Q 841 59 441 206 
L 441 856 
Q 825 641 1194 531 
Q 1563 422 1919 422 
Q 2459 422 2753 634 
Q 3047 847 3047 1241 
Q 3047 1584 2836 1778 
Q 2625 1972 2144 2069 
L 1759 2144 
Q 1053 2284 737 2584 
Q 422 2884 422 3419 
Q 422 4038 858 4394 
Q 1294 4750 2059 4750 
Q 2388 4750 2728 4690 
Q 3069 4631 3425 4513 
z
" transform="scale(0.015625)"/>
       <path id="DejaVuSans-44" d="M 1259 4147 
L 1259 519 
L 2022 519 
Q 2988 519 3436 956 
Q 3884 1394 3884 2338 
Q 3884 3275 3436 3711 
Q 2988 4147 2022 4147 
L 1259 4147 
z
M 628 4666 
L 1925 4666 
Q 3281 4666 3915 4102 
Q 4550 3538 4550 2338 
Q 4550 1131 3912 565 
Q 3275 0 1925 0 
L 628 0 
L 628 4666 
z
" transform="scale(0.015625)"/>
       <path id="DejaVuSans-20" transform="scale(0.015625)"/>
       <path id="DejaVuSans-28" d="M 1984 4856 
Q 1566 4138 1362 3434 
Q 1159 2731 1159 2009 
Q 1159 1288 1364 580 
Q 1569 -128 1984 -844 
L 1484 -844 
Q 1016 -109 783 600 
Q 550 1309 550 2009 
Q 550 2706 781 3412 
Q 1013 4119 1484 4856 
L 1984 4856 
z
" transform="scale(0.015625)"/>
       <path id="DejaVuSans-6e" d="M 3513 2113 
L 3513 0 
L 2938 0 
L 2938 2094 
Q 2938 2591 2744 2837 
Q 2550 3084 2163 3084 
Q 1697 3084 1428 2787 
Q 1159 2491 1159 1978 
L 1159 0 
L 581 0 
L 581 3500 
L 1159 3500 
L 1159 2956 
Q 1366 3272 1645 3428 
Q 1925 3584 2291 3584 
Q 2894 3584 3203 3211 
Q 3513 2838 3513 2113 
z
" transform="scale(0.015625)"/>
       <path id="DejaVuSans-3d" d="M 678 2906 
L 4684 2906 
L 4684 2381 
L 678 2381 
L 678 2906 
z
M 678 1631 
L 4684 1631 
L 4684 1100 
L 678 1100 
L 678 1631 
z
" transform="scale(0.015625)"/>
       <path id="DejaVuSans-29" d="M 513 4856 
L 1013 4856 
Q 1481 4119 1714 3412 
Q 1947 2706 1947 2009 
Q 1947 1309 1714 600 
Q 1481 -109 1013 -844 
L 513 -844 
Q 928 -128 1133 580 
Q 1338 1288 1338 2009 
Q 1338 2731 1133 3434 
Q 928 4138 513 4856 
z
" transform="scale(0.015625)"/>
      </defs>
      <use xlink:href="#DejaVuSans-52"/>
      <use xlink:href="#DejaVuSans-41" transform="translate(65.482422 0)"/>
      <use xlink:href="#DejaVuSans-50" transform="translate(133.890625 0)"/>
      <use xlink:href="#DejaVuSans-32" transform="translate(194.193359 0)"/>
      <use xlink:href="#DejaVuSans-b1" transform="translate(257.816406 0)"/>
      <use xlink:href="#DejaVuSans-53" transform="translate(341.605469 0)"/>
      <use xlink:href="#DejaVuSans-44" transform="translate(405.082031 0)"/>
      <use xlink:href="#DejaVuSans-20" transform="translate(482.083984 0)"/>
      <use xlink:href="#DejaVuSans-28" transform="translate(513.871094 0)"/>
      <use xlink:href="#DejaVuSans-6e" transform="translate(552.884766 0)"/>
      <use xlink:href="#DejaVuSans-3d" transform="translate(616.263672 0)"/>
      <use xlink:href="#DejaVuSans-31" transform="translate(700.052734 0)"/>
      <use xlink:href="#DejaVuSans-31" transform="translate(763.675781 0)"/>
      <use xlink:href="#DejaVuSans-29" transform="translate(827.298828 0)"/>
     </g>
    </g>
    <g id="line2d_22">
     <path d="M 296.390938 85.654687 
L 316.390938 85.654687 
" style="fill: none; stroke: #e3256b; stroke-width: 2; stroke-linecap: square"/>
    </g>
    <g id="line2d_23"/>
    <g id="text_18">
     <!-- RAP05_3D -->
     <g transform="translate(324.390938 89.154687) scale(0.1 -0.1)">
      <defs>
       <path id="DejaVuSans-5f" d="M 3263 -1063 
L 3263 -1509 
L -63 -1509 
L -63 -1063 
L 3263 -1063 
z
" transform="scale(0.015625)"/>
      </defs>
      <use xlink:href="#DejaVuSans-52"/>
      <use xlink:href="#DejaVuSans-41" transform="translate(65.482422 0)"/>
      <use xlink:href="#DejaVuSans-50" transform="translate(133.890625 0)"/>
      <use xlink:href="#DejaVuSans-30" transform="translate(194.193359 0)"/>
      <use xlink:href="#DejaVuSans-35" transform="translate(257.816406 0)"/>
      <use xlink:href="#DejaVuSans-5f" transform="translate(321.439453 0)"/>
      <use xlink:href="#DejaVuSans-33" transform="translate(371.439453 0)"/>
      <use xlink:href="#DejaVuSans-44" transform="translate(435.0625 0)"/>
     </g>
    </g>
    <g id="LineCollection_4">
     <path d="M 306.390938 105.610937 
L 306.390938 95.610937 
" style="fill: none; stroke: #e3256b"/>
    </g>
    <g id="line2d_24">
     <path d="M 296.390938 100.610937 
L 316.390938 100.610937 
" style="fill: none; stroke-dasharray: 3.7,1.6; stroke-dashoffset: 0; stroke: #e3256b"/>
    </g>
    <g id="line2d_25">
     <g>
      <use xlink:href="#mcf3150f088" x="306.390938" y="100.610937" style="fill: #e3256b; stroke: #000000; stroke-linejoin: miter"/>
     </g>
    </g>
    <g id="text_19">
     <!-- RAP05_3D±SD (n=11) -->
     <g transform="translate(324.390938 104.110937) scale(0.1 -0.1)">
      <use xlink:href="#DejaVuSans-52"/>
      <use xlink:href="#DejaVuSans-41" transform="translate(65.482422 0)"/>
      <use xlink:href="#DejaVuSans-50" transform="translate(133.890625 0)"/>
      <use xlink:href="#DejaVuSans-30" transform="translate(194.193359 0)"/>
      <use xlink:href="#DejaVuSans-35" transform="translate(257.816406 0)"/>
      <use xlink:href="#DejaVuSans-5f" transform="translate(321.439453 0)"/>
      <use xlink:href="#DejaVuSans-33" transform="translate(371.439453 0)"/>
      <use xlink:href="#DejaVuSans-44" transform="translate(435.0625 0)"/>
      <use xlink:href="#DejaVuSans-b1" transform="translate(512.064453 0)"/>
      <use xlink:href="#DejaVuSans-53" transform="translate(595.853516 0)"/>
      <use xlink:href="#DejaVuSans-44" transform="translate(659.330078 0)"/>
      <use xlink:href="#DejaVuSans-20" transform="translate(736.332031 0)"/>
      <use xlink:href="#DejaVuSans-28" transform="translate(768.119141 0)"/>
      <use xlink:href="#DejaVuSans-6e" transform="translate(807.132812 0)"/>
      <use xlink:href="#DejaVuSans-3d" transform="translate(870.511719 0)"/>
      <use xlink:href="#DejaVuSans-31" transform="translate(954.300781 0)"/>
      <use xlink:href="#DejaVuSans-31" transform="translate(1017.923828 0)"/>
      <use xlink:href="#DejaVuSans-29" transform="translate(1081.546875 0)"/>
     </g>
    </g>
   </g>
  </g>
  <g id="text_20">
   <!-- Zha2022 -->
   <g transform="translate(182.66125 26.196094) scale(0.25 -0.25)">
    <defs>
     <path id="DejaVuSans-Bold-5a" d="M 359 4666 
L 4281 4666 
L 4281 3938 
L 1778 909 
L 4353 909 
L 4353 0 
L 288 0 
L 288 728 
L 2791 3756 
L 359 3756 
L 359 4666 
z
" transform="scale(0.015625)"/>
     <path id="DejaVuSans-Bold-32" d="M 1844 884 
L 3897 884 
L 3897 0 
L 506 0 
L 506 884 
L 2209 2388 
Q 2438 2594 2547 2791 
Q 2656 2988 2656 3200 
Q 2656 3528 2436 3728 
Q 2216 3928 1850 3928 
Q 1569 3928 1234 3808 
Q 900 3688 519 3450 
L 519 4475 
Q 925 4609 1322 4679 
Q 1719 4750 2100 4750 
Q 2938 4750 3402 4381 
Q 3866 4013 3866 3353 
Q 3866 2972 3669 2642 
Q 3472 2313 2841 1759 
L 1844 884 
z
" transform="scale(0.015625)"/>
     <path id="DejaVuSans-Bold-30" d="M 2944 2338 
Q 2944 3213 2780 3570 
Q 2616 3928 2228 3928 
Q 1841 3928 1675 3570 
Q 1509 3213 1509 2338 
Q 1509 1453 1675 1090 
Q 1841 728 2228 728 
Q 2613 728 2778 1090 
Q 2944 1453 2944 2338 
z
M 4147 2328 
Q 4147 1169 3647 539 
Q 3147 -91 2228 -91 
Q 1306 -91 806 539 
Q 306 1169 306 2328 
Q 306 3491 806 4120 
Q 1306 4750 2228 4750 
Q 3147 4750 3647 4120 
Q 4147 3491 4147 2328 
z
" transform="scale(0.015625)"/>
    </defs>
    <use xlink:href="#DejaVuSans-Bold-5a"/>
    <use xlink:href="#DejaVuSans-Bold-68" transform="translate(72.509766 0)"/>
    <use xlink:href="#DejaVuSans-Bold-61" transform="translate(143.701172 0)"/>
    <use xlink:href="#DejaVuSans-Bold-32" transform="translate(211.181641 0)"/>
    <use xlink:href="#DejaVuSans-Bold-30" transform="translate(280.761719 0)"/>
    <use xlink:href="#DejaVuSans-Bold-32" transform="translate(350.341797 0)"/>
    <use xlink:href="#DejaVuSans-Bold-32" transform="translate(419.921875 0)"/>
   </g>
  </g>
 </g>
 <defs>
  <clipPath id="pf6e305b88f">
   <rect x="54.84875" y="43.2" width="390.6" height="277.2"/>
  </clipPath>
 </defs>
</svg>
