<?xml version="1.0" encoding="utf-8" standalone="no"?>
<!DOCTYPE svg PUBLIC "-//W3C//DTD SVG 1.1//EN"
  "http://www.w3.org/Graphics/SVG/1.1/DTD/svg11.dtd">
<svg xmlns:xlink="http://www.w3.org/1999/xlink" width="560.407125pt" height="370.537812pt" viewBox="0 0 560.407125 370.537812" xmlns="http://www.w3.org/2000/svg" version="1.1">
 <metadata>
  <rdf:RDF xmlns:dc="http://purl.org/dc/elements/1.1/" xmlns:cc="http://creativecommons.org/ns#" xmlns:rdf="http://www.w3.org/1999/02/22-rdf-syntax-ns#">
   <cc:Work>
    <dc:type rdf:resource="http://purl.org/dc/dcmitype/StillImage"/>
    <dc:date>2025-09-10T11:19:54.172235</dc:date>
    <dc:format>image/svg+xml</dc:format>
    <dc:creator>
     <cc:Agent>
      <dc:title>Matplotlib v3.10.6, https://matplotlib.org/</dc:title>
     </cc:Agent>
    </dc:creator>
   </cc:Work>
  </rdf:RDF>
 </metadata>
 <defs>
  <style type="text/css">*{stroke-linejoin: round; stroke-linecap: butt}</style>
 </defs>
 <g id="figure_1">
  <g id="patch_1">
   <path d="M 0 370.537812 
L 560.407125 370.537812 
L 560.407125 0 
L 0 0 
z
" style="fill: #ffffff"/>
  </g>
  <g id="axes_1">
   <g id="patch_2">
    <path d="M 54.84875 320.4 
L 445.44875 320.4 
L 445.44875 43.2 
L 54.84875 43.2 
z
" style="fill: #ffffff"/>
   </g>
   <g id="matplotlib.axis_1">
    <g id="xtick_1">
     <g id="line2d_1">
      <defs>
       <path id="mf9de30169e" d="M 0 0 
L 0 3.5 
" style="stroke: #000000; stroke-width: 0.8"/>
      </defs>
      <g>
       <use xlink:href="#mf9de30169e" x="72.603295" y="320.4" style="stroke: #000000; stroke-width: 0.8"/>
      </g>
     </g>
     <g id="text_1">
      <!-- 0 -->
      <g transform="translate(67.83142 338.797656) scale(0.15 -0.15)">
       <defs>
        <path id="DejaVuSans-30" d="M 2034 4250 
Q 1547 4250 1301 3770 
Q 1056 3291 1056 2328 
Q 1056 1369 1301 889 
Q 1547 409 2034 409 
Q 2525 409 2770 889 
Q 3016 1369 3016 2328 
Q 3016 3291 2770 3770 
Q 2525 4250 2034 4250 
z
M 2034 4750 
Q 2819 4750 3233 4129 
Q 3647 3509 3647 2328 
Q 3647 1150 3233 529 
Q 2819 -91 2034 -91 
Q 1250 -91 836 529 
Q 422 1150 422 2328 
Q 422 3509 836 4129 
Q 1250 4750 2034 4750 
z
" transform="scale(0.015625)"/>
       </defs>
       <use xlink:href="#DejaVuSans-30"/>
      </g>
     </g>
    </g>
    <g id="xtick_2">
     <g id="line2d_2">
      <g>
       <use xlink:href="#mf9de30169e" x="131.785114" y="320.4" style="stroke: #000000; stroke-width: 0.8"/>
      </g>
     </g>
     <g id="text_2">
      <!-- 5 -->
      <g transform="translate(127.013239 338.797656) scale(0.15 -0.15)">
       <defs>
        <path id="DejaVuSans-35" d="M 691 4666 
L 3169 4666 
L 3169 4134 
L 1269 4134 
L 1269 2991 
Q 1406 3038 1543 3061 
Q 1681 3084 1819 3084 
Q 2600 3084 3056 2656 
Q 3513 2228 3513 1497 
Q 3513 744 3044 326 
Q 2575 -91 1722 -91 
Q 1428 -91 1123 -41 
Q 819 9 494 109 
L 494 744 
Q 775 591 1075 516 
Q 1375 441 1709 441 
Q 2250 441 2565 725 
Q 2881 1009 2881 1497 
Q 2881 1984 2565 2268 
Q 2250 2553 1709 2553 
Q 1456 2553 1204 2497 
Q 953 2441 691 2322 
L 691 4666 
z
" transform="scale(0.015625)"/>
       </defs>
       <use xlink:href="#DejaVuSans-35"/>
      </g>
     </g>
    </g>
    <g id="xtick_3">
     <g id="line2d_3">
      <g>
       <use xlink:href="#mf9de30169e" x="190.966932" y="320.4" style="stroke: #000000; stroke-width: 0.8"/>
      </g>
     </g>
     <g id="text_3">
      <!-- 10 -->
      <g transform="translate(181.423182 338.797656) scale(0.15 -0.15)">
       <defs>
        <path id="DejaVuSans-31" d="M 794 531 
L 1825 531 
L 1825 4091 
L 703 3866 
L 703 4441 
L 1819 4666 
L 2450 4666 
L 2450 531 
L 3481 531 
L 3481 0 
L 794 0 
L 794 531 
z
" transform="scale(0.015625)"/>
       </defs>
       <use xlink:href="#DejaVuSans-31"/>
       <use xlink:href="#DejaVuSans-30" transform="translate(63.623047 0)"/>
      </g>
     </g>
    </g>
    <g id="xtick_4">
     <g id="line2d_4">
      <g>
       <use xlink:href="#mf9de30169e" x="250.14875" y="320.4" style="stroke: #000000; stroke-width: 0.8"/>
      </g>
     </g>
     <g id="text_4">
      <!-- 15 -->
      <g transform="translate(240.605 338.797656) scale(0.15 -0.15)">
       <use xlink:href="#DejaVuSans-31"/>
       <use xlink:href="#DejaVuSans-35" transform="translate(63.623047 0)"/>
      </g>
     </g>
    </g>
    <g id="xtick_5">
     <g id="line2d_5">
      <g>
       <use xlink:href="#mf9de30169e" x="309.330568" y="320.4" style="stroke: #000000; stroke-width: 0.8"/>
      </g>
     </g>
     <g id="text_5">
      <!-- 20 -->
      <g transform="translate(299.786818 338.797656) scale(0.15 -0.15)">
       <defs>
        <path id="DejaVuSans-32" d="M 1228 531 
L 3431 531 
L 3431 0 
L 469 0 
L 469 531 
Q 828 903 1448 1529 
Q 2069 2156 2228 2338 
Q 2531 2678 2651 2914 
Q 2772 3150 2772 3378 
Q 2772 3750 2511 3984 
Q 2250 4219 1831 4219 
Q 1534 4219 1204 4116 
Q 875 4013 500 3803 
L 500 4441 
Q 881 4594 1212 4672 
Q 1544 4750 1819 4750 
Q 2544 4750 2975 4387 
Q 3406 4025 3406 3419 
Q 3406 3131 3298 2873 
Q 3191 2616 2906 2266 
Q 2828 2175 2409 1742 
Q 1991 1309 1228 531 
z
" transform="scale(0.015625)"/>
       </defs>
       <use xlink:href="#DejaVuSans-32"/>
       <use xlink:href="#DejaVuSans-30" transform="translate(63.623047 0)"/>
      </g>
     </g>
    </g>
    <g id="xtick_6">
     <g id="line2d_6">
      <g>
       <use xlink:href="#mf9de30169e" x="368.512386" y="320.4" style="stroke: #000000; stroke-width: 0.8"/>
      </g>
     </g>
     <g id="text_6">
      <!-- 25 -->
      <g transform="translate(358.968636 338.797656) scale(0.15 -0.15)">
       <use xlink:href="#DejaVuSans-32"/>
       <use xlink:href="#DejaVuSans-35" transform="translate(63.623047 0)"/>
      </g>
     </g>
    </g>
    <g id="xtick_7">
     <g id="line2d_7">
      <g>
       <use xlink:href="#mf9de30169e" x="427.694205" y="320.4" style="stroke: #000000; stroke-width: 0.8"/>
      </g>
     </g>
     <g id="text_7">
      <!-- 30 -->
      <g transform="translate(418.150455 338.797656) scale(0.15 -0.15)">
       <defs>
        <path id="DejaVuSans-33" d="M 2597 2516 
Q 3050 2419 3304 2112 
Q 3559 1806 3559 1356 
Q 3559 666 3084 287 
Q 2609 -91 1734 -91 
Q 1441 -91 1130 -33 
Q 819 25 488 141 
L 488 750 
Q 750 597 1062 519 
Q 1375 441 1716 441 
Q 2309 441 2620 675 
Q 2931 909 2931 1356 
Q 2931 1769 2642 2001 
Q 2353 2234 1838 2234 
L 1294 2234 
L 1294 2753 
L 1863 2753 
Q 2328 2753 2575 2939 
Q 2822 3125 2822 3475 
Q 2822 3834 2567 4026 
Q 2313 4219 1838 4219 
Q 1578 4219 1281 4162 
Q 984 4106 628 3988 
L 628 4550 
Q 988 4650 1302 4700 
Q 1616 4750 1894 4750 
Q 2613 4750 3031 4423 
Q 3450 4097 3450 3541 
Q 3450 3153 3228 2886 
Q 3006 2619 2597 2516 
z
" transform="scale(0.015625)"/>
       </defs>
       <use xlink:href="#DejaVuSans-33"/>
       <use xlink:href="#DejaVuSans-30" transform="translate(63.623047 0)"/>
      </g>
     </g>
    </g>
    <g id="text_8">
     <!-- time [hr] -->
     <g transform="translate(205.074219 359.594375) scale(0.18 -0.18)">
      <defs>
       <path id="DejaVuSans-Bold-74" d="M 1759 4494 
L 1759 3500 
L 2913 3500 
L 2913 2700 
L 1759 2700 
L 1759 1216 
Q 1759 972 1856 886 
Q 1953 800 2241 800 
L 2816 800 
L 2816 0 
L 1856 0 
Q 1194 0 917 276 
Q 641 553 641 1216 
L 641 2700 
L 84 2700 
L 84 3500 
L 641 3500 
L 641 4494 
L 1759 4494 
z
" transform="scale(0.015625)"/>
       <path id="DejaVuSans-Bold-69" d="M 538 3500 
L 1656 3500 
L 1656 0 
L 538 0 
L 538 3500 
z
M 538 4863 
L 1656 4863 
L 1656 3950 
L 538 3950 
L 538 4863 
z
" transform="scale(0.015625)"/>
       <path id="DejaVuSans-Bold-6d" d="M 3781 2919 
Q 3994 3244 4286 3414 
Q 4578 3584 4928 3584 
Q 5531 3584 5847 3212 
Q 6163 2841 6163 2131 
L 6163 0 
L 5038 0 
L 5038 1825 
Q 5041 1866 5042 1909 
Q 5044 1953 5044 2034 
Q 5044 2406 4934 2573 
Q 4825 2741 4581 2741 
Q 4263 2741 4089 2478 
Q 3916 2216 3909 1719 
L 3909 0 
L 2784 0 
L 2784 1825 
Q 2784 2406 2684 2573 
Q 2584 2741 2328 2741 
Q 2006 2741 1831 2477 
Q 1656 2213 1656 1722 
L 1656 0 
L 531 0 
L 531 3500 
L 1656 3500 
L 1656 2988 
Q 1863 3284 2130 3434 
Q 2397 3584 2719 3584 
Q 3081 3584 3359 3409 
Q 3638 3234 3781 2919 
z
" transform="scale(0.015625)"/>
       <path id="DejaVuSans-Bold-65" d="M 4031 1759 
L 4031 1441 
L 1416 1441 
Q 1456 1047 1700 850 
Q 1944 653 2381 653 
Q 2734 653 3104 758 
Q 3475 863 3866 1075 
L 3866 213 
Q 3469 63 3072 -14 
Q 2675 -91 2278 -91 
Q 1328 -91 801 392 
Q 275 875 275 1747 
Q 275 2603 792 3093 
Q 1309 3584 2216 3584 
Q 3041 3584 3536 3087 
Q 4031 2591 4031 1759 
z
M 2881 2131 
Q 2881 2450 2695 2645 
Q 2509 2841 2209 2841 
Q 1884 2841 1681 2658 
Q 1478 2475 1428 2131 
L 2881 2131 
z
" transform="scale(0.015625)"/>
       <path id="DejaVuSans-Bold-20" transform="scale(0.015625)"/>
       <path id="DejaVuSans-Bold-5b" d="M 550 4863 
L 2491 4863 
L 2491 4159 
L 1613 4159 
L 1613 -141 
L 2491 -141 
L 2491 -844 
L 550 -844 
L 550 4863 
z
" transform="scale(0.015625)"/>
       <path id="DejaVuSans-Bold-68" d="M 4056 2131 
L 4056 0 
L 2931 0 
L 2931 347 
L 2931 1625 
Q 2931 2084 2911 2256 
Q 2891 2428 2841 2509 
Q 2775 2619 2662 2680 
Q 2550 2741 2406 2741 
Q 2056 2741 1856 2470 
Q 1656 2200 1656 1722 
L 1656 0 
L 538 0 
L 538 4863 
L 1656 4863 
L 1656 2988 
Q 1909 3294 2193 3439 
Q 2478 3584 2822 3584 
Q 3428 3584 3742 3212 
Q 4056 2841 4056 2131 
z
" transform="scale(0.015625)"/>
       <path id="DejaVuSans-Bold-72" d="M 3138 2547 
Q 2991 2616 2845 2648 
Q 2700 2681 2553 2681 
Q 2122 2681 1889 2404 
Q 1656 2128 1656 1613 
L 1656 0 
L 538 0 
L 538 3500 
L 1656 3500 
L 1656 2925 
Q 1872 3269 2151 3426 
Q 2431 3584 2822 3584 
Q 2878 3584 2943 3579 
Q 3009 3575 3134 3559 
L 3138 2547 
z
" transform="scale(0.015625)"/>
       <path id="DejaVuSans-Bold-5d" d="M 2375 -844 
L 434 -844 
L 434 -141 
L 1313 -141 
L 1313 4159 
L 434 4159 
L 434 4863 
L 2375 4863 
L 2375 -844 
z
" transform="scale(0.015625)"/>
      </defs>
      <use xlink:href="#DejaVuSans-Bold-74"/>
      <use xlink:href="#DejaVuSans-Bold-69" transform="translate(47.802734 0)"/>
      <use xlink:href="#DejaVuSans-Bold-6d" transform="translate(82.080078 0)"/>
      <use xlink:href="#DejaVuSans-Bold-65" transform="translate(186.279297 0)"/>
      <use xlink:href="#DejaVuSans-Bold-20" transform="translate(254.101562 0)"/>
      <use xlink:href="#DejaVuSans-Bold-5b" transform="translate(288.916016 0)"/>
      <use xlink:href="#DejaVuSans-Bold-68" transform="translate(334.619141 0)"/>
      <use xlink:href="#DejaVuSans-Bold-72" transform="translate(405.810547 0)"/>
      <use xlink:href="#DejaVuSans-Bold-5d" transform="translate(455.126953 0)"/>
     </g>
    </g>
   </g>
   <g id="matplotlib.axis_2">
    <g id="ytick_1">
     <g id="line2d_8">
      <defs>
       <path id="mc5ace7894d" d="M 0 0 
L -3.5 0 
" style="stroke: #000000; stroke-width: 0.8"/>
      </defs>
      <g>
       <use xlink:href="#mc5ace7894d" x="54.84875" y="307.8" style="stroke: #000000; stroke-width: 0.8"/>
      </g>
     </g>
     <g id="text_9">
      <!-- 0 -->
      <g transform="translate(38.305 313.498828) scale(0.15 -0.15)">
       <use xlink:href="#DejaVuSans-30"/>
      </g>
     </g>
    </g>
    <g id="ytick_2">
     <g id="line2d_9">
      <g>
       <use xlink:href="#mc5ace7894d" x="54.84875" y="261.129202" style="stroke: #000000; stroke-width: 0.8"/>
      </g>
     </g>
     <g id="text_10">
      <!-- 2 -->
      <g transform="translate(38.305 266.82803) scale(0.15 -0.15)">
       <use xlink:href="#DejaVuSans-32"/>
      </g>
     </g>
    </g>
    <g id="ytick_3">
     <g id="line2d_10">
      <g>
       <use xlink:href="#mc5ace7894d" x="54.84875" y="214.458403" style="stroke: #000000; stroke-width: 0.8"/>
      </g>
     </g>
     <g id="text_11">
      <!-- 4 -->
      <g transform="translate(38.305 220.157231) scale(0.15 -0.15)">
       <defs>
        <path id="DejaVuSans-34" d="M 2419 4116 
L 825 1625 
L 2419 1625 
L 2419 4116 
z
M 2253 4666 
L 3047 4666 
L 3047 1625 
L 3713 1625 
L 3713 1100 
L 3047 1100 
L 3047 0 
L 2419 0 
L 2419 1100 
L 313 1100 
L 313 1709 
L 2253 4666 
z
" transform="scale(0.015625)"/>
       </defs>
       <use xlink:href="#DejaVuSans-34"/>
      </g>
     </g>
    </g>
    <g id="ytick_4">
     <g id="line2d_11">
      <g>
       <use xlink:href="#mc5ace7894d" x="54.84875" y="167.787605" style="stroke: #000000; stroke-width: 0.8"/>
      </g>
     </g>
     <g id="text_12">
      <!-- 6 -->
      <g transform="translate(38.305 173.486433) scale(0.15 -0.15)">
       <defs>
        <path id="DejaVuSans-36" d="M 2113 2584 
Q 1688 2584 1439 2293 
Q 1191 2003 1191 1497 
Q 1191 994 1439 701 
Q 1688 409 2113 409 
Q 2538 409 2786 701 
Q 3034 994 3034 1497 
Q 3034 2003 2786 2293 
Q 2538 2584 2113 2584 
z
M 3366 4563 
L 3366 3988 
Q 3128 4100 2886 4159 
Q 2644 4219 2406 4219 
Q 1781 4219 1451 3797 
Q 1122 3375 1075 2522 
Q 1259 2794 1537 2939 
Q 1816 3084 2150 3084 
Q 2853 3084 3261 2657 
Q 3669 2231 3669 1497 
Q 3669 778 3244 343 
Q 2819 -91 2113 -91 
Q 1303 -91 875 529 
Q 447 1150 447 2328 
Q 447 3434 972 4092 
Q 1497 4750 2381 4750 
Q 2619 4750 2861 4703 
Q 3103 4656 3366 4563 
z
" transform="scale(0.015625)"/>
       </defs>
       <use xlink:href="#DejaVuSans-36"/>
      </g>
     </g>
    </g>
    <g id="ytick_5">
     <g id="line2d_12">
      <g>
       <use xlink:href="#mc5ace7894d" x="54.84875" y="121.116806" style="stroke: #000000; stroke-width: 0.8"/>
      </g>
     </g>
     <g id="text_13">
      <!-- 8 -->
      <g transform="translate(38.305 126.815634) scale(0.15 -0.15)">
       <defs>
        <path id="DejaVuSans-38" d="M 2034 2216 
Q 1584 2216 1326 1975 
Q 1069 1734 1069 1313 
Q 1069 891 1326 650 
Q 1584 409 2034 409 
Q 2484 409 2743 651 
Q 3003 894 3003 1313 
Q 3003 1734 2745 1975 
Q 2488 2216 2034 2216 
z
M 1403 2484 
Q 997 2584 770 2862 
Q 544 3141 544 3541 
Q 544 4100 942 4425 
Q 1341 4750 2034 4750 
Q 2731 4750 3128 4425 
Q 3525 4100 3525 3541 
Q 3525 3141 3298 2862 
Q 3072 2584 2669 2484 
Q 3125 2378 3379 2068 
Q 3634 1759 3634 1313 
Q 3634 634 3220 271 
Q 2806 -91 2034 -91 
Q 1263 -91 848 271 
Q 434 634 434 1313 
Q 434 1759 690 2068 
Q 947 2378 1403 2484 
z
M 1172 3481 
Q 1172 3119 1398 2916 
Q 1625 2713 2034 2713 
Q 2441 2713 2670 2916 
Q 2900 3119 2900 3481 
Q 2900 3844 2670 4047 
Q 2441 4250 2034 4250 
Q 1625 4250 1398 4047 
Q 1172 3844 1172 3481 
z
" transform="scale(0.015625)"/>
       </defs>
       <use xlink:href="#DejaVuSans-38"/>
      </g>
     </g>
    </g>
    <g id="ytick_6">
     <g id="line2d_13">
      <g>
       <use xlink:href="#mc5ace7894d" x="54.84875" y="74.446008" style="stroke: #000000; stroke-width: 0.8"/>
      </g>
     </g>
     <g id="text_14">
      <!-- 10 -->
      <g transform="translate(28.76125 80.144836) scale(0.15 -0.15)">
       <use xlink:href="#DejaVuSans-31"/>
       <use xlink:href="#DejaVuSans-30" transform="translate(63.623047 0)"/>
      </g>
     </g>
    </g>
    <g id="text_15">
     <!-- rapamycin [µM] -->
     <g transform="translate(20.877188 261.838125) rotate(-90) scale(0.18 -0.18)">
      <defs>
       <path id="DejaVuSans-Bold-61" d="M 2106 1575 
Q 1756 1575 1579 1456 
Q 1403 1338 1403 1106 
Q 1403 894 1545 773 
Q 1688 653 1941 653 
Q 2256 653 2472 879 
Q 2688 1106 2688 1447 
L 2688 1575 
L 2106 1575 
z
M 3816 1997 
L 3816 0 
L 2688 0 
L 2688 519 
Q 2463 200 2181 54 
Q 1900 -91 1497 -91 
Q 953 -91 614 226 
Q 275 544 275 1050 
Q 275 1666 698 1953 
Q 1122 2241 2028 2241 
L 2688 2241 
L 2688 2328 
Q 2688 2594 2478 2717 
Q 2269 2841 1825 2841 
Q 1466 2841 1156 2769 
Q 847 2697 581 2553 
L 581 3406 
Q 941 3494 1303 3539 
Q 1666 3584 2028 3584 
Q 2975 3584 3395 3211 
Q 3816 2838 3816 1997 
z
" transform="scale(0.015625)"/>
       <path id="DejaVuSans-Bold-70" d="M 1656 506 
L 1656 -1331 
L 538 -1331 
L 538 3500 
L 1656 3500 
L 1656 2988 
Q 1888 3294 2169 3439 
Q 2450 3584 2816 3584 
Q 3463 3584 3878 3070 
Q 4294 2556 4294 1747 
Q 4294 938 3878 423 
Q 3463 -91 2816 -91 
Q 2450 -91 2169 54 
Q 1888 200 1656 506 
z
M 2400 2772 
Q 2041 2772 1848 2508 
Q 1656 2244 1656 1747 
Q 1656 1250 1848 986 
Q 2041 722 2400 722 
Q 2759 722 2948 984 
Q 3138 1247 3138 1747 
Q 3138 2247 2948 2509 
Q 2759 2772 2400 2772 
z
" transform="scale(0.015625)"/>
       <path id="DejaVuSans-Bold-79" d="M 78 3500 
L 1197 3500 
L 2138 1125 
L 2938 3500 
L 4056 3500 
L 2584 -331 
Q 2363 -916 2067 -1148 
Q 1772 -1381 1288 -1381 
L 641 -1381 
L 641 -647 
L 991 -647 
Q 1275 -647 1404 -556 
Q 1534 -466 1606 -231 
L 1638 -134 
L 78 3500 
z
" transform="scale(0.015625)"/>
       <path id="DejaVuSans-Bold-63" d="M 3366 3391 
L 3366 2478 
Q 3138 2634 2908 2709 
Q 2678 2784 2431 2784 
Q 1963 2784 1702 2511 
Q 1441 2238 1441 1747 
Q 1441 1256 1702 982 
Q 1963 709 2431 709 
Q 2694 709 2930 787 
Q 3166 866 3366 1019 
L 3366 103 
Q 3103 6 2833 -42 
Q 2563 -91 2291 -91 
Q 1344 -91 809 395 
Q 275 881 275 1747 
Q 275 2613 809 3098 
Q 1344 3584 2291 3584 
Q 2566 3584 2833 3536 
Q 3100 3488 3366 3391 
z
" transform="scale(0.015625)"/>
       <path id="DejaVuSans-Bold-6e" d="M 4056 2131 
L 4056 0 
L 2931 0 
L 2931 347 
L 2931 1631 
Q 2931 2084 2911 2256 
Q 2891 2428 2841 2509 
Q 2775 2619 2662 2680 
Q 2550 2741 2406 2741 
Q 2056 2741 1856 2470 
Q 1656 2200 1656 1722 
L 1656 0 
L 538 0 
L 538 3500 
L 1656 3500 
L 1656 2988 
Q 1909 3294 2193 3439 
Q 2478 3584 2822 3584 
Q 3428 3584 3742 3212 
Q 4056 2841 4056 2131 
z
" transform="scale(0.015625)"/>
       <path id="DejaVuSans-Bold-b5" d="M 544 -1338 
L 544 3500 
L 1672 3500 
L 1672 1466 
Q 1672 1103 1828 926 
Q 1984 750 2303 750 
Q 2625 750 2781 926 
Q 2938 1103 2938 1466 
L 2938 3500 
L 4063 3500 
L 4063 1159 
Q 4063 938 4114 850 
Q 4166 763 4288 763 
Q 4344 763 4395 778 
Q 4447 794 4506 831 
L 4506 50 
Q 4341 -22 4195 -56 
Q 4050 -91 3909 -91 
Q 3631 -91 3454 26 
Q 3278 144 3169 403 
Q 3022 156 2811 32 
Q 2600 -91 2322 -91 
Q 2091 -91 1928 -17 
Q 1766 56 1672 206 
L 1672 -1338 
L 544 -1338 
z
" transform="scale(0.015625)"/>
       <path id="DejaVuSans-Bold-4d" d="M 588 4666 
L 2119 4666 
L 3181 2169 
L 4250 4666 
L 5778 4666 
L 5778 0 
L 4641 0 
L 4641 3413 
L 3566 897 
L 2803 897 
L 1728 3413 
L 1728 0 
L 588 0 
L 588 4666 
z
" transform="scale(0.015625)"/>
      </defs>
      <use xlink:href="#DejaVuSans-Bold-72"/>
      <use xlink:href="#DejaVuSans-Bold-61" transform="translate(49.316406 0)"/>
      <use xlink:href="#DejaVuSans-Bold-70" transform="translate(116.796875 0)"/>
      <use xlink:href="#DejaVuSans-Bold-61" transform="translate(188.378906 0)"/>
      <use xlink:href="#DejaVuSans-Bold-6d" transform="translate(255.859375 0)"/>
      <use xlink:href="#DejaVuSans-Bold-79" transform="translate(360.058594 0)"/>
      <use xlink:href="#DejaVuSans-Bold-63" transform="translate(425.244141 0)"/>
      <use xlink:href="#DejaVuSans-Bold-69" transform="translate(484.521484 0)"/>
      <use xlink:href="#DejaVuSans-Bold-6e" transform="translate(518.798828 0)"/>
      <use xlink:href="#DejaVuSans-Bold-20" transform="translate(589.990234 0)"/>
      <use xlink:href="#DejaVuSans-Bold-5b" transform="translate(624.804688 0)"/>
      <use xlink:href="#DejaVuSans-Bold-b5" transform="translate(670.507812 0)"/>
      <use xlink:href="#DejaVuSans-Bold-4d" transform="translate(744.091797 0)"/>
      <use xlink:href="#DejaVuSans-Bold-5d" transform="translate(843.603516 0)"/>
     </g>
    </g>
   </g>
   <g id="line2d_14">
    <path d="M 72.603295 307.8 
L 72.958386 305.291898 
L 73.313477 291.142952 
L 74.023659 239.673018 
L 75.088932 158.687432 
L 75.799114 116.665263 
L 76.509295 86.514435 
L 77.219477 67.467702 
L 77.574568 61.604476 
L 77.929659 57.865647 
L 78.28475 56.009373 
L 78.639841 55.8 
L 78.994932 57.013396 
L 79.350023 59.440298 
L 80.060205 67.182236 
L 81.125477 83.653876 
L 83.256023 123.185066 
L 85.031477 154.877423 
L 86.451841 176.984894 
L 87.872205 195.751872 
L 89.292568 211.305145 
L 90.712932 223.991754 
L 92.133295 234.229407 
L 93.553659 242.430273 
L 94.618932 247.470041 
L 95.684205 251.712325 
L 96.749477 255.277926 
L 98.169841 259.158074 
L 99.590205 262.227184 
L 101.010568 264.652881 
L 102.430932 266.569411 
L 103.851295 268.083709 
L 105.271659 269.280646 
L 106.692023 270.227402 
L 108.467477 271.138797 
L 110.598023 271.935624 
L 113.083659 272.578405 
L 115.924386 273.063261 
L 119.475295 273.440313 
L 124.801659 273.753624 
L 133.678932 274.010073 
L 158.180205 274.406813 
L 332.529841 276.871057 
L 427.694205 278.138432 
L 427.694205 278.138432 
" clip-path="url(#p49236a2064)" style="fill: none; stroke: #1f77b4; stroke-width: 2; stroke-linecap: square"/>
   </g>
   <g id="line2d_15">
    <path d="M 72.603295 307.8 
L 78.521477 307.119679 
L 84.439659 306.884429 
L 90.357841 307.170089 
L 96.276023 307.350728 
L 102.194205 307.426344 
L 108.112386 307.447348 
L 119.94875 307.543036 
L 143.621477 307.607216 
L 167.294205 307.680148 
L 214.639659 307.700569 
L 356.676023 307.709321 
" clip-path="url(#p49236a2064)" style="fill: none; stroke-dasharray: 3.7,1.6; stroke-dashoffset: 0; stroke: #1f77b4"/>
    <defs>
     <path id="m707db03af4" d="M -3 3 
L 3 3 
L 3 -3 
L -3 -3 
z
" style="stroke: #000000; stroke-linejoin: miter"/>
    </defs>
    <g clip-path="url(#p49236a2064)">
     <use xlink:href="#m707db03af4" x="72.603295" y="307.8" style="fill: #1f77b4; stroke: #000000; stroke-linejoin: miter"/>
     <use xlink:href="#m707db03af4" x="78.521477" y="307.119679" style="fill: #1f77b4; stroke: #000000; stroke-linejoin: miter"/>
     <use xlink:href="#m707db03af4" x="84.439659" y="306.884429" style="fill: #1f77b4; stroke: #000000; stroke-linejoin: miter"/>
     <use xlink:href="#m707db03af4" x="90.357841" y="307.170089" style="fill: #1f77b4; stroke: #000000; stroke-linejoin: miter"/>
     <use xlink:href="#m707db03af4" x="96.276023" y="307.350728" style="fill: #1f77b4; stroke: #000000; stroke-linejoin: miter"/>
     <use xlink:href="#m707db03af4" x="102.194205" y="307.426344" style="fill: #1f77b4; stroke: #000000; stroke-linejoin: miter"/>
     <use xlink:href="#m707db03af4" x="108.112386" y="307.447348" style="fill: #1f77b4; stroke: #000000; stroke-linejoin: miter"/>
     <use xlink:href="#m707db03af4" x="119.94875" y="307.543036" style="fill: #1f77b4; stroke: #000000; stroke-linejoin: miter"/>
     <use xlink:href="#m707db03af4" x="143.621477" y="307.607216" style="fill: #1f77b4; stroke: #000000; stroke-linejoin: miter"/>
     <use xlink:href="#m707db03af4" x="167.294205" y="307.680148" style="fill: #1f77b4; stroke: #000000; stroke-linejoin: miter"/>
     <use xlink:href="#m707db03af4" x="214.639659" y="307.700569" style="fill: #1f77b4; stroke: #000000; stroke-linejoin: miter"/>
     <use xlink:href="#m707db03af4" x="356.676023" y="307.709321" style="fill: #1f77b4; stroke: #000000; stroke-linejoin: miter"/>
    </g>
   </g>
   <g id="line2d_16">
    <path d="M 72.603295 307.8 
L 72.958386 305.291898 
L 73.313477 291.142952 
L 74.023659 239.673018 
L 75.088932 158.687432 
L 75.799114 116.665263 
L 76.509295 86.514435 
L 77.219477 67.467702 
L 77.574568 61.604476 
L 77.929659 57.865647 
L 78.28475 56.009373 
L 78.639841 55.8 
L 78.994932 57.013396 
L 79.350023 59.440298 
L 80.060205 67.182236 
L 81.125477 83.653876 
L 83.256023 123.185066 
L 85.031477 154.877423 
L 86.451841 176.984894 
L 87.872205 195.751872 
L 89.292568 211.305145 
L 90.712932 223.991754 
L 92.133295 234.229407 
L 93.553659 242.430273 
L 94.618932 247.470041 
L 95.684205 251.712325 
L 96.749477 255.277926 
L 98.169841 259.158074 
L 99.590205 262.227184 
L 101.010568 264.652881 
L 102.430932 266.569411 
L 103.851295 268.083709 
L 105.271659 269.280646 
L 106.692023 270.227402 
L 108.467477 271.138797 
L 110.598023 271.935624 
L 113.083659 272.578405 
L 115.924386 273.063261 
L 119.475295 273.440313 
L 124.801659 273.753624 
L 133.678932 274.010073 
L 158.180205 274.406813 
L 332.529841 276.871057 
L 427.694205 278.138432 
L 427.694205 278.138432 
" clip-path="url(#p49236a2064)" style="fill: none; stroke: #ff7f0e; stroke-width: 2; stroke-linecap: square"/>
   </g>
   <g id="line2d_17">
    <path d="M 72.603295 307.8 
L 78.521477 307.379667 
L 84.439659 307.257141 
L 90.357841 307.321322 
L 96.276023 307.423427 
L 102.194205 307.461351 
L 108.112386 307.324239 
L 119.94875 307.522615 
L 143.621477 307.560539 
L 167.294205 307.653892 
L 214.639659 307.662644 
L 356.676023 307.683065 
" clip-path="url(#p49236a2064)" style="fill: none; stroke-dasharray: 3.7,1.6; stroke-dashoffset: 0; stroke: #ff7f0e"/>
    <defs>
     <path id="mf8bfc6441a" d="M -3 3 
L 3 3 
L 3 -3 
L -3 -3 
z
" style="stroke: #000000; stroke-linejoin: miter"/>
    </defs>
    <g clip-path="url(#p49236a2064)">
     <use xlink:href="#mf8bfc6441a" x="72.603295" y="307.8" style="fill: #ff7f0e; stroke: #000000; stroke-linejoin: miter"/>
     <use xlink:href="#mf8bfc6441a" x="78.521477" y="307.379667" style="fill: #ff7f0e; stroke: #000000; stroke-linejoin: miter"/>
     <use xlink:href="#mf8bfc6441a" x="84.439659" y="307.257141" style="fill: #ff7f0e; stroke: #000000; stroke-linejoin: miter"/>
     <use xlink:href="#mf8bfc6441a" x="90.357841" y="307.321322" style="fill: #ff7f0e; stroke: #000000; stroke-linejoin: miter"/>
     <use xlink:href="#mf8bfc6441a" x="96.276023" y="307.423427" style="fill: #ff7f0e; stroke: #000000; stroke-linejoin: miter"/>
     <use xlink:href="#mf8bfc6441a" x="102.194205" y="307.461351" style="fill: #ff7f0e; stroke: #000000; stroke-linejoin: miter"/>
     <use xlink:href="#mf8bfc6441a" x="108.112386" y="307.324239" style="fill: #ff7f0e; stroke: #000000; stroke-linejoin: miter"/>
     <use xlink:href="#mf8bfc6441a" x="119.94875" y="307.522615" style="fill: #ff7f0e; stroke: #000000; stroke-linejoin: miter"/>
     <use xlink:href="#mf8bfc6441a" x="143.621477" y="307.560539" style="fill: #ff7f0e; stroke: #000000; stroke-linejoin: miter"/>
     <use xlink:href="#mf8bfc6441a" x="167.294205" y="307.653892" style="fill: #ff7f0e; stroke: #000000; stroke-linejoin: miter"/>
     <use xlink:href="#mf8bfc6441a" x="214.639659" y="307.662644" style="fill: #ff7f0e; stroke: #000000; stroke-linejoin: miter"/>
     <use xlink:href="#mf8bfc6441a" x="356.676023" y="307.683065" style="fill: #ff7f0e; stroke: #000000; stroke-linejoin: miter"/>
    </g>
   </g>
   <g id="line2d_18">
    <path d="M 72.603295 307.8 
L 72.958386 305.291898 
L 73.313477 291.142952 
L 74.023659 239.673018 
L 75.088932 158.687432 
L 75.799114 116.665263 
L 76.509295 86.514435 
L 77.219477 67.467702 
L 77.574568 61.604476 
L 77.929659 57.865647 
L 78.28475 56.009373 
L 78.639841 55.8 
L 78.994932 57.013396 
L 79.350023 59.440298 
L 80.060205 67.182236 
L 81.125477 83.653876 
L 83.256023 123.185066 
L 85.031477 154.877423 
L 86.451841 176.984894 
L 87.872205 195.751872 
L 89.292568 211.305145 
L 90.712932 223.991754 
L 92.133295 234.229407 
L 93.553659 242.430273 
L 94.618932 247.470041 
L 95.684205 251.712325 
L 96.749477 255.277926 
L 98.169841 259.158074 
L 99.590205 262.227184 
L 101.010568 264.652881 
L 102.430932 266.569411 
L 103.851295 268.083709 
L 105.271659 269.280646 
L 106.692023 270.227402 
L 108.467477 271.138797 
L 110.598023 271.935624 
L 113.083659 272.578405 
L 115.924386 273.063261 
L 119.475295 273.440313 
L 124.801659 273.753624 
L 133.678932 274.010073 
L 158.180205 274.406813 
L 332.529841 276.871057 
L 427.694205 278.138432 
L 427.694205 278.138432 
" clip-path="url(#p49236a2064)" style="fill: none; stroke: #2ca02c; stroke-width: 2; stroke-linecap: square"/>
   </g>
   <g id="line2d_19">
    <path d="M 72.603295 307.8 
L 78.521477 307.595547 
L 84.439659 307.528449 
L 90.357841 307.149202 
L 96.276023 307.117111 
L 102.194205 307.055848 
L 108.112386 307.210465 
L 119.94875 307.300901 
L 143.621477 307.429261 
L 167.294205 307.438013 
L 214.639659 307.694735 
L 356.676023 307.694735 
" clip-path="url(#p49236a2064)" style="fill: none; stroke-dasharray: 3.7,1.6; stroke-dashoffset: 0; stroke: #2ca02c"/>
    <defs>
     <path id="m3b7445bb5d" d="M -3 3 
L 3 3 
L 3 -3 
L -3 -3 
z
" style="stroke: #000000; stroke-linejoin: miter"/>
    </defs>
    <g clip-path="url(#p49236a2064)">
     <use xlink:href="#m3b7445bb5d" x="72.603295" y="307.8" style="fill: #2ca02c; stroke: #000000; stroke-linejoin: miter"/>
     <use xlink:href="#m3b7445bb5d" x="78.521477" y="307.595547" style="fill: #2ca02c; stroke: #000000; stroke-linejoin: miter"/>
     <use xlink:href="#m3b7445bb5d" x="84.439659" y="307.528449" style="fill: #2ca02c; stroke: #000000; stroke-linejoin: miter"/>
     <use xlink:href="#m3b7445bb5d" x="90.357841" y="307.149202" style="fill: #2ca02c; stroke: #000000; stroke-linejoin: miter"/>
     <use xlink:href="#m3b7445bb5d" x="96.276023" y="307.117111" style="fill: #2ca02c; stroke: #000000; stroke-linejoin: miter"/>
     <use xlink:href="#m3b7445bb5d" x="102.194205" y="307.055848" style="fill: #2ca02c; stroke: #000000; stroke-linejoin: miter"/>
     <use xlink:href="#m3b7445bb5d" x="108.112386" y="307.210465" style="fill: #2ca02c; stroke: #000000; stroke-linejoin: miter"/>
     <use xlink:href="#m3b7445bb5d" x="119.94875" y="307.300901" style="fill: #2ca02c; stroke: #000000; stroke-linejoin: miter"/>
     <use xlink:href="#m3b7445bb5d" x="143.621477" y="307.429261" style="fill: #2ca02c; stroke: #000000; stroke-linejoin: miter"/>
     <use xlink:href="#m3b7445bb5d" x="167.294205" y="307.438013" style="fill: #2ca02c; stroke: #000000; stroke-linejoin: miter"/>
     <use xlink:href="#m3b7445bb5d" x="214.639659" y="307.694735" style="fill: #2ca02c; stroke: #000000; stroke-linejoin: miter"/>
     <use xlink:href="#m3b7445bb5d" x="356.676023" y="307.694735" style="fill: #2ca02c; stroke: #000000; stroke-linejoin: miter"/>
    </g>
   </g>
   <g id="line2d_20">
    <path d="M 72.603295 307.8 
L 72.958386 305.291898 
L 73.313477 291.142952 
L 74.023659 239.673018 
L 75.088932 158.687432 
L 75.799114 116.665263 
L 76.509295 86.514435 
L 77.219477 67.467702 
L 77.574568 61.604476 
L 77.929659 57.865647 
L 78.28475 56.009373 
L 78.639841 55.8 
L 78.994932 57.013396 
L 79.350023 59.440298 
L 80.060205 67.182236 
L 81.125477 83.653876 
L 83.256023 123.185066 
L 85.031477 154.877423 
L 86.451841 176.984894 
L 87.872205 195.751872 
L 89.292568 211.305145 
L 90.712932 223.991754 
L 92.133295 234.229407 
L 93.553659 242.430273 
L 94.618932 247.470041 
L 95.684205 251.712325 
L 96.749477 255.277926 
L 98.169841 259.158074 
L 99.590205 262.227184 
L 101.010568 264.652881 
L 102.430932 266.569411 
L 103.851295 268.083709 
L 105.271659 269.280646 
L 106.692023 270.227402 
L 108.467477 271.138797 
L 110.598023 271.935624 
L 113.083659 272.578405 
L 115.924386 273.063261 
L 119.475295 273.440313 
L 124.801659 273.753624 
L 133.678932 274.010073 
L 158.180205 274.406813 
L 332.529841 276.871057 
L 427.694205 278.138432 
L 427.694205 278.138432 
" clip-path="url(#p49236a2064)" style="fill: none; stroke: #d62728; stroke-width: 2; stroke-linecap: square"/>
   </g>
   <g id="line2d_21">
    <path d="M 72.603295 307.8 
L 78.521477 307.630554 
L 84.439659 307.003337 
L 90.357841 306.772871 
L 96.276023 306.810796 
L 102.194205 306.889563 
L 108.112386 306.880811 
L 119.94875 307.198796 
L 143.621477 307.508028 
L 167.294205 307.589712 
L 214.639659 307.653892 
L 356.676023 307.6889 
" clip-path="url(#p49236a2064)" style="fill: none; stroke-dasharray: 3.7,1.6; stroke-dashoffset: 0; stroke: #d62728"/>
    <defs>
     <path id="mafa56bae41" d="M -3 3 
L 3 3 
L 3 -3 
L -3 -3 
z
" style="stroke: #000000; stroke-linejoin: miter"/>
    </defs>
    <g clip-path="url(#p49236a2064)">
     <use xlink:href="#mafa56bae41" x="72.603295" y="307.8" style="fill: #d62728; stroke: #000000; stroke-linejoin: miter"/>
     <use xlink:href="#mafa56bae41" x="78.521477" y="307.630554" style="fill: #d62728; stroke: #000000; stroke-linejoin: miter"/>
     <use xlink:href="#mafa56bae41" x="84.439659" y="307.003337" style="fill: #d62728; stroke: #000000; stroke-linejoin: miter"/>
     <use xlink:href="#mafa56bae41" x="90.357841" y="306.772871" style="fill: #d62728; stroke: #000000; stroke-linejoin: miter"/>
     <use xlink:href="#mafa56bae41" x="96.276023" y="306.810796" style="fill: #d62728; stroke: #000000; stroke-linejoin: miter"/>
     <use xlink:href="#mafa56bae41" x="102.194205" y="306.889563" style="fill: #d62728; stroke: #000000; stroke-linejoin: miter"/>
     <use xlink:href="#mafa56bae41" x="108.112386" y="306.880811" style="fill: #d62728; stroke: #000000; stroke-linejoin: miter"/>
     <use xlink:href="#mafa56bae41" x="119.94875" y="307.198796" style="fill: #d62728; stroke: #000000; stroke-linejoin: miter"/>
     <use xlink:href="#mafa56bae41" x="143.621477" y="307.508028" style="fill: #d62728; stroke: #000000; stroke-linejoin: miter"/>
     <use xlink:href="#mafa56bae41" x="167.294205" y="307.589712" style="fill: #d62728; stroke: #000000; stroke-linejoin: miter"/>
     <use xlink:href="#mafa56bae41" x="214.639659" y="307.653892" style="fill: #d62728; stroke: #000000; stroke-linejoin: miter"/>
     <use xlink:href="#mafa56bae41" x="356.676023" y="307.6889" style="fill: #d62728; stroke: #000000; stroke-linejoin: miter"/>
    </g>
   </g>
   <g id="line2d_22">
    <path d="M 72.603295 307.8 
L 72.958386 305.291898 
L 73.313477 291.142952 
L 74.023659 239.673018 
L 75.088932 158.687432 
L 75.799114 116.665263 
L 76.509295 86.514435 
L 77.219477 67.467702 
L 77.574568 61.604476 
L 77.929659 57.865647 
L 78.28475 56.009373 
L 78.639841 55.8 
L 78.994932 57.013396 
L 79.350023 59.440298 
L 80.060205 67.182236 
L 81.125477 83.653876 
L 83.256023 123.185066 
L 85.031477 154.877423 
L 86.451841 176.984894 
L 87.872205 195.751872 
L 89.292568 211.305145 
L 90.712932 223.991754 
L 92.133295 234.229407 
L 93.553659 242.430273 
L 94.618932 247.470041 
L 95.684205 251.712325 
L 96.749477 255.277926 
L 98.169841 259.158074 
L 99.590205 262.227184 
L 101.010568 264.652881 
L 102.430932 266.569411 
L 103.851295 268.083709 
L 105.271659 269.280646 
L 106.692023 270.227402 
L 108.467477 271.138797 
L 110.598023 271.935624 
L 113.083659 272.578405 
L 115.924386 273.063261 
L 119.475295 273.440313 
L 124.801659 273.753624 
L 133.678932 274.010073 
L 158.180205 274.406813 
L 332.529841 276.871057 
L 427.694205 278.138432 
L 427.694205 278.138432 
" clip-path="url(#p49236a2064)" style="fill: none; stroke: #9467bd; stroke-width: 2; stroke-linecap: square"/>
   </g>
   <g id="line2d_23">
    <path d="M 72.603295 307.8 
L 78.521477 307.601381 
L 84.439659 307.458434 
L 90.357841 307.391337 
L 96.276023 307.353412 
L 102.194205 307.242555 
L 108.112386 307.356329 
L 119.94875 307.4526 
L 143.621477 307.602138 
L 167.294205 307.646032 
L 214.639659 307.67642 
L 356.676023 307.698368 
" clip-path="url(#p49236a2064)" style="fill: none; stroke-dasharray: 3.7,1.6; stroke-dashoffset: 0; stroke: #9467bd"/>
    <defs>
     <path id="m2c9d4ea4ae" d="M -3 3 
L 3 3 
L 3 -3 
L -3 -3 
z
" style="stroke: #000000; stroke-linejoin: miter"/>
    </defs>
    <g clip-path="url(#p49236a2064)">
     <use xlink:href="#m2c9d4ea4ae" x="72.603295" y="307.8" style="fill: #9467bd; stroke: #000000; stroke-linejoin: miter"/>
     <use xlink:href="#m2c9d4ea4ae" x="78.521477" y="307.601381" style="fill: #9467bd; stroke: #000000; stroke-linejoin: miter"/>
     <use xlink:href="#m2c9d4ea4ae" x="84.439659" y="307.458434" style="fill: #9467bd; stroke: #000000; stroke-linejoin: miter"/>
     <use xlink:href="#m2c9d4ea4ae" x="90.357841" y="307.391337" style="fill: #9467bd; stroke: #000000; stroke-linejoin: miter"/>
     <use xlink:href="#m2c9d4ea4ae" x="96.276023" y="307.353412" style="fill: #9467bd; stroke: #000000; stroke-linejoin: miter"/>
     <use xlink:href="#m2c9d4ea4ae" x="102.194205" y="307.242555" style="fill: #9467bd; stroke: #000000; stroke-linejoin: miter"/>
     <use xlink:href="#m2c9d4ea4ae" x="108.112386" y="307.356329" style="fill: #9467bd; stroke: #000000; stroke-linejoin: miter"/>
     <use xlink:href="#m2c9d4ea4ae" x="119.94875" y="307.4526" style="fill: #9467bd; stroke: #000000; stroke-linejoin: miter"/>
     <use xlink:href="#m2c9d4ea4ae" x="143.621477" y="307.602138" style="fill: #9467bd; stroke: #000000; stroke-linejoin: miter"/>
     <use xlink:href="#m2c9d4ea4ae" x="167.294205" y="307.646032" style="fill: #9467bd; stroke: #000000; stroke-linejoin: miter"/>
     <use xlink:href="#m2c9d4ea4ae" x="214.639659" y="307.67642" style="fill: #9467bd; stroke: #000000; stroke-linejoin: miter"/>
     <use xlink:href="#m2c9d4ea4ae" x="356.676023" y="307.698368" style="fill: #9467bd; stroke: #000000; stroke-linejoin: miter"/>
    </g>
   </g>
   <g id="line2d_24">
    <path d="M 72.603295 307.8 
L 72.958386 305.291898 
L 73.313477 291.142952 
L 74.023659 239.673018 
L 75.088932 158.687432 
L 75.799114 116.665263 
L 76.509295 86.514435 
L 77.219477 67.467702 
L 77.574568 61.604476 
L 77.929659 57.865647 
L 78.28475 56.009373 
L 78.639841 55.8 
L 78.994932 57.013396 
L 79.350023 59.440298 
L 80.060205 67.182236 
L 81.125477 83.653876 
L 83.256023 123.185066 
L 85.031477 154.877423 
L 86.451841 176.984894 
L 87.872205 195.751872 
L 89.292568 211.305145 
L 90.712932 223.991754 
L 92.133295 234.229407 
L 93.553659 242.430273 
L 94.618932 247.470041 
L 95.684205 251.712325 
L 96.749477 255.277926 
L 98.169841 259.158074 
L 99.590205 262.227184 
L 101.010568 264.652881 
L 102.430932 266.569411 
L 103.851295 268.083709 
L 105.271659 269.280646 
L 106.692023 270.227402 
L 108.467477 271.138797 
L 110.598023 271.935624 
L 113.083659 272.578405 
L 115.924386 273.063261 
L 119.475295 273.440313 
L 124.801659 273.753624 
L 133.678932 274.010073 
L 158.180205 274.406813 
L 332.529841 276.871057 
L 427.694205 278.138432 
L 427.694205 278.138432 
" clip-path="url(#p49236a2064)" style="fill: none; stroke: #8c564b; stroke-width: 2; stroke-linecap: square"/>
   </g>
   <g id="line2d_25">
    <path d="M 72.603295 307.8 
L 78.521477 307.446819 
L 84.439659 307.063587 
L 90.357841 307.335395 
L 96.276023 307.450196 
L 102.194205 307.499155 
L 108.112386 307.487337 
L 119.94875 307.605514 
L 143.621477 307.634214 
L 167.294205 307.633471 
L 214.639659 307.663455 
L 356.676023 307.692534 
" clip-path="url(#p49236a2064)" style="fill: none; stroke-dasharray: 3.7,1.6; stroke-dashoffset: 0; stroke: #8c564b"/>
    <defs>
     <path id="m3ed144d6de" d="M -3 3 
L 3 3 
L 3 -3 
L -3 -3 
z
" style="stroke: #000000; stroke-linejoin: miter"/>
    </defs>
    <g clip-path="url(#p49236a2064)">
     <use xlink:href="#m3ed144d6de" x="72.603295" y="307.8" style="fill: #8c564b; stroke: #000000; stroke-linejoin: miter"/>
     <use xlink:href="#m3ed144d6de" x="78.521477" y="307.446819" style="fill: #8c564b; stroke: #000000; stroke-linejoin: miter"/>
     <use xlink:href="#m3ed144d6de" x="84.439659" y="307.063587" style="fill: #8c564b; stroke: #000000; stroke-linejoin: miter"/>
     <use xlink:href="#m3ed144d6de" x="90.357841" y="307.335395" style="fill: #8c564b; stroke: #000000; stroke-linejoin: miter"/>
     <use xlink:href="#m3ed144d6de" x="96.276023" y="307.450196" style="fill: #8c564b; stroke: #000000; stroke-linejoin: miter"/>
     <use xlink:href="#m3ed144d6de" x="102.194205" y="307.499155" style="fill: #8c564b; stroke: #000000; stroke-linejoin: miter"/>
     <use xlink:href="#m3ed144d6de" x="108.112386" y="307.487337" style="fill: #8c564b; stroke: #000000; stroke-linejoin: miter"/>
     <use xlink:href="#m3ed144d6de" x="119.94875" y="307.605514" style="fill: #8c564b; stroke: #000000; stroke-linejoin: miter"/>
     <use xlink:href="#m3ed144d6de" x="143.621477" y="307.634214" style="fill: #8c564b; stroke: #000000; stroke-linejoin: miter"/>
     <use xlink:href="#m3ed144d6de" x="167.294205" y="307.633471" style="fill: #8c564b; stroke: #000000; stroke-linejoin: miter"/>
     <use xlink:href="#m3ed144d6de" x="214.639659" y="307.663455" style="fill: #8c564b; stroke: #000000; stroke-linejoin: miter"/>
     <use xlink:href="#m3ed144d6de" x="356.676023" y="307.692534" style="fill: #8c564b; stroke: #000000; stroke-linejoin: miter"/>
    </g>
   </g>
   <g id="line2d_26">
    <path d="M 72.603295 307.8 
L 72.958386 305.291898 
L 73.313477 291.142952 
L 74.023659 239.673018 
L 75.088932 158.687432 
L 75.799114 116.665263 
L 76.509295 86.514435 
L 77.219477 67.467702 
L 77.574568 61.604476 
L 77.929659 57.865647 
L 78.28475 56.009373 
L 78.639841 55.8 
L 78.994932 57.013396 
L 79.350023 59.440298 
L 80.060205 67.182236 
L 81.125477 83.653876 
L 83.256023 123.185066 
L 85.031477 154.877423 
L 86.451841 176.984894 
L 87.872205 195.751872 
L 89.292568 211.305145 
L 90.712932 223.991754 
L 92.133295 234.229407 
L 93.553659 242.430273 
L 94.618932 247.470041 
L 95.684205 251.712325 
L 96.749477 255.277926 
L 98.169841 259.158074 
L 99.590205 262.227184 
L 101.010568 264.652881 
L 102.430932 266.569411 
L 103.851295 268.083709 
L 105.271659 269.280646 
L 106.692023 270.227402 
L 108.467477 271.138797 
L 110.598023 271.935624 
L 113.083659 272.578405 
L 115.924386 273.063261 
L 119.475295 273.440313 
L 124.801659 273.753624 
L 133.678932 274.010073 
L 158.180205 274.406813 
L 332.529841 276.871057 
L 427.694205 278.138432 
L 427.694205 278.138432 
" clip-path="url(#p49236a2064)" style="fill: none; stroke: #e377c2; stroke-width: 2; stroke-linecap: square"/>
   </g>
   <g id="line2d_27">
    <path d="M 72.603295 307.8 
L 78.521477 307.510297 
L 84.439659 307.283397 
L 90.357841 307.228698 
L 96.276023 307.125377 
L 102.194205 307.206413 
L 108.112386 307.206413 
L 119.94875 307.250983 
L 143.621477 307.388743 
L 167.294205 307.473831 
L 214.639659 307.542711 
L 356.676023 307.613618 
" clip-path="url(#p49236a2064)" style="fill: none; stroke-dasharray: 3.7,1.6; stroke-dashoffset: 0; stroke: #e377c2"/>
    <defs>
     <path id="m5c03cf9a58" d="M -3 3 
L 3 3 
L 3 -3 
L -3 -3 
z
" style="stroke: #000000; stroke-linejoin: miter"/>
    </defs>
    <g clip-path="url(#p49236a2064)">
     <use xlink:href="#m5c03cf9a58" x="72.603295" y="307.8" style="fill: #e377c2; stroke: #000000; stroke-linejoin: miter"/>
     <use xlink:href="#m5c03cf9a58" x="78.521477" y="307.510297" style="fill: #e377c2; stroke: #000000; stroke-linejoin: miter"/>
     <use xlink:href="#m5c03cf9a58" x="84.439659" y="307.283397" style="fill: #e377c2; stroke: #000000; stroke-linejoin: miter"/>
     <use xlink:href="#m5c03cf9a58" x="90.357841" y="307.228698" style="fill: #e377c2; stroke: #000000; stroke-linejoin: miter"/>
     <use xlink:href="#m5c03cf9a58" x="96.276023" y="307.125377" style="fill: #e377c2; stroke: #000000; stroke-linejoin: miter"/>
     <use xlink:href="#m5c03cf9a58" x="102.194205" y="307.206413" style="fill: #e377c2; stroke: #000000; stroke-linejoin: miter"/>
     <use xlink:href="#m5c03cf9a58" x="108.112386" y="307.206413" style="fill: #e377c2; stroke: #000000; stroke-linejoin: miter"/>
     <use xlink:href="#m5c03cf9a58" x="119.94875" y="307.250983" style="fill: #e377c2; stroke: #000000; stroke-linejoin: miter"/>
     <use xlink:href="#m5c03cf9a58" x="143.621477" y="307.388743" style="fill: #e377c2; stroke: #000000; stroke-linejoin: miter"/>
     <use xlink:href="#m5c03cf9a58" x="167.294205" y="307.473831" style="fill: #e377c2; stroke: #000000; stroke-linejoin: miter"/>
     <use xlink:href="#m5c03cf9a58" x="214.639659" y="307.542711" style="fill: #e377c2; stroke: #000000; stroke-linejoin: miter"/>
     <use xlink:href="#m5c03cf9a58" x="356.676023" y="307.613618" style="fill: #e377c2; stroke: #000000; stroke-linejoin: miter"/>
    </g>
   </g>
   <g id="line2d_28">
    <path d="M 72.603295 307.8 
L 72.958386 305.291898 
L 73.313477 291.142952 
L 74.023659 239.673018 
L 75.088932 158.687432 
L 75.799114 116.665263 
L 76.509295 86.514435 
L 77.219477 67.467702 
L 77.574568 61.604476 
L 77.929659 57.865647 
L 78.28475 56.009373 
L 78.639841 55.8 
L 78.994932 57.013396 
L 79.350023 59.440298 
L 80.060205 67.182236 
L 81.125477 83.653876 
L 83.256023 123.185066 
L 85.031477 154.877423 
L 86.451841 176.984894 
L 87.872205 195.751872 
L 89.292568 211.305145 
L 90.712932 223.991754 
L 92.133295 234.229407 
L 93.553659 242.430273 
L 94.618932 247.470041 
L 95.684205 251.712325 
L 96.749477 255.277926 
L 98.169841 259.158074 
L 99.590205 262.227184 
L 101.010568 264.652881 
L 102.430932 266.569411 
L 103.851295 268.083709 
L 105.271659 269.280646 
L 106.692023 270.227402 
L 108.467477 271.138797 
L 110.598023 271.935624 
L 113.083659 272.578405 
L 115.924386 273.063261 
L 119.475295 273.440313 
L 124.801659 273.753624 
L 133.678932 274.010073 
L 158.180205 274.406813 
L 332.529841 276.871057 
L 427.694205 278.138432 
L 427.694205 278.138432 
" clip-path="url(#p49236a2064)" style="fill: none; stroke: #7f7f7f; stroke-width: 2; stroke-linecap: square"/>
   </g>
   <g id="line2d_29">
    <path d="M 72.603295 307.8 
L 78.521477 307.564996 
L 84.439659 307.157791 
L 90.357841 307.115248 
L 96.276023 307.327967 
L 102.194205 307.394821 
L 108.112386 307.421158 
L 119.94875 307.516375 
L 143.621477 307.587281 
L 167.294205 307.627799 
L 214.639659 307.64198 
L 356.676023 307.696679 
" clip-path="url(#p49236a2064)" style="fill: none; stroke-dasharray: 3.7,1.6; stroke-dashoffset: 0; stroke: #7f7f7f"/>
    <defs>
     <path id="m673f91452a" d="M -3 3 
L 3 3 
L 3 -3 
L -3 -3 
z
" style="stroke: #000000; stroke-linejoin: miter"/>
    </defs>
    <g clip-path="url(#p49236a2064)">
     <use xlink:href="#m673f91452a" x="72.603295" y="307.8" style="fill: #7f7f7f; stroke: #000000; stroke-linejoin: miter"/>
     <use xlink:href="#m673f91452a" x="78.521477" y="307.564996" style="fill: #7f7f7f; stroke: #000000; stroke-linejoin: miter"/>
     <use xlink:href="#m673f91452a" x="84.439659" y="307.157791" style="fill: #7f7f7f; stroke: #000000; stroke-linejoin: miter"/>
     <use xlink:href="#m673f91452a" x="90.357841" y="307.115248" style="fill: #7f7f7f; stroke: #000000; stroke-linejoin: miter"/>
     <use xlink:href="#m673f91452a" x="96.276023" y="307.327967" style="fill: #7f7f7f; stroke: #000000; stroke-linejoin: miter"/>
     <use xlink:href="#m673f91452a" x="102.194205" y="307.394821" style="fill: #7f7f7f; stroke: #000000; stroke-linejoin: miter"/>
     <use xlink:href="#m673f91452a" x="108.112386" y="307.421158" style="fill: #7f7f7f; stroke: #000000; stroke-linejoin: miter"/>
     <use xlink:href="#m673f91452a" x="119.94875" y="307.516375" style="fill: #7f7f7f; stroke: #000000; stroke-linejoin: miter"/>
     <use xlink:href="#m673f91452a" x="143.621477" y="307.587281" style="fill: #7f7f7f; stroke: #000000; stroke-linejoin: miter"/>
     <use xlink:href="#m673f91452a" x="167.294205" y="307.627799" style="fill: #7f7f7f; stroke: #000000; stroke-linejoin: miter"/>
     <use xlink:href="#m673f91452a" x="214.639659" y="307.64198" style="fill: #7f7f7f; stroke: #000000; stroke-linejoin: miter"/>
     <use xlink:href="#m673f91452a" x="356.676023" y="307.696679" style="fill: #7f7f7f; stroke: #000000; stroke-linejoin: miter"/>
    </g>
   </g>
   <g id="line2d_30">
    <path d="M 72.603295 307.8 
L 72.958386 305.291898 
L 73.313477 291.142952 
L 74.023659 239.673018 
L 75.088932 158.687432 
L 75.799114 116.665263 
L 76.509295 86.514435 
L 77.219477 67.467702 
L 77.574568 61.604476 
L 77.929659 57.865647 
L 78.28475 56.009373 
L 78.639841 55.8 
L 78.994932 57.013396 
L 79.350023 59.440298 
L 80.060205 67.182236 
L 81.125477 83.653876 
L 83.256023 123.185066 
L 85.031477 154.877423 
L 86.451841 176.984894 
L 87.872205 195.751872 
L 89.292568 211.305145 
L 90.712932 223.991754 
L 92.133295 234.229407 
L 93.553659 242.430273 
L 94.618932 247.470041 
L 95.684205 251.712325 
L 96.749477 255.277926 
L 98.169841 259.158074 
L 99.590205 262.227184 
L 101.010568 264.652881 
L 102.430932 266.569411 
L 103.851295 268.083709 
L 105.271659 269.280646 
L 106.692023 270.227402 
L 108.467477 271.138797 
L 110.598023 271.935624 
L 113.083659 272.578405 
L 115.924386 273.063261 
L 119.475295 273.440313 
L 124.801659 273.753624 
L 133.678932 274.010073 
L 158.180205 274.406813 
L 332.529841 276.871057 
L 427.694205 278.138432 
L 427.694205 278.138432 
" clip-path="url(#p49236a2064)" style="fill: none; stroke: #bcbd22; stroke-width: 2; stroke-linecap: square"/>
   </g>
   <g id="line2d_31">
    <path d="M 72.603295 307.8 
L 78.521477 307.603488 
L 84.439659 307.184128 
L 90.357841 307.202361 
L 96.276023 307.23275 
L 102.194205 307.287449 
L 108.112386 307.295552 
L 119.94875 307.455598 
L 143.621477 307.603488 
L 167.294205 307.639954 
L 214.639659 307.680472 
L 356.676023 307.692628 
" clip-path="url(#p49236a2064)" style="fill: none; stroke-dasharray: 3.7,1.6; stroke-dashoffset: 0; stroke: #bcbd22"/>
    <defs>
     <path id="m6e63580dae" d="M -3 3 
L 3 3 
L 3 -3 
L -3 -3 
z
" style="stroke: #000000; stroke-linejoin: miter"/>
    </defs>
    <g clip-path="url(#p49236a2064)">
     <use xlink:href="#m6e63580dae" x="72.603295" y="307.8" style="fill: #bcbd22; stroke: #000000; stroke-linejoin: miter"/>
     <use xlink:href="#m6e63580dae" x="78.521477" y="307.603488" style="fill: #bcbd22; stroke: #000000; stroke-linejoin: miter"/>
     <use xlink:href="#m6e63580dae" x="84.439659" y="307.184128" style="fill: #bcbd22; stroke: #000000; stroke-linejoin: miter"/>
     <use xlink:href="#m6e63580dae" x="90.357841" y="307.202361" style="fill: #bcbd22; stroke: #000000; stroke-linejoin: miter"/>
     <use xlink:href="#m6e63580dae" x="96.276023" y="307.23275" style="fill: #bcbd22; stroke: #000000; stroke-linejoin: miter"/>
     <use xlink:href="#m6e63580dae" x="102.194205" y="307.287449" style="fill: #bcbd22; stroke: #000000; stroke-linejoin: miter"/>
     <use xlink:href="#m6e63580dae" x="108.112386" y="307.295552" style="fill: #bcbd22; stroke: #000000; stroke-linejoin: miter"/>
     <use xlink:href="#m6e63580dae" x="119.94875" y="307.455598" style="fill: #bcbd22; stroke: #000000; stroke-linejoin: miter"/>
     <use xlink:href="#m6e63580dae" x="143.621477" y="307.603488" style="fill: #bcbd22; stroke: #000000; stroke-linejoin: miter"/>
     <use xlink:href="#m6e63580dae" x="167.294205" y="307.639954" style="fill: #bcbd22; stroke: #000000; stroke-linejoin: miter"/>
     <use xlink:href="#m6e63580dae" x="214.639659" y="307.680472" style="fill: #bcbd22; stroke: #000000; stroke-linejoin: miter"/>
     <use xlink:href="#m6e63580dae" x="356.676023" y="307.692628" style="fill: #bcbd22; stroke: #000000; stroke-linejoin: miter"/>
    </g>
   </g>
   <g id="line2d_32">
    <path d="M 72.603295 307.8 
L 72.958386 305.291898 
L 73.313477 291.142952 
L 74.023659 239.673018 
L 75.088932 158.687432 
L 75.799114 116.665263 
L 76.509295 86.514435 
L 77.219477 67.467702 
L 77.574568 61.604476 
L 77.929659 57.865647 
L 78.28475 56.009373 
L 78.639841 55.8 
L 78.994932 57.013396 
L 79.350023 59.440298 
L 80.060205 67.182236 
L 81.125477 83.653876 
L 83.256023 123.185066 
L 85.031477 154.877423 
L 86.451841 176.984894 
L 87.872205 195.751872 
L 89.292568 211.305145 
L 90.712932 223.991754 
L 92.133295 234.229407 
L 93.553659 242.430273 
L 94.618932 247.470041 
L 95.684205 251.712325 
L 96.749477 255.277926 
L 98.169841 259.158074 
L 99.590205 262.227184 
L 101.010568 264.652881 
L 102.430932 266.569411 
L 103.851295 268.083709 
L 105.271659 269.280646 
L 106.692023 270.227402 
L 108.467477 271.138797 
L 110.598023 271.935624 
L 113.083659 272.578405 
L 115.924386 273.063261 
L 119.475295 273.440313 
L 124.801659 273.753624 
L 133.678932 274.010073 
L 158.180205 274.406813 
L 332.529841 276.871057 
L 427.694205 278.138432 
L 427.694205 278.138432 
" clip-path="url(#p49236a2064)" style="fill: none; stroke: #17becf; stroke-width: 2; stroke-linecap: square"/>
   </g>
   <g id="line2d_33">
    <path d="M 72.603295 307.8 
L 78.521477 307.621721 
L 84.439659 307.49409 
L 90.357841 307.340122 
L 96.276023 307.457624 
L 102.194205 307.500168 
L 108.112386 307.530556 
L 119.94875 307.571074 
L 143.621477 307.646032 
L 167.294205 307.654136 
L 214.639659 307.678446 
L 356.676023 307.710861 
" clip-path="url(#p49236a2064)" style="fill: none; stroke-dasharray: 3.7,1.6; stroke-dashoffset: 0; stroke: #17becf"/>
    <defs>
     <path id="m5ed8d7f5ac" d="M -3 3 
L 3 3 
L 3 -3 
L -3 -3 
z
" style="stroke: #000000; stroke-linejoin: miter"/>
    </defs>
    <g clip-path="url(#p49236a2064)">
     <use xlink:href="#m5ed8d7f5ac" x="72.603295" y="307.8" style="fill: #17becf; stroke: #000000; stroke-linejoin: miter"/>
     <use xlink:href="#m5ed8d7f5ac" x="78.521477" y="307.621721" style="fill: #17becf; stroke: #000000; stroke-linejoin: miter"/>
     <use xlink:href="#m5ed8d7f5ac" x="84.439659" y="307.49409" style="fill: #17becf; stroke: #000000; stroke-linejoin: miter"/>
     <use xlink:href="#m5ed8d7f5ac" x="90.357841" y="307.340122" style="fill: #17becf; stroke: #000000; stroke-linejoin: miter"/>
     <use xlink:href="#m5ed8d7f5ac" x="96.276023" y="307.457624" style="fill: #17becf; stroke: #000000; stroke-linejoin: miter"/>
     <use xlink:href="#m5ed8d7f5ac" x="102.194205" y="307.500168" style="fill: #17becf; stroke: #000000; stroke-linejoin: miter"/>
     <use xlink:href="#m5ed8d7f5ac" x="108.112386" y="307.530556" style="fill: #17becf; stroke: #000000; stroke-linejoin: miter"/>
     <use xlink:href="#m5ed8d7f5ac" x="119.94875" y="307.571074" style="fill: #17becf; stroke: #000000; stroke-linejoin: miter"/>
     <use xlink:href="#m5ed8d7f5ac" x="143.621477" y="307.646032" style="fill: #17becf; stroke: #000000; stroke-linejoin: miter"/>
     <use xlink:href="#m5ed8d7f5ac" x="167.294205" y="307.654136" style="fill: #17becf; stroke: #000000; stroke-linejoin: miter"/>
     <use xlink:href="#m5ed8d7f5ac" x="214.639659" y="307.678446" style="fill: #17becf; stroke: #000000; stroke-linejoin: miter"/>
     <use xlink:href="#m5ed8d7f5ac" x="356.676023" y="307.710861" style="fill: #17becf; stroke: #000000; stroke-linejoin: miter"/>
    </g>
   </g>
   <g id="line2d_34">
    <path d="M 72.603295 307.8 
L 72.958386 305.291898 
L 73.313477 291.142952 
L 74.023659 239.673018 
L 75.088932 158.687432 
L 75.799114 116.665263 
L 76.509295 86.514435 
L 77.219477 67.467702 
L 77.574568 61.604476 
L 77.929659 57.865647 
L 78.28475 56.009373 
L 78.639841 55.8 
L 78.994932 57.013396 
L 79.350023 59.440298 
L 80.060205 67.182236 
L 81.125477 83.653876 
L 83.256023 123.185066 
L 85.031477 154.877423 
L 86.451841 176.984894 
L 87.872205 195.751872 
L 89.292568 211.305145 
L 90.712932 223.991754 
L 92.133295 234.229407 
L 93.553659 242.430273 
L 94.618932 247.470041 
L 95.684205 251.712325 
L 96.749477 255.277926 
L 98.169841 259.158074 
L 99.590205 262.227184 
L 101.010568 264.652881 
L 102.430932 266.569411 
L 103.851295 268.083709 
L 105.271659 269.280646 
L 106.692023 270.227402 
L 108.467477 271.138797 
L 110.598023 271.935624 
L 113.083659 272.578405 
L 115.924386 273.063261 
L 119.475295 273.440313 
L 124.801659 273.753624 
L 133.678932 274.010073 
L 158.180205 274.406813 
L 332.529841 276.871057 
L 427.694205 278.138432 
L 427.694205 278.138432 
" clip-path="url(#p49236a2064)" style="fill: none; stroke: #1f77b4; stroke-width: 2; stroke-linecap: square"/>
   </g>
   <g id="line2d_35">
    <path d="M 72.603295 307.8 
L 78.521477 307.644006 
L 84.439659 307.42521 
L 90.357841 307.295552 
L 96.276023 307.429261 
L 102.194205 307.396847 
L 108.112386 307.506245 
L 119.94875 307.560944 
L 143.621477 307.619695 
L 167.294205 307.629825 
L 214.639659 307.672369 
L 356.676023 307.704783 
" clip-path="url(#p49236a2064)" style="fill: none; stroke-dasharray: 3.7,1.6; stroke-dashoffset: 0; stroke: #1f77b4"/>
    <g clip-path="url(#p49236a2064)">
     <use xlink:href="#m707db03af4" x="72.603295" y="307.8" style="fill: #1f77b4; stroke: #000000; stroke-linejoin: miter"/>
     <use xlink:href="#m707db03af4" x="78.521477" y="307.644006" style="fill: #1f77b4; stroke: #000000; stroke-linejoin: miter"/>
     <use xlink:href="#m707db03af4" x="84.439659" y="307.42521" style="fill: #1f77b4; stroke: #000000; stroke-linejoin: miter"/>
     <use xlink:href="#m707db03af4" x="90.357841" y="307.295552" style="fill: #1f77b4; stroke: #000000; stroke-linejoin: miter"/>
     <use xlink:href="#m707db03af4" x="96.276023" y="307.429261" style="fill: #1f77b4; stroke: #000000; stroke-linejoin: miter"/>
     <use xlink:href="#m707db03af4" x="102.194205" y="307.396847" style="fill: #1f77b4; stroke: #000000; stroke-linejoin: miter"/>
     <use xlink:href="#m707db03af4" x="108.112386" y="307.506245" style="fill: #1f77b4; stroke: #000000; stroke-linejoin: miter"/>
     <use xlink:href="#m707db03af4" x="119.94875" y="307.560944" style="fill: #1f77b4; stroke: #000000; stroke-linejoin: miter"/>
     <use xlink:href="#m707db03af4" x="143.621477" y="307.619695" style="fill: #1f77b4; stroke: #000000; stroke-linejoin: miter"/>
     <use xlink:href="#m707db03af4" x="167.294205" y="307.629825" style="fill: #1f77b4; stroke: #000000; stroke-linejoin: miter"/>
     <use xlink:href="#m707db03af4" x="214.639659" y="307.672369" style="fill: #1f77b4; stroke: #000000; stroke-linejoin: miter"/>
     <use xlink:href="#m707db03af4" x="356.676023" y="307.704783" style="fill: #1f77b4; stroke: #000000; stroke-linejoin: miter"/>
    </g>
   </g>
   <g id="line2d_36">
    <path d="M 72.603295 307.8 
L 72.958386 305.291898 
L 73.313477 291.142952 
L 74.023659 239.673018 
L 75.088932 158.687432 
L 75.799114 116.665263 
L 76.509295 86.514435 
L 77.219477 67.467702 
L 77.574568 61.604476 
L 77.929659 57.865647 
L 78.28475 56.009373 
L 78.639841 55.8 
L 78.994932 57.013396 
L 79.350023 59.440298 
L 80.060205 67.182236 
L 81.125477 83.653876 
L 83.256023 123.185066 
L 85.031477 154.877423 
L 86.451841 176.984894 
L 87.872205 195.751872 
L 89.292568 211.305145 
L 90.712932 223.991754 
L 92.133295 234.229407 
L 93.553659 242.430273 
L 94.618932 247.470041 
L 95.684205 251.712325 
L 96.749477 255.277926 
L 98.169841 259.158074 
L 99.590205 262.227184 
L 101.010568 264.652881 
L 102.430932 266.569411 
L 103.851295 268.083709 
L 105.271659 269.280646 
L 106.692023 270.227402 
L 108.467477 271.138797 
L 110.598023 271.935624 
L 113.083659 272.578405 
L 115.924386 273.063261 
L 119.475295 273.440313 
L 124.801659 273.753624 
L 133.678932 274.010073 
L 158.180205 274.406813 
L 332.529841 276.871057 
L 427.694205 278.138432 
L 427.694205 278.138432 
" clip-path="url(#p49236a2064)" style="fill: none; stroke: #ff7f0e; stroke-width: 2; stroke-linecap: square"/>
   </g>
   <g id="line2d_37">
    <path d="M 72.603295 307.8 
L 78.521477 307.597411 
L 84.439659 307.536634 
L 90.357841 307.176024 
L 96.276023 307.352277 
L 102.194205 307.429261 
L 108.112386 307.445468 
L 119.94875 307.53866 
L 143.621477 307.601462 
L 167.294205 307.67642 
L 214.639659 307.690602 
L 356.676023 307.716938 
" clip-path="url(#p49236a2064)" style="fill: none; stroke-dasharray: 3.7,1.6; stroke-dashoffset: 0; stroke: #ff7f0e"/>
    <g clip-path="url(#p49236a2064)">
     <use xlink:href="#mf8bfc6441a" x="72.603295" y="307.8" style="fill: #ff7f0e; stroke: #000000; stroke-linejoin: miter"/>
     <use xlink:href="#mf8bfc6441a" x="78.521477" y="307.597411" style="fill: #ff7f0e; stroke: #000000; stroke-linejoin: miter"/>
     <use xlink:href="#mf8bfc6441a" x="84.439659" y="307.536634" style="fill: #ff7f0e; stroke: #000000; stroke-linejoin: miter"/>
     <use xlink:href="#mf8bfc6441a" x="90.357841" y="307.176024" style="fill: #ff7f0e; stroke: #000000; stroke-linejoin: miter"/>
     <use xlink:href="#mf8bfc6441a" x="96.276023" y="307.352277" style="fill: #ff7f0e; stroke: #000000; stroke-linejoin: miter"/>
     <use xlink:href="#mf8bfc6441a" x="102.194205" y="307.429261" style="fill: #ff7f0e; stroke: #000000; stroke-linejoin: miter"/>
     <use xlink:href="#mf8bfc6441a" x="108.112386" y="307.445468" style="fill: #ff7f0e; stroke: #000000; stroke-linejoin: miter"/>
     <use xlink:href="#mf8bfc6441a" x="119.94875" y="307.53866" style="fill: #ff7f0e; stroke: #000000; stroke-linejoin: miter"/>
     <use xlink:href="#mf8bfc6441a" x="143.621477" y="307.601462" style="fill: #ff7f0e; stroke: #000000; stroke-linejoin: miter"/>
     <use xlink:href="#mf8bfc6441a" x="167.294205" y="307.67642" style="fill: #ff7f0e; stroke: #000000; stroke-linejoin: miter"/>
     <use xlink:href="#mf8bfc6441a" x="214.639659" y="307.690602" style="fill: #ff7f0e; stroke: #000000; stroke-linejoin: miter"/>
     <use xlink:href="#mf8bfc6441a" x="356.676023" y="307.716938" style="fill: #ff7f0e; stroke: #000000; stroke-linejoin: miter"/>
    </g>
   </g>
   <g id="patch_3">
    <path d="M 54.84875 320.4 
L 54.84875 43.2 
" style="fill: none; stroke: #000000; stroke-width: 0.8; stroke-linejoin: miter; stroke-linecap: square"/>
   </g>
   <g id="patch_4">
    <path d="M 445.44875 320.4 
L 445.44875 43.2 
" style="fill: none; stroke: #000000; stroke-width: 0.8; stroke-linejoin: miter; stroke-linecap: square"/>
   </g>
   <g id="patch_5">
    <path d="M 54.84875 320.4 
L 445.44875 320.4 
" style="fill: none; stroke: #000000; stroke-width: 0.8; stroke-linejoin: miter; stroke-linecap: square"/>
   </g>
   <g id="patch_6">
    <path d="M 54.84875 43.2 
L 445.44875 43.2 
" style="fill: none; stroke: #000000; stroke-width: 0.8; stroke-linejoin: miter; stroke-linecap: square"/>
   </g>
   <g id="legend_1">
    <g id="patch_7">
     <path d="M 468.07275 242.015625 
L 551.207125 242.015625 
Q 553.207125 242.015625 553.207125 240.015625 
L 553.207125 50.2 
Q 553.207125 48.2 551.207125 48.2 
L 468.07275 48.2 
Q 466.07275 48.2 466.07275 50.2 
L 466.07275 240.015625 
Q 466.07275 242.015625 468.07275 242.015625 
z
" style="fill: #ffffff; opacity: 0.8; stroke: #cccccc; stroke-linejoin: miter"/>
    </g>
    <g id="line2d_38">
     <path d="M 470.07275 56.298437 
L 490.07275 56.298437 
" style="fill: none; stroke: #1f77b4; stroke-width: 2; stroke-linecap: square"/>
    </g>
    <g id="line2d_39"/>
    <g id="text_16">
     <!-- RAP6 -->
     <g transform="translate(498.07275 59.798437) scale(0.1 -0.1)">
      <defs>
       <path id="DejaVuSans-52" d="M 2841 2188 
Q 3044 2119 3236 1894 
Q 3428 1669 3622 1275 
L 4263 0 
L 3584 0 
L 2988 1197 
Q 2756 1666 2539 1819 
Q 2322 1972 1947 1972 
L 1259 1972 
L 1259 0 
L 628 0 
L 628 4666 
L 2053 4666 
Q 2853 4666 3247 4331 
Q 3641 3997 3641 3322 
Q 3641 2881 3436 2590 
Q 3231 2300 2841 2188 
z
M 1259 4147 
L 1259 2491 
L 2053 2491 
Q 2509 2491 2742 2702 
Q 2975 2913 2975 3322 
Q 2975 3731 2742 3939 
Q 2509 4147 2053 4147 
L 1259 4147 
z
" transform="scale(0.015625)"/>
       <path id="DejaVuSans-41" d="M 2188 4044 
L 1331 1722 
L 3047 1722 
L 2188 4044 
z
M 1831 4666 
L 2547 4666 
L 4325 0 
L 3669 0 
L 3244 1197 
L 1141 1197 
L 716 0 
L 50 0 
L 1831 4666 
z
" transform="scale(0.015625)"/>
       <path id="DejaVuSans-50" d="M 1259 4147 
L 1259 2394 
L 2053 2394 
Q 2494 2394 2734 2622 
Q 2975 2850 2975 3272 
Q 2975 3691 2734 3919 
Q 2494 4147 2053 4147 
L 1259 4147 
z
M 628 4666 
L 2053 4666 
Q 2838 4666 3239 4311 
Q 3641 3956 3641 3272 
Q 3641 2581 3239 2228 
Q 2838 1875 2053 1875 
L 1259 1875 
L 1259 0 
L 628 0 
L 628 4666 
z
" transform="scale(0.015625)"/>
      </defs>
      <use xlink:href="#DejaVuSans-52"/>
      <use xlink:href="#DejaVuSans-41" transform="translate(65.482422 0)"/>
      <use xlink:href="#DejaVuSans-50" transform="translate(133.890625 0)"/>
      <use xlink:href="#DejaVuSans-36" transform="translate(194.193359 0)"/>
     </g>
    </g>
    <g id="line2d_40">
     <path d="M 470.07275 70.976562 
L 490.07275 70.976562 
" style="fill: none; stroke-dasharray: 3.7,1.6; stroke-dashoffset: 0; stroke: #1f77b4"/>
    </g>
    <g id="line2d_41">
     <g>
      <use xlink:href="#m707db03af4" x="480.07275" y="70.976562" style="fill: #1f77b4; stroke: #000000; stroke-linejoin: miter"/>
     </g>
    </g>
    <g id="text_17">
     <!-- S1 (n=1) -->
     <g transform="translate(498.07275 74.476562) scale(0.1 -0.1)">
      <defs>
       <path id="DejaVuSans-53" d="M 3425 4513 
L 3425 3897 
Q 3066 4069 2747 4153 
Q 2428 4238 2131 4238 
Q 1616 4238 1336 4038 
Q 1056 3838 1056 3469 
Q 1056 3159 1242 3001 
Q 1428 2844 1947 2747 
L 2328 2669 
Q 3034 2534 3370 2195 
Q 3706 1856 3706 1288 
Q 3706 609 3251 259 
Q 2797 -91 1919 -91 
Q 1588 -91 1214 -16 
Q 841 59 441 206 
L 441 856 
Q 825 641 1194 531 
Q 1563 422 1919 422 
Q 2459 422 2753 634 
Q 3047 847 3047 1241 
Q 3047 1584 2836 1778 
Q 2625 1972 2144 2069 
L 1759 2144 
Q 1053 2284 737 2584 
Q 422 2884 422 3419 
Q 422 4038 858 4394 
Q 1294 4750 2059 4750 
Q 2388 4750 2728 4690 
Q 3069 4631 3425 4513 
z
" transform="scale(0.015625)"/>
       <path id="DejaVuSans-20" transform="scale(0.015625)"/>
       <path id="DejaVuSans-28" d="M 1984 4856 
Q 1566 4138 1362 3434 
Q 1159 2731 1159 2009 
Q 1159 1288 1364 580 
Q 1569 -128 1984 -844 
L 1484 -844 
Q 1016 -109 783 600 
Q 550 1309 550 2009 
Q 550 2706 781 3412 
Q 1013 4119 1484 4856 
L 1984 4856 
z
" transform="scale(0.015625)"/>
       <path id="DejaVuSans-6e" d="M 3513 2113 
L 3513 0 
L 2938 0 
L 2938 2094 
Q 2938 2591 2744 2837 
Q 2550 3084 2163 3084 
Q 1697 3084 1428 2787 
Q 1159 2491 1159 1978 
L 1159 0 
L 581 0 
L 581 3500 
L 1159 3500 
L 1159 2956 
Q 1366 3272 1645 3428 
Q 1925 3584 2291 3584 
Q 2894 3584 3203 3211 
Q 3513 2838 3513 2113 
z
" transform="scale(0.015625)"/>
       <path id="DejaVuSans-3d" d="M 678 2906 
L 4684 2906 
L 4684 2381 
L 678 2381 
L 678 2906 
z
M 678 1631 
L 4684 1631 
L 4684 1100 
L 678 1100 
L 678 1631 
z
" transform="scale(0.015625)"/>
       <path id="DejaVuSans-29" d="M 513 4856 
L 1013 4856 
Q 1481 4119 1714 3412 
Q 1947 2706 1947 2009 
Q 1947 1309 1714 600 
Q 1481 -109 1013 -844 
L 513 -844 
Q 928 -128 1133 580 
Q 1338 1288 1338 2009 
Q 1338 2731 1133 3434 
Q 928 4138 513 4856 
z
" transform="scale(0.015625)"/>
      </defs>
      <use xlink:href="#DejaVuSans-53"/>
      <use xlink:href="#DejaVuSans-31" transform="translate(63.476562 0)"/>
      <use xlink:href="#DejaVuSans-20" transform="translate(127.099609 0)"/>
      <use xlink:href="#DejaVuSans-28" transform="translate(158.886719 0)"/>
      <use xlink:href="#DejaVuSans-6e" transform="translate(197.900391 0)"/>
      <use xlink:href="#DejaVuSans-3d" transform="translate(261.279297 0)"/>
      <use xlink:href="#DejaVuSans-31" transform="translate(345.068359 0)"/>
      <use xlink:href="#DejaVuSans-29" transform="translate(408.691406 0)"/>
     </g>
    </g>
    <g id="line2d_42">
     <path d="M 470.07275 85.654687 
L 490.07275 85.654687 
" style="fill: none; stroke-dasharray: 3.7,1.6; stroke-dashoffset: 0; stroke: #ff7f0e"/>
    </g>
    <g id="line2d_43">
     <g>
      <use xlink:href="#mf8bfc6441a" x="480.07275" y="85.654687" style="fill: #ff7f0e; stroke: #000000; stroke-linejoin: miter"/>
     </g>
    </g>
    <g id="text_18">
     <!-- S2 (n=1) -->
     <g transform="translate(498.07275 89.154687) scale(0.1 -0.1)">
      <use xlink:href="#DejaVuSans-53"/>
      <use xlink:href="#DejaVuSans-32" transform="translate(63.476562 0)"/>
      <use xlink:href="#DejaVuSans-20" transform="translate(127.099609 0)"/>
      <use xlink:href="#DejaVuSans-28" transform="translate(158.886719 0)"/>
      <use xlink:href="#DejaVuSans-6e" transform="translate(197.900391 0)"/>
      <use xlink:href="#DejaVuSans-3d" transform="translate(261.279297 0)"/>
      <use xlink:href="#DejaVuSans-31" transform="translate(345.068359 0)"/>
      <use xlink:href="#DejaVuSans-29" transform="translate(408.691406 0)"/>
     </g>
    </g>
    <g id="line2d_44">
     <path d="M 470.07275 100.332812 
L 490.07275 100.332812 
" style="fill: none; stroke-dasharray: 3.7,1.6; stroke-dashoffset: 0; stroke: #2ca02c"/>
    </g>
    <g id="line2d_45">
     <g>
      <use xlink:href="#m3b7445bb5d" x="480.07275" y="100.332812" style="fill: #2ca02c; stroke: #000000; stroke-linejoin: miter"/>
     </g>
    </g>
    <g id="text_19">
     <!-- S3 (n=1) -->
     <g transform="translate(498.07275 103.832812) scale(0.1 -0.1)">
      <use xlink:href="#DejaVuSans-53"/>
      <use xlink:href="#DejaVuSans-33" transform="translate(63.476562 0)"/>
      <use xlink:href="#DejaVuSans-20" transform="translate(127.099609 0)"/>
      <use xlink:href="#DejaVuSans-28" transform="translate(158.886719 0)"/>
      <use xlink:href="#DejaVuSans-6e" transform="translate(197.900391 0)"/>
      <use xlink:href="#DejaVuSans-3d" transform="translate(261.279297 0)"/>
      <use xlink:href="#DejaVuSans-31" transform="translate(345.068359 0)"/>
      <use xlink:href="#DejaVuSans-29" transform="translate(408.691406 0)"/>
     </g>
    </g>
    <g id="line2d_46">
     <path d="M 470.07275 115.010937 
L 490.07275 115.010937 
" style="fill: none; stroke-dasharray: 3.7,1.6; stroke-dashoffset: 0; stroke: #d62728"/>
    </g>
    <g id="line2d_47">
     <g>
      <use xlink:href="#mafa56bae41" x="480.07275" y="115.010937" style="fill: #d62728; stroke: #000000; stroke-linejoin: miter"/>
     </g>
    </g>
    <g id="text_20">
     <!-- S4 (n=1) -->
     <g transform="translate(498.07275 118.510937) scale(0.1 -0.1)">
      <use xlink:href="#DejaVuSans-53"/>
      <use xlink:href="#DejaVuSans-34" transform="translate(63.476562 0)"/>
      <use xlink:href="#DejaVuSans-20" transform="translate(127.099609 0)"/>
      <use xlink:href="#DejaVuSans-28" transform="translate(158.886719 0)"/>
      <use xlink:href="#DejaVuSans-6e" transform="translate(197.900391 0)"/>
      <use xlink:href="#DejaVuSans-3d" transform="translate(261.279297 0)"/>
      <use xlink:href="#DejaVuSans-31" transform="translate(345.068359 0)"/>
      <use xlink:href="#DejaVuSans-29" transform="translate(408.691406 0)"/>
     </g>
    </g>
    <g id="line2d_48">
     <path d="M 470.07275 129.689062 
L 490.07275 129.689062 
" style="fill: none; stroke-dasharray: 3.7,1.6; stroke-dashoffset: 0; stroke: #9467bd"/>
    </g>
    <g id="line2d_49">
     <g>
      <use xlink:href="#m2c9d4ea4ae" x="480.07275" y="129.689062" style="fill: #9467bd; stroke: #000000; stroke-linejoin: miter"/>
     </g>
    </g>
    <g id="text_21">
     <!-- S5 (n=1) -->
     <g transform="translate(498.07275 133.189062) scale(0.1 -0.1)">
      <use xlink:href="#DejaVuSans-53"/>
      <use xlink:href="#DejaVuSans-35" transform="translate(63.476562 0)"/>
      <use xlink:href="#DejaVuSans-20" transform="translate(127.099609 0)"/>
      <use xlink:href="#DejaVuSans-28" transform="translate(158.886719 0)"/>
      <use xlink:href="#DejaVuSans-6e" transform="translate(197.900391 0)"/>
      <use xlink:href="#DejaVuSans-3d" transform="translate(261.279297 0)"/>
      <use xlink:href="#DejaVuSans-31" transform="translate(345.068359 0)"/>
      <use xlink:href="#DejaVuSans-29" transform="translate(408.691406 0)"/>
     </g>
    </g>
    <g id="line2d_50">
     <path d="M 470.07275 144.367187 
L 490.07275 144.367187 
" style="fill: none; stroke-dasharray: 3.7,1.6; stroke-dashoffset: 0; stroke: #8c564b"/>
    </g>
    <g id="line2d_51">
     <g>
      <use xlink:href="#m3ed144d6de" x="480.07275" y="144.367187" style="fill: #8c564b; stroke: #000000; stroke-linejoin: miter"/>
     </g>
    </g>
    <g id="text_22">
     <!-- S6 (n=1) -->
     <g transform="translate(498.07275 147.867187) scale(0.1 -0.1)">
      <use xlink:href="#DejaVuSans-53"/>
      <use xlink:href="#DejaVuSans-36" transform="translate(63.476562 0)"/>
      <use xlink:href="#DejaVuSans-20" transform="translate(127.099609 0)"/>
      <use xlink:href="#DejaVuSans-28" transform="translate(158.886719 0)"/>
      <use xlink:href="#DejaVuSans-6e" transform="translate(197.900391 0)"/>
      <use xlink:href="#DejaVuSans-3d" transform="translate(261.279297 0)"/>
      <use xlink:href="#DejaVuSans-31" transform="translate(345.068359 0)"/>
      <use xlink:href="#DejaVuSans-29" transform="translate(408.691406 0)"/>
     </g>
    </g>
    <g id="line2d_52">
     <path d="M 470.07275 159.045312 
L 490.07275 159.045312 
" style="fill: none; stroke-dasharray: 3.7,1.6; stroke-dashoffset: 0; stroke: #e377c2"/>
    </g>
    <g id="line2d_53">
     <g>
      <use xlink:href="#m5c03cf9a58" x="480.07275" y="159.045312" style="fill: #e377c2; stroke: #000000; stroke-linejoin: miter"/>
     </g>
    </g>
    <g id="text_23">
     <!-- S7 (n=1) -->
     <g transform="translate(498.07275 162.545312) scale(0.1 -0.1)">
      <defs>
       <path id="DejaVuSans-37" d="M 525 4666 
L 3525 4666 
L 3525 4397 
L 1831 0 
L 1172 0 
L 2766 4134 
L 525 4134 
L 525 4666 
z
" transform="scale(0.015625)"/>
      </defs>
      <use xlink:href="#DejaVuSans-53"/>
      <use xlink:href="#DejaVuSans-37" transform="translate(63.476562 0)"/>
      <use xlink:href="#DejaVuSans-20" transform="translate(127.099609 0)"/>
      <use xlink:href="#DejaVuSans-28" transform="translate(158.886719 0)"/>
      <use xlink:href="#DejaVuSans-6e" transform="translate(197.900391 0)"/>
      <use xlink:href="#DejaVuSans-3d" transform="translate(261.279297 0)"/>
      <use xlink:href="#DejaVuSans-31" transform="translate(345.068359 0)"/>
      <use xlink:href="#DejaVuSans-29" transform="translate(408.691406 0)"/>
     </g>
    </g>
    <g id="line2d_54">
     <path d="M 470.07275 173.723437 
L 490.07275 173.723437 
" style="fill: none; stroke-dasharray: 3.7,1.6; stroke-dashoffset: 0; stroke: #7f7f7f"/>
    </g>
    <g id="line2d_55">
     <g>
      <use xlink:href="#m673f91452a" x="480.07275" y="173.723437" style="fill: #7f7f7f; stroke: #000000; stroke-linejoin: miter"/>
     </g>
    </g>
    <g id="text_24">
     <!-- S8 (n=1) -->
     <g transform="translate(498.07275 177.223437) scale(0.1 -0.1)">
      <use xlink:href="#DejaVuSans-53"/>
      <use xlink:href="#DejaVuSans-38" transform="translate(63.476562 0)"/>
      <use xlink:href="#DejaVuSans-20" transform="translate(127.099609 0)"/>
      <use xlink:href="#DejaVuSans-28" transform="translate(158.886719 0)"/>
      <use xlink:href="#DejaVuSans-6e" transform="translate(197.900391 0)"/>
      <use xlink:href="#DejaVuSans-3d" transform="translate(261.279297 0)"/>
      <use xlink:href="#DejaVuSans-31" transform="translate(345.068359 0)"/>
      <use xlink:href="#DejaVuSans-29" transform="translate(408.691406 0)"/>
     </g>
    </g>
    <g id="line2d_56">
     <path d="M 470.07275 188.401562 
L 490.07275 188.401562 
" style="fill: none; stroke-dasharray: 3.7,1.6; stroke-dashoffset: 0; stroke: #bcbd22"/>
    </g>
    <g id="line2d_57">
     <g>
      <use xlink:href="#m6e63580dae" x="480.07275" y="188.401562" style="fill: #bcbd22; stroke: #000000; stroke-linejoin: miter"/>
     </g>
    </g>
    <g id="text_25">
     <!-- S9 (n=1) -->
     <g transform="translate(498.07275 191.901562) scale(0.1 -0.1)">
      <defs>
       <path id="DejaVuSans-39" d="M 703 97 
L 703 672 
Q 941 559 1184 500 
Q 1428 441 1663 441 
Q 2288 441 2617 861 
Q 2947 1281 2994 2138 
Q 2813 1869 2534 1725 
Q 2256 1581 1919 1581 
Q 1219 1581 811 2004 
Q 403 2428 403 3163 
Q 403 3881 828 4315 
Q 1253 4750 1959 4750 
Q 2769 4750 3195 4129 
Q 3622 3509 3622 2328 
Q 3622 1225 3098 567 
Q 2575 -91 1691 -91 
Q 1453 -91 1209 -44 
Q 966 3 703 97 
z
M 1959 2075 
Q 2384 2075 2632 2365 
Q 2881 2656 2881 3163 
Q 2881 3666 2632 3958 
Q 2384 4250 1959 4250 
Q 1534 4250 1286 3958 
Q 1038 3666 1038 3163 
Q 1038 2656 1286 2365 
Q 1534 2075 1959 2075 
z
" transform="scale(0.015625)"/>
      </defs>
      <use xlink:href="#DejaVuSans-53"/>
      <use xlink:href="#DejaVuSans-39" transform="translate(63.476562 0)"/>
      <use xlink:href="#DejaVuSans-20" transform="translate(127.099609 0)"/>
      <use xlink:href="#DejaVuSans-28" transform="translate(158.886719 0)"/>
      <use xlink:href="#DejaVuSans-6e" transform="translate(197.900391 0)"/>
      <use xlink:href="#DejaVuSans-3d" transform="translate(261.279297 0)"/>
      <use xlink:href="#DejaVuSans-31" transform="translate(345.068359 0)"/>
      <use xlink:href="#DejaVuSans-29" transform="translate(408.691406 0)"/>
     </g>
    </g>
    <g id="line2d_58">
     <path d="M 470.07275 203.079687 
L 490.07275 203.079687 
" style="fill: none; stroke-dasharray: 3.7,1.6; stroke-dashoffset: 0; stroke: #17becf"/>
    </g>
    <g id="line2d_59">
     <g>
      <use xlink:href="#m5ed8d7f5ac" x="480.07275" y="203.079687" style="fill: #17becf; stroke: #000000; stroke-linejoin: miter"/>
     </g>
    </g>
    <g id="text_26">
     <!-- S10 (n=1) -->
     <g transform="translate(498.07275 206.579687) scale(0.1 -0.1)">
      <use xlink:href="#DejaVuSans-53"/>
      <use xlink:href="#DejaVuSans-31" transform="translate(63.476562 0)"/>
      <use xlink:href="#DejaVuSans-30" transform="translate(127.099609 0)"/>
      <use xlink:href="#DejaVuSans-20" transform="translate(190.722656 0)"/>
      <use xlink:href="#DejaVuSans-28" transform="translate(222.509766 0)"/>
      <use xlink:href="#DejaVuSans-6e" transform="translate(261.523438 0)"/>
      <use xlink:href="#DejaVuSans-3d" transform="translate(324.902344 0)"/>
      <use xlink:href="#DejaVuSans-31" transform="translate(408.691406 0)"/>
      <use xlink:href="#DejaVuSans-29" transform="translate(472.314453 0)"/>
     </g>
    </g>
    <g id="line2d_60">
     <path d="M 470.07275 217.757812 
L 490.07275 217.757812 
" style="fill: none; stroke-dasharray: 3.7,1.6; stroke-dashoffset: 0; stroke: #1f77b4"/>
    </g>
    <g id="line2d_61">
     <g>
      <use xlink:href="#m707db03af4" x="480.07275" y="217.757812" style="fill: #1f77b4; stroke: #000000; stroke-linejoin: miter"/>
     </g>
    </g>
    <g id="text_27">
     <!-- S11 (n=1) -->
     <g transform="translate(498.07275 221.257812) scale(0.1 -0.1)">
      <use xlink:href="#DejaVuSans-53"/>
      <use xlink:href="#DejaVuSans-31" transform="translate(63.476562 0)"/>
      <use xlink:href="#DejaVuSans-31" transform="translate(127.099609 0)"/>
      <use xlink:href="#DejaVuSans-20" transform="translate(190.722656 0)"/>
      <use xlink:href="#DejaVuSans-28" transform="translate(222.509766 0)"/>
      <use xlink:href="#DejaVuSans-6e" transform="translate(261.523438 0)"/>
      <use xlink:href="#DejaVuSans-3d" transform="translate(324.902344 0)"/>
      <use xlink:href="#DejaVuSans-31" transform="translate(408.691406 0)"/>
      <use xlink:href="#DejaVuSans-29" transform="translate(472.314453 0)"/>
     </g>
    </g>
    <g id="line2d_62">
     <path d="M 470.07275 232.435937 
L 490.07275 232.435937 
" style="fill: none; stroke-dasharray: 3.7,1.6; stroke-dashoffset: 0; stroke: #ff7f0e"/>
    </g>
    <g id="line2d_63">
     <g>
      <use xlink:href="#mf8bfc6441a" x="480.07275" y="232.435937" style="fill: #ff7f0e; stroke: #000000; stroke-linejoin: miter"/>
     </g>
    </g>
    <g id="text_28">
     <!-- S12 (n=1) -->
     <g transform="translate(498.07275 235.935937) scale(0.1 -0.1)">
      <use xlink:href="#DejaVuSans-53"/>
      <use xlink:href="#DejaVuSans-31" transform="translate(63.476562 0)"/>
      <use xlink:href="#DejaVuSans-32" transform="translate(127.099609 0)"/>
      <use xlink:href="#DejaVuSans-20" transform="translate(190.722656 0)"/>
      <use xlink:href="#DejaVuSans-28" transform="translate(222.509766 0)"/>
      <use xlink:href="#DejaVuSans-6e" transform="translate(261.523438 0)"/>
      <use xlink:href="#DejaVuSans-3d" transform="translate(324.902344 0)"/>
      <use xlink:href="#DejaVuSans-31" transform="translate(408.691406 0)"/>
      <use xlink:href="#DejaVuSans-29" transform="translate(472.314453 0)"/>
     </g>
    </g>
   </g>
  </g>
  <g id="text_29">
   <!-- Leelahavanichkul2005 -->
   <g transform="translate(86.510859 26.196094) scale(0.25 -0.25)">
    <defs>
     <path id="DejaVuSans-Bold-4c" d="M 588 4666 
L 1791 4666 
L 1791 909 
L 3903 909 
L 3903 0 
L 588 0 
L 588 4666 
z
" transform="scale(0.015625)"/>
     <path id="DejaVuSans-Bold-6c" d="M 538 4863 
L 1656 4863 
L 1656 0 
L 538 0 
L 538 4863 
z
" transform="scale(0.015625)"/>
     <path id="DejaVuSans-Bold-76" d="M 97 3500 
L 1216 3500 
L 2088 1081 
L 2956 3500 
L 4078 3500 
L 2700 0 
L 1472 0 
L 97 3500 
z
" transform="scale(0.015625)"/>
     <path id="DejaVuSans-Bold-6b" d="M 538 4863 
L 1656 4863 
L 1656 2216 
L 2944 3500 
L 4244 3500 
L 2534 1894 
L 4378 0 
L 3022 0 
L 1656 1459 
L 1656 0 
L 538 0 
L 538 4863 
z
" transform="scale(0.015625)"/>
     <path id="DejaVuSans-Bold-75" d="M 500 1363 
L 500 3500 
L 1625 3500 
L 1625 3150 
Q 1625 2866 1622 2436 
Q 1619 2006 1619 1863 
Q 1619 1441 1641 1255 
Q 1663 1069 1716 984 
Q 1784 875 1895 815 
Q 2006 756 2150 756 
Q 2500 756 2700 1025 
Q 2900 1294 2900 1772 
L 2900 3500 
L 4019 3500 
L 4019 0 
L 2900 0 
L 2900 506 
Q 2647 200 2364 54 
Q 2081 -91 1741 -91 
Q 1134 -91 817 281 
Q 500 653 500 1363 
z
" transform="scale(0.015625)"/>
     <path id="DejaVuSans-Bold-32" d="M 1844 884 
L 3897 884 
L 3897 0 
L 506 0 
L 506 884 
L 2209 2388 
Q 2438 2594 2547 2791 
Q 2656 2988 2656 3200 
Q 2656 3528 2436 3728 
Q 2216 3928 1850 3928 
Q 1569 3928 1234 3808 
Q 900 3688 519 3450 
L 519 4475 
Q 925 4609 1322 4679 
Q 1719 4750 2100 4750 
Q 2938 4750 3402 4381 
Q 3866 4013 3866 3353 
Q 3866 2972 3669 2642 
Q 3472 2313 2841 1759 
L 1844 884 
z
" transform="scale(0.015625)"/>
     <path id="DejaVuSans-Bold-30" d="M 2944 2338 
Q 2944 3213 2780 3570 
Q 2616 3928 2228 3928 
Q 1841 3928 1675 3570 
Q 1509 3213 1509 2338 
Q 1509 1453 1675 1090 
Q 1841 728 2228 728 
Q 2613 728 2778 1090 
Q 2944 1453 2944 2338 
z
M 4147 2328 
Q 4147 1169 3647 539 
Q 3147 -91 2228 -91 
Q 1306 -91 806 539 
Q 306 1169 306 2328 
Q 306 3491 806 4120 
Q 1306 4750 2228 4750 
Q 3147 4750 3647 4120 
Q 4147 3491 4147 2328 
z
" transform="scale(0.015625)"/>
     <path id="DejaVuSans-Bold-35" d="M 678 4666 
L 3669 4666 
L 3669 3781 
L 1638 3781 
L 1638 3059 
Q 1775 3097 1914 3117 
Q 2053 3138 2203 3138 
Q 3056 3138 3531 2711 
Q 4006 2284 4006 1522 
Q 4006 766 3489 337 
Q 2972 -91 2053 -91 
Q 1656 -91 1267 -14 
Q 878 63 494 219 
L 494 1166 
Q 875 947 1217 837 
Q 1559 728 1863 728 
Q 2300 728 2551 942 
Q 2803 1156 2803 1522 
Q 2803 1891 2551 2103 
Q 2300 2316 1863 2316 
Q 1603 2316 1309 2248 
Q 1016 2181 678 2041 
L 678 4666 
z
" transform="scale(0.015625)"/>
    </defs>
    <use xlink:href="#DejaVuSans-Bold-4c"/>
    <use xlink:href="#DejaVuSans-Bold-65" transform="translate(63.720703 0)"/>
    <use xlink:href="#DejaVuSans-Bold-65" transform="translate(131.542969 0)"/>
    <use xlink:href="#DejaVuSans-Bold-6c" transform="translate(199.365234 0)"/>
    <use xlink:href="#DejaVuSans-Bold-61" transform="translate(233.642578 0)"/>
    <use xlink:href="#DejaVuSans-Bold-68" transform="translate(301.123047 0)"/>
    <use xlink:href="#DejaVuSans-Bold-61" transform="translate(372.314453 0)"/>
    <use xlink:href="#DejaVuSans-Bold-76" transform="translate(439.794922 0)"/>
    <use xlink:href="#DejaVuSans-Bold-61" transform="translate(504.980469 0)"/>
    <use xlink:href="#DejaVuSans-Bold-6e" transform="translate(572.460938 0)"/>
    <use xlink:href="#DejaVuSans-Bold-69" transform="translate(643.652344 0)"/>
    <use xlink:href="#DejaVuSans-Bold-63" transform="translate(677.929688 0)"/>
    <use xlink:href="#DejaVuSans-Bold-68" transform="translate(737.207031 0)"/>
    <use xlink:href="#DejaVuSans-Bold-6b" transform="translate(808.398438 0)"/>
    <use xlink:href="#DejaVuSans-Bold-75" transform="translate(874.902344 0)"/>
    <use xlink:href="#DejaVuSans-Bold-6c" transform="translate(946.09375 0)"/>
    <use xlink:href="#DejaVuSans-Bold-32" transform="translate(980.371094 0)"/>
    <use xlink:href="#DejaVuSans-Bold-30" transform="translate(1049.951172 0)"/>
    <use xlink:href="#DejaVuSans-Bold-30" transform="translate(1119.53125 0)"/>
    <use xlink:href="#DejaVuSans-Bold-35" transform="translate(1189.111328 0)"/>
   </g>
  </g>
 </g>
 <defs>
  <clipPath id="p49236a2064">
   <rect x="54.84875" y="43.2" width="390.6" height="277.2"/>
  </clipPath>
 </defs>
</svg>
