<?xml version="1.0" encoding="utf-8" standalone="no"?>
<!DOCTYPE svg PUBLIC "-//W3C//DTD SVG 1.1//EN"
  "http://www.w3.org/Graphics/SVG/1.1/DTD/svg11.dtd">
<svg xmlns:xlink="http://www.w3.org/1999/xlink" width="614.357125pt" height="370.537812pt" viewBox="0 0 614.357125 370.537812" xmlns="http://www.w3.org/2000/svg" version="1.1">
 <metadata>
  <rdf:RDF xmlns:dc="http://purl.org/dc/elements/1.1/" xmlns:cc="http://creativecommons.org/ns#" xmlns:rdf="http://www.w3.org/1999/02/22-rdf-syntax-ns#">
   <cc:Work>
    <dc:type rdf:resource="http://purl.org/dc/dcmitype/StillImage"/>
    <dc:date>2025-09-10T11:19:49.204662</dc:date>
    <dc:format>image/svg+xml</dc:format>
    <dc:creator>
     <cc:Agent>
      <dc:title>Matplotlib v3.10.6, https://matplotlib.org/</dc:title>
     </cc:Agent>
    </dc:creator>
   </cc:Work>
  </rdf:RDF>
 </metadata>
 <defs>
  <style type="text/css">*{stroke-linejoin: round; stroke-linecap: butt}</style>
 </defs>
 <g id="figure_1">
  <g id="patch_1">
   <path d="M 0 370.537812 
L 614.357125 370.537812 
L 614.357125 0 
L 0 0 
z
" style="fill: #ffffff"/>
  </g>
  <g id="axes_1">
   <g id="patch_2">
    <path d="M 54.84875 320.4 
L 445.44875 320.4 
L 445.44875 43.2 
L 54.84875 43.2 
z
" style="fill: #ffffff"/>
   </g>
   <g id="matplotlib.axis_1">
    <g id="xtick_1">
     <g id="line2d_1">
      <defs>
       <path id="m5d88df2bea" d="M 0 0 
L 0 3.5 
" style="stroke: #000000; stroke-width: 0.8"/>
      </defs>
      <g>
       <use xlink:href="#m5d88df2bea" x="72.603295" y="320.4" style="stroke: #000000; stroke-width: 0.8"/>
      </g>
     </g>
     <g id="text_1">
      <!-- 0 -->
      <g transform="translate(67.83142 338.797656) scale(0.15 -0.15)">
       <defs>
        <path id="DejaVuSans-30" d="M 2034 4250 
Q 1547 4250 1301 3770 
Q 1056 3291 1056 2328 
Q 1056 1369 1301 889 
Q 1547 409 2034 409 
Q 2525 409 2770 889 
Q 3016 1369 3016 2328 
Q 3016 3291 2770 3770 
Q 2525 4250 2034 4250 
z
M 2034 4750 
Q 2819 4750 3233 4129 
Q 3647 3509 3647 2328 
Q 3647 1150 3233 529 
Q 2819 -91 2034 -91 
Q 1250 -91 836 529 
Q 422 1150 422 2328 
Q 422 3509 836 4129 
Q 1250 4750 2034 4750 
z
" transform="scale(0.015625)"/>
       </defs>
       <use xlink:href="#DejaVuSans-30"/>
      </g>
     </g>
    </g>
    <g id="xtick_2">
     <g id="line2d_2">
      <g>
       <use xlink:href="#m5d88df2bea" x="146.580568" y="320.4" style="stroke: #000000; stroke-width: 0.8"/>
      </g>
     </g>
     <g id="text_2">
      <!-- 10 -->
      <g transform="translate(137.036818 338.797656) scale(0.15 -0.15)">
       <defs>
        <path id="DejaVuSans-31" d="M 794 531 
L 1825 531 
L 1825 4091 
L 703 3866 
L 703 4441 
L 1819 4666 
L 2450 4666 
L 2450 531 
L 3481 531 
L 3481 0 
L 794 0 
L 794 531 
z
" transform="scale(0.015625)"/>
       </defs>
       <use xlink:href="#DejaVuSans-31"/>
       <use xlink:href="#DejaVuSans-30" transform="translate(63.623047 0)"/>
      </g>
     </g>
    </g>
    <g id="xtick_3">
     <g id="line2d_3">
      <g>
       <use xlink:href="#m5d88df2bea" x="220.557841" y="320.4" style="stroke: #000000; stroke-width: 0.8"/>
      </g>
     </g>
     <g id="text_3">
      <!-- 20 -->
      <g transform="translate(211.014091 338.797656) scale(0.15 -0.15)">
       <defs>
        <path id="DejaVuSans-32" d="M 1228 531 
L 3431 531 
L 3431 0 
L 469 0 
L 469 531 
Q 828 903 1448 1529 
Q 2069 2156 2228 2338 
Q 2531 2678 2651 2914 
Q 2772 3150 2772 3378 
Q 2772 3750 2511 3984 
Q 2250 4219 1831 4219 
Q 1534 4219 1204 4116 
Q 875 4013 500 3803 
L 500 4441 
Q 881 4594 1212 4672 
Q 1544 4750 1819 4750 
Q 2544 4750 2975 4387 
Q 3406 4025 3406 3419 
Q 3406 3131 3298 2873 
Q 3191 2616 2906 2266 
Q 2828 2175 2409 1742 
Q 1991 1309 1228 531 
z
" transform="scale(0.015625)"/>
       </defs>
       <use xlink:href="#DejaVuSans-32"/>
       <use xlink:href="#DejaVuSans-30" transform="translate(63.623047 0)"/>
      </g>
     </g>
    </g>
    <g id="xtick_4">
     <g id="line2d_4">
      <g>
       <use xlink:href="#m5d88df2bea" x="294.535114" y="320.4" style="stroke: #000000; stroke-width: 0.8"/>
      </g>
     </g>
     <g id="text_4">
      <!-- 30 -->
      <g transform="translate(284.991364 338.797656) scale(0.15 -0.15)">
       <defs>
        <path id="DejaVuSans-33" d="M 2597 2516 
Q 3050 2419 3304 2112 
Q 3559 1806 3559 1356 
Q 3559 666 3084 287 
Q 2609 -91 1734 -91 
Q 1441 -91 1130 -33 
Q 819 25 488 141 
L 488 750 
Q 750 597 1062 519 
Q 1375 441 1716 441 
Q 2309 441 2620 675 
Q 2931 909 2931 1356 
Q 2931 1769 2642 2001 
Q 2353 2234 1838 2234 
L 1294 2234 
L 1294 2753 
L 1863 2753 
Q 2328 2753 2575 2939 
Q 2822 3125 2822 3475 
Q 2822 3834 2567 4026 
Q 2313 4219 1838 4219 
Q 1578 4219 1281 4162 
Q 984 4106 628 3988 
L 628 4550 
Q 988 4650 1302 4700 
Q 1616 4750 1894 4750 
Q 2613 4750 3031 4423 
Q 3450 4097 3450 3541 
Q 3450 3153 3228 2886 
Q 3006 2619 2597 2516 
z
" transform="scale(0.015625)"/>
       </defs>
       <use xlink:href="#DejaVuSans-33"/>
       <use xlink:href="#DejaVuSans-30" transform="translate(63.623047 0)"/>
      </g>
     </g>
    </g>
    <g id="xtick_5">
     <g id="line2d_5">
      <g>
       <use xlink:href="#m5d88df2bea" x="368.512386" y="320.4" style="stroke: #000000; stroke-width: 0.8"/>
      </g>
     </g>
     <g id="text_5">
      <!-- 40 -->
      <g transform="translate(358.968636 338.797656) scale(0.15 -0.15)">
       <defs>
        <path id="DejaVuSans-34" d="M 2419 4116 
L 825 1625 
L 2419 1625 
L 2419 4116 
z
M 2253 4666 
L 3047 4666 
L 3047 1625 
L 3713 1625 
L 3713 1100 
L 3047 1100 
L 3047 0 
L 2419 0 
L 2419 1100 
L 313 1100 
L 313 1709 
L 2253 4666 
z
" transform="scale(0.015625)"/>
       </defs>
       <use xlink:href="#DejaVuSans-34"/>
       <use xlink:href="#DejaVuSans-30" transform="translate(63.623047 0)"/>
      </g>
     </g>
    </g>
    <g id="xtick_6">
     <g id="line2d_6">
      <g>
       <use xlink:href="#m5d88df2bea" x="442.489659" y="320.4" style="stroke: #000000; stroke-width: 0.8"/>
      </g>
     </g>
     <g id="text_6">
      <!-- 50 -->
      <g transform="translate(432.945909 338.797656) scale(0.15 -0.15)">
       <defs>
        <path id="DejaVuSans-35" d="M 691 4666 
L 3169 4666 
L 3169 4134 
L 1269 4134 
L 1269 2991 
Q 1406 3038 1543 3061 
Q 1681 3084 1819 3084 
Q 2600 3084 3056 2656 
Q 3513 2228 3513 1497 
Q 3513 744 3044 326 
Q 2575 -91 1722 -91 
Q 1428 -91 1123 -41 
Q 819 9 494 109 
L 494 744 
Q 775 591 1075 516 
Q 1375 441 1709 441 
Q 2250 441 2565 725 
Q 2881 1009 2881 1497 
Q 2881 1984 2565 2268 
Q 2250 2553 1709 2553 
Q 1456 2553 1204 2497 
Q 953 2441 691 2322 
L 691 4666 
z
" transform="scale(0.015625)"/>
       </defs>
       <use xlink:href="#DejaVuSans-35"/>
       <use xlink:href="#DejaVuSans-30" transform="translate(63.623047 0)"/>
      </g>
     </g>
    </g>
    <g id="text_7">
     <!-- time [hr] -->
     <g transform="translate(205.074219 359.594375) scale(0.18 -0.18)">
      <defs>
       <path id="DejaVuSans-Bold-74" d="M 1759 4494 
L 1759 3500 
L 2913 3500 
L 2913 2700 
L 1759 2700 
L 1759 1216 
Q 1759 972 1856 886 
Q 1953 800 2241 800 
L 2816 800 
L 2816 0 
L 1856 0 
Q 1194 0 917 276 
Q 641 553 641 1216 
L 641 2700 
L 84 2700 
L 84 3500 
L 641 3500 
L 641 4494 
L 1759 4494 
z
" transform="scale(0.015625)"/>
       <path id="DejaVuSans-Bold-69" d="M 538 3500 
L 1656 3500 
L 1656 0 
L 538 0 
L 538 3500 
z
M 538 4863 
L 1656 4863 
L 1656 3950 
L 538 3950 
L 538 4863 
z
" transform="scale(0.015625)"/>
       <path id="DejaVuSans-Bold-6d" d="M 3781 2919 
Q 3994 3244 4286 3414 
Q 4578 3584 4928 3584 
Q 5531 3584 5847 3212 
Q 6163 2841 6163 2131 
L 6163 0 
L 5038 0 
L 5038 1825 
Q 5041 1866 5042 1909 
Q 5044 1953 5044 2034 
Q 5044 2406 4934 2573 
Q 4825 2741 4581 2741 
Q 4263 2741 4089 2478 
Q 3916 2216 3909 1719 
L 3909 0 
L 2784 0 
L 2784 1825 
Q 2784 2406 2684 2573 
Q 2584 2741 2328 2741 
Q 2006 2741 1831 2477 
Q 1656 2213 1656 1722 
L 1656 0 
L 531 0 
L 531 3500 
L 1656 3500 
L 1656 2988 
Q 1863 3284 2130 3434 
Q 2397 3584 2719 3584 
Q 3081 3584 3359 3409 
Q 3638 3234 3781 2919 
z
" transform="scale(0.015625)"/>
       <path id="DejaVuSans-Bold-65" d="M 4031 1759 
L 4031 1441 
L 1416 1441 
Q 1456 1047 1700 850 
Q 1944 653 2381 653 
Q 2734 653 3104 758 
Q 3475 863 3866 1075 
L 3866 213 
Q 3469 63 3072 -14 
Q 2675 -91 2278 -91 
Q 1328 -91 801 392 
Q 275 875 275 1747 
Q 275 2603 792 3093 
Q 1309 3584 2216 3584 
Q 3041 3584 3536 3087 
Q 4031 2591 4031 1759 
z
M 2881 2131 
Q 2881 2450 2695 2645 
Q 2509 2841 2209 2841 
Q 1884 2841 1681 2658 
Q 1478 2475 1428 2131 
L 2881 2131 
z
" transform="scale(0.015625)"/>
       <path id="DejaVuSans-Bold-20" transform="scale(0.015625)"/>
       <path id="DejaVuSans-Bold-5b" d="M 550 4863 
L 2491 4863 
L 2491 4159 
L 1613 4159 
L 1613 -141 
L 2491 -141 
L 2491 -844 
L 550 -844 
L 550 4863 
z
" transform="scale(0.015625)"/>
       <path id="DejaVuSans-Bold-68" d="M 4056 2131 
L 4056 0 
L 2931 0 
L 2931 347 
L 2931 1625 
Q 2931 2084 2911 2256 
Q 2891 2428 2841 2509 
Q 2775 2619 2662 2680 
Q 2550 2741 2406 2741 
Q 2056 2741 1856 2470 
Q 1656 2200 1656 1722 
L 1656 0 
L 538 0 
L 538 4863 
L 1656 4863 
L 1656 2988 
Q 1909 3294 2193 3439 
Q 2478 3584 2822 3584 
Q 3428 3584 3742 3212 
Q 4056 2841 4056 2131 
z
" transform="scale(0.015625)"/>
       <path id="DejaVuSans-Bold-72" d="M 3138 2547 
Q 2991 2616 2845 2648 
Q 2700 2681 2553 2681 
Q 2122 2681 1889 2404 
Q 1656 2128 1656 1613 
L 1656 0 
L 538 0 
L 538 3500 
L 1656 3500 
L 1656 2925 
Q 1872 3269 2151 3426 
Q 2431 3584 2822 3584 
Q 2878 3584 2943 3579 
Q 3009 3575 3134 3559 
L 3138 2547 
z
" transform="scale(0.015625)"/>
       <path id="DejaVuSans-Bold-5d" d="M 2375 -844 
L 434 -844 
L 434 -141 
L 1313 -141 
L 1313 4159 
L 434 4159 
L 434 4863 
L 2375 4863 
L 2375 -844 
z
" transform="scale(0.015625)"/>
      </defs>
      <use xlink:href="#DejaVuSans-Bold-74"/>
      <use xlink:href="#DejaVuSans-Bold-69" transform="translate(47.802734 0)"/>
      <use xlink:href="#DejaVuSans-Bold-6d" transform="translate(82.080078 0)"/>
      <use xlink:href="#DejaVuSans-Bold-65" transform="translate(186.279297 0)"/>
      <use xlink:href="#DejaVuSans-Bold-20" transform="translate(254.101562 0)"/>
      <use xlink:href="#DejaVuSans-Bold-5b" transform="translate(288.916016 0)"/>
      <use xlink:href="#DejaVuSans-Bold-68" transform="translate(334.619141 0)"/>
      <use xlink:href="#DejaVuSans-Bold-72" transform="translate(405.810547 0)"/>
      <use xlink:href="#DejaVuSans-Bold-5d" transform="translate(455.126953 0)"/>
     </g>
    </g>
   </g>
   <g id="matplotlib.axis_2">
    <g id="ytick_1">
     <g id="line2d_7">
      <defs>
       <path id="mba19378ff2" d="M 0 0 
L -3.5 0 
" style="stroke: #000000; stroke-width: 0.8"/>
      </defs>
      <g>
       <use xlink:href="#mba19378ff2" x="54.84875" y="307.8" style="stroke: #000000; stroke-width: 0.8"/>
      </g>
     </g>
     <g id="text_8">
      <!-- 0 -->
      <g transform="translate(38.305 313.498828) scale(0.15 -0.15)">
       <use xlink:href="#DejaVuSans-30"/>
      </g>
     </g>
    </g>
    <g id="ytick_2">
     <g id="line2d_8">
      <g>
       <use xlink:href="#mba19378ff2" x="54.84875" y="268.205115" style="stroke: #000000; stroke-width: 0.8"/>
      </g>
     </g>
     <g id="text_9">
      <!-- 10 -->
      <g transform="translate(28.76125 273.903943) scale(0.15 -0.15)">
       <use xlink:href="#DejaVuSans-31"/>
       <use xlink:href="#DejaVuSans-30" transform="translate(63.623047 0)"/>
      </g>
     </g>
    </g>
    <g id="ytick_3">
     <g id="line2d_9">
      <g>
       <use xlink:href="#mba19378ff2" x="54.84875" y="228.61023" style="stroke: #000000; stroke-width: 0.8"/>
      </g>
     </g>
     <g id="text_10">
      <!-- 20 -->
      <g transform="translate(28.76125 234.309059) scale(0.15 -0.15)">
       <use xlink:href="#DejaVuSans-32"/>
       <use xlink:href="#DejaVuSans-30" transform="translate(63.623047 0)"/>
      </g>
     </g>
    </g>
    <g id="ytick_4">
     <g id="line2d_10">
      <g>
       <use xlink:href="#mba19378ff2" x="54.84875" y="189.015346" style="stroke: #000000; stroke-width: 0.8"/>
      </g>
     </g>
     <g id="text_11">
      <!-- 30 -->
      <g transform="translate(28.76125 194.714174) scale(0.15 -0.15)">
       <use xlink:href="#DejaVuSans-33"/>
       <use xlink:href="#DejaVuSans-30" transform="translate(63.623047 0)"/>
      </g>
     </g>
    </g>
    <g id="ytick_5">
     <g id="line2d_11">
      <g>
       <use xlink:href="#mba19378ff2" x="54.84875" y="149.420461" style="stroke: #000000; stroke-width: 0.8"/>
      </g>
     </g>
     <g id="text_12">
      <!-- 40 -->
      <g transform="translate(28.76125 155.119289) scale(0.15 -0.15)">
       <use xlink:href="#DejaVuSans-34"/>
       <use xlink:href="#DejaVuSans-30" transform="translate(63.623047 0)"/>
      </g>
     </g>
    </g>
    <g id="ytick_6">
     <g id="line2d_12">
      <g>
       <use xlink:href="#mba19378ff2" x="54.84875" y="109.825576" style="stroke: #000000; stroke-width: 0.8"/>
      </g>
     </g>
     <g id="text_13">
      <!-- 50 -->
      <g transform="translate(28.76125 115.524404) scale(0.15 -0.15)">
       <use xlink:href="#DejaVuSans-35"/>
       <use xlink:href="#DejaVuSans-30" transform="translate(63.623047 0)"/>
      </g>
     </g>
    </g>
    <g id="ytick_7">
     <g id="line2d_13">
      <g>
       <use xlink:href="#mba19378ff2" x="54.84875" y="70.230691" style="stroke: #000000; stroke-width: 0.8"/>
      </g>
     </g>
     <g id="text_14">
      <!-- 60 -->
      <g transform="translate(28.76125 75.929519) scale(0.15 -0.15)">
       <defs>
        <path id="DejaVuSans-36" d="M 2113 2584 
Q 1688 2584 1439 2293 
Q 1191 2003 1191 1497 
Q 1191 994 1439 701 
Q 1688 409 2113 409 
Q 2538 409 2786 701 
Q 3034 994 3034 1497 
Q 3034 2003 2786 2293 
Q 2538 2584 2113 2584 
z
M 3366 4563 
L 3366 3988 
Q 3128 4100 2886 4159 
Q 2644 4219 2406 4219 
Q 1781 4219 1451 3797 
Q 1122 3375 1075 2522 
Q 1259 2794 1537 2939 
Q 1816 3084 2150 3084 
Q 2853 3084 3261 2657 
Q 3669 2231 3669 1497 
Q 3669 778 3244 343 
Q 2819 -91 2113 -91 
Q 1303 -91 875 529 
Q 447 1150 447 2328 
Q 447 3434 972 4092 
Q 1497 4750 2381 4750 
Q 2619 4750 2861 4703 
Q 3103 4656 3366 4563 
z
" transform="scale(0.015625)"/>
       </defs>
       <use xlink:href="#DejaVuSans-36"/>
       <use xlink:href="#DejaVuSans-30" transform="translate(63.623047 0)"/>
      </g>
     </g>
    </g>
    <g id="text_15">
     <!-- rapamycin [µM] -->
     <g transform="translate(20.877188 261.838125) rotate(-90) scale(0.18 -0.18)">
      <defs>
       <path id="DejaVuSans-Bold-61" d="M 2106 1575 
Q 1756 1575 1579 1456 
Q 1403 1338 1403 1106 
Q 1403 894 1545 773 
Q 1688 653 1941 653 
Q 2256 653 2472 879 
Q 2688 1106 2688 1447 
L 2688 1575 
L 2106 1575 
z
M 3816 1997 
L 3816 0 
L 2688 0 
L 2688 519 
Q 2463 200 2181 54 
Q 1900 -91 1497 -91 
Q 953 -91 614 226 
Q 275 544 275 1050 
Q 275 1666 698 1953 
Q 1122 2241 2028 2241 
L 2688 2241 
L 2688 2328 
Q 2688 2594 2478 2717 
Q 2269 2841 1825 2841 
Q 1466 2841 1156 2769 
Q 847 2697 581 2553 
L 581 3406 
Q 941 3494 1303 3539 
Q 1666 3584 2028 3584 
Q 2975 3584 3395 3211 
Q 3816 2838 3816 1997 
z
" transform="scale(0.015625)"/>
       <path id="DejaVuSans-Bold-70" d="M 1656 506 
L 1656 -1331 
L 538 -1331 
L 538 3500 
L 1656 3500 
L 1656 2988 
Q 1888 3294 2169 3439 
Q 2450 3584 2816 3584 
Q 3463 3584 3878 3070 
Q 4294 2556 4294 1747 
Q 4294 938 3878 423 
Q 3463 -91 2816 -91 
Q 2450 -91 2169 54 
Q 1888 200 1656 506 
z
M 2400 2772 
Q 2041 2772 1848 2508 
Q 1656 2244 1656 1747 
Q 1656 1250 1848 986 
Q 2041 722 2400 722 
Q 2759 722 2948 984 
Q 3138 1247 3138 1747 
Q 3138 2247 2948 2509 
Q 2759 2772 2400 2772 
z
" transform="scale(0.015625)"/>
       <path id="DejaVuSans-Bold-79" d="M 78 3500 
L 1197 3500 
L 2138 1125 
L 2938 3500 
L 4056 3500 
L 2584 -331 
Q 2363 -916 2067 -1148 
Q 1772 -1381 1288 -1381 
L 641 -1381 
L 641 -647 
L 991 -647 
Q 1275 -647 1404 -556 
Q 1534 -466 1606 -231 
L 1638 -134 
L 78 3500 
z
" transform="scale(0.015625)"/>
       <path id="DejaVuSans-Bold-63" d="M 3366 3391 
L 3366 2478 
Q 3138 2634 2908 2709 
Q 2678 2784 2431 2784 
Q 1963 2784 1702 2511 
Q 1441 2238 1441 1747 
Q 1441 1256 1702 982 
Q 1963 709 2431 709 
Q 2694 709 2930 787 
Q 3166 866 3366 1019 
L 3366 103 
Q 3103 6 2833 -42 
Q 2563 -91 2291 -91 
Q 1344 -91 809 395 
Q 275 881 275 1747 
Q 275 2613 809 3098 
Q 1344 3584 2291 3584 
Q 2566 3584 2833 3536 
Q 3100 3488 3366 3391 
z
" transform="scale(0.015625)"/>
       <path id="DejaVuSans-Bold-6e" d="M 4056 2131 
L 4056 0 
L 2931 0 
L 2931 347 
L 2931 1631 
Q 2931 2084 2911 2256 
Q 2891 2428 2841 2509 
Q 2775 2619 2662 2680 
Q 2550 2741 2406 2741 
Q 2056 2741 1856 2470 
Q 1656 2200 1656 1722 
L 1656 0 
L 538 0 
L 538 3500 
L 1656 3500 
L 1656 2988 
Q 1909 3294 2193 3439 
Q 2478 3584 2822 3584 
Q 3428 3584 3742 3212 
Q 4056 2841 4056 2131 
z
" transform="scale(0.015625)"/>
       <path id="DejaVuSans-Bold-b5" d="M 544 -1338 
L 544 3500 
L 1672 3500 
L 1672 1466 
Q 1672 1103 1828 926 
Q 1984 750 2303 750 
Q 2625 750 2781 926 
Q 2938 1103 2938 1466 
L 2938 3500 
L 4063 3500 
L 4063 1159 
Q 4063 938 4114 850 
Q 4166 763 4288 763 
Q 4344 763 4395 778 
Q 4447 794 4506 831 
L 4506 50 
Q 4341 -22 4195 -56 
Q 4050 -91 3909 -91 
Q 3631 -91 3454 26 
Q 3278 144 3169 403 
Q 3022 156 2811 32 
Q 2600 -91 2322 -91 
Q 2091 -91 1928 -17 
Q 1766 56 1672 206 
L 1672 -1338 
L 544 -1338 
z
" transform="scale(0.015625)"/>
       <path id="DejaVuSans-Bold-4d" d="M 588 4666 
L 2119 4666 
L 3181 2169 
L 4250 4666 
L 5778 4666 
L 5778 0 
L 4641 0 
L 4641 3413 
L 3566 897 
L 2803 897 
L 1728 3413 
L 1728 0 
L 588 0 
L 588 4666 
z
" transform="scale(0.015625)"/>
      </defs>
      <use xlink:href="#DejaVuSans-Bold-72"/>
      <use xlink:href="#DejaVuSans-Bold-61" transform="translate(49.316406 0)"/>
      <use xlink:href="#DejaVuSans-Bold-70" transform="translate(116.796875 0)"/>
      <use xlink:href="#DejaVuSans-Bold-61" transform="translate(188.378906 0)"/>
      <use xlink:href="#DejaVuSans-Bold-6d" transform="translate(255.859375 0)"/>
      <use xlink:href="#DejaVuSans-Bold-79" transform="translate(360.058594 0)"/>
      <use xlink:href="#DejaVuSans-Bold-63" transform="translate(425.244141 0)"/>
      <use xlink:href="#DejaVuSans-Bold-69" transform="translate(484.521484 0)"/>
      <use xlink:href="#DejaVuSans-Bold-6e" transform="translate(518.798828 0)"/>
      <use xlink:href="#DejaVuSans-Bold-20" transform="translate(589.990234 0)"/>
      <use xlink:href="#DejaVuSans-Bold-5b" transform="translate(624.804688 0)"/>
      <use xlink:href="#DejaVuSans-Bold-b5" transform="translate(670.507812 0)"/>
      <use xlink:href="#DejaVuSans-Bold-4d" transform="translate(744.091797 0)"/>
      <use xlink:href="#DejaVuSans-Bold-5d" transform="translate(843.603516 0)"/>
     </g>
    </g>
   </g>
   <g id="LineCollection_1">
    <path d="M 74.452727 307.796518 
L 74.452727 307.791022 
" clip-path="url(#p0deb1d1ed5)" style="fill: none; stroke: #000000"/>
    <path d="M 76.302159 307.786386 
L 76.302159 307.777195 
" clip-path="url(#p0deb1d1ed5)" style="fill: none; stroke: #000000"/>
    <path d="M 78.151591 307.781457 
L 78.151591 307.769831 
" clip-path="url(#p0deb1d1ed5)" style="fill: none; stroke: #000000"/>
    <path d="M 80.001023 307.781457 
L 80.001023 307.767101 
" clip-path="url(#p0deb1d1ed5)" style="fill: none; stroke: #000000"/>
    <path d="M 87.39875 307.786631 
L 87.39875 307.775601 
" clip-path="url(#p0deb1d1ed5)" style="fill: none; stroke: #000000"/>
    <path d="M 94.796477 307.789822 
L 94.796477 307.781424 
" clip-path="url(#p0deb1d1ed5)" style="fill: none; stroke: #000000"/>
    <path d="M 102.194205 307.792662 
L 102.194205 307.785446 
" clip-path="url(#p0deb1d1ed5)" style="fill: none; stroke: #000000"/>
    <path d="M 109.591932 307.793421 
L 109.591932 307.787992 
" clip-path="url(#p0deb1d1ed5)" style="fill: none; stroke: #000000"/>
    <path d="M 116.989659 307.794991 
L 116.989659 307.78979 
" clip-path="url(#p0deb1d1ed5)" style="fill: none; stroke: #000000"/>
    <path d="M 131.785114 307.795669 
L 131.785114 307.792532 
" clip-path="url(#p0deb1d1ed5)" style="fill: none; stroke: #000000"/>
    <path d="M 146.580568 307.796255 
L 146.580568 307.793727 
" clip-path="url(#p0deb1d1ed5)" style="fill: none; stroke: #000000"/>
    <path d="M 161.376023 307.796989 
L 161.376023 307.794808 
" clip-path="url(#p0deb1d1ed5)" style="fill: none; stroke: #000000"/>
    <path d="M 250.14875 307.79819 
L 250.14875 307.796697 
" clip-path="url(#p0deb1d1ed5)" style="fill: none; stroke: #000000"/>
    <path d="M 427.694205 307.798647 
L 427.694205 307.797667 
" clip-path="url(#p0deb1d1ed5)" style="fill: none; stroke: #000000"/>
   </g>
   <g id="LineCollection_2">
    <path d="M 74.452727 307.779382 
L 74.452727 307.754667 
" clip-path="url(#p0deb1d1ed5)" style="fill: none; stroke: #d62728"/>
    <path d="M 76.302159 307.730728 
L 76.302159 307.695383 
" clip-path="url(#p0deb1d1ed5)" style="fill: none; stroke: #d62728"/>
    <path d="M 78.151591 307.722979 
L 78.151591 307.665283 
" clip-path="url(#p0deb1d1ed5)" style="fill: none; stroke: #d62728"/>
    <path d="M 80.001023 307.722979 
L 80.001023 307.668467 
" clip-path="url(#p0deb1d1ed5)" style="fill: none; stroke: #d62728"/>
    <path d="M 87.39875 307.753982 
L 87.39875 307.709557 
" clip-path="url(#p0deb1d1ed5)" style="fill: none; stroke: #d62728"/>
    <path d="M 94.796477 307.76443 
L 94.796477 307.734777 
" clip-path="url(#p0deb1d1ed5)" style="fill: none; stroke: #d62728"/>
    <path d="M 102.194205 307.772506 
L 102.194205 307.749585 
" clip-path="url(#p0deb1d1ed5)" style="fill: none; stroke: #d62728"/>
    <path d="M 109.591932 307.77776 
L 109.591932 307.756289 
" clip-path="url(#p0deb1d1ed5)" style="fill: none; stroke: #d62728"/>
    <path d="M 116.989659 307.781735 
L 116.989659 307.765719 
" clip-path="url(#p0deb1d1ed5)" style="fill: none; stroke: #d62728"/>
    <path d="M 131.785114 307.785882 
L 131.785114 307.774714 
" clip-path="url(#p0deb1d1ed5)" style="fill: none; stroke: #d62728"/>
    <path d="M 146.580568 307.789087 
L 146.580568 307.779518 
" clip-path="url(#p0deb1d1ed5)" style="fill: none; stroke: #d62728"/>
    <path d="M 161.376023 307.790762 
L 161.376023 307.783843 
" clip-path="url(#p0deb1d1ed5)" style="fill: none; stroke: #d62728"/>
    <path d="M 250.14875 307.794136 
L 250.14875 307.789497 
" clip-path="url(#p0deb1d1ed5)" style="fill: none; stroke: #d62728"/>
    <path d="M 427.694205 307.795798 
L 427.694205 307.792113 
" clip-path="url(#p0deb1d1ed5)" style="fill: none; stroke: #d62728"/>
   </g>
   <g id="LineCollection_3">
    <path d="M 74.452727 307.643028 
L 74.452727 307.415353 
" clip-path="url(#p0deb1d1ed5)" style="fill: none; stroke: #2ca02c"/>
    <path d="M 76.302159 307.43887 
L 76.302159 307.212461 
" clip-path="url(#p0deb1d1ed5)" style="fill: none; stroke: #2ca02c"/>
    <path clip-path="url(#p0deb1d1ed5)" style="fill: none; stroke: #2ca02c"/>
    <path clip-path="url(#p0deb1d1ed5)" style="fill: none; stroke: #2ca02c"/>
    <path d="M 87.39875 307.552719 
L 87.39875 307.367486 
" clip-path="url(#p0deb1d1ed5)" style="fill: none; stroke: #2ca02c"/>
    <path d="M 94.796477 307.6201 
L 94.796477 307.492775 
" clip-path="url(#p0deb1d1ed5)" style="fill: none; stroke: #2ca02c"/>
    <path d="M 102.194205 307.665094 
L 102.194205 307.54087 
" clip-path="url(#p0deb1d1ed5)" style="fill: none; stroke: #2ca02c"/>
    <path d="M 109.591932 307.687518 
L 109.591932 307.588882 
" clip-path="url(#p0deb1d1ed5)" style="fill: none; stroke: #2ca02c"/>
    <path d="M 116.989659 307.710381 
L 116.989659 307.631794 
" clip-path="url(#p0deb1d1ed5)" style="fill: none; stroke: #2ca02c"/>
    <path d="M 131.785114 307.731769 
L 131.785114 307.677796 
" clip-path="url(#p0deb1d1ed5)" style="fill: none; stroke: #2ca02c"/>
    <path d="M 146.580568 307.744808 
L 146.580568 307.698798 
" clip-path="url(#p0deb1d1ed5)" style="fill: none; stroke: #2ca02c"/>
    <path d="M 161.376023 307.754674 
L 161.376023 307.706782 
" clip-path="url(#p0deb1d1ed5)" style="fill: none; stroke: #2ca02c"/>
    <path d="M 250.14875 307.768009 
L 250.14875 307.732714 
" clip-path="url(#p0deb1d1ed5)" style="fill: none; stroke: #2ca02c"/>
    <path d="M 427.694205 307.778424 
L 427.694205 307.750436 
" clip-path="url(#p0deb1d1ed5)" style="fill: none; stroke: #2ca02c"/>
   </g>
   <g id="LineCollection_4">
    <path d="M 74.452727 307.574489 
L 74.452727 307.258133 
" clip-path="url(#p0deb1d1ed5)" style="fill: none; stroke: #1f77b4"/>
    <path d="M 76.302159 307.574489 
L 76.302159 306.20577 
" clip-path="url(#p0deb1d1ed5)" style="fill: none; stroke: #1f77b4"/>
    <path d="M 78.151591 307.067405 
L 78.151591 306.76716 
" clip-path="url(#p0deb1d1ed5)" style="fill: none; stroke: #1f77b4"/>
    <path d="M 80.001023 307.145323 
L 80.001023 306.866865 
" clip-path="url(#p0deb1d1ed5)" style="fill: none; stroke: #1f77b4"/>
    <path d="M 87.39875 307.362481 
L 87.39875 307.182726 
" clip-path="url(#p0deb1d1ed5)" style="fill: none; stroke: #1f77b4"/>
    <path d="M 94.796477 307.452875 
L 94.796477 307.30673 
" clip-path="url(#p0deb1d1ed5)" style="fill: none; stroke: #1f77b4"/>
    <path d="M 102.194205 307.527476 
L 102.194205 307.402949 
" clip-path="url(#p0deb1d1ed5)" style="fill: none; stroke: #1f77b4"/>
    <path d="M 109.591932 307.552094 
L 109.591932 307.463669 
" clip-path="url(#p0deb1d1ed5)" style="fill: none; stroke: #1f77b4"/>
    <path d="M 116.989659 307.592691 
L 116.989659 307.489754 
" clip-path="url(#p0deb1d1ed5)" style="fill: none; stroke: #1f77b4"/>
    <path d="M 131.785114 307.637244 
L 131.785114 307.5566 
" clip-path="url(#p0deb1d1ed5)" style="fill: none; stroke: #1f77b4"/>
    <path d="M 146.580568 307.656546 
L 146.580568 307.583653 
" clip-path="url(#p0deb1d1ed5)" style="fill: none; stroke: #1f77b4"/>
    <path d="M 161.376023 307.677487 
L 161.376023 307.60857 
" clip-path="url(#p0deb1d1ed5)" style="fill: none; stroke: #1f77b4"/>
    <path d="M 250.14875 307.707779 
L 250.14875 307.638272 
" clip-path="url(#p0deb1d1ed5)" style="fill: none; stroke: #1f77b4"/>
    <path d="M 427.694205 307.736185 
L 427.694205 307.69254 
" clip-path="url(#p0deb1d1ed5)" style="fill: none; stroke: #1f77b4"/>
   </g>
   <g id="LineCollection_5">
    <path d="M 74.452727 307.632025 
L 74.452727 307.39349 
" clip-path="url(#p0deb1d1ed5)" style="fill: none; stroke: #ff7f0e"/>
    <path d="M 76.302159 307.437957 
L 76.302159 307.011736 
" clip-path="url(#p0deb1d1ed5)" style="fill: none; stroke: #ff7f0e"/>
    <path d="M 78.151591 307.393542 
L 78.151591 306.981205 
" clip-path="url(#p0deb1d1ed5)" style="fill: none; stroke: #ff7f0e"/>
    <path d="M 80.001023 307.393542 
L 80.001023 307.043987 
" clip-path="url(#p0deb1d1ed5)" style="fill: none; stroke: #ff7f0e"/>
    <path d="M 87.39875 307.380509 
L 87.39875 307.150847 
" clip-path="url(#p0deb1d1ed5)" style="fill: none; stroke: #ff7f0e"/>
    <path d="M 94.796477 307.397795 
L 94.796477 307.230097 
" clip-path="url(#p0deb1d1ed5)" style="fill: none; stroke: #ff7f0e"/>
    <path d="M 102.194205 307.460102 
L 102.194205 307.309696 
" clip-path="url(#p0deb1d1ed5)" style="fill: none; stroke: #ff7f0e"/>
    <path d="M 109.591932 307.546823 
L 109.591932 307.358928 
" clip-path="url(#p0deb1d1ed5)" style="fill: none; stroke: #ff7f0e"/>
    <path d="M 116.989659 307.605372 
L 116.989659 307.44958 
" clip-path="url(#p0deb1d1ed5)" style="fill: none; stroke: #ff7f0e"/>
    <path d="M 131.785114 307.635522 
L 131.785114 307.558492 
" clip-path="url(#p0deb1d1ed5)" style="fill: none; stroke: #ff7f0e"/>
    <path d="M 146.580568 307.655029 
L 146.580568 307.59825 
" clip-path="url(#p0deb1d1ed5)" style="fill: none; stroke: #ff7f0e"/>
    <path d="M 161.376023 307.676191 
L 161.376023 307.621405 
" clip-path="url(#p0deb1d1ed5)" style="fill: none; stroke: #ff7f0e"/>
    <path d="M 250.14875 307.706804 
L 250.14875 307.672636 
" clip-path="url(#p0deb1d1ed5)" style="fill: none; stroke: #ff7f0e"/>
    <path d="M 427.694205 307.736853 
L 427.694205 307.698861 
" clip-path="url(#p0deb1d1ed5)" style="fill: none; stroke: #ff7f0e"/>
   </g>
   <g id="line2d_14">
    <path d="M 72.603295 307.8 
L 72.958386 307.694275 
L 73.40225 307.148763 
L 74.556295 305.578202 
L 75.266477 305.006619 
L 75.976659 304.741715 
L 76.775614 304.715781 
L 77.840886 304.94978 
L 80.504068 305.893315 
L 82.723386 306.519166 
L 85.031477 306.926924 
L 87.960977 307.202011 
L 92.310841 307.364961 
L 101.454432 307.43409 
L 172.295068 307.457674 
L 250.14875 307.475839 
L 250.14875 307.475839 
" clip-path="url(#p0deb1d1ed5)" style="fill: none; stroke: #000000; stroke-width: 2; stroke-linecap: square"/>
   </g>
   <g id="line2d_15">
    <path d="M 74.452727 307.79377 
L 76.302159 307.781791 
L 78.151591 307.775644 
L 80.001023 307.774279 
L 87.39875 307.781116 
L 94.796477 307.785623 
L 102.194205 307.789054 
L 109.591932 307.790706 
L 116.989659 307.792391 
L 131.785114 307.7941 
L 146.580568 307.794991 
L 161.376023 307.795899 
L 250.14875 307.797443 
L 427.694205 307.798157 
" clip-path="url(#p0deb1d1ed5)" style="fill: none; stroke-dasharray: 3.7,1.6; stroke-dashoffset: 0; stroke: #000000"/>
    <defs>
     <path id="m6b8a84b72e" d="M -3 3 
L 3 3 
L 3 -3 
L -3 -3 
z
" style="stroke: #000000; stroke-linejoin: miter"/>
    </defs>
    <g clip-path="url(#p0deb1d1ed5)">
     <use xlink:href="#m6b8a84b72e" x="74.452727" y="307.79377" style="stroke: #000000; stroke-linejoin: miter"/>
     <use xlink:href="#m6b8a84b72e" x="76.302159" y="307.781791" style="stroke: #000000; stroke-linejoin: miter"/>
     <use xlink:href="#m6b8a84b72e" x="78.151591" y="307.775644" style="stroke: #000000; stroke-linejoin: miter"/>
     <use xlink:href="#m6b8a84b72e" x="80.001023" y="307.774279" style="stroke: #000000; stroke-linejoin: miter"/>
     <use xlink:href="#m6b8a84b72e" x="87.39875" y="307.781116" style="stroke: #000000; stroke-linejoin: miter"/>
     <use xlink:href="#m6b8a84b72e" x="94.796477" y="307.785623" style="stroke: #000000; stroke-linejoin: miter"/>
     <use xlink:href="#m6b8a84b72e" x="102.194205" y="307.789054" style="stroke: #000000; stroke-linejoin: miter"/>
     <use xlink:href="#m6b8a84b72e" x="109.591932" y="307.790706" style="stroke: #000000; stroke-linejoin: miter"/>
     <use xlink:href="#m6b8a84b72e" x="116.989659" y="307.792391" style="stroke: #000000; stroke-linejoin: miter"/>
     <use xlink:href="#m6b8a84b72e" x="131.785114" y="307.7941" style="stroke: #000000; stroke-linejoin: miter"/>
     <use xlink:href="#m6b8a84b72e" x="146.580568" y="307.794991" style="stroke: #000000; stroke-linejoin: miter"/>
     <use xlink:href="#m6b8a84b72e" x="161.376023" y="307.795899" style="stroke: #000000; stroke-linejoin: miter"/>
     <use xlink:href="#m6b8a84b72e" x="250.14875" y="307.797443" style="stroke: #000000; stroke-linejoin: miter"/>
     <use xlink:href="#m6b8a84b72e" x="427.694205" y="307.798157" style="stroke: #000000; stroke-linejoin: miter"/>
    </g>
   </g>
   <g id="line2d_16">
    <path d="M 72.603295 307.8 
L 72.780841 307.745767 
L 72.958386 307.377096 
L 73.313477 305.712791 
L 74.645068 298.548961 
L 75.177705 296.83414 
L 75.710341 295.830713 
L 76.154205 295.450535 
L 76.598068 295.39946 
L 77.041932 295.600861 
L 77.663341 296.179897 
L 78.639841 297.475801 
L 81.391795 301.288691 
L 82.723386 302.673765 
L 83.966205 303.660051 
L 85.297795 304.44298 
L 86.806932 305.067947 
L 88.582386 305.551305 
L 90.801705 305.910817 
L 93.819977 306.158075 
L 98.702477 306.305389 
L 110.242932 306.366658 
L 250.14875 306.502451 
L 250.14875 306.502451 
" clip-path="url(#p0deb1d1ed5)" style="fill: none; stroke: #d62728; stroke-width: 2; stroke-linecap: square"/>
   </g>
   <g id="line2d_17">
    <path d="M 74.452727 307.767025 
L 76.302159 307.713055 
L 78.151591 307.694131 
L 80.001023 307.695723 
L 87.39875 307.731769 
L 94.796477 307.749603 
L 102.194205 307.761045 
L 109.591932 307.767025 
L 116.989659 307.773727 
L 131.785114 307.780298 
L 146.580568 307.784303 
L 161.376023 307.787303 
L 250.14875 307.791817 
L 427.694205 307.793956 
" clip-path="url(#p0deb1d1ed5)" style="fill: none; stroke-dasharray: 3.7,1.6; stroke-dashoffset: 0; stroke: #d62728"/>
    <defs>
     <path id="mc0d9432f40" d="M -3 3 
L 3 3 
L 3 -3 
L -3 -3 
z
" style="stroke: #000000; stroke-linejoin: miter"/>
    </defs>
    <g clip-path="url(#p0deb1d1ed5)">
     <use xlink:href="#mc0d9432f40" x="74.452727" y="307.767025" style="fill: #d62728; stroke: #000000; stroke-linejoin: miter"/>
     <use xlink:href="#mc0d9432f40" x="76.302159" y="307.713055" style="fill: #d62728; stroke: #000000; stroke-linejoin: miter"/>
     <use xlink:href="#mc0d9432f40" x="78.151591" y="307.694131" style="fill: #d62728; stroke: #000000; stroke-linejoin: miter"/>
     <use xlink:href="#mc0d9432f40" x="80.001023" y="307.695723" style="fill: #d62728; stroke: #000000; stroke-linejoin: miter"/>
     <use xlink:href="#mc0d9432f40" x="87.39875" y="307.731769" style="fill: #d62728; stroke: #000000; stroke-linejoin: miter"/>
     <use xlink:href="#mc0d9432f40" x="94.796477" y="307.749603" style="fill: #d62728; stroke: #000000; stroke-linejoin: miter"/>
     <use xlink:href="#mc0d9432f40" x="102.194205" y="307.761045" style="fill: #d62728; stroke: #000000; stroke-linejoin: miter"/>
     <use xlink:href="#mc0d9432f40" x="109.591932" y="307.767025" style="fill: #d62728; stroke: #000000; stroke-linejoin: miter"/>
     <use xlink:href="#mc0d9432f40" x="116.989659" y="307.773727" style="fill: #d62728; stroke: #000000; stroke-linejoin: miter"/>
     <use xlink:href="#mc0d9432f40" x="131.785114" y="307.780298" style="fill: #d62728; stroke: #000000; stroke-linejoin: miter"/>
     <use xlink:href="#mc0d9432f40" x="146.580568" y="307.784303" style="fill: #d62728; stroke: #000000; stroke-linejoin: miter"/>
     <use xlink:href="#mc0d9432f40" x="161.376023" y="307.787303" style="fill: #d62728; stroke: #000000; stroke-linejoin: miter"/>
     <use xlink:href="#mc0d9432f40" x="250.14875" y="307.791817" style="fill: #d62728; stroke: #000000; stroke-linejoin: miter"/>
     <use xlink:href="#mc0d9432f40" x="427.694205" y="307.793956" style="fill: #d62728; stroke: #000000; stroke-linejoin: miter"/>
    </g>
   </g>
   <g id="line2d_18">
    <path d="M 72.603295 307.8 
L 72.692068 307.775771 
L 72.780841 307.528836 
L 72.958386 305.685381 
L 73.313477 297.360743 
L 74.645068 261.448811 
L 75.177705 252.822818 
L 75.621568 248.381705 
L 75.976659 246.384894 
L 76.242977 245.6614 
L 76.509295 245.504918 
L 76.686841 245.674247 
L 76.953159 246.280211 
L 77.397023 248.050921 
L 78.018432 251.644771 
L 79.26125 260.575437 
L 81.036705 272.975039 
L 82.19075 279.527103 
L 83.256023 284.385736 
L 84.321295 288.218623 
L 85.386568 291.191856 
L 86.363068 293.305546 
L 87.428341 295.083314 
L 88.493614 296.431495 
L 89.647659 297.523409 
L 90.890477 298.380445 
L 92.222068 299.033434 
L 93.819977 299.565864 
L 95.772977 299.974413 
L 98.347386 300.275084 
L 102.164614 300.478536 
L 109.443977 300.602838 
L 141.846023 300.77769 
L 250.14875 301.288987 
L 250.14875 301.288987 
" clip-path="url(#p0deb1d1ed5)" style="fill: none; stroke: #2ca02c; stroke-width: 2; stroke-linecap: square"/>
   </g>
   <g id="line2d_19">
    <path d="M 74.452727 307.529191 
L 76.302159 307.325665 
M 87.39875 307.460102 
L 94.796477 307.556437 
L 102.194205 307.602982 
L 109.591932 307.6382 
L 116.989659 307.671087 
L 131.785114 307.704783 
L 146.580568 307.721803 
L 161.376023 307.730728 
L 250.14875 307.750361 
L 427.694205 307.76443 
" clip-path="url(#p0deb1d1ed5)" style="fill: none; stroke-dasharray: 3.7,1.6; stroke-dashoffset: 0; stroke: #2ca02c"/>
    <defs>
     <path id="m217ffc0709" d="M -3 3 
L 3 3 
L 3 -3 
L -3 -3 
z
" style="stroke: #000000; stroke-linejoin: miter"/>
    </defs>
    <g clip-path="url(#p0deb1d1ed5)">
     <use xlink:href="#m217ffc0709" x="74.452727" y="307.529191" style="fill: #2ca02c; stroke: #000000; stroke-linejoin: miter"/>
     <use xlink:href="#m217ffc0709" x="76.302159" y="307.325665" style="fill: #2ca02c; stroke: #000000; stroke-linejoin: miter"/>
     <use xlink:href="#m217ffc0709" x="87.39875" y="307.460102" style="fill: #2ca02c; stroke: #000000; stroke-linejoin: miter"/>
     <use xlink:href="#m217ffc0709" x="94.796477" y="307.556437" style="fill: #2ca02c; stroke: #000000; stroke-linejoin: miter"/>
     <use xlink:href="#m217ffc0709" x="102.194205" y="307.602982" style="fill: #2ca02c; stroke: #000000; stroke-linejoin: miter"/>
     <use xlink:href="#m217ffc0709" x="109.591932" y="307.6382" style="fill: #2ca02c; stroke: #000000; stroke-linejoin: miter"/>
     <use xlink:href="#m217ffc0709" x="116.989659" y="307.671087" style="fill: #2ca02c; stroke: #000000; stroke-linejoin: miter"/>
     <use xlink:href="#m217ffc0709" x="131.785114" y="307.704783" style="fill: #2ca02c; stroke: #000000; stroke-linejoin: miter"/>
     <use xlink:href="#m217ffc0709" x="146.580568" y="307.721803" style="fill: #2ca02c; stroke: #000000; stroke-linejoin: miter"/>
     <use xlink:href="#m217ffc0709" x="161.376023" y="307.730728" style="fill: #2ca02c; stroke: #000000; stroke-linejoin: miter"/>
     <use xlink:href="#m217ffc0709" x="250.14875" y="307.750361" style="fill: #2ca02c; stroke: #000000; stroke-linejoin: miter"/>
     <use xlink:href="#m217ffc0709" x="427.694205" y="307.76443" style="fill: #2ca02c; stroke: #000000; stroke-linejoin: miter"/>
    </g>
   </g>
   <g id="line2d_20">
    <path d="M 72.603295 307.8 
L 72.692068 307.703083 
L 72.780841 306.715326 
L 72.958386 299.340069 
L 73.313477 265.997119 
L 74.645068 121.17258 
L 75.177705 86.049829 
L 75.621568 67.84906 
L 75.976659 59.589214 
L 76.242977 56.539672 
L 76.420523 55.81095 
L 76.509295 55.8 
L 76.686841 56.423871 
L 76.953159 58.799067 
L 77.30825 64.195588 
L 77.929659 78.060037 
L 78.994932 108.519751 
L 81.036705 166.957696 
L 82.19075 193.565207 
L 83.256023 213.270121 
L 84.232523 227.641543 
L 85.209023 239.022541 
L 86.185523 247.948931 
L 87.162023 254.904915 
L 88.138523 260.302066 
L 89.115023 264.477902 
L 90.091523 267.703087 
L 91.068023 270.191559 
L 92.044523 272.11081 
L 93.109795 273.707634 
L 94.175068 274.911266 
L 95.329114 275.884364 
L 96.571932 276.649965 
L 97.992295 277.270036 
L 99.76775 277.787483 
L 101.987068 278.184941 
L 105.005341 278.484986 
L 109.887841 278.721988 
L 121.605841 279.004324 
L 216.237568 280.827714 
L 250.14875 281.452317 
L 250.14875 281.452317 
" clip-path="url(#p0deb1d1ed5)" style="fill: none; stroke: #1f77b4; stroke-width: 2; stroke-linecap: square"/>
   </g>
   <g id="line2d_21">
    <path d="M 74.452727 307.416311 
L 76.302159 306.890129 
L 78.151591 306.917282 
L 80.001023 307.006094 
L 87.39875 307.272603 
L 94.796477 307.379803 
L 102.194205 307.465213 
L 109.591932 307.507882 
L 116.989659 307.541222 
L 131.785114 307.596922 
L 146.580568 307.6201 
L 161.376023 307.643028 
L 250.14875 307.673026 
L 427.694205 307.714363 
" clip-path="url(#p0deb1d1ed5)" style="fill: none; stroke-dasharray: 3.7,1.6; stroke-dashoffset: 0; stroke: #1f77b4"/>
    <defs>
     <path id="m1148160ddc" d="M -3 3 
L 3 3 
L 3 -3 
L -3 -3 
z
" style="stroke: #000000; stroke-linejoin: miter"/>
    </defs>
    <g clip-path="url(#p0deb1d1ed5)">
     <use xlink:href="#m1148160ddc" x="74.452727" y="307.416311" style="fill: #1f77b4; stroke: #000000; stroke-linejoin: miter"/>
     <use xlink:href="#m1148160ddc" x="76.302159" y="306.890129" style="fill: #1f77b4; stroke: #000000; stroke-linejoin: miter"/>
     <use xlink:href="#m1148160ddc" x="78.151591" y="306.917282" style="fill: #1f77b4; stroke: #000000; stroke-linejoin: miter"/>
     <use xlink:href="#m1148160ddc" x="80.001023" y="307.006094" style="fill: #1f77b4; stroke: #000000; stroke-linejoin: miter"/>
     <use xlink:href="#m1148160ddc" x="87.39875" y="307.272603" style="fill: #1f77b4; stroke: #000000; stroke-linejoin: miter"/>
     <use xlink:href="#m1148160ddc" x="94.796477" y="307.379803" style="fill: #1f77b4; stroke: #000000; stroke-linejoin: miter"/>
     <use xlink:href="#m1148160ddc" x="102.194205" y="307.465213" style="fill: #1f77b4; stroke: #000000; stroke-linejoin: miter"/>
     <use xlink:href="#m1148160ddc" x="109.591932" y="307.507882" style="fill: #1f77b4; stroke: #000000; stroke-linejoin: miter"/>
     <use xlink:href="#m1148160ddc" x="116.989659" y="307.541222" style="fill: #1f77b4; stroke: #000000; stroke-linejoin: miter"/>
     <use xlink:href="#m1148160ddc" x="131.785114" y="307.596922" style="fill: #1f77b4; stroke: #000000; stroke-linejoin: miter"/>
     <use xlink:href="#m1148160ddc" x="146.580568" y="307.6201" style="fill: #1f77b4; stroke: #000000; stroke-linejoin: miter"/>
     <use xlink:href="#m1148160ddc" x="161.376023" y="307.643028" style="fill: #1f77b4; stroke: #000000; stroke-linejoin: miter"/>
     <use xlink:href="#m1148160ddc" x="250.14875" y="307.673026" style="fill: #1f77b4; stroke: #000000; stroke-linejoin: miter"/>
     <use xlink:href="#m1148160ddc" x="427.694205" y="307.714363" style="fill: #1f77b4; stroke: #000000; stroke-linejoin: miter"/>
    </g>
   </g>
   <g id="line2d_22">
    <path d="M 72.603295 307.8 
L 72.692068 307.703083 
L 72.780841 306.715326 
L 72.958386 299.340069 
L 73.313477 265.997119 
L 74.645068 121.17258 
L 75.177705 86.049829 
L 75.621568 67.84906 
L 75.976659 59.589214 
L 76.242977 56.539672 
L 76.420523 55.81095 
L 76.509295 55.8 
L 76.686841 56.423871 
L 76.953159 58.799067 
L 77.30825 64.195588 
L 77.929659 78.060037 
L 78.994932 108.519751 
L 81.036705 166.957696 
L 82.19075 193.565207 
L 83.256023 213.270121 
L 84.232523 227.641543 
L 85.209023 239.022541 
L 86.185523 247.948931 
L 87.162023 254.904915 
L 88.138523 260.302066 
L 89.115023 264.477902 
L 90.091523 267.703087 
L 91.068023 270.191559 
L 92.044523 272.11081 
L 93.109795 273.707634 
L 94.175068 274.911266 
L 95.329114 275.884364 
L 96.571932 276.649965 
L 97.992295 277.270036 
L 99.76775 277.787483 
L 101.987068 278.184941 
L 105.005341 278.484986 
L 109.887841 278.721988 
L 121.605841 279.004324 
L 216.237568 280.827714 
L 250.14875 281.452317 
L 250.14875 281.452317 
" clip-path="url(#p0deb1d1ed5)" style="fill: none; stroke: #ff7f0e; stroke-width: 2; stroke-linecap: square"/>
   </g>
   <g id="line2d_23">
    <path d="M 74.452727 307.512758 
L 76.302159 307.224847 
L 78.151591 307.187373 
L 80.001023 307.218764 
L 87.39875 307.265678 
L 94.796477 307.313946 
L 102.194205 307.384899 
L 109.591932 307.452875 
L 116.989659 307.527476 
L 131.785114 307.597007 
L 146.580568 307.626639 
L 161.376023 307.648798 
L 250.14875 307.68972 
L 427.694205 307.717857 
" clip-path="url(#p0deb1d1ed5)" style="fill: none; stroke-dasharray: 3.7,1.6; stroke-dashoffset: 0; stroke: #ff7f0e"/>
    <defs>
     <path id="m70e338040f" d="M -3 3 
L 3 3 
L 3 -3 
L -3 -3 
z
" style="stroke: #000000; stroke-linejoin: miter"/>
    </defs>
    <g clip-path="url(#p0deb1d1ed5)">
     <use xlink:href="#m70e338040f" x="74.452727" y="307.512758" style="fill: #ff7f0e; stroke: #000000; stroke-linejoin: miter"/>
     <use xlink:href="#m70e338040f" x="76.302159" y="307.224847" style="fill: #ff7f0e; stroke: #000000; stroke-linejoin: miter"/>
     <use xlink:href="#m70e338040f" x="78.151591" y="307.187373" style="fill: #ff7f0e; stroke: #000000; stroke-linejoin: miter"/>
     <use xlink:href="#m70e338040f" x="80.001023" y="307.218764" style="fill: #ff7f0e; stroke: #000000; stroke-linejoin: miter"/>
     <use xlink:href="#m70e338040f" x="87.39875" y="307.265678" style="fill: #ff7f0e; stroke: #000000; stroke-linejoin: miter"/>
     <use xlink:href="#m70e338040f" x="94.796477" y="307.313946" style="fill: #ff7f0e; stroke: #000000; stroke-linejoin: miter"/>
     <use xlink:href="#m70e338040f" x="102.194205" y="307.384899" style="fill: #ff7f0e; stroke: #000000; stroke-linejoin: miter"/>
     <use xlink:href="#m70e338040f" x="109.591932" y="307.452875" style="fill: #ff7f0e; stroke: #000000; stroke-linejoin: miter"/>
     <use xlink:href="#m70e338040f" x="116.989659" y="307.527476" style="fill: #ff7f0e; stroke: #000000; stroke-linejoin: miter"/>
     <use xlink:href="#m70e338040f" x="131.785114" y="307.597007" style="fill: #ff7f0e; stroke: #000000; stroke-linejoin: miter"/>
     <use xlink:href="#m70e338040f" x="146.580568" y="307.626639" style="fill: #ff7f0e; stroke: #000000; stroke-linejoin: miter"/>
     <use xlink:href="#m70e338040f" x="161.376023" y="307.648798" style="fill: #ff7f0e; stroke: #000000; stroke-linejoin: miter"/>
     <use xlink:href="#m70e338040f" x="250.14875" y="307.68972" style="fill: #ff7f0e; stroke: #000000; stroke-linejoin: miter"/>
     <use xlink:href="#m70e338040f" x="427.694205" y="307.717857" style="fill: #ff7f0e; stroke: #000000; stroke-linejoin: miter"/>
    </g>
   </g>
   <g id="patch_3">
    <path d="M 54.84875 320.4 
L 54.84875 43.2 
" style="fill: none; stroke: #000000; stroke-width: 0.8; stroke-linejoin: miter; stroke-linecap: square"/>
   </g>
   <g id="patch_4">
    <path d="M 445.44875 320.4 
L 445.44875 43.2 
" style="fill: none; stroke: #000000; stroke-width: 0.8; stroke-linejoin: miter; stroke-linecap: square"/>
   </g>
   <g id="patch_5">
    <path d="M 54.84875 320.4 
L 445.44875 320.4 
" style="fill: none; stroke: #000000; stroke-width: 0.8; stroke-linejoin: miter; stroke-linecap: square"/>
   </g>
   <g id="patch_6">
    <path d="M 54.84875 43.2 
L 445.44875 43.2 
" style="fill: none; stroke: #000000; stroke-width: 0.8; stroke-linejoin: miter; stroke-linecap: square"/>
   </g>
   <g id="legend_1">
    <g id="patch_7">
     <path d="M 468.07275 198.5375 
L 605.157125 198.5375 
Q 607.157125 198.5375 607.157125 196.5375 
L 607.157125 50.2 
Q 607.157125 48.2 605.157125 48.2 
L 468.07275 48.2 
Q 466.07275 48.2 466.07275 50.2 
L 466.07275 196.5375 
Q 466.07275 198.5375 468.07275 198.5375 
z
" style="fill: #ffffff; opacity: 0.8; stroke: #cccccc; stroke-linejoin: miter"/>
    </g>
    <g id="line2d_24">
     <path d="M 470.07275 56.298437 
L 490.07275 56.298437 
" style="fill: none; stroke: #000000; stroke-width: 2; stroke-linecap: square"/>
    </g>
    <g id="line2d_25"/>
    <g id="text_16">
     <!-- RAP05 -->
     <g transform="translate(498.07275 59.798437) scale(0.1 -0.1)">
      <defs>
       <path id="DejaVuSans-52" d="M 2841 2188 
Q 3044 2119 3236 1894 
Q 3428 1669 3622 1275 
L 4263 0 
L 3584 0 
L 2988 1197 
Q 2756 1666 2539 1819 
Q 2322 1972 1947 1972 
L 1259 1972 
L 1259 0 
L 628 0 
L 628 4666 
L 2053 4666 
Q 2853 4666 3247 4331 
Q 3641 3997 3641 3322 
Q 3641 2881 3436 2590 
Q 3231 2300 2841 2188 
z
M 1259 4147 
L 1259 2491 
L 2053 2491 
Q 2509 2491 2742 2702 
Q 2975 2913 2975 3322 
Q 2975 3731 2742 3939 
Q 2509 4147 2053 4147 
L 1259 4147 
z
" transform="scale(0.015625)"/>
       <path id="DejaVuSans-41" d="M 2188 4044 
L 1331 1722 
L 3047 1722 
L 2188 4044 
z
M 1831 4666 
L 2547 4666 
L 4325 0 
L 3669 0 
L 3244 1197 
L 1141 1197 
L 716 0 
L 50 0 
L 1831 4666 
z
" transform="scale(0.015625)"/>
       <path id="DejaVuSans-50" d="M 1259 4147 
L 1259 2394 
L 2053 2394 
Q 2494 2394 2734 2622 
Q 2975 2850 2975 3272 
Q 2975 3691 2734 3919 
Q 2494 4147 2053 4147 
L 1259 4147 
z
M 628 4666 
L 2053 4666 
Q 2838 4666 3239 4311 
Q 3641 3956 3641 3272 
Q 3641 2581 3239 2228 
Q 2838 1875 2053 1875 
L 1259 1875 
L 1259 0 
L 628 0 
L 628 4666 
z
" transform="scale(0.015625)"/>
      </defs>
      <use xlink:href="#DejaVuSans-52"/>
      <use xlink:href="#DejaVuSans-41" transform="translate(65.482422 0)"/>
      <use xlink:href="#DejaVuSans-50" transform="translate(133.890625 0)"/>
      <use xlink:href="#DejaVuSans-30" transform="translate(194.193359 0)"/>
      <use xlink:href="#DejaVuSans-35" transform="translate(257.816406 0)"/>
     </g>
    </g>
    <g id="LineCollection_6">
     <path d="M 480.07275 75.976562 
L 480.07275 65.976562 
" style="fill: none; stroke: #000000"/>
    </g>
    <g id="line2d_26">
     <path d="M 470.07275 70.976562 
L 490.07275 70.976562 
" style="fill: none; stroke-dasharray: 3.7,1.6; stroke-dashoffset: 0; stroke: #000000"/>
    </g>
    <g id="line2d_27">
     <g>
      <use xlink:href="#m6b8a84b72e" x="480.07275" y="70.976562" style="stroke: #000000; stroke-linejoin: miter"/>
     </g>
    </g>
    <g id="text_17">
     <!-- RAP05±SD (n=8) -->
     <g transform="translate(498.07275 74.476562) scale(0.1 -0.1)">
      <defs>
       <path id="DejaVuSans-b1" d="M 2944 4013 
L 2944 2803 
L 4684 2803 
L 4684 2272 
L 2944 2272 
L 2944 1063 
L 2419 1063 
L 2419 2272 
L 678 2272 
L 678 2803 
L 2419 2803 
L 2419 4013 
L 2944 4013 
z
M 678 531 
L 4684 531 
L 4684 0 
L 678 0 
L 678 531 
z
" transform="scale(0.015625)"/>
       <path id="DejaVuSans-53" d="M 3425 4513 
L 3425 3897 
Q 3066 4069 2747 4153 
Q 2428 4238 2131 4238 
Q 1616 4238 1336 4038 
Q 1056 3838 1056 3469 
Q 1056 3159 1242 3001 
Q 1428 2844 1947 2747 
L 2328 2669 
Q 3034 2534 3370 2195 
Q 3706 1856 3706 1288 
Q 3706 609 3251 259 
Q 2797 -91 1919 -91 
Q 1588 -91 1214 -16 
Q 841 59 441 206 
L 441 856 
Q 825 641 1194 531 
Q 1563 422 1919 422 
Q 2459 422 2753 634 
Q 3047 847 3047 1241 
Q 3047 1584 2836 1778 
Q 2625 1972 2144 2069 
L 1759 2144 
Q 1053 2284 737 2584 
Q 422 2884 422 3419 
Q 422 4038 858 4394 
Q 1294 4750 2059 4750 
Q 2388 4750 2728 4690 
Q 3069 4631 3425 4513 
z
" transform="scale(0.015625)"/>
       <path id="DejaVuSans-44" d="M 1259 4147 
L 1259 519 
L 2022 519 
Q 2988 519 3436 956 
Q 3884 1394 3884 2338 
Q 3884 3275 3436 3711 
Q 2988 4147 2022 4147 
L 1259 4147 
z
M 628 4666 
L 1925 4666 
Q 3281 4666 3915 4102 
Q 4550 3538 4550 2338 
Q 4550 1131 3912 565 
Q 3275 0 1925 0 
L 628 0 
L 628 4666 
z
" transform="scale(0.015625)"/>
       <path id="DejaVuSans-20" transform="scale(0.015625)"/>
       <path id="DejaVuSans-28" d="M 1984 4856 
Q 1566 4138 1362 3434 
Q 1159 2731 1159 2009 
Q 1159 1288 1364 580 
Q 1569 -128 1984 -844 
L 1484 -844 
Q 1016 -109 783 600 
Q 550 1309 550 2009 
Q 550 2706 781 3412 
Q 1013 4119 1484 4856 
L 1984 4856 
z
" transform="scale(0.015625)"/>
       <path id="DejaVuSans-6e" d="M 3513 2113 
L 3513 0 
L 2938 0 
L 2938 2094 
Q 2938 2591 2744 2837 
Q 2550 3084 2163 3084 
Q 1697 3084 1428 2787 
Q 1159 2491 1159 1978 
L 1159 0 
L 581 0 
L 581 3500 
L 1159 3500 
L 1159 2956 
Q 1366 3272 1645 3428 
Q 1925 3584 2291 3584 
Q 2894 3584 3203 3211 
Q 3513 2838 3513 2113 
z
" transform="scale(0.015625)"/>
       <path id="DejaVuSans-3d" d="M 678 2906 
L 4684 2906 
L 4684 2381 
L 678 2381 
L 678 2906 
z
M 678 1631 
L 4684 1631 
L 4684 1100 
L 678 1100 
L 678 1631 
z
" transform="scale(0.015625)"/>
       <path id="DejaVuSans-38" d="M 2034 2216 
Q 1584 2216 1326 1975 
Q 1069 1734 1069 1313 
Q 1069 891 1326 650 
Q 1584 409 2034 409 
Q 2484 409 2743 651 
Q 3003 894 3003 1313 
Q 3003 1734 2745 1975 
Q 2488 2216 2034 2216 
z
M 1403 2484 
Q 997 2584 770 2862 
Q 544 3141 544 3541 
Q 544 4100 942 4425 
Q 1341 4750 2034 4750 
Q 2731 4750 3128 4425 
Q 3525 4100 3525 3541 
Q 3525 3141 3298 2862 
Q 3072 2584 2669 2484 
Q 3125 2378 3379 2068 
Q 3634 1759 3634 1313 
Q 3634 634 3220 271 
Q 2806 -91 2034 -91 
Q 1263 -91 848 271 
Q 434 634 434 1313 
Q 434 1759 690 2068 
Q 947 2378 1403 2484 
z
M 1172 3481 
Q 1172 3119 1398 2916 
Q 1625 2713 2034 2713 
Q 2441 2713 2670 2916 
Q 2900 3119 2900 3481 
Q 2900 3844 2670 4047 
Q 2441 4250 2034 4250 
Q 1625 4250 1398 4047 
Q 1172 3844 1172 3481 
z
" transform="scale(0.015625)"/>
       <path id="DejaVuSans-29" d="M 513 4856 
L 1013 4856 
Q 1481 4119 1714 3412 
Q 1947 2706 1947 2009 
Q 1947 1309 1714 600 
Q 1481 -109 1013 -844 
L 513 -844 
Q 928 -128 1133 580 
Q 1338 1288 1338 2009 
Q 1338 2731 1133 3434 
Q 928 4138 513 4856 
z
" transform="scale(0.015625)"/>
      </defs>
      <use xlink:href="#DejaVuSans-52"/>
      <use xlink:href="#DejaVuSans-41" transform="translate(65.482422 0)"/>
      <use xlink:href="#DejaVuSans-50" transform="translate(133.890625 0)"/>
      <use xlink:href="#DejaVuSans-30" transform="translate(194.193359 0)"/>
      <use xlink:href="#DejaVuSans-35" transform="translate(257.816406 0)"/>
      <use xlink:href="#DejaVuSans-b1" transform="translate(321.439453 0)"/>
      <use xlink:href="#DejaVuSans-53" transform="translate(405.228516 0)"/>
      <use xlink:href="#DejaVuSans-44" transform="translate(468.705078 0)"/>
      <use xlink:href="#DejaVuSans-20" transform="translate(545.707031 0)"/>
      <use xlink:href="#DejaVuSans-28" transform="translate(577.494141 0)"/>
      <use xlink:href="#DejaVuSans-6e" transform="translate(616.507812 0)"/>
      <use xlink:href="#DejaVuSans-3d" transform="translate(679.886719 0)"/>
      <use xlink:href="#DejaVuSans-38" transform="translate(763.675781 0)"/>
      <use xlink:href="#DejaVuSans-29" transform="translate(827.298828 0)"/>
     </g>
    </g>
    <g id="line2d_28">
     <path d="M 470.07275 85.654687 
L 490.07275 85.654687 
" style="fill: none; stroke: #d62728; stroke-width: 2; stroke-linecap: square"/>
    </g>
    <g id="line2d_29"/>
    <g id="text_18">
     <!-- RAP2 -->
     <g transform="translate(498.07275 89.154687) scale(0.1 -0.1)">
      <use xlink:href="#DejaVuSans-52"/>
      <use xlink:href="#DejaVuSans-41" transform="translate(65.482422 0)"/>
      <use xlink:href="#DejaVuSans-50" transform="translate(133.890625 0)"/>
      <use xlink:href="#DejaVuSans-32" transform="translate(194.193359 0)"/>
     </g>
    </g>
    <g id="LineCollection_7">
     <path d="M 480.07275 105.332812 
L 480.07275 95.332812 
" style="fill: none; stroke: #d62728"/>
    </g>
    <g id="line2d_30">
     <path d="M 470.07275 100.332812 
L 490.07275 100.332812 
" style="fill: none; stroke-dasharray: 3.7,1.6; stroke-dashoffset: 0; stroke: #d62728"/>
    </g>
    <g id="line2d_31">
     <g>
      <use xlink:href="#mc0d9432f40" x="480.07275" y="100.332812" style="fill: #d62728; stroke: #000000; stroke-linejoin: miter"/>
     </g>
    </g>
    <g id="text_19">
     <!-- RAP2±SD (n=8) -->
     <g transform="translate(498.07275 103.832812) scale(0.1 -0.1)">
      <use xlink:href="#DejaVuSans-52"/>
      <use xlink:href="#DejaVuSans-41" transform="translate(65.482422 0)"/>
      <use xlink:href="#DejaVuSans-50" transform="translate(133.890625 0)"/>
      <use xlink:href="#DejaVuSans-32" transform="translate(194.193359 0)"/>
      <use xlink:href="#DejaVuSans-b1" transform="translate(257.816406 0)"/>
      <use xlink:href="#DejaVuSans-53" transform="translate(341.605469 0)"/>
      <use xlink:href="#DejaVuSans-44" transform="translate(405.082031 0)"/>
      <use xlink:href="#DejaVuSans-20" transform="translate(482.083984 0)"/>
      <use xlink:href="#DejaVuSans-28" transform="translate(513.871094 0)"/>
      <use xlink:href="#DejaVuSans-6e" transform="translate(552.884766 0)"/>
      <use xlink:href="#DejaVuSans-3d" transform="translate(616.263672 0)"/>
      <use xlink:href="#DejaVuSans-38" transform="translate(700.052734 0)"/>
      <use xlink:href="#DejaVuSans-29" transform="translate(763.675781 0)"/>
     </g>
    </g>
    <g id="line2d_32">
     <path d="M 470.07275 115.010937 
L 490.07275 115.010937 
" style="fill: none; stroke: #2ca02c; stroke-width: 2; stroke-linecap: square"/>
    </g>
    <g id="line2d_33"/>
    <g id="text_20">
     <!-- RAP10 -->
     <g transform="translate(498.07275 118.510937) scale(0.1 -0.1)">
      <use xlink:href="#DejaVuSans-52"/>
      <use xlink:href="#DejaVuSans-41" transform="translate(65.482422 0)"/>
      <use xlink:href="#DejaVuSans-50" transform="translate(133.890625 0)"/>
      <use xlink:href="#DejaVuSans-31" transform="translate(194.193359 0)"/>
      <use xlink:href="#DejaVuSans-30" transform="translate(257.816406 0)"/>
     </g>
    </g>
    <g id="LineCollection_8">
     <path d="M 480.07275 134.689062 
L 480.07275 124.689062 
" style="fill: none; stroke: #2ca02c"/>
    </g>
    <g id="line2d_34">
     <path d="M 470.07275 129.689062 
L 490.07275 129.689062 
" style="fill: none; stroke-dasharray: 3.7,1.6; stroke-dashoffset: 0; stroke: #2ca02c"/>
    </g>
    <g id="line2d_35">
     <g>
      <use xlink:href="#m217ffc0709" x="480.07275" y="129.689062" style="fill: #2ca02c; stroke: #000000; stroke-linejoin: miter"/>
     </g>
    </g>
    <g id="text_21">
     <!-- RAP10±SD (n=8) -->
     <g transform="translate(498.07275 133.189062) scale(0.1 -0.1)">
      <use xlink:href="#DejaVuSans-52"/>
      <use xlink:href="#DejaVuSans-41" transform="translate(65.482422 0)"/>
      <use xlink:href="#DejaVuSans-50" transform="translate(133.890625 0)"/>
      <use xlink:href="#DejaVuSans-31" transform="translate(194.193359 0)"/>
      <use xlink:href="#DejaVuSans-30" transform="translate(257.816406 0)"/>
      <use xlink:href="#DejaVuSans-b1" transform="translate(321.439453 0)"/>
      <use xlink:href="#DejaVuSans-53" transform="translate(405.228516 0)"/>
      <use xlink:href="#DejaVuSans-44" transform="translate(468.705078 0)"/>
      <use xlink:href="#DejaVuSans-20" transform="translate(545.707031 0)"/>
      <use xlink:href="#DejaVuSans-28" transform="translate(577.494141 0)"/>
      <use xlink:href="#DejaVuSans-6e" transform="translate(616.507812 0)"/>
      <use xlink:href="#DejaVuSans-3d" transform="translate(679.886719 0)"/>
      <use xlink:href="#DejaVuSans-38" transform="translate(763.675781 0)"/>
      <use xlink:href="#DejaVuSans-29" transform="translate(827.298828 0)"/>
     </g>
    </g>
    <g id="line2d_36">
     <path d="M 470.07275 144.367187 
L 490.07275 144.367187 
" style="fill: none; stroke: #1f77b4; stroke-width: 2; stroke-linecap: square"/>
    </g>
    <g id="line2d_37"/>
    <g id="text_22">
     <!-- RAP40 -->
     <g transform="translate(498.07275 147.867187) scale(0.1 -0.1)">
      <use xlink:href="#DejaVuSans-52"/>
      <use xlink:href="#DejaVuSans-41" transform="translate(65.482422 0)"/>
      <use xlink:href="#DejaVuSans-50" transform="translate(133.890625 0)"/>
      <use xlink:href="#DejaVuSans-34" transform="translate(194.193359 0)"/>
      <use xlink:href="#DejaVuSans-30" transform="translate(257.816406 0)"/>
     </g>
    </g>
    <g id="LineCollection_9">
     <path d="M 480.07275 164.045312 
L 480.07275 154.045312 
" style="fill: none; stroke: #1f77b4"/>
    </g>
    <g id="line2d_38">
     <path d="M 470.07275 159.045312 
L 490.07275 159.045312 
" style="fill: none; stroke-dasharray: 3.7,1.6; stroke-dashoffset: 0; stroke: #1f77b4"/>
    </g>
    <g id="line2d_39">
     <g>
      <use xlink:href="#m1148160ddc" x="480.07275" y="159.045312" style="fill: #1f77b4; stroke: #000000; stroke-linejoin: miter"/>
     </g>
    </g>
    <g id="text_23">
     <!-- RAP40±SD (n=8) -->
     <g transform="translate(498.07275 162.545312) scale(0.1 -0.1)">
      <use xlink:href="#DejaVuSans-52"/>
      <use xlink:href="#DejaVuSans-41" transform="translate(65.482422 0)"/>
      <use xlink:href="#DejaVuSans-50" transform="translate(133.890625 0)"/>
      <use xlink:href="#DejaVuSans-34" transform="translate(194.193359 0)"/>
      <use xlink:href="#DejaVuSans-30" transform="translate(257.816406 0)"/>
      <use xlink:href="#DejaVuSans-b1" transform="translate(321.439453 0)"/>
      <use xlink:href="#DejaVuSans-53" transform="translate(405.228516 0)"/>
      <use xlink:href="#DejaVuSans-44" transform="translate(468.705078 0)"/>
      <use xlink:href="#DejaVuSans-20" transform="translate(545.707031 0)"/>
      <use xlink:href="#DejaVuSans-28" transform="translate(577.494141 0)"/>
      <use xlink:href="#DejaVuSans-6e" transform="translate(616.507812 0)"/>
      <use xlink:href="#DejaVuSans-3d" transform="translate(679.886719 0)"/>
      <use xlink:href="#DejaVuSans-38" transform="translate(763.675781 0)"/>
      <use xlink:href="#DejaVuSans-29" transform="translate(827.298828 0)"/>
     </g>
    </g>
    <g id="line2d_40">
     <path d="M 470.07275 173.723437 
L 490.07275 173.723437 
" style="fill: none; stroke: #ff7f0e; stroke-width: 2; stroke-linecap: square"/>
    </g>
    <g id="line2d_41"/>
    <g id="text_24">
     <!-- RAP40_FD -->
     <g transform="translate(498.07275 177.223437) scale(0.1 -0.1)">
      <defs>
       <path id="DejaVuSans-5f" d="M 3263 -1063 
L 3263 -1509 
L -63 -1509 
L -63 -1063 
L 3263 -1063 
z
" transform="scale(0.015625)"/>
       <path id="DejaVuSans-46" d="M 628 4666 
L 3309 4666 
L 3309 4134 
L 1259 4134 
L 1259 2759 
L 3109 2759 
L 3109 2228 
L 1259 2228 
L 1259 0 
L 628 0 
L 628 4666 
z
" transform="scale(0.015625)"/>
      </defs>
      <use xlink:href="#DejaVuSans-52"/>
      <use xlink:href="#DejaVuSans-41" transform="translate(65.482422 0)"/>
      <use xlink:href="#DejaVuSans-50" transform="translate(133.890625 0)"/>
      <use xlink:href="#DejaVuSans-34" transform="translate(194.193359 0)"/>
      <use xlink:href="#DejaVuSans-30" transform="translate(257.816406 0)"/>
      <use xlink:href="#DejaVuSans-5f" transform="translate(321.439453 0)"/>
      <use xlink:href="#DejaVuSans-46" transform="translate(371.439453 0)"/>
      <use xlink:href="#DejaVuSans-44" transform="translate(428.958984 0)"/>
     </g>
    </g>
    <g id="LineCollection_10">
     <path d="M 480.07275 193.679687 
L 480.07275 183.679687 
" style="fill: none; stroke: #ff7f0e"/>
    </g>
    <g id="line2d_42">
     <path d="M 470.07275 188.679687 
L 490.07275 188.679687 
" style="fill: none; stroke-dasharray: 3.7,1.6; stroke-dashoffset: 0; stroke: #ff7f0e"/>
    </g>
    <g id="line2d_43">
     <g>
      <use xlink:href="#m70e338040f" x="480.07275" y="188.679687" style="fill: #ff7f0e; stroke: #000000; stroke-linejoin: miter"/>
     </g>
    </g>
    <g id="text_25">
     <!-- RAP40_FD±SD (n=8) -->
     <g transform="translate(498.07275 192.179687) scale(0.1 -0.1)">
      <use xlink:href="#DejaVuSans-52"/>
      <use xlink:href="#DejaVuSans-41" transform="translate(65.482422 0)"/>
      <use xlink:href="#DejaVuSans-50" transform="translate(133.890625 0)"/>
      <use xlink:href="#DejaVuSans-34" transform="translate(194.193359 0)"/>
      <use xlink:href="#DejaVuSans-30" transform="translate(257.816406 0)"/>
      <use xlink:href="#DejaVuSans-5f" transform="translate(321.439453 0)"/>
      <use xlink:href="#DejaVuSans-46" transform="translate(371.439453 0)"/>
      <use xlink:href="#DejaVuSans-44" transform="translate(428.958984 0)"/>
      <use xlink:href="#DejaVuSans-b1" transform="translate(505.960938 0)"/>
      <use xlink:href="#DejaVuSans-53" transform="translate(589.75 0)"/>
      <use xlink:href="#DejaVuSans-44" transform="translate(653.226562 0)"/>
      <use xlink:href="#DejaVuSans-20" transform="translate(730.228516 0)"/>
      <use xlink:href="#DejaVuSans-28" transform="translate(762.015625 0)"/>
      <use xlink:href="#DejaVuSans-6e" transform="translate(801.029297 0)"/>
      <use xlink:href="#DejaVuSans-3d" transform="translate(864.408203 0)"/>
      <use xlink:href="#DejaVuSans-38" transform="translate(948.197266 0)"/>
      <use xlink:href="#DejaVuSans-29" transform="translate(1011.820312 0)"/>
     </g>
    </g>
   </g>
  </g>
  <g id="text_26">
   <!-- BasaDenes2019 -->
   <g transform="translate(131.549922 26.196094) scale(0.25 -0.25)">
    <defs>
     <path id="DejaVuSans-Bold-42" d="M 2456 2859 
Q 2741 2859 2887 2984 
Q 3034 3109 3034 3353 
Q 3034 3594 2887 3720 
Q 2741 3847 2456 3847 
L 1791 3847 
L 1791 2859 
L 2456 2859 
z
M 2497 819 
Q 2859 819 3042 972 
Q 3225 1125 3225 1434 
Q 3225 1738 3044 1889 
Q 2863 2041 2497 2041 
L 1791 2041 
L 1791 819 
L 2497 819 
z
M 3616 2497 
Q 4003 2384 4215 2081 
Q 4428 1778 4428 1338 
Q 4428 663 3972 331 
Q 3516 0 2584 0 
L 588 0 
L 588 4666 
L 2394 4666 
Q 3366 4666 3802 4372 
Q 4238 4078 4238 3431 
Q 4238 3091 4078 2852 
Q 3919 2613 3616 2497 
z
" transform="scale(0.015625)"/>
     <path id="DejaVuSans-Bold-73" d="M 3272 3391 
L 3272 2541 
Q 2913 2691 2578 2766 
Q 2244 2841 1947 2841 
Q 1628 2841 1473 2761 
Q 1319 2681 1319 2516 
Q 1319 2381 1436 2309 
Q 1553 2238 1856 2203 
L 2053 2175 
Q 2913 2066 3209 1816 
Q 3506 1566 3506 1031 
Q 3506 472 3093 190 
Q 2681 -91 1863 -91 
Q 1516 -91 1145 -36 
Q 775 19 384 128 
L 384 978 
Q 719 816 1070 734 
Q 1422 653 1784 653 
Q 2113 653 2278 743 
Q 2444 834 2444 1013 
Q 2444 1163 2330 1236 
Q 2216 1309 1875 1350 
L 1678 1375 
Q 931 1469 631 1722 
Q 331 1975 331 2491 
Q 331 3047 712 3315 
Q 1094 3584 1881 3584 
Q 2191 3584 2531 3537 
Q 2872 3491 3272 3391 
z
" transform="scale(0.015625)"/>
     <path id="DejaVuSans-Bold-44" d="M 1791 3756 
L 1791 909 
L 2222 909 
Q 2959 909 3348 1275 
Q 3738 1641 3738 2338 
Q 3738 3031 3350 3393 
Q 2963 3756 2222 3756 
L 1791 3756 
z
M 588 4666 
L 1856 4666 
Q 2919 4666 3439 4514 
Q 3959 4363 4331 4000 
Q 4659 3684 4818 3271 
Q 4978 2859 4978 2338 
Q 4978 1809 4818 1395 
Q 4659 981 4331 666 
Q 3956 303 3431 151 
Q 2906 0 1856 0 
L 588 0 
L 588 4666 
z
" transform="scale(0.015625)"/>
     <path id="DejaVuSans-Bold-32" d="M 1844 884 
L 3897 884 
L 3897 0 
L 506 0 
L 506 884 
L 2209 2388 
Q 2438 2594 2547 2791 
Q 2656 2988 2656 3200 
Q 2656 3528 2436 3728 
Q 2216 3928 1850 3928 
Q 1569 3928 1234 3808 
Q 900 3688 519 3450 
L 519 4475 
Q 925 4609 1322 4679 
Q 1719 4750 2100 4750 
Q 2938 4750 3402 4381 
Q 3866 4013 3866 3353 
Q 3866 2972 3669 2642 
Q 3472 2313 2841 1759 
L 1844 884 
z
" transform="scale(0.015625)"/>
     <path id="DejaVuSans-Bold-30" d="M 2944 2338 
Q 2944 3213 2780 3570 
Q 2616 3928 2228 3928 
Q 1841 3928 1675 3570 
Q 1509 3213 1509 2338 
Q 1509 1453 1675 1090 
Q 1841 728 2228 728 
Q 2613 728 2778 1090 
Q 2944 1453 2944 2338 
z
M 4147 2328 
Q 4147 1169 3647 539 
Q 3147 -91 2228 -91 
Q 1306 -91 806 539 
Q 306 1169 306 2328 
Q 306 3491 806 4120 
Q 1306 4750 2228 4750 
Q 3147 4750 3647 4120 
Q 4147 3491 4147 2328 
z
" transform="scale(0.015625)"/>
     <path id="DejaVuSans-Bold-31" d="M 750 831 
L 1813 831 
L 1813 3847 
L 722 3622 
L 722 4441 
L 1806 4666 
L 2950 4666 
L 2950 831 
L 4013 831 
L 4013 0 
L 750 0 
L 750 831 
z
" transform="scale(0.015625)"/>
     <path id="DejaVuSans-Bold-39" d="M 641 103 
L 641 966 
Q 928 831 1190 764 
Q 1453 697 1709 697 
Q 2247 697 2547 995 
Q 2847 1294 2900 1881 
Q 2688 1725 2447 1647 
Q 2206 1569 1925 1569 
Q 1209 1569 770 1986 
Q 331 2403 331 3084 
Q 331 3838 820 4291 
Q 1309 4744 2131 4744 
Q 3044 4744 3544 4128 
Q 4044 3513 4044 2388 
Q 4044 1231 3459 570 
Q 2875 -91 1856 -91 
Q 1528 -91 1228 -42 
Q 928 6 641 103 
z
M 2125 2350 
Q 2441 2350 2600 2554 
Q 2759 2759 2759 3169 
Q 2759 3575 2600 3781 
Q 2441 3988 2125 3988 
Q 1809 3988 1650 3781 
Q 1491 3575 1491 3169 
Q 1491 2759 1650 2554 
Q 1809 2350 2125 2350 
z
" transform="scale(0.015625)"/>
    </defs>
    <use xlink:href="#DejaVuSans-Bold-42"/>
    <use xlink:href="#DejaVuSans-Bold-61" transform="translate(76.220703 0)"/>
    <use xlink:href="#DejaVuSans-Bold-73" transform="translate(143.701172 0)"/>
    <use xlink:href="#DejaVuSans-Bold-61" transform="translate(203.222656 0)"/>
    <use xlink:href="#DejaVuSans-Bold-44" transform="translate(270.703125 0)"/>
    <use xlink:href="#DejaVuSans-Bold-65" transform="translate(353.710938 0)"/>
    <use xlink:href="#DejaVuSans-Bold-6e" transform="translate(421.533203 0)"/>
    <use xlink:href="#DejaVuSans-Bold-65" transform="translate(492.724609 0)"/>
    <use xlink:href="#DejaVuSans-Bold-73" transform="translate(560.546875 0)"/>
    <use xlink:href="#DejaVuSans-Bold-32" transform="translate(620.068359 0)"/>
    <use xlink:href="#DejaVuSans-Bold-30" transform="translate(689.648438 0)"/>
    <use xlink:href="#DejaVuSans-Bold-31" transform="translate(759.228516 0)"/>
    <use xlink:href="#DejaVuSans-Bold-39" transform="translate(828.808594 0)"/>
   </g>
  </g>
 </g>
 <defs>
  <clipPath id="p0deb1d1ed5">
   <rect x="54.84875" y="43.2" width="390.6" height="277.2"/>
  </clipPath>
 </defs>
</svg>
