<?xml version="1.0" encoding="utf-8" standalone="no"?>
<!DOCTYPE svg PUBLIC "-//W3C//DTD SVG 1.1//EN"
  "http://www.w3.org/Graphics/SVG/1.1/DTD/svg11.dtd">
<svg xmlns:xlink="http://www.w3.org/1999/xlink" width="558.811813pt" height="370.537812pt" viewBox="0 0 558.811813 370.537812" xmlns="http://www.w3.org/2000/svg" version="1.1">
 <metadata>
  <rdf:RDF xmlns:dc="http://purl.org/dc/elements/1.1/" xmlns:cc="http://creativecommons.org/ns#" xmlns:rdf="http://www.w3.org/1999/02/22-rdf-syntax-ns#">
   <cc:Work>
    <dc:type rdf:resource="http://purl.org/dc/dcmitype/StillImage"/>
    <dc:date>2025-09-10T11:19:48.367063</dc:date>
    <dc:format>image/svg+xml</dc:format>
    <dc:creator>
     <cc:Agent>
      <dc:title>Matplotlib v3.10.6, https://matplotlib.org/</dc:title>
     </cc:Agent>
    </dc:creator>
   </cc:Work>
  </rdf:RDF>
 </metadata>
 <defs>
  <style type="text/css">*{stroke-linejoin: round; stroke-linecap: butt}</style>
 </defs>
 <g id="figure_1">
  <g id="patch_1">
   <path d="M 0 370.537812 
L 558.811813 370.537812 
L 558.811813 0 
L 0 0 
z
" style="fill: #ffffff"/>
  </g>
  <g id="axes_1">
   <g id="patch_2">
    <path d="M 59.615938 320.4 
L 450.215937 320.4 
L 450.215937 43.2 
L 59.615938 43.2 
z
" style="fill: #ffffff"/>
   </g>
   <g id="matplotlib.axis_1">
    <g id="xtick_1">
     <g id="line2d_1">
      <defs>
       <path id="m316a058b69" d="M 0 0 
L 0 3.5 
" style="stroke: #000000; stroke-width: 0.8"/>
      </defs>
      <g>
       <use xlink:href="#m316a058b69" x="77.370483" y="320.4" style="stroke: #000000; stroke-width: 0.8"/>
      </g>
     </g>
     <g id="text_1">
      <!-- 0 -->
      <g transform="translate(72.598608 338.797656) scale(0.15 -0.15)">
       <defs>
        <path id="DejaVuSans-30" d="M 2034 4250 
Q 1547 4250 1301 3770 
Q 1056 3291 1056 2328 
Q 1056 1369 1301 889 
Q 1547 409 2034 409 
Q 2525 409 2770 889 
Q 3016 1369 3016 2328 
Q 3016 3291 2770 3770 
Q 2525 4250 2034 4250 
z
M 2034 4750 
Q 2819 4750 3233 4129 
Q 3647 3509 3647 2328 
Q 3647 1150 3233 529 
Q 2819 -91 2034 -91 
Q 1250 -91 836 529 
Q 422 1150 422 2328 
Q 422 3509 836 4129 
Q 1250 4750 2034 4750 
z
" transform="scale(0.015625)"/>
       </defs>
       <use xlink:href="#DejaVuSans-30"/>
      </g>
     </g>
    </g>
    <g id="xtick_2">
     <g id="line2d_2">
      <g>
       <use xlink:href="#m316a058b69" x="151.347756" y="320.4" style="stroke: #000000; stroke-width: 0.8"/>
      </g>
     </g>
     <g id="text_2">
      <!-- 5 -->
      <g transform="translate(146.575881 338.797656) scale(0.15 -0.15)">
       <defs>
        <path id="DejaVuSans-35" d="M 691 4666 
L 3169 4666 
L 3169 4134 
L 1269 4134 
L 1269 2991 
Q 1406 3038 1543 3061 
Q 1681 3084 1819 3084 
Q 2600 3084 3056 2656 
Q 3513 2228 3513 1497 
Q 3513 744 3044 326 
Q 2575 -91 1722 -91 
Q 1428 -91 1123 -41 
Q 819 9 494 109 
L 494 744 
Q 775 591 1075 516 
Q 1375 441 1709 441 
Q 2250 441 2565 725 
Q 2881 1009 2881 1497 
Q 2881 1984 2565 2268 
Q 2250 2553 1709 2553 
Q 1456 2553 1204 2497 
Q 953 2441 691 2322 
L 691 4666 
z
" transform="scale(0.015625)"/>
       </defs>
       <use xlink:href="#DejaVuSans-35"/>
      </g>
     </g>
    </g>
    <g id="xtick_3">
     <g id="line2d_3">
      <g>
       <use xlink:href="#m316a058b69" x="225.325028" y="320.4" style="stroke: #000000; stroke-width: 0.8"/>
      </g>
     </g>
     <g id="text_3">
      <!-- 10 -->
      <g transform="translate(215.781278 338.797656) scale(0.15 -0.15)">
       <defs>
        <path id="DejaVuSans-31" d="M 794 531 
L 1825 531 
L 1825 4091 
L 703 3866 
L 703 4441 
L 1819 4666 
L 2450 4666 
L 2450 531 
L 3481 531 
L 3481 0 
L 794 0 
L 794 531 
z
" transform="scale(0.015625)"/>
       </defs>
       <use xlink:href="#DejaVuSans-31"/>
       <use xlink:href="#DejaVuSans-30" transform="translate(63.623047 0)"/>
      </g>
     </g>
    </g>
    <g id="xtick_4">
     <g id="line2d_4">
      <g>
       <use xlink:href="#m316a058b69" x="299.302301" y="320.4" style="stroke: #000000; stroke-width: 0.8"/>
      </g>
     </g>
     <g id="text_4">
      <!-- 15 -->
      <g transform="translate(289.758551 338.797656) scale(0.15 -0.15)">
       <use xlink:href="#DejaVuSans-31"/>
       <use xlink:href="#DejaVuSans-35" transform="translate(63.623047 0)"/>
      </g>
     </g>
    </g>
    <g id="xtick_5">
     <g id="line2d_5">
      <g>
       <use xlink:href="#m316a058b69" x="373.279574" y="320.4" style="stroke: #000000; stroke-width: 0.8"/>
      </g>
     </g>
     <g id="text_5">
      <!-- 20 -->
      <g transform="translate(363.735824 338.797656) scale(0.15 -0.15)">
       <defs>
        <path id="DejaVuSans-32" d="M 1228 531 
L 3431 531 
L 3431 0 
L 469 0 
L 469 531 
Q 828 903 1448 1529 
Q 2069 2156 2228 2338 
Q 2531 2678 2651 2914 
Q 2772 3150 2772 3378 
Q 2772 3750 2511 3984 
Q 2250 4219 1831 4219 
Q 1534 4219 1204 4116 
Q 875 4013 500 3803 
L 500 4441 
Q 881 4594 1212 4672 
Q 1544 4750 1819 4750 
Q 2544 4750 2975 4387 
Q 3406 4025 3406 3419 
Q 3406 3131 3298 2873 
Q 3191 2616 2906 2266 
Q 2828 2175 2409 1742 
Q 1991 1309 1228 531 
z
" transform="scale(0.015625)"/>
       </defs>
       <use xlink:href="#DejaVuSans-32"/>
       <use xlink:href="#DejaVuSans-30" transform="translate(63.623047 0)"/>
      </g>
     </g>
    </g>
    <g id="xtick_6">
     <g id="line2d_6">
      <g>
       <use xlink:href="#m316a058b69" x="447.256847" y="320.4" style="stroke: #000000; stroke-width: 0.8"/>
      </g>
     </g>
     <g id="text_6">
      <!-- 25 -->
      <g transform="translate(437.713097 338.797656) scale(0.15 -0.15)">
       <use xlink:href="#DejaVuSans-32"/>
       <use xlink:href="#DejaVuSans-35" transform="translate(63.623047 0)"/>
      </g>
     </g>
    </g>
    <g id="text_7">
     <!-- time [hr] -->
     <g transform="translate(209.841406 359.594375) scale(0.18 -0.18)">
      <defs>
       <path id="DejaVuSans-Bold-74" d="M 1759 4494 
L 1759 3500 
L 2913 3500 
L 2913 2700 
L 1759 2700 
L 1759 1216 
Q 1759 972 1856 886 
Q 1953 800 2241 800 
L 2816 800 
L 2816 0 
L 1856 0 
Q 1194 0 917 276 
Q 641 553 641 1216 
L 641 2700 
L 84 2700 
L 84 3500 
L 641 3500 
L 641 4494 
L 1759 4494 
z
" transform="scale(0.015625)"/>
       <path id="DejaVuSans-Bold-69" d="M 538 3500 
L 1656 3500 
L 1656 0 
L 538 0 
L 538 3500 
z
M 538 4863 
L 1656 4863 
L 1656 3950 
L 538 3950 
L 538 4863 
z
" transform="scale(0.015625)"/>
       <path id="DejaVuSans-Bold-6d" d="M 3781 2919 
Q 3994 3244 4286 3414 
Q 4578 3584 4928 3584 
Q 5531 3584 5847 3212 
Q 6163 2841 6163 2131 
L 6163 0 
L 5038 0 
L 5038 1825 
Q 5041 1866 5042 1909 
Q 5044 1953 5044 2034 
Q 5044 2406 4934 2573 
Q 4825 2741 4581 2741 
Q 4263 2741 4089 2478 
Q 3916 2216 3909 1719 
L 3909 0 
L 2784 0 
L 2784 1825 
Q 2784 2406 2684 2573 
Q 2584 2741 2328 2741 
Q 2006 2741 1831 2477 
Q 1656 2213 1656 1722 
L 1656 0 
L 531 0 
L 531 3500 
L 1656 3500 
L 1656 2988 
Q 1863 3284 2130 3434 
Q 2397 3584 2719 3584 
Q 3081 3584 3359 3409 
Q 3638 3234 3781 2919 
z
" transform="scale(0.015625)"/>
       <path id="DejaVuSans-Bold-65" d="M 4031 1759 
L 4031 1441 
L 1416 1441 
Q 1456 1047 1700 850 
Q 1944 653 2381 653 
Q 2734 653 3104 758 
Q 3475 863 3866 1075 
L 3866 213 
Q 3469 63 3072 -14 
Q 2675 -91 2278 -91 
Q 1328 -91 801 392 
Q 275 875 275 1747 
Q 275 2603 792 3093 
Q 1309 3584 2216 3584 
Q 3041 3584 3536 3087 
Q 4031 2591 4031 1759 
z
M 2881 2131 
Q 2881 2450 2695 2645 
Q 2509 2841 2209 2841 
Q 1884 2841 1681 2658 
Q 1478 2475 1428 2131 
L 2881 2131 
z
" transform="scale(0.015625)"/>
       <path id="DejaVuSans-Bold-20" transform="scale(0.015625)"/>
       <path id="DejaVuSans-Bold-5b" d="M 550 4863 
L 2491 4863 
L 2491 4159 
L 1613 4159 
L 1613 -141 
L 2491 -141 
L 2491 -844 
L 550 -844 
L 550 4863 
z
" transform="scale(0.015625)"/>
       <path id="DejaVuSans-Bold-68" d="M 4056 2131 
L 4056 0 
L 2931 0 
L 2931 347 
L 2931 1625 
Q 2931 2084 2911 2256 
Q 2891 2428 2841 2509 
Q 2775 2619 2662 2680 
Q 2550 2741 2406 2741 
Q 2056 2741 1856 2470 
Q 1656 2200 1656 1722 
L 1656 0 
L 538 0 
L 538 4863 
L 1656 4863 
L 1656 2988 
Q 1909 3294 2193 3439 
Q 2478 3584 2822 3584 
Q 3428 3584 3742 3212 
Q 4056 2841 4056 2131 
z
" transform="scale(0.015625)"/>
       <path id="DejaVuSans-Bold-72" d="M 3138 2547 
Q 2991 2616 2845 2648 
Q 2700 2681 2553 2681 
Q 2122 2681 1889 2404 
Q 1656 2128 1656 1613 
L 1656 0 
L 538 0 
L 538 3500 
L 1656 3500 
L 1656 2925 
Q 1872 3269 2151 3426 
Q 2431 3584 2822 3584 
Q 2878 3584 2943 3579 
Q 3009 3575 3134 3559 
L 3138 2547 
z
" transform="scale(0.015625)"/>
       <path id="DejaVuSans-Bold-5d" d="M 2375 -844 
L 434 -844 
L 434 -141 
L 1313 -141 
L 1313 4159 
L 434 4159 
L 434 4863 
L 2375 4863 
L 2375 -844 
z
" transform="scale(0.015625)"/>
      </defs>
      <use xlink:href="#DejaVuSans-Bold-74"/>
      <use xlink:href="#DejaVuSans-Bold-69" transform="translate(47.802734 0)"/>
      <use xlink:href="#DejaVuSans-Bold-6d" transform="translate(82.080078 0)"/>
      <use xlink:href="#DejaVuSans-Bold-65" transform="translate(186.279297 0)"/>
      <use xlink:href="#DejaVuSans-Bold-20" transform="translate(254.101562 0)"/>
      <use xlink:href="#DejaVuSans-Bold-5b" transform="translate(288.916016 0)"/>
      <use xlink:href="#DejaVuSans-Bold-68" transform="translate(334.619141 0)"/>
      <use xlink:href="#DejaVuSans-Bold-72" transform="translate(405.810547 0)"/>
      <use xlink:href="#DejaVuSans-Bold-5d" transform="translate(455.126953 0)"/>
     </g>
    </g>
   </g>
   <g id="matplotlib.axis_2">
    <g id="ytick_1">
     <g id="line2d_7">
      <defs>
       <path id="m1019ce5cbf" d="M 0 0 
L -3.5 0 
" style="stroke: #000000; stroke-width: 0.8"/>
      </defs>
      <g>
       <use xlink:href="#m1019ce5cbf" x="59.615938" y="307.8" style="stroke: #000000; stroke-width: 0.8"/>
      </g>
     </g>
     <g id="text_8">
      <!-- 0.0 -->
      <g transform="translate(28.76125 313.498828) scale(0.15 -0.15)">
       <defs>
        <path id="DejaVuSans-2e" d="M 684 794 
L 1344 794 
L 1344 0 
L 684 0 
L 684 794 
z
" transform="scale(0.015625)"/>
       </defs>
       <use xlink:href="#DejaVuSans-30"/>
       <use xlink:href="#DejaVuSans-2e" transform="translate(63.623047 0)"/>
       <use xlink:href="#DejaVuSans-30" transform="translate(95.410156 0)"/>
      </g>
     </g>
    </g>
    <g id="ytick_2">
     <g id="line2d_8">
      <g>
       <use xlink:href="#m1019ce5cbf" x="59.615938" y="275.627468" style="stroke: #000000; stroke-width: 0.8"/>
      </g>
     </g>
     <g id="text_9">
      <!-- 0.1 -->
      <g transform="translate(28.76125 281.326296) scale(0.15 -0.15)">
       <use xlink:href="#DejaVuSans-30"/>
       <use xlink:href="#DejaVuSans-2e" transform="translate(63.623047 0)"/>
       <use xlink:href="#DejaVuSans-31" transform="translate(95.410156 0)"/>
      </g>
     </g>
    </g>
    <g id="ytick_3">
     <g id="line2d_9">
      <g>
       <use xlink:href="#m1019ce5cbf" x="59.615938" y="243.454936" style="stroke: #000000; stroke-width: 0.8"/>
      </g>
     </g>
     <g id="text_10">
      <!-- 0.2 -->
      <g transform="translate(28.76125 249.153764) scale(0.15 -0.15)">
       <use xlink:href="#DejaVuSans-30"/>
       <use xlink:href="#DejaVuSans-2e" transform="translate(63.623047 0)"/>
       <use xlink:href="#DejaVuSans-32" transform="translate(95.410156 0)"/>
      </g>
     </g>
    </g>
    <g id="ytick_4">
     <g id="line2d_10">
      <g>
       <use xlink:href="#m1019ce5cbf" x="59.615938" y="211.282403" style="stroke: #000000; stroke-width: 0.8"/>
      </g>
     </g>
     <g id="text_11">
      <!-- 0.3 -->
      <g transform="translate(28.76125 216.981231) scale(0.15 -0.15)">
       <defs>
        <path id="DejaVuSans-33" d="M 2597 2516 
Q 3050 2419 3304 2112 
Q 3559 1806 3559 1356 
Q 3559 666 3084 287 
Q 2609 -91 1734 -91 
Q 1441 -91 1130 -33 
Q 819 25 488 141 
L 488 750 
Q 750 597 1062 519 
Q 1375 441 1716 441 
Q 2309 441 2620 675 
Q 2931 909 2931 1356 
Q 2931 1769 2642 2001 
Q 2353 2234 1838 2234 
L 1294 2234 
L 1294 2753 
L 1863 2753 
Q 2328 2753 2575 2939 
Q 2822 3125 2822 3475 
Q 2822 3834 2567 4026 
Q 2313 4219 1838 4219 
Q 1578 4219 1281 4162 
Q 984 4106 628 3988 
L 628 4550 
Q 988 4650 1302 4700 
Q 1616 4750 1894 4750 
Q 2613 4750 3031 4423 
Q 3450 4097 3450 3541 
Q 3450 3153 3228 2886 
Q 3006 2619 2597 2516 
z
" transform="scale(0.015625)"/>
       </defs>
       <use xlink:href="#DejaVuSans-30"/>
       <use xlink:href="#DejaVuSans-2e" transform="translate(63.623047 0)"/>
       <use xlink:href="#DejaVuSans-33" transform="translate(95.410156 0)"/>
      </g>
     </g>
    </g>
    <g id="ytick_5">
     <g id="line2d_11">
      <g>
       <use xlink:href="#m1019ce5cbf" x="59.615938" y="179.109871" style="stroke: #000000; stroke-width: 0.8"/>
      </g>
     </g>
     <g id="text_12">
      <!-- 0.4 -->
      <g transform="translate(28.76125 184.808699) scale(0.15 -0.15)">
       <defs>
        <path id="DejaVuSans-34" d="M 2419 4116 
L 825 1625 
L 2419 1625 
L 2419 4116 
z
M 2253 4666 
L 3047 4666 
L 3047 1625 
L 3713 1625 
L 3713 1100 
L 3047 1100 
L 3047 0 
L 2419 0 
L 2419 1100 
L 313 1100 
L 313 1709 
L 2253 4666 
z
" transform="scale(0.015625)"/>
       </defs>
       <use xlink:href="#DejaVuSans-30"/>
       <use xlink:href="#DejaVuSans-2e" transform="translate(63.623047 0)"/>
       <use xlink:href="#DejaVuSans-34" transform="translate(95.410156 0)"/>
      </g>
     </g>
    </g>
    <g id="ytick_6">
     <g id="line2d_12">
      <g>
       <use xlink:href="#m1019ce5cbf" x="59.615938" y="146.937339" style="stroke: #000000; stroke-width: 0.8"/>
      </g>
     </g>
     <g id="text_13">
      <!-- 0.5 -->
      <g transform="translate(28.76125 152.636167) scale(0.15 -0.15)">
       <use xlink:href="#DejaVuSans-30"/>
       <use xlink:href="#DejaVuSans-2e" transform="translate(63.623047 0)"/>
       <use xlink:href="#DejaVuSans-35" transform="translate(95.410156 0)"/>
      </g>
     </g>
    </g>
    <g id="ytick_7">
     <g id="line2d_13">
      <g>
       <use xlink:href="#m1019ce5cbf" x="59.615938" y="114.764807" style="stroke: #000000; stroke-width: 0.8"/>
      </g>
     </g>
     <g id="text_14">
      <!-- 0.6 -->
      <g transform="translate(28.76125 120.463635) scale(0.15 -0.15)">
       <defs>
        <path id="DejaVuSans-36" d="M 2113 2584 
Q 1688 2584 1439 2293 
Q 1191 2003 1191 1497 
Q 1191 994 1439 701 
Q 1688 409 2113 409 
Q 2538 409 2786 701 
Q 3034 994 3034 1497 
Q 3034 2003 2786 2293 
Q 2538 2584 2113 2584 
z
M 3366 4563 
L 3366 3988 
Q 3128 4100 2886 4159 
Q 2644 4219 2406 4219 
Q 1781 4219 1451 3797 
Q 1122 3375 1075 2522 
Q 1259 2794 1537 2939 
Q 1816 3084 2150 3084 
Q 2853 3084 3261 2657 
Q 3669 2231 3669 1497 
Q 3669 778 3244 343 
Q 2819 -91 2113 -91 
Q 1303 -91 875 529 
Q 447 1150 447 2328 
Q 447 3434 972 4092 
Q 1497 4750 2381 4750 
Q 2619 4750 2861 4703 
Q 3103 4656 3366 4563 
z
" transform="scale(0.015625)"/>
       </defs>
       <use xlink:href="#DejaVuSans-30"/>
       <use xlink:href="#DejaVuSans-2e" transform="translate(63.623047 0)"/>
       <use xlink:href="#DejaVuSans-36" transform="translate(95.410156 0)"/>
      </g>
     </g>
    </g>
    <g id="ytick_8">
     <g id="line2d_14">
      <g>
       <use xlink:href="#m1019ce5cbf" x="59.615938" y="82.592274" style="stroke: #000000; stroke-width: 0.8"/>
      </g>
     </g>
     <g id="text_15">
      <!-- 0.7 -->
      <g transform="translate(28.76125 88.291102) scale(0.15 -0.15)">
       <defs>
        <path id="DejaVuSans-37" d="M 525 4666 
L 3525 4666 
L 3525 4397 
L 1831 0 
L 1172 0 
L 2766 4134 
L 525 4134 
L 525 4666 
z
" transform="scale(0.015625)"/>
       </defs>
       <use xlink:href="#DejaVuSans-30"/>
       <use xlink:href="#DejaVuSans-2e" transform="translate(63.623047 0)"/>
       <use xlink:href="#DejaVuSans-37" transform="translate(95.410156 0)"/>
      </g>
     </g>
    </g>
    <g id="ytick_9">
     <g id="line2d_15">
      <g>
       <use xlink:href="#m1019ce5cbf" x="59.615938" y="50.419742" style="stroke: #000000; stroke-width: 0.8"/>
      </g>
     </g>
     <g id="text_16">
      <!-- 0.8 -->
      <g transform="translate(28.76125 56.11857) scale(0.15 -0.15)">
       <defs>
        <path id="DejaVuSans-38" d="M 2034 2216 
Q 1584 2216 1326 1975 
Q 1069 1734 1069 1313 
Q 1069 891 1326 650 
Q 1584 409 2034 409 
Q 2484 409 2743 651 
Q 3003 894 3003 1313 
Q 3003 1734 2745 1975 
Q 2488 2216 2034 2216 
z
M 1403 2484 
Q 997 2584 770 2862 
Q 544 3141 544 3541 
Q 544 4100 942 4425 
Q 1341 4750 2034 4750 
Q 2731 4750 3128 4425 
Q 3525 4100 3525 3541 
Q 3525 3141 3298 2862 
Q 3072 2584 2669 2484 
Q 3125 2378 3379 2068 
Q 3634 1759 3634 1313 
Q 3634 634 3220 271 
Q 2806 -91 2034 -91 
Q 1263 -91 848 271 
Q 434 634 434 1313 
Q 434 1759 690 2068 
Q 947 2378 1403 2484 
z
M 1172 3481 
Q 1172 3119 1398 2916 
Q 1625 2713 2034 2713 
Q 2441 2713 2670 2916 
Q 2900 3119 2900 3481 
Q 2900 3844 2670 4047 
Q 2441 4250 2034 4250 
Q 1625 4250 1398 4047 
Q 1172 3844 1172 3481 
z
" transform="scale(0.015625)"/>
       </defs>
       <use xlink:href="#DejaVuSans-30"/>
       <use xlink:href="#DejaVuSans-2e" transform="translate(63.623047 0)"/>
       <use xlink:href="#DejaVuSans-38" transform="translate(95.410156 0)"/>
      </g>
     </g>
    </g>
    <g id="text_17">
     <!-- rapamycin [µM] -->
     <g transform="translate(20.877187 261.838125) rotate(-90) scale(0.18 -0.18)">
      <defs>
       <path id="DejaVuSans-Bold-61" d="M 2106 1575 
Q 1756 1575 1579 1456 
Q 1403 1338 1403 1106 
Q 1403 894 1545 773 
Q 1688 653 1941 653 
Q 2256 653 2472 879 
Q 2688 1106 2688 1447 
L 2688 1575 
L 2106 1575 
z
M 3816 1997 
L 3816 0 
L 2688 0 
L 2688 519 
Q 2463 200 2181 54 
Q 1900 -91 1497 -91 
Q 953 -91 614 226 
Q 275 544 275 1050 
Q 275 1666 698 1953 
Q 1122 2241 2028 2241 
L 2688 2241 
L 2688 2328 
Q 2688 2594 2478 2717 
Q 2269 2841 1825 2841 
Q 1466 2841 1156 2769 
Q 847 2697 581 2553 
L 581 3406 
Q 941 3494 1303 3539 
Q 1666 3584 2028 3584 
Q 2975 3584 3395 3211 
Q 3816 2838 3816 1997 
z
" transform="scale(0.015625)"/>
       <path id="DejaVuSans-Bold-70" d="M 1656 506 
L 1656 -1331 
L 538 -1331 
L 538 3500 
L 1656 3500 
L 1656 2988 
Q 1888 3294 2169 3439 
Q 2450 3584 2816 3584 
Q 3463 3584 3878 3070 
Q 4294 2556 4294 1747 
Q 4294 938 3878 423 
Q 3463 -91 2816 -91 
Q 2450 -91 2169 54 
Q 1888 200 1656 506 
z
M 2400 2772 
Q 2041 2772 1848 2508 
Q 1656 2244 1656 1747 
Q 1656 1250 1848 986 
Q 2041 722 2400 722 
Q 2759 722 2948 984 
Q 3138 1247 3138 1747 
Q 3138 2247 2948 2509 
Q 2759 2772 2400 2772 
z
" transform="scale(0.015625)"/>
       <path id="DejaVuSans-Bold-79" d="M 78 3500 
L 1197 3500 
L 2138 1125 
L 2938 3500 
L 4056 3500 
L 2584 -331 
Q 2363 -916 2067 -1148 
Q 1772 -1381 1288 -1381 
L 641 -1381 
L 641 -647 
L 991 -647 
Q 1275 -647 1404 -556 
Q 1534 -466 1606 -231 
L 1638 -134 
L 78 3500 
z
" transform="scale(0.015625)"/>
       <path id="DejaVuSans-Bold-63" d="M 3366 3391 
L 3366 2478 
Q 3138 2634 2908 2709 
Q 2678 2784 2431 2784 
Q 1963 2784 1702 2511 
Q 1441 2238 1441 1747 
Q 1441 1256 1702 982 
Q 1963 709 2431 709 
Q 2694 709 2930 787 
Q 3166 866 3366 1019 
L 3366 103 
Q 3103 6 2833 -42 
Q 2563 -91 2291 -91 
Q 1344 -91 809 395 
Q 275 881 275 1747 
Q 275 2613 809 3098 
Q 1344 3584 2291 3584 
Q 2566 3584 2833 3536 
Q 3100 3488 3366 3391 
z
" transform="scale(0.015625)"/>
       <path id="DejaVuSans-Bold-6e" d="M 4056 2131 
L 4056 0 
L 2931 0 
L 2931 347 
L 2931 1631 
Q 2931 2084 2911 2256 
Q 2891 2428 2841 2509 
Q 2775 2619 2662 2680 
Q 2550 2741 2406 2741 
Q 2056 2741 1856 2470 
Q 1656 2200 1656 1722 
L 1656 0 
L 538 0 
L 538 3500 
L 1656 3500 
L 1656 2988 
Q 1909 3294 2193 3439 
Q 2478 3584 2822 3584 
Q 3428 3584 3742 3212 
Q 4056 2841 4056 2131 
z
" transform="scale(0.015625)"/>
       <path id="DejaVuSans-Bold-b5" d="M 544 -1338 
L 544 3500 
L 1672 3500 
L 1672 1466 
Q 1672 1103 1828 926 
Q 1984 750 2303 750 
Q 2625 750 2781 926 
Q 2938 1103 2938 1466 
L 2938 3500 
L 4063 3500 
L 4063 1159 
Q 4063 938 4114 850 
Q 4166 763 4288 763 
Q 4344 763 4395 778 
Q 4447 794 4506 831 
L 4506 50 
Q 4341 -22 4195 -56 
Q 4050 -91 3909 -91 
Q 3631 -91 3454 26 
Q 3278 144 3169 403 
Q 3022 156 2811 32 
Q 2600 -91 2322 -91 
Q 2091 -91 1928 -17 
Q 1766 56 1672 206 
L 1672 -1338 
L 544 -1338 
z
" transform="scale(0.015625)"/>
       <path id="DejaVuSans-Bold-4d" d="M 588 4666 
L 2119 4666 
L 3181 2169 
L 4250 4666 
L 5778 4666 
L 5778 0 
L 4641 0 
L 4641 3413 
L 3566 897 
L 2803 897 
L 1728 3413 
L 1728 0 
L 588 0 
L 588 4666 
z
" transform="scale(0.015625)"/>
      </defs>
      <use xlink:href="#DejaVuSans-Bold-72"/>
      <use xlink:href="#DejaVuSans-Bold-61" transform="translate(49.316406 0)"/>
      <use xlink:href="#DejaVuSans-Bold-70" transform="translate(116.796875 0)"/>
      <use xlink:href="#DejaVuSans-Bold-61" transform="translate(188.378906 0)"/>
      <use xlink:href="#DejaVuSans-Bold-6d" transform="translate(255.859375 0)"/>
      <use xlink:href="#DejaVuSans-Bold-79" transform="translate(360.058594 0)"/>
      <use xlink:href="#DejaVuSans-Bold-63" transform="translate(425.244141 0)"/>
      <use xlink:href="#DejaVuSans-Bold-69" transform="translate(484.521484 0)"/>
      <use xlink:href="#DejaVuSans-Bold-6e" transform="translate(518.798828 0)"/>
      <use xlink:href="#DejaVuSans-Bold-20" transform="translate(589.990234 0)"/>
      <use xlink:href="#DejaVuSans-Bold-5b" transform="translate(624.804688 0)"/>
      <use xlink:href="#DejaVuSans-Bold-b5" transform="translate(670.507812 0)"/>
      <use xlink:href="#DejaVuSans-Bold-4d" transform="translate(744.091797 0)"/>
      <use xlink:href="#DejaVuSans-Bold-5d" transform="translate(843.603516 0)"/>
     </g>
    </g>
   </g>
   <g id="line2d_16">
    <path d="M 77.370483 307.8 
L 77.548028 307.701565 
L 77.725574 306.698345 
L 77.903119 303.94896 
L 78.25821 292.643217 
L 78.790847 265.403831 
L 81.098937 135.021059 
L 81.986665 100.634509 
L 82.696847 80.825848 
L 83.407028 67.300702 
L 83.939665 60.828405 
L 84.472301 57.113221 
L 84.827392 55.992426 
L 85.004937 55.8 
L 85.182483 55.83609 
L 85.360028 56.088413 
L 85.715119 57.194053 
L 86.247756 60.184421 
L 86.957937 66.216114 
L 87.845665 76.207473 
L 89.088483 93.068746 
L 94.592392 171.317084 
L 96.190301 189.640635 
L 97.78821 205.346126 
L 99.208574 217.230233 
L 100.628937 227.344122 
L 102.049301 235.890522 
L 103.469665 243.073679 
L 104.890028 249.086504 
L 106.310392 254.104151 
L 107.730756 258.281571 
L 109.151119 261.753381 
L 110.571483 264.635042 
L 111.991847 267.024648 
L 113.41221 269.004964 
L 115.010119 270.829618 
L 116.608028 272.305681 
L 118.383483 273.617529 
L 120.158937 274.65447 
L 122.111938 275.546636 
L 124.420028 276.344476 
L 127.08321 277.011304 
L 130.279028 277.561942 
L 134.185028 277.995202 
L 139.333847 278.331404 
L 147.145847 278.595006 
L 162.059665 278.831628 
L 228.63921 279.511941 
L 432.461392 281.460558 
L 432.461392 281.460558 
" clip-path="url(#p4bee965592)" style="fill: none; stroke: #1f77b4; stroke-width: 2; stroke-linecap: square"/>
   </g>
   <g id="line2d_17">
    <path d="M 106.961392 305.163244 
L 121.756847 305.82105 
L 136.552301 306.191202 
L 151.347756 306.506891 
L 166.14321 306.699536 
L 195.734119 307.055948 
L 225.325028 307.153138 
L 254.915938 307.286751 
L 432.461392 307.469415 
" clip-path="url(#p4bee965592)" style="fill: none; stroke-dasharray: 3.7,1.6; stroke-dashoffset: 0; stroke: #1f77b4"/>
    <defs>
     <path id="m6667cb657e" d="M -3 3 
L 3 3 
L 3 -3 
L -3 -3 
z
" style="stroke: #000000; stroke-linejoin: miter"/>
    </defs>
    <g clip-path="url(#p4bee965592)">
     <use xlink:href="#m6667cb657e" x="106.961392" y="305.163244" style="fill: #1f77b4; stroke: #000000; stroke-linejoin: miter"/>
     <use xlink:href="#m6667cb657e" x="121.756847" y="305.82105" style="fill: #1f77b4; stroke: #000000; stroke-linejoin: miter"/>
     <use xlink:href="#m6667cb657e" x="136.552301" y="306.191202" style="fill: #1f77b4; stroke: #000000; stroke-linejoin: miter"/>
     <use xlink:href="#m6667cb657e" x="151.347756" y="306.506891" style="fill: #1f77b4; stroke: #000000; stroke-linejoin: miter"/>
     <use xlink:href="#m6667cb657e" x="166.14321" y="306.699536" style="fill: #1f77b4; stroke: #000000; stroke-linejoin: miter"/>
     <use xlink:href="#m6667cb657e" x="195.734119" y="307.055948" style="fill: #1f77b4; stroke: #000000; stroke-linejoin: miter"/>
     <use xlink:href="#m6667cb657e" x="225.325028" y="307.153138" style="fill: #1f77b4; stroke: #000000; stroke-linejoin: miter"/>
     <use xlink:href="#m6667cb657e" x="254.915938" y="307.286751" style="fill: #1f77b4; stroke: #000000; stroke-linejoin: miter"/>
     <use xlink:href="#m6667cb657e" x="432.461392" y="307.469415" style="fill: #1f77b4; stroke: #000000; stroke-linejoin: miter"/>
    </g>
   </g>
   <g id="line2d_18">
    <path d="M 77.370483 307.8 
L 77.548028 307.701565 
L 77.725574 306.698345 
L 77.903119 303.94896 
L 78.25821 292.643217 
L 78.790847 265.403831 
L 81.098937 135.021059 
L 81.986665 100.634509 
L 82.696847 80.825848 
L 83.407028 67.300702 
L 83.939665 60.828405 
L 84.472301 57.113221 
L 84.827392 55.992426 
L 85.004937 55.8 
L 85.182483 55.83609 
L 85.360028 56.088413 
L 85.715119 57.194053 
L 86.247756 60.184421 
L 86.957937 66.216114 
L 87.845665 76.207473 
L 89.088483 93.068746 
L 94.592392 171.317084 
L 96.190301 189.640635 
L 97.78821 205.346126 
L 99.208574 217.230233 
L 100.628937 227.344122 
L 102.049301 235.890522 
L 103.469665 243.073679 
L 104.890028 249.086504 
L 106.310392 254.104151 
L 107.730756 258.281571 
L 109.151119 261.753381 
L 110.571483 264.635042 
L 111.991847 267.024648 
L 113.41221 269.004964 
L 115.010119 270.829618 
L 116.608028 272.305681 
L 118.383483 273.617529 
L 120.158937 274.65447 
L 122.111938 275.546636 
L 124.420028 276.344476 
L 127.08321 277.011304 
L 130.279028 277.561942 
L 134.185028 277.995202 
L 139.333847 278.331404 
L 147.145847 278.595006 
L 162.059665 278.831628 
L 228.63921 279.511941 
L 432.461392 281.460558 
L 432.461392 281.460558 
" clip-path="url(#p4bee965592)" style="fill: none; stroke: #ff7f0e; stroke-width: 2; stroke-linecap: square"/>
   </g>
   <g id="line2d_19">
    <path d="M 81.069347 307.143986 
L 84.76821 305.442336 
L 88.467074 304.838503 
L 92.165937 305.189427 
L 106.961392 306.052108 
L 121.756847 306.458022 
L 136.552301 306.815564 
L 151.347756 306.942917 
L 166.14321 307.141828 
L 195.734119 307.323452 
L 225.325028 307.351208 
L 254.915938 307.391588 
L 432.461392 307.554368 
" clip-path="url(#p4bee965592)" style="fill: none; stroke-dasharray: 3.7,1.6; stroke-dashoffset: 0; stroke: #ff7f0e"/>
    <defs>
     <path id="ma548967234" d="M -3 3 
L 3 3 
L 3 -3 
L -3 -3 
z
" style="stroke: #000000; stroke-linejoin: miter"/>
    </defs>
    <g clip-path="url(#p4bee965592)">
     <use xlink:href="#ma548967234" x="81.069347" y="307.143986" style="fill: #ff7f0e; stroke: #000000; stroke-linejoin: miter"/>
     <use xlink:href="#ma548967234" x="84.76821" y="305.442336" style="fill: #ff7f0e; stroke: #000000; stroke-linejoin: miter"/>
     <use xlink:href="#ma548967234" x="88.467074" y="304.838503" style="fill: #ff7f0e; stroke: #000000; stroke-linejoin: miter"/>
     <use xlink:href="#ma548967234" x="92.165937" y="305.189427" style="fill: #ff7f0e; stroke: #000000; stroke-linejoin: miter"/>
     <use xlink:href="#ma548967234" x="106.961392" y="306.052108" style="fill: #ff7f0e; stroke: #000000; stroke-linejoin: miter"/>
     <use xlink:href="#ma548967234" x="121.756847" y="306.458022" style="fill: #ff7f0e; stroke: #000000; stroke-linejoin: miter"/>
     <use xlink:href="#ma548967234" x="136.552301" y="306.815564" style="fill: #ff7f0e; stroke: #000000; stroke-linejoin: miter"/>
     <use xlink:href="#ma548967234" x="151.347756" y="306.942917" style="fill: #ff7f0e; stroke: #000000; stroke-linejoin: miter"/>
     <use xlink:href="#ma548967234" x="166.14321" y="307.141828" style="fill: #ff7f0e; stroke: #000000; stroke-linejoin: miter"/>
     <use xlink:href="#ma548967234" x="195.734119" y="307.323452" style="fill: #ff7f0e; stroke: #000000; stroke-linejoin: miter"/>
     <use xlink:href="#ma548967234" x="225.325028" y="307.351208" style="fill: #ff7f0e; stroke: #000000; stroke-linejoin: miter"/>
     <use xlink:href="#ma548967234" x="254.915938" y="307.391588" style="fill: #ff7f0e; stroke: #000000; stroke-linejoin: miter"/>
     <use xlink:href="#ma548967234" x="432.461392" y="307.554368" style="fill: #ff7f0e; stroke: #000000; stroke-linejoin: miter"/>
    </g>
   </g>
   <g id="line2d_20">
    <path d="M 77.370483 307.8 
L 77.548028 307.701565 
L 77.725574 306.698345 
L 77.903119 303.94896 
L 78.25821 292.643217 
L 78.790847 265.403831 
L 81.098937 135.021059 
L 81.986665 100.634509 
L 82.696847 80.825848 
L 83.407028 67.300702 
L 83.939665 60.828405 
L 84.472301 57.113221 
L 84.827392 55.992426 
L 85.004937 55.8 
L 85.182483 55.83609 
L 85.360028 56.088413 
L 85.715119 57.194053 
L 86.247756 60.184421 
L 86.957937 66.216114 
L 87.845665 76.207473 
L 89.088483 93.068746 
L 94.592392 171.317084 
L 96.190301 189.640635 
L 97.78821 205.346126 
L 99.208574 217.230233 
L 100.628937 227.344122 
L 102.049301 235.890522 
L 103.469665 243.073679 
L 104.890028 249.086504 
L 106.310392 254.104151 
L 107.730756 258.281571 
L 109.151119 261.753381 
L 110.571483 264.635042 
L 111.991847 267.024648 
L 113.41221 269.004964 
L 115.010119 270.829618 
L 116.608028 272.305681 
L 118.383483 273.617529 
L 120.158937 274.65447 
L 122.111938 275.546636 
L 124.420028 276.344476 
L 127.08321 277.011304 
L 130.279028 277.561942 
L 134.185028 277.995202 
L 139.333847 278.331404 
L 147.145847 278.595006 
L 162.059665 278.831628 
L 228.63921 279.511941 
L 432.461392 281.460558 
L 432.461392 281.460558 
" clip-path="url(#p4bee965592)" style="fill: none; stroke: #2ca02c; stroke-width: 2; stroke-linecap: square"/>
   </g>
   <g id="line2d_21">
    <path d="M 81.069347 307.588282 
L 84.76821 306.799141 
M 106.961392 306.36026 
L 121.756847 306.85793 
L 136.552301 307.108971 
L 151.347756 307.212034 
L 166.14321 307.293946 
L 195.734119 307.420792 
L 225.325028 307.470325 
L 254.915938 307.544297 
L 432.461392 307.642678 
" clip-path="url(#p4bee965592)" style="fill: none; stroke-dasharray: 3.7,1.6; stroke-dashoffset: 0; stroke: #2ca02c"/>
    <defs>
     <path id="m4ac9928fd7" d="M -3 3 
L 3 3 
L 3 -3 
L -3 -3 
z
" style="stroke: #000000; stroke-linejoin: miter"/>
    </defs>
    <g clip-path="url(#p4bee965592)">
     <use xlink:href="#m4ac9928fd7" x="81.069347" y="307.588282" style="fill: #2ca02c; stroke: #000000; stroke-linejoin: miter"/>
     <use xlink:href="#m4ac9928fd7" x="84.76821" y="306.799141" style="fill: #2ca02c; stroke: #000000; stroke-linejoin: miter"/>
     <use xlink:href="#m4ac9928fd7" x="106.961392" y="306.36026" style="fill: #2ca02c; stroke: #000000; stroke-linejoin: miter"/>
     <use xlink:href="#m4ac9928fd7" x="121.756847" y="306.85793" style="fill: #2ca02c; stroke: #000000; stroke-linejoin: miter"/>
     <use xlink:href="#m4ac9928fd7" x="136.552301" y="307.108971" style="fill: #2ca02c; stroke: #000000; stroke-linejoin: miter"/>
     <use xlink:href="#m4ac9928fd7" x="151.347756" y="307.212034" style="fill: #2ca02c; stroke: #000000; stroke-linejoin: miter"/>
     <use xlink:href="#m4ac9928fd7" x="166.14321" y="307.293946" style="fill: #2ca02c; stroke: #000000; stroke-linejoin: miter"/>
     <use xlink:href="#m4ac9928fd7" x="195.734119" y="307.420792" style="fill: #2ca02c; stroke: #000000; stroke-linejoin: miter"/>
     <use xlink:href="#m4ac9928fd7" x="225.325028" y="307.470325" style="fill: #2ca02c; stroke: #000000; stroke-linejoin: miter"/>
     <use xlink:href="#m4ac9928fd7" x="254.915938" y="307.544297" style="fill: #2ca02c; stroke: #000000; stroke-linejoin: miter"/>
     <use xlink:href="#m4ac9928fd7" x="432.461392" y="307.642678" style="fill: #2ca02c; stroke: #000000; stroke-linejoin: miter"/>
    </g>
   </g>
   <g id="line2d_22">
    <path d="M 77.370483 307.8 
L 77.548028 307.701565 
L 77.725574 306.698345 
L 77.903119 303.94896 
L 78.25821 292.643217 
L 78.790847 265.403831 
L 81.098937 135.021059 
L 81.986665 100.634509 
L 82.696847 80.825848 
L 83.407028 67.300702 
L 83.939665 60.828405 
L 84.472301 57.113221 
L 84.827392 55.992426 
L 85.004937 55.8 
L 85.182483 55.83609 
L 85.360028 56.088413 
L 85.715119 57.194053 
L 86.247756 60.184421 
L 86.957937 66.216114 
L 87.845665 76.207473 
L 89.088483 93.068746 
L 94.592392 171.317084 
L 96.190301 189.640635 
L 97.78821 205.346126 
L 99.208574 217.230233 
L 100.628937 227.344122 
L 102.049301 235.890522 
L 103.469665 243.073679 
L 104.890028 249.086504 
L 106.310392 254.104151 
L 107.730756 258.281571 
L 109.151119 261.753381 
L 110.571483 264.635042 
L 111.991847 267.024648 
L 113.41221 269.004964 
L 115.010119 270.829618 
L 116.608028 272.305681 
L 118.383483 273.617529 
L 120.158937 274.65447 
L 122.111938 275.546636 
L 124.420028 276.344476 
L 127.08321 277.011304 
L 130.279028 277.561942 
L 134.185028 277.995202 
L 139.333847 278.331404 
L 147.145847 278.595006 
L 162.059665 278.831628 
L 228.63921 279.511941 
L 432.461392 281.460558 
L 432.461392 281.460558 
" clip-path="url(#p4bee965592)" style="fill: none; stroke: #d62728; stroke-width: 2; stroke-linecap: square"/>
   </g>
   <g id="line2d_23">
    <path d="M 81.069347 307.003315 
L 84.76821 306.498459 
L 88.467074 305.945346 
L 92.165937 306.291457 
L 106.961392 306.641483 
L 121.756847 306.900365 
L 136.552301 307.211262 
L 151.347756 307.251058 
L 166.14321 307.460752 
L 195.734119 307.403087 
L 225.325028 307.477772 
L 254.915938 307.566646 
L 432.461392 307.646232 
" clip-path="url(#p4bee965592)" style="fill: none; stroke-dasharray: 3.7,1.6; stroke-dashoffset: 0; stroke: #d62728"/>
    <defs>
     <path id="mb0b7447e0d" d="M -3 3 
L 3 3 
L 3 -3 
L -3 -3 
z
" style="stroke: #000000; stroke-linejoin: miter"/>
    </defs>
    <g clip-path="url(#p4bee965592)">
     <use xlink:href="#mb0b7447e0d" x="81.069347" y="307.003315" style="fill: #d62728; stroke: #000000; stroke-linejoin: miter"/>
     <use xlink:href="#mb0b7447e0d" x="84.76821" y="306.498459" style="fill: #d62728; stroke: #000000; stroke-linejoin: miter"/>
     <use xlink:href="#mb0b7447e0d" x="88.467074" y="305.945346" style="fill: #d62728; stroke: #000000; stroke-linejoin: miter"/>
     <use xlink:href="#mb0b7447e0d" x="92.165937" y="306.291457" style="fill: #d62728; stroke: #000000; stroke-linejoin: miter"/>
     <use xlink:href="#mb0b7447e0d" x="106.961392" y="306.641483" style="fill: #d62728; stroke: #000000; stroke-linejoin: miter"/>
     <use xlink:href="#mb0b7447e0d" x="121.756847" y="306.900365" style="fill: #d62728; stroke: #000000; stroke-linejoin: miter"/>
     <use xlink:href="#mb0b7447e0d" x="136.552301" y="307.211262" style="fill: #d62728; stroke: #000000; stroke-linejoin: miter"/>
     <use xlink:href="#mb0b7447e0d" x="151.347756" y="307.251058" style="fill: #d62728; stroke: #000000; stroke-linejoin: miter"/>
     <use xlink:href="#mb0b7447e0d" x="166.14321" y="307.460752" style="fill: #d62728; stroke: #000000; stroke-linejoin: miter"/>
     <use xlink:href="#mb0b7447e0d" x="195.734119" y="307.403087" style="fill: #d62728; stroke: #000000; stroke-linejoin: miter"/>
     <use xlink:href="#mb0b7447e0d" x="225.325028" y="307.477772" style="fill: #d62728; stroke: #000000; stroke-linejoin: miter"/>
     <use xlink:href="#mb0b7447e0d" x="254.915938" y="307.566646" style="fill: #d62728; stroke: #000000; stroke-linejoin: miter"/>
     <use xlink:href="#mb0b7447e0d" x="432.461392" y="307.646232" style="fill: #d62728; stroke: #000000; stroke-linejoin: miter"/>
    </g>
   </g>
   <g id="line2d_24">
    <path d="M 77.370483 307.8 
L 77.548028 307.701565 
L 77.725574 306.698345 
L 77.903119 303.94896 
L 78.25821 292.643217 
L 78.790847 265.403831 
L 81.098937 135.021059 
L 81.986665 100.634509 
L 82.696847 80.825848 
L 83.407028 67.300702 
L 83.939665 60.828405 
L 84.472301 57.113221 
L 84.827392 55.992426 
L 85.004937 55.8 
L 85.182483 55.83609 
L 85.360028 56.088413 
L 85.715119 57.194053 
L 86.247756 60.184421 
L 86.957937 66.216114 
L 87.845665 76.207473 
L 89.088483 93.068746 
L 94.592392 171.317084 
L 96.190301 189.640635 
L 97.78821 205.346126 
L 99.208574 217.230233 
L 100.628937 227.344122 
L 102.049301 235.890522 
L 103.469665 243.073679 
L 104.890028 249.086504 
L 106.310392 254.104151 
L 107.730756 258.281571 
L 109.151119 261.753381 
L 110.571483 264.635042 
L 111.991847 267.024648 
L 113.41221 269.004964 
L 115.010119 270.829618 
L 116.608028 272.305681 
L 118.383483 273.617529 
L 120.158937 274.65447 
L 122.111938 275.546636 
L 124.420028 276.344476 
L 127.08321 277.011304 
L 130.279028 277.561942 
L 134.185028 277.995202 
L 139.333847 278.331404 
L 147.145847 278.595006 
L 162.059665 278.831628 
L 228.63921 279.511941 
L 432.461392 281.460558 
L 432.461392 281.460558 
" clip-path="url(#p4bee965592)" style="fill: none; stroke: #9467bd; stroke-width: 2; stroke-linecap: square"/>
   </g>
   <g id="line2d_25">
    <path d="M 81.069347 307.437825 
M 92.165937 304.806442 
L 106.961392 305.913276 
L 121.756847 306.406307 
L 136.552301 306.83381 
L 151.347756 306.970026 
L 166.14321 307.092963 
L 195.734119 307.329611 
L 225.325028 307.373554 
L 254.915938 307.472737 
L 432.461392 307.606383 
" clip-path="url(#p4bee965592)" style="fill: none; stroke-dasharray: 3.7,1.6; stroke-dashoffset: 0; stroke: #9467bd"/>
    <defs>
     <path id="md9a943992d" d="M -3 3 
L 3 3 
L 3 -3 
L -3 -3 
z
" style="stroke: #000000; stroke-linejoin: miter"/>
    </defs>
    <g clip-path="url(#p4bee965592)">
     <use xlink:href="#md9a943992d" x="81.069347" y="307.437825" style="fill: #9467bd; stroke: #000000; stroke-linejoin: miter"/>
     <use xlink:href="#md9a943992d" x="92.165937" y="304.806442" style="fill: #9467bd; stroke: #000000; stroke-linejoin: miter"/>
     <use xlink:href="#md9a943992d" x="106.961392" y="305.913276" style="fill: #9467bd; stroke: #000000; stroke-linejoin: miter"/>
     <use xlink:href="#md9a943992d" x="121.756847" y="306.406307" style="fill: #9467bd; stroke: #000000; stroke-linejoin: miter"/>
     <use xlink:href="#md9a943992d" x="136.552301" y="306.83381" style="fill: #9467bd; stroke: #000000; stroke-linejoin: miter"/>
     <use xlink:href="#md9a943992d" x="151.347756" y="306.970026" style="fill: #9467bd; stroke: #000000; stroke-linejoin: miter"/>
     <use xlink:href="#md9a943992d" x="166.14321" y="307.092963" style="fill: #9467bd; stroke: #000000; stroke-linejoin: miter"/>
     <use xlink:href="#md9a943992d" x="195.734119" y="307.329611" style="fill: #9467bd; stroke: #000000; stroke-linejoin: miter"/>
     <use xlink:href="#md9a943992d" x="225.325028" y="307.373554" style="fill: #9467bd; stroke: #000000; stroke-linejoin: miter"/>
     <use xlink:href="#md9a943992d" x="254.915938" y="307.472737" style="fill: #9467bd; stroke: #000000; stroke-linejoin: miter"/>
     <use xlink:href="#md9a943992d" x="432.461392" y="307.606383" style="fill: #9467bd; stroke: #000000; stroke-linejoin: miter"/>
    </g>
   </g>
   <g id="line2d_26">
    <path d="M 77.370483 307.8 
L 77.548028 307.701565 
L 77.725574 306.698345 
L 77.903119 303.94896 
L 78.25821 292.643217 
L 78.790847 265.403831 
L 81.098937 135.021059 
L 81.986665 100.634509 
L 82.696847 80.825848 
L 83.407028 67.300702 
L 83.939665 60.828405 
L 84.472301 57.113221 
L 84.827392 55.992426 
L 85.004937 55.8 
L 85.182483 55.83609 
L 85.360028 56.088413 
L 85.715119 57.194053 
L 86.247756 60.184421 
L 86.957937 66.216114 
L 87.845665 76.207473 
L 89.088483 93.068746 
L 94.592392 171.317084 
L 96.190301 189.640635 
L 97.78821 205.346126 
L 99.208574 217.230233 
L 100.628937 227.344122 
L 102.049301 235.890522 
L 103.469665 243.073679 
L 104.890028 249.086504 
L 106.310392 254.104151 
L 107.730756 258.281571 
L 109.151119 261.753381 
L 110.571483 264.635042 
L 111.991847 267.024648 
L 113.41221 269.004964 
L 115.010119 270.829618 
L 116.608028 272.305681 
L 118.383483 273.617529 
L 120.158937 274.65447 
L 122.111938 275.546636 
L 124.420028 276.344476 
L 127.08321 277.011304 
L 130.279028 277.561942 
L 134.185028 277.995202 
L 139.333847 278.331404 
L 147.145847 278.595006 
L 162.059665 278.831628 
L 228.63921 279.511941 
L 432.461392 281.460558 
L 432.461392 281.460558 
" clip-path="url(#p4bee965592)" style="fill: none; stroke: #8c564b; stroke-width: 2; stroke-linecap: square"/>
   </g>
   <g id="line2d_27">
    <path d="M 81.069347 307.524677 
L 84.76821 306.357516 
L 88.467074 305.574111 
L 92.165937 305.574987 
L 106.961392 306.310452 
L 121.756847 306.50315 
L 136.552301 306.859537 
L 151.347756 306.952597 
L 166.14321 307.087127 
L 195.734119 307.240763 
L 225.325028 307.308194 
L 254.915938 307.405322 
L 432.461392 307.557158 
" clip-path="url(#p4bee965592)" style="fill: none; stroke-dasharray: 3.7,1.6; stroke-dashoffset: 0; stroke: #8c564b"/>
    <defs>
     <path id="m2b8cd09f3b" d="M -3 3 
L 3 3 
L 3 -3 
L -3 -3 
z
" style="stroke: #000000; stroke-linejoin: miter"/>
    </defs>
    <g clip-path="url(#p4bee965592)">
     <use xlink:href="#m2b8cd09f3b" x="81.069347" y="307.524677" style="fill: #8c564b; stroke: #000000; stroke-linejoin: miter"/>
     <use xlink:href="#m2b8cd09f3b" x="84.76821" y="306.357516" style="fill: #8c564b; stroke: #000000; stroke-linejoin: miter"/>
     <use xlink:href="#m2b8cd09f3b" x="88.467074" y="305.574111" style="fill: #8c564b; stroke: #000000; stroke-linejoin: miter"/>
     <use xlink:href="#m2b8cd09f3b" x="92.165937" y="305.574987" style="fill: #8c564b; stroke: #000000; stroke-linejoin: miter"/>
     <use xlink:href="#m2b8cd09f3b" x="106.961392" y="306.310452" style="fill: #8c564b; stroke: #000000; stroke-linejoin: miter"/>
     <use xlink:href="#m2b8cd09f3b" x="121.756847" y="306.50315" style="fill: #8c564b; stroke: #000000; stroke-linejoin: miter"/>
     <use xlink:href="#m2b8cd09f3b" x="136.552301" y="306.859537" style="fill: #8c564b; stroke: #000000; stroke-linejoin: miter"/>
     <use xlink:href="#m2b8cd09f3b" x="151.347756" y="306.952597" style="fill: #8c564b; stroke: #000000; stroke-linejoin: miter"/>
     <use xlink:href="#m2b8cd09f3b" x="166.14321" y="307.087127" style="fill: #8c564b; stroke: #000000; stroke-linejoin: miter"/>
     <use xlink:href="#m2b8cd09f3b" x="195.734119" y="307.240763" style="fill: #8c564b; stroke: #000000; stroke-linejoin: miter"/>
     <use xlink:href="#m2b8cd09f3b" x="225.325028" y="307.308194" style="fill: #8c564b; stroke: #000000; stroke-linejoin: miter"/>
     <use xlink:href="#m2b8cd09f3b" x="254.915938" y="307.405322" style="fill: #8c564b; stroke: #000000; stroke-linejoin: miter"/>
     <use xlink:href="#m2b8cd09f3b" x="432.461392" y="307.557158" style="fill: #8c564b; stroke: #000000; stroke-linejoin: miter"/>
    </g>
   </g>
   <g id="line2d_28">
    <path d="M 77.370483 307.8 
L 77.548028 307.701565 
L 77.725574 306.698345 
L 77.903119 303.94896 
L 78.25821 292.643217 
L 78.790847 265.403831 
L 81.098937 135.021059 
L 81.986665 100.634509 
L 82.696847 80.825848 
L 83.407028 67.300702 
L 83.939665 60.828405 
L 84.472301 57.113221 
L 84.827392 55.992426 
L 85.004937 55.8 
L 85.182483 55.83609 
L 85.360028 56.088413 
L 85.715119 57.194053 
L 86.247756 60.184421 
L 86.957937 66.216114 
L 87.845665 76.207473 
L 89.088483 93.068746 
L 94.592392 171.317084 
L 96.190301 189.640635 
L 97.78821 205.346126 
L 99.208574 217.230233 
L 100.628937 227.344122 
L 102.049301 235.890522 
L 103.469665 243.073679 
L 104.890028 249.086504 
L 106.310392 254.104151 
L 107.730756 258.281571 
L 109.151119 261.753381 
L 110.571483 264.635042 
L 111.991847 267.024648 
L 113.41221 269.004964 
L 115.010119 270.829618 
L 116.608028 272.305681 
L 118.383483 273.617529 
L 120.158937 274.65447 
L 122.111938 275.546636 
L 124.420028 276.344476 
L 127.08321 277.011304 
L 130.279028 277.561942 
L 134.185028 277.995202 
L 139.333847 278.331404 
L 147.145847 278.595006 
L 162.059665 278.831628 
L 228.63921 279.511941 
L 432.461392 281.460558 
L 432.461392 281.460558 
" clip-path="url(#p4bee965592)" style="fill: none; stroke: #e377c2; stroke-width: 2; stroke-linecap: square"/>
   </g>
   <g id="line2d_29">
    <path d="M 81.069347 306.907425 
L 84.76821 306.20215 
L 88.467074 306.009597 
L 92.165937 306.0706 
L 106.961392 306.409954 
L 121.756847 306.756805 
L 136.552301 306.881264 
L 151.347756 307.009204 
L 166.14321 307.127059 
L 195.734119 307.24113 
L 225.325028 307.3141 
L 254.915938 307.439983 
L 432.461392 307.57338 
" clip-path="url(#p4bee965592)" style="fill: none; stroke-dasharray: 3.7,1.6; stroke-dashoffset: 0; stroke: #e377c2"/>
    <defs>
     <path id="m8cd7b8f727" d="M -3 3 
L 3 3 
L 3 -3 
L -3 -3 
z
" style="stroke: #000000; stroke-linejoin: miter"/>
    </defs>
    <g clip-path="url(#p4bee965592)">
     <use xlink:href="#m8cd7b8f727" x="81.069347" y="306.907425" style="fill: #e377c2; stroke: #000000; stroke-linejoin: miter"/>
     <use xlink:href="#m8cd7b8f727" x="84.76821" y="306.20215" style="fill: #e377c2; stroke: #000000; stroke-linejoin: miter"/>
     <use xlink:href="#m8cd7b8f727" x="88.467074" y="306.009597" style="fill: #e377c2; stroke: #000000; stroke-linejoin: miter"/>
     <use xlink:href="#m8cd7b8f727" x="92.165937" y="306.0706" style="fill: #e377c2; stroke: #000000; stroke-linejoin: miter"/>
     <use xlink:href="#m8cd7b8f727" x="106.961392" y="306.409954" style="fill: #e377c2; stroke: #000000; stroke-linejoin: miter"/>
     <use xlink:href="#m8cd7b8f727" x="121.756847" y="306.756805" style="fill: #e377c2; stroke: #000000; stroke-linejoin: miter"/>
     <use xlink:href="#m8cd7b8f727" x="136.552301" y="306.881264" style="fill: #e377c2; stroke: #000000; stroke-linejoin: miter"/>
     <use xlink:href="#m8cd7b8f727" x="151.347756" y="307.009204" style="fill: #e377c2; stroke: #000000; stroke-linejoin: miter"/>
     <use xlink:href="#m8cd7b8f727" x="166.14321" y="307.127059" style="fill: #e377c2; stroke: #000000; stroke-linejoin: miter"/>
     <use xlink:href="#m8cd7b8f727" x="195.734119" y="307.24113" style="fill: #e377c2; stroke: #000000; stroke-linejoin: miter"/>
     <use xlink:href="#m8cd7b8f727" x="225.325028" y="307.3141" style="fill: #e377c2; stroke: #000000; stroke-linejoin: miter"/>
     <use xlink:href="#m8cd7b8f727" x="254.915938" y="307.439983" style="fill: #e377c2; stroke: #000000; stroke-linejoin: miter"/>
     <use xlink:href="#m8cd7b8f727" x="432.461392" y="307.57338" style="fill: #e377c2; stroke: #000000; stroke-linejoin: miter"/>
    </g>
   </g>
   <g id="line2d_30">
    <path d="M 77.370483 307.8 
L 77.548028 307.701565 
L 77.725574 306.698345 
L 77.903119 303.94896 
L 78.25821 292.643217 
L 78.790847 265.403831 
L 81.098937 135.021059 
L 81.986665 100.634509 
L 82.696847 80.825848 
L 83.407028 67.300702 
L 83.939665 60.828405 
L 84.472301 57.113221 
L 84.827392 55.992426 
L 85.004937 55.8 
L 85.182483 55.83609 
L 85.360028 56.088413 
L 85.715119 57.194053 
L 86.247756 60.184421 
L 86.957937 66.216114 
L 87.845665 76.207473 
L 89.088483 93.068746 
L 94.592392 171.317084 
L 96.190301 189.640635 
L 97.78821 205.346126 
L 99.208574 217.230233 
L 100.628937 227.344122 
L 102.049301 235.890522 
L 103.469665 243.073679 
L 104.890028 249.086504 
L 106.310392 254.104151 
L 107.730756 258.281571 
L 109.151119 261.753381 
L 110.571483 264.635042 
L 111.991847 267.024648 
L 113.41221 269.004964 
L 115.010119 270.829618 
L 116.608028 272.305681 
L 118.383483 273.617529 
L 120.158937 274.65447 
L 122.111938 275.546636 
L 124.420028 276.344476 
L 127.08321 277.011304 
L 130.279028 277.561942 
L 134.185028 277.995202 
L 139.333847 278.331404 
L 147.145847 278.595006 
L 162.059665 278.831628 
L 228.63921 279.511941 
L 432.461392 281.460558 
L 432.461392 281.460558 
" clip-path="url(#p4bee965592)" style="fill: none; stroke: #7f7f7f; stroke-width: 2; stroke-linecap: square"/>
   </g>
   <g id="line2d_31">
    <path d="M 81.069347 307.259711 
L 84.76821 306.389823 
M 92.165937 306.680442 
L 106.961392 306.969234 
L 121.756847 307.101031 
M 166.14321 307.299792 
L 195.734119 307.449936 
L 225.325028 307.470304 
L 254.915938 307.519844 
L 432.461392 307.647979 
" clip-path="url(#p4bee965592)" style="fill: none; stroke-dasharray: 3.7,1.6; stroke-dashoffset: 0; stroke: #7f7f7f"/>
    <defs>
     <path id="m902bf65ca0" d="M -3 3 
L 3 3 
L 3 -3 
L -3 -3 
z
" style="stroke: #000000; stroke-linejoin: miter"/>
    </defs>
    <g clip-path="url(#p4bee965592)">
     <use xlink:href="#m902bf65ca0" x="81.069347" y="307.259711" style="fill: #7f7f7f; stroke: #000000; stroke-linejoin: miter"/>
     <use xlink:href="#m902bf65ca0" x="84.76821" y="306.389823" style="fill: #7f7f7f; stroke: #000000; stroke-linejoin: miter"/>
     <use xlink:href="#m902bf65ca0" x="92.165937" y="306.680442" style="fill: #7f7f7f; stroke: #000000; stroke-linejoin: miter"/>
     <use xlink:href="#m902bf65ca0" x="106.961392" y="306.969234" style="fill: #7f7f7f; stroke: #000000; stroke-linejoin: miter"/>
     <use xlink:href="#m902bf65ca0" x="121.756847" y="307.101031" style="fill: #7f7f7f; stroke: #000000; stroke-linejoin: miter"/>
     <use xlink:href="#m902bf65ca0" x="166.14321" y="307.299792" style="fill: #7f7f7f; stroke: #000000; stroke-linejoin: miter"/>
     <use xlink:href="#m902bf65ca0" x="195.734119" y="307.449936" style="fill: #7f7f7f; stroke: #000000; stroke-linejoin: miter"/>
     <use xlink:href="#m902bf65ca0" x="225.325028" y="307.470304" style="fill: #7f7f7f; stroke: #000000; stroke-linejoin: miter"/>
     <use xlink:href="#m902bf65ca0" x="254.915938" y="307.519844" style="fill: #7f7f7f; stroke: #000000; stroke-linejoin: miter"/>
     <use xlink:href="#m902bf65ca0" x="432.461392" y="307.647979" style="fill: #7f7f7f; stroke: #000000; stroke-linejoin: miter"/>
    </g>
   </g>
   <g id="patch_3">
    <path d="M 59.615938 320.4 
L 59.615938 43.2 
" style="fill: none; stroke: #000000; stroke-width: 0.8; stroke-linejoin: miter; stroke-linecap: square"/>
   </g>
   <g id="patch_4">
    <path d="M 450.215937 320.4 
L 450.215937 43.2 
" style="fill: none; stroke: #000000; stroke-width: 0.8; stroke-linejoin: miter; stroke-linecap: square"/>
   </g>
   <g id="patch_5">
    <path d="M 59.615937 320.4 
L 450.215937 320.4 
" style="fill: none; stroke: #000000; stroke-width: 0.8; stroke-linejoin: miter; stroke-linecap: square"/>
   </g>
   <g id="patch_6">
    <path d="M 59.615937 43.2 
L 450.215937 43.2 
" style="fill: none; stroke: #000000; stroke-width: 0.8; stroke-linejoin: miter; stroke-linecap: square"/>
   </g>
   <g id="legend_1">
    <g id="patch_7">
     <path d="M 472.839938 183.303125 
L 549.611813 183.303125 
Q 551.611813 183.303125 551.611813 181.303125 
L 551.611813 50.2 
Q 551.611813 48.2 549.611813 48.2 
L 472.839938 48.2 
Q 470.839938 48.2 470.839938 50.2 
L 470.839938 181.303125 
Q 470.839938 183.303125 472.839938 183.303125 
z
" style="fill: #ffffff; opacity: 0.8; stroke: #cccccc; stroke-linejoin: miter"/>
    </g>
    <g id="line2d_32">
     <path d="M 474.839938 56.298437 
L 494.839938 56.298437 
" style="fill: none; stroke: #1f77b4; stroke-width: 2; stroke-linecap: square"/>
    </g>
    <g id="line2d_33"/>
    <g id="text_18">
     <!-- RAP05 -->
     <g transform="translate(502.839938 59.798437) scale(0.1 -0.1)">
      <defs>
       <path id="DejaVuSans-52" d="M 2841 2188 
Q 3044 2119 3236 1894 
Q 3428 1669 3622 1275 
L 4263 0 
L 3584 0 
L 2988 1197 
Q 2756 1666 2539 1819 
Q 2322 1972 1947 1972 
L 1259 1972 
L 1259 0 
L 628 0 
L 628 4666 
L 2053 4666 
Q 2853 4666 3247 4331 
Q 3641 3997 3641 3322 
Q 3641 2881 3436 2590 
Q 3231 2300 2841 2188 
z
M 1259 4147 
L 1259 2491 
L 2053 2491 
Q 2509 2491 2742 2702 
Q 2975 2913 2975 3322 
Q 2975 3731 2742 3939 
Q 2509 4147 2053 4147 
L 1259 4147 
z
" transform="scale(0.015625)"/>
       <path id="DejaVuSans-41" d="M 2188 4044 
L 1331 1722 
L 3047 1722 
L 2188 4044 
z
M 1831 4666 
L 2547 4666 
L 4325 0 
L 3669 0 
L 3244 1197 
L 1141 1197 
L 716 0 
L 50 0 
L 1831 4666 
z
" transform="scale(0.015625)"/>
       <path id="DejaVuSans-50" d="M 1259 4147 
L 1259 2394 
L 2053 2394 
Q 2494 2394 2734 2622 
Q 2975 2850 2975 3272 
Q 2975 3691 2734 3919 
Q 2494 4147 2053 4147 
L 1259 4147 
z
M 628 4666 
L 2053 4666 
Q 2838 4666 3239 4311 
Q 3641 3956 3641 3272 
Q 3641 2581 3239 2228 
Q 2838 1875 2053 1875 
L 1259 1875 
L 1259 0 
L 628 0 
L 628 4666 
z
" transform="scale(0.015625)"/>
      </defs>
      <use xlink:href="#DejaVuSans-52"/>
      <use xlink:href="#DejaVuSans-41" transform="translate(65.482422 0)"/>
      <use xlink:href="#DejaVuSans-50" transform="translate(133.890625 0)"/>
      <use xlink:href="#DejaVuSans-30" transform="translate(194.193359 0)"/>
      <use xlink:href="#DejaVuSans-35" transform="translate(257.816406 0)"/>
     </g>
    </g>
    <g id="line2d_34">
     <path d="M 474.839938 70.976562 
L 494.839938 70.976562 
" style="fill: none; stroke-dasharray: 3.7,1.6; stroke-dashoffset: 0; stroke: #1f77b4"/>
    </g>
    <g id="line2d_35">
     <g>
      <use xlink:href="#m6667cb657e" x="484.839938" y="70.976562" style="fill: #1f77b4; stroke: #000000; stroke-linejoin: miter"/>
     </g>
    </g>
    <g id="text_19">
     <!-- S1 (n=8) -->
     <g transform="translate(502.839938 74.476562) scale(0.1 -0.1)">
      <defs>
       <path id="DejaVuSans-53" d="M 3425 4513 
L 3425 3897 
Q 3066 4069 2747 4153 
Q 2428 4238 2131 4238 
Q 1616 4238 1336 4038 
Q 1056 3838 1056 3469 
Q 1056 3159 1242 3001 
Q 1428 2844 1947 2747 
L 2328 2669 
Q 3034 2534 3370 2195 
Q 3706 1856 3706 1288 
Q 3706 609 3251 259 
Q 2797 -91 1919 -91 
Q 1588 -91 1214 -16 
Q 841 59 441 206 
L 441 856 
Q 825 641 1194 531 
Q 1563 422 1919 422 
Q 2459 422 2753 634 
Q 3047 847 3047 1241 
Q 3047 1584 2836 1778 
Q 2625 1972 2144 2069 
L 1759 2144 
Q 1053 2284 737 2584 
Q 422 2884 422 3419 
Q 422 4038 858 4394 
Q 1294 4750 2059 4750 
Q 2388 4750 2728 4690 
Q 3069 4631 3425 4513 
z
" transform="scale(0.015625)"/>
       <path id="DejaVuSans-20" transform="scale(0.015625)"/>
       <path id="DejaVuSans-28" d="M 1984 4856 
Q 1566 4138 1362 3434 
Q 1159 2731 1159 2009 
Q 1159 1288 1364 580 
Q 1569 -128 1984 -844 
L 1484 -844 
Q 1016 -109 783 600 
Q 550 1309 550 2009 
Q 550 2706 781 3412 
Q 1013 4119 1484 4856 
L 1984 4856 
z
" transform="scale(0.015625)"/>
       <path id="DejaVuSans-6e" d="M 3513 2113 
L 3513 0 
L 2938 0 
L 2938 2094 
Q 2938 2591 2744 2837 
Q 2550 3084 2163 3084 
Q 1697 3084 1428 2787 
Q 1159 2491 1159 1978 
L 1159 0 
L 581 0 
L 581 3500 
L 1159 3500 
L 1159 2956 
Q 1366 3272 1645 3428 
Q 1925 3584 2291 3584 
Q 2894 3584 3203 3211 
Q 3513 2838 3513 2113 
z
" transform="scale(0.015625)"/>
       <path id="DejaVuSans-3d" d="M 678 2906 
L 4684 2906 
L 4684 2381 
L 678 2381 
L 678 2906 
z
M 678 1631 
L 4684 1631 
L 4684 1100 
L 678 1100 
L 678 1631 
z
" transform="scale(0.015625)"/>
       <path id="DejaVuSans-29" d="M 513 4856 
L 1013 4856 
Q 1481 4119 1714 3412 
Q 1947 2706 1947 2009 
Q 1947 1309 1714 600 
Q 1481 -109 1013 -844 
L 513 -844 
Q 928 -128 1133 580 
Q 1338 1288 1338 2009 
Q 1338 2731 1133 3434 
Q 928 4138 513 4856 
z
" transform="scale(0.015625)"/>
      </defs>
      <use xlink:href="#DejaVuSans-53"/>
      <use xlink:href="#DejaVuSans-31" transform="translate(63.476562 0)"/>
      <use xlink:href="#DejaVuSans-20" transform="translate(127.099609 0)"/>
      <use xlink:href="#DejaVuSans-28" transform="translate(158.886719 0)"/>
      <use xlink:href="#DejaVuSans-6e" transform="translate(197.900391 0)"/>
      <use xlink:href="#DejaVuSans-3d" transform="translate(261.279297 0)"/>
      <use xlink:href="#DejaVuSans-38" transform="translate(345.068359 0)"/>
      <use xlink:href="#DejaVuSans-29" transform="translate(408.691406 0)"/>
     </g>
    </g>
    <g id="line2d_36">
     <path d="M 474.839938 85.654687 
L 494.839938 85.654687 
" style="fill: none; stroke-dasharray: 3.7,1.6; stroke-dashoffset: 0; stroke: #ff7f0e"/>
    </g>
    <g id="line2d_37">
     <g>
      <use xlink:href="#ma548967234" x="484.839938" y="85.654687" style="fill: #ff7f0e; stroke: #000000; stroke-linejoin: miter"/>
     </g>
    </g>
    <g id="text_20">
     <!-- S2 (n=8) -->
     <g transform="translate(502.839938 89.154687) scale(0.1 -0.1)">
      <use xlink:href="#DejaVuSans-53"/>
      <use xlink:href="#DejaVuSans-32" transform="translate(63.476562 0)"/>
      <use xlink:href="#DejaVuSans-20" transform="translate(127.099609 0)"/>
      <use xlink:href="#DejaVuSans-28" transform="translate(158.886719 0)"/>
      <use xlink:href="#DejaVuSans-6e" transform="translate(197.900391 0)"/>
      <use xlink:href="#DejaVuSans-3d" transform="translate(261.279297 0)"/>
      <use xlink:href="#DejaVuSans-38" transform="translate(345.068359 0)"/>
      <use xlink:href="#DejaVuSans-29" transform="translate(408.691406 0)"/>
     </g>
    </g>
    <g id="line2d_38">
     <path d="M 474.839938 100.332812 
L 494.839938 100.332812 
" style="fill: none; stroke-dasharray: 3.7,1.6; stroke-dashoffset: 0; stroke: #2ca02c"/>
    </g>
    <g id="line2d_39">
     <g>
      <use xlink:href="#m4ac9928fd7" x="484.839938" y="100.332812" style="fill: #2ca02c; stroke: #000000; stroke-linejoin: miter"/>
     </g>
    </g>
    <g id="text_21">
     <!-- S3 (n=8) -->
     <g transform="translate(502.839938 103.832812) scale(0.1 -0.1)">
      <use xlink:href="#DejaVuSans-53"/>
      <use xlink:href="#DejaVuSans-33" transform="translate(63.476562 0)"/>
      <use xlink:href="#DejaVuSans-20" transform="translate(127.099609 0)"/>
      <use xlink:href="#DejaVuSans-28" transform="translate(158.886719 0)"/>
      <use xlink:href="#DejaVuSans-6e" transform="translate(197.900391 0)"/>
      <use xlink:href="#DejaVuSans-3d" transform="translate(261.279297 0)"/>
      <use xlink:href="#DejaVuSans-38" transform="translate(345.068359 0)"/>
      <use xlink:href="#DejaVuSans-29" transform="translate(408.691406 0)"/>
     </g>
    </g>
    <g id="line2d_40">
     <path d="M 474.839938 115.010937 
L 494.839938 115.010937 
" style="fill: none; stroke-dasharray: 3.7,1.6; stroke-dashoffset: 0; stroke: #d62728"/>
    </g>
    <g id="line2d_41">
     <g>
      <use xlink:href="#mb0b7447e0d" x="484.839938" y="115.010937" style="fill: #d62728; stroke: #000000; stroke-linejoin: miter"/>
     </g>
    </g>
    <g id="text_22">
     <!-- S4 (n=8) -->
     <g transform="translate(502.839938 118.510937) scale(0.1 -0.1)">
      <use xlink:href="#DejaVuSans-53"/>
      <use xlink:href="#DejaVuSans-34" transform="translate(63.476562 0)"/>
      <use xlink:href="#DejaVuSans-20" transform="translate(127.099609 0)"/>
      <use xlink:href="#DejaVuSans-28" transform="translate(158.886719 0)"/>
      <use xlink:href="#DejaVuSans-6e" transform="translate(197.900391 0)"/>
      <use xlink:href="#DejaVuSans-3d" transform="translate(261.279297 0)"/>
      <use xlink:href="#DejaVuSans-38" transform="translate(345.068359 0)"/>
      <use xlink:href="#DejaVuSans-29" transform="translate(408.691406 0)"/>
     </g>
    </g>
    <g id="line2d_42">
     <path d="M 474.839938 129.689062 
L 494.839938 129.689062 
" style="fill: none; stroke-dasharray: 3.7,1.6; stroke-dashoffset: 0; stroke: #9467bd"/>
    </g>
    <g id="line2d_43">
     <g>
      <use xlink:href="#md9a943992d" x="484.839938" y="129.689062" style="fill: #9467bd; stroke: #000000; stroke-linejoin: miter"/>
     </g>
    </g>
    <g id="text_23">
     <!-- S5 (n=8) -->
     <g transform="translate(502.839938 133.189062) scale(0.1 -0.1)">
      <use xlink:href="#DejaVuSans-53"/>
      <use xlink:href="#DejaVuSans-35" transform="translate(63.476562 0)"/>
      <use xlink:href="#DejaVuSans-20" transform="translate(127.099609 0)"/>
      <use xlink:href="#DejaVuSans-28" transform="translate(158.886719 0)"/>
      <use xlink:href="#DejaVuSans-6e" transform="translate(197.900391 0)"/>
      <use xlink:href="#DejaVuSans-3d" transform="translate(261.279297 0)"/>
      <use xlink:href="#DejaVuSans-38" transform="translate(345.068359 0)"/>
      <use xlink:href="#DejaVuSans-29" transform="translate(408.691406 0)"/>
     </g>
    </g>
    <g id="line2d_44">
     <path d="M 474.839938 144.367187 
L 494.839938 144.367187 
" style="fill: none; stroke-dasharray: 3.7,1.6; stroke-dashoffset: 0; stroke: #8c564b"/>
    </g>
    <g id="line2d_45">
     <g>
      <use xlink:href="#m2b8cd09f3b" x="484.839938" y="144.367187" style="fill: #8c564b; stroke: #000000; stroke-linejoin: miter"/>
     </g>
    </g>
    <g id="text_24">
     <!-- S6 (n=8) -->
     <g transform="translate(502.839938 147.867187) scale(0.1 -0.1)">
      <use xlink:href="#DejaVuSans-53"/>
      <use xlink:href="#DejaVuSans-36" transform="translate(63.476562 0)"/>
      <use xlink:href="#DejaVuSans-20" transform="translate(127.099609 0)"/>
      <use xlink:href="#DejaVuSans-28" transform="translate(158.886719 0)"/>
      <use xlink:href="#DejaVuSans-6e" transform="translate(197.900391 0)"/>
      <use xlink:href="#DejaVuSans-3d" transform="translate(261.279297 0)"/>
      <use xlink:href="#DejaVuSans-38" transform="translate(345.068359 0)"/>
      <use xlink:href="#DejaVuSans-29" transform="translate(408.691406 0)"/>
     </g>
    </g>
    <g id="line2d_46">
     <path d="M 474.839938 159.045312 
L 494.839938 159.045312 
" style="fill: none; stroke-dasharray: 3.7,1.6; stroke-dashoffset: 0; stroke: #e377c2"/>
    </g>
    <g id="line2d_47">
     <g>
      <use xlink:href="#m8cd7b8f727" x="484.839938" y="159.045312" style="fill: #e377c2; stroke: #000000; stroke-linejoin: miter"/>
     </g>
    </g>
    <g id="text_25">
     <!-- S7 (n=8) -->
     <g transform="translate(502.839938 162.545312) scale(0.1 -0.1)">
      <use xlink:href="#DejaVuSans-53"/>
      <use xlink:href="#DejaVuSans-37" transform="translate(63.476562 0)"/>
      <use xlink:href="#DejaVuSans-20" transform="translate(127.099609 0)"/>
      <use xlink:href="#DejaVuSans-28" transform="translate(158.886719 0)"/>
      <use xlink:href="#DejaVuSans-6e" transform="translate(197.900391 0)"/>
      <use xlink:href="#DejaVuSans-3d" transform="translate(261.279297 0)"/>
      <use xlink:href="#DejaVuSans-38" transform="translate(345.068359 0)"/>
      <use xlink:href="#DejaVuSans-29" transform="translate(408.691406 0)"/>
     </g>
    </g>
    <g id="line2d_48">
     <path d="M 474.839938 173.723437 
L 494.839938 173.723437 
" style="fill: none; stroke-dasharray: 3.7,1.6; stroke-dashoffset: 0; stroke: #7f7f7f"/>
    </g>
    <g id="line2d_49">
     <g>
      <use xlink:href="#m902bf65ca0" x="484.839938" y="173.723437" style="fill: #7f7f7f; stroke: #000000; stroke-linejoin: miter"/>
     </g>
    </g>
    <g id="text_26">
     <!-- S8 (n=8) -->
     <g transform="translate(502.839938 177.223437) scale(0.1 -0.1)">
      <use xlink:href="#DejaVuSans-53"/>
      <use xlink:href="#DejaVuSans-38" transform="translate(63.476562 0)"/>
      <use xlink:href="#DejaVuSans-20" transform="translate(127.099609 0)"/>
      <use xlink:href="#DejaVuSans-28" transform="translate(158.886719 0)"/>
      <use xlink:href="#DejaVuSans-6e" transform="translate(197.900391 0)"/>
      <use xlink:href="#DejaVuSans-3d" transform="translate(261.279297 0)"/>
      <use xlink:href="#DejaVuSans-38" transform="translate(345.068359 0)"/>
      <use xlink:href="#DejaVuSans-29" transform="translate(408.691406 0)"/>
     </g>
    </g>
   </g>
  </g>
  <g id="text_27">
   <!-- BasaDenes2019_RAP05 -->
   <g transform="translate(84.211641 25.754687) scale(0.25 -0.25)">
    <defs>
     <path id="DejaVuSans-Bold-42" d="M 2456 2859 
Q 2741 2859 2887 2984 
Q 3034 3109 3034 3353 
Q 3034 3594 2887 3720 
Q 2741 3847 2456 3847 
L 1791 3847 
L 1791 2859 
L 2456 2859 
z
M 2497 819 
Q 2859 819 3042 972 
Q 3225 1125 3225 1434 
Q 3225 1738 3044 1889 
Q 2863 2041 2497 2041 
L 1791 2041 
L 1791 819 
L 2497 819 
z
M 3616 2497 
Q 4003 2384 4215 2081 
Q 4428 1778 4428 1338 
Q 4428 663 3972 331 
Q 3516 0 2584 0 
L 588 0 
L 588 4666 
L 2394 4666 
Q 3366 4666 3802 4372 
Q 4238 4078 4238 3431 
Q 4238 3091 4078 2852 
Q 3919 2613 3616 2497 
z
" transform="scale(0.015625)"/>
     <path id="DejaVuSans-Bold-73" d="M 3272 3391 
L 3272 2541 
Q 2913 2691 2578 2766 
Q 2244 2841 1947 2841 
Q 1628 2841 1473 2761 
Q 1319 2681 1319 2516 
Q 1319 2381 1436 2309 
Q 1553 2238 1856 2203 
L 2053 2175 
Q 2913 2066 3209 1816 
Q 3506 1566 3506 1031 
Q 3506 472 3093 190 
Q 2681 -91 1863 -91 
Q 1516 -91 1145 -36 
Q 775 19 384 128 
L 384 978 
Q 719 816 1070 734 
Q 1422 653 1784 653 
Q 2113 653 2278 743 
Q 2444 834 2444 1013 
Q 2444 1163 2330 1236 
Q 2216 1309 1875 1350 
L 1678 1375 
Q 931 1469 631 1722 
Q 331 1975 331 2491 
Q 331 3047 712 3315 
Q 1094 3584 1881 3584 
Q 2191 3584 2531 3537 
Q 2872 3491 3272 3391 
z
" transform="scale(0.015625)"/>
     <path id="DejaVuSans-Bold-44" d="M 1791 3756 
L 1791 909 
L 2222 909 
Q 2959 909 3348 1275 
Q 3738 1641 3738 2338 
Q 3738 3031 3350 3393 
Q 2963 3756 2222 3756 
L 1791 3756 
z
M 588 4666 
L 1856 4666 
Q 2919 4666 3439 4514 
Q 3959 4363 4331 4000 
Q 4659 3684 4818 3271 
Q 4978 2859 4978 2338 
Q 4978 1809 4818 1395 
Q 4659 981 4331 666 
Q 3956 303 3431 151 
Q 2906 0 1856 0 
L 588 0 
L 588 4666 
z
" transform="scale(0.015625)"/>
     <path id="DejaVuSans-Bold-32" d="M 1844 884 
L 3897 884 
L 3897 0 
L 506 0 
L 506 884 
L 2209 2388 
Q 2438 2594 2547 2791 
Q 2656 2988 2656 3200 
Q 2656 3528 2436 3728 
Q 2216 3928 1850 3928 
Q 1569 3928 1234 3808 
Q 900 3688 519 3450 
L 519 4475 
Q 925 4609 1322 4679 
Q 1719 4750 2100 4750 
Q 2938 4750 3402 4381 
Q 3866 4013 3866 3353 
Q 3866 2972 3669 2642 
Q 3472 2313 2841 1759 
L 1844 884 
z
" transform="scale(0.015625)"/>
     <path id="DejaVuSans-Bold-30" d="M 2944 2338 
Q 2944 3213 2780 3570 
Q 2616 3928 2228 3928 
Q 1841 3928 1675 3570 
Q 1509 3213 1509 2338 
Q 1509 1453 1675 1090 
Q 1841 728 2228 728 
Q 2613 728 2778 1090 
Q 2944 1453 2944 2338 
z
M 4147 2328 
Q 4147 1169 3647 539 
Q 3147 -91 2228 -91 
Q 1306 -91 806 539 
Q 306 1169 306 2328 
Q 306 3491 806 4120 
Q 1306 4750 2228 4750 
Q 3147 4750 3647 4120 
Q 4147 3491 4147 2328 
z
" transform="scale(0.015625)"/>
     <path id="DejaVuSans-Bold-31" d="M 750 831 
L 1813 831 
L 1813 3847 
L 722 3622 
L 722 4441 
L 1806 4666 
L 2950 4666 
L 2950 831 
L 4013 831 
L 4013 0 
L 750 0 
L 750 831 
z
" transform="scale(0.015625)"/>
     <path id="DejaVuSans-Bold-39" d="M 641 103 
L 641 966 
Q 928 831 1190 764 
Q 1453 697 1709 697 
Q 2247 697 2547 995 
Q 2847 1294 2900 1881 
Q 2688 1725 2447 1647 
Q 2206 1569 1925 1569 
Q 1209 1569 770 1986 
Q 331 2403 331 3084 
Q 331 3838 820 4291 
Q 1309 4744 2131 4744 
Q 3044 4744 3544 4128 
Q 4044 3513 4044 2388 
Q 4044 1231 3459 570 
Q 2875 -91 1856 -91 
Q 1528 -91 1228 -42 
Q 928 6 641 103 
z
M 2125 2350 
Q 2441 2350 2600 2554 
Q 2759 2759 2759 3169 
Q 2759 3575 2600 3781 
Q 2441 3988 2125 3988 
Q 1809 3988 1650 3781 
Q 1491 3575 1491 3169 
Q 1491 2759 1650 2554 
Q 1809 2350 2125 2350 
z
" transform="scale(0.015625)"/>
     <path id="DejaVuSans-Bold-5f" d="M 3200 -916 
L 3200 -1509 
L 0 -1509 
L 0 -916 
L 3200 -916 
z
" transform="scale(0.015625)"/>
     <path id="DejaVuSans-Bold-52" d="M 2297 2597 
Q 2675 2597 2839 2737 
Q 3003 2878 3003 3200 
Q 3003 3519 2839 3656 
Q 2675 3794 2297 3794 
L 1791 3794 
L 1791 2597 
L 2297 2597 
z
M 1791 1766 
L 1791 0 
L 588 0 
L 588 4666 
L 2425 4666 
Q 3347 4666 3776 4356 
Q 4206 4047 4206 3378 
Q 4206 2916 3982 2619 
Q 3759 2322 3309 2181 
Q 3556 2125 3751 1926 
Q 3947 1728 4147 1325 
L 4800 0 
L 3519 0 
L 2950 1159 
Q 2778 1509 2601 1637 
Q 2425 1766 2131 1766 
L 1791 1766 
z
" transform="scale(0.015625)"/>
     <path id="DejaVuSans-Bold-41" d="M 3419 850 
L 1538 850 
L 1241 0 
L 31 0 
L 1759 4666 
L 3194 4666 
L 4922 0 
L 3713 0 
L 3419 850 
z
M 1838 1716 
L 3116 1716 
L 2478 3572 
L 1838 1716 
z
" transform="scale(0.015625)"/>
     <path id="DejaVuSans-Bold-50" d="M 588 4666 
L 2584 4666 
Q 3475 4666 3951 4270 
Q 4428 3875 4428 3144 
Q 4428 2409 3951 2014 
Q 3475 1619 2584 1619 
L 1791 1619 
L 1791 0 
L 588 0 
L 588 4666 
z
M 1791 3794 
L 1791 2491 
L 2456 2491 
Q 2806 2491 2997 2661 
Q 3188 2831 3188 3144 
Q 3188 3456 2997 3625 
Q 2806 3794 2456 3794 
L 1791 3794 
z
" transform="scale(0.015625)"/>
     <path id="DejaVuSans-Bold-35" d="M 678 4666 
L 3669 4666 
L 3669 3781 
L 1638 3781 
L 1638 3059 
Q 1775 3097 1914 3117 
Q 2053 3138 2203 3138 
Q 3056 3138 3531 2711 
Q 4006 2284 4006 1522 
Q 4006 766 3489 337 
Q 2972 -91 2053 -91 
Q 1656 -91 1267 -14 
Q 878 63 494 219 
L 494 1166 
Q 875 947 1217 837 
Q 1559 728 1863 728 
Q 2300 728 2551 942 
Q 2803 1156 2803 1522 
Q 2803 1891 2551 2103 
Q 2300 2316 1863 2316 
Q 1603 2316 1309 2248 
Q 1016 2181 678 2041 
L 678 4666 
z
" transform="scale(0.015625)"/>
    </defs>
    <use xlink:href="#DejaVuSans-Bold-42"/>
    <use xlink:href="#DejaVuSans-Bold-61" transform="translate(76.220703 0)"/>
    <use xlink:href="#DejaVuSans-Bold-73" transform="translate(143.701172 0)"/>
    <use xlink:href="#DejaVuSans-Bold-61" transform="translate(203.222656 0)"/>
    <use xlink:href="#DejaVuSans-Bold-44" transform="translate(270.703125 0)"/>
    <use xlink:href="#DejaVuSans-Bold-65" transform="translate(353.710938 0)"/>
    <use xlink:href="#DejaVuSans-Bold-6e" transform="translate(421.533203 0)"/>
    <use xlink:href="#DejaVuSans-Bold-65" transform="translate(492.724609 0)"/>
    <use xlink:href="#DejaVuSans-Bold-73" transform="translate(560.546875 0)"/>
    <use xlink:href="#DejaVuSans-Bold-32" transform="translate(620.068359 0)"/>
    <use xlink:href="#DejaVuSans-Bold-30" transform="translate(689.648438 0)"/>
    <use xlink:href="#DejaVuSans-Bold-31" transform="translate(759.228516 0)"/>
    <use xlink:href="#DejaVuSans-Bold-39" transform="translate(828.808594 0)"/>
    <use xlink:href="#DejaVuSans-Bold-5f" transform="translate(898.388672 0)"/>
    <use xlink:href="#DejaVuSans-Bold-52" transform="translate(948.388672 0)"/>
    <use xlink:href="#DejaVuSans-Bold-41" transform="translate(1025.390625 0)"/>
    <use xlink:href="#DejaVuSans-Bold-50" transform="translate(1102.783203 0)"/>
    <use xlink:href="#DejaVuSans-Bold-30" transform="translate(1176.074219 0)"/>
    <use xlink:href="#DejaVuSans-Bold-35" transform="translate(1245.654297 0)"/>
   </g>
  </g>
 </g>
 <defs>
  <clipPath id="p4bee965592">
   <rect x="59.615938" y="43.2" width="390.6" height="277.2"/>
  </clipPath>
 </defs>
</svg>
