<?xml version="1.0" encoding="utf-8" standalone="no"?>
<!DOCTYPE svg PUBLIC "-//W3C//DTD SVG 1.1//EN"
  "http://www.w3.org/Graphics/SVG/1.1/DTD/svg11.dtd">
<svg xmlns:xlink="http://www.w3.org/1999/xlink" width="554.557125pt" height="370.537812pt" viewBox="0 0 554.557125 370.537812" xmlns="http://www.w3.org/2000/svg" version="1.1">
 <metadata>
  <rdf:RDF xmlns:dc="http://purl.org/dc/elements/1.1/" xmlns:cc="http://creativecommons.org/ns#" xmlns:rdf="http://www.w3.org/1999/02/22-rdf-syntax-ns#">
   <cc:Work>
    <dc:type rdf:resource="http://purl.org/dc/dcmitype/StillImage"/>
    <dc:date>2025-09-10T11:19:48.711725</dc:date>
    <dc:format>image/svg+xml</dc:format>
    <dc:creator>
     <cc:Agent>
      <dc:title>Matplotlib v3.10.6, https://matplotlib.org/</dc:title>
     </cc:Agent>
    </dc:creator>
   </cc:Work>
  </rdf:RDF>
 </metadata>
 <defs>
  <style type="text/css">*{stroke-linejoin: round; stroke-linecap: butt}</style>
 </defs>
 <g id="figure_1">
  <g id="patch_1">
   <path d="M 0 370.537812 
L 554.557125 370.537812 
L 554.557125 0 
L 0 0 
z
" style="fill: #ffffff"/>
  </g>
  <g id="axes_1">
   <g id="patch_2">
    <path d="M 54.84875 320.4 
L 445.44875 320.4 
L 445.44875 43.2 
L 54.84875 43.2 
z
" style="fill: #ffffff"/>
   </g>
   <g id="matplotlib.axis_1">
    <g id="xtick_1">
     <g id="line2d_1">
      <defs>
       <path id="me097fe9c21" d="M 0 0 
L 0 3.5 
" style="stroke: #000000; stroke-width: 0.8"/>
      </defs>
      <g>
       <use xlink:href="#me097fe9c21" x="72.603295" y="320.4" style="stroke: #000000; stroke-width: 0.8"/>
      </g>
     </g>
     <g id="text_1">
      <!-- 0 -->
      <g transform="translate(67.83142 338.797656) scale(0.15 -0.15)">
       <defs>
        <path id="DejaVuSans-30" d="M 2034 4250 
Q 1547 4250 1301 3770 
Q 1056 3291 1056 2328 
Q 1056 1369 1301 889 
Q 1547 409 2034 409 
Q 2525 409 2770 889 
Q 3016 1369 3016 2328 
Q 3016 3291 2770 3770 
Q 2525 4250 2034 4250 
z
M 2034 4750 
Q 2819 4750 3233 4129 
Q 3647 3509 3647 2328 
Q 3647 1150 3233 529 
Q 2819 -91 2034 -91 
Q 1250 -91 836 529 
Q 422 1150 422 2328 
Q 422 3509 836 4129 
Q 1250 4750 2034 4750 
z
" transform="scale(0.015625)"/>
       </defs>
       <use xlink:href="#DejaVuSans-30"/>
      </g>
     </g>
    </g>
    <g id="xtick_2">
     <g id="line2d_2">
      <g>
       <use xlink:href="#me097fe9c21" x="146.580568" y="320.4" style="stroke: #000000; stroke-width: 0.8"/>
      </g>
     </g>
     <g id="text_2">
      <!-- 5 -->
      <g transform="translate(141.808693 338.797656) scale(0.15 -0.15)">
       <defs>
        <path id="DejaVuSans-35" d="M 691 4666 
L 3169 4666 
L 3169 4134 
L 1269 4134 
L 1269 2991 
Q 1406 3038 1543 3061 
Q 1681 3084 1819 3084 
Q 2600 3084 3056 2656 
Q 3513 2228 3513 1497 
Q 3513 744 3044 326 
Q 2575 -91 1722 -91 
Q 1428 -91 1123 -41 
Q 819 9 494 109 
L 494 744 
Q 775 591 1075 516 
Q 1375 441 1709 441 
Q 2250 441 2565 725 
Q 2881 1009 2881 1497 
Q 2881 1984 2565 2268 
Q 2250 2553 1709 2553 
Q 1456 2553 1204 2497 
Q 953 2441 691 2322 
L 691 4666 
z
" transform="scale(0.015625)"/>
       </defs>
       <use xlink:href="#DejaVuSans-35"/>
      </g>
     </g>
    </g>
    <g id="xtick_3">
     <g id="line2d_3">
      <g>
       <use xlink:href="#me097fe9c21" x="220.557841" y="320.4" style="stroke: #000000; stroke-width: 0.8"/>
      </g>
     </g>
     <g id="text_3">
      <!-- 10 -->
      <g transform="translate(211.014091 338.797656) scale(0.15 -0.15)">
       <defs>
        <path id="DejaVuSans-31" d="M 794 531 
L 1825 531 
L 1825 4091 
L 703 3866 
L 703 4441 
L 1819 4666 
L 2450 4666 
L 2450 531 
L 3481 531 
L 3481 0 
L 794 0 
L 794 531 
z
" transform="scale(0.015625)"/>
       </defs>
       <use xlink:href="#DejaVuSans-31"/>
       <use xlink:href="#DejaVuSans-30" transform="translate(63.623047 0)"/>
      </g>
     </g>
    </g>
    <g id="xtick_4">
     <g id="line2d_4">
      <g>
       <use xlink:href="#me097fe9c21" x="294.535114" y="320.4" style="stroke: #000000; stroke-width: 0.8"/>
      </g>
     </g>
     <g id="text_4">
      <!-- 15 -->
      <g transform="translate(284.991364 338.797656) scale(0.15 -0.15)">
       <use xlink:href="#DejaVuSans-31"/>
       <use xlink:href="#DejaVuSans-35" transform="translate(63.623047 0)"/>
      </g>
     </g>
    </g>
    <g id="xtick_5">
     <g id="line2d_5">
      <g>
       <use xlink:href="#me097fe9c21" x="368.512386" y="320.4" style="stroke: #000000; stroke-width: 0.8"/>
      </g>
     </g>
     <g id="text_5">
      <!-- 20 -->
      <g transform="translate(358.968636 338.797656) scale(0.15 -0.15)">
       <defs>
        <path id="DejaVuSans-32" d="M 1228 531 
L 3431 531 
L 3431 0 
L 469 0 
L 469 531 
Q 828 903 1448 1529 
Q 2069 2156 2228 2338 
Q 2531 2678 2651 2914 
Q 2772 3150 2772 3378 
Q 2772 3750 2511 3984 
Q 2250 4219 1831 4219 
Q 1534 4219 1204 4116 
Q 875 4013 500 3803 
L 500 4441 
Q 881 4594 1212 4672 
Q 1544 4750 1819 4750 
Q 2544 4750 2975 4387 
Q 3406 4025 3406 3419 
Q 3406 3131 3298 2873 
Q 3191 2616 2906 2266 
Q 2828 2175 2409 1742 
Q 1991 1309 1228 531 
z
" transform="scale(0.015625)"/>
       </defs>
       <use xlink:href="#DejaVuSans-32"/>
       <use xlink:href="#DejaVuSans-30" transform="translate(63.623047 0)"/>
      </g>
     </g>
    </g>
    <g id="xtick_6">
     <g id="line2d_6">
      <g>
       <use xlink:href="#me097fe9c21" x="442.489659" y="320.4" style="stroke: #000000; stroke-width: 0.8"/>
      </g>
     </g>
     <g id="text_6">
      <!-- 25 -->
      <g transform="translate(432.945909 338.797656) scale(0.15 -0.15)">
       <use xlink:href="#DejaVuSans-32"/>
       <use xlink:href="#DejaVuSans-35" transform="translate(63.623047 0)"/>
      </g>
     </g>
    </g>
    <g id="text_7">
     <!-- time [hr] -->
     <g transform="translate(205.074219 359.594375) scale(0.18 -0.18)">
      <defs>
       <path id="DejaVuSans-Bold-74" d="M 1759 4494 
L 1759 3500 
L 2913 3500 
L 2913 2700 
L 1759 2700 
L 1759 1216 
Q 1759 972 1856 886 
Q 1953 800 2241 800 
L 2816 800 
L 2816 0 
L 1856 0 
Q 1194 0 917 276 
Q 641 553 641 1216 
L 641 2700 
L 84 2700 
L 84 3500 
L 641 3500 
L 641 4494 
L 1759 4494 
z
" transform="scale(0.015625)"/>
       <path id="DejaVuSans-Bold-69" d="M 538 3500 
L 1656 3500 
L 1656 0 
L 538 0 
L 538 3500 
z
M 538 4863 
L 1656 4863 
L 1656 3950 
L 538 3950 
L 538 4863 
z
" transform="scale(0.015625)"/>
       <path id="DejaVuSans-Bold-6d" d="M 3781 2919 
Q 3994 3244 4286 3414 
Q 4578 3584 4928 3584 
Q 5531 3584 5847 3212 
Q 6163 2841 6163 2131 
L 6163 0 
L 5038 0 
L 5038 1825 
Q 5041 1866 5042 1909 
Q 5044 1953 5044 2034 
Q 5044 2406 4934 2573 
Q 4825 2741 4581 2741 
Q 4263 2741 4089 2478 
Q 3916 2216 3909 1719 
L 3909 0 
L 2784 0 
L 2784 1825 
Q 2784 2406 2684 2573 
Q 2584 2741 2328 2741 
Q 2006 2741 1831 2477 
Q 1656 2213 1656 1722 
L 1656 0 
L 531 0 
L 531 3500 
L 1656 3500 
L 1656 2988 
Q 1863 3284 2130 3434 
Q 2397 3584 2719 3584 
Q 3081 3584 3359 3409 
Q 3638 3234 3781 2919 
z
" transform="scale(0.015625)"/>
       <path id="DejaVuSans-Bold-65" d="M 4031 1759 
L 4031 1441 
L 1416 1441 
Q 1456 1047 1700 850 
Q 1944 653 2381 653 
Q 2734 653 3104 758 
Q 3475 863 3866 1075 
L 3866 213 
Q 3469 63 3072 -14 
Q 2675 -91 2278 -91 
Q 1328 -91 801 392 
Q 275 875 275 1747 
Q 275 2603 792 3093 
Q 1309 3584 2216 3584 
Q 3041 3584 3536 3087 
Q 4031 2591 4031 1759 
z
M 2881 2131 
Q 2881 2450 2695 2645 
Q 2509 2841 2209 2841 
Q 1884 2841 1681 2658 
Q 1478 2475 1428 2131 
L 2881 2131 
z
" transform="scale(0.015625)"/>
       <path id="DejaVuSans-Bold-20" transform="scale(0.015625)"/>
       <path id="DejaVuSans-Bold-5b" d="M 550 4863 
L 2491 4863 
L 2491 4159 
L 1613 4159 
L 1613 -141 
L 2491 -141 
L 2491 -844 
L 550 -844 
L 550 4863 
z
" transform="scale(0.015625)"/>
       <path id="DejaVuSans-Bold-68" d="M 4056 2131 
L 4056 0 
L 2931 0 
L 2931 347 
L 2931 1625 
Q 2931 2084 2911 2256 
Q 2891 2428 2841 2509 
Q 2775 2619 2662 2680 
Q 2550 2741 2406 2741 
Q 2056 2741 1856 2470 
Q 1656 2200 1656 1722 
L 1656 0 
L 538 0 
L 538 4863 
L 1656 4863 
L 1656 2988 
Q 1909 3294 2193 3439 
Q 2478 3584 2822 3584 
Q 3428 3584 3742 3212 
Q 4056 2841 4056 2131 
z
" transform="scale(0.015625)"/>
       <path id="DejaVuSans-Bold-72" d="M 3138 2547 
Q 2991 2616 2845 2648 
Q 2700 2681 2553 2681 
Q 2122 2681 1889 2404 
Q 1656 2128 1656 1613 
L 1656 0 
L 538 0 
L 538 3500 
L 1656 3500 
L 1656 2925 
Q 1872 3269 2151 3426 
Q 2431 3584 2822 3584 
Q 2878 3584 2943 3579 
Q 3009 3575 3134 3559 
L 3138 2547 
z
" transform="scale(0.015625)"/>
       <path id="DejaVuSans-Bold-5d" d="M 2375 -844 
L 434 -844 
L 434 -141 
L 1313 -141 
L 1313 4159 
L 434 4159 
L 434 4863 
L 2375 4863 
L 2375 -844 
z
" transform="scale(0.015625)"/>
      </defs>
      <use xlink:href="#DejaVuSans-Bold-74"/>
      <use xlink:href="#DejaVuSans-Bold-69" transform="translate(47.802734 0)"/>
      <use xlink:href="#DejaVuSans-Bold-6d" transform="translate(82.080078 0)"/>
      <use xlink:href="#DejaVuSans-Bold-65" transform="translate(186.279297 0)"/>
      <use xlink:href="#DejaVuSans-Bold-20" transform="translate(254.101562 0)"/>
      <use xlink:href="#DejaVuSans-Bold-5b" transform="translate(288.916016 0)"/>
      <use xlink:href="#DejaVuSans-Bold-68" transform="translate(334.619141 0)"/>
      <use xlink:href="#DejaVuSans-Bold-72" transform="translate(405.810547 0)"/>
      <use xlink:href="#DejaVuSans-Bold-5d" transform="translate(455.126953 0)"/>
     </g>
    </g>
   </g>
   <g id="matplotlib.axis_2">
    <g id="ytick_1">
     <g id="line2d_7">
      <defs>
       <path id="m0f20369287" d="M 0 0 
L -3.5 0 
" style="stroke: #000000; stroke-width: 0.8"/>
      </defs>
      <g>
       <use xlink:href="#m0f20369287" x="54.84875" y="307.8" style="stroke: #000000; stroke-width: 0.8"/>
      </g>
     </g>
     <g id="text_8">
      <!-- 0 -->
      <g transform="translate(38.305 313.498828) scale(0.15 -0.15)">
       <use xlink:href="#DejaVuSans-30"/>
      </g>
     </g>
    </g>
    <g id="ytick_2">
     <g id="line2d_8">
      <g>
       <use xlink:href="#m0f20369287" x="54.84875" y="275.768534" style="stroke: #000000; stroke-width: 0.8"/>
      </g>
     </g>
     <g id="text_9">
      <!-- 2 -->
      <g transform="translate(38.305 281.467362) scale(0.15 -0.15)">
       <use xlink:href="#DejaVuSans-32"/>
      </g>
     </g>
    </g>
    <g id="ytick_3">
     <g id="line2d_9">
      <g>
       <use xlink:href="#m0f20369287" x="54.84875" y="243.737068" style="stroke: #000000; stroke-width: 0.8"/>
      </g>
     </g>
     <g id="text_10">
      <!-- 4 -->
      <g transform="translate(38.305 249.435897) scale(0.15 -0.15)">
       <defs>
        <path id="DejaVuSans-34" d="M 2419 4116 
L 825 1625 
L 2419 1625 
L 2419 4116 
z
M 2253 4666 
L 3047 4666 
L 3047 1625 
L 3713 1625 
L 3713 1100 
L 3047 1100 
L 3047 0 
L 2419 0 
L 2419 1100 
L 313 1100 
L 313 1709 
L 2253 4666 
z
" transform="scale(0.015625)"/>
       </defs>
       <use xlink:href="#DejaVuSans-34"/>
      </g>
     </g>
    </g>
    <g id="ytick_4">
     <g id="line2d_10">
      <g>
       <use xlink:href="#m0f20369287" x="54.84875" y="211.705603" style="stroke: #000000; stroke-width: 0.8"/>
      </g>
     </g>
     <g id="text_11">
      <!-- 6 -->
      <g transform="translate(38.305 217.404431) scale(0.15 -0.15)">
       <defs>
        <path id="DejaVuSans-36" d="M 2113 2584 
Q 1688 2584 1439 2293 
Q 1191 2003 1191 1497 
Q 1191 994 1439 701 
Q 1688 409 2113 409 
Q 2538 409 2786 701 
Q 3034 994 3034 1497 
Q 3034 2003 2786 2293 
Q 2538 2584 2113 2584 
z
M 3366 4563 
L 3366 3988 
Q 3128 4100 2886 4159 
Q 2644 4219 2406 4219 
Q 1781 4219 1451 3797 
Q 1122 3375 1075 2522 
Q 1259 2794 1537 2939 
Q 1816 3084 2150 3084 
Q 2853 3084 3261 2657 
Q 3669 2231 3669 1497 
Q 3669 778 3244 343 
Q 2819 -91 2113 -91 
Q 1303 -91 875 529 
Q 447 1150 447 2328 
Q 447 3434 972 4092 
Q 1497 4750 2381 4750 
Q 2619 4750 2861 4703 
Q 3103 4656 3366 4563 
z
" transform="scale(0.015625)"/>
       </defs>
       <use xlink:href="#DejaVuSans-36"/>
      </g>
     </g>
    </g>
    <g id="ytick_5">
     <g id="line2d_11">
      <g>
       <use xlink:href="#m0f20369287" x="54.84875" y="179.674137" style="stroke: #000000; stroke-width: 0.8"/>
      </g>
     </g>
     <g id="text_12">
      <!-- 8 -->
      <g transform="translate(38.305 185.372965) scale(0.15 -0.15)">
       <defs>
        <path id="DejaVuSans-38" d="M 2034 2216 
Q 1584 2216 1326 1975 
Q 1069 1734 1069 1313 
Q 1069 891 1326 650 
Q 1584 409 2034 409 
Q 2484 409 2743 651 
Q 3003 894 3003 1313 
Q 3003 1734 2745 1975 
Q 2488 2216 2034 2216 
z
M 1403 2484 
Q 997 2584 770 2862 
Q 544 3141 544 3541 
Q 544 4100 942 4425 
Q 1341 4750 2034 4750 
Q 2731 4750 3128 4425 
Q 3525 4100 3525 3541 
Q 3525 3141 3298 2862 
Q 3072 2584 2669 2484 
Q 3125 2378 3379 2068 
Q 3634 1759 3634 1313 
Q 3634 634 3220 271 
Q 2806 -91 2034 -91 
Q 1263 -91 848 271 
Q 434 634 434 1313 
Q 434 1759 690 2068 
Q 947 2378 1403 2484 
z
M 1172 3481 
Q 1172 3119 1398 2916 
Q 1625 2713 2034 2713 
Q 2441 2713 2670 2916 
Q 2900 3119 2900 3481 
Q 2900 3844 2670 4047 
Q 2441 4250 2034 4250 
Q 1625 4250 1398 4047 
Q 1172 3844 1172 3481 
z
" transform="scale(0.015625)"/>
       </defs>
       <use xlink:href="#DejaVuSans-38"/>
      </g>
     </g>
    </g>
    <g id="ytick_6">
     <g id="line2d_12">
      <g>
       <use xlink:href="#m0f20369287" x="54.84875" y="147.642671" style="stroke: #000000; stroke-width: 0.8"/>
      </g>
     </g>
     <g id="text_13">
      <!-- 10 -->
      <g transform="translate(28.76125 153.341499) scale(0.15 -0.15)">
       <use xlink:href="#DejaVuSans-31"/>
       <use xlink:href="#DejaVuSans-30" transform="translate(63.623047 0)"/>
      </g>
     </g>
    </g>
    <g id="ytick_7">
     <g id="line2d_13">
      <g>
       <use xlink:href="#m0f20369287" x="54.84875" y="115.611205" style="stroke: #000000; stroke-width: 0.8"/>
      </g>
     </g>
     <g id="text_14">
      <!-- 12 -->
      <g transform="translate(28.76125 121.310034) scale(0.15 -0.15)">
       <use xlink:href="#DejaVuSans-31"/>
       <use xlink:href="#DejaVuSans-32" transform="translate(63.623047 0)"/>
      </g>
     </g>
    </g>
    <g id="ytick_8">
     <g id="line2d_14">
      <g>
       <use xlink:href="#m0f20369287" x="54.84875" y="83.57974" style="stroke: #000000; stroke-width: 0.8"/>
      </g>
     </g>
     <g id="text_15">
      <!-- 14 -->
      <g transform="translate(28.76125 89.278568) scale(0.15 -0.15)">
       <use xlink:href="#DejaVuSans-31"/>
       <use xlink:href="#DejaVuSans-34" transform="translate(63.623047 0)"/>
      </g>
     </g>
    </g>
    <g id="ytick_9">
     <g id="line2d_15">
      <g>
       <use xlink:href="#m0f20369287" x="54.84875" y="51.548274" style="stroke: #000000; stroke-width: 0.8"/>
      </g>
     </g>
     <g id="text_16">
      <!-- 16 -->
      <g transform="translate(28.76125 57.247102) scale(0.15 -0.15)">
       <use xlink:href="#DejaVuSans-31"/>
       <use xlink:href="#DejaVuSans-36" transform="translate(63.623047 0)"/>
      </g>
     </g>
    </g>
    <g id="text_17">
     <!-- rapamycin [µM] -->
     <g transform="translate(20.877188 261.838125) rotate(-90) scale(0.18 -0.18)">
      <defs>
       <path id="DejaVuSans-Bold-61" d="M 2106 1575 
Q 1756 1575 1579 1456 
Q 1403 1338 1403 1106 
Q 1403 894 1545 773 
Q 1688 653 1941 653 
Q 2256 653 2472 879 
Q 2688 1106 2688 1447 
L 2688 1575 
L 2106 1575 
z
M 3816 1997 
L 3816 0 
L 2688 0 
L 2688 519 
Q 2463 200 2181 54 
Q 1900 -91 1497 -91 
Q 953 -91 614 226 
Q 275 544 275 1050 
Q 275 1666 698 1953 
Q 1122 2241 2028 2241 
L 2688 2241 
L 2688 2328 
Q 2688 2594 2478 2717 
Q 2269 2841 1825 2841 
Q 1466 2841 1156 2769 
Q 847 2697 581 2553 
L 581 3406 
Q 941 3494 1303 3539 
Q 1666 3584 2028 3584 
Q 2975 3584 3395 3211 
Q 3816 2838 3816 1997 
z
" transform="scale(0.015625)"/>
       <path id="DejaVuSans-Bold-70" d="M 1656 506 
L 1656 -1331 
L 538 -1331 
L 538 3500 
L 1656 3500 
L 1656 2988 
Q 1888 3294 2169 3439 
Q 2450 3584 2816 3584 
Q 3463 3584 3878 3070 
Q 4294 2556 4294 1747 
Q 4294 938 3878 423 
Q 3463 -91 2816 -91 
Q 2450 -91 2169 54 
Q 1888 200 1656 506 
z
M 2400 2772 
Q 2041 2772 1848 2508 
Q 1656 2244 1656 1747 
Q 1656 1250 1848 986 
Q 2041 722 2400 722 
Q 2759 722 2948 984 
Q 3138 1247 3138 1747 
Q 3138 2247 2948 2509 
Q 2759 2772 2400 2772 
z
" transform="scale(0.015625)"/>
       <path id="DejaVuSans-Bold-79" d="M 78 3500 
L 1197 3500 
L 2138 1125 
L 2938 3500 
L 4056 3500 
L 2584 -331 
Q 2363 -916 2067 -1148 
Q 1772 -1381 1288 -1381 
L 641 -1381 
L 641 -647 
L 991 -647 
Q 1275 -647 1404 -556 
Q 1534 -466 1606 -231 
L 1638 -134 
L 78 3500 
z
" transform="scale(0.015625)"/>
       <path id="DejaVuSans-Bold-63" d="M 3366 3391 
L 3366 2478 
Q 3138 2634 2908 2709 
Q 2678 2784 2431 2784 
Q 1963 2784 1702 2511 
Q 1441 2238 1441 1747 
Q 1441 1256 1702 982 
Q 1963 709 2431 709 
Q 2694 709 2930 787 
Q 3166 866 3366 1019 
L 3366 103 
Q 3103 6 2833 -42 
Q 2563 -91 2291 -91 
Q 1344 -91 809 395 
Q 275 881 275 1747 
Q 275 2613 809 3098 
Q 1344 3584 2291 3584 
Q 2566 3584 2833 3536 
Q 3100 3488 3366 3391 
z
" transform="scale(0.015625)"/>
       <path id="DejaVuSans-Bold-6e" d="M 4056 2131 
L 4056 0 
L 2931 0 
L 2931 347 
L 2931 1631 
Q 2931 2084 2911 2256 
Q 2891 2428 2841 2509 
Q 2775 2619 2662 2680 
Q 2550 2741 2406 2741 
Q 2056 2741 1856 2470 
Q 1656 2200 1656 1722 
L 1656 0 
L 538 0 
L 538 3500 
L 1656 3500 
L 1656 2988 
Q 1909 3294 2193 3439 
Q 2478 3584 2822 3584 
Q 3428 3584 3742 3212 
Q 4056 2841 4056 2131 
z
" transform="scale(0.015625)"/>
       <path id="DejaVuSans-Bold-b5" d="M 544 -1338 
L 544 3500 
L 1672 3500 
L 1672 1466 
Q 1672 1103 1828 926 
Q 1984 750 2303 750 
Q 2625 750 2781 926 
Q 2938 1103 2938 1466 
L 2938 3500 
L 4063 3500 
L 4063 1159 
Q 4063 938 4114 850 
Q 4166 763 4288 763 
Q 4344 763 4395 778 
Q 4447 794 4506 831 
L 4506 50 
Q 4341 -22 4195 -56 
Q 4050 -91 3909 -91 
Q 3631 -91 3454 26 
Q 3278 144 3169 403 
Q 3022 156 2811 32 
Q 2600 -91 2322 -91 
Q 2091 -91 1928 -17 
Q 1766 56 1672 206 
L 1672 -1338 
L 544 -1338 
z
" transform="scale(0.015625)"/>
       <path id="DejaVuSans-Bold-4d" d="M 588 4666 
L 2119 4666 
L 3181 2169 
L 4250 4666 
L 5778 4666 
L 5778 0 
L 4641 0 
L 4641 3413 
L 3566 897 
L 2803 897 
L 1728 3413 
L 1728 0 
L 588 0 
L 588 4666 
z
" transform="scale(0.015625)"/>
      </defs>
      <use xlink:href="#DejaVuSans-Bold-72"/>
      <use xlink:href="#DejaVuSans-Bold-61" transform="translate(49.316406 0)"/>
      <use xlink:href="#DejaVuSans-Bold-70" transform="translate(116.796875 0)"/>
      <use xlink:href="#DejaVuSans-Bold-61" transform="translate(188.378906 0)"/>
      <use xlink:href="#DejaVuSans-Bold-6d" transform="translate(255.859375 0)"/>
      <use xlink:href="#DejaVuSans-Bold-79" transform="translate(360.058594 0)"/>
      <use xlink:href="#DejaVuSans-Bold-63" transform="translate(425.244141 0)"/>
      <use xlink:href="#DejaVuSans-Bold-69" transform="translate(484.521484 0)"/>
      <use xlink:href="#DejaVuSans-Bold-6e" transform="translate(518.798828 0)"/>
      <use xlink:href="#DejaVuSans-Bold-20" transform="translate(589.990234 0)"/>
      <use xlink:href="#DejaVuSans-Bold-5b" transform="translate(624.804688 0)"/>
      <use xlink:href="#DejaVuSans-Bold-b5" transform="translate(670.507812 0)"/>
      <use xlink:href="#DejaVuSans-Bold-4d" transform="translate(744.091797 0)"/>
      <use xlink:href="#DejaVuSans-Bold-5d" transform="translate(843.603516 0)"/>
     </g>
    </g>
   </g>
   <g id="line2d_16">
    <path d="M 72.603295 307.8 
L 72.780841 307.701996 
L 72.958386 306.70317 
L 73.135932 303.965761 
L 73.491023 292.708061 
L 74.023659 265.574256 
L 76.33175 135.399291 
L 77.219477 100.950137 
L 77.929659 81.065981 
L 78.639841 67.458971 
L 79.172477 60.9277 
L 79.705114 57.159117 
L 80.060205 56.006813 
L 80.23775 55.8 
L 80.415295 55.822654 
L 80.592841 56.062509 
L 80.947932 57.146148 
L 81.480568 60.110783 
L 82.19075 66.120983 
L 83.078477 76.103372 
L 84.321295 92.977076 
L 89.825205 171.371441 
L 91.423114 189.721355 
L 93.021023 205.44195 
L 94.441386 217.331711 
L 95.86175 227.445794 
L 97.282114 235.988609 
L 98.702477 243.165808 
L 100.122841 249.171391 
L 101.543205 254.181303 
L 102.963568 258.351032 
L 104.383932 261.815539 
L 105.804295 264.69048 
L 107.224659 267.074043 
L 108.645023 269.049015 
L 110.242932 270.868468 
L 111.840841 272.340124 
L 113.616295 273.647901 
L 115.39175 274.68152 
L 117.34475 275.570751 
L 119.652841 276.365904 
L 122.316023 277.03044 
L 125.511841 277.579152 
L 129.417841 278.010873 
L 134.566659 278.34586 
L 142.378659 278.608489 
L 157.292477 278.844206 
L 224.049568 279.52365 
L 427.694205 281.463607 
L 427.694205 281.463607 
" clip-path="url(#p77722dcbd5)" style="fill: none; stroke: #e377c2; stroke-width: 2; stroke-linecap: square"/>
   </g>
   <g id="line2d_17">
    <path d="M 76.302159 307.129062 
M 83.699886 304.929958 
L 87.39875 305.394531 
L 102.194205 305.612713 
L 116.989659 306.324866 
L 131.785114 306.512224 
L 146.580568 306.777755 
L 161.376023 306.954785 
L 190.966932 307.189918 
L 220.557841 307.29557 
L 250.14875 307.322246 
L 427.694205 307.455154 
" clip-path="url(#p77722dcbd5)" style="fill: none; stroke-dasharray: 3.7,1.6; stroke-dashoffset: 0; stroke: #e377c2"/>
    <defs>
     <path id="m8eec964982" d="M -3 3 
L 3 3 
L 3 -3 
L -3 -3 
z
" style="stroke: #000000; stroke-linejoin: miter"/>
    </defs>
    <g clip-path="url(#p77722dcbd5)">
     <use xlink:href="#m8eec964982" x="76.302159" y="307.129062" style="fill: #e377c2; stroke: #000000; stroke-linejoin: miter"/>
     <use xlink:href="#m8eec964982" x="83.699886" y="304.929958" style="fill: #e377c2; stroke: #000000; stroke-linejoin: miter"/>
     <use xlink:href="#m8eec964982" x="87.39875" y="305.394531" style="fill: #e377c2; stroke: #000000; stroke-linejoin: miter"/>
     <use xlink:href="#m8eec964982" x="102.194205" y="305.612713" style="fill: #e377c2; stroke: #000000; stroke-linejoin: miter"/>
     <use xlink:href="#m8eec964982" x="116.989659" y="306.324866" style="fill: #e377c2; stroke: #000000; stroke-linejoin: miter"/>
     <use xlink:href="#m8eec964982" x="131.785114" y="306.512224" style="fill: #e377c2; stroke: #000000; stroke-linejoin: miter"/>
     <use xlink:href="#m8eec964982" x="146.580568" y="306.777755" style="fill: #e377c2; stroke: #000000; stroke-linejoin: miter"/>
     <use xlink:href="#m8eec964982" x="161.376023" y="306.954785" style="fill: #e377c2; stroke: #000000; stroke-linejoin: miter"/>
     <use xlink:href="#m8eec964982" x="190.966932" y="307.189918" style="fill: #e377c2; stroke: #000000; stroke-linejoin: miter"/>
     <use xlink:href="#m8eec964982" x="220.557841" y="307.29557" style="fill: #e377c2; stroke: #000000; stroke-linejoin: miter"/>
     <use xlink:href="#m8eec964982" x="250.14875" y="307.322246" style="fill: #e377c2; stroke: #000000; stroke-linejoin: miter"/>
     <use xlink:href="#m8eec964982" x="427.694205" y="307.455154" style="fill: #e377c2; stroke: #000000; stroke-linejoin: miter"/>
    </g>
   </g>
   <g id="line2d_18">
    <path d="M 72.603295 307.8 
L 72.780841 307.701996 
L 72.958386 306.70317 
L 73.135932 303.965761 
L 73.491023 292.708061 
L 74.023659 265.574256 
L 76.33175 135.399291 
L 77.219477 100.950137 
L 77.929659 81.065981 
L 78.639841 67.458971 
L 79.172477 60.9277 
L 79.705114 57.159117 
L 80.060205 56.006813 
L 80.23775 55.8 
L 80.415295 55.822654 
L 80.592841 56.062509 
L 80.947932 57.146148 
L 81.480568 60.110783 
L 82.19075 66.120983 
L 83.078477 76.103372 
L 84.321295 92.977076 
L 89.825205 171.371441 
L 91.423114 189.721355 
L 93.021023 205.44195 
L 94.441386 217.331711 
L 95.86175 227.445794 
L 97.282114 235.988609 
L 98.702477 243.165808 
L 100.122841 249.171391 
L 101.543205 254.181303 
L 102.963568 258.351032 
L 104.383932 261.815539 
L 105.804295 264.69048 
L 107.224659 267.074043 
L 108.645023 269.049015 
L 110.242932 270.868468 
L 111.840841 272.340124 
L 113.616295 273.647901 
L 115.39175 274.68152 
L 117.34475 275.570751 
L 119.652841 276.365904 
L 122.316023 277.03044 
L 125.511841 277.579152 
L 129.417841 278.010873 
L 134.566659 278.34586 
L 142.378659 278.608489 
L 157.292477 278.844206 
L 224.049568 279.52365 
L 427.694205 281.463607 
L 427.694205 281.463607 
" clip-path="url(#p77722dcbd5)" style="fill: none; stroke: #7f7f7f; stroke-width: 2; stroke-linecap: square"/>
   </g>
   <g id="line2d_19">
    <path d="M 76.302159 306.705916 
L 80.001023 305.811104 
M 87.39875 305.991501 
L 102.194205 306.596781 
L 116.989659 306.919631 
L 131.785114 307.173117 
L 146.580568 307.267405 
L 161.376023 307.382926 
L 190.966932 307.47339 
L 220.557841 307.540735 
L 250.14875 307.591379 
L 427.694205 307.638834 
" clip-path="url(#p77722dcbd5)" style="fill: none; stroke-dasharray: 3.7,1.6; stroke-dashoffset: 0; stroke: #7f7f7f"/>
    <defs>
     <path id="md546689b05" d="M -3 3 
L 3 3 
L 3 -3 
L -3 -3 
z
" style="stroke: #000000; stroke-linejoin: miter"/>
    </defs>
    <g clip-path="url(#p77722dcbd5)">
     <use xlink:href="#md546689b05" x="76.302159" y="306.705916" style="fill: #7f7f7f; stroke: #000000; stroke-linejoin: miter"/>
     <use xlink:href="#md546689b05" x="80.001023" y="305.811104" style="fill: #7f7f7f; stroke: #000000; stroke-linejoin: miter"/>
     <use xlink:href="#md546689b05" x="87.39875" y="305.991501" style="fill: #7f7f7f; stroke: #000000; stroke-linejoin: miter"/>
     <use xlink:href="#md546689b05" x="102.194205" y="306.596781" style="fill: #7f7f7f; stroke: #000000; stroke-linejoin: miter"/>
     <use xlink:href="#md546689b05" x="116.989659" y="306.919631" style="fill: #7f7f7f; stroke: #000000; stroke-linejoin: miter"/>
     <use xlink:href="#md546689b05" x="131.785114" y="307.173117" style="fill: #7f7f7f; stroke: #000000; stroke-linejoin: miter"/>
     <use xlink:href="#md546689b05" x="146.580568" y="307.267405" style="fill: #7f7f7f; stroke: #000000; stroke-linejoin: miter"/>
     <use xlink:href="#md546689b05" x="161.376023" y="307.382926" style="fill: #7f7f7f; stroke: #000000; stroke-linejoin: miter"/>
     <use xlink:href="#md546689b05" x="190.966932" y="307.47339" style="fill: #7f7f7f; stroke: #000000; stroke-linejoin: miter"/>
     <use xlink:href="#md546689b05" x="220.557841" y="307.540735" style="fill: #7f7f7f; stroke: #000000; stroke-linejoin: miter"/>
     <use xlink:href="#md546689b05" x="250.14875" y="307.591379" style="fill: #7f7f7f; stroke: #000000; stroke-linejoin: miter"/>
     <use xlink:href="#md546689b05" x="427.694205" y="307.638834" style="fill: #7f7f7f; stroke: #000000; stroke-linejoin: miter"/>
    </g>
   </g>
   <g id="line2d_20">
    <path d="M 72.603295 307.8 
L 72.780841 307.701996 
L 72.958386 306.70317 
L 73.135932 303.965761 
L 73.491023 292.708061 
L 74.023659 265.574256 
L 76.33175 135.399291 
L 77.219477 100.950137 
L 77.929659 81.065981 
L 78.639841 67.458971 
L 79.172477 60.9277 
L 79.705114 57.159117 
L 80.060205 56.006813 
L 80.23775 55.8 
L 80.415295 55.822654 
L 80.592841 56.062509 
L 80.947932 57.146148 
L 81.480568 60.110783 
L 82.19075 66.120983 
L 83.078477 76.103372 
L 84.321295 92.977076 
L 89.825205 171.371441 
L 91.423114 189.721355 
L 93.021023 205.44195 
L 94.441386 217.331711 
L 95.86175 227.445794 
L 97.282114 235.988609 
L 98.702477 243.165808 
L 100.122841 249.171391 
L 101.543205 254.181303 
L 102.963568 258.351032 
L 104.383932 261.815539 
L 105.804295 264.69048 
L 107.224659 267.074043 
L 108.645023 269.049015 
L 110.242932 270.868468 
L 111.840841 272.340124 
L 113.616295 273.647901 
L 115.39175 274.68152 
L 117.34475 275.570751 
L 119.652841 276.365904 
L 122.316023 277.03044 
L 125.511841 277.579152 
L 129.417841 278.010873 
L 134.566659 278.34586 
L 142.378659 278.608489 
L 157.292477 278.844206 
L 224.049568 279.52365 
L 427.694205 281.463607 
L 427.694205 281.463607 
" clip-path="url(#p77722dcbd5)" style="fill: none; stroke: #bcbd22; stroke-width: 2; stroke-linecap: square"/>
   </g>
   <g id="line2d_21">
    <path d="M 76.302159 307.27459 
M 102.194205 306.763775 
L 116.989659 307.062136 
L 131.785114 307.198148 
L 146.580568 307.315712 
L 161.376023 307.382926 
L 190.966932 307.514873 
L 220.557841 307.567431 
L 250.14875 307.602412 
L 427.694205 307.670315 
" clip-path="url(#p77722dcbd5)" style="fill: none; stroke-dasharray: 3.7,1.6; stroke-dashoffset: 0; stroke: #bcbd22"/>
    <defs>
     <path id="mc7c6fa0b55" d="M -3 3 
L 3 3 
L 3 -3 
L -3 -3 
z
" style="stroke: #000000; stroke-linejoin: miter"/>
    </defs>
    <g clip-path="url(#p77722dcbd5)">
     <use xlink:href="#mc7c6fa0b55" x="76.302159" y="307.27459" style="fill: #bcbd22; stroke: #000000; stroke-linejoin: miter"/>
     <use xlink:href="#mc7c6fa0b55" x="102.194205" y="306.763775" style="fill: #bcbd22; stroke: #000000; stroke-linejoin: miter"/>
     <use xlink:href="#mc7c6fa0b55" x="116.989659" y="307.062136" style="fill: #bcbd22; stroke: #000000; stroke-linejoin: miter"/>
     <use xlink:href="#mc7c6fa0b55" x="131.785114" y="307.198148" style="fill: #bcbd22; stroke: #000000; stroke-linejoin: miter"/>
     <use xlink:href="#mc7c6fa0b55" x="146.580568" y="307.315712" style="fill: #bcbd22; stroke: #000000; stroke-linejoin: miter"/>
     <use xlink:href="#mc7c6fa0b55" x="161.376023" y="307.382926" style="fill: #bcbd22; stroke: #000000; stroke-linejoin: miter"/>
     <use xlink:href="#mc7c6fa0b55" x="190.966932" y="307.514873" style="fill: #bcbd22; stroke: #000000; stroke-linejoin: miter"/>
     <use xlink:href="#mc7c6fa0b55" x="220.557841" y="307.567431" style="fill: #bcbd22; stroke: #000000; stroke-linejoin: miter"/>
     <use xlink:href="#mc7c6fa0b55" x="250.14875" y="307.602412" style="fill: #bcbd22; stroke: #000000; stroke-linejoin: miter"/>
     <use xlink:href="#mc7c6fa0b55" x="427.694205" y="307.670315" style="fill: #bcbd22; stroke: #000000; stroke-linejoin: miter"/>
    </g>
   </g>
   <g id="line2d_22">
    <path d="M 72.603295 307.8 
L 72.780841 307.701996 
L 72.958386 306.70317 
L 73.135932 303.965761 
L 73.491023 292.708061 
L 74.023659 265.574256 
L 76.33175 135.399291 
L 77.219477 100.950137 
L 77.929659 81.065981 
L 78.639841 67.458971 
L 79.172477 60.9277 
L 79.705114 57.159117 
L 80.060205 56.006813 
L 80.23775 55.8 
L 80.415295 55.822654 
L 80.592841 56.062509 
L 80.947932 57.146148 
L 81.480568 60.110783 
L 82.19075 66.120983 
L 83.078477 76.103372 
L 84.321295 92.977076 
L 89.825205 171.371441 
L 91.423114 189.721355 
L 93.021023 205.44195 
L 94.441386 217.331711 
L 95.86175 227.445794 
L 97.282114 235.988609 
L 98.702477 243.165808 
L 100.122841 249.171391 
L 101.543205 254.181303 
L 102.963568 258.351032 
L 104.383932 261.815539 
L 105.804295 264.69048 
L 107.224659 267.074043 
L 108.645023 269.049015 
L 110.242932 270.868468 
L 111.840841 272.340124 
L 113.616295 273.647901 
L 115.39175 274.68152 
L 117.34475 275.570751 
L 119.652841 276.365904 
L 122.316023 277.03044 
L 125.511841 277.579152 
L 129.417841 278.010873 
L 134.566659 278.34586 
L 142.378659 278.608489 
L 157.292477 278.844206 
L 224.049568 279.52365 
L 427.694205 281.463607 
L 427.694205 281.463607 
" clip-path="url(#p77722dcbd5)" style="fill: none; stroke: #17becf; stroke-width: 2; stroke-linecap: square"/>
   </g>
   <g id="line2d_23">
    <path d="M 76.302159 306.364401 
L 80.001023 305.426984 
M 102.194205 306.284243 
L 116.989659 306.690953 
L 131.785114 306.895387 
L 146.580568 307.020937 
L 161.376023 307.173117 
L 190.966932 307.328692 
L 220.557841 307.435899 
L 250.14875 307.464396 
L 427.694205 307.557759 
" clip-path="url(#p77722dcbd5)" style="fill: none; stroke-dasharray: 3.7,1.6; stroke-dashoffset: 0; stroke: #17becf"/>
    <defs>
     <path id="m784e8075a2" d="M -3 3 
L 3 3 
L 3 -3 
L -3 -3 
z
" style="stroke: #000000; stroke-linejoin: miter"/>
    </defs>
    <g clip-path="url(#p77722dcbd5)">
     <use xlink:href="#m784e8075a2" x="76.302159" y="306.364401" style="fill: #17becf; stroke: #000000; stroke-linejoin: miter"/>
     <use xlink:href="#m784e8075a2" x="80.001023" y="305.426984" style="fill: #17becf; stroke: #000000; stroke-linejoin: miter"/>
     <use xlink:href="#m784e8075a2" x="102.194205" y="306.284243" style="fill: #17becf; stroke: #000000; stroke-linejoin: miter"/>
     <use xlink:href="#m784e8075a2" x="116.989659" y="306.690953" style="fill: #17becf; stroke: #000000; stroke-linejoin: miter"/>
     <use xlink:href="#m784e8075a2" x="131.785114" y="306.895387" style="fill: #17becf; stroke: #000000; stroke-linejoin: miter"/>
     <use xlink:href="#m784e8075a2" x="146.580568" y="307.020937" style="fill: #17becf; stroke: #000000; stroke-linejoin: miter"/>
     <use xlink:href="#m784e8075a2" x="161.376023" y="307.173117" style="fill: #17becf; stroke: #000000; stroke-linejoin: miter"/>
     <use xlink:href="#m784e8075a2" x="190.966932" y="307.328692" style="fill: #17becf; stroke: #000000; stroke-linejoin: miter"/>
     <use xlink:href="#m784e8075a2" x="220.557841" y="307.435899" style="fill: #17becf; stroke: #000000; stroke-linejoin: miter"/>
     <use xlink:href="#m784e8075a2" x="250.14875" y="307.464396" style="fill: #17becf; stroke: #000000; stroke-linejoin: miter"/>
     <use xlink:href="#m784e8075a2" x="427.694205" y="307.557759" style="fill: #17becf; stroke: #000000; stroke-linejoin: miter"/>
    </g>
   </g>
   <g id="line2d_24">
    <path d="M 72.603295 307.8 
L 72.780841 307.701996 
L 72.958386 306.70317 
L 73.135932 303.965761 
L 73.491023 292.708061 
L 74.023659 265.574256 
L 76.33175 135.399291 
L 77.219477 100.950137 
L 77.929659 81.065981 
L 78.639841 67.458971 
L 79.172477 60.9277 
L 79.705114 57.159117 
L 80.060205 56.006813 
L 80.23775 55.8 
L 80.415295 55.822654 
L 80.592841 56.062509 
L 80.947932 57.146148 
L 81.480568 60.110783 
L 82.19075 66.120983 
L 83.078477 76.103372 
L 84.321295 92.977076 
L 89.825205 171.371441 
L 91.423114 189.721355 
L 93.021023 205.44195 
L 94.441386 217.331711 
L 95.86175 227.445794 
L 97.282114 235.988609 
L 98.702477 243.165808 
L 100.122841 249.171391 
L 101.543205 254.181303 
L 102.963568 258.351032 
L 104.383932 261.815539 
L 105.804295 264.69048 
L 107.224659 267.074043 
L 108.645023 269.049015 
L 110.242932 270.868468 
L 111.840841 272.340124 
L 113.616295 273.647901 
L 115.39175 274.68152 
L 117.34475 275.570751 
L 119.652841 276.365904 
L 122.316023 277.03044 
L 125.511841 277.579152 
L 129.417841 278.010873 
L 134.566659 278.34586 
L 142.378659 278.608489 
L 157.292477 278.844206 
L 224.049568 279.52365 
L 427.694205 281.463607 
L 427.694205 281.463607 
" clip-path="url(#p77722dcbd5)" style="fill: none; stroke: #1f77b4; stroke-width: 2; stroke-linecap: square"/>
   </g>
   <g id="line2d_25">
    <path d="M 76.302159 307.173117 
M 83.699886 305.294485 
L 87.39875 305.426984 
L 102.194205 306.133047 
L 116.989659 306.512224 
L 131.785114 306.777755 
L 146.580568 306.966188 
L 161.376023 307.138114 
L 190.966932 307.328692 
L 220.557841 307.435899 
L 250.14875 307.464396 
L 427.694205 307.557759 
" clip-path="url(#p77722dcbd5)" style="fill: none; stroke-dasharray: 3.7,1.6; stroke-dashoffset: 0; stroke: #1f77b4"/>
    <defs>
     <path id="ma8f5b7c0df" d="M -3 3 
L 3 3 
L 3 -3 
L -3 -3 
z
" style="stroke: #000000; stroke-linejoin: miter"/>
    </defs>
    <g clip-path="url(#p77722dcbd5)">
     <use xlink:href="#ma8f5b7c0df" x="76.302159" y="307.173117" style="fill: #1f77b4; stroke: #000000; stroke-linejoin: miter"/>
     <use xlink:href="#ma8f5b7c0df" x="83.699886" y="305.294485" style="fill: #1f77b4; stroke: #000000; stroke-linejoin: miter"/>
     <use xlink:href="#ma8f5b7c0df" x="87.39875" y="305.426984" style="fill: #1f77b4; stroke: #000000; stroke-linejoin: miter"/>
     <use xlink:href="#ma8f5b7c0df" x="102.194205" y="306.133047" style="fill: #1f77b4; stroke: #000000; stroke-linejoin: miter"/>
     <use xlink:href="#ma8f5b7c0df" x="116.989659" y="306.512224" style="fill: #1f77b4; stroke: #000000; stroke-linejoin: miter"/>
     <use xlink:href="#ma8f5b7c0df" x="131.785114" y="306.777755" style="fill: #1f77b4; stroke: #000000; stroke-linejoin: miter"/>
     <use xlink:href="#ma8f5b7c0df" x="146.580568" y="306.966188" style="fill: #1f77b4; stroke: #000000; stroke-linejoin: miter"/>
     <use xlink:href="#ma8f5b7c0df" x="161.376023" y="307.138114" style="fill: #1f77b4; stroke: #000000; stroke-linejoin: miter"/>
     <use xlink:href="#ma8f5b7c0df" x="190.966932" y="307.328692" style="fill: #1f77b4; stroke: #000000; stroke-linejoin: miter"/>
     <use xlink:href="#ma8f5b7c0df" x="220.557841" y="307.435899" style="fill: #1f77b4; stroke: #000000; stroke-linejoin: miter"/>
     <use xlink:href="#ma8f5b7c0df" x="250.14875" y="307.464396" style="fill: #1f77b4; stroke: #000000; stroke-linejoin: miter"/>
     <use xlink:href="#ma8f5b7c0df" x="427.694205" y="307.557759" style="fill: #1f77b4; stroke: #000000; stroke-linejoin: miter"/>
    </g>
   </g>
   <g id="line2d_26">
    <path d="M 72.603295 307.8 
L 72.780841 307.701996 
L 72.958386 306.70317 
L 73.135932 303.965761 
L 73.491023 292.708061 
L 74.023659 265.574256 
L 76.33175 135.399291 
L 77.219477 100.950137 
L 77.929659 81.065981 
L 78.639841 67.458971 
L 79.172477 60.9277 
L 79.705114 57.159117 
L 80.060205 56.006813 
L 80.23775 55.8 
L 80.415295 55.822654 
L 80.592841 56.062509 
L 80.947932 57.146148 
L 81.480568 60.110783 
L 82.19075 66.120983 
L 83.078477 76.103372 
L 84.321295 92.977076 
L 89.825205 171.371441 
L 91.423114 189.721355 
L 93.021023 205.44195 
L 94.441386 217.331711 
L 95.86175 227.445794 
L 97.282114 235.988609 
L 98.702477 243.165808 
L 100.122841 249.171391 
L 101.543205 254.181303 
L 102.963568 258.351032 
L 104.383932 261.815539 
L 105.804295 264.69048 
L 107.224659 267.074043 
L 108.645023 269.049015 
L 110.242932 270.868468 
L 111.840841 272.340124 
L 113.616295 273.647901 
L 115.39175 274.68152 
L 117.34475 275.570751 
L 119.652841 276.365904 
L 122.316023 277.03044 
L 125.511841 277.579152 
L 129.417841 278.010873 
L 134.566659 278.34586 
L 142.378659 278.608489 
L 157.292477 278.844206 
L 224.049568 279.52365 
L 427.694205 281.463607 
L 427.694205 281.463607 
" clip-path="url(#p77722dcbd5)" style="fill: none; stroke: #ff7f0e; stroke-width: 2; stroke-linecap: square"/>
   </g>
   <g id="line2d_27">
    <path d="M 76.302159 306.563646 
L 80.001023 305.783904 
L 83.699886 305.837937 
L 87.39875 305.991501 
L 102.194205 306.644827 
L 116.989659 306.931508 
L 131.785114 307.173117 
L 146.580568 307.267405 
L 161.376023 307.388553 
L 190.966932 307.482144 
L 220.557841 307.547683 
L 250.14875 307.573664 
L 427.694205 307.647357 
" clip-path="url(#p77722dcbd5)" style="fill: none; stroke-dasharray: 3.7,1.6; stroke-dashoffset: 0; stroke: #ff7f0e"/>
    <defs>
     <path id="md7b1dc0b3a" d="M -3 3 
L 3 3 
L 3 -3 
L -3 -3 
z
" style="stroke: #000000; stroke-linejoin: miter"/>
    </defs>
    <g clip-path="url(#p77722dcbd5)">
     <use xlink:href="#md7b1dc0b3a" x="76.302159" y="306.563646" style="fill: #ff7f0e; stroke: #000000; stroke-linejoin: miter"/>
     <use xlink:href="#md7b1dc0b3a" x="80.001023" y="305.783904" style="fill: #ff7f0e; stroke: #000000; stroke-linejoin: miter"/>
     <use xlink:href="#md7b1dc0b3a" x="83.699886" y="305.837937" style="fill: #ff7f0e; stroke: #000000; stroke-linejoin: miter"/>
     <use xlink:href="#md7b1dc0b3a" x="87.39875" y="305.991501" style="fill: #ff7f0e; stroke: #000000; stroke-linejoin: miter"/>
     <use xlink:href="#md7b1dc0b3a" x="102.194205" y="306.644827" style="fill: #ff7f0e; stroke: #000000; stroke-linejoin: miter"/>
     <use xlink:href="#md7b1dc0b3a" x="116.989659" y="306.931508" style="fill: #ff7f0e; stroke: #000000; stroke-linejoin: miter"/>
     <use xlink:href="#md7b1dc0b3a" x="131.785114" y="307.173117" style="fill: #ff7f0e; stroke: #000000; stroke-linejoin: miter"/>
     <use xlink:href="#md7b1dc0b3a" x="146.580568" y="307.267405" style="fill: #ff7f0e; stroke: #000000; stroke-linejoin: miter"/>
     <use xlink:href="#md7b1dc0b3a" x="161.376023" y="307.388553" style="fill: #ff7f0e; stroke: #000000; stroke-linejoin: miter"/>
     <use xlink:href="#md7b1dc0b3a" x="190.966932" y="307.482144" style="fill: #ff7f0e; stroke: #000000; stroke-linejoin: miter"/>
     <use xlink:href="#md7b1dc0b3a" x="220.557841" y="307.547683" style="fill: #ff7f0e; stroke: #000000; stroke-linejoin: miter"/>
     <use xlink:href="#md7b1dc0b3a" x="250.14875" y="307.573664" style="fill: #ff7f0e; stroke: #000000; stroke-linejoin: miter"/>
     <use xlink:href="#md7b1dc0b3a" x="427.694205" y="307.647357" style="fill: #ff7f0e; stroke: #000000; stroke-linejoin: miter"/>
    </g>
   </g>
   <g id="line2d_28">
    <path d="M 72.603295 307.8 
L 72.780841 307.701996 
L 72.958386 306.70317 
L 73.135932 303.965761 
L 73.491023 292.708061 
L 74.023659 265.574256 
L 76.33175 135.399291 
L 77.219477 100.950137 
L 77.929659 81.065981 
L 78.639841 67.458971 
L 79.172477 60.9277 
L 79.705114 57.159117 
L 80.060205 56.006813 
L 80.23775 55.8 
L 80.415295 55.822654 
L 80.592841 56.062509 
L 80.947932 57.146148 
L 81.480568 60.110783 
L 82.19075 66.120983 
L 83.078477 76.103372 
L 84.321295 92.977076 
L 89.825205 171.371441 
L 91.423114 189.721355 
L 93.021023 205.44195 
L 94.441386 217.331711 
L 95.86175 227.445794 
L 97.282114 235.988609 
L 98.702477 243.165808 
L 100.122841 249.171391 
L 101.543205 254.181303 
L 102.963568 258.351032 
L 104.383932 261.815539 
L 105.804295 264.69048 
L 107.224659 267.074043 
L 108.645023 269.049015 
L 110.242932 270.868468 
L 111.840841 272.340124 
L 113.616295 273.647901 
L 115.39175 274.68152 
L 117.34475 275.570751 
L 119.652841 276.365904 
L 122.316023 277.03044 
L 125.511841 277.579152 
L 129.417841 278.010873 
L 134.566659 278.34586 
L 142.378659 278.608489 
L 157.292477 278.844206 
L 224.049568 279.52365 
L 427.694205 281.463607 
L 427.694205 281.463607 
" clip-path="url(#p77722dcbd5)" style="fill: none; stroke: #2ca02c; stroke-width: 2; stroke-linecap: square"/>
   </g>
   <g id="line2d_29">
    <path d="M 76.302159 306.458664 
L 80.001023 305.837937 
L 83.699886 305.890522 
L 87.39875 306.039971 
L 102.194205 306.596781 
L 116.989659 306.943225 
L 131.785114 307.147044 
L 146.580568 307.27459 
L 161.376023 307.377222 
L 190.966932 307.490663 
L 220.557841 307.547683 
L 250.14875 307.591379 
L 427.694205 307.649416 
" clip-path="url(#p77722dcbd5)" style="fill: none; stroke-dasharray: 3.7,1.6; stroke-dashoffset: 0; stroke: #2ca02c"/>
    <defs>
     <path id="md955ab3fe1" d="M -3 3 
L 3 3 
L 3 -3 
L -3 -3 
z
" style="stroke: #000000; stroke-linejoin: miter"/>
    </defs>
    <g clip-path="url(#p77722dcbd5)">
     <use xlink:href="#md955ab3fe1" x="76.302159" y="306.458664" style="fill: #2ca02c; stroke: #000000; stroke-linejoin: miter"/>
     <use xlink:href="#md955ab3fe1" x="80.001023" y="305.837937" style="fill: #2ca02c; stroke: #000000; stroke-linejoin: miter"/>
     <use xlink:href="#md955ab3fe1" x="83.699886" y="305.890522" style="fill: #2ca02c; stroke: #000000; stroke-linejoin: miter"/>
     <use xlink:href="#md955ab3fe1" x="87.39875" y="306.039971" style="fill: #2ca02c; stroke: #000000; stroke-linejoin: miter"/>
     <use xlink:href="#md955ab3fe1" x="102.194205" y="306.596781" style="fill: #2ca02c; stroke: #000000; stroke-linejoin: miter"/>
     <use xlink:href="#md955ab3fe1" x="116.989659" y="306.943225" style="fill: #2ca02c; stroke: #000000; stroke-linejoin: miter"/>
     <use xlink:href="#md955ab3fe1" x="131.785114" y="307.147044" style="fill: #2ca02c; stroke: #000000; stroke-linejoin: miter"/>
     <use xlink:href="#md955ab3fe1" x="146.580568" y="307.27459" style="fill: #2ca02c; stroke: #000000; stroke-linejoin: miter"/>
     <use xlink:href="#md955ab3fe1" x="161.376023" y="307.377222" style="fill: #2ca02c; stroke: #000000; stroke-linejoin: miter"/>
     <use xlink:href="#md955ab3fe1" x="190.966932" y="307.490663" style="fill: #2ca02c; stroke: #000000; stroke-linejoin: miter"/>
     <use xlink:href="#md955ab3fe1" x="220.557841" y="307.547683" style="fill: #2ca02c; stroke: #000000; stroke-linejoin: miter"/>
     <use xlink:href="#md955ab3fe1" x="250.14875" y="307.591379" style="fill: #2ca02c; stroke: #000000; stroke-linejoin: miter"/>
     <use xlink:href="#md955ab3fe1" x="427.694205" y="307.649416" style="fill: #2ca02c; stroke: #000000; stroke-linejoin: miter"/>
    </g>
   </g>
   <g id="line2d_30">
    <path d="M 72.603295 307.8 
L 72.780841 307.701996 
L 72.958386 306.70317 
L 73.135932 303.965761 
L 73.491023 292.708061 
L 74.023659 265.574256 
L 76.33175 135.399291 
L 77.219477 100.950137 
L 77.929659 81.065981 
L 78.639841 67.458971 
L 79.172477 60.9277 
L 79.705114 57.159117 
L 80.060205 56.006813 
L 80.23775 55.8 
L 80.415295 55.822654 
L 80.592841 56.062509 
L 80.947932 57.146148 
L 81.480568 60.110783 
L 82.19075 66.120983 
L 83.078477 76.103372 
L 84.321295 92.977076 
L 89.825205 171.371441 
L 91.423114 189.721355 
L 93.021023 205.44195 
L 94.441386 217.331711 
L 95.86175 227.445794 
L 97.282114 235.988609 
L 98.702477 243.165808 
L 100.122841 249.171391 
L 101.543205 254.181303 
L 102.963568 258.351032 
L 104.383932 261.815539 
L 105.804295 264.69048 
L 107.224659 267.074043 
L 108.645023 269.049015 
L 110.242932 270.868468 
L 111.840841 272.340124 
L 113.616295 273.647901 
L 115.39175 274.68152 
L 117.34475 275.570751 
L 119.652841 276.365904 
L 122.316023 277.03044 
L 125.511841 277.579152 
L 129.417841 278.010873 
L 134.566659 278.34586 
L 142.378659 278.608489 
L 157.292477 278.844206 
L 224.049568 279.52365 
L 427.694205 281.463607 
L 427.694205 281.463607 
" clip-path="url(#p77722dcbd5)" style="fill: none; stroke: #d62728; stroke-width: 2; stroke-linecap: square"/>
   </g>
   <g id="line2d_31">
    <path d="M 76.302159 306.177722 
M 102.194205 306.690953 
L 116.989659 307.031447 
L 131.785114 307.206268 
L 146.580568 307.322246 
L 161.376023 307.39958 
L 190.966932 307.507021 
L 220.557841 307.544233 
L 250.14875 307.564251 
L 427.694205 307.625148 
" clip-path="url(#p77722dcbd5)" style="fill: none; stroke-dasharray: 3.7,1.6; stroke-dashoffset: 0; stroke: #d62728"/>
    <defs>
     <path id="m612956e4de" d="M -3 3 
L 3 3 
L 3 -3 
L -3 -3 
z
" style="stroke: #000000; stroke-linejoin: miter"/>
    </defs>
    <g clip-path="url(#p77722dcbd5)">
     <use xlink:href="#m612956e4de" x="76.302159" y="306.177722" style="fill: #d62728; stroke: #000000; stroke-linejoin: miter"/>
     <use xlink:href="#m612956e4de" x="102.194205" y="306.690953" style="fill: #d62728; stroke: #000000; stroke-linejoin: miter"/>
     <use xlink:href="#m612956e4de" x="116.989659" y="307.031447" style="fill: #d62728; stroke: #000000; stroke-linejoin: miter"/>
     <use xlink:href="#m612956e4de" x="131.785114" y="307.206268" style="fill: #d62728; stroke: #000000; stroke-linejoin: miter"/>
     <use xlink:href="#m612956e4de" x="146.580568" y="307.322246" style="fill: #d62728; stroke: #000000; stroke-linejoin: miter"/>
     <use xlink:href="#m612956e4de" x="161.376023" y="307.39958" style="fill: #d62728; stroke: #000000; stroke-linejoin: miter"/>
     <use xlink:href="#m612956e4de" x="190.966932" y="307.507021" style="fill: #d62728; stroke: #000000; stroke-linejoin: miter"/>
     <use xlink:href="#m612956e4de" x="220.557841" y="307.544233" style="fill: #d62728; stroke: #000000; stroke-linejoin: miter"/>
     <use xlink:href="#m612956e4de" x="250.14875" y="307.564251" style="fill: #d62728; stroke: #000000; stroke-linejoin: miter"/>
     <use xlink:href="#m612956e4de" x="427.694205" y="307.625148" style="fill: #d62728; stroke: #000000; stroke-linejoin: miter"/>
    </g>
   </g>
   <g id="patch_3">
    <path d="M 54.84875 320.4 
L 54.84875 43.2 
" style="fill: none; stroke: #000000; stroke-width: 0.8; stroke-linejoin: miter; stroke-linecap: square"/>
   </g>
   <g id="patch_4">
    <path d="M 445.44875 320.4 
L 445.44875 43.2 
" style="fill: none; stroke: #000000; stroke-width: 0.8; stroke-linejoin: miter; stroke-linecap: square"/>
   </g>
   <g id="patch_5">
    <path d="M 54.84875 320.4 
L 445.44875 320.4 
" style="fill: none; stroke: #000000; stroke-width: 0.8; stroke-linejoin: miter; stroke-linecap: square"/>
   </g>
   <g id="patch_6">
    <path d="M 54.84875 43.2 
L 445.44875 43.2 
" style="fill: none; stroke: #000000; stroke-width: 0.8; stroke-linejoin: miter; stroke-linecap: square"/>
   </g>
   <g id="legend_1">
    <g id="patch_7">
     <path d="M 468.07275 183.303125 
L 545.357125 183.303125 
Q 547.357125 183.303125 547.357125 181.303125 
L 547.357125 50.2 
Q 547.357125 48.2 545.357125 48.2 
L 468.07275 48.2 
Q 466.07275 48.2 466.07275 50.2 
L 466.07275 181.303125 
Q 466.07275 183.303125 468.07275 183.303125 
z
" style="fill: #ffffff; opacity: 0.8; stroke: #cccccc; stroke-linejoin: miter"/>
    </g>
    <g id="line2d_32">
     <path d="M 470.07275 56.298437 
L 490.07275 56.298437 
" style="fill: none; stroke: #e377c2; stroke-width: 2; stroke-linecap: square"/>
    </g>
    <g id="line2d_33"/>
    <g id="text_18">
     <!-- RAP10 -->
     <g transform="translate(498.07275 59.798437) scale(0.1 -0.1)">
      <defs>
       <path id="DejaVuSans-52" d="M 2841 2188 
Q 3044 2119 3236 1894 
Q 3428 1669 3622 1275 
L 4263 0 
L 3584 0 
L 2988 1197 
Q 2756 1666 2539 1819 
Q 2322 1972 1947 1972 
L 1259 1972 
L 1259 0 
L 628 0 
L 628 4666 
L 2053 4666 
Q 2853 4666 3247 4331 
Q 3641 3997 3641 3322 
Q 3641 2881 3436 2590 
Q 3231 2300 2841 2188 
z
M 1259 4147 
L 1259 2491 
L 2053 2491 
Q 2509 2491 2742 2702 
Q 2975 2913 2975 3322 
Q 2975 3731 2742 3939 
Q 2509 4147 2053 4147 
L 1259 4147 
z
" transform="scale(0.015625)"/>
       <path id="DejaVuSans-41" d="M 2188 4044 
L 1331 1722 
L 3047 1722 
L 2188 4044 
z
M 1831 4666 
L 2547 4666 
L 4325 0 
L 3669 0 
L 3244 1197 
L 1141 1197 
L 716 0 
L 50 0 
L 1831 4666 
z
" transform="scale(0.015625)"/>
       <path id="DejaVuSans-50" d="M 1259 4147 
L 1259 2394 
L 2053 2394 
Q 2494 2394 2734 2622 
Q 2975 2850 2975 3272 
Q 2975 3691 2734 3919 
Q 2494 4147 2053 4147 
L 1259 4147 
z
M 628 4666 
L 2053 4666 
Q 2838 4666 3239 4311 
Q 3641 3956 3641 3272 
Q 3641 2581 3239 2228 
Q 2838 1875 2053 1875 
L 1259 1875 
L 1259 0 
L 628 0 
L 628 4666 
z
" transform="scale(0.015625)"/>
      </defs>
      <use xlink:href="#DejaVuSans-52"/>
      <use xlink:href="#DejaVuSans-41" transform="translate(65.482422 0)"/>
      <use xlink:href="#DejaVuSans-50" transform="translate(133.890625 0)"/>
      <use xlink:href="#DejaVuSans-31" transform="translate(194.193359 0)"/>
      <use xlink:href="#DejaVuSans-30" transform="translate(257.816406 0)"/>
     </g>
    </g>
    <g id="line2d_34">
     <path d="M 470.07275 70.976562 
L 490.07275 70.976562 
" style="fill: none; stroke-dasharray: 3.7,1.6; stroke-dashoffset: 0; stroke: #e377c2"/>
    </g>
    <g id="line2d_35">
     <g>
      <use xlink:href="#m8eec964982" x="480.07275" y="70.976562" style="fill: #e377c2; stroke: #000000; stroke-linejoin: miter"/>
     </g>
    </g>
    <g id="text_19">
     <!-- B1 (n=8) -->
     <g transform="translate(498.07275 74.476562) scale(0.1 -0.1)">
      <defs>
       <path id="DejaVuSans-42" d="M 1259 2228 
L 1259 519 
L 2272 519 
Q 2781 519 3026 730 
Q 3272 941 3272 1375 
Q 3272 1813 3026 2020 
Q 2781 2228 2272 2228 
L 1259 2228 
z
M 1259 4147 
L 1259 2741 
L 2194 2741 
Q 2656 2741 2882 2914 
Q 3109 3088 3109 3444 
Q 3109 3797 2882 3972 
Q 2656 4147 2194 4147 
L 1259 4147 
z
M 628 4666 
L 2241 4666 
Q 2963 4666 3353 4366 
Q 3744 4066 3744 3513 
Q 3744 3084 3544 2831 
Q 3344 2578 2956 2516 
Q 3422 2416 3680 2098 
Q 3938 1781 3938 1306 
Q 3938 681 3513 340 
Q 3088 0 2303 0 
L 628 0 
L 628 4666 
z
" transform="scale(0.015625)"/>
       <path id="DejaVuSans-20" transform="scale(0.015625)"/>
       <path id="DejaVuSans-28" d="M 1984 4856 
Q 1566 4138 1362 3434 
Q 1159 2731 1159 2009 
Q 1159 1288 1364 580 
Q 1569 -128 1984 -844 
L 1484 -844 
Q 1016 -109 783 600 
Q 550 1309 550 2009 
Q 550 2706 781 3412 
Q 1013 4119 1484 4856 
L 1984 4856 
z
" transform="scale(0.015625)"/>
       <path id="DejaVuSans-6e" d="M 3513 2113 
L 3513 0 
L 2938 0 
L 2938 2094 
Q 2938 2591 2744 2837 
Q 2550 3084 2163 3084 
Q 1697 3084 1428 2787 
Q 1159 2491 1159 1978 
L 1159 0 
L 581 0 
L 581 3500 
L 1159 3500 
L 1159 2956 
Q 1366 3272 1645 3428 
Q 1925 3584 2291 3584 
Q 2894 3584 3203 3211 
Q 3513 2838 3513 2113 
z
" transform="scale(0.015625)"/>
       <path id="DejaVuSans-3d" d="M 678 2906 
L 4684 2906 
L 4684 2381 
L 678 2381 
L 678 2906 
z
M 678 1631 
L 4684 1631 
L 4684 1100 
L 678 1100 
L 678 1631 
z
" transform="scale(0.015625)"/>
       <path id="DejaVuSans-29" d="M 513 4856 
L 1013 4856 
Q 1481 4119 1714 3412 
Q 1947 2706 1947 2009 
Q 1947 1309 1714 600 
Q 1481 -109 1013 -844 
L 513 -844 
Q 928 -128 1133 580 
Q 1338 1288 1338 2009 
Q 1338 2731 1133 3434 
Q 928 4138 513 4856 
z
" transform="scale(0.015625)"/>
      </defs>
      <use xlink:href="#DejaVuSans-42"/>
      <use xlink:href="#DejaVuSans-31" transform="translate(68.603516 0)"/>
      <use xlink:href="#DejaVuSans-20" transform="translate(132.226562 0)"/>
      <use xlink:href="#DejaVuSans-28" transform="translate(164.013672 0)"/>
      <use xlink:href="#DejaVuSans-6e" transform="translate(203.027344 0)"/>
      <use xlink:href="#DejaVuSans-3d" transform="translate(266.40625 0)"/>
      <use xlink:href="#DejaVuSans-38" transform="translate(350.195312 0)"/>
      <use xlink:href="#DejaVuSans-29" transform="translate(413.818359 0)"/>
     </g>
    </g>
    <g id="line2d_36">
     <path d="M 470.07275 85.654687 
L 490.07275 85.654687 
" style="fill: none; stroke-dasharray: 3.7,1.6; stroke-dashoffset: 0; stroke: #7f7f7f"/>
    </g>
    <g id="line2d_37">
     <g>
      <use xlink:href="#md546689b05" x="480.07275" y="85.654687" style="fill: #7f7f7f; stroke: #000000; stroke-linejoin: miter"/>
     </g>
    </g>
    <g id="text_20">
     <!-- B2 (n=8) -->
     <g transform="translate(498.07275 89.154687) scale(0.1 -0.1)">
      <use xlink:href="#DejaVuSans-42"/>
      <use xlink:href="#DejaVuSans-32" transform="translate(68.603516 0)"/>
      <use xlink:href="#DejaVuSans-20" transform="translate(132.226562 0)"/>
      <use xlink:href="#DejaVuSans-28" transform="translate(164.013672 0)"/>
      <use xlink:href="#DejaVuSans-6e" transform="translate(203.027344 0)"/>
      <use xlink:href="#DejaVuSans-3d" transform="translate(266.40625 0)"/>
      <use xlink:href="#DejaVuSans-38" transform="translate(350.195312 0)"/>
      <use xlink:href="#DejaVuSans-29" transform="translate(413.818359 0)"/>
     </g>
    </g>
    <g id="line2d_38">
     <path d="M 470.07275 100.332812 
L 490.07275 100.332812 
" style="fill: none; stroke-dasharray: 3.7,1.6; stroke-dashoffset: 0; stroke: #bcbd22"/>
    </g>
    <g id="line2d_39">
     <g>
      <use xlink:href="#mc7c6fa0b55" x="480.07275" y="100.332812" style="fill: #bcbd22; stroke: #000000; stroke-linejoin: miter"/>
     </g>
    </g>
    <g id="text_21">
     <!-- B3 (n=8) -->
     <g transform="translate(498.07275 103.832812) scale(0.1 -0.1)">
      <defs>
       <path id="DejaVuSans-33" d="M 2597 2516 
Q 3050 2419 3304 2112 
Q 3559 1806 3559 1356 
Q 3559 666 3084 287 
Q 2609 -91 1734 -91 
Q 1441 -91 1130 -33 
Q 819 25 488 141 
L 488 750 
Q 750 597 1062 519 
Q 1375 441 1716 441 
Q 2309 441 2620 675 
Q 2931 909 2931 1356 
Q 2931 1769 2642 2001 
Q 2353 2234 1838 2234 
L 1294 2234 
L 1294 2753 
L 1863 2753 
Q 2328 2753 2575 2939 
Q 2822 3125 2822 3475 
Q 2822 3834 2567 4026 
Q 2313 4219 1838 4219 
Q 1578 4219 1281 4162 
Q 984 4106 628 3988 
L 628 4550 
Q 988 4650 1302 4700 
Q 1616 4750 1894 4750 
Q 2613 4750 3031 4423 
Q 3450 4097 3450 3541 
Q 3450 3153 3228 2886 
Q 3006 2619 2597 2516 
z
" transform="scale(0.015625)"/>
      </defs>
      <use xlink:href="#DejaVuSans-42"/>
      <use xlink:href="#DejaVuSans-33" transform="translate(68.603516 0)"/>
      <use xlink:href="#DejaVuSans-20" transform="translate(132.226562 0)"/>
      <use xlink:href="#DejaVuSans-28" transform="translate(164.013672 0)"/>
      <use xlink:href="#DejaVuSans-6e" transform="translate(203.027344 0)"/>
      <use xlink:href="#DejaVuSans-3d" transform="translate(266.40625 0)"/>
      <use xlink:href="#DejaVuSans-38" transform="translate(350.195312 0)"/>
      <use xlink:href="#DejaVuSans-29" transform="translate(413.818359 0)"/>
     </g>
    </g>
    <g id="line2d_40">
     <path d="M 470.07275 115.010937 
L 490.07275 115.010937 
" style="fill: none; stroke-dasharray: 3.7,1.6; stroke-dashoffset: 0; stroke: #17becf"/>
    </g>
    <g id="line2d_41">
     <g>
      <use xlink:href="#m784e8075a2" x="480.07275" y="115.010937" style="fill: #17becf; stroke: #000000; stroke-linejoin: miter"/>
     </g>
    </g>
    <g id="text_22">
     <!-- B4 (n=8) -->
     <g transform="translate(498.07275 118.510937) scale(0.1 -0.1)">
      <use xlink:href="#DejaVuSans-42"/>
      <use xlink:href="#DejaVuSans-34" transform="translate(68.603516 0)"/>
      <use xlink:href="#DejaVuSans-20" transform="translate(132.226562 0)"/>
      <use xlink:href="#DejaVuSans-28" transform="translate(164.013672 0)"/>
      <use xlink:href="#DejaVuSans-6e" transform="translate(203.027344 0)"/>
      <use xlink:href="#DejaVuSans-3d" transform="translate(266.40625 0)"/>
      <use xlink:href="#DejaVuSans-38" transform="translate(350.195312 0)"/>
      <use xlink:href="#DejaVuSans-29" transform="translate(413.818359 0)"/>
     </g>
    </g>
    <g id="line2d_42">
     <path d="M 470.07275 129.689062 
L 490.07275 129.689062 
" style="fill: none; stroke-dasharray: 3.7,1.6; stroke-dashoffset: 0; stroke: #1f77b4"/>
    </g>
    <g id="line2d_43">
     <g>
      <use xlink:href="#ma8f5b7c0df" x="480.07275" y="129.689062" style="fill: #1f77b4; stroke: #000000; stroke-linejoin: miter"/>
     </g>
    </g>
    <g id="text_23">
     <!-- B5 (n=8) -->
     <g transform="translate(498.07275 133.189062) scale(0.1 -0.1)">
      <use xlink:href="#DejaVuSans-42"/>
      <use xlink:href="#DejaVuSans-35" transform="translate(68.603516 0)"/>
      <use xlink:href="#DejaVuSans-20" transform="translate(132.226562 0)"/>
      <use xlink:href="#DejaVuSans-28" transform="translate(164.013672 0)"/>
      <use xlink:href="#DejaVuSans-6e" transform="translate(203.027344 0)"/>
      <use xlink:href="#DejaVuSans-3d" transform="translate(266.40625 0)"/>
      <use xlink:href="#DejaVuSans-38" transform="translate(350.195312 0)"/>
      <use xlink:href="#DejaVuSans-29" transform="translate(413.818359 0)"/>
     </g>
    </g>
    <g id="line2d_44">
     <path d="M 470.07275 144.367187 
L 490.07275 144.367187 
" style="fill: none; stroke-dasharray: 3.7,1.6; stroke-dashoffset: 0; stroke: #ff7f0e"/>
    </g>
    <g id="line2d_45">
     <g>
      <use xlink:href="#md7b1dc0b3a" x="480.07275" y="144.367187" style="fill: #ff7f0e; stroke: #000000; stroke-linejoin: miter"/>
     </g>
    </g>
    <g id="text_24">
     <!-- B6 (n=8) -->
     <g transform="translate(498.07275 147.867187) scale(0.1 -0.1)">
      <use xlink:href="#DejaVuSans-42"/>
      <use xlink:href="#DejaVuSans-36" transform="translate(68.603516 0)"/>
      <use xlink:href="#DejaVuSans-20" transform="translate(132.226562 0)"/>
      <use xlink:href="#DejaVuSans-28" transform="translate(164.013672 0)"/>
      <use xlink:href="#DejaVuSans-6e" transform="translate(203.027344 0)"/>
      <use xlink:href="#DejaVuSans-3d" transform="translate(266.40625 0)"/>
      <use xlink:href="#DejaVuSans-38" transform="translate(350.195312 0)"/>
      <use xlink:href="#DejaVuSans-29" transform="translate(413.818359 0)"/>
     </g>
    </g>
    <g id="line2d_46">
     <path d="M 470.07275 159.045312 
L 490.07275 159.045312 
" style="fill: none; stroke-dasharray: 3.7,1.6; stroke-dashoffset: 0; stroke: #2ca02c"/>
    </g>
    <g id="line2d_47">
     <g>
      <use xlink:href="#md955ab3fe1" x="480.07275" y="159.045312" style="fill: #2ca02c; stroke: #000000; stroke-linejoin: miter"/>
     </g>
    </g>
    <g id="text_25">
     <!-- B7 (n=8) -->
     <g transform="translate(498.07275 162.545312) scale(0.1 -0.1)">
      <defs>
       <path id="DejaVuSans-37" d="M 525 4666 
L 3525 4666 
L 3525 4397 
L 1831 0 
L 1172 0 
L 2766 4134 
L 525 4134 
L 525 4666 
z
" transform="scale(0.015625)"/>
      </defs>
      <use xlink:href="#DejaVuSans-42"/>
      <use xlink:href="#DejaVuSans-37" transform="translate(68.603516 0)"/>
      <use xlink:href="#DejaVuSans-20" transform="translate(132.226562 0)"/>
      <use xlink:href="#DejaVuSans-28" transform="translate(164.013672 0)"/>
      <use xlink:href="#DejaVuSans-6e" transform="translate(203.027344 0)"/>
      <use xlink:href="#DejaVuSans-3d" transform="translate(266.40625 0)"/>
      <use xlink:href="#DejaVuSans-38" transform="translate(350.195312 0)"/>
      <use xlink:href="#DejaVuSans-29" transform="translate(413.818359 0)"/>
     </g>
    </g>
    <g id="line2d_48">
     <path d="M 470.07275 173.723437 
L 490.07275 173.723437 
" style="fill: none; stroke-dasharray: 3.7,1.6; stroke-dashoffset: 0; stroke: #d62728"/>
    </g>
    <g id="line2d_49">
     <g>
      <use xlink:href="#m612956e4de" x="480.07275" y="173.723437" style="fill: #d62728; stroke: #000000; stroke-linejoin: miter"/>
     </g>
    </g>
    <g id="text_26">
     <!-- B8 (n=8) -->
     <g transform="translate(498.07275 177.223437) scale(0.1 -0.1)">
      <use xlink:href="#DejaVuSans-42"/>
      <use xlink:href="#DejaVuSans-38" transform="translate(68.603516 0)"/>
      <use xlink:href="#DejaVuSans-20" transform="translate(132.226562 0)"/>
      <use xlink:href="#DejaVuSans-28" transform="translate(164.013672 0)"/>
      <use xlink:href="#DejaVuSans-6e" transform="translate(203.027344 0)"/>
      <use xlink:href="#DejaVuSans-3d" transform="translate(266.40625 0)"/>
      <use xlink:href="#DejaVuSans-38" transform="translate(350.195312 0)"/>
      <use xlink:href="#DejaVuSans-29" transform="translate(413.818359 0)"/>
     </g>
    </g>
   </g>
  </g>
  <g id="text_27">
   <!-- BasaDenes2019_RAP10 -->
   <g transform="translate(79.444453 25.754687) scale(0.25 -0.25)">
    <defs>
     <path id="DejaVuSans-Bold-42" d="M 2456 2859 
Q 2741 2859 2887 2984 
Q 3034 3109 3034 3353 
Q 3034 3594 2887 3720 
Q 2741 3847 2456 3847 
L 1791 3847 
L 1791 2859 
L 2456 2859 
z
M 2497 819 
Q 2859 819 3042 972 
Q 3225 1125 3225 1434 
Q 3225 1738 3044 1889 
Q 2863 2041 2497 2041 
L 1791 2041 
L 1791 819 
L 2497 819 
z
M 3616 2497 
Q 4003 2384 4215 2081 
Q 4428 1778 4428 1338 
Q 4428 663 3972 331 
Q 3516 0 2584 0 
L 588 0 
L 588 4666 
L 2394 4666 
Q 3366 4666 3802 4372 
Q 4238 4078 4238 3431 
Q 4238 3091 4078 2852 
Q 3919 2613 3616 2497 
z
" transform="scale(0.015625)"/>
     <path id="DejaVuSans-Bold-73" d="M 3272 3391 
L 3272 2541 
Q 2913 2691 2578 2766 
Q 2244 2841 1947 2841 
Q 1628 2841 1473 2761 
Q 1319 2681 1319 2516 
Q 1319 2381 1436 2309 
Q 1553 2238 1856 2203 
L 2053 2175 
Q 2913 2066 3209 1816 
Q 3506 1566 3506 1031 
Q 3506 472 3093 190 
Q 2681 -91 1863 -91 
Q 1516 -91 1145 -36 
Q 775 19 384 128 
L 384 978 
Q 719 816 1070 734 
Q 1422 653 1784 653 
Q 2113 653 2278 743 
Q 2444 834 2444 1013 
Q 2444 1163 2330 1236 
Q 2216 1309 1875 1350 
L 1678 1375 
Q 931 1469 631 1722 
Q 331 1975 331 2491 
Q 331 3047 712 3315 
Q 1094 3584 1881 3584 
Q 2191 3584 2531 3537 
Q 2872 3491 3272 3391 
z
" transform="scale(0.015625)"/>
     <path id="DejaVuSans-Bold-44" d="M 1791 3756 
L 1791 909 
L 2222 909 
Q 2959 909 3348 1275 
Q 3738 1641 3738 2338 
Q 3738 3031 3350 3393 
Q 2963 3756 2222 3756 
L 1791 3756 
z
M 588 4666 
L 1856 4666 
Q 2919 4666 3439 4514 
Q 3959 4363 4331 4000 
Q 4659 3684 4818 3271 
Q 4978 2859 4978 2338 
Q 4978 1809 4818 1395 
Q 4659 981 4331 666 
Q 3956 303 3431 151 
Q 2906 0 1856 0 
L 588 0 
L 588 4666 
z
" transform="scale(0.015625)"/>
     <path id="DejaVuSans-Bold-32" d="M 1844 884 
L 3897 884 
L 3897 0 
L 506 0 
L 506 884 
L 2209 2388 
Q 2438 2594 2547 2791 
Q 2656 2988 2656 3200 
Q 2656 3528 2436 3728 
Q 2216 3928 1850 3928 
Q 1569 3928 1234 3808 
Q 900 3688 519 3450 
L 519 4475 
Q 925 4609 1322 4679 
Q 1719 4750 2100 4750 
Q 2938 4750 3402 4381 
Q 3866 4013 3866 3353 
Q 3866 2972 3669 2642 
Q 3472 2313 2841 1759 
L 1844 884 
z
" transform="scale(0.015625)"/>
     <path id="DejaVuSans-Bold-30" d="M 2944 2338 
Q 2944 3213 2780 3570 
Q 2616 3928 2228 3928 
Q 1841 3928 1675 3570 
Q 1509 3213 1509 2338 
Q 1509 1453 1675 1090 
Q 1841 728 2228 728 
Q 2613 728 2778 1090 
Q 2944 1453 2944 2338 
z
M 4147 2328 
Q 4147 1169 3647 539 
Q 3147 -91 2228 -91 
Q 1306 -91 806 539 
Q 306 1169 306 2328 
Q 306 3491 806 4120 
Q 1306 4750 2228 4750 
Q 3147 4750 3647 4120 
Q 4147 3491 4147 2328 
z
" transform="scale(0.015625)"/>
     <path id="DejaVuSans-Bold-31" d="M 750 831 
L 1813 831 
L 1813 3847 
L 722 3622 
L 722 4441 
L 1806 4666 
L 2950 4666 
L 2950 831 
L 4013 831 
L 4013 0 
L 750 0 
L 750 831 
z
" transform="scale(0.015625)"/>
     <path id="DejaVuSans-Bold-39" d="M 641 103 
L 641 966 
Q 928 831 1190 764 
Q 1453 697 1709 697 
Q 2247 697 2547 995 
Q 2847 1294 2900 1881 
Q 2688 1725 2447 1647 
Q 2206 1569 1925 1569 
Q 1209 1569 770 1986 
Q 331 2403 331 3084 
Q 331 3838 820 4291 
Q 1309 4744 2131 4744 
Q 3044 4744 3544 4128 
Q 4044 3513 4044 2388 
Q 4044 1231 3459 570 
Q 2875 -91 1856 -91 
Q 1528 -91 1228 -42 
Q 928 6 641 103 
z
M 2125 2350 
Q 2441 2350 2600 2554 
Q 2759 2759 2759 3169 
Q 2759 3575 2600 3781 
Q 2441 3988 2125 3988 
Q 1809 3988 1650 3781 
Q 1491 3575 1491 3169 
Q 1491 2759 1650 2554 
Q 1809 2350 2125 2350 
z
" transform="scale(0.015625)"/>
     <path id="DejaVuSans-Bold-5f" d="M 3200 -916 
L 3200 -1509 
L 0 -1509 
L 0 -916 
L 3200 -916 
z
" transform="scale(0.015625)"/>
     <path id="DejaVuSans-Bold-52" d="M 2297 2597 
Q 2675 2597 2839 2737 
Q 3003 2878 3003 3200 
Q 3003 3519 2839 3656 
Q 2675 3794 2297 3794 
L 1791 3794 
L 1791 2597 
L 2297 2597 
z
M 1791 1766 
L 1791 0 
L 588 0 
L 588 4666 
L 2425 4666 
Q 3347 4666 3776 4356 
Q 4206 4047 4206 3378 
Q 4206 2916 3982 2619 
Q 3759 2322 3309 2181 
Q 3556 2125 3751 1926 
Q 3947 1728 4147 1325 
L 4800 0 
L 3519 0 
L 2950 1159 
Q 2778 1509 2601 1637 
Q 2425 1766 2131 1766 
L 1791 1766 
z
" transform="scale(0.015625)"/>
     <path id="DejaVuSans-Bold-41" d="M 3419 850 
L 1538 850 
L 1241 0 
L 31 0 
L 1759 4666 
L 3194 4666 
L 4922 0 
L 3713 0 
L 3419 850 
z
M 1838 1716 
L 3116 1716 
L 2478 3572 
L 1838 1716 
z
" transform="scale(0.015625)"/>
     <path id="DejaVuSans-Bold-50" d="M 588 4666 
L 2584 4666 
Q 3475 4666 3951 4270 
Q 4428 3875 4428 3144 
Q 4428 2409 3951 2014 
Q 3475 1619 2584 1619 
L 1791 1619 
L 1791 0 
L 588 0 
L 588 4666 
z
M 1791 3794 
L 1791 2491 
L 2456 2491 
Q 2806 2491 2997 2661 
Q 3188 2831 3188 3144 
Q 3188 3456 2997 3625 
Q 2806 3794 2456 3794 
L 1791 3794 
z
" transform="scale(0.015625)"/>
    </defs>
    <use xlink:href="#DejaVuSans-Bold-42"/>
    <use xlink:href="#DejaVuSans-Bold-61" transform="translate(76.220703 0)"/>
    <use xlink:href="#DejaVuSans-Bold-73" transform="translate(143.701172 0)"/>
    <use xlink:href="#DejaVuSans-Bold-61" transform="translate(203.222656 0)"/>
    <use xlink:href="#DejaVuSans-Bold-44" transform="translate(270.703125 0)"/>
    <use xlink:href="#DejaVuSans-Bold-65" transform="translate(353.710938 0)"/>
    <use xlink:href="#DejaVuSans-Bold-6e" transform="translate(421.533203 0)"/>
    <use xlink:href="#DejaVuSans-Bold-65" transform="translate(492.724609 0)"/>
    <use xlink:href="#DejaVuSans-Bold-73" transform="translate(560.546875 0)"/>
    <use xlink:href="#DejaVuSans-Bold-32" transform="translate(620.068359 0)"/>
    <use xlink:href="#DejaVuSans-Bold-30" transform="translate(689.648438 0)"/>
    <use xlink:href="#DejaVuSans-Bold-31" transform="translate(759.228516 0)"/>
    <use xlink:href="#DejaVuSans-Bold-39" transform="translate(828.808594 0)"/>
    <use xlink:href="#DejaVuSans-Bold-5f" transform="translate(898.388672 0)"/>
    <use xlink:href="#DejaVuSans-Bold-52" transform="translate(948.388672 0)"/>
    <use xlink:href="#DejaVuSans-Bold-41" transform="translate(1025.390625 0)"/>
    <use xlink:href="#DejaVuSans-Bold-50" transform="translate(1102.783203 0)"/>
    <use xlink:href="#DejaVuSans-Bold-31" transform="translate(1176.074219 0)"/>
    <use xlink:href="#DejaVuSans-Bold-30" transform="translate(1245.654297 0)"/>
   </g>
  </g>
 </g>
 <defs>
  <clipPath id="p77722dcbd5">
   <rect x="54.84875" y="43.2" width="390.6" height="277.2"/>
  </clipPath>
 </defs>
</svg>
