<?xml version="1.0" encoding="utf-8" standalone="no"?>
<!DOCTYPE svg PUBLIC "-//W3C//DTD SVG 1.1//EN"
  "http://www.w3.org/Graphics/SVG/1.1/DTD/svg11.dtd">
<svg xmlns:xlink="http://www.w3.org/1999/xlink" width="462.1925pt" height="370.537812pt" viewBox="0 0 462.1925 370.537812" xmlns="http://www.w3.org/2000/svg" version="1.1">
 <metadata>
  <rdf:RDF xmlns:dc="http://purl.org/dc/elements/1.1/" xmlns:cc="http://creativecommons.org/ns#" xmlns:rdf="http://www.w3.org/1999/02/22-rdf-syntax-ns#">
   <cc:Work>
    <dc:type rdf:resource="http://purl.org/dc/dcmitype/StillImage"/>
    <dc:date>2026-02-12T15:19:46.048138</dc:date>
    <dc:format>image/svg+xml</dc:format>
    <dc:creator>
     <cc:Agent>
      <dc:title>Matplotlib v3.10.7, https://matplotlib.org/</dc:title>
     </cc:Agent>
    </dc:creator>
   </cc:Work>
  </rdf:RDF>
 </metadata>
 <defs>
  <style type="text/css">*{stroke-linejoin: round; stroke-linecap: butt}</style>
 </defs>
 <g id="figure_1">
  <g id="patch_1">
   <path d="M 0 370.537812 
L 462.1925 370.537812 
L 462.1925 0 
L 0 0 
z
" style="fill: #ffffff"/>
  </g>
  <g id="axes_1">
   <g id="patch_2">
    <path d="M 64.3925 320.4 
L 454.9925 320.4 
L 454.9925 43.2 
L 64.3925 43.2 
z
" style="fill: #ffffff"/>
   </g>
   <g id="matplotlib.axis_1">
    <g id="xtick_1">
     <g id="line2d_1">
      <defs>
       <path id="m736e6a94de" d="M 0 0 
L 0 3.5 
" style="stroke: #000000; stroke-width: 0.8"/>
      </defs>
      <g>
       <use xlink:href="#m736e6a94de" x="82.147045" y="320.4" style="stroke: #000000; stroke-width: 0.8"/>
      </g>
     </g>
     <g id="text_1">
      <!-- 0 -->
      <g transform="translate(77.37517 338.797656) scale(0.15 -0.15)">
       <defs>
        <path id="DejaVuSans-30" d="M 2034 4250 
Q 1547 4250 1301 3770 
Q 1056 3291 1056 2328 
Q 1056 1369 1301 889 
Q 1547 409 2034 409 
Q 2525 409 2770 889 
Q 3016 1369 3016 2328 
Q 3016 3291 2770 3770 
Q 2525 4250 2034 4250 
z
M 2034 4750 
Q 2819 4750 3233 4129 
Q 3647 3509 3647 2328 
Q 3647 1150 3233 529 
Q 2819 -91 2034 -91 
Q 1250 -91 836 529 
Q 422 1150 422 2328 
Q 422 3509 836 4129 
Q 1250 4750 2034 4750 
z
" transform="scale(0.015625)"/>
       </defs>
       <use xlink:href="#DejaVuSans-30"/>
      </g>
     </g>
    </g>
    <g id="xtick_2">
     <g id="line2d_2">
      <g>
       <use xlink:href="#m736e6a94de" x="137.63" y="320.4" style="stroke: #000000; stroke-width: 0.8"/>
      </g>
     </g>
     <g id="text_2">
      <!-- 50 -->
      <g transform="translate(128.08625 338.797656) scale(0.15 -0.15)">
       <defs>
        <path id="DejaVuSans-35" d="M 691 4666 
L 3169 4666 
L 3169 4134 
L 1269 4134 
L 1269 2991 
Q 1406 3038 1543 3061 
Q 1681 3084 1819 3084 
Q 2600 3084 3056 2656 
Q 3513 2228 3513 1497 
Q 3513 744 3044 326 
Q 2575 -91 1722 -91 
Q 1428 -91 1123 -41 
Q 819 9 494 109 
L 494 744 
Q 775 591 1075 516 
Q 1375 441 1709 441 
Q 2250 441 2565 725 
Q 2881 1009 2881 1497 
Q 2881 1984 2565 2268 
Q 2250 2553 1709 2553 
Q 1456 2553 1204 2497 
Q 953 2441 691 2322 
L 691 4666 
z
" transform="scale(0.015625)"/>
       </defs>
       <use xlink:href="#DejaVuSans-35"/>
       <use xlink:href="#DejaVuSans-30" transform="translate(63.623047 0)"/>
      </g>
     </g>
    </g>
    <g id="xtick_3">
     <g id="line2d_3">
      <g>
       <use xlink:href="#m736e6a94de" x="193.112955" y="320.4" style="stroke: #000000; stroke-width: 0.8"/>
      </g>
     </g>
     <g id="text_3">
      <!-- 100 -->
      <g transform="translate(178.79733 338.797656) scale(0.15 -0.15)">
       <defs>
        <path id="DejaVuSans-31" d="M 794 531 
L 1825 531 
L 1825 4091 
L 703 3866 
L 703 4441 
L 1819 4666 
L 2450 4666 
L 2450 531 
L 3481 531 
L 3481 0 
L 794 0 
L 794 531 
z
" transform="scale(0.015625)"/>
       </defs>
       <use xlink:href="#DejaVuSans-31"/>
       <use xlink:href="#DejaVuSans-30" transform="translate(63.623047 0)"/>
       <use xlink:href="#DejaVuSans-30" transform="translate(127.246094 0)"/>
      </g>
     </g>
    </g>
    <g id="xtick_4">
     <g id="line2d_4">
      <g>
       <use xlink:href="#m736e6a94de" x="248.595909" y="320.4" style="stroke: #000000; stroke-width: 0.8"/>
      </g>
     </g>
     <g id="text_4">
      <!-- 150 -->
      <g transform="translate(234.280284 338.797656) scale(0.15 -0.15)">
       <use xlink:href="#DejaVuSans-31"/>
       <use xlink:href="#DejaVuSans-35" transform="translate(63.623047 0)"/>
       <use xlink:href="#DejaVuSans-30" transform="translate(127.246094 0)"/>
      </g>
     </g>
    </g>
    <g id="xtick_5">
     <g id="line2d_5">
      <g>
       <use xlink:href="#m736e6a94de" x="304.078864" y="320.4" style="stroke: #000000; stroke-width: 0.8"/>
      </g>
     </g>
     <g id="text_5">
      <!-- 200 -->
      <g transform="translate(289.763239 338.797656) scale(0.15 -0.15)">
       <defs>
        <path id="DejaVuSans-32" d="M 1228 531 
L 3431 531 
L 3431 0 
L 469 0 
L 469 531 
Q 828 903 1448 1529 
Q 2069 2156 2228 2338 
Q 2531 2678 2651 2914 
Q 2772 3150 2772 3378 
Q 2772 3750 2511 3984 
Q 2250 4219 1831 4219 
Q 1534 4219 1204 4116 
Q 875 4013 500 3803 
L 500 4441 
Q 881 4594 1212 4672 
Q 1544 4750 1819 4750 
Q 2544 4750 2975 4387 
Q 3406 4025 3406 3419 
Q 3406 3131 3298 2873 
Q 3191 2616 2906 2266 
Q 2828 2175 2409 1742 
Q 1991 1309 1228 531 
z
" transform="scale(0.015625)"/>
       </defs>
       <use xlink:href="#DejaVuSans-32"/>
       <use xlink:href="#DejaVuSans-30" transform="translate(63.623047 0)"/>
       <use xlink:href="#DejaVuSans-30" transform="translate(127.246094 0)"/>
      </g>
     </g>
    </g>
    <g id="xtick_6">
     <g id="line2d_6">
      <g>
       <use xlink:href="#m736e6a94de" x="359.561818" y="320.4" style="stroke: #000000; stroke-width: 0.8"/>
      </g>
     </g>
     <g id="text_6">
      <!-- 250 -->
      <g transform="translate(345.246193 338.797656) scale(0.15 -0.15)">
       <use xlink:href="#DejaVuSans-32"/>
       <use xlink:href="#DejaVuSans-35" transform="translate(63.623047 0)"/>
       <use xlink:href="#DejaVuSans-30" transform="translate(127.246094 0)"/>
      </g>
     </g>
    </g>
    <g id="xtick_7">
     <g id="line2d_7">
      <g>
       <use xlink:href="#m736e6a94de" x="415.044773" y="320.4" style="stroke: #000000; stroke-width: 0.8"/>
      </g>
     </g>
     <g id="text_7">
      <!-- 300 -->
      <g transform="translate(400.729148 338.797656) scale(0.15 -0.15)">
       <defs>
        <path id="DejaVuSans-33" d="M 2597 2516 
Q 3050 2419 3304 2112 
Q 3559 1806 3559 1356 
Q 3559 666 3084 287 
Q 2609 -91 1734 -91 
Q 1441 -91 1130 -33 
Q 819 25 488 141 
L 488 750 
Q 750 597 1062 519 
Q 1375 441 1716 441 
Q 2309 441 2620 675 
Q 2931 909 2931 1356 
Q 2931 1769 2642 2001 
Q 2353 2234 1838 2234 
L 1294 2234 
L 1294 2753 
L 1863 2753 
Q 2328 2753 2575 2939 
Q 2822 3125 2822 3475 
Q 2822 3834 2567 4026 
Q 2313 4219 1838 4219 
Q 1578 4219 1281 4162 
Q 984 4106 628 3988 
L 628 4550 
Q 988 4650 1302 4700 
Q 1616 4750 1894 4750 
Q 2613 4750 3031 4423 
Q 3450 4097 3450 3541 
Q 3450 3153 3228 2886 
Q 3006 2619 2597 2516 
z
" transform="scale(0.015625)"/>
       </defs>
       <use xlink:href="#DejaVuSans-33"/>
       <use xlink:href="#DejaVuSans-30" transform="translate(63.623047 0)"/>
       <use xlink:href="#DejaVuSans-30" transform="translate(127.246094 0)"/>
      </g>
     </g>
    </g>
    <g id="text_8">
     <!-- time [hr] -->
     <g transform="translate(214.617969 359.594375) scale(0.18 -0.18)">
      <defs>
       <path id="DejaVuSans-Bold-74" d="M 1759 4494 
L 1759 3500 
L 2913 3500 
L 2913 2700 
L 1759 2700 
L 1759 1216 
Q 1759 972 1856 886 
Q 1953 800 2241 800 
L 2816 800 
L 2816 0 
L 1856 0 
Q 1194 0 917 276 
Q 641 553 641 1216 
L 641 2700 
L 84 2700 
L 84 3500 
L 641 3500 
L 641 4494 
L 1759 4494 
z
" transform="scale(0.015625)"/>
       <path id="DejaVuSans-Bold-69" d="M 538 3500 
L 1656 3500 
L 1656 0 
L 538 0 
L 538 3500 
z
M 538 4863 
L 1656 4863 
L 1656 3950 
L 538 3950 
L 538 4863 
z
" transform="scale(0.015625)"/>
       <path id="DejaVuSans-Bold-6d" d="M 3781 2919 
Q 3994 3244 4286 3414 
Q 4578 3584 4928 3584 
Q 5531 3584 5847 3212 
Q 6163 2841 6163 2131 
L 6163 0 
L 5038 0 
L 5038 1825 
Q 5041 1866 5042 1909 
Q 5044 1953 5044 2034 
Q 5044 2406 4934 2573 
Q 4825 2741 4581 2741 
Q 4263 2741 4089 2478 
Q 3916 2216 3909 1719 
L 3909 0 
L 2784 0 
L 2784 1825 
Q 2784 2406 2684 2573 
Q 2584 2741 2328 2741 
Q 2006 2741 1831 2477 
Q 1656 2213 1656 1722 
L 1656 0 
L 531 0 
L 531 3500 
L 1656 3500 
L 1656 2988 
Q 1863 3284 2130 3434 
Q 2397 3584 2719 3584 
Q 3081 3584 3359 3409 
Q 3638 3234 3781 2919 
z
" transform="scale(0.015625)"/>
       <path id="DejaVuSans-Bold-65" d="M 4031 1759 
L 4031 1441 
L 1416 1441 
Q 1456 1047 1700 850 
Q 1944 653 2381 653 
Q 2734 653 3104 758 
Q 3475 863 3866 1075 
L 3866 213 
Q 3469 63 3072 -14 
Q 2675 -91 2278 -91 
Q 1328 -91 801 392 
Q 275 875 275 1747 
Q 275 2603 792 3093 
Q 1309 3584 2216 3584 
Q 3041 3584 3536 3087 
Q 4031 2591 4031 1759 
z
M 2881 2131 
Q 2881 2450 2695 2645 
Q 2509 2841 2209 2841 
Q 1884 2841 1681 2658 
Q 1478 2475 1428 2131 
L 2881 2131 
z
" transform="scale(0.015625)"/>
       <path id="DejaVuSans-Bold-20" transform="scale(0.015625)"/>
       <path id="DejaVuSans-Bold-5b" d="M 550 4863 
L 2491 4863 
L 2491 4159 
L 1613 4159 
L 1613 -141 
L 2491 -141 
L 2491 -844 
L 550 -844 
L 550 4863 
z
" transform="scale(0.015625)"/>
       <path id="DejaVuSans-Bold-68" d="M 4056 2131 
L 4056 0 
L 2931 0 
L 2931 347 
L 2931 1625 
Q 2931 2084 2911 2256 
Q 2891 2428 2841 2509 
Q 2775 2619 2662 2680 
Q 2550 2741 2406 2741 
Q 2056 2741 1856 2470 
Q 1656 2200 1656 1722 
L 1656 0 
L 538 0 
L 538 4863 
L 1656 4863 
L 1656 2988 
Q 1909 3294 2193 3439 
Q 2478 3584 2822 3584 
Q 3428 3584 3742 3212 
Q 4056 2841 4056 2131 
z
" transform="scale(0.015625)"/>
       <path id="DejaVuSans-Bold-72" d="M 3138 2547 
Q 2991 2616 2845 2648 
Q 2700 2681 2553 2681 
Q 2122 2681 1889 2404 
Q 1656 2128 1656 1613 
L 1656 0 
L 538 0 
L 538 3500 
L 1656 3500 
L 1656 2925 
Q 1872 3269 2151 3426 
Q 2431 3584 2822 3584 
Q 2878 3584 2943 3579 
Q 3009 3575 3134 3559 
L 3138 2547 
z
" transform="scale(0.015625)"/>
       <path id="DejaVuSans-Bold-5d" d="M 2375 -844 
L 434 -844 
L 434 -141 
L 1313 -141 
L 1313 4159 
L 434 4159 
L 434 4863 
L 2375 4863 
L 2375 -844 
z
" transform="scale(0.015625)"/>
      </defs>
      <use xlink:href="#DejaVuSans-Bold-74"/>
      <use xlink:href="#DejaVuSans-Bold-69" transform="translate(47.802734 0)"/>
      <use xlink:href="#DejaVuSans-Bold-6d" transform="translate(82.080078 0)"/>
      <use xlink:href="#DejaVuSans-Bold-65" transform="translate(186.279297 0)"/>
      <use xlink:href="#DejaVuSans-Bold-20" transform="translate(254.101562 0)"/>
      <use xlink:href="#DejaVuSans-Bold-5b" transform="translate(288.916016 0)"/>
      <use xlink:href="#DejaVuSans-Bold-68" transform="translate(334.619141 0)"/>
      <use xlink:href="#DejaVuSans-Bold-72" transform="translate(405.810547 0)"/>
      <use xlink:href="#DejaVuSans-Bold-5d" transform="translate(455.126953 0)"/>
     </g>
    </g>
   </g>
   <g id="matplotlib.axis_2">
    <g id="ytick_1">
     <g id="line2d_8">
      <defs>
       <path id="m43417419b5" d="M 0 0 
L -3.5 0 
" style="stroke: #000000; stroke-width: 0.8"/>
      </defs>
      <g>
       <use xlink:href="#m43417419b5" x="64.3925" y="307.8" style="stroke: #000000; stroke-width: 0.8"/>
      </g>
     </g>
     <g id="text_9">
      <!-- 0 -->
      <g transform="translate(47.84875 313.498828) scale(0.15 -0.15)">
       <use xlink:href="#DejaVuSans-30"/>
      </g>
     </g>
    </g>
    <g id="ytick_2">
     <g id="line2d_9">
      <g>
       <use xlink:href="#m43417419b5" x="64.3925" y="259.543591" style="stroke: #000000; stroke-width: 0.8"/>
      </g>
     </g>
     <g id="text_10">
      <!-- 20 -->
      <g transform="translate(38.305 265.242419) scale(0.15 -0.15)">
       <use xlink:href="#DejaVuSans-32"/>
       <use xlink:href="#DejaVuSans-30" transform="translate(63.623047 0)"/>
      </g>
     </g>
    </g>
    <g id="ytick_3">
     <g id="line2d_10">
      <g>
       <use xlink:href="#m43417419b5" x="64.3925" y="211.287182" style="stroke: #000000; stroke-width: 0.8"/>
      </g>
     </g>
     <g id="text_11">
      <!-- 40 -->
      <g transform="translate(38.305 216.98601) scale(0.15 -0.15)">
       <defs>
        <path id="DejaVuSans-34" d="M 2419 4116 
L 825 1625 
L 2419 1625 
L 2419 4116 
z
M 2253 4666 
L 3047 4666 
L 3047 1625 
L 3713 1625 
L 3713 1100 
L 3047 1100 
L 3047 0 
L 2419 0 
L 2419 1100 
L 313 1100 
L 313 1709 
L 2253 4666 
z
" transform="scale(0.015625)"/>
       </defs>
       <use xlink:href="#DejaVuSans-34"/>
       <use xlink:href="#DejaVuSans-30" transform="translate(63.623047 0)"/>
      </g>
     </g>
    </g>
    <g id="ytick_4">
     <g id="line2d_11">
      <g>
       <use xlink:href="#m43417419b5" x="64.3925" y="163.030773" style="stroke: #000000; stroke-width: 0.8"/>
      </g>
     </g>
     <g id="text_12">
      <!-- 60 -->
      <g transform="translate(38.305 168.729602) scale(0.15 -0.15)">
       <defs>
        <path id="DejaVuSans-36" d="M 2113 2584 
Q 1688 2584 1439 2293 
Q 1191 2003 1191 1497 
Q 1191 994 1439 701 
Q 1688 409 2113 409 
Q 2538 409 2786 701 
Q 3034 994 3034 1497 
Q 3034 2003 2786 2293 
Q 2538 2584 2113 2584 
z
M 3366 4563 
L 3366 3988 
Q 3128 4100 2886 4159 
Q 2644 4219 2406 4219 
Q 1781 4219 1451 3797 
Q 1122 3375 1075 2522 
Q 1259 2794 1537 2939 
Q 1816 3084 2150 3084 
Q 2853 3084 3261 2657 
Q 3669 2231 3669 1497 
Q 3669 778 3244 343 
Q 2819 -91 2113 -91 
Q 1303 -91 875 529 
Q 447 1150 447 2328 
Q 447 3434 972 4092 
Q 1497 4750 2381 4750 
Q 2619 4750 2861 4703 
Q 3103 4656 3366 4563 
z
" transform="scale(0.015625)"/>
       </defs>
       <use xlink:href="#DejaVuSans-36"/>
       <use xlink:href="#DejaVuSans-30" transform="translate(63.623047 0)"/>
      </g>
     </g>
    </g>
    <g id="ytick_5">
     <g id="line2d_12">
      <g>
       <use xlink:href="#m43417419b5" x="64.3925" y="114.774365" style="stroke: #000000; stroke-width: 0.8"/>
      </g>
     </g>
     <g id="text_13">
      <!-- 80 -->
      <g transform="translate(38.305 120.473193) scale(0.15 -0.15)">
       <defs>
        <path id="DejaVuSans-38" d="M 2034 2216 
Q 1584 2216 1326 1975 
Q 1069 1734 1069 1313 
Q 1069 891 1326 650 
Q 1584 409 2034 409 
Q 2484 409 2743 651 
Q 3003 894 3003 1313 
Q 3003 1734 2745 1975 
Q 2488 2216 2034 2216 
z
M 1403 2484 
Q 997 2584 770 2862 
Q 544 3141 544 3541 
Q 544 4100 942 4425 
Q 1341 4750 2034 4750 
Q 2731 4750 3128 4425 
Q 3525 4100 3525 3541 
Q 3525 3141 3298 2862 
Q 3072 2584 2669 2484 
Q 3125 2378 3379 2068 
Q 3634 1759 3634 1313 
Q 3634 634 3220 271 
Q 2806 -91 2034 -91 
Q 1263 -91 848 271 
Q 434 634 434 1313 
Q 434 1759 690 2068 
Q 947 2378 1403 2484 
z
M 1172 3481 
Q 1172 3119 1398 2916 
Q 1625 2713 2034 2713 
Q 2441 2713 2670 2916 
Q 2900 3119 2900 3481 
Q 2900 3844 2670 4047 
Q 2441 4250 2034 4250 
Q 1625 4250 1398 4047 
Q 1172 3844 1172 3481 
z
" transform="scale(0.015625)"/>
       </defs>
       <use xlink:href="#DejaVuSans-38"/>
       <use xlink:href="#DejaVuSans-30" transform="translate(63.623047 0)"/>
      </g>
     </g>
    </g>
    <g id="ytick_6">
     <g id="line2d_13">
      <g>
       <use xlink:href="#m43417419b5" x="64.3925" y="66.517956" style="stroke: #000000; stroke-width: 0.8"/>
      </g>
     </g>
     <g id="text_14">
      <!-- 100 -->
      <g transform="translate(28.76125 72.216784) scale(0.15 -0.15)">
       <use xlink:href="#DejaVuSans-31"/>
       <use xlink:href="#DejaVuSans-30" transform="translate(63.623047 0)"/>
       <use xlink:href="#DejaVuSans-30" transform="translate(127.246094 0)"/>
      </g>
     </g>
    </g>
    <g id="text_15">
     <!-- rapamycin blood [nM] -->
     <g transform="translate(20.877187 293.092031) rotate(-90) scale(0.18 -0.18)">
      <defs>
       <path id="DejaVuSans-Bold-61" d="M 2106 1575 
Q 1756 1575 1579 1456 
Q 1403 1338 1403 1106 
Q 1403 894 1545 773 
Q 1688 653 1941 653 
Q 2256 653 2472 879 
Q 2688 1106 2688 1447 
L 2688 1575 
L 2106 1575 
z
M 3816 1997 
L 3816 0 
L 2688 0 
L 2688 519 
Q 2463 200 2181 54 
Q 1900 -91 1497 -91 
Q 953 -91 614 226 
Q 275 544 275 1050 
Q 275 1666 698 1953 
Q 1122 2241 2028 2241 
L 2688 2241 
L 2688 2328 
Q 2688 2594 2478 2717 
Q 2269 2841 1825 2841 
Q 1466 2841 1156 2769 
Q 847 2697 581 2553 
L 581 3406 
Q 941 3494 1303 3539 
Q 1666 3584 2028 3584 
Q 2975 3584 3395 3211 
Q 3816 2838 3816 1997 
z
" transform="scale(0.015625)"/>
       <path id="DejaVuSans-Bold-70" d="M 1656 506 
L 1656 -1331 
L 538 -1331 
L 538 3500 
L 1656 3500 
L 1656 2988 
Q 1888 3294 2169 3439 
Q 2450 3584 2816 3584 
Q 3463 3584 3878 3070 
Q 4294 2556 4294 1747 
Q 4294 938 3878 423 
Q 3463 -91 2816 -91 
Q 2450 -91 2169 54 
Q 1888 200 1656 506 
z
M 2400 2772 
Q 2041 2772 1848 2508 
Q 1656 2244 1656 1747 
Q 1656 1250 1848 986 
Q 2041 722 2400 722 
Q 2759 722 2948 984 
Q 3138 1247 3138 1747 
Q 3138 2247 2948 2509 
Q 2759 2772 2400 2772 
z
" transform="scale(0.015625)"/>
       <path id="DejaVuSans-Bold-79" d="M 78 3500 
L 1197 3500 
L 2138 1125 
L 2938 3500 
L 4056 3500 
L 2584 -331 
Q 2363 -916 2067 -1148 
Q 1772 -1381 1288 -1381 
L 641 -1381 
L 641 -647 
L 991 -647 
Q 1275 -647 1404 -556 
Q 1534 -466 1606 -231 
L 1638 -134 
L 78 3500 
z
" transform="scale(0.015625)"/>
       <path id="DejaVuSans-Bold-63" d="M 3366 3391 
L 3366 2478 
Q 3138 2634 2908 2709 
Q 2678 2784 2431 2784 
Q 1963 2784 1702 2511 
Q 1441 2238 1441 1747 
Q 1441 1256 1702 982 
Q 1963 709 2431 709 
Q 2694 709 2930 787 
Q 3166 866 3366 1019 
L 3366 103 
Q 3103 6 2833 -42 
Q 2563 -91 2291 -91 
Q 1344 -91 809 395 
Q 275 881 275 1747 
Q 275 2613 809 3098 
Q 1344 3584 2291 3584 
Q 2566 3584 2833 3536 
Q 3100 3488 3366 3391 
z
" transform="scale(0.015625)"/>
       <path id="DejaVuSans-Bold-6e" d="M 4056 2131 
L 4056 0 
L 2931 0 
L 2931 347 
L 2931 1631 
Q 2931 2084 2911 2256 
Q 2891 2428 2841 2509 
Q 2775 2619 2662 2680 
Q 2550 2741 2406 2741 
Q 2056 2741 1856 2470 
Q 1656 2200 1656 1722 
L 1656 0 
L 538 0 
L 538 3500 
L 1656 3500 
L 1656 2988 
Q 1909 3294 2193 3439 
Q 2478 3584 2822 3584 
Q 3428 3584 3742 3212 
Q 4056 2841 4056 2131 
z
" transform="scale(0.015625)"/>
       <path id="DejaVuSans-Bold-62" d="M 2400 722 
Q 2759 722 2948 984 
Q 3138 1247 3138 1747 
Q 3138 2247 2948 2509 
Q 2759 2772 2400 2772 
Q 2041 2772 1848 2508 
Q 1656 2244 1656 1747 
Q 1656 1250 1848 986 
Q 2041 722 2400 722 
z
M 1656 2988 
Q 1888 3294 2169 3439 
Q 2450 3584 2816 3584 
Q 3463 3584 3878 3070 
Q 4294 2556 4294 1747 
Q 4294 938 3878 423 
Q 3463 -91 2816 -91 
Q 2450 -91 2169 54 
Q 1888 200 1656 506 
L 1656 0 
L 538 0 
L 538 4863 
L 1656 4863 
L 1656 2988 
z
" transform="scale(0.015625)"/>
       <path id="DejaVuSans-Bold-6c" d="M 538 4863 
L 1656 4863 
L 1656 0 
L 538 0 
L 538 4863 
z
" transform="scale(0.015625)"/>
       <path id="DejaVuSans-Bold-6f" d="M 2203 2784 
Q 1831 2784 1636 2517 
Q 1441 2250 1441 1747 
Q 1441 1244 1636 976 
Q 1831 709 2203 709 
Q 2569 709 2762 976 
Q 2956 1244 2956 1747 
Q 2956 2250 2762 2517 
Q 2569 2784 2203 2784 
z
M 2203 3584 
Q 3106 3584 3614 3096 
Q 4122 2609 4122 1747 
Q 4122 884 3614 396 
Q 3106 -91 2203 -91 
Q 1297 -91 786 396 
Q 275 884 275 1747 
Q 275 2609 786 3096 
Q 1297 3584 2203 3584 
z
" transform="scale(0.015625)"/>
       <path id="DejaVuSans-Bold-64" d="M 2919 2988 
L 2919 4863 
L 4044 4863 
L 4044 0 
L 2919 0 
L 2919 506 
Q 2688 197 2409 53 
Q 2131 -91 1766 -91 
Q 1119 -91 703 423 
Q 288 938 288 1747 
Q 288 2556 703 3070 
Q 1119 3584 1766 3584 
Q 2128 3584 2408 3439 
Q 2688 3294 2919 2988 
z
M 2181 722 
Q 2541 722 2730 984 
Q 2919 1247 2919 1747 
Q 2919 2247 2730 2509 
Q 2541 2772 2181 2772 
Q 1825 2772 1636 2509 
Q 1447 2247 1447 1747 
Q 1447 1247 1636 984 
Q 1825 722 2181 722 
z
" transform="scale(0.015625)"/>
       <path id="DejaVuSans-Bold-4d" d="M 588 4666 
L 2119 4666 
L 3181 2169 
L 4250 4666 
L 5778 4666 
L 5778 0 
L 4641 0 
L 4641 3413 
L 3566 897 
L 2803 897 
L 1728 3413 
L 1728 0 
L 588 0 
L 588 4666 
z
" transform="scale(0.015625)"/>
      </defs>
      <use xlink:href="#DejaVuSans-Bold-72"/>
      <use xlink:href="#DejaVuSans-Bold-61" transform="translate(49.316406 0)"/>
      <use xlink:href="#DejaVuSans-Bold-70" transform="translate(116.796875 0)"/>
      <use xlink:href="#DejaVuSans-Bold-61" transform="translate(188.378906 0)"/>
      <use xlink:href="#DejaVuSans-Bold-6d" transform="translate(255.859375 0)"/>
      <use xlink:href="#DejaVuSans-Bold-79" transform="translate(360.058594 0)"/>
      <use xlink:href="#DejaVuSans-Bold-63" transform="translate(425.244141 0)"/>
      <use xlink:href="#DejaVuSans-Bold-69" transform="translate(484.521484 0)"/>
      <use xlink:href="#DejaVuSans-Bold-6e" transform="translate(518.798828 0)"/>
      <use xlink:href="#DejaVuSans-Bold-20" transform="translate(589.990234 0)"/>
      <use xlink:href="#DejaVuSans-Bold-62" transform="translate(624.804688 0)"/>
      <use xlink:href="#DejaVuSans-Bold-6c" transform="translate(696.386719 0)"/>
      <use xlink:href="#DejaVuSans-Bold-6f" transform="translate(730.664062 0)"/>
      <use xlink:href="#DejaVuSans-Bold-6f" transform="translate(799.365234 0)"/>
      <use xlink:href="#DejaVuSans-Bold-64" transform="translate(868.066406 0)"/>
      <use xlink:href="#DejaVuSans-Bold-20" transform="translate(939.648438 0)"/>
      <use xlink:href="#DejaVuSans-Bold-5b" transform="translate(974.462891 0)"/>
      <use xlink:href="#DejaVuSans-Bold-6e" transform="translate(1020.166016 0)"/>
      <use xlink:href="#DejaVuSans-Bold-4d" transform="translate(1091.357422 0)"/>
      <use xlink:href="#DejaVuSans-Bold-5d" transform="translate(1190.869141 0)"/>
     </g>
    </g>
   </g>
   <g id="LineCollection_1">
    <path d="M 82.513233 228.048411 
L 82.513233 192.48866 
" clip-path="url(#p733e9d8d23)" style="fill: none; stroke: #000000"/>
    <path d="M 82.890517 138.137744 
L 82.890517 105.657173 
" clip-path="url(#p733e9d8d23)" style="fill: none; stroke: #000000"/>
    <path d="M 83.256705 140.223315 
L 83.256705 118.692825 
" clip-path="url(#p733e9d8d23)" style="fill: none; stroke: #000000"/>
    <path d="M 84.366364 200.43785 
L 84.366364 182.19851 
" clip-path="url(#p733e9d8d23)" style="fill: none; stroke: #000000"/>
    <path d="M 85.476023 230.267663 
L 85.476023 217.095994 
" clip-path="url(#p733e9d8d23)" style="fill: none; stroke: #000000"/>
    <path d="M 87.695341 257.183744 
L 87.695341 247.49364 
" clip-path="url(#p733e9d8d23)" style="fill: none; stroke: #000000"/>
    <path d="M 91.024318 277.607166 
L 91.024318 268.951953 
" clip-path="url(#p733e9d8d23)" style="fill: none; stroke: #000000"/>
    <path d="M 95.462955 288.912194 
L 95.462955 280.952579 
" clip-path="url(#p733e9d8d23)" style="fill: none; stroke: #000000"/>
    <path d="M 108.778864 294.704304 
L 108.778864 291.855191 
" clip-path="url(#p733e9d8d23)" style="fill: none; stroke: #000000"/>
    <path d="M 135.410682 299.05207 
L 135.410682 296.825408 
" clip-path="url(#p733e9d8d23)" style="fill: none; stroke: #000000"/>
    <path d="M 162.0425 301.362722 
L 162.0425 299.724204 
" clip-path="url(#p733e9d8d23)" style="fill: none; stroke: #000000"/>
    <path d="M 188.674318 302.802695 
L 188.674318 301.530982 
" clip-path="url(#p733e9d8d23)" style="fill: none; stroke: #000000"/>
    <path d="M 215.306136 303.749235 
L 215.306136 302.867838 
" clip-path="url(#p733e9d8d23)" style="fill: none; stroke: #000000"/>
    <path d="M 241.937955 304.828513 
L 241.937955 304.072246 
" clip-path="url(#p733e9d8d23)" style="fill: none; stroke: #000000"/>
    <path d="M 321.833409 306.007929 
L 321.833409 305.551783 
" clip-path="url(#p733e9d8d23)" style="fill: none; stroke: #000000"/>
    <path d="M 428.360682 307.05609 
L 428.360682 306.866759 
" clip-path="url(#p733e9d8d23)" style="fill: none; stroke: #000000"/>
   </g>
   <g id="LineCollection_2">
    <path d="M 82.513233 258.097954 
L 82.513233 231.294933 
" clip-path="url(#p733e9d8d23)" style="fill: none; stroke: #045a8d"/>
    <path d="M 82.890517 187.341073 
L 82.890517 143.832182 
" clip-path="url(#p733e9d8d23)" style="fill: none; stroke: #045a8d"/>
    <path d="M 83.256705 192.024477 
L 83.256705 143.775558 
" clip-path="url(#p733e9d8d23)" style="fill: none; stroke: #045a8d"/>
    <path d="M 84.366364 225.066906 
L 84.366364 201.565025 
" clip-path="url(#p733e9d8d23)" style="fill: none; stroke: #045a8d"/>
    <path d="M 85.476023 248.416834 
L 85.476023 232.984754 
" clip-path="url(#p733e9d8d23)" style="fill: none; stroke: #045a8d"/>
    <path d="M 87.695341 265.940063 
L 87.695341 248.495126 
" clip-path="url(#p733e9d8d23)" style="fill: none; stroke: #045a8d"/>
    <path d="M 91.024318 274.367714 
L 91.024318 262.292215 
" clip-path="url(#p733e9d8d23)" style="fill: none; stroke: #045a8d"/>
    <path d="M 95.462955 279.940504 
L 95.462955 271.77128 
" clip-path="url(#p733e9d8d23)" style="fill: none; stroke: #045a8d"/>
    <path d="M 108.778864 286.658703 
L 108.778864 278.698594 
" clip-path="url(#p733e9d8d23)" style="fill: none; stroke: #045a8d"/>
    <path d="M 135.410682 291.35374 
L 135.410682 283.646875 
" clip-path="url(#p733e9d8d23)" style="fill: none; stroke: #045a8d"/>
    <path d="M 162.0425 293.302958 
L 162.0425 285.787289 
" clip-path="url(#p733e9d8d23)" style="fill: none; stroke: #045a8d"/>
    <path d="M 188.674318 295.360247 
L 188.674318 289.530419 
" clip-path="url(#p733e9d8d23)" style="fill: none; stroke: #045a8d"/>
    <path d="M 215.306136 296.486319 
L 215.306136 292.226131 
" clip-path="url(#p733e9d8d23)" style="fill: none; stroke: #045a8d"/>
    <path d="M 241.937955 297.209341 
L 241.937955 293.221753 
" clip-path="url(#p733e9d8d23)" style="fill: none; stroke: #045a8d"/>
    <path d="M 321.833409 299.414893 
L 321.833409 296.615497 
" clip-path="url(#p733e9d8d23)" style="fill: none; stroke: #045a8d"/>
    <path d="M 428.360682 301.752943 
L 428.360682 299.979768 
" clip-path="url(#p733e9d8d23)" style="fill: none; stroke: #045a8d"/>
   </g>
   <g id="line2d_14">
    <path d="M 82.147045 307.8 
L 83.9225 185.058756 
L 85.697955 214.793622 
L 87.473409 232.152941 
L 89.248864 242.039818 
L 91.024318 248.952847 
L 92.799773 254.544925 
L 94.575227 259.402822 
L 96.350682 263.749205 
L 98.126136 267.682296 
L 99.901591 271.256524 
L 101.677045 274.509734 
L 103.4525 277.472471 
L 105.227955 280.171245 
L 107.003409 282.629765 
L 108.778864 284.869485 
L 110.554318 286.909898 
L 112.329773 288.768746 
L 115.880682 292.004947 
L 119.431591 294.690843 
L 122.9825 296.920012 
L 126.533409 298.770119 
L 130.084318 300.305622 
L 133.635227 301.580017 
L 137.186136 302.637706 
L 140.737045 303.515538 
L 146.063409 304.560511 
L 151.389773 305.350616 
L 158.491591 306.11281 
L 165.593409 306.637827 
L 174.470682 307.070703 
L 186.898864 307.420168 
L 204.653409 307.650425 
L 234.836136 307.769323 
L 325.384318 307.799735 
L 437.237955 307.799999 
L 437.237955 307.799999 
" clip-path="url(#p733e9d8d23)" style="fill: none; stroke: #000000; stroke-width: 2; stroke-linecap: square"/>
   </g>
   <g id="line2d_15">
    <path d="M 82.513233 210.268535 
L 82.890517 121.897459 
L 83.256705 129.45807 
L 84.366364 191.31818 
L 85.476023 223.681828 
L 87.695341 252.338692 
L 91.024318 273.279559 
L 95.462955 284.932386 
L 108.778864 293.279747 
L 135.410682 297.938739 
L 162.0425 300.543463 
L 188.674318 302.166838 
L 215.306136 303.308536 
L 241.937955 304.450379 
L 321.833409 305.779856 
L 428.360682 306.961424 
" clip-path="url(#p733e9d8d23)" style="fill: none; stroke-dasharray: 3.7,1.6; stroke-dashoffset: 0; stroke: #000000"/>
    <defs>
     <path id="m5e0d69bab9" d="M -3 3 
L 3 3 
L 3 -3 
L -3 -3 
z
" style="stroke: #000000; stroke-linejoin: miter"/>
    </defs>
    <g clip-path="url(#p733e9d8d23)">
     <use xlink:href="#m5e0d69bab9" x="82.513233" y="210.268535" style="stroke: #000000; stroke-linejoin: miter"/>
     <use xlink:href="#m5e0d69bab9" x="82.890517" y="121.897459" style="stroke: #000000; stroke-linejoin: miter"/>
     <use xlink:href="#m5e0d69bab9" x="83.256705" y="129.45807" style="stroke: #000000; stroke-linejoin: miter"/>
     <use xlink:href="#m5e0d69bab9" x="84.366364" y="191.31818" style="stroke: #000000; stroke-linejoin: miter"/>
     <use xlink:href="#m5e0d69bab9" x="85.476023" y="223.681828" style="stroke: #000000; stroke-linejoin: miter"/>
     <use xlink:href="#m5e0d69bab9" x="87.695341" y="252.338692" style="stroke: #000000; stroke-linejoin: miter"/>
     <use xlink:href="#m5e0d69bab9" x="91.024318" y="273.279559" style="stroke: #000000; stroke-linejoin: miter"/>
     <use xlink:href="#m5e0d69bab9" x="95.462955" y="284.932386" style="stroke: #000000; stroke-linejoin: miter"/>
     <use xlink:href="#m5e0d69bab9" x="108.778864" y="293.279747" style="stroke: #000000; stroke-linejoin: miter"/>
     <use xlink:href="#m5e0d69bab9" x="135.410682" y="297.938739" style="stroke: #000000; stroke-linejoin: miter"/>
     <use xlink:href="#m5e0d69bab9" x="162.0425" y="300.543463" style="stroke: #000000; stroke-linejoin: miter"/>
     <use xlink:href="#m5e0d69bab9" x="188.674318" y="302.166838" style="stroke: #000000; stroke-linejoin: miter"/>
     <use xlink:href="#m5e0d69bab9" x="215.306136" y="303.308536" style="stroke: #000000; stroke-linejoin: miter"/>
     <use xlink:href="#m5e0d69bab9" x="241.937955" y="304.450379" style="stroke: #000000; stroke-linejoin: miter"/>
     <use xlink:href="#m5e0d69bab9" x="321.833409" y="305.779856" style="stroke: #000000; stroke-linejoin: miter"/>
     <use xlink:href="#m5e0d69bab9" x="428.360682" y="306.961424" style="stroke: #000000; stroke-linejoin: miter"/>
    </g>
   </g>
   <g id="line2d_16">
    <path d="M 82.147045 307.8 
L 83.9225 55.8 
L 85.697955 98.982828 
L 87.473409 121.587418 
L 89.248864 131.692546 
L 91.024318 137.338892 
L 92.799773 141.43795 
L 96.350682 148.280152 
L 99.901591 154.571076 
L 105.227955 163.499148 
L 110.554318 171.903167 
L 115.880682 179.817608 
L 121.207045 187.27113 
L 126.533409 194.290581 
L 131.859773 200.901237 
L 137.186136 207.126905 
L 142.5125 212.990005 
L 147.838864 218.511651 
L 153.165227 223.711728 
L 158.491591 228.608962 
L 163.817955 233.22099 
L 169.144318 237.564421 
L 174.470682 241.654897 
L 179.797045 245.50715 
L 185.123409 249.135053 
L 190.449773 252.551672 
L 197.551591 256.799662 
L 204.653409 260.721031 
L 211.755227 264.340893 
L 218.857045 267.68243 
L 225.958864 270.76704 
L 233.060682 273.614479 
L 240.1625 276.242982 
L 247.264318 278.669382 
L 256.141591 281.441734 
L 265.018864 283.950243 
L 273.896136 286.22002 
L 282.773409 288.273783 
L 293.426136 290.481966 
L 304.078864 292.440431 
L 314.731591 294.177418 
L 327.159773 295.957232 
L 339.587955 297.504511 
L 353.791591 299.026879 
L 367.995227 300.324138 
L 383.974318 301.555729 
L 401.728864 302.687709 
L 421.258864 303.697366 
L 437.237955 304.373244 
L 437.237955 304.373244 
" clip-path="url(#p733e9d8d23)" style="fill: none; stroke: #045a8d; stroke-width: 2; stroke-linecap: square"/>
   </g>
   <g id="line2d_17">
    <path d="M 82.513233 244.696443 
L 82.890517 165.586628 
L 83.256705 167.900017 
L 84.366364 213.315966 
L 85.476023 240.700794 
L 87.695341 257.217594 
L 91.024318 268.329964 
L 95.462955 275.855892 
L 108.778864 282.678648 
L 135.410682 287.500307 
L 162.0425 289.545124 
L 188.674318 292.445333 
L 215.306136 294.356225 
L 241.937955 295.215547 
L 321.833409 298.015195 
L 428.360682 300.866355 
" clip-path="url(#p733e9d8d23)" style="fill: none; stroke-dasharray: 3.7,1.6; stroke-dashoffset: 0; stroke: #045a8d"/>
    <defs>
     <path id="m3395c48148" d="M -3 3 
L 3 3 
L 3 -3 
L -3 -3 
z
" style="stroke: #000000; stroke-linejoin: miter"/>
    </defs>
    <g clip-path="url(#p733e9d8d23)">
     <use xlink:href="#m3395c48148" x="82.513233" y="244.696443" style="fill: #045a8d; stroke: #000000; stroke-linejoin: miter"/>
     <use xlink:href="#m3395c48148" x="82.890517" y="165.586628" style="fill: #045a8d; stroke: #000000; stroke-linejoin: miter"/>
     <use xlink:href="#m3395c48148" x="83.256705" y="167.900017" style="fill: #045a8d; stroke: #000000; stroke-linejoin: miter"/>
     <use xlink:href="#m3395c48148" x="84.366364" y="213.315966" style="fill: #045a8d; stroke: #000000; stroke-linejoin: miter"/>
     <use xlink:href="#m3395c48148" x="85.476023" y="240.700794" style="fill: #045a8d; stroke: #000000; stroke-linejoin: miter"/>
     <use xlink:href="#m3395c48148" x="87.695341" y="257.217594" style="fill: #045a8d; stroke: #000000; stroke-linejoin: miter"/>
     <use xlink:href="#m3395c48148" x="91.024318" y="268.329964" style="fill: #045a8d; stroke: #000000; stroke-linejoin: miter"/>
     <use xlink:href="#m3395c48148" x="95.462955" y="275.855892" style="fill: #045a8d; stroke: #000000; stroke-linejoin: miter"/>
     <use xlink:href="#m3395c48148" x="108.778864" y="282.678648" style="fill: #045a8d; stroke: #000000; stroke-linejoin: miter"/>
     <use xlink:href="#m3395c48148" x="135.410682" y="287.500307" style="fill: #045a8d; stroke: #000000; stroke-linejoin: miter"/>
     <use xlink:href="#m3395c48148" x="162.0425" y="289.545124" style="fill: #045a8d; stroke: #000000; stroke-linejoin: miter"/>
     <use xlink:href="#m3395c48148" x="188.674318" y="292.445333" style="fill: #045a8d; stroke: #000000; stroke-linejoin: miter"/>
     <use xlink:href="#m3395c48148" x="215.306136" y="294.356225" style="fill: #045a8d; stroke: #000000; stroke-linejoin: miter"/>
     <use xlink:href="#m3395c48148" x="241.937955" y="295.215547" style="fill: #045a8d; stroke: #000000; stroke-linejoin: miter"/>
     <use xlink:href="#m3395c48148" x="321.833409" y="298.015195" style="fill: #045a8d; stroke: #000000; stroke-linejoin: miter"/>
     <use xlink:href="#m3395c48148" x="428.360682" y="300.866355" style="fill: #045a8d; stroke: #000000; stroke-linejoin: miter"/>
    </g>
   </g>
   <g id="patch_3">
    <path d="M 64.3925 320.4 
L 64.3925 43.2 
" style="fill: none; stroke: #000000; stroke-width: 0.8; stroke-linejoin: miter; stroke-linecap: square"/>
   </g>
   <g id="patch_4">
    <path d="M 454.9925 320.4 
L 454.9925 43.2 
" style="fill: none; stroke: #000000; stroke-width: 0.8; stroke-linejoin: miter; stroke-linecap: square"/>
   </g>
   <g id="patch_5">
    <path d="M 64.3925 320.4 
L 454.9925 320.4 
" style="fill: none; stroke: #000000; stroke-width: 0.8; stroke-linejoin: miter; stroke-linecap: square"/>
   </g>
   <g id="patch_6">
    <path d="M 64.3925 43.2 
L 454.9925 43.2 
" style="fill: none; stroke: #000000; stroke-width: 0.8; stroke-linejoin: miter; stroke-linecap: square"/>
   </g>
   <g id="legend_1">
    <g id="patch_7">
     <path d="M 312.6675 110.46875 
L 447.9925 110.46875 
Q 449.9925 110.46875 449.9925 108.46875 
L 449.9925 50.2 
Q 449.9925 48.2 447.9925 48.2 
L 312.6675 48.2 
Q 310.6675 48.2 310.6675 50.2 
L 310.6675 108.46875 
Q 310.6675 110.46875 312.6675 110.46875 
z
" style="fill: #ffffff; opacity: 0.8; stroke: #cccccc; stroke-linejoin: miter"/>
    </g>
    <g id="line2d_18">
     <path d="M 314.6675 56.298437 
L 334.6675 56.298437 
" style="fill: none; stroke: #000000; stroke-width: 2; stroke-linecap: square"/>
    </g>
    <g id="line2d_19"/>
    <g id="text_16">
     <!-- CONTROL -->
     <g transform="translate(342.6675 59.798437) scale(0.1 -0.1)">
      <defs>
       <path id="DejaVuSans-43" d="M 4122 4306 
L 4122 3641 
Q 3803 3938 3442 4084 
Q 3081 4231 2675 4231 
Q 1875 4231 1450 3742 
Q 1025 3253 1025 2328 
Q 1025 1406 1450 917 
Q 1875 428 2675 428 
Q 3081 428 3442 575 
Q 3803 722 4122 1019 
L 4122 359 
Q 3791 134 3420 21 
Q 3050 -91 2638 -91 
Q 1578 -91 968 557 
Q 359 1206 359 2328 
Q 359 3453 968 4101 
Q 1578 4750 2638 4750 
Q 3056 4750 3426 4639 
Q 3797 4528 4122 4306 
z
" transform="scale(0.015625)"/>
       <path id="DejaVuSans-4f" d="M 2522 4238 
Q 1834 4238 1429 3725 
Q 1025 3213 1025 2328 
Q 1025 1447 1429 934 
Q 1834 422 2522 422 
Q 3209 422 3611 934 
Q 4013 1447 4013 2328 
Q 4013 3213 3611 3725 
Q 3209 4238 2522 4238 
z
M 2522 4750 
Q 3503 4750 4090 4092 
Q 4678 3434 4678 2328 
Q 4678 1225 4090 567 
Q 3503 -91 2522 -91 
Q 1538 -91 948 565 
Q 359 1222 359 2328 
Q 359 3434 948 4092 
Q 1538 4750 2522 4750 
z
" transform="scale(0.015625)"/>
       <path id="DejaVuSans-4e" d="M 628 4666 
L 1478 4666 
L 3547 763 
L 3547 4666 
L 4159 4666 
L 4159 0 
L 3309 0 
L 1241 3903 
L 1241 0 
L 628 0 
L 628 4666 
z
" transform="scale(0.015625)"/>
       <path id="DejaVuSans-54" d="M -19 4666 
L 3928 4666 
L 3928 4134 
L 2272 4134 
L 2272 0 
L 1638 0 
L 1638 4134 
L -19 4134 
L -19 4666 
z
" transform="scale(0.015625)"/>
       <path id="DejaVuSans-52" d="M 2841 2188 
Q 3044 2119 3236 1894 
Q 3428 1669 3622 1275 
L 4263 0 
L 3584 0 
L 2988 1197 
Q 2756 1666 2539 1819 
Q 2322 1972 1947 1972 
L 1259 1972 
L 1259 0 
L 628 0 
L 628 4666 
L 2053 4666 
Q 2853 4666 3247 4331 
Q 3641 3997 3641 3322 
Q 3641 2881 3436 2590 
Q 3231 2300 2841 2188 
z
M 1259 4147 
L 1259 2491 
L 2053 2491 
Q 2509 2491 2742 2702 
Q 2975 2913 2975 3322 
Q 2975 3731 2742 3939 
Q 2509 4147 2053 4147 
L 1259 4147 
z
" transform="scale(0.015625)"/>
       <path id="DejaVuSans-4c" d="M 628 4666 
L 1259 4666 
L 1259 531 
L 3531 531 
L 3531 0 
L 628 0 
L 628 4666 
z
" transform="scale(0.015625)"/>
      </defs>
      <use xlink:href="#DejaVuSans-43"/>
      <use xlink:href="#DejaVuSans-4f" transform="translate(69.824219 0)"/>
      <use xlink:href="#DejaVuSans-4e" transform="translate(148.535156 0)"/>
      <use xlink:href="#DejaVuSans-54" transform="translate(223.339844 0)"/>
      <use xlink:href="#DejaVuSans-52" transform="translate(284.423828 0)"/>
      <use xlink:href="#DejaVuSans-4f" transform="translate(353.90625 0)"/>
      <use xlink:href="#DejaVuSans-4c" transform="translate(432.617188 0)"/>
     </g>
    </g>
    <g id="LineCollection_3">
     <path d="M 324.6675 75.976562 
L 324.6675 65.976562 
" style="fill: none; stroke: #000000"/>
    </g>
    <g id="line2d_20">
     <path d="M 314.6675 70.976562 
L 334.6675 70.976562 
" style="fill: none; stroke-dasharray: 3.7,1.6; stroke-dashoffset: 0; stroke: #000000"/>
    </g>
    <g id="line2d_21">
     <g>
      <use xlink:href="#m5e0d69bab9" x="324.6675" y="70.976562" style="stroke: #000000; stroke-linejoin: miter"/>
     </g>
    </g>
    <g id="text_17">
     <!-- CONTROL±SD (n=9) -->
     <g transform="translate(342.6675 74.476562) scale(0.1 -0.1)">
      <defs>
       <path id="DejaVuSans-b1" d="M 2944 4013 
L 2944 2803 
L 4684 2803 
L 4684 2272 
L 2944 2272 
L 2944 1063 
L 2419 1063 
L 2419 2272 
L 678 2272 
L 678 2803 
L 2419 2803 
L 2419 4013 
L 2944 4013 
z
M 678 531 
L 4684 531 
L 4684 0 
L 678 0 
L 678 531 
z
" transform="scale(0.015625)"/>
       <path id="DejaVuSans-53" d="M 3425 4513 
L 3425 3897 
Q 3066 4069 2747 4153 
Q 2428 4238 2131 4238 
Q 1616 4238 1336 4038 
Q 1056 3838 1056 3469 
Q 1056 3159 1242 3001 
Q 1428 2844 1947 2747 
L 2328 2669 
Q 3034 2534 3370 2195 
Q 3706 1856 3706 1288 
Q 3706 609 3251 259 
Q 2797 -91 1919 -91 
Q 1588 -91 1214 -16 
Q 841 59 441 206 
L 441 856 
Q 825 641 1194 531 
Q 1563 422 1919 422 
Q 2459 422 2753 634 
Q 3047 847 3047 1241 
Q 3047 1584 2836 1778 
Q 2625 1972 2144 2069 
L 1759 2144 
Q 1053 2284 737 2584 
Q 422 2884 422 3419 
Q 422 4038 858 4394 
Q 1294 4750 2059 4750 
Q 2388 4750 2728 4690 
Q 3069 4631 3425 4513 
z
" transform="scale(0.015625)"/>
       <path id="DejaVuSans-44" d="M 1259 4147 
L 1259 519 
L 2022 519 
Q 2988 519 3436 956 
Q 3884 1394 3884 2338 
Q 3884 3275 3436 3711 
Q 2988 4147 2022 4147 
L 1259 4147 
z
M 628 4666 
L 1925 4666 
Q 3281 4666 3915 4102 
Q 4550 3538 4550 2338 
Q 4550 1131 3912 565 
Q 3275 0 1925 0 
L 628 0 
L 628 4666 
z
" transform="scale(0.015625)"/>
       <path id="DejaVuSans-20" transform="scale(0.015625)"/>
       <path id="DejaVuSans-28" d="M 1984 4856 
Q 1566 4138 1362 3434 
Q 1159 2731 1159 2009 
Q 1159 1288 1364 580 
Q 1569 -128 1984 -844 
L 1484 -844 
Q 1016 -109 783 600 
Q 550 1309 550 2009 
Q 550 2706 781 3412 
Q 1013 4119 1484 4856 
L 1984 4856 
z
" transform="scale(0.015625)"/>
       <path id="DejaVuSans-6e" d="M 3513 2113 
L 3513 0 
L 2938 0 
L 2938 2094 
Q 2938 2591 2744 2837 
Q 2550 3084 2163 3084 
Q 1697 3084 1428 2787 
Q 1159 2491 1159 1978 
L 1159 0 
L 581 0 
L 581 3500 
L 1159 3500 
L 1159 2956 
Q 1366 3272 1645 3428 
Q 1925 3584 2291 3584 
Q 2894 3584 3203 3211 
Q 3513 2838 3513 2113 
z
" transform="scale(0.015625)"/>
       <path id="DejaVuSans-3d" d="M 678 2906 
L 4684 2906 
L 4684 2381 
L 678 2381 
L 678 2906 
z
M 678 1631 
L 4684 1631 
L 4684 1100 
L 678 1100 
L 678 1631 
z
" transform="scale(0.015625)"/>
       <path id="DejaVuSans-39" d="M 703 97 
L 703 672 
Q 941 559 1184 500 
Q 1428 441 1663 441 
Q 2288 441 2617 861 
Q 2947 1281 2994 2138 
Q 2813 1869 2534 1725 
Q 2256 1581 1919 1581 
Q 1219 1581 811 2004 
Q 403 2428 403 3163 
Q 403 3881 828 4315 
Q 1253 4750 1959 4750 
Q 2769 4750 3195 4129 
Q 3622 3509 3622 2328 
Q 3622 1225 3098 567 
Q 2575 -91 1691 -91 
Q 1453 -91 1209 -44 
Q 966 3 703 97 
z
M 1959 2075 
Q 2384 2075 2632 2365 
Q 2881 2656 2881 3163 
Q 2881 3666 2632 3958 
Q 2384 4250 1959 4250 
Q 1534 4250 1286 3958 
Q 1038 3666 1038 3163 
Q 1038 2656 1286 2365 
Q 1534 2075 1959 2075 
z
" transform="scale(0.015625)"/>
       <path id="DejaVuSans-29" d="M 513 4856 
L 1013 4856 
Q 1481 4119 1714 3412 
Q 1947 2706 1947 2009 
Q 1947 1309 1714 600 
Q 1481 -109 1013 -844 
L 513 -844 
Q 928 -128 1133 580 
Q 1338 1288 1338 2009 
Q 1338 2731 1133 3434 
Q 928 4138 513 4856 
z
" transform="scale(0.015625)"/>
      </defs>
      <use xlink:href="#DejaVuSans-43"/>
      <use xlink:href="#DejaVuSans-4f" transform="translate(69.824219 0)"/>
      <use xlink:href="#DejaVuSans-4e" transform="translate(148.535156 0)"/>
      <use xlink:href="#DejaVuSans-54" transform="translate(223.339844 0)"/>
      <use xlink:href="#DejaVuSans-52" transform="translate(284.423828 0)"/>
      <use xlink:href="#DejaVuSans-4f" transform="translate(353.90625 0)"/>
      <use xlink:href="#DejaVuSans-4c" transform="translate(432.617188 0)"/>
      <use xlink:href="#DejaVuSans-b1" transform="translate(488.330078 0)"/>
      <use xlink:href="#DejaVuSans-53" transform="translate(572.119141 0)"/>
      <use xlink:href="#DejaVuSans-44" transform="translate(635.595703 0)"/>
      <use xlink:href="#DejaVuSans-20" transform="translate(712.597656 0)"/>
      <use xlink:href="#DejaVuSans-28" transform="translate(744.384766 0)"/>
      <use xlink:href="#DejaVuSans-6e" transform="translate(783.398438 0)"/>
      <use xlink:href="#DejaVuSans-3d" transform="translate(846.777344 0)"/>
      <use xlink:href="#DejaVuSans-39" transform="translate(930.566406 0)"/>
      <use xlink:href="#DejaVuSans-29" transform="translate(994.189453 0)"/>
     </g>
    </g>
    <g id="line2d_22">
     <path d="M 314.6675 85.654687 
L 334.6675 85.654687 
" style="fill: none; stroke: #045a8d; stroke-width: 2; stroke-linecap: square"/>
    </g>
    <g id="line2d_23"/>
    <g id="text_18">
     <!-- GRADE_C -->
     <g transform="translate(342.6675 89.154687) scale(0.1 -0.1)">
      <defs>
       <path id="DejaVuSans-47" d="M 3809 666 
L 3809 1919 
L 2778 1919 
L 2778 2438 
L 4434 2438 
L 4434 434 
Q 4069 175 3628 42 
Q 3188 -91 2688 -91 
Q 1594 -91 976 548 
Q 359 1188 359 2328 
Q 359 3472 976 4111 
Q 1594 4750 2688 4750 
Q 3144 4750 3555 4637 
Q 3966 4525 4313 4306 
L 4313 3634 
Q 3963 3931 3569 4081 
Q 3175 4231 2741 4231 
Q 1884 4231 1454 3753 
Q 1025 3275 1025 2328 
Q 1025 1384 1454 906 
Q 1884 428 2741 428 
Q 3075 428 3337 486 
Q 3600 544 3809 666 
z
" transform="scale(0.015625)"/>
       <path id="DejaVuSans-41" d="M 2188 4044 
L 1331 1722 
L 3047 1722 
L 2188 4044 
z
M 1831 4666 
L 2547 4666 
L 4325 0 
L 3669 0 
L 3244 1197 
L 1141 1197 
L 716 0 
L 50 0 
L 1831 4666 
z
" transform="scale(0.015625)"/>
       <path id="DejaVuSans-45" d="M 628 4666 
L 3578 4666 
L 3578 4134 
L 1259 4134 
L 1259 2753 
L 3481 2753 
L 3481 2222 
L 1259 2222 
L 1259 531 
L 3634 531 
L 3634 0 
L 628 0 
L 628 4666 
z
" transform="scale(0.015625)"/>
       <path id="DejaVuSans-5f" d="M 3263 -1063 
L 3263 -1509 
L -63 -1509 
L -63 -1063 
L 3263 -1063 
z
" transform="scale(0.015625)"/>
      </defs>
      <use xlink:href="#DejaVuSans-47"/>
      <use xlink:href="#DejaVuSans-52" transform="translate(77.490234 0)"/>
      <use xlink:href="#DejaVuSans-41" transform="translate(142.972656 0)"/>
      <use xlink:href="#DejaVuSans-44" transform="translate(211.380859 0)"/>
      <use xlink:href="#DejaVuSans-45" transform="translate(288.382812 0)"/>
      <use xlink:href="#DejaVuSans-5f" transform="translate(351.566406 0)"/>
      <use xlink:href="#DejaVuSans-43" transform="translate(401.566406 0)"/>
     </g>
    </g>
    <g id="LineCollection_4">
     <path d="M 324.6675 105.610937 
L 324.6675 95.610937 
" style="fill: none; stroke: #045a8d"/>
    </g>
    <g id="line2d_24">
     <path d="M 314.6675 100.610937 
L 334.6675 100.610937 
" style="fill: none; stroke-dasharray: 3.7,1.6; stroke-dashoffset: 0; stroke: #045a8d"/>
    </g>
    <g id="line2d_25">
     <g>
      <use xlink:href="#m3395c48148" x="324.6675" y="100.610937" style="fill: #045a8d; stroke: #000000; stroke-linejoin: miter"/>
     </g>
    </g>
    <g id="text_19">
     <!-- GRADE_C±SD (n=9) -->
     <g transform="translate(342.6675 104.110937) scale(0.1 -0.1)">
      <use xlink:href="#DejaVuSans-47"/>
      <use xlink:href="#DejaVuSans-52" transform="translate(77.490234 0)"/>
      <use xlink:href="#DejaVuSans-41" transform="translate(142.972656 0)"/>
      <use xlink:href="#DejaVuSans-44" transform="translate(211.380859 0)"/>
      <use xlink:href="#DejaVuSans-45" transform="translate(288.382812 0)"/>
      <use xlink:href="#DejaVuSans-5f" transform="translate(351.566406 0)"/>
      <use xlink:href="#DejaVuSans-43" transform="translate(401.566406 0)"/>
      <use xlink:href="#DejaVuSans-b1" transform="translate(471.390625 0)"/>
      <use xlink:href="#DejaVuSans-53" transform="translate(555.179688 0)"/>
      <use xlink:href="#DejaVuSans-44" transform="translate(618.65625 0)"/>
      <use xlink:href="#DejaVuSans-20" transform="translate(695.658203 0)"/>
      <use xlink:href="#DejaVuSans-28" transform="translate(727.445312 0)"/>
      <use xlink:href="#DejaVuSans-6e" transform="translate(766.458984 0)"/>
      <use xlink:href="#DejaVuSans-3d" transform="translate(829.837891 0)"/>
      <use xlink:href="#DejaVuSans-39" transform="translate(913.626953 0)"/>
      <use xlink:href="#DejaVuSans-29" transform="translate(977.25 0)"/>
     </g>
    </g>
   </g>
  </g>
  <g id="text_20">
   <!-- Zimmerman2008 -->
   <g transform="translate(134.201094 26.196094) scale(0.25 -0.25)">
    <defs>
     <path id="DejaVuSans-Bold-5a" d="M 359 4666 
L 4281 4666 
L 4281 3938 
L 1778 909 
L 4353 909 
L 4353 0 
L 288 0 
L 288 728 
L 2791 3756 
L 359 3756 
L 359 4666 
z
" transform="scale(0.015625)"/>
     <path id="DejaVuSans-Bold-32" d="M 1844 884 
L 3897 884 
L 3897 0 
L 506 0 
L 506 884 
L 2209 2388 
Q 2438 2594 2547 2791 
Q 2656 2988 2656 3200 
Q 2656 3528 2436 3728 
Q 2216 3928 1850 3928 
Q 1569 3928 1234 3808 
Q 900 3688 519 3450 
L 519 4475 
Q 925 4609 1322 4679 
Q 1719 4750 2100 4750 
Q 2938 4750 3402 4381 
Q 3866 4013 3866 3353 
Q 3866 2972 3669 2642 
Q 3472 2313 2841 1759 
L 1844 884 
z
" transform="scale(0.015625)"/>
     <path id="DejaVuSans-Bold-30" d="M 2944 2338 
Q 2944 3213 2780 3570 
Q 2616 3928 2228 3928 
Q 1841 3928 1675 3570 
Q 1509 3213 1509 2338 
Q 1509 1453 1675 1090 
Q 1841 728 2228 728 
Q 2613 728 2778 1090 
Q 2944 1453 2944 2338 
z
M 4147 2328 
Q 4147 1169 3647 539 
Q 3147 -91 2228 -91 
Q 1306 -91 806 539 
Q 306 1169 306 2328 
Q 306 3491 806 4120 
Q 1306 4750 2228 4750 
Q 3147 4750 3647 4120 
Q 4147 3491 4147 2328 
z
" transform="scale(0.015625)"/>
     <path id="DejaVuSans-Bold-38" d="M 2228 2088 
Q 1891 2088 1709 1903 
Q 1528 1719 1528 1375 
Q 1528 1031 1709 848 
Q 1891 666 2228 666 
Q 2563 666 2741 848 
Q 2919 1031 2919 1375 
Q 2919 1722 2741 1905 
Q 2563 2088 2228 2088 
z
M 1350 2484 
Q 925 2613 709 2878 
Q 494 3144 494 3541 
Q 494 4131 934 4440 
Q 1375 4750 2228 4750 
Q 3075 4750 3515 4442 
Q 3956 4134 3956 3541 
Q 3956 3144 3739 2878 
Q 3522 2613 3097 2484 
Q 3572 2353 3814 2058 
Q 4056 1763 4056 1313 
Q 4056 619 3595 264 
Q 3134 -91 2228 -91 
Q 1319 -91 855 264 
Q 391 619 391 1313 
Q 391 1763 633 2058 
Q 875 2353 1350 2484 
z
M 1631 3419 
Q 1631 3141 1786 2991 
Q 1941 2841 2228 2841 
Q 2509 2841 2662 2991 
Q 2816 3141 2816 3419 
Q 2816 3697 2662 3845 
Q 2509 3994 2228 3994 
Q 1941 3994 1786 3844 
Q 1631 3694 1631 3419 
z
" transform="scale(0.015625)"/>
    </defs>
    <use xlink:href="#DejaVuSans-Bold-5a"/>
    <use xlink:href="#DejaVuSans-Bold-69" transform="translate(72.509766 0)"/>
    <use xlink:href="#DejaVuSans-Bold-6d" transform="translate(106.787109 0)"/>
    <use xlink:href="#DejaVuSans-Bold-6d" transform="translate(210.986328 0)"/>
    <use xlink:href="#DejaVuSans-Bold-65" transform="translate(315.185547 0)"/>
    <use xlink:href="#DejaVuSans-Bold-72" transform="translate(383.007812 0)"/>
    <use xlink:href="#DejaVuSans-Bold-6d" transform="translate(432.324219 0)"/>
    <use xlink:href="#DejaVuSans-Bold-61" transform="translate(536.523438 0)"/>
    <use xlink:href="#DejaVuSans-Bold-6e" transform="translate(604.003906 0)"/>
    <use xlink:href="#DejaVuSans-Bold-32" transform="translate(675.195312 0)"/>
    <use xlink:href="#DejaVuSans-Bold-30" transform="translate(744.775391 0)"/>
    <use xlink:href="#DejaVuSans-Bold-30" transform="translate(814.355469 0)"/>
    <use xlink:href="#DejaVuSans-Bold-38" transform="translate(883.935547 0)"/>
   </g>
  </g>
 </g>
 <defs>
  <clipPath id="p733e9d8d23">
   <rect x="64.3925" y="43.2" width="390.6" height="277.2"/>
  </clipPath>
 </defs>
</svg>
