<?xml version="1.0" encoding="utf-8" standalone="no"?>
<!DOCTYPE svg PUBLIC "-//W3C//DTD SVG 1.1//EN"
  "http://www.w3.org/Graphics/SVG/1.1/DTD/svg11.dtd">
<svg xmlns:xlink="http://www.w3.org/1999/xlink" width="667.886813pt" height="683.737812pt" viewBox="0 0 667.886813 683.737812" xmlns="http://www.w3.org/2000/svg" version="1.1">
 <metadata>
  <rdf:RDF xmlns:dc="http://purl.org/dc/elements/1.1/" xmlns:cc="http://creativecommons.org/ns#" xmlns:rdf="http://www.w3.org/1999/02/22-rdf-syntax-ns#">
   <cc:Work>
    <dc:type rdf:resource="http://purl.org/dc/dcmitype/StillImage"/>
    <dc:date>2025-09-10T11:20:03.192889</dc:date>
    <dc:format>image/svg+xml</dc:format>
    <dc:creator>
     <cc:Agent>
      <dc:title>Matplotlib v3.10.6, https://matplotlib.org/</dc:title>
     </cc:Agent>
    </dc:creator>
   </cc:Work>
  </rdf:RDF>
 </metadata>
 <defs>
  <style type="text/css">*{stroke-linejoin: round; stroke-linecap: butt}</style>
 </defs>
 <g id="figure_1">
  <g id="patch_1">
   <path d="M 0 683.737812 
L 667.886813 683.737812 
L 667.886813 0 
L 0 0 
z
" style="fill: #ffffff"/>
  </g>
  <g id="axes_1">
   <g id="patch_2">
    <path d="M 69.159688 320.243478 
L 459.759688 320.243478 
L 459.759688 79.2 
L 69.159688 79.2 
z
" style="fill: #ffffff"/>
   </g>
   <g id="matplotlib.axis_1">
    <g id="xtick_1">
     <g id="line2d_1">
      <defs>
       <path id="m1d6ce4f608" d="M 0 0 
L 0 3.5 
" style="stroke: #000000; stroke-width: 0.8"/>
      </defs>
      <g>
       <use xlink:href="#m1d6ce4f608" x="86.914233" y="320.243478" style="stroke: #000000; stroke-width: 0.8"/>
      </g>
     </g>
     <g id="text_1">
      <!-- 0 -->
      <g transform="translate(82.142358 338.641135) scale(0.15 -0.15)">
       <defs>
        <path id="DejaVuSans-30" d="M 2034 4250 
Q 1547 4250 1301 3770 
Q 1056 3291 1056 2328 
Q 1056 1369 1301 889 
Q 1547 409 2034 409 
Q 2525 409 2770 889 
Q 3016 1369 3016 2328 
Q 3016 3291 2770 3770 
Q 2525 4250 2034 4250 
z
M 2034 4750 
Q 2819 4750 3233 4129 
Q 3647 3509 3647 2328 
Q 3647 1150 3233 529 
Q 2819 -91 2034 -91 
Q 1250 -91 836 529 
Q 422 1150 422 2328 
Q 422 3509 836 4129 
Q 1250 4750 2034 4750 
z
" transform="scale(0.015625)"/>
       </defs>
       <use xlink:href="#DejaVuSans-30"/>
      </g>
     </g>
    </g>
    <g id="xtick_2">
     <g id="line2d_2">
      <g>
       <use xlink:href="#m1d6ce4f608" x="146.096051" y="320.243478" style="stroke: #000000; stroke-width: 0.8"/>
      </g>
     </g>
     <g id="text_2">
      <!-- 25 -->
      <g transform="translate(136.552301 338.641135) scale(0.15 -0.15)">
       <defs>
        <path id="DejaVuSans-32" d="M 1228 531 
L 3431 531 
L 3431 0 
L 469 0 
L 469 531 
Q 828 903 1448 1529 
Q 2069 2156 2228 2338 
Q 2531 2678 2651 2914 
Q 2772 3150 2772 3378 
Q 2772 3750 2511 3984 
Q 2250 4219 1831 4219 
Q 1534 4219 1204 4116 
Q 875 4013 500 3803 
L 500 4441 
Q 881 4594 1212 4672 
Q 1544 4750 1819 4750 
Q 2544 4750 2975 4387 
Q 3406 4025 3406 3419 
Q 3406 3131 3298 2873 
Q 3191 2616 2906 2266 
Q 2828 2175 2409 1742 
Q 1991 1309 1228 531 
z
" transform="scale(0.015625)"/>
        <path id="DejaVuSans-35" d="M 691 4666 
L 3169 4666 
L 3169 4134 
L 1269 4134 
L 1269 2991 
Q 1406 3038 1543 3061 
Q 1681 3084 1819 3084 
Q 2600 3084 3056 2656 
Q 3513 2228 3513 1497 
Q 3513 744 3044 326 
Q 2575 -91 1722 -91 
Q 1428 -91 1123 -41 
Q 819 9 494 109 
L 494 744 
Q 775 591 1075 516 
Q 1375 441 1709 441 
Q 2250 441 2565 725 
Q 2881 1009 2881 1497 
Q 2881 1984 2565 2268 
Q 2250 2553 1709 2553 
Q 1456 2553 1204 2497 
Q 953 2441 691 2322 
L 691 4666 
z
" transform="scale(0.015625)"/>
       </defs>
       <use xlink:href="#DejaVuSans-32"/>
       <use xlink:href="#DejaVuSans-35" transform="translate(63.623047 0)"/>
      </g>
     </g>
    </g>
    <g id="xtick_3">
     <g id="line2d_3">
      <g>
       <use xlink:href="#m1d6ce4f608" x="205.277869" y="320.243478" style="stroke: #000000; stroke-width: 0.8"/>
      </g>
     </g>
     <g id="text_3">
      <!-- 50 -->
      <g transform="translate(195.734119 338.641135) scale(0.15 -0.15)">
       <use xlink:href="#DejaVuSans-35"/>
       <use xlink:href="#DejaVuSans-30" transform="translate(63.623047 0)"/>
      </g>
     </g>
    </g>
    <g id="xtick_4">
     <g id="line2d_4">
      <g>
       <use xlink:href="#m1d6ce4f608" x="264.459687" y="320.243478" style="stroke: #000000; stroke-width: 0.8"/>
      </g>
     </g>
     <g id="text_4">
      <!-- 75 -->
      <g transform="translate(254.915937 338.641135) scale(0.15 -0.15)">
       <defs>
        <path id="DejaVuSans-37" d="M 525 4666 
L 3525 4666 
L 3525 4397 
L 1831 0 
L 1172 0 
L 2766 4134 
L 525 4134 
L 525 4666 
z
" transform="scale(0.015625)"/>
       </defs>
       <use xlink:href="#DejaVuSans-37"/>
       <use xlink:href="#DejaVuSans-35" transform="translate(63.623047 0)"/>
      </g>
     </g>
    </g>
    <g id="xtick_5">
     <g id="line2d_5">
      <g>
       <use xlink:href="#m1d6ce4f608" x="323.641506" y="320.243478" style="stroke: #000000; stroke-width: 0.8"/>
      </g>
     </g>
     <g id="text_5">
      <!-- 100 -->
      <g transform="translate(309.325881 338.641135) scale(0.15 -0.15)">
       <defs>
        <path id="DejaVuSans-31" d="M 794 531 
L 1825 531 
L 1825 4091 
L 703 3866 
L 703 4441 
L 1819 4666 
L 2450 4666 
L 2450 531 
L 3481 531 
L 3481 0 
L 794 0 
L 794 531 
z
" transform="scale(0.015625)"/>
       </defs>
       <use xlink:href="#DejaVuSans-31"/>
       <use xlink:href="#DejaVuSans-30" transform="translate(63.623047 0)"/>
       <use xlink:href="#DejaVuSans-30" transform="translate(127.246094 0)"/>
      </g>
     </g>
    </g>
    <g id="xtick_6">
     <g id="line2d_6">
      <g>
       <use xlink:href="#m1d6ce4f608" x="382.823324" y="320.243478" style="stroke: #000000; stroke-width: 0.8"/>
      </g>
     </g>
     <g id="text_6">
      <!-- 125 -->
      <g transform="translate(368.507699 338.641135) scale(0.15 -0.15)">
       <use xlink:href="#DejaVuSans-31"/>
       <use xlink:href="#DejaVuSans-32" transform="translate(63.623047 0)"/>
       <use xlink:href="#DejaVuSans-35" transform="translate(127.246094 0)"/>
      </g>
     </g>
    </g>
    <g id="xtick_7">
     <g id="line2d_7">
      <g>
       <use xlink:href="#m1d6ce4f608" x="442.005142" y="320.243478" style="stroke: #000000; stroke-width: 0.8"/>
      </g>
     </g>
     <g id="text_7">
      <!-- 150 -->
      <g transform="translate(427.689517 338.641135) scale(0.15 -0.15)">
       <use xlink:href="#DejaVuSans-31"/>
       <use xlink:href="#DejaVuSans-35" transform="translate(63.623047 0)"/>
       <use xlink:href="#DejaVuSans-30" transform="translate(127.246094 0)"/>
      </g>
     </g>
    </g>
    <g id="text_8">
     <!-- time [hr] -->
     <g transform="translate(219.385156 359.437853) scale(0.18 -0.18)">
      <defs>
       <path id="DejaVuSans-Bold-74" d="M 1759 4494 
L 1759 3500 
L 2913 3500 
L 2913 2700 
L 1759 2700 
L 1759 1216 
Q 1759 972 1856 886 
Q 1953 800 2241 800 
L 2816 800 
L 2816 0 
L 1856 0 
Q 1194 0 917 276 
Q 641 553 641 1216 
L 641 2700 
L 84 2700 
L 84 3500 
L 641 3500 
L 641 4494 
L 1759 4494 
z
" transform="scale(0.015625)"/>
       <path id="DejaVuSans-Bold-69" d="M 538 3500 
L 1656 3500 
L 1656 0 
L 538 0 
L 538 3500 
z
M 538 4863 
L 1656 4863 
L 1656 3950 
L 538 3950 
L 538 4863 
z
" transform="scale(0.015625)"/>
       <path id="DejaVuSans-Bold-6d" d="M 3781 2919 
Q 3994 3244 4286 3414 
Q 4578 3584 4928 3584 
Q 5531 3584 5847 3212 
Q 6163 2841 6163 2131 
L 6163 0 
L 5038 0 
L 5038 1825 
Q 5041 1866 5042 1909 
Q 5044 1953 5044 2034 
Q 5044 2406 4934 2573 
Q 4825 2741 4581 2741 
Q 4263 2741 4089 2478 
Q 3916 2216 3909 1719 
L 3909 0 
L 2784 0 
L 2784 1825 
Q 2784 2406 2684 2573 
Q 2584 2741 2328 2741 
Q 2006 2741 1831 2477 
Q 1656 2213 1656 1722 
L 1656 0 
L 531 0 
L 531 3500 
L 1656 3500 
L 1656 2988 
Q 1863 3284 2130 3434 
Q 2397 3584 2719 3584 
Q 3081 3584 3359 3409 
Q 3638 3234 3781 2919 
z
" transform="scale(0.015625)"/>
       <path id="DejaVuSans-Bold-65" d="M 4031 1759 
L 4031 1441 
L 1416 1441 
Q 1456 1047 1700 850 
Q 1944 653 2381 653 
Q 2734 653 3104 758 
Q 3475 863 3866 1075 
L 3866 213 
Q 3469 63 3072 -14 
Q 2675 -91 2278 -91 
Q 1328 -91 801 392 
Q 275 875 275 1747 
Q 275 2603 792 3093 
Q 1309 3584 2216 3584 
Q 3041 3584 3536 3087 
Q 4031 2591 4031 1759 
z
M 2881 2131 
Q 2881 2450 2695 2645 
Q 2509 2841 2209 2841 
Q 1884 2841 1681 2658 
Q 1478 2475 1428 2131 
L 2881 2131 
z
" transform="scale(0.015625)"/>
       <path id="DejaVuSans-Bold-20" transform="scale(0.015625)"/>
       <path id="DejaVuSans-Bold-5b" d="M 550 4863 
L 2491 4863 
L 2491 4159 
L 1613 4159 
L 1613 -141 
L 2491 -141 
L 2491 -844 
L 550 -844 
L 550 4863 
z
" transform="scale(0.015625)"/>
       <path id="DejaVuSans-Bold-68" d="M 4056 2131 
L 4056 0 
L 2931 0 
L 2931 347 
L 2931 1625 
Q 2931 2084 2911 2256 
Q 2891 2428 2841 2509 
Q 2775 2619 2662 2680 
Q 2550 2741 2406 2741 
Q 2056 2741 1856 2470 
Q 1656 2200 1656 1722 
L 1656 0 
L 538 0 
L 538 4863 
L 1656 4863 
L 1656 2988 
Q 1909 3294 2193 3439 
Q 2478 3584 2822 3584 
Q 3428 3584 3742 3212 
Q 4056 2841 4056 2131 
z
" transform="scale(0.015625)"/>
       <path id="DejaVuSans-Bold-72" d="M 3138 2547 
Q 2991 2616 2845 2648 
Q 2700 2681 2553 2681 
Q 2122 2681 1889 2404 
Q 1656 2128 1656 1613 
L 1656 0 
L 538 0 
L 538 3500 
L 1656 3500 
L 1656 2925 
Q 1872 3269 2151 3426 
Q 2431 3584 2822 3584 
Q 2878 3584 2943 3579 
Q 3009 3575 3134 3559 
L 3138 2547 
z
" transform="scale(0.015625)"/>
       <path id="DejaVuSans-Bold-5d" d="M 2375 -844 
L 434 -844 
L 434 -141 
L 1313 -141 
L 1313 4159 
L 434 4159 
L 434 4863 
L 2375 4863 
L 2375 -844 
z
" transform="scale(0.015625)"/>
      </defs>
      <use xlink:href="#DejaVuSans-Bold-74"/>
      <use xlink:href="#DejaVuSans-Bold-69" transform="translate(47.802734 0)"/>
      <use xlink:href="#DejaVuSans-Bold-6d" transform="translate(82.080078 0)"/>
      <use xlink:href="#DejaVuSans-Bold-65" transform="translate(186.279297 0)"/>
      <use xlink:href="#DejaVuSans-Bold-20" transform="translate(254.101562 0)"/>
      <use xlink:href="#DejaVuSans-Bold-5b" transform="translate(288.916016 0)"/>
      <use xlink:href="#DejaVuSans-Bold-68" transform="translate(334.619141 0)"/>
      <use xlink:href="#DejaVuSans-Bold-72" transform="translate(405.810547 0)"/>
      <use xlink:href="#DejaVuSans-Bold-5d" transform="translate(455.126953 0)"/>
     </g>
    </g>
   </g>
   <g id="matplotlib.axis_2">
    <g id="ytick_1">
     <g id="line2d_8">
      <defs>
       <path id="m9d1dc8dd33" d="M 0 0 
L -3.5 0 
" style="stroke: #000000; stroke-width: 0.8"/>
      </defs>
      <g>
       <use xlink:href="#m9d1dc8dd33" x="69.159688" y="309.286333" style="stroke: #000000; stroke-width: 0.8"/>
      </g>
     </g>
     <g id="text_9">
      <!-- 0.0 -->
      <g transform="translate(38.305 314.985161) scale(0.15 -0.15)">
       <defs>
        <path id="DejaVuSans-2e" d="M 684 794 
L 1344 794 
L 1344 0 
L 684 0 
L 684 794 
z
" transform="scale(0.015625)"/>
       </defs>
       <use xlink:href="#DejaVuSans-30"/>
       <use xlink:href="#DejaVuSans-2e" transform="translate(63.623047 0)"/>
       <use xlink:href="#DejaVuSans-30" transform="translate(95.410156 0)"/>
      </g>
     </g>
    </g>
    <g id="ytick_2">
     <g id="line2d_9">
      <g>
       <use xlink:href="#m9d1dc8dd33" x="69.159688" y="277.511739" style="stroke: #000000; stroke-width: 0.8"/>
      </g>
     </g>
     <g id="text_10">
      <!-- 2.5 -->
      <g transform="translate(38.305 283.210567) scale(0.15 -0.15)">
       <use xlink:href="#DejaVuSans-32"/>
       <use xlink:href="#DejaVuSans-2e" transform="translate(63.623047 0)"/>
       <use xlink:href="#DejaVuSans-35" transform="translate(95.410156 0)"/>
      </g>
     </g>
    </g>
    <g id="ytick_3">
     <g id="line2d_10">
      <g>
       <use xlink:href="#m9d1dc8dd33" x="69.159688" y="245.737144" style="stroke: #000000; stroke-width: 0.8"/>
      </g>
     </g>
     <g id="text_11">
      <!-- 5.0 -->
      <g transform="translate(38.305 251.435972) scale(0.15 -0.15)">
       <use xlink:href="#DejaVuSans-35"/>
       <use xlink:href="#DejaVuSans-2e" transform="translate(63.623047 0)"/>
       <use xlink:href="#DejaVuSans-30" transform="translate(95.410156 0)"/>
      </g>
     </g>
    </g>
    <g id="ytick_4">
     <g id="line2d_11">
      <g>
       <use xlink:href="#m9d1dc8dd33" x="69.159688" y="213.96255" style="stroke: #000000; stroke-width: 0.8"/>
      </g>
     </g>
     <g id="text_12">
      <!-- 7.5 -->
      <g transform="translate(38.305 219.661378) scale(0.15 -0.15)">
       <use xlink:href="#DejaVuSans-37"/>
       <use xlink:href="#DejaVuSans-2e" transform="translate(63.623047 0)"/>
       <use xlink:href="#DejaVuSans-35" transform="translate(95.410156 0)"/>
      </g>
     </g>
    </g>
    <g id="ytick_5">
     <g id="line2d_12">
      <g>
       <use xlink:href="#m9d1dc8dd33" x="69.159688" y="182.187955" style="stroke: #000000; stroke-width: 0.8"/>
      </g>
     </g>
     <g id="text_13">
      <!-- 10.0 -->
      <g transform="translate(28.76125 187.886783) scale(0.15 -0.15)">
       <use xlink:href="#DejaVuSans-31"/>
       <use xlink:href="#DejaVuSans-30" transform="translate(63.623047 0)"/>
       <use xlink:href="#DejaVuSans-2e" transform="translate(127.246094 0)"/>
       <use xlink:href="#DejaVuSans-30" transform="translate(159.033203 0)"/>
      </g>
     </g>
    </g>
    <g id="ytick_6">
     <g id="line2d_13">
      <g>
       <use xlink:href="#m9d1dc8dd33" x="69.159688" y="150.413361" style="stroke: #000000; stroke-width: 0.8"/>
      </g>
     </g>
     <g id="text_14">
      <!-- 12.5 -->
      <g transform="translate(28.76125 156.112189) scale(0.15 -0.15)">
       <use xlink:href="#DejaVuSans-31"/>
       <use xlink:href="#DejaVuSans-32" transform="translate(63.623047 0)"/>
       <use xlink:href="#DejaVuSans-2e" transform="translate(127.246094 0)"/>
       <use xlink:href="#DejaVuSans-35" transform="translate(159.033203 0)"/>
      </g>
     </g>
    </g>
    <g id="ytick_7">
     <g id="line2d_14">
      <g>
       <use xlink:href="#m9d1dc8dd33" x="69.159688" y="118.638766" style="stroke: #000000; stroke-width: 0.8"/>
      </g>
     </g>
     <g id="text_15">
      <!-- 15.0 -->
      <g transform="translate(28.76125 124.337594) scale(0.15 -0.15)">
       <use xlink:href="#DejaVuSans-31"/>
       <use xlink:href="#DejaVuSans-35" transform="translate(63.623047 0)"/>
       <use xlink:href="#DejaVuSans-2e" transform="translate(127.246094 0)"/>
       <use xlink:href="#DejaVuSans-30" transform="translate(159.033203 0)"/>
      </g>
     </g>
    </g>
    <g id="ytick_8">
     <g id="line2d_15">
      <g>
       <use xlink:href="#m9d1dc8dd33" x="69.159688" y="86.864172" style="stroke: #000000; stroke-width: 0.8"/>
      </g>
     </g>
     <g id="text_16">
      <!-- 17.5 -->
      <g transform="translate(28.76125 92.563) scale(0.15 -0.15)">
       <use xlink:href="#DejaVuSans-31"/>
       <use xlink:href="#DejaVuSans-37" transform="translate(63.623047 0)"/>
       <use xlink:href="#DejaVuSans-2e" transform="translate(127.246094 0)"/>
       <use xlink:href="#DejaVuSans-35" transform="translate(159.033203 0)"/>
      </g>
     </g>
    </g>
    <g id="text_17">
     <!-- rapamycin [µM] -->
     <g transform="translate(20.877188 279.759864) rotate(-90) scale(0.18 -0.18)">
      <defs>
       <path id="DejaVuSans-Bold-61" d="M 2106 1575 
Q 1756 1575 1579 1456 
Q 1403 1338 1403 1106 
Q 1403 894 1545 773 
Q 1688 653 1941 653 
Q 2256 653 2472 879 
Q 2688 1106 2688 1447 
L 2688 1575 
L 2106 1575 
z
M 3816 1997 
L 3816 0 
L 2688 0 
L 2688 519 
Q 2463 200 2181 54 
Q 1900 -91 1497 -91 
Q 953 -91 614 226 
Q 275 544 275 1050 
Q 275 1666 698 1953 
Q 1122 2241 2028 2241 
L 2688 2241 
L 2688 2328 
Q 2688 2594 2478 2717 
Q 2269 2841 1825 2841 
Q 1466 2841 1156 2769 
Q 847 2697 581 2553 
L 581 3406 
Q 941 3494 1303 3539 
Q 1666 3584 2028 3584 
Q 2975 3584 3395 3211 
Q 3816 2838 3816 1997 
z
" transform="scale(0.015625)"/>
       <path id="DejaVuSans-Bold-70" d="M 1656 506 
L 1656 -1331 
L 538 -1331 
L 538 3500 
L 1656 3500 
L 1656 2988 
Q 1888 3294 2169 3439 
Q 2450 3584 2816 3584 
Q 3463 3584 3878 3070 
Q 4294 2556 4294 1747 
Q 4294 938 3878 423 
Q 3463 -91 2816 -91 
Q 2450 -91 2169 54 
Q 1888 200 1656 506 
z
M 2400 2772 
Q 2041 2772 1848 2508 
Q 1656 2244 1656 1747 
Q 1656 1250 1848 986 
Q 2041 722 2400 722 
Q 2759 722 2948 984 
Q 3138 1247 3138 1747 
Q 3138 2247 2948 2509 
Q 2759 2772 2400 2772 
z
" transform="scale(0.015625)"/>
       <path id="DejaVuSans-Bold-79" d="M 78 3500 
L 1197 3500 
L 2138 1125 
L 2938 3500 
L 4056 3500 
L 2584 -331 
Q 2363 -916 2067 -1148 
Q 1772 -1381 1288 -1381 
L 641 -1381 
L 641 -647 
L 991 -647 
Q 1275 -647 1404 -556 
Q 1534 -466 1606 -231 
L 1638 -134 
L 78 3500 
z
" transform="scale(0.015625)"/>
       <path id="DejaVuSans-Bold-63" d="M 3366 3391 
L 3366 2478 
Q 3138 2634 2908 2709 
Q 2678 2784 2431 2784 
Q 1963 2784 1702 2511 
Q 1441 2238 1441 1747 
Q 1441 1256 1702 982 
Q 1963 709 2431 709 
Q 2694 709 2930 787 
Q 3166 866 3366 1019 
L 3366 103 
Q 3103 6 2833 -42 
Q 2563 -91 2291 -91 
Q 1344 -91 809 395 
Q 275 881 275 1747 
Q 275 2613 809 3098 
Q 1344 3584 2291 3584 
Q 2566 3584 2833 3536 
Q 3100 3488 3366 3391 
z
" transform="scale(0.015625)"/>
       <path id="DejaVuSans-Bold-6e" d="M 4056 2131 
L 4056 0 
L 2931 0 
L 2931 347 
L 2931 1631 
Q 2931 2084 2911 2256 
Q 2891 2428 2841 2509 
Q 2775 2619 2662 2680 
Q 2550 2741 2406 2741 
Q 2056 2741 1856 2470 
Q 1656 2200 1656 1722 
L 1656 0 
L 538 0 
L 538 3500 
L 1656 3500 
L 1656 2988 
Q 1909 3294 2193 3439 
Q 2478 3584 2822 3584 
Q 3428 3584 3742 3212 
Q 4056 2841 4056 2131 
z
" transform="scale(0.015625)"/>
       <path id="DejaVuSans-Bold-b5" d="M 544 -1338 
L 544 3500 
L 1672 3500 
L 1672 1466 
Q 1672 1103 1828 926 
Q 1984 750 2303 750 
Q 2625 750 2781 926 
Q 2938 1103 2938 1466 
L 2938 3500 
L 4063 3500 
L 4063 1159 
Q 4063 938 4114 850 
Q 4166 763 4288 763 
Q 4344 763 4395 778 
Q 4447 794 4506 831 
L 4506 50 
Q 4341 -22 4195 -56 
Q 4050 -91 3909 -91 
Q 3631 -91 3454 26 
Q 3278 144 3169 403 
Q 3022 156 2811 32 
Q 2600 -91 2322 -91 
Q 2091 -91 1928 -17 
Q 1766 56 1672 206 
L 1672 -1338 
L 544 -1338 
z
" transform="scale(0.015625)"/>
       <path id="DejaVuSans-Bold-4d" d="M 588 4666 
L 2119 4666 
L 3181 2169 
L 4250 4666 
L 5778 4666 
L 5778 0 
L 4641 0 
L 4641 3413 
L 3566 897 
L 2803 897 
L 1728 3413 
L 1728 0 
L 588 0 
L 588 4666 
z
" transform="scale(0.015625)"/>
      </defs>
      <use xlink:href="#DejaVuSans-Bold-72"/>
      <use xlink:href="#DejaVuSans-Bold-61" transform="translate(49.316406 0)"/>
      <use xlink:href="#DejaVuSans-Bold-70" transform="translate(116.796875 0)"/>
      <use xlink:href="#DejaVuSans-Bold-61" transform="translate(188.378906 0)"/>
      <use xlink:href="#DejaVuSans-Bold-6d" transform="translate(255.859375 0)"/>
      <use xlink:href="#DejaVuSans-Bold-79" transform="translate(360.058594 0)"/>
      <use xlink:href="#DejaVuSans-Bold-63" transform="translate(425.244141 0)"/>
      <use xlink:href="#DejaVuSans-Bold-69" transform="translate(484.521484 0)"/>
      <use xlink:href="#DejaVuSans-Bold-6e" transform="translate(518.798828 0)"/>
      <use xlink:href="#DejaVuSans-Bold-20" transform="translate(589.990234 0)"/>
      <use xlink:href="#DejaVuSans-Bold-5b" transform="translate(624.804688 0)"/>
      <use xlink:href="#DejaVuSans-Bold-b5" transform="translate(670.507812 0)"/>
      <use xlink:href="#DejaVuSans-Bold-4d" transform="translate(744.091797 0)"/>
      <use xlink:href="#DejaVuSans-Bold-5d" transform="translate(843.603516 0)"/>
     </g>
    </g>
   </g>
   <g id="LineCollection_1">
    <path d="M 86.914233 309.286957 
L 86.914233 309.284599 
" clip-path="url(#pfcc07a45fd)" style="fill: none; stroke: #000000"/>
    <path d="M 87.695433 309.205324 
L 87.695433 308.861579 
" clip-path="url(#pfcc07a45fd)" style="fill: none; stroke: #000000"/>
    <path clip-path="url(#pfcc07a45fd)" style="fill: none; stroke: #000000"/>
    <path clip-path="url(#pfcc07a45fd)" style="fill: none; stroke: #000000"/>
    <path clip-path="url(#pfcc07a45fd)" style="fill: none; stroke: #000000"/>
    <path d="M 94.016051 309.15856 
L 94.016051 308.848198 
" clip-path="url(#pfcc07a45fd)" style="fill: none; stroke: #000000"/>
    <path d="M 98.750597 309.157464 
L 98.750597 309.07123 
" clip-path="url(#pfcc07a45fd)" style="fill: none; stroke: #000000"/>
    <path d="M 105.852415 309.209891 
L 105.852415 309.151517 
" clip-path="url(#pfcc07a45fd)" style="fill: none; stroke: #000000"/>
    <path d="M 115.321506 309.236824 
L 115.321506 309.196498 
" clip-path="url(#pfcc07a45fd)" style="fill: none; stroke: #000000"/>
    <path d="M 143.728778 309.256994 
L 143.728778 309.228179 
" clip-path="url(#pfcc07a45fd)" style="fill: none; stroke: #000000"/>
    <path d="M 200.543324 309.265504 
L 200.543324 309.247431 
" clip-path="url(#pfcc07a45fd)" style="fill: none; stroke: #000000"/>
    <path d="M 257.357869 309.272811 
L 257.357869 309.257815 
" clip-path="url(#pfcc07a45fd)" style="fill: none; stroke: #000000"/>
    <path d="M 314.172415 309.275351 
L 314.172415 309.263885 
" clip-path="url(#pfcc07a45fd)" style="fill: none; stroke: #000000"/>
    <path d="M 370.98696 309.277783 
L 370.98696 309.268301 
" clip-path="url(#pfcc07a45fd)" style="fill: none; stroke: #000000"/>
    <path d="M 427.801506 309.278648 
L 427.801506 309.271551 
" clip-path="url(#pfcc07a45fd)" style="fill: none; stroke: #000000"/>
   </g>
   <g id="LineCollection_2">
    <path d="M 86.914233 309.28692 
L 86.914233 309.28519 
" clip-path="url(#pfcc07a45fd)" style="fill: none; stroke: #d62728"/>
    <path d="M 87.695433 309.161196 
L 87.695433 308.857238 
" clip-path="url(#pfcc07a45fd)" style="fill: none; stroke: #d62728"/>
    <path d="M 88.500306 308.609148 
L 88.500306 308.214672 
" clip-path="url(#pfcc07a45fd)" style="fill: none; stroke: #d62728"/>
    <path d="M 89.281506 308.492693 
L 89.281506 307.558054 
" clip-path="url(#pfcc07a45fd)" style="fill: none; stroke: #d62728"/>
    <path d="M 91.648778 308.491667 
L 91.648778 307.802259 
" clip-path="url(#pfcc07a45fd)" style="fill: none; stroke: #d62728"/>
    <path d="M 94.016051 308.51779 
L 94.016051 308.037573 
" clip-path="url(#pfcc07a45fd)" style="fill: none; stroke: #d62728"/>
    <path d="M 98.750597 308.862401 
L 98.750597 308.446119 
" clip-path="url(#pfcc07a45fd)" style="fill: none; stroke: #d62728"/>
    <path d="M 105.852415 309.031264 
L 105.852415 308.765022 
" clip-path="url(#pfcc07a45fd)" style="fill: none; stroke: #d62728"/>
    <path d="M 115.321506 309.126794 
L 115.321506 308.938946 
" clip-path="url(#pfcc07a45fd)" style="fill: none; stroke: #d62728"/>
    <path d="M 143.728778 309.167159 
L 143.728778 309.06373 
" clip-path="url(#pfcc07a45fd)" style="fill: none; stroke: #d62728"/>
    <path d="M 200.543324 309.216691 
L 200.543324 309.129655 
" clip-path="url(#pfcc07a45fd)" style="fill: none; stroke: #d62728"/>
    <path d="M 257.357869 309.235616 
L 257.357869 309.179373 
" clip-path="url(#pfcc07a45fd)" style="fill: none; stroke: #d62728"/>
    <path d="M 314.172415 309.250996 
L 314.172415 309.21181 
" clip-path="url(#pfcc07a45fd)" style="fill: none; stroke: #d62728"/>
    <path d="M 370.98696 309.262937 
L 370.98696 309.22586 
" clip-path="url(#pfcc07a45fd)" style="fill: none; stroke: #d62728"/>
    <path d="M 427.801506 309.267656 
L 427.801506 309.236252 
" clip-path="url(#pfcc07a45fd)" style="fill: none; stroke: #d62728"/>
   </g>
   <g id="LineCollection_3">
    <path d="M 86.914233 309.286789 
L 86.914233 309.285042 
" clip-path="url(#pfcc07a45fd)" style="fill: none; stroke: #2ca02c"/>
    <path d="M 87.695433 309.092091 
L 87.695433 308.927558 
" clip-path="url(#pfcc07a45fd)" style="fill: none; stroke: #2ca02c"/>
    <path clip-path="url(#pfcc07a45fd)" style="fill: none; stroke: #2ca02c"/>
    <path d="M 89.281506 308.819402 
L 89.281506 308.213504 
" clip-path="url(#pfcc07a45fd)" style="fill: none; stroke: #2ca02c"/>
    <path clip-path="url(#pfcc07a45fd)" style="fill: none; stroke: #2ca02c"/>
    <path clip-path="url(#pfcc07a45fd)" style="fill: none; stroke: #2ca02c"/>
    <path d="M 98.750597 309.110121 
L 98.750597 308.74886 
" clip-path="url(#pfcc07a45fd)" style="fill: none; stroke: #2ca02c"/>
    <path d="M 105.852415 309.165976 
L 105.852415 308.939221 
" clip-path="url(#pfcc07a45fd)" style="fill: none; stroke: #2ca02c"/>
    <path d="M 115.321506 309.20416 
L 115.321506 309.055692 
" clip-path="url(#pfcc07a45fd)" style="fill: none; stroke: #2ca02c"/>
    <path d="M 143.728778 309.230481 
L 143.728778 309.166452 
" clip-path="url(#pfcc07a45fd)" style="fill: none; stroke: #2ca02c"/>
    <path d="M 200.543324 309.239373 
L 200.543324 309.214404 
" clip-path="url(#pfcc07a45fd)" style="fill: none; stroke: #2ca02c"/>
    <path d="M 257.357869 309.261548 
L 257.357869 309.226611 
" clip-path="url(#pfcc07a45fd)" style="fill: none; stroke: #2ca02c"/>
    <path d="M 314.172415 309.266787 
L 314.172415 309.241411 
" clip-path="url(#pfcc07a45fd)" style="fill: none; stroke: #2ca02c"/>
    <path d="M 370.98696 309.27163 
L 370.98696 309.252548 
" clip-path="url(#pfcc07a45fd)" style="fill: none; stroke: #2ca02c"/>
    <path d="M 427.801506 309.275142 
L 427.801506 309.254926 
" clip-path="url(#pfcc07a45fd)" style="fill: none; stroke: #2ca02c"/>
   </g>
   <g id="line2d_16">
    <path d="M 86.914233 309.286333 
L 87.091778 286.91812 
L 87.624415 136.498161 
L 87.979506 98.615971 
L 88.157051 96.061303 
L 88.334597 100.698964 
L 88.689688 122.425238 
L 89.932506 211.397447 
L 90.465142 235.657224 
L 90.997778 252.096666 
L 91.530415 262.92329 
L 92.063051 269.952007 
L 92.595688 274.483704 
L 93.128324 277.397566 
L 93.66096 279.271171 
L 94.193597 280.478556 
L 94.726233 281.260156 
L 95.436415 281.897624 
L 96.324142 282.331944 
L 97.56696 282.626867 
L 99.697506 282.850319 
L 107.864597 283.337856 
L 150.830597 285.666095 
L 195.927142 287.886188 
L 243.331778 289.996018 
L 293.399597 291.999572 
L 346.308142 293.891682 
L 402.412506 295.672849 
L 442.005142 296.804572 
L 442.005142 296.804572 
" clip-path="url(#pfcc07a45fd)" style="fill: none; stroke: #000000; stroke-width: 2; stroke-linecap: square"/>
   </g>
   <g id="line2d_17">
    <path d="M 86.914233 309.285778 
L 87.695433 309.033452 
M 89.281506 308.721582 
L 91.648778 308.861416 
L 94.016051 309.003379 
L 98.750597 309.114347 
L 105.852415 309.180704 
L 115.321506 309.216661 
L 143.728778 309.242587 
L 200.543324 309.256468 
L 257.357869 309.265313 
L 314.172415 309.269618 
L 370.98696 309.273042 
L 427.801506 309.2751 
" clip-path="url(#pfcc07a45fd)" style="fill: none; stroke-dasharray: 3.7,1.6; stroke-dashoffset: 0; stroke: #000000"/>
    <defs>
     <path id="mcbf4e96c86" d="M -3 3 
L 3 3 
L 3 -3 
L -3 -3 
z
" style="stroke: #000000; stroke-linejoin: miter"/>
    </defs>
    <g clip-path="url(#pfcc07a45fd)">
     <use xlink:href="#mcbf4e96c86" x="86.914233" y="309.285778" style="stroke: #000000; stroke-linejoin: miter"/>
     <use xlink:href="#mcbf4e96c86" x="87.695433" y="309.033452" style="stroke: #000000; stroke-linejoin: miter"/>
     <use xlink:href="#mcbf4e96c86" x="89.281506" y="308.721582" style="stroke: #000000; stroke-linejoin: miter"/>
     <use xlink:href="#mcbf4e96c86" x="91.648778" y="308.861416" style="stroke: #000000; stroke-linejoin: miter"/>
     <use xlink:href="#mcbf4e96c86" x="94.016051" y="309.003379" style="stroke: #000000; stroke-linejoin: miter"/>
     <use xlink:href="#mcbf4e96c86" x="98.750597" y="309.114347" style="stroke: #000000; stroke-linejoin: miter"/>
     <use xlink:href="#mcbf4e96c86" x="105.852415" y="309.180704" style="stroke: #000000; stroke-linejoin: miter"/>
     <use xlink:href="#mcbf4e96c86" x="115.321506" y="309.216661" style="stroke: #000000; stroke-linejoin: miter"/>
     <use xlink:href="#mcbf4e96c86" x="143.728778" y="309.242587" style="stroke: #000000; stroke-linejoin: miter"/>
     <use xlink:href="#mcbf4e96c86" x="200.543324" y="309.256468" style="stroke: #000000; stroke-linejoin: miter"/>
     <use xlink:href="#mcbf4e96c86" x="257.357869" y="309.265313" style="stroke: #000000; stroke-linejoin: miter"/>
     <use xlink:href="#mcbf4e96c86" x="314.172415" y="309.269618" style="stroke: #000000; stroke-linejoin: miter"/>
     <use xlink:href="#mcbf4e96c86" x="370.98696" y="309.273042" style="stroke: #000000; stroke-linejoin: miter"/>
     <use xlink:href="#mcbf4e96c86" x="427.801506" y="309.2751" style="stroke: #000000; stroke-linejoin: miter"/>
    </g>
   </g>
   <g id="line2d_18">
    <path d="M 86.914233 309.286333 
L 87.091778 286.684988 
L 87.624415 132.682854 
L 87.979506 93.129757 
L 88.157051 90.156522 
L 88.334597 94.609484 
L 88.689688 116.47653 
L 89.932506 207.638832 
L 90.465142 232.68129 
L 90.997778 249.682381 
L 91.530415 260.889394 
L 92.063051 268.166716 
L 92.595688 272.856725 
L 93.128324 275.868964 
L 93.66096 277.80186 
L 94.193597 279.043299 
L 94.726233 279.84275 
L 95.436415 280.488583 
L 96.324142 280.919531 
L 97.56696 281.19783 
L 99.697506 281.382244 
L 107.687051 281.70267 
L 174.799233 284.098175 
L 245.462324 286.396804 
L 319.498778 288.581275 
L 397.441233 290.65684 
L 442.005142 291.748963 
L 442.005142 291.748963 
" clip-path="url(#pfcc07a45fd)" style="fill: none; stroke: #d62728; stroke-width: 2; stroke-linecap: square"/>
   </g>
   <g id="line2d_19">
    <path d="M 86.914233 309.286055 
L 87.695433 309.009217 
L 88.500306 308.41191 
L 89.281506 308.025374 
L 91.648778 308.146963 
L 94.016051 308.277682 
L 98.750597 308.65426 
L 105.852415 308.898143 
L 115.321506 309.03287 
L 143.728778 309.115444 
L 200.543324 309.173173 
L 257.357869 309.207495 
L 314.172415 309.231403 
L 370.98696 309.244399 
L 427.801506 309.251954 
" clip-path="url(#pfcc07a45fd)" style="fill: none; stroke-dasharray: 3.7,1.6; stroke-dashoffset: 0; stroke: #d62728"/>
    <defs>
     <path id="m97309e8199" d="M -3 3 
L 3 3 
L 3 -3 
L -3 -3 
z
" style="stroke: #000000; stroke-linejoin: miter"/>
    </defs>
    <g clip-path="url(#pfcc07a45fd)">
     <use xlink:href="#m97309e8199" x="86.914233" y="309.286055" style="fill: #d62728; stroke: #000000; stroke-linejoin: miter"/>
     <use xlink:href="#m97309e8199" x="87.695433" y="309.009217" style="fill: #d62728; stroke: #000000; stroke-linejoin: miter"/>
     <use xlink:href="#m97309e8199" x="88.500306" y="308.41191" style="fill: #d62728; stroke: #000000; stroke-linejoin: miter"/>
     <use xlink:href="#m97309e8199" x="89.281506" y="308.025374" style="fill: #d62728; stroke: #000000; stroke-linejoin: miter"/>
     <use xlink:href="#m97309e8199" x="91.648778" y="308.146963" style="fill: #d62728; stroke: #000000; stroke-linejoin: miter"/>
     <use xlink:href="#m97309e8199" x="94.016051" y="308.277682" style="fill: #d62728; stroke: #000000; stroke-linejoin: miter"/>
     <use xlink:href="#m97309e8199" x="98.750597" y="308.65426" style="fill: #d62728; stroke: #000000; stroke-linejoin: miter"/>
     <use xlink:href="#m97309e8199" x="105.852415" y="308.898143" style="fill: #d62728; stroke: #000000; stroke-linejoin: miter"/>
     <use xlink:href="#m97309e8199" x="115.321506" y="309.03287" style="fill: #d62728; stroke: #000000; stroke-linejoin: miter"/>
     <use xlink:href="#m97309e8199" x="143.728778" y="309.115444" style="fill: #d62728; stroke: #000000; stroke-linejoin: miter"/>
     <use xlink:href="#m97309e8199" x="200.543324" y="309.173173" style="fill: #d62728; stroke: #000000; stroke-linejoin: miter"/>
     <use xlink:href="#m97309e8199" x="257.357869" y="309.207495" style="fill: #d62728; stroke: #000000; stroke-linejoin: miter"/>
     <use xlink:href="#m97309e8199" x="314.172415" y="309.231403" style="fill: #d62728; stroke: #000000; stroke-linejoin: miter"/>
     <use xlink:href="#m97309e8199" x="370.98696" y="309.244399" style="fill: #d62728; stroke: #000000; stroke-linejoin: miter"/>
     <use xlink:href="#m97309e8199" x="427.801506" y="309.251954" style="fill: #d62728; stroke: #000000; stroke-linejoin: miter"/>
    </g>
   </g>
   <g id="line2d_20">
    <path d="M 86.914233 309.286333 
L 87.091778 286.802091 
L 87.624415 134.609026 
L 87.979506 95.903957 
L 88.157051 93.144453 
L 88.334597 97.692893 
L 88.689688 119.492314 
L 89.932506 209.550544 
L 90.465142 234.196324 
L 90.997778 250.912353 
L 91.530415 261.926139 
L 92.063051 269.077133 
L 92.595688 273.686705 
L 93.128324 276.648993 
L 93.66096 278.551831 
L 94.193597 279.776059 
L 94.726233 280.566549 
L 95.436415 281.208298 
L 96.324142 281.641184 
L 97.56696 281.928265 
L 99.697506 282.133114 
L 107.687051 282.535739 
L 159.707869 284.898061 
L 214.391869 287.15757 
L 271.739051 289.303339 
L 332.282051 291.343993 
L 396.198415 293.273263 
L 442.005142 294.527273 
L 442.005142 294.527273 
" clip-path="url(#pfcc07a45fd)" style="fill: none; stroke: #2ca02c; stroke-width: 2; stroke-linecap: square"/>
   </g>
   <g id="line2d_21">
    <path d="M 86.914233 309.285916 
L 87.695433 309.009825 
L 88.500306 308.733916 
L 89.281506 308.516453 
L 91.648778 308.603405 
L 94.016051 308.737572 
L 98.750597 308.929491 
L 105.852415 309.052598 
L 115.321506 309.129926 
L 143.728778 309.198466 
L 200.543324 309.226889 
L 257.357869 309.24408 
L 314.172415 309.254099 
L 370.98696 309.262089 
L 427.801506 309.265034 
" clip-path="url(#pfcc07a45fd)" style="fill: none; stroke-dasharray: 3.7,1.6; stroke-dashoffset: 0; stroke: #2ca02c"/>
    <defs>
     <path id="m97bc24451c" d="M -3 3 
L 3 3 
L 3 -3 
L -3 -3 
z
" style="stroke: #000000; stroke-linejoin: miter"/>
    </defs>
    <g clip-path="url(#pfcc07a45fd)">
     <use xlink:href="#m97bc24451c" x="86.914233" y="309.285916" style="fill: #2ca02c; stroke: #000000; stroke-linejoin: miter"/>
     <use xlink:href="#m97bc24451c" x="87.695433" y="309.009825" style="fill: #2ca02c; stroke: #000000; stroke-linejoin: miter"/>
     <use xlink:href="#m97bc24451c" x="88.500306" y="308.733916" style="fill: #2ca02c; stroke: #000000; stroke-linejoin: miter"/>
     <use xlink:href="#m97bc24451c" x="89.281506" y="308.516453" style="fill: #2ca02c; stroke: #000000; stroke-linejoin: miter"/>
     <use xlink:href="#m97bc24451c" x="91.648778" y="308.603405" style="fill: #2ca02c; stroke: #000000; stroke-linejoin: miter"/>
     <use xlink:href="#m97bc24451c" x="94.016051" y="308.737572" style="fill: #2ca02c; stroke: #000000; stroke-linejoin: miter"/>
     <use xlink:href="#m97bc24451c" x="98.750597" y="308.929491" style="fill: #2ca02c; stroke: #000000; stroke-linejoin: miter"/>
     <use xlink:href="#m97bc24451c" x="105.852415" y="309.052598" style="fill: #2ca02c; stroke: #000000; stroke-linejoin: miter"/>
     <use xlink:href="#m97bc24451c" x="115.321506" y="309.129926" style="fill: #2ca02c; stroke: #000000; stroke-linejoin: miter"/>
     <use xlink:href="#m97bc24451c" x="143.728778" y="309.198466" style="fill: #2ca02c; stroke: #000000; stroke-linejoin: miter"/>
     <use xlink:href="#m97bc24451c" x="200.543324" y="309.226889" style="fill: #2ca02c; stroke: #000000; stroke-linejoin: miter"/>
     <use xlink:href="#m97bc24451c" x="257.357869" y="309.24408" style="fill: #2ca02c; stroke: #000000; stroke-linejoin: miter"/>
     <use xlink:href="#m97bc24451c" x="314.172415" y="309.254099" style="fill: #2ca02c; stroke: #000000; stroke-linejoin: miter"/>
     <use xlink:href="#m97bc24451c" x="370.98696" y="309.262089" style="fill: #2ca02c; stroke: #000000; stroke-linejoin: miter"/>
     <use xlink:href="#m97bc24451c" x="427.801506" y="309.265034" style="fill: #2ca02c; stroke: #000000; stroke-linejoin: miter"/>
    </g>
   </g>
   <g id="patch_3">
    <path d="M 69.159688 320.243478 
L 69.159688 79.2 
" style="fill: none; stroke: #000000; stroke-width: 0.8; stroke-linejoin: miter; stroke-linecap: square"/>
   </g>
   <g id="patch_4">
    <path d="M 459.759688 320.243478 
L 459.759688 79.2 
" style="fill: none; stroke: #000000; stroke-width: 0.8; stroke-linejoin: miter; stroke-linecap: square"/>
   </g>
   <g id="patch_5">
    <path d="M 69.159688 320.243478 
L 459.759687 320.243478 
" style="fill: none; stroke: #000000; stroke-width: 0.8; stroke-linejoin: miter; stroke-linecap: square"/>
   </g>
   <g id="patch_6">
    <path d="M 69.159688 79.2 
L 459.759687 79.2 
" style="fill: none; stroke: #000000; stroke-width: 0.8; stroke-linejoin: miter; stroke-linecap: square"/>
   </g>
   <g id="legend_1">
    <g id="patch_7">
     <path d="M 482.383688 176.38125 
L 658.686813 176.38125 
Q 660.686813 176.38125 660.686813 174.38125 
L 660.686813 86.2 
Q 660.686813 84.2 658.686813 84.2 
L 482.383688 84.2 
Q 480.383688 84.2 480.383688 86.2 
L 480.383688 174.38125 
Q 480.383688 176.38125 482.383688 176.38125 
z
" style="fill: #ffffff; opacity: 0.8; stroke: #cccccc; stroke-linejoin: miter"/>
    </g>
    <g id="line2d_22">
     <path d="M 484.383688 92.298437 
L 504.383688 92.298437 
" style="fill: none; stroke: #000000; stroke-width: 2; stroke-linecap: square"/>
    </g>
    <g id="line2d_23"/>
    <g id="text_18">
     <!-- RAP10 -->
     <g transform="translate(512.383688 95.798437) scale(0.1 -0.1)">
      <defs>
       <path id="DejaVuSans-52" d="M 2841 2188 
Q 3044 2119 3236 1894 
Q 3428 1669 3622 1275 
L 4263 0 
L 3584 0 
L 2988 1197 
Q 2756 1666 2539 1819 
Q 2322 1972 1947 1972 
L 1259 1972 
L 1259 0 
L 628 0 
L 628 4666 
L 2053 4666 
Q 2853 4666 3247 4331 
Q 3641 3997 3641 3322 
Q 3641 2881 3436 2590 
Q 3231 2300 2841 2188 
z
M 1259 4147 
L 1259 2491 
L 2053 2491 
Q 2509 2491 2742 2702 
Q 2975 2913 2975 3322 
Q 2975 3731 2742 3939 
Q 2509 4147 2053 4147 
L 1259 4147 
z
" transform="scale(0.015625)"/>
       <path id="DejaVuSans-41" d="M 2188 4044 
L 1331 1722 
L 3047 1722 
L 2188 4044 
z
M 1831 4666 
L 2547 4666 
L 4325 0 
L 3669 0 
L 3244 1197 
L 1141 1197 
L 716 0 
L 50 0 
L 1831 4666 
z
" transform="scale(0.015625)"/>
       <path id="DejaVuSans-50" d="M 1259 4147 
L 1259 2394 
L 2053 2394 
Q 2494 2394 2734 2622 
Q 2975 2850 2975 3272 
Q 2975 3691 2734 3919 
Q 2494 4147 2053 4147 
L 1259 4147 
z
M 628 4666 
L 2053 4666 
Q 2838 4666 3239 4311 
Q 3641 3956 3641 3272 
Q 3641 2581 3239 2228 
Q 2838 1875 2053 1875 
L 1259 1875 
L 1259 0 
L 628 0 
L 628 4666 
z
" transform="scale(0.015625)"/>
      </defs>
      <use xlink:href="#DejaVuSans-52"/>
      <use xlink:href="#DejaVuSans-41" transform="translate(65.482422 0)"/>
      <use xlink:href="#DejaVuSans-50" transform="translate(133.890625 0)"/>
      <use xlink:href="#DejaVuSans-31" transform="translate(194.193359 0)"/>
      <use xlink:href="#DejaVuSans-30" transform="translate(257.816406 0)"/>
     </g>
    </g>
    <g id="LineCollection_4">
     <path d="M 494.383688 111.976562 
L 494.383688 101.976562 
" style="fill: none; stroke: #000000"/>
    </g>
    <g id="line2d_24">
     <path d="M 484.383688 106.976562 
L 504.383688 106.976562 
" style="fill: none; stroke-dasharray: 3.7,1.6; stroke-dashoffset: 0; stroke: #000000"/>
    </g>
    <g id="line2d_25">
     <g>
      <use xlink:href="#mcbf4e96c86" x="494.383688" y="106.976562" style="stroke: #000000; stroke-linejoin: miter"/>
     </g>
    </g>
    <g id="text_19">
     <!-- RAP10±SD (n=21) -->
     <g transform="translate(512.383688 110.476562) scale(0.1 -0.1)">
      <defs>
       <path id="DejaVuSans-b1" d="M 2944 4013 
L 2944 2803 
L 4684 2803 
L 4684 2272 
L 2944 2272 
L 2944 1063 
L 2419 1063 
L 2419 2272 
L 678 2272 
L 678 2803 
L 2419 2803 
L 2419 4013 
L 2944 4013 
z
M 678 531 
L 4684 531 
L 4684 0 
L 678 0 
L 678 531 
z
" transform="scale(0.015625)"/>
       <path id="DejaVuSans-53" d="M 3425 4513 
L 3425 3897 
Q 3066 4069 2747 4153 
Q 2428 4238 2131 4238 
Q 1616 4238 1336 4038 
Q 1056 3838 1056 3469 
Q 1056 3159 1242 3001 
Q 1428 2844 1947 2747 
L 2328 2669 
Q 3034 2534 3370 2195 
Q 3706 1856 3706 1288 
Q 3706 609 3251 259 
Q 2797 -91 1919 -91 
Q 1588 -91 1214 -16 
Q 841 59 441 206 
L 441 856 
Q 825 641 1194 531 
Q 1563 422 1919 422 
Q 2459 422 2753 634 
Q 3047 847 3047 1241 
Q 3047 1584 2836 1778 
Q 2625 1972 2144 2069 
L 1759 2144 
Q 1053 2284 737 2584 
Q 422 2884 422 3419 
Q 422 4038 858 4394 
Q 1294 4750 2059 4750 
Q 2388 4750 2728 4690 
Q 3069 4631 3425 4513 
z
" transform="scale(0.015625)"/>
       <path id="DejaVuSans-44" d="M 1259 4147 
L 1259 519 
L 2022 519 
Q 2988 519 3436 956 
Q 3884 1394 3884 2338 
Q 3884 3275 3436 3711 
Q 2988 4147 2022 4147 
L 1259 4147 
z
M 628 4666 
L 1925 4666 
Q 3281 4666 3915 4102 
Q 4550 3538 4550 2338 
Q 4550 1131 3912 565 
Q 3275 0 1925 0 
L 628 0 
L 628 4666 
z
" transform="scale(0.015625)"/>
       <path id="DejaVuSans-20" transform="scale(0.015625)"/>
       <path id="DejaVuSans-28" d="M 1984 4856 
Q 1566 4138 1362 3434 
Q 1159 2731 1159 2009 
Q 1159 1288 1364 580 
Q 1569 -128 1984 -844 
L 1484 -844 
Q 1016 -109 783 600 
Q 550 1309 550 2009 
Q 550 2706 781 3412 
Q 1013 4119 1484 4856 
L 1984 4856 
z
" transform="scale(0.015625)"/>
       <path id="DejaVuSans-6e" d="M 3513 2113 
L 3513 0 
L 2938 0 
L 2938 2094 
Q 2938 2591 2744 2837 
Q 2550 3084 2163 3084 
Q 1697 3084 1428 2787 
Q 1159 2491 1159 1978 
L 1159 0 
L 581 0 
L 581 3500 
L 1159 3500 
L 1159 2956 
Q 1366 3272 1645 3428 
Q 1925 3584 2291 3584 
Q 2894 3584 3203 3211 
Q 3513 2838 3513 2113 
z
" transform="scale(0.015625)"/>
       <path id="DejaVuSans-3d" d="M 678 2906 
L 4684 2906 
L 4684 2381 
L 678 2381 
L 678 2906 
z
M 678 1631 
L 4684 1631 
L 4684 1100 
L 678 1100 
L 678 1631 
z
" transform="scale(0.015625)"/>
       <path id="DejaVuSans-29" d="M 513 4856 
L 1013 4856 
Q 1481 4119 1714 3412 
Q 1947 2706 1947 2009 
Q 1947 1309 1714 600 
Q 1481 -109 1013 -844 
L 513 -844 
Q 928 -128 1133 580 
Q 1338 1288 1338 2009 
Q 1338 2731 1133 3434 
Q 928 4138 513 4856 
z
" transform="scale(0.015625)"/>
      </defs>
      <use xlink:href="#DejaVuSans-52"/>
      <use xlink:href="#DejaVuSans-41" transform="translate(65.482422 0)"/>
      <use xlink:href="#DejaVuSans-50" transform="translate(133.890625 0)"/>
      <use xlink:href="#DejaVuSans-31" transform="translate(194.193359 0)"/>
      <use xlink:href="#DejaVuSans-30" transform="translate(257.816406 0)"/>
      <use xlink:href="#DejaVuSans-b1" transform="translate(321.439453 0)"/>
      <use xlink:href="#DejaVuSans-53" transform="translate(405.228516 0)"/>
      <use xlink:href="#DejaVuSans-44" transform="translate(468.705078 0)"/>
      <use xlink:href="#DejaVuSans-20" transform="translate(545.707031 0)"/>
      <use xlink:href="#DejaVuSans-28" transform="translate(577.494141 0)"/>
      <use xlink:href="#DejaVuSans-6e" transform="translate(616.507812 0)"/>
      <use xlink:href="#DejaVuSans-3d" transform="translate(679.886719 0)"/>
      <use xlink:href="#DejaVuSans-32" transform="translate(763.675781 0)"/>
      <use xlink:href="#DejaVuSans-31" transform="translate(827.298828 0)"/>
      <use xlink:href="#DejaVuSans-29" transform="translate(890.921875 0)"/>
     </g>
    </g>
    <g id="line2d_26">
     <path d="M 484.383688 121.654688 
L 504.383688 121.654688 
" style="fill: none; stroke: #d62728; stroke-width: 2; stroke-linecap: square"/>
    </g>
    <g id="line2d_27"/>
    <g id="text_20">
     <!-- RAP10_CSA300 -->
     <g transform="translate(512.383688 125.154688) scale(0.1 -0.1)">
      <defs>
       <path id="DejaVuSans-5f" d="M 3263 -1063 
L 3263 -1509 
L -63 -1509 
L -63 -1063 
L 3263 -1063 
z
" transform="scale(0.015625)"/>
       <path id="DejaVuSans-43" d="M 4122 4306 
L 4122 3641 
Q 3803 3938 3442 4084 
Q 3081 4231 2675 4231 
Q 1875 4231 1450 3742 
Q 1025 3253 1025 2328 
Q 1025 1406 1450 917 
Q 1875 428 2675 428 
Q 3081 428 3442 575 
Q 3803 722 4122 1019 
L 4122 359 
Q 3791 134 3420 21 
Q 3050 -91 2638 -91 
Q 1578 -91 968 557 
Q 359 1206 359 2328 
Q 359 3453 968 4101 
Q 1578 4750 2638 4750 
Q 3056 4750 3426 4639 
Q 3797 4528 4122 4306 
z
" transform="scale(0.015625)"/>
       <path id="DejaVuSans-33" d="M 2597 2516 
Q 3050 2419 3304 2112 
Q 3559 1806 3559 1356 
Q 3559 666 3084 287 
Q 2609 -91 1734 -91 
Q 1441 -91 1130 -33 
Q 819 25 488 141 
L 488 750 
Q 750 597 1062 519 
Q 1375 441 1716 441 
Q 2309 441 2620 675 
Q 2931 909 2931 1356 
Q 2931 1769 2642 2001 
Q 2353 2234 1838 2234 
L 1294 2234 
L 1294 2753 
L 1863 2753 
Q 2328 2753 2575 2939 
Q 2822 3125 2822 3475 
Q 2822 3834 2567 4026 
Q 2313 4219 1838 4219 
Q 1578 4219 1281 4162 
Q 984 4106 628 3988 
L 628 4550 
Q 988 4650 1302 4700 
Q 1616 4750 1894 4750 
Q 2613 4750 3031 4423 
Q 3450 4097 3450 3541 
Q 3450 3153 3228 2886 
Q 3006 2619 2597 2516 
z
" transform="scale(0.015625)"/>
      </defs>
      <use xlink:href="#DejaVuSans-52"/>
      <use xlink:href="#DejaVuSans-41" transform="translate(65.482422 0)"/>
      <use xlink:href="#DejaVuSans-50" transform="translate(133.890625 0)"/>
      <use xlink:href="#DejaVuSans-31" transform="translate(194.193359 0)"/>
      <use xlink:href="#DejaVuSans-30" transform="translate(257.816406 0)"/>
      <use xlink:href="#DejaVuSans-5f" transform="translate(321.439453 0)"/>
      <use xlink:href="#DejaVuSans-43" transform="translate(371.439453 0)"/>
      <use xlink:href="#DejaVuSans-53" transform="translate(441.263672 0)"/>
      <use xlink:href="#DejaVuSans-41" transform="translate(506.615234 0)"/>
      <use xlink:href="#DejaVuSans-33" transform="translate(575.023438 0)"/>
      <use xlink:href="#DejaVuSans-30" transform="translate(638.646484 0)"/>
      <use xlink:href="#DejaVuSans-30" transform="translate(702.269531 0)"/>
     </g>
    </g>
    <g id="LineCollection_5">
     <path d="M 494.383688 141.610937 
L 494.383688 131.610937 
" style="fill: none; stroke: #d62728"/>
    </g>
    <g id="line2d_28">
     <path d="M 484.383688 136.610937 
L 504.383688 136.610937 
" style="fill: none; stroke-dasharray: 3.7,1.6; stroke-dashoffset: 0; stroke: #d62728"/>
    </g>
    <g id="line2d_29">
     <g>
      <use xlink:href="#m97309e8199" x="494.383688" y="136.610937" style="fill: #d62728; stroke: #000000; stroke-linejoin: miter"/>
     </g>
    </g>
    <g id="text_21">
     <!-- RAP10_CSA300±SD (n=21) -->
     <g transform="translate(512.383688 140.110937) scale(0.1 -0.1)">
      <use xlink:href="#DejaVuSans-52"/>
      <use xlink:href="#DejaVuSans-41" transform="translate(65.482422 0)"/>
      <use xlink:href="#DejaVuSans-50" transform="translate(133.890625 0)"/>
      <use xlink:href="#DejaVuSans-31" transform="translate(194.193359 0)"/>
      <use xlink:href="#DejaVuSans-30" transform="translate(257.816406 0)"/>
      <use xlink:href="#DejaVuSans-5f" transform="translate(321.439453 0)"/>
      <use xlink:href="#DejaVuSans-43" transform="translate(371.439453 0)"/>
      <use xlink:href="#DejaVuSans-53" transform="translate(441.263672 0)"/>
      <use xlink:href="#DejaVuSans-41" transform="translate(506.615234 0)"/>
      <use xlink:href="#DejaVuSans-33" transform="translate(575.023438 0)"/>
      <use xlink:href="#DejaVuSans-30" transform="translate(638.646484 0)"/>
      <use xlink:href="#DejaVuSans-30" transform="translate(702.269531 0)"/>
      <use xlink:href="#DejaVuSans-b1" transform="translate(765.892578 0)"/>
      <use xlink:href="#DejaVuSans-53" transform="translate(849.681641 0)"/>
      <use xlink:href="#DejaVuSans-44" transform="translate(913.158203 0)"/>
      <use xlink:href="#DejaVuSans-20" transform="translate(990.160156 0)"/>
      <use xlink:href="#DejaVuSans-28" transform="translate(1021.947266 0)"/>
      <use xlink:href="#DejaVuSans-6e" transform="translate(1060.960938 0)"/>
      <use xlink:href="#DejaVuSans-3d" transform="translate(1124.339844 0)"/>
      <use xlink:href="#DejaVuSans-32" transform="translate(1208.128906 0)"/>
      <use xlink:href="#DejaVuSans-31" transform="translate(1271.751953 0)"/>
      <use xlink:href="#DejaVuSans-29" transform="translate(1335.375 0)"/>
     </g>
    </g>
    <g id="line2d_30">
     <path d="M 484.383688 151.567187 
L 504.383688 151.567187 
" style="fill: none; stroke: #2ca02c; stroke-width: 2; stroke-linecap: square"/>
    </g>
    <g id="line2d_31"/>
    <g id="text_22">
     <!-- RAP10_CSA300B -->
     <g transform="translate(512.383688 155.067187) scale(0.1 -0.1)">
      <defs>
       <path id="DejaVuSans-42" d="M 1259 2228 
L 1259 519 
L 2272 519 
Q 2781 519 3026 730 
Q 3272 941 3272 1375 
Q 3272 1813 3026 2020 
Q 2781 2228 2272 2228 
L 1259 2228 
z
M 1259 4147 
L 1259 2741 
L 2194 2741 
Q 2656 2741 2882 2914 
Q 3109 3088 3109 3444 
Q 3109 3797 2882 3972 
Q 2656 4147 2194 4147 
L 1259 4147 
z
M 628 4666 
L 2241 4666 
Q 2963 4666 3353 4366 
Q 3744 4066 3744 3513 
Q 3744 3084 3544 2831 
Q 3344 2578 2956 2516 
Q 3422 2416 3680 2098 
Q 3938 1781 3938 1306 
Q 3938 681 3513 340 
Q 3088 0 2303 0 
L 628 0 
L 628 4666 
z
" transform="scale(0.015625)"/>
      </defs>
      <use xlink:href="#DejaVuSans-52"/>
      <use xlink:href="#DejaVuSans-41" transform="translate(65.482422 0)"/>
      <use xlink:href="#DejaVuSans-50" transform="translate(133.890625 0)"/>
      <use xlink:href="#DejaVuSans-31" transform="translate(194.193359 0)"/>
      <use xlink:href="#DejaVuSans-30" transform="translate(257.816406 0)"/>
      <use xlink:href="#DejaVuSans-5f" transform="translate(321.439453 0)"/>
      <use xlink:href="#DejaVuSans-43" transform="translate(371.439453 0)"/>
      <use xlink:href="#DejaVuSans-53" transform="translate(441.263672 0)"/>
      <use xlink:href="#DejaVuSans-41" transform="translate(506.615234 0)"/>
      <use xlink:href="#DejaVuSans-33" transform="translate(575.023438 0)"/>
      <use xlink:href="#DejaVuSans-30" transform="translate(638.646484 0)"/>
      <use xlink:href="#DejaVuSans-30" transform="translate(702.269531 0)"/>
      <use xlink:href="#DejaVuSans-42" transform="translate(765.892578 0)"/>
     </g>
    </g>
    <g id="LineCollection_6">
     <path d="M 494.383688 171.523438 
L 494.383688 161.523438 
" style="fill: none; stroke: #2ca02c"/>
    </g>
    <g id="line2d_32">
     <path d="M 484.383688 166.523438 
L 504.383688 166.523438 
" style="fill: none; stroke-dasharray: 3.7,1.6; stroke-dashoffset: 0; stroke: #2ca02c"/>
    </g>
    <g id="line2d_33">
     <g>
      <use xlink:href="#m97bc24451c" x="494.383688" y="166.523438" style="fill: #2ca02c; stroke: #000000; stroke-linejoin: miter"/>
     </g>
    </g>
    <g id="text_23">
     <!-- RAP10_CSA300B±SD (n=21) -->
     <g transform="translate(512.383688 170.023438) scale(0.1 -0.1)">
      <use xlink:href="#DejaVuSans-52"/>
      <use xlink:href="#DejaVuSans-41" transform="translate(65.482422 0)"/>
      <use xlink:href="#DejaVuSans-50" transform="translate(133.890625 0)"/>
      <use xlink:href="#DejaVuSans-31" transform="translate(194.193359 0)"/>
      <use xlink:href="#DejaVuSans-30" transform="translate(257.816406 0)"/>
      <use xlink:href="#DejaVuSans-5f" transform="translate(321.439453 0)"/>
      <use xlink:href="#DejaVuSans-43" transform="translate(371.439453 0)"/>
      <use xlink:href="#DejaVuSans-53" transform="translate(441.263672 0)"/>
      <use xlink:href="#DejaVuSans-41" transform="translate(506.615234 0)"/>
      <use xlink:href="#DejaVuSans-33" transform="translate(575.023438 0)"/>
      <use xlink:href="#DejaVuSans-30" transform="translate(638.646484 0)"/>
      <use xlink:href="#DejaVuSans-30" transform="translate(702.269531 0)"/>
      <use xlink:href="#DejaVuSans-42" transform="translate(765.892578 0)"/>
      <use xlink:href="#DejaVuSans-b1" transform="translate(834.496094 0)"/>
      <use xlink:href="#DejaVuSans-53" transform="translate(918.285156 0)"/>
      <use xlink:href="#DejaVuSans-44" transform="translate(981.761719 0)"/>
      <use xlink:href="#DejaVuSans-20" transform="translate(1058.763672 0)"/>
      <use xlink:href="#DejaVuSans-28" transform="translate(1090.550781 0)"/>
      <use xlink:href="#DejaVuSans-6e" transform="translate(1129.564453 0)"/>
      <use xlink:href="#DejaVuSans-3d" transform="translate(1192.943359 0)"/>
      <use xlink:href="#DejaVuSans-32" transform="translate(1276.732422 0)"/>
      <use xlink:href="#DejaVuSans-31" transform="translate(1340.355469 0)"/>
      <use xlink:href="#DejaVuSans-29" transform="translate(1403.978516 0)"/>
     </g>
    </g>
   </g>
  </g>
  <g id="axes_2">
   <g id="patch_8">
    <path d="M 69.159688 633.6 
L 459.759688 633.6 
L 459.759688 392.556522 
L 69.159688 392.556522 
z
" style="fill: #ffffff"/>
   </g>
   <g id="matplotlib.axis_3">
    <g id="xtick_8">
     <g id="line2d_34">
      <g>
       <use xlink:href="#m1d6ce4f608" x="77.131116" y="633.6" style="stroke: #000000; stroke-width: 0.8"/>
      </g>
     </g>
     <g id="text_24">
      <!-- 0 -->
      <g transform="translate(72.359241 651.997656) scale(0.15 -0.15)">
       <use xlink:href="#DejaVuSans-30"/>
      </g>
     </g>
    </g>
    <g id="xtick_9">
     <g id="line2d_35">
      <g>
       <use xlink:href="#m1d6ce4f608" x="156.845402" y="633.6" style="stroke: #000000; stroke-width: 0.8"/>
      </g>
     </g>
     <g id="text_25">
      <!-- 10 -->
      <g transform="translate(147.301652 651.997656) scale(0.15 -0.15)">
       <use xlink:href="#DejaVuSans-31"/>
       <use xlink:href="#DejaVuSans-30" transform="translate(63.623047 0)"/>
      </g>
     </g>
    </g>
    <g id="xtick_10">
     <g id="line2d_36">
      <g>
       <use xlink:href="#m1d6ce4f608" x="236.559688" y="633.6" style="stroke: #000000; stroke-width: 0.8"/>
      </g>
     </g>
     <g id="text_26">
      <!-- 20 -->
      <g transform="translate(227.015938 651.997656) scale(0.15 -0.15)">
       <use xlink:href="#DejaVuSans-32"/>
       <use xlink:href="#DejaVuSans-30" transform="translate(63.623047 0)"/>
      </g>
     </g>
    </g>
    <g id="xtick_11">
     <g id="line2d_37">
      <g>
       <use xlink:href="#m1d6ce4f608" x="316.273973" y="633.6" style="stroke: #000000; stroke-width: 0.8"/>
      </g>
     </g>
     <g id="text_27">
      <!-- 30 -->
      <g transform="translate(306.730223 651.997656) scale(0.15 -0.15)">
       <use xlink:href="#DejaVuSans-33"/>
       <use xlink:href="#DejaVuSans-30" transform="translate(63.623047 0)"/>
      </g>
     </g>
    </g>
    <g id="xtick_12">
     <g id="line2d_38">
      <g>
       <use xlink:href="#m1d6ce4f608" x="395.988259" y="633.6" style="stroke: #000000; stroke-width: 0.8"/>
      </g>
     </g>
     <g id="text_28">
      <!-- 40 -->
      <g transform="translate(386.444509 651.997656) scale(0.15 -0.15)">
       <defs>
        <path id="DejaVuSans-34" d="M 2419 4116 
L 825 1625 
L 2419 1625 
L 2419 4116 
z
M 2253 4666 
L 3047 4666 
L 3047 1625 
L 3713 1625 
L 3713 1100 
L 3047 1100 
L 3047 0 
L 2419 0 
L 2419 1100 
L 313 1100 
L 313 1709 
L 2253 4666 
z
" transform="scale(0.015625)"/>
       </defs>
       <use xlink:href="#DejaVuSans-34"/>
       <use xlink:href="#DejaVuSans-30" transform="translate(63.623047 0)"/>
      </g>
     </g>
    </g>
    <g id="text_29">
     <!-- time [hr] -->
     <g transform="translate(219.385156 672.794375) scale(0.18 -0.18)">
      <use xlink:href="#DejaVuSans-Bold-74"/>
      <use xlink:href="#DejaVuSans-Bold-69" transform="translate(47.802734 0)"/>
      <use xlink:href="#DejaVuSans-Bold-6d" transform="translate(82.080078 0)"/>
      <use xlink:href="#DejaVuSans-Bold-65" transform="translate(186.279297 0)"/>
      <use xlink:href="#DejaVuSans-Bold-20" transform="translate(254.101562 0)"/>
      <use xlink:href="#DejaVuSans-Bold-5b" transform="translate(288.916016 0)"/>
      <use xlink:href="#DejaVuSans-Bold-68" transform="translate(334.619141 0)"/>
      <use xlink:href="#DejaVuSans-Bold-72" transform="translate(405.810547 0)"/>
      <use xlink:href="#DejaVuSans-Bold-5d" transform="translate(455.126953 0)"/>
     </g>
    </g>
   </g>
   <g id="matplotlib.axis_4">
    <g id="ytick_9">
     <g id="line2d_39">
      <g>
       <use xlink:href="#m9d1dc8dd33" x="69.159688" y="622.642855" style="stroke: #000000; stroke-width: 0.8"/>
      </g>
     </g>
     <g id="text_30">
      <!-- 0.0 -->
      <g transform="translate(38.305 628.341683) scale(0.15 -0.15)">
       <use xlink:href="#DejaVuSans-30"/>
       <use xlink:href="#DejaVuSans-2e" transform="translate(63.623047 0)"/>
       <use xlink:href="#DejaVuSans-30" transform="translate(95.410156 0)"/>
      </g>
     </g>
    </g>
    <g id="ytick_10">
     <g id="line2d_40">
      <g>
       <use xlink:href="#m9d1dc8dd33" x="69.159688" y="590.86826" style="stroke: #000000; stroke-width: 0.8"/>
      </g>
     </g>
     <g id="text_31">
      <!-- 2.5 -->
      <g transform="translate(38.305 596.567088) scale(0.15 -0.15)">
       <use xlink:href="#DejaVuSans-32"/>
       <use xlink:href="#DejaVuSans-2e" transform="translate(63.623047 0)"/>
       <use xlink:href="#DejaVuSans-35" transform="translate(95.410156 0)"/>
      </g>
     </g>
    </g>
    <g id="ytick_11">
     <g id="line2d_41">
      <g>
       <use xlink:href="#m9d1dc8dd33" x="69.159688" y="559.093666" style="stroke: #000000; stroke-width: 0.8"/>
      </g>
     </g>
     <g id="text_32">
      <!-- 5.0 -->
      <g transform="translate(38.305 564.792494) scale(0.15 -0.15)">
       <use xlink:href="#DejaVuSans-35"/>
       <use xlink:href="#DejaVuSans-2e" transform="translate(63.623047 0)"/>
       <use xlink:href="#DejaVuSans-30" transform="translate(95.410156 0)"/>
      </g>
     </g>
    </g>
    <g id="ytick_12">
     <g id="line2d_42">
      <g>
       <use xlink:href="#m9d1dc8dd33" x="69.159688" y="527.319071" style="stroke: #000000; stroke-width: 0.8"/>
      </g>
     </g>
     <g id="text_33">
      <!-- 7.5 -->
      <g transform="translate(38.305 533.017899) scale(0.15 -0.15)">
       <use xlink:href="#DejaVuSans-37"/>
       <use xlink:href="#DejaVuSans-2e" transform="translate(63.623047 0)"/>
       <use xlink:href="#DejaVuSans-35" transform="translate(95.410156 0)"/>
      </g>
     </g>
    </g>
    <g id="ytick_13">
     <g id="line2d_43">
      <g>
       <use xlink:href="#m9d1dc8dd33" x="69.159688" y="495.544477" style="stroke: #000000; stroke-width: 0.8"/>
      </g>
     </g>
     <g id="text_34">
      <!-- 10.0 -->
      <g transform="translate(28.76125 501.243305) scale(0.15 -0.15)">
       <use xlink:href="#DejaVuSans-31"/>
       <use xlink:href="#DejaVuSans-30" transform="translate(63.623047 0)"/>
       <use xlink:href="#DejaVuSans-2e" transform="translate(127.246094 0)"/>
       <use xlink:href="#DejaVuSans-30" transform="translate(159.033203 0)"/>
      </g>
     </g>
    </g>
    <g id="ytick_14">
     <g id="line2d_44">
      <g>
       <use xlink:href="#m9d1dc8dd33" x="69.159688" y="463.769882" style="stroke: #000000; stroke-width: 0.8"/>
      </g>
     </g>
     <g id="text_35">
      <!-- 12.5 -->
      <g transform="translate(28.76125 469.468711) scale(0.15 -0.15)">
       <use xlink:href="#DejaVuSans-31"/>
       <use xlink:href="#DejaVuSans-32" transform="translate(63.623047 0)"/>
       <use xlink:href="#DejaVuSans-2e" transform="translate(127.246094 0)"/>
       <use xlink:href="#DejaVuSans-35" transform="translate(159.033203 0)"/>
      </g>
     </g>
    </g>
    <g id="ytick_15">
     <g id="line2d_45">
      <g>
       <use xlink:href="#m9d1dc8dd33" x="69.159688" y="431.995288" style="stroke: #000000; stroke-width: 0.8"/>
      </g>
     </g>
     <g id="text_36">
      <!-- 15.0 -->
      <g transform="translate(28.76125 437.694116) scale(0.15 -0.15)">
       <use xlink:href="#DejaVuSans-31"/>
       <use xlink:href="#DejaVuSans-35" transform="translate(63.623047 0)"/>
       <use xlink:href="#DejaVuSans-2e" transform="translate(127.246094 0)"/>
       <use xlink:href="#DejaVuSans-30" transform="translate(159.033203 0)"/>
      </g>
     </g>
    </g>
    <g id="ytick_16">
     <g id="line2d_46">
      <g>
       <use xlink:href="#m9d1dc8dd33" x="69.159688" y="400.220693" style="stroke: #000000; stroke-width: 0.8"/>
      </g>
     </g>
     <g id="text_37">
      <!-- 17.5 -->
      <g transform="translate(28.76125 405.919522) scale(0.15 -0.15)">
       <use xlink:href="#DejaVuSans-31"/>
       <use xlink:href="#DejaVuSans-37" transform="translate(63.623047 0)"/>
       <use xlink:href="#DejaVuSans-2e" transform="translate(127.246094 0)"/>
       <use xlink:href="#DejaVuSans-35" transform="translate(159.033203 0)"/>
      </g>
     </g>
    </g>
    <g id="text_38">
     <!-- rapamycin [µM] -->
     <g transform="translate(20.877188 593.116386) rotate(-90) scale(0.18 -0.18)">
      <use xlink:href="#DejaVuSans-Bold-72"/>
      <use xlink:href="#DejaVuSans-Bold-61" transform="translate(49.316406 0)"/>
      <use xlink:href="#DejaVuSans-Bold-70" transform="translate(116.796875 0)"/>
      <use xlink:href="#DejaVuSans-Bold-61" transform="translate(188.378906 0)"/>
      <use xlink:href="#DejaVuSans-Bold-6d" transform="translate(255.859375 0)"/>
      <use xlink:href="#DejaVuSans-Bold-79" transform="translate(360.058594 0)"/>
      <use xlink:href="#DejaVuSans-Bold-63" transform="translate(425.244141 0)"/>
      <use xlink:href="#DejaVuSans-Bold-69" transform="translate(484.521484 0)"/>
      <use xlink:href="#DejaVuSans-Bold-6e" transform="translate(518.798828 0)"/>
      <use xlink:href="#DejaVuSans-Bold-20" transform="translate(589.990234 0)"/>
      <use xlink:href="#DejaVuSans-Bold-5b" transform="translate(624.804688 0)"/>
      <use xlink:href="#DejaVuSans-Bold-b5" transform="translate(670.507812 0)"/>
      <use xlink:href="#DejaVuSans-Bold-4d" transform="translate(744.091797 0)"/>
      <use xlink:href="#DejaVuSans-Bold-5d" transform="translate(843.603516 0)"/>
     </g>
    </g>
   </g>
   <g id="LineCollection_7">
    <path d="M 77.131116 622.643478 
L 77.131116 622.641121 
" clip-path="url(#p4d2f0fefeb)" style="fill: none; stroke: #000000"/>
    <path d="M 79.761688 622.561846 
L 79.761688 622.218101 
" clip-path="url(#p4d2f0fefeb)" style="fill: none; stroke: #000000"/>
    <path clip-path="url(#p4d2f0fefeb)" style="fill: none; stroke: #000000"/>
    <path clip-path="url(#p4d2f0fefeb)" style="fill: none; stroke: #000000"/>
    <path clip-path="url(#p4d2f0fefeb)" style="fill: none; stroke: #000000"/>
    <path d="M 101.045402 622.515082 
L 101.045402 622.20472 
" clip-path="url(#p4d2f0fefeb)" style="fill: none; stroke: #000000"/>
    <path d="M 116.988259 622.513986 
L 116.988259 622.427751 
" clip-path="url(#p4d2f0fefeb)" style="fill: none; stroke: #000000"/>
    <path d="M 140.902545 622.566413 
L 140.902545 622.508038 
" clip-path="url(#p4d2f0fefeb)" style="fill: none; stroke: #000000"/>
    <path d="M 172.788259 622.593346 
L 172.788259 622.55302 
" clip-path="url(#p4d2f0fefeb)" style="fill: none; stroke: #000000"/>
    <path d="M 268.445402 622.613516 
L 268.445402 622.584701 
" clip-path="url(#p4d2f0fefeb)" style="fill: none; stroke: #000000"/>
    <path d="M 459.759688 622.622026 
L 459.759688 622.603953 
" clip-path="url(#p4d2f0fefeb)" style="fill: none; stroke: #000000"/>
    <path d="M 651.073973 622.629333 
L 651.073973 622.614337 
" clip-path="url(#p4d2f0fefeb)" style="fill: none; stroke: #000000"/>
    <path clip-path="url(#p4d2f0fefeb)" style="fill: none; stroke: #000000"/>
    <path clip-path="url(#p4d2f0fefeb)" style="fill: none; stroke: #000000"/>
    <path clip-path="url(#p4d2f0fefeb)" style="fill: none; stroke: #000000"/>
   </g>
   <g id="LineCollection_8">
    <path d="M 77.131116 622.643441 
L 77.131116 622.641712 
" clip-path="url(#p4d2f0fefeb)" style="fill: none; stroke: #d62728"/>
    <path d="M 79.761688 622.517718 
L 79.761688 622.21376 
" clip-path="url(#p4d2f0fefeb)" style="fill: none; stroke: #d62728"/>
    <path d="M 82.471973 621.965669 
L 82.471973 621.571194 
" clip-path="url(#p4d2f0fefeb)" style="fill: none; stroke: #d62728"/>
    <path d="M 85.102545 621.849215 
L 85.102545 620.914576 
" clip-path="url(#p4d2f0fefeb)" style="fill: none; stroke: #d62728"/>
    <path d="M 93.073973 621.848188 
L 93.073973 621.158781 
" clip-path="url(#p4d2f0fefeb)" style="fill: none; stroke: #d62728"/>
    <path d="M 101.045402 621.874312 
L 101.045402 621.394095 
" clip-path="url(#p4d2f0fefeb)" style="fill: none; stroke: #d62728"/>
    <path d="M 116.988259 622.218923 
L 116.988259 621.80264 
" clip-path="url(#p4d2f0fefeb)" style="fill: none; stroke: #d62728"/>
    <path d="M 140.902545 622.387786 
L 140.902545 622.121543 
" clip-path="url(#p4d2f0fefeb)" style="fill: none; stroke: #d62728"/>
    <path d="M 172.788259 622.483316 
L 172.788259 622.295467 
" clip-path="url(#p4d2f0fefeb)" style="fill: none; stroke: #d62728"/>
    <path d="M 268.445402 622.523681 
L 268.445402 622.420251 
" clip-path="url(#p4d2f0fefeb)" style="fill: none; stroke: #d62728"/>
    <path d="M 459.759688 622.573213 
L 459.759688 622.486177 
" clip-path="url(#p4d2f0fefeb)" style="fill: none; stroke: #d62728"/>
    <path d="M 651.073973 622.592138 
L 651.073973 622.535895 
" clip-path="url(#p4d2f0fefeb)" style="fill: none; stroke: #d62728"/>
    <path clip-path="url(#p4d2f0fefeb)" style="fill: none; stroke: #d62728"/>
    <path clip-path="url(#p4d2f0fefeb)" style="fill: none; stroke: #d62728"/>
    <path clip-path="url(#p4d2f0fefeb)" style="fill: none; stroke: #d62728"/>
   </g>
   <g id="LineCollection_9">
    <path d="M 77.131116 622.643311 
L 77.131116 622.641564 
" clip-path="url(#p4d2f0fefeb)" style="fill: none; stroke: #2ca02c"/>
    <path d="M 79.761688 622.448613 
L 79.761688 622.28408 
" clip-path="url(#p4d2f0fefeb)" style="fill: none; stroke: #2ca02c"/>
    <path clip-path="url(#p4d2f0fefeb)" style="fill: none; stroke: #2ca02c"/>
    <path d="M 85.102545 622.175924 
L 85.102545 621.570026 
" clip-path="url(#p4d2f0fefeb)" style="fill: none; stroke: #2ca02c"/>
    <path clip-path="url(#p4d2f0fefeb)" style="fill: none; stroke: #2ca02c"/>
    <path clip-path="url(#p4d2f0fefeb)" style="fill: none; stroke: #2ca02c"/>
    <path d="M 116.988259 622.466643 
L 116.988259 622.105382 
" clip-path="url(#p4d2f0fefeb)" style="fill: none; stroke: #2ca02c"/>
    <path d="M 140.902545 622.522498 
L 140.902545 622.295743 
" clip-path="url(#p4d2f0fefeb)" style="fill: none; stroke: #2ca02c"/>
    <path d="M 172.788259 622.560682 
L 172.788259 622.412214 
" clip-path="url(#p4d2f0fefeb)" style="fill: none; stroke: #2ca02c"/>
    <path d="M 268.445402 622.587003 
L 268.445402 622.522974 
" clip-path="url(#p4d2f0fefeb)" style="fill: none; stroke: #2ca02c"/>
    <path d="M 459.759688 622.595895 
L 459.759688 622.570926 
" clip-path="url(#p4d2f0fefeb)" style="fill: none; stroke: #2ca02c"/>
    <path d="M 651.073973 622.61807 
L 651.073973 622.583133 
" clip-path="url(#p4d2f0fefeb)" style="fill: none; stroke: #2ca02c"/>
    <path clip-path="url(#p4d2f0fefeb)" style="fill: none; stroke: #2ca02c"/>
    <path clip-path="url(#p4d2f0fefeb)" style="fill: none; stroke: #2ca02c"/>
    <path clip-path="url(#p4d2f0fefeb)" style="fill: none; stroke: #2ca02c"/>
   </g>
   <g id="line2d_47">
    <path d="M 77.131116 622.642855 
L 77.728973 600.274641 
L 78.924688 489.877984 
L 79.522545 449.854683 
L 80.120402 424.516318 
L 80.718259 411.972493 
L 81.316116 409.417824 
L 81.913973 414.055486 
L 82.51183 423.478926 
L 83.707545 449.539358 
L 85.501116 490.967151 
L 86.69683 514.580177 
L 87.892545 533.844798 
L 89.088259 549.013745 
L 90.283973 560.701447 
L 91.479688 569.5852 
L 92.675402 576.279812 
L 93.871116 581.297442 
L 95.06683 585.04565 
L 96.262545 587.840226 
L 97.458259 589.921903 
L 98.653973 591.472332 
L 99.849688 592.627692 
L 101.045402 593.489649 
L 102.241116 594.133892 
L 104.034688 594.811033 
L 105.828259 595.254145 
L 108.219688 595.622694 
L 111.80683 595.920828 
L 117.785402 596.149483 
L 134.525402 596.471192 
L 267.847545 598.643346 
L 418.507545 600.882053 
L 460.357545 601.466118 
L 460.357545 601.466118 
" clip-path="url(#p4d2f0fefeb)" style="fill: none; stroke: #000000; stroke-width: 2; stroke-linecap: square"/>
   </g>
   <g id="line2d_48">
    <path d="M 77.131116 622.6423 
L 79.761688 622.389973 
M 85.102545 622.078103 
L 93.073973 622.217938 
L 101.045402 622.359901 
L 116.988259 622.470869 
L 140.902545 622.537225 
L 172.788259 622.573183 
L 268.445402 622.599108 
L 459.759688 622.612989 
L 651.073973 622.621835 
L 668.886813 622.622236 
" clip-path="url(#p4d2f0fefeb)" style="fill: none; stroke-dasharray: 3.7,1.6; stroke-dashoffset: 0; stroke: #000000"/>
    <g clip-path="url(#p4d2f0fefeb)">
     <use xlink:href="#mcbf4e96c86" x="77.131116" y="622.6423" style="stroke: #000000; stroke-linejoin: miter"/>
     <use xlink:href="#mcbf4e96c86" x="79.761688" y="622.389973" style="stroke: #000000; stroke-linejoin: miter"/>
     <use xlink:href="#mcbf4e96c86" x="85.102545" y="622.078103" style="stroke: #000000; stroke-linejoin: miter"/>
     <use xlink:href="#mcbf4e96c86" x="93.073973" y="622.217938" style="stroke: #000000; stroke-linejoin: miter"/>
     <use xlink:href="#mcbf4e96c86" x="101.045402" y="622.359901" style="stroke: #000000; stroke-linejoin: miter"/>
     <use xlink:href="#mcbf4e96c86" x="116.988259" y="622.470869" style="stroke: #000000; stroke-linejoin: miter"/>
     <use xlink:href="#mcbf4e96c86" x="140.902545" y="622.537225" style="stroke: #000000; stroke-linejoin: miter"/>
     <use xlink:href="#mcbf4e96c86" x="172.788259" y="622.573183" style="stroke: #000000; stroke-linejoin: miter"/>
     <use xlink:href="#mcbf4e96c86" x="268.445402" y="622.599108" style="stroke: #000000; stroke-linejoin: miter"/>
     <use xlink:href="#mcbf4e96c86" x="459.759688" y="622.612989" style="stroke: #000000; stroke-linejoin: miter"/>
     <use xlink:href="#mcbf4e96c86" x="651.073973" y="622.621835" style="stroke: #000000; stroke-linejoin: miter"/>
     <use xlink:href="#mcbf4e96c86" x="842.388259" y="622.62614" style="stroke: #000000; stroke-linejoin: miter"/>
     <use xlink:href="#mcbf4e96c86" x="1033.702545" y="622.629564" style="stroke: #000000; stroke-linejoin: miter"/>
     <use xlink:href="#mcbf4e96c86" x="1225.01683" y="622.631622" style="stroke: #000000; stroke-linejoin: miter"/>
    </g>
   </g>
   <g id="line2d_49">
    <path d="M 77.131116 622.642855 
L 77.728973 600.041509 
L 78.924688 487.287705 
L 79.522545 446.039375 
L 80.120402 419.721971 
L 80.718259 406.486278 
L 81.316116 403.513043 
L 81.913973 407.966006 
L 82.51183 417.390584 
L 83.707545 443.826727 
L 85.501116 486.22768 
L 86.69683 510.511857 
L 87.892545 530.372467 
L 89.088259 546.037812 
L 90.283973 558.12255 
L 91.479688 567.315342 
L 92.675402 574.245916 
L 93.871116 579.441133 
L 95.06683 583.321441 
L 96.262545 586.213246 
L 97.458259 588.365713 
L 98.653973 589.967032 
L 99.849688 591.158382 
L 101.045402 592.045208 
L 102.241116 592.706044 
L 104.034688 593.397053 
L 105.828259 593.845105 
L 108.219688 594.21176 
L 111.80683 594.497362 
L 117.785402 594.695038 
L 134.525402 594.919114 
L 333.013973 597.045743 
L 460.357545 598.323454 
L 460.357545 598.323454 
" clip-path="url(#p4d2f0fefeb)" style="fill: none; stroke: #d62728; stroke-width: 2; stroke-linecap: square"/>
   </g>
   <g id="line2d_50">
    <path d="M 77.131116 622.642577 
L 79.761688 622.365739 
L 82.471973 621.768432 
L 85.102545 621.381896 
L 93.073973 621.503485 
L 101.045402 621.634203 
L 116.988259 622.010782 
L 140.902545 622.254665 
L 172.788259 622.389392 
L 268.445402 622.471966 
L 459.759688 622.529695 
L 651.073973 622.564017 
L 668.886813 622.566243 
" clip-path="url(#p4d2f0fefeb)" style="fill: none; stroke-dasharray: 3.7,1.6; stroke-dashoffset: 0; stroke: #d62728"/>
    <g clip-path="url(#p4d2f0fefeb)">
     <use xlink:href="#m97309e8199" x="77.131116" y="622.642577" style="fill: #d62728; stroke: #000000; stroke-linejoin: miter"/>
     <use xlink:href="#m97309e8199" x="79.761688" y="622.365739" style="fill: #d62728; stroke: #000000; stroke-linejoin: miter"/>
     <use xlink:href="#m97309e8199" x="82.471973" y="621.768432" style="fill: #d62728; stroke: #000000; stroke-linejoin: miter"/>
     <use xlink:href="#m97309e8199" x="85.102545" y="621.381896" style="fill: #d62728; stroke: #000000; stroke-linejoin: miter"/>
     <use xlink:href="#m97309e8199" x="93.073973" y="621.503485" style="fill: #d62728; stroke: #000000; stroke-linejoin: miter"/>
     <use xlink:href="#m97309e8199" x="101.045402" y="621.634203" style="fill: #d62728; stroke: #000000; stroke-linejoin: miter"/>
     <use xlink:href="#m97309e8199" x="116.988259" y="622.010782" style="fill: #d62728; stroke: #000000; stroke-linejoin: miter"/>
     <use xlink:href="#m97309e8199" x="140.902545" y="622.254665" style="fill: #d62728; stroke: #000000; stroke-linejoin: miter"/>
     <use xlink:href="#m97309e8199" x="172.788259" y="622.389392" style="fill: #d62728; stroke: #000000; stroke-linejoin: miter"/>
     <use xlink:href="#m97309e8199" x="268.445402" y="622.471966" style="fill: #d62728; stroke: #000000; stroke-linejoin: miter"/>
     <use xlink:href="#m97309e8199" x="459.759688" y="622.529695" style="fill: #d62728; stroke: #000000; stroke-linejoin: miter"/>
     <use xlink:href="#m97309e8199" x="651.073973" y="622.564017" style="fill: #d62728; stroke: #000000; stroke-linejoin: miter"/>
     <use xlink:href="#m97309e8199" x="842.388259" y="622.587925" style="fill: #d62728; stroke: #000000; stroke-linejoin: miter"/>
     <use xlink:href="#m97309e8199" x="1033.702545" y="622.60092" style="fill: #d62728; stroke: #000000; stroke-linejoin: miter"/>
     <use xlink:href="#m97309e8199" x="1225.01683" y="622.608476" style="fill: #d62728; stroke: #000000; stroke-linejoin: miter"/>
    </g>
   </g>
   <g id="line2d_51">
    <path d="M 77.131116 622.642855 
L 77.728973 600.158613 
L 78.924688 488.59404 
L 79.522545 447.965548 
L 80.120402 422.144489 
L 80.718259 409.260479 
L 81.316116 406.500975 
L 81.913973 411.049415 
L 82.51183 420.475332 
L 83.707545 446.724454 
L 85.501116 488.635375 
L 86.69683 512.580327 
L 87.892545 532.139167 
L 89.088259 547.552845 
L 90.283973 559.436101 
L 91.479688 568.471962 
L 92.675402 575.282661 
L 93.871116 580.387638 
L 95.06683 584.200819 
L 96.262545 587.043226 
L 97.458259 589.159744 
L 98.653973 590.735241 
L 99.849688 591.908352 
L 101.045402 592.782601 
L 102.241116 593.435074 
L 104.034688 594.119151 
L 105.828259 594.564819 
L 108.219688 594.932616 
L 111.80683 595.224869 
L 117.785402 595.43878 
L 134.525402 595.713924 
L 292.957545 597.874512 
L 460.357545 599.969562 
L 460.357545 599.969562 
" clip-path="url(#p4d2f0fefeb)" style="fill: none; stroke: #2ca02c; stroke-width: 2; stroke-linecap: square"/>
   </g>
   <g id="line2d_52">
    <path d="M 77.131116 622.642437 
L 79.761688 622.366346 
L 82.471973 622.090438 
L 85.102545 621.872975 
L 93.073973 621.959926 
L 101.045402 622.094093 
L 116.988259 622.286012 
L 140.902545 622.40912 
L 172.788259 622.486448 
L 268.445402 622.554988 
L 459.759688 622.583411 
L 651.073973 622.600601 
L 668.886813 622.601534 
" clip-path="url(#p4d2f0fefeb)" style="fill: none; stroke-dasharray: 3.7,1.6; stroke-dashoffset: 0; stroke: #2ca02c"/>
    <g clip-path="url(#p4d2f0fefeb)">
     <use xlink:href="#m97bc24451c" x="77.131116" y="622.642437" style="fill: #2ca02c; stroke: #000000; stroke-linejoin: miter"/>
     <use xlink:href="#m97bc24451c" x="79.761688" y="622.366346" style="fill: #2ca02c; stroke: #000000; stroke-linejoin: miter"/>
     <use xlink:href="#m97bc24451c" x="82.471973" y="622.090438" style="fill: #2ca02c; stroke: #000000; stroke-linejoin: miter"/>
     <use xlink:href="#m97bc24451c" x="85.102545" y="621.872975" style="fill: #2ca02c; stroke: #000000; stroke-linejoin: miter"/>
     <use xlink:href="#m97bc24451c" x="93.073973" y="621.959926" style="fill: #2ca02c; stroke: #000000; stroke-linejoin: miter"/>
     <use xlink:href="#m97bc24451c" x="101.045402" y="622.094093" style="fill: #2ca02c; stroke: #000000; stroke-linejoin: miter"/>
     <use xlink:href="#m97bc24451c" x="116.988259" y="622.286012" style="fill: #2ca02c; stroke: #000000; stroke-linejoin: miter"/>
     <use xlink:href="#m97bc24451c" x="140.902545" y="622.40912" style="fill: #2ca02c; stroke: #000000; stroke-linejoin: miter"/>
     <use xlink:href="#m97bc24451c" x="172.788259" y="622.486448" style="fill: #2ca02c; stroke: #000000; stroke-linejoin: miter"/>
     <use xlink:href="#m97bc24451c" x="268.445402" y="622.554988" style="fill: #2ca02c; stroke: #000000; stroke-linejoin: miter"/>
     <use xlink:href="#m97bc24451c" x="459.759688" y="622.583411" style="fill: #2ca02c; stroke: #000000; stroke-linejoin: miter"/>
     <use xlink:href="#m97bc24451c" x="651.073973" y="622.600601" style="fill: #2ca02c; stroke: #000000; stroke-linejoin: miter"/>
     <use xlink:href="#m97bc24451c" x="842.388259" y="622.610621" style="fill: #2ca02c; stroke: #000000; stroke-linejoin: miter"/>
     <use xlink:href="#m97bc24451c" x="1033.702545" y="622.618611" style="fill: #2ca02c; stroke: #000000; stroke-linejoin: miter"/>
     <use xlink:href="#m97bc24451c" x="1225.01683" y="622.621556" style="fill: #2ca02c; stroke: #000000; stroke-linejoin: miter"/>
    </g>
   </g>
   <g id="patch_9">
    <path d="M 69.159688 633.6 
L 69.159688 392.556522 
" style="fill: none; stroke: #000000; stroke-width: 0.8; stroke-linejoin: miter; stroke-linecap: square"/>
   </g>
   <g id="patch_10">
    <path d="M 459.759688 633.6 
L 459.759688 392.556522 
" style="fill: none; stroke: #000000; stroke-width: 0.8; stroke-linejoin: miter; stroke-linecap: square"/>
   </g>
   <g id="patch_11">
    <path d="M 69.159688 633.6 
L 459.759688 633.6 
" style="fill: none; stroke: #000000; stroke-width: 0.8; stroke-linejoin: miter; stroke-linecap: square"/>
   </g>
   <g id="patch_12">
    <path d="M 69.159688 392.556522 
L 459.759688 392.556522 
" style="fill: none; stroke: #000000; stroke-width: 0.8; stroke-linejoin: miter; stroke-linecap: square"/>
   </g>
   <g id="legend_2">
    <g id="patch_13">
     <path d="M 482.383688 489.737772 
L 658.686813 489.737772 
Q 660.686813 489.737772 660.686813 487.737772 
L 660.686813 399.556522 
Q 660.686813 397.556522 658.686813 397.556522 
L 482.383688 397.556522 
Q 480.383688 397.556522 480.383688 399.556522 
L 480.383688 487.737772 
Q 480.383688 489.737772 482.383688 489.737772 
z
" style="fill: #ffffff; opacity: 0.8; stroke: #cccccc; stroke-linejoin: miter"/>
    </g>
    <g id="line2d_53">
     <path d="M 484.383688 405.654959 
L 504.383688 405.654959 
" style="fill: none; stroke: #000000; stroke-width: 2; stroke-linecap: square"/>
    </g>
    <g id="line2d_54"/>
    <g id="text_39">
     <!-- RAP10 -->
     <g transform="translate(512.383688 409.154959) scale(0.1 -0.1)">
      <use xlink:href="#DejaVuSans-52"/>
      <use xlink:href="#DejaVuSans-41" transform="translate(65.482422 0)"/>
      <use xlink:href="#DejaVuSans-50" transform="translate(133.890625 0)"/>
      <use xlink:href="#DejaVuSans-31" transform="translate(194.193359 0)"/>
      <use xlink:href="#DejaVuSans-30" transform="translate(257.816406 0)"/>
     </g>
    </g>
    <g id="LineCollection_10">
     <path d="M 494.383688 425.333084 
L 494.383688 415.333084 
" style="fill: none; stroke: #000000"/>
    </g>
    <g id="line2d_55">
     <path d="M 484.383688 420.333084 
L 504.383688 420.333084 
" style="fill: none; stroke-dasharray: 3.7,1.6; stroke-dashoffset: 0; stroke: #000000"/>
    </g>
    <g id="line2d_56">
     <g>
      <use xlink:href="#mcbf4e96c86" x="494.383688" y="420.333084" style="stroke: #000000; stroke-linejoin: miter"/>
     </g>
    </g>
    <g id="text_40">
     <!-- RAP10±SD (n=21) -->
     <g transform="translate(512.383688 423.833084) scale(0.1 -0.1)">
      <use xlink:href="#DejaVuSans-52"/>
      <use xlink:href="#DejaVuSans-41" transform="translate(65.482422 0)"/>
      <use xlink:href="#DejaVuSans-50" transform="translate(133.890625 0)"/>
      <use xlink:href="#DejaVuSans-31" transform="translate(194.193359 0)"/>
      <use xlink:href="#DejaVuSans-30" transform="translate(257.816406 0)"/>
      <use xlink:href="#DejaVuSans-b1" transform="translate(321.439453 0)"/>
      <use xlink:href="#DejaVuSans-53" transform="translate(405.228516 0)"/>
      <use xlink:href="#DejaVuSans-44" transform="translate(468.705078 0)"/>
      <use xlink:href="#DejaVuSans-20" transform="translate(545.707031 0)"/>
      <use xlink:href="#DejaVuSans-28" transform="translate(577.494141 0)"/>
      <use xlink:href="#DejaVuSans-6e" transform="translate(616.507812 0)"/>
      <use xlink:href="#DejaVuSans-3d" transform="translate(679.886719 0)"/>
      <use xlink:href="#DejaVuSans-32" transform="translate(763.675781 0)"/>
      <use xlink:href="#DejaVuSans-31" transform="translate(827.298828 0)"/>
      <use xlink:href="#DejaVuSans-29" transform="translate(890.921875 0)"/>
     </g>
    </g>
    <g id="line2d_57">
     <path d="M 484.383688 435.011209 
L 504.383688 435.011209 
" style="fill: none; stroke: #d62728; stroke-width: 2; stroke-linecap: square"/>
    </g>
    <g id="line2d_58"/>
    <g id="text_41">
     <!-- RAP10_CSA300 -->
     <g transform="translate(512.383688 438.511209) scale(0.1 -0.1)">
      <use xlink:href="#DejaVuSans-52"/>
      <use xlink:href="#DejaVuSans-41" transform="translate(65.482422 0)"/>
      <use xlink:href="#DejaVuSans-50" transform="translate(133.890625 0)"/>
      <use xlink:href="#DejaVuSans-31" transform="translate(194.193359 0)"/>
      <use xlink:href="#DejaVuSans-30" transform="translate(257.816406 0)"/>
      <use xlink:href="#DejaVuSans-5f" transform="translate(321.439453 0)"/>
      <use xlink:href="#DejaVuSans-43" transform="translate(371.439453 0)"/>
      <use xlink:href="#DejaVuSans-53" transform="translate(441.263672 0)"/>
      <use xlink:href="#DejaVuSans-41" transform="translate(506.615234 0)"/>
      <use xlink:href="#DejaVuSans-33" transform="translate(575.023438 0)"/>
      <use xlink:href="#DejaVuSans-30" transform="translate(638.646484 0)"/>
      <use xlink:href="#DejaVuSans-30" transform="translate(702.269531 0)"/>
     </g>
    </g>
    <g id="LineCollection_11">
     <path d="M 494.383688 454.967459 
L 494.383688 444.967459 
" style="fill: none; stroke: #d62728"/>
    </g>
    <g id="line2d_59">
     <path d="M 484.383688 449.967459 
L 504.383688 449.967459 
" style="fill: none; stroke-dasharray: 3.7,1.6; stroke-dashoffset: 0; stroke: #d62728"/>
    </g>
    <g id="line2d_60">
     <g>
      <use xlink:href="#m97309e8199" x="494.383688" y="449.967459" style="fill: #d62728; stroke: #000000; stroke-linejoin: miter"/>
     </g>
    </g>
    <g id="text_42">
     <!-- RAP10_CSA300±SD (n=21) -->
     <g transform="translate(512.383688 453.467459) scale(0.1 -0.1)">
      <use xlink:href="#DejaVuSans-52"/>
      <use xlink:href="#DejaVuSans-41" transform="translate(65.482422 0)"/>
      <use xlink:href="#DejaVuSans-50" transform="translate(133.890625 0)"/>
      <use xlink:href="#DejaVuSans-31" transform="translate(194.193359 0)"/>
      <use xlink:href="#DejaVuSans-30" transform="translate(257.816406 0)"/>
      <use xlink:href="#DejaVuSans-5f" transform="translate(321.439453 0)"/>
      <use xlink:href="#DejaVuSans-43" transform="translate(371.439453 0)"/>
      <use xlink:href="#DejaVuSans-53" transform="translate(441.263672 0)"/>
      <use xlink:href="#DejaVuSans-41" transform="translate(506.615234 0)"/>
      <use xlink:href="#DejaVuSans-33" transform="translate(575.023438 0)"/>
      <use xlink:href="#DejaVuSans-30" transform="translate(638.646484 0)"/>
      <use xlink:href="#DejaVuSans-30" transform="translate(702.269531 0)"/>
      <use xlink:href="#DejaVuSans-b1" transform="translate(765.892578 0)"/>
      <use xlink:href="#DejaVuSans-53" transform="translate(849.681641 0)"/>
      <use xlink:href="#DejaVuSans-44" transform="translate(913.158203 0)"/>
      <use xlink:href="#DejaVuSans-20" transform="translate(990.160156 0)"/>
      <use xlink:href="#DejaVuSans-28" transform="translate(1021.947266 0)"/>
      <use xlink:href="#DejaVuSans-6e" transform="translate(1060.960938 0)"/>
      <use xlink:href="#DejaVuSans-3d" transform="translate(1124.339844 0)"/>
      <use xlink:href="#DejaVuSans-32" transform="translate(1208.128906 0)"/>
      <use xlink:href="#DejaVuSans-31" transform="translate(1271.751953 0)"/>
      <use xlink:href="#DejaVuSans-29" transform="translate(1335.375 0)"/>
     </g>
    </g>
    <g id="line2d_61">
     <path d="M 484.383688 464.923709 
L 504.383688 464.923709 
" style="fill: none; stroke: #2ca02c; stroke-width: 2; stroke-linecap: square"/>
    </g>
    <g id="line2d_62"/>
    <g id="text_43">
     <!-- RAP10_CSA300B -->
     <g transform="translate(512.383688 468.423709) scale(0.1 -0.1)">
      <use xlink:href="#DejaVuSans-52"/>
      <use xlink:href="#DejaVuSans-41" transform="translate(65.482422 0)"/>
      <use xlink:href="#DejaVuSans-50" transform="translate(133.890625 0)"/>
      <use xlink:href="#DejaVuSans-31" transform="translate(194.193359 0)"/>
      <use xlink:href="#DejaVuSans-30" transform="translate(257.816406 0)"/>
      <use xlink:href="#DejaVuSans-5f" transform="translate(321.439453 0)"/>
      <use xlink:href="#DejaVuSans-43" transform="translate(371.439453 0)"/>
      <use xlink:href="#DejaVuSans-53" transform="translate(441.263672 0)"/>
      <use xlink:href="#DejaVuSans-41" transform="translate(506.615234 0)"/>
      <use xlink:href="#DejaVuSans-33" transform="translate(575.023438 0)"/>
      <use xlink:href="#DejaVuSans-30" transform="translate(638.646484 0)"/>
      <use xlink:href="#DejaVuSans-30" transform="translate(702.269531 0)"/>
      <use xlink:href="#DejaVuSans-42" transform="translate(765.892578 0)"/>
     </g>
    </g>
    <g id="LineCollection_12">
     <path d="M 494.383688 484.879959 
L 494.383688 474.879959 
" style="fill: none; stroke: #2ca02c"/>
    </g>
    <g id="line2d_63">
     <path d="M 484.383688 479.879959 
L 504.383688 479.879959 
" style="fill: none; stroke-dasharray: 3.7,1.6; stroke-dashoffset: 0; stroke: #2ca02c"/>
    </g>
    <g id="line2d_64">
     <g>
      <use xlink:href="#m97bc24451c" x="494.383688" y="479.879959" style="fill: #2ca02c; stroke: #000000; stroke-linejoin: miter"/>
     </g>
    </g>
    <g id="text_44">
     <!-- RAP10_CSA300B±SD (n=21) -->
     <g transform="translate(512.383688 483.379959) scale(0.1 -0.1)">
      <use xlink:href="#DejaVuSans-52"/>
      <use xlink:href="#DejaVuSans-41" transform="translate(65.482422 0)"/>
      <use xlink:href="#DejaVuSans-50" transform="translate(133.890625 0)"/>
      <use xlink:href="#DejaVuSans-31" transform="translate(194.193359 0)"/>
      <use xlink:href="#DejaVuSans-30" transform="translate(257.816406 0)"/>
      <use xlink:href="#DejaVuSans-5f" transform="translate(321.439453 0)"/>
      <use xlink:href="#DejaVuSans-43" transform="translate(371.439453 0)"/>
      <use xlink:href="#DejaVuSans-53" transform="translate(441.263672 0)"/>
      <use xlink:href="#DejaVuSans-41" transform="translate(506.615234 0)"/>
      <use xlink:href="#DejaVuSans-33" transform="translate(575.023438 0)"/>
      <use xlink:href="#DejaVuSans-30" transform="translate(638.646484 0)"/>
      <use xlink:href="#DejaVuSans-30" transform="translate(702.269531 0)"/>
      <use xlink:href="#DejaVuSans-42" transform="translate(765.892578 0)"/>
      <use xlink:href="#DejaVuSans-b1" transform="translate(834.496094 0)"/>
      <use xlink:href="#DejaVuSans-53" transform="translate(918.285156 0)"/>
      <use xlink:href="#DejaVuSans-44" transform="translate(981.761719 0)"/>
      <use xlink:href="#DejaVuSans-20" transform="translate(1058.763672 0)"/>
      <use xlink:href="#DejaVuSans-28" transform="translate(1090.550781 0)"/>
      <use xlink:href="#DejaVuSans-6e" transform="translate(1129.564453 0)"/>
      <use xlink:href="#DejaVuSans-3d" transform="translate(1192.943359 0)"/>
      <use xlink:href="#DejaVuSans-32" transform="translate(1276.732422 0)"/>
      <use xlink:href="#DejaVuSans-31" transform="translate(1340.355469 0)"/>
      <use xlink:href="#DejaVuSans-29" transform="translate(1403.978516 0)"/>
     </g>
    </g>
   </g>
  </g>
  <g id="text_45">
   <!-- Zimmerman2003 (rapamycin PK) -->
   <g transform="translate(26.241719 26.196094) scale(0.25 -0.25)">
    <defs>
     <path id="DejaVuSans-Bold-5a" d="M 359 4666 
L 4281 4666 
L 4281 3938 
L 1778 909 
L 4353 909 
L 4353 0 
L 288 0 
L 288 728 
L 2791 3756 
L 359 3756 
L 359 4666 
z
" transform="scale(0.015625)"/>
     <path id="DejaVuSans-Bold-32" d="M 1844 884 
L 3897 884 
L 3897 0 
L 506 0 
L 506 884 
L 2209 2388 
Q 2438 2594 2547 2791 
Q 2656 2988 2656 3200 
Q 2656 3528 2436 3728 
Q 2216 3928 1850 3928 
Q 1569 3928 1234 3808 
Q 900 3688 519 3450 
L 519 4475 
Q 925 4609 1322 4679 
Q 1719 4750 2100 4750 
Q 2938 4750 3402 4381 
Q 3866 4013 3866 3353 
Q 3866 2972 3669 2642 
Q 3472 2313 2841 1759 
L 1844 884 
z
" transform="scale(0.015625)"/>
     <path id="DejaVuSans-Bold-30" d="M 2944 2338 
Q 2944 3213 2780 3570 
Q 2616 3928 2228 3928 
Q 1841 3928 1675 3570 
Q 1509 3213 1509 2338 
Q 1509 1453 1675 1090 
Q 1841 728 2228 728 
Q 2613 728 2778 1090 
Q 2944 1453 2944 2338 
z
M 4147 2328 
Q 4147 1169 3647 539 
Q 3147 -91 2228 -91 
Q 1306 -91 806 539 
Q 306 1169 306 2328 
Q 306 3491 806 4120 
Q 1306 4750 2228 4750 
Q 3147 4750 3647 4120 
Q 4147 3491 4147 2328 
z
" transform="scale(0.015625)"/>
     <path id="DejaVuSans-Bold-33" d="M 2981 2516 
Q 3453 2394 3698 2092 
Q 3944 1791 3944 1325 
Q 3944 631 3412 270 
Q 2881 -91 1863 -91 
Q 1503 -91 1142 -33 
Q 781 25 428 141 
L 428 1069 
Q 766 900 1098 814 
Q 1431 728 1753 728 
Q 2231 728 2486 893 
Q 2741 1059 2741 1369 
Q 2741 1688 2480 1852 
Q 2219 2016 1709 2016 
L 1228 2016 
L 1228 2791 
L 1734 2791 
Q 2188 2791 2409 2933 
Q 2631 3075 2631 3366 
Q 2631 3634 2415 3781 
Q 2200 3928 1806 3928 
Q 1516 3928 1219 3862 
Q 922 3797 628 3669 
L 628 4550 
Q 984 4650 1334 4700 
Q 1684 4750 2022 4750 
Q 2931 4750 3382 4451 
Q 3834 4153 3834 3553 
Q 3834 3144 3618 2883 
Q 3403 2622 2981 2516 
z
" transform="scale(0.015625)"/>
     <path id="DejaVuSans-Bold-28" d="M 2413 -844 
L 1484 -844 
Q 1006 -72 778 623 
Q 550 1319 550 2003 
Q 550 2688 779 3389 
Q 1009 4091 1484 4856 
L 2413 4856 
Q 2013 4116 1813 3408 
Q 1613 2700 1613 2009 
Q 1613 1319 1811 609 
Q 2009 -100 2413 -844 
z
" transform="scale(0.015625)"/>
     <path id="DejaVuSans-Bold-50" d="M 588 4666 
L 2584 4666 
Q 3475 4666 3951 4270 
Q 4428 3875 4428 3144 
Q 4428 2409 3951 2014 
Q 3475 1619 2584 1619 
L 1791 1619 
L 1791 0 
L 588 0 
L 588 4666 
z
M 1791 3794 
L 1791 2491 
L 2456 2491 
Q 2806 2491 2997 2661 
Q 3188 2831 3188 3144 
Q 3188 3456 2997 3625 
Q 2806 3794 2456 3794 
L 1791 3794 
z
" transform="scale(0.015625)"/>
     <path id="DejaVuSans-Bold-4b" d="M 588 4666 
L 1791 4666 
L 1791 2963 
L 3525 4666 
L 4922 4666 
L 2675 2456 
L 5153 0 
L 3647 0 
L 1791 1838 
L 1791 0 
L 588 0 
L 588 4666 
z
" transform="scale(0.015625)"/>
     <path id="DejaVuSans-Bold-29" d="M 513 -844 
Q 913 -100 1113 609 
Q 1313 1319 1313 2009 
Q 1313 2700 1113 3408 
Q 913 4116 513 4856 
L 1441 4856 
Q 1916 4091 2145 3389 
Q 2375 2688 2375 2003 
Q 2375 1319 2147 623 
Q 1919 -72 1441 -844 
L 513 -844 
z
" transform="scale(0.015625)"/>
    </defs>
    <use xlink:href="#DejaVuSans-Bold-5a"/>
    <use xlink:href="#DejaVuSans-Bold-69" transform="translate(72.509766 0)"/>
    <use xlink:href="#DejaVuSans-Bold-6d" transform="translate(106.787109 0)"/>
    <use xlink:href="#DejaVuSans-Bold-6d" transform="translate(210.986328 0)"/>
    <use xlink:href="#DejaVuSans-Bold-65" transform="translate(315.185547 0)"/>
    <use xlink:href="#DejaVuSans-Bold-72" transform="translate(383.007812 0)"/>
    <use xlink:href="#DejaVuSans-Bold-6d" transform="translate(432.324219 0)"/>
    <use xlink:href="#DejaVuSans-Bold-61" transform="translate(536.523438 0)"/>
    <use xlink:href="#DejaVuSans-Bold-6e" transform="translate(604.003906 0)"/>
    <use xlink:href="#DejaVuSans-Bold-32" transform="translate(675.195312 0)"/>
    <use xlink:href="#DejaVuSans-Bold-30" transform="translate(744.775391 0)"/>
    <use xlink:href="#DejaVuSans-Bold-30" transform="translate(814.355469 0)"/>
    <use xlink:href="#DejaVuSans-Bold-33" transform="translate(883.935547 0)"/>
    <use xlink:href="#DejaVuSans-Bold-20" transform="translate(953.515625 0)"/>
    <use xlink:href="#DejaVuSans-Bold-28" transform="translate(988.330078 0)"/>
    <use xlink:href="#DejaVuSans-Bold-72" transform="translate(1034.033203 0)"/>
    <use xlink:href="#DejaVuSans-Bold-61" transform="translate(1083.349609 0)"/>
    <use xlink:href="#DejaVuSans-Bold-70" transform="translate(1150.830078 0)"/>
    <use xlink:href="#DejaVuSans-Bold-61" transform="translate(1222.412109 0)"/>
    <use xlink:href="#DejaVuSans-Bold-6d" transform="translate(1289.892578 0)"/>
    <use xlink:href="#DejaVuSans-Bold-79" transform="translate(1394.091797 0)"/>
    <use xlink:href="#DejaVuSans-Bold-63" transform="translate(1459.277344 0)"/>
    <use xlink:href="#DejaVuSans-Bold-69" transform="translate(1518.554688 0)"/>
    <use xlink:href="#DejaVuSans-Bold-6e" transform="translate(1552.832031 0)"/>
    <use xlink:href="#DejaVuSans-Bold-20" transform="translate(1624.023438 0)"/>
    <use xlink:href="#DejaVuSans-Bold-50" transform="translate(1658.837891 0)"/>
    <use xlink:href="#DejaVuSans-Bold-4b" transform="translate(1732.128906 0)"/>
    <use xlink:href="#DejaVuSans-Bold-29" transform="translate(1809.619141 0)"/>
   </g>
  </g>
 </g>
 <defs>
  <clipPath id="pfcc07a45fd">
   <rect x="69.159688" y="79.2" width="390.6" height="241.043478"/>
  </clipPath>
  <clipPath id="p4d2f0fefeb">
   <rect x="69.159688" y="392.556522" width="390.6" height="241.043478"/>
  </clipPath>
 </defs>
</svg>
