<?xml version="1.0" encoding="utf-8" standalone="no"?>
<!DOCTYPE svg PUBLIC "-//W3C//DTD SVG 1.1//EN"
  "http://www.w3.org/Graphics/SVG/1.1/DTD/svg11.dtd">
<svg xmlns:xlink="http://www.w3.org/1999/xlink" width="452.64875pt" height="370.537812pt" viewBox="0 0 452.64875 370.537812" xmlns="http://www.w3.org/2000/svg" version="1.1">
 <metadata>
  <rdf:RDF xmlns:dc="http://purl.org/dc/elements/1.1/" xmlns:cc="http://creativecommons.org/ns#" xmlns:rdf="http://www.w3.org/1999/02/22-rdf-syntax-ns#">
   <cc:Work>
    <dc:type rdf:resource="http://purl.org/dc/dcmitype/StillImage"/>
    <dc:date>2026-02-12T15:19:41.580906</dc:date>
    <dc:format>image/svg+xml</dc:format>
    <dc:creator>
     <cc:Agent>
      <dc:title>Matplotlib v3.10.7, https://matplotlib.org/</dc:title>
     </cc:Agent>
    </dc:creator>
   </cc:Work>
  </rdf:RDF>
 </metadata>
 <defs>
  <style type="text/css">*{stroke-linejoin: round; stroke-linecap: butt}</style>
 </defs>
 <g id="figure_1">
  <g id="patch_1">
   <path d="M 0 370.537812 
L 452.64875 370.537812 
L 452.64875 0 
L 0 0 
z
" style="fill: #ffffff"/>
  </g>
  <g id="axes_1">
   <g id="patch_2">
    <path d="M 54.84875 320.4 
L 445.44875 320.4 
L 445.44875 43.2 
L 54.84875 43.2 
z
" style="fill: #ffffff"/>
   </g>
   <g id="matplotlib.axis_1">
    <g id="xtick_1">
     <g id="line2d_1">
      <defs>
       <path id="mfa8bdd1889" d="M 0 0 
L 0 3.5 
" style="stroke: #000000; stroke-width: 0.8"/>
      </defs>
      <g>
       <use xlink:href="#mfa8bdd1889" x="93.90875" y="320.4" style="stroke: #000000; stroke-width: 0.8"/>
      </g>
     </g>
     <g id="text_1">
      <!-- −20 -->
      <g transform="translate(78.080234 338.797656) scale(0.15 -0.15)">
       <defs>
        <path id="DejaVuSans-2212" d="M 678 2272 
L 4684 2272 
L 4684 1741 
L 678 1741 
L 678 2272 
z
" transform="scale(0.015625)"/>
        <path id="DejaVuSans-32" d="M 1228 531 
L 3431 531 
L 3431 0 
L 469 0 
L 469 531 
Q 828 903 1448 1529 
Q 2069 2156 2228 2338 
Q 2531 2678 2651 2914 
Q 2772 3150 2772 3378 
Q 2772 3750 2511 3984 
Q 2250 4219 1831 4219 
Q 1534 4219 1204 4116 
Q 875 4013 500 3803 
L 500 4441 
Q 881 4594 1212 4672 
Q 1544 4750 1819 4750 
Q 2544 4750 2975 4387 
Q 3406 4025 3406 3419 
Q 3406 3131 3298 2873 
Q 3191 2616 2906 2266 
Q 2828 2175 2409 1742 
Q 1991 1309 1228 531 
z
" transform="scale(0.015625)"/>
        <path id="DejaVuSans-30" d="M 2034 4250 
Q 1547 4250 1301 3770 
Q 1056 3291 1056 2328 
Q 1056 1369 1301 889 
Q 1547 409 2034 409 
Q 2525 409 2770 889 
Q 3016 1369 3016 2328 
Q 3016 3291 2770 3770 
Q 2525 4250 2034 4250 
z
M 2034 4750 
Q 2819 4750 3233 4129 
Q 3647 3509 3647 2328 
Q 3647 1150 3233 529 
Q 2819 -91 2034 -91 
Q 1250 -91 836 529 
Q 422 1150 422 2328 
Q 422 3509 836 4129 
Q 1250 4750 2034 4750 
z
" transform="scale(0.015625)"/>
       </defs>
       <use xlink:href="#DejaVuSans-2212"/>
       <use xlink:href="#DejaVuSans-32" transform="translate(83.789062 0)"/>
       <use xlink:href="#DejaVuSans-30" transform="translate(147.412109 0)"/>
      </g>
     </g>
    </g>
    <g id="xtick_2">
     <g id="line2d_2">
      <g>
       <use xlink:href="#mfa8bdd1889" x="172.02875" y="320.4" style="stroke: #000000; stroke-width: 0.8"/>
      </g>
     </g>
     <g id="text_2">
      <!-- −10 -->
      <g transform="translate(156.200234 338.797656) scale(0.15 -0.15)">
       <defs>
        <path id="DejaVuSans-31" d="M 794 531 
L 1825 531 
L 1825 4091 
L 703 3866 
L 703 4441 
L 1819 4666 
L 2450 4666 
L 2450 531 
L 3481 531 
L 3481 0 
L 794 0 
L 794 531 
z
" transform="scale(0.015625)"/>
       </defs>
       <use xlink:href="#DejaVuSans-2212"/>
       <use xlink:href="#DejaVuSans-31" transform="translate(83.789062 0)"/>
       <use xlink:href="#DejaVuSans-30" transform="translate(147.412109 0)"/>
      </g>
     </g>
    </g>
    <g id="xtick_3">
     <g id="line2d_3">
      <g>
       <use xlink:href="#mfa8bdd1889" x="250.14875" y="320.4" style="stroke: #000000; stroke-width: 0.8"/>
      </g>
     </g>
     <g id="text_3">
      <!-- 0 -->
      <g transform="translate(245.376875 338.797656) scale(0.15 -0.15)">
       <use xlink:href="#DejaVuSans-30"/>
      </g>
     </g>
    </g>
    <g id="xtick_4">
     <g id="line2d_4">
      <g>
       <use xlink:href="#mfa8bdd1889" x="328.26875" y="320.4" style="stroke: #000000; stroke-width: 0.8"/>
      </g>
     </g>
     <g id="text_4">
      <!-- 10 -->
      <g transform="translate(318.725 338.797656) scale(0.15 -0.15)">
       <use xlink:href="#DejaVuSans-31"/>
       <use xlink:href="#DejaVuSans-30" transform="translate(63.623047 0)"/>
      </g>
     </g>
    </g>
    <g id="xtick_5">
     <g id="line2d_5">
      <g>
       <use xlink:href="#mfa8bdd1889" x="406.38875" y="320.4" style="stroke: #000000; stroke-width: 0.8"/>
      </g>
     </g>
     <g id="text_5">
      <!-- 20 -->
      <g transform="translate(396.845 338.797656) scale(0.15 -0.15)">
       <use xlink:href="#DejaVuSans-32"/>
       <use xlink:href="#DejaVuSans-30" transform="translate(63.623047 0)"/>
      </g>
     </g>
    </g>
    <g id="text_6">
     <!-- time [hr] -->
     <g transform="translate(205.074219 359.594375) scale(0.18 -0.18)">
      <defs>
       <path id="DejaVuSans-Bold-74" d="M 1759 4494 
L 1759 3500 
L 2913 3500 
L 2913 2700 
L 1759 2700 
L 1759 1216 
Q 1759 972 1856 886 
Q 1953 800 2241 800 
L 2816 800 
L 2816 0 
L 1856 0 
Q 1194 0 917 276 
Q 641 553 641 1216 
L 641 2700 
L 84 2700 
L 84 3500 
L 641 3500 
L 641 4494 
L 1759 4494 
z
" transform="scale(0.015625)"/>
       <path id="DejaVuSans-Bold-69" d="M 538 3500 
L 1656 3500 
L 1656 0 
L 538 0 
L 538 3500 
z
M 538 4863 
L 1656 4863 
L 1656 3950 
L 538 3950 
L 538 4863 
z
" transform="scale(0.015625)"/>
       <path id="DejaVuSans-Bold-6d" d="M 3781 2919 
Q 3994 3244 4286 3414 
Q 4578 3584 4928 3584 
Q 5531 3584 5847 3212 
Q 6163 2841 6163 2131 
L 6163 0 
L 5038 0 
L 5038 1825 
Q 5041 1866 5042 1909 
Q 5044 1953 5044 2034 
Q 5044 2406 4934 2573 
Q 4825 2741 4581 2741 
Q 4263 2741 4089 2478 
Q 3916 2216 3909 1719 
L 3909 0 
L 2784 0 
L 2784 1825 
Q 2784 2406 2684 2573 
Q 2584 2741 2328 2741 
Q 2006 2741 1831 2477 
Q 1656 2213 1656 1722 
L 1656 0 
L 531 0 
L 531 3500 
L 1656 3500 
L 1656 2988 
Q 1863 3284 2130 3434 
Q 2397 3584 2719 3584 
Q 3081 3584 3359 3409 
Q 3638 3234 3781 2919 
z
" transform="scale(0.015625)"/>
       <path id="DejaVuSans-Bold-65" d="M 4031 1759 
L 4031 1441 
L 1416 1441 
Q 1456 1047 1700 850 
Q 1944 653 2381 653 
Q 2734 653 3104 758 
Q 3475 863 3866 1075 
L 3866 213 
Q 3469 63 3072 -14 
Q 2675 -91 2278 -91 
Q 1328 -91 801 392 
Q 275 875 275 1747 
Q 275 2603 792 3093 
Q 1309 3584 2216 3584 
Q 3041 3584 3536 3087 
Q 4031 2591 4031 1759 
z
M 2881 2131 
Q 2881 2450 2695 2645 
Q 2509 2841 2209 2841 
Q 1884 2841 1681 2658 
Q 1478 2475 1428 2131 
L 2881 2131 
z
" transform="scale(0.015625)"/>
       <path id="DejaVuSans-Bold-20" transform="scale(0.015625)"/>
       <path id="DejaVuSans-Bold-5b" d="M 550 4863 
L 2491 4863 
L 2491 4159 
L 1613 4159 
L 1613 -141 
L 2491 -141 
L 2491 -844 
L 550 -844 
L 550 4863 
z
" transform="scale(0.015625)"/>
       <path id="DejaVuSans-Bold-68" d="M 4056 2131 
L 4056 0 
L 2931 0 
L 2931 347 
L 2931 1625 
Q 2931 2084 2911 2256 
Q 2891 2428 2841 2509 
Q 2775 2619 2662 2680 
Q 2550 2741 2406 2741 
Q 2056 2741 1856 2470 
Q 1656 2200 1656 1722 
L 1656 0 
L 538 0 
L 538 4863 
L 1656 4863 
L 1656 2988 
Q 1909 3294 2193 3439 
Q 2478 3584 2822 3584 
Q 3428 3584 3742 3212 
Q 4056 2841 4056 2131 
z
" transform="scale(0.015625)"/>
       <path id="DejaVuSans-Bold-72" d="M 3138 2547 
Q 2991 2616 2845 2648 
Q 2700 2681 2553 2681 
Q 2122 2681 1889 2404 
Q 1656 2128 1656 1613 
L 1656 0 
L 538 0 
L 538 3500 
L 1656 3500 
L 1656 2925 
Q 1872 3269 2151 3426 
Q 2431 3584 2822 3584 
Q 2878 3584 2943 3579 
Q 3009 3575 3134 3559 
L 3138 2547 
z
" transform="scale(0.015625)"/>
       <path id="DejaVuSans-Bold-5d" d="M 2375 -844 
L 434 -844 
L 434 -141 
L 1313 -141 
L 1313 4159 
L 434 4159 
L 434 4863 
L 2375 4863 
L 2375 -844 
z
" transform="scale(0.015625)"/>
      </defs>
      <use xlink:href="#DejaVuSans-Bold-74"/>
      <use xlink:href="#DejaVuSans-Bold-69" transform="translate(47.802734 0)"/>
      <use xlink:href="#DejaVuSans-Bold-6d" transform="translate(82.080078 0)"/>
      <use xlink:href="#DejaVuSans-Bold-65" transform="translate(186.279297 0)"/>
      <use xlink:href="#DejaVuSans-Bold-20" transform="translate(254.101562 0)"/>
      <use xlink:href="#DejaVuSans-Bold-5b" transform="translate(288.916016 0)"/>
      <use xlink:href="#DejaVuSans-Bold-68" transform="translate(334.619141 0)"/>
      <use xlink:href="#DejaVuSans-Bold-72" transform="translate(405.810547 0)"/>
      <use xlink:href="#DejaVuSans-Bold-5d" transform="translate(455.126953 0)"/>
     </g>
    </g>
   </g>
   <g id="matplotlib.axis_2">
    <g id="ytick_1">
     <g id="line2d_6">
      <defs>
       <path id="m6e4162bca4" d="M 0 0 
L -3.5 0 
" style="stroke: #000000; stroke-width: 0.8"/>
      </defs>
      <g>
       <use xlink:href="#m6e4162bca4" x="54.84875" y="307.8" style="stroke: #000000; stroke-width: 0.8"/>
      </g>
     </g>
     <g id="text_7">
      <!-- 0 -->
      <g transform="translate(38.305 313.498828) scale(0.15 -0.15)">
       <use xlink:href="#DejaVuSans-30"/>
      </g>
     </g>
    </g>
    <g id="ytick_2">
     <g id="line2d_7">
      <g>
       <use xlink:href="#m6e4162bca4" x="54.84875" y="254.029781" style="stroke: #000000; stroke-width: 0.8"/>
      </g>
     </g>
     <g id="text_8">
      <!-- 5 -->
      <g transform="translate(38.305 259.728609) scale(0.15 -0.15)">
       <defs>
        <path id="DejaVuSans-35" d="M 691 4666 
L 3169 4666 
L 3169 4134 
L 1269 4134 
L 1269 2991 
Q 1406 3038 1543 3061 
Q 1681 3084 1819 3084 
Q 2600 3084 3056 2656 
Q 3513 2228 3513 1497 
Q 3513 744 3044 326 
Q 2575 -91 1722 -91 
Q 1428 -91 1123 -41 
Q 819 9 494 109 
L 494 744 
Q 775 591 1075 516 
Q 1375 441 1709 441 
Q 2250 441 2565 725 
Q 2881 1009 2881 1497 
Q 2881 1984 2565 2268 
Q 2250 2553 1709 2553 
Q 1456 2553 1204 2497 
Q 953 2441 691 2322 
L 691 4666 
z
" transform="scale(0.015625)"/>
       </defs>
       <use xlink:href="#DejaVuSans-35"/>
      </g>
     </g>
    </g>
    <g id="ytick_3">
     <g id="line2d_8">
      <g>
       <use xlink:href="#m6e4162bca4" x="54.84875" y="200.259561" style="stroke: #000000; stroke-width: 0.8"/>
      </g>
     </g>
     <g id="text_9">
      <!-- 10 -->
      <g transform="translate(28.76125 205.958389) scale(0.15 -0.15)">
       <use xlink:href="#DejaVuSans-31"/>
       <use xlink:href="#DejaVuSans-30" transform="translate(63.623047 0)"/>
      </g>
     </g>
    </g>
    <g id="ytick_4">
     <g id="line2d_9">
      <g>
       <use xlink:href="#m6e4162bca4" x="54.84875" y="146.489342" style="stroke: #000000; stroke-width: 0.8"/>
      </g>
     </g>
     <g id="text_10">
      <!-- 15 -->
      <g transform="translate(28.76125 152.18817) scale(0.15 -0.15)">
       <use xlink:href="#DejaVuSans-31"/>
       <use xlink:href="#DejaVuSans-35" transform="translate(63.623047 0)"/>
      </g>
     </g>
    </g>
    <g id="ytick_5">
     <g id="line2d_10">
      <g>
       <use xlink:href="#m6e4162bca4" x="54.84875" y="92.719123" style="stroke: #000000; stroke-width: 0.8"/>
      </g>
     </g>
     <g id="text_11">
      <!-- 20 -->
      <g transform="translate(28.76125 98.417951) scale(0.15 -0.15)">
       <use xlink:href="#DejaVuSans-32"/>
       <use xlink:href="#DejaVuSans-30" transform="translate(63.623047 0)"/>
      </g>
     </g>
    </g>
    <g id="text_12">
     <!-- rapamycin blood [nM] -->
     <g transform="translate(20.877187 293.092031) rotate(-90) scale(0.18 -0.18)">
      <defs>
       <path id="DejaVuSans-Bold-61" d="M 2106 1575 
Q 1756 1575 1579 1456 
Q 1403 1338 1403 1106 
Q 1403 894 1545 773 
Q 1688 653 1941 653 
Q 2256 653 2472 879 
Q 2688 1106 2688 1447 
L 2688 1575 
L 2106 1575 
z
M 3816 1997 
L 3816 0 
L 2688 0 
L 2688 519 
Q 2463 200 2181 54 
Q 1900 -91 1497 -91 
Q 953 -91 614 226 
Q 275 544 275 1050 
Q 275 1666 698 1953 
Q 1122 2241 2028 2241 
L 2688 2241 
L 2688 2328 
Q 2688 2594 2478 2717 
Q 2269 2841 1825 2841 
Q 1466 2841 1156 2769 
Q 847 2697 581 2553 
L 581 3406 
Q 941 3494 1303 3539 
Q 1666 3584 2028 3584 
Q 2975 3584 3395 3211 
Q 3816 2838 3816 1997 
z
" transform="scale(0.015625)"/>
       <path id="DejaVuSans-Bold-70" d="M 1656 506 
L 1656 -1331 
L 538 -1331 
L 538 3500 
L 1656 3500 
L 1656 2988 
Q 1888 3294 2169 3439 
Q 2450 3584 2816 3584 
Q 3463 3584 3878 3070 
Q 4294 2556 4294 1747 
Q 4294 938 3878 423 
Q 3463 -91 2816 -91 
Q 2450 -91 2169 54 
Q 1888 200 1656 506 
z
M 2400 2772 
Q 2041 2772 1848 2508 
Q 1656 2244 1656 1747 
Q 1656 1250 1848 986 
Q 2041 722 2400 722 
Q 2759 722 2948 984 
Q 3138 1247 3138 1747 
Q 3138 2247 2948 2509 
Q 2759 2772 2400 2772 
z
" transform="scale(0.015625)"/>
       <path id="DejaVuSans-Bold-79" d="M 78 3500 
L 1197 3500 
L 2138 1125 
L 2938 3500 
L 4056 3500 
L 2584 -331 
Q 2363 -916 2067 -1148 
Q 1772 -1381 1288 -1381 
L 641 -1381 
L 641 -647 
L 991 -647 
Q 1275 -647 1404 -556 
Q 1534 -466 1606 -231 
L 1638 -134 
L 78 3500 
z
" transform="scale(0.015625)"/>
       <path id="DejaVuSans-Bold-63" d="M 3366 3391 
L 3366 2478 
Q 3138 2634 2908 2709 
Q 2678 2784 2431 2784 
Q 1963 2784 1702 2511 
Q 1441 2238 1441 1747 
Q 1441 1256 1702 982 
Q 1963 709 2431 709 
Q 2694 709 2930 787 
Q 3166 866 3366 1019 
L 3366 103 
Q 3103 6 2833 -42 
Q 2563 -91 2291 -91 
Q 1344 -91 809 395 
Q 275 881 275 1747 
Q 275 2613 809 3098 
Q 1344 3584 2291 3584 
Q 2566 3584 2833 3536 
Q 3100 3488 3366 3391 
z
" transform="scale(0.015625)"/>
       <path id="DejaVuSans-Bold-6e" d="M 4056 2131 
L 4056 0 
L 2931 0 
L 2931 347 
L 2931 1631 
Q 2931 2084 2911 2256 
Q 2891 2428 2841 2509 
Q 2775 2619 2662 2680 
Q 2550 2741 2406 2741 
Q 2056 2741 1856 2470 
Q 1656 2200 1656 1722 
L 1656 0 
L 538 0 
L 538 3500 
L 1656 3500 
L 1656 2988 
Q 1909 3294 2193 3439 
Q 2478 3584 2822 3584 
Q 3428 3584 3742 3212 
Q 4056 2841 4056 2131 
z
" transform="scale(0.015625)"/>
       <path id="DejaVuSans-Bold-62" d="M 2400 722 
Q 2759 722 2948 984 
Q 3138 1247 3138 1747 
Q 3138 2247 2948 2509 
Q 2759 2772 2400 2772 
Q 2041 2772 1848 2508 
Q 1656 2244 1656 1747 
Q 1656 1250 1848 986 
Q 2041 722 2400 722 
z
M 1656 2988 
Q 1888 3294 2169 3439 
Q 2450 3584 2816 3584 
Q 3463 3584 3878 3070 
Q 4294 2556 4294 1747 
Q 4294 938 3878 423 
Q 3463 -91 2816 -91 
Q 2450 -91 2169 54 
Q 1888 200 1656 506 
L 1656 0 
L 538 0 
L 538 4863 
L 1656 4863 
L 1656 2988 
z
" transform="scale(0.015625)"/>
       <path id="DejaVuSans-Bold-6c" d="M 538 4863 
L 1656 4863 
L 1656 0 
L 538 0 
L 538 4863 
z
" transform="scale(0.015625)"/>
       <path id="DejaVuSans-Bold-6f" d="M 2203 2784 
Q 1831 2784 1636 2517 
Q 1441 2250 1441 1747 
Q 1441 1244 1636 976 
Q 1831 709 2203 709 
Q 2569 709 2762 976 
Q 2956 1244 2956 1747 
Q 2956 2250 2762 2517 
Q 2569 2784 2203 2784 
z
M 2203 3584 
Q 3106 3584 3614 3096 
Q 4122 2609 4122 1747 
Q 4122 884 3614 396 
Q 3106 -91 2203 -91 
Q 1297 -91 786 396 
Q 275 884 275 1747 
Q 275 2609 786 3096 
Q 1297 3584 2203 3584 
z
" transform="scale(0.015625)"/>
       <path id="DejaVuSans-Bold-64" d="M 2919 2988 
L 2919 4863 
L 4044 4863 
L 4044 0 
L 2919 0 
L 2919 506 
Q 2688 197 2409 53 
Q 2131 -91 1766 -91 
Q 1119 -91 703 423 
Q 288 938 288 1747 
Q 288 2556 703 3070 
Q 1119 3584 1766 3584 
Q 2128 3584 2408 3439 
Q 2688 3294 2919 2988 
z
M 2181 722 
Q 2541 722 2730 984 
Q 2919 1247 2919 1747 
Q 2919 2247 2730 2509 
Q 2541 2772 2181 2772 
Q 1825 2772 1636 2509 
Q 1447 2247 1447 1747 
Q 1447 1247 1636 984 
Q 1825 722 2181 722 
z
" transform="scale(0.015625)"/>
       <path id="DejaVuSans-Bold-4d" d="M 588 4666 
L 2119 4666 
L 3181 2169 
L 4250 4666 
L 5778 4666 
L 5778 0 
L 4641 0 
L 4641 3413 
L 3566 897 
L 2803 897 
L 1728 3413 
L 1728 0 
L 588 0 
L 588 4666 
z
" transform="scale(0.015625)"/>
      </defs>
      <use xlink:href="#DejaVuSans-Bold-72"/>
      <use xlink:href="#DejaVuSans-Bold-61" transform="translate(49.316406 0)"/>
      <use xlink:href="#DejaVuSans-Bold-70" transform="translate(116.796875 0)"/>
      <use xlink:href="#DejaVuSans-Bold-61" transform="translate(188.378906 0)"/>
      <use xlink:href="#DejaVuSans-Bold-6d" transform="translate(255.859375 0)"/>
      <use xlink:href="#DejaVuSans-Bold-79" transform="translate(360.058594 0)"/>
      <use xlink:href="#DejaVuSans-Bold-63" transform="translate(425.244141 0)"/>
      <use xlink:href="#DejaVuSans-Bold-69" transform="translate(484.521484 0)"/>
      <use xlink:href="#DejaVuSans-Bold-6e" transform="translate(518.798828 0)"/>
      <use xlink:href="#DejaVuSans-Bold-20" transform="translate(589.990234 0)"/>
      <use xlink:href="#DejaVuSans-Bold-62" transform="translate(624.804688 0)"/>
      <use xlink:href="#DejaVuSans-Bold-6c" transform="translate(696.386719 0)"/>
      <use xlink:href="#DejaVuSans-Bold-6f" transform="translate(730.664062 0)"/>
      <use xlink:href="#DejaVuSans-Bold-6f" transform="translate(799.365234 0)"/>
      <use xlink:href="#DejaVuSans-Bold-64" transform="translate(868.066406 0)"/>
      <use xlink:href="#DejaVuSans-Bold-20" transform="translate(939.648438 0)"/>
      <use xlink:href="#DejaVuSans-Bold-5b" transform="translate(974.462891 0)"/>
      <use xlink:href="#DejaVuSans-Bold-6e" transform="translate(1020.166016 0)"/>
      <use xlink:href="#DejaVuSans-Bold-4d" transform="translate(1091.357422 0)"/>
      <use xlink:href="#DejaVuSans-Bold-5d" transform="translate(1190.869141 0)"/>
     </g>
    </g>
   </g>
   <g id="LineCollection_1">
    <path d="M 250.14875 256.648901 
L 250.14875 227.515535 
" clip-path="url(#p9868c18e44)" style="fill: none; stroke: #000000"/>
    <path d="M 254.05475 247.388259 
L 254.05475 214.723576 
" clip-path="url(#p9868c18e44)" style="fill: none; stroke: #000000"/>
    <path d="M 257.96075 227.532968 
L 257.96075 192.219798 
" clip-path="url(#p9868c18e44)" style="fill: none; stroke: #000000"/>
    <path d="M 261.86675 211.209693 
L 261.86675 174.130864 
" clip-path="url(#p9868c18e44)" style="fill: none; stroke: #000000"/>
    <path d="M 265.77275 203.273295 
L 265.77275 167.960124 
" clip-path="url(#p9868c18e44)" style="fill: none; stroke: #000000"/>
    <path d="M 269.67875 198.867516 
L 269.67875 161.788687 
" clip-path="url(#p9868c18e44)" style="fill: none; stroke: #000000"/>
    <path d="M 273.58475 193.579606 
L 273.58475 141.49268 
" clip-path="url(#p9868c18e44)" style="fill: none; stroke: #000000"/>
    <path d="M 281.39675 197.128357 
L 281.39675 122.08787 
" clip-path="url(#p9868c18e44)" style="fill: none; stroke: #000000"/>
    <path d="M 289.20875 205.091951 
L 289.20875 142.411073 
" clip-path="url(#p9868c18e44)" style="fill: none; stroke: #000000"/>
    <path d="M 297.02075 211.289189 
L 297.02075 153.905287 
" clip-path="url(#p9868c18e44)" style="fill: none; stroke: #000000"/>
    <path d="M 312.64475 227.657095 
L 312.64475 181.748578 
" clip-path="url(#p9868c18e44)" style="fill: none; stroke: #000000"/>
    <path d="M 343.89275 243.618452 
L 343.89275 207.422453 
" clip-path="url(#p9868c18e44)" style="fill: none; stroke: #000000"/>
    <path d="M 437.63675 257.072882 
L 437.63675 227.056687 
" clip-path="url(#p9868c18e44)" style="fill: none; stroke: #000000"/>
   </g>
   <g id="LineCollection_2">
    <path d="M 250.14875 265.035779 
L 250.14875 197.940755 
" clip-path="url(#p9868c18e44)" style="fill: none; stroke: #e3256b"/>
    <path d="M 254.05475 254.009478 
L 254.05475 185.148796 
" clip-path="url(#p9868c18e44)" style="fill: none; stroke: #e3256b"/>
    <path d="M 257.96075 240.775407 
L 257.96075 141.89853 
" clip-path="url(#p9868c18e44)" style="fill: none; stroke: #e3256b"/>
    <path d="M 261.86675 229.749107 
L 261.86675 114.098474 
" clip-path="url(#p9868c18e44)" style="fill: none; stroke: #e3256b"/>
    <path d="M 265.77275 216.515734 
L 265.77275 88.505491 
" clip-path="url(#p9868c18e44)" style="fill: none; stroke: #e3256b"/>
    <path d="M 269.67875 214.757746 
L 269.67875 91.163044 
" clip-path="url(#p9868c18e44)" style="fill: none; stroke: #e3256b"/>
    <path d="M 273.58475 214.767508 
L 273.58475 89.405754 
" clip-path="url(#p9868c18e44)" style="fill: none; stroke: #e3256b"/>
    <path d="M 281.39675 219.640503 
L 281.39675 92.513089 
" clip-path="url(#p9868c18e44)" style="fill: none; stroke: #e3256b"/>
    <path d="M 289.20875 227.604097 
L 289.20875 100.476684 
" clip-path="url(#p9868c18e44)" style="fill: none; stroke: #e3256b"/>
    <path d="M 297.02075 234.24275 
L 297.02075 122.123434 
" clip-path="url(#p9868c18e44)" style="fill: none; stroke: #e3256b"/>
    <path d="M 312.64475 243.548021 
L 312.64475 146.436803 
" clip-path="url(#p9868c18e44)" style="fill: none; stroke: #e3256b"/>
    <path d="M 343.89275 254.212403 
L 343.89275 163.28099 
" clip-path="url(#p9868c18e44)" style="fill: none; stroke: #e3256b"/>
    <path d="M 437.63675 265.017648 
L 437.63675 190.861385 
" clip-path="url(#p9868c18e44)" style="fill: none; stroke: #e3256b"/>
   </g>
   <g id="line2d_11">
    <path d="M 51.41147 285.208455 
L 62.66075 287.024741 
L 62.66075 287.024741 
L 66.41051 223.503462 
L 70.16027 202.855574 
L 73.91003 203.13497 
L 77.65979 209.472081 
L 81.40955 216.711107 
L 85.15931 223.265544 
L 88.90907 228.80734 
L 92.65883 233.412366 
L 96.40859 237.255018 
L 100.15835 240.506984 
L 103.90811 243.309787 
L 107.65787 245.772415 
L 111.40763 247.976277 
L 115.15739 249.981327 
L 122.65691 253.558711 
L 130.15643 256.732263 
L 137.65595 259.62464 
L 145.15547 262.303429 
L 152.65499 264.80738 
L 163.90427 268.284756 
L 175.15355 271.469453 
L 186.40283 274.393213 
L 197.65211 277.080084 
L 208.90139 279.550256 
L 220.15067 281.821581 
L 231.39995 283.910205 
L 246.39899 286.436146 
L 250.14875 287.024741 
L 250.14875 287.024741 
L 250.79975 280.37268 
L 252.10175 250.887166 
L 252.75275 239.011477 
L 253.40375 229.444953 
L 254.05475 221.838744 
L 254.70575 215.871142 
L 255.35675 211.2679 
L 256.00775 207.797763 
L 256.65875 205.266127 
L 257.30975 203.509386 
L 257.96075 202.390115 
L 258.61175 201.792994 
L 259.26275 201.621359 
L 259.91375 201.794285 
L 260.56475 202.244119 
L 261.21575 202.914399 
L 262.51775 204.736093 
L 264.47075 208.178974 
L 270.98075 220.47305 
L 273.58475 224.746397 
L 276.18875 228.525482 
L 278.79275 231.846987 
L 281.39675 234.768988 
L 284.00075 237.352595 
L 286.60475 239.654138 
L 289.85975 242.208055 
L 293.11475 244.475236 
L 297.02075 246.90251 
L 301.57775 249.427881 
L 306.78575 252.01664 
L 312.64475 254.653829 
L 319.15475 257.334611 
L 326.96675 260.293557 
L 335.42975 263.252634 
L 344.54375 266.205168 
L 354.30875 269.137045 
L 364.72475 272.029788 
L 375.79175 274.863288 
L 386.85875 277.471029 
L 398.57675 280.006951 
L 410.94575 282.453873 
L 423.96575 284.797133 
L 437.63675 287.024741 
L 445.44875 288.199411 
L 445.44875 288.199411 
" clip-path="url(#p9868c18e44)" style="fill: none; stroke: #000000; stroke-width: 2; stroke-linecap: square"/>
   </g>
   <g id="line2d_12">
    <path d="M 250.14875 242.082218 
L 254.05475 231.055917 
L 257.96075 209.876383 
L 261.86675 192.670278 
L 265.77275 185.616709 
L 269.67875 180.328102 
L 273.58475 167.536143 
L 281.39675 159.608113 
L 289.20875 173.751512 
L 297.02075 182.597238 
L 312.64475 204.702836 
L 343.89275 225.520452 
L 437.63675 242.064784 
" clip-path="url(#p9868c18e44)" style="fill: none; stroke-dasharray: 3.7,1.6; stroke-dashoffset: 0; stroke: #000000"/>
    <defs>
     <path id="m9bf4e6b92e" d="M -3 3 
L 3 3 
L 3 -3 
L -3 -3 
z
" style="stroke: #000000; stroke-linejoin: miter"/>
    </defs>
    <g clip-path="url(#p9868c18e44)">
     <use xlink:href="#m9bf4e6b92e" x="250.14875" y="242.082218" style="stroke: #000000; stroke-linejoin: miter"/>
     <use xlink:href="#m9bf4e6b92e" x="254.05475" y="231.055917" style="stroke: #000000; stroke-linejoin: miter"/>
     <use xlink:href="#m9bf4e6b92e" x="257.96075" y="209.876383" style="stroke: #000000; stroke-linejoin: miter"/>
     <use xlink:href="#m9bf4e6b92e" x="261.86675" y="192.670278" style="stroke: #000000; stroke-linejoin: miter"/>
     <use xlink:href="#m9bf4e6b92e" x="265.77275" y="185.616709" style="stroke: #000000; stroke-linejoin: miter"/>
     <use xlink:href="#m9bf4e6b92e" x="269.67875" y="180.328102" style="stroke: #000000; stroke-linejoin: miter"/>
     <use xlink:href="#m9bf4e6b92e" x="273.58475" y="167.536143" style="stroke: #000000; stroke-linejoin: miter"/>
     <use xlink:href="#m9bf4e6b92e" x="281.39675" y="159.608113" style="stroke: #000000; stroke-linejoin: miter"/>
     <use xlink:href="#m9bf4e6b92e" x="289.20875" y="173.751512" style="stroke: #000000; stroke-linejoin: miter"/>
     <use xlink:href="#m9bf4e6b92e" x="297.02075" y="182.597238" style="stroke: #000000; stroke-linejoin: miter"/>
     <use xlink:href="#m9bf4e6b92e" x="312.64475" y="204.702836" style="stroke: #000000; stroke-linejoin: miter"/>
     <use xlink:href="#m9bf4e6b92e" x="343.89275" y="225.520452" style="stroke: #000000; stroke-linejoin: miter"/>
     <use xlink:href="#m9bf4e6b92e" x="437.63675" y="242.064784" style="stroke: #000000; stroke-linejoin: miter"/>
    </g>
   </g>
   <g id="line2d_13">
    <path d="M 51.41147 234.201461 
L 62.66075 238.874708 
L 62.66075 238.874708 
L 66.41051 109.58025 
L 70.16027 59.774814 
L 73.91003 57.915872 
L 77.65979 70.279107 
L 81.40955 85.084645 
L 85.15931 98.648152 
L 88.90907 110.154184 
L 92.65883 119.719509 
L 96.40859 127.698102 
L 100.15835 134.448531 
L 103.90811 140.269007 
L 107.65787 145.389892 
L 111.40763 149.983335 
L 115.15739 154.175979 
L 118.90715 158.060309 
L 122.65691 161.703678 
L 126.40667 165.155125 
L 133.90619 171.615719 
L 141.40571 177.628273 
L 148.90523 183.294519 
L 156.40475 188.672114 
L 163.90427 193.795633 
L 171.40379 198.68748 
L 178.90331 203.363549 
L 186.40283 207.836177 
L 193.90235 212.115678 
L 201.40187 216.211153 
L 208.90139 220.130909 
L 220.15067 225.697888 
L 231.39995 230.911177 
L 242.64923 235.793366 
L 250.14875 238.874677 
L 250.14875 238.874677 
L 250.79975 229.443344 
L 253.40375 123.426131 
L 254.05475 105.679312 
L 254.70575 91.609403 
L 255.35675 80.633822 
L 256.00775 72.239143 
L 256.65875 65.987346 
L 257.30975 61.508512 
L 257.96075 58.491382 
L 258.61175 56.674523 
L 259.26275 55.838636 
L 259.91375 55.8 
L 260.56475 56.404908 
L 261.21575 57.524962 
L 261.86675 59.053092 
L 263.16875 62.992285 
L 265.12175 70.177656 
L 270.98075 92.860008 
L 273.58475 101.72101 
L 275.53775 107.69955 
L 277.49075 113.13022 
L 279.44375 118.05829 
L 282.04775 123.938886 
L 284.65175 129.145687 
L 287.25575 133.793276 
L 289.85975 137.98044 
L 292.46375 141.789764 
L 295.71875 146.122169 
L 298.97375 150.074375 
L 302.87975 154.426951 
L 306.78575 158.450076 
L 311.34275 162.825126 
L 316.55075 167.50371 
L 322.40975 172.453235 
L 328.91975 177.648485 
L 336.08075 183.064471 
L 343.89275 188.672096 
L 351.70475 194.003942 
L 360.16775 199.497905 
L 368.63075 204.719917 
L 377.09375 209.686942 
L 386.20775 214.767041 
L 395.32175 219.583304 
L 404.43575 224.149874 
L 413.54975 228.479893 
L 423.31475 232.870708 
L 433.07975 237.018432 
L 443.49575 241.189902 
L 445.44875 241.944234 
L 445.44875 241.944234 
" clip-path="url(#p9868c18e44)" style="fill: none; stroke: #e3256b; stroke-width: 2; stroke-linecap: square"/>
   </g>
   <g id="line2d_14">
    <path d="M 250.14875 231.488267 
L 254.05475 219.579137 
L 257.96075 191.336969 
L 261.86675 171.923791 
L 265.77275 152.510612 
L 269.67875 152.960395 
L 273.58475 152.086631 
L 281.39675 156.076796 
L 289.20875 164.04039 
L 297.02075 178.183092 
L 312.64475 194.992412 
L 343.89275 208.746697 
L 437.63675 227.939516 
" clip-path="url(#p9868c18e44)" style="fill: none; stroke-dasharray: 3.7,1.6; stroke-dashoffset: 0; stroke: #e3256b"/>
    <defs>
     <path id="m0b64fd8cae" d="M -3 3 
L 3 3 
L 3 -3 
L -3 -3 
z
" style="stroke: #000000; stroke-linejoin: miter"/>
    </defs>
    <g clip-path="url(#p9868c18e44)">
     <use xlink:href="#m0b64fd8cae" x="250.14875" y="231.488267" style="fill: #e3256b; stroke: #000000; stroke-linejoin: miter"/>
     <use xlink:href="#m0b64fd8cae" x="254.05475" y="219.579137" style="fill: #e3256b; stroke: #000000; stroke-linejoin: miter"/>
     <use xlink:href="#m0b64fd8cae" x="257.96075" y="191.336969" style="fill: #e3256b; stroke: #000000; stroke-linejoin: miter"/>
     <use xlink:href="#m0b64fd8cae" x="261.86675" y="171.923791" style="fill: #e3256b; stroke: #000000; stroke-linejoin: miter"/>
     <use xlink:href="#m0b64fd8cae" x="265.77275" y="152.510612" style="fill: #e3256b; stroke: #000000; stroke-linejoin: miter"/>
     <use xlink:href="#m0b64fd8cae" x="269.67875" y="152.960395" style="fill: #e3256b; stroke: #000000; stroke-linejoin: miter"/>
     <use xlink:href="#m0b64fd8cae" x="273.58475" y="152.086631" style="fill: #e3256b; stroke: #000000; stroke-linejoin: miter"/>
     <use xlink:href="#m0b64fd8cae" x="281.39675" y="156.076796" style="fill: #e3256b; stroke: #000000; stroke-linejoin: miter"/>
     <use xlink:href="#m0b64fd8cae" x="289.20875" y="164.04039" style="fill: #e3256b; stroke: #000000; stroke-linejoin: miter"/>
     <use xlink:href="#m0b64fd8cae" x="297.02075" y="178.183092" style="fill: #e3256b; stroke: #000000; stroke-linejoin: miter"/>
     <use xlink:href="#m0b64fd8cae" x="312.64475" y="194.992412" style="fill: #e3256b; stroke: #000000; stroke-linejoin: miter"/>
     <use xlink:href="#m0b64fd8cae" x="343.89275" y="208.746697" style="fill: #e3256b; stroke: #000000; stroke-linejoin: miter"/>
     <use xlink:href="#m0b64fd8cae" x="437.63675" y="227.939516" style="fill: #e3256b; stroke: #000000; stroke-linejoin: miter"/>
    </g>
   </g>
   <g id="patch_3">
    <path d="M 54.84875 320.4 
L 54.84875 43.2 
" style="fill: none; stroke: #000000; stroke-width: 0.8; stroke-linejoin: miter; stroke-linecap: square"/>
   </g>
   <g id="patch_4">
    <path d="M 445.44875 320.4 
L 445.44875 43.2 
" style="fill: none; stroke: #000000; stroke-width: 0.8; stroke-linejoin: miter; stroke-linecap: square"/>
   </g>
   <g id="patch_5">
    <path d="M 54.84875 320.4 
L 445.44875 320.4 
" style="fill: none; stroke: #000000; stroke-width: 0.8; stroke-linejoin: miter; stroke-linecap: square"/>
   </g>
   <g id="patch_6">
    <path d="M 54.84875 43.2 
L 445.44875 43.2 
" style="fill: none; stroke: #000000; stroke-width: 0.8; stroke-linejoin: miter; stroke-linecap: square"/>
   </g>
   <g id="legend_1">
    <g id="patch_7">
     <path d="M 307.181563 110.46875 
L 438.44875 110.46875 
Q 440.44875 110.46875 440.44875 108.46875 
L 440.44875 50.2 
Q 440.44875 48.2 438.44875 48.2 
L 307.181563 48.2 
Q 305.181563 48.2 305.181563 50.2 
L 305.181563 108.46875 
Q 305.181563 110.46875 307.181563 110.46875 
z
" style="fill: #ffffff; opacity: 0.8; stroke: #cccccc; stroke-linejoin: miter"/>
    </g>
    <g id="line2d_15">
     <path d="M 309.181563 56.298437 
L 329.181563 56.298437 
" style="fill: none; stroke: #000000; stroke-width: 2; stroke-linecap: square"/>
    </g>
    <g id="line2d_16"/>
    <g id="text_13">
     <!-- RAP -->
     <g transform="translate(337.181563 59.798437) scale(0.1 -0.1)">
      <defs>
       <path id="DejaVuSans-52" d="M 2841 2188 
Q 3044 2119 3236 1894 
Q 3428 1669 3622 1275 
L 4263 0 
L 3584 0 
L 2988 1197 
Q 2756 1666 2539 1819 
Q 2322 1972 1947 1972 
L 1259 1972 
L 1259 0 
L 628 0 
L 628 4666 
L 2053 4666 
Q 2853 4666 3247 4331 
Q 3641 3997 3641 3322 
Q 3641 2881 3436 2590 
Q 3231 2300 2841 2188 
z
M 1259 4147 
L 1259 2491 
L 2053 2491 
Q 2509 2491 2742 2702 
Q 2975 2913 2975 3322 
Q 2975 3731 2742 3939 
Q 2509 4147 2053 4147 
L 1259 4147 
z
" transform="scale(0.015625)"/>
       <path id="DejaVuSans-41" d="M 2188 4044 
L 1331 1722 
L 3047 1722 
L 2188 4044 
z
M 1831 4666 
L 2547 4666 
L 4325 0 
L 3669 0 
L 3244 1197 
L 1141 1197 
L 716 0 
L 50 0 
L 1831 4666 
z
" transform="scale(0.015625)"/>
       <path id="DejaVuSans-50" d="M 1259 4147 
L 1259 2394 
L 2053 2394 
Q 2494 2394 2734 2622 
Q 2975 2850 2975 3272 
Q 2975 3691 2734 3919 
Q 2494 4147 2053 4147 
L 1259 4147 
z
M 628 4666 
L 2053 4666 
Q 2838 4666 3239 4311 
Q 3641 3956 3641 3272 
Q 3641 2581 3239 2228 
Q 2838 1875 2053 1875 
L 1259 1875 
L 1259 0 
L 628 0 
L 628 4666 
z
" transform="scale(0.015625)"/>
      </defs>
      <use xlink:href="#DejaVuSans-52"/>
      <use xlink:href="#DejaVuSans-41" transform="translate(65.482422 0)"/>
      <use xlink:href="#DejaVuSans-50" transform="translate(133.890625 0)"/>
     </g>
    </g>
    <g id="LineCollection_3">
     <path d="M 319.181563 75.976562 
L 319.181563 65.976562 
" style="fill: none; stroke: #000000"/>
    </g>
    <g id="line2d_17">
     <path d="M 309.181563 70.976562 
L 329.181563 70.976562 
" style="fill: none; stroke-dasharray: 3.7,1.6; stroke-dashoffset: 0; stroke: #000000"/>
    </g>
    <g id="line2d_18">
     <g>
      <use xlink:href="#m9bf4e6b92e" x="319.181563" y="70.976562" style="stroke: #000000; stroke-linejoin: miter"/>
     </g>
    </g>
    <g id="text_14">
     <!-- RAP±SD (n=15) -->
     <g transform="translate(337.181563 74.476562) scale(0.1 -0.1)">
      <defs>
       <path id="DejaVuSans-b1" d="M 2944 4013 
L 2944 2803 
L 4684 2803 
L 4684 2272 
L 2944 2272 
L 2944 1063 
L 2419 1063 
L 2419 2272 
L 678 2272 
L 678 2803 
L 2419 2803 
L 2419 4013 
L 2944 4013 
z
M 678 531 
L 4684 531 
L 4684 0 
L 678 0 
L 678 531 
z
" transform="scale(0.015625)"/>
       <path id="DejaVuSans-53" d="M 3425 4513 
L 3425 3897 
Q 3066 4069 2747 4153 
Q 2428 4238 2131 4238 
Q 1616 4238 1336 4038 
Q 1056 3838 1056 3469 
Q 1056 3159 1242 3001 
Q 1428 2844 1947 2747 
L 2328 2669 
Q 3034 2534 3370 2195 
Q 3706 1856 3706 1288 
Q 3706 609 3251 259 
Q 2797 -91 1919 -91 
Q 1588 -91 1214 -16 
Q 841 59 441 206 
L 441 856 
Q 825 641 1194 531 
Q 1563 422 1919 422 
Q 2459 422 2753 634 
Q 3047 847 3047 1241 
Q 3047 1584 2836 1778 
Q 2625 1972 2144 2069 
L 1759 2144 
Q 1053 2284 737 2584 
Q 422 2884 422 3419 
Q 422 4038 858 4394 
Q 1294 4750 2059 4750 
Q 2388 4750 2728 4690 
Q 3069 4631 3425 4513 
z
" transform="scale(0.015625)"/>
       <path id="DejaVuSans-44" d="M 1259 4147 
L 1259 519 
L 2022 519 
Q 2988 519 3436 956 
Q 3884 1394 3884 2338 
Q 3884 3275 3436 3711 
Q 2988 4147 2022 4147 
L 1259 4147 
z
M 628 4666 
L 1925 4666 
Q 3281 4666 3915 4102 
Q 4550 3538 4550 2338 
Q 4550 1131 3912 565 
Q 3275 0 1925 0 
L 628 0 
L 628 4666 
z
" transform="scale(0.015625)"/>
       <path id="DejaVuSans-20" transform="scale(0.015625)"/>
       <path id="DejaVuSans-28" d="M 1984 4856 
Q 1566 4138 1362 3434 
Q 1159 2731 1159 2009 
Q 1159 1288 1364 580 
Q 1569 -128 1984 -844 
L 1484 -844 
Q 1016 -109 783 600 
Q 550 1309 550 2009 
Q 550 2706 781 3412 
Q 1013 4119 1484 4856 
L 1984 4856 
z
" transform="scale(0.015625)"/>
       <path id="DejaVuSans-6e" d="M 3513 2113 
L 3513 0 
L 2938 0 
L 2938 2094 
Q 2938 2591 2744 2837 
Q 2550 3084 2163 3084 
Q 1697 3084 1428 2787 
Q 1159 2491 1159 1978 
L 1159 0 
L 581 0 
L 581 3500 
L 1159 3500 
L 1159 2956 
Q 1366 3272 1645 3428 
Q 1925 3584 2291 3584 
Q 2894 3584 3203 3211 
Q 3513 2838 3513 2113 
z
" transform="scale(0.015625)"/>
       <path id="DejaVuSans-3d" d="M 678 2906 
L 4684 2906 
L 4684 2381 
L 678 2381 
L 678 2906 
z
M 678 1631 
L 4684 1631 
L 4684 1100 
L 678 1100 
L 678 1631 
z
" transform="scale(0.015625)"/>
       <path id="DejaVuSans-29" d="M 513 4856 
L 1013 4856 
Q 1481 4119 1714 3412 
Q 1947 2706 1947 2009 
Q 1947 1309 1714 600 
Q 1481 -109 1013 -844 
L 513 -844 
Q 928 -128 1133 580 
Q 1338 1288 1338 2009 
Q 1338 2731 1133 3434 
Q 928 4138 513 4856 
z
" transform="scale(0.015625)"/>
      </defs>
      <use xlink:href="#DejaVuSans-52"/>
      <use xlink:href="#DejaVuSans-41" transform="translate(65.482422 0)"/>
      <use xlink:href="#DejaVuSans-50" transform="translate(133.890625 0)"/>
      <use xlink:href="#DejaVuSans-b1" transform="translate(194.193359 0)"/>
      <use xlink:href="#DejaVuSans-53" transform="translate(277.982422 0)"/>
      <use xlink:href="#DejaVuSans-44" transform="translate(341.458984 0)"/>
      <use xlink:href="#DejaVuSans-20" transform="translate(418.460938 0)"/>
      <use xlink:href="#DejaVuSans-28" transform="translate(450.248047 0)"/>
      <use xlink:href="#DejaVuSans-6e" transform="translate(489.261719 0)"/>
      <use xlink:href="#DejaVuSans-3d" transform="translate(552.640625 0)"/>
      <use xlink:href="#DejaVuSans-31" transform="translate(636.429688 0)"/>
      <use xlink:href="#DejaVuSans-35" transform="translate(700.052734 0)"/>
      <use xlink:href="#DejaVuSans-29" transform="translate(763.675781 0)"/>
     </g>
    </g>
    <g id="line2d_19">
     <path d="M 309.181563 85.654687 
L 329.181563 85.654687 
" style="fill: none; stroke: #e3256b; stroke-width: 2; stroke-linecap: square"/>
    </g>
    <g id="line2d_20"/>
    <g id="text_15">
     <!-- RAP_CSA -->
     <g transform="translate(337.181563 89.154687) scale(0.1 -0.1)">
      <defs>
       <path id="DejaVuSans-5f" d="M 3263 -1063 
L 3263 -1509 
L -63 -1509 
L -63 -1063 
L 3263 -1063 
z
" transform="scale(0.015625)"/>
       <path id="DejaVuSans-43" d="M 4122 4306 
L 4122 3641 
Q 3803 3938 3442 4084 
Q 3081 4231 2675 4231 
Q 1875 4231 1450 3742 
Q 1025 3253 1025 2328 
Q 1025 1406 1450 917 
Q 1875 428 2675 428 
Q 3081 428 3442 575 
Q 3803 722 4122 1019 
L 4122 359 
Q 3791 134 3420 21 
Q 3050 -91 2638 -91 
Q 1578 -91 968 557 
Q 359 1206 359 2328 
Q 359 3453 968 4101 
Q 1578 4750 2638 4750 
Q 3056 4750 3426 4639 
Q 3797 4528 4122 4306 
z
" transform="scale(0.015625)"/>
      </defs>
      <use xlink:href="#DejaVuSans-52"/>
      <use xlink:href="#DejaVuSans-41" transform="translate(65.482422 0)"/>
      <use xlink:href="#DejaVuSans-50" transform="translate(133.890625 0)"/>
      <use xlink:href="#DejaVuSans-5f" transform="translate(194.193359 0)"/>
      <use xlink:href="#DejaVuSans-43" transform="translate(244.193359 0)"/>
      <use xlink:href="#DejaVuSans-53" transform="translate(314.017578 0)"/>
      <use xlink:href="#DejaVuSans-41" transform="translate(379.369141 0)"/>
     </g>
    </g>
    <g id="LineCollection_4">
     <path d="M 319.181563 105.610937 
L 319.181563 95.610937 
" style="fill: none; stroke: #e3256b"/>
    </g>
    <g id="line2d_21">
     <path d="M 309.181563 100.610937 
L 329.181563 100.610937 
" style="fill: none; stroke-dasharray: 3.7,1.6; stroke-dashoffset: 0; stroke: #e3256b"/>
    </g>
    <g id="line2d_22">
     <g>
      <use xlink:href="#m0b64fd8cae" x="319.181563" y="100.610937" style="fill: #e3256b; stroke: #000000; stroke-linejoin: miter"/>
     </g>
    </g>
    <g id="text_16">
     <!-- RAP_CSA±SD (n=9) -->
     <g transform="translate(337.181563 104.110937) scale(0.1 -0.1)">
      <defs>
       <path id="DejaVuSans-39" d="M 703 97 
L 703 672 
Q 941 559 1184 500 
Q 1428 441 1663 441 
Q 2288 441 2617 861 
Q 2947 1281 2994 2138 
Q 2813 1869 2534 1725 
Q 2256 1581 1919 1581 
Q 1219 1581 811 2004 
Q 403 2428 403 3163 
Q 403 3881 828 4315 
Q 1253 4750 1959 4750 
Q 2769 4750 3195 4129 
Q 3622 3509 3622 2328 
Q 3622 1225 3098 567 
Q 2575 -91 1691 -91 
Q 1453 -91 1209 -44 
Q 966 3 703 97 
z
M 1959 2075 
Q 2384 2075 2632 2365 
Q 2881 2656 2881 3163 
Q 2881 3666 2632 3958 
Q 2384 4250 1959 4250 
Q 1534 4250 1286 3958 
Q 1038 3666 1038 3163 
Q 1038 2656 1286 2365 
Q 1534 2075 1959 2075 
z
" transform="scale(0.015625)"/>
      </defs>
      <use xlink:href="#DejaVuSans-52"/>
      <use xlink:href="#DejaVuSans-41" transform="translate(65.482422 0)"/>
      <use xlink:href="#DejaVuSans-50" transform="translate(133.890625 0)"/>
      <use xlink:href="#DejaVuSans-5f" transform="translate(194.193359 0)"/>
      <use xlink:href="#DejaVuSans-43" transform="translate(244.193359 0)"/>
      <use xlink:href="#DejaVuSans-53" transform="translate(314.017578 0)"/>
      <use xlink:href="#DejaVuSans-41" transform="translate(379.369141 0)"/>
      <use xlink:href="#DejaVuSans-b1" transform="translate(447.777344 0)"/>
      <use xlink:href="#DejaVuSans-53" transform="translate(531.566406 0)"/>
      <use xlink:href="#DejaVuSans-44" transform="translate(595.042969 0)"/>
      <use xlink:href="#DejaVuSans-20" transform="translate(672.044922 0)"/>
      <use xlink:href="#DejaVuSans-28" transform="translate(703.832031 0)"/>
      <use xlink:href="#DejaVuSans-6e" transform="translate(742.845703 0)"/>
      <use xlink:href="#DejaVuSans-3d" transform="translate(806.224609 0)"/>
      <use xlink:href="#DejaVuSans-39" transform="translate(890.013672 0)"/>
      <use xlink:href="#DejaVuSans-29" transform="translate(953.636719 0)"/>
     </g>
    </g>
   </g>
  </g>
  <g id="text_17">
   <!-- Wang2014 -->
   <g transform="translate(169.444453 26.000781) scale(0.25 -0.25)">
    <defs>
     <path id="DejaVuSans-Bold-57" d="M 191 4666 
L 1344 4666 
L 2150 1275 
L 2950 4666 
L 4109 4666 
L 4909 1275 
L 5716 4666 
L 6859 4666 
L 5759 0 
L 4372 0 
L 3525 3547 
L 2688 0 
L 1300 0 
L 191 4666 
z
" transform="scale(0.015625)"/>
     <path id="DejaVuSans-Bold-67" d="M 2919 594 
Q 2688 288 2409 144 
Q 2131 0 1766 0 
Q 1125 0 706 504 
Q 288 1009 288 1791 
Q 288 2575 706 3076 
Q 1125 3578 1766 3578 
Q 2131 3578 2409 3434 
Q 2688 3291 2919 2981 
L 2919 3500 
L 4044 3500 
L 4044 353 
Q 4044 -491 3511 -936 
Q 2978 -1381 1966 -1381 
Q 1638 -1381 1331 -1331 
Q 1025 -1281 716 -1178 
L 716 -306 
Q 1009 -475 1290 -558 
Q 1572 -641 1856 -641 
Q 2406 -641 2662 -400 
Q 2919 -159 2919 353 
L 2919 594 
z
M 2181 2772 
Q 1834 2772 1640 2515 
Q 1447 2259 1447 1791 
Q 1447 1309 1634 1061 
Q 1822 813 2181 813 
Q 2531 813 2725 1069 
Q 2919 1325 2919 1791 
Q 2919 2259 2725 2515 
Q 2531 2772 2181 2772 
z
" transform="scale(0.015625)"/>
     <path id="DejaVuSans-Bold-32" d="M 1844 884 
L 3897 884 
L 3897 0 
L 506 0 
L 506 884 
L 2209 2388 
Q 2438 2594 2547 2791 
Q 2656 2988 2656 3200 
Q 2656 3528 2436 3728 
Q 2216 3928 1850 3928 
Q 1569 3928 1234 3808 
Q 900 3688 519 3450 
L 519 4475 
Q 925 4609 1322 4679 
Q 1719 4750 2100 4750 
Q 2938 4750 3402 4381 
Q 3866 4013 3866 3353 
Q 3866 2972 3669 2642 
Q 3472 2313 2841 1759 
L 1844 884 
z
" transform="scale(0.015625)"/>
     <path id="DejaVuSans-Bold-30" d="M 2944 2338 
Q 2944 3213 2780 3570 
Q 2616 3928 2228 3928 
Q 1841 3928 1675 3570 
Q 1509 3213 1509 2338 
Q 1509 1453 1675 1090 
Q 1841 728 2228 728 
Q 2613 728 2778 1090 
Q 2944 1453 2944 2338 
z
M 4147 2328 
Q 4147 1169 3647 539 
Q 3147 -91 2228 -91 
Q 1306 -91 806 539 
Q 306 1169 306 2328 
Q 306 3491 806 4120 
Q 1306 4750 2228 4750 
Q 3147 4750 3647 4120 
Q 4147 3491 4147 2328 
z
" transform="scale(0.015625)"/>
     <path id="DejaVuSans-Bold-31" d="M 750 831 
L 1813 831 
L 1813 3847 
L 722 3622 
L 722 4441 
L 1806 4666 
L 2950 4666 
L 2950 831 
L 4013 831 
L 4013 0 
L 750 0 
L 750 831 
z
" transform="scale(0.015625)"/>
     <path id="DejaVuSans-Bold-34" d="M 2356 3675 
L 1038 1722 
L 2356 1722 
L 2356 3675 
z
M 2156 4666 
L 3494 4666 
L 3494 1722 
L 4159 1722 
L 4159 850 
L 3494 850 
L 3494 0 
L 2356 0 
L 2356 850 
L 288 850 
L 288 1881 
L 2156 4666 
z
" transform="scale(0.015625)"/>
    </defs>
    <use xlink:href="#DejaVuSans-Bold-57"/>
    <use xlink:href="#DejaVuSans-Bold-61" transform="translate(106.677734 0)"/>
    <use xlink:href="#DejaVuSans-Bold-6e" transform="translate(174.158203 0)"/>
    <use xlink:href="#DejaVuSans-Bold-67" transform="translate(245.349609 0)"/>
    <use xlink:href="#DejaVuSans-Bold-32" transform="translate(316.931641 0)"/>
    <use xlink:href="#DejaVuSans-Bold-30" transform="translate(386.511719 0)"/>
    <use xlink:href="#DejaVuSans-Bold-31" transform="translate(456.091797 0)"/>
    <use xlink:href="#DejaVuSans-Bold-34" transform="translate(525.671875 0)"/>
   </g>
  </g>
 </g>
 <defs>
  <clipPath id="p9868c18e44">
   <rect x="54.84875" y="43.2" width="390.6" height="277.2"/>
  </clipPath>
 </defs>
</svg>
