<?xml version="1.0" encoding="utf-8" standalone="no"?>
<!DOCTYPE svg PUBLIC "-//W3C//DTD SVG 1.1//EN"
  "http://www.w3.org/Graphics/SVG/1.1/DTD/svg11.dtd">
<svg xmlns:xlink="http://www.w3.org/1999/xlink" width="566.993062pt" height="683.737812pt" viewBox="0 0 566.993062 683.737812" xmlns="http://www.w3.org/2000/svg" version="1.1">
 <metadata>
  <rdf:RDF xmlns:dc="http://purl.org/dc/elements/1.1/" xmlns:cc="http://creativecommons.org/ns#" xmlns:rdf="http://www.w3.org/1999/02/22-rdf-syntax-ns#">
   <cc:Work>
    <dc:type rdf:resource="http://purl.org/dc/dcmitype/StillImage"/>
    <dc:date>2025-09-10T11:19:55.795657</dc:date>
    <dc:format>image/svg+xml</dc:format>
    <dc:creator>
     <cc:Agent>
      <dc:title>Matplotlib v3.10.6, https://matplotlib.org/</dc:title>
     </cc:Agent>
    </dc:creator>
   </cc:Work>
  </rdf:RDF>
 </metadata>
 <defs>
  <style type="text/css">*{stroke-linejoin: round; stroke-linecap: butt}</style>
 </defs>
 <g id="figure_1">
  <g id="patch_1">
   <path d="M 0 683.737812 
L 566.993062 683.737812 
L 566.993062 0 
L 0 0 
z
" style="fill: #ffffff"/>
  </g>
  <g id="axes_1">
   <g id="patch_2">
    <path d="M 54.84875 320.243478 
L 445.44875 320.243478 
L 445.44875 79.2 
L 54.84875 79.2 
z
" style="fill: #ffffff"/>
   </g>
   <g id="matplotlib.axis_1">
    <g id="xtick_1">
     <g id="line2d_1">
      <defs>
       <path id="m2324ac8a43" d="M 0 0 
L 0 3.5 
" style="stroke: #000000; stroke-width: 0.8"/>
      </defs>
      <g>
       <use xlink:href="#m2324ac8a43" x="72.603295" y="320.243478" style="stroke: #000000; stroke-width: 0.8"/>
      </g>
     </g>
     <g id="text_1">
      <!-- 0 -->
      <g transform="translate(67.83142 338.641135) scale(0.15 -0.15)">
       <defs>
        <path id="DejaVuSans-30" d="M 2034 4250 
Q 1547 4250 1301 3770 
Q 1056 3291 1056 2328 
Q 1056 1369 1301 889 
Q 1547 409 2034 409 
Q 2525 409 2770 889 
Q 3016 1369 3016 2328 
Q 3016 3291 2770 3770 
Q 2525 4250 2034 4250 
z
M 2034 4750 
Q 2819 4750 3233 4129 
Q 3647 3509 3647 2328 
Q 3647 1150 3233 529 
Q 2819 -91 2034 -91 
Q 1250 -91 836 529 
Q 422 1150 422 2328 
Q 422 3509 836 4129 
Q 1250 4750 2034 4750 
z
" transform="scale(0.015625)"/>
       </defs>
       <use xlink:href="#DejaVuSans-30"/>
      </g>
     </g>
    </g>
    <g id="xtick_2">
     <g id="line2d_2">
      <g>
       <use xlink:href="#m2324ac8a43" x="131.785114" y="320.243478" style="stroke: #000000; stroke-width: 0.8"/>
      </g>
     </g>
     <g id="text_2">
      <!-- 25 -->
      <g transform="translate(122.241364 338.641135) scale(0.15 -0.15)">
       <defs>
        <path id="DejaVuSans-32" d="M 1228 531 
L 3431 531 
L 3431 0 
L 469 0 
L 469 531 
Q 828 903 1448 1529 
Q 2069 2156 2228 2338 
Q 2531 2678 2651 2914 
Q 2772 3150 2772 3378 
Q 2772 3750 2511 3984 
Q 2250 4219 1831 4219 
Q 1534 4219 1204 4116 
Q 875 4013 500 3803 
L 500 4441 
Q 881 4594 1212 4672 
Q 1544 4750 1819 4750 
Q 2544 4750 2975 4387 
Q 3406 4025 3406 3419 
Q 3406 3131 3298 2873 
Q 3191 2616 2906 2266 
Q 2828 2175 2409 1742 
Q 1991 1309 1228 531 
z
" transform="scale(0.015625)"/>
        <path id="DejaVuSans-35" d="M 691 4666 
L 3169 4666 
L 3169 4134 
L 1269 4134 
L 1269 2991 
Q 1406 3038 1543 3061 
Q 1681 3084 1819 3084 
Q 2600 3084 3056 2656 
Q 3513 2228 3513 1497 
Q 3513 744 3044 326 
Q 2575 -91 1722 -91 
Q 1428 -91 1123 -41 
Q 819 9 494 109 
L 494 744 
Q 775 591 1075 516 
Q 1375 441 1709 441 
Q 2250 441 2565 725 
Q 2881 1009 2881 1497 
Q 2881 1984 2565 2268 
Q 2250 2553 1709 2553 
Q 1456 2553 1204 2497 
Q 953 2441 691 2322 
L 691 4666 
z
" transform="scale(0.015625)"/>
       </defs>
       <use xlink:href="#DejaVuSans-32"/>
       <use xlink:href="#DejaVuSans-35" transform="translate(63.623047 0)"/>
      </g>
     </g>
    </g>
    <g id="xtick_3">
     <g id="line2d_3">
      <g>
       <use xlink:href="#m2324ac8a43" x="190.966932" y="320.243478" style="stroke: #000000; stroke-width: 0.8"/>
      </g>
     </g>
     <g id="text_3">
      <!-- 50 -->
      <g transform="translate(181.423182 338.641135) scale(0.15 -0.15)">
       <use xlink:href="#DejaVuSans-35"/>
       <use xlink:href="#DejaVuSans-30" transform="translate(63.623047 0)"/>
      </g>
     </g>
    </g>
    <g id="xtick_4">
     <g id="line2d_4">
      <g>
       <use xlink:href="#m2324ac8a43" x="250.14875" y="320.243478" style="stroke: #000000; stroke-width: 0.8"/>
      </g>
     </g>
     <g id="text_4">
      <!-- 75 -->
      <g transform="translate(240.605 338.641135) scale(0.15 -0.15)">
       <defs>
        <path id="DejaVuSans-37" d="M 525 4666 
L 3525 4666 
L 3525 4397 
L 1831 0 
L 1172 0 
L 2766 4134 
L 525 4134 
L 525 4666 
z
" transform="scale(0.015625)"/>
       </defs>
       <use xlink:href="#DejaVuSans-37"/>
       <use xlink:href="#DejaVuSans-35" transform="translate(63.623047 0)"/>
      </g>
     </g>
    </g>
    <g id="xtick_5">
     <g id="line2d_5">
      <g>
       <use xlink:href="#m2324ac8a43" x="309.330568" y="320.243478" style="stroke: #000000; stroke-width: 0.8"/>
      </g>
     </g>
     <g id="text_5">
      <!-- 100 -->
      <g transform="translate(295.014943 338.641135) scale(0.15 -0.15)">
       <defs>
        <path id="DejaVuSans-31" d="M 794 531 
L 1825 531 
L 1825 4091 
L 703 3866 
L 703 4441 
L 1819 4666 
L 2450 4666 
L 2450 531 
L 3481 531 
L 3481 0 
L 794 0 
L 794 531 
z
" transform="scale(0.015625)"/>
       </defs>
       <use xlink:href="#DejaVuSans-31"/>
       <use xlink:href="#DejaVuSans-30" transform="translate(63.623047 0)"/>
       <use xlink:href="#DejaVuSans-30" transform="translate(127.246094 0)"/>
      </g>
     </g>
    </g>
    <g id="xtick_6">
     <g id="line2d_6">
      <g>
       <use xlink:href="#m2324ac8a43" x="368.512386" y="320.243478" style="stroke: #000000; stroke-width: 0.8"/>
      </g>
     </g>
     <g id="text_6">
      <!-- 125 -->
      <g transform="translate(354.196761 338.641135) scale(0.15 -0.15)">
       <use xlink:href="#DejaVuSans-31"/>
       <use xlink:href="#DejaVuSans-32" transform="translate(63.623047 0)"/>
       <use xlink:href="#DejaVuSans-35" transform="translate(127.246094 0)"/>
      </g>
     </g>
    </g>
    <g id="xtick_7">
     <g id="line2d_7">
      <g>
       <use xlink:href="#m2324ac8a43" x="427.694205" y="320.243478" style="stroke: #000000; stroke-width: 0.8"/>
      </g>
     </g>
     <g id="text_7">
      <!-- 150 -->
      <g transform="translate(413.37858 338.641135) scale(0.15 -0.15)">
       <use xlink:href="#DejaVuSans-31"/>
       <use xlink:href="#DejaVuSans-35" transform="translate(63.623047 0)"/>
       <use xlink:href="#DejaVuSans-30" transform="translate(127.246094 0)"/>
      </g>
     </g>
    </g>
    <g id="text_8">
     <!-- time [hr] -->
     <g transform="translate(205.074219 359.437853) scale(0.18 -0.18)">
      <defs>
       <path id="DejaVuSans-Bold-74" d="M 1759 4494 
L 1759 3500 
L 2913 3500 
L 2913 2700 
L 1759 2700 
L 1759 1216 
Q 1759 972 1856 886 
Q 1953 800 2241 800 
L 2816 800 
L 2816 0 
L 1856 0 
Q 1194 0 917 276 
Q 641 553 641 1216 
L 641 2700 
L 84 2700 
L 84 3500 
L 641 3500 
L 641 4494 
L 1759 4494 
z
" transform="scale(0.015625)"/>
       <path id="DejaVuSans-Bold-69" d="M 538 3500 
L 1656 3500 
L 1656 0 
L 538 0 
L 538 3500 
z
M 538 4863 
L 1656 4863 
L 1656 3950 
L 538 3950 
L 538 4863 
z
" transform="scale(0.015625)"/>
       <path id="DejaVuSans-Bold-6d" d="M 3781 2919 
Q 3994 3244 4286 3414 
Q 4578 3584 4928 3584 
Q 5531 3584 5847 3212 
Q 6163 2841 6163 2131 
L 6163 0 
L 5038 0 
L 5038 1825 
Q 5041 1866 5042 1909 
Q 5044 1953 5044 2034 
Q 5044 2406 4934 2573 
Q 4825 2741 4581 2741 
Q 4263 2741 4089 2478 
Q 3916 2216 3909 1719 
L 3909 0 
L 2784 0 
L 2784 1825 
Q 2784 2406 2684 2573 
Q 2584 2741 2328 2741 
Q 2006 2741 1831 2477 
Q 1656 2213 1656 1722 
L 1656 0 
L 531 0 
L 531 3500 
L 1656 3500 
L 1656 2988 
Q 1863 3284 2130 3434 
Q 2397 3584 2719 3584 
Q 3081 3584 3359 3409 
Q 3638 3234 3781 2919 
z
" transform="scale(0.015625)"/>
       <path id="DejaVuSans-Bold-65" d="M 4031 1759 
L 4031 1441 
L 1416 1441 
Q 1456 1047 1700 850 
Q 1944 653 2381 653 
Q 2734 653 3104 758 
Q 3475 863 3866 1075 
L 3866 213 
Q 3469 63 3072 -14 
Q 2675 -91 2278 -91 
Q 1328 -91 801 392 
Q 275 875 275 1747 
Q 275 2603 792 3093 
Q 1309 3584 2216 3584 
Q 3041 3584 3536 3087 
Q 4031 2591 4031 1759 
z
M 2881 2131 
Q 2881 2450 2695 2645 
Q 2509 2841 2209 2841 
Q 1884 2841 1681 2658 
Q 1478 2475 1428 2131 
L 2881 2131 
z
" transform="scale(0.015625)"/>
       <path id="DejaVuSans-Bold-20" transform="scale(0.015625)"/>
       <path id="DejaVuSans-Bold-5b" d="M 550 4863 
L 2491 4863 
L 2491 4159 
L 1613 4159 
L 1613 -141 
L 2491 -141 
L 2491 -844 
L 550 -844 
L 550 4863 
z
" transform="scale(0.015625)"/>
       <path id="DejaVuSans-Bold-68" d="M 4056 2131 
L 4056 0 
L 2931 0 
L 2931 347 
L 2931 1625 
Q 2931 2084 2911 2256 
Q 2891 2428 2841 2509 
Q 2775 2619 2662 2680 
Q 2550 2741 2406 2741 
Q 2056 2741 1856 2470 
Q 1656 2200 1656 1722 
L 1656 0 
L 538 0 
L 538 4863 
L 1656 4863 
L 1656 2988 
Q 1909 3294 2193 3439 
Q 2478 3584 2822 3584 
Q 3428 3584 3742 3212 
Q 4056 2841 4056 2131 
z
" transform="scale(0.015625)"/>
       <path id="DejaVuSans-Bold-72" d="M 3138 2547 
Q 2991 2616 2845 2648 
Q 2700 2681 2553 2681 
Q 2122 2681 1889 2404 
Q 1656 2128 1656 1613 
L 1656 0 
L 538 0 
L 538 3500 
L 1656 3500 
L 1656 2925 
Q 1872 3269 2151 3426 
Q 2431 3584 2822 3584 
Q 2878 3584 2943 3579 
Q 3009 3575 3134 3559 
L 3138 2547 
z
" transform="scale(0.015625)"/>
       <path id="DejaVuSans-Bold-5d" d="M 2375 -844 
L 434 -844 
L 434 -141 
L 1313 -141 
L 1313 4159 
L 434 4159 
L 434 4863 
L 2375 4863 
L 2375 -844 
z
" transform="scale(0.015625)"/>
      </defs>
      <use xlink:href="#DejaVuSans-Bold-74"/>
      <use xlink:href="#DejaVuSans-Bold-69" transform="translate(47.802734 0)"/>
      <use xlink:href="#DejaVuSans-Bold-6d" transform="translate(82.080078 0)"/>
      <use xlink:href="#DejaVuSans-Bold-65" transform="translate(186.279297 0)"/>
      <use xlink:href="#DejaVuSans-Bold-20" transform="translate(254.101562 0)"/>
      <use xlink:href="#DejaVuSans-Bold-5b" transform="translate(288.916016 0)"/>
      <use xlink:href="#DejaVuSans-Bold-68" transform="translate(334.619141 0)"/>
      <use xlink:href="#DejaVuSans-Bold-72" transform="translate(405.810547 0)"/>
      <use xlink:href="#DejaVuSans-Bold-5d" transform="translate(455.126953 0)"/>
     </g>
    </g>
   </g>
   <g id="matplotlib.axis_2">
    <g id="ytick_1">
     <g id="line2d_8">
      <defs>
       <path id="m6b92b7debb" d="M 0 0 
L -3.5 0 
" style="stroke: #000000; stroke-width: 0.8"/>
      </defs>
      <g>
       <use xlink:href="#m6b92b7debb" x="54.84875" y="309.286957" style="stroke: #000000; stroke-width: 0.8"/>
      </g>
     </g>
     <g id="text_9">
      <!-- 0 -->
      <g transform="translate(38.305 314.985785) scale(0.15 -0.15)">
       <use xlink:href="#DejaVuSans-30"/>
      </g>
     </g>
    </g>
    <g id="ytick_2">
     <g id="line2d_9">
      <g>
       <use xlink:href="#m6b92b7debb" x="54.84875" y="252.051846" style="stroke: #000000; stroke-width: 0.8"/>
      </g>
     </g>
     <g id="text_10">
      <!-- 10 -->
      <g transform="translate(28.76125 257.750674) scale(0.15 -0.15)">
       <use xlink:href="#DejaVuSans-31"/>
       <use xlink:href="#DejaVuSans-30" transform="translate(63.623047 0)"/>
      </g>
     </g>
    </g>
    <g id="ytick_3">
     <g id="line2d_10">
      <g>
       <use xlink:href="#m6b92b7debb" x="54.84875" y="194.816736" style="stroke: #000000; stroke-width: 0.8"/>
      </g>
     </g>
     <g id="text_11">
      <!-- 20 -->
      <g transform="translate(28.76125 200.515564) scale(0.15 -0.15)">
       <use xlink:href="#DejaVuSans-32"/>
       <use xlink:href="#DejaVuSans-30" transform="translate(63.623047 0)"/>
      </g>
     </g>
    </g>
    <g id="ytick_4">
     <g id="line2d_11">
      <g>
       <use xlink:href="#m6b92b7debb" x="54.84875" y="137.581626" style="stroke: #000000; stroke-width: 0.8"/>
      </g>
     </g>
     <g id="text_12">
      <!-- 30 -->
      <g transform="translate(28.76125 143.280454) scale(0.15 -0.15)">
       <defs>
        <path id="DejaVuSans-33" d="M 2597 2516 
Q 3050 2419 3304 2112 
Q 3559 1806 3559 1356 
Q 3559 666 3084 287 
Q 2609 -91 1734 -91 
Q 1441 -91 1130 -33 
Q 819 25 488 141 
L 488 750 
Q 750 597 1062 519 
Q 1375 441 1716 441 
Q 2309 441 2620 675 
Q 2931 909 2931 1356 
Q 2931 1769 2642 2001 
Q 2353 2234 1838 2234 
L 1294 2234 
L 1294 2753 
L 1863 2753 
Q 2328 2753 2575 2939 
Q 2822 3125 2822 3475 
Q 2822 3834 2567 4026 
Q 2313 4219 1838 4219 
Q 1578 4219 1281 4162 
Q 984 4106 628 3988 
L 628 4550 
Q 988 4650 1302 4700 
Q 1616 4750 1894 4750 
Q 2613 4750 3031 4423 
Q 3450 4097 3450 3541 
Q 3450 3153 3228 2886 
Q 3006 2619 2597 2516 
z
" transform="scale(0.015625)"/>
       </defs>
       <use xlink:href="#DejaVuSans-33"/>
       <use xlink:href="#DejaVuSans-30" transform="translate(63.623047 0)"/>
      </g>
     </g>
    </g>
    <g id="ytick_5">
     <g id="line2d_12">
      <g>
       <use xlink:href="#m6b92b7debb" x="54.84875" y="80.346515" style="stroke: #000000; stroke-width: 0.8"/>
      </g>
     </g>
     <g id="text_13">
      <!-- 40 -->
      <g transform="translate(28.76125 86.045344) scale(0.15 -0.15)">
       <defs>
        <path id="DejaVuSans-34" d="M 2419 4116 
L 825 1625 
L 2419 1625 
L 2419 4116 
z
M 2253 4666 
L 3047 4666 
L 3047 1625 
L 3713 1625 
L 3713 1100 
L 3047 1100 
L 3047 0 
L 2419 0 
L 2419 1100 
L 313 1100 
L 313 1709 
L 2253 4666 
z
" transform="scale(0.015625)"/>
       </defs>
       <use xlink:href="#DejaVuSans-34"/>
       <use xlink:href="#DejaVuSans-30" transform="translate(63.623047 0)"/>
      </g>
     </g>
    </g>
    <g id="text_14">
     <!-- rapamycin [µM] -->
     <g transform="translate(20.877188 279.759864) rotate(-90) scale(0.18 -0.18)">
      <defs>
       <path id="DejaVuSans-Bold-61" d="M 2106 1575 
Q 1756 1575 1579 1456 
Q 1403 1338 1403 1106 
Q 1403 894 1545 773 
Q 1688 653 1941 653 
Q 2256 653 2472 879 
Q 2688 1106 2688 1447 
L 2688 1575 
L 2106 1575 
z
M 3816 1997 
L 3816 0 
L 2688 0 
L 2688 519 
Q 2463 200 2181 54 
Q 1900 -91 1497 -91 
Q 953 -91 614 226 
Q 275 544 275 1050 
Q 275 1666 698 1953 
Q 1122 2241 2028 2241 
L 2688 2241 
L 2688 2328 
Q 2688 2594 2478 2717 
Q 2269 2841 1825 2841 
Q 1466 2841 1156 2769 
Q 847 2697 581 2553 
L 581 3406 
Q 941 3494 1303 3539 
Q 1666 3584 2028 3584 
Q 2975 3584 3395 3211 
Q 3816 2838 3816 1997 
z
" transform="scale(0.015625)"/>
       <path id="DejaVuSans-Bold-70" d="M 1656 506 
L 1656 -1331 
L 538 -1331 
L 538 3500 
L 1656 3500 
L 1656 2988 
Q 1888 3294 2169 3439 
Q 2450 3584 2816 3584 
Q 3463 3584 3878 3070 
Q 4294 2556 4294 1747 
Q 4294 938 3878 423 
Q 3463 -91 2816 -91 
Q 2450 -91 2169 54 
Q 1888 200 1656 506 
z
M 2400 2772 
Q 2041 2772 1848 2508 
Q 1656 2244 1656 1747 
Q 1656 1250 1848 986 
Q 2041 722 2400 722 
Q 2759 722 2948 984 
Q 3138 1247 3138 1747 
Q 3138 2247 2948 2509 
Q 2759 2772 2400 2772 
z
" transform="scale(0.015625)"/>
       <path id="DejaVuSans-Bold-79" d="M 78 3500 
L 1197 3500 
L 2138 1125 
L 2938 3500 
L 4056 3500 
L 2584 -331 
Q 2363 -916 2067 -1148 
Q 1772 -1381 1288 -1381 
L 641 -1381 
L 641 -647 
L 991 -647 
Q 1275 -647 1404 -556 
Q 1534 -466 1606 -231 
L 1638 -134 
L 78 3500 
z
" transform="scale(0.015625)"/>
       <path id="DejaVuSans-Bold-63" d="M 3366 3391 
L 3366 2478 
Q 3138 2634 2908 2709 
Q 2678 2784 2431 2784 
Q 1963 2784 1702 2511 
Q 1441 2238 1441 1747 
Q 1441 1256 1702 982 
Q 1963 709 2431 709 
Q 2694 709 2930 787 
Q 3166 866 3366 1019 
L 3366 103 
Q 3103 6 2833 -42 
Q 2563 -91 2291 -91 
Q 1344 -91 809 395 
Q 275 881 275 1747 
Q 275 2613 809 3098 
Q 1344 3584 2291 3584 
Q 2566 3584 2833 3536 
Q 3100 3488 3366 3391 
z
" transform="scale(0.015625)"/>
       <path id="DejaVuSans-Bold-6e" d="M 4056 2131 
L 4056 0 
L 2931 0 
L 2931 347 
L 2931 1631 
Q 2931 2084 2911 2256 
Q 2891 2428 2841 2509 
Q 2775 2619 2662 2680 
Q 2550 2741 2406 2741 
Q 2056 2741 1856 2470 
Q 1656 2200 1656 1722 
L 1656 0 
L 538 0 
L 538 3500 
L 1656 3500 
L 1656 2988 
Q 1909 3294 2193 3439 
Q 2478 3584 2822 3584 
Q 3428 3584 3742 3212 
Q 4056 2841 4056 2131 
z
" transform="scale(0.015625)"/>
       <path id="DejaVuSans-Bold-b5" d="M 544 -1338 
L 544 3500 
L 1672 3500 
L 1672 1466 
Q 1672 1103 1828 926 
Q 1984 750 2303 750 
Q 2625 750 2781 926 
Q 2938 1103 2938 1466 
L 2938 3500 
L 4063 3500 
L 4063 1159 
Q 4063 938 4114 850 
Q 4166 763 4288 763 
Q 4344 763 4395 778 
Q 4447 794 4506 831 
L 4506 50 
Q 4341 -22 4195 -56 
Q 4050 -91 3909 -91 
Q 3631 -91 3454 26 
Q 3278 144 3169 403 
Q 3022 156 2811 32 
Q 2600 -91 2322 -91 
Q 2091 -91 1928 -17 
Q 1766 56 1672 206 
L 1672 -1338 
L 544 -1338 
z
" transform="scale(0.015625)"/>
       <path id="DejaVuSans-Bold-4d" d="M 588 4666 
L 2119 4666 
L 3181 2169 
L 4250 4666 
L 5778 4666 
L 5778 0 
L 4641 0 
L 4641 3413 
L 3566 897 
L 2803 897 
L 1728 3413 
L 1728 0 
L 588 0 
L 588 4666 
z
" transform="scale(0.015625)"/>
      </defs>
      <use xlink:href="#DejaVuSans-Bold-72"/>
      <use xlink:href="#DejaVuSans-Bold-61" transform="translate(49.316406 0)"/>
      <use xlink:href="#DejaVuSans-Bold-70" transform="translate(116.796875 0)"/>
      <use xlink:href="#DejaVuSans-Bold-61" transform="translate(188.378906 0)"/>
      <use xlink:href="#DejaVuSans-Bold-6d" transform="translate(255.859375 0)"/>
      <use xlink:href="#DejaVuSans-Bold-79" transform="translate(360.058594 0)"/>
      <use xlink:href="#DejaVuSans-Bold-63" transform="translate(425.244141 0)"/>
      <use xlink:href="#DejaVuSans-Bold-69" transform="translate(484.521484 0)"/>
      <use xlink:href="#DejaVuSans-Bold-6e" transform="translate(518.798828 0)"/>
      <use xlink:href="#DejaVuSans-Bold-20" transform="translate(589.990234 0)"/>
      <use xlink:href="#DejaVuSans-Bold-5b" transform="translate(624.804688 0)"/>
      <use xlink:href="#DejaVuSans-Bold-b5" transform="translate(670.507812 0)"/>
      <use xlink:href="#DejaVuSans-Bold-4d" transform="translate(744.091797 0)"/>
      <use xlink:href="#DejaVuSans-Bold-5d" transform="translate(843.603516 0)"/>
     </g>
    </g>
   </g>
   <g id="line2d_13">
    <path d="M 72.603295 309.286957 
L 72.780841 305.296437 
L 73.313477 276.635189 
L 73.668568 268.512811 
L 73.846114 267.550276 
L 74.023659 268.030956 
L 74.37875 271.682418 
L 75.976659 292.929348 
L 76.509295 297.001979 
L 77.041932 299.748406 
L 77.574568 301.556212 
L 78.107205 302.730719 
L 78.639841 303.488646 
L 79.350023 304.096587 
L 80.23775 304.492276 
L 81.480568 304.729936 
L 83.611114 304.8519 
L 91.778205 304.949712 
L 199.193205 305.853561 
L 321.344477 306.655006 
L 427.694205 307.198901 
L 427.694205 307.198901 
" clip-path="url(#p955cda01d8)" style="fill: none; stroke: #1f77b4; stroke-width: 2; stroke-linecap: square"/>
   </g>
   <g id="line2d_14">
    <path d="M 73.786932 268.2 
L 74.970568 221.243478 
M 79.705114 233.765217 
L 82.072386 247.852174 
L 86.806932 271.721739 
L 91.541477 276.808696 
L 101.010568 286.591304 
L 102.194205 288.156522 
L 103.377841 287.373913 
L 105.745114 304.2 
" clip-path="url(#p955cda01d8)" style="fill: none; stroke-dasharray: 3.7,1.6; stroke-dashoffset: 0; stroke: #1f77b4"/>
    <defs>
     <path id="mee1e247a23" d="M -3 3 
L 3 3 
L 3 -3 
L -3 -3 
z
" style="stroke: #000000; stroke-linejoin: miter"/>
    </defs>
    <g clip-path="url(#p955cda01d8)">
     <use xlink:href="#mee1e247a23" x="73.786932" y="268.2" style="fill: #1f77b4; stroke: #000000; stroke-linejoin: miter"/>
     <use xlink:href="#mee1e247a23" x="74.970568" y="221.243478" style="fill: #1f77b4; stroke: #000000; stroke-linejoin: miter"/>
     <use xlink:href="#mee1e247a23" x="79.705114" y="233.765217" style="fill: #1f77b4; stroke: #000000; stroke-linejoin: miter"/>
     <use xlink:href="#mee1e247a23" x="82.072386" y="247.852174" style="fill: #1f77b4; stroke: #000000; stroke-linejoin: miter"/>
     <use xlink:href="#mee1e247a23" x="86.806932" y="271.721739" style="fill: #1f77b4; stroke: #000000; stroke-linejoin: miter"/>
     <use xlink:href="#mee1e247a23" x="91.541477" y="276.808696" style="fill: #1f77b4; stroke: #000000; stroke-linejoin: miter"/>
     <use xlink:href="#mee1e247a23" x="101.010568" y="286.591304" style="fill: #1f77b4; stroke: #000000; stroke-linejoin: miter"/>
     <use xlink:href="#mee1e247a23" x="102.194205" y="288.156522" style="fill: #1f77b4; stroke: #000000; stroke-linejoin: miter"/>
     <use xlink:href="#mee1e247a23" x="103.377841" y="287.373913" style="fill: #1f77b4; stroke: #000000; stroke-linejoin: miter"/>
     <use xlink:href="#mee1e247a23" x="105.745114" y="304.2" style="fill: #1f77b4; stroke: #000000; stroke-linejoin: miter"/>
    </g>
   </g>
   <g id="line2d_15">
    <path d="M 72.603295 309.286957 
L 72.780841 305.085452 
L 73.313477 275.365804 
L 73.668568 267.153133 
L 73.846114 266.269362 
L 74.023659 266.867791 
L 74.37875 270.783914 
L 75.799114 290.859365 
L 76.33175 295.504378 
L 76.864386 298.658685 
L 77.397023 300.741609 
L 77.929659 302.09675 
L 78.462295 302.971687 
L 79.172477 303.673476 
L 79.882659 304.063255 
L 80.947932 304.350774 
L 82.545841 304.507701 
L 86.629386 304.597204 
L 146.994841 305.176737 
L 257.96075 306.059951 
L 383.840477 306.834629 
L 427.694205 307.05833 
L 427.694205 307.05833 
" clip-path="url(#p955cda01d8)" style="fill: none; stroke: #d62728; stroke-width: 2; stroke-linecap: square"/>
   </g>
   <g id="line2d_16">
    <path d="M 73.786932 234.93913 
L 74.970568 166.46087 
L 77.337841 90.156522 
L 79.705114 178.591304 
M 86.806932 209.895652 
L 91.541477 218.113043 
L 101.010568 251.373913 
M 103.377841 254.895652 
L 105.745114 258.026087 
L 108.112386 260.765217 
M 115.214205 269.765217 
L 119.94875 269.765217 
L 129.417841 277.591304 
" clip-path="url(#p955cda01d8)" style="fill: none; stroke-dasharray: 3.7,1.6; stroke-dashoffset: 0; stroke: #d62728"/>
    <defs>
     <path id="me491c9f066" d="M -3 3 
L 3 3 
L 3 -3 
L -3 -3 
z
" style="stroke: #000000; stroke-linejoin: miter"/>
    </defs>
    <g clip-path="url(#p955cda01d8)">
     <use xlink:href="#me491c9f066" x="73.786932" y="234.93913" style="fill: #d62728; stroke: #000000; stroke-linejoin: miter"/>
     <use xlink:href="#me491c9f066" x="74.970568" y="166.46087" style="fill: #d62728; stroke: #000000; stroke-linejoin: miter"/>
     <use xlink:href="#me491c9f066" x="77.337841" y="90.156522" style="fill: #d62728; stroke: #000000; stroke-linejoin: miter"/>
     <use xlink:href="#me491c9f066" x="79.705114" y="178.591304" style="fill: #d62728; stroke: #000000; stroke-linejoin: miter"/>
     <use xlink:href="#me491c9f066" x="86.806932" y="209.895652" style="fill: #d62728; stroke: #000000; stroke-linejoin: miter"/>
     <use xlink:href="#me491c9f066" x="91.541477" y="218.113043" style="fill: #d62728; stroke: #000000; stroke-linejoin: miter"/>
     <use xlink:href="#me491c9f066" x="101.010568" y="251.373913" style="fill: #d62728; stroke: #000000; stroke-linejoin: miter"/>
     <use xlink:href="#me491c9f066" x="103.377841" y="254.895652" style="fill: #d62728; stroke: #000000; stroke-linejoin: miter"/>
     <use xlink:href="#me491c9f066" x="105.745114" y="258.026087" style="fill: #d62728; stroke: #000000; stroke-linejoin: miter"/>
     <use xlink:href="#me491c9f066" x="108.112386" y="260.765217" style="fill: #d62728; stroke: #000000; stroke-linejoin: miter"/>
     <use xlink:href="#me491c9f066" x="115.214205" y="269.765217" style="fill: #d62728; stroke: #000000; stroke-linejoin: miter"/>
     <use xlink:href="#me491c9f066" x="119.94875" y="269.765217" style="fill: #d62728; stroke: #000000; stroke-linejoin: miter"/>
     <use xlink:href="#me491c9f066" x="129.417841" y="277.591304" style="fill: #d62728; stroke: #000000; stroke-linejoin: miter"/>
    </g>
   </g>
   <g id="line2d_17">
    <path d="M 72.603295 309.286957 
L 72.780841 305.055464 
L 73.313477 275.186252 
L 73.668568 266.961591 
L 73.846114 266.089148 
L 74.023659 266.704217 
L 74.37875 270.65728 
L 75.799114 290.808503 
L 76.33175 295.45921 
L 76.864386 298.615344 
L 77.397023 300.698606 
L 77.929659 302.053618 
L 78.462295 302.928344 
L 79.172477 303.629916 
L 79.882659 304.019578 
L 80.947932 304.307058 
L 82.545841 304.464066 
L 86.629386 304.55394 
L 146.817295 305.137341 
L 257.250568 306.025439 
L 382.420114 306.804737 
L 427.694205 307.038201 
L 427.694205 307.038201 
" clip-path="url(#p955cda01d8)" style="fill: none; stroke: #2ca02c; stroke-width: 2; stroke-linecap: square"/>
   </g>
   <g id="line2d_18">
    <path d="M 73.786932 285.026087 
L 74.970568 260.373913 
L 77.337841 259.982609 
L 79.705114 265.852174 
M 86.806932 285.026087 
L 91.541477 291.286957 
L 101.010568 294.026087 
M 103.377841 295.982609 
L 105.745114 296.373913 
L 108.112386 297.93913 
M 115.214205 299.113043 
L 119.94875 298.721739 
L 129.417841 299.895652 
" clip-path="url(#p955cda01d8)" style="fill: none; stroke-dasharray: 3.7,1.6; stroke-dashoffset: 0; stroke: #2ca02c"/>
    <defs>
     <path id="m30b8cb69c4" d="M -3 3 
L 3 3 
L 3 -3 
L -3 -3 
z
" style="stroke: #000000; stroke-linejoin: miter"/>
    </defs>
    <g clip-path="url(#p955cda01d8)">
     <use xlink:href="#m30b8cb69c4" x="73.786932" y="285.026087" style="fill: #2ca02c; stroke: #000000; stroke-linejoin: miter"/>
     <use xlink:href="#m30b8cb69c4" x="74.970568" y="260.373913" style="fill: #2ca02c; stroke: #000000; stroke-linejoin: miter"/>
     <use xlink:href="#m30b8cb69c4" x="77.337841" y="259.982609" style="fill: #2ca02c; stroke: #000000; stroke-linejoin: miter"/>
     <use xlink:href="#m30b8cb69c4" x="79.705114" y="265.852174" style="fill: #2ca02c; stroke: #000000; stroke-linejoin: miter"/>
     <use xlink:href="#m30b8cb69c4" x="86.806932" y="285.026087" style="fill: #2ca02c; stroke: #000000; stroke-linejoin: miter"/>
     <use xlink:href="#m30b8cb69c4" x="91.541477" y="291.286957" style="fill: #2ca02c; stroke: #000000; stroke-linejoin: miter"/>
     <use xlink:href="#m30b8cb69c4" x="101.010568" y="294.026087" style="fill: #2ca02c; stroke: #000000; stroke-linejoin: miter"/>
     <use xlink:href="#m30b8cb69c4" x="103.377841" y="295.982609" style="fill: #2ca02c; stroke: #000000; stroke-linejoin: miter"/>
     <use xlink:href="#m30b8cb69c4" x="105.745114" y="296.373913" style="fill: #2ca02c; stroke: #000000; stroke-linejoin: miter"/>
     <use xlink:href="#m30b8cb69c4" x="108.112386" y="297.93913" style="fill: #2ca02c; stroke: #000000; stroke-linejoin: miter"/>
     <use xlink:href="#m30b8cb69c4" x="115.214205" y="299.113043" style="fill: #2ca02c; stroke: #000000; stroke-linejoin: miter"/>
     <use xlink:href="#m30b8cb69c4" x="119.94875" y="298.721739" style="fill: #2ca02c; stroke: #000000; stroke-linejoin: miter"/>
     <use xlink:href="#m30b8cb69c4" x="129.417841" y="299.895652" style="fill: #2ca02c; stroke: #000000; stroke-linejoin: miter"/>
    </g>
   </g>
   <g id="line2d_19">
    <path d="M 72.603295 309.286957 
L 72.780841 305.009594 
L 73.313477 274.912016 
L 73.668568 266.669397 
L 73.846114 265.814333 
L 74.023659 266.454799 
L 74.37875 270.464036 
L 75.799114 290.730063 
L 76.33175 295.38948 
L 76.864386 298.548495 
L 77.397023 300.632376 
L 77.929659 301.987281 
L 78.462295 302.861752 
L 79.172477 303.563051 
L 79.882659 303.952572 
L 80.947932 304.240019 
L 82.545841 304.397164 
L 86.629386 304.487612 
L 146.63975 305.077753 
L 256.185295 305.9725 
L 380.289568 306.758847 
L 427.694205 307.007342 
L 427.694205 307.007342 
" clip-path="url(#p955cda01d8)" style="fill: none; stroke: #ff7f0e; stroke-width: 2; stroke-linecap: square"/>
   </g>
   <g id="line2d_20">
    <path d="M 74.970568 232.2 
L 77.337841 207.547826 
L 79.705114 217.330435 
L 82.072386 251.765217 
L 86.806932 241.982609 
L 91.541477 270.156522 
L 101.010568 282.678261 
L 102.194205 281.113043 
L 103.377841 281.895652 
L 105.745114 288.156522 
L 108.112386 286.2 
L 110.479659 287.373913 
L 115.214205 289.721739 
L 119.94875 295.2 
" clip-path="url(#p955cda01d8)" style="fill: none; stroke-dasharray: 3.7,1.6; stroke-dashoffset: 0; stroke: #ff7f0e"/>
    <defs>
     <path id="mde9964f209" d="M -3 3 
L 3 3 
L 3 -3 
L -3 -3 
z
" style="stroke: #000000; stroke-linejoin: miter"/>
    </defs>
    <g clip-path="url(#p955cda01d8)">
     <use xlink:href="#mde9964f209" x="74.970568" y="232.2" style="fill: #ff7f0e; stroke: #000000; stroke-linejoin: miter"/>
     <use xlink:href="#mde9964f209" x="77.337841" y="207.547826" style="fill: #ff7f0e; stroke: #000000; stroke-linejoin: miter"/>
     <use xlink:href="#mde9964f209" x="79.705114" y="217.330435" style="fill: #ff7f0e; stroke: #000000; stroke-linejoin: miter"/>
     <use xlink:href="#mde9964f209" x="82.072386" y="251.765217" style="fill: #ff7f0e; stroke: #000000; stroke-linejoin: miter"/>
     <use xlink:href="#mde9964f209" x="86.806932" y="241.982609" style="fill: #ff7f0e; stroke: #000000; stroke-linejoin: miter"/>
     <use xlink:href="#mde9964f209" x="91.541477" y="270.156522" style="fill: #ff7f0e; stroke: #000000; stroke-linejoin: miter"/>
     <use xlink:href="#mde9964f209" x="101.010568" y="282.678261" style="fill: #ff7f0e; stroke: #000000; stroke-linejoin: miter"/>
     <use xlink:href="#mde9964f209" x="102.194205" y="281.113043" style="fill: #ff7f0e; stroke: #000000; stroke-linejoin: miter"/>
     <use xlink:href="#mde9964f209" x="103.377841" y="281.895652" style="fill: #ff7f0e; stroke: #000000; stroke-linejoin: miter"/>
     <use xlink:href="#mde9964f209" x="105.745114" y="288.156522" style="fill: #ff7f0e; stroke: #000000; stroke-linejoin: miter"/>
     <use xlink:href="#mde9964f209" x="108.112386" y="286.2" style="fill: #ff7f0e; stroke: #000000; stroke-linejoin: miter"/>
     <use xlink:href="#mde9964f209" x="110.479659" y="287.373913" style="fill: #ff7f0e; stroke: #000000; stroke-linejoin: miter"/>
     <use xlink:href="#mde9964f209" x="115.214205" y="289.721739" style="fill: #ff7f0e; stroke: #000000; stroke-linejoin: miter"/>
     <use xlink:href="#mde9964f209" x="119.94875" y="295.2" style="fill: #ff7f0e; stroke: #000000; stroke-linejoin: miter"/>
    </g>
   </g>
   <g id="patch_3">
    <path d="M 54.84875 320.243478 
L 54.84875 79.2 
" style="fill: none; stroke: #000000; stroke-width: 0.8; stroke-linejoin: miter; stroke-linecap: square"/>
   </g>
   <g id="patch_4">
    <path d="M 445.44875 320.243478 
L 445.44875 79.2 
" style="fill: none; stroke: #000000; stroke-width: 0.8; stroke-linejoin: miter; stroke-linecap: square"/>
   </g>
   <g id="patch_5">
    <path d="M 54.84875 320.243478 
L 445.44875 320.243478 
" style="fill: none; stroke: #000000; stroke-width: 0.8; stroke-linejoin: miter; stroke-linecap: square"/>
   </g>
   <g id="patch_6">
    <path d="M 54.84875 79.2 
L 445.44875 79.2 
" style="fill: none; stroke: #000000; stroke-width: 0.8; stroke-linejoin: miter; stroke-linecap: square"/>
   </g>
   <g id="legend_1">
    <g id="patch_7">
     <path d="M 468.07275 204.625 
L 557.793063 204.625 
Q 559.793063 204.625 559.793063 202.625 
L 559.793063 86.2 
Q 559.793063 84.2 557.793063 84.2 
L 468.07275 84.2 
Q 466.07275 84.2 466.07275 86.2 
L 466.07275 202.625 
Q 466.07275 204.625 468.07275 204.625 
z
" style="fill: #ffffff; opacity: 0.8; stroke: #cccccc; stroke-linejoin: miter"/>
    </g>
    <g id="line2d_21">
     <path d="M 470.07275 92.298437 
L 490.07275 92.298437 
" style="fill: none; stroke: #1f77b4; stroke-width: 2; stroke-linecap: square"/>
    </g>
    <g id="line2d_22"/>
    <g id="text_15">
     <!-- PRE5 -->
     <g transform="translate(498.07275 95.798437) scale(0.1 -0.1)">
      <defs>
       <path id="DejaVuSans-50" d="M 1259 4147 
L 1259 2394 
L 2053 2394 
Q 2494 2394 2734 2622 
Q 2975 2850 2975 3272 
Q 2975 3691 2734 3919 
Q 2494 4147 2053 4147 
L 1259 4147 
z
M 628 4666 
L 2053 4666 
Q 2838 4666 3239 4311 
Q 3641 3956 3641 3272 
Q 3641 2581 3239 2228 
Q 2838 1875 2053 1875 
L 1259 1875 
L 1259 0 
L 628 0 
L 628 4666 
z
" transform="scale(0.015625)"/>
       <path id="DejaVuSans-52" d="M 2841 2188 
Q 3044 2119 3236 1894 
Q 3428 1669 3622 1275 
L 4263 0 
L 3584 0 
L 2988 1197 
Q 2756 1666 2539 1819 
Q 2322 1972 1947 1972 
L 1259 1972 
L 1259 0 
L 628 0 
L 628 4666 
L 2053 4666 
Q 2853 4666 3247 4331 
Q 3641 3997 3641 3322 
Q 3641 2881 3436 2590 
Q 3231 2300 2841 2188 
z
M 1259 4147 
L 1259 2491 
L 2053 2491 
Q 2509 2491 2742 2702 
Q 2975 2913 2975 3322 
Q 2975 3731 2742 3939 
Q 2509 4147 2053 4147 
L 1259 4147 
z
" transform="scale(0.015625)"/>
       <path id="DejaVuSans-45" d="M 628 4666 
L 3578 4666 
L 3578 4134 
L 1259 4134 
L 1259 2753 
L 3481 2753 
L 3481 2222 
L 1259 2222 
L 1259 531 
L 3634 531 
L 3634 0 
L 628 0 
L 628 4666 
z
" transform="scale(0.015625)"/>
      </defs>
      <use xlink:href="#DejaVuSans-50"/>
      <use xlink:href="#DejaVuSans-52" transform="translate(60.302734 0)"/>
      <use xlink:href="#DejaVuSans-45" transform="translate(129.785156 0)"/>
      <use xlink:href="#DejaVuSans-35" transform="translate(192.96875 0)"/>
     </g>
    </g>
    <g id="line2d_23">
     <path d="M 470.07275 106.976562 
L 490.07275 106.976562 
" style="fill: none; stroke-dasharray: 3.7,1.6; stroke-dashoffset: 0; stroke: #1f77b4"/>
    </g>
    <g id="line2d_24">
     <g>
      <use xlink:href="#mee1e247a23" x="480.07275" y="106.976562" style="fill: #1f77b4; stroke: #000000; stroke-linejoin: miter"/>
     </g>
    </g>
    <g id="text_16">
     <!-- PRE5 (n=1) -->
     <g transform="translate(498.07275 110.476562) scale(0.1 -0.1)">
      <defs>
       <path id="DejaVuSans-20" transform="scale(0.015625)"/>
       <path id="DejaVuSans-28" d="M 1984 4856 
Q 1566 4138 1362 3434 
Q 1159 2731 1159 2009 
Q 1159 1288 1364 580 
Q 1569 -128 1984 -844 
L 1484 -844 
Q 1016 -109 783 600 
Q 550 1309 550 2009 
Q 550 2706 781 3412 
Q 1013 4119 1484 4856 
L 1984 4856 
z
" transform="scale(0.015625)"/>
       <path id="DejaVuSans-6e" d="M 3513 2113 
L 3513 0 
L 2938 0 
L 2938 2094 
Q 2938 2591 2744 2837 
Q 2550 3084 2163 3084 
Q 1697 3084 1428 2787 
Q 1159 2491 1159 1978 
L 1159 0 
L 581 0 
L 581 3500 
L 1159 3500 
L 1159 2956 
Q 1366 3272 1645 3428 
Q 1925 3584 2291 3584 
Q 2894 3584 3203 3211 
Q 3513 2838 3513 2113 
z
" transform="scale(0.015625)"/>
       <path id="DejaVuSans-3d" d="M 678 2906 
L 4684 2906 
L 4684 2381 
L 678 2381 
L 678 2906 
z
M 678 1631 
L 4684 1631 
L 4684 1100 
L 678 1100 
L 678 1631 
z
" transform="scale(0.015625)"/>
       <path id="DejaVuSans-29" d="M 513 4856 
L 1013 4856 
Q 1481 4119 1714 3412 
Q 1947 2706 1947 2009 
Q 1947 1309 1714 600 
Q 1481 -109 1013 -844 
L 513 -844 
Q 928 -128 1133 580 
Q 1338 1288 1338 2009 
Q 1338 2731 1133 3434 
Q 928 4138 513 4856 
z
" transform="scale(0.015625)"/>
      </defs>
      <use xlink:href="#DejaVuSans-50"/>
      <use xlink:href="#DejaVuSans-52" transform="translate(60.302734 0)"/>
      <use xlink:href="#DejaVuSans-45" transform="translate(129.785156 0)"/>
      <use xlink:href="#DejaVuSans-35" transform="translate(192.96875 0)"/>
      <use xlink:href="#DejaVuSans-20" transform="translate(256.591797 0)"/>
      <use xlink:href="#DejaVuSans-28" transform="translate(288.378906 0)"/>
      <use xlink:href="#DejaVuSans-6e" transform="translate(327.392578 0)"/>
      <use xlink:href="#DejaVuSans-3d" transform="translate(390.771484 0)"/>
      <use xlink:href="#DejaVuSans-31" transform="translate(474.560547 0)"/>
      <use xlink:href="#DejaVuSans-29" transform="translate(538.183594 0)"/>
     </g>
    </g>
    <g id="line2d_25">
     <path d="M 470.07275 121.654687 
L 490.07275 121.654687 
" style="fill: none; stroke: #d62728; stroke-width: 2; stroke-linecap: square"/>
    </g>
    <g id="line2d_26"/>
    <g id="text_17">
     <!-- PRE6 -->
     <g transform="translate(498.07275 125.154687) scale(0.1 -0.1)">
      <defs>
       <path id="DejaVuSans-36" d="M 2113 2584 
Q 1688 2584 1439 2293 
Q 1191 2003 1191 1497 
Q 1191 994 1439 701 
Q 1688 409 2113 409 
Q 2538 409 2786 701 
Q 3034 994 3034 1497 
Q 3034 2003 2786 2293 
Q 2538 2584 2113 2584 
z
M 3366 4563 
L 3366 3988 
Q 3128 4100 2886 4159 
Q 2644 4219 2406 4219 
Q 1781 4219 1451 3797 
Q 1122 3375 1075 2522 
Q 1259 2794 1537 2939 
Q 1816 3084 2150 3084 
Q 2853 3084 3261 2657 
Q 3669 2231 3669 1497 
Q 3669 778 3244 343 
Q 2819 -91 2113 -91 
Q 1303 -91 875 529 
Q 447 1150 447 2328 
Q 447 3434 972 4092 
Q 1497 4750 2381 4750 
Q 2619 4750 2861 4703 
Q 3103 4656 3366 4563 
z
" transform="scale(0.015625)"/>
      </defs>
      <use xlink:href="#DejaVuSans-50"/>
      <use xlink:href="#DejaVuSans-52" transform="translate(60.302734 0)"/>
      <use xlink:href="#DejaVuSans-45" transform="translate(129.785156 0)"/>
      <use xlink:href="#DejaVuSans-36" transform="translate(192.96875 0)"/>
     </g>
    </g>
    <g id="line2d_27">
     <path d="M 470.07275 136.332812 
L 490.07275 136.332812 
" style="fill: none; stroke-dasharray: 3.7,1.6; stroke-dashoffset: 0; stroke: #d62728"/>
    </g>
    <g id="line2d_28">
     <g>
      <use xlink:href="#me491c9f066" x="480.07275" y="136.332812" style="fill: #d62728; stroke: #000000; stroke-linejoin: miter"/>
     </g>
    </g>
    <g id="text_18">
     <!-- PRE6 (n=1) -->
     <g transform="translate(498.07275 139.832812) scale(0.1 -0.1)">
      <use xlink:href="#DejaVuSans-50"/>
      <use xlink:href="#DejaVuSans-52" transform="translate(60.302734 0)"/>
      <use xlink:href="#DejaVuSans-45" transform="translate(129.785156 0)"/>
      <use xlink:href="#DejaVuSans-36" transform="translate(192.96875 0)"/>
      <use xlink:href="#DejaVuSans-20" transform="translate(256.591797 0)"/>
      <use xlink:href="#DejaVuSans-28" transform="translate(288.378906 0)"/>
      <use xlink:href="#DejaVuSans-6e" transform="translate(327.392578 0)"/>
      <use xlink:href="#DejaVuSans-3d" transform="translate(390.771484 0)"/>
      <use xlink:href="#DejaVuSans-31" transform="translate(474.560547 0)"/>
      <use xlink:href="#DejaVuSans-29" transform="translate(538.183594 0)"/>
     </g>
    </g>
    <g id="line2d_29">
     <path d="M 470.07275 151.010937 
L 490.07275 151.010937 
" style="fill: none; stroke: #2ca02c; stroke-width: 2; stroke-linecap: square"/>
    </g>
    <g id="line2d_30"/>
    <g id="text_19">
     <!-- PRE7 -->
     <g transform="translate(498.07275 154.510937) scale(0.1 -0.1)">
      <use xlink:href="#DejaVuSans-50"/>
      <use xlink:href="#DejaVuSans-52" transform="translate(60.302734 0)"/>
      <use xlink:href="#DejaVuSans-45" transform="translate(129.785156 0)"/>
      <use xlink:href="#DejaVuSans-37" transform="translate(192.96875 0)"/>
     </g>
    </g>
    <g id="line2d_31">
     <path d="M 470.07275 165.689062 
L 490.07275 165.689062 
" style="fill: none; stroke-dasharray: 3.7,1.6; stroke-dashoffset: 0; stroke: #2ca02c"/>
    </g>
    <g id="line2d_32">
     <g>
      <use xlink:href="#m30b8cb69c4" x="480.07275" y="165.689062" style="fill: #2ca02c; stroke: #000000; stroke-linejoin: miter"/>
     </g>
    </g>
    <g id="text_20">
     <!-- PRE7 (n=1) -->
     <g transform="translate(498.07275 169.189062) scale(0.1 -0.1)">
      <use xlink:href="#DejaVuSans-50"/>
      <use xlink:href="#DejaVuSans-52" transform="translate(60.302734 0)"/>
      <use xlink:href="#DejaVuSans-45" transform="translate(129.785156 0)"/>
      <use xlink:href="#DejaVuSans-37" transform="translate(192.96875 0)"/>
      <use xlink:href="#DejaVuSans-20" transform="translate(256.591797 0)"/>
      <use xlink:href="#DejaVuSans-28" transform="translate(288.378906 0)"/>
      <use xlink:href="#DejaVuSans-6e" transform="translate(327.392578 0)"/>
      <use xlink:href="#DejaVuSans-3d" transform="translate(390.771484 0)"/>
      <use xlink:href="#DejaVuSans-31" transform="translate(474.560547 0)"/>
      <use xlink:href="#DejaVuSans-29" transform="translate(538.183594 0)"/>
     </g>
    </g>
    <g id="line2d_33">
     <path d="M 470.07275 180.367187 
L 490.07275 180.367187 
" style="fill: none; stroke: #ff7f0e; stroke-width: 2; stroke-linecap: square"/>
    </g>
    <g id="line2d_34"/>
    <g id="text_21">
     <!-- PRE8 -->
     <g transform="translate(498.07275 183.867187) scale(0.1 -0.1)">
      <defs>
       <path id="DejaVuSans-38" d="M 2034 2216 
Q 1584 2216 1326 1975 
Q 1069 1734 1069 1313 
Q 1069 891 1326 650 
Q 1584 409 2034 409 
Q 2484 409 2743 651 
Q 3003 894 3003 1313 
Q 3003 1734 2745 1975 
Q 2488 2216 2034 2216 
z
M 1403 2484 
Q 997 2584 770 2862 
Q 544 3141 544 3541 
Q 544 4100 942 4425 
Q 1341 4750 2034 4750 
Q 2731 4750 3128 4425 
Q 3525 4100 3525 3541 
Q 3525 3141 3298 2862 
Q 3072 2584 2669 2484 
Q 3125 2378 3379 2068 
Q 3634 1759 3634 1313 
Q 3634 634 3220 271 
Q 2806 -91 2034 -91 
Q 1263 -91 848 271 
Q 434 634 434 1313 
Q 434 1759 690 2068 
Q 947 2378 1403 2484 
z
M 1172 3481 
Q 1172 3119 1398 2916 
Q 1625 2713 2034 2713 
Q 2441 2713 2670 2916 
Q 2900 3119 2900 3481 
Q 2900 3844 2670 4047 
Q 2441 4250 2034 4250 
Q 1625 4250 1398 4047 
Q 1172 3844 1172 3481 
z
" transform="scale(0.015625)"/>
      </defs>
      <use xlink:href="#DejaVuSans-50"/>
      <use xlink:href="#DejaVuSans-52" transform="translate(60.302734 0)"/>
      <use xlink:href="#DejaVuSans-45" transform="translate(129.785156 0)"/>
      <use xlink:href="#DejaVuSans-38" transform="translate(192.96875 0)"/>
     </g>
    </g>
    <g id="line2d_35">
     <path d="M 470.07275 195.045312 
L 490.07275 195.045312 
" style="fill: none; stroke-dasharray: 3.7,1.6; stroke-dashoffset: 0; stroke: #ff7f0e"/>
    </g>
    <g id="line2d_36">
     <g>
      <use xlink:href="#mde9964f209" x="480.07275" y="195.045312" style="fill: #ff7f0e; stroke: #000000; stroke-linejoin: miter"/>
     </g>
    </g>
    <g id="text_22">
     <!-- PRE8 (n=1) -->
     <g transform="translate(498.07275 198.545312) scale(0.1 -0.1)">
      <use xlink:href="#DejaVuSans-50"/>
      <use xlink:href="#DejaVuSans-52" transform="translate(60.302734 0)"/>
      <use xlink:href="#DejaVuSans-45" transform="translate(129.785156 0)"/>
      <use xlink:href="#DejaVuSans-38" transform="translate(192.96875 0)"/>
      <use xlink:href="#DejaVuSans-20" transform="translate(256.591797 0)"/>
      <use xlink:href="#DejaVuSans-28" transform="translate(288.378906 0)"/>
      <use xlink:href="#DejaVuSans-6e" transform="translate(327.392578 0)"/>
      <use xlink:href="#DejaVuSans-3d" transform="translate(390.771484 0)"/>
      <use xlink:href="#DejaVuSans-31" transform="translate(474.560547 0)"/>
      <use xlink:href="#DejaVuSans-29" transform="translate(538.183594 0)"/>
     </g>
    </g>
   </g>
  </g>
  <g id="axes_2">
   <g id="patch_8">
    <path d="M 54.84875 633.6 
L 445.44875 633.6 
L 445.44875 392.556522 
L 54.84875 392.556522 
z
" style="fill: #ffffff"/>
   </g>
   <g id="matplotlib.axis_3">
    <g id="xtick_8">
     <g id="line2d_37">
      <g>
       <use xlink:href="#m2324ac8a43" x="62.820179" y="633.6" style="stroke: #000000; stroke-width: 0.8"/>
      </g>
     </g>
     <g id="text_23">
      <!-- 0 -->
      <g transform="translate(58.048304 651.997656) scale(0.15 -0.15)">
       <use xlink:href="#DejaVuSans-30"/>
      </g>
     </g>
    </g>
    <g id="xtick_9">
     <g id="line2d_38">
      <g>
       <use xlink:href="#m2324ac8a43" x="142.534464" y="633.6" style="stroke: #000000; stroke-width: 0.8"/>
      </g>
     </g>
     <g id="text_24">
      <!-- 10 -->
      <g transform="translate(132.990714 651.997656) scale(0.15 -0.15)">
       <use xlink:href="#DejaVuSans-31"/>
       <use xlink:href="#DejaVuSans-30" transform="translate(63.623047 0)"/>
      </g>
     </g>
    </g>
    <g id="xtick_10">
     <g id="line2d_39">
      <g>
       <use xlink:href="#m2324ac8a43" x="222.24875" y="633.6" style="stroke: #000000; stroke-width: 0.8"/>
      </g>
     </g>
     <g id="text_25">
      <!-- 20 -->
      <g transform="translate(212.705 651.997656) scale(0.15 -0.15)">
       <use xlink:href="#DejaVuSans-32"/>
       <use xlink:href="#DejaVuSans-30" transform="translate(63.623047 0)"/>
      </g>
     </g>
    </g>
    <g id="xtick_11">
     <g id="line2d_40">
      <g>
       <use xlink:href="#m2324ac8a43" x="301.963036" y="633.6" style="stroke: #000000; stroke-width: 0.8"/>
      </g>
     </g>
     <g id="text_26">
      <!-- 30 -->
      <g transform="translate(292.419286 651.997656) scale(0.15 -0.15)">
       <use xlink:href="#DejaVuSans-33"/>
       <use xlink:href="#DejaVuSans-30" transform="translate(63.623047 0)"/>
      </g>
     </g>
    </g>
    <g id="xtick_12">
     <g id="line2d_41">
      <g>
       <use xlink:href="#m2324ac8a43" x="381.677321" y="633.6" style="stroke: #000000; stroke-width: 0.8"/>
      </g>
     </g>
     <g id="text_27">
      <!-- 40 -->
      <g transform="translate(372.133571 651.997656) scale(0.15 -0.15)">
       <use xlink:href="#DejaVuSans-34"/>
       <use xlink:href="#DejaVuSans-30" transform="translate(63.623047 0)"/>
      </g>
     </g>
    </g>
    <g id="text_28">
     <!-- time [hr] -->
     <g transform="translate(205.074219 672.794375) scale(0.18 -0.18)">
      <use xlink:href="#DejaVuSans-Bold-74"/>
      <use xlink:href="#DejaVuSans-Bold-69" transform="translate(47.802734 0)"/>
      <use xlink:href="#DejaVuSans-Bold-6d" transform="translate(82.080078 0)"/>
      <use xlink:href="#DejaVuSans-Bold-65" transform="translate(186.279297 0)"/>
      <use xlink:href="#DejaVuSans-Bold-20" transform="translate(254.101562 0)"/>
      <use xlink:href="#DejaVuSans-Bold-5b" transform="translate(288.916016 0)"/>
      <use xlink:href="#DejaVuSans-Bold-68" transform="translate(334.619141 0)"/>
      <use xlink:href="#DejaVuSans-Bold-72" transform="translate(405.810547 0)"/>
      <use xlink:href="#DejaVuSans-Bold-5d" transform="translate(455.126953 0)"/>
     </g>
    </g>
   </g>
   <g id="matplotlib.axis_4">
    <g id="ytick_6">
     <g id="line2d_42">
      <g>
       <use xlink:href="#m6b92b7debb" x="54.84875" y="622.643478" style="stroke: #000000; stroke-width: 0.8"/>
      </g>
     </g>
     <g id="text_29">
      <!-- 0 -->
      <g transform="translate(38.305 628.342306) scale(0.15 -0.15)">
       <use xlink:href="#DejaVuSans-30"/>
      </g>
     </g>
    </g>
    <g id="ytick_7">
     <g id="line2d_43">
      <g>
       <use xlink:href="#m6b92b7debb" x="54.84875" y="565.408368" style="stroke: #000000; stroke-width: 0.8"/>
      </g>
     </g>
     <g id="text_30">
      <!-- 10 -->
      <g transform="translate(28.76125 571.107196) scale(0.15 -0.15)">
       <use xlink:href="#DejaVuSans-31"/>
       <use xlink:href="#DejaVuSans-30" transform="translate(63.623047 0)"/>
      </g>
     </g>
    </g>
    <g id="ytick_8">
     <g id="line2d_44">
      <g>
       <use xlink:href="#m6b92b7debb" x="54.84875" y="508.173258" style="stroke: #000000; stroke-width: 0.8"/>
      </g>
     </g>
     <g id="text_31">
      <!-- 20 -->
      <g transform="translate(28.76125 513.872086) scale(0.15 -0.15)">
       <use xlink:href="#DejaVuSans-32"/>
       <use xlink:href="#DejaVuSans-30" transform="translate(63.623047 0)"/>
      </g>
     </g>
    </g>
    <g id="ytick_9">
     <g id="line2d_45">
      <g>
       <use xlink:href="#m6b92b7debb" x="54.84875" y="450.938147" style="stroke: #000000; stroke-width: 0.8"/>
      </g>
     </g>
     <g id="text_32">
      <!-- 30 -->
      <g transform="translate(28.76125 456.636976) scale(0.15 -0.15)">
       <use xlink:href="#DejaVuSans-33"/>
       <use xlink:href="#DejaVuSans-30" transform="translate(63.623047 0)"/>
      </g>
     </g>
    </g>
    <g id="ytick_10">
     <g id="line2d_46">
      <g>
       <use xlink:href="#m6b92b7debb" x="54.84875" y="393.703037" style="stroke: #000000; stroke-width: 0.8"/>
      </g>
     </g>
     <g id="text_33">
      <!-- 40 -->
      <g transform="translate(28.76125 399.401865) scale(0.15 -0.15)">
       <use xlink:href="#DejaVuSans-34"/>
       <use xlink:href="#DejaVuSans-30" transform="translate(63.623047 0)"/>
      </g>
     </g>
    </g>
    <g id="text_34">
     <!-- rapamycin [µM] -->
     <g transform="translate(20.877188 593.116386) rotate(-90) scale(0.18 -0.18)">
      <use xlink:href="#DejaVuSans-Bold-72"/>
      <use xlink:href="#DejaVuSans-Bold-61" transform="translate(49.316406 0)"/>
      <use xlink:href="#DejaVuSans-Bold-70" transform="translate(116.796875 0)"/>
      <use xlink:href="#DejaVuSans-Bold-61" transform="translate(188.378906 0)"/>
      <use xlink:href="#DejaVuSans-Bold-6d" transform="translate(255.859375 0)"/>
      <use xlink:href="#DejaVuSans-Bold-79" transform="translate(360.058594 0)"/>
      <use xlink:href="#DejaVuSans-Bold-63" transform="translate(425.244141 0)"/>
      <use xlink:href="#DejaVuSans-Bold-69" transform="translate(484.521484 0)"/>
      <use xlink:href="#DejaVuSans-Bold-6e" transform="translate(518.798828 0)"/>
      <use xlink:href="#DejaVuSans-Bold-20" transform="translate(589.990234 0)"/>
      <use xlink:href="#DejaVuSans-Bold-5b" transform="translate(624.804688 0)"/>
      <use xlink:href="#DejaVuSans-Bold-b5" transform="translate(670.507812 0)"/>
      <use xlink:href="#DejaVuSans-Bold-4d" transform="translate(744.091797 0)"/>
      <use xlink:href="#DejaVuSans-Bold-5d" transform="translate(843.603516 0)"/>
     </g>
    </g>
   </g>
   <g id="line2d_47">
    <path d="M 62.820179 622.643478 
L 63.418036 618.652959 
L 64.61375 597.864978 
L 65.211607 589.991711 
L 65.809464 584.748448 
L 66.407321 581.869333 
L 67.005179 580.906798 
L 67.603036 581.387478 
L 68.200893 582.883352 
L 69.396607 587.575625 
L 71.788036 598.183363 
L 72.98375 602.640994 
L 74.179464 606.28587 
L 75.375179 609.168838 
L 76.570893 611.400933 
L 77.766607 613.104927 
L 78.962321 614.393633 
L 80.158036 615.362216 
L 81.35375 616.08724 
L 83.147321 616.845167 
L 84.940893 617.332855 
L 87.332321 617.724021 
L 90.321607 617.979708 
L 95.104464 618.148142 
L 105.865893 618.24105 
L 207.501607 618.525004 
L 446.046607 619.113245 
L 446.046607 619.113245 
" clip-path="url(#pd5ae5b2b39)" style="fill: none; stroke: #1f77b4; stroke-width: 2; stroke-linecap: square"/>
   </g>
   <g id="line2d_48">
    <path d="M 66.805893 581.556522 
L 70.791607 534.6 
M 86.734464 547.121739 
L 94.705893 561.208696 
L 110.64875 585.078261 
L 126.591607 590.165217 
L 158.477321 599.947826 
L 162.463036 601.513043 
L 166.44875 600.730435 
L 174.420179 617.556522 
" clip-path="url(#pd5ae5b2b39)" style="fill: none; stroke-dasharray: 3.7,1.6; stroke-dashoffset: 0; stroke: #1f77b4"/>
    <g clip-path="url(#pd5ae5b2b39)">
     <use xlink:href="#mee1e247a23" x="66.805893" y="581.556522" style="fill: #1f77b4; stroke: #000000; stroke-linejoin: miter"/>
     <use xlink:href="#mee1e247a23" x="70.791607" y="534.6" style="fill: #1f77b4; stroke: #000000; stroke-linejoin: miter"/>
     <use xlink:href="#mee1e247a23" x="86.734464" y="547.121739" style="fill: #1f77b4; stroke: #000000; stroke-linejoin: miter"/>
     <use xlink:href="#mee1e247a23" x="94.705893" y="561.208696" style="fill: #1f77b4; stroke: #000000; stroke-linejoin: miter"/>
     <use xlink:href="#mee1e247a23" x="110.64875" y="585.078261" style="fill: #1f77b4; stroke: #000000; stroke-linejoin: miter"/>
     <use xlink:href="#mee1e247a23" x="126.591607" y="590.165217" style="fill: #1f77b4; stroke: #000000; stroke-linejoin: miter"/>
     <use xlink:href="#mee1e247a23" x="158.477321" y="599.947826" style="fill: #1f77b4; stroke: #000000; stroke-linejoin: miter"/>
     <use xlink:href="#mee1e247a23" x="162.463036" y="601.513043" style="fill: #1f77b4; stroke: #000000; stroke-linejoin: miter"/>
     <use xlink:href="#mee1e247a23" x="166.44875" y="600.730435" style="fill: #1f77b4; stroke: #000000; stroke-linejoin: miter"/>
     <use xlink:href="#mee1e247a23" x="174.420179" y="617.556522" style="fill: #1f77b4; stroke: #000000; stroke-linejoin: miter"/>
    </g>
   </g>
   <g id="line2d_49">
    <path d="M 62.820179 622.643478 
L 63.418036 618.441974 
L 64.61375 596.829658 
L 65.211607 588.722326 
L 65.809464 583.380684 
L 66.407321 580.509654 
L 67.005179 579.625883 
L 67.603036 580.224312 
L 68.200893 581.853009 
L 69.396607 586.798407 
L 71.788036 597.731273 
L 72.98375 602.267558 
L 74.179464 605.956009 
L 75.375179 608.860899 
L 76.570893 611.10255 
L 77.766607 612.809558 
L 78.962321 614.098131 
L 80.158036 615.065291 
L 81.35375 615.788551 
L 83.147321 616.544071 
L 84.940893 617.029998 
L 87.332321 617.419776 
L 90.321607 617.674788 
L 95.104464 617.843365 
L 105.865893 617.938112 
L 207.501607 618.241853 
L 446.046607 618.87167 
L 446.046607 618.87167 
" clip-path="url(#pd5ae5b2b39)" style="fill: none; stroke: #d62728; stroke-width: 2; stroke-linecap: square"/>
   </g>
   <g id="line2d_50">
    <path d="M 66.805893 548.295652 
L 70.791607 479.817391 
L 78.763036 403.513043 
L 86.734464 491.947826 
M 110.64875 523.252174 
L 126.591607 531.469565 
L 158.477321 564.730435 
M 166.44875 568.252174 
L 174.420179 571.382609 
L 182.391607 574.121739 
M 206.305893 583.121739 
L 222.24875 583.121739 
L 254.134464 590.947826 
" clip-path="url(#pd5ae5b2b39)" style="fill: none; stroke-dasharray: 3.7,1.6; stroke-dashoffset: 0; stroke: #d62728"/>
    <g clip-path="url(#pd5ae5b2b39)">
     <use xlink:href="#me491c9f066" x="66.805893" y="548.295652" style="fill: #d62728; stroke: #000000; stroke-linejoin: miter"/>
     <use xlink:href="#me491c9f066" x="70.791607" y="479.817391" style="fill: #d62728; stroke: #000000; stroke-linejoin: miter"/>
     <use xlink:href="#me491c9f066" x="78.763036" y="403.513043" style="fill: #d62728; stroke: #000000; stroke-linejoin: miter"/>
     <use xlink:href="#me491c9f066" x="86.734464" y="491.947826" style="fill: #d62728; stroke: #000000; stroke-linejoin: miter"/>
     <use xlink:href="#me491c9f066" x="110.64875" y="523.252174" style="fill: #d62728; stroke: #000000; stroke-linejoin: miter"/>
     <use xlink:href="#me491c9f066" x="126.591607" y="531.469565" style="fill: #d62728; stroke: #000000; stroke-linejoin: miter"/>
     <use xlink:href="#me491c9f066" x="158.477321" y="564.730435" style="fill: #d62728; stroke: #000000; stroke-linejoin: miter"/>
     <use xlink:href="#me491c9f066" x="166.44875" y="568.252174" style="fill: #d62728; stroke: #000000; stroke-linejoin: miter"/>
     <use xlink:href="#me491c9f066" x="174.420179" y="571.382609" style="fill: #d62728; stroke: #000000; stroke-linejoin: miter"/>
     <use xlink:href="#me491c9f066" x="182.391607" y="574.121739" style="fill: #d62728; stroke: #000000; stroke-linejoin: miter"/>
     <use xlink:href="#me491c9f066" x="206.305893" y="583.121739" style="fill: #d62728; stroke: #000000; stroke-linejoin: miter"/>
     <use xlink:href="#me491c9f066" x="222.24875" y="583.121739" style="fill: #d62728; stroke: #000000; stroke-linejoin: miter"/>
     <use xlink:href="#me491c9f066" x="254.134464" y="590.947826" style="fill: #d62728; stroke: #000000; stroke-linejoin: miter"/>
    </g>
   </g>
   <g id="line2d_51">
    <path d="M 62.820179 622.643478 
L 63.418036 618.411986 
L 64.61375 596.682937 
L 65.211607 588.542774 
L 65.809464 583.187637 
L 66.407321 580.318112 
L 67.005179 579.44567 
L 67.603036 580.060739 
L 68.200893 581.708034 
L 69.396607 586.688559 
L 71.788036 597.666113 
L 72.98375 602.213204 
L 74.179464 605.907708 
L 75.375179 608.815732 
L 76.570893 611.058847 
L 77.766607 612.766426 
L 78.962321 614.055128 
L 80.158036 615.022223 
L 81.35375 615.745349 
L 83.147321 616.500665 
L 84.940893 616.986437 
L 87.332321 617.3761 
L 90.321607 617.631071 
L 95.104464 617.799704 
L 105.865893 617.894728 
L 207.501607 618.201305 
L 446.046607 618.837076 
L 446.046607 618.837076 
" clip-path="url(#pd5ae5b2b39)" style="fill: none; stroke: #2ca02c; stroke-width: 2; stroke-linecap: square"/>
   </g>
   <g id="line2d_52">
    <path d="M 66.805893 598.382609 
L 70.791607 573.730435 
L 78.763036 573.33913 
L 86.734464 579.208696 
M 110.64875 598.382609 
L 126.591607 604.643478 
L 158.477321 607.382609 
M 166.44875 609.33913 
L 174.420179 609.730435 
L 182.391607 611.295652 
M 206.305893 612.469565 
L 222.24875 612.078261 
L 254.134464 613.252174 
" clip-path="url(#pd5ae5b2b39)" style="fill: none; stroke-dasharray: 3.7,1.6; stroke-dashoffset: 0; stroke: #2ca02c"/>
    <g clip-path="url(#pd5ae5b2b39)">
     <use xlink:href="#m30b8cb69c4" x="66.805893" y="598.382609" style="fill: #2ca02c; stroke: #000000; stroke-linejoin: miter"/>
     <use xlink:href="#m30b8cb69c4" x="70.791607" y="573.730435" style="fill: #2ca02c; stroke: #000000; stroke-linejoin: miter"/>
     <use xlink:href="#m30b8cb69c4" x="78.763036" y="573.33913" style="fill: #2ca02c; stroke: #000000; stroke-linejoin: miter"/>
     <use xlink:href="#m30b8cb69c4" x="86.734464" y="579.208696" style="fill: #2ca02c; stroke: #000000; stroke-linejoin: miter"/>
     <use xlink:href="#m30b8cb69c4" x="110.64875" y="598.382609" style="fill: #2ca02c; stroke: #000000; stroke-linejoin: miter"/>
     <use xlink:href="#m30b8cb69c4" x="126.591607" y="604.643478" style="fill: #2ca02c; stroke: #000000; stroke-linejoin: miter"/>
     <use xlink:href="#m30b8cb69c4" x="158.477321" y="607.382609" style="fill: #2ca02c; stroke: #000000; stroke-linejoin: miter"/>
     <use xlink:href="#m30b8cb69c4" x="166.44875" y="609.33913" style="fill: #2ca02c; stroke: #000000; stroke-linejoin: miter"/>
     <use xlink:href="#m30b8cb69c4" x="174.420179" y="609.730435" style="fill: #2ca02c; stroke: #000000; stroke-linejoin: miter"/>
     <use xlink:href="#m30b8cb69c4" x="182.391607" y="611.295652" style="fill: #2ca02c; stroke: #000000; stroke-linejoin: miter"/>
     <use xlink:href="#m30b8cb69c4" x="206.305893" y="612.469565" style="fill: #2ca02c; stroke: #000000; stroke-linejoin: miter"/>
     <use xlink:href="#m30b8cb69c4" x="222.24875" y="612.078261" style="fill: #2ca02c; stroke: #000000; stroke-linejoin: miter"/>
     <use xlink:href="#m30b8cb69c4" x="254.134464" y="613.252174" style="fill: #2ca02c; stroke: #000000; stroke-linejoin: miter"/>
    </g>
   </g>
   <g id="line2d_53">
    <path d="M 62.820179 622.643478 
L 63.418036 618.366116 
L 64.61375 596.458713 
L 65.211607 588.268538 
L 65.809464 582.892982 
L 66.407321 580.025919 
L 67.005179 579.170855 
L 67.603036 579.811321 
L 68.200893 581.486926 
L 69.396607 586.52078 
L 71.788036 597.566 
L 72.98375 602.12946 
L 74.179464 605.83317 
L 75.375179 608.746002 
L 76.570893 610.991409 
L 77.766607 612.699929 
L 78.962321 613.988898 
L 80.158036 614.955955 
L 81.35375 615.67893 
L 83.147321 616.433992 
L 84.940893 616.919572 
L 87.332321 617.309094 
L 90.321607 617.564027 
L 95.104464 617.732761 
L 105.865893 617.828218 
L 206.90375 618.137396 
L 446.046607 618.784041 
L 446.046607 618.784041 
" clip-path="url(#pd5ae5b2b39)" style="fill: none; stroke: #ff7f0e; stroke-width: 2; stroke-linecap: square"/>
   </g>
   <g id="line2d_54">
    <path d="M 70.791607 545.556522 
L 78.763036 520.904348 
L 86.734464 530.686957 
L 94.705893 565.121739 
L 110.64875 555.33913 
L 126.591607 583.513043 
L 158.477321 596.034783 
L 162.463036 594.469565 
L 166.44875 595.252174 
L 174.420179 601.513043 
L 182.391607 599.556522 
L 190.363036 600.730435 
L 206.305893 603.078261 
L 222.24875 608.556522 
" clip-path="url(#pd5ae5b2b39)" style="fill: none; stroke-dasharray: 3.7,1.6; stroke-dashoffset: 0; stroke: #ff7f0e"/>
    <g clip-path="url(#pd5ae5b2b39)">
     <use xlink:href="#mde9964f209" x="70.791607" y="545.556522" style="fill: #ff7f0e; stroke: #000000; stroke-linejoin: miter"/>
     <use xlink:href="#mde9964f209" x="78.763036" y="520.904348" style="fill: #ff7f0e; stroke: #000000; stroke-linejoin: miter"/>
     <use xlink:href="#mde9964f209" x="86.734464" y="530.686957" style="fill: #ff7f0e; stroke: #000000; stroke-linejoin: miter"/>
     <use xlink:href="#mde9964f209" x="94.705893" y="565.121739" style="fill: #ff7f0e; stroke: #000000; stroke-linejoin: miter"/>
     <use xlink:href="#mde9964f209" x="110.64875" y="555.33913" style="fill: #ff7f0e; stroke: #000000; stroke-linejoin: miter"/>
     <use xlink:href="#mde9964f209" x="126.591607" y="583.513043" style="fill: #ff7f0e; stroke: #000000; stroke-linejoin: miter"/>
     <use xlink:href="#mde9964f209" x="158.477321" y="596.034783" style="fill: #ff7f0e; stroke: #000000; stroke-linejoin: miter"/>
     <use xlink:href="#mde9964f209" x="162.463036" y="594.469565" style="fill: #ff7f0e; stroke: #000000; stroke-linejoin: miter"/>
     <use xlink:href="#mde9964f209" x="166.44875" y="595.252174" style="fill: #ff7f0e; stroke: #000000; stroke-linejoin: miter"/>
     <use xlink:href="#mde9964f209" x="174.420179" y="601.513043" style="fill: #ff7f0e; stroke: #000000; stroke-linejoin: miter"/>
     <use xlink:href="#mde9964f209" x="182.391607" y="599.556522" style="fill: #ff7f0e; stroke: #000000; stroke-linejoin: miter"/>
     <use xlink:href="#mde9964f209" x="190.363036" y="600.730435" style="fill: #ff7f0e; stroke: #000000; stroke-linejoin: miter"/>
     <use xlink:href="#mde9964f209" x="206.305893" y="603.078261" style="fill: #ff7f0e; stroke: #000000; stroke-linejoin: miter"/>
     <use xlink:href="#mde9964f209" x="222.24875" y="608.556522" style="fill: #ff7f0e; stroke: #000000; stroke-linejoin: miter"/>
    </g>
   </g>
   <g id="patch_9">
    <path d="M 54.84875 633.6 
L 54.84875 392.556522 
" style="fill: none; stroke: #000000; stroke-width: 0.8; stroke-linejoin: miter; stroke-linecap: square"/>
   </g>
   <g id="patch_10">
    <path d="M 445.44875 633.6 
L 445.44875 392.556522 
" style="fill: none; stroke: #000000; stroke-width: 0.8; stroke-linejoin: miter; stroke-linecap: square"/>
   </g>
   <g id="patch_11">
    <path d="M 54.84875 633.6 
L 445.44875 633.6 
" style="fill: none; stroke: #000000; stroke-width: 0.8; stroke-linejoin: miter; stroke-linecap: square"/>
   </g>
   <g id="patch_12">
    <path d="M 54.84875 392.556522 
L 445.44875 392.556522 
" style="fill: none; stroke: #000000; stroke-width: 0.8; stroke-linejoin: miter; stroke-linecap: square"/>
   </g>
   <g id="legend_2">
    <g id="patch_13">
     <path d="M 468.07275 517.981522 
L 557.793063 517.981522 
Q 559.793063 517.981522 559.793063 515.981522 
L 559.793063 399.556522 
Q 559.793063 397.556522 557.793063 397.556522 
L 468.07275 397.556522 
Q 466.07275 397.556522 466.07275 399.556522 
L 466.07275 515.981522 
Q 466.07275 517.981522 468.07275 517.981522 
z
" style="fill: #ffffff; opacity: 0.8; stroke: #cccccc; stroke-linejoin: miter"/>
    </g>
    <g id="line2d_55">
     <path d="M 470.07275 405.654959 
L 490.07275 405.654959 
" style="fill: none; stroke: #1f77b4; stroke-width: 2; stroke-linecap: square"/>
    </g>
    <g id="line2d_56"/>
    <g id="text_35">
     <!-- PRE5 -->
     <g transform="translate(498.07275 409.154959) scale(0.1 -0.1)">
      <use xlink:href="#DejaVuSans-50"/>
      <use xlink:href="#DejaVuSans-52" transform="translate(60.302734 0)"/>
      <use xlink:href="#DejaVuSans-45" transform="translate(129.785156 0)"/>
      <use xlink:href="#DejaVuSans-35" transform="translate(192.96875 0)"/>
     </g>
    </g>
    <g id="line2d_57">
     <path d="M 470.07275 420.333084 
L 490.07275 420.333084 
" style="fill: none; stroke-dasharray: 3.7,1.6; stroke-dashoffset: 0; stroke: #1f77b4"/>
    </g>
    <g id="line2d_58">
     <g>
      <use xlink:href="#mee1e247a23" x="480.07275" y="420.333084" style="fill: #1f77b4; stroke: #000000; stroke-linejoin: miter"/>
     </g>
    </g>
    <g id="text_36">
     <!-- PRE5 (n=1) -->
     <g transform="translate(498.07275 423.833084) scale(0.1 -0.1)">
      <use xlink:href="#DejaVuSans-50"/>
      <use xlink:href="#DejaVuSans-52" transform="translate(60.302734 0)"/>
      <use xlink:href="#DejaVuSans-45" transform="translate(129.785156 0)"/>
      <use xlink:href="#DejaVuSans-35" transform="translate(192.96875 0)"/>
      <use xlink:href="#DejaVuSans-20" transform="translate(256.591797 0)"/>
      <use xlink:href="#DejaVuSans-28" transform="translate(288.378906 0)"/>
      <use xlink:href="#DejaVuSans-6e" transform="translate(327.392578 0)"/>
      <use xlink:href="#DejaVuSans-3d" transform="translate(390.771484 0)"/>
      <use xlink:href="#DejaVuSans-31" transform="translate(474.560547 0)"/>
      <use xlink:href="#DejaVuSans-29" transform="translate(538.183594 0)"/>
     </g>
    </g>
    <g id="line2d_59">
     <path d="M 470.07275 435.011209 
L 490.07275 435.011209 
" style="fill: none; stroke: #d62728; stroke-width: 2; stroke-linecap: square"/>
    </g>
    <g id="line2d_60"/>
    <g id="text_37">
     <!-- PRE6 -->
     <g transform="translate(498.07275 438.511209) scale(0.1 -0.1)">
      <use xlink:href="#DejaVuSans-50"/>
      <use xlink:href="#DejaVuSans-52" transform="translate(60.302734 0)"/>
      <use xlink:href="#DejaVuSans-45" transform="translate(129.785156 0)"/>
      <use xlink:href="#DejaVuSans-36" transform="translate(192.96875 0)"/>
     </g>
    </g>
    <g id="line2d_61">
     <path d="M 470.07275 449.689334 
L 490.07275 449.689334 
" style="fill: none; stroke-dasharray: 3.7,1.6; stroke-dashoffset: 0; stroke: #d62728"/>
    </g>
    <g id="line2d_62">
     <g>
      <use xlink:href="#me491c9f066" x="480.07275" y="449.689334" style="fill: #d62728; stroke: #000000; stroke-linejoin: miter"/>
     </g>
    </g>
    <g id="text_38">
     <!-- PRE6 (n=1) -->
     <g transform="translate(498.07275 453.189334) scale(0.1 -0.1)">
      <use xlink:href="#DejaVuSans-50"/>
      <use xlink:href="#DejaVuSans-52" transform="translate(60.302734 0)"/>
      <use xlink:href="#DejaVuSans-45" transform="translate(129.785156 0)"/>
      <use xlink:href="#DejaVuSans-36" transform="translate(192.96875 0)"/>
      <use xlink:href="#DejaVuSans-20" transform="translate(256.591797 0)"/>
      <use xlink:href="#DejaVuSans-28" transform="translate(288.378906 0)"/>
      <use xlink:href="#DejaVuSans-6e" transform="translate(327.392578 0)"/>
      <use xlink:href="#DejaVuSans-3d" transform="translate(390.771484 0)"/>
      <use xlink:href="#DejaVuSans-31" transform="translate(474.560547 0)"/>
      <use xlink:href="#DejaVuSans-29" transform="translate(538.183594 0)"/>
     </g>
    </g>
    <g id="line2d_63">
     <path d="M 470.07275 464.367459 
L 490.07275 464.367459 
" style="fill: none; stroke: #2ca02c; stroke-width: 2; stroke-linecap: square"/>
    </g>
    <g id="line2d_64"/>
    <g id="text_39">
     <!-- PRE7 -->
     <g transform="translate(498.07275 467.867459) scale(0.1 -0.1)">
      <use xlink:href="#DejaVuSans-50"/>
      <use xlink:href="#DejaVuSans-52" transform="translate(60.302734 0)"/>
      <use xlink:href="#DejaVuSans-45" transform="translate(129.785156 0)"/>
      <use xlink:href="#DejaVuSans-37" transform="translate(192.96875 0)"/>
     </g>
    </g>
    <g id="line2d_65">
     <path d="M 470.07275 479.045584 
L 490.07275 479.045584 
" style="fill: none; stroke-dasharray: 3.7,1.6; stroke-dashoffset: 0; stroke: #2ca02c"/>
    </g>
    <g id="line2d_66">
     <g>
      <use xlink:href="#m30b8cb69c4" x="480.07275" y="479.045584" style="fill: #2ca02c; stroke: #000000; stroke-linejoin: miter"/>
     </g>
    </g>
    <g id="text_40">
     <!-- PRE7 (n=1) -->
     <g transform="translate(498.07275 482.545584) scale(0.1 -0.1)">
      <use xlink:href="#DejaVuSans-50"/>
      <use xlink:href="#DejaVuSans-52" transform="translate(60.302734 0)"/>
      <use xlink:href="#DejaVuSans-45" transform="translate(129.785156 0)"/>
      <use xlink:href="#DejaVuSans-37" transform="translate(192.96875 0)"/>
      <use xlink:href="#DejaVuSans-20" transform="translate(256.591797 0)"/>
      <use xlink:href="#DejaVuSans-28" transform="translate(288.378906 0)"/>
      <use xlink:href="#DejaVuSans-6e" transform="translate(327.392578 0)"/>
      <use xlink:href="#DejaVuSans-3d" transform="translate(390.771484 0)"/>
      <use xlink:href="#DejaVuSans-31" transform="translate(474.560547 0)"/>
      <use xlink:href="#DejaVuSans-29" transform="translate(538.183594 0)"/>
     </g>
    </g>
    <g id="line2d_67">
     <path d="M 470.07275 493.723709 
L 490.07275 493.723709 
" style="fill: none; stroke: #ff7f0e; stroke-width: 2; stroke-linecap: square"/>
    </g>
    <g id="line2d_68"/>
    <g id="text_41">
     <!-- PRE8 -->
     <g transform="translate(498.07275 497.223709) scale(0.1 -0.1)">
      <use xlink:href="#DejaVuSans-50"/>
      <use xlink:href="#DejaVuSans-52" transform="translate(60.302734 0)"/>
      <use xlink:href="#DejaVuSans-45" transform="translate(129.785156 0)"/>
      <use xlink:href="#DejaVuSans-38" transform="translate(192.96875 0)"/>
     </g>
    </g>
    <g id="line2d_69">
     <path d="M 470.07275 508.401834 
L 490.07275 508.401834 
" style="fill: none; stroke-dasharray: 3.7,1.6; stroke-dashoffset: 0; stroke: #ff7f0e"/>
    </g>
    <g id="line2d_70">
     <g>
      <use xlink:href="#mde9964f209" x="480.07275" y="508.401834" style="fill: #ff7f0e; stroke: #000000; stroke-linejoin: miter"/>
     </g>
    </g>
    <g id="text_42">
     <!-- PRE8 (n=1) -->
     <g transform="translate(498.07275 511.901834) scale(0.1 -0.1)">
      <use xlink:href="#DejaVuSans-50"/>
      <use xlink:href="#DejaVuSans-52" transform="translate(60.302734 0)"/>
      <use xlink:href="#DejaVuSans-45" transform="translate(129.785156 0)"/>
      <use xlink:href="#DejaVuSans-38" transform="translate(192.96875 0)"/>
      <use xlink:href="#DejaVuSans-20" transform="translate(256.591797 0)"/>
      <use xlink:href="#DejaVuSans-28" transform="translate(288.378906 0)"/>
      <use xlink:href="#DejaVuSans-6e" transform="translate(327.392578 0)"/>
      <use xlink:href="#DejaVuSans-3d" transform="translate(390.771484 0)"/>
      <use xlink:href="#DejaVuSans-31" transform="translate(474.560547 0)"/>
      <use xlink:href="#DejaVuSans-29" transform="translate(538.183594 0)"/>
     </g>
    </g>
   </g>
  </g>
  <g id="text_43">
   <!-- Rogers2008 -->
   <g transform="translate(159.8175 26.000781) scale(0.25 -0.25)">
    <defs>
     <path id="DejaVuSans-Bold-52" d="M 2297 2597 
Q 2675 2597 2839 2737 
Q 3003 2878 3003 3200 
Q 3003 3519 2839 3656 
Q 2675 3794 2297 3794 
L 1791 3794 
L 1791 2597 
L 2297 2597 
z
M 1791 1766 
L 1791 0 
L 588 0 
L 588 4666 
L 2425 4666 
Q 3347 4666 3776 4356 
Q 4206 4047 4206 3378 
Q 4206 2916 3982 2619 
Q 3759 2322 3309 2181 
Q 3556 2125 3751 1926 
Q 3947 1728 4147 1325 
L 4800 0 
L 3519 0 
L 2950 1159 
Q 2778 1509 2601 1637 
Q 2425 1766 2131 1766 
L 1791 1766 
z
" transform="scale(0.015625)"/>
     <path id="DejaVuSans-Bold-6f" d="M 2203 2784 
Q 1831 2784 1636 2517 
Q 1441 2250 1441 1747 
Q 1441 1244 1636 976 
Q 1831 709 2203 709 
Q 2569 709 2762 976 
Q 2956 1244 2956 1747 
Q 2956 2250 2762 2517 
Q 2569 2784 2203 2784 
z
M 2203 3584 
Q 3106 3584 3614 3096 
Q 4122 2609 4122 1747 
Q 4122 884 3614 396 
Q 3106 -91 2203 -91 
Q 1297 -91 786 396 
Q 275 884 275 1747 
Q 275 2609 786 3096 
Q 1297 3584 2203 3584 
z
" transform="scale(0.015625)"/>
     <path id="DejaVuSans-Bold-67" d="M 2919 594 
Q 2688 288 2409 144 
Q 2131 0 1766 0 
Q 1125 0 706 504 
Q 288 1009 288 1791 
Q 288 2575 706 3076 
Q 1125 3578 1766 3578 
Q 2131 3578 2409 3434 
Q 2688 3291 2919 2981 
L 2919 3500 
L 4044 3500 
L 4044 353 
Q 4044 -491 3511 -936 
Q 2978 -1381 1966 -1381 
Q 1638 -1381 1331 -1331 
Q 1025 -1281 716 -1178 
L 716 -306 
Q 1009 -475 1290 -558 
Q 1572 -641 1856 -641 
Q 2406 -641 2662 -400 
Q 2919 -159 2919 353 
L 2919 594 
z
M 2181 2772 
Q 1834 2772 1640 2515 
Q 1447 2259 1447 1791 
Q 1447 1309 1634 1061 
Q 1822 813 2181 813 
Q 2531 813 2725 1069 
Q 2919 1325 2919 1791 
Q 2919 2259 2725 2515 
Q 2531 2772 2181 2772 
z
" transform="scale(0.015625)"/>
     <path id="DejaVuSans-Bold-73" d="M 3272 3391 
L 3272 2541 
Q 2913 2691 2578 2766 
Q 2244 2841 1947 2841 
Q 1628 2841 1473 2761 
Q 1319 2681 1319 2516 
Q 1319 2381 1436 2309 
Q 1553 2238 1856 2203 
L 2053 2175 
Q 2913 2066 3209 1816 
Q 3506 1566 3506 1031 
Q 3506 472 3093 190 
Q 2681 -91 1863 -91 
Q 1516 -91 1145 -36 
Q 775 19 384 128 
L 384 978 
Q 719 816 1070 734 
Q 1422 653 1784 653 
Q 2113 653 2278 743 
Q 2444 834 2444 1013 
Q 2444 1163 2330 1236 
Q 2216 1309 1875 1350 
L 1678 1375 
Q 931 1469 631 1722 
Q 331 1975 331 2491 
Q 331 3047 712 3315 
Q 1094 3584 1881 3584 
Q 2191 3584 2531 3537 
Q 2872 3491 3272 3391 
z
" transform="scale(0.015625)"/>
     <path id="DejaVuSans-Bold-32" d="M 1844 884 
L 3897 884 
L 3897 0 
L 506 0 
L 506 884 
L 2209 2388 
Q 2438 2594 2547 2791 
Q 2656 2988 2656 3200 
Q 2656 3528 2436 3728 
Q 2216 3928 1850 3928 
Q 1569 3928 1234 3808 
Q 900 3688 519 3450 
L 519 4475 
Q 925 4609 1322 4679 
Q 1719 4750 2100 4750 
Q 2938 4750 3402 4381 
Q 3866 4013 3866 3353 
Q 3866 2972 3669 2642 
Q 3472 2313 2841 1759 
L 1844 884 
z
" transform="scale(0.015625)"/>
     <path id="DejaVuSans-Bold-30" d="M 2944 2338 
Q 2944 3213 2780 3570 
Q 2616 3928 2228 3928 
Q 1841 3928 1675 3570 
Q 1509 3213 1509 2338 
Q 1509 1453 1675 1090 
Q 1841 728 2228 728 
Q 2613 728 2778 1090 
Q 2944 1453 2944 2338 
z
M 4147 2328 
Q 4147 1169 3647 539 
Q 3147 -91 2228 -91 
Q 1306 -91 806 539 
Q 306 1169 306 2328 
Q 306 3491 806 4120 
Q 1306 4750 2228 4750 
Q 3147 4750 3647 4120 
Q 4147 3491 4147 2328 
z
" transform="scale(0.015625)"/>
     <path id="DejaVuSans-Bold-38" d="M 2228 2088 
Q 1891 2088 1709 1903 
Q 1528 1719 1528 1375 
Q 1528 1031 1709 848 
Q 1891 666 2228 666 
Q 2563 666 2741 848 
Q 2919 1031 2919 1375 
Q 2919 1722 2741 1905 
Q 2563 2088 2228 2088 
z
M 1350 2484 
Q 925 2613 709 2878 
Q 494 3144 494 3541 
Q 494 4131 934 4440 
Q 1375 4750 2228 4750 
Q 3075 4750 3515 4442 
Q 3956 4134 3956 3541 
Q 3956 3144 3739 2878 
Q 3522 2613 3097 2484 
Q 3572 2353 3814 2058 
Q 4056 1763 4056 1313 
Q 4056 619 3595 264 
Q 3134 -91 2228 -91 
Q 1319 -91 855 264 
Q 391 619 391 1313 
Q 391 1763 633 2058 
Q 875 2353 1350 2484 
z
M 1631 3419 
Q 1631 3141 1786 2991 
Q 1941 2841 2228 2841 
Q 2509 2841 2662 2991 
Q 2816 3141 2816 3419 
Q 2816 3697 2662 3845 
Q 2509 3994 2228 3994 
Q 1941 3994 1786 3844 
Q 1631 3694 1631 3419 
z
" transform="scale(0.015625)"/>
    </defs>
    <use xlink:href="#DejaVuSans-Bold-52"/>
    <use xlink:href="#DejaVuSans-Bold-6f" transform="translate(77.001953 0)"/>
    <use xlink:href="#DejaVuSans-Bold-67" transform="translate(145.703125 0)"/>
    <use xlink:href="#DejaVuSans-Bold-65" transform="translate(217.285156 0)"/>
    <use xlink:href="#DejaVuSans-Bold-72" transform="translate(285.107422 0)"/>
    <use xlink:href="#DejaVuSans-Bold-73" transform="translate(334.423828 0)"/>
    <use xlink:href="#DejaVuSans-Bold-32" transform="translate(393.945312 0)"/>
    <use xlink:href="#DejaVuSans-Bold-30" transform="translate(463.525391 0)"/>
    <use xlink:href="#DejaVuSans-Bold-30" transform="translate(533.105469 0)"/>
    <use xlink:href="#DejaVuSans-Bold-38" transform="translate(602.685547 0)"/>
   </g>
  </g>
 </g>
 <defs>
  <clipPath id="p955cda01d8">
   <rect x="54.84875" y="79.2" width="390.6" height="241.043478"/>
  </clipPath>
  <clipPath id="pd5ae5b2b39">
   <rect x="54.84875" y="392.556522" width="390.6" height="241.043478"/>
  </clipPath>
 </defs>
</svg>
