<?xml version="1.0" encoding="utf-8" standalone="no"?>
<!DOCTYPE svg PUBLIC "-//W3C//DTD SVG 1.1//EN"
  "http://www.w3.org/Graphics/SVG/1.1/DTD/svg11.dtd">
<svg xmlns:xlink="http://www.w3.org/1999/xlink" width="452.64875pt" height="370.537812pt" viewBox="0 0 452.64875 370.537812" xmlns="http://www.w3.org/2000/svg" version="1.1">
 <metadata>
  <rdf:RDF xmlns:dc="http://purl.org/dc/elements/1.1/" xmlns:cc="http://creativecommons.org/ns#" xmlns:rdf="http://www.w3.org/1999/02/22-rdf-syntax-ns#">
   <cc:Work>
    <dc:type rdf:resource="http://purl.org/dc/dcmitype/StillImage"/>
    <dc:date>2026-02-12T15:19:44.871627</dc:date>
    <dc:format>image/svg+xml</dc:format>
    <dc:creator>
     <cc:Agent>
      <dc:title>Matplotlib v3.10.7, https://matplotlib.org/</dc:title>
     </cc:Agent>
    </dc:creator>
   </cc:Work>
  </rdf:RDF>
 </metadata>
 <defs>
  <style type="text/css">*{stroke-linejoin: round; stroke-linecap: butt}</style>
 </defs>
 <g id="figure_1">
  <g id="patch_1">
   <path d="M 0 370.537812 
L 452.64875 370.537812 
L 452.64875 0 
L 0 0 
z
" style="fill: #ffffff"/>
  </g>
  <g id="axes_1">
   <g id="patch_2">
    <path d="M 54.84875 320.4 
L 445.44875 320.4 
L 445.44875 43.2 
L 54.84875 43.2 
z
" style="fill: #ffffff"/>
   </g>
   <g id="matplotlib.axis_1">
    <g id="xtick_1">
     <g id="line2d_1">
      <defs>
       <path id="mc72a1538ef" d="M 0 0 
L 0 3.5 
" style="stroke: #000000; stroke-width: 0.8"/>
      </defs>
      <g>
       <use xlink:href="#mc72a1538ef" x="72.603295" y="320.4" style="stroke: #000000; stroke-width: 0.8"/>
      </g>
     </g>
     <g id="text_1">
      <!-- 0 -->
      <g transform="translate(67.83142 338.797656) scale(0.15 -0.15)">
       <defs>
        <path id="DejaVuSans-30" d="M 2034 4250 
Q 1547 4250 1301 3770 
Q 1056 3291 1056 2328 
Q 1056 1369 1301 889 
Q 1547 409 2034 409 
Q 2525 409 2770 889 
Q 3016 1369 3016 2328 
Q 3016 3291 2770 3770 
Q 2525 4250 2034 4250 
z
M 2034 4750 
Q 2819 4750 3233 4129 
Q 3647 3509 3647 2328 
Q 3647 1150 3233 529 
Q 2819 -91 2034 -91 
Q 1250 -91 836 529 
Q 422 1150 422 2328 
Q 422 3509 836 4129 
Q 1250 4750 2034 4750 
z
" transform="scale(0.015625)"/>
       </defs>
       <use xlink:href="#DejaVuSans-30"/>
      </g>
     </g>
    </g>
    <g id="xtick_2">
     <g id="line2d_2">
      <g>
       <use xlink:href="#mc72a1538ef" x="131.785114" y="320.4" style="stroke: #000000; stroke-width: 0.8"/>
      </g>
     </g>
     <g id="text_2">
      <!-- 25 -->
      <g transform="translate(122.241364 338.797656) scale(0.15 -0.15)">
       <defs>
        <path id="DejaVuSans-32" d="M 1228 531 
L 3431 531 
L 3431 0 
L 469 0 
L 469 531 
Q 828 903 1448 1529 
Q 2069 2156 2228 2338 
Q 2531 2678 2651 2914 
Q 2772 3150 2772 3378 
Q 2772 3750 2511 3984 
Q 2250 4219 1831 4219 
Q 1534 4219 1204 4116 
Q 875 4013 500 3803 
L 500 4441 
Q 881 4594 1212 4672 
Q 1544 4750 1819 4750 
Q 2544 4750 2975 4387 
Q 3406 4025 3406 3419 
Q 3406 3131 3298 2873 
Q 3191 2616 2906 2266 
Q 2828 2175 2409 1742 
Q 1991 1309 1228 531 
z
" transform="scale(0.015625)"/>
        <path id="DejaVuSans-35" d="M 691 4666 
L 3169 4666 
L 3169 4134 
L 1269 4134 
L 1269 2991 
Q 1406 3038 1543 3061 
Q 1681 3084 1819 3084 
Q 2600 3084 3056 2656 
Q 3513 2228 3513 1497 
Q 3513 744 3044 326 
Q 2575 -91 1722 -91 
Q 1428 -91 1123 -41 
Q 819 9 494 109 
L 494 744 
Q 775 591 1075 516 
Q 1375 441 1709 441 
Q 2250 441 2565 725 
Q 2881 1009 2881 1497 
Q 2881 1984 2565 2268 
Q 2250 2553 1709 2553 
Q 1456 2553 1204 2497 
Q 953 2441 691 2322 
L 691 4666 
z
" transform="scale(0.015625)"/>
       </defs>
       <use xlink:href="#DejaVuSans-32"/>
       <use xlink:href="#DejaVuSans-35" transform="translate(63.623047 0)"/>
      </g>
     </g>
    </g>
    <g id="xtick_3">
     <g id="line2d_3">
      <g>
       <use xlink:href="#mc72a1538ef" x="190.966932" y="320.4" style="stroke: #000000; stroke-width: 0.8"/>
      </g>
     </g>
     <g id="text_3">
      <!-- 50 -->
      <g transform="translate(181.423182 338.797656) scale(0.15 -0.15)">
       <use xlink:href="#DejaVuSans-35"/>
       <use xlink:href="#DejaVuSans-30" transform="translate(63.623047 0)"/>
      </g>
     </g>
    </g>
    <g id="xtick_4">
     <g id="line2d_4">
      <g>
       <use xlink:href="#mc72a1538ef" x="250.14875" y="320.4" style="stroke: #000000; stroke-width: 0.8"/>
      </g>
     </g>
     <g id="text_4">
      <!-- 75 -->
      <g transform="translate(240.605 338.797656) scale(0.15 -0.15)">
       <defs>
        <path id="DejaVuSans-37" d="M 525 4666 
L 3525 4666 
L 3525 4397 
L 1831 0 
L 1172 0 
L 2766 4134 
L 525 4134 
L 525 4666 
z
" transform="scale(0.015625)"/>
       </defs>
       <use xlink:href="#DejaVuSans-37"/>
       <use xlink:href="#DejaVuSans-35" transform="translate(63.623047 0)"/>
      </g>
     </g>
    </g>
    <g id="xtick_5">
     <g id="line2d_5">
      <g>
       <use xlink:href="#mc72a1538ef" x="309.330568" y="320.4" style="stroke: #000000; stroke-width: 0.8"/>
      </g>
     </g>
     <g id="text_5">
      <!-- 100 -->
      <g transform="translate(295.014943 338.797656) scale(0.15 -0.15)">
       <defs>
        <path id="DejaVuSans-31" d="M 794 531 
L 1825 531 
L 1825 4091 
L 703 3866 
L 703 4441 
L 1819 4666 
L 2450 4666 
L 2450 531 
L 3481 531 
L 3481 0 
L 794 0 
L 794 531 
z
" transform="scale(0.015625)"/>
       </defs>
       <use xlink:href="#DejaVuSans-31"/>
       <use xlink:href="#DejaVuSans-30" transform="translate(63.623047 0)"/>
       <use xlink:href="#DejaVuSans-30" transform="translate(127.246094 0)"/>
      </g>
     </g>
    </g>
    <g id="xtick_6">
     <g id="line2d_6">
      <g>
       <use xlink:href="#mc72a1538ef" x="368.512386" y="320.4" style="stroke: #000000; stroke-width: 0.8"/>
      </g>
     </g>
     <g id="text_6">
      <!-- 125 -->
      <g transform="translate(354.196761 338.797656) scale(0.15 -0.15)">
       <use xlink:href="#DejaVuSans-31"/>
       <use xlink:href="#DejaVuSans-32" transform="translate(63.623047 0)"/>
       <use xlink:href="#DejaVuSans-35" transform="translate(127.246094 0)"/>
      </g>
     </g>
    </g>
    <g id="xtick_7">
     <g id="line2d_7">
      <g>
       <use xlink:href="#mc72a1538ef" x="427.694205" y="320.4" style="stroke: #000000; stroke-width: 0.8"/>
      </g>
     </g>
     <g id="text_7">
      <!-- 150 -->
      <g transform="translate(413.37858 338.797656) scale(0.15 -0.15)">
       <use xlink:href="#DejaVuSans-31"/>
       <use xlink:href="#DejaVuSans-35" transform="translate(63.623047 0)"/>
       <use xlink:href="#DejaVuSans-30" transform="translate(127.246094 0)"/>
      </g>
     </g>
    </g>
    <g id="text_8">
     <!-- time [hr] -->
     <g transform="translate(205.074219 359.594375) scale(0.18 -0.18)">
      <defs>
       <path id="DejaVuSans-Bold-74" d="M 1759 4494 
L 1759 3500 
L 2913 3500 
L 2913 2700 
L 1759 2700 
L 1759 1216 
Q 1759 972 1856 886 
Q 1953 800 2241 800 
L 2816 800 
L 2816 0 
L 1856 0 
Q 1194 0 917 276 
Q 641 553 641 1216 
L 641 2700 
L 84 2700 
L 84 3500 
L 641 3500 
L 641 4494 
L 1759 4494 
z
" transform="scale(0.015625)"/>
       <path id="DejaVuSans-Bold-69" d="M 538 3500 
L 1656 3500 
L 1656 0 
L 538 0 
L 538 3500 
z
M 538 4863 
L 1656 4863 
L 1656 3950 
L 538 3950 
L 538 4863 
z
" transform="scale(0.015625)"/>
       <path id="DejaVuSans-Bold-6d" d="M 3781 2919 
Q 3994 3244 4286 3414 
Q 4578 3584 4928 3584 
Q 5531 3584 5847 3212 
Q 6163 2841 6163 2131 
L 6163 0 
L 5038 0 
L 5038 1825 
Q 5041 1866 5042 1909 
Q 5044 1953 5044 2034 
Q 5044 2406 4934 2573 
Q 4825 2741 4581 2741 
Q 4263 2741 4089 2478 
Q 3916 2216 3909 1719 
L 3909 0 
L 2784 0 
L 2784 1825 
Q 2784 2406 2684 2573 
Q 2584 2741 2328 2741 
Q 2006 2741 1831 2477 
Q 1656 2213 1656 1722 
L 1656 0 
L 531 0 
L 531 3500 
L 1656 3500 
L 1656 2988 
Q 1863 3284 2130 3434 
Q 2397 3584 2719 3584 
Q 3081 3584 3359 3409 
Q 3638 3234 3781 2919 
z
" transform="scale(0.015625)"/>
       <path id="DejaVuSans-Bold-65" d="M 4031 1759 
L 4031 1441 
L 1416 1441 
Q 1456 1047 1700 850 
Q 1944 653 2381 653 
Q 2734 653 3104 758 
Q 3475 863 3866 1075 
L 3866 213 
Q 3469 63 3072 -14 
Q 2675 -91 2278 -91 
Q 1328 -91 801 392 
Q 275 875 275 1747 
Q 275 2603 792 3093 
Q 1309 3584 2216 3584 
Q 3041 3584 3536 3087 
Q 4031 2591 4031 1759 
z
M 2881 2131 
Q 2881 2450 2695 2645 
Q 2509 2841 2209 2841 
Q 1884 2841 1681 2658 
Q 1478 2475 1428 2131 
L 2881 2131 
z
" transform="scale(0.015625)"/>
       <path id="DejaVuSans-Bold-20" transform="scale(0.015625)"/>
       <path id="DejaVuSans-Bold-5b" d="M 550 4863 
L 2491 4863 
L 2491 4159 
L 1613 4159 
L 1613 -141 
L 2491 -141 
L 2491 -844 
L 550 -844 
L 550 4863 
z
" transform="scale(0.015625)"/>
       <path id="DejaVuSans-Bold-68" d="M 4056 2131 
L 4056 0 
L 2931 0 
L 2931 347 
L 2931 1625 
Q 2931 2084 2911 2256 
Q 2891 2428 2841 2509 
Q 2775 2619 2662 2680 
Q 2550 2741 2406 2741 
Q 2056 2741 1856 2470 
Q 1656 2200 1656 1722 
L 1656 0 
L 538 0 
L 538 4863 
L 1656 4863 
L 1656 2988 
Q 1909 3294 2193 3439 
Q 2478 3584 2822 3584 
Q 3428 3584 3742 3212 
Q 4056 2841 4056 2131 
z
" transform="scale(0.015625)"/>
       <path id="DejaVuSans-Bold-72" d="M 3138 2547 
Q 2991 2616 2845 2648 
Q 2700 2681 2553 2681 
Q 2122 2681 1889 2404 
Q 1656 2128 1656 1613 
L 1656 0 
L 538 0 
L 538 3500 
L 1656 3500 
L 1656 2925 
Q 1872 3269 2151 3426 
Q 2431 3584 2822 3584 
Q 2878 3584 2943 3579 
Q 3009 3575 3134 3559 
L 3138 2547 
z
" transform="scale(0.015625)"/>
       <path id="DejaVuSans-Bold-5d" d="M 2375 -844 
L 434 -844 
L 434 -141 
L 1313 -141 
L 1313 4159 
L 434 4159 
L 434 4863 
L 2375 4863 
L 2375 -844 
z
" transform="scale(0.015625)"/>
      </defs>
      <use xlink:href="#DejaVuSans-Bold-74"/>
      <use xlink:href="#DejaVuSans-Bold-69" transform="translate(47.802734 0)"/>
      <use xlink:href="#DejaVuSans-Bold-6d" transform="translate(82.080078 0)"/>
      <use xlink:href="#DejaVuSans-Bold-65" transform="translate(186.279297 0)"/>
      <use xlink:href="#DejaVuSans-Bold-20" transform="translate(254.101562 0)"/>
      <use xlink:href="#DejaVuSans-Bold-5b" transform="translate(288.916016 0)"/>
      <use xlink:href="#DejaVuSans-Bold-68" transform="translate(334.619141 0)"/>
      <use xlink:href="#DejaVuSans-Bold-72" transform="translate(405.810547 0)"/>
      <use xlink:href="#DejaVuSans-Bold-5d" transform="translate(455.126953 0)"/>
     </g>
    </g>
   </g>
   <g id="matplotlib.axis_2">
    <g id="ytick_1">
     <g id="line2d_8">
      <defs>
       <path id="m768be3f4a4" d="M 0 0 
L -3.5 0 
" style="stroke: #000000; stroke-width: 0.8"/>
      </defs>
      <g>
       <use xlink:href="#m768be3f4a4" x="54.84875" y="307.8" style="stroke: #000000; stroke-width: 0.8"/>
      </g>
     </g>
     <g id="text_9">
      <!-- 0 -->
      <g transform="translate(38.305 313.498828) scale(0.15 -0.15)">
       <use xlink:href="#DejaVuSans-30"/>
      </g>
     </g>
    </g>
    <g id="ytick_2">
     <g id="line2d_9">
      <g>
       <use xlink:href="#m768be3f4a4" x="54.84875" y="274.169727" style="stroke: #000000; stroke-width: 0.8"/>
      </g>
     </g>
     <g id="text_10">
      <!-- 10 -->
      <g transform="translate(28.76125 279.868555) scale(0.15 -0.15)">
       <use xlink:href="#DejaVuSans-31"/>
       <use xlink:href="#DejaVuSans-30" transform="translate(63.623047 0)"/>
      </g>
     </g>
    </g>
    <g id="ytick_3">
     <g id="line2d_10">
      <g>
       <use xlink:href="#m768be3f4a4" x="54.84875" y="240.539455" style="stroke: #000000; stroke-width: 0.8"/>
      </g>
     </g>
     <g id="text_11">
      <!-- 20 -->
      <g transform="translate(28.76125 246.238283) scale(0.15 -0.15)">
       <use xlink:href="#DejaVuSans-32"/>
       <use xlink:href="#DejaVuSans-30" transform="translate(63.623047 0)"/>
      </g>
     </g>
    </g>
    <g id="ytick_4">
     <g id="line2d_11">
      <g>
       <use xlink:href="#m768be3f4a4" x="54.84875" y="206.909182" style="stroke: #000000; stroke-width: 0.8"/>
      </g>
     </g>
     <g id="text_12">
      <!-- 30 -->
      <g transform="translate(28.76125 212.60801) scale(0.15 -0.15)">
       <defs>
        <path id="DejaVuSans-33" d="M 2597 2516 
Q 3050 2419 3304 2112 
Q 3559 1806 3559 1356 
Q 3559 666 3084 287 
Q 2609 -91 1734 -91 
Q 1441 -91 1130 -33 
Q 819 25 488 141 
L 488 750 
Q 750 597 1062 519 
Q 1375 441 1716 441 
Q 2309 441 2620 675 
Q 2931 909 2931 1356 
Q 2931 1769 2642 2001 
Q 2353 2234 1838 2234 
L 1294 2234 
L 1294 2753 
L 1863 2753 
Q 2328 2753 2575 2939 
Q 2822 3125 2822 3475 
Q 2822 3834 2567 4026 
Q 2313 4219 1838 4219 
Q 1578 4219 1281 4162 
Q 984 4106 628 3988 
L 628 4550 
Q 988 4650 1302 4700 
Q 1616 4750 1894 4750 
Q 2613 4750 3031 4423 
Q 3450 4097 3450 3541 
Q 3450 3153 3228 2886 
Q 3006 2619 2597 2516 
z
" transform="scale(0.015625)"/>
       </defs>
       <use xlink:href="#DejaVuSans-33"/>
       <use xlink:href="#DejaVuSans-30" transform="translate(63.623047 0)"/>
      </g>
     </g>
    </g>
    <g id="ytick_5">
     <g id="line2d_12">
      <g>
       <use xlink:href="#m768be3f4a4" x="54.84875" y="173.278909" style="stroke: #000000; stroke-width: 0.8"/>
      </g>
     </g>
     <g id="text_13">
      <!-- 40 -->
      <g transform="translate(28.76125 178.977737) scale(0.15 -0.15)">
       <defs>
        <path id="DejaVuSans-34" d="M 2419 4116 
L 825 1625 
L 2419 1625 
L 2419 4116 
z
M 2253 4666 
L 3047 4666 
L 3047 1625 
L 3713 1625 
L 3713 1100 
L 3047 1100 
L 3047 0 
L 2419 0 
L 2419 1100 
L 313 1100 
L 313 1709 
L 2253 4666 
z
" transform="scale(0.015625)"/>
       </defs>
       <use xlink:href="#DejaVuSans-34"/>
       <use xlink:href="#DejaVuSans-30" transform="translate(63.623047 0)"/>
      </g>
     </g>
    </g>
    <g id="ytick_6">
     <g id="line2d_13">
      <g>
       <use xlink:href="#m768be3f4a4" x="54.84875" y="139.648636" style="stroke: #000000; stroke-width: 0.8"/>
      </g>
     </g>
     <g id="text_14">
      <!-- 50 -->
      <g transform="translate(28.76125 145.347465) scale(0.15 -0.15)">
       <use xlink:href="#DejaVuSans-35"/>
       <use xlink:href="#DejaVuSans-30" transform="translate(63.623047 0)"/>
      </g>
     </g>
    </g>
    <g id="ytick_7">
     <g id="line2d_14">
      <g>
       <use xlink:href="#m768be3f4a4" x="54.84875" y="106.018364" style="stroke: #000000; stroke-width: 0.8"/>
      </g>
     </g>
     <g id="text_15">
      <!-- 60 -->
      <g transform="translate(28.76125 111.717192) scale(0.15 -0.15)">
       <defs>
        <path id="DejaVuSans-36" d="M 2113 2584 
Q 1688 2584 1439 2293 
Q 1191 2003 1191 1497 
Q 1191 994 1439 701 
Q 1688 409 2113 409 
Q 2538 409 2786 701 
Q 3034 994 3034 1497 
Q 3034 2003 2786 2293 
Q 2538 2584 2113 2584 
z
M 3366 4563 
L 3366 3988 
Q 3128 4100 2886 4159 
Q 2644 4219 2406 4219 
Q 1781 4219 1451 3797 
Q 1122 3375 1075 2522 
Q 1259 2794 1537 2939 
Q 1816 3084 2150 3084 
Q 2853 3084 3261 2657 
Q 3669 2231 3669 1497 
Q 3669 778 3244 343 
Q 2819 -91 2113 -91 
Q 1303 -91 875 529 
Q 447 1150 447 2328 
Q 447 3434 972 4092 
Q 1497 4750 2381 4750 
Q 2619 4750 2861 4703 
Q 3103 4656 3366 4563 
z
" transform="scale(0.015625)"/>
       </defs>
       <use xlink:href="#DejaVuSans-36"/>
       <use xlink:href="#DejaVuSans-30" transform="translate(63.623047 0)"/>
      </g>
     </g>
    </g>
    <g id="ytick_8">
     <g id="line2d_15">
      <g>
       <use xlink:href="#m768be3f4a4" x="54.84875" y="72.388091" style="stroke: #000000; stroke-width: 0.8"/>
      </g>
     </g>
     <g id="text_16">
      <!-- 70 -->
      <g transform="translate(28.76125 78.086919) scale(0.15 -0.15)">
       <use xlink:href="#DejaVuSans-37"/>
       <use xlink:href="#DejaVuSans-30" transform="translate(63.623047 0)"/>
      </g>
     </g>
    </g>
    <g id="text_17">
     <!-- rapamycin blood [nM] -->
     <g transform="translate(20.877187 293.092031) rotate(-90) scale(0.18 -0.18)">
      <defs>
       <path id="DejaVuSans-Bold-61" d="M 2106 1575 
Q 1756 1575 1579 1456 
Q 1403 1338 1403 1106 
Q 1403 894 1545 773 
Q 1688 653 1941 653 
Q 2256 653 2472 879 
Q 2688 1106 2688 1447 
L 2688 1575 
L 2106 1575 
z
M 3816 1997 
L 3816 0 
L 2688 0 
L 2688 519 
Q 2463 200 2181 54 
Q 1900 -91 1497 -91 
Q 953 -91 614 226 
Q 275 544 275 1050 
Q 275 1666 698 1953 
Q 1122 2241 2028 2241 
L 2688 2241 
L 2688 2328 
Q 2688 2594 2478 2717 
Q 2269 2841 1825 2841 
Q 1466 2841 1156 2769 
Q 847 2697 581 2553 
L 581 3406 
Q 941 3494 1303 3539 
Q 1666 3584 2028 3584 
Q 2975 3584 3395 3211 
Q 3816 2838 3816 1997 
z
" transform="scale(0.015625)"/>
       <path id="DejaVuSans-Bold-70" d="M 1656 506 
L 1656 -1331 
L 538 -1331 
L 538 3500 
L 1656 3500 
L 1656 2988 
Q 1888 3294 2169 3439 
Q 2450 3584 2816 3584 
Q 3463 3584 3878 3070 
Q 4294 2556 4294 1747 
Q 4294 938 3878 423 
Q 3463 -91 2816 -91 
Q 2450 -91 2169 54 
Q 1888 200 1656 506 
z
M 2400 2772 
Q 2041 2772 1848 2508 
Q 1656 2244 1656 1747 
Q 1656 1250 1848 986 
Q 2041 722 2400 722 
Q 2759 722 2948 984 
Q 3138 1247 3138 1747 
Q 3138 2247 2948 2509 
Q 2759 2772 2400 2772 
z
" transform="scale(0.015625)"/>
       <path id="DejaVuSans-Bold-79" d="M 78 3500 
L 1197 3500 
L 2138 1125 
L 2938 3500 
L 4056 3500 
L 2584 -331 
Q 2363 -916 2067 -1148 
Q 1772 -1381 1288 -1381 
L 641 -1381 
L 641 -647 
L 991 -647 
Q 1275 -647 1404 -556 
Q 1534 -466 1606 -231 
L 1638 -134 
L 78 3500 
z
" transform="scale(0.015625)"/>
       <path id="DejaVuSans-Bold-63" d="M 3366 3391 
L 3366 2478 
Q 3138 2634 2908 2709 
Q 2678 2784 2431 2784 
Q 1963 2784 1702 2511 
Q 1441 2238 1441 1747 
Q 1441 1256 1702 982 
Q 1963 709 2431 709 
Q 2694 709 2930 787 
Q 3166 866 3366 1019 
L 3366 103 
Q 3103 6 2833 -42 
Q 2563 -91 2291 -91 
Q 1344 -91 809 395 
Q 275 881 275 1747 
Q 275 2613 809 3098 
Q 1344 3584 2291 3584 
Q 2566 3584 2833 3536 
Q 3100 3488 3366 3391 
z
" transform="scale(0.015625)"/>
       <path id="DejaVuSans-Bold-6e" d="M 4056 2131 
L 4056 0 
L 2931 0 
L 2931 347 
L 2931 1631 
Q 2931 2084 2911 2256 
Q 2891 2428 2841 2509 
Q 2775 2619 2662 2680 
Q 2550 2741 2406 2741 
Q 2056 2741 1856 2470 
Q 1656 2200 1656 1722 
L 1656 0 
L 538 0 
L 538 3500 
L 1656 3500 
L 1656 2988 
Q 1909 3294 2193 3439 
Q 2478 3584 2822 3584 
Q 3428 3584 3742 3212 
Q 4056 2841 4056 2131 
z
" transform="scale(0.015625)"/>
       <path id="DejaVuSans-Bold-62" d="M 2400 722 
Q 2759 722 2948 984 
Q 3138 1247 3138 1747 
Q 3138 2247 2948 2509 
Q 2759 2772 2400 2772 
Q 2041 2772 1848 2508 
Q 1656 2244 1656 1747 
Q 1656 1250 1848 986 
Q 2041 722 2400 722 
z
M 1656 2988 
Q 1888 3294 2169 3439 
Q 2450 3584 2816 3584 
Q 3463 3584 3878 3070 
Q 4294 2556 4294 1747 
Q 4294 938 3878 423 
Q 3463 -91 2816 -91 
Q 2450 -91 2169 54 
Q 1888 200 1656 506 
L 1656 0 
L 538 0 
L 538 4863 
L 1656 4863 
L 1656 2988 
z
" transform="scale(0.015625)"/>
       <path id="DejaVuSans-Bold-6c" d="M 538 4863 
L 1656 4863 
L 1656 0 
L 538 0 
L 538 4863 
z
" transform="scale(0.015625)"/>
       <path id="DejaVuSans-Bold-6f" d="M 2203 2784 
Q 1831 2784 1636 2517 
Q 1441 2250 1441 1747 
Q 1441 1244 1636 976 
Q 1831 709 2203 709 
Q 2569 709 2762 976 
Q 2956 1244 2956 1747 
Q 2956 2250 2762 2517 
Q 2569 2784 2203 2784 
z
M 2203 3584 
Q 3106 3584 3614 3096 
Q 4122 2609 4122 1747 
Q 4122 884 3614 396 
Q 3106 -91 2203 -91 
Q 1297 -91 786 396 
Q 275 884 275 1747 
Q 275 2609 786 3096 
Q 1297 3584 2203 3584 
z
" transform="scale(0.015625)"/>
       <path id="DejaVuSans-Bold-64" d="M 2919 2988 
L 2919 4863 
L 4044 4863 
L 4044 0 
L 2919 0 
L 2919 506 
Q 2688 197 2409 53 
Q 2131 -91 1766 -91 
Q 1119 -91 703 423 
Q 288 938 288 1747 
Q 288 2556 703 3070 
Q 1119 3584 1766 3584 
Q 2128 3584 2408 3439 
Q 2688 3294 2919 2988 
z
M 2181 722 
Q 2541 722 2730 984 
Q 2919 1247 2919 1747 
Q 2919 2247 2730 2509 
Q 2541 2772 2181 2772 
Q 1825 2772 1636 2509 
Q 1447 2247 1447 1747 
Q 1447 1247 1636 984 
Q 1825 722 2181 722 
z
" transform="scale(0.015625)"/>
       <path id="DejaVuSans-Bold-4d" d="M 588 4666 
L 2119 4666 
L 3181 2169 
L 4250 4666 
L 5778 4666 
L 5778 0 
L 4641 0 
L 4641 3413 
L 3566 897 
L 2803 897 
L 1728 3413 
L 1728 0 
L 588 0 
L 588 4666 
z
" transform="scale(0.015625)"/>
      </defs>
      <use xlink:href="#DejaVuSans-Bold-72"/>
      <use xlink:href="#DejaVuSans-Bold-61" transform="translate(49.316406 0)"/>
      <use xlink:href="#DejaVuSans-Bold-70" transform="translate(116.796875 0)"/>
      <use xlink:href="#DejaVuSans-Bold-61" transform="translate(188.378906 0)"/>
      <use xlink:href="#DejaVuSans-Bold-6d" transform="translate(255.859375 0)"/>
      <use xlink:href="#DejaVuSans-Bold-79" transform="translate(360.058594 0)"/>
      <use xlink:href="#DejaVuSans-Bold-63" transform="translate(425.244141 0)"/>
      <use xlink:href="#DejaVuSans-Bold-69" transform="translate(484.521484 0)"/>
      <use xlink:href="#DejaVuSans-Bold-6e" transform="translate(518.798828 0)"/>
      <use xlink:href="#DejaVuSans-Bold-20" transform="translate(589.990234 0)"/>
      <use xlink:href="#DejaVuSans-Bold-62" transform="translate(624.804688 0)"/>
      <use xlink:href="#DejaVuSans-Bold-6c" transform="translate(696.386719 0)"/>
      <use xlink:href="#DejaVuSans-Bold-6f" transform="translate(730.664062 0)"/>
      <use xlink:href="#DejaVuSans-Bold-6f" transform="translate(799.365234 0)"/>
      <use xlink:href="#DejaVuSans-Bold-64" transform="translate(868.066406 0)"/>
      <use xlink:href="#DejaVuSans-Bold-20" transform="translate(939.648438 0)"/>
      <use xlink:href="#DejaVuSans-Bold-5b" transform="translate(974.462891 0)"/>
      <use xlink:href="#DejaVuSans-Bold-6e" transform="translate(1020.166016 0)"/>
      <use xlink:href="#DejaVuSans-Bold-4d" transform="translate(1091.357422 0)"/>
      <use xlink:href="#DejaVuSans-Bold-5d" transform="translate(1190.869141 0)"/>
     </g>
    </g>
   </g>
   <g id="LineCollection_1">
    <path d="M 73.384495 217.156126 
L 73.384495 188.36122 
" clip-path="url(#p736aa40cf2)" style="fill: none; stroke: #000000"/>
    <path d="M 74.189368 93.688034 
L 74.189368 55.8 
" clip-path="url(#p736aa40cf2)" style="fill: none; stroke: #000000"/>
    <path d="M 74.970568 100.552309 
L 74.970568 71.757403 
" clip-path="url(#p736aa40cf2)" style="fill: none; stroke: #000000"/>
    <path d="M 77.337841 164.342428 
L 77.337841 149.182278 
" clip-path="url(#p736aa40cf2)" style="fill: none; stroke: #000000"/>
    <path d="M 79.705114 208.428302 
L 79.705114 193.273089 
" clip-path="url(#p736aa40cf2)" style="fill: none; stroke: #000000"/>
    <path d="M 82.072386 229.781356 
L 82.072386 216.141664 
" clip-path="url(#p736aa40cf2)" style="fill: none; stroke: #000000"/>
    <path d="M 84.439659 245.830086 
L 84.439659 235.221436 
" clip-path="url(#p736aa40cf2)" style="fill: none; stroke: #000000"/>
    <path d="M 91.541477 270.488161 
L 91.541477 262.905618 
" clip-path="url(#p736aa40cf2)" style="fill: none; stroke: #000000"/>
    <path d="M 101.010568 282.055944 
L 101.010568 276.527631 
" clip-path="url(#p736aa40cf2)" style="fill: none; stroke: #000000"/>
    <path d="M 115.214205 288.841764 
L 115.214205 285.098762 
" clip-path="url(#p736aa40cf2)" style="fill: none; stroke: #000000"/>
    <path d="M 129.417841 290.946481 
L 129.417841 287.327334 
" clip-path="url(#p736aa40cf2)" style="fill: none; stroke: #000000"/>
    <path d="M 186.232386 296.23496 
L 186.232386 293.751467 
" clip-path="url(#p736aa40cf2)" style="fill: none; stroke: #000000"/>
    <path d="M 243.046932 299.08054 
L 243.046932 297.359022 
" clip-path="url(#p736aa40cf2)" style="fill: none; stroke: #000000"/>
    <path d="M 299.861477 300.800142 
L 299.861477 299.418131 
" clip-path="url(#p736aa40cf2)" style="fill: none; stroke: #000000"/>
    <path d="M 356.676023 302.311326 
L 356.676023 301.132681 
" clip-path="url(#p736aa40cf2)" style="fill: none; stroke: #000000"/>
    <path d="M 413.490568 303.288837 
L 413.490568 302.320103 
" clip-path="url(#p736aa40cf2)" style="fill: none; stroke: #000000"/>
   </g>
   <g id="LineCollection_2">
    <path d="M 73.384495 291.416671 
L 73.384495 279.292501 
" clip-path="url(#p736aa40cf2)" style="fill: none; stroke: #800080"/>
    <path d="M 74.189368 264.184184 
L 74.189368 252.055077 
" clip-path="url(#p736aa40cf2)" style="fill: none; stroke: #800080"/>
    <path d="M 74.970568 241.495793 
L 74.970568 227.856101 
" clip-path="url(#p736aa40cf2)" style="fill: none; stroke: #800080"/>
    <path d="M 77.337841 182.526216 
L 77.337841 162.824439 
" clip-path="url(#p736aa40cf2)" style="fill: none; stroke: #800080"/>
    <path d="M 79.705114 167.509226 
L 79.705114 146.291927 
" clip-path="url(#p736aa40cf2)" style="fill: none; stroke: #800080"/>
    <path d="M 82.072386 169.160503 
L 82.072386 144.912161 
" clip-path="url(#p736aa40cf2)" style="fill: none; stroke: #800080"/>
    <path d="M 84.439659 184.451471 
L 84.439659 163.234172 
" clip-path="url(#p736aa40cf2)" style="fill: none; stroke: #800080"/>
    <path d="M 91.541477 240.177734 
L 91.541477 228.048627 
" clip-path="url(#p736aa40cf2)" style="fill: none; stroke: #800080"/>
    <path d="M 101.010568 261.432509 
L 101.010568 256.197363 
" clip-path="url(#p736aa40cf2)" style="fill: none; stroke: #800080"/>
    <path d="M 115.214205 277.206133 
L 115.214205 273.242788 
" clip-path="url(#p736aa40cf2)" style="fill: none; stroke: #800080"/>
    <path d="M 129.417841 282.055944 
L 129.417841 277.85389 
" clip-path="url(#p736aa40cf2)" style="fill: none; stroke: #800080"/>
    <path d="M 186.232386 290.946481 
L 186.232386 288.195578 
" clip-path="url(#p736aa40cf2)" style="fill: none; stroke: #800080"/>
    <path d="M 243.046932 295.291112 
L 243.046932 293.036234 
" clip-path="url(#p736aa40cf2)" style="fill: none; stroke: #800080"/>
    <path d="M 299.861477 298.068277 
L 299.861477 296.479824 
" clip-path="url(#p736aa40cf2)" style="fill: none; stroke: #800080"/>
    <path d="M 356.676023 299.987511 
L 356.676023 298.712324 
" clip-path="url(#p736aa40cf2)" style="fill: none; stroke: #800080"/>
    <path d="M 413.490568 301.429062 
L 413.490568 300.38917 
" clip-path="url(#p736aa40cf2)" style="fill: none; stroke: #800080"/>
   </g>
   <g id="line2d_16">
    <path d="M 72.603295 307.8 
L 72.780841 297.803184 
L 73.491023 209.404785 
L 74.023659 173.771563 
L 74.37875 160.486487 
L 74.733841 152.83262 
L 75.088932 149.15903 
L 75.266477 148.424374 
L 75.444023 148.261002 
L 75.621568 148.568822 
L 75.976659 150.270303 
L 76.509295 154.607944 
L 77.752114 167.852327 
L 79.350023 184.104031 
L 80.592841 194.317174 
L 81.835659 202.508604 
L 83.078477 209.098086 
L 84.321295 214.487287 
L 85.741659 219.581888 
L 87.162023 223.868866 
L 88.759932 228.019268 
L 90.712932 232.430505 
L 92.843477 236.682575 
L 95.329114 241.141399 
L 98.169841 245.7665 
L 101.188114 250.261363 
L 104.383932 254.633991 
L 107.757295 258.875255 
L 111.130659 262.772521 
L 114.681568 266.537728 
L 118.232477 269.987237 
L 121.960932 273.298975 
L 125.689386 276.320548 
L 129.595386 279.20254 
L 133.678932 281.933805 
L 137.940023 284.506095 
L 142.201114 286.822581 
L 146.817295 289.072881 
L 151.611023 291.154593 
L 156.582295 293.069331 
L 161.908659 294.877111 
L 167.590114 296.561563 
L 173.626659 298.111393 
L 180.018295 299.520085 
L 186.942568 300.816001 
L 194.399477 301.985718 
L 202.744114 303.064009 
L 211.976477 304.025595 
L 222.274114 304.86969 
L 233.992114 305.603075 
L 247.663114 306.230118 
L 263.997295 306.749279 
L 284.237477 307.161136 
L 310.869295 307.468034 
L 349.396659 307.671239 
L 417.574114 307.775904 
L 427.694205 307.781211 
L 427.694205 307.781211 
" clip-path="url(#p736aa40cf2)" style="fill: none; stroke: #000000; stroke-width: 2; stroke-linecap: square"/>
   </g>
   <g id="line2d_17">
    <path d="M 73.384495 202.758673 
L 74.189368 74.744017 
L 74.970568 86.154856 
L 77.337841 156.762353 
L 79.705114 200.850696 
L 82.072386 222.96151 
L 84.439659 240.525761 
L 91.541477 266.696889 
L 101.010568 279.291788 
L 115.214205 286.970263 
L 129.417841 289.136907 
L 186.232386 294.993213 
L 243.046932 298.219781 
L 299.861477 300.109137 
L 356.676023 301.722004 
L 413.490568 302.80447 
" clip-path="url(#p736aa40cf2)" style="fill: none; stroke-dasharray: 3.7,1.6; stroke-dashoffset: 0; stroke: #000000"/>
    <defs>
     <path id="meecea636e2" d="M -3 3 
L 3 3 
L 3 -3 
L -3 -3 
z
" style="stroke: #000000; stroke-linejoin: miter"/>
    </defs>
    <g clip-path="url(#p736aa40cf2)">
     <use xlink:href="#meecea636e2" x="73.384495" y="202.758673" style="stroke: #000000; stroke-linejoin: miter"/>
     <use xlink:href="#meecea636e2" x="74.189368" y="74.744017" style="stroke: #000000; stroke-linejoin: miter"/>
     <use xlink:href="#meecea636e2" x="74.970568" y="86.154856" style="stroke: #000000; stroke-linejoin: miter"/>
     <use xlink:href="#meecea636e2" x="77.337841" y="156.762353" style="stroke: #000000; stroke-linejoin: miter"/>
     <use xlink:href="#meecea636e2" x="79.705114" y="200.850696" style="stroke: #000000; stroke-linejoin: miter"/>
     <use xlink:href="#meecea636e2" x="82.072386" y="222.96151" style="stroke: #000000; stroke-linejoin: miter"/>
     <use xlink:href="#meecea636e2" x="84.439659" y="240.525761" style="stroke: #000000; stroke-linejoin: miter"/>
     <use xlink:href="#meecea636e2" x="91.541477" y="266.696889" style="stroke: #000000; stroke-linejoin: miter"/>
     <use xlink:href="#meecea636e2" x="101.010568" y="279.291788" style="stroke: #000000; stroke-linejoin: miter"/>
     <use xlink:href="#meecea636e2" x="115.214205" y="286.970263" style="stroke: #000000; stroke-linejoin: miter"/>
     <use xlink:href="#meecea636e2" x="129.417841" y="289.136907" style="stroke: #000000; stroke-linejoin: miter"/>
     <use xlink:href="#meecea636e2" x="186.232386" y="294.993213" style="stroke: #000000; stroke-linejoin: miter"/>
     <use xlink:href="#meecea636e2" x="243.046932" y="298.219781" style="stroke: #000000; stroke-linejoin: miter"/>
     <use xlink:href="#meecea636e2" x="299.861477" y="300.109137" style="stroke: #000000; stroke-linejoin: miter"/>
     <use xlink:href="#meecea636e2" x="356.676023" y="301.722004" style="stroke: #000000; stroke-linejoin: miter"/>
     <use xlink:href="#meecea636e2" x="413.490568" y="302.80447" style="stroke: #000000; stroke-linejoin: miter"/>
    </g>
   </g>
   <g id="line2d_18">
    <path d="M 72.603295 307.8 
L 72.780841 300.770292 
L 73.491023 236.551911 
L 74.023659 208.226585 
L 74.556295 192.00937 
L 75.088932 183.374561 
L 75.444023 180.362764 
L 75.799114 178.84835 
L 76.154205 178.408566 
L 76.33175 178.490982 
L 76.686841 179.106926 
L 77.219477 180.819704 
L 78.107205 184.780373 
L 81.658114 201.676824 
L 83.256023 207.940623 
L 85.031477 213.9573 
L 86.806932 219.19738 
L 88.759932 224.281525 
L 90.890477 229.214861 
L 93.198568 234.013677 
L 95.684205 238.694808 
L 98.524932 243.560643 
L 101.543205 248.274608 
L 104.739023 252.839793 
L 107.934841 257.02775 
L 111.308205 261.087433 
L 114.859114 265.002064 
L 118.410023 268.584313 
L 122.138477 272.021191 
L 125.866932 275.155767 
L 129.772932 278.144935 
L 133.678932 280.860136 
L 137.762477 283.4332 
L 142.023568 285.856434 
L 146.462205 288.124715 
L 151.078386 290.235342 
L 155.872114 292.187838 
L 161.020932 294.043891 
L 166.524841 295.784626 
L 172.383841 297.396292 
L 178.597932 298.870068 
L 185.344659 300.234775 
L 192.624023 301.474291 
L 200.613568 302.602256 
L 209.313295 303.603002 
L 219.078295 304.498661 
L 230.086114 305.281317 
L 242.869386 305.960489 
L 257.96075 306.530622 
L 276.247932 306.99023 
L 299.683932 307.344839 
L 331.819659 307.593418 
L 382.775205 307.740966 
L 427.694205 307.780431 
L 427.694205 307.780431 
" clip-path="url(#p736aa40cf2)" style="fill: none; stroke: #800080; stroke-width: 2; stroke-linecap: square"/>
   </g>
   <g id="line2d_19">
    <path d="M 73.384495 285.354586 
L 74.189368 258.119631 
L 74.970568 234.675947 
L 77.337841 172.675327 
L 79.705114 156.900577 
L 82.072386 157.036332 
L 84.439659 173.842822 
L 91.541477 234.11318 
L 101.010568 258.814936 
L 115.214205 275.22446 
L 129.417841 279.954917 
L 186.232386 289.571029 
L 243.046932 294.163673 
L 299.861477 297.27405 
L 356.676023 299.349917 
L 413.490568 300.909116 
" clip-path="url(#p736aa40cf2)" style="fill: none; stroke-dasharray: 3.7,1.6; stroke-dashoffset: 0; stroke: #800080"/>
    <defs>
     <path id="mc7d91b6ef1" d="M -3 3 
L 3 3 
L 3 -3 
L -3 -3 
z
" style="stroke: #000000; stroke-linejoin: miter"/>
    </defs>
    <g clip-path="url(#p736aa40cf2)">
     <use xlink:href="#mc7d91b6ef1" x="73.384495" y="285.354586" style="fill: #800080; stroke: #000000; stroke-linejoin: miter"/>
     <use xlink:href="#mc7d91b6ef1" x="74.189368" y="258.119631" style="fill: #800080; stroke: #000000; stroke-linejoin: miter"/>
     <use xlink:href="#mc7d91b6ef1" x="74.970568" y="234.675947" style="fill: #800080; stroke: #000000; stroke-linejoin: miter"/>
     <use xlink:href="#mc7d91b6ef1" x="77.337841" y="172.675327" style="fill: #800080; stroke: #000000; stroke-linejoin: miter"/>
     <use xlink:href="#mc7d91b6ef1" x="79.705114" y="156.900577" style="fill: #800080; stroke: #000000; stroke-linejoin: miter"/>
     <use xlink:href="#mc7d91b6ef1" x="82.072386" y="157.036332" style="fill: #800080; stroke: #000000; stroke-linejoin: miter"/>
     <use xlink:href="#mc7d91b6ef1" x="84.439659" y="173.842822" style="fill: #800080; stroke: #000000; stroke-linejoin: miter"/>
     <use xlink:href="#mc7d91b6ef1" x="91.541477" y="234.11318" style="fill: #800080; stroke: #000000; stroke-linejoin: miter"/>
     <use xlink:href="#mc7d91b6ef1" x="101.010568" y="258.814936" style="fill: #800080; stroke: #000000; stroke-linejoin: miter"/>
     <use xlink:href="#mc7d91b6ef1" x="115.214205" y="275.22446" style="fill: #800080; stroke: #000000; stroke-linejoin: miter"/>
     <use xlink:href="#mc7d91b6ef1" x="129.417841" y="279.954917" style="fill: #800080; stroke: #000000; stroke-linejoin: miter"/>
     <use xlink:href="#mc7d91b6ef1" x="186.232386" y="289.571029" style="fill: #800080; stroke: #000000; stroke-linejoin: miter"/>
     <use xlink:href="#mc7d91b6ef1" x="243.046932" y="294.163673" style="fill: #800080; stroke: #000000; stroke-linejoin: miter"/>
     <use xlink:href="#mc7d91b6ef1" x="299.861477" y="297.27405" style="fill: #800080; stroke: #000000; stroke-linejoin: miter"/>
     <use xlink:href="#mc7d91b6ef1" x="356.676023" y="299.349917" style="fill: #800080; stroke: #000000; stroke-linejoin: miter"/>
     <use xlink:href="#mc7d91b6ef1" x="413.490568" y="300.909116" style="fill: #800080; stroke: #000000; stroke-linejoin: miter"/>
    </g>
   </g>
   <g id="patch_3">
    <path d="M 54.84875 320.4 
L 54.84875 43.2 
" style="fill: none; stroke: #000000; stroke-width: 0.8; stroke-linejoin: miter; stroke-linecap: square"/>
   </g>
   <g id="patch_4">
    <path d="M 445.44875 320.4 
L 445.44875 43.2 
" style="fill: none; stroke: #000000; stroke-width: 0.8; stroke-linejoin: miter; stroke-linecap: square"/>
   </g>
   <g id="patch_5">
    <path d="M 54.84875 320.4 
L 445.44875 320.4 
" style="fill: none; stroke: #000000; stroke-width: 0.8; stroke-linejoin: miter; stroke-linecap: square"/>
   </g>
   <g id="patch_6">
    <path d="M 54.84875 43.2 
L 445.44875 43.2 
" style="fill: none; stroke: #000000; stroke-width: 0.8; stroke-linejoin: miter; stroke-linecap: square"/>
   </g>
   <g id="legend_1">
    <g id="patch_7">
     <path d="M 314.3175 109.9125 
L 438.44875 109.9125 
Q 440.44875 109.9125 440.44875 107.9125 
L 440.44875 50.2 
Q 440.44875 48.2 438.44875 48.2 
L 314.3175 48.2 
Q 312.3175 48.2 312.3175 50.2 
L 312.3175 107.9125 
Q 312.3175 109.9125 314.3175 109.9125 
z
" style="fill: #ffffff; opacity: 0.8; stroke: #cccccc; stroke-linejoin: miter"/>
    </g>
    <g id="line2d_20">
     <path d="M 316.3175 56.298437 
L 336.3175 56.298437 
" style="fill: none; stroke: #000000; stroke-width: 2; stroke-linecap: square"/>
    </g>
    <g id="line2d_21"/>
    <g id="text_18">
     <!-- fasted -->
     <g transform="translate(344.3175 59.798437) scale(0.1 -0.1)">
      <defs>
       <path id="DejaVuSans-66" d="M 2375 4863 
L 2375 4384 
L 1825 4384 
Q 1516 4384 1395 4259 
Q 1275 4134 1275 3809 
L 1275 3500 
L 2222 3500 
L 2222 3053 
L 1275 3053 
L 1275 0 
L 697 0 
L 697 3053 
L 147 3053 
L 147 3500 
L 697 3500 
L 697 3744 
Q 697 4328 969 4595 
Q 1241 4863 1831 4863 
L 2375 4863 
z
" transform="scale(0.015625)"/>
       <path id="DejaVuSans-61" d="M 2194 1759 
Q 1497 1759 1228 1600 
Q 959 1441 959 1056 
Q 959 750 1161 570 
Q 1363 391 1709 391 
Q 2188 391 2477 730 
Q 2766 1069 2766 1631 
L 2766 1759 
L 2194 1759 
z
M 3341 1997 
L 3341 0 
L 2766 0 
L 2766 531 
Q 2569 213 2275 61 
Q 1981 -91 1556 -91 
Q 1019 -91 701 211 
Q 384 513 384 1019 
Q 384 1609 779 1909 
Q 1175 2209 1959 2209 
L 2766 2209 
L 2766 2266 
Q 2766 2663 2505 2880 
Q 2244 3097 1772 3097 
Q 1472 3097 1187 3025 
Q 903 2953 641 2809 
L 641 3341 
Q 956 3463 1253 3523 
Q 1550 3584 1831 3584 
Q 2591 3584 2966 3190 
Q 3341 2797 3341 1997 
z
" transform="scale(0.015625)"/>
       <path id="DejaVuSans-73" d="M 2834 3397 
L 2834 2853 
Q 2591 2978 2328 3040 
Q 2066 3103 1784 3103 
Q 1356 3103 1142 2972 
Q 928 2841 928 2578 
Q 928 2378 1081 2264 
Q 1234 2150 1697 2047 
L 1894 2003 
Q 2506 1872 2764 1633 
Q 3022 1394 3022 966 
Q 3022 478 2636 193 
Q 2250 -91 1575 -91 
Q 1294 -91 989 -36 
Q 684 19 347 128 
L 347 722 
Q 666 556 975 473 
Q 1284 391 1588 391 
Q 1994 391 2212 530 
Q 2431 669 2431 922 
Q 2431 1156 2273 1281 
Q 2116 1406 1581 1522 
L 1381 1569 
Q 847 1681 609 1914 
Q 372 2147 372 2553 
Q 372 3047 722 3315 
Q 1072 3584 1716 3584 
Q 2034 3584 2315 3537 
Q 2597 3491 2834 3397 
z
" transform="scale(0.015625)"/>
       <path id="DejaVuSans-74" d="M 1172 4494 
L 1172 3500 
L 2356 3500 
L 2356 3053 
L 1172 3053 
L 1172 1153 
Q 1172 725 1289 603 
Q 1406 481 1766 481 
L 2356 481 
L 2356 0 
L 1766 0 
Q 1100 0 847 248 
Q 594 497 594 1153 
L 594 3053 
L 172 3053 
L 172 3500 
L 594 3500 
L 594 4494 
L 1172 4494 
z
" transform="scale(0.015625)"/>
       <path id="DejaVuSans-65" d="M 3597 1894 
L 3597 1613 
L 953 1613 
Q 991 1019 1311 708 
Q 1631 397 2203 397 
Q 2534 397 2845 478 
Q 3156 559 3463 722 
L 3463 178 
Q 3153 47 2828 -22 
Q 2503 -91 2169 -91 
Q 1331 -91 842 396 
Q 353 884 353 1716 
Q 353 2575 817 3079 
Q 1281 3584 2069 3584 
Q 2775 3584 3186 3129 
Q 3597 2675 3597 1894 
z
M 3022 2063 
Q 3016 2534 2758 2815 
Q 2500 3097 2075 3097 
Q 1594 3097 1305 2825 
Q 1016 2553 972 2059 
L 3022 2063 
z
" transform="scale(0.015625)"/>
       <path id="DejaVuSans-64" d="M 2906 2969 
L 2906 4863 
L 3481 4863 
L 3481 0 
L 2906 0 
L 2906 525 
Q 2725 213 2448 61 
Q 2172 -91 1784 -91 
Q 1150 -91 751 415 
Q 353 922 353 1747 
Q 353 2572 751 3078 
Q 1150 3584 1784 3584 
Q 2172 3584 2448 3432 
Q 2725 3281 2906 2969 
z
M 947 1747 
Q 947 1113 1208 752 
Q 1469 391 1925 391 
Q 2381 391 2643 752 
Q 2906 1113 2906 1747 
Q 2906 2381 2643 2742 
Q 2381 3103 1925 3103 
Q 1469 3103 1208 2742 
Q 947 2381 947 1747 
z
" transform="scale(0.015625)"/>
      </defs>
      <use xlink:href="#DejaVuSans-66"/>
      <use xlink:href="#DejaVuSans-61" transform="translate(35.205078 0)"/>
      <use xlink:href="#DejaVuSans-73" transform="translate(96.484375 0)"/>
      <use xlink:href="#DejaVuSans-74" transform="translate(148.583984 0)"/>
      <use xlink:href="#DejaVuSans-65" transform="translate(187.792969 0)"/>
      <use xlink:href="#DejaVuSans-64" transform="translate(249.316406 0)"/>
     </g>
    </g>
    <g id="LineCollection_3">
     <path d="M 326.3175 75.976562 
L 326.3175 65.976562 
" style="fill: none; stroke: #000000"/>
    </g>
    <g id="line2d_22">
     <path d="M 316.3175 70.976562 
L 336.3175 70.976562 
" style="fill: none; stroke-dasharray: 3.7,1.6; stroke-dashoffset: 0; stroke: #000000"/>
    </g>
    <g id="line2d_23">
     <g>
      <use xlink:href="#meecea636e2" x="326.3175" y="70.976562" style="stroke: #000000; stroke-linejoin: miter"/>
     </g>
    </g>
    <g id="text_19">
     <!-- fasted±SD (n=22) -->
     <g transform="translate(344.3175 74.476562) scale(0.1 -0.1)">
      <defs>
       <path id="DejaVuSans-b1" d="M 2944 4013 
L 2944 2803 
L 4684 2803 
L 4684 2272 
L 2944 2272 
L 2944 1063 
L 2419 1063 
L 2419 2272 
L 678 2272 
L 678 2803 
L 2419 2803 
L 2419 4013 
L 2944 4013 
z
M 678 531 
L 4684 531 
L 4684 0 
L 678 0 
L 678 531 
z
" transform="scale(0.015625)"/>
       <path id="DejaVuSans-53" d="M 3425 4513 
L 3425 3897 
Q 3066 4069 2747 4153 
Q 2428 4238 2131 4238 
Q 1616 4238 1336 4038 
Q 1056 3838 1056 3469 
Q 1056 3159 1242 3001 
Q 1428 2844 1947 2747 
L 2328 2669 
Q 3034 2534 3370 2195 
Q 3706 1856 3706 1288 
Q 3706 609 3251 259 
Q 2797 -91 1919 -91 
Q 1588 -91 1214 -16 
Q 841 59 441 206 
L 441 856 
Q 825 641 1194 531 
Q 1563 422 1919 422 
Q 2459 422 2753 634 
Q 3047 847 3047 1241 
Q 3047 1584 2836 1778 
Q 2625 1972 2144 2069 
L 1759 2144 
Q 1053 2284 737 2584 
Q 422 2884 422 3419 
Q 422 4038 858 4394 
Q 1294 4750 2059 4750 
Q 2388 4750 2728 4690 
Q 3069 4631 3425 4513 
z
" transform="scale(0.015625)"/>
       <path id="DejaVuSans-44" d="M 1259 4147 
L 1259 519 
L 2022 519 
Q 2988 519 3436 956 
Q 3884 1394 3884 2338 
Q 3884 3275 3436 3711 
Q 2988 4147 2022 4147 
L 1259 4147 
z
M 628 4666 
L 1925 4666 
Q 3281 4666 3915 4102 
Q 4550 3538 4550 2338 
Q 4550 1131 3912 565 
Q 3275 0 1925 0 
L 628 0 
L 628 4666 
z
" transform="scale(0.015625)"/>
       <path id="DejaVuSans-20" transform="scale(0.015625)"/>
       <path id="DejaVuSans-28" d="M 1984 4856 
Q 1566 4138 1362 3434 
Q 1159 2731 1159 2009 
Q 1159 1288 1364 580 
Q 1569 -128 1984 -844 
L 1484 -844 
Q 1016 -109 783 600 
Q 550 1309 550 2009 
Q 550 2706 781 3412 
Q 1013 4119 1484 4856 
L 1984 4856 
z
" transform="scale(0.015625)"/>
       <path id="DejaVuSans-6e" d="M 3513 2113 
L 3513 0 
L 2938 0 
L 2938 2094 
Q 2938 2591 2744 2837 
Q 2550 3084 2163 3084 
Q 1697 3084 1428 2787 
Q 1159 2491 1159 1978 
L 1159 0 
L 581 0 
L 581 3500 
L 1159 3500 
L 1159 2956 
Q 1366 3272 1645 3428 
Q 1925 3584 2291 3584 
Q 2894 3584 3203 3211 
Q 3513 2838 3513 2113 
z
" transform="scale(0.015625)"/>
       <path id="DejaVuSans-3d" d="M 678 2906 
L 4684 2906 
L 4684 2381 
L 678 2381 
L 678 2906 
z
M 678 1631 
L 4684 1631 
L 4684 1100 
L 678 1100 
L 678 1631 
z
" transform="scale(0.015625)"/>
       <path id="DejaVuSans-29" d="M 513 4856 
L 1013 4856 
Q 1481 4119 1714 3412 
Q 1947 2706 1947 2009 
Q 1947 1309 1714 600 
Q 1481 -109 1013 -844 
L 513 -844 
Q 928 -128 1133 580 
Q 1338 1288 1338 2009 
Q 1338 2731 1133 3434 
Q 928 4138 513 4856 
z
" transform="scale(0.015625)"/>
      </defs>
      <use xlink:href="#DejaVuSans-66"/>
      <use xlink:href="#DejaVuSans-61" transform="translate(35.205078 0)"/>
      <use xlink:href="#DejaVuSans-73" transform="translate(96.484375 0)"/>
      <use xlink:href="#DejaVuSans-74" transform="translate(148.583984 0)"/>
      <use xlink:href="#DejaVuSans-65" transform="translate(187.792969 0)"/>
      <use xlink:href="#DejaVuSans-64" transform="translate(249.316406 0)"/>
      <use xlink:href="#DejaVuSans-b1" transform="translate(312.792969 0)"/>
      <use xlink:href="#DejaVuSans-53" transform="translate(396.582031 0)"/>
      <use xlink:href="#DejaVuSans-44" transform="translate(460.058594 0)"/>
      <use xlink:href="#DejaVuSans-20" transform="translate(537.060547 0)"/>
      <use xlink:href="#DejaVuSans-28" transform="translate(568.847656 0)"/>
      <use xlink:href="#DejaVuSans-6e" transform="translate(607.861328 0)"/>
      <use xlink:href="#DejaVuSans-3d" transform="translate(671.240234 0)"/>
      <use xlink:href="#DejaVuSans-32" transform="translate(755.029297 0)"/>
      <use xlink:href="#DejaVuSans-32" transform="translate(818.652344 0)"/>
      <use xlink:href="#DejaVuSans-29" transform="translate(882.275391 0)"/>
     </g>
    </g>
    <g id="line2d_24">
     <path d="M 316.3175 85.654687 
L 336.3175 85.654687 
" style="fill: none; stroke: #800080; stroke-width: 2; stroke-linecap: square"/>
    </g>
    <g id="line2d_25"/>
    <g id="text_20">
     <!-- fed -->
     <g transform="translate(344.3175 89.154687) scale(0.1 -0.1)">
      <use xlink:href="#DejaVuSans-66"/>
      <use xlink:href="#DejaVuSans-65" transform="translate(35.205078 0)"/>
      <use xlink:href="#DejaVuSans-64" transform="translate(96.728516 0)"/>
     </g>
    </g>
    <g id="LineCollection_4">
     <path d="M 326.3175 105.332812 
L 326.3175 95.332812 
" style="fill: none; stroke: #800080"/>
    </g>
    <g id="line2d_26">
     <path d="M 316.3175 100.332812 
L 336.3175 100.332812 
" style="fill: none; stroke-dasharray: 3.7,1.6; stroke-dashoffset: 0; stroke: #800080"/>
    </g>
    <g id="line2d_27">
     <g>
      <use xlink:href="#mc7d91b6ef1" x="326.3175" y="100.332812" style="fill: #800080; stroke: #000000; stroke-linejoin: miter"/>
     </g>
    </g>
    <g id="text_21">
     <!-- fed±SD (n=22) -->
     <g transform="translate(344.3175 103.832812) scale(0.1 -0.1)">
      <use xlink:href="#DejaVuSans-66"/>
      <use xlink:href="#DejaVuSans-65" transform="translate(35.205078 0)"/>
      <use xlink:href="#DejaVuSans-64" transform="translate(96.728516 0)"/>
      <use xlink:href="#DejaVuSans-b1" transform="translate(160.205078 0)"/>
      <use xlink:href="#DejaVuSans-53" transform="translate(243.994141 0)"/>
      <use xlink:href="#DejaVuSans-44" transform="translate(307.470703 0)"/>
      <use xlink:href="#DejaVuSans-20" transform="translate(384.472656 0)"/>
      <use xlink:href="#DejaVuSans-28" transform="translate(416.259766 0)"/>
      <use xlink:href="#DejaVuSans-6e" transform="translate(455.273438 0)"/>
      <use xlink:href="#DejaVuSans-3d" transform="translate(518.652344 0)"/>
      <use xlink:href="#DejaVuSans-32" transform="translate(602.441406 0)"/>
      <use xlink:href="#DejaVuSans-32" transform="translate(666.064453 0)"/>
      <use xlink:href="#DejaVuSans-29" transform="translate(729.6875 0)"/>
     </g>
    </g>
   </g>
  </g>
  <g id="text_22">
   <!-- Zimmerman1999 -->
   <g transform="translate(124.657344 26.196094) scale(0.25 -0.25)">
    <defs>
     <path id="DejaVuSans-Bold-5a" d="M 359 4666 
L 4281 4666 
L 4281 3938 
L 1778 909 
L 4353 909 
L 4353 0 
L 288 0 
L 288 728 
L 2791 3756 
L 359 3756 
L 359 4666 
z
" transform="scale(0.015625)"/>
     <path id="DejaVuSans-Bold-31" d="M 750 831 
L 1813 831 
L 1813 3847 
L 722 3622 
L 722 4441 
L 1806 4666 
L 2950 4666 
L 2950 831 
L 4013 831 
L 4013 0 
L 750 0 
L 750 831 
z
" transform="scale(0.015625)"/>
     <path id="DejaVuSans-Bold-39" d="M 641 103 
L 641 966 
Q 928 831 1190 764 
Q 1453 697 1709 697 
Q 2247 697 2547 995 
Q 2847 1294 2900 1881 
Q 2688 1725 2447 1647 
Q 2206 1569 1925 1569 
Q 1209 1569 770 1986 
Q 331 2403 331 3084 
Q 331 3838 820 4291 
Q 1309 4744 2131 4744 
Q 3044 4744 3544 4128 
Q 4044 3513 4044 2388 
Q 4044 1231 3459 570 
Q 2875 -91 1856 -91 
Q 1528 -91 1228 -42 
Q 928 6 641 103 
z
M 2125 2350 
Q 2441 2350 2600 2554 
Q 2759 2759 2759 3169 
Q 2759 3575 2600 3781 
Q 2441 3988 2125 3988 
Q 1809 3988 1650 3781 
Q 1491 3575 1491 3169 
Q 1491 2759 1650 2554 
Q 1809 2350 2125 2350 
z
" transform="scale(0.015625)"/>
    </defs>
    <use xlink:href="#DejaVuSans-Bold-5a"/>
    <use xlink:href="#DejaVuSans-Bold-69" transform="translate(72.509766 0)"/>
    <use xlink:href="#DejaVuSans-Bold-6d" transform="translate(106.787109 0)"/>
    <use xlink:href="#DejaVuSans-Bold-6d" transform="translate(210.986328 0)"/>
    <use xlink:href="#DejaVuSans-Bold-65" transform="translate(315.185547 0)"/>
    <use xlink:href="#DejaVuSans-Bold-72" transform="translate(383.007812 0)"/>
    <use xlink:href="#DejaVuSans-Bold-6d" transform="translate(432.324219 0)"/>
    <use xlink:href="#DejaVuSans-Bold-61" transform="translate(536.523438 0)"/>
    <use xlink:href="#DejaVuSans-Bold-6e" transform="translate(604.003906 0)"/>
    <use xlink:href="#DejaVuSans-Bold-31" transform="translate(675.195312 0)"/>
    <use xlink:href="#DejaVuSans-Bold-39" transform="translate(744.775391 0)"/>
    <use xlink:href="#DejaVuSans-Bold-39" transform="translate(814.355469 0)"/>
    <use xlink:href="#DejaVuSans-Bold-39" transform="translate(883.935547 0)"/>
   </g>
  </g>
 </g>
 <defs>
  <clipPath id="p736aa40cf2">
   <rect x="54.84875" y="43.2" width="390.6" height="277.2"/>
  </clipPath>
 </defs>
</svg>
