<?xml version="1.0" encoding="utf-8" standalone="no"?>
<!DOCTYPE svg PUBLIC "-//W3C//DTD SVG 1.1//EN"
  "http://www.w3.org/Graphics/SVG/1.1/DTD/svg11.dtd">
<svg xmlns:xlink="http://www.w3.org/1999/xlink" width="455.674531pt" height="370.537812pt" viewBox="0 0 455.674531 370.537812" xmlns="http://www.w3.org/2000/svg" version="1.1">
 <metadata>
  <rdf:RDF xmlns:dc="http://purl.org/dc/elements/1.1/" xmlns:cc="http://creativecommons.org/ns#" xmlns:rdf="http://www.w3.org/1999/02/22-rdf-syntax-ns#">
   <cc:Work>
    <dc:type rdf:resource="http://purl.org/dc/dcmitype/StillImage"/>
    <dc:date>2026-02-12T15:19:43.077869</dc:date>
    <dc:format>image/svg+xml</dc:format>
    <dc:creator>
     <cc:Agent>
      <dc:title>Matplotlib v3.10.7, https://matplotlib.org/</dc:title>
     </cc:Agent>
    </dc:creator>
   </cc:Work>
  </rdf:RDF>
 </metadata>
 <defs>
  <style type="text/css">*{stroke-linejoin: round; stroke-linecap: butt}</style>
 </defs>
 <g id="figure_1">
  <g id="patch_1">
   <path d="M 0 370.537812 
L 455.674531 370.537812 
L 455.674531 0 
L 0 0 
z
" style="fill: #ffffff"/>
  </g>
  <g id="axes_1">
   <g id="patch_2">
    <path d="M 57.874531 320.4 
L 448.474531 320.4 
L 448.474531 43.2 
L 57.874531 43.2 
z
" style="fill: #ffffff"/>
   </g>
   <g id="matplotlib.axis_1">
    <g id="xtick_1">
     <g id="line2d_1">
      <defs>
       <path id="m4726530d23" d="M 0 0 
L 0 3.5 
" style="stroke: #000000; stroke-width: 0.8"/>
      </defs>
      <g>
       <use xlink:href="#m4726530d23" x="75.629077" y="320.4" style="stroke: #000000; stroke-width: 0.8"/>
      </g>
     </g>
     <g id="text_1">
      <!-- 0 -->
      <g transform="translate(70.857202 338.797656) scale(0.15 -0.15)">
       <defs>
        <path id="DejaVuSans-30" d="M 2034 4250 
Q 1547 4250 1301 3770 
Q 1056 3291 1056 2328 
Q 1056 1369 1301 889 
Q 1547 409 2034 409 
Q 2525 409 2770 889 
Q 3016 1369 3016 2328 
Q 3016 3291 2770 3770 
Q 2525 4250 2034 4250 
z
M 2034 4750 
Q 2819 4750 3233 4129 
Q 3647 3509 3647 2328 
Q 3647 1150 3233 529 
Q 2819 -91 2034 -91 
Q 1250 -91 836 529 
Q 422 1150 422 2328 
Q 422 3509 836 4129 
Q 1250 4750 2034 4750 
z
" transform="scale(0.015625)"/>
       </defs>
       <use xlink:href="#DejaVuSans-30"/>
      </g>
     </g>
    </g>
    <g id="xtick_2">
     <g id="line2d_2">
      <g>
       <use xlink:href="#m4726530d23" x="134.810895" y="320.4" style="stroke: #000000; stroke-width: 0.8"/>
      </g>
     </g>
     <g id="text_2">
      <!-- 25 -->
      <g transform="translate(125.267145 338.797656) scale(0.15 -0.15)">
       <defs>
        <path id="DejaVuSans-32" d="M 1228 531 
L 3431 531 
L 3431 0 
L 469 0 
L 469 531 
Q 828 903 1448 1529 
Q 2069 2156 2228 2338 
Q 2531 2678 2651 2914 
Q 2772 3150 2772 3378 
Q 2772 3750 2511 3984 
Q 2250 4219 1831 4219 
Q 1534 4219 1204 4116 
Q 875 4013 500 3803 
L 500 4441 
Q 881 4594 1212 4672 
Q 1544 4750 1819 4750 
Q 2544 4750 2975 4387 
Q 3406 4025 3406 3419 
Q 3406 3131 3298 2873 
Q 3191 2616 2906 2266 
Q 2828 2175 2409 1742 
Q 1991 1309 1228 531 
z
" transform="scale(0.015625)"/>
        <path id="DejaVuSans-35" d="M 691 4666 
L 3169 4666 
L 3169 4134 
L 1269 4134 
L 1269 2991 
Q 1406 3038 1543 3061 
Q 1681 3084 1819 3084 
Q 2600 3084 3056 2656 
Q 3513 2228 3513 1497 
Q 3513 744 3044 326 
Q 2575 -91 1722 -91 
Q 1428 -91 1123 -41 
Q 819 9 494 109 
L 494 744 
Q 775 591 1075 516 
Q 1375 441 1709 441 
Q 2250 441 2565 725 
Q 2881 1009 2881 1497 
Q 2881 1984 2565 2268 
Q 2250 2553 1709 2553 
Q 1456 2553 1204 2497 
Q 953 2441 691 2322 
L 691 4666 
z
" transform="scale(0.015625)"/>
       </defs>
       <use xlink:href="#DejaVuSans-32"/>
       <use xlink:href="#DejaVuSans-35" transform="translate(63.623047 0)"/>
      </g>
     </g>
    </g>
    <g id="xtick_3">
     <g id="line2d_3">
      <g>
       <use xlink:href="#m4726530d23" x="193.992713" y="320.4" style="stroke: #000000; stroke-width: 0.8"/>
      </g>
     </g>
     <g id="text_3">
      <!-- 50 -->
      <g transform="translate(184.448963 338.797656) scale(0.15 -0.15)">
       <use xlink:href="#DejaVuSans-35"/>
       <use xlink:href="#DejaVuSans-30" transform="translate(63.623047 0)"/>
      </g>
     </g>
    </g>
    <g id="xtick_4">
     <g id="line2d_4">
      <g>
       <use xlink:href="#m4726530d23" x="253.174531" y="320.4" style="stroke: #000000; stroke-width: 0.8"/>
      </g>
     </g>
     <g id="text_4">
      <!-- 75 -->
      <g transform="translate(243.630781 338.797656) scale(0.15 -0.15)">
       <defs>
        <path id="DejaVuSans-37" d="M 525 4666 
L 3525 4666 
L 3525 4397 
L 1831 0 
L 1172 0 
L 2766 4134 
L 525 4134 
L 525 4666 
z
" transform="scale(0.015625)"/>
       </defs>
       <use xlink:href="#DejaVuSans-37"/>
       <use xlink:href="#DejaVuSans-35" transform="translate(63.623047 0)"/>
      </g>
     </g>
    </g>
    <g id="xtick_5">
     <g id="line2d_5">
      <g>
       <use xlink:href="#m4726530d23" x="312.356349" y="320.4" style="stroke: #000000; stroke-width: 0.8"/>
      </g>
     </g>
     <g id="text_5">
      <!-- 100 -->
      <g transform="translate(298.040724 338.797656) scale(0.15 -0.15)">
       <defs>
        <path id="DejaVuSans-31" d="M 794 531 
L 1825 531 
L 1825 4091 
L 703 3866 
L 703 4441 
L 1819 4666 
L 2450 4666 
L 2450 531 
L 3481 531 
L 3481 0 
L 794 0 
L 794 531 
z
" transform="scale(0.015625)"/>
       </defs>
       <use xlink:href="#DejaVuSans-31"/>
       <use xlink:href="#DejaVuSans-30" transform="translate(63.623047 0)"/>
       <use xlink:href="#DejaVuSans-30" transform="translate(127.246094 0)"/>
      </g>
     </g>
    </g>
    <g id="xtick_6">
     <g id="line2d_6">
      <g>
       <use xlink:href="#m4726530d23" x="371.538168" y="320.4" style="stroke: #000000; stroke-width: 0.8"/>
      </g>
     </g>
     <g id="text_6">
      <!-- 125 -->
      <g transform="translate(357.222543 338.797656) scale(0.15 -0.15)">
       <use xlink:href="#DejaVuSans-31"/>
       <use xlink:href="#DejaVuSans-32" transform="translate(63.623047 0)"/>
       <use xlink:href="#DejaVuSans-35" transform="translate(127.246094 0)"/>
      </g>
     </g>
    </g>
    <g id="xtick_7">
     <g id="line2d_7">
      <g>
       <use xlink:href="#m4726530d23" x="430.719986" y="320.4" style="stroke: #000000; stroke-width: 0.8"/>
      </g>
     </g>
     <g id="text_7">
      <!-- 150 -->
      <g transform="translate(416.404361 338.797656) scale(0.15 -0.15)">
       <use xlink:href="#DejaVuSans-31"/>
       <use xlink:href="#DejaVuSans-35" transform="translate(63.623047 0)"/>
       <use xlink:href="#DejaVuSans-30" transform="translate(127.246094 0)"/>
      </g>
     </g>
    </g>
    <g id="text_8">
     <!-- time [hr] -->
     <g transform="translate(208.1 359.594375) scale(0.18 -0.18)">
      <defs>
       <path id="DejaVuSans-Bold-74" d="M 1759 4494 
L 1759 3500 
L 2913 3500 
L 2913 2700 
L 1759 2700 
L 1759 1216 
Q 1759 972 1856 886 
Q 1953 800 2241 800 
L 2816 800 
L 2816 0 
L 1856 0 
Q 1194 0 917 276 
Q 641 553 641 1216 
L 641 2700 
L 84 2700 
L 84 3500 
L 641 3500 
L 641 4494 
L 1759 4494 
z
" transform="scale(0.015625)"/>
       <path id="DejaVuSans-Bold-69" d="M 538 3500 
L 1656 3500 
L 1656 0 
L 538 0 
L 538 3500 
z
M 538 4863 
L 1656 4863 
L 1656 3950 
L 538 3950 
L 538 4863 
z
" transform="scale(0.015625)"/>
       <path id="DejaVuSans-Bold-6d" d="M 3781 2919 
Q 3994 3244 4286 3414 
Q 4578 3584 4928 3584 
Q 5531 3584 5847 3212 
Q 6163 2841 6163 2131 
L 6163 0 
L 5038 0 
L 5038 1825 
Q 5041 1866 5042 1909 
Q 5044 1953 5044 2034 
Q 5044 2406 4934 2573 
Q 4825 2741 4581 2741 
Q 4263 2741 4089 2478 
Q 3916 2216 3909 1719 
L 3909 0 
L 2784 0 
L 2784 1825 
Q 2784 2406 2684 2573 
Q 2584 2741 2328 2741 
Q 2006 2741 1831 2477 
Q 1656 2213 1656 1722 
L 1656 0 
L 531 0 
L 531 3500 
L 1656 3500 
L 1656 2988 
Q 1863 3284 2130 3434 
Q 2397 3584 2719 3584 
Q 3081 3584 3359 3409 
Q 3638 3234 3781 2919 
z
" transform="scale(0.015625)"/>
       <path id="DejaVuSans-Bold-65" d="M 4031 1759 
L 4031 1441 
L 1416 1441 
Q 1456 1047 1700 850 
Q 1944 653 2381 653 
Q 2734 653 3104 758 
Q 3475 863 3866 1075 
L 3866 213 
Q 3469 63 3072 -14 
Q 2675 -91 2278 -91 
Q 1328 -91 801 392 
Q 275 875 275 1747 
Q 275 2603 792 3093 
Q 1309 3584 2216 3584 
Q 3041 3584 3536 3087 
Q 4031 2591 4031 1759 
z
M 2881 2131 
Q 2881 2450 2695 2645 
Q 2509 2841 2209 2841 
Q 1884 2841 1681 2658 
Q 1478 2475 1428 2131 
L 2881 2131 
z
" transform="scale(0.015625)"/>
       <path id="DejaVuSans-Bold-20" transform="scale(0.015625)"/>
       <path id="DejaVuSans-Bold-5b" d="M 550 4863 
L 2491 4863 
L 2491 4159 
L 1613 4159 
L 1613 -141 
L 2491 -141 
L 2491 -844 
L 550 -844 
L 550 4863 
z
" transform="scale(0.015625)"/>
       <path id="DejaVuSans-Bold-68" d="M 4056 2131 
L 4056 0 
L 2931 0 
L 2931 347 
L 2931 1625 
Q 2931 2084 2911 2256 
Q 2891 2428 2841 2509 
Q 2775 2619 2662 2680 
Q 2550 2741 2406 2741 
Q 2056 2741 1856 2470 
Q 1656 2200 1656 1722 
L 1656 0 
L 538 0 
L 538 4863 
L 1656 4863 
L 1656 2988 
Q 1909 3294 2193 3439 
Q 2478 3584 2822 3584 
Q 3428 3584 3742 3212 
Q 4056 2841 4056 2131 
z
" transform="scale(0.015625)"/>
       <path id="DejaVuSans-Bold-72" d="M 3138 2547 
Q 2991 2616 2845 2648 
Q 2700 2681 2553 2681 
Q 2122 2681 1889 2404 
Q 1656 2128 1656 1613 
L 1656 0 
L 538 0 
L 538 3500 
L 1656 3500 
L 1656 2925 
Q 1872 3269 2151 3426 
Q 2431 3584 2822 3584 
Q 2878 3584 2943 3579 
Q 3009 3575 3134 3559 
L 3138 2547 
z
" transform="scale(0.015625)"/>
       <path id="DejaVuSans-Bold-5d" d="M 2375 -844 
L 434 -844 
L 434 -141 
L 1313 -141 
L 1313 4159 
L 434 4159 
L 434 4863 
L 2375 4863 
L 2375 -844 
z
" transform="scale(0.015625)"/>
      </defs>
      <use xlink:href="#DejaVuSans-Bold-74"/>
      <use xlink:href="#DejaVuSans-Bold-69" transform="translate(47.802734 0)"/>
      <use xlink:href="#DejaVuSans-Bold-6d" transform="translate(82.080078 0)"/>
      <use xlink:href="#DejaVuSans-Bold-65" transform="translate(186.279297 0)"/>
      <use xlink:href="#DejaVuSans-Bold-20" transform="translate(254.101562 0)"/>
      <use xlink:href="#DejaVuSans-Bold-5b" transform="translate(288.916016 0)"/>
      <use xlink:href="#DejaVuSans-Bold-68" transform="translate(334.619141 0)"/>
      <use xlink:href="#DejaVuSans-Bold-72" transform="translate(405.810547 0)"/>
      <use xlink:href="#DejaVuSans-Bold-5d" transform="translate(455.126953 0)"/>
     </g>
    </g>
   </g>
   <g id="matplotlib.axis_2">
    <g id="ytick_1">
     <g id="line2d_8">
      <defs>
       <path id="made1577e4c" d="M 0 0 
L -3.5 0 
" style="stroke: #000000; stroke-width: 0.8"/>
      </defs>
      <g>
       <use xlink:href="#made1577e4c" x="57.874531" y="313.628265" style="stroke: #000000; stroke-width: 0.8"/>
      </g>
     </g>
     <g id="text_9">
      <!-- −5 -->
      <g transform="translate(28.76125 319.327093) scale(0.15 -0.15)">
       <defs>
        <path id="DejaVuSans-2212" d="M 678 2272 
L 4684 2272 
L 4684 1741 
L 678 1741 
L 678 2272 
z
" transform="scale(0.015625)"/>
       </defs>
       <use xlink:href="#DejaVuSans-2212"/>
       <use xlink:href="#DejaVuSans-35" transform="translate(83.789062 0)"/>
      </g>
     </g>
    </g>
    <g id="ytick_2">
     <g id="line2d_9">
      <g>
       <use xlink:href="#made1577e4c" x="57.874531" y="277.139976" style="stroke: #000000; stroke-width: 0.8"/>
      </g>
     </g>
     <g id="text_10">
      <!-- 0 -->
      <g transform="translate(41.330781 282.838804) scale(0.15 -0.15)">
       <use xlink:href="#DejaVuSans-30"/>
      </g>
     </g>
    </g>
    <g id="ytick_3">
     <g id="line2d_10">
      <g>
       <use xlink:href="#made1577e4c" x="57.874531" y="240.651688" style="stroke: #000000; stroke-width: 0.8"/>
      </g>
     </g>
     <g id="text_11">
      <!-- 5 -->
      <g transform="translate(41.330781 246.350516) scale(0.15 -0.15)">
       <use xlink:href="#DejaVuSans-35"/>
      </g>
     </g>
    </g>
    <g id="ytick_4">
     <g id="line2d_11">
      <g>
       <use xlink:href="#made1577e4c" x="57.874531" y="204.163399" style="stroke: #000000; stroke-width: 0.8"/>
      </g>
     </g>
     <g id="text_12">
      <!-- 10 -->
      <g transform="translate(31.787031 209.862227) scale(0.15 -0.15)">
       <use xlink:href="#DejaVuSans-31"/>
       <use xlink:href="#DejaVuSans-30" transform="translate(63.623047 0)"/>
      </g>
     </g>
    </g>
    <g id="ytick_5">
     <g id="line2d_12">
      <g>
       <use xlink:href="#made1577e4c" x="57.874531" y="167.675111" style="stroke: #000000; stroke-width: 0.8"/>
      </g>
     </g>
     <g id="text_13">
      <!-- 15 -->
      <g transform="translate(31.787031 173.373939) scale(0.15 -0.15)">
       <use xlink:href="#DejaVuSans-31"/>
       <use xlink:href="#DejaVuSans-35" transform="translate(63.623047 0)"/>
      </g>
     </g>
    </g>
    <g id="ytick_6">
     <g id="line2d_13">
      <g>
       <use xlink:href="#made1577e4c" x="57.874531" y="131.186822" style="stroke: #000000; stroke-width: 0.8"/>
      </g>
     </g>
     <g id="text_14">
      <!-- 20 -->
      <g transform="translate(31.787031 136.88565) scale(0.15 -0.15)">
       <use xlink:href="#DejaVuSans-32"/>
       <use xlink:href="#DejaVuSans-30" transform="translate(63.623047 0)"/>
      </g>
     </g>
    </g>
    <g id="ytick_7">
     <g id="line2d_14">
      <g>
       <use xlink:href="#made1577e4c" x="57.874531" y="94.698534" style="stroke: #000000; stroke-width: 0.8"/>
      </g>
     </g>
     <g id="text_15">
      <!-- 25 -->
      <g transform="translate(31.787031 100.397362) scale(0.15 -0.15)">
       <use xlink:href="#DejaVuSans-32"/>
       <use xlink:href="#DejaVuSans-35" transform="translate(63.623047 0)"/>
      </g>
     </g>
    </g>
    <g id="ytick_8">
     <g id="line2d_15">
      <g>
       <use xlink:href="#made1577e4c" x="57.874531" y="58.210245" style="stroke: #000000; stroke-width: 0.8"/>
      </g>
     </g>
     <g id="text_16">
      <!-- 30 -->
      <g transform="translate(31.787031 63.909073) scale(0.15 -0.15)">
       <defs>
        <path id="DejaVuSans-33" d="M 2597 2516 
Q 3050 2419 3304 2112 
Q 3559 1806 3559 1356 
Q 3559 666 3084 287 
Q 2609 -91 1734 -91 
Q 1441 -91 1130 -33 
Q 819 25 488 141 
L 488 750 
Q 750 597 1062 519 
Q 1375 441 1716 441 
Q 2309 441 2620 675 
Q 2931 909 2931 1356 
Q 2931 1769 2642 2001 
Q 2353 2234 1838 2234 
L 1294 2234 
L 1294 2753 
L 1863 2753 
Q 2328 2753 2575 2939 
Q 2822 3125 2822 3475 
Q 2822 3834 2567 4026 
Q 2313 4219 1838 4219 
Q 1578 4219 1281 4162 
Q 984 4106 628 3988 
L 628 4550 
Q 988 4650 1302 4700 
Q 1616 4750 1894 4750 
Q 2613 4750 3031 4423 
Q 3450 4097 3450 3541 
Q 3450 3153 3228 2886 
Q 3006 2619 2597 2516 
z
" transform="scale(0.015625)"/>
       </defs>
       <use xlink:href="#DejaVuSans-33"/>
       <use xlink:href="#DejaVuSans-30" transform="translate(63.623047 0)"/>
      </g>
     </g>
    </g>
    <g id="text_17">
     <!-- rapamycin blood [nM] -->
     <g transform="translate(20.877187 293.092031) rotate(-90) scale(0.18 -0.18)">
      <defs>
       <path id="DejaVuSans-Bold-61" d="M 2106 1575 
Q 1756 1575 1579 1456 
Q 1403 1338 1403 1106 
Q 1403 894 1545 773 
Q 1688 653 1941 653 
Q 2256 653 2472 879 
Q 2688 1106 2688 1447 
L 2688 1575 
L 2106 1575 
z
M 3816 1997 
L 3816 0 
L 2688 0 
L 2688 519 
Q 2463 200 2181 54 
Q 1900 -91 1497 -91 
Q 953 -91 614 226 
Q 275 544 275 1050 
Q 275 1666 698 1953 
Q 1122 2241 2028 2241 
L 2688 2241 
L 2688 2328 
Q 2688 2594 2478 2717 
Q 2269 2841 1825 2841 
Q 1466 2841 1156 2769 
Q 847 2697 581 2553 
L 581 3406 
Q 941 3494 1303 3539 
Q 1666 3584 2028 3584 
Q 2975 3584 3395 3211 
Q 3816 2838 3816 1997 
z
" transform="scale(0.015625)"/>
       <path id="DejaVuSans-Bold-70" d="M 1656 506 
L 1656 -1331 
L 538 -1331 
L 538 3500 
L 1656 3500 
L 1656 2988 
Q 1888 3294 2169 3439 
Q 2450 3584 2816 3584 
Q 3463 3584 3878 3070 
Q 4294 2556 4294 1747 
Q 4294 938 3878 423 
Q 3463 -91 2816 -91 
Q 2450 -91 2169 54 
Q 1888 200 1656 506 
z
M 2400 2772 
Q 2041 2772 1848 2508 
Q 1656 2244 1656 1747 
Q 1656 1250 1848 986 
Q 2041 722 2400 722 
Q 2759 722 2948 984 
Q 3138 1247 3138 1747 
Q 3138 2247 2948 2509 
Q 2759 2772 2400 2772 
z
" transform="scale(0.015625)"/>
       <path id="DejaVuSans-Bold-79" d="M 78 3500 
L 1197 3500 
L 2138 1125 
L 2938 3500 
L 4056 3500 
L 2584 -331 
Q 2363 -916 2067 -1148 
Q 1772 -1381 1288 -1381 
L 641 -1381 
L 641 -647 
L 991 -647 
Q 1275 -647 1404 -556 
Q 1534 -466 1606 -231 
L 1638 -134 
L 78 3500 
z
" transform="scale(0.015625)"/>
       <path id="DejaVuSans-Bold-63" d="M 3366 3391 
L 3366 2478 
Q 3138 2634 2908 2709 
Q 2678 2784 2431 2784 
Q 1963 2784 1702 2511 
Q 1441 2238 1441 1747 
Q 1441 1256 1702 982 
Q 1963 709 2431 709 
Q 2694 709 2930 787 
Q 3166 866 3366 1019 
L 3366 103 
Q 3103 6 2833 -42 
Q 2563 -91 2291 -91 
Q 1344 -91 809 395 
Q 275 881 275 1747 
Q 275 2613 809 3098 
Q 1344 3584 2291 3584 
Q 2566 3584 2833 3536 
Q 3100 3488 3366 3391 
z
" transform="scale(0.015625)"/>
       <path id="DejaVuSans-Bold-6e" d="M 4056 2131 
L 4056 0 
L 2931 0 
L 2931 347 
L 2931 1631 
Q 2931 2084 2911 2256 
Q 2891 2428 2841 2509 
Q 2775 2619 2662 2680 
Q 2550 2741 2406 2741 
Q 2056 2741 1856 2470 
Q 1656 2200 1656 1722 
L 1656 0 
L 538 0 
L 538 3500 
L 1656 3500 
L 1656 2988 
Q 1909 3294 2193 3439 
Q 2478 3584 2822 3584 
Q 3428 3584 3742 3212 
Q 4056 2841 4056 2131 
z
" transform="scale(0.015625)"/>
       <path id="DejaVuSans-Bold-62" d="M 2400 722 
Q 2759 722 2948 984 
Q 3138 1247 3138 1747 
Q 3138 2247 2948 2509 
Q 2759 2772 2400 2772 
Q 2041 2772 1848 2508 
Q 1656 2244 1656 1747 
Q 1656 1250 1848 986 
Q 2041 722 2400 722 
z
M 1656 2988 
Q 1888 3294 2169 3439 
Q 2450 3584 2816 3584 
Q 3463 3584 3878 3070 
Q 4294 2556 4294 1747 
Q 4294 938 3878 423 
Q 3463 -91 2816 -91 
Q 2450 -91 2169 54 
Q 1888 200 1656 506 
L 1656 0 
L 538 0 
L 538 4863 
L 1656 4863 
L 1656 2988 
z
" transform="scale(0.015625)"/>
       <path id="DejaVuSans-Bold-6c" d="M 538 4863 
L 1656 4863 
L 1656 0 
L 538 0 
L 538 4863 
z
" transform="scale(0.015625)"/>
       <path id="DejaVuSans-Bold-6f" d="M 2203 2784 
Q 1831 2784 1636 2517 
Q 1441 2250 1441 1747 
Q 1441 1244 1636 976 
Q 1831 709 2203 709 
Q 2569 709 2762 976 
Q 2956 1244 2956 1747 
Q 2956 2250 2762 2517 
Q 2569 2784 2203 2784 
z
M 2203 3584 
Q 3106 3584 3614 3096 
Q 4122 2609 4122 1747 
Q 4122 884 3614 396 
Q 3106 -91 2203 -91 
Q 1297 -91 786 396 
Q 275 884 275 1747 
Q 275 2609 786 3096 
Q 1297 3584 2203 3584 
z
" transform="scale(0.015625)"/>
       <path id="DejaVuSans-Bold-64" d="M 2919 2988 
L 2919 4863 
L 4044 4863 
L 4044 0 
L 2919 0 
L 2919 506 
Q 2688 197 2409 53 
Q 2131 -91 1766 -91 
Q 1119 -91 703 423 
Q 288 938 288 1747 
Q 288 2556 703 3070 
Q 1119 3584 1766 3584 
Q 2128 3584 2408 3439 
Q 2688 3294 2919 2988 
z
M 2181 722 
Q 2541 722 2730 984 
Q 2919 1247 2919 1747 
Q 2919 2247 2730 2509 
Q 2541 2772 2181 2772 
Q 1825 2772 1636 2509 
Q 1447 2247 1447 1747 
Q 1447 1247 1636 984 
Q 1825 722 2181 722 
z
" transform="scale(0.015625)"/>
       <path id="DejaVuSans-Bold-4d" d="M 588 4666 
L 2119 4666 
L 3181 2169 
L 4250 4666 
L 5778 4666 
L 5778 0 
L 4641 0 
L 4641 3413 
L 3566 897 
L 2803 897 
L 1728 3413 
L 1728 0 
L 588 0 
L 588 4666 
z
" transform="scale(0.015625)"/>
      </defs>
      <use xlink:href="#DejaVuSans-Bold-72"/>
      <use xlink:href="#DejaVuSans-Bold-61" transform="translate(49.316406 0)"/>
      <use xlink:href="#DejaVuSans-Bold-70" transform="translate(116.796875 0)"/>
      <use xlink:href="#DejaVuSans-Bold-61" transform="translate(188.378906 0)"/>
      <use xlink:href="#DejaVuSans-Bold-6d" transform="translate(255.859375 0)"/>
      <use xlink:href="#DejaVuSans-Bold-79" transform="translate(360.058594 0)"/>
      <use xlink:href="#DejaVuSans-Bold-63" transform="translate(425.244141 0)"/>
      <use xlink:href="#DejaVuSans-Bold-69" transform="translate(484.521484 0)"/>
      <use xlink:href="#DejaVuSans-Bold-6e" transform="translate(518.798828 0)"/>
      <use xlink:href="#DejaVuSans-Bold-20" transform="translate(589.990234 0)"/>
      <use xlink:href="#DejaVuSans-Bold-62" transform="translate(624.804688 0)"/>
      <use xlink:href="#DejaVuSans-Bold-6c" transform="translate(696.386719 0)"/>
      <use xlink:href="#DejaVuSans-Bold-6f" transform="translate(730.664062 0)"/>
      <use xlink:href="#DejaVuSans-Bold-6f" transform="translate(799.365234 0)"/>
      <use xlink:href="#DejaVuSans-Bold-64" transform="translate(868.066406 0)"/>
      <use xlink:href="#DejaVuSans-Bold-20" transform="translate(939.648438 0)"/>
      <use xlink:href="#DejaVuSans-Bold-5b" transform="translate(974.462891 0)"/>
      <use xlink:href="#DejaVuSans-Bold-6e" transform="translate(1020.166016 0)"/>
      <use xlink:href="#DejaVuSans-Bold-4d" transform="translate(1091.357422 0)"/>
      <use xlink:href="#DejaVuSans-Bold-5d" transform="translate(1190.869141 0)"/>
     </g>
    </g>
   </g>
   <g id="LineCollection_1">
    <path clip-path="url(#p461daf3cea)" style="fill: none; stroke: #000000"/>
    <path d="M 76.812713 267.161468 
L 76.812713 191.644115 
" clip-path="url(#p461daf3cea)" style="fill: none; stroke: #000000"/>
    <path d="M 77.996349 253.818099 
L 77.996349 105.988597 
" clip-path="url(#p461daf3cea)" style="fill: none; stroke: #000000"/>
    <path clip-path="url(#p461daf3cea)" style="fill: none; stroke: #000000"/>
    <path d="M 80.363622 195.212559 
L 80.363622 126.307257 
" clip-path="url(#p461daf3cea)" style="fill: none; stroke: #000000"/>
    <path clip-path="url(#p461daf3cea)" style="fill: none; stroke: #000000"/>
    <path d="M 82.730895 180.403498 
L 82.730895 126.307257 
" clip-path="url(#p461daf3cea)" style="fill: none; stroke: #000000"/>
    <path d="M 85.098168 208.986438 
L 85.098168 137.018678 
" clip-path="url(#p461daf3cea)" style="fill: none; stroke: #000000"/>
    <path d="M 89.832713 209.482485 
L 89.832713 137.018678 
" clip-path="url(#p461daf3cea)" style="fill: none; stroke: #000000"/>
    <path d="M 94.567259 224.030185 
L 94.567259 134.197062 
" clip-path="url(#p461daf3cea)" style="fill: none; stroke: #000000"/>
    <path d="M 104.036349 231.926659 
L 104.036349 166.083814 
" clip-path="url(#p461daf3cea)" style="fill: none; stroke: #000000"/>
    <path d="M 132.443622 247.451063 
L 132.443622 211.211978 
" clip-path="url(#p461daf3cea)" style="fill: none; stroke: #000000"/>
    <path d="M 189.258168 257.829307 
L 189.258168 238.43374 
" clip-path="url(#p461daf3cea)" style="fill: none; stroke: #000000"/>
    <path d="M 246.072713 261.317534 
L 246.072713 251.109341 
" clip-path="url(#p461daf3cea)" style="fill: none; stroke: #000000"/>
    <path d="M 302.887259 264.550043 
L 302.887259 257.914717 
" clip-path="url(#p461daf3cea)" style="fill: none; stroke: #000000"/>
    <path d="M 359.701804 269.568985 
L 359.701804 261.912841 
" clip-path="url(#p461daf3cea)" style="fill: none; stroke: #000000"/>
    <path d="M 416.516349 270.249446 
L 416.516349 264.12453 
" clip-path="url(#p461daf3cea)" style="fill: none; stroke: #000000"/>
   </g>
   <g id="LineCollection_2">
    <path clip-path="url(#p461daf3cea)" style="fill: none; stroke: #1f77b4"/>
    <path clip-path="url(#p461daf3cea)" style="fill: none; stroke: #1f77b4"/>
    <path d="M 77.996349 297.520561 
L 77.996349 126.696997 
" clip-path="url(#p461daf3cea)" style="fill: none; stroke: #1f77b4"/>
    <path clip-path="url(#p461daf3cea)" style="fill: none; stroke: #1f77b4"/>
    <path d="M 80.363622 307.8 
L 80.363622 55.8 
" clip-path="url(#p461daf3cea)" style="fill: none; stroke: #1f77b4"/>
    <path clip-path="url(#p461daf3cea)" style="fill: none; stroke: #1f77b4"/>
    <path d="M 82.730895 300.001362 
L 82.730895 71.033562 
" clip-path="url(#p461daf3cea)" style="fill: none; stroke: #1f77b4"/>
    <path d="M 85.098168 294.684595 
L 85.098168 94.066474 
" clip-path="url(#p461daf3cea)" style="fill: none; stroke: #1f77b4"/>
    <path d="M 89.832713 295.748661 
L 89.832713 108.229558 
" clip-path="url(#p461daf3cea)" style="fill: none; stroke: #1f77b4"/>
    <path d="M 94.567259 295.925174 
L 94.567259 117.963428 
" clip-path="url(#p461daf3cea)" style="fill: none; stroke: #1f77b4"/>
    <path d="M 104.036349 293.444729 
L 104.036349 152.671141 
" clip-path="url(#p461daf3cea)" style="fill: none; stroke: #1f77b4"/>
    <path d="M 132.443622 286.023159 
L 132.443622 195.097878 
" clip-path="url(#p461daf3cea)" style="fill: none; stroke: #1f77b4"/>
    <path d="M 189.258168 282.216299 
L 189.258168 228.862806 
" clip-path="url(#p461daf3cea)" style="fill: none; stroke: #1f77b4"/>
    <path clip-path="url(#p461daf3cea)" style="fill: none; stroke: #1f77b4"/>
    <path clip-path="url(#p461daf3cea)" style="fill: none; stroke: #1f77b4"/>
    <path clip-path="url(#p461daf3cea)" style="fill: none; stroke: #1f77b4"/>
    <path clip-path="url(#p461daf3cea)" style="fill: none; stroke: #1f77b4"/>
   </g>
   <g id="LineCollection_3">
    <path clip-path="url(#p461daf3cea)" style="fill: none; stroke: #00008b"/>
    <path d="M 76.812713 265.545079 
L 76.812713 234.528823 
" clip-path="url(#p461daf3cea)" style="fill: none; stroke: #00008b"/>
    <path d="M 77.996349 225.665169 
L 77.996349 219.463462 
" clip-path="url(#p461daf3cea)" style="fill: none; stroke: #00008b"/>
    <path clip-path="url(#p461daf3cea)" style="fill: none; stroke: #00008b"/>
    <path d="M 80.363622 216.358452 
L 80.363622 196.568857 
" clip-path="url(#p461daf3cea)" style="fill: none; stroke: #00008b"/>
    <path clip-path="url(#p461daf3cea)" style="fill: none; stroke: #00008b"/>
    <path d="M 82.730895 215.617044 
L 82.730895 204.392164 
" clip-path="url(#p461daf3cea)" style="fill: none; stroke: #00008b"/>
    <path d="M 85.098168 228.609726 
L 85.098168 215.022432 
" clip-path="url(#p461daf3cea)" style="fill: none; stroke: #00008b"/>
    <path d="M 89.832713 231.408673 
L 89.832713 217.230627 
" clip-path="url(#p461daf3cea)" style="fill: none; stroke: #00008b"/>
    <path d="M 94.567259 251.635098 
L 94.567259 221.211375 
" clip-path="url(#p461daf3cea)" style="fill: none; stroke: #00008b"/>
    <path d="M 104.036349 251.324879 
L 104.036349 222.674005 
" clip-path="url(#p461daf3cea)" style="fill: none; stroke: #00008b"/>
    <path d="M 132.443622 260.144004 
L 132.443622 240.944567 
" clip-path="url(#p461daf3cea)" style="fill: none; stroke: #00008b"/>
    <path d="M 189.258168 261.979342 
L 189.258168 254.59435 
" clip-path="url(#p461daf3cea)" style="fill: none; stroke: #00008b"/>
    <path d="M 246.072713 267.210613 
L 246.072713 261.303094 
" clip-path="url(#p461daf3cea)" style="fill: none; stroke: #00008b"/>
    <path clip-path="url(#p461daf3cea)" style="fill: none; stroke: #00008b"/>
    <path clip-path="url(#p461daf3cea)" style="fill: none; stroke: #00008b"/>
    <path clip-path="url(#p461daf3cea)" style="fill: none; stroke: #00008b"/>
   </g>
   <g id="line2d_16">
    <path d="M 75.629077 277.139976 
L 75.806622 269.028899 
L 76.516804 197.499019 
L 77.04944 168.658421 
L 77.404531 157.889838 
L 77.759622 151.671335 
L 78.114713 148.669892 
L 78.292259 148.06029 
L 78.469804 147.912764 
L 78.647349 148.146487 
L 79.00244 149.492997 
L 79.535077 152.959885 
L 80.600349 162.022101 
L 82.198259 175.351494 
L 83.441077 183.83592 
L 84.683895 190.65888 
L 85.926713 196.146083 
L 87.169531 200.626711 
L 88.589895 204.85277 
L 90.010259 208.399794 
L 91.608168 211.82526 
L 93.561168 215.457237 
L 95.691713 218.951018 
L 98.177349 222.609168 
L 101.018077 226.399863 
L 104.213895 230.288573 
L 107.587259 234.041606 
L 111.138168 237.655713 
L 114.689077 240.9622 
L 118.417531 244.134703 
L 122.323531 247.159663 
L 126.229531 249.907164 
L 130.313077 252.510641 
L 134.574168 254.962303 
L 139.012804 257.256968 
L 143.628986 259.391916 
L 148.422713 261.366684 
L 153.571531 263.243678 
L 158.897895 264.950683 
L 164.579349 266.541017 
L 170.79344 268.043864 
L 177.362622 269.40153 
L 184.46444 270.642277 
L 192.27644 271.778603 
L 200.976168 272.811793 
L 210.563622 273.721374 
L 221.393895 274.521131 
L 233.822077 275.211141 
L 248.380804 275.791907 
L 266.135349 276.26906 
L 288.506077 276.637738 
L 318.866349 276.902039 
L 365.738349 277.06489 
L 430.719986 277.124801 
L 430.719986 277.124801 
" clip-path="url(#p461daf3cea)" style="fill: none; stroke: #000000; stroke-width: 2; stroke-linecap: square"/>
   </g>
   <g id="line2d_17">
    <path d="M 76.812713 229.402791 
L 77.996349 179.903348 
M 80.363622 160.759908 
M 82.730895 153.355378 
L 85.098168 173.002558 
L 89.832713 173.250581 
L 94.567259 179.113624 
L 104.036349 199.005237 
L 132.443622 229.331521 
L 189.258168 248.131524 
L 246.072713 256.213437 
L 302.887259 261.23238 
L 359.701804 265.740913 
L 416.516349 267.186988 
" clip-path="url(#p461daf3cea)" style="fill: none; stroke-dasharray: 3.7,1.6; stroke-dashoffset: 0; stroke: #000000"/>
    <defs>
     <path id="mf3ad2a2077" d="M -3 3 
L 3 3 
L 3 -3 
L -3 -3 
z
" style="stroke: #000000; stroke-linejoin: miter"/>
    </defs>
    <g clip-path="url(#p461daf3cea)">
     <use xlink:href="#mf3ad2a2077" x="76.812713" y="229.402791" style="stroke: #000000; stroke-linejoin: miter"/>
     <use xlink:href="#mf3ad2a2077" x="77.996349" y="179.903348" style="stroke: #000000; stroke-linejoin: miter"/>
     <use xlink:href="#mf3ad2a2077" x="80.363622" y="160.759908" style="stroke: #000000; stroke-linejoin: miter"/>
     <use xlink:href="#mf3ad2a2077" x="82.730895" y="153.355378" style="stroke: #000000; stroke-linejoin: miter"/>
     <use xlink:href="#mf3ad2a2077" x="85.098168" y="173.002558" style="stroke: #000000; stroke-linejoin: miter"/>
     <use xlink:href="#mf3ad2a2077" x="89.832713" y="173.250581" style="stroke: #000000; stroke-linejoin: miter"/>
     <use xlink:href="#mf3ad2a2077" x="94.567259" y="179.113624" style="stroke: #000000; stroke-linejoin: miter"/>
     <use xlink:href="#mf3ad2a2077" x="104.036349" y="199.005237" style="stroke: #000000; stroke-linejoin: miter"/>
     <use xlink:href="#mf3ad2a2077" x="132.443622" y="229.331521" style="stroke: #000000; stroke-linejoin: miter"/>
     <use xlink:href="#mf3ad2a2077" x="189.258168" y="248.131524" style="stroke: #000000; stroke-linejoin: miter"/>
     <use xlink:href="#mf3ad2a2077" x="246.072713" y="256.213437" style="stroke: #000000; stroke-linejoin: miter"/>
     <use xlink:href="#mf3ad2a2077" x="302.887259" y="261.23238" style="stroke: #000000; stroke-linejoin: miter"/>
     <use xlink:href="#mf3ad2a2077" x="359.701804" y="265.740913" style="stroke: #000000; stroke-linejoin: miter"/>
     <use xlink:href="#mf3ad2a2077" x="416.516349" y="267.186988" style="stroke: #000000; stroke-linejoin: miter"/>
    </g>
   </g>
   <g id="line2d_18">
    <path d="M 75.629077 277.139976 
L 75.806622 269.72004 
L 76.516804 208.603654 
L 77.04944 184.365738 
L 77.404531 175.35512 
L 77.759622 170.187209 
L 78.114713 167.734671 
L 78.292259 167.260075 
L 78.469804 167.17499 
L 78.647349 167.411089 
L 79.00244 168.623124 
L 79.535077 171.656559 
L 80.777895 180.851843 
L 82.375804 192.11802 
L 83.618622 199.207337 
L 84.86144 204.904947 
L 86.104259 209.499377 
L 87.347077 213.266335 
L 88.76744 216.836304 
L 90.365349 220.192975 
L 92.140804 223.36459 
L 94.093804 226.397894 
L 96.401895 229.570411 
L 99.065077 232.851075 
L 102.083349 236.215295 
L 105.456713 239.630821 
L 109.007622 242.899678 
L 112.736077 246.018312 
L 116.464531 248.85022 
L 120.370531 251.540038 
L 124.454077 254.07873 
L 128.715168 256.459667 
L 133.153804 258.678763 
L 137.769986 260.734386 
L 142.563713 262.627159 
L 147.712531 264.41761 
L 153.21644 266.087989 
L 159.07544 267.625846 
L 165.289531 269.02375 
L 172.036259 270.309931 
L 179.315622 271.470049 
L 187.305168 272.517828 
L 196.18244 273.456558 
L 206.302531 274.296463 
L 217.842986 275.023153 
L 231.33644 275.640901 
L 247.493077 276.148267 
L 267.555713 276.54628 
L 294.187531 276.839517 
L 333.425077 277.029821 
L 405.863622 277.122698 
L 430.719986 277.130826 
L 430.719986 277.130826 
" clip-path="url(#p461daf3cea)" style="fill: none; stroke: #1f77b4; stroke-width: 2; stroke-linecap: square"/>
   </g>
   <g id="line2d_19">
    <path d="M 76.812713 244.010807 
L 77.996349 212.108779 
M 80.363622 181.8 
M 82.730895 185.517462 
L 85.098168 194.375535 
L 89.832713 201.98911 
L 94.567259 206.944301 
L 104.036349 223.057935 
L 132.443622 240.560519 
L 189.258168 255.539553 
L 246.072713 261.125631 
L 302.887259 264.762229 
L 359.701804 265.918025 
L 416.516349 268.136817 
" clip-path="url(#p461daf3cea)" style="fill: none; stroke-dasharray: 3.7,1.6; stroke-dashoffset: 0; stroke: #1f77b4"/>
    <defs>
     <path id="ma265db8557" d="M -3 3 
L 3 3 
L 3 -3 
L -3 -3 
z
" style="stroke: #000000; stroke-linejoin: miter"/>
    </defs>
    <g clip-path="url(#p461daf3cea)">
     <use xlink:href="#ma265db8557" x="76.812713" y="244.010807" style="fill: #1f77b4; stroke: #000000; stroke-linejoin: miter"/>
     <use xlink:href="#ma265db8557" x="77.996349" y="212.108779" style="fill: #1f77b4; stroke: #000000; stroke-linejoin: miter"/>
     <use xlink:href="#ma265db8557" x="80.363622" y="181.8" style="fill: #1f77b4; stroke: #000000; stroke-linejoin: miter"/>
     <use xlink:href="#ma265db8557" x="82.730895" y="185.517462" style="fill: #1f77b4; stroke: #000000; stroke-linejoin: miter"/>
     <use xlink:href="#ma265db8557" x="85.098168" y="194.375535" style="fill: #1f77b4; stroke: #000000; stroke-linejoin: miter"/>
     <use xlink:href="#ma265db8557" x="89.832713" y="201.98911" style="fill: #1f77b4; stroke: #000000; stroke-linejoin: miter"/>
     <use xlink:href="#ma265db8557" x="94.567259" y="206.944301" style="fill: #1f77b4; stroke: #000000; stroke-linejoin: miter"/>
     <use xlink:href="#ma265db8557" x="104.036349" y="223.057935" style="fill: #1f77b4; stroke: #000000; stroke-linejoin: miter"/>
     <use xlink:href="#ma265db8557" x="132.443622" y="240.560519" style="fill: #1f77b4; stroke: #000000; stroke-linejoin: miter"/>
     <use xlink:href="#ma265db8557" x="189.258168" y="255.539553" style="fill: #1f77b4; stroke: #000000; stroke-linejoin: miter"/>
     <use xlink:href="#ma265db8557" x="246.072713" y="261.125631" style="fill: #1f77b4; stroke: #000000; stroke-linejoin: miter"/>
     <use xlink:href="#ma265db8557" x="302.887259" y="264.762229" style="fill: #1f77b4; stroke: #000000; stroke-linejoin: miter"/>
     <use xlink:href="#ma265db8557" x="359.701804" y="265.918025" style="fill: #1f77b4; stroke: #000000; stroke-linejoin: miter"/>
     <use xlink:href="#ma265db8557" x="416.516349" y="268.136817" style="fill: #1f77b4; stroke: #000000; stroke-linejoin: miter"/>
    </g>
   </g>
   <g id="line2d_20">
    <path d="M 75.629077 277.139976 
L 75.806622 271.010551 
L 76.516804 223.388171 
L 77.04944 204.758003 
L 77.404531 197.868741 
L 77.759622 193.950577 
L 78.114713 192.130202 
L 78.292259 191.800207 
L 78.469804 191.770584 
L 78.647349 191.988435 
L 79.00244 192.993394 
L 79.535077 195.433251 
L 80.777895 202.729582 
L 82.198259 210.723401 
L 83.441077 216.480908 
L 84.683895 221.11219 
L 85.926713 224.840199 
L 87.169531 227.887463 
L 88.589895 230.76408 
L 90.187804 233.456297 
L 91.963259 235.987579 
L 94.093804 238.601232 
L 96.57944 241.266867 
L 99.420168 243.974778 
L 102.615986 246.713368 
L 106.166895 249.459918 
L 109.895349 252.064094 
L 113.801349 254.524908 
L 117.884895 256.837991 
L 122.145986 258.999194 
L 126.584622 261.005984 
L 131.378349 262.924665 
L 136.349622 264.673751 
L 141.675986 266.309668 
L 147.35744 267.818735 
L 153.393986 269.192418 
L 159.963168 270.458317 
L 167.064986 271.601051 
L 174.876986 272.633669 
L 183.576713 273.558734 
L 193.519259 274.385802 
L 204.882168 275.099849 
L 218.198077 275.704745 
L 234.177168 276.198868 
L 254.239804 276.585965 
L 281.049168 276.867071 
L 321.351986 277.045845 
L 399.116895 277.127905 
L 430.719986 277.134737 
L 430.719986 277.134737 
" clip-path="url(#p461daf3cea)" style="fill: none; stroke: #00008b; stroke-width: 2; stroke-linecap: square"/>
   </g>
   <g id="line2d_21">
    <path d="M 76.812713 250.036951 
L 77.996349 222.564316 
M 80.363622 206.463655 
M 82.730895 210.004604 
L 85.098168 221.816079 
L 89.832713 224.31965 
L 94.567259 236.423237 
L 104.036349 236.999442 
L 132.443622 250.544285 
L 189.258168 258.286846 
L 246.072713 264.256854 
L 302.887259 266.682647 
L 359.701804 269.551208 
L 416.516349 269.022945 
" clip-path="url(#p461daf3cea)" style="fill: none; stroke-dasharray: 3.7,1.6; stroke-dashoffset: 0; stroke: #00008b"/>
    <defs>
     <path id="m5fbbf8f695" d="M -3 3 
L 3 3 
L 3 -3 
L -3 -3 
z
" style="stroke: #000000; stroke-linejoin: miter"/>
    </defs>
    <g clip-path="url(#p461daf3cea)">
     <use xlink:href="#m5fbbf8f695" x="76.812713" y="250.036951" style="fill: #00008b; stroke: #000000; stroke-linejoin: miter"/>
     <use xlink:href="#m5fbbf8f695" x="77.996349" y="222.564316" style="fill: #00008b; stroke: #000000; stroke-linejoin: miter"/>
     <use xlink:href="#m5fbbf8f695" x="80.363622" y="206.463655" style="fill: #00008b; stroke: #000000; stroke-linejoin: miter"/>
     <use xlink:href="#m5fbbf8f695" x="82.730895" y="210.004604" style="fill: #00008b; stroke: #000000; stroke-linejoin: miter"/>
     <use xlink:href="#m5fbbf8f695" x="85.098168" y="221.816079" style="fill: #00008b; stroke: #000000; stroke-linejoin: miter"/>
     <use xlink:href="#m5fbbf8f695" x="89.832713" y="224.31965" style="fill: #00008b; stroke: #000000; stroke-linejoin: miter"/>
     <use xlink:href="#m5fbbf8f695" x="94.567259" y="236.423237" style="fill: #00008b; stroke: #000000; stroke-linejoin: miter"/>
     <use xlink:href="#m5fbbf8f695" x="104.036349" y="236.999442" style="fill: #00008b; stroke: #000000; stroke-linejoin: miter"/>
     <use xlink:href="#m5fbbf8f695" x="132.443622" y="250.544285" style="fill: #00008b; stroke: #000000; stroke-linejoin: miter"/>
     <use xlink:href="#m5fbbf8f695" x="189.258168" y="258.286846" style="fill: #00008b; stroke: #000000; stroke-linejoin: miter"/>
     <use xlink:href="#m5fbbf8f695" x="246.072713" y="264.256854" style="fill: #00008b; stroke: #000000; stroke-linejoin: miter"/>
     <use xlink:href="#m5fbbf8f695" x="302.887259" y="266.682647" style="fill: #00008b; stroke: #000000; stroke-linejoin: miter"/>
     <use xlink:href="#m5fbbf8f695" x="359.701804" y="269.551208" style="fill: #00008b; stroke: #000000; stroke-linejoin: miter"/>
     <use xlink:href="#m5fbbf8f695" x="416.516349" y="269.022945" style="fill: #00008b; stroke: #000000; stroke-linejoin: miter"/>
    </g>
   </g>
   <g id="patch_3">
    <path d="M 57.874531 320.4 
L 57.874531 43.2 
" style="fill: none; stroke: #000000; stroke-width: 0.8; stroke-linejoin: miter; stroke-linecap: square"/>
   </g>
   <g id="patch_4">
    <path d="M 448.474531 320.4 
L 448.474531 43.2 
" style="fill: none; stroke: #000000; stroke-width: 0.8; stroke-linejoin: miter; stroke-linecap: square"/>
   </g>
   <g id="patch_5">
    <path d="M 57.874531 320.4 
L 448.474531 320.4 
" style="fill: none; stroke: #000000; stroke-width: 0.8; stroke-linejoin: miter; stroke-linecap: square"/>
   </g>
   <g id="patch_6">
    <path d="M 57.874531 43.2 
L 448.474531 43.2 
" style="fill: none; stroke: #000000; stroke-width: 0.8; stroke-linejoin: miter; stroke-linecap: square"/>
   </g>
   <g id="legend_1">
    <g id="patch_7">
     <path d="M 278.252656 140.9375 
L 441.474531 140.9375 
Q 443.474531 140.9375 443.474531 138.9375 
L 443.474531 50.2 
Q 443.474531 48.2 441.474531 48.2 
L 278.252656 48.2 
Q 276.252656 48.2 276.252656 50.2 
L 276.252656 138.9375 
Q 276.252656 140.9375 278.252656 140.9375 
z
" style="fill: #ffffff; opacity: 0.8; stroke: #cccccc; stroke-linejoin: miter"/>
    </g>
    <g id="line2d_22">
     <path d="M 280.252656 56.298437 
L 300.252656 56.298437 
" style="fill: none; stroke: #000000; stroke-width: 2; stroke-linecap: square"/>
    </g>
    <g id="line2d_23"/>
    <g id="text_18">
     <!-- CYP3A4_1_1 -->
     <g transform="translate(308.252656 59.798437) scale(0.1 -0.1)">
      <defs>
       <path id="DejaVuSans-43" d="M 4122 4306 
L 4122 3641 
Q 3803 3938 3442 4084 
Q 3081 4231 2675 4231 
Q 1875 4231 1450 3742 
Q 1025 3253 1025 2328 
Q 1025 1406 1450 917 
Q 1875 428 2675 428 
Q 3081 428 3442 575 
Q 3803 722 4122 1019 
L 4122 359 
Q 3791 134 3420 21 
Q 3050 -91 2638 -91 
Q 1578 -91 968 557 
Q 359 1206 359 2328 
Q 359 3453 968 4101 
Q 1578 4750 2638 4750 
Q 3056 4750 3426 4639 
Q 3797 4528 4122 4306 
z
" transform="scale(0.015625)"/>
       <path id="DejaVuSans-59" d="M -13 4666 
L 666 4666 
L 1959 2747 
L 3244 4666 
L 3922 4666 
L 2272 2222 
L 2272 0 
L 1638 0 
L 1638 2222 
L -13 4666 
z
" transform="scale(0.015625)"/>
       <path id="DejaVuSans-50" d="M 1259 4147 
L 1259 2394 
L 2053 2394 
Q 2494 2394 2734 2622 
Q 2975 2850 2975 3272 
Q 2975 3691 2734 3919 
Q 2494 4147 2053 4147 
L 1259 4147 
z
M 628 4666 
L 2053 4666 
Q 2838 4666 3239 4311 
Q 3641 3956 3641 3272 
Q 3641 2581 3239 2228 
Q 2838 1875 2053 1875 
L 1259 1875 
L 1259 0 
L 628 0 
L 628 4666 
z
" transform="scale(0.015625)"/>
       <path id="DejaVuSans-41" d="M 2188 4044 
L 1331 1722 
L 3047 1722 
L 2188 4044 
z
M 1831 4666 
L 2547 4666 
L 4325 0 
L 3669 0 
L 3244 1197 
L 1141 1197 
L 716 0 
L 50 0 
L 1831 4666 
z
" transform="scale(0.015625)"/>
       <path id="DejaVuSans-34" d="M 2419 4116 
L 825 1625 
L 2419 1625 
L 2419 4116 
z
M 2253 4666 
L 3047 4666 
L 3047 1625 
L 3713 1625 
L 3713 1100 
L 3047 1100 
L 3047 0 
L 2419 0 
L 2419 1100 
L 313 1100 
L 313 1709 
L 2253 4666 
z
" transform="scale(0.015625)"/>
       <path id="DejaVuSans-5f" d="M 3263 -1063 
L 3263 -1509 
L -63 -1509 
L -63 -1063 
L 3263 -1063 
z
" transform="scale(0.015625)"/>
      </defs>
      <use xlink:href="#DejaVuSans-43"/>
      <use xlink:href="#DejaVuSans-59" transform="translate(68.074219 0)"/>
      <use xlink:href="#DejaVuSans-50" transform="translate(129.158203 0)"/>
      <use xlink:href="#DejaVuSans-33" transform="translate(189.460938 0)"/>
      <use xlink:href="#DejaVuSans-41" transform="translate(253.083984 0)"/>
      <use xlink:href="#DejaVuSans-34" transform="translate(321.492188 0)"/>
      <use xlink:href="#DejaVuSans-5f" transform="translate(385.115234 0)"/>
      <use xlink:href="#DejaVuSans-31" transform="translate(435.115234 0)"/>
      <use xlink:href="#DejaVuSans-5f" transform="translate(498.738281 0)"/>
      <use xlink:href="#DejaVuSans-31" transform="translate(548.738281 0)"/>
     </g>
    </g>
    <g id="LineCollection_4">
     <path d="M 290.252656 76.254687 
L 290.252656 66.254687 
" style="fill: none; stroke: #000000"/>
    </g>
    <g id="line2d_24">
     <path d="M 280.252656 71.254687 
L 300.252656 71.254687 
" style="fill: none; stroke-dasharray: 3.7,1.6; stroke-dashoffset: 0; stroke: #000000"/>
    </g>
    <g id="line2d_25">
     <g>
      <use xlink:href="#mf3ad2a2077" x="290.252656" y="71.254687" style="stroke: #000000; stroke-linejoin: miter"/>
     </g>
    </g>
    <g id="text_19">
     <!-- CYP3A4_1_1±SD (n=18) -->
     <g transform="translate(308.252656 74.754687) scale(0.1 -0.1)">
      <defs>
       <path id="DejaVuSans-b1" d="M 2944 4013 
L 2944 2803 
L 4684 2803 
L 4684 2272 
L 2944 2272 
L 2944 1063 
L 2419 1063 
L 2419 2272 
L 678 2272 
L 678 2803 
L 2419 2803 
L 2419 4013 
L 2944 4013 
z
M 678 531 
L 4684 531 
L 4684 0 
L 678 0 
L 678 531 
z
" transform="scale(0.015625)"/>
       <path id="DejaVuSans-53" d="M 3425 4513 
L 3425 3897 
Q 3066 4069 2747 4153 
Q 2428 4238 2131 4238 
Q 1616 4238 1336 4038 
Q 1056 3838 1056 3469 
Q 1056 3159 1242 3001 
Q 1428 2844 1947 2747 
L 2328 2669 
Q 3034 2534 3370 2195 
Q 3706 1856 3706 1288 
Q 3706 609 3251 259 
Q 2797 -91 1919 -91 
Q 1588 -91 1214 -16 
Q 841 59 441 206 
L 441 856 
Q 825 641 1194 531 
Q 1563 422 1919 422 
Q 2459 422 2753 634 
Q 3047 847 3047 1241 
Q 3047 1584 2836 1778 
Q 2625 1972 2144 2069 
L 1759 2144 
Q 1053 2284 737 2584 
Q 422 2884 422 3419 
Q 422 4038 858 4394 
Q 1294 4750 2059 4750 
Q 2388 4750 2728 4690 
Q 3069 4631 3425 4513 
z
" transform="scale(0.015625)"/>
       <path id="DejaVuSans-44" d="M 1259 4147 
L 1259 519 
L 2022 519 
Q 2988 519 3436 956 
Q 3884 1394 3884 2338 
Q 3884 3275 3436 3711 
Q 2988 4147 2022 4147 
L 1259 4147 
z
M 628 4666 
L 1925 4666 
Q 3281 4666 3915 4102 
Q 4550 3538 4550 2338 
Q 4550 1131 3912 565 
Q 3275 0 1925 0 
L 628 0 
L 628 4666 
z
" transform="scale(0.015625)"/>
       <path id="DejaVuSans-20" transform="scale(0.015625)"/>
       <path id="DejaVuSans-28" d="M 1984 4856 
Q 1566 4138 1362 3434 
Q 1159 2731 1159 2009 
Q 1159 1288 1364 580 
Q 1569 -128 1984 -844 
L 1484 -844 
Q 1016 -109 783 600 
Q 550 1309 550 2009 
Q 550 2706 781 3412 
Q 1013 4119 1484 4856 
L 1984 4856 
z
" transform="scale(0.015625)"/>
       <path id="DejaVuSans-6e" d="M 3513 2113 
L 3513 0 
L 2938 0 
L 2938 2094 
Q 2938 2591 2744 2837 
Q 2550 3084 2163 3084 
Q 1697 3084 1428 2787 
Q 1159 2491 1159 1978 
L 1159 0 
L 581 0 
L 581 3500 
L 1159 3500 
L 1159 2956 
Q 1366 3272 1645 3428 
Q 1925 3584 2291 3584 
Q 2894 3584 3203 3211 
Q 3513 2838 3513 2113 
z
" transform="scale(0.015625)"/>
       <path id="DejaVuSans-3d" d="M 678 2906 
L 4684 2906 
L 4684 2381 
L 678 2381 
L 678 2906 
z
M 678 1631 
L 4684 1631 
L 4684 1100 
L 678 1100 
L 678 1631 
z
" transform="scale(0.015625)"/>
       <path id="DejaVuSans-38" d="M 2034 2216 
Q 1584 2216 1326 1975 
Q 1069 1734 1069 1313 
Q 1069 891 1326 650 
Q 1584 409 2034 409 
Q 2484 409 2743 651 
Q 3003 894 3003 1313 
Q 3003 1734 2745 1975 
Q 2488 2216 2034 2216 
z
M 1403 2484 
Q 997 2584 770 2862 
Q 544 3141 544 3541 
Q 544 4100 942 4425 
Q 1341 4750 2034 4750 
Q 2731 4750 3128 4425 
Q 3525 4100 3525 3541 
Q 3525 3141 3298 2862 
Q 3072 2584 2669 2484 
Q 3125 2378 3379 2068 
Q 3634 1759 3634 1313 
Q 3634 634 3220 271 
Q 2806 -91 2034 -91 
Q 1263 -91 848 271 
Q 434 634 434 1313 
Q 434 1759 690 2068 
Q 947 2378 1403 2484 
z
M 1172 3481 
Q 1172 3119 1398 2916 
Q 1625 2713 2034 2713 
Q 2441 2713 2670 2916 
Q 2900 3119 2900 3481 
Q 2900 3844 2670 4047 
Q 2441 4250 2034 4250 
Q 1625 4250 1398 4047 
Q 1172 3844 1172 3481 
z
" transform="scale(0.015625)"/>
       <path id="DejaVuSans-29" d="M 513 4856 
L 1013 4856 
Q 1481 4119 1714 3412 
Q 1947 2706 1947 2009 
Q 1947 1309 1714 600 
Q 1481 -109 1013 -844 
L 513 -844 
Q 928 -128 1133 580 
Q 1338 1288 1338 2009 
Q 1338 2731 1133 3434 
Q 928 4138 513 4856 
z
" transform="scale(0.015625)"/>
      </defs>
      <use xlink:href="#DejaVuSans-43"/>
      <use xlink:href="#DejaVuSans-59" transform="translate(68.074219 0)"/>
      <use xlink:href="#DejaVuSans-50" transform="translate(129.158203 0)"/>
      <use xlink:href="#DejaVuSans-33" transform="translate(189.460938 0)"/>
      <use xlink:href="#DejaVuSans-41" transform="translate(253.083984 0)"/>
      <use xlink:href="#DejaVuSans-34" transform="translate(321.492188 0)"/>
      <use xlink:href="#DejaVuSans-5f" transform="translate(385.115234 0)"/>
      <use xlink:href="#DejaVuSans-31" transform="translate(435.115234 0)"/>
      <use xlink:href="#DejaVuSans-5f" transform="translate(498.738281 0)"/>
      <use xlink:href="#DejaVuSans-31" transform="translate(548.738281 0)"/>
      <use xlink:href="#DejaVuSans-b1" transform="translate(612.361328 0)"/>
      <use xlink:href="#DejaVuSans-53" transform="translate(696.150391 0)"/>
      <use xlink:href="#DejaVuSans-44" transform="translate(759.626953 0)"/>
      <use xlink:href="#DejaVuSans-20" transform="translate(836.628906 0)"/>
      <use xlink:href="#DejaVuSans-28" transform="translate(868.416016 0)"/>
      <use xlink:href="#DejaVuSans-6e" transform="translate(907.429688 0)"/>
      <use xlink:href="#DejaVuSans-3d" transform="translate(970.808594 0)"/>
      <use xlink:href="#DejaVuSans-31" transform="translate(1054.597656 0)"/>
      <use xlink:href="#DejaVuSans-38" transform="translate(1118.220703 0)"/>
      <use xlink:href="#DejaVuSans-29" transform="translate(1181.84375 0)"/>
     </g>
    </g>
    <g id="line2d_26">
     <path d="M 280.252656 86.210938 
L 300.252656 86.210938 
" style="fill: none; stroke: #1f77b4; stroke-width: 2; stroke-linecap: square"/>
    </g>
    <g id="line2d_27"/>
    <g id="text_20">
     <!-- CYP3A4_1_1G -->
     <g transform="translate(308.252656 89.710938) scale(0.1 -0.1)">
      <defs>
       <path id="DejaVuSans-47" d="M 3809 666 
L 3809 1919 
L 2778 1919 
L 2778 2438 
L 4434 2438 
L 4434 434 
Q 4069 175 3628 42 
Q 3188 -91 2688 -91 
Q 1594 -91 976 548 
Q 359 1188 359 2328 
Q 359 3472 976 4111 
Q 1594 4750 2688 4750 
Q 3144 4750 3555 4637 
Q 3966 4525 4313 4306 
L 4313 3634 
Q 3963 3931 3569 4081 
Q 3175 4231 2741 4231 
Q 1884 4231 1454 3753 
Q 1025 3275 1025 2328 
Q 1025 1384 1454 906 
Q 1884 428 2741 428 
Q 3075 428 3337 486 
Q 3600 544 3809 666 
z
" transform="scale(0.015625)"/>
      </defs>
      <use xlink:href="#DejaVuSans-43"/>
      <use xlink:href="#DejaVuSans-59" transform="translate(68.074219 0)"/>
      <use xlink:href="#DejaVuSans-50" transform="translate(129.158203 0)"/>
      <use xlink:href="#DejaVuSans-33" transform="translate(189.460938 0)"/>
      <use xlink:href="#DejaVuSans-41" transform="translate(253.083984 0)"/>
      <use xlink:href="#DejaVuSans-34" transform="translate(321.492188 0)"/>
      <use xlink:href="#DejaVuSans-5f" transform="translate(385.115234 0)"/>
      <use xlink:href="#DejaVuSans-31" transform="translate(435.115234 0)"/>
      <use xlink:href="#DejaVuSans-5f" transform="translate(498.738281 0)"/>
      <use xlink:href="#DejaVuSans-31" transform="translate(548.738281 0)"/>
      <use xlink:href="#DejaVuSans-47" transform="translate(612.361328 0)"/>
     </g>
    </g>
    <g id="LineCollection_5">
     <path d="M 290.252656 106.167187 
L 290.252656 96.167187 
" style="fill: none; stroke: #1f77b4"/>
    </g>
    <g id="line2d_28">
     <path d="M 280.252656 101.167187 
L 300.252656 101.167187 
" style="fill: none; stroke-dasharray: 3.7,1.6; stroke-dashoffset: 0; stroke: #1f77b4"/>
    </g>
    <g id="line2d_29">
     <g>
      <use xlink:href="#ma265db8557" x="290.252656" y="101.167187" style="fill: #1f77b4; stroke: #000000; stroke-linejoin: miter"/>
     </g>
    </g>
    <g id="text_21">
     <!-- CYP3A4_1_1G±SD (n=10) -->
     <g transform="translate(308.252656 104.667187) scale(0.1 -0.1)">
      <use xlink:href="#DejaVuSans-43"/>
      <use xlink:href="#DejaVuSans-59" transform="translate(68.074219 0)"/>
      <use xlink:href="#DejaVuSans-50" transform="translate(129.158203 0)"/>
      <use xlink:href="#DejaVuSans-33" transform="translate(189.460938 0)"/>
      <use xlink:href="#DejaVuSans-41" transform="translate(253.083984 0)"/>
      <use xlink:href="#DejaVuSans-34" transform="translate(321.492188 0)"/>
      <use xlink:href="#DejaVuSans-5f" transform="translate(385.115234 0)"/>
      <use xlink:href="#DejaVuSans-31" transform="translate(435.115234 0)"/>
      <use xlink:href="#DejaVuSans-5f" transform="translate(498.738281 0)"/>
      <use xlink:href="#DejaVuSans-31" transform="translate(548.738281 0)"/>
      <use xlink:href="#DejaVuSans-47" transform="translate(612.361328 0)"/>
      <use xlink:href="#DejaVuSans-b1" transform="translate(689.851562 0)"/>
      <use xlink:href="#DejaVuSans-53" transform="translate(773.640625 0)"/>
      <use xlink:href="#DejaVuSans-44" transform="translate(837.117188 0)"/>
      <use xlink:href="#DejaVuSans-20" transform="translate(914.119141 0)"/>
      <use xlink:href="#DejaVuSans-28" transform="translate(945.90625 0)"/>
      <use xlink:href="#DejaVuSans-6e" transform="translate(984.919922 0)"/>
      <use xlink:href="#DejaVuSans-3d" transform="translate(1048.298828 0)"/>
      <use xlink:href="#DejaVuSans-31" transform="translate(1132.087891 0)"/>
      <use xlink:href="#DejaVuSans-30" transform="translate(1195.710938 0)"/>
      <use xlink:href="#DejaVuSans-29" transform="translate(1259.333984 0)"/>
     </g>
    </g>
    <g id="line2d_30">
     <path d="M 280.252656 116.123437 
L 300.252656 116.123437 
" style="fill: none; stroke: #00008b; stroke-width: 2; stroke-linecap: square"/>
    </g>
    <g id="line2d_31"/>
    <g id="text_22">
     <!-- CYP3A4_1G_1G -->
     <g transform="translate(308.252656 119.623437) scale(0.1 -0.1)">
      <use xlink:href="#DejaVuSans-43"/>
      <use xlink:href="#DejaVuSans-59" transform="translate(68.074219 0)"/>
      <use xlink:href="#DejaVuSans-50" transform="translate(129.158203 0)"/>
      <use xlink:href="#DejaVuSans-33" transform="translate(189.460938 0)"/>
      <use xlink:href="#DejaVuSans-41" transform="translate(253.083984 0)"/>
      <use xlink:href="#DejaVuSans-34" transform="translate(321.492188 0)"/>
      <use xlink:href="#DejaVuSans-5f" transform="translate(385.115234 0)"/>
      <use xlink:href="#DejaVuSans-31" transform="translate(435.115234 0)"/>
      <use xlink:href="#DejaVuSans-47" transform="translate(498.738281 0)"/>
      <use xlink:href="#DejaVuSans-5f" transform="translate(576.228516 0)"/>
      <use xlink:href="#DejaVuSans-31" transform="translate(626.228516 0)"/>
      <use xlink:href="#DejaVuSans-47" transform="translate(689.851562 0)"/>
     </g>
    </g>
    <g id="LineCollection_6">
     <path d="M 290.252656 136.079687 
L 290.252656 126.079687 
" style="fill: none; stroke: #00008b"/>
    </g>
    <g id="line2d_32">
     <path d="M 280.252656 131.079687 
L 300.252656 131.079687 
" style="fill: none; stroke-dasharray: 3.7,1.6; stroke-dashoffset: 0; stroke: #00008b"/>
    </g>
    <g id="line2d_33">
     <g>
      <use xlink:href="#m5fbbf8f695" x="290.252656" y="131.079687" style="fill: #00008b; stroke: #000000; stroke-linejoin: miter"/>
     </g>
    </g>
    <g id="text_23">
     <!-- CYP3A4_1G_1G±SD (n=3) -->
     <g transform="translate(308.252656 134.579687) scale(0.1 -0.1)">
      <use xlink:href="#DejaVuSans-43"/>
      <use xlink:href="#DejaVuSans-59" transform="translate(68.074219 0)"/>
      <use xlink:href="#DejaVuSans-50" transform="translate(129.158203 0)"/>
      <use xlink:href="#DejaVuSans-33" transform="translate(189.460938 0)"/>
      <use xlink:href="#DejaVuSans-41" transform="translate(253.083984 0)"/>
      <use xlink:href="#DejaVuSans-34" transform="translate(321.492188 0)"/>
      <use xlink:href="#DejaVuSans-5f" transform="translate(385.115234 0)"/>
      <use xlink:href="#DejaVuSans-31" transform="translate(435.115234 0)"/>
      <use xlink:href="#DejaVuSans-47" transform="translate(498.738281 0)"/>
      <use xlink:href="#DejaVuSans-5f" transform="translate(576.228516 0)"/>
      <use xlink:href="#DejaVuSans-31" transform="translate(626.228516 0)"/>
      <use xlink:href="#DejaVuSans-47" transform="translate(689.851562 0)"/>
      <use xlink:href="#DejaVuSans-b1" transform="translate(767.341797 0)"/>
      <use xlink:href="#DejaVuSans-53" transform="translate(851.130859 0)"/>
      <use xlink:href="#DejaVuSans-44" transform="translate(914.607422 0)"/>
      <use xlink:href="#DejaVuSans-20" transform="translate(991.609375 0)"/>
      <use xlink:href="#DejaVuSans-28" transform="translate(1023.396484 0)"/>
      <use xlink:href="#DejaVuSans-6e" transform="translate(1062.410156 0)"/>
      <use xlink:href="#DejaVuSans-3d" transform="translate(1125.789062 0)"/>
      <use xlink:href="#DejaVuSans-33" transform="translate(1209.578125 0)"/>
      <use xlink:href="#DejaVuSans-29" transform="translate(1273.201172 0)"/>
     </g>
    </g>
   </g>
  </g>
  <g id="text_24">
   <!-- Zhang2017 -->
   <g transform="translate(167.841328 26.196094) scale(0.25 -0.25)">
    <defs>
     <path id="DejaVuSans-Bold-5a" d="M 359 4666 
L 4281 4666 
L 4281 3938 
L 1778 909 
L 4353 909 
L 4353 0 
L 288 0 
L 288 728 
L 2791 3756 
L 359 3756 
L 359 4666 
z
" transform="scale(0.015625)"/>
     <path id="DejaVuSans-Bold-67" d="M 2919 594 
Q 2688 288 2409 144 
Q 2131 0 1766 0 
Q 1125 0 706 504 
Q 288 1009 288 1791 
Q 288 2575 706 3076 
Q 1125 3578 1766 3578 
Q 2131 3578 2409 3434 
Q 2688 3291 2919 2981 
L 2919 3500 
L 4044 3500 
L 4044 353 
Q 4044 -491 3511 -936 
Q 2978 -1381 1966 -1381 
Q 1638 -1381 1331 -1331 
Q 1025 -1281 716 -1178 
L 716 -306 
Q 1009 -475 1290 -558 
Q 1572 -641 1856 -641 
Q 2406 -641 2662 -400 
Q 2919 -159 2919 353 
L 2919 594 
z
M 2181 2772 
Q 1834 2772 1640 2515 
Q 1447 2259 1447 1791 
Q 1447 1309 1634 1061 
Q 1822 813 2181 813 
Q 2531 813 2725 1069 
Q 2919 1325 2919 1791 
Q 2919 2259 2725 2515 
Q 2531 2772 2181 2772 
z
" transform="scale(0.015625)"/>
     <path id="DejaVuSans-Bold-32" d="M 1844 884 
L 3897 884 
L 3897 0 
L 506 0 
L 506 884 
L 2209 2388 
Q 2438 2594 2547 2791 
Q 2656 2988 2656 3200 
Q 2656 3528 2436 3728 
Q 2216 3928 1850 3928 
Q 1569 3928 1234 3808 
Q 900 3688 519 3450 
L 519 4475 
Q 925 4609 1322 4679 
Q 1719 4750 2100 4750 
Q 2938 4750 3402 4381 
Q 3866 4013 3866 3353 
Q 3866 2972 3669 2642 
Q 3472 2313 2841 1759 
L 1844 884 
z
" transform="scale(0.015625)"/>
     <path id="DejaVuSans-Bold-30" d="M 2944 2338 
Q 2944 3213 2780 3570 
Q 2616 3928 2228 3928 
Q 1841 3928 1675 3570 
Q 1509 3213 1509 2338 
Q 1509 1453 1675 1090 
Q 1841 728 2228 728 
Q 2613 728 2778 1090 
Q 2944 1453 2944 2338 
z
M 4147 2328 
Q 4147 1169 3647 539 
Q 3147 -91 2228 -91 
Q 1306 -91 806 539 
Q 306 1169 306 2328 
Q 306 3491 806 4120 
Q 1306 4750 2228 4750 
Q 3147 4750 3647 4120 
Q 4147 3491 4147 2328 
z
" transform="scale(0.015625)"/>
     <path id="DejaVuSans-Bold-31" d="M 750 831 
L 1813 831 
L 1813 3847 
L 722 3622 
L 722 4441 
L 1806 4666 
L 2950 4666 
L 2950 831 
L 4013 831 
L 4013 0 
L 750 0 
L 750 831 
z
" transform="scale(0.015625)"/>
     <path id="DejaVuSans-Bold-37" d="M 428 4666 
L 3944 4666 
L 3944 3988 
L 2125 0 
L 953 0 
L 2675 3781 
L 428 3781 
L 428 4666 
z
" transform="scale(0.015625)"/>
    </defs>
    <use xlink:href="#DejaVuSans-Bold-5a"/>
    <use xlink:href="#DejaVuSans-Bold-68" transform="translate(72.509766 0)"/>
    <use xlink:href="#DejaVuSans-Bold-61" transform="translate(143.701172 0)"/>
    <use xlink:href="#DejaVuSans-Bold-6e" transform="translate(211.181641 0)"/>
    <use xlink:href="#DejaVuSans-Bold-67" transform="translate(282.373047 0)"/>
    <use xlink:href="#DejaVuSans-Bold-32" transform="translate(353.955078 0)"/>
    <use xlink:href="#DejaVuSans-Bold-30" transform="translate(423.535156 0)"/>
    <use xlink:href="#DejaVuSans-Bold-31" transform="translate(493.115234 0)"/>
    <use xlink:href="#DejaVuSans-Bold-37" transform="translate(562.695312 0)"/>
   </g>
  </g>
 </g>
 <defs>
  <clipPath id="p461daf3cea">
   <rect x="57.874531" y="43.2" width="390.6" height="277.2"/>
  </clipPath>
 </defs>
</svg>
