<?xml version="1.0" encoding="utf-8" standalone="no"?>
<!DOCTYPE svg PUBLIC "-//W3C//DTD SVG 1.1//EN"
  "http://www.w3.org/Graphics/SVG/1.1/DTD/svg11.dtd">
<svg xmlns:xlink="http://www.w3.org/1999/xlink" width="452.64875pt" height="370.537812pt" viewBox="0 0 452.64875 370.537812" xmlns="http://www.w3.org/2000/svg" version="1.1">
 <metadata>
  <rdf:RDF xmlns:dc="http://purl.org/dc/elements/1.1/" xmlns:cc="http://creativecommons.org/ns#" xmlns:rdf="http://www.w3.org/1999/02/22-rdf-syntax-ns#">
   <cc:Work>
    <dc:type rdf:resource="http://purl.org/dc/dcmitype/StillImage"/>
    <dc:date>2026-02-12T15:19:43.281467</dc:date>
    <dc:format>image/svg+xml</dc:format>
    <dc:creator>
     <cc:Agent>
      <dc:title>Matplotlib v3.10.7, https://matplotlib.org/</dc:title>
     </cc:Agent>
    </dc:creator>
   </cc:Work>
  </rdf:RDF>
 </metadata>
 <defs>
  <style type="text/css">*{stroke-linejoin: round; stroke-linecap: butt}</style>
 </defs>
 <g id="figure_1">
  <g id="patch_1">
   <path d="M 0 370.537812 
L 452.64875 370.537812 
L 452.64875 0 
L 0 0 
z
" style="fill: #ffffff"/>
  </g>
  <g id="axes_1">
   <g id="patch_2">
    <path d="M 54.84875 320.4 
L 445.44875 320.4 
L 445.44875 43.2 
L 54.84875 43.2 
z
" style="fill: #ffffff"/>
   </g>
   <g id="matplotlib.axis_1">
    <g id="xtick_1">
     <g id="line2d_1">
      <defs>
       <path id="m7a52b13636" d="M 0 0 
L 0 3.5 
" style="stroke: #000000; stroke-width: 0.8"/>
      </defs>
      <g>
       <use xlink:href="#m7a52b13636" x="72.603295" y="320.4" style="stroke: #000000; stroke-width: 0.8"/>
      </g>
     </g>
     <g id="text_1">
      <!-- 0 -->
      <g transform="translate(67.83142 338.797656) scale(0.15 -0.15)">
       <defs>
        <path id="DejaVuSans-30" d="M 2034 4250 
Q 1547 4250 1301 3770 
Q 1056 3291 1056 2328 
Q 1056 1369 1301 889 
Q 1547 409 2034 409 
Q 2525 409 2770 889 
Q 3016 1369 3016 2328 
Q 3016 3291 2770 3770 
Q 2525 4250 2034 4250 
z
M 2034 4750 
Q 2819 4750 3233 4129 
Q 3647 3509 3647 2328 
Q 3647 1150 3233 529 
Q 2819 -91 2034 -91 
Q 1250 -91 836 529 
Q 422 1150 422 2328 
Q 422 3509 836 4129 
Q 1250 4750 2034 4750 
z
" transform="scale(0.015625)"/>
       </defs>
       <use xlink:href="#DejaVuSans-30"/>
      </g>
     </g>
    </g>
    <g id="xtick_2">
     <g id="line2d_2">
      <g>
       <use xlink:href="#m7a52b13636" x="131.785114" y="320.4" style="stroke: #000000; stroke-width: 0.8"/>
      </g>
     </g>
     <g id="text_2">
      <!-- 25 -->
      <g transform="translate(122.241364 338.797656) scale(0.15 -0.15)">
       <defs>
        <path id="DejaVuSans-32" d="M 1228 531 
L 3431 531 
L 3431 0 
L 469 0 
L 469 531 
Q 828 903 1448 1529 
Q 2069 2156 2228 2338 
Q 2531 2678 2651 2914 
Q 2772 3150 2772 3378 
Q 2772 3750 2511 3984 
Q 2250 4219 1831 4219 
Q 1534 4219 1204 4116 
Q 875 4013 500 3803 
L 500 4441 
Q 881 4594 1212 4672 
Q 1544 4750 1819 4750 
Q 2544 4750 2975 4387 
Q 3406 4025 3406 3419 
Q 3406 3131 3298 2873 
Q 3191 2616 2906 2266 
Q 2828 2175 2409 1742 
Q 1991 1309 1228 531 
z
" transform="scale(0.015625)"/>
        <path id="DejaVuSans-35" d="M 691 4666 
L 3169 4666 
L 3169 4134 
L 1269 4134 
L 1269 2991 
Q 1406 3038 1543 3061 
Q 1681 3084 1819 3084 
Q 2600 3084 3056 2656 
Q 3513 2228 3513 1497 
Q 3513 744 3044 326 
Q 2575 -91 1722 -91 
Q 1428 -91 1123 -41 
Q 819 9 494 109 
L 494 744 
Q 775 591 1075 516 
Q 1375 441 1709 441 
Q 2250 441 2565 725 
Q 2881 1009 2881 1497 
Q 2881 1984 2565 2268 
Q 2250 2553 1709 2553 
Q 1456 2553 1204 2497 
Q 953 2441 691 2322 
L 691 4666 
z
" transform="scale(0.015625)"/>
       </defs>
       <use xlink:href="#DejaVuSans-32"/>
       <use xlink:href="#DejaVuSans-35" transform="translate(63.623047 0)"/>
      </g>
     </g>
    </g>
    <g id="xtick_3">
     <g id="line2d_3">
      <g>
       <use xlink:href="#m7a52b13636" x="190.966932" y="320.4" style="stroke: #000000; stroke-width: 0.8"/>
      </g>
     </g>
     <g id="text_3">
      <!-- 50 -->
      <g transform="translate(181.423182 338.797656) scale(0.15 -0.15)">
       <use xlink:href="#DejaVuSans-35"/>
       <use xlink:href="#DejaVuSans-30" transform="translate(63.623047 0)"/>
      </g>
     </g>
    </g>
    <g id="xtick_4">
     <g id="line2d_4">
      <g>
       <use xlink:href="#m7a52b13636" x="250.14875" y="320.4" style="stroke: #000000; stroke-width: 0.8"/>
      </g>
     </g>
     <g id="text_4">
      <!-- 75 -->
      <g transform="translate(240.605 338.797656) scale(0.15 -0.15)">
       <defs>
        <path id="DejaVuSans-37" d="M 525 4666 
L 3525 4666 
L 3525 4397 
L 1831 0 
L 1172 0 
L 2766 4134 
L 525 4134 
L 525 4666 
z
" transform="scale(0.015625)"/>
       </defs>
       <use xlink:href="#DejaVuSans-37"/>
       <use xlink:href="#DejaVuSans-35" transform="translate(63.623047 0)"/>
      </g>
     </g>
    </g>
    <g id="xtick_5">
     <g id="line2d_5">
      <g>
       <use xlink:href="#m7a52b13636" x="309.330568" y="320.4" style="stroke: #000000; stroke-width: 0.8"/>
      </g>
     </g>
     <g id="text_5">
      <!-- 100 -->
      <g transform="translate(295.014943 338.797656) scale(0.15 -0.15)">
       <defs>
        <path id="DejaVuSans-31" d="M 794 531 
L 1825 531 
L 1825 4091 
L 703 3866 
L 703 4441 
L 1819 4666 
L 2450 4666 
L 2450 531 
L 3481 531 
L 3481 0 
L 794 0 
L 794 531 
z
" transform="scale(0.015625)"/>
       </defs>
       <use xlink:href="#DejaVuSans-31"/>
       <use xlink:href="#DejaVuSans-30" transform="translate(63.623047 0)"/>
       <use xlink:href="#DejaVuSans-30" transform="translate(127.246094 0)"/>
      </g>
     </g>
    </g>
    <g id="xtick_6">
     <g id="line2d_6">
      <g>
       <use xlink:href="#m7a52b13636" x="368.512386" y="320.4" style="stroke: #000000; stroke-width: 0.8"/>
      </g>
     </g>
     <g id="text_6">
      <!-- 125 -->
      <g transform="translate(354.196761 338.797656) scale(0.15 -0.15)">
       <use xlink:href="#DejaVuSans-31"/>
       <use xlink:href="#DejaVuSans-32" transform="translate(63.623047 0)"/>
       <use xlink:href="#DejaVuSans-35" transform="translate(127.246094 0)"/>
      </g>
     </g>
    </g>
    <g id="xtick_7">
     <g id="line2d_7">
      <g>
       <use xlink:href="#m7a52b13636" x="427.694205" y="320.4" style="stroke: #000000; stroke-width: 0.8"/>
      </g>
     </g>
     <g id="text_7">
      <!-- 150 -->
      <g transform="translate(413.37858 338.797656) scale(0.15 -0.15)">
       <use xlink:href="#DejaVuSans-31"/>
       <use xlink:href="#DejaVuSans-35" transform="translate(63.623047 0)"/>
       <use xlink:href="#DejaVuSans-30" transform="translate(127.246094 0)"/>
      </g>
     </g>
    </g>
    <g id="text_8">
     <!-- time [hr] -->
     <g transform="translate(205.074219 359.594375) scale(0.18 -0.18)">
      <defs>
       <path id="DejaVuSans-Bold-74" d="M 1759 4494 
L 1759 3500 
L 2913 3500 
L 2913 2700 
L 1759 2700 
L 1759 1216 
Q 1759 972 1856 886 
Q 1953 800 2241 800 
L 2816 800 
L 2816 0 
L 1856 0 
Q 1194 0 917 276 
Q 641 553 641 1216 
L 641 2700 
L 84 2700 
L 84 3500 
L 641 3500 
L 641 4494 
L 1759 4494 
z
" transform="scale(0.015625)"/>
       <path id="DejaVuSans-Bold-69" d="M 538 3500 
L 1656 3500 
L 1656 0 
L 538 0 
L 538 3500 
z
M 538 4863 
L 1656 4863 
L 1656 3950 
L 538 3950 
L 538 4863 
z
" transform="scale(0.015625)"/>
       <path id="DejaVuSans-Bold-6d" d="M 3781 2919 
Q 3994 3244 4286 3414 
Q 4578 3584 4928 3584 
Q 5531 3584 5847 3212 
Q 6163 2841 6163 2131 
L 6163 0 
L 5038 0 
L 5038 1825 
Q 5041 1866 5042 1909 
Q 5044 1953 5044 2034 
Q 5044 2406 4934 2573 
Q 4825 2741 4581 2741 
Q 4263 2741 4089 2478 
Q 3916 2216 3909 1719 
L 3909 0 
L 2784 0 
L 2784 1825 
Q 2784 2406 2684 2573 
Q 2584 2741 2328 2741 
Q 2006 2741 1831 2477 
Q 1656 2213 1656 1722 
L 1656 0 
L 531 0 
L 531 3500 
L 1656 3500 
L 1656 2988 
Q 1863 3284 2130 3434 
Q 2397 3584 2719 3584 
Q 3081 3584 3359 3409 
Q 3638 3234 3781 2919 
z
" transform="scale(0.015625)"/>
       <path id="DejaVuSans-Bold-65" d="M 4031 1759 
L 4031 1441 
L 1416 1441 
Q 1456 1047 1700 850 
Q 1944 653 2381 653 
Q 2734 653 3104 758 
Q 3475 863 3866 1075 
L 3866 213 
Q 3469 63 3072 -14 
Q 2675 -91 2278 -91 
Q 1328 -91 801 392 
Q 275 875 275 1747 
Q 275 2603 792 3093 
Q 1309 3584 2216 3584 
Q 3041 3584 3536 3087 
Q 4031 2591 4031 1759 
z
M 2881 2131 
Q 2881 2450 2695 2645 
Q 2509 2841 2209 2841 
Q 1884 2841 1681 2658 
Q 1478 2475 1428 2131 
L 2881 2131 
z
" transform="scale(0.015625)"/>
       <path id="DejaVuSans-Bold-20" transform="scale(0.015625)"/>
       <path id="DejaVuSans-Bold-5b" d="M 550 4863 
L 2491 4863 
L 2491 4159 
L 1613 4159 
L 1613 -141 
L 2491 -141 
L 2491 -844 
L 550 -844 
L 550 4863 
z
" transform="scale(0.015625)"/>
       <path id="DejaVuSans-Bold-68" d="M 4056 2131 
L 4056 0 
L 2931 0 
L 2931 347 
L 2931 1625 
Q 2931 2084 2911 2256 
Q 2891 2428 2841 2509 
Q 2775 2619 2662 2680 
Q 2550 2741 2406 2741 
Q 2056 2741 1856 2470 
Q 1656 2200 1656 1722 
L 1656 0 
L 538 0 
L 538 4863 
L 1656 4863 
L 1656 2988 
Q 1909 3294 2193 3439 
Q 2478 3584 2822 3584 
Q 3428 3584 3742 3212 
Q 4056 2841 4056 2131 
z
" transform="scale(0.015625)"/>
       <path id="DejaVuSans-Bold-72" d="M 3138 2547 
Q 2991 2616 2845 2648 
Q 2700 2681 2553 2681 
Q 2122 2681 1889 2404 
Q 1656 2128 1656 1613 
L 1656 0 
L 538 0 
L 538 3500 
L 1656 3500 
L 1656 2925 
Q 1872 3269 2151 3426 
Q 2431 3584 2822 3584 
Q 2878 3584 2943 3579 
Q 3009 3575 3134 3559 
L 3138 2547 
z
" transform="scale(0.015625)"/>
       <path id="DejaVuSans-Bold-5d" d="M 2375 -844 
L 434 -844 
L 434 -141 
L 1313 -141 
L 1313 4159 
L 434 4159 
L 434 4863 
L 2375 4863 
L 2375 -844 
z
" transform="scale(0.015625)"/>
      </defs>
      <use xlink:href="#DejaVuSans-Bold-74"/>
      <use xlink:href="#DejaVuSans-Bold-69" transform="translate(47.802734 0)"/>
      <use xlink:href="#DejaVuSans-Bold-6d" transform="translate(82.080078 0)"/>
      <use xlink:href="#DejaVuSans-Bold-65" transform="translate(186.279297 0)"/>
      <use xlink:href="#DejaVuSans-Bold-20" transform="translate(254.101562 0)"/>
      <use xlink:href="#DejaVuSans-Bold-5b" transform="translate(288.916016 0)"/>
      <use xlink:href="#DejaVuSans-Bold-68" transform="translate(334.619141 0)"/>
      <use xlink:href="#DejaVuSans-Bold-72" transform="translate(405.810547 0)"/>
      <use xlink:href="#DejaVuSans-Bold-5d" transform="translate(455.126953 0)"/>
     </g>
    </g>
   </g>
   <g id="matplotlib.axis_2">
    <g id="ytick_1">
     <g id="line2d_8">
      <defs>
       <path id="md54fbf8f0d" d="M 0 0 
L -3.5 0 
" style="stroke: #000000; stroke-width: 0.8"/>
      </defs>
      <g>
       <use xlink:href="#md54fbf8f0d" x="54.84875" y="307.8" style="stroke: #000000; stroke-width: 0.8"/>
      </g>
     </g>
     <g id="text_9">
      <!-- 0 -->
      <g transform="translate(38.305 313.498828) scale(0.15 -0.15)">
       <use xlink:href="#DejaVuSans-30"/>
      </g>
     </g>
    </g>
    <g id="ytick_2">
     <g id="line2d_9">
      <g>
       <use xlink:href="#md54fbf8f0d" x="54.84875" y="257.043286" style="stroke: #000000; stroke-width: 0.8"/>
      </g>
     </g>
     <g id="text_10">
      <!-- 10 -->
      <g transform="translate(28.76125 262.742114) scale(0.15 -0.15)">
       <use xlink:href="#DejaVuSans-31"/>
       <use xlink:href="#DejaVuSans-30" transform="translate(63.623047 0)"/>
      </g>
     </g>
    </g>
    <g id="ytick_3">
     <g id="line2d_10">
      <g>
       <use xlink:href="#md54fbf8f0d" x="54.84875" y="206.286572" style="stroke: #000000; stroke-width: 0.8"/>
      </g>
     </g>
     <g id="text_11">
      <!-- 20 -->
      <g transform="translate(28.76125 211.9854) scale(0.15 -0.15)">
       <use xlink:href="#DejaVuSans-32"/>
       <use xlink:href="#DejaVuSans-30" transform="translate(63.623047 0)"/>
      </g>
     </g>
    </g>
    <g id="ytick_4">
     <g id="line2d_11">
      <g>
       <use xlink:href="#md54fbf8f0d" x="54.84875" y="155.529859" style="stroke: #000000; stroke-width: 0.8"/>
      </g>
     </g>
     <g id="text_12">
      <!-- 30 -->
      <g transform="translate(28.76125 161.228687) scale(0.15 -0.15)">
       <defs>
        <path id="DejaVuSans-33" d="M 2597 2516 
Q 3050 2419 3304 2112 
Q 3559 1806 3559 1356 
Q 3559 666 3084 287 
Q 2609 -91 1734 -91 
Q 1441 -91 1130 -33 
Q 819 25 488 141 
L 488 750 
Q 750 597 1062 519 
Q 1375 441 1716 441 
Q 2309 441 2620 675 
Q 2931 909 2931 1356 
Q 2931 1769 2642 2001 
Q 2353 2234 1838 2234 
L 1294 2234 
L 1294 2753 
L 1863 2753 
Q 2328 2753 2575 2939 
Q 2822 3125 2822 3475 
Q 2822 3834 2567 4026 
Q 2313 4219 1838 4219 
Q 1578 4219 1281 4162 
Q 984 4106 628 3988 
L 628 4550 
Q 988 4650 1302 4700 
Q 1616 4750 1894 4750 
Q 2613 4750 3031 4423 
Q 3450 4097 3450 3541 
Q 3450 3153 3228 2886 
Q 3006 2619 2597 2516 
z
" transform="scale(0.015625)"/>
       </defs>
       <use xlink:href="#DejaVuSans-33"/>
       <use xlink:href="#DejaVuSans-30" transform="translate(63.623047 0)"/>
      </g>
     </g>
    </g>
    <g id="ytick_5">
     <g id="line2d_12">
      <g>
       <use xlink:href="#md54fbf8f0d" x="54.84875" y="104.773145" style="stroke: #000000; stroke-width: 0.8"/>
      </g>
     </g>
     <g id="text_13">
      <!-- 40 -->
      <g transform="translate(28.76125 110.471973) scale(0.15 -0.15)">
       <defs>
        <path id="DejaVuSans-34" d="M 2419 4116 
L 825 1625 
L 2419 1625 
L 2419 4116 
z
M 2253 4666 
L 3047 4666 
L 3047 1625 
L 3713 1625 
L 3713 1100 
L 3047 1100 
L 3047 0 
L 2419 0 
L 2419 1100 
L 313 1100 
L 313 1709 
L 2253 4666 
z
" transform="scale(0.015625)"/>
       </defs>
       <use xlink:href="#DejaVuSans-34"/>
       <use xlink:href="#DejaVuSans-30" transform="translate(63.623047 0)"/>
      </g>
     </g>
    </g>
    <g id="ytick_6">
     <g id="line2d_13">
      <g>
       <use xlink:href="#md54fbf8f0d" x="54.84875" y="54.016431" style="stroke: #000000; stroke-width: 0.8"/>
      </g>
     </g>
     <g id="text_14">
      <!-- 50 -->
      <g transform="translate(28.76125 59.715259) scale(0.15 -0.15)">
       <use xlink:href="#DejaVuSans-35"/>
       <use xlink:href="#DejaVuSans-30" transform="translate(63.623047 0)"/>
      </g>
     </g>
    </g>
    <g id="text_15">
     <!-- rapamycin blood [nM] -->
     <g transform="translate(20.877187 293.092031) rotate(-90) scale(0.18 -0.18)">
      <defs>
       <path id="DejaVuSans-Bold-61" d="M 2106 1575 
Q 1756 1575 1579 1456 
Q 1403 1338 1403 1106 
Q 1403 894 1545 773 
Q 1688 653 1941 653 
Q 2256 653 2472 879 
Q 2688 1106 2688 1447 
L 2688 1575 
L 2106 1575 
z
M 3816 1997 
L 3816 0 
L 2688 0 
L 2688 519 
Q 2463 200 2181 54 
Q 1900 -91 1497 -91 
Q 953 -91 614 226 
Q 275 544 275 1050 
Q 275 1666 698 1953 
Q 1122 2241 2028 2241 
L 2688 2241 
L 2688 2328 
Q 2688 2594 2478 2717 
Q 2269 2841 1825 2841 
Q 1466 2841 1156 2769 
Q 847 2697 581 2553 
L 581 3406 
Q 941 3494 1303 3539 
Q 1666 3584 2028 3584 
Q 2975 3584 3395 3211 
Q 3816 2838 3816 1997 
z
" transform="scale(0.015625)"/>
       <path id="DejaVuSans-Bold-70" d="M 1656 506 
L 1656 -1331 
L 538 -1331 
L 538 3500 
L 1656 3500 
L 1656 2988 
Q 1888 3294 2169 3439 
Q 2450 3584 2816 3584 
Q 3463 3584 3878 3070 
Q 4294 2556 4294 1747 
Q 4294 938 3878 423 
Q 3463 -91 2816 -91 
Q 2450 -91 2169 54 
Q 1888 200 1656 506 
z
M 2400 2772 
Q 2041 2772 1848 2508 
Q 1656 2244 1656 1747 
Q 1656 1250 1848 986 
Q 2041 722 2400 722 
Q 2759 722 2948 984 
Q 3138 1247 3138 1747 
Q 3138 2247 2948 2509 
Q 2759 2772 2400 2772 
z
" transform="scale(0.015625)"/>
       <path id="DejaVuSans-Bold-79" d="M 78 3500 
L 1197 3500 
L 2138 1125 
L 2938 3500 
L 4056 3500 
L 2584 -331 
Q 2363 -916 2067 -1148 
Q 1772 -1381 1288 -1381 
L 641 -1381 
L 641 -647 
L 991 -647 
Q 1275 -647 1404 -556 
Q 1534 -466 1606 -231 
L 1638 -134 
L 78 3500 
z
" transform="scale(0.015625)"/>
       <path id="DejaVuSans-Bold-63" d="M 3366 3391 
L 3366 2478 
Q 3138 2634 2908 2709 
Q 2678 2784 2431 2784 
Q 1963 2784 1702 2511 
Q 1441 2238 1441 1747 
Q 1441 1256 1702 982 
Q 1963 709 2431 709 
Q 2694 709 2930 787 
Q 3166 866 3366 1019 
L 3366 103 
Q 3103 6 2833 -42 
Q 2563 -91 2291 -91 
Q 1344 -91 809 395 
Q 275 881 275 1747 
Q 275 2613 809 3098 
Q 1344 3584 2291 3584 
Q 2566 3584 2833 3536 
Q 3100 3488 3366 3391 
z
" transform="scale(0.015625)"/>
       <path id="DejaVuSans-Bold-6e" d="M 4056 2131 
L 4056 0 
L 2931 0 
L 2931 347 
L 2931 1631 
Q 2931 2084 2911 2256 
Q 2891 2428 2841 2509 
Q 2775 2619 2662 2680 
Q 2550 2741 2406 2741 
Q 2056 2741 1856 2470 
Q 1656 2200 1656 1722 
L 1656 0 
L 538 0 
L 538 3500 
L 1656 3500 
L 1656 2988 
Q 1909 3294 2193 3439 
Q 2478 3584 2822 3584 
Q 3428 3584 3742 3212 
Q 4056 2841 4056 2131 
z
" transform="scale(0.015625)"/>
       <path id="DejaVuSans-Bold-62" d="M 2400 722 
Q 2759 722 2948 984 
Q 3138 1247 3138 1747 
Q 3138 2247 2948 2509 
Q 2759 2772 2400 2772 
Q 2041 2772 1848 2508 
Q 1656 2244 1656 1747 
Q 1656 1250 1848 986 
Q 2041 722 2400 722 
z
M 1656 2988 
Q 1888 3294 2169 3439 
Q 2450 3584 2816 3584 
Q 3463 3584 3878 3070 
Q 4294 2556 4294 1747 
Q 4294 938 3878 423 
Q 3463 -91 2816 -91 
Q 2450 -91 2169 54 
Q 1888 200 1656 506 
L 1656 0 
L 538 0 
L 538 4863 
L 1656 4863 
L 1656 2988 
z
" transform="scale(0.015625)"/>
       <path id="DejaVuSans-Bold-6c" d="M 538 4863 
L 1656 4863 
L 1656 0 
L 538 0 
L 538 4863 
z
" transform="scale(0.015625)"/>
       <path id="DejaVuSans-Bold-6f" d="M 2203 2784 
Q 1831 2784 1636 2517 
Q 1441 2250 1441 1747 
Q 1441 1244 1636 976 
Q 1831 709 2203 709 
Q 2569 709 2762 976 
Q 2956 1244 2956 1747 
Q 2956 2250 2762 2517 
Q 2569 2784 2203 2784 
z
M 2203 3584 
Q 3106 3584 3614 3096 
Q 4122 2609 4122 1747 
Q 4122 884 3614 396 
Q 3106 -91 2203 -91 
Q 1297 -91 786 396 
Q 275 884 275 1747 
Q 275 2609 786 3096 
Q 1297 3584 2203 3584 
z
" transform="scale(0.015625)"/>
       <path id="DejaVuSans-Bold-64" d="M 2919 2988 
L 2919 4863 
L 4044 4863 
L 4044 0 
L 2919 0 
L 2919 506 
Q 2688 197 2409 53 
Q 2131 -91 1766 -91 
Q 1119 -91 703 423 
Q 288 938 288 1747 
Q 288 2556 703 3070 
Q 1119 3584 1766 3584 
Q 2128 3584 2408 3439 
Q 2688 3294 2919 2988 
z
M 2181 722 
Q 2541 722 2730 984 
Q 2919 1247 2919 1747 
Q 2919 2247 2730 2509 
Q 2541 2772 2181 2772 
Q 1825 2772 1636 2509 
Q 1447 2247 1447 1747 
Q 1447 1247 1636 984 
Q 1825 722 2181 722 
z
" transform="scale(0.015625)"/>
       <path id="DejaVuSans-Bold-4d" d="M 588 4666 
L 2119 4666 
L 3181 2169 
L 4250 4666 
L 5778 4666 
L 5778 0 
L 4641 0 
L 4641 3413 
L 3566 897 
L 2803 897 
L 1728 3413 
L 1728 0 
L 588 0 
L 588 4666 
z
" transform="scale(0.015625)"/>
      </defs>
      <use xlink:href="#DejaVuSans-Bold-72"/>
      <use xlink:href="#DejaVuSans-Bold-61" transform="translate(49.316406 0)"/>
      <use xlink:href="#DejaVuSans-Bold-70" transform="translate(116.796875 0)"/>
      <use xlink:href="#DejaVuSans-Bold-61" transform="translate(188.378906 0)"/>
      <use xlink:href="#DejaVuSans-Bold-6d" transform="translate(255.859375 0)"/>
      <use xlink:href="#DejaVuSans-Bold-79" transform="translate(360.058594 0)"/>
      <use xlink:href="#DejaVuSans-Bold-63" transform="translate(425.244141 0)"/>
      <use xlink:href="#DejaVuSans-Bold-69" transform="translate(484.521484 0)"/>
      <use xlink:href="#DejaVuSans-Bold-6e" transform="translate(518.798828 0)"/>
      <use xlink:href="#DejaVuSans-Bold-20" transform="translate(589.990234 0)"/>
      <use xlink:href="#DejaVuSans-Bold-62" transform="translate(624.804688 0)"/>
      <use xlink:href="#DejaVuSans-Bold-6c" transform="translate(696.386719 0)"/>
      <use xlink:href="#DejaVuSans-Bold-6f" transform="translate(730.664062 0)"/>
      <use xlink:href="#DejaVuSans-Bold-6f" transform="translate(799.365234 0)"/>
      <use xlink:href="#DejaVuSans-Bold-64" transform="translate(868.066406 0)"/>
      <use xlink:href="#DejaVuSans-Bold-20" transform="translate(939.648438 0)"/>
      <use xlink:href="#DejaVuSans-Bold-5b" transform="translate(974.462891 0)"/>
      <use xlink:href="#DejaVuSans-Bold-6e" transform="translate(1020.166016 0)"/>
      <use xlink:href="#DejaVuSans-Bold-4d" transform="translate(1091.357422 0)"/>
      <use xlink:href="#DejaVuSans-Bold-5d" transform="translate(1190.869141 0)"/>
     </g>
    </g>
   </g>
   <g id="LineCollection_1">
    <path clip-path="url(#p5d02a23ad3)" style="fill: none; stroke: #000000"/>
    <path d="M 73.786932 304.141731 
L 73.786932 283.446382 
" clip-path="url(#p5d02a23ad3)" style="fill: none; stroke: #000000"/>
    <path d="M 74.970568 270.799225 
L 74.970568 267.036434 
" clip-path="url(#p5d02a23ad3)" style="fill: none; stroke: #000000"/>
    <path clip-path="url(#p5d02a23ad3)" style="fill: none; stroke: #000000"/>
    <path d="M 77.337841 268.813307 
L 77.337841 254.180232 
" clip-path="url(#p5d02a23ad3)" style="fill: none; stroke: #000000"/>
    <path clip-path="url(#p5d02a23ad3)" style="fill: none; stroke: #000000"/>
    <path clip-path="url(#p5d02a23ad3)" style="fill: none; stroke: #000000"/>
    <path d="M 82.072386 276.756977 
L 82.072386 264.214341 
" clip-path="url(#p5d02a23ad3)" style="fill: none; stroke: #000000"/>
    <path d="M 86.806932 278.429328 
L 86.806932 265.050517 
" clip-path="url(#p5d02a23ad3)" style="fill: none; stroke: #000000"/>
    <path d="M 91.541477 293.166925 
L 91.541477 264.109819 
" clip-path="url(#p5d02a23ad3)" style="fill: none; stroke: #000000"/>
    <path d="M 101.010568 292.121705 
L 101.010568 265.364083 
" clip-path="url(#p5d02a23ad3)" style="fill: none; stroke: #000000"/>
    <path d="M 129.417841 299.124677 
L 129.417841 280.101679 
" clip-path="url(#p5d02a23ad3)" style="fill: none; stroke: #000000"/>
    <path d="M 186.232386 299.124677 
L 186.232386 291.599096 
" clip-path="url(#p5d02a23ad3)" style="fill: none; stroke: #000000"/>
    <path d="M 243.046932 300.274419 
L 243.046932 296.511628 
" clip-path="url(#p5d02a23ad3)" style="fill: none; stroke: #000000"/>
    <path clip-path="url(#p5d02a23ad3)" style="fill: none; stroke: #000000"/>
    <path clip-path="url(#p5d02a23ad3)" style="fill: none; stroke: #000000"/>
    <path clip-path="url(#p5d02a23ad3)" style="fill: none; stroke: #000000"/>
   </g>
   <g id="LineCollection_2">
    <path clip-path="url(#p5d02a23ad3)" style="fill: none; stroke: #ff6666"/>
    <path clip-path="url(#p5d02a23ad3)" style="fill: none; stroke: #ff6666"/>
    <path d="M 74.970568 270.694703 
L 74.970568 248.954134 
" clip-path="url(#p5d02a23ad3)" style="fill: none; stroke: #ff6666"/>
    <path clip-path="url(#p5d02a23ad3)" style="fill: none; stroke: #ff6666"/>
    <path d="M 77.337841 261.392248 
L 77.337841 209.549354 
" clip-path="url(#p5d02a23ad3)" style="fill: none; stroke: #ff6666"/>
    <path clip-path="url(#p5d02a23ad3)" style="fill: none; stroke: #ff6666"/>
    <path d="M 79.705114 255.329974 
L 79.705114 229.199483 
" clip-path="url(#p5d02a23ad3)" style="fill: none; stroke: #ff6666"/>
    <path d="M 82.072386 270.799225 
L 82.072386 229.199483 
" clip-path="url(#p5d02a23ad3)" style="fill: none; stroke: #ff6666"/>
    <path d="M 86.806932 271.948966 
L 86.806932 239.338113 
" clip-path="url(#p5d02a23ad3)" style="fill: none; stroke: #ff6666"/>
    <path d="M 91.541477 276.443411 
L 91.541477 245.295865 
" clip-path="url(#p5d02a23ad3)" style="fill: none; stroke: #ff6666"/>
    <path d="M 101.010568 285.223256 
L 101.010568 255.329974 
" clip-path="url(#p5d02a23ad3)" style="fill: none; stroke: #ff6666"/>
    <path d="M 129.417841 292.435271 
L 129.417841 270.694703 
" clip-path="url(#p5d02a23ad3)" style="fill: none; stroke: #ff6666"/>
    <path d="M 186.232386 297.347804 
L 186.232386 286.059431 
" clip-path="url(#p5d02a23ad3)" style="fill: none; stroke: #ff6666"/>
    <path d="M 243.046932 300.90155 
L 243.046932 291.912661 
" clip-path="url(#p5d02a23ad3)" style="fill: none; stroke: #ff6666"/>
    <path d="M 299.861477 301.842248 
L 299.861477 296.61615 
" clip-path="url(#p5d02a23ad3)" style="fill: none; stroke: #ff6666"/>
    <path d="M 356.676023 302.887468 
L 356.676023 298.079457 
" clip-path="url(#p5d02a23ad3)" style="fill: none; stroke: #ff6666"/>
    <path d="M 413.490568 305.186951 
L 413.490568 299.542765 
" clip-path="url(#p5d02a23ad3)" style="fill: none; stroke: #ff6666"/>
   </g>
   <g id="LineCollection_3">
    <path clip-path="url(#p5d02a23ad3)" style="fill: none; stroke: #cc3333"/>
    <path clip-path="url(#p5d02a23ad3)" style="fill: none; stroke: #cc3333"/>
    <path d="M 74.970568 294.316667 
L 74.970568 183.105297 
" clip-path="url(#p5d02a23ad3)" style="fill: none; stroke: #cc3333"/>
    <path clip-path="url(#p5d02a23ad3)" style="fill: none; stroke: #cc3333"/>
    <path d="M 77.337841 252.821447 
L 77.337841 207.667958 
" clip-path="url(#p5d02a23ad3)" style="fill: none; stroke: #cc3333"/>
    <path clip-path="url(#p5d02a23ad3)" style="fill: none; stroke: #cc3333"/>
    <path d="M 79.705114 255.748062 
L 79.705114 184.045994 
" clip-path="url(#p5d02a23ad3)" style="fill: none; stroke: #cc3333"/>
    <path d="M 82.072386 255.748062 
L 82.072386 211.848837 
" clip-path="url(#p5d02a23ad3)" style="fill: none; stroke: #cc3333"/>
    <path d="M 86.806932 261.183204 
L 86.806932 203.696124 
" clip-path="url(#p5d02a23ad3)" style="fill: none; stroke: #cc3333"/>
    <path d="M 91.541477 267.559044 
L 91.541477 203.800646 
" clip-path="url(#p5d02a23ad3)" style="fill: none; stroke: #cc3333"/>
    <path d="M 101.010568 272.889664 
L 101.010568 228.781395 
" clip-path="url(#p5d02a23ad3)" style="fill: none; stroke: #cc3333"/>
    <path d="M 129.417841 285.954909 
L 129.417841 262.960077 
" clip-path="url(#p5d02a23ad3)" style="fill: none; stroke: #cc3333"/>
    <path d="M 186.232386 293.480491 
L 186.232386 281.355943 
" clip-path="url(#p5d02a23ad3)" style="fill: none; stroke: #cc3333"/>
    <path d="M 243.046932 296.302584 
L 243.046932 290.24031 
" clip-path="url(#p5d02a23ad3)" style="fill: none; stroke: #cc3333"/>
    <path d="M 299.861477 299.333721 
L 299.861477 294.943798 
" clip-path="url(#p5d02a23ad3)" style="fill: none; stroke: #cc3333"/>
    <path d="M 356.676023 303.410078 
L 356.676023 297.347804 
" clip-path="url(#p5d02a23ad3)" style="fill: none; stroke: #cc3333"/>
    <path d="M 413.490568 303.828165 
L 413.490568 299.647287 
" clip-path="url(#p5d02a23ad3)" style="fill: none; stroke: #cc3333"/>
   </g>
   <g id="line2d_14">
    <path d="M 72.603295 307.8 
L 72.780841 302.937299 
L 73.491023 259.906567 
L 74.023659 242.564732 
L 74.37875 236.102406 
L 74.733841 232.381949 
L 75.088932 230.599276 
L 75.266477 230.244454 
L 75.444023 230.167701 
L 75.621568 230.320277 
L 75.976659 231.153835 
L 76.509295 233.272751 
L 77.752114 239.734263 
L 79.350023 247.65777 
L 80.592841 252.635172 
L 81.835659 256.62592 
L 83.078477 259.835036 
L 84.321295 262.458584 
L 85.741659 264.937675 
L 87.339568 267.262085 
L 89.115023 269.453332 
L 91.245568 271.723924 
L 93.731205 274.050134 
L 96.749477 276.566443 
L 100.300386 279.223738 
L 104.206386 281.85694 
L 108.289932 284.339819 
L 112.551023 286.673978 
L 116.989659 288.857615 
L 121.783386 290.962777 
L 126.754659 292.899038 
L 132.081023 294.727178 
L 137.584932 296.380954 
L 143.443932 297.912177 
L 149.835568 299.349409 
L 156.759841 300.67165 
L 164.21675 301.865194 
L 172.383841 302.94438 
L 181.438659 303.913052 
L 191.55875 304.768875 
L 203.099205 305.517345 
L 216.592659 306.161548 
L 232.57175 306.693632 
L 252.279295 307.11833 
L 278.023386 307.437903 
L 314.775295 307.653244 
L 377.626386 307.768679 
L 427.694205 307.790849 
L 427.694205 307.790849 
" clip-path="url(#p5d02a23ad3)" style="fill: none; stroke: #000000; stroke-width: 2; stroke-linecap: square"/>
   </g>
   <g id="line2d_15">
    <path d="M 73.786932 293.794057 
L 74.970568 268.917829 
M 77.337841 261.49677 
M 79.705114 263.900775 
L 82.072386 270.485659 
L 86.806932 271.739922 
L 91.541477 278.638372 
L 101.010568 278.742894 
L 129.417841 289.613178 
L 186.232386 295.361886 
L 243.046932 298.393023 
L 299.861477 300.483463 
L 356.676023 303.723643 
L 413.490568 302.887468 
" clip-path="url(#p5d02a23ad3)" style="fill: none; stroke-dasharray: 3.7,1.6; stroke-dashoffset: 0; stroke: #000000"/>
    <defs>
     <path id="m93a956b2f9" d="M -3 3 
L 3 3 
L 3 -3 
L -3 -3 
z
" style="stroke: #000000; stroke-linejoin: miter"/>
    </defs>
    <g clip-path="url(#p5d02a23ad3)">
     <use xlink:href="#m93a956b2f9" x="73.786932" y="293.794057" style="stroke: #000000; stroke-linejoin: miter"/>
     <use xlink:href="#m93a956b2f9" x="74.970568" y="268.917829" style="stroke: #000000; stroke-linejoin: miter"/>
     <use xlink:href="#m93a956b2f9" x="77.337841" y="261.49677" style="stroke: #000000; stroke-linejoin: miter"/>
     <use xlink:href="#m93a956b2f9" x="79.705114" y="263.900775" style="stroke: #000000; stroke-linejoin: miter"/>
     <use xlink:href="#m93a956b2f9" x="82.072386" y="270.485659" style="stroke: #000000; stroke-linejoin: miter"/>
     <use xlink:href="#m93a956b2f9" x="86.806932" y="271.739922" style="stroke: #000000; stroke-linejoin: miter"/>
     <use xlink:href="#m93a956b2f9" x="91.541477" y="278.638372" style="stroke: #000000; stroke-linejoin: miter"/>
     <use xlink:href="#m93a956b2f9" x="101.010568" y="278.742894" style="stroke: #000000; stroke-linejoin: miter"/>
     <use xlink:href="#m93a956b2f9" x="129.417841" y="289.613178" style="stroke: #000000; stroke-linejoin: miter"/>
     <use xlink:href="#m93a956b2f9" x="186.232386" y="295.361886" style="stroke: #000000; stroke-linejoin: miter"/>
     <use xlink:href="#m93a956b2f9" x="243.046932" y="298.393023" style="stroke: #000000; stroke-linejoin: miter"/>
     <use xlink:href="#m93a956b2f9" x="299.861477" y="300.483463" style="stroke: #000000; stroke-linejoin: miter"/>
     <use xlink:href="#m93a956b2f9" x="356.676023" y="303.723643" style="stroke: #000000; stroke-linejoin: miter"/>
     <use xlink:href="#m93a956b2f9" x="413.490568" y="302.887468" style="stroke: #000000; stroke-linejoin: miter"/>
    </g>
   </g>
   <g id="line2d_16">
    <path d="M 72.603295 307.8 
L 72.780841 301.023675 
L 73.668568 214.138631 
L 74.201205 188.410162 
L 74.556295 179.040795 
L 74.911386 173.844214 
L 75.266477 171.585668 
L 75.444023 171.266416 
L 75.621568 171.365159 
L 75.976659 172.529307 
L 76.509295 175.876805 
L 77.574568 184.983407 
L 79.172477 198.566737 
L 80.415295 207.220251 
L 81.658114 214.155744 
L 82.900932 219.706353 
L 84.14375 224.214538 
L 85.386568 227.958175 
L 86.806932 231.564355 
L 88.404841 235.020774 
L 90.180295 238.353505 
L 92.310841 241.883256 
L 94.796477 245.572787 
L 97.81475 249.634564 
L 101.188114 253.782079 
L 104.739023 257.793844 
L 108.467477 261.672042 
L 112.373477 265.407499 
L 116.279477 268.838692 
L 120.363023 272.128681 
L 124.446568 275.140663 
L 128.707659 278.012729 
L 133.146295 280.736205 
L 137.762477 283.304795 
L 142.556205 285.714471 
L 147.527477 287.963326 
L 152.676295 290.051395 
L 158.180205 292.041016 
L 164.039205 293.914522 
L 170.07575 295.612131 
L 176.644932 297.224578 
L 183.569205 298.69382 
L 191.026114 300.048644 
L 199.193205 301.302348 
L 208.070477 302.436201 
L 217.835477 303.456297 
L 228.66575 304.362414 
L 240.916386 305.161715 
L 255.120023 305.858813 
L 271.809295 306.446391 
L 291.871932 306.922451 
L 317.260932 307.292917 
L 351.70475 307.559044 
L 404.613295 307.723164 
L 427.694205 307.753331 
L 427.694205 307.753331 
" clip-path="url(#p5d02a23ad3)" style="fill: none; stroke: #ff6666; stroke-width: 2; stroke-linecap: square"/>
   </g>
   <g id="line2d_17">
    <path d="M 73.786932 281.146899 
L 74.970568 259.824418 
M 77.337841 235.470801 
M 79.705114 242.264728 
L 82.072386 249.999354 
L 86.806932 255.64354 
L 91.541477 260.869638 
L 101.010568 270.276615 
L 129.417841 281.564987 
L 186.232386 291.703618 
L 243.046932 296.407106 
L 299.861477 299.229199 
L 356.676023 300.483463 
L 413.490568 302.364858 
" clip-path="url(#p5d02a23ad3)" style="fill: none; stroke-dasharray: 3.7,1.6; stroke-dashoffset: 0; stroke: #ff6666"/>
    <defs>
     <path id="mfa92cda882" d="M -3 3 
L 3 3 
L 3 -3 
L -3 -3 
z
" style="stroke: #000000; stroke-linejoin: miter"/>
    </defs>
    <g clip-path="url(#p5d02a23ad3)">
     <use xlink:href="#mfa92cda882" x="73.786932" y="281.146899" style="fill: #ff6666; stroke: #000000; stroke-linejoin: miter"/>
     <use xlink:href="#mfa92cda882" x="74.970568" y="259.824418" style="fill: #ff6666; stroke: #000000; stroke-linejoin: miter"/>
     <use xlink:href="#mfa92cda882" x="77.337841" y="235.470801" style="fill: #ff6666; stroke: #000000; stroke-linejoin: miter"/>
     <use xlink:href="#mfa92cda882" x="79.705114" y="242.264728" style="fill: #ff6666; stroke: #000000; stroke-linejoin: miter"/>
     <use xlink:href="#mfa92cda882" x="82.072386" y="249.999354" style="fill: #ff6666; stroke: #000000; stroke-linejoin: miter"/>
     <use xlink:href="#mfa92cda882" x="86.806932" y="255.64354" style="fill: #ff6666; stroke: #000000; stroke-linejoin: miter"/>
     <use xlink:href="#mfa92cda882" x="91.541477" y="260.869638" style="fill: #ff6666; stroke: #000000; stroke-linejoin: miter"/>
     <use xlink:href="#mfa92cda882" x="101.010568" y="270.276615" style="fill: #ff6666; stroke: #000000; stroke-linejoin: miter"/>
     <use xlink:href="#mfa92cda882" x="129.417841" y="281.564987" style="fill: #ff6666; stroke: #000000; stroke-linejoin: miter"/>
     <use xlink:href="#mfa92cda882" x="186.232386" y="291.703618" style="fill: #ff6666; stroke: #000000; stroke-linejoin: miter"/>
     <use xlink:href="#mfa92cda882" x="243.046932" y="296.407106" style="fill: #ff6666; stroke: #000000; stroke-linejoin: miter"/>
     <use xlink:href="#mfa92cda882" x="299.861477" y="299.229199" style="fill: #ff6666; stroke: #000000; stroke-linejoin: miter"/>
     <use xlink:href="#mfa92cda882" x="356.676023" y="300.483463" style="fill: #ff6666; stroke: #000000; stroke-linejoin: miter"/>
     <use xlink:href="#mfa92cda882" x="413.490568" y="302.364858" style="fill: #ff6666; stroke: #000000; stroke-linejoin: miter"/>
    </g>
   </g>
   <g id="line2d_18">
    <path d="M 72.603295 307.8 
L 72.780841 299.073119 
L 74.023659 107.212047 
L 74.556295 74.01764 
L 74.911386 62.749419 
L 75.266477 57.260307 
L 75.444023 56.115645 
L 75.621568 55.8 
L 75.799114 56.167914 
L 76.154205 58.478216 
L 76.686841 64.530063 
L 77.752114 80.408706 
L 79.350023 103.655216 
L 80.592841 118.305931 
L 81.658114 128.454632 
L 82.723386 136.7755 
L 83.966205 144.695063 
L 85.209023 151.182744 
L 86.629386 157.346351 
L 88.227295 163.176196 
L 90.00275 168.737976 
L 91.95575 174.127936 
L 94.263841 179.861795 
L 97.104568 186.30366 
L 100.300386 192.997279 
L 103.851295 199.919993 
L 107.57975 206.705419 
L 111.48575 213.343647 
L 115.39175 219.541586 
L 119.29775 225.331415 
L 123.381295 230.97824 
L 127.464841 236.238261 
L 131.548386 241.138083 
L 135.631932 245.702403 
L 139.893023 250.132312 
L 144.154114 254.246202 
L 148.59275 258.219748 
L 153.031386 261.898469 
L 157.647568 265.435086 
L 162.441295 268.819609 
L 167.235023 271.933744 
L 172.206295 274.900703 
L 177.355114 277.715146 
L 182.681477 280.373531 
L 188.185386 282.873998 
L 194.044386 285.285786 
L 200.080932 287.52683 
L 206.472568 289.657046 
L 213.04175 291.613423 
L 220.143568 293.491825 
L 227.600477 295.230011 
L 235.590023 296.85873 
L 244.112205 298.364113 
L 253.167023 299.737311 
L 263.109568 301.01608 
L 273.939841 302.179368 
L 285.835386 303.22855 
L 298.97375 304.161287 
L 313.887568 304.991665 
L 330.931932 305.711287 
L 350.817023 306.321299 
L 374.785659 306.824834 
L 404.613295 307.219128 
L 427.694205 307.410977 
L 427.694205 307.410977 
" clip-path="url(#p5d02a23ad3)" style="fill: none; stroke: #cc3333; stroke-width: 2; stroke-linecap: square"/>
   </g>
   <g id="line2d_19">
    <path d="M 73.786932 276.338889 
L 74.970568 238.710982 
M 77.337841 230.244703 
M 79.705114 219.897028 
L 82.072386 233.798449 
L 86.806932 232.439664 
L 91.541477 235.679845 
L 101.010568 250.83553 
L 129.417841 274.457493 
L 186.232386 287.418217 
L 243.046932 293.271447 
L 299.861477 297.13876 
L 356.676023 300.378941 
L 413.490568 301.737726 
" clip-path="url(#p5d02a23ad3)" style="fill: none; stroke-dasharray: 3.7,1.6; stroke-dashoffset: 0; stroke: #cc3333"/>
    <defs>
     <path id="ma3b1bd479f" d="M -3 3 
L 3 3 
L 3 -3 
L -3 -3 
z
" style="stroke: #000000; stroke-linejoin: miter"/>
    </defs>
    <g clip-path="url(#p5d02a23ad3)">
     <use xlink:href="#ma3b1bd479f" x="73.786932" y="276.338889" style="fill: #cc3333; stroke: #000000; stroke-linejoin: miter"/>
     <use xlink:href="#ma3b1bd479f" x="74.970568" y="238.710982" style="fill: #cc3333; stroke: #000000; stroke-linejoin: miter"/>
     <use xlink:href="#ma3b1bd479f" x="77.337841" y="230.244703" style="fill: #cc3333; stroke: #000000; stroke-linejoin: miter"/>
     <use xlink:href="#ma3b1bd479f" x="79.705114" y="219.897028" style="fill: #cc3333; stroke: #000000; stroke-linejoin: miter"/>
     <use xlink:href="#ma3b1bd479f" x="82.072386" y="233.798449" style="fill: #cc3333; stroke: #000000; stroke-linejoin: miter"/>
     <use xlink:href="#ma3b1bd479f" x="86.806932" y="232.439664" style="fill: #cc3333; stroke: #000000; stroke-linejoin: miter"/>
     <use xlink:href="#ma3b1bd479f" x="91.541477" y="235.679845" style="fill: #cc3333; stroke: #000000; stroke-linejoin: miter"/>
     <use xlink:href="#ma3b1bd479f" x="101.010568" y="250.83553" style="fill: #cc3333; stroke: #000000; stroke-linejoin: miter"/>
     <use xlink:href="#ma3b1bd479f" x="129.417841" y="274.457493" style="fill: #cc3333; stroke: #000000; stroke-linejoin: miter"/>
     <use xlink:href="#ma3b1bd479f" x="186.232386" y="287.418217" style="fill: #cc3333; stroke: #000000; stroke-linejoin: miter"/>
     <use xlink:href="#ma3b1bd479f" x="243.046932" y="293.271447" style="fill: #cc3333; stroke: #000000; stroke-linejoin: miter"/>
     <use xlink:href="#ma3b1bd479f" x="299.861477" y="297.13876" style="fill: #cc3333; stroke: #000000; stroke-linejoin: miter"/>
     <use xlink:href="#ma3b1bd479f" x="356.676023" y="300.378941" style="fill: #cc3333; stroke: #000000; stroke-linejoin: miter"/>
     <use xlink:href="#ma3b1bd479f" x="413.490568" y="301.737726" style="fill: #cc3333; stroke: #000000; stroke-linejoin: miter"/>
    </g>
   </g>
   <g id="patch_3">
    <path d="M 54.84875 320.4 
L 54.84875 43.2 
" style="fill: none; stroke: #000000; stroke-width: 0.8; stroke-linejoin: miter; stroke-linecap: square"/>
   </g>
   <g id="patch_4">
    <path d="M 445.44875 320.4 
L 445.44875 43.2 
" style="fill: none; stroke: #000000; stroke-width: 0.8; stroke-linejoin: miter; stroke-linecap: square"/>
   </g>
   <g id="patch_5">
    <path d="M 54.84875 320.4 
L 445.44875 320.4 
" style="fill: none; stroke: #000000; stroke-width: 0.8; stroke-linejoin: miter; stroke-linecap: square"/>
   </g>
   <g id="patch_6">
    <path d="M 54.84875 43.2 
L 445.44875 43.2 
" style="fill: none; stroke: #000000; stroke-width: 0.8; stroke-linejoin: miter; stroke-linecap: square"/>
   </g>
   <g id="legend_1">
    <g id="patch_7">
     <path d="M 284.36125 140.9375 
L 438.44875 140.9375 
Q 440.44875 140.9375 440.44875 138.9375 
L 440.44875 50.2 
Q 440.44875 48.2 438.44875 48.2 
L 284.36125 48.2 
Q 282.36125 48.2 282.36125 50.2 
L 282.36125 138.9375 
Q 282.36125 140.9375 284.36125 140.9375 
z
" style="fill: #ffffff; opacity: 0.8; stroke: #cccccc; stroke-linejoin: miter"/>
    </g>
    <g id="line2d_20">
     <path d="M 286.36125 56.298437 
L 306.36125 56.298437 
" style="fill: none; stroke: #000000; stroke-width: 2; stroke-linecap: square"/>
    </g>
    <g id="line2d_21"/>
    <g id="text_16">
     <!-- CYP3A5_1_1 -->
     <g transform="translate(314.36125 59.798437) scale(0.1 -0.1)">
      <defs>
       <path id="DejaVuSans-43" d="M 4122 4306 
L 4122 3641 
Q 3803 3938 3442 4084 
Q 3081 4231 2675 4231 
Q 1875 4231 1450 3742 
Q 1025 3253 1025 2328 
Q 1025 1406 1450 917 
Q 1875 428 2675 428 
Q 3081 428 3442 575 
Q 3803 722 4122 1019 
L 4122 359 
Q 3791 134 3420 21 
Q 3050 -91 2638 -91 
Q 1578 -91 968 557 
Q 359 1206 359 2328 
Q 359 3453 968 4101 
Q 1578 4750 2638 4750 
Q 3056 4750 3426 4639 
Q 3797 4528 4122 4306 
z
" transform="scale(0.015625)"/>
       <path id="DejaVuSans-59" d="M -13 4666 
L 666 4666 
L 1959 2747 
L 3244 4666 
L 3922 4666 
L 2272 2222 
L 2272 0 
L 1638 0 
L 1638 2222 
L -13 4666 
z
" transform="scale(0.015625)"/>
       <path id="DejaVuSans-50" d="M 1259 4147 
L 1259 2394 
L 2053 2394 
Q 2494 2394 2734 2622 
Q 2975 2850 2975 3272 
Q 2975 3691 2734 3919 
Q 2494 4147 2053 4147 
L 1259 4147 
z
M 628 4666 
L 2053 4666 
Q 2838 4666 3239 4311 
Q 3641 3956 3641 3272 
Q 3641 2581 3239 2228 
Q 2838 1875 2053 1875 
L 1259 1875 
L 1259 0 
L 628 0 
L 628 4666 
z
" transform="scale(0.015625)"/>
       <path id="DejaVuSans-41" d="M 2188 4044 
L 1331 1722 
L 3047 1722 
L 2188 4044 
z
M 1831 4666 
L 2547 4666 
L 4325 0 
L 3669 0 
L 3244 1197 
L 1141 1197 
L 716 0 
L 50 0 
L 1831 4666 
z
" transform="scale(0.015625)"/>
       <path id="DejaVuSans-5f" d="M 3263 -1063 
L 3263 -1509 
L -63 -1509 
L -63 -1063 
L 3263 -1063 
z
" transform="scale(0.015625)"/>
      </defs>
      <use xlink:href="#DejaVuSans-43"/>
      <use xlink:href="#DejaVuSans-59" transform="translate(68.074219 0)"/>
      <use xlink:href="#DejaVuSans-50" transform="translate(129.158203 0)"/>
      <use xlink:href="#DejaVuSans-33" transform="translate(189.460938 0)"/>
      <use xlink:href="#DejaVuSans-41" transform="translate(253.083984 0)"/>
      <use xlink:href="#DejaVuSans-35" transform="translate(321.492188 0)"/>
      <use xlink:href="#DejaVuSans-5f" transform="translate(385.115234 0)"/>
      <use xlink:href="#DejaVuSans-31" transform="translate(435.115234 0)"/>
      <use xlink:href="#DejaVuSans-5f" transform="translate(498.738281 0)"/>
      <use xlink:href="#DejaVuSans-31" transform="translate(548.738281 0)"/>
     </g>
    </g>
    <g id="LineCollection_4">
     <path d="M 296.36125 76.254687 
L 296.36125 66.254687 
" style="fill: none; stroke: #000000"/>
    </g>
    <g id="line2d_22">
     <path d="M 286.36125 71.254687 
L 306.36125 71.254687 
" style="fill: none; stroke-dasharray: 3.7,1.6; stroke-dashoffset: 0; stroke: #000000"/>
    </g>
    <g id="line2d_23">
     <g>
      <use xlink:href="#m93a956b2f9" x="296.36125" y="71.254687" style="stroke: #000000; stroke-linejoin: miter"/>
     </g>
    </g>
    <g id="text_17">
     <!-- CYP3A5_1_1±SD (n=2) -->
     <g transform="translate(314.36125 74.754687) scale(0.1 -0.1)">
      <defs>
       <path id="DejaVuSans-b1" d="M 2944 4013 
L 2944 2803 
L 4684 2803 
L 4684 2272 
L 2944 2272 
L 2944 1063 
L 2419 1063 
L 2419 2272 
L 678 2272 
L 678 2803 
L 2419 2803 
L 2419 4013 
L 2944 4013 
z
M 678 531 
L 4684 531 
L 4684 0 
L 678 0 
L 678 531 
z
" transform="scale(0.015625)"/>
       <path id="DejaVuSans-53" d="M 3425 4513 
L 3425 3897 
Q 3066 4069 2747 4153 
Q 2428 4238 2131 4238 
Q 1616 4238 1336 4038 
Q 1056 3838 1056 3469 
Q 1056 3159 1242 3001 
Q 1428 2844 1947 2747 
L 2328 2669 
Q 3034 2534 3370 2195 
Q 3706 1856 3706 1288 
Q 3706 609 3251 259 
Q 2797 -91 1919 -91 
Q 1588 -91 1214 -16 
Q 841 59 441 206 
L 441 856 
Q 825 641 1194 531 
Q 1563 422 1919 422 
Q 2459 422 2753 634 
Q 3047 847 3047 1241 
Q 3047 1584 2836 1778 
Q 2625 1972 2144 2069 
L 1759 2144 
Q 1053 2284 737 2584 
Q 422 2884 422 3419 
Q 422 4038 858 4394 
Q 1294 4750 2059 4750 
Q 2388 4750 2728 4690 
Q 3069 4631 3425 4513 
z
" transform="scale(0.015625)"/>
       <path id="DejaVuSans-44" d="M 1259 4147 
L 1259 519 
L 2022 519 
Q 2988 519 3436 956 
Q 3884 1394 3884 2338 
Q 3884 3275 3436 3711 
Q 2988 4147 2022 4147 
L 1259 4147 
z
M 628 4666 
L 1925 4666 
Q 3281 4666 3915 4102 
Q 4550 3538 4550 2338 
Q 4550 1131 3912 565 
Q 3275 0 1925 0 
L 628 0 
L 628 4666 
z
" transform="scale(0.015625)"/>
       <path id="DejaVuSans-20" transform="scale(0.015625)"/>
       <path id="DejaVuSans-28" d="M 1984 4856 
Q 1566 4138 1362 3434 
Q 1159 2731 1159 2009 
Q 1159 1288 1364 580 
Q 1569 -128 1984 -844 
L 1484 -844 
Q 1016 -109 783 600 
Q 550 1309 550 2009 
Q 550 2706 781 3412 
Q 1013 4119 1484 4856 
L 1984 4856 
z
" transform="scale(0.015625)"/>
       <path id="DejaVuSans-6e" d="M 3513 2113 
L 3513 0 
L 2938 0 
L 2938 2094 
Q 2938 2591 2744 2837 
Q 2550 3084 2163 3084 
Q 1697 3084 1428 2787 
Q 1159 2491 1159 1978 
L 1159 0 
L 581 0 
L 581 3500 
L 1159 3500 
L 1159 2956 
Q 1366 3272 1645 3428 
Q 1925 3584 2291 3584 
Q 2894 3584 3203 3211 
Q 3513 2838 3513 2113 
z
" transform="scale(0.015625)"/>
       <path id="DejaVuSans-3d" d="M 678 2906 
L 4684 2906 
L 4684 2381 
L 678 2381 
L 678 2906 
z
M 678 1631 
L 4684 1631 
L 4684 1100 
L 678 1100 
L 678 1631 
z
" transform="scale(0.015625)"/>
       <path id="DejaVuSans-29" d="M 513 4856 
L 1013 4856 
Q 1481 4119 1714 3412 
Q 1947 2706 1947 2009 
Q 1947 1309 1714 600 
Q 1481 -109 1013 -844 
L 513 -844 
Q 928 -128 1133 580 
Q 1338 1288 1338 2009 
Q 1338 2731 1133 3434 
Q 928 4138 513 4856 
z
" transform="scale(0.015625)"/>
      </defs>
      <use xlink:href="#DejaVuSans-43"/>
      <use xlink:href="#DejaVuSans-59" transform="translate(68.074219 0)"/>
      <use xlink:href="#DejaVuSans-50" transform="translate(129.158203 0)"/>
      <use xlink:href="#DejaVuSans-33" transform="translate(189.460938 0)"/>
      <use xlink:href="#DejaVuSans-41" transform="translate(253.083984 0)"/>
      <use xlink:href="#DejaVuSans-35" transform="translate(321.492188 0)"/>
      <use xlink:href="#DejaVuSans-5f" transform="translate(385.115234 0)"/>
      <use xlink:href="#DejaVuSans-31" transform="translate(435.115234 0)"/>
      <use xlink:href="#DejaVuSans-5f" transform="translate(498.738281 0)"/>
      <use xlink:href="#DejaVuSans-31" transform="translate(548.738281 0)"/>
      <use xlink:href="#DejaVuSans-b1" transform="translate(612.361328 0)"/>
      <use xlink:href="#DejaVuSans-53" transform="translate(696.150391 0)"/>
      <use xlink:href="#DejaVuSans-44" transform="translate(759.626953 0)"/>
      <use xlink:href="#DejaVuSans-20" transform="translate(836.628906 0)"/>
      <use xlink:href="#DejaVuSans-28" transform="translate(868.416016 0)"/>
      <use xlink:href="#DejaVuSans-6e" transform="translate(907.429688 0)"/>
      <use xlink:href="#DejaVuSans-3d" transform="translate(970.808594 0)"/>
      <use xlink:href="#DejaVuSans-32" transform="translate(1054.597656 0)"/>
      <use xlink:href="#DejaVuSans-29" transform="translate(1118.220703 0)"/>
     </g>
    </g>
    <g id="line2d_24">
     <path d="M 286.36125 86.210938 
L 306.36125 86.210938 
" style="fill: none; stroke: #ff6666; stroke-width: 2; stroke-linecap: square"/>
    </g>
    <g id="line2d_25"/>
    <g id="text_18">
     <!-- CYP3A5_1_3 -->
     <g transform="translate(314.36125 89.710938) scale(0.1 -0.1)">
      <use xlink:href="#DejaVuSans-43"/>
      <use xlink:href="#DejaVuSans-59" transform="translate(68.074219 0)"/>
      <use xlink:href="#DejaVuSans-50" transform="translate(129.158203 0)"/>
      <use xlink:href="#DejaVuSans-33" transform="translate(189.460938 0)"/>
      <use xlink:href="#DejaVuSans-41" transform="translate(253.083984 0)"/>
      <use xlink:href="#DejaVuSans-35" transform="translate(321.492188 0)"/>
      <use xlink:href="#DejaVuSans-5f" transform="translate(385.115234 0)"/>
      <use xlink:href="#DejaVuSans-31" transform="translate(435.115234 0)"/>
      <use xlink:href="#DejaVuSans-5f" transform="translate(498.738281 0)"/>
      <use xlink:href="#DejaVuSans-33" transform="translate(548.738281 0)"/>
     </g>
    </g>
    <g id="LineCollection_5">
     <path d="M 296.36125 106.167187 
L 296.36125 96.167187 
" style="fill: none; stroke: #ff6666"/>
    </g>
    <g id="line2d_26">
     <path d="M 286.36125 101.167187 
L 306.36125 101.167187 
" style="fill: none; stroke-dasharray: 3.7,1.6; stroke-dashoffset: 0; stroke: #ff6666"/>
    </g>
    <g id="line2d_27">
     <g>
      <use xlink:href="#mfa92cda882" x="296.36125" y="101.167187" style="fill: #ff6666; stroke: #000000; stroke-linejoin: miter"/>
     </g>
    </g>
    <g id="text_19">
     <!-- CYP3A5_1_3±SD (n=14) -->
     <g transform="translate(314.36125 104.667187) scale(0.1 -0.1)">
      <use xlink:href="#DejaVuSans-43"/>
      <use xlink:href="#DejaVuSans-59" transform="translate(68.074219 0)"/>
      <use xlink:href="#DejaVuSans-50" transform="translate(129.158203 0)"/>
      <use xlink:href="#DejaVuSans-33" transform="translate(189.460938 0)"/>
      <use xlink:href="#DejaVuSans-41" transform="translate(253.083984 0)"/>
      <use xlink:href="#DejaVuSans-35" transform="translate(321.492188 0)"/>
      <use xlink:href="#DejaVuSans-5f" transform="translate(385.115234 0)"/>
      <use xlink:href="#DejaVuSans-31" transform="translate(435.115234 0)"/>
      <use xlink:href="#DejaVuSans-5f" transform="translate(498.738281 0)"/>
      <use xlink:href="#DejaVuSans-33" transform="translate(548.738281 0)"/>
      <use xlink:href="#DejaVuSans-b1" transform="translate(612.361328 0)"/>
      <use xlink:href="#DejaVuSans-53" transform="translate(696.150391 0)"/>
      <use xlink:href="#DejaVuSans-44" transform="translate(759.626953 0)"/>
      <use xlink:href="#DejaVuSans-20" transform="translate(836.628906 0)"/>
      <use xlink:href="#DejaVuSans-28" transform="translate(868.416016 0)"/>
      <use xlink:href="#DejaVuSans-6e" transform="translate(907.429688 0)"/>
      <use xlink:href="#DejaVuSans-3d" transform="translate(970.808594 0)"/>
      <use xlink:href="#DejaVuSans-31" transform="translate(1054.597656 0)"/>
      <use xlink:href="#DejaVuSans-34" transform="translate(1118.220703 0)"/>
      <use xlink:href="#DejaVuSans-29" transform="translate(1181.84375 0)"/>
     </g>
    </g>
    <g id="line2d_28">
     <path d="M 286.36125 116.123437 
L 306.36125 116.123437 
" style="fill: none; stroke: #cc3333; stroke-width: 2; stroke-linecap: square"/>
    </g>
    <g id="line2d_29"/>
    <g id="text_20">
     <!-- CYP3A5_3_3 -->
     <g transform="translate(314.36125 119.623437) scale(0.1 -0.1)">
      <use xlink:href="#DejaVuSans-43"/>
      <use xlink:href="#DejaVuSans-59" transform="translate(68.074219 0)"/>
      <use xlink:href="#DejaVuSans-50" transform="translate(129.158203 0)"/>
      <use xlink:href="#DejaVuSans-33" transform="translate(189.460938 0)"/>
      <use xlink:href="#DejaVuSans-41" transform="translate(253.083984 0)"/>
      <use xlink:href="#DejaVuSans-35" transform="translate(321.492188 0)"/>
      <use xlink:href="#DejaVuSans-5f" transform="translate(385.115234 0)"/>
      <use xlink:href="#DejaVuSans-33" transform="translate(435.115234 0)"/>
      <use xlink:href="#DejaVuSans-5f" transform="translate(498.738281 0)"/>
      <use xlink:href="#DejaVuSans-33" transform="translate(548.738281 0)"/>
     </g>
    </g>
    <g id="LineCollection_6">
     <path d="M 296.36125 136.079687 
L 296.36125 126.079687 
" style="fill: none; stroke: #cc3333"/>
    </g>
    <g id="line2d_30">
     <path d="M 286.36125 131.079687 
L 306.36125 131.079687 
" style="fill: none; stroke-dasharray: 3.7,1.6; stroke-dashoffset: 0; stroke: #cc3333"/>
    </g>
    <g id="line2d_31">
     <g>
      <use xlink:href="#ma3b1bd479f" x="296.36125" y="131.079687" style="fill: #cc3333; stroke: #000000; stroke-linejoin: miter"/>
     </g>
    </g>
    <g id="text_21">
     <!-- CYP3A5_3_3±SD (n=15) -->
     <g transform="translate(314.36125 134.579687) scale(0.1 -0.1)">
      <use xlink:href="#DejaVuSans-43"/>
      <use xlink:href="#DejaVuSans-59" transform="translate(68.074219 0)"/>
      <use xlink:href="#DejaVuSans-50" transform="translate(129.158203 0)"/>
      <use xlink:href="#DejaVuSans-33" transform="translate(189.460938 0)"/>
      <use xlink:href="#DejaVuSans-41" transform="translate(253.083984 0)"/>
      <use xlink:href="#DejaVuSans-35" transform="translate(321.492188 0)"/>
      <use xlink:href="#DejaVuSans-5f" transform="translate(385.115234 0)"/>
      <use xlink:href="#DejaVuSans-33" transform="translate(435.115234 0)"/>
      <use xlink:href="#DejaVuSans-5f" transform="translate(498.738281 0)"/>
      <use xlink:href="#DejaVuSans-33" transform="translate(548.738281 0)"/>
      <use xlink:href="#DejaVuSans-b1" transform="translate(612.361328 0)"/>
      <use xlink:href="#DejaVuSans-53" transform="translate(696.150391 0)"/>
      <use xlink:href="#DejaVuSans-44" transform="translate(759.626953 0)"/>
      <use xlink:href="#DejaVuSans-20" transform="translate(836.628906 0)"/>
      <use xlink:href="#DejaVuSans-28" transform="translate(868.416016 0)"/>
      <use xlink:href="#DejaVuSans-6e" transform="translate(907.429688 0)"/>
      <use xlink:href="#DejaVuSans-3d" transform="translate(970.808594 0)"/>
      <use xlink:href="#DejaVuSans-31" transform="translate(1054.597656 0)"/>
      <use xlink:href="#DejaVuSans-35" transform="translate(1118.220703 0)"/>
      <use xlink:href="#DejaVuSans-29" transform="translate(1181.84375 0)"/>
     </g>
    </g>
   </g>
  </g>
  <g id="text_22">
   <!-- Zhang2017 -->
   <g transform="translate(164.815547 26.196094) scale(0.25 -0.25)">
    <defs>
     <path id="DejaVuSans-Bold-5a" d="M 359 4666 
L 4281 4666 
L 4281 3938 
L 1778 909 
L 4353 909 
L 4353 0 
L 288 0 
L 288 728 
L 2791 3756 
L 359 3756 
L 359 4666 
z
" transform="scale(0.015625)"/>
     <path id="DejaVuSans-Bold-67" d="M 2919 594 
Q 2688 288 2409 144 
Q 2131 0 1766 0 
Q 1125 0 706 504 
Q 288 1009 288 1791 
Q 288 2575 706 3076 
Q 1125 3578 1766 3578 
Q 2131 3578 2409 3434 
Q 2688 3291 2919 2981 
L 2919 3500 
L 4044 3500 
L 4044 353 
Q 4044 -491 3511 -936 
Q 2978 -1381 1966 -1381 
Q 1638 -1381 1331 -1331 
Q 1025 -1281 716 -1178 
L 716 -306 
Q 1009 -475 1290 -558 
Q 1572 -641 1856 -641 
Q 2406 -641 2662 -400 
Q 2919 -159 2919 353 
L 2919 594 
z
M 2181 2772 
Q 1834 2772 1640 2515 
Q 1447 2259 1447 1791 
Q 1447 1309 1634 1061 
Q 1822 813 2181 813 
Q 2531 813 2725 1069 
Q 2919 1325 2919 1791 
Q 2919 2259 2725 2515 
Q 2531 2772 2181 2772 
z
" transform="scale(0.015625)"/>
     <path id="DejaVuSans-Bold-32" d="M 1844 884 
L 3897 884 
L 3897 0 
L 506 0 
L 506 884 
L 2209 2388 
Q 2438 2594 2547 2791 
Q 2656 2988 2656 3200 
Q 2656 3528 2436 3728 
Q 2216 3928 1850 3928 
Q 1569 3928 1234 3808 
Q 900 3688 519 3450 
L 519 4475 
Q 925 4609 1322 4679 
Q 1719 4750 2100 4750 
Q 2938 4750 3402 4381 
Q 3866 4013 3866 3353 
Q 3866 2972 3669 2642 
Q 3472 2313 2841 1759 
L 1844 884 
z
" transform="scale(0.015625)"/>
     <path id="DejaVuSans-Bold-30" d="M 2944 2338 
Q 2944 3213 2780 3570 
Q 2616 3928 2228 3928 
Q 1841 3928 1675 3570 
Q 1509 3213 1509 2338 
Q 1509 1453 1675 1090 
Q 1841 728 2228 728 
Q 2613 728 2778 1090 
Q 2944 1453 2944 2338 
z
M 4147 2328 
Q 4147 1169 3647 539 
Q 3147 -91 2228 -91 
Q 1306 -91 806 539 
Q 306 1169 306 2328 
Q 306 3491 806 4120 
Q 1306 4750 2228 4750 
Q 3147 4750 3647 4120 
Q 4147 3491 4147 2328 
z
" transform="scale(0.015625)"/>
     <path id="DejaVuSans-Bold-31" d="M 750 831 
L 1813 831 
L 1813 3847 
L 722 3622 
L 722 4441 
L 1806 4666 
L 2950 4666 
L 2950 831 
L 4013 831 
L 4013 0 
L 750 0 
L 750 831 
z
" transform="scale(0.015625)"/>
     <path id="DejaVuSans-Bold-37" d="M 428 4666 
L 3944 4666 
L 3944 3988 
L 2125 0 
L 953 0 
L 2675 3781 
L 428 3781 
L 428 4666 
z
" transform="scale(0.015625)"/>
    </defs>
    <use xlink:href="#DejaVuSans-Bold-5a"/>
    <use xlink:href="#DejaVuSans-Bold-68" transform="translate(72.509766 0)"/>
    <use xlink:href="#DejaVuSans-Bold-61" transform="translate(143.701172 0)"/>
    <use xlink:href="#DejaVuSans-Bold-6e" transform="translate(211.181641 0)"/>
    <use xlink:href="#DejaVuSans-Bold-67" transform="translate(282.373047 0)"/>
    <use xlink:href="#DejaVuSans-Bold-32" transform="translate(353.955078 0)"/>
    <use xlink:href="#DejaVuSans-Bold-30" transform="translate(423.535156 0)"/>
    <use xlink:href="#DejaVuSans-Bold-31" transform="translate(493.115234 0)"/>
    <use xlink:href="#DejaVuSans-Bold-37" transform="translate(562.695312 0)"/>
   </g>
  </g>
 </g>
 <defs>
  <clipPath id="p5d02a23ad3">
   <rect x="54.84875" y="43.2" width="390.6" height="277.2"/>
  </clipPath>
 </defs>
</svg>
