<?xml version="1.0" encoding="utf-8" standalone="no"?>
<!DOCTYPE svg PUBLIC "-//W3C//DTD SVG 1.1//EN"
  "http://www.w3.org/Graphics/SVG/1.1/DTD/svg11.dtd">
<svg xmlns:xlink="http://www.w3.org/1999/xlink" width="612.59775pt" height="683.737812pt" viewBox="0 0 612.59775 683.737812" xmlns="http://www.w3.org/2000/svg" version="1.1">
 <metadata>
  <rdf:RDF xmlns:dc="http://purl.org/dc/elements/1.1/" xmlns:cc="http://creativecommons.org/ns#" xmlns:rdf="http://www.w3.org/1999/02/22-rdf-syntax-ns#">
   <cc:Work>
    <dc:type rdf:resource="http://purl.org/dc/dcmitype/StillImage"/>
    <dc:date>2025-09-10T11:20:04.006951</dc:date>
    <dc:format>image/svg+xml</dc:format>
    <dc:creator>
     <cc:Agent>
      <dc:title>Matplotlib v3.10.6, https://matplotlib.org/</dc:title>
     </cc:Agent>
    </dc:creator>
   </cc:Work>
  </rdf:RDF>
 </metadata>
 <defs>
  <style type="text/css">*{stroke-linejoin: round; stroke-linecap: butt}</style>
 </defs>
 <g id="figure_1">
  <g id="patch_1">
   <path d="M 0 683.737812 
L 612.59775 683.737812 
L 612.59775 0 
L 0 0 
z
" style="fill: #ffffff"/>
  </g>
  <g id="axes_1">
   <g id="patch_2">
    <path d="M 54.84875 320.243478 
L 445.44875 320.243478 
L 445.44875 79.2 
L 54.84875 79.2 
z
" style="fill: #ffffff"/>
   </g>
   <g id="matplotlib.axis_1">
    <g id="xtick_1">
     <g id="line2d_1">
      <defs>
       <path id="m818da6b7a5" d="M 0 0 
L 0 3.5 
" style="stroke: #000000; stroke-width: 0.8"/>
      </defs>
      <g>
       <use xlink:href="#m818da6b7a5" x="72.603295" y="320.243478" style="stroke: #000000; stroke-width: 0.8"/>
      </g>
     </g>
     <g id="text_1">
      <!-- 0 -->
      <g transform="translate(67.83142 338.641135) scale(0.15 -0.15)">
       <defs>
        <path id="DejaVuSans-30" d="M 2034 4250 
Q 1547 4250 1301 3770 
Q 1056 3291 1056 2328 
Q 1056 1369 1301 889 
Q 1547 409 2034 409 
Q 2525 409 2770 889 
Q 3016 1369 3016 2328 
Q 3016 3291 2770 3770 
Q 2525 4250 2034 4250 
z
M 2034 4750 
Q 2819 4750 3233 4129 
Q 3647 3509 3647 2328 
Q 3647 1150 3233 529 
Q 2819 -91 2034 -91 
Q 1250 -91 836 529 
Q 422 1150 422 2328 
Q 422 3509 836 4129 
Q 1250 4750 2034 4750 
z
" transform="scale(0.015625)"/>
       </defs>
       <use xlink:href="#DejaVuSans-30"/>
      </g>
     </g>
    </g>
    <g id="xtick_2">
     <g id="line2d_2">
      <g>
       <use xlink:href="#m818da6b7a5" x="123.330568" y="320.243478" style="stroke: #000000; stroke-width: 0.8"/>
      </g>
     </g>
     <g id="text_2">
      <!-- 50 -->
      <g transform="translate(113.786818 338.641135) scale(0.15 -0.15)">
       <defs>
        <path id="DejaVuSans-35" d="M 691 4666 
L 3169 4666 
L 3169 4134 
L 1269 4134 
L 1269 2991 
Q 1406 3038 1543 3061 
Q 1681 3084 1819 3084 
Q 2600 3084 3056 2656 
Q 3513 2228 3513 1497 
Q 3513 744 3044 326 
Q 2575 -91 1722 -91 
Q 1428 -91 1123 -41 
Q 819 9 494 109 
L 494 744 
Q 775 591 1075 516 
Q 1375 441 1709 441 
Q 2250 441 2565 725 
Q 2881 1009 2881 1497 
Q 2881 1984 2565 2268 
Q 2250 2553 1709 2553 
Q 1456 2553 1204 2497 
Q 953 2441 691 2322 
L 691 4666 
z
" transform="scale(0.015625)"/>
       </defs>
       <use xlink:href="#DejaVuSans-35"/>
       <use xlink:href="#DejaVuSans-30" transform="translate(63.623047 0)"/>
      </g>
     </g>
    </g>
    <g id="xtick_3">
     <g id="line2d_3">
      <g>
       <use xlink:href="#m818da6b7a5" x="174.057841" y="320.243478" style="stroke: #000000; stroke-width: 0.8"/>
      </g>
     </g>
     <g id="text_3">
      <!-- 100 -->
      <g transform="translate(159.742216 338.641135) scale(0.15 -0.15)">
       <defs>
        <path id="DejaVuSans-31" d="M 794 531 
L 1825 531 
L 1825 4091 
L 703 3866 
L 703 4441 
L 1819 4666 
L 2450 4666 
L 2450 531 
L 3481 531 
L 3481 0 
L 794 0 
L 794 531 
z
" transform="scale(0.015625)"/>
       </defs>
       <use xlink:href="#DejaVuSans-31"/>
       <use xlink:href="#DejaVuSans-30" transform="translate(63.623047 0)"/>
       <use xlink:href="#DejaVuSans-30" transform="translate(127.246094 0)"/>
      </g>
     </g>
    </g>
    <g id="xtick_4">
     <g id="line2d_4">
      <g>
       <use xlink:href="#m818da6b7a5" x="224.785114" y="320.243478" style="stroke: #000000; stroke-width: 0.8"/>
      </g>
     </g>
     <g id="text_4">
      <!-- 150 -->
      <g transform="translate(210.469489 338.641135) scale(0.15 -0.15)">
       <use xlink:href="#DejaVuSans-31"/>
       <use xlink:href="#DejaVuSans-35" transform="translate(63.623047 0)"/>
       <use xlink:href="#DejaVuSans-30" transform="translate(127.246094 0)"/>
      </g>
     </g>
    </g>
    <g id="xtick_5">
     <g id="line2d_5">
      <g>
       <use xlink:href="#m818da6b7a5" x="275.512386" y="320.243478" style="stroke: #000000; stroke-width: 0.8"/>
      </g>
     </g>
     <g id="text_5">
      <!-- 200 -->
      <g transform="translate(261.196761 338.641135) scale(0.15 -0.15)">
       <defs>
        <path id="DejaVuSans-32" d="M 1228 531 
L 3431 531 
L 3431 0 
L 469 0 
L 469 531 
Q 828 903 1448 1529 
Q 2069 2156 2228 2338 
Q 2531 2678 2651 2914 
Q 2772 3150 2772 3378 
Q 2772 3750 2511 3984 
Q 2250 4219 1831 4219 
Q 1534 4219 1204 4116 
Q 875 4013 500 3803 
L 500 4441 
Q 881 4594 1212 4672 
Q 1544 4750 1819 4750 
Q 2544 4750 2975 4387 
Q 3406 4025 3406 3419 
Q 3406 3131 3298 2873 
Q 3191 2616 2906 2266 
Q 2828 2175 2409 1742 
Q 1991 1309 1228 531 
z
" transform="scale(0.015625)"/>
       </defs>
       <use xlink:href="#DejaVuSans-32"/>
       <use xlink:href="#DejaVuSans-30" transform="translate(63.623047 0)"/>
       <use xlink:href="#DejaVuSans-30" transform="translate(127.246094 0)"/>
      </g>
     </g>
    </g>
    <g id="xtick_6">
     <g id="line2d_6">
      <g>
       <use xlink:href="#m818da6b7a5" x="326.239659" y="320.243478" style="stroke: #000000; stroke-width: 0.8"/>
      </g>
     </g>
     <g id="text_6">
      <!-- 250 -->
      <g transform="translate(311.924034 338.641135) scale(0.15 -0.15)">
       <use xlink:href="#DejaVuSans-32"/>
       <use xlink:href="#DejaVuSans-35" transform="translate(63.623047 0)"/>
       <use xlink:href="#DejaVuSans-30" transform="translate(127.246094 0)"/>
      </g>
     </g>
    </g>
    <g id="xtick_7">
     <g id="line2d_7">
      <g>
       <use xlink:href="#m818da6b7a5" x="376.966932" y="320.243478" style="stroke: #000000; stroke-width: 0.8"/>
      </g>
     </g>
     <g id="text_7">
      <!-- 300 -->
      <g transform="translate(362.651307 338.641135) scale(0.15 -0.15)">
       <defs>
        <path id="DejaVuSans-33" d="M 2597 2516 
Q 3050 2419 3304 2112 
Q 3559 1806 3559 1356 
Q 3559 666 3084 287 
Q 2609 -91 1734 -91 
Q 1441 -91 1130 -33 
Q 819 25 488 141 
L 488 750 
Q 750 597 1062 519 
Q 1375 441 1716 441 
Q 2309 441 2620 675 
Q 2931 909 2931 1356 
Q 2931 1769 2642 2001 
Q 2353 2234 1838 2234 
L 1294 2234 
L 1294 2753 
L 1863 2753 
Q 2328 2753 2575 2939 
Q 2822 3125 2822 3475 
Q 2822 3834 2567 4026 
Q 2313 4219 1838 4219 
Q 1578 4219 1281 4162 
Q 984 4106 628 3988 
L 628 4550 
Q 988 4650 1302 4700 
Q 1616 4750 1894 4750 
Q 2613 4750 3031 4423 
Q 3450 4097 3450 3541 
Q 3450 3153 3228 2886 
Q 3006 2619 2597 2516 
z
" transform="scale(0.015625)"/>
       </defs>
       <use xlink:href="#DejaVuSans-33"/>
       <use xlink:href="#DejaVuSans-30" transform="translate(63.623047 0)"/>
       <use xlink:href="#DejaVuSans-30" transform="translate(127.246094 0)"/>
      </g>
     </g>
    </g>
    <g id="xtick_8">
     <g id="line2d_8">
      <g>
       <use xlink:href="#m818da6b7a5" x="427.694205" y="320.243478" style="stroke: #000000; stroke-width: 0.8"/>
      </g>
     </g>
     <g id="text_8">
      <!-- 350 -->
      <g transform="translate(413.37858 338.641135) scale(0.15 -0.15)">
       <use xlink:href="#DejaVuSans-33"/>
       <use xlink:href="#DejaVuSans-35" transform="translate(63.623047 0)"/>
       <use xlink:href="#DejaVuSans-30" transform="translate(127.246094 0)"/>
      </g>
     </g>
    </g>
    <g id="text_9">
     <!-- time [hr] -->
     <g transform="translate(205.074219 359.437853) scale(0.18 -0.18)">
      <defs>
       <path id="DejaVuSans-Bold-74" d="M 1759 4494 
L 1759 3500 
L 2913 3500 
L 2913 2700 
L 1759 2700 
L 1759 1216 
Q 1759 972 1856 886 
Q 1953 800 2241 800 
L 2816 800 
L 2816 0 
L 1856 0 
Q 1194 0 917 276 
Q 641 553 641 1216 
L 641 2700 
L 84 2700 
L 84 3500 
L 641 3500 
L 641 4494 
L 1759 4494 
z
" transform="scale(0.015625)"/>
       <path id="DejaVuSans-Bold-69" d="M 538 3500 
L 1656 3500 
L 1656 0 
L 538 0 
L 538 3500 
z
M 538 4863 
L 1656 4863 
L 1656 3950 
L 538 3950 
L 538 4863 
z
" transform="scale(0.015625)"/>
       <path id="DejaVuSans-Bold-6d" d="M 3781 2919 
Q 3994 3244 4286 3414 
Q 4578 3584 4928 3584 
Q 5531 3584 5847 3212 
Q 6163 2841 6163 2131 
L 6163 0 
L 5038 0 
L 5038 1825 
Q 5041 1866 5042 1909 
Q 5044 1953 5044 2034 
Q 5044 2406 4934 2573 
Q 4825 2741 4581 2741 
Q 4263 2741 4089 2478 
Q 3916 2216 3909 1719 
L 3909 0 
L 2784 0 
L 2784 1825 
Q 2784 2406 2684 2573 
Q 2584 2741 2328 2741 
Q 2006 2741 1831 2477 
Q 1656 2213 1656 1722 
L 1656 0 
L 531 0 
L 531 3500 
L 1656 3500 
L 1656 2988 
Q 1863 3284 2130 3434 
Q 2397 3584 2719 3584 
Q 3081 3584 3359 3409 
Q 3638 3234 3781 2919 
z
" transform="scale(0.015625)"/>
       <path id="DejaVuSans-Bold-65" d="M 4031 1759 
L 4031 1441 
L 1416 1441 
Q 1456 1047 1700 850 
Q 1944 653 2381 653 
Q 2734 653 3104 758 
Q 3475 863 3866 1075 
L 3866 213 
Q 3469 63 3072 -14 
Q 2675 -91 2278 -91 
Q 1328 -91 801 392 
Q 275 875 275 1747 
Q 275 2603 792 3093 
Q 1309 3584 2216 3584 
Q 3041 3584 3536 3087 
Q 4031 2591 4031 1759 
z
M 2881 2131 
Q 2881 2450 2695 2645 
Q 2509 2841 2209 2841 
Q 1884 2841 1681 2658 
Q 1478 2475 1428 2131 
L 2881 2131 
z
" transform="scale(0.015625)"/>
       <path id="DejaVuSans-Bold-20" transform="scale(0.015625)"/>
       <path id="DejaVuSans-Bold-5b" d="M 550 4863 
L 2491 4863 
L 2491 4159 
L 1613 4159 
L 1613 -141 
L 2491 -141 
L 2491 -844 
L 550 -844 
L 550 4863 
z
" transform="scale(0.015625)"/>
       <path id="DejaVuSans-Bold-68" d="M 4056 2131 
L 4056 0 
L 2931 0 
L 2931 347 
L 2931 1625 
Q 2931 2084 2911 2256 
Q 2891 2428 2841 2509 
Q 2775 2619 2662 2680 
Q 2550 2741 2406 2741 
Q 2056 2741 1856 2470 
Q 1656 2200 1656 1722 
L 1656 0 
L 538 0 
L 538 4863 
L 1656 4863 
L 1656 2988 
Q 1909 3294 2193 3439 
Q 2478 3584 2822 3584 
Q 3428 3584 3742 3212 
Q 4056 2841 4056 2131 
z
" transform="scale(0.015625)"/>
       <path id="DejaVuSans-Bold-72" d="M 3138 2547 
Q 2991 2616 2845 2648 
Q 2700 2681 2553 2681 
Q 2122 2681 1889 2404 
Q 1656 2128 1656 1613 
L 1656 0 
L 538 0 
L 538 3500 
L 1656 3500 
L 1656 2925 
Q 1872 3269 2151 3426 
Q 2431 3584 2822 3584 
Q 2878 3584 2943 3579 
Q 3009 3575 3134 3559 
L 3138 2547 
z
" transform="scale(0.015625)"/>
       <path id="DejaVuSans-Bold-5d" d="M 2375 -844 
L 434 -844 
L 434 -141 
L 1313 -141 
L 1313 4159 
L 434 4159 
L 434 4863 
L 2375 4863 
L 2375 -844 
z
" transform="scale(0.015625)"/>
      </defs>
      <use xlink:href="#DejaVuSans-Bold-74"/>
      <use xlink:href="#DejaVuSans-Bold-69" transform="translate(47.802734 0)"/>
      <use xlink:href="#DejaVuSans-Bold-6d" transform="translate(82.080078 0)"/>
      <use xlink:href="#DejaVuSans-Bold-65" transform="translate(186.279297 0)"/>
      <use xlink:href="#DejaVuSans-Bold-20" transform="translate(254.101562 0)"/>
      <use xlink:href="#DejaVuSans-Bold-5b" transform="translate(288.916016 0)"/>
      <use xlink:href="#DejaVuSans-Bold-68" transform="translate(334.619141 0)"/>
      <use xlink:href="#DejaVuSans-Bold-72" transform="translate(405.810547 0)"/>
      <use xlink:href="#DejaVuSans-Bold-5d" transform="translate(455.126953 0)"/>
     </g>
    </g>
   </g>
   <g id="matplotlib.axis_2">
    <g id="ytick_1">
     <g id="line2d_9">
      <defs>
       <path id="m9bec1eb13c" d="M 0 0 
L -3.5 0 
" style="stroke: #000000; stroke-width: 0.8"/>
      </defs>
      <g>
       <use xlink:href="#m9bec1eb13c" x="54.84875" y="309.286957" style="stroke: #000000; stroke-width: 0.8"/>
      </g>
     </g>
     <g id="text_10">
      <!-- 0 -->
      <g transform="translate(38.305 314.985785) scale(0.15 -0.15)">
       <use xlink:href="#DejaVuSans-30"/>
      </g>
     </g>
    </g>
    <g id="ytick_2">
     <g id="line2d_10">
      <g>
       <use xlink:href="#m9bec1eb13c" x="54.84875" y="268.954086" style="stroke: #000000; stroke-width: 0.8"/>
      </g>
     </g>
     <g id="text_11">
      <!-- 5 -->
      <g transform="translate(38.305 274.652914) scale(0.15 -0.15)">
       <use xlink:href="#DejaVuSans-35"/>
      </g>
     </g>
    </g>
    <g id="ytick_3">
     <g id="line2d_11">
      <g>
       <use xlink:href="#m9bec1eb13c" x="54.84875" y="228.621216" style="stroke: #000000; stroke-width: 0.8"/>
      </g>
     </g>
     <g id="text_12">
      <!-- 10 -->
      <g transform="translate(28.76125 234.320044) scale(0.15 -0.15)">
       <use xlink:href="#DejaVuSans-31"/>
       <use xlink:href="#DejaVuSans-30" transform="translate(63.623047 0)"/>
      </g>
     </g>
    </g>
    <g id="ytick_4">
     <g id="line2d_12">
      <g>
       <use xlink:href="#m9bec1eb13c" x="54.84875" y="188.288346" style="stroke: #000000; stroke-width: 0.8"/>
      </g>
     </g>
     <g id="text_13">
      <!-- 15 -->
      <g transform="translate(28.76125 193.987174) scale(0.15 -0.15)">
       <use xlink:href="#DejaVuSans-31"/>
       <use xlink:href="#DejaVuSans-35" transform="translate(63.623047 0)"/>
      </g>
     </g>
    </g>
    <g id="ytick_5">
     <g id="line2d_13">
      <g>
       <use xlink:href="#m9bec1eb13c" x="54.84875" y="147.955475" style="stroke: #000000; stroke-width: 0.8"/>
      </g>
     </g>
     <g id="text_14">
      <!-- 20 -->
      <g transform="translate(28.76125 153.654303) scale(0.15 -0.15)">
       <use xlink:href="#DejaVuSans-32"/>
       <use xlink:href="#DejaVuSans-30" transform="translate(63.623047 0)"/>
      </g>
     </g>
    </g>
    <g id="ytick_6">
     <g id="line2d_14">
      <g>
       <use xlink:href="#m9bec1eb13c" x="54.84875" y="107.622605" style="stroke: #000000; stroke-width: 0.8"/>
      </g>
     </g>
     <g id="text_15">
      <!-- 25 -->
      <g transform="translate(28.76125 113.321433) scale(0.15 -0.15)">
       <use xlink:href="#DejaVuSans-32"/>
       <use xlink:href="#DejaVuSans-35" transform="translate(63.623047 0)"/>
      </g>
     </g>
    </g>
    <g id="text_16">
     <!-- rapamycin blood [µM] -->
     <g transform="translate(20.877187 311.228927) rotate(-90) scale(0.18 -0.18)">
      <defs>
       <path id="DejaVuSans-Bold-61" d="M 2106 1575 
Q 1756 1575 1579 1456 
Q 1403 1338 1403 1106 
Q 1403 894 1545 773 
Q 1688 653 1941 653 
Q 2256 653 2472 879 
Q 2688 1106 2688 1447 
L 2688 1575 
L 2106 1575 
z
M 3816 1997 
L 3816 0 
L 2688 0 
L 2688 519 
Q 2463 200 2181 54 
Q 1900 -91 1497 -91 
Q 953 -91 614 226 
Q 275 544 275 1050 
Q 275 1666 698 1953 
Q 1122 2241 2028 2241 
L 2688 2241 
L 2688 2328 
Q 2688 2594 2478 2717 
Q 2269 2841 1825 2841 
Q 1466 2841 1156 2769 
Q 847 2697 581 2553 
L 581 3406 
Q 941 3494 1303 3539 
Q 1666 3584 2028 3584 
Q 2975 3584 3395 3211 
Q 3816 2838 3816 1997 
z
" transform="scale(0.015625)"/>
       <path id="DejaVuSans-Bold-70" d="M 1656 506 
L 1656 -1331 
L 538 -1331 
L 538 3500 
L 1656 3500 
L 1656 2988 
Q 1888 3294 2169 3439 
Q 2450 3584 2816 3584 
Q 3463 3584 3878 3070 
Q 4294 2556 4294 1747 
Q 4294 938 3878 423 
Q 3463 -91 2816 -91 
Q 2450 -91 2169 54 
Q 1888 200 1656 506 
z
M 2400 2772 
Q 2041 2772 1848 2508 
Q 1656 2244 1656 1747 
Q 1656 1250 1848 986 
Q 2041 722 2400 722 
Q 2759 722 2948 984 
Q 3138 1247 3138 1747 
Q 3138 2247 2948 2509 
Q 2759 2772 2400 2772 
z
" transform="scale(0.015625)"/>
       <path id="DejaVuSans-Bold-79" d="M 78 3500 
L 1197 3500 
L 2138 1125 
L 2938 3500 
L 4056 3500 
L 2584 -331 
Q 2363 -916 2067 -1148 
Q 1772 -1381 1288 -1381 
L 641 -1381 
L 641 -647 
L 991 -647 
Q 1275 -647 1404 -556 
Q 1534 -466 1606 -231 
L 1638 -134 
L 78 3500 
z
" transform="scale(0.015625)"/>
       <path id="DejaVuSans-Bold-63" d="M 3366 3391 
L 3366 2478 
Q 3138 2634 2908 2709 
Q 2678 2784 2431 2784 
Q 1963 2784 1702 2511 
Q 1441 2238 1441 1747 
Q 1441 1256 1702 982 
Q 1963 709 2431 709 
Q 2694 709 2930 787 
Q 3166 866 3366 1019 
L 3366 103 
Q 3103 6 2833 -42 
Q 2563 -91 2291 -91 
Q 1344 -91 809 395 
Q 275 881 275 1747 
Q 275 2613 809 3098 
Q 1344 3584 2291 3584 
Q 2566 3584 2833 3536 
Q 3100 3488 3366 3391 
z
" transform="scale(0.015625)"/>
       <path id="DejaVuSans-Bold-6e" d="M 4056 2131 
L 4056 0 
L 2931 0 
L 2931 347 
L 2931 1631 
Q 2931 2084 2911 2256 
Q 2891 2428 2841 2509 
Q 2775 2619 2662 2680 
Q 2550 2741 2406 2741 
Q 2056 2741 1856 2470 
Q 1656 2200 1656 1722 
L 1656 0 
L 538 0 
L 538 3500 
L 1656 3500 
L 1656 2988 
Q 1909 3294 2193 3439 
Q 2478 3584 2822 3584 
Q 3428 3584 3742 3212 
Q 4056 2841 4056 2131 
z
" transform="scale(0.015625)"/>
       <path id="DejaVuSans-Bold-62" d="M 2400 722 
Q 2759 722 2948 984 
Q 3138 1247 3138 1747 
Q 3138 2247 2948 2509 
Q 2759 2772 2400 2772 
Q 2041 2772 1848 2508 
Q 1656 2244 1656 1747 
Q 1656 1250 1848 986 
Q 2041 722 2400 722 
z
M 1656 2988 
Q 1888 3294 2169 3439 
Q 2450 3584 2816 3584 
Q 3463 3584 3878 3070 
Q 4294 2556 4294 1747 
Q 4294 938 3878 423 
Q 3463 -91 2816 -91 
Q 2450 -91 2169 54 
Q 1888 200 1656 506 
L 1656 0 
L 538 0 
L 538 4863 
L 1656 4863 
L 1656 2988 
z
" transform="scale(0.015625)"/>
       <path id="DejaVuSans-Bold-6c" d="M 538 4863 
L 1656 4863 
L 1656 0 
L 538 0 
L 538 4863 
z
" transform="scale(0.015625)"/>
       <path id="DejaVuSans-Bold-6f" d="M 2203 2784 
Q 1831 2784 1636 2517 
Q 1441 2250 1441 1747 
Q 1441 1244 1636 976 
Q 1831 709 2203 709 
Q 2569 709 2762 976 
Q 2956 1244 2956 1747 
Q 2956 2250 2762 2517 
Q 2569 2784 2203 2784 
z
M 2203 3584 
Q 3106 3584 3614 3096 
Q 4122 2609 4122 1747 
Q 4122 884 3614 396 
Q 3106 -91 2203 -91 
Q 1297 -91 786 396 
Q 275 884 275 1747 
Q 275 2609 786 3096 
Q 1297 3584 2203 3584 
z
" transform="scale(0.015625)"/>
       <path id="DejaVuSans-Bold-64" d="M 2919 2988 
L 2919 4863 
L 4044 4863 
L 4044 0 
L 2919 0 
L 2919 506 
Q 2688 197 2409 53 
Q 2131 -91 1766 -91 
Q 1119 -91 703 423 
Q 288 938 288 1747 
Q 288 2556 703 3070 
Q 1119 3584 1766 3584 
Q 2128 3584 2408 3439 
Q 2688 3294 2919 2988 
z
M 2181 722 
Q 2541 722 2730 984 
Q 2919 1247 2919 1747 
Q 2919 2247 2730 2509 
Q 2541 2772 2181 2772 
Q 1825 2772 1636 2509 
Q 1447 2247 1447 1747 
Q 1447 1247 1636 984 
Q 1825 722 2181 722 
z
" transform="scale(0.015625)"/>
       <path id="DejaVuSans-Bold-b5" d="M 544 -1338 
L 544 3500 
L 1672 3500 
L 1672 1466 
Q 1672 1103 1828 926 
Q 1984 750 2303 750 
Q 2625 750 2781 926 
Q 2938 1103 2938 1466 
L 2938 3500 
L 4063 3500 
L 4063 1159 
Q 4063 938 4114 850 
Q 4166 763 4288 763 
Q 4344 763 4395 778 
Q 4447 794 4506 831 
L 4506 50 
Q 4341 -22 4195 -56 
Q 4050 -91 3909 -91 
Q 3631 -91 3454 26 
Q 3278 144 3169 403 
Q 3022 156 2811 32 
Q 2600 -91 2322 -91 
Q 2091 -91 1928 -17 
Q 1766 56 1672 206 
L 1672 -1338 
L 544 -1338 
z
" transform="scale(0.015625)"/>
       <path id="DejaVuSans-Bold-4d" d="M 588 4666 
L 2119 4666 
L 3181 2169 
L 4250 4666 
L 5778 4666 
L 5778 0 
L 4641 0 
L 4641 3413 
L 3566 897 
L 2803 897 
L 1728 3413 
L 1728 0 
L 588 0 
L 588 4666 
z
" transform="scale(0.015625)"/>
      </defs>
      <use xlink:href="#DejaVuSans-Bold-72"/>
      <use xlink:href="#DejaVuSans-Bold-61" transform="translate(49.316406 0)"/>
      <use xlink:href="#DejaVuSans-Bold-70" transform="translate(116.796875 0)"/>
      <use xlink:href="#DejaVuSans-Bold-61" transform="translate(188.378906 0)"/>
      <use xlink:href="#DejaVuSans-Bold-6d" transform="translate(255.859375 0)"/>
      <use xlink:href="#DejaVuSans-Bold-79" transform="translate(360.058594 0)"/>
      <use xlink:href="#DejaVuSans-Bold-63" transform="translate(425.244141 0)"/>
      <use xlink:href="#DejaVuSans-Bold-69" transform="translate(484.521484 0)"/>
      <use xlink:href="#DejaVuSans-Bold-6e" transform="translate(518.798828 0)"/>
      <use xlink:href="#DejaVuSans-Bold-20" transform="translate(589.990234 0)"/>
      <use xlink:href="#DejaVuSans-Bold-62" transform="translate(624.804688 0)"/>
      <use xlink:href="#DejaVuSans-Bold-6c" transform="translate(696.386719 0)"/>
      <use xlink:href="#DejaVuSans-Bold-6f" transform="translate(730.664062 0)"/>
      <use xlink:href="#DejaVuSans-Bold-6f" transform="translate(799.365234 0)"/>
      <use xlink:href="#DejaVuSans-Bold-64" transform="translate(868.066406 0)"/>
      <use xlink:href="#DejaVuSans-Bold-20" transform="translate(939.648438 0)"/>
      <use xlink:href="#DejaVuSans-Bold-5b" transform="translate(974.462891 0)"/>
      <use xlink:href="#DejaVuSans-Bold-b5" transform="translate(1020.166016 0)"/>
      <use xlink:href="#DejaVuSans-Bold-4d" transform="translate(1093.75 0)"/>
      <use xlink:href="#DejaVuSans-Bold-5d" transform="translate(1193.261719 0)"/>
     </g>
    </g>
   </g>
   <g id="LineCollection_1">
    <path d="M 72.938095 309.02033 
L 72.938095 308.901446 
" clip-path="url(#p2bf9240216)" style="fill: none; stroke: #000000"/>
    <path d="M 73.283041 308.719739 
L 73.283041 308.61115 
" clip-path="url(#p2bf9240216)" style="fill: none; stroke: #000000"/>
    <path d="M 73.617841 308.726712 
L 73.617841 308.654731 
" clip-path="url(#p2bf9240216)" style="fill: none; stroke: #000000"/>
    <path d="M 74.632386 308.928022 
L 74.632386 308.867044 
" clip-path="url(#p2bf9240216)" style="fill: none; stroke: #000000"/>
    <path d="M 75.646932 309.027749 
L 75.646932 308.983714 
" clip-path="url(#p2bf9240216)" style="fill: none; stroke: #000000"/>
    <path d="M 77.676023 309.117736 
L 77.676023 309.085339 
" clip-path="url(#p2bf9240216)" style="fill: none; stroke: #000000"/>
    <path d="M 80.719659 309.186015 
L 80.719659 309.157079 
" clip-path="url(#p2bf9240216)" style="fill: none; stroke: #000000"/>
    <path d="M 84.777841 309.223811 
L 84.777841 309.1972 
" clip-path="url(#p2bf9240216)" style="fill: none; stroke: #000000"/>
    <path d="M 96.952386 309.243175 
L 96.952386 309.23365 
" clip-path="url(#p2bf9240216)" style="fill: none; stroke: #000000"/>
    <path d="M 121.301477 309.25771 
L 121.301477 309.250266 
" clip-path="url(#p2bf9240216)" style="fill: none; stroke: #000000"/>
    <path d="M 145.650568 309.265435 
L 145.650568 309.259957 
" clip-path="url(#p2bf9240216)" style="fill: none; stroke: #000000"/>
    <path d="M 169.999659 309.270249 
L 169.999659 309.265998 
" clip-path="url(#p2bf9240216)" style="fill: none; stroke: #000000"/>
    <path d="M 194.34875 309.273414 
L 194.34875 309.270467 
" clip-path="url(#p2bf9240216)" style="fill: none; stroke: #000000"/>
    <path d="M 218.697841 309.277022 
L 218.697841 309.274494 
" clip-path="url(#p2bf9240216)" style="fill: none; stroke: #000000"/>
    <path d="M 291.745114 309.280965 
L 291.745114 309.27944 
" clip-path="url(#p2bf9240216)" style="fill: none; stroke: #000000"/>
    <path d="M 389.141477 309.284469 
L 389.141477 309.283836 
" clip-path="url(#p2bf9240216)" style="fill: none; stroke: #000000"/>
   </g>
   <g id="LineCollection_2">
    <path d="M 72.938095 309.120792 
L 72.938095 309.031184 
" clip-path="url(#p2bf9240216)" style="fill: none; stroke: #d62728"/>
    <path d="M 73.283041 308.884237 
L 73.283041 308.738777 
" clip-path="url(#p2bf9240216)" style="fill: none; stroke: #d62728"/>
    <path d="M 73.617841 308.899894 
L 73.617841 308.738588 
" clip-path="url(#p2bf9240216)" style="fill: none; stroke: #d62728"/>
    <path d="M 74.632386 309.010362 
L 74.632386 308.93179 
" clip-path="url(#p2bf9240216)" style="fill: none; stroke: #d62728"/>
    <path d="M 75.646932 309.088426 
L 75.646932 309.036833 
" clip-path="url(#p2bf9240216)" style="fill: none; stroke: #d62728"/>
    <path d="M 77.676023 309.14701 
L 77.676023 309.088688 
" clip-path="url(#p2bf9240216)" style="fill: none; stroke: #d62728"/>
    <path d="M 80.719659 309.175185 
L 80.719659 309.134814 
" clip-path="url(#p2bf9240216)" style="fill: none; stroke: #d62728"/>
    <path d="M 84.777841 309.193816 
L 84.777841 309.166505 
" clip-path="url(#p2bf9240216)" style="fill: none; stroke: #d62728"/>
    <path d="M 96.952386 309.216277 
L 96.952386 309.189664 
" clip-path="url(#p2bf9240216)" style="fill: none; stroke: #d62728"/>
    <path d="M 121.301477 309.231973 
L 121.301477 309.206207 
" clip-path="url(#p2bf9240216)" style="fill: none; stroke: #d62728"/>
    <path d="M 145.650568 309.23849 
L 145.650568 309.213363 
" clip-path="url(#p2bf9240216)" style="fill: none; stroke: #d62728"/>
    <path d="M 169.999659 309.245368 
L 169.999659 309.225877 
" clip-path="url(#p2bf9240216)" style="fill: none; stroke: #d62728"/>
    <path d="M 194.34875 309.249132 
L 194.34875 309.23489 
" clip-path="url(#p2bf9240216)" style="fill: none; stroke: #d62728"/>
    <path d="M 218.697841 309.25155 
L 218.697841 309.238218 
" clip-path="url(#p2bf9240216)" style="fill: none; stroke: #d62728"/>
    <path d="M 291.745114 309.258923 
L 291.745114 309.249564 
" clip-path="url(#p2bf9240216)" style="fill: none; stroke: #d62728"/>
    <path d="M 389.141477 309.26674 
L 389.141477 309.260812 
" clip-path="url(#p2bf9240216)" style="fill: none; stroke: #d62728"/>
   </g>
   <g id="line2d_15">
    <path d="M 72.603295 309.286957 
L 72.958386 110.076381 
L 73.135932 90.156522 
L 73.491023 143.7181 
L 74.023659 224.323473 
L 74.37875 251.310812 
L 74.733841 265.313013 
L 75.088932 272.397826 
L 75.444023 275.961921 
L 75.799114 277.762255 
L 76.154205 278.683962 
L 76.686841 279.321294 
L 77.397023 279.65439 
L 78.817386 279.937346 
L 89.115023 281.44503 
L 107.047114 283.882383 
L 125.689386 286.191656 
L 145.396932 288.406267 
L 165.992205 290.49514 
L 187.65275 292.467969 
L 210.556114 294.330042 
L 234.879841 296.08316 
L 260.801477 297.726537 
L 288.498568 299.257685 
L 318.326205 300.681114 
L 350.461932 301.989891 
L 385.438386 303.189557 
L 423.788205 304.279784 
L 427.694205 304.379261 
L 427.694205 304.379261 
" clip-path="url(#p2bf9240216)" style="fill: none; stroke: #000000; stroke-width: 2; stroke-linecap: square"/>
   </g>
   <g id="line2d_16">
    <path d="M 72.938095 308.960888 
L 73.283041 308.665445 
L 73.617841 308.690721 
L 74.632386 308.897533 
L 75.646932 309.005732 
L 77.676023 309.101538 
L 80.719659 309.171547 
L 84.777841 309.210505 
L 96.952386 309.238412 
L 121.301477 309.253988 
L 145.650568 309.262696 
L 169.999659 309.268124 
L 194.34875 309.271941 
L 218.697841 309.275758 
L 291.745114 309.280203 
L 389.141477 309.284153 
" clip-path="url(#p2bf9240216)" style="fill: none; stroke-dasharray: 3.7,1.6; stroke-dashoffset: 0; stroke: #000000"/>
    <defs>
     <path id="md2c8999462" d="M -3 3 
L 3 3 
L 3 -3 
L -3 -3 
z
" style="stroke: #000000; stroke-linejoin: miter"/>
    </defs>
    <g clip-path="url(#p2bf9240216)">
     <use xlink:href="#md2c8999462" x="72.938095" y="308.960888" style="stroke: #000000; stroke-linejoin: miter"/>
     <use xlink:href="#md2c8999462" x="73.283041" y="308.665445" style="stroke: #000000; stroke-linejoin: miter"/>
     <use xlink:href="#md2c8999462" x="73.617841" y="308.690721" style="stroke: #000000; stroke-linejoin: miter"/>
     <use xlink:href="#md2c8999462" x="74.632386" y="308.897533" style="stroke: #000000; stroke-linejoin: miter"/>
     <use xlink:href="#md2c8999462" x="75.646932" y="309.005732" style="stroke: #000000; stroke-linejoin: miter"/>
     <use xlink:href="#md2c8999462" x="77.676023" y="309.101538" style="stroke: #000000; stroke-linejoin: miter"/>
     <use xlink:href="#md2c8999462" x="80.719659" y="309.171547" style="stroke: #000000; stroke-linejoin: miter"/>
     <use xlink:href="#md2c8999462" x="84.777841" y="309.210505" style="stroke: #000000; stroke-linejoin: miter"/>
     <use xlink:href="#md2c8999462" x="96.952386" y="309.238412" style="stroke: #000000; stroke-linejoin: miter"/>
     <use xlink:href="#md2c8999462" x="121.301477" y="309.253988" style="stroke: #000000; stroke-linejoin: miter"/>
     <use xlink:href="#md2c8999462" x="145.650568" y="309.262696" style="stroke: #000000; stroke-linejoin: miter"/>
     <use xlink:href="#md2c8999462" x="169.999659" y="309.268124" style="stroke: #000000; stroke-linejoin: miter"/>
     <use xlink:href="#md2c8999462" x="194.34875" y="309.271941" style="stroke: #000000; stroke-linejoin: miter"/>
     <use xlink:href="#md2c8999462" x="218.697841" y="309.275758" style="stroke: #000000; stroke-linejoin: miter"/>
     <use xlink:href="#md2c8999462" x="291.745114" y="309.280203" style="stroke: #000000; stroke-linejoin: miter"/>
     <use xlink:href="#md2c8999462" x="389.141477" y="309.284153" style="stroke: #000000; stroke-linejoin: miter"/>
    </g>
   </g>
   <g id="line2d_17">
    <path d="M 72.603295 309.286957 
L 72.958386 118.615999 
L 73.135932 98.092318 
L 73.313477 116.835782 
L 74.023659 227.185778 
L 74.37875 253.809594 
L 74.733841 267.661487 
L 75.088932 274.67653 
L 75.444023 278.205292 
L 75.799114 279.986295 
L 76.154205 280.896411 
L 76.686841 281.522854 
L 77.397023 281.84593 
L 78.817386 282.112239 
L 89.292568 283.5303 
L 107.934841 285.867671 
L 127.464841 288.090409 
L 148.060114 290.20737 
L 169.720659 292.207114 
L 192.624023 294.094974 
L 216.770205 295.860557 
L 242.514295 297.518245 
L 270.033841 299.065185 
L 299.683932 300.505636 
L 331.642114 301.832205 
L 366.441023 303.050199 
L 404.43575 304.154275 
L 427.694205 304.731451 
L 427.694205 304.731451 
" clip-path="url(#p2bf9240216)" style="fill: none; stroke: #d62728; stroke-width: 2; stroke-linecap: square"/>
   </g>
   <g id="line2d_18">
    <path d="M 72.938095 309.075988 
L 73.283041 308.811507 
L 73.617841 308.819241 
L 74.632386 308.971076 
L 75.646932 309.06263 
L 77.676023 309.117849 
L 80.719659 309.155 
L 84.777841 309.180161 
L 96.952386 309.20297 
L 121.301477 309.21909 
L 145.650568 309.225927 
L 169.999659 309.235623 
L 194.34875 309.242011 
L 218.697841 309.244884 
L 291.745114 309.254244 
L 389.141477 309.263776 
" clip-path="url(#p2bf9240216)" style="fill: none; stroke-dasharray: 3.7,1.6; stroke-dashoffset: 0; stroke: #d62728"/>
    <defs>
     <path id="m8dfbdd8062" d="M -3 3 
L 3 3 
L 3 -3 
L -3 -3 
z
" style="stroke: #000000; stroke-linejoin: miter"/>
    </defs>
    <g clip-path="url(#p2bf9240216)">
     <use xlink:href="#m8dfbdd8062" x="72.938095" y="309.075988" style="fill: #d62728; stroke: #000000; stroke-linejoin: miter"/>
     <use xlink:href="#m8dfbdd8062" x="73.283041" y="308.811507" style="fill: #d62728; stroke: #000000; stroke-linejoin: miter"/>
     <use xlink:href="#m8dfbdd8062" x="73.617841" y="308.819241" style="fill: #d62728; stroke: #000000; stroke-linejoin: miter"/>
     <use xlink:href="#m8dfbdd8062" x="74.632386" y="308.971076" style="fill: #d62728; stroke: #000000; stroke-linejoin: miter"/>
     <use xlink:href="#m8dfbdd8062" x="75.646932" y="309.06263" style="fill: #d62728; stroke: #000000; stroke-linejoin: miter"/>
     <use xlink:href="#m8dfbdd8062" x="77.676023" y="309.117849" style="fill: #d62728; stroke: #000000; stroke-linejoin: miter"/>
     <use xlink:href="#m8dfbdd8062" x="80.719659" y="309.155" style="fill: #d62728; stroke: #000000; stroke-linejoin: miter"/>
     <use xlink:href="#m8dfbdd8062" x="84.777841" y="309.180161" style="fill: #d62728; stroke: #000000; stroke-linejoin: miter"/>
     <use xlink:href="#m8dfbdd8062" x="96.952386" y="309.20297" style="fill: #d62728; stroke: #000000; stroke-linejoin: miter"/>
     <use xlink:href="#m8dfbdd8062" x="121.301477" y="309.21909" style="fill: #d62728; stroke: #000000; stroke-linejoin: miter"/>
     <use xlink:href="#m8dfbdd8062" x="145.650568" y="309.225927" style="fill: #d62728; stroke: #000000; stroke-linejoin: miter"/>
     <use xlink:href="#m8dfbdd8062" x="169.999659" y="309.235623" style="fill: #d62728; stroke: #000000; stroke-linejoin: miter"/>
     <use xlink:href="#m8dfbdd8062" x="194.34875" y="309.242011" style="fill: #d62728; stroke: #000000; stroke-linejoin: miter"/>
     <use xlink:href="#m8dfbdd8062" x="218.697841" y="309.244884" style="fill: #d62728; stroke: #000000; stroke-linejoin: miter"/>
     <use xlink:href="#m8dfbdd8062" x="291.745114" y="309.254244" style="fill: #d62728; stroke: #000000; stroke-linejoin: miter"/>
     <use xlink:href="#m8dfbdd8062" x="389.141477" y="309.263776" style="fill: #d62728; stroke: #000000; stroke-linejoin: miter"/>
    </g>
   </g>
   <g id="patch_3">
    <path d="M 54.84875 320.243478 
L 54.84875 79.2 
" style="fill: none; stroke: #000000; stroke-width: 0.8; stroke-linejoin: miter; stroke-linecap: square"/>
   </g>
   <g id="patch_4">
    <path d="M 445.44875 320.243478 
L 445.44875 79.2 
" style="fill: none; stroke: #000000; stroke-width: 0.8; stroke-linejoin: miter; stroke-linecap: square"/>
   </g>
   <g id="patch_5">
    <path d="M 54.84875 320.243478 
L 445.44875 320.243478 
" style="fill: none; stroke: #000000; stroke-width: 0.8; stroke-linejoin: miter; stroke-linecap: square"/>
   </g>
   <g id="patch_6">
    <path d="M 54.84875 79.2 
L 445.44875 79.2 
" style="fill: none; stroke: #000000; stroke-width: 0.8; stroke-linejoin: miter; stroke-linecap: square"/>
   </g>
   <g id="legend_1">
    <g id="patch_7">
     <path d="M 468.07275 146.46875 
L 603.39775 146.46875 
Q 605.39775 146.46875 605.39775 144.46875 
L 605.39775 86.2 
Q 605.39775 84.2 603.39775 84.2 
L 468.07275 84.2 
Q 466.07275 84.2 466.07275 86.2 
L 466.07275 144.46875 
Q 466.07275 146.46875 468.07275 146.46875 
z
" style="fill: #ffffff; opacity: 0.8; stroke: #cccccc; stroke-linejoin: miter"/>
    </g>
    <g id="line2d_19">
     <path d="M 470.07275 92.298437 
L 490.07275 92.298437 
" style="fill: none; stroke: #000000; stroke-width: 2; stroke-linecap: square"/>
    </g>
    <g id="line2d_20"/>
    <g id="text_17">
     <!-- CONTROL -->
     <g transform="translate(498.07275 95.798437) scale(0.1 -0.1)">
      <defs>
       <path id="DejaVuSans-43" d="M 4122 4306 
L 4122 3641 
Q 3803 3938 3442 4084 
Q 3081 4231 2675 4231 
Q 1875 4231 1450 3742 
Q 1025 3253 1025 2328 
Q 1025 1406 1450 917 
Q 1875 428 2675 428 
Q 3081 428 3442 575 
Q 3803 722 4122 1019 
L 4122 359 
Q 3791 134 3420 21 
Q 3050 -91 2638 -91 
Q 1578 -91 968 557 
Q 359 1206 359 2328 
Q 359 3453 968 4101 
Q 1578 4750 2638 4750 
Q 3056 4750 3426 4639 
Q 3797 4528 4122 4306 
z
" transform="scale(0.015625)"/>
       <path id="DejaVuSans-4f" d="M 2522 4238 
Q 1834 4238 1429 3725 
Q 1025 3213 1025 2328 
Q 1025 1447 1429 934 
Q 1834 422 2522 422 
Q 3209 422 3611 934 
Q 4013 1447 4013 2328 
Q 4013 3213 3611 3725 
Q 3209 4238 2522 4238 
z
M 2522 4750 
Q 3503 4750 4090 4092 
Q 4678 3434 4678 2328 
Q 4678 1225 4090 567 
Q 3503 -91 2522 -91 
Q 1538 -91 948 565 
Q 359 1222 359 2328 
Q 359 3434 948 4092 
Q 1538 4750 2522 4750 
z
" transform="scale(0.015625)"/>
       <path id="DejaVuSans-4e" d="M 628 4666 
L 1478 4666 
L 3547 763 
L 3547 4666 
L 4159 4666 
L 4159 0 
L 3309 0 
L 1241 3903 
L 1241 0 
L 628 0 
L 628 4666 
z
" transform="scale(0.015625)"/>
       <path id="DejaVuSans-54" d="M -19 4666 
L 3928 4666 
L 3928 4134 
L 2272 4134 
L 2272 0 
L 1638 0 
L 1638 4134 
L -19 4134 
L -19 4666 
z
" transform="scale(0.015625)"/>
       <path id="DejaVuSans-52" d="M 2841 2188 
Q 3044 2119 3236 1894 
Q 3428 1669 3622 1275 
L 4263 0 
L 3584 0 
L 2988 1197 
Q 2756 1666 2539 1819 
Q 2322 1972 1947 1972 
L 1259 1972 
L 1259 0 
L 628 0 
L 628 4666 
L 2053 4666 
Q 2853 4666 3247 4331 
Q 3641 3997 3641 3322 
Q 3641 2881 3436 2590 
Q 3231 2300 2841 2188 
z
M 1259 4147 
L 1259 2491 
L 2053 2491 
Q 2509 2491 2742 2702 
Q 2975 2913 2975 3322 
Q 2975 3731 2742 3939 
Q 2509 4147 2053 4147 
L 1259 4147 
z
" transform="scale(0.015625)"/>
       <path id="DejaVuSans-4c" d="M 628 4666 
L 1259 4666 
L 1259 531 
L 3531 531 
L 3531 0 
L 628 0 
L 628 4666 
z
" transform="scale(0.015625)"/>
      </defs>
      <use xlink:href="#DejaVuSans-43"/>
      <use xlink:href="#DejaVuSans-4f" transform="translate(69.824219 0)"/>
      <use xlink:href="#DejaVuSans-4e" transform="translate(148.535156 0)"/>
      <use xlink:href="#DejaVuSans-54" transform="translate(223.339844 0)"/>
      <use xlink:href="#DejaVuSans-52" transform="translate(284.423828 0)"/>
      <use xlink:href="#DejaVuSans-4f" transform="translate(353.90625 0)"/>
      <use xlink:href="#DejaVuSans-4c" transform="translate(432.617188 0)"/>
     </g>
    </g>
    <g id="LineCollection_3">
     <path d="M 480.07275 111.976562 
L 480.07275 101.976562 
" style="fill: none; stroke: #000000"/>
    </g>
    <g id="line2d_21">
     <path d="M 470.07275 106.976562 
L 490.07275 106.976562 
" style="fill: none; stroke-dasharray: 3.7,1.6; stroke-dashoffset: 0; stroke: #000000"/>
    </g>
    <g id="line2d_22">
     <g>
      <use xlink:href="#md2c8999462" x="480.07275" y="106.976562" style="stroke: #000000; stroke-linejoin: miter"/>
     </g>
    </g>
    <g id="text_18">
     <!-- CONTROL±SD (n=9) -->
     <g transform="translate(498.07275 110.476562) scale(0.1 -0.1)">
      <defs>
       <path id="DejaVuSans-b1" d="M 2944 4013 
L 2944 2803 
L 4684 2803 
L 4684 2272 
L 2944 2272 
L 2944 1063 
L 2419 1063 
L 2419 2272 
L 678 2272 
L 678 2803 
L 2419 2803 
L 2419 4013 
L 2944 4013 
z
M 678 531 
L 4684 531 
L 4684 0 
L 678 0 
L 678 531 
z
" transform="scale(0.015625)"/>
       <path id="DejaVuSans-53" d="M 3425 4513 
L 3425 3897 
Q 3066 4069 2747 4153 
Q 2428 4238 2131 4238 
Q 1616 4238 1336 4038 
Q 1056 3838 1056 3469 
Q 1056 3159 1242 3001 
Q 1428 2844 1947 2747 
L 2328 2669 
Q 3034 2534 3370 2195 
Q 3706 1856 3706 1288 
Q 3706 609 3251 259 
Q 2797 -91 1919 -91 
Q 1588 -91 1214 -16 
Q 841 59 441 206 
L 441 856 
Q 825 641 1194 531 
Q 1563 422 1919 422 
Q 2459 422 2753 634 
Q 3047 847 3047 1241 
Q 3047 1584 2836 1778 
Q 2625 1972 2144 2069 
L 1759 2144 
Q 1053 2284 737 2584 
Q 422 2884 422 3419 
Q 422 4038 858 4394 
Q 1294 4750 2059 4750 
Q 2388 4750 2728 4690 
Q 3069 4631 3425 4513 
z
" transform="scale(0.015625)"/>
       <path id="DejaVuSans-44" d="M 1259 4147 
L 1259 519 
L 2022 519 
Q 2988 519 3436 956 
Q 3884 1394 3884 2338 
Q 3884 3275 3436 3711 
Q 2988 4147 2022 4147 
L 1259 4147 
z
M 628 4666 
L 1925 4666 
Q 3281 4666 3915 4102 
Q 4550 3538 4550 2338 
Q 4550 1131 3912 565 
Q 3275 0 1925 0 
L 628 0 
L 628 4666 
z
" transform="scale(0.015625)"/>
       <path id="DejaVuSans-20" transform="scale(0.015625)"/>
       <path id="DejaVuSans-28" d="M 1984 4856 
Q 1566 4138 1362 3434 
Q 1159 2731 1159 2009 
Q 1159 1288 1364 580 
Q 1569 -128 1984 -844 
L 1484 -844 
Q 1016 -109 783 600 
Q 550 1309 550 2009 
Q 550 2706 781 3412 
Q 1013 4119 1484 4856 
L 1984 4856 
z
" transform="scale(0.015625)"/>
       <path id="DejaVuSans-6e" d="M 3513 2113 
L 3513 0 
L 2938 0 
L 2938 2094 
Q 2938 2591 2744 2837 
Q 2550 3084 2163 3084 
Q 1697 3084 1428 2787 
Q 1159 2491 1159 1978 
L 1159 0 
L 581 0 
L 581 3500 
L 1159 3500 
L 1159 2956 
Q 1366 3272 1645 3428 
Q 1925 3584 2291 3584 
Q 2894 3584 3203 3211 
Q 3513 2838 3513 2113 
z
" transform="scale(0.015625)"/>
       <path id="DejaVuSans-3d" d="M 678 2906 
L 4684 2906 
L 4684 2381 
L 678 2381 
L 678 2906 
z
M 678 1631 
L 4684 1631 
L 4684 1100 
L 678 1100 
L 678 1631 
z
" transform="scale(0.015625)"/>
       <path id="DejaVuSans-39" d="M 703 97 
L 703 672 
Q 941 559 1184 500 
Q 1428 441 1663 441 
Q 2288 441 2617 861 
Q 2947 1281 2994 2138 
Q 2813 1869 2534 1725 
Q 2256 1581 1919 1581 
Q 1219 1581 811 2004 
Q 403 2428 403 3163 
Q 403 3881 828 4315 
Q 1253 4750 1959 4750 
Q 2769 4750 3195 4129 
Q 3622 3509 3622 2328 
Q 3622 1225 3098 567 
Q 2575 -91 1691 -91 
Q 1453 -91 1209 -44 
Q 966 3 703 97 
z
M 1959 2075 
Q 2384 2075 2632 2365 
Q 2881 2656 2881 3163 
Q 2881 3666 2632 3958 
Q 2384 4250 1959 4250 
Q 1534 4250 1286 3958 
Q 1038 3666 1038 3163 
Q 1038 2656 1286 2365 
Q 1534 2075 1959 2075 
z
" transform="scale(0.015625)"/>
       <path id="DejaVuSans-29" d="M 513 4856 
L 1013 4856 
Q 1481 4119 1714 3412 
Q 1947 2706 1947 2009 
Q 1947 1309 1714 600 
Q 1481 -109 1013 -844 
L 513 -844 
Q 928 -128 1133 580 
Q 1338 1288 1338 2009 
Q 1338 2731 1133 3434 
Q 928 4138 513 4856 
z
" transform="scale(0.015625)"/>
      </defs>
      <use xlink:href="#DejaVuSans-43"/>
      <use xlink:href="#DejaVuSans-4f" transform="translate(69.824219 0)"/>
      <use xlink:href="#DejaVuSans-4e" transform="translate(148.535156 0)"/>
      <use xlink:href="#DejaVuSans-54" transform="translate(223.339844 0)"/>
      <use xlink:href="#DejaVuSans-52" transform="translate(284.423828 0)"/>
      <use xlink:href="#DejaVuSans-4f" transform="translate(353.90625 0)"/>
      <use xlink:href="#DejaVuSans-4c" transform="translate(432.617188 0)"/>
      <use xlink:href="#DejaVuSans-b1" transform="translate(488.330078 0)"/>
      <use xlink:href="#DejaVuSans-53" transform="translate(572.119141 0)"/>
      <use xlink:href="#DejaVuSans-44" transform="translate(635.595703 0)"/>
      <use xlink:href="#DejaVuSans-20" transform="translate(712.597656 0)"/>
      <use xlink:href="#DejaVuSans-28" transform="translate(744.384766 0)"/>
      <use xlink:href="#DejaVuSans-6e" transform="translate(783.398438 0)"/>
      <use xlink:href="#DejaVuSans-3d" transform="translate(846.777344 0)"/>
      <use xlink:href="#DejaVuSans-39" transform="translate(930.566406 0)"/>
      <use xlink:href="#DejaVuSans-29" transform="translate(994.189453 0)"/>
     </g>
    </g>
    <g id="line2d_23">
     <path d="M 470.07275 121.654687 
L 490.07275 121.654687 
" style="fill: none; stroke: #d62728; stroke-width: 2; stroke-linecap: square"/>
    </g>
    <g id="line2d_24"/>
    <g id="text_19">
     <!-- GRADE_C -->
     <g transform="translate(498.07275 125.154687) scale(0.1 -0.1)">
      <defs>
       <path id="DejaVuSans-47" d="M 3809 666 
L 3809 1919 
L 2778 1919 
L 2778 2438 
L 4434 2438 
L 4434 434 
Q 4069 175 3628 42 
Q 3188 -91 2688 -91 
Q 1594 -91 976 548 
Q 359 1188 359 2328 
Q 359 3472 976 4111 
Q 1594 4750 2688 4750 
Q 3144 4750 3555 4637 
Q 3966 4525 4313 4306 
L 4313 3634 
Q 3963 3931 3569 4081 
Q 3175 4231 2741 4231 
Q 1884 4231 1454 3753 
Q 1025 3275 1025 2328 
Q 1025 1384 1454 906 
Q 1884 428 2741 428 
Q 3075 428 3337 486 
Q 3600 544 3809 666 
z
" transform="scale(0.015625)"/>
       <path id="DejaVuSans-41" d="M 2188 4044 
L 1331 1722 
L 3047 1722 
L 2188 4044 
z
M 1831 4666 
L 2547 4666 
L 4325 0 
L 3669 0 
L 3244 1197 
L 1141 1197 
L 716 0 
L 50 0 
L 1831 4666 
z
" transform="scale(0.015625)"/>
       <path id="DejaVuSans-45" d="M 628 4666 
L 3578 4666 
L 3578 4134 
L 1259 4134 
L 1259 2753 
L 3481 2753 
L 3481 2222 
L 1259 2222 
L 1259 531 
L 3634 531 
L 3634 0 
L 628 0 
L 628 4666 
z
" transform="scale(0.015625)"/>
       <path id="DejaVuSans-5f" d="M 3263 -1063 
L 3263 -1509 
L -63 -1509 
L -63 -1063 
L 3263 -1063 
z
" transform="scale(0.015625)"/>
      </defs>
      <use xlink:href="#DejaVuSans-47"/>
      <use xlink:href="#DejaVuSans-52" transform="translate(77.490234 0)"/>
      <use xlink:href="#DejaVuSans-41" transform="translate(142.972656 0)"/>
      <use xlink:href="#DejaVuSans-44" transform="translate(211.380859 0)"/>
      <use xlink:href="#DejaVuSans-45" transform="translate(288.382812 0)"/>
      <use xlink:href="#DejaVuSans-5f" transform="translate(351.566406 0)"/>
      <use xlink:href="#DejaVuSans-43" transform="translate(401.566406 0)"/>
     </g>
    </g>
    <g id="LineCollection_4">
     <path d="M 480.07275 141.610937 
L 480.07275 131.610937 
" style="fill: none; stroke: #d62728"/>
    </g>
    <g id="line2d_25">
     <path d="M 470.07275 136.610937 
L 490.07275 136.610937 
" style="fill: none; stroke-dasharray: 3.7,1.6; stroke-dashoffset: 0; stroke: #d62728"/>
    </g>
    <g id="line2d_26">
     <g>
      <use xlink:href="#m8dfbdd8062" x="480.07275" y="136.610937" style="fill: #d62728; stroke: #000000; stroke-linejoin: miter"/>
     </g>
    </g>
    <g id="text_20">
     <!-- GRADE_C±SD (n=9) -->
     <g transform="translate(498.07275 140.110937) scale(0.1 -0.1)">
      <use xlink:href="#DejaVuSans-47"/>
      <use xlink:href="#DejaVuSans-52" transform="translate(77.490234 0)"/>
      <use xlink:href="#DejaVuSans-41" transform="translate(142.972656 0)"/>
      <use xlink:href="#DejaVuSans-44" transform="translate(211.380859 0)"/>
      <use xlink:href="#DejaVuSans-45" transform="translate(288.382812 0)"/>
      <use xlink:href="#DejaVuSans-5f" transform="translate(351.566406 0)"/>
      <use xlink:href="#DejaVuSans-43" transform="translate(401.566406 0)"/>
      <use xlink:href="#DejaVuSans-b1" transform="translate(471.390625 0)"/>
      <use xlink:href="#DejaVuSans-53" transform="translate(555.179688 0)"/>
      <use xlink:href="#DejaVuSans-44" transform="translate(618.65625 0)"/>
      <use xlink:href="#DejaVuSans-20" transform="translate(695.658203 0)"/>
      <use xlink:href="#DejaVuSans-28" transform="translate(727.445312 0)"/>
      <use xlink:href="#DejaVuSans-6e" transform="translate(766.458984 0)"/>
      <use xlink:href="#DejaVuSans-3d" transform="translate(829.837891 0)"/>
      <use xlink:href="#DejaVuSans-39" transform="translate(913.626953 0)"/>
      <use xlink:href="#DejaVuSans-29" transform="translate(977.25 0)"/>
     </g>
    </g>
   </g>
  </g>
  <g id="axes_2">
   <g id="patch_8">
    <path d="M 54.84875 633.6 
L 445.44875 633.6 
L 445.44875 392.556522 
L 54.84875 392.556522 
z
" style="fill: #ffffff"/>
   </g>
   <g id="matplotlib.axis_3">
    <g id="xtick_9">
     <g id="line2d_27">
      <g>
       <use xlink:href="#m818da6b7a5" x="62.820179" y="633.6" style="stroke: #000000; stroke-width: 0.8"/>
      </g>
     </g>
     <g id="text_21">
      <!-- 0 -->
      <g transform="translate(58.048304 651.997656) scale(0.15 -0.15)">
       <use xlink:href="#DejaVuSans-30"/>
      </g>
     </g>
    </g>
    <g id="xtick_10">
     <g id="line2d_28">
      <g>
       <use xlink:href="#m818da6b7a5" x="142.534464" y="633.6" style="stroke: #000000; stroke-width: 0.8"/>
      </g>
     </g>
     <g id="text_22">
      <!-- 10 -->
      <g transform="translate(132.990714 651.997656) scale(0.15 -0.15)">
       <use xlink:href="#DejaVuSans-31"/>
       <use xlink:href="#DejaVuSans-30" transform="translate(63.623047 0)"/>
      </g>
     </g>
    </g>
    <g id="xtick_11">
     <g id="line2d_29">
      <g>
       <use xlink:href="#m818da6b7a5" x="222.24875" y="633.6" style="stroke: #000000; stroke-width: 0.8"/>
      </g>
     </g>
     <g id="text_23">
      <!-- 20 -->
      <g transform="translate(212.705 651.997656) scale(0.15 -0.15)">
       <use xlink:href="#DejaVuSans-32"/>
       <use xlink:href="#DejaVuSans-30" transform="translate(63.623047 0)"/>
      </g>
     </g>
    </g>
    <g id="xtick_12">
     <g id="line2d_30">
      <g>
       <use xlink:href="#m818da6b7a5" x="301.963036" y="633.6" style="stroke: #000000; stroke-width: 0.8"/>
      </g>
     </g>
     <g id="text_24">
      <!-- 30 -->
      <g transform="translate(292.419286 651.997656) scale(0.15 -0.15)">
       <use xlink:href="#DejaVuSans-33"/>
       <use xlink:href="#DejaVuSans-30" transform="translate(63.623047 0)"/>
      </g>
     </g>
    </g>
    <g id="xtick_13">
     <g id="line2d_31">
      <g>
       <use xlink:href="#m818da6b7a5" x="381.677321" y="633.6" style="stroke: #000000; stroke-width: 0.8"/>
      </g>
     </g>
     <g id="text_25">
      <!-- 40 -->
      <g transform="translate(372.133571 651.997656) scale(0.15 -0.15)">
       <defs>
        <path id="DejaVuSans-34" d="M 2419 4116 
L 825 1625 
L 2419 1625 
L 2419 4116 
z
M 2253 4666 
L 3047 4666 
L 3047 1625 
L 3713 1625 
L 3713 1100 
L 3047 1100 
L 3047 0 
L 2419 0 
L 2419 1100 
L 313 1100 
L 313 1709 
L 2253 4666 
z
" transform="scale(0.015625)"/>
       </defs>
       <use xlink:href="#DejaVuSans-34"/>
       <use xlink:href="#DejaVuSans-30" transform="translate(63.623047 0)"/>
      </g>
     </g>
    </g>
    <g id="text_26">
     <!-- time [hr] -->
     <g transform="translate(205.074219 672.794375) scale(0.18 -0.18)">
      <use xlink:href="#DejaVuSans-Bold-74"/>
      <use xlink:href="#DejaVuSans-Bold-69" transform="translate(47.802734 0)"/>
      <use xlink:href="#DejaVuSans-Bold-6d" transform="translate(82.080078 0)"/>
      <use xlink:href="#DejaVuSans-Bold-65" transform="translate(186.279297 0)"/>
      <use xlink:href="#DejaVuSans-Bold-20" transform="translate(254.101562 0)"/>
      <use xlink:href="#DejaVuSans-Bold-5b" transform="translate(288.916016 0)"/>
      <use xlink:href="#DejaVuSans-Bold-68" transform="translate(334.619141 0)"/>
      <use xlink:href="#DejaVuSans-Bold-72" transform="translate(405.810547 0)"/>
      <use xlink:href="#DejaVuSans-Bold-5d" transform="translate(455.126953 0)"/>
     </g>
    </g>
   </g>
   <g id="matplotlib.axis_4">
    <g id="ytick_7">
     <g id="line2d_32">
      <g>
       <use xlink:href="#m9bec1eb13c" x="54.84875" y="622.643478" style="stroke: #000000; stroke-width: 0.8"/>
      </g>
     </g>
     <g id="text_27">
      <!-- 0 -->
      <g transform="translate(38.305 628.342306) scale(0.15 -0.15)">
       <use xlink:href="#DejaVuSans-30"/>
      </g>
     </g>
    </g>
    <g id="ytick_8">
     <g id="line2d_33">
      <g>
       <use xlink:href="#m9bec1eb13c" x="54.84875" y="582.310608" style="stroke: #000000; stroke-width: 0.8"/>
      </g>
     </g>
     <g id="text_28">
      <!-- 5 -->
      <g transform="translate(38.305 588.009436) scale(0.15 -0.15)">
       <use xlink:href="#DejaVuSans-35"/>
      </g>
     </g>
    </g>
    <g id="ytick_9">
     <g id="line2d_34">
      <g>
       <use xlink:href="#m9bec1eb13c" x="54.84875" y="541.977738" style="stroke: #000000; stroke-width: 0.8"/>
      </g>
     </g>
     <g id="text_29">
      <!-- 10 -->
      <g transform="translate(28.76125 547.676566) scale(0.15 -0.15)">
       <use xlink:href="#DejaVuSans-31"/>
       <use xlink:href="#DejaVuSans-30" transform="translate(63.623047 0)"/>
      </g>
     </g>
    </g>
    <g id="ytick_10">
     <g id="line2d_35">
      <g>
       <use xlink:href="#m9bec1eb13c" x="54.84875" y="501.644867" style="stroke: #000000; stroke-width: 0.8"/>
      </g>
     </g>
     <g id="text_30">
      <!-- 15 -->
      <g transform="translate(28.76125 507.343695) scale(0.15 -0.15)">
       <use xlink:href="#DejaVuSans-31"/>
       <use xlink:href="#DejaVuSans-35" transform="translate(63.623047 0)"/>
      </g>
     </g>
    </g>
    <g id="ytick_11">
     <g id="line2d_36">
      <g>
       <use xlink:href="#m9bec1eb13c" x="54.84875" y="461.311997" style="stroke: #000000; stroke-width: 0.8"/>
      </g>
     </g>
     <g id="text_31">
      <!-- 20 -->
      <g transform="translate(28.76125 467.010825) scale(0.15 -0.15)">
       <use xlink:href="#DejaVuSans-32"/>
       <use xlink:href="#DejaVuSans-30" transform="translate(63.623047 0)"/>
      </g>
     </g>
    </g>
    <g id="ytick_12">
     <g id="line2d_37">
      <g>
       <use xlink:href="#m9bec1eb13c" x="54.84875" y="420.979127" style="stroke: #000000; stroke-width: 0.8"/>
      </g>
     </g>
     <g id="text_32">
      <!-- 25 -->
      <g transform="translate(28.76125 426.677955) scale(0.15 -0.15)">
       <use xlink:href="#DejaVuSans-32"/>
       <use xlink:href="#DejaVuSans-35" transform="translate(63.623047 0)"/>
      </g>
     </g>
    </g>
    <g id="text_33">
     <!-- rapamycin blood [µM] -->
     <g transform="translate(20.877187 624.585448) rotate(-90) scale(0.18 -0.18)">
      <use xlink:href="#DejaVuSans-Bold-72"/>
      <use xlink:href="#DejaVuSans-Bold-61" transform="translate(49.316406 0)"/>
      <use xlink:href="#DejaVuSans-Bold-70" transform="translate(116.796875 0)"/>
      <use xlink:href="#DejaVuSans-Bold-61" transform="translate(188.378906 0)"/>
      <use xlink:href="#DejaVuSans-Bold-6d" transform="translate(255.859375 0)"/>
      <use xlink:href="#DejaVuSans-Bold-79" transform="translate(360.058594 0)"/>
      <use xlink:href="#DejaVuSans-Bold-63" transform="translate(425.244141 0)"/>
      <use xlink:href="#DejaVuSans-Bold-69" transform="translate(484.521484 0)"/>
      <use xlink:href="#DejaVuSans-Bold-6e" transform="translate(518.798828 0)"/>
      <use xlink:href="#DejaVuSans-Bold-20" transform="translate(589.990234 0)"/>
      <use xlink:href="#DejaVuSans-Bold-62" transform="translate(624.804688 0)"/>
      <use xlink:href="#DejaVuSans-Bold-6c" transform="translate(696.386719 0)"/>
      <use xlink:href="#DejaVuSans-Bold-6f" transform="translate(730.664062 0)"/>
      <use xlink:href="#DejaVuSans-Bold-6f" transform="translate(799.365234 0)"/>
      <use xlink:href="#DejaVuSans-Bold-64" transform="translate(868.066406 0)"/>
      <use xlink:href="#DejaVuSans-Bold-20" transform="translate(939.648438 0)"/>
      <use xlink:href="#DejaVuSans-Bold-5b" transform="translate(974.462891 0)"/>
      <use xlink:href="#DejaVuSans-Bold-b5" transform="translate(1020.166016 0)"/>
      <use xlink:href="#DejaVuSans-Bold-4d" transform="translate(1093.75 0)"/>
      <use xlink:href="#DejaVuSans-Bold-5d" transform="translate(1193.261719 0)"/>
     </g>
    </g>
   </g>
   <g id="LineCollection_5">
    <path d="M 65.45075 622.376852 
L 65.45075 622.257968 
" clip-path="url(#p9e2027df7c)" style="fill: none; stroke: #000000"/>
    <path d="M 68.161036 622.076261 
L 68.161036 621.967672 
" clip-path="url(#p9e2027df7c)" style="fill: none; stroke: #000000"/>
    <path d="M 70.791607 622.083234 
L 70.791607 622.011253 
" clip-path="url(#p9e2027df7c)" style="fill: none; stroke: #000000"/>
    <path d="M 78.763036 622.284544 
L 78.763036 622.223566 
" clip-path="url(#p9e2027df7c)" style="fill: none; stroke: #000000"/>
    <path d="M 86.734464 622.384271 
L 86.734464 622.340235 
" clip-path="url(#p9e2027df7c)" style="fill: none; stroke: #000000"/>
    <path d="M 102.677321 622.474257 
L 102.677321 622.441861 
" clip-path="url(#p9e2027df7c)" style="fill: none; stroke: #000000"/>
    <path d="M 126.591607 622.542537 
L 126.591607 622.513601 
" clip-path="url(#p9e2027df7c)" style="fill: none; stroke: #000000"/>
    <path d="M 158.477321 622.580332 
L 158.477321 622.553722 
" clip-path="url(#p9e2027df7c)" style="fill: none; stroke: #000000"/>
    <path d="M 254.134464 622.599697 
L 254.134464 622.590171 
" clip-path="url(#p9e2027df7c)" style="fill: none; stroke: #000000"/>
    <path d="M 445.44875 622.614232 
L 445.44875 622.606788 
" clip-path="url(#p9e2027df7c)" style="fill: none; stroke: #000000"/>
    <path clip-path="url(#p9e2027df7c)" style="fill: none; stroke: #000000"/>
    <path clip-path="url(#p9e2027df7c)" style="fill: none; stroke: #000000"/>
    <path clip-path="url(#p9e2027df7c)" style="fill: none; stroke: #000000"/>
    <path clip-path="url(#p9e2027df7c)" style="fill: none; stroke: #000000"/>
    <path clip-path="url(#p9e2027df7c)" style="fill: none; stroke: #000000"/>
    <path clip-path="url(#p9e2027df7c)" style="fill: none; stroke: #000000"/>
   </g>
   <g id="LineCollection_6">
    <path d="M 65.45075 622.477314 
L 65.45075 622.387705 
" clip-path="url(#p9e2027df7c)" style="fill: none; stroke: #d62728"/>
    <path d="M 68.161036 622.240758 
L 68.161036 622.095299 
" clip-path="url(#p9e2027df7c)" style="fill: none; stroke: #d62728"/>
    <path d="M 70.791607 622.256416 
L 70.791607 622.09511 
" clip-path="url(#p9e2027df7c)" style="fill: none; stroke: #d62728"/>
    <path d="M 78.763036 622.366884 
L 78.763036 622.288312 
" clip-path="url(#p9e2027df7c)" style="fill: none; stroke: #d62728"/>
    <path d="M 86.734464 622.444948 
L 86.734464 622.393355 
" clip-path="url(#p9e2027df7c)" style="fill: none; stroke: #d62728"/>
    <path d="M 102.677321 622.503532 
L 102.677321 622.445209 
" clip-path="url(#p9e2027df7c)" style="fill: none; stroke: #d62728"/>
    <path d="M 126.591607 622.531707 
L 126.591607 622.491336 
" clip-path="url(#p9e2027df7c)" style="fill: none; stroke: #d62728"/>
    <path d="M 158.477321 622.550338 
L 158.477321 622.523027 
" clip-path="url(#p9e2027df7c)" style="fill: none; stroke: #d62728"/>
    <path d="M 254.134464 622.572798 
L 254.134464 622.546186 
" clip-path="url(#p9e2027df7c)" style="fill: none; stroke: #d62728"/>
    <path d="M 445.44875 622.588495 
L 445.44875 622.562729 
" clip-path="url(#p9e2027df7c)" style="fill: none; stroke: #d62728"/>
    <path clip-path="url(#p9e2027df7c)" style="fill: none; stroke: #d62728"/>
    <path clip-path="url(#p9e2027df7c)" style="fill: none; stroke: #d62728"/>
    <path clip-path="url(#p9e2027df7c)" style="fill: none; stroke: #d62728"/>
    <path clip-path="url(#p9e2027df7c)" style="fill: none; stroke: #d62728"/>
    <path clip-path="url(#p9e2027df7c)" style="fill: none; stroke: #d62728"/>
    <path clip-path="url(#p9e2027df7c)" style="fill: none; stroke: #d62728"/>
   </g>
   <g id="line2d_38">
    <path d="M 62.820179 622.643478 
L 64.215179 518.716708 
L 65.610179 423.432903 
L 67.005179 403.513043 
L 68.400179 423.926229 
L 71.190179 489.575499 
L 72.585179 516.69038 
L 73.980179 537.679994 
L 75.375179 553.298752 
L 76.770179 564.667334 
L 78.165179 572.838559 
L 79.560179 578.669535 
L 80.955179 582.814085 
L 82.350179 585.754348 
L 83.745179 587.839217 
L 85.140179 589.318443 
L 86.535179 590.369669 
L 87.930179 591.118777 
L 89.325179 591.654768 
L 92.115179 592.320258 
L 94.905179 592.677816 
L 99.090179 592.953145 
L 107.460179 593.205615 
L 147.915179 593.981916 
L 286.020179 596.443047 
L 429.705179 598.78094 
L 446.445179 599.03946 
L 446.445179 599.03946 
" clip-path="url(#p9e2027df7c)" style="fill: none; stroke: #000000; stroke-width: 2; stroke-linecap: square"/>
   </g>
   <g id="line2d_39">
    <path d="M 65.45075 622.31741 
L 68.161036 622.021966 
L 70.791607 622.047243 
L 78.763036 622.254055 
L 86.734464 622.362253 
L 102.677321 622.458059 
L 126.591607 622.528069 
L 158.477321 622.567027 
L 254.134464 622.594934 
L 445.44875 622.61051 
L 613.59775 622.618164 
" clip-path="url(#p9e2027df7c)" style="fill: none; stroke-dasharray: 3.7,1.6; stroke-dashoffset: 0; stroke: #000000"/>
    <g clip-path="url(#p9e2027df7c)">
     <use xlink:href="#md2c8999462" x="65.45075" y="622.31741" style="stroke: #000000; stroke-linejoin: miter"/>
     <use xlink:href="#md2c8999462" x="68.161036" y="622.021966" style="stroke: #000000; stroke-linejoin: miter"/>
     <use xlink:href="#md2c8999462" x="70.791607" y="622.047243" style="stroke: #000000; stroke-linejoin: miter"/>
     <use xlink:href="#md2c8999462" x="78.763036" y="622.254055" style="stroke: #000000; stroke-linejoin: miter"/>
     <use xlink:href="#md2c8999462" x="86.734464" y="622.362253" style="stroke: #000000; stroke-linejoin: miter"/>
     <use xlink:href="#md2c8999462" x="102.677321" y="622.458059" style="stroke: #000000; stroke-linejoin: miter"/>
     <use xlink:href="#md2c8999462" x="126.591607" y="622.528069" style="stroke: #000000; stroke-linejoin: miter"/>
     <use xlink:href="#md2c8999462" x="158.477321" y="622.567027" style="stroke: #000000; stroke-linejoin: miter"/>
     <use xlink:href="#md2c8999462" x="254.134464" y="622.594934" style="stroke: #000000; stroke-linejoin: miter"/>
     <use xlink:href="#md2c8999462" x="445.44875" y="622.61051" style="stroke: #000000; stroke-linejoin: miter"/>
     <use xlink:href="#md2c8999462" x="636.763036" y="622.619218" style="stroke: #000000; stroke-linejoin: miter"/>
     <use xlink:href="#md2c8999462" x="828.077321" y="622.624645" style="stroke: #000000; stroke-linejoin: miter"/>
     <use xlink:href="#md2c8999462" x="1019.391607" y="622.628462" style="stroke: #000000; stroke-linejoin: miter"/>
     <use xlink:href="#md2c8999462" x="1210.705893" y="622.63228" style="stroke: #000000; stroke-linejoin: miter"/>
     <use xlink:href="#md2c8999462" x="1784.64875" y="622.636724" style="stroke: #000000; stroke-linejoin: miter"/>
     <use xlink:href="#md2c8999462" x="2549.905893" y="622.640675" style="stroke: #000000; stroke-linejoin: miter"/>
    </g>
   </g>
   <g id="line2d_40">
    <path d="M 62.820179 622.643478 
L 65.610179 431.972521 
L 67.005179 411.44884 
L 68.400179 430.192304 
L 71.190179 493.413146 
L 72.585179 519.919932 
L 73.980179 540.5423 
L 75.375179 555.937364 
L 76.770179 567.166116 
L 78.165179 575.247099 
L 79.560179 581.018009 
L 80.955179 585.121497 
L 82.350179 588.033052 
L 83.745179 590.097453 
L 85.140179 591.561814 
L 86.535179 592.602034 
L 87.930179 593.342817 
L 89.325179 593.872356 
L 92.115179 594.528492 
L 94.905179 594.879375 
L 99.090179 595.146967 
L 107.460179 595.386584 
L 149.310179 596.129435 
L 292.995179 598.491384 
L 443.655179 600.743609 
L 446.445179 600.783284 
L 446.445179 600.783284 
" clip-path="url(#p9e2027df7c)" style="fill: none; stroke: #d62728; stroke-width: 2; stroke-linecap: square"/>
   </g>
   <g id="line2d_41">
    <path d="M 65.45075 622.43251 
L 68.161036 622.168029 
L 70.791607 622.175763 
L 78.763036 622.327598 
L 86.734464 622.419151 
L 102.677321 622.47437 
L 126.591607 622.511522 
L 158.477321 622.536682 
L 254.134464 622.559492 
L 445.44875 622.575612 
L 613.59775 622.581621 
" clip-path="url(#p9e2027df7c)" style="fill: none; stroke-dasharray: 3.7,1.6; stroke-dashoffset: 0; stroke: #d62728"/>
    <g clip-path="url(#p9e2027df7c)">
     <use xlink:href="#m8dfbdd8062" x="65.45075" y="622.43251" style="fill: #d62728; stroke: #000000; stroke-linejoin: miter"/>
     <use xlink:href="#m8dfbdd8062" x="68.161036" y="622.168029" style="fill: #d62728; stroke: #000000; stroke-linejoin: miter"/>
     <use xlink:href="#m8dfbdd8062" x="70.791607" y="622.175763" style="fill: #d62728; stroke: #000000; stroke-linejoin: miter"/>
     <use xlink:href="#m8dfbdd8062" x="78.763036" y="622.327598" style="fill: #d62728; stroke: #000000; stroke-linejoin: miter"/>
     <use xlink:href="#m8dfbdd8062" x="86.734464" y="622.419151" style="fill: #d62728; stroke: #000000; stroke-linejoin: miter"/>
     <use xlink:href="#m8dfbdd8062" x="102.677321" y="622.47437" style="fill: #d62728; stroke: #000000; stroke-linejoin: miter"/>
     <use xlink:href="#m8dfbdd8062" x="126.591607" y="622.511522" style="fill: #d62728; stroke: #000000; stroke-linejoin: miter"/>
     <use xlink:href="#m8dfbdd8062" x="158.477321" y="622.536682" style="fill: #d62728; stroke: #000000; stroke-linejoin: miter"/>
     <use xlink:href="#m8dfbdd8062" x="254.134464" y="622.559492" style="fill: #d62728; stroke: #000000; stroke-linejoin: miter"/>
     <use xlink:href="#m8dfbdd8062" x="445.44875" y="622.575612" style="fill: #d62728; stroke: #000000; stroke-linejoin: miter"/>
     <use xlink:href="#m8dfbdd8062" x="636.763036" y="622.582448" style="fill: #d62728; stroke: #000000; stroke-linejoin: miter"/>
     <use xlink:href="#m8dfbdd8062" x="828.077321" y="622.592144" style="fill: #d62728; stroke: #000000; stroke-linejoin: miter"/>
     <use xlink:href="#m8dfbdd8062" x="1019.391607" y="622.598533" style="fill: #d62728; stroke: #000000; stroke-linejoin: miter"/>
     <use xlink:href="#m8dfbdd8062" x="1210.705893" y="622.601406" style="fill: #d62728; stroke: #000000; stroke-linejoin: miter"/>
     <use xlink:href="#m8dfbdd8062" x="1784.64875" y="622.610766" style="fill: #d62728; stroke: #000000; stroke-linejoin: miter"/>
     <use xlink:href="#m8dfbdd8062" x="2549.905893" y="622.620298" style="fill: #d62728; stroke: #000000; stroke-linejoin: miter"/>
    </g>
   </g>
   <g id="patch_9">
    <path d="M 54.84875 633.6 
L 54.84875 392.556522 
" style="fill: none; stroke: #000000; stroke-width: 0.8; stroke-linejoin: miter; stroke-linecap: square"/>
   </g>
   <g id="patch_10">
    <path d="M 445.44875 633.6 
L 445.44875 392.556522 
" style="fill: none; stroke: #000000; stroke-width: 0.8; stroke-linejoin: miter; stroke-linecap: square"/>
   </g>
   <g id="patch_11">
    <path d="M 54.84875 633.6 
L 445.44875 633.6 
" style="fill: none; stroke: #000000; stroke-width: 0.8; stroke-linejoin: miter; stroke-linecap: square"/>
   </g>
   <g id="patch_12">
    <path d="M 54.84875 392.556522 
L 445.44875 392.556522 
" style="fill: none; stroke: #000000; stroke-width: 0.8; stroke-linejoin: miter; stroke-linecap: square"/>
   </g>
   <g id="legend_2">
    <g id="patch_13">
     <path d="M 468.07275 459.825272 
L 603.39775 459.825272 
Q 605.39775 459.825272 605.39775 457.825272 
L 605.39775 399.556522 
Q 605.39775 397.556522 603.39775 397.556522 
L 468.07275 397.556522 
Q 466.07275 397.556522 466.07275 399.556522 
L 466.07275 457.825272 
Q 466.07275 459.825272 468.07275 459.825272 
z
" style="fill: #ffffff; opacity: 0.8; stroke: #cccccc; stroke-linejoin: miter"/>
    </g>
    <g id="line2d_42">
     <path d="M 470.07275 405.654959 
L 490.07275 405.654959 
" style="fill: none; stroke: #000000; stroke-width: 2; stroke-linecap: square"/>
    </g>
    <g id="line2d_43"/>
    <g id="text_34">
     <!-- CONTROL -->
     <g transform="translate(498.07275 409.154959) scale(0.1 -0.1)">
      <use xlink:href="#DejaVuSans-43"/>
      <use xlink:href="#DejaVuSans-4f" transform="translate(69.824219 0)"/>
      <use xlink:href="#DejaVuSans-4e" transform="translate(148.535156 0)"/>
      <use xlink:href="#DejaVuSans-54" transform="translate(223.339844 0)"/>
      <use xlink:href="#DejaVuSans-52" transform="translate(284.423828 0)"/>
      <use xlink:href="#DejaVuSans-4f" transform="translate(353.90625 0)"/>
      <use xlink:href="#DejaVuSans-4c" transform="translate(432.617188 0)"/>
     </g>
    </g>
    <g id="LineCollection_7">
     <path d="M 480.07275 425.333084 
L 480.07275 415.333084 
" style="fill: none; stroke: #000000"/>
    </g>
    <g id="line2d_44">
     <path d="M 470.07275 420.333084 
L 490.07275 420.333084 
" style="fill: none; stroke-dasharray: 3.7,1.6; stroke-dashoffset: 0; stroke: #000000"/>
    </g>
    <g id="line2d_45">
     <g>
      <use xlink:href="#md2c8999462" x="480.07275" y="420.333084" style="stroke: #000000; stroke-linejoin: miter"/>
     </g>
    </g>
    <g id="text_35">
     <!-- CONTROL±SD (n=9) -->
     <g transform="translate(498.07275 423.833084) scale(0.1 -0.1)">
      <use xlink:href="#DejaVuSans-43"/>
      <use xlink:href="#DejaVuSans-4f" transform="translate(69.824219 0)"/>
      <use xlink:href="#DejaVuSans-4e" transform="translate(148.535156 0)"/>
      <use xlink:href="#DejaVuSans-54" transform="translate(223.339844 0)"/>
      <use xlink:href="#DejaVuSans-52" transform="translate(284.423828 0)"/>
      <use xlink:href="#DejaVuSans-4f" transform="translate(353.90625 0)"/>
      <use xlink:href="#DejaVuSans-4c" transform="translate(432.617188 0)"/>
      <use xlink:href="#DejaVuSans-b1" transform="translate(488.330078 0)"/>
      <use xlink:href="#DejaVuSans-53" transform="translate(572.119141 0)"/>
      <use xlink:href="#DejaVuSans-44" transform="translate(635.595703 0)"/>
      <use xlink:href="#DejaVuSans-20" transform="translate(712.597656 0)"/>
      <use xlink:href="#DejaVuSans-28" transform="translate(744.384766 0)"/>
      <use xlink:href="#DejaVuSans-6e" transform="translate(783.398438 0)"/>
      <use xlink:href="#DejaVuSans-3d" transform="translate(846.777344 0)"/>
      <use xlink:href="#DejaVuSans-39" transform="translate(930.566406 0)"/>
      <use xlink:href="#DejaVuSans-29" transform="translate(994.189453 0)"/>
     </g>
    </g>
    <g id="line2d_46">
     <path d="M 470.07275 435.011209 
L 490.07275 435.011209 
" style="fill: none; stroke: #d62728; stroke-width: 2; stroke-linecap: square"/>
    </g>
    <g id="line2d_47"/>
    <g id="text_36">
     <!-- GRADE_C -->
     <g transform="translate(498.07275 438.511209) scale(0.1 -0.1)">
      <use xlink:href="#DejaVuSans-47"/>
      <use xlink:href="#DejaVuSans-52" transform="translate(77.490234 0)"/>
      <use xlink:href="#DejaVuSans-41" transform="translate(142.972656 0)"/>
      <use xlink:href="#DejaVuSans-44" transform="translate(211.380859 0)"/>
      <use xlink:href="#DejaVuSans-45" transform="translate(288.382812 0)"/>
      <use xlink:href="#DejaVuSans-5f" transform="translate(351.566406 0)"/>
      <use xlink:href="#DejaVuSans-43" transform="translate(401.566406 0)"/>
     </g>
    </g>
    <g id="LineCollection_8">
     <path d="M 480.07275 454.967459 
L 480.07275 444.967459 
" style="fill: none; stroke: #d62728"/>
    </g>
    <g id="line2d_48">
     <path d="M 470.07275 449.967459 
L 490.07275 449.967459 
" style="fill: none; stroke-dasharray: 3.7,1.6; stroke-dashoffset: 0; stroke: #d62728"/>
    </g>
    <g id="line2d_49">
     <g>
      <use xlink:href="#m8dfbdd8062" x="480.07275" y="449.967459" style="fill: #d62728; stroke: #000000; stroke-linejoin: miter"/>
     </g>
    </g>
    <g id="text_37">
     <!-- GRADE_C±SD (n=9) -->
     <g transform="translate(498.07275 453.467459) scale(0.1 -0.1)">
      <use xlink:href="#DejaVuSans-47"/>
      <use xlink:href="#DejaVuSans-52" transform="translate(77.490234 0)"/>
      <use xlink:href="#DejaVuSans-41" transform="translate(142.972656 0)"/>
      <use xlink:href="#DejaVuSans-44" transform="translate(211.380859 0)"/>
      <use xlink:href="#DejaVuSans-45" transform="translate(288.382812 0)"/>
      <use xlink:href="#DejaVuSans-5f" transform="translate(351.566406 0)"/>
      <use xlink:href="#DejaVuSans-43" transform="translate(401.566406 0)"/>
      <use xlink:href="#DejaVuSans-b1" transform="translate(471.390625 0)"/>
      <use xlink:href="#DejaVuSans-53" transform="translate(555.179688 0)"/>
      <use xlink:href="#DejaVuSans-44" transform="translate(618.65625 0)"/>
      <use xlink:href="#DejaVuSans-20" transform="translate(695.658203 0)"/>
      <use xlink:href="#DejaVuSans-28" transform="translate(727.445312 0)"/>
      <use xlink:href="#DejaVuSans-6e" transform="translate(766.458984 0)"/>
      <use xlink:href="#DejaVuSans-3d" transform="translate(829.837891 0)"/>
      <use xlink:href="#DejaVuSans-39" transform="translate(913.626953 0)"/>
      <use xlink:href="#DejaVuSans-29" transform="translate(977.25 0)"/>
     </g>
    </g>
   </g>
  </g>
  <g id="text_38">
   <!-- Zimmerman2008 -->
   <g transform="translate(124.657344 26.196094) scale(0.25 -0.25)">
    <defs>
     <path id="DejaVuSans-Bold-5a" d="M 359 4666 
L 4281 4666 
L 4281 3938 
L 1778 909 
L 4353 909 
L 4353 0 
L 288 0 
L 288 728 
L 2791 3756 
L 359 3756 
L 359 4666 
z
" transform="scale(0.015625)"/>
     <path id="DejaVuSans-Bold-32" d="M 1844 884 
L 3897 884 
L 3897 0 
L 506 0 
L 506 884 
L 2209 2388 
Q 2438 2594 2547 2791 
Q 2656 2988 2656 3200 
Q 2656 3528 2436 3728 
Q 2216 3928 1850 3928 
Q 1569 3928 1234 3808 
Q 900 3688 519 3450 
L 519 4475 
Q 925 4609 1322 4679 
Q 1719 4750 2100 4750 
Q 2938 4750 3402 4381 
Q 3866 4013 3866 3353 
Q 3866 2972 3669 2642 
Q 3472 2313 2841 1759 
L 1844 884 
z
" transform="scale(0.015625)"/>
     <path id="DejaVuSans-Bold-30" d="M 2944 2338 
Q 2944 3213 2780 3570 
Q 2616 3928 2228 3928 
Q 1841 3928 1675 3570 
Q 1509 3213 1509 2338 
Q 1509 1453 1675 1090 
Q 1841 728 2228 728 
Q 2613 728 2778 1090 
Q 2944 1453 2944 2338 
z
M 4147 2328 
Q 4147 1169 3647 539 
Q 3147 -91 2228 -91 
Q 1306 -91 806 539 
Q 306 1169 306 2328 
Q 306 3491 806 4120 
Q 1306 4750 2228 4750 
Q 3147 4750 3647 4120 
Q 4147 3491 4147 2328 
z
" transform="scale(0.015625)"/>
     <path id="DejaVuSans-Bold-38" d="M 2228 2088 
Q 1891 2088 1709 1903 
Q 1528 1719 1528 1375 
Q 1528 1031 1709 848 
Q 1891 666 2228 666 
Q 2563 666 2741 848 
Q 2919 1031 2919 1375 
Q 2919 1722 2741 1905 
Q 2563 2088 2228 2088 
z
M 1350 2484 
Q 925 2613 709 2878 
Q 494 3144 494 3541 
Q 494 4131 934 4440 
Q 1375 4750 2228 4750 
Q 3075 4750 3515 4442 
Q 3956 4134 3956 3541 
Q 3956 3144 3739 2878 
Q 3522 2613 3097 2484 
Q 3572 2353 3814 2058 
Q 4056 1763 4056 1313 
Q 4056 619 3595 264 
Q 3134 -91 2228 -91 
Q 1319 -91 855 264 
Q 391 619 391 1313 
Q 391 1763 633 2058 
Q 875 2353 1350 2484 
z
M 1631 3419 
Q 1631 3141 1786 2991 
Q 1941 2841 2228 2841 
Q 2509 2841 2662 2991 
Q 2816 3141 2816 3419 
Q 2816 3697 2662 3845 
Q 2509 3994 2228 3994 
Q 1941 3994 1786 3844 
Q 1631 3694 1631 3419 
z
" transform="scale(0.015625)"/>
    </defs>
    <use xlink:href="#DejaVuSans-Bold-5a"/>
    <use xlink:href="#DejaVuSans-Bold-69" transform="translate(72.509766 0)"/>
    <use xlink:href="#DejaVuSans-Bold-6d" transform="translate(106.787109 0)"/>
    <use xlink:href="#DejaVuSans-Bold-6d" transform="translate(210.986328 0)"/>
    <use xlink:href="#DejaVuSans-Bold-65" transform="translate(315.185547 0)"/>
    <use xlink:href="#DejaVuSans-Bold-72" transform="translate(383.007812 0)"/>
    <use xlink:href="#DejaVuSans-Bold-6d" transform="translate(432.324219 0)"/>
    <use xlink:href="#DejaVuSans-Bold-61" transform="translate(536.523438 0)"/>
    <use xlink:href="#DejaVuSans-Bold-6e" transform="translate(604.003906 0)"/>
    <use xlink:href="#DejaVuSans-Bold-32" transform="translate(675.195312 0)"/>
    <use xlink:href="#DejaVuSans-Bold-30" transform="translate(744.775391 0)"/>
    <use xlink:href="#DejaVuSans-Bold-30" transform="translate(814.355469 0)"/>
    <use xlink:href="#DejaVuSans-Bold-38" transform="translate(883.935547 0)"/>
   </g>
  </g>
 </g>
 <defs>
  <clipPath id="p2bf9240216">
   <rect x="54.84875" y="79.2" width="390.6" height="241.043478"/>
  </clipPath>
  <clipPath id="p9e2027df7c">
   <rect x="54.84875" y="392.556522" width="390.6" height="241.043478"/>
  </clipPath>
 </defs>
</svg>
