<?xml version="1.0" encoding="utf-8" standalone="no"?>
<!DOCTYPE svg PUBLIC "-//W3C//DTD SVG 1.1//EN"
  "http://www.w3.org/Graphics/SVG/1.1/DTD/svg11.dtd">
<svg xmlns:xlink="http://www.w3.org/1999/xlink" width="612.013375pt" height="683.737812pt" viewBox="0 0 612.013375 683.737812" xmlns="http://www.w3.org/2000/svg" version="1.1">
 <metadata>
  <rdf:RDF xmlns:dc="http://purl.org/dc/elements/1.1/" xmlns:cc="http://creativecommons.org/ns#" xmlns:rdf="http://www.w3.org/1999/02/22-rdf-syntax-ns#">
   <cc:Work>
    <dc:type rdf:resource="http://purl.org/dc/dcmitype/StillImage"/>
    <dc:date>2025-09-10T11:19:52.524091</dc:date>
    <dc:format>image/svg+xml</dc:format>
    <dc:creator>
     <cc:Agent>
      <dc:title>Matplotlib v3.10.6, https://matplotlib.org/</dc:title>
     </cc:Agent>
    </dc:creator>
   </cc:Work>
  </rdf:RDF>
 </metadata>
 <defs>
  <style type="text/css">*{stroke-linejoin: round; stroke-linecap: butt}</style>
 </defs>
 <g id="figure_1">
  <g id="patch_1">
   <path d="M 0 683.737812 
L 612.013375 683.737812 
L 612.013375 0 
L 0 0 
z
" style="fill: #ffffff"/>
  </g>
  <g id="axes_1">
   <g id="patch_2">
    <path d="M 54.84875 320.243478 
L 445.44875 320.243478 
L 445.44875 79.2 
L 54.84875 79.2 
z
" style="fill: #ffffff"/>
   </g>
   <g id="matplotlib.axis_1">
    <g id="xtick_1">
     <g id="line2d_1">
      <defs>
       <path id="m0c931375d7" d="M 0 0 
L 0 3.5 
" style="stroke: #000000; stroke-width: 0.8"/>
      </defs>
      <g>
       <use xlink:href="#m0c931375d7" x="72.603295" y="320.243478" style="stroke: #000000; stroke-width: 0.8"/>
      </g>
     </g>
     <g id="text_1">
      <!-- 0 -->
      <g transform="translate(67.83142 338.641135) scale(0.15 -0.15)">
       <defs>
        <path id="DejaVuSans-30" d="M 2034 4250 
Q 1547 4250 1301 3770 
Q 1056 3291 1056 2328 
Q 1056 1369 1301 889 
Q 1547 409 2034 409 
Q 2525 409 2770 889 
Q 3016 1369 3016 2328 
Q 3016 3291 2770 3770 
Q 2525 4250 2034 4250 
z
M 2034 4750 
Q 2819 4750 3233 4129 
Q 3647 3509 3647 2328 
Q 3647 1150 3233 529 
Q 2819 -91 2034 -91 
Q 1250 -91 836 529 
Q 422 1150 422 2328 
Q 422 3509 836 4129 
Q 1250 4750 2034 4750 
z
" transform="scale(0.015625)"/>
       </defs>
       <use xlink:href="#DejaVuSans-30"/>
      </g>
     </g>
    </g>
    <g id="xtick_2">
     <g id="line2d_2">
      <g>
       <use xlink:href="#m0c931375d7" x="123.330568" y="320.243478" style="stroke: #000000; stroke-width: 0.8"/>
      </g>
     </g>
     <g id="text_2">
      <!-- 50 -->
      <g transform="translate(113.786818 338.641135) scale(0.15 -0.15)">
       <defs>
        <path id="DejaVuSans-35" d="M 691 4666 
L 3169 4666 
L 3169 4134 
L 1269 4134 
L 1269 2991 
Q 1406 3038 1543 3061 
Q 1681 3084 1819 3084 
Q 2600 3084 3056 2656 
Q 3513 2228 3513 1497 
Q 3513 744 3044 326 
Q 2575 -91 1722 -91 
Q 1428 -91 1123 -41 
Q 819 9 494 109 
L 494 744 
Q 775 591 1075 516 
Q 1375 441 1709 441 
Q 2250 441 2565 725 
Q 2881 1009 2881 1497 
Q 2881 1984 2565 2268 
Q 2250 2553 1709 2553 
Q 1456 2553 1204 2497 
Q 953 2441 691 2322 
L 691 4666 
z
" transform="scale(0.015625)"/>
       </defs>
       <use xlink:href="#DejaVuSans-35"/>
       <use xlink:href="#DejaVuSans-30" transform="translate(63.623047 0)"/>
      </g>
     </g>
    </g>
    <g id="xtick_3">
     <g id="line2d_3">
      <g>
       <use xlink:href="#m0c931375d7" x="174.057841" y="320.243478" style="stroke: #000000; stroke-width: 0.8"/>
      </g>
     </g>
     <g id="text_3">
      <!-- 100 -->
      <g transform="translate(159.742216 338.641135) scale(0.15 -0.15)">
       <defs>
        <path id="DejaVuSans-31" d="M 794 531 
L 1825 531 
L 1825 4091 
L 703 3866 
L 703 4441 
L 1819 4666 
L 2450 4666 
L 2450 531 
L 3481 531 
L 3481 0 
L 794 0 
L 794 531 
z
" transform="scale(0.015625)"/>
       </defs>
       <use xlink:href="#DejaVuSans-31"/>
       <use xlink:href="#DejaVuSans-30" transform="translate(63.623047 0)"/>
       <use xlink:href="#DejaVuSans-30" transform="translate(127.246094 0)"/>
      </g>
     </g>
    </g>
    <g id="xtick_4">
     <g id="line2d_4">
      <g>
       <use xlink:href="#m0c931375d7" x="224.785114" y="320.243478" style="stroke: #000000; stroke-width: 0.8"/>
      </g>
     </g>
     <g id="text_4">
      <!-- 150 -->
      <g transform="translate(210.469489 338.641135) scale(0.15 -0.15)">
       <use xlink:href="#DejaVuSans-31"/>
       <use xlink:href="#DejaVuSans-35" transform="translate(63.623047 0)"/>
       <use xlink:href="#DejaVuSans-30" transform="translate(127.246094 0)"/>
      </g>
     </g>
    </g>
    <g id="xtick_5">
     <g id="line2d_5">
      <g>
       <use xlink:href="#m0c931375d7" x="275.512386" y="320.243478" style="stroke: #000000; stroke-width: 0.8"/>
      </g>
     </g>
     <g id="text_5">
      <!-- 200 -->
      <g transform="translate(261.196761 338.641135) scale(0.15 -0.15)">
       <defs>
        <path id="DejaVuSans-32" d="M 1228 531 
L 3431 531 
L 3431 0 
L 469 0 
L 469 531 
Q 828 903 1448 1529 
Q 2069 2156 2228 2338 
Q 2531 2678 2651 2914 
Q 2772 3150 2772 3378 
Q 2772 3750 2511 3984 
Q 2250 4219 1831 4219 
Q 1534 4219 1204 4116 
Q 875 4013 500 3803 
L 500 4441 
Q 881 4594 1212 4672 
Q 1544 4750 1819 4750 
Q 2544 4750 2975 4387 
Q 3406 4025 3406 3419 
Q 3406 3131 3298 2873 
Q 3191 2616 2906 2266 
Q 2828 2175 2409 1742 
Q 1991 1309 1228 531 
z
" transform="scale(0.015625)"/>
       </defs>
       <use xlink:href="#DejaVuSans-32"/>
       <use xlink:href="#DejaVuSans-30" transform="translate(63.623047 0)"/>
       <use xlink:href="#DejaVuSans-30" transform="translate(127.246094 0)"/>
      </g>
     </g>
    </g>
    <g id="xtick_6">
     <g id="line2d_6">
      <g>
       <use xlink:href="#m0c931375d7" x="326.239659" y="320.243478" style="stroke: #000000; stroke-width: 0.8"/>
      </g>
     </g>
     <g id="text_6">
      <!-- 250 -->
      <g transform="translate(311.924034 338.641135) scale(0.15 -0.15)">
       <use xlink:href="#DejaVuSans-32"/>
       <use xlink:href="#DejaVuSans-35" transform="translate(63.623047 0)"/>
       <use xlink:href="#DejaVuSans-30" transform="translate(127.246094 0)"/>
      </g>
     </g>
    </g>
    <g id="xtick_7">
     <g id="line2d_7">
      <g>
       <use xlink:href="#m0c931375d7" x="376.966932" y="320.243478" style="stroke: #000000; stroke-width: 0.8"/>
      </g>
     </g>
     <g id="text_7">
      <!-- 300 -->
      <g transform="translate(362.651307 338.641135) scale(0.15 -0.15)">
       <defs>
        <path id="DejaVuSans-33" d="M 2597 2516 
Q 3050 2419 3304 2112 
Q 3559 1806 3559 1356 
Q 3559 666 3084 287 
Q 2609 -91 1734 -91 
Q 1441 -91 1130 -33 
Q 819 25 488 141 
L 488 750 
Q 750 597 1062 519 
Q 1375 441 1716 441 
Q 2309 441 2620 675 
Q 2931 909 2931 1356 
Q 2931 1769 2642 2001 
Q 2353 2234 1838 2234 
L 1294 2234 
L 1294 2753 
L 1863 2753 
Q 2328 2753 2575 2939 
Q 2822 3125 2822 3475 
Q 2822 3834 2567 4026 
Q 2313 4219 1838 4219 
Q 1578 4219 1281 4162 
Q 984 4106 628 3988 
L 628 4550 
Q 988 4650 1302 4700 
Q 1616 4750 1894 4750 
Q 2613 4750 3031 4423 
Q 3450 4097 3450 3541 
Q 3450 3153 3228 2886 
Q 3006 2619 2597 2516 
z
" transform="scale(0.015625)"/>
       </defs>
       <use xlink:href="#DejaVuSans-33"/>
       <use xlink:href="#DejaVuSans-30" transform="translate(63.623047 0)"/>
       <use xlink:href="#DejaVuSans-30" transform="translate(127.246094 0)"/>
      </g>
     </g>
    </g>
    <g id="xtick_8">
     <g id="line2d_8">
      <g>
       <use xlink:href="#m0c931375d7" x="427.694205" y="320.243478" style="stroke: #000000; stroke-width: 0.8"/>
      </g>
     </g>
     <g id="text_8">
      <!-- 350 -->
      <g transform="translate(413.37858 338.641135) scale(0.15 -0.15)">
       <use xlink:href="#DejaVuSans-33"/>
       <use xlink:href="#DejaVuSans-35" transform="translate(63.623047 0)"/>
       <use xlink:href="#DejaVuSans-30" transform="translate(127.246094 0)"/>
      </g>
     </g>
    </g>
    <g id="text_9">
     <!-- time [hr] -->
     <g transform="translate(205.074219 359.437853) scale(0.18 -0.18)">
      <defs>
       <path id="DejaVuSans-Bold-74" d="M 1759 4494 
L 1759 3500 
L 2913 3500 
L 2913 2700 
L 1759 2700 
L 1759 1216 
Q 1759 972 1856 886 
Q 1953 800 2241 800 
L 2816 800 
L 2816 0 
L 1856 0 
Q 1194 0 917 276 
Q 641 553 641 1216 
L 641 2700 
L 84 2700 
L 84 3500 
L 641 3500 
L 641 4494 
L 1759 4494 
z
" transform="scale(0.015625)"/>
       <path id="DejaVuSans-Bold-69" d="M 538 3500 
L 1656 3500 
L 1656 0 
L 538 0 
L 538 3500 
z
M 538 4863 
L 1656 4863 
L 1656 3950 
L 538 3950 
L 538 4863 
z
" transform="scale(0.015625)"/>
       <path id="DejaVuSans-Bold-6d" d="M 3781 2919 
Q 3994 3244 4286 3414 
Q 4578 3584 4928 3584 
Q 5531 3584 5847 3212 
Q 6163 2841 6163 2131 
L 6163 0 
L 5038 0 
L 5038 1825 
Q 5041 1866 5042 1909 
Q 5044 1953 5044 2034 
Q 5044 2406 4934 2573 
Q 4825 2741 4581 2741 
Q 4263 2741 4089 2478 
Q 3916 2216 3909 1719 
L 3909 0 
L 2784 0 
L 2784 1825 
Q 2784 2406 2684 2573 
Q 2584 2741 2328 2741 
Q 2006 2741 1831 2477 
Q 1656 2213 1656 1722 
L 1656 0 
L 531 0 
L 531 3500 
L 1656 3500 
L 1656 2988 
Q 1863 3284 2130 3434 
Q 2397 3584 2719 3584 
Q 3081 3584 3359 3409 
Q 3638 3234 3781 2919 
z
" transform="scale(0.015625)"/>
       <path id="DejaVuSans-Bold-65" d="M 4031 1759 
L 4031 1441 
L 1416 1441 
Q 1456 1047 1700 850 
Q 1944 653 2381 653 
Q 2734 653 3104 758 
Q 3475 863 3866 1075 
L 3866 213 
Q 3469 63 3072 -14 
Q 2675 -91 2278 -91 
Q 1328 -91 801 392 
Q 275 875 275 1747 
Q 275 2603 792 3093 
Q 1309 3584 2216 3584 
Q 3041 3584 3536 3087 
Q 4031 2591 4031 1759 
z
M 2881 2131 
Q 2881 2450 2695 2645 
Q 2509 2841 2209 2841 
Q 1884 2841 1681 2658 
Q 1478 2475 1428 2131 
L 2881 2131 
z
" transform="scale(0.015625)"/>
       <path id="DejaVuSans-Bold-20" transform="scale(0.015625)"/>
       <path id="DejaVuSans-Bold-5b" d="M 550 4863 
L 2491 4863 
L 2491 4159 
L 1613 4159 
L 1613 -141 
L 2491 -141 
L 2491 -844 
L 550 -844 
L 550 4863 
z
" transform="scale(0.015625)"/>
       <path id="DejaVuSans-Bold-68" d="M 4056 2131 
L 4056 0 
L 2931 0 
L 2931 347 
L 2931 1625 
Q 2931 2084 2911 2256 
Q 2891 2428 2841 2509 
Q 2775 2619 2662 2680 
Q 2550 2741 2406 2741 
Q 2056 2741 1856 2470 
Q 1656 2200 1656 1722 
L 1656 0 
L 538 0 
L 538 4863 
L 1656 4863 
L 1656 2988 
Q 1909 3294 2193 3439 
Q 2478 3584 2822 3584 
Q 3428 3584 3742 3212 
Q 4056 2841 4056 2131 
z
" transform="scale(0.015625)"/>
       <path id="DejaVuSans-Bold-72" d="M 3138 2547 
Q 2991 2616 2845 2648 
Q 2700 2681 2553 2681 
Q 2122 2681 1889 2404 
Q 1656 2128 1656 1613 
L 1656 0 
L 538 0 
L 538 3500 
L 1656 3500 
L 1656 2925 
Q 1872 3269 2151 3426 
Q 2431 3584 2822 3584 
Q 2878 3584 2943 3579 
Q 3009 3575 3134 3559 
L 3138 2547 
z
" transform="scale(0.015625)"/>
       <path id="DejaVuSans-Bold-5d" d="M 2375 -844 
L 434 -844 
L 434 -141 
L 1313 -141 
L 1313 4159 
L 434 4159 
L 434 4863 
L 2375 4863 
L 2375 -844 
z
" transform="scale(0.015625)"/>
      </defs>
      <use xlink:href="#DejaVuSans-Bold-74"/>
      <use xlink:href="#DejaVuSans-Bold-69" transform="translate(47.802734 0)"/>
      <use xlink:href="#DejaVuSans-Bold-6d" transform="translate(82.080078 0)"/>
      <use xlink:href="#DejaVuSans-Bold-65" transform="translate(186.279297 0)"/>
      <use xlink:href="#DejaVuSans-Bold-20" transform="translate(254.101562 0)"/>
      <use xlink:href="#DejaVuSans-Bold-5b" transform="translate(288.916016 0)"/>
      <use xlink:href="#DejaVuSans-Bold-68" transform="translate(334.619141 0)"/>
      <use xlink:href="#DejaVuSans-Bold-72" transform="translate(405.810547 0)"/>
      <use xlink:href="#DejaVuSans-Bold-5d" transform="translate(455.126953 0)"/>
     </g>
    </g>
   </g>
   <g id="matplotlib.axis_2">
    <g id="ytick_1">
     <g id="line2d_9">
      <defs>
       <path id="mbc238e88ca" d="M 0 0 
L -3.5 0 
" style="stroke: #000000; stroke-width: 0.8"/>
      </defs>
      <g>
       <use xlink:href="#mbc238e88ca" x="54.84875" y="309.286957" style="stroke: #000000; stroke-width: 0.8"/>
      </g>
     </g>
     <g id="text_10">
      <!-- 0 -->
      <g transform="translate(38.305 314.985785) scale(0.15 -0.15)">
       <use xlink:href="#DejaVuSans-30"/>
      </g>
     </g>
    </g>
    <g id="ytick_2">
     <g id="line2d_10">
      <g>
       <use xlink:href="#mbc238e88ca" x="54.84875" y="276.343318" style="stroke: #000000; stroke-width: 0.8"/>
      </g>
     </g>
     <g id="text_11">
      <!-- 2 -->
      <g transform="translate(38.305 282.042146) scale(0.15 -0.15)">
       <use xlink:href="#DejaVuSans-32"/>
      </g>
     </g>
    </g>
    <g id="ytick_3">
     <g id="line2d_11">
      <g>
       <use xlink:href="#mbc238e88ca" x="54.84875" y="243.39968" style="stroke: #000000; stroke-width: 0.8"/>
      </g>
     </g>
     <g id="text_12">
      <!-- 4 -->
      <g transform="translate(38.305 249.098508) scale(0.15 -0.15)">
       <defs>
        <path id="DejaVuSans-34" d="M 2419 4116 
L 825 1625 
L 2419 1625 
L 2419 4116 
z
M 2253 4666 
L 3047 4666 
L 3047 1625 
L 3713 1625 
L 3713 1100 
L 3047 1100 
L 3047 0 
L 2419 0 
L 2419 1100 
L 313 1100 
L 313 1709 
L 2253 4666 
z
" transform="scale(0.015625)"/>
       </defs>
       <use xlink:href="#DejaVuSans-34"/>
      </g>
     </g>
    </g>
    <g id="ytick_4">
     <g id="line2d_12">
      <g>
       <use xlink:href="#mbc238e88ca" x="54.84875" y="210.456042" style="stroke: #000000; stroke-width: 0.8"/>
      </g>
     </g>
     <g id="text_13">
      <!-- 6 -->
      <g transform="translate(38.305 216.15487) scale(0.15 -0.15)">
       <defs>
        <path id="DejaVuSans-36" d="M 2113 2584 
Q 1688 2584 1439 2293 
Q 1191 2003 1191 1497 
Q 1191 994 1439 701 
Q 1688 409 2113 409 
Q 2538 409 2786 701 
Q 3034 994 3034 1497 
Q 3034 2003 2786 2293 
Q 2538 2584 2113 2584 
z
M 3366 4563 
L 3366 3988 
Q 3128 4100 2886 4159 
Q 2644 4219 2406 4219 
Q 1781 4219 1451 3797 
Q 1122 3375 1075 2522 
Q 1259 2794 1537 2939 
Q 1816 3084 2150 3084 
Q 2853 3084 3261 2657 
Q 3669 2231 3669 1497 
Q 3669 778 3244 343 
Q 2819 -91 2113 -91 
Q 1303 -91 875 529 
Q 447 1150 447 2328 
Q 447 3434 972 4092 
Q 1497 4750 2381 4750 
Q 2619 4750 2861 4703 
Q 3103 4656 3366 4563 
z
" transform="scale(0.015625)"/>
       </defs>
       <use xlink:href="#DejaVuSans-36"/>
      </g>
     </g>
    </g>
    <g id="ytick_5">
     <g id="line2d_13">
      <g>
       <use xlink:href="#mbc238e88ca" x="54.84875" y="177.512403" style="stroke: #000000; stroke-width: 0.8"/>
      </g>
     </g>
     <g id="text_14">
      <!-- 8 -->
      <g transform="translate(38.305 183.211232) scale(0.15 -0.15)">
       <defs>
        <path id="DejaVuSans-38" d="M 2034 2216 
Q 1584 2216 1326 1975 
Q 1069 1734 1069 1313 
Q 1069 891 1326 650 
Q 1584 409 2034 409 
Q 2484 409 2743 651 
Q 3003 894 3003 1313 
Q 3003 1734 2745 1975 
Q 2488 2216 2034 2216 
z
M 1403 2484 
Q 997 2584 770 2862 
Q 544 3141 544 3541 
Q 544 4100 942 4425 
Q 1341 4750 2034 4750 
Q 2731 4750 3128 4425 
Q 3525 4100 3525 3541 
Q 3525 3141 3298 2862 
Q 3072 2584 2669 2484 
Q 3125 2378 3379 2068 
Q 3634 1759 3634 1313 
Q 3634 634 3220 271 
Q 2806 -91 2034 -91 
Q 1263 -91 848 271 
Q 434 634 434 1313 
Q 434 1759 690 2068 
Q 947 2378 1403 2484 
z
M 1172 3481 
Q 1172 3119 1398 2916 
Q 1625 2713 2034 2713 
Q 2441 2713 2670 2916 
Q 2900 3119 2900 3481 
Q 2900 3844 2670 4047 
Q 2441 4250 2034 4250 
Q 1625 4250 1398 4047 
Q 1172 3844 1172 3481 
z
" transform="scale(0.015625)"/>
       </defs>
       <use xlink:href="#DejaVuSans-38"/>
      </g>
     </g>
    </g>
    <g id="ytick_6">
     <g id="line2d_14">
      <g>
       <use xlink:href="#mbc238e88ca" x="54.84875" y="144.568765" style="stroke: #000000; stroke-width: 0.8"/>
      </g>
     </g>
     <g id="text_15">
      <!-- 10 -->
      <g transform="translate(28.76125 150.267593) scale(0.15 -0.15)">
       <use xlink:href="#DejaVuSans-31"/>
       <use xlink:href="#DejaVuSans-30" transform="translate(63.623047 0)"/>
      </g>
     </g>
    </g>
    <g id="ytick_7">
     <g id="line2d_15">
      <g>
       <use xlink:href="#mbc238e88ca" x="54.84875" y="111.625127" style="stroke: #000000; stroke-width: 0.8"/>
      </g>
     </g>
     <g id="text_16">
      <!-- 12 -->
      <g transform="translate(28.76125 117.323955) scale(0.15 -0.15)">
       <use xlink:href="#DejaVuSans-31"/>
       <use xlink:href="#DejaVuSans-32" transform="translate(63.623047 0)"/>
      </g>
     </g>
    </g>
    <g id="text_17">
     <!-- rapamycin blood [µM] -->
     <g transform="translate(20.877187 311.228927) rotate(-90) scale(0.18 -0.18)">
      <defs>
       <path id="DejaVuSans-Bold-61" d="M 2106 1575 
Q 1756 1575 1579 1456 
Q 1403 1338 1403 1106 
Q 1403 894 1545 773 
Q 1688 653 1941 653 
Q 2256 653 2472 879 
Q 2688 1106 2688 1447 
L 2688 1575 
L 2106 1575 
z
M 3816 1997 
L 3816 0 
L 2688 0 
L 2688 519 
Q 2463 200 2181 54 
Q 1900 -91 1497 -91 
Q 953 -91 614 226 
Q 275 544 275 1050 
Q 275 1666 698 1953 
Q 1122 2241 2028 2241 
L 2688 2241 
L 2688 2328 
Q 2688 2594 2478 2717 
Q 2269 2841 1825 2841 
Q 1466 2841 1156 2769 
Q 847 2697 581 2553 
L 581 3406 
Q 941 3494 1303 3539 
Q 1666 3584 2028 3584 
Q 2975 3584 3395 3211 
Q 3816 2838 3816 1997 
z
" transform="scale(0.015625)"/>
       <path id="DejaVuSans-Bold-70" d="M 1656 506 
L 1656 -1331 
L 538 -1331 
L 538 3500 
L 1656 3500 
L 1656 2988 
Q 1888 3294 2169 3439 
Q 2450 3584 2816 3584 
Q 3463 3584 3878 3070 
Q 4294 2556 4294 1747 
Q 4294 938 3878 423 
Q 3463 -91 2816 -91 
Q 2450 -91 2169 54 
Q 1888 200 1656 506 
z
M 2400 2772 
Q 2041 2772 1848 2508 
Q 1656 2244 1656 1747 
Q 1656 1250 1848 986 
Q 2041 722 2400 722 
Q 2759 722 2948 984 
Q 3138 1247 3138 1747 
Q 3138 2247 2948 2509 
Q 2759 2772 2400 2772 
z
" transform="scale(0.015625)"/>
       <path id="DejaVuSans-Bold-79" d="M 78 3500 
L 1197 3500 
L 2138 1125 
L 2938 3500 
L 4056 3500 
L 2584 -331 
Q 2363 -916 2067 -1148 
Q 1772 -1381 1288 -1381 
L 641 -1381 
L 641 -647 
L 991 -647 
Q 1275 -647 1404 -556 
Q 1534 -466 1606 -231 
L 1638 -134 
L 78 3500 
z
" transform="scale(0.015625)"/>
       <path id="DejaVuSans-Bold-63" d="M 3366 3391 
L 3366 2478 
Q 3138 2634 2908 2709 
Q 2678 2784 2431 2784 
Q 1963 2784 1702 2511 
Q 1441 2238 1441 1747 
Q 1441 1256 1702 982 
Q 1963 709 2431 709 
Q 2694 709 2930 787 
Q 3166 866 3366 1019 
L 3366 103 
Q 3103 6 2833 -42 
Q 2563 -91 2291 -91 
Q 1344 -91 809 395 
Q 275 881 275 1747 
Q 275 2613 809 3098 
Q 1344 3584 2291 3584 
Q 2566 3584 2833 3536 
Q 3100 3488 3366 3391 
z
" transform="scale(0.015625)"/>
       <path id="DejaVuSans-Bold-6e" d="M 4056 2131 
L 4056 0 
L 2931 0 
L 2931 347 
L 2931 1631 
Q 2931 2084 2911 2256 
Q 2891 2428 2841 2509 
Q 2775 2619 2662 2680 
Q 2550 2741 2406 2741 
Q 2056 2741 1856 2470 
Q 1656 2200 1656 1722 
L 1656 0 
L 538 0 
L 538 3500 
L 1656 3500 
L 1656 2988 
Q 1909 3294 2193 3439 
Q 2478 3584 2822 3584 
Q 3428 3584 3742 3212 
Q 4056 2841 4056 2131 
z
" transform="scale(0.015625)"/>
       <path id="DejaVuSans-Bold-62" d="M 2400 722 
Q 2759 722 2948 984 
Q 3138 1247 3138 1747 
Q 3138 2247 2948 2509 
Q 2759 2772 2400 2772 
Q 2041 2772 1848 2508 
Q 1656 2244 1656 1747 
Q 1656 1250 1848 986 
Q 2041 722 2400 722 
z
M 1656 2988 
Q 1888 3294 2169 3439 
Q 2450 3584 2816 3584 
Q 3463 3584 3878 3070 
Q 4294 2556 4294 1747 
Q 4294 938 3878 423 
Q 3463 -91 2816 -91 
Q 2450 -91 2169 54 
Q 1888 200 1656 506 
L 1656 0 
L 538 0 
L 538 4863 
L 1656 4863 
L 1656 2988 
z
" transform="scale(0.015625)"/>
       <path id="DejaVuSans-Bold-6c" d="M 538 4863 
L 1656 4863 
L 1656 0 
L 538 0 
L 538 4863 
z
" transform="scale(0.015625)"/>
       <path id="DejaVuSans-Bold-6f" d="M 2203 2784 
Q 1831 2784 1636 2517 
Q 1441 2250 1441 1747 
Q 1441 1244 1636 976 
Q 1831 709 2203 709 
Q 2569 709 2762 976 
Q 2956 1244 2956 1747 
Q 2956 2250 2762 2517 
Q 2569 2784 2203 2784 
z
M 2203 3584 
Q 3106 3584 3614 3096 
Q 4122 2609 4122 1747 
Q 4122 884 3614 396 
Q 3106 -91 2203 -91 
Q 1297 -91 786 396 
Q 275 884 275 1747 
Q 275 2609 786 3096 
Q 1297 3584 2203 3584 
z
" transform="scale(0.015625)"/>
       <path id="DejaVuSans-Bold-64" d="M 2919 2988 
L 2919 4863 
L 4044 4863 
L 4044 0 
L 2919 0 
L 2919 506 
Q 2688 197 2409 53 
Q 2131 -91 1766 -91 
Q 1119 -91 703 423 
Q 288 938 288 1747 
Q 288 2556 703 3070 
Q 1119 3584 1766 3584 
Q 2128 3584 2408 3439 
Q 2688 3294 2919 2988 
z
M 2181 722 
Q 2541 722 2730 984 
Q 2919 1247 2919 1747 
Q 2919 2247 2730 2509 
Q 2541 2772 2181 2772 
Q 1825 2772 1636 2509 
Q 1447 2247 1447 1747 
Q 1447 1247 1636 984 
Q 1825 722 2181 722 
z
" transform="scale(0.015625)"/>
       <path id="DejaVuSans-Bold-b5" d="M 544 -1338 
L 544 3500 
L 1672 3500 
L 1672 1466 
Q 1672 1103 1828 926 
Q 1984 750 2303 750 
Q 2625 750 2781 926 
Q 2938 1103 2938 1466 
L 2938 3500 
L 4063 3500 
L 4063 1159 
Q 4063 938 4114 850 
Q 4166 763 4288 763 
Q 4344 763 4395 778 
Q 4447 794 4506 831 
L 4506 50 
Q 4341 -22 4195 -56 
Q 4050 -91 3909 -91 
Q 3631 -91 3454 26 
Q 3278 144 3169 403 
Q 3022 156 2811 32 
Q 2600 -91 2322 -91 
Q 2091 -91 1928 -17 
Q 1766 56 1672 206 
L 1672 -1338 
L 544 -1338 
z
" transform="scale(0.015625)"/>
       <path id="DejaVuSans-Bold-4d" d="M 588 4666 
L 2119 4666 
L 3181 2169 
L 4250 4666 
L 5778 4666 
L 5778 0 
L 4641 0 
L 4641 3413 
L 3566 897 
L 2803 897 
L 1728 3413 
L 1728 0 
L 588 0 
L 588 4666 
z
" transform="scale(0.015625)"/>
      </defs>
      <use xlink:href="#DejaVuSans-Bold-72"/>
      <use xlink:href="#DejaVuSans-Bold-61" transform="translate(49.316406 0)"/>
      <use xlink:href="#DejaVuSans-Bold-70" transform="translate(116.796875 0)"/>
      <use xlink:href="#DejaVuSans-Bold-61" transform="translate(188.378906 0)"/>
      <use xlink:href="#DejaVuSans-Bold-6d" transform="translate(255.859375 0)"/>
      <use xlink:href="#DejaVuSans-Bold-79" transform="translate(360.058594 0)"/>
      <use xlink:href="#DejaVuSans-Bold-63" transform="translate(425.244141 0)"/>
      <use xlink:href="#DejaVuSans-Bold-69" transform="translate(484.521484 0)"/>
      <use xlink:href="#DejaVuSans-Bold-6e" transform="translate(518.798828 0)"/>
      <use xlink:href="#DejaVuSans-Bold-20" transform="translate(589.990234 0)"/>
      <use xlink:href="#DejaVuSans-Bold-62" transform="translate(624.804688 0)"/>
      <use xlink:href="#DejaVuSans-Bold-6c" transform="translate(696.386719 0)"/>
      <use xlink:href="#DejaVuSans-Bold-6f" transform="translate(730.664062 0)"/>
      <use xlink:href="#DejaVuSans-Bold-6f" transform="translate(799.365234 0)"/>
      <use xlink:href="#DejaVuSans-Bold-64" transform="translate(868.066406 0)"/>
      <use xlink:href="#DejaVuSans-Bold-20" transform="translate(939.648438 0)"/>
      <use xlink:href="#DejaVuSans-Bold-5b" transform="translate(974.462891 0)"/>
      <use xlink:href="#DejaVuSans-Bold-b5" transform="translate(1020.166016 0)"/>
      <use xlink:href="#DejaVuSans-Bold-4d" transform="translate(1093.75 0)"/>
      <use xlink:href="#DejaVuSans-Bold-5d" transform="translate(1193.261719 0)"/>
     </g>
    </g>
   </g>
   <g id="LineCollection_1">
    <path d="M 72.603295 309.164786 
L 72.603295 309.079126 
" clip-path="url(#pa63d1f08c0)" style="fill: none; stroke: #d62728"/>
    <path d="M 73.110568 309.159858 
L 73.110568 308.948685 
" clip-path="url(#pa63d1f08c0)" style="fill: none; stroke: #d62728"/>
    <path d="M 73.617841 309.07574 
L 73.617841 308.831443 
" clip-path="url(#pa63d1f08c0)" style="fill: none; stroke: #d62728"/>
    <path d="M 74.632386 309.039295 
L 74.632386 308.715936 
" clip-path="url(#pa63d1f08c0)" style="fill: none; stroke: #d62728"/>
    <path d="M 75.646932 309.006342 
L 75.646932 308.748846 
" clip-path="url(#pa63d1f08c0)" style="fill: none; stroke: #d62728"/>
    <path d="M 77.676023 309.04583 
L 77.676023 308.867652 
" clip-path="url(#pa63d1f08c0)" style="fill: none; stroke: #d62728"/>
    <path d="M 80.719659 309.138025 
L 80.719659 308.979645 
" clip-path="url(#pa63d1f08c0)" style="fill: none; stroke: #d62728"/>
    <path d="M 84.777841 309.181284 
L 84.777841 308.990037 
" clip-path="url(#pa63d1f08c0)" style="fill: none; stroke: #d62728"/>
   </g>
   <g id="LineCollection_2">
    <path d="M 72.603295 309.182503 
L 72.603295 308.999708 
" clip-path="url(#pa63d1f08c0)" style="fill: none; stroke: #e377c2"/>
    <path d="M 73.110568 309.179238 
L 73.110568 308.983387 
" clip-path="url(#pa63d1f08c0)" style="fill: none; stroke: #e377c2"/>
    <path d="M 73.617841 309.113955 
L 73.617841 308.826707 
" clip-path="url(#pa63d1f08c0)" style="fill: none; stroke: #e377c2"/>
    <path d="M 74.632386 309.035614 
L 74.632386 308.722253 
" clip-path="url(#pa63d1f08c0)" style="fill: none; stroke: #e377c2"/>
    <path d="M 75.646932 309.029086 
L 75.646932 308.702668 
" clip-path="url(#pa63d1f08c0)" style="fill: none; stroke: #e377c2"/>
    <path d="M 77.676023 309.064992 
L 77.676023 308.718989 
" clip-path="url(#pa63d1f08c0)" style="fill: none; stroke: #e377c2"/>
    <path d="M 80.719659 309.113955 
L 80.719659 308.81365 
" clip-path="url(#pa63d1f08c0)" style="fill: none; stroke: #e377c2"/>
    <path d="M 84.777841 309.130276 
L 84.777841 308.895254 
" clip-path="url(#pa63d1f08c0)" style="fill: none; stroke: #e377c2"/>
   </g>
   <g id="LineCollection_3">
    <path d="M 72.603295 309.167718 
L 72.603295 309.021982 
" clip-path="url(#pa63d1f08c0)" style="fill: none; stroke: #800000"/>
    <path d="M 73.110568 309.147845 
L 73.110568 308.949113 
" clip-path="url(#pa63d1f08c0)" style="fill: none; stroke: #800000"/>
    <path d="M 73.617841 309.114723 
L 73.617841 308.836499 
" clip-path="url(#pa63d1f08c0)" style="fill: none; stroke: #800000"/>
    <path d="M 74.632386 309.051791 
L 74.632386 308.634456 
" clip-path="url(#pa63d1f08c0)" style="fill: none; stroke: #800000"/>
    <path d="M 75.646932 309.021982 
L 75.646932 308.67089 
" clip-path="url(#pa63d1f08c0)" style="fill: none; stroke: #800000"/>
    <path d="M 77.676023 309.068352 
L 77.676023 308.796753 
" clip-path="url(#pa63d1f08c0)" style="fill: none; stroke: #800000"/>
    <path d="M 80.719659 309.104786 
L 80.719659 308.813314 
" clip-path="url(#pa63d1f08c0)" style="fill: none; stroke: #800000"/>
    <path d="M 84.777841 309.137908 
L 84.777841 308.906055 
" clip-path="url(#pa63d1f08c0)" style="fill: none; stroke: #800000"/>
   </g>
   <g id="line2d_16">
    <path d="M 72.603295 309.286957 
L 72.958386 260.32974 
L 73.135932 254.668894 
L 73.313477 259.215942 
L 74.023659 287.898191 
L 74.37875 295.000598 
L 74.733841 298.718768 
L 75.088932 300.606978 
L 75.444023 301.557581 
L 75.799114 302.037102 
L 76.33175 302.355482 
L 77.219477 302.519619 
L 80.060205 302.644882 
L 115.924386 303.759152 
L 156.40475 304.794 
L 201.501295 305.720525 
L 252.456841 306.539744 
L 310.69175 307.248288 
L 378.869205 307.849248 
L 427.694205 308.167408 
L 427.694205 308.167408 
" clip-path="url(#pa63d1f08c0)" style="fill: none; stroke: #d62728; stroke-width: 2; stroke-linecap: square"/>
   </g>
   <g id="line2d_17">
    <path d="M 72.603295 309.121956 
L 73.110568 309.054272 
L 73.617841 308.953591 
L 74.632386 308.877615 
L 75.646932 308.877594 
L 77.676023 308.956741 
L 80.719659 309.058835 
L 84.777841 309.085661 
" clip-path="url(#pa63d1f08c0)" style="fill: none; stroke-dasharray: 3.7,1.6; stroke-dashoffset: 0; stroke: #d62728"/>
    <defs>
     <path id="m9c6ddbb848" d="M -3 3 
L 3 3 
L 3 -3 
L -3 -3 
z
" style="stroke: #000000; stroke-linejoin: miter"/>
    </defs>
    <g clip-path="url(#pa63d1f08c0)">
     <use xlink:href="#m9c6ddbb848" x="72.603295" y="309.121956" style="fill: #d62728; stroke: #000000; stroke-linejoin: miter"/>
     <use xlink:href="#m9c6ddbb848" x="73.110568" y="309.054272" style="fill: #d62728; stroke: #000000; stroke-linejoin: miter"/>
     <use xlink:href="#m9c6ddbb848" x="73.617841" y="308.953591" style="fill: #d62728; stroke: #000000; stroke-linejoin: miter"/>
     <use xlink:href="#m9c6ddbb848" x="74.632386" y="308.877615" style="fill: #d62728; stroke: #000000; stroke-linejoin: miter"/>
     <use xlink:href="#m9c6ddbb848" x="75.646932" y="308.877594" style="fill: #d62728; stroke: #000000; stroke-linejoin: miter"/>
     <use xlink:href="#m9c6ddbb848" x="77.676023" y="308.956741" style="fill: #d62728; stroke: #000000; stroke-linejoin: miter"/>
     <use xlink:href="#m9c6ddbb848" x="80.719659" y="309.058835" style="fill: #d62728; stroke: #000000; stroke-linejoin: miter"/>
     <use xlink:href="#m9c6ddbb848" x="84.777841" y="309.085661" style="fill: #d62728; stroke: #000000; stroke-linejoin: miter"/>
    </g>
   </g>
   <g id="line2d_18">
    <path d="M 72.603295 309.286957 
L 72.958386 162.193932 
L 73.135932 145.09951 
L 73.313477 158.745706 
L 74.023659 245.025217 
L 74.37875 266.371276 
L 74.733841 277.539197 
L 75.088932 283.208418 
L 75.444023 286.061907 
L 75.799114 287.501146 
L 76.154205 288.235099 
L 76.686841 288.737546 
L 77.397023 288.992472 
L 78.994932 289.213867 
L 93.376114 290.638811 
L 115.214205 292.608771 
L 138.295114 294.465521 
L 162.796386 296.211252 
L 188.895568 297.845582 
L 216.770205 299.366437 
L 246.775386 300.778637 
L 279.266205 302.082251 
L 314.59775 303.274369 
L 353.480205 304.359766 
L 396.446205 305.332886 
L 427.694205 305.917629 
L 427.694205 305.917629 
" clip-path="url(#pa63d1f08c0)" style="fill: none; stroke: #e377c2; stroke-width: 2; stroke-linecap: square"/>
   </g>
   <g id="line2d_19">
    <path d="M 72.603295 309.091105 
L 73.110568 309.081313 
L 73.617841 308.970331 
L 74.632386 308.878934 
L 75.646932 308.865877 
L 77.676023 308.89199 
L 80.719659 308.963802 
L 84.777841 309.012765 
" clip-path="url(#pa63d1f08c0)" style="fill: none; stroke-dasharray: 3.7,1.6; stroke-dashoffset: 0; stroke: #e377c2"/>
    <defs>
     <path id="m393f5977ca" d="M -3 3 
L 3 3 
L 3 -3 
L -3 -3 
z
" style="stroke: #000000; stroke-linejoin: miter"/>
    </defs>
    <g clip-path="url(#pa63d1f08c0)">
     <use xlink:href="#m393f5977ca" x="72.603295" y="309.091105" style="fill: #e377c2; stroke: #000000; stroke-linejoin: miter"/>
     <use xlink:href="#m393f5977ca" x="73.110568" y="309.081313" style="fill: #e377c2; stroke: #000000; stroke-linejoin: miter"/>
     <use xlink:href="#m393f5977ca" x="73.617841" y="308.970331" style="fill: #e377c2; stroke: #000000; stroke-linejoin: miter"/>
     <use xlink:href="#m393f5977ca" x="74.632386" y="308.878934" style="fill: #e377c2; stroke: #000000; stroke-linejoin: miter"/>
     <use xlink:href="#m393f5977ca" x="75.646932" y="308.865877" style="fill: #e377c2; stroke: #000000; stroke-linejoin: miter"/>
     <use xlink:href="#m393f5977ca" x="77.676023" y="308.89199" style="fill: #e377c2; stroke: #000000; stroke-linejoin: miter"/>
     <use xlink:href="#m393f5977ca" x="80.719659" y="308.963802" style="fill: #e377c2; stroke: #000000; stroke-linejoin: miter"/>
     <use xlink:href="#m393f5977ca" x="84.777841" y="309.012765" style="fill: #e377c2; stroke: #000000; stroke-linejoin: miter"/>
    </g>
   </g>
   <g id="line2d_20">
    <path d="M 72.603295 309.286957 
L 72.958386 113.020415 
L 73.135932 90.156522 
L 73.313477 108.354175 
L 74.023659 223.542363 
L 74.37875 252.029139 
L 74.733841 266.928526 
L 75.088932 274.490523 
L 75.444023 278.296289 
L 75.799114 280.21572 
L 76.154205 281.194519 
L 76.509295 281.705468 
L 77.041932 282.075256 
L 77.929659 282.329316 
L 80.770386 282.744752 
L 98.880023 285.089739 
L 118.054932 287.347777 
L 138.117568 289.485669 
L 159.245477 291.51276 
L 181.616205 293.433818 
L 205.22975 295.237206 
L 230.441205 296.937136 
L 257.250568 298.520057 
L 286.012932 299.993679 
L 317.083386 301.36002 
L 350.817023 302.617203 
L 387.568932 303.7612 
L 427.694205 304.787491 
L 427.694205 304.787491 
" clip-path="url(#pa63d1f08c0)" style="fill: none; stroke: #800000; stroke-width: 2; stroke-linecap: square"/>
   </g>
   <g id="line2d_21">
    <path d="M 72.603295 309.09485 
L 73.110568 309.048479 
L 73.617841 308.975611 
L 74.632386 308.843124 
L 75.646932 308.846436 
L 77.676023 308.932553 
L 80.719659 308.95905 
L 84.777841 309.021982 
" clip-path="url(#pa63d1f08c0)" style="fill: none; stroke-dasharray: 3.7,1.6; stroke-dashoffset: 0; stroke: #800000"/>
    <defs>
     <path id="m589002354e" d="M -3 3 
L 3 3 
L 3 -3 
L -3 -3 
z
" style="stroke: #000000; stroke-linejoin: miter"/>
    </defs>
    <g clip-path="url(#pa63d1f08c0)">
     <use xlink:href="#m589002354e" x="72.603295" y="309.09485" style="fill: #800000; stroke: #000000; stroke-linejoin: miter"/>
     <use xlink:href="#m589002354e" x="73.110568" y="309.048479" style="fill: #800000; stroke: #000000; stroke-linejoin: miter"/>
     <use xlink:href="#m589002354e" x="73.617841" y="308.975611" style="fill: #800000; stroke: #000000; stroke-linejoin: miter"/>
     <use xlink:href="#m589002354e" x="74.632386" y="308.843124" style="fill: #800000; stroke: #000000; stroke-linejoin: miter"/>
     <use xlink:href="#m589002354e" x="75.646932" y="308.846436" style="fill: #800000; stroke: #000000; stroke-linejoin: miter"/>
     <use xlink:href="#m589002354e" x="77.676023" y="308.932553" style="fill: #800000; stroke: #000000; stroke-linejoin: miter"/>
     <use xlink:href="#m589002354e" x="80.719659" y="308.95905" style="fill: #800000; stroke: #000000; stroke-linejoin: miter"/>
     <use xlink:href="#m589002354e" x="84.777841" y="309.021982" style="fill: #800000; stroke: #000000; stroke-linejoin: miter"/>
    </g>
   </g>
   <g id="patch_3">
    <path d="M 54.84875 320.243478 
L 54.84875 79.2 
" style="fill: none; stroke: #000000; stroke-width: 0.8; stroke-linejoin: miter; stroke-linecap: square"/>
   </g>
   <g id="patch_4">
    <path d="M 445.44875 320.243478 
L 445.44875 79.2 
" style="fill: none; stroke: #000000; stroke-width: 0.8; stroke-linejoin: miter; stroke-linecap: square"/>
   </g>
   <g id="patch_5">
    <path d="M 54.84875 320.243478 
L 445.44875 320.243478 
" style="fill: none; stroke: #000000; stroke-width: 0.8; stroke-linejoin: miter; stroke-linecap: square"/>
   </g>
   <g id="patch_6">
    <path d="M 54.84875 79.2 
L 445.44875 79.2 
" style="fill: none; stroke: #000000; stroke-width: 0.8; stroke-linejoin: miter; stroke-linecap: square"/>
   </g>
   <g id="legend_1">
    <g id="patch_7">
     <path d="M 468.07275 176.9375 
L 602.813375 176.9375 
Q 604.813375 176.9375 604.813375 174.9375 
L 604.813375 86.2 
Q 604.813375 84.2 602.813375 84.2 
L 468.07275 84.2 
Q 466.07275 84.2 466.07275 86.2 
L 466.07275 174.9375 
Q 466.07275 176.9375 468.07275 176.9375 
z
" style="fill: #ffffff; opacity: 0.8; stroke: #cccccc; stroke-linejoin: miter"/>
    </g>
    <g id="line2d_22">
     <path d="M 470.07275 92.298437 
L 490.07275 92.298437 
" style="fill: none; stroke: #d62728; stroke-width: 2; stroke-linecap: square"/>
    </g>
    <g id="line2d_23"/>
    <g id="text_18">
     <!-- RAP_T_2 -->
     <g transform="translate(498.07275 95.798437) scale(0.1 -0.1)">
      <defs>
       <path id="DejaVuSans-52" d="M 2841 2188 
Q 3044 2119 3236 1894 
Q 3428 1669 3622 1275 
L 4263 0 
L 3584 0 
L 2988 1197 
Q 2756 1666 2539 1819 
Q 2322 1972 1947 1972 
L 1259 1972 
L 1259 0 
L 628 0 
L 628 4666 
L 2053 4666 
Q 2853 4666 3247 4331 
Q 3641 3997 3641 3322 
Q 3641 2881 3436 2590 
Q 3231 2300 2841 2188 
z
M 1259 4147 
L 1259 2491 
L 2053 2491 
Q 2509 2491 2742 2702 
Q 2975 2913 2975 3322 
Q 2975 3731 2742 3939 
Q 2509 4147 2053 4147 
L 1259 4147 
z
" transform="scale(0.015625)"/>
       <path id="DejaVuSans-41" d="M 2188 4044 
L 1331 1722 
L 3047 1722 
L 2188 4044 
z
M 1831 4666 
L 2547 4666 
L 4325 0 
L 3669 0 
L 3244 1197 
L 1141 1197 
L 716 0 
L 50 0 
L 1831 4666 
z
" transform="scale(0.015625)"/>
       <path id="DejaVuSans-50" d="M 1259 4147 
L 1259 2394 
L 2053 2394 
Q 2494 2394 2734 2622 
Q 2975 2850 2975 3272 
Q 2975 3691 2734 3919 
Q 2494 4147 2053 4147 
L 1259 4147 
z
M 628 4666 
L 2053 4666 
Q 2838 4666 3239 4311 
Q 3641 3956 3641 3272 
Q 3641 2581 3239 2228 
Q 2838 1875 2053 1875 
L 1259 1875 
L 1259 0 
L 628 0 
L 628 4666 
z
" transform="scale(0.015625)"/>
       <path id="DejaVuSans-5f" d="M 3263 -1063 
L 3263 -1509 
L -63 -1509 
L -63 -1063 
L 3263 -1063 
z
" transform="scale(0.015625)"/>
       <path id="DejaVuSans-54" d="M -19 4666 
L 3928 4666 
L 3928 4134 
L 2272 4134 
L 2272 0 
L 1638 0 
L 1638 4134 
L -19 4134 
L -19 4666 
z
" transform="scale(0.015625)"/>
      </defs>
      <use xlink:href="#DejaVuSans-52"/>
      <use xlink:href="#DejaVuSans-41" transform="translate(65.482422 0)"/>
      <use xlink:href="#DejaVuSans-50" transform="translate(133.890625 0)"/>
      <use xlink:href="#DejaVuSans-5f" transform="translate(194.193359 0)"/>
      <use xlink:href="#DejaVuSans-54" transform="translate(244.193359 0)"/>
      <use xlink:href="#DejaVuSans-5f" transform="translate(305.277344 0)"/>
      <use xlink:href="#DejaVuSans-32" transform="translate(355.277344 0)"/>
     </g>
    </g>
    <g id="LineCollection_4">
     <path d="M 480.07275 112.254687 
L 480.07275 102.254687 
" style="fill: none; stroke: #d62728"/>
    </g>
    <g id="line2d_24">
     <path d="M 470.07275 107.254687 
L 490.07275 107.254687 
" style="fill: none; stroke-dasharray: 3.7,1.6; stroke-dashoffset: 0; stroke: #d62728"/>
    </g>
    <g id="line2d_25">
     <g>
      <use xlink:href="#m9c6ddbb848" x="480.07275" y="107.254687" style="fill: #d62728; stroke: #000000; stroke-linejoin: miter"/>
     </g>
    </g>
    <g id="text_19">
     <!-- RAP_T_2±SD (n=21) -->
     <g transform="translate(498.07275 110.754687) scale(0.1 -0.1)">
      <defs>
       <path id="DejaVuSans-b1" d="M 2944 4013 
L 2944 2803 
L 4684 2803 
L 4684 2272 
L 2944 2272 
L 2944 1063 
L 2419 1063 
L 2419 2272 
L 678 2272 
L 678 2803 
L 2419 2803 
L 2419 4013 
L 2944 4013 
z
M 678 531 
L 4684 531 
L 4684 0 
L 678 0 
L 678 531 
z
" transform="scale(0.015625)"/>
       <path id="DejaVuSans-53" d="M 3425 4513 
L 3425 3897 
Q 3066 4069 2747 4153 
Q 2428 4238 2131 4238 
Q 1616 4238 1336 4038 
Q 1056 3838 1056 3469 
Q 1056 3159 1242 3001 
Q 1428 2844 1947 2747 
L 2328 2669 
Q 3034 2534 3370 2195 
Q 3706 1856 3706 1288 
Q 3706 609 3251 259 
Q 2797 -91 1919 -91 
Q 1588 -91 1214 -16 
Q 841 59 441 206 
L 441 856 
Q 825 641 1194 531 
Q 1563 422 1919 422 
Q 2459 422 2753 634 
Q 3047 847 3047 1241 
Q 3047 1584 2836 1778 
Q 2625 1972 2144 2069 
L 1759 2144 
Q 1053 2284 737 2584 
Q 422 2884 422 3419 
Q 422 4038 858 4394 
Q 1294 4750 2059 4750 
Q 2388 4750 2728 4690 
Q 3069 4631 3425 4513 
z
" transform="scale(0.015625)"/>
       <path id="DejaVuSans-44" d="M 1259 4147 
L 1259 519 
L 2022 519 
Q 2988 519 3436 956 
Q 3884 1394 3884 2338 
Q 3884 3275 3436 3711 
Q 2988 4147 2022 4147 
L 1259 4147 
z
M 628 4666 
L 1925 4666 
Q 3281 4666 3915 4102 
Q 4550 3538 4550 2338 
Q 4550 1131 3912 565 
Q 3275 0 1925 0 
L 628 0 
L 628 4666 
z
" transform="scale(0.015625)"/>
       <path id="DejaVuSans-20" transform="scale(0.015625)"/>
       <path id="DejaVuSans-28" d="M 1984 4856 
Q 1566 4138 1362 3434 
Q 1159 2731 1159 2009 
Q 1159 1288 1364 580 
Q 1569 -128 1984 -844 
L 1484 -844 
Q 1016 -109 783 600 
Q 550 1309 550 2009 
Q 550 2706 781 3412 
Q 1013 4119 1484 4856 
L 1984 4856 
z
" transform="scale(0.015625)"/>
       <path id="DejaVuSans-6e" d="M 3513 2113 
L 3513 0 
L 2938 0 
L 2938 2094 
Q 2938 2591 2744 2837 
Q 2550 3084 2163 3084 
Q 1697 3084 1428 2787 
Q 1159 2491 1159 1978 
L 1159 0 
L 581 0 
L 581 3500 
L 1159 3500 
L 1159 2956 
Q 1366 3272 1645 3428 
Q 1925 3584 2291 3584 
Q 2894 3584 3203 3211 
Q 3513 2838 3513 2113 
z
" transform="scale(0.015625)"/>
       <path id="DejaVuSans-3d" d="M 678 2906 
L 4684 2906 
L 4684 2381 
L 678 2381 
L 678 2906 
z
M 678 1631 
L 4684 1631 
L 4684 1100 
L 678 1100 
L 678 1631 
z
" transform="scale(0.015625)"/>
       <path id="DejaVuSans-29" d="M 513 4856 
L 1013 4856 
Q 1481 4119 1714 3412 
Q 1947 2706 1947 2009 
Q 1947 1309 1714 600 
Q 1481 -109 1013 -844 
L 513 -844 
Q 928 -128 1133 580 
Q 1338 1288 1338 2009 
Q 1338 2731 1133 3434 
Q 928 4138 513 4856 
z
" transform="scale(0.015625)"/>
      </defs>
      <use xlink:href="#DejaVuSans-52"/>
      <use xlink:href="#DejaVuSans-41" transform="translate(65.482422 0)"/>
      <use xlink:href="#DejaVuSans-50" transform="translate(133.890625 0)"/>
      <use xlink:href="#DejaVuSans-5f" transform="translate(194.193359 0)"/>
      <use xlink:href="#DejaVuSans-54" transform="translate(244.193359 0)"/>
      <use xlink:href="#DejaVuSans-5f" transform="translate(305.277344 0)"/>
      <use xlink:href="#DejaVuSans-32" transform="translate(355.277344 0)"/>
      <use xlink:href="#DejaVuSans-b1" transform="translate(418.900391 0)"/>
      <use xlink:href="#DejaVuSans-53" transform="translate(502.689453 0)"/>
      <use xlink:href="#DejaVuSans-44" transform="translate(566.166016 0)"/>
      <use xlink:href="#DejaVuSans-20" transform="translate(643.167969 0)"/>
      <use xlink:href="#DejaVuSans-28" transform="translate(674.955078 0)"/>
      <use xlink:href="#DejaVuSans-6e" transform="translate(713.96875 0)"/>
      <use xlink:href="#DejaVuSans-3d" transform="translate(777.347656 0)"/>
      <use xlink:href="#DejaVuSans-32" transform="translate(861.136719 0)"/>
      <use xlink:href="#DejaVuSans-31" transform="translate(924.759766 0)"/>
      <use xlink:href="#DejaVuSans-29" transform="translate(988.382812 0)"/>
     </g>
    </g>
    <g id="line2d_26">
     <path d="M 470.07275 122.210938 
L 490.07275 122.210938 
" style="fill: none; stroke: #e377c2; stroke-width: 2; stroke-linecap: square"/>
    </g>
    <g id="line2d_27"/>
    <g id="text_20">
     <!-- RAP_T_6 -->
     <g transform="translate(498.07275 125.710938) scale(0.1 -0.1)">
      <use xlink:href="#DejaVuSans-52"/>
      <use xlink:href="#DejaVuSans-41" transform="translate(65.482422 0)"/>
      <use xlink:href="#DejaVuSans-50" transform="translate(133.890625 0)"/>
      <use xlink:href="#DejaVuSans-5f" transform="translate(194.193359 0)"/>
      <use xlink:href="#DejaVuSans-54" transform="translate(244.193359 0)"/>
      <use xlink:href="#DejaVuSans-5f" transform="translate(305.277344 0)"/>
      <use xlink:href="#DejaVuSans-36" transform="translate(355.277344 0)"/>
     </g>
    </g>
    <g id="LineCollection_5">
     <path d="M 480.07275 142.167187 
L 480.07275 132.167187 
" style="fill: none; stroke: #e377c2"/>
    </g>
    <g id="line2d_28">
     <path d="M 470.07275 137.167187 
L 490.07275 137.167187 
" style="fill: none; stroke-dasharray: 3.7,1.6; stroke-dashoffset: 0; stroke: #e377c2"/>
    </g>
    <g id="line2d_29">
     <g>
      <use xlink:href="#m393f5977ca" x="480.07275" y="137.167187" style="fill: #e377c2; stroke: #000000; stroke-linejoin: miter"/>
     </g>
    </g>
    <g id="text_21">
     <!-- RAP_T_6±SD (n=21) -->
     <g transform="translate(498.07275 140.667187) scale(0.1 -0.1)">
      <use xlink:href="#DejaVuSans-52"/>
      <use xlink:href="#DejaVuSans-41" transform="translate(65.482422 0)"/>
      <use xlink:href="#DejaVuSans-50" transform="translate(133.890625 0)"/>
      <use xlink:href="#DejaVuSans-5f" transform="translate(194.193359 0)"/>
      <use xlink:href="#DejaVuSans-54" transform="translate(244.193359 0)"/>
      <use xlink:href="#DejaVuSans-5f" transform="translate(305.277344 0)"/>
      <use xlink:href="#DejaVuSans-36" transform="translate(355.277344 0)"/>
      <use xlink:href="#DejaVuSans-b1" transform="translate(418.900391 0)"/>
      <use xlink:href="#DejaVuSans-53" transform="translate(502.689453 0)"/>
      <use xlink:href="#DejaVuSans-44" transform="translate(566.166016 0)"/>
      <use xlink:href="#DejaVuSans-20" transform="translate(643.167969 0)"/>
      <use xlink:href="#DejaVuSans-28" transform="translate(674.955078 0)"/>
      <use xlink:href="#DejaVuSans-6e" transform="translate(713.96875 0)"/>
      <use xlink:href="#DejaVuSans-3d" transform="translate(777.347656 0)"/>
      <use xlink:href="#DejaVuSans-32" transform="translate(861.136719 0)"/>
      <use xlink:href="#DejaVuSans-31" transform="translate(924.759766 0)"/>
      <use xlink:href="#DejaVuSans-29" transform="translate(988.382812 0)"/>
     </g>
    </g>
    <g id="line2d_30">
     <path d="M 470.07275 152.123438 
L 490.07275 152.123438 
" style="fill: none; stroke: #800000; stroke-width: 2; stroke-linecap: square"/>
    </g>
    <g id="line2d_31"/>
    <g id="text_22">
     <!-- RAP_T_8 -->
     <g transform="translate(498.07275 155.623438) scale(0.1 -0.1)">
      <use xlink:href="#DejaVuSans-52"/>
      <use xlink:href="#DejaVuSans-41" transform="translate(65.482422 0)"/>
      <use xlink:href="#DejaVuSans-50" transform="translate(133.890625 0)"/>
      <use xlink:href="#DejaVuSans-5f" transform="translate(194.193359 0)"/>
      <use xlink:href="#DejaVuSans-54" transform="translate(244.193359 0)"/>
      <use xlink:href="#DejaVuSans-5f" transform="translate(305.277344 0)"/>
      <use xlink:href="#DejaVuSans-38" transform="translate(355.277344 0)"/>
     </g>
    </g>
    <g id="LineCollection_6">
     <path d="M 480.07275 172.079687 
L 480.07275 162.079687 
" style="fill: none; stroke: #800000"/>
    </g>
    <g id="line2d_32">
     <path d="M 470.07275 167.079687 
L 490.07275 167.079687 
" style="fill: none; stroke-dasharray: 3.7,1.6; stroke-dashoffset: 0; stroke: #800000"/>
    </g>
    <g id="line2d_33">
     <g>
      <use xlink:href="#m589002354e" x="480.07275" y="167.079687" style="fill: #800000; stroke: #000000; stroke-linejoin: miter"/>
     </g>
    </g>
    <g id="text_23">
     <!-- RAP_T_8±SD (n=21) -->
     <g transform="translate(498.07275 170.579687) scale(0.1 -0.1)">
      <use xlink:href="#DejaVuSans-52"/>
      <use xlink:href="#DejaVuSans-41" transform="translate(65.482422 0)"/>
      <use xlink:href="#DejaVuSans-50" transform="translate(133.890625 0)"/>
      <use xlink:href="#DejaVuSans-5f" transform="translate(194.193359 0)"/>
      <use xlink:href="#DejaVuSans-54" transform="translate(244.193359 0)"/>
      <use xlink:href="#DejaVuSans-5f" transform="translate(305.277344 0)"/>
      <use xlink:href="#DejaVuSans-38" transform="translate(355.277344 0)"/>
      <use xlink:href="#DejaVuSans-b1" transform="translate(418.900391 0)"/>
      <use xlink:href="#DejaVuSans-53" transform="translate(502.689453 0)"/>
      <use xlink:href="#DejaVuSans-44" transform="translate(566.166016 0)"/>
      <use xlink:href="#DejaVuSans-20" transform="translate(643.167969 0)"/>
      <use xlink:href="#DejaVuSans-28" transform="translate(674.955078 0)"/>
      <use xlink:href="#DejaVuSans-6e" transform="translate(713.96875 0)"/>
      <use xlink:href="#DejaVuSans-3d" transform="translate(777.347656 0)"/>
      <use xlink:href="#DejaVuSans-32" transform="translate(861.136719 0)"/>
      <use xlink:href="#DejaVuSans-31" transform="translate(924.759766 0)"/>
      <use xlink:href="#DejaVuSans-29" transform="translate(988.382812 0)"/>
     </g>
    </g>
   </g>
  </g>
  <g id="axes_2">
   <g id="patch_8">
    <path d="M 54.84875 633.6 
L 445.44875 633.6 
L 445.44875 392.556522 
L 54.84875 392.556522 
z
" style="fill: #ffffff"/>
   </g>
   <g id="matplotlib.axis_3">
    <g id="xtick_9">
     <g id="line2d_34">
      <g>
       <use xlink:href="#m0c931375d7" x="62.820179" y="633.6" style="stroke: #000000; stroke-width: 0.8"/>
      </g>
     </g>
     <g id="text_24">
      <!-- 0 -->
      <g transform="translate(58.048304 651.997656) scale(0.15 -0.15)">
       <use xlink:href="#DejaVuSans-30"/>
      </g>
     </g>
    </g>
    <g id="xtick_10">
     <g id="line2d_35">
      <g>
       <use xlink:href="#m0c931375d7" x="142.534464" y="633.6" style="stroke: #000000; stroke-width: 0.8"/>
      </g>
     </g>
     <g id="text_25">
      <!-- 10 -->
      <g transform="translate(132.990714 651.997656) scale(0.15 -0.15)">
       <use xlink:href="#DejaVuSans-31"/>
       <use xlink:href="#DejaVuSans-30" transform="translate(63.623047 0)"/>
      </g>
     </g>
    </g>
    <g id="xtick_11">
     <g id="line2d_36">
      <g>
       <use xlink:href="#m0c931375d7" x="222.24875" y="633.6" style="stroke: #000000; stroke-width: 0.8"/>
      </g>
     </g>
     <g id="text_26">
      <!-- 20 -->
      <g transform="translate(212.705 651.997656) scale(0.15 -0.15)">
       <use xlink:href="#DejaVuSans-32"/>
       <use xlink:href="#DejaVuSans-30" transform="translate(63.623047 0)"/>
      </g>
     </g>
    </g>
    <g id="xtick_12">
     <g id="line2d_37">
      <g>
       <use xlink:href="#m0c931375d7" x="301.963036" y="633.6" style="stroke: #000000; stroke-width: 0.8"/>
      </g>
     </g>
     <g id="text_27">
      <!-- 30 -->
      <g transform="translate(292.419286 651.997656) scale(0.15 -0.15)">
       <use xlink:href="#DejaVuSans-33"/>
       <use xlink:href="#DejaVuSans-30" transform="translate(63.623047 0)"/>
      </g>
     </g>
    </g>
    <g id="xtick_13">
     <g id="line2d_38">
      <g>
       <use xlink:href="#m0c931375d7" x="381.677321" y="633.6" style="stroke: #000000; stroke-width: 0.8"/>
      </g>
     </g>
     <g id="text_28">
      <!-- 40 -->
      <g transform="translate(372.133571 651.997656) scale(0.15 -0.15)">
       <use xlink:href="#DejaVuSans-34"/>
       <use xlink:href="#DejaVuSans-30" transform="translate(63.623047 0)"/>
      </g>
     </g>
    </g>
    <g id="text_29">
     <!-- time [hr] -->
     <g transform="translate(205.074219 672.794375) scale(0.18 -0.18)">
      <use xlink:href="#DejaVuSans-Bold-74"/>
      <use xlink:href="#DejaVuSans-Bold-69" transform="translate(47.802734 0)"/>
      <use xlink:href="#DejaVuSans-Bold-6d" transform="translate(82.080078 0)"/>
      <use xlink:href="#DejaVuSans-Bold-65" transform="translate(186.279297 0)"/>
      <use xlink:href="#DejaVuSans-Bold-20" transform="translate(254.101562 0)"/>
      <use xlink:href="#DejaVuSans-Bold-5b" transform="translate(288.916016 0)"/>
      <use xlink:href="#DejaVuSans-Bold-68" transform="translate(334.619141 0)"/>
      <use xlink:href="#DejaVuSans-Bold-72" transform="translate(405.810547 0)"/>
      <use xlink:href="#DejaVuSans-Bold-5d" transform="translate(455.126953 0)"/>
     </g>
    </g>
   </g>
   <g id="matplotlib.axis_4">
    <g id="ytick_8">
     <g id="line2d_39">
      <g>
       <use xlink:href="#mbc238e88ca" x="54.84875" y="622.643478" style="stroke: #000000; stroke-width: 0.8"/>
      </g>
     </g>
     <g id="text_30">
      <!-- 0 -->
      <g transform="translate(38.305 628.342306) scale(0.15 -0.15)">
       <use xlink:href="#DejaVuSans-30"/>
      </g>
     </g>
    </g>
    <g id="ytick_9">
     <g id="line2d_40">
      <g>
       <use xlink:href="#mbc238e88ca" x="54.84875" y="589.69984" style="stroke: #000000; stroke-width: 0.8"/>
      </g>
     </g>
     <g id="text_31">
      <!-- 2 -->
      <g transform="translate(38.305 595.398668) scale(0.15 -0.15)">
       <use xlink:href="#DejaVuSans-32"/>
      </g>
     </g>
    </g>
    <g id="ytick_10">
     <g id="line2d_41">
      <g>
       <use xlink:href="#mbc238e88ca" x="54.84875" y="556.756202" style="stroke: #000000; stroke-width: 0.8"/>
      </g>
     </g>
     <g id="text_32">
      <!-- 4 -->
      <g transform="translate(38.305 562.45503) scale(0.15 -0.15)">
       <use xlink:href="#DejaVuSans-34"/>
      </g>
     </g>
    </g>
    <g id="ytick_11">
     <g id="line2d_42">
      <g>
       <use xlink:href="#mbc238e88ca" x="54.84875" y="523.812563" style="stroke: #000000; stroke-width: 0.8"/>
      </g>
     </g>
     <g id="text_33">
      <!-- 6 -->
      <g transform="translate(38.305 529.511392) scale(0.15 -0.15)">
       <use xlink:href="#DejaVuSans-36"/>
      </g>
     </g>
    </g>
    <g id="ytick_12">
     <g id="line2d_43">
      <g>
       <use xlink:href="#mbc238e88ca" x="54.84875" y="490.868925" style="stroke: #000000; stroke-width: 0.8"/>
      </g>
     </g>
     <g id="text_34">
      <!-- 8 -->
      <g transform="translate(38.305 496.567753) scale(0.15 -0.15)">
       <use xlink:href="#DejaVuSans-38"/>
      </g>
     </g>
    </g>
    <g id="ytick_13">
     <g id="line2d_44">
      <g>
       <use xlink:href="#mbc238e88ca" x="54.84875" y="457.925287" style="stroke: #000000; stroke-width: 0.8"/>
      </g>
     </g>
     <g id="text_35">
      <!-- 10 -->
      <g transform="translate(28.76125 463.624115) scale(0.15 -0.15)">
       <use xlink:href="#DejaVuSans-31"/>
       <use xlink:href="#DejaVuSans-30" transform="translate(63.623047 0)"/>
      </g>
     </g>
    </g>
    <g id="ytick_14">
     <g id="line2d_45">
      <g>
       <use xlink:href="#mbc238e88ca" x="54.84875" y="424.981649" style="stroke: #000000; stroke-width: 0.8"/>
      </g>
     </g>
     <g id="text_36">
      <!-- 12 -->
      <g transform="translate(28.76125 430.680477) scale(0.15 -0.15)">
       <use xlink:href="#DejaVuSans-31"/>
       <use xlink:href="#DejaVuSans-32" transform="translate(63.623047 0)"/>
      </g>
     </g>
    </g>
    <g id="text_37">
     <!-- rapamycin blood [µM] -->
     <g transform="translate(20.877187 624.585448) rotate(-90) scale(0.18 -0.18)">
      <use xlink:href="#DejaVuSans-Bold-72"/>
      <use xlink:href="#DejaVuSans-Bold-61" transform="translate(49.316406 0)"/>
      <use xlink:href="#DejaVuSans-Bold-70" transform="translate(116.796875 0)"/>
      <use xlink:href="#DejaVuSans-Bold-61" transform="translate(188.378906 0)"/>
      <use xlink:href="#DejaVuSans-Bold-6d" transform="translate(255.859375 0)"/>
      <use xlink:href="#DejaVuSans-Bold-79" transform="translate(360.058594 0)"/>
      <use xlink:href="#DejaVuSans-Bold-63" transform="translate(425.244141 0)"/>
      <use xlink:href="#DejaVuSans-Bold-69" transform="translate(484.521484 0)"/>
      <use xlink:href="#DejaVuSans-Bold-6e" transform="translate(518.798828 0)"/>
      <use xlink:href="#DejaVuSans-Bold-20" transform="translate(589.990234 0)"/>
      <use xlink:href="#DejaVuSans-Bold-62" transform="translate(624.804688 0)"/>
      <use xlink:href="#DejaVuSans-Bold-6c" transform="translate(696.386719 0)"/>
      <use xlink:href="#DejaVuSans-Bold-6f" transform="translate(730.664062 0)"/>
      <use xlink:href="#DejaVuSans-Bold-6f" transform="translate(799.365234 0)"/>
      <use xlink:href="#DejaVuSans-Bold-64" transform="translate(868.066406 0)"/>
      <use xlink:href="#DejaVuSans-Bold-20" transform="translate(939.648438 0)"/>
      <use xlink:href="#DejaVuSans-Bold-5b" transform="translate(974.462891 0)"/>
      <use xlink:href="#DejaVuSans-Bold-b5" transform="translate(1020.166016 0)"/>
      <use xlink:href="#DejaVuSans-Bold-4d" transform="translate(1093.75 0)"/>
      <use xlink:href="#DejaVuSans-Bold-5d" transform="translate(1193.261719 0)"/>
     </g>
    </g>
   </g>
   <g id="LineCollection_7">
    <path d="M 62.820179 622.521308 
L 62.820179 622.435647 
" clip-path="url(#p509f701182)" style="fill: none; stroke: #d62728"/>
    <path d="M 66.805893 622.51638 
L 66.805893 622.305207 
" clip-path="url(#p509f701182)" style="fill: none; stroke: #d62728"/>
    <path d="M 70.791607 622.432262 
L 70.791607 622.187964 
" clip-path="url(#p509f701182)" style="fill: none; stroke: #d62728"/>
    <path d="M 78.763036 622.395817 
L 78.763036 622.072458 
" clip-path="url(#p509f701182)" style="fill: none; stroke: #d62728"/>
    <path d="M 86.734464 622.362864 
L 86.734464 622.105368 
" clip-path="url(#p509f701182)" style="fill: none; stroke: #d62728"/>
    <path d="M 102.677321 622.402352 
L 102.677321 622.224174 
" clip-path="url(#p509f701182)" style="fill: none; stroke: #d62728"/>
    <path d="M 126.591607 622.494547 
L 126.591607 622.336167 
" clip-path="url(#p509f701182)" style="fill: none; stroke: #d62728"/>
    <path d="M 158.477321 622.537806 
L 158.477321 622.346559 
" clip-path="url(#p509f701182)" style="fill: none; stroke: #d62728"/>
   </g>
   <g id="LineCollection_8">
    <path d="M 62.820179 622.539024 
L 62.820179 622.35623 
" clip-path="url(#p509f701182)" style="fill: none; stroke: #e377c2"/>
    <path d="M 66.805893 622.53576 
L 66.805893 622.339909 
" clip-path="url(#p509f701182)" style="fill: none; stroke: #e377c2"/>
    <path d="M 70.791607 622.470477 
L 70.791607 622.183228 
" clip-path="url(#p509f701182)" style="fill: none; stroke: #e377c2"/>
    <path d="M 78.763036 622.392136 
L 78.763036 622.078774 
" clip-path="url(#p509f701182)" style="fill: none; stroke: #e377c2"/>
    <path d="M 86.734464 622.385608 
L 86.734464 622.059189 
" clip-path="url(#p509f701182)" style="fill: none; stroke: #e377c2"/>
    <path d="M 102.677321 622.421514 
L 102.677321 622.07551 
" clip-path="url(#p509f701182)" style="fill: none; stroke: #e377c2"/>
    <path d="M 126.591607 622.470477 
L 126.591607 622.170172 
" clip-path="url(#p509f701182)" style="fill: none; stroke: #e377c2"/>
    <path d="M 158.477321 622.486797 
L 158.477321 622.251776 
" clip-path="url(#p509f701182)" style="fill: none; stroke: #e377c2"/>
   </g>
   <g id="LineCollection_9">
    <path d="M 62.820179 622.52424 
L 62.820179 622.378503 
" clip-path="url(#p509f701182)" style="fill: none; stroke: #800000"/>
    <path d="M 66.805893 622.504366 
L 66.805893 622.305635 
" clip-path="url(#p509f701182)" style="fill: none; stroke: #800000"/>
    <path d="M 70.791607 622.471245 
L 70.791607 622.193021 
" clip-path="url(#p509f701182)" style="fill: none; stroke: #800000"/>
    <path d="M 78.763036 622.408313 
L 78.763036 621.990977 
" clip-path="url(#p509f701182)" style="fill: none; stroke: #800000"/>
    <path d="M 86.734464 622.378503 
L 86.734464 622.027412 
" clip-path="url(#p509f701182)" style="fill: none; stroke: #800000"/>
    <path d="M 102.677321 622.424874 
L 102.677321 622.153275 
" clip-path="url(#p509f701182)" style="fill: none; stroke: #800000"/>
    <path d="M 126.591607 622.461308 
L 126.591607 622.169836 
" clip-path="url(#p509f701182)" style="fill: none; stroke: #800000"/>
    <path d="M 158.477321 622.49443 
L 158.477321 622.262577 
" clip-path="url(#p509f701182)" style="fill: none; stroke: #800000"/>
   </g>
   <g id="line2d_46">
    <path d="M 62.820179 622.643478 
L 65.610179 573.686262 
L 67.005179 568.025416 
L 68.400179 572.572464 
L 71.190179 588.835493 
L 72.585179 595.795368 
L 73.980179 601.254712 
L 75.375179 605.354359 
L 76.770179 608.357119 
L 78.165179 610.52445 
L 79.560179 612.07529 
L 80.955179 613.179457 
L 82.350179 613.9635 
L 83.745179 614.519618 
L 86.535179 615.194247 
L 89.325179 615.536002 
L 93.510179 615.765846 
L 101.880179 615.90251 
L 142.335179 616.09145 
L 433.890179 617.225129 
L 446.445179 617.269279 
L 446.445179 617.269279 
" clip-path="url(#p509f701182)" style="fill: none; stroke: #d62728; stroke-width: 2; stroke-linecap: square"/>
   </g>
   <g id="line2d_47">
    <path d="M 62.820179 622.478478 
L 66.805893 622.410793 
L 70.791607 622.310113 
L 78.763036 622.234137 
L 86.734464 622.234116 
L 102.677321 622.313263 
L 126.591607 622.415357 
L 158.477321 622.442182 
" clip-path="url(#p509f701182)" style="fill: none; stroke-dasharray: 3.7,1.6; stroke-dashoffset: 0; stroke: #d62728"/>
    <g clip-path="url(#p509f701182)">
     <use xlink:href="#m9c6ddbb848" x="62.820179" y="622.478478" style="fill: #d62728; stroke: #000000; stroke-linejoin: miter"/>
     <use xlink:href="#m9c6ddbb848" x="66.805893" y="622.410793" style="fill: #d62728; stroke: #000000; stroke-linejoin: miter"/>
     <use xlink:href="#m9c6ddbb848" x="70.791607" y="622.310113" style="fill: #d62728; stroke: #000000; stroke-linejoin: miter"/>
     <use xlink:href="#m9c6ddbb848" x="78.763036" y="622.234137" style="fill: #d62728; stroke: #000000; stroke-linejoin: miter"/>
     <use xlink:href="#m9c6ddbb848" x="86.734464" y="622.234116" style="fill: #d62728; stroke: #000000; stroke-linejoin: miter"/>
     <use xlink:href="#m9c6ddbb848" x="102.677321" y="622.313263" style="fill: #d62728; stroke: #000000; stroke-linejoin: miter"/>
     <use xlink:href="#m9c6ddbb848" x="126.591607" y="622.415357" style="fill: #d62728; stroke: #000000; stroke-linejoin: miter"/>
     <use xlink:href="#m9c6ddbb848" x="158.477321" y="622.442182" style="fill: #d62728; stroke: #000000; stroke-linejoin: miter"/>
    </g>
   </g>
   <g id="line2d_48">
    <path d="M 62.820179 622.643478 
L 65.610179 475.550454 
L 67.005179 458.456032 
L 68.400179 472.102228 
L 71.190179 521.028022 
L 72.585179 541.964827 
L 73.980179 558.381739 
L 75.375179 570.704993 
L 76.770179 579.727797 
L 78.165179 586.238272 
L 79.560179 590.895718 
L 80.955179 594.211101 
L 82.350179 596.564939 
L 83.745179 598.234329 
L 85.140179 599.418429 
L 86.535179 600.25927 
L 87.930179 600.857667 
L 89.325179 601.284978 
L 92.115179 601.813182 
L 94.905179 602.094068 
L 100.485179 602.348994 
L 113.040179 602.570389 
L 226.035179 603.995333 
L 397.620179 605.965293 
L 446.445179 606.486892 
L 446.445179 606.486892 
" clip-path="url(#p509f701182)" style="fill: none; stroke: #e377c2; stroke-width: 2; stroke-linecap: square"/>
   </g>
   <g id="line2d_49">
    <path d="M 62.820179 622.447627 
L 66.805893 622.437835 
L 70.791607 622.326852 
L 78.763036 622.235455 
L 86.734464 622.222399 
L 102.677321 622.248512 
L 126.591607 622.320324 
L 158.477321 622.369287 
" clip-path="url(#p509f701182)" style="fill: none; stroke-dasharray: 3.7,1.6; stroke-dashoffset: 0; stroke: #e377c2"/>
    <g clip-path="url(#p509f701182)">
     <use xlink:href="#m393f5977ca" x="62.820179" y="622.447627" style="fill: #e377c2; stroke: #000000; stroke-linejoin: miter"/>
     <use xlink:href="#m393f5977ca" x="66.805893" y="622.437835" style="fill: #e377c2; stroke: #000000; stroke-linejoin: miter"/>
     <use xlink:href="#m393f5977ca" x="70.791607" y="622.326852" style="fill: #e377c2; stroke: #000000; stroke-linejoin: miter"/>
     <use xlink:href="#m393f5977ca" x="78.763036" y="622.235455" style="fill: #e377c2; stroke: #000000; stroke-linejoin: miter"/>
     <use xlink:href="#m393f5977ca" x="86.734464" y="622.222399" style="fill: #e377c2; stroke: #000000; stroke-linejoin: miter"/>
     <use xlink:href="#m393f5977ca" x="102.677321" y="622.248512" style="fill: #e377c2; stroke: #000000; stroke-linejoin: miter"/>
     <use xlink:href="#m393f5977ca" x="126.591607" y="622.320324" style="fill: #e377c2; stroke: #000000; stroke-linejoin: miter"/>
     <use xlink:href="#m393f5977ca" x="158.477321" y="622.369287" style="fill: #e377c2; stroke: #000000; stroke-linejoin: miter"/>
    </g>
   </g>
   <g id="line2d_50">
    <path d="M 62.820179 622.643478 
L 65.610179 426.376937 
L 67.005179 403.513043 
L 68.400179 421.710696 
L 71.190179 487.031916 
L 72.585179 514.984468 
L 73.980179 536.898885 
L 75.375179 553.345742 
L 76.770179 565.385661 
L 78.165179 574.07187 
L 79.560179 580.285048 
L 80.955179 584.707461 
L 82.350179 587.847044 
L 83.745179 590.073584 
L 85.140179 591.65281 
L 86.535179 592.774203 
L 87.930179 593.572242 
L 89.325179 594.142106 
L 92.115179 594.846509 
L 94.905179 595.221086 
L 99.090179 595.503367 
L 107.460179 595.74857 
L 146.520179 596.436164 
L 290.205179 598.773219 
L 440.865179 601.000829 
L 446.445179 601.079227 
L 446.445179 601.079227 
" clip-path="url(#p509f701182)" style="fill: none; stroke: #800000; stroke-width: 2; stroke-linecap: square"/>
   </g>
   <g id="line2d_51">
    <path d="M 62.820179 622.451371 
L 66.805893 622.405001 
L 70.791607 622.332133 
L 78.763036 622.199645 
L 86.734464 622.202957 
L 102.677321 622.289074 
L 126.591607 622.315572 
L 158.477321 622.378503 
" clip-path="url(#p509f701182)" style="fill: none; stroke-dasharray: 3.7,1.6; stroke-dashoffset: 0; stroke: #800000"/>
    <g clip-path="url(#p509f701182)">
     <use xlink:href="#m589002354e" x="62.820179" y="622.451371" style="fill: #800000; stroke: #000000; stroke-linejoin: miter"/>
     <use xlink:href="#m589002354e" x="66.805893" y="622.405001" style="fill: #800000; stroke: #000000; stroke-linejoin: miter"/>
     <use xlink:href="#m589002354e" x="70.791607" y="622.332133" style="fill: #800000; stroke: #000000; stroke-linejoin: miter"/>
     <use xlink:href="#m589002354e" x="78.763036" y="622.199645" style="fill: #800000; stroke: #000000; stroke-linejoin: miter"/>
     <use xlink:href="#m589002354e" x="86.734464" y="622.202957" style="fill: #800000; stroke: #000000; stroke-linejoin: miter"/>
     <use xlink:href="#m589002354e" x="102.677321" y="622.289074" style="fill: #800000; stroke: #000000; stroke-linejoin: miter"/>
     <use xlink:href="#m589002354e" x="126.591607" y="622.315572" style="fill: #800000; stroke: #000000; stroke-linejoin: miter"/>
     <use xlink:href="#m589002354e" x="158.477321" y="622.378503" style="fill: #800000; stroke: #000000; stroke-linejoin: miter"/>
    </g>
   </g>
   <g id="patch_9">
    <path d="M 54.84875 633.6 
L 54.84875 392.556522 
" style="fill: none; stroke: #000000; stroke-width: 0.8; stroke-linejoin: miter; stroke-linecap: square"/>
   </g>
   <g id="patch_10">
    <path d="M 445.44875 633.6 
L 445.44875 392.556522 
" style="fill: none; stroke: #000000; stroke-width: 0.8; stroke-linejoin: miter; stroke-linecap: square"/>
   </g>
   <g id="patch_11">
    <path d="M 54.84875 633.6 
L 445.44875 633.6 
" style="fill: none; stroke: #000000; stroke-width: 0.8; stroke-linejoin: miter; stroke-linecap: square"/>
   </g>
   <g id="patch_12">
    <path d="M 54.84875 392.556522 
L 445.44875 392.556522 
" style="fill: none; stroke: #000000; stroke-width: 0.8; stroke-linejoin: miter; stroke-linecap: square"/>
   </g>
   <g id="legend_2">
    <g id="patch_13">
     <path d="M 468.07275 490.294022 
L 602.813375 490.294022 
Q 604.813375 490.294022 604.813375 488.294022 
L 604.813375 399.556522 
Q 604.813375 397.556522 602.813375 397.556522 
L 468.07275 397.556522 
Q 466.07275 397.556522 466.07275 399.556522 
L 466.07275 488.294022 
Q 466.07275 490.294022 468.07275 490.294022 
z
" style="fill: #ffffff; opacity: 0.8; stroke: #cccccc; stroke-linejoin: miter"/>
    </g>
    <g id="line2d_52">
     <path d="M 470.07275 405.654959 
L 490.07275 405.654959 
" style="fill: none; stroke: #d62728; stroke-width: 2; stroke-linecap: square"/>
    </g>
    <g id="line2d_53"/>
    <g id="text_38">
     <!-- RAP_T_2 -->
     <g transform="translate(498.07275 409.154959) scale(0.1 -0.1)">
      <use xlink:href="#DejaVuSans-52"/>
      <use xlink:href="#DejaVuSans-41" transform="translate(65.482422 0)"/>
      <use xlink:href="#DejaVuSans-50" transform="translate(133.890625 0)"/>
      <use xlink:href="#DejaVuSans-5f" transform="translate(194.193359 0)"/>
      <use xlink:href="#DejaVuSans-54" transform="translate(244.193359 0)"/>
      <use xlink:href="#DejaVuSans-5f" transform="translate(305.277344 0)"/>
      <use xlink:href="#DejaVuSans-32" transform="translate(355.277344 0)"/>
     </g>
    </g>
    <g id="LineCollection_10">
     <path d="M 480.07275 425.611209 
L 480.07275 415.611209 
" style="fill: none; stroke: #d62728"/>
    </g>
    <g id="line2d_54">
     <path d="M 470.07275 420.611209 
L 490.07275 420.611209 
" style="fill: none; stroke-dasharray: 3.7,1.6; stroke-dashoffset: 0; stroke: #d62728"/>
    </g>
    <g id="line2d_55">
     <g>
      <use xlink:href="#m9c6ddbb848" x="480.07275" y="420.611209" style="fill: #d62728; stroke: #000000; stroke-linejoin: miter"/>
     </g>
    </g>
    <g id="text_39">
     <!-- RAP_T_2±SD (n=21) -->
     <g transform="translate(498.07275 424.111209) scale(0.1 -0.1)">
      <use xlink:href="#DejaVuSans-52"/>
      <use xlink:href="#DejaVuSans-41" transform="translate(65.482422 0)"/>
      <use xlink:href="#DejaVuSans-50" transform="translate(133.890625 0)"/>
      <use xlink:href="#DejaVuSans-5f" transform="translate(194.193359 0)"/>
      <use xlink:href="#DejaVuSans-54" transform="translate(244.193359 0)"/>
      <use xlink:href="#DejaVuSans-5f" transform="translate(305.277344 0)"/>
      <use xlink:href="#DejaVuSans-32" transform="translate(355.277344 0)"/>
      <use xlink:href="#DejaVuSans-b1" transform="translate(418.900391 0)"/>
      <use xlink:href="#DejaVuSans-53" transform="translate(502.689453 0)"/>
      <use xlink:href="#DejaVuSans-44" transform="translate(566.166016 0)"/>
      <use xlink:href="#DejaVuSans-20" transform="translate(643.167969 0)"/>
      <use xlink:href="#DejaVuSans-28" transform="translate(674.955078 0)"/>
      <use xlink:href="#DejaVuSans-6e" transform="translate(713.96875 0)"/>
      <use xlink:href="#DejaVuSans-3d" transform="translate(777.347656 0)"/>
      <use xlink:href="#DejaVuSans-32" transform="translate(861.136719 0)"/>
      <use xlink:href="#DejaVuSans-31" transform="translate(924.759766 0)"/>
      <use xlink:href="#DejaVuSans-29" transform="translate(988.382812 0)"/>
     </g>
    </g>
    <g id="line2d_56">
     <path d="M 470.07275 435.567459 
L 490.07275 435.567459 
" style="fill: none; stroke: #e377c2; stroke-width: 2; stroke-linecap: square"/>
    </g>
    <g id="line2d_57"/>
    <g id="text_40">
     <!-- RAP_T_6 -->
     <g transform="translate(498.07275 439.067459) scale(0.1 -0.1)">
      <use xlink:href="#DejaVuSans-52"/>
      <use xlink:href="#DejaVuSans-41" transform="translate(65.482422 0)"/>
      <use xlink:href="#DejaVuSans-50" transform="translate(133.890625 0)"/>
      <use xlink:href="#DejaVuSans-5f" transform="translate(194.193359 0)"/>
      <use xlink:href="#DejaVuSans-54" transform="translate(244.193359 0)"/>
      <use xlink:href="#DejaVuSans-5f" transform="translate(305.277344 0)"/>
      <use xlink:href="#DejaVuSans-36" transform="translate(355.277344 0)"/>
     </g>
    </g>
    <g id="LineCollection_11">
     <path d="M 480.07275 455.523709 
L 480.07275 445.523709 
" style="fill: none; stroke: #e377c2"/>
    </g>
    <g id="line2d_58">
     <path d="M 470.07275 450.523709 
L 490.07275 450.523709 
" style="fill: none; stroke-dasharray: 3.7,1.6; stroke-dashoffset: 0; stroke: #e377c2"/>
    </g>
    <g id="line2d_59">
     <g>
      <use xlink:href="#m393f5977ca" x="480.07275" y="450.523709" style="fill: #e377c2; stroke: #000000; stroke-linejoin: miter"/>
     </g>
    </g>
    <g id="text_41">
     <!-- RAP_T_6±SD (n=21) -->
     <g transform="translate(498.07275 454.023709) scale(0.1 -0.1)">
      <use xlink:href="#DejaVuSans-52"/>
      <use xlink:href="#DejaVuSans-41" transform="translate(65.482422 0)"/>
      <use xlink:href="#DejaVuSans-50" transform="translate(133.890625 0)"/>
      <use xlink:href="#DejaVuSans-5f" transform="translate(194.193359 0)"/>
      <use xlink:href="#DejaVuSans-54" transform="translate(244.193359 0)"/>
      <use xlink:href="#DejaVuSans-5f" transform="translate(305.277344 0)"/>
      <use xlink:href="#DejaVuSans-36" transform="translate(355.277344 0)"/>
      <use xlink:href="#DejaVuSans-b1" transform="translate(418.900391 0)"/>
      <use xlink:href="#DejaVuSans-53" transform="translate(502.689453 0)"/>
      <use xlink:href="#DejaVuSans-44" transform="translate(566.166016 0)"/>
      <use xlink:href="#DejaVuSans-20" transform="translate(643.167969 0)"/>
      <use xlink:href="#DejaVuSans-28" transform="translate(674.955078 0)"/>
      <use xlink:href="#DejaVuSans-6e" transform="translate(713.96875 0)"/>
      <use xlink:href="#DejaVuSans-3d" transform="translate(777.347656 0)"/>
      <use xlink:href="#DejaVuSans-32" transform="translate(861.136719 0)"/>
      <use xlink:href="#DejaVuSans-31" transform="translate(924.759766 0)"/>
      <use xlink:href="#DejaVuSans-29" transform="translate(988.382812 0)"/>
     </g>
    </g>
    <g id="line2d_60">
     <path d="M 470.07275 465.479959 
L 490.07275 465.479959 
" style="fill: none; stroke: #800000; stroke-width: 2; stroke-linecap: square"/>
    </g>
    <g id="line2d_61"/>
    <g id="text_42">
     <!-- RAP_T_8 -->
     <g transform="translate(498.07275 468.979959) scale(0.1 -0.1)">
      <use xlink:href="#DejaVuSans-52"/>
      <use xlink:href="#DejaVuSans-41" transform="translate(65.482422 0)"/>
      <use xlink:href="#DejaVuSans-50" transform="translate(133.890625 0)"/>
      <use xlink:href="#DejaVuSans-5f" transform="translate(194.193359 0)"/>
      <use xlink:href="#DejaVuSans-54" transform="translate(244.193359 0)"/>
      <use xlink:href="#DejaVuSans-5f" transform="translate(305.277344 0)"/>
      <use xlink:href="#DejaVuSans-38" transform="translate(355.277344 0)"/>
     </g>
    </g>
    <g id="LineCollection_12">
     <path d="M 480.07275 485.436209 
L 480.07275 475.436209 
" style="fill: none; stroke: #800000"/>
    </g>
    <g id="line2d_62">
     <path d="M 470.07275 480.436209 
L 490.07275 480.436209 
" style="fill: none; stroke-dasharray: 3.7,1.6; stroke-dashoffset: 0; stroke: #800000"/>
    </g>
    <g id="line2d_63">
     <g>
      <use xlink:href="#m589002354e" x="480.07275" y="480.436209" style="fill: #800000; stroke: #000000; stroke-linejoin: miter"/>
     </g>
    </g>
    <g id="text_43">
     <!-- RAP_T_8±SD (n=21) -->
     <g transform="translate(498.07275 483.936209) scale(0.1 -0.1)">
      <use xlink:href="#DejaVuSans-52"/>
      <use xlink:href="#DejaVuSans-41" transform="translate(65.482422 0)"/>
      <use xlink:href="#DejaVuSans-50" transform="translate(133.890625 0)"/>
      <use xlink:href="#DejaVuSans-5f" transform="translate(194.193359 0)"/>
      <use xlink:href="#DejaVuSans-54" transform="translate(244.193359 0)"/>
      <use xlink:href="#DejaVuSans-5f" transform="translate(305.277344 0)"/>
      <use xlink:href="#DejaVuSans-38" transform="translate(355.277344 0)"/>
      <use xlink:href="#DejaVuSans-b1" transform="translate(418.900391 0)"/>
      <use xlink:href="#DejaVuSans-53" transform="translate(502.689453 0)"/>
      <use xlink:href="#DejaVuSans-44" transform="translate(566.166016 0)"/>
      <use xlink:href="#DejaVuSans-20" transform="translate(643.167969 0)"/>
      <use xlink:href="#DejaVuSans-28" transform="translate(674.955078 0)"/>
      <use xlink:href="#DejaVuSans-6e" transform="translate(713.96875 0)"/>
      <use xlink:href="#DejaVuSans-3d" transform="translate(777.347656 0)"/>
      <use xlink:href="#DejaVuSans-32" transform="translate(861.136719 0)"/>
      <use xlink:href="#DejaVuSans-31" transform="translate(924.759766 0)"/>
      <use xlink:href="#DejaVuSans-29" transform="translate(988.382812 0)"/>
     </g>
    </g>
   </g>
  </g>
  <g id="text_44">
   <!-- Kelly1999 -->
   <g transform="translate(174.395625 26.196094) scale(0.25 -0.25)">
    <defs>
     <path id="DejaVuSans-Bold-4b" d="M 588 4666 
L 1791 4666 
L 1791 2963 
L 3525 4666 
L 4922 4666 
L 2675 2456 
L 5153 0 
L 3647 0 
L 1791 1838 
L 1791 0 
L 588 0 
L 588 4666 
z
" transform="scale(0.015625)"/>
     <path id="DejaVuSans-Bold-31" d="M 750 831 
L 1813 831 
L 1813 3847 
L 722 3622 
L 722 4441 
L 1806 4666 
L 2950 4666 
L 2950 831 
L 4013 831 
L 4013 0 
L 750 0 
L 750 831 
z
" transform="scale(0.015625)"/>
     <path id="DejaVuSans-Bold-39" d="M 641 103 
L 641 966 
Q 928 831 1190 764 
Q 1453 697 1709 697 
Q 2247 697 2547 995 
Q 2847 1294 2900 1881 
Q 2688 1725 2447 1647 
Q 2206 1569 1925 1569 
Q 1209 1569 770 1986 
Q 331 2403 331 3084 
Q 331 3838 820 4291 
Q 1309 4744 2131 4744 
Q 3044 4744 3544 4128 
Q 4044 3513 4044 2388 
Q 4044 1231 3459 570 
Q 2875 -91 1856 -91 
Q 1528 -91 1228 -42 
Q 928 6 641 103 
z
M 2125 2350 
Q 2441 2350 2600 2554 
Q 2759 2759 2759 3169 
Q 2759 3575 2600 3781 
Q 2441 3988 2125 3988 
Q 1809 3988 1650 3781 
Q 1491 3575 1491 3169 
Q 1491 2759 1650 2554 
Q 1809 2350 2125 2350 
z
" transform="scale(0.015625)"/>
    </defs>
    <use xlink:href="#DejaVuSans-Bold-4b"/>
    <use xlink:href="#DejaVuSans-Bold-65" transform="translate(75.740234 0)"/>
    <use xlink:href="#DejaVuSans-Bold-6c" transform="translate(143.5625 0)"/>
    <use xlink:href="#DejaVuSans-Bold-6c" transform="translate(177.839844 0)"/>
    <use xlink:href="#DejaVuSans-Bold-79" transform="translate(212.117188 0)"/>
    <use xlink:href="#DejaVuSans-Bold-31" transform="translate(277.302734 0)"/>
    <use xlink:href="#DejaVuSans-Bold-39" transform="translate(346.882812 0)"/>
    <use xlink:href="#DejaVuSans-Bold-39" transform="translate(416.462891 0)"/>
    <use xlink:href="#DejaVuSans-Bold-39" transform="translate(486.042969 0)"/>
   </g>
  </g>
 </g>
 <defs>
  <clipPath id="pa63d1f08c0">
   <rect x="54.84875" y="79.2" width="390.6" height="241.043478"/>
  </clipPath>
  <clipPath id="p509f701182">
   <rect x="54.84875" y="392.556522" width="390.6" height="241.043478"/>
  </clipPath>
 </defs>
</svg>
