<?xml version="1.0" encoding="utf-8" standalone="no"?>
<!DOCTYPE svg PUBLIC "-//W3C//DTD SVG 1.1//EN"
  "http://www.w3.org/Graphics/SVG/1.1/DTD/svg11.dtd">
<svg xmlns:xlink="http://www.w3.org/1999/xlink" width="471.73625pt" height="370.537812pt" viewBox="0 0 471.73625 370.537812" xmlns="http://www.w3.org/2000/svg" version="1.1">
 <metadata>
  <rdf:RDF xmlns:dc="http://purl.org/dc/elements/1.1/" xmlns:cc="http://creativecommons.org/ns#" xmlns:rdf="http://www.w3.org/1999/02/22-rdf-syntax-ns#">
   <cc:Work>
    <dc:type rdf:resource="http://purl.org/dc/dcmitype/StillImage"/>
    <dc:date>2026-02-12T15:19:34.889055</dc:date>
    <dc:format>image/svg+xml</dc:format>
    <dc:creator>
     <cc:Agent>
      <dc:title>Matplotlib v3.10.7, https://matplotlib.org/</dc:title>
     </cc:Agent>
    </dc:creator>
   </cc:Work>
  </rdf:RDF>
 </metadata>
 <defs>
  <style type="text/css">*{stroke-linejoin: round; stroke-linecap: butt}</style>
 </defs>
 <g id="figure_1">
  <g id="patch_1">
   <path d="M 0 370.537812 
L 471.73625 370.537812 
L 471.73625 0 
L 0 0 
z
" style="fill: #ffffff"/>
  </g>
  <g id="axes_1">
   <g id="patch_2">
    <path d="M 64.3925 320.4 
L 454.9925 320.4 
L 454.9925 43.2 
L 64.3925 43.2 
z
" style="fill: #ffffff"/>
   </g>
   <g id="matplotlib.axis_1">
    <g id="xtick_1">
     <g id="line2d_1">
      <defs>
       <path id="m865ce339bd" d="M 0 0 
L 0 3.5 
" style="stroke: #000000; stroke-width: 0.8"/>
      </defs>
      <g>
       <use xlink:href="#m865ce339bd" x="64.3925" y="320.4" style="stroke: #000000; stroke-width: 0.8"/>
      </g>
     </g>
     <g id="text_1">
      <!-- 0 -->
      <g transform="translate(59.620625 338.797656) scale(0.15 -0.15)">
       <defs>
        <path id="DejaVuSans-30" d="M 2034 4250 
Q 1547 4250 1301 3770 
Q 1056 3291 1056 2328 
Q 1056 1369 1301 889 
Q 1547 409 2034 409 
Q 2525 409 2770 889 
Q 3016 1369 3016 2328 
Q 3016 3291 2770 3770 
Q 2525 4250 2034 4250 
z
M 2034 4750 
Q 2819 4750 3233 4129 
Q 3647 3509 3647 2328 
Q 3647 1150 3233 529 
Q 2819 -91 2034 -91 
Q 1250 -91 836 529 
Q 422 1150 422 2328 
Q 422 3509 836 4129 
Q 1250 4750 2034 4750 
z
" transform="scale(0.015625)"/>
       </defs>
       <use xlink:href="#DejaVuSans-30"/>
      </g>
     </g>
    </g>
    <g id="xtick_2">
     <g id="line2d_2">
      <g>
       <use xlink:href="#m865ce339bd" x="129.4925" y="320.4" style="stroke: #000000; stroke-width: 0.8"/>
      </g>
     </g>
     <g id="text_2">
      <!-- 2 -->
      <g transform="translate(124.720625 338.797656) scale(0.15 -0.15)">
       <defs>
        <path id="DejaVuSans-32" d="M 1228 531 
L 3431 531 
L 3431 0 
L 469 0 
L 469 531 
Q 828 903 1448 1529 
Q 2069 2156 2228 2338 
Q 2531 2678 2651 2914 
Q 2772 3150 2772 3378 
Q 2772 3750 2511 3984 
Q 2250 4219 1831 4219 
Q 1534 4219 1204 4116 
Q 875 4013 500 3803 
L 500 4441 
Q 881 4594 1212 4672 
Q 1544 4750 1819 4750 
Q 2544 4750 2975 4387 
Q 3406 4025 3406 3419 
Q 3406 3131 3298 2873 
Q 3191 2616 2906 2266 
Q 2828 2175 2409 1742 
Q 1991 1309 1228 531 
z
" transform="scale(0.015625)"/>
       </defs>
       <use xlink:href="#DejaVuSans-32"/>
      </g>
     </g>
    </g>
    <g id="xtick_3">
     <g id="line2d_3">
      <g>
       <use xlink:href="#m865ce339bd" x="194.5925" y="320.4" style="stroke: #000000; stroke-width: 0.8"/>
      </g>
     </g>
     <g id="text_3">
      <!-- 4 -->
      <g transform="translate(189.820625 338.797656) scale(0.15 -0.15)">
       <defs>
        <path id="DejaVuSans-34" d="M 2419 4116 
L 825 1625 
L 2419 1625 
L 2419 4116 
z
M 2253 4666 
L 3047 4666 
L 3047 1625 
L 3713 1625 
L 3713 1100 
L 3047 1100 
L 3047 0 
L 2419 0 
L 2419 1100 
L 313 1100 
L 313 1709 
L 2253 4666 
z
" transform="scale(0.015625)"/>
       </defs>
       <use xlink:href="#DejaVuSans-34"/>
      </g>
     </g>
    </g>
    <g id="xtick_4">
     <g id="line2d_4">
      <g>
       <use xlink:href="#m865ce339bd" x="259.6925" y="320.4" style="stroke: #000000; stroke-width: 0.8"/>
      </g>
     </g>
     <g id="text_4">
      <!-- 6 -->
      <g transform="translate(254.920625 338.797656) scale(0.15 -0.15)">
       <defs>
        <path id="DejaVuSans-36" d="M 2113 2584 
Q 1688 2584 1439 2293 
Q 1191 2003 1191 1497 
Q 1191 994 1439 701 
Q 1688 409 2113 409 
Q 2538 409 2786 701 
Q 3034 994 3034 1497 
Q 3034 2003 2786 2293 
Q 2538 2584 2113 2584 
z
M 3366 4563 
L 3366 3988 
Q 3128 4100 2886 4159 
Q 2644 4219 2406 4219 
Q 1781 4219 1451 3797 
Q 1122 3375 1075 2522 
Q 1259 2794 1537 2939 
Q 1816 3084 2150 3084 
Q 2853 3084 3261 2657 
Q 3669 2231 3669 1497 
Q 3669 778 3244 343 
Q 2819 -91 2113 -91 
Q 1303 -91 875 529 
Q 447 1150 447 2328 
Q 447 3434 972 4092 
Q 1497 4750 2381 4750 
Q 2619 4750 2861 4703 
Q 3103 4656 3366 4563 
z
" transform="scale(0.015625)"/>
       </defs>
       <use xlink:href="#DejaVuSans-36"/>
      </g>
     </g>
    </g>
    <g id="xtick_5">
     <g id="line2d_5">
      <g>
       <use xlink:href="#m865ce339bd" x="324.7925" y="320.4" style="stroke: #000000; stroke-width: 0.8"/>
      </g>
     </g>
     <g id="text_5">
      <!-- 8 -->
      <g transform="translate(320.020625 338.797656) scale(0.15 -0.15)">
       <defs>
        <path id="DejaVuSans-38" d="M 2034 2216 
Q 1584 2216 1326 1975 
Q 1069 1734 1069 1313 
Q 1069 891 1326 650 
Q 1584 409 2034 409 
Q 2484 409 2743 651 
Q 3003 894 3003 1313 
Q 3003 1734 2745 1975 
Q 2488 2216 2034 2216 
z
M 1403 2484 
Q 997 2584 770 2862 
Q 544 3141 544 3541 
Q 544 4100 942 4425 
Q 1341 4750 2034 4750 
Q 2731 4750 3128 4425 
Q 3525 4100 3525 3541 
Q 3525 3141 3298 2862 
Q 3072 2584 2669 2484 
Q 3125 2378 3379 2068 
Q 3634 1759 3634 1313 
Q 3634 634 3220 271 
Q 2806 -91 2034 -91 
Q 1263 -91 848 271 
Q 434 634 434 1313 
Q 434 1759 690 2068 
Q 947 2378 1403 2484 
z
M 1172 3481 
Q 1172 3119 1398 2916 
Q 1625 2713 2034 2713 
Q 2441 2713 2670 2916 
Q 2900 3119 2900 3481 
Q 2900 3844 2670 4047 
Q 2441 4250 2034 4250 
Q 1625 4250 1398 4047 
Q 1172 3844 1172 3481 
z
" transform="scale(0.015625)"/>
       </defs>
       <use xlink:href="#DejaVuSans-38"/>
      </g>
     </g>
    </g>
    <g id="xtick_6">
     <g id="line2d_6">
      <g>
       <use xlink:href="#m865ce339bd" x="389.8925" y="320.4" style="stroke: #000000; stroke-width: 0.8"/>
      </g>
     </g>
     <g id="text_6">
      <!-- 10 -->
      <g transform="translate(380.34875 338.797656) scale(0.15 -0.15)">
       <defs>
        <path id="DejaVuSans-31" d="M 794 531 
L 1825 531 
L 1825 4091 
L 703 3866 
L 703 4441 
L 1819 4666 
L 2450 4666 
L 2450 531 
L 3481 531 
L 3481 0 
L 794 0 
L 794 531 
z
" transform="scale(0.015625)"/>
       </defs>
       <use xlink:href="#DejaVuSans-31"/>
       <use xlink:href="#DejaVuSans-30" transform="translate(63.623047 0)"/>
      </g>
     </g>
    </g>
    <g id="xtick_7">
     <g id="line2d_7">
      <g>
       <use xlink:href="#m865ce339bd" x="454.9925" y="320.4" style="stroke: #000000; stroke-width: 0.8"/>
      </g>
     </g>
     <g id="text_7">
      <!-- 12 -->
      <g transform="translate(445.44875 338.797656) scale(0.15 -0.15)">
       <use xlink:href="#DejaVuSans-31"/>
       <use xlink:href="#DejaVuSans-32" transform="translate(63.623047 0)"/>
      </g>
     </g>
    </g>
    <g id="text_8">
     <!-- time [hr] -->
     <g transform="translate(214.617969 359.594375) scale(0.18 -0.18)">
      <defs>
       <path id="DejaVuSans-Bold-74" d="M 1759 4494 
L 1759 3500 
L 2913 3500 
L 2913 2700 
L 1759 2700 
L 1759 1216 
Q 1759 972 1856 886 
Q 1953 800 2241 800 
L 2816 800 
L 2816 0 
L 1856 0 
Q 1194 0 917 276 
Q 641 553 641 1216 
L 641 2700 
L 84 2700 
L 84 3500 
L 641 3500 
L 641 4494 
L 1759 4494 
z
" transform="scale(0.015625)"/>
       <path id="DejaVuSans-Bold-69" d="M 538 3500 
L 1656 3500 
L 1656 0 
L 538 0 
L 538 3500 
z
M 538 4863 
L 1656 4863 
L 1656 3950 
L 538 3950 
L 538 4863 
z
" transform="scale(0.015625)"/>
       <path id="DejaVuSans-Bold-6d" d="M 3781 2919 
Q 3994 3244 4286 3414 
Q 4578 3584 4928 3584 
Q 5531 3584 5847 3212 
Q 6163 2841 6163 2131 
L 6163 0 
L 5038 0 
L 5038 1825 
Q 5041 1866 5042 1909 
Q 5044 1953 5044 2034 
Q 5044 2406 4934 2573 
Q 4825 2741 4581 2741 
Q 4263 2741 4089 2478 
Q 3916 2216 3909 1719 
L 3909 0 
L 2784 0 
L 2784 1825 
Q 2784 2406 2684 2573 
Q 2584 2741 2328 2741 
Q 2006 2741 1831 2477 
Q 1656 2213 1656 1722 
L 1656 0 
L 531 0 
L 531 3500 
L 1656 3500 
L 1656 2988 
Q 1863 3284 2130 3434 
Q 2397 3584 2719 3584 
Q 3081 3584 3359 3409 
Q 3638 3234 3781 2919 
z
" transform="scale(0.015625)"/>
       <path id="DejaVuSans-Bold-65" d="M 4031 1759 
L 4031 1441 
L 1416 1441 
Q 1456 1047 1700 850 
Q 1944 653 2381 653 
Q 2734 653 3104 758 
Q 3475 863 3866 1075 
L 3866 213 
Q 3469 63 3072 -14 
Q 2675 -91 2278 -91 
Q 1328 -91 801 392 
Q 275 875 275 1747 
Q 275 2603 792 3093 
Q 1309 3584 2216 3584 
Q 3041 3584 3536 3087 
Q 4031 2591 4031 1759 
z
M 2881 2131 
Q 2881 2450 2695 2645 
Q 2509 2841 2209 2841 
Q 1884 2841 1681 2658 
Q 1478 2475 1428 2131 
L 2881 2131 
z
" transform="scale(0.015625)"/>
       <path id="DejaVuSans-Bold-20" transform="scale(0.015625)"/>
       <path id="DejaVuSans-Bold-5b" d="M 550 4863 
L 2491 4863 
L 2491 4159 
L 1613 4159 
L 1613 -141 
L 2491 -141 
L 2491 -844 
L 550 -844 
L 550 4863 
z
" transform="scale(0.015625)"/>
       <path id="DejaVuSans-Bold-68" d="M 4056 2131 
L 4056 0 
L 2931 0 
L 2931 347 
L 2931 1625 
Q 2931 2084 2911 2256 
Q 2891 2428 2841 2509 
Q 2775 2619 2662 2680 
Q 2550 2741 2406 2741 
Q 2056 2741 1856 2470 
Q 1656 2200 1656 1722 
L 1656 0 
L 538 0 
L 538 4863 
L 1656 4863 
L 1656 2988 
Q 1909 3294 2193 3439 
Q 2478 3584 2822 3584 
Q 3428 3584 3742 3212 
Q 4056 2841 4056 2131 
z
" transform="scale(0.015625)"/>
       <path id="DejaVuSans-Bold-72" d="M 3138 2547 
Q 2991 2616 2845 2648 
Q 2700 2681 2553 2681 
Q 2122 2681 1889 2404 
Q 1656 2128 1656 1613 
L 1656 0 
L 538 0 
L 538 3500 
L 1656 3500 
L 1656 2925 
Q 1872 3269 2151 3426 
Q 2431 3584 2822 3584 
Q 2878 3584 2943 3579 
Q 3009 3575 3134 3559 
L 3138 2547 
z
" transform="scale(0.015625)"/>
       <path id="DejaVuSans-Bold-5d" d="M 2375 -844 
L 434 -844 
L 434 -141 
L 1313 -141 
L 1313 4159 
L 434 4159 
L 434 4863 
L 2375 4863 
L 2375 -844 
z
" transform="scale(0.015625)"/>
      </defs>
      <use xlink:href="#DejaVuSans-Bold-74"/>
      <use xlink:href="#DejaVuSans-Bold-69" transform="translate(47.802734 0)"/>
      <use xlink:href="#DejaVuSans-Bold-6d" transform="translate(82.080078 0)"/>
      <use xlink:href="#DejaVuSans-Bold-65" transform="translate(186.279297 0)"/>
      <use xlink:href="#DejaVuSans-Bold-20" transform="translate(254.101562 0)"/>
      <use xlink:href="#DejaVuSans-Bold-5b" transform="translate(288.916016 0)"/>
      <use xlink:href="#DejaVuSans-Bold-68" transform="translate(334.619141 0)"/>
      <use xlink:href="#DejaVuSans-Bold-72" transform="translate(405.810547 0)"/>
      <use xlink:href="#DejaVuSans-Bold-5d" transform="translate(455.126953 0)"/>
     </g>
    </g>
   </g>
   <g id="matplotlib.axis_2">
    <g id="ytick_1">
     <g id="line2d_8">
      <defs>
       <path id="m33fa91fcc2" d="M 0 0 
L -3.5 0 
" style="stroke: #000000; stroke-width: 0.8"/>
      </defs>
      <g>
       <use xlink:href="#m33fa91fcc2" x="64.3925" y="307.8" style="stroke: #000000; stroke-width: 0.8"/>
      </g>
     </g>
     <g id="text_9">
      <!-- 0 -->
      <g transform="translate(47.84875 313.498828) scale(0.15 -0.15)">
       <use xlink:href="#DejaVuSans-30"/>
      </g>
     </g>
    </g>
    <g id="ytick_2">
     <g id="line2d_9">
      <g>
       <use xlink:href="#m33fa91fcc2" x="64.3925" y="268.661009" style="stroke: #000000; stroke-width: 0.8"/>
      </g>
     </g>
     <g id="text_10">
      <!-- 20 -->
      <g transform="translate(38.305 274.359837) scale(0.15 -0.15)">
       <use xlink:href="#DejaVuSans-32"/>
       <use xlink:href="#DejaVuSans-30" transform="translate(63.623047 0)"/>
      </g>
     </g>
    </g>
    <g id="ytick_3">
     <g id="line2d_10">
      <g>
       <use xlink:href="#m33fa91fcc2" x="64.3925" y="229.522018" style="stroke: #000000; stroke-width: 0.8"/>
      </g>
     </g>
     <g id="text_11">
      <!-- 40 -->
      <g transform="translate(38.305 235.220846) scale(0.15 -0.15)">
       <use xlink:href="#DejaVuSans-34"/>
       <use xlink:href="#DejaVuSans-30" transform="translate(63.623047 0)"/>
      </g>
     </g>
    </g>
    <g id="ytick_4">
     <g id="line2d_11">
      <g>
       <use xlink:href="#m33fa91fcc2" x="64.3925" y="190.383027" style="stroke: #000000; stroke-width: 0.8"/>
      </g>
     </g>
     <g id="text_12">
      <!-- 60 -->
      <g transform="translate(38.305 196.081855) scale(0.15 -0.15)">
       <use xlink:href="#DejaVuSans-36"/>
       <use xlink:href="#DejaVuSans-30" transform="translate(63.623047 0)"/>
      </g>
     </g>
    </g>
    <g id="ytick_5">
     <g id="line2d_12">
      <g>
       <use xlink:href="#m33fa91fcc2" x="64.3925" y="151.244036" style="stroke: #000000; stroke-width: 0.8"/>
      </g>
     </g>
     <g id="text_13">
      <!-- 80 -->
      <g transform="translate(38.305 156.942865) scale(0.15 -0.15)">
       <use xlink:href="#DejaVuSans-38"/>
       <use xlink:href="#DejaVuSans-30" transform="translate(63.623047 0)"/>
      </g>
     </g>
    </g>
    <g id="ytick_6">
     <g id="line2d_13">
      <g>
       <use xlink:href="#m33fa91fcc2" x="64.3925" y="112.105046" style="stroke: #000000; stroke-width: 0.8"/>
      </g>
     </g>
     <g id="text_14">
      <!-- 100 -->
      <g transform="translate(28.76125 117.803874) scale(0.15 -0.15)">
       <use xlink:href="#DejaVuSans-31"/>
       <use xlink:href="#DejaVuSans-30" transform="translate(63.623047 0)"/>
       <use xlink:href="#DejaVuSans-30" transform="translate(127.246094 0)"/>
      </g>
     </g>
    </g>
    <g id="ytick_7">
     <g id="line2d_14">
      <g>
       <use xlink:href="#m33fa91fcc2" x="64.3925" y="72.966055" style="stroke: #000000; stroke-width: 0.8"/>
      </g>
     </g>
     <g id="text_15">
      <!-- 120 -->
      <g transform="translate(28.76125 78.664883) scale(0.15 -0.15)">
       <use xlink:href="#DejaVuSans-31"/>
       <use xlink:href="#DejaVuSans-32" transform="translate(63.623047 0)"/>
       <use xlink:href="#DejaVuSans-30" transform="translate(127.246094 0)"/>
      </g>
     </g>
    </g>
    <g id="text_16">
     <!-- rapamycin blood [nM] -->
     <g transform="translate(20.877187 293.092031) rotate(-90) scale(0.18 -0.18)">
      <defs>
       <path id="DejaVuSans-Bold-61" d="M 2106 1575 
Q 1756 1575 1579 1456 
Q 1403 1338 1403 1106 
Q 1403 894 1545 773 
Q 1688 653 1941 653 
Q 2256 653 2472 879 
Q 2688 1106 2688 1447 
L 2688 1575 
L 2106 1575 
z
M 3816 1997 
L 3816 0 
L 2688 0 
L 2688 519 
Q 2463 200 2181 54 
Q 1900 -91 1497 -91 
Q 953 -91 614 226 
Q 275 544 275 1050 
Q 275 1666 698 1953 
Q 1122 2241 2028 2241 
L 2688 2241 
L 2688 2328 
Q 2688 2594 2478 2717 
Q 2269 2841 1825 2841 
Q 1466 2841 1156 2769 
Q 847 2697 581 2553 
L 581 3406 
Q 941 3494 1303 3539 
Q 1666 3584 2028 3584 
Q 2975 3584 3395 3211 
Q 3816 2838 3816 1997 
z
" transform="scale(0.015625)"/>
       <path id="DejaVuSans-Bold-70" d="M 1656 506 
L 1656 -1331 
L 538 -1331 
L 538 3500 
L 1656 3500 
L 1656 2988 
Q 1888 3294 2169 3439 
Q 2450 3584 2816 3584 
Q 3463 3584 3878 3070 
Q 4294 2556 4294 1747 
Q 4294 938 3878 423 
Q 3463 -91 2816 -91 
Q 2450 -91 2169 54 
Q 1888 200 1656 506 
z
M 2400 2772 
Q 2041 2772 1848 2508 
Q 1656 2244 1656 1747 
Q 1656 1250 1848 986 
Q 2041 722 2400 722 
Q 2759 722 2948 984 
Q 3138 1247 3138 1747 
Q 3138 2247 2948 2509 
Q 2759 2772 2400 2772 
z
" transform="scale(0.015625)"/>
       <path id="DejaVuSans-Bold-79" d="M 78 3500 
L 1197 3500 
L 2138 1125 
L 2938 3500 
L 4056 3500 
L 2584 -331 
Q 2363 -916 2067 -1148 
Q 1772 -1381 1288 -1381 
L 641 -1381 
L 641 -647 
L 991 -647 
Q 1275 -647 1404 -556 
Q 1534 -466 1606 -231 
L 1638 -134 
L 78 3500 
z
" transform="scale(0.015625)"/>
       <path id="DejaVuSans-Bold-63" d="M 3366 3391 
L 3366 2478 
Q 3138 2634 2908 2709 
Q 2678 2784 2431 2784 
Q 1963 2784 1702 2511 
Q 1441 2238 1441 1747 
Q 1441 1256 1702 982 
Q 1963 709 2431 709 
Q 2694 709 2930 787 
Q 3166 866 3366 1019 
L 3366 103 
Q 3103 6 2833 -42 
Q 2563 -91 2291 -91 
Q 1344 -91 809 395 
Q 275 881 275 1747 
Q 275 2613 809 3098 
Q 1344 3584 2291 3584 
Q 2566 3584 2833 3536 
Q 3100 3488 3366 3391 
z
" transform="scale(0.015625)"/>
       <path id="DejaVuSans-Bold-6e" d="M 4056 2131 
L 4056 0 
L 2931 0 
L 2931 347 
L 2931 1631 
Q 2931 2084 2911 2256 
Q 2891 2428 2841 2509 
Q 2775 2619 2662 2680 
Q 2550 2741 2406 2741 
Q 2056 2741 1856 2470 
Q 1656 2200 1656 1722 
L 1656 0 
L 538 0 
L 538 3500 
L 1656 3500 
L 1656 2988 
Q 1909 3294 2193 3439 
Q 2478 3584 2822 3584 
Q 3428 3584 3742 3212 
Q 4056 2841 4056 2131 
z
" transform="scale(0.015625)"/>
       <path id="DejaVuSans-Bold-62" d="M 2400 722 
Q 2759 722 2948 984 
Q 3138 1247 3138 1747 
Q 3138 2247 2948 2509 
Q 2759 2772 2400 2772 
Q 2041 2772 1848 2508 
Q 1656 2244 1656 1747 
Q 1656 1250 1848 986 
Q 2041 722 2400 722 
z
M 1656 2988 
Q 1888 3294 2169 3439 
Q 2450 3584 2816 3584 
Q 3463 3584 3878 3070 
Q 4294 2556 4294 1747 
Q 4294 938 3878 423 
Q 3463 -91 2816 -91 
Q 2450 -91 2169 54 
Q 1888 200 1656 506 
L 1656 0 
L 538 0 
L 538 4863 
L 1656 4863 
L 1656 2988 
z
" transform="scale(0.015625)"/>
       <path id="DejaVuSans-Bold-6c" d="M 538 4863 
L 1656 4863 
L 1656 0 
L 538 0 
L 538 4863 
z
" transform="scale(0.015625)"/>
       <path id="DejaVuSans-Bold-6f" d="M 2203 2784 
Q 1831 2784 1636 2517 
Q 1441 2250 1441 1747 
Q 1441 1244 1636 976 
Q 1831 709 2203 709 
Q 2569 709 2762 976 
Q 2956 1244 2956 1747 
Q 2956 2250 2762 2517 
Q 2569 2784 2203 2784 
z
M 2203 3584 
Q 3106 3584 3614 3096 
Q 4122 2609 4122 1747 
Q 4122 884 3614 396 
Q 3106 -91 2203 -91 
Q 1297 -91 786 396 
Q 275 884 275 1747 
Q 275 2609 786 3096 
Q 1297 3584 2203 3584 
z
" transform="scale(0.015625)"/>
       <path id="DejaVuSans-Bold-64" d="M 2919 2988 
L 2919 4863 
L 4044 4863 
L 4044 0 
L 2919 0 
L 2919 506 
Q 2688 197 2409 53 
Q 2131 -91 1766 -91 
Q 1119 -91 703 423 
Q 288 938 288 1747 
Q 288 2556 703 3070 
Q 1119 3584 1766 3584 
Q 2128 3584 2408 3439 
Q 2688 3294 2919 2988 
z
M 2181 722 
Q 2541 722 2730 984 
Q 2919 1247 2919 1747 
Q 2919 2247 2730 2509 
Q 2541 2772 2181 2772 
Q 1825 2772 1636 2509 
Q 1447 2247 1447 1747 
Q 1447 1247 1636 984 
Q 1825 722 2181 722 
z
" transform="scale(0.015625)"/>
       <path id="DejaVuSans-Bold-4d" d="M 588 4666 
L 2119 4666 
L 3181 2169 
L 4250 4666 
L 5778 4666 
L 5778 0 
L 4641 0 
L 4641 3413 
L 3566 897 
L 2803 897 
L 1728 3413 
L 1728 0 
L 588 0 
L 588 4666 
z
" transform="scale(0.015625)"/>
      </defs>
      <use xlink:href="#DejaVuSans-Bold-72"/>
      <use xlink:href="#DejaVuSans-Bold-61" transform="translate(49.316406 0)"/>
      <use xlink:href="#DejaVuSans-Bold-70" transform="translate(116.796875 0)"/>
      <use xlink:href="#DejaVuSans-Bold-61" transform="translate(188.378906 0)"/>
      <use xlink:href="#DejaVuSans-Bold-6d" transform="translate(255.859375 0)"/>
      <use xlink:href="#DejaVuSans-Bold-79" transform="translate(360.058594 0)"/>
      <use xlink:href="#DejaVuSans-Bold-63" transform="translate(425.244141 0)"/>
      <use xlink:href="#DejaVuSans-Bold-69" transform="translate(484.521484 0)"/>
      <use xlink:href="#DejaVuSans-Bold-6e" transform="translate(518.798828 0)"/>
      <use xlink:href="#DejaVuSans-Bold-20" transform="translate(589.990234 0)"/>
      <use xlink:href="#DejaVuSans-Bold-62" transform="translate(624.804688 0)"/>
      <use xlink:href="#DejaVuSans-Bold-6c" transform="translate(696.386719 0)"/>
      <use xlink:href="#DejaVuSans-Bold-6f" transform="translate(730.664062 0)"/>
      <use xlink:href="#DejaVuSans-Bold-6f" transform="translate(799.365234 0)"/>
      <use xlink:href="#DejaVuSans-Bold-64" transform="translate(868.066406 0)"/>
      <use xlink:href="#DejaVuSans-Bold-20" transform="translate(939.648438 0)"/>
      <use xlink:href="#DejaVuSans-Bold-5b" transform="translate(974.462891 0)"/>
      <use xlink:href="#DejaVuSans-Bold-6e" transform="translate(1020.166016 0)"/>
      <use xlink:href="#DejaVuSans-Bold-4d" transform="translate(1091.357422 0)"/>
      <use xlink:href="#DejaVuSans-Bold-5d" transform="translate(1190.869141 0)"/>
     </g>
    </g>
   </g>
   <g id="LineCollection_1">
    <path d="M 64.3925 307.010483 
L 64.3925 304.469556 
" clip-path="url(#p1b9a82b0c7)" style="fill: none; stroke: #000000"/>
    <path d="M 75.134 306.463812 
L 75.134 296.236505 
" clip-path="url(#p1b9a82b0c7)" style="fill: none; stroke: #000000"/>
    <path clip-path="url(#p1b9a82b0c7)" style="fill: none; stroke: #000000"/>
    <path d="M 96.9425 306.069571 
L 96.9425 298.104743 
" clip-path="url(#p1b9a82b0c7)" style="fill: none; stroke: #000000"/>
    <path d="M 129.4925 305.103361 
L 129.4925 300.434951 
" clip-path="url(#p1b9a82b0c7)" style="fill: none; stroke: #000000"/>
    <path d="M 162.0425 305.767359 
L 162.0425 302.510587 
" clip-path="url(#p1b9a82b0c7)" style="fill: none; stroke: #000000"/>
    <path clip-path="url(#p1b9a82b0c7)" style="fill: none; stroke: #000000"/>
    <path d="M 259.6925 307.334868 
L 259.6925 303.058413 
" clip-path="url(#p1b9a82b0c7)" style="fill: none; stroke: #000000"/>
    <path d="M 324.7925 307.551036 
L 324.7925 303.568559 
" clip-path="url(#p1b9a82b0c7)" style="fill: none; stroke: #000000"/>
    <path d="M 454.9925 307.618567 
L 454.9925 305.0087 
" clip-path="url(#p1b9a82b0c7)" style="fill: none; stroke: #000000"/>
    <path clip-path="url(#p1b9a82b0c7)" style="fill: none; stroke: #000000"/>
    <path clip-path="url(#p1b9a82b0c7)" style="fill: none; stroke: #000000"/>
    <path clip-path="url(#p1b9a82b0c7)" style="fill: none; stroke: #000000"/>
    <path clip-path="url(#p1b9a82b0c7)" style="fill: none; stroke: #000000"/>
    <path clip-path="url(#p1b9a82b0c7)" style="fill: none; stroke: #000000"/>
    <path clip-path="url(#p1b9a82b0c7)" style="fill: none; stroke: #000000"/>
    <path clip-path="url(#p1b9a82b0c7)" style="fill: none; stroke: #000000"/>
    <path clip-path="url(#p1b9a82b0c7)" style="fill: none; stroke: #000000"/>
   </g>
   <g id="LineCollection_2">
    <path d="M 64.3925 297.424021 
L 64.3925 283.15322 
" clip-path="url(#p1b9a82b0c7)" style="fill: none; stroke: #ffe299"/>
    <path clip-path="url(#p1b9a82b0c7)" style="fill: none; stroke: #ffe299"/>
    <path clip-path="url(#p1b9a82b0c7)" style="fill: none; stroke: #ffe299"/>
    <path d="M 96.9425 297.578442 
L 96.9425 285.913955 
" clip-path="url(#p1b9a82b0c7)" style="fill: none; stroke: #ffe299"/>
    <path d="M 129.4925 300.105169 
L 129.4925 289.708445 
" clip-path="url(#p1b9a82b0c7)" style="fill: none; stroke: #ffe299"/>
    <path d="M 162.0425 300.971565 
L 162.0425 295.406159 
" clip-path="url(#p1b9a82b0c7)" style="fill: none; stroke: #ffe299"/>
    <path clip-path="url(#p1b9a82b0c7)" style="fill: none; stroke: #ffe299"/>
    <path d="M 259.6925 303.422123 
L 259.6925 298.323191 
" clip-path="url(#p1b9a82b0c7)" style="fill: none; stroke: #ffe299"/>
    <path d="M 324.7925 304.715865 
L 324.7925 301.3219 
" clip-path="url(#p1b9a82b0c7)" style="fill: none; stroke: #ffe299"/>
    <path d="M 454.9925 305.620196 
L 454.9925 303.720457 
" clip-path="url(#p1b9a82b0c7)" style="fill: none; stroke: #ffe299"/>
    <path clip-path="url(#p1b9a82b0c7)" style="fill: none; stroke: #ffe299"/>
    <path clip-path="url(#p1b9a82b0c7)" style="fill: none; stroke: #ffe299"/>
    <path clip-path="url(#p1b9a82b0c7)" style="fill: none; stroke: #ffe299"/>
    <path clip-path="url(#p1b9a82b0c7)" style="fill: none; stroke: #ffe299"/>
    <path clip-path="url(#p1b9a82b0c7)" style="fill: none; stroke: #ffe299"/>
    <path clip-path="url(#p1b9a82b0c7)" style="fill: none; stroke: #ffe299"/>
    <path clip-path="url(#p1b9a82b0c7)" style="fill: none; stroke: #ffe299"/>
    <path clip-path="url(#p1b9a82b0c7)" style="fill: none; stroke: #ffe299"/>
   </g>
   <g id="LineCollection_3">
    <path d="M 64.3925 287.143914 
L 64.3925 268.245315 
" clip-path="url(#p1b9a82b0c7)" style="fill: none; stroke: #ffb347"/>
    <path clip-path="url(#p1b9a82b0c7)" style="fill: none; stroke: #ffb347"/>
    <path clip-path="url(#p1b9a82b0c7)" style="fill: none; stroke: #ffb347"/>
    <path d="M 96.9425 281.751865 
L 96.9425 251.113084 
" clip-path="url(#p1b9a82b0c7)" style="fill: none; stroke: #ffb347"/>
    <path d="M 129.4925 305.050546 
L 129.4925 252.315609 
" clip-path="url(#p1b9a82b0c7)" style="fill: none; stroke: #ffb347"/>
    <path clip-path="url(#p1b9a82b0c7)" style="fill: none; stroke: #ffb347"/>
    <path clip-path="url(#p1b9a82b0c7)" style="fill: none; stroke: #ffb347"/>
    <path d="M 259.6925 298.926268 
L 259.6925 287.530885 
" clip-path="url(#p1b9a82b0c7)" style="fill: none; stroke: #ffb347"/>
    <path d="M 324.7925 302.298427 
L 324.7925 293.462969 
" clip-path="url(#p1b9a82b0c7)" style="fill: none; stroke: #ffb347"/>
    <path d="M 454.9925 305.156805 
L 454.9925 298.863734 
" clip-path="url(#p1b9a82b0c7)" style="fill: none; stroke: #ffb347"/>
    <path clip-path="url(#p1b9a82b0c7)" style="fill: none; stroke: #ffb347"/>
    <path clip-path="url(#p1b9a82b0c7)" style="fill: none; stroke: #ffb347"/>
    <path clip-path="url(#p1b9a82b0c7)" style="fill: none; stroke: #ffb347"/>
    <path clip-path="url(#p1b9a82b0c7)" style="fill: none; stroke: #ffb347"/>
    <path clip-path="url(#p1b9a82b0c7)" style="fill: none; stroke: #ffb347"/>
    <path clip-path="url(#p1b9a82b0c7)" style="fill: none; stroke: #ffb347"/>
    <path clip-path="url(#p1b9a82b0c7)" style="fill: none; stroke: #ffb347"/>
    <path clip-path="url(#p1b9a82b0c7)" style="fill: none; stroke: #ffb347"/>
   </g>
   <g id="LineCollection_4">
    <path clip-path="url(#p1b9a82b0c7)" style="fill: none; stroke: #ff944d"/>
    <path d="M 75.134 235.172731 
L 75.134 184.38379 
" clip-path="url(#p1b9a82b0c7)" style="fill: none; stroke: #ff944d"/>
    <path d="M 85.8755 236.503157 
L 85.8755 210.967832 
" clip-path="url(#p1b9a82b0c7)" style="fill: none; stroke: #ff944d"/>
    <path d="M 96.9425 270.450631 
L 96.9425 225.228473 
" clip-path="url(#p1b9a82b0c7)" style="fill: none; stroke: #ff944d"/>
    <path d="M 129.4925 282.432014 
L 129.4925 246.170749 
" clip-path="url(#p1b9a82b0c7)" style="fill: none; stroke: #ff944d"/>
    <path d="M 162.0425 277.523994 
L 162.0425 266.66292 
" clip-path="url(#p1b9a82b0c7)" style="fill: none; stroke: #ff944d"/>
    <path clip-path="url(#p1b9a82b0c7)" style="fill: none; stroke: #ff944d"/>
    <path d="M 259.6925 293.253437 
L 259.6925 276.53601 
" clip-path="url(#p1b9a82b0c7)" style="fill: none; stroke: #ff944d"/>
    <path d="M 324.7925 295.900537 
L 324.7925 285.362955 
" clip-path="url(#p1b9a82b0c7)" style="fill: none; stroke: #ff944d"/>
    <path d="M 454.9925 300.129828 
L 454.9925 291.152046 
" clip-path="url(#p1b9a82b0c7)" style="fill: none; stroke: #ff944d"/>
    <path clip-path="url(#p1b9a82b0c7)" style="fill: none; stroke: #ff944d"/>
    <path clip-path="url(#p1b9a82b0c7)" style="fill: none; stroke: #ff944d"/>
    <path clip-path="url(#p1b9a82b0c7)" style="fill: none; stroke: #ff944d"/>
    <path clip-path="url(#p1b9a82b0c7)" style="fill: none; stroke: #ff944d"/>
    <path clip-path="url(#p1b9a82b0c7)" style="fill: none; stroke: #ff944d"/>
    <path clip-path="url(#p1b9a82b0c7)" style="fill: none; stroke: #ff944d"/>
    <path clip-path="url(#p1b9a82b0c7)" style="fill: none; stroke: #ff944d"/>
    <path clip-path="url(#p1b9a82b0c7)" style="fill: none; stroke: #ff944d"/>
   </g>
   <g id="LineCollection_5">
    <path d="M 64.3925 200.651865 
L 64.3925 106.961462 
" clip-path="url(#p1b9a82b0c7)" style="fill: none; stroke: #d2691e"/>
    <path d="M 75.134 220.445469 
L 75.134 55.8 
" clip-path="url(#p1b9a82b0c7)" style="fill: none; stroke: #d2691e"/>
    <path clip-path="url(#p1b9a82b0c7)" style="fill: none; stroke: #d2691e"/>
    <path clip-path="url(#p1b9a82b0c7)" style="fill: none; stroke: #d2691e"/>
    <path d="M 129.4925 236.261827 
L 129.4925 190.960715 
" clip-path="url(#p1b9a82b0c7)" style="fill: none; stroke: #d2691e"/>
    <path d="M 162.0425 250.907522 
L 162.0425 216.628454 
" clip-path="url(#p1b9a82b0c7)" style="fill: none; stroke: #d2691e"/>
    <path d="M 194.5925 268.225094 
L 194.5925 227.03734 
" clip-path="url(#p1b9a82b0c7)" style="fill: none; stroke: #d2691e"/>
    <path d="M 259.6925 278.713566 
L 259.6925 256.327293 
" clip-path="url(#p1b9a82b0c7)" style="fill: none; stroke: #d2691e"/>
    <path d="M 324.7925 285.623756 
L 324.7925 270.950017 
" clip-path="url(#p1b9a82b0c7)" style="fill: none; stroke: #d2691e"/>
    <path d="M 454.9925 292.352756 
L 454.9925 286.533918 
" clip-path="url(#p1b9a82b0c7)" style="fill: none; stroke: #d2691e"/>
    <path clip-path="url(#p1b9a82b0c7)" style="fill: none; stroke: #d2691e"/>
    <path clip-path="url(#p1b9a82b0c7)" style="fill: none; stroke: #d2691e"/>
    <path clip-path="url(#p1b9a82b0c7)" style="fill: none; stroke: #d2691e"/>
    <path clip-path="url(#p1b9a82b0c7)" style="fill: none; stroke: #d2691e"/>
    <path clip-path="url(#p1b9a82b0c7)" style="fill: none; stroke: #d2691e"/>
    <path clip-path="url(#p1b9a82b0c7)" style="fill: none; stroke: #d2691e"/>
    <path clip-path="url(#p1b9a82b0c7)" style="fill: none; stroke: #d2691e"/>
    <path clip-path="url(#p1b9a82b0c7)" style="fill: none; stroke: #d2691e"/>
   </g>
   <g id="line2d_15">
    <path d="M 64.3925 307.8 
L 70.08875 307.314059 
L 75.785 306.756786 
L 81.48125 306.400733 
L 87.1775 306.187358 
L 92.87375 306.070724 
L 98.57 306.018835 
L 104.26625 306.009524 
L 109.9625 306.02751 
L 115.65875 306.062328 
L 121.355 306.106868 
L 127.05125 306.15636 
L 132.7475 306.207652 
L 138.44375 306.258709 
L 144.14 306.308264 
L 149.83625 306.355572 
L 155.5325 306.400236 
L 161.22875 306.442095 
L 166.925 306.481137 
L 172.62125 306.517446 
L 178.3175 306.551161 
L 184.01375 306.582452 
L 189.71 306.611504 
L 195.40625 306.638503 
L 201.1025 306.663631 
L 206.79875 306.687061 
L 212.495 306.708953 
L 218.19125 306.729458 
L 223.8875 306.74871 
L 229.58375 306.766835 
L 235.28 306.783945 
L 240.97625 306.800139 
L 246.6725 306.815509 
L 252.36875 306.830137 
L 258.065 306.844093 
L 263.76125 306.857445 
L 269.4575 306.870248 
L 275.15375 306.882556 
L 280.85 306.894414 
L 286.54625 306.905862 
L 292.2425 306.916939 
L 297.93875 306.927676 
L 303.635 306.938102 
L 309.33125 306.948243 
L 315.0275 306.958122 
L 320.72375 306.96776 
L 326.42 306.977176 
L 332.11625 306.986384 
L 337.8125 306.995401 
L 343.50875 307.004239 
L 349.205 307.01291 
L 354.90125 307.021424 
L 360.5975 307.029791 
L 366.29375 307.038019 
L 371.99 307.046115 
L 377.68625 307.054087 
L 383.3825 307.06194 
L 389.07875 307.06968 
L 394.775 307.077312 
L 400.47125 307.08484 
L 406.1675 307.092268 
L 411.86375 307.0996 
L 417.56 307.106839 
L 423.25625 307.113989 
L 428.9525 307.121052 
L 434.64875 307.12803 
L 440.345 307.134926 
L 446.04125 307.141742 
L 451.7375 307.14848 
L 457.43375 307.155142 
" clip-path="url(#p1b9a82b0c7)" style="fill: none; stroke: #000000; stroke-width: 2; stroke-linecap: square"/>
   </g>
   <g id="line2d_16">
    <path d="M 64.3925 305.740019 
L 75.134 301.350158 
L 85.8755 300.433104 
L 96.9425 302.087157 
L 129.4925 302.769156 
L 162.0425 304.138973 
M 259.6925 305.19664 
L 324.7925 305.559798 
L 454.9925 306.313633 
L 472.73625 306.368778 
" clip-path="url(#p1b9a82b0c7)" style="fill: none; stroke-dasharray: 3.7,1.6; stroke-dashoffset: 0; stroke: #000000"/>
    <defs>
     <path id="m5974521d5c" d="M -3 3 
L 3 3 
L 3 -3 
L -3 -3 
z
" style="stroke: #000000; stroke-linejoin: miter"/>
    </defs>
    <g clip-path="url(#p1b9a82b0c7)">
     <use xlink:href="#m5974521d5c" x="64.3925" y="305.740019" style="stroke: #000000; stroke-linejoin: miter"/>
     <use xlink:href="#m5974521d5c" x="75.134" y="301.350158" style="stroke: #000000; stroke-linejoin: miter"/>
     <use xlink:href="#m5974521d5c" x="85.8755" y="300.433104" style="stroke: #000000; stroke-linejoin: miter"/>
     <use xlink:href="#m5974521d5c" x="96.9425" y="302.087157" style="stroke: #000000; stroke-linejoin: miter"/>
     <use xlink:href="#m5974521d5c" x="129.4925" y="302.769156" style="stroke: #000000; stroke-linejoin: miter"/>
     <use xlink:href="#m5974521d5c" x="162.0425" y="304.138973" style="stroke: #000000; stroke-linejoin: miter"/>
     <use xlink:href="#m5974521d5c" x="259.6925" y="305.19664" style="stroke: #000000; stroke-linejoin: miter"/>
     <use xlink:href="#m5974521d5c" x="324.7925" y="305.559798" style="stroke: #000000; stroke-linejoin: miter"/>
     <use xlink:href="#m5974521d5c" x="454.9925" y="306.313633" style="stroke: #000000; stroke-linejoin: miter"/>
     <use xlink:href="#m5974521d5c" x="585.1925" y="306.718277" style="stroke: #000000; stroke-linejoin: miter"/>
     <use xlink:href="#m5974521d5c" x="845.5925" y="306.836173" style="stroke: #000000; stroke-linejoin: miter"/>
     <use xlink:href="#m5974521d5c" x="1626.7925" y="306.910535" style="stroke: #000000; stroke-linejoin: miter"/>
    </g>
   </g>
   <g id="line2d_17">
    <path d="M 64.3925 307.8 
L 70.08875 306.334055 
L 75.785 304.650388 
L 81.48125 303.575167 
L 87.1775 302.931552 
L 92.87375 302.580517 
L 98.57 302.425225 
L 104.26625 302.398596 
L 109.9625 302.454397 
L 115.65875 302.560964 
L 121.355 302.696798 
L 127.05125 302.847473 
L 132.7475 303.003465 
L 138.44375 303.158629 
L 144.14 303.309142 
L 149.83625 303.452757 
L 155.5325 303.588291 
L 161.22875 303.71526 
L 166.925 303.833638 
L 172.62125 303.943684 
L 178.3175 304.045829 
L 184.01375 304.140594 
L 189.71 304.228542 
L 195.40625 304.310242 
L 201.1025 304.386248 
L 206.79875 304.457086 
L 212.495 304.523249 
L 218.19125 304.58519 
L 223.8875 304.643326 
L 229.58375 304.698032 
L 235.28 304.749651 
L 240.97625 304.79849 
L 246.6725 304.844825 
L 252.36875 304.888901 
L 258.065 304.930942 
L 263.76125 304.971144 
L 269.4575 305.009683 
L 275.15375 305.046717 
L 280.85 305.082386 
L 286.54625 305.116815 
L 292.2425 305.150115 
L 297.93875 305.182385 
L 303.635 305.213713 
L 309.33125 305.244179 
L 315.0275 305.273852 
L 320.72375 305.302795 
L 326.42 305.331064 
L 332.11625 305.358708 
L 337.8125 305.385773 
L 343.50875 305.412297 
L 349.205 305.438316 
L 354.90125 305.463862 
L 360.5975 305.488964 
L 366.29375 305.513647 
L 371.99 305.537933 
L 377.68625 305.561843 
L 383.3825 305.585397 
L 389.07875 305.608609 
L 394.775 305.631496 
L 400.47125 305.654071 
L 406.1675 305.676346 
L 411.86375 305.698332 
L 417.56 305.720039 
L 423.25625 305.741477 
L 428.9525 305.762654 
L 434.64875 305.783577 
L 440.345 305.804253 
L 446.04125 305.82469 
L 451.7375 305.844892 
L 457.43375 305.864865 
" clip-path="url(#p1b9a82b0c7)" style="fill: none; stroke: #ffe299; stroke-width: 2; stroke-linecap: square"/>
   </g>
   <g id="line2d_18">
    <path d="M 64.3925 290.28862 
L 75.134 283.085862 
L 85.8755 285.445319 
L 96.9425 291.746198 
L 129.4925 294.906807 
L 162.0425 298.188862 
M 259.6925 300.872657 
L 324.7925 303.018882 
L 454.9925 304.670327 
L 472.73625 304.775796 
" clip-path="url(#p1b9a82b0c7)" style="fill: none; stroke-dasharray: 3.7,1.6; stroke-dashoffset: 0; stroke: #ffe299"/>
    <defs>
     <path id="m7720efa490" d="M -3 3 
L 3 3 
L 3 -3 
L -3 -3 
z
" style="stroke: #000000; stroke-linejoin: miter"/>
    </defs>
    <g clip-path="url(#p1b9a82b0c7)">
     <use xlink:href="#m7720efa490" x="64.3925" y="290.28862" style="fill: #ffe299; stroke: #000000; stroke-linejoin: miter"/>
     <use xlink:href="#m7720efa490" x="75.134" y="283.085862" style="fill: #ffe299; stroke: #000000; stroke-linejoin: miter"/>
     <use xlink:href="#m7720efa490" x="85.8755" y="285.445319" style="fill: #ffe299; stroke: #000000; stroke-linejoin: miter"/>
     <use xlink:href="#m7720efa490" x="96.9425" y="291.746198" style="fill: #ffe299; stroke: #000000; stroke-linejoin: miter"/>
     <use xlink:href="#m7720efa490" x="129.4925" y="294.906807" style="fill: #ffe299; stroke: #000000; stroke-linejoin: miter"/>
     <use xlink:href="#m7720efa490" x="162.0425" y="298.188862" style="fill: #ffe299; stroke: #000000; stroke-linejoin: miter"/>
     <use xlink:href="#m7720efa490" x="259.6925" y="300.872657" style="fill: #ffe299; stroke: #000000; stroke-linejoin: miter"/>
     <use xlink:href="#m7720efa490" x="324.7925" y="303.018882" style="fill: #ffe299; stroke: #000000; stroke-linejoin: miter"/>
     <use xlink:href="#m7720efa490" x="454.9925" y="304.670327" style="fill: #ffe299; stroke: #000000; stroke-linejoin: miter"/>
     <use xlink:href="#m7720efa490" x="585.1925" y="305.444237" style="fill: #ffe299; stroke: #000000; stroke-linejoin: miter"/>
     <use xlink:href="#m7720efa490" x="845.5925" y="305.828357" style="fill: #ffe299; stroke: #000000; stroke-linejoin: miter"/>
     <use xlink:href="#m7720efa490" x="1626.7925" y="306.384984" style="fill: #ffe299; stroke: #000000; stroke-linejoin: miter"/>
     <use xlink:href="#m7720efa490" x="2407.9925" y="306.729213" style="fill: #ffe299; stroke: #000000; stroke-linejoin: miter"/>
     <use xlink:href="#m7720efa490" x="3189.1925" y="306.933189" style="fill: #ffe299; stroke: #000000; stroke-linejoin: miter"/>
     <use xlink:href="#m7720efa490" x="3970.3925" y="306.98531" style="fill: #ffe299; stroke: #000000; stroke-linejoin: miter"/>
     <use xlink:href="#m7720efa490" x="4751.5925" y="307.045281" style="fill: #ffe299; stroke: #000000; stroke-linejoin: miter"/>
    </g>
   </g>
   <g id="line2d_19">
    <path d="M 64.3925 307.8 
L 70.08875 302.959426 
L 75.785 297.407869 
L 81.48125 293.860861 
L 87.1775 291.735288 
L 92.87375 290.573521 
L 98.57 290.056777 
L 104.26625 289.964214 
L 109.9625 290.143594 
L 115.65875 290.490637 
L 121.355 290.934528 
L 127.05125 291.427728 
L 132.7475 291.938838 
L 138.44375 292.447594 
L 144.14 292.94137 
L 149.83625 293.412737 
L 155.5325 293.857761 
L 161.22875 294.274825 
L 166.925 294.663817 
L 172.62125 295.025566 
L 178.3175 295.361467 
L 184.01375 295.673219 
L 189.71 295.962656 
L 195.40625 296.231635 
L 201.1025 296.481968 
L 206.79875 296.715376 
L 212.495 296.933469 
L 218.19125 297.137731 
L 223.8875 297.329521 
L 229.58375 297.510074 
L 235.28 297.680507 
L 240.97625 297.841823 
L 246.6725 297.994927 
L 252.36875 298.140628 
L 258.065 298.279648 
L 263.76125 298.412635 
L 269.4575 298.540165 
L 275.15375 298.662754 
L 280.85 298.78086 
L 286.54625 298.894892 
L 292.2425 299.005215 
L 297.93875 299.112152 
L 303.635 299.215994 
L 309.33125 299.316998 
L 315.0275 299.415394 
L 320.72375 299.511387 
L 326.42 299.60516 
L 332.11625 299.696875 
L 337.8125 299.786678 
L 343.50875 299.8747 
L 349.205 299.961057 
L 354.90125 300.045853 
L 360.5975 300.12918 
L 366.29375 300.211124 
L 371.99 300.291758 
L 377.68625 300.371149 
L 383.3825 300.449359 
L 389.07875 300.526442 
L 394.775 300.602448 
L 400.47125 300.677419 
L 406.1675 300.751398 
L 411.86375 300.82442 
L 417.56 300.896517 
L 423.25625 300.967722 
L 428.9525 301.03806 
L 434.64875 301.107557 
L 440.345 301.176236 
L 446.04125 301.244119 
L 451.7375 301.311224 
L 457.43375 301.377569 
" clip-path="url(#p1b9a82b0c7)" style="fill: none; stroke: #ffb347; stroke-width: 2; stroke-linecap: square"/>
   </g>
   <g id="line2d_20">
    <path d="M 64.3925 277.694615 
M 96.9425 266.432474 
L 129.4925 278.683077 
L 162.0425 285.814553 
M 259.6925 293.228576 
L 324.7925 297.880698 
L 454.9925 302.010269 
L 472.73625 302.155838 
" clip-path="url(#p1b9a82b0c7)" style="fill: none; stroke-dasharray: 3.7,1.6; stroke-dashoffset: 0; stroke: #ffb347"/>
    <defs>
     <path id="m733d1327d9" d="M -3 3 
L 3 3 
L 3 -3 
L -3 -3 
z
" style="stroke: #000000; stroke-linejoin: miter"/>
    </defs>
    <g clip-path="url(#p1b9a82b0c7)">
     <use xlink:href="#m733d1327d9" x="64.3925" y="277.694615" style="fill: #ffb347; stroke: #000000; stroke-linejoin: miter"/>
     <use xlink:href="#m733d1327d9" x="96.9425" y="266.432474" style="fill: #ffb347; stroke: #000000; stroke-linejoin: miter"/>
     <use xlink:href="#m733d1327d9" x="129.4925" y="278.683077" style="fill: #ffb347; stroke: #000000; stroke-linejoin: miter"/>
     <use xlink:href="#m733d1327d9" x="162.0425" y="285.814553" style="fill: #ffb347; stroke: #000000; stroke-linejoin: miter"/>
     <use xlink:href="#m733d1327d9" x="259.6925" y="293.228576" style="fill: #ffb347; stroke: #000000; stroke-linejoin: miter"/>
     <use xlink:href="#m733d1327d9" x="324.7925" y="297.880698" style="fill: #ffb347; stroke: #000000; stroke-linejoin: miter"/>
     <use xlink:href="#m733d1327d9" x="454.9925" y="302.010269" style="fill: #ffb347; stroke: #000000; stroke-linejoin: miter"/>
     <use xlink:href="#m733d1327d9" x="585.1925" y="303.078425" style="fill: #ffb347; stroke: #000000; stroke-linejoin: miter"/>
     <use xlink:href="#m733d1327d9" x="845.5925" y="303.710049" style="fill: #ffb347; stroke: #000000; stroke-linejoin: miter"/>
     <use xlink:href="#m733d1327d9" x="1626.7925" y="305.096905" style="fill: #ffb347; stroke: #000000; stroke-linejoin: miter"/>
     <use xlink:href="#m733d1327d9" x="2407.9925" y="305.594467" style="fill: #ffb347; stroke: #000000; stroke-linejoin: miter"/>
     <use xlink:href="#m733d1327d9" x="3189.1925" y="305.982295" style="fill: #ffb347; stroke: #000000; stroke-linejoin: miter"/>
     <use xlink:href="#m733d1327d9" x="3970.3925" y="306.316883" style="fill: #ffb347; stroke: #000000; stroke-linejoin: miter"/>
     <use xlink:href="#m733d1327d9" x="4751.5925" y="306.561223" style="fill: #ffb347; stroke: #000000; stroke-linejoin: miter"/>
    </g>
   </g>
   <g id="line2d_21">
    <path d="M 64.3925 307.8 
L 70.08875 299.865834 
L 75.785 290.763956 
L 81.48125 284.948946 
L 87.1775 281.464884 
L 92.87375 279.561289 
L 98.57 278.715362 
L 104.26625 278.564928 
L 109.9625 278.860317 
L 115.65875 279.430524 
L 121.355 280.159418 
L 127.05125 280.969049 
L 132.7475 281.807934 
L 138.44375 282.642852 
L 144.14 283.45311 
L 149.83625 284.226531 
L 155.5325 284.956675 
L 161.22875 285.640899 
L 166.925 286.279026 
L 172.62125 286.872424 
L 178.3175 287.423387 
L 184.01375 287.934704 
L 189.71 288.40939 
L 195.40625 288.850496 
L 201.1025 289.260995 
L 206.79875 289.643714 
L 212.495 290.001296 
L 218.19125 290.336178 
L 223.8875 290.650591 
L 229.58375 290.946562 
L 235.28 291.225923 
L 240.97625 291.490325 
L 246.6725 291.741249 
L 252.36875 291.980025 
L 258.065 292.207839 
L 263.76125 292.425753 
L 269.4575 292.634715 
L 275.15375 292.835569 
L 280.85 293.029068 
L 286.54625 293.215883 
L 292.2425 293.396614 
L 297.93875 293.571792 
L 303.635 293.741892 
L 309.33125 293.907337 
L 315.0275 294.068506 
L 320.72375 294.225733 
L 326.42 294.379319 
L 332.11625 294.529532 
L 337.8125 294.67661 
L 343.50875 294.820768 
L 349.205 294.962195 
L 354.90125 295.101064 
L 360.5975 295.237526 
L 366.29375 295.37172 
L 371.99 295.503767 
L 377.68625 295.633779 
L 383.3825 295.761854 
L 389.07875 295.888083 
L 394.775 296.012546 
L 400.47125 296.135315 
L 406.1675 296.256458 
L 411.86375 296.376032 
L 417.56 296.494094 
L 423.25625 296.610692 
L 428.9525 296.725871 
L 434.64875 296.839673 
L 440.345 296.952135 
L 446.04125 297.063292 
L 451.7375 297.173176 
L 457.43375 297.281816 
" clip-path="url(#p1b9a82b0c7)" style="fill: none; stroke: #ff944d; stroke-width: 2; stroke-linecap: square"/>
   </g>
   <g id="line2d_22">
    <path d="M 75.134 209.778261 
L 85.8755 223.735495 
L 96.9425 247.839552 
L 129.4925 264.301381 
L 162.0425 272.093457 
M 259.6925 284.894724 
L 324.7925 290.631746 
L 454.9925 295.640937 
L 472.73625 295.982265 
" clip-path="url(#p1b9a82b0c7)" style="fill: none; stroke-dasharray: 3.7,1.6; stroke-dashoffset: 0; stroke: #ff944d"/>
    <defs>
     <path id="m3e08492886" d="M -3 3 
L 3 3 
L 3 -3 
L -3 -3 
z
" style="stroke: #000000; stroke-linejoin: miter"/>
    </defs>
    <g clip-path="url(#p1b9a82b0c7)">
     <use xlink:href="#m3e08492886" x="75.134" y="209.778261" style="fill: #ff944d; stroke: #000000; stroke-linejoin: miter"/>
     <use xlink:href="#m3e08492886" x="85.8755" y="223.735495" style="fill: #ff944d; stroke: #000000; stroke-linejoin: miter"/>
     <use xlink:href="#m3e08492886" x="96.9425" y="247.839552" style="fill: #ff944d; stroke: #000000; stroke-linejoin: miter"/>
     <use xlink:href="#m3e08492886" x="129.4925" y="264.301381" style="fill: #ff944d; stroke: #000000; stroke-linejoin: miter"/>
     <use xlink:href="#m3e08492886" x="162.0425" y="272.093457" style="fill: #ff944d; stroke: #000000; stroke-linejoin: miter"/>
     <use xlink:href="#m3e08492886" x="259.6925" y="284.894724" style="fill: #ff944d; stroke: #000000; stroke-linejoin: miter"/>
     <use xlink:href="#m3e08492886" x="324.7925" y="290.631746" style="fill: #ff944d; stroke: #000000; stroke-linejoin: miter"/>
     <use xlink:href="#m3e08492886" x="454.9925" y="295.640937" style="fill: #ff944d; stroke: #000000; stroke-linejoin: miter"/>
     <use xlink:href="#m3e08492886" x="585.1925" y="298.145533" style="fill: #ff944d; stroke: #000000; stroke-linejoin: miter"/>
     <use xlink:href="#m3e08492886" x="845.5925" y="299.708229" style="fill: #ff944d; stroke: #000000; stroke-linejoin: miter"/>
     <use xlink:href="#m3e08492886" x="1626.7925" y="302.191418" style="fill: #ff944d; stroke: #000000; stroke-linejoin: miter"/>
     <use xlink:href="#m3e08492886" x="2407.9925" y="303.818335" style="fill: #ff944d; stroke: #000000; stroke-linejoin: miter"/>
     <use xlink:href="#m3e08492886" x="3189.1925" y="304.696014" style="fill: #ff944d; stroke: #000000; stroke-linejoin: miter"/>
     <use xlink:href="#m3e08492886" x="3970.3925" y="305.145557" style="fill: #ff944d; stroke: #000000; stroke-linejoin: miter"/>
     <use xlink:href="#m3e08492886" x="4751.5925" y="305.873388" style="fill: #ff944d; stroke: #000000; stroke-linejoin: miter"/>
    </g>
   </g>
   <g id="line2d_23">
    <path d="M 64.3925 307.8 
L 70.08875 294.941543 
L 75.785 280.192995 
L 81.48125 270.769678 
L 87.1775 265.122843 
L 92.87375 262.036734 
L 98.57 260.664385 
L 104.26625 260.419024 
L 109.9625 260.896142 
L 115.65875 261.818671 
L 121.355 262.99845 
L 127.05125 264.309176 
L 132.7475 265.667427 
L 138.44375 267.019369 
L 144.14 268.331463 
L 149.83625 269.583976 
L 155.5325 270.766461 
L 161.22875 271.87463 
L 166.925 272.908186 
L 172.62125 273.869342 
L 178.3175 274.761801 
L 184.01375 275.590083 
L 189.71 276.359062 
L 195.40625 277.073678 
L 201.1025 277.738742 
L 206.79875 278.358831 
L 212.495 278.938222 
L 218.19125 279.480861 
L 223.8875 279.99036 
L 229.58375 280.469998 
L 235.28 280.922743 
L 240.97625 281.351266 
L 246.6725 281.757967 
L 252.36875 282.144996 
L 258.065 282.514275 
L 263.76125 282.867522 
L 269.4575 283.206272 
L 275.15375 283.531891 
L 280.85 283.8456 
L 286.54625 284.148485 
L 292.2425 284.441513 
L 297.93875 284.725548 
L 303.635 285.001359 
L 309.33125 285.269629 
L 315.0275 285.530971 
L 320.72375 285.785929 
L 326.42 286.034987 
L 332.11625 286.27858 
L 337.8125 286.517094 
L 343.50875 286.750876 
L 349.205 286.980234 
L 354.90125 287.205445 
L 360.5975 287.426756 
L 366.29375 287.64439 
L 371.99 287.858546 
L 377.68625 288.069402 
L 383.3825 288.277119 
L 389.07875 288.481843 
L 394.775 288.683703 
L 400.47125 288.882819 
L 406.1675 289.079296 
L 411.86375 289.273233 
L 417.56 289.464715 
L 423.25625 289.653824 
L 428.9525 289.840633 
L 434.64875 290.025208 
L 440.345 290.20761 
L 446.04125 290.387896 
L 451.7375 290.566118 
L 457.43375 290.742322 
" clip-path="url(#p1b9a82b0c7)" style="fill: none; stroke: #d2691e; stroke-width: 2; stroke-linecap: square"/>
   </g>
   <g id="line2d_24">
    <path d="M 64.3925 153.806664 
L 75.134 138.122735 
M 129.4925 213.611271 
L 162.0425 233.767988 
L 194.5925 247.631217 
L 259.6925 267.52043 
L 324.7925 278.286886 
L 454.9925 289.443337 
L 472.73625 289.849508 
" clip-path="url(#p1b9a82b0c7)" style="fill: none; stroke-dasharray: 3.7,1.6; stroke-dashoffset: 0; stroke: #d2691e"/>
    <defs>
     <path id="mdd0dafbda6" d="M -3 3 
L 3 3 
L 3 -3 
L -3 -3 
z
" style="stroke: #000000; stroke-linejoin: miter"/>
    </defs>
    <g clip-path="url(#p1b9a82b0c7)">
     <use xlink:href="#mdd0dafbda6" x="64.3925" y="153.806664" style="fill: #d2691e; stroke: #000000; stroke-linejoin: miter"/>
     <use xlink:href="#mdd0dafbda6" x="75.134" y="138.122735" style="fill: #d2691e; stroke: #000000; stroke-linejoin: miter"/>
     <use xlink:href="#mdd0dafbda6" x="129.4925" y="213.611271" style="fill: #d2691e; stroke: #000000; stroke-linejoin: miter"/>
     <use xlink:href="#mdd0dafbda6" x="162.0425" y="233.767988" style="fill: #d2691e; stroke: #000000; stroke-linejoin: miter"/>
     <use xlink:href="#mdd0dafbda6" x="194.5925" y="247.631217" style="fill: #d2691e; stroke: #000000; stroke-linejoin: miter"/>
     <use xlink:href="#mdd0dafbda6" x="259.6925" y="267.52043" style="fill: #d2691e; stroke: #000000; stroke-linejoin: miter"/>
     <use xlink:href="#mdd0dafbda6" x="324.7925" y="278.286886" style="fill: #d2691e; stroke: #000000; stroke-linejoin: miter"/>
     <use xlink:href="#mdd0dafbda6" x="454.9925" y="289.443337" style="fill: #d2691e; stroke: #000000; stroke-linejoin: miter"/>
     <use xlink:href="#mdd0dafbda6" x="585.1925" y="292.423736" style="fill: #d2691e; stroke: #000000; stroke-linejoin: miter"/>
     <use xlink:href="#mdd0dafbda6" x="845.5925" y="294.789138" style="fill: #d2691e; stroke: #000000; stroke-linejoin: miter"/>
     <use xlink:href="#mdd0dafbda6" x="1626.7925" y="299.784228" style="fill: #d2691e; stroke: #000000; stroke-linejoin: miter"/>
     <use xlink:href="#mdd0dafbda6" x="2407.9925" y="301.303306" style="fill: #d2691e; stroke: #000000; stroke-linejoin: miter"/>
     <use xlink:href="#mdd0dafbda6" x="3189.1925" y="303.116186" style="fill: #d2691e; stroke: #000000; stroke-linejoin: miter"/>
     <use xlink:href="#mdd0dafbda6" x="3970.3925" y="303.617188" style="fill: #d2691e; stroke: #000000; stroke-linejoin: miter"/>
     <use xlink:href="#mdd0dafbda6" x="4751.5925" y="304.477232" style="fill: #d2691e; stroke: #000000; stroke-linejoin: miter"/>
     <use xlink:href="#mdd0dafbda6" x="10219.9925" y="306.986565" style="fill: #d2691e; stroke: #000000; stroke-linejoin: miter"/>
    </g>
   </g>
   <g id="patch_3">
    <path d="M 64.3925 320.4 
L 64.3925 43.2 
" style="fill: none; stroke: #000000; stroke-width: 0.8; stroke-linejoin: miter; stroke-linecap: square"/>
   </g>
   <g id="patch_4">
    <path d="M 454.9925 320.4 
L 454.9925 43.2 
" style="fill: none; stroke: #000000; stroke-width: 0.8; stroke-linejoin: miter; stroke-linecap: square"/>
   </g>
   <g id="patch_5">
    <path d="M 64.3925 320.4 
L 454.9925 320.4 
" style="fill: none; stroke: #000000; stroke-width: 0.8; stroke-linejoin: miter; stroke-linecap: square"/>
   </g>
   <g id="patch_6">
    <path d="M 64.3925 43.2 
L 454.9925 43.2 
" style="fill: none; stroke: #000000; stroke-width: 0.8; stroke-linejoin: miter; stroke-linecap: square"/>
   </g>
   <g id="legend_1">
    <g id="patch_7">
     <path d="M 329.359688 197.98125 
L 447.9925 197.98125 
Q 449.9925 197.98125 449.9925 195.98125 
L 449.9925 50.2 
Q 449.9925 48.2 447.9925 48.2 
L 329.359688 48.2 
Q 327.359688 48.2 327.359688 50.2 
L 327.359688 195.98125 
Q 327.359688 197.98125 329.359688 197.98125 
z
" style="fill: #ffffff; opacity: 0.8; stroke: #cccccc; stroke-linejoin: miter"/>
    </g>
    <g id="line2d_25">
     <path d="M 331.359688 56.298437 
L 351.359688 56.298437 
" style="fill: none; stroke: #000000; stroke-width: 2; stroke-linecap: square"/>
    </g>
    <g id="line2d_26"/>
    <g id="text_17">
     <!-- RAP03 -->
     <g transform="translate(359.359688 59.798437) scale(0.1 -0.1)">
      <defs>
       <path id="DejaVuSans-52" d="M 2841 2188 
Q 3044 2119 3236 1894 
Q 3428 1669 3622 1275 
L 4263 0 
L 3584 0 
L 2988 1197 
Q 2756 1666 2539 1819 
Q 2322 1972 1947 1972 
L 1259 1972 
L 1259 0 
L 628 0 
L 628 4666 
L 2053 4666 
Q 2853 4666 3247 4331 
Q 3641 3997 3641 3322 
Q 3641 2881 3436 2590 
Q 3231 2300 2841 2188 
z
M 1259 4147 
L 1259 2491 
L 2053 2491 
Q 2509 2491 2742 2702 
Q 2975 2913 2975 3322 
Q 2975 3731 2742 3939 
Q 2509 4147 2053 4147 
L 1259 4147 
z
" transform="scale(0.015625)"/>
       <path id="DejaVuSans-41" d="M 2188 4044 
L 1331 1722 
L 3047 1722 
L 2188 4044 
z
M 1831 4666 
L 2547 4666 
L 4325 0 
L 3669 0 
L 3244 1197 
L 1141 1197 
L 716 0 
L 50 0 
L 1831 4666 
z
" transform="scale(0.015625)"/>
       <path id="DejaVuSans-50" d="M 1259 4147 
L 1259 2394 
L 2053 2394 
Q 2494 2394 2734 2622 
Q 2975 2850 2975 3272 
Q 2975 3691 2734 3919 
Q 2494 4147 2053 4147 
L 1259 4147 
z
M 628 4666 
L 2053 4666 
Q 2838 4666 3239 4311 
Q 3641 3956 3641 3272 
Q 3641 2581 3239 2228 
Q 2838 1875 2053 1875 
L 1259 1875 
L 1259 0 
L 628 0 
L 628 4666 
z
" transform="scale(0.015625)"/>
       <path id="DejaVuSans-33" d="M 2597 2516 
Q 3050 2419 3304 2112 
Q 3559 1806 3559 1356 
Q 3559 666 3084 287 
Q 2609 -91 1734 -91 
Q 1441 -91 1130 -33 
Q 819 25 488 141 
L 488 750 
Q 750 597 1062 519 
Q 1375 441 1716 441 
Q 2309 441 2620 675 
Q 2931 909 2931 1356 
Q 2931 1769 2642 2001 
Q 2353 2234 1838 2234 
L 1294 2234 
L 1294 2753 
L 1863 2753 
Q 2328 2753 2575 2939 
Q 2822 3125 2822 3475 
Q 2822 3834 2567 4026 
Q 2313 4219 1838 4219 
Q 1578 4219 1281 4162 
Q 984 4106 628 3988 
L 628 4550 
Q 988 4650 1302 4700 
Q 1616 4750 1894 4750 
Q 2613 4750 3031 4423 
Q 3450 4097 3450 3541 
Q 3450 3153 3228 2886 
Q 3006 2619 2597 2516 
z
" transform="scale(0.015625)"/>
      </defs>
      <use xlink:href="#DejaVuSans-52"/>
      <use xlink:href="#DejaVuSans-41" transform="translate(65.482422 0)"/>
      <use xlink:href="#DejaVuSans-50" transform="translate(133.890625 0)"/>
      <use xlink:href="#DejaVuSans-30" transform="translate(194.193359 0)"/>
      <use xlink:href="#DejaVuSans-33" transform="translate(257.816406 0)"/>
     </g>
    </g>
    <g id="LineCollection_6">
     <path d="M 341.359688 75.976562 
L 341.359688 65.976562 
" style="fill: none; stroke: #000000"/>
    </g>
    <g id="line2d_27">
     <path d="M 331.359688 70.976562 
L 351.359688 70.976562 
" style="fill: none; stroke-dasharray: 3.7,1.6; stroke-dashoffset: 0; stroke: #000000"/>
    </g>
    <g id="line2d_28">
     <g>
      <use xlink:href="#m5974521d5c" x="341.359688" y="70.976562" style="stroke: #000000; stroke-linejoin: miter"/>
     </g>
    </g>
    <g id="text_18">
     <!-- RAP03SD (n=6) -->
     <g transform="translate(359.359688 74.476562) scale(0.1 -0.1)">
      <defs>
       <path id="DejaVuSans-b1" d="M 2944 4013 
L 2944 2803 
L 4684 2803 
L 4684 2272 
L 2944 2272 
L 2944 1063 
L 2419 1063 
L 2419 2272 
L 678 2272 
L 678 2803 
L 2419 2803 
L 2419 4013 
L 2944 4013 
z
M 678 531 
L 4684 531 
L 4684 0 
L 678 0 
L 678 531 
z
" transform="scale(0.015625)"/>
       <path id="DejaVuSans-53" d="M 3425 4513 
L 3425 3897 
Q 3066 4069 2747 4153 
Q 2428 4238 2131 4238 
Q 1616 4238 1336 4038 
Q 1056 3838 1056 3469 
Q 1056 3159 1242 3001 
Q 1428 2844 1947 2747 
L 2328 2669 
Q 3034 2534 3370 2195 
Q 3706 1856 3706 1288 
Q 3706 609 3251 259 
Q 2797 -91 1919 -91 
Q 1588 -91 1214 -16 
Q 841 59 441 206 
L 441 856 
Q 825 641 1194 531 
Q 1563 422 1919 422 
Q 2459 422 2753 634 
Q 3047 847 3047 1241 
Q 3047 1584 2836 1778 
Q 2625 1972 2144 2069 
L 1759 2144 
Q 1053 2284 737 2584 
Q 422 2884 422 3419 
Q 422 4038 858 4394 
Q 1294 4750 2059 4750 
Q 2388 4750 2728 4690 
Q 3069 4631 3425 4513 
z
" transform="scale(0.015625)"/>
       <path id="DejaVuSans-44" d="M 1259 4147 
L 1259 519 
L 2022 519 
Q 2988 519 3436 956 
Q 3884 1394 3884 2338 
Q 3884 3275 3436 3711 
Q 2988 4147 2022 4147 
L 1259 4147 
z
M 628 4666 
L 1925 4666 
Q 3281 4666 3915 4102 
Q 4550 3538 4550 2338 
Q 4550 1131 3912 565 
Q 3275 0 1925 0 
L 628 0 
L 628 4666 
z
" transform="scale(0.015625)"/>
       <path id="DejaVuSans-20" transform="scale(0.015625)"/>
       <path id="DejaVuSans-28" d="M 1984 4856 
Q 1566 4138 1362 3434 
Q 1159 2731 1159 2009 
Q 1159 1288 1364 580 
Q 1569 -128 1984 -844 
L 1484 -844 
Q 1016 -109 783 600 
Q 550 1309 550 2009 
Q 550 2706 781 3412 
Q 1013 4119 1484 4856 
L 1984 4856 
z
" transform="scale(0.015625)"/>
       <path id="DejaVuSans-6e" d="M 3513 2113 
L 3513 0 
L 2938 0 
L 2938 2094 
Q 2938 2591 2744 2837 
Q 2550 3084 2163 3084 
Q 1697 3084 1428 2787 
Q 1159 2491 1159 1978 
L 1159 0 
L 581 0 
L 581 3500 
L 1159 3500 
L 1159 2956 
Q 1366 3272 1645 3428 
Q 1925 3584 2291 3584 
Q 2894 3584 3203 3211 
Q 3513 2838 3513 2113 
z
" transform="scale(0.015625)"/>
       <path id="DejaVuSans-3d" d="M 678 2906 
L 4684 2906 
L 4684 2381 
L 678 2381 
L 678 2906 
z
M 678 1631 
L 4684 1631 
L 4684 1100 
L 678 1100 
L 678 1631 
z
" transform="scale(0.015625)"/>
       <path id="DejaVuSans-29" d="M 513 4856 
L 1013 4856 
Q 1481 4119 1714 3412 
Q 1947 2706 1947 2009 
Q 1947 1309 1714 600 
Q 1481 -109 1013 -844 
L 513 -844 
Q 928 -128 1133 580 
Q 1338 1288 1338 2009 
Q 1338 2731 1133 3434 
Q 928 4138 513 4856 
z
" transform="scale(0.015625)"/>
      </defs>
      <use xlink:href="#DejaVuSans-52"/>
      <use xlink:href="#DejaVuSans-41" transform="translate(65.482422 0)"/>
      <use xlink:href="#DejaVuSans-50" transform="translate(133.890625 0)"/>
      <use xlink:href="#DejaVuSans-30" transform="translate(194.193359 0)"/>
      <use xlink:href="#DejaVuSans-33" transform="translate(257.816406 0)"/>
      <use xlink:href="#DejaVuSans-b1" transform="translate(321.439453 0)"/>
      <use xlink:href="#DejaVuSans-53" transform="translate(405.228516 0)"/>
      <use xlink:href="#DejaVuSans-44" transform="translate(468.705078 0)"/>
      <use xlink:href="#DejaVuSans-20" transform="translate(545.707031 0)"/>
      <use xlink:href="#DejaVuSans-28" transform="translate(577.494141 0)"/>
      <use xlink:href="#DejaVuSans-6e" transform="translate(616.507812 0)"/>
      <use xlink:href="#DejaVuSans-3d" transform="translate(679.886719 0)"/>
      <use xlink:href="#DejaVuSans-36" transform="translate(763.675781 0)"/>
      <use xlink:href="#DejaVuSans-29" transform="translate(827.298828 0)"/>
     </g>
    </g>
    <g id="line2d_29">
     <path d="M 331.359688 85.654687 
L 351.359688 85.654687 
" style="fill: none; stroke: #ffe299; stroke-width: 2; stroke-linecap: square"/>
    </g>
    <g id="line2d_30"/>
    <g id="text_19">
     <!-- RAP1 -->
     <g transform="translate(359.359688 89.154687) scale(0.1 -0.1)">
      <use xlink:href="#DejaVuSans-52"/>
      <use xlink:href="#DejaVuSans-41" transform="translate(65.482422 0)"/>
      <use xlink:href="#DejaVuSans-50" transform="translate(133.890625 0)"/>
      <use xlink:href="#DejaVuSans-31" transform="translate(194.193359 0)"/>
     </g>
    </g>
    <g id="LineCollection_7">
     <path d="M 341.359688 105.332812 
L 341.359688 95.332812 
" style="fill: none; stroke: #ffe299"/>
    </g>
    <g id="line2d_31">
     <path d="M 331.359688 100.332812 
L 351.359688 100.332812 
" style="fill: none; stroke-dasharray: 3.7,1.6; stroke-dashoffset: 0; stroke: #ffe299"/>
    </g>
    <g id="line2d_32">
     <g>
      <use xlink:href="#m7720efa490" x="341.359688" y="100.332812" style="fill: #ffe299; stroke: #000000; stroke-linejoin: miter"/>
     </g>
    </g>
    <g id="text_20">
     <!-- RAP1SD (n=6) -->
     <g transform="translate(359.359688 103.832812) scale(0.1 -0.1)">
      <use xlink:href="#DejaVuSans-52"/>
      <use xlink:href="#DejaVuSans-41" transform="translate(65.482422 0)"/>
      <use xlink:href="#DejaVuSans-50" transform="translate(133.890625 0)"/>
      <use xlink:href="#DejaVuSans-31" transform="translate(194.193359 0)"/>
      <use xlink:href="#DejaVuSans-b1" transform="translate(257.816406 0)"/>
      <use xlink:href="#DejaVuSans-53" transform="translate(341.605469 0)"/>
      <use xlink:href="#DejaVuSans-44" transform="translate(405.082031 0)"/>
      <use xlink:href="#DejaVuSans-20" transform="translate(482.083984 0)"/>
      <use xlink:href="#DejaVuSans-28" transform="translate(513.871094 0)"/>
      <use xlink:href="#DejaVuSans-6e" transform="translate(552.884766 0)"/>
      <use xlink:href="#DejaVuSans-3d" transform="translate(616.263672 0)"/>
      <use xlink:href="#DejaVuSans-36" transform="translate(700.052734 0)"/>
      <use xlink:href="#DejaVuSans-29" transform="translate(763.675781 0)"/>
     </g>
    </g>
    <g id="line2d_33">
     <path d="M 331.359688 115.010937 
L 351.359688 115.010937 
" style="fill: none; stroke: #ffb347; stroke-width: 2; stroke-linecap: square"/>
    </g>
    <g id="line2d_34"/>
    <g id="text_21">
     <!-- RAP3 -->
     <g transform="translate(359.359688 118.510937) scale(0.1 -0.1)">
      <use xlink:href="#DejaVuSans-52"/>
      <use xlink:href="#DejaVuSans-41" transform="translate(65.482422 0)"/>
      <use xlink:href="#DejaVuSans-50" transform="translate(133.890625 0)"/>
      <use xlink:href="#DejaVuSans-33" transform="translate(194.193359 0)"/>
     </g>
    </g>
    <g id="LineCollection_8">
     <path d="M 341.359688 134.689062 
L 341.359688 124.689062 
" style="fill: none; stroke: #ffb347"/>
    </g>
    <g id="line2d_35">
     <path d="M 331.359688 129.689062 
L 351.359688 129.689062 
" style="fill: none; stroke-dasharray: 3.7,1.6; stroke-dashoffset: 0; stroke: #ffb347"/>
    </g>
    <g id="line2d_36">
     <g>
      <use xlink:href="#m733d1327d9" x="341.359688" y="129.689062" style="fill: #ffb347; stroke: #000000; stroke-linejoin: miter"/>
     </g>
    </g>
    <g id="text_22">
     <!-- RAP3SD (n=6) -->
     <g transform="translate(359.359688 133.189062) scale(0.1 -0.1)">
      <use xlink:href="#DejaVuSans-52"/>
      <use xlink:href="#DejaVuSans-41" transform="translate(65.482422 0)"/>
      <use xlink:href="#DejaVuSans-50" transform="translate(133.890625 0)"/>
      <use xlink:href="#DejaVuSans-33" transform="translate(194.193359 0)"/>
      <use xlink:href="#DejaVuSans-b1" transform="translate(257.816406 0)"/>
      <use xlink:href="#DejaVuSans-53" transform="translate(341.605469 0)"/>
      <use xlink:href="#DejaVuSans-44" transform="translate(405.082031 0)"/>
      <use xlink:href="#DejaVuSans-20" transform="translate(482.083984 0)"/>
      <use xlink:href="#DejaVuSans-28" transform="translate(513.871094 0)"/>
      <use xlink:href="#DejaVuSans-6e" transform="translate(552.884766 0)"/>
      <use xlink:href="#DejaVuSans-3d" transform="translate(616.263672 0)"/>
      <use xlink:href="#DejaVuSans-36" transform="translate(700.052734 0)"/>
      <use xlink:href="#DejaVuSans-29" transform="translate(763.675781 0)"/>
     </g>
    </g>
    <g id="line2d_37">
     <path d="M 331.359688 144.367187 
L 351.359688 144.367187 
" style="fill: none; stroke: #ff944d; stroke-width: 2; stroke-linecap: square"/>
    </g>
    <g id="line2d_38"/>
    <g id="text_23">
     <!-- RAP5 -->
     <g transform="translate(359.359688 147.867187) scale(0.1 -0.1)">
      <defs>
       <path id="DejaVuSans-35" d="M 691 4666 
L 3169 4666 
L 3169 4134 
L 1269 4134 
L 1269 2991 
Q 1406 3038 1543 3061 
Q 1681 3084 1819 3084 
Q 2600 3084 3056 2656 
Q 3513 2228 3513 1497 
Q 3513 744 3044 326 
Q 2575 -91 1722 -91 
Q 1428 -91 1123 -41 
Q 819 9 494 109 
L 494 744 
Q 775 591 1075 516 
Q 1375 441 1709 441 
Q 2250 441 2565 725 
Q 2881 1009 2881 1497 
Q 2881 1984 2565 2268 
Q 2250 2553 1709 2553 
Q 1456 2553 1204 2497 
Q 953 2441 691 2322 
L 691 4666 
z
" transform="scale(0.015625)"/>
      </defs>
      <use xlink:href="#DejaVuSans-52"/>
      <use xlink:href="#DejaVuSans-41" transform="translate(65.482422 0)"/>
      <use xlink:href="#DejaVuSans-50" transform="translate(133.890625 0)"/>
      <use xlink:href="#DejaVuSans-35" transform="translate(194.193359 0)"/>
     </g>
    </g>
    <g id="LineCollection_9">
     <path d="M 341.359688 164.045312 
L 341.359688 154.045312 
" style="fill: none; stroke: #ff944d"/>
    </g>
    <g id="line2d_39">
     <path d="M 331.359688 159.045312 
L 351.359688 159.045312 
" style="fill: none; stroke-dasharray: 3.7,1.6; stroke-dashoffset: 0; stroke: #ff944d"/>
    </g>
    <g id="line2d_40">
     <g>
      <use xlink:href="#m3e08492886" x="341.359688" y="159.045312" style="fill: #ff944d; stroke: #000000; stroke-linejoin: miter"/>
     </g>
    </g>
    <g id="text_24">
     <!-- RAP5SD (n=6) -->
     <g transform="translate(359.359688 162.545312) scale(0.1 -0.1)">
      <use xlink:href="#DejaVuSans-52"/>
      <use xlink:href="#DejaVuSans-41" transform="translate(65.482422 0)"/>
      <use xlink:href="#DejaVuSans-50" transform="translate(133.890625 0)"/>
      <use xlink:href="#DejaVuSans-35" transform="translate(194.193359 0)"/>
      <use xlink:href="#DejaVuSans-b1" transform="translate(257.816406 0)"/>
      <use xlink:href="#DejaVuSans-53" transform="translate(341.605469 0)"/>
      <use xlink:href="#DejaVuSans-44" transform="translate(405.082031 0)"/>
      <use xlink:href="#DejaVuSans-20" transform="translate(482.083984 0)"/>
      <use xlink:href="#DejaVuSans-28" transform="translate(513.871094 0)"/>
      <use xlink:href="#DejaVuSans-6e" transform="translate(552.884766 0)"/>
      <use xlink:href="#DejaVuSans-3d" transform="translate(616.263672 0)"/>
      <use xlink:href="#DejaVuSans-36" transform="translate(700.052734 0)"/>
      <use xlink:href="#DejaVuSans-29" transform="translate(763.675781 0)"/>
     </g>
    </g>
    <g id="line2d_41">
     <path d="M 331.359688 173.723437 
L 351.359688 173.723437 
" style="fill: none; stroke: #d2691e; stroke-width: 2; stroke-linecap: square"/>
    </g>
    <g id="line2d_42"/>
    <g id="text_25">
     <!-- RAP8 -->
     <g transform="translate(359.359688 177.223437) scale(0.1 -0.1)">
      <use xlink:href="#DejaVuSans-52"/>
      <use xlink:href="#DejaVuSans-41" transform="translate(65.482422 0)"/>
      <use xlink:href="#DejaVuSans-50" transform="translate(133.890625 0)"/>
      <use xlink:href="#DejaVuSans-38" transform="translate(194.193359 0)"/>
     </g>
    </g>
    <g id="LineCollection_10">
     <path d="M 341.359688 193.401562 
L 341.359688 183.401562 
" style="fill: none; stroke: #d2691e"/>
    </g>
    <g id="line2d_43">
     <path d="M 331.359688 188.401562 
L 351.359688 188.401562 
" style="fill: none; stroke-dasharray: 3.7,1.6; stroke-dashoffset: 0; stroke: #d2691e"/>
    </g>
    <g id="line2d_44">
     <g>
      <use xlink:href="#mdd0dafbda6" x="341.359688" y="188.401562" style="fill: #d2691e; stroke: #000000; stroke-linejoin: miter"/>
     </g>
    </g>
    <g id="text_26">
     <!-- RAP8SD (n=6) -->
     <g transform="translate(359.359688 191.901562) scale(0.1 -0.1)">
      <use xlink:href="#DejaVuSans-52"/>
      <use xlink:href="#DejaVuSans-41" transform="translate(65.482422 0)"/>
      <use xlink:href="#DejaVuSans-50" transform="translate(133.890625 0)"/>
      <use xlink:href="#DejaVuSans-38" transform="translate(194.193359 0)"/>
      <use xlink:href="#DejaVuSans-b1" transform="translate(257.816406 0)"/>
      <use xlink:href="#DejaVuSans-53" transform="translate(341.605469 0)"/>
      <use xlink:href="#DejaVuSans-44" transform="translate(405.082031 0)"/>
      <use xlink:href="#DejaVuSans-20" transform="translate(482.083984 0)"/>
      <use xlink:href="#DejaVuSans-28" transform="translate(513.871094 0)"/>
      <use xlink:href="#DejaVuSans-6e" transform="translate(552.884766 0)"/>
      <use xlink:href="#DejaVuSans-3d" transform="translate(616.263672 0)"/>
      <use xlink:href="#DejaVuSans-36" transform="translate(700.052734 0)"/>
      <use xlink:href="#DejaVuSans-29" transform="translate(763.675781 0)"/>
     </g>
    </g>
   </g>
  </g>
  <g id="text_27">
   <!-- Brattstrom2000 (12h) -->
   <g transform="translate(99.265547 26.196094) scale(0.25 -0.25)">
    <defs>
     <path id="DejaVuSans-Bold-42" d="M 2456 2859 
Q 2741 2859 2887 2984 
Q 3034 3109 3034 3353 
Q 3034 3594 2887 3720 
Q 2741 3847 2456 3847 
L 1791 3847 
L 1791 2859 
L 2456 2859 
z
M 2497 819 
Q 2859 819 3042 972 
Q 3225 1125 3225 1434 
Q 3225 1738 3044 1889 
Q 2863 2041 2497 2041 
L 1791 2041 
L 1791 819 
L 2497 819 
z
M 3616 2497 
Q 4003 2384 4215 2081 
Q 4428 1778 4428 1338 
Q 4428 663 3972 331 
Q 3516 0 2584 0 
L 588 0 
L 588 4666 
L 2394 4666 
Q 3366 4666 3802 4372 
Q 4238 4078 4238 3431 
Q 4238 3091 4078 2852 
Q 3919 2613 3616 2497 
z
" transform="scale(0.015625)"/>
     <path id="DejaVuSans-Bold-73" d="M 3272 3391 
L 3272 2541 
Q 2913 2691 2578 2766 
Q 2244 2841 1947 2841 
Q 1628 2841 1473 2761 
Q 1319 2681 1319 2516 
Q 1319 2381 1436 2309 
Q 1553 2238 1856 2203 
L 2053 2175 
Q 2913 2066 3209 1816 
Q 3506 1566 3506 1031 
Q 3506 472 3093 190 
Q 2681 -91 1863 -91 
Q 1516 -91 1145 -36 
Q 775 19 384 128 
L 384 978 
Q 719 816 1070 734 
Q 1422 653 1784 653 
Q 2113 653 2278 743 
Q 2444 834 2444 1013 
Q 2444 1163 2330 1236 
Q 2216 1309 1875 1350 
L 1678 1375 
Q 931 1469 631 1722 
Q 331 1975 331 2491 
Q 331 3047 712 3315 
Q 1094 3584 1881 3584 
Q 2191 3584 2531 3537 
Q 2872 3491 3272 3391 
z
" transform="scale(0.015625)"/>
     <path id="DejaVuSans-Bold-32" d="M 1844 884 
L 3897 884 
L 3897 0 
L 506 0 
L 506 884 
L 2209 2388 
Q 2438 2594 2547 2791 
Q 2656 2988 2656 3200 
Q 2656 3528 2436 3728 
Q 2216 3928 1850 3928 
Q 1569 3928 1234 3808 
Q 900 3688 519 3450 
L 519 4475 
Q 925 4609 1322 4679 
Q 1719 4750 2100 4750 
Q 2938 4750 3402 4381 
Q 3866 4013 3866 3353 
Q 3866 2972 3669 2642 
Q 3472 2313 2841 1759 
L 1844 884 
z
" transform="scale(0.015625)"/>
     <path id="DejaVuSans-Bold-30" d="M 2944 2338 
Q 2944 3213 2780 3570 
Q 2616 3928 2228 3928 
Q 1841 3928 1675 3570 
Q 1509 3213 1509 2338 
Q 1509 1453 1675 1090 
Q 1841 728 2228 728 
Q 2613 728 2778 1090 
Q 2944 1453 2944 2338 
z
M 4147 2328 
Q 4147 1169 3647 539 
Q 3147 -91 2228 -91 
Q 1306 -91 806 539 
Q 306 1169 306 2328 
Q 306 3491 806 4120 
Q 1306 4750 2228 4750 
Q 3147 4750 3647 4120 
Q 4147 3491 4147 2328 
z
" transform="scale(0.015625)"/>
     <path id="DejaVuSans-Bold-28" d="M 2413 -844 
L 1484 -844 
Q 1006 -72 778 623 
Q 550 1319 550 2003 
Q 550 2688 779 3389 
Q 1009 4091 1484 4856 
L 2413 4856 
Q 2013 4116 1813 3408 
Q 1613 2700 1613 2009 
Q 1613 1319 1811 609 
Q 2009 -100 2413 -844 
z
" transform="scale(0.015625)"/>
     <path id="DejaVuSans-Bold-31" d="M 750 831 
L 1813 831 
L 1813 3847 
L 722 3622 
L 722 4441 
L 1806 4666 
L 2950 4666 
L 2950 831 
L 4013 831 
L 4013 0 
L 750 0 
L 750 831 
z
" transform="scale(0.015625)"/>
     <path id="DejaVuSans-Bold-29" d="M 513 -844 
Q 913 -100 1113 609 
Q 1313 1319 1313 2009 
Q 1313 2700 1113 3408 
Q 913 4116 513 4856 
L 1441 4856 
Q 1916 4091 2145 3389 
Q 2375 2688 2375 2003 
Q 2375 1319 2147 623 
Q 1919 -72 1441 -844 
L 513 -844 
z
" transform="scale(0.015625)"/>
    </defs>
    <use xlink:href="#DejaVuSans-Bold-42"/>
    <use xlink:href="#DejaVuSans-Bold-72" transform="translate(76.220703 0)"/>
    <use xlink:href="#DejaVuSans-Bold-61" transform="translate(125.537109 0)"/>
    <use xlink:href="#DejaVuSans-Bold-74" transform="translate(193.017578 0)"/>
    <use xlink:href="#DejaVuSans-Bold-74" transform="translate(240.820312 0)"/>
    <use xlink:href="#DejaVuSans-Bold-73" transform="translate(288.623047 0)"/>
    <use xlink:href="#DejaVuSans-Bold-74" transform="translate(348.144531 0)"/>
    <use xlink:href="#DejaVuSans-Bold-72" transform="translate(395.947266 0)"/>
    <use xlink:href="#DejaVuSans-Bold-6f" transform="translate(445.263672 0)"/>
    <use xlink:href="#DejaVuSans-Bold-6d" transform="translate(513.964844 0)"/>
    <use xlink:href="#DejaVuSans-Bold-32" transform="translate(618.164062 0)"/>
    <use xlink:href="#DejaVuSans-Bold-30" transform="translate(687.744141 0)"/>
    <use xlink:href="#DejaVuSans-Bold-30" transform="translate(757.324219 0)"/>
    <use xlink:href="#DejaVuSans-Bold-30" transform="translate(826.904297 0)"/>
    <use xlink:href="#DejaVuSans-Bold-20" transform="translate(896.484375 0)"/>
    <use xlink:href="#DejaVuSans-Bold-28" transform="translate(931.298828 0)"/>
    <use xlink:href="#DejaVuSans-Bold-31" transform="translate(977.001953 0)"/>
    <use xlink:href="#DejaVuSans-Bold-32" transform="translate(1046.582031 0)"/>
    <use xlink:href="#DejaVuSans-Bold-68" transform="translate(1116.162109 0)"/>
    <use xlink:href="#DejaVuSans-Bold-29" transform="translate(1187.353516 0)"/>
   </g>
  </g>
 </g>
 <defs>
  <clipPath id="p1b9a82b0c7">
   <rect x="64.3925" y="43.2" width="390.6" height="277.2"/>
  </clipPath>
 </defs>
</svg>
