<?xml version="1.0" encoding="utf-8" standalone="no"?>
<!DOCTYPE svg PUBLIC "-//W3C//DTD SVG 1.1//EN"
  "http://www.w3.org/Graphics/SVG/1.1/DTD/svg11.dtd">
<svg xmlns:xlink="http://www.w3.org/1999/xlink" width="462.1925pt" height="370.537812pt" viewBox="0 0 462.1925 370.537812" xmlns="http://www.w3.org/2000/svg" version="1.1">
 <metadata>
  <rdf:RDF xmlns:dc="http://purl.org/dc/elements/1.1/" xmlns:cc="http://creativecommons.org/ns#" xmlns:rdf="http://www.w3.org/1999/02/22-rdf-syntax-ns#">
   <cc:Work>
    <dc:type rdf:resource="http://purl.org/dc/dcmitype/StillImage"/>
    <dc:date>2026-02-12T15:19:34.671454</dc:date>
    <dc:format>image/svg+xml</dc:format>
    <dc:creator>
     <cc:Agent>
      <dc:title>Matplotlib v3.10.7, https://matplotlib.org/</dc:title>
     </cc:Agent>
    </dc:creator>
   </cc:Work>
  </rdf:RDF>
 </metadata>
 <defs>
  <style type="text/css">*{stroke-linejoin: round; stroke-linecap: butt}</style>
 </defs>
 <g id="figure_1">
  <g id="patch_1">
   <path d="M 0 370.537812 
L 462.1925 370.537812 
L 462.1925 0 
L 0 0 
z
" style="fill: #ffffff"/>
  </g>
  <g id="axes_1">
   <g id="patch_2">
    <path d="M 64.3925 320.4 
L 454.9925 320.4 
L 454.9925 43.2 
L 64.3925 43.2 
z
" style="fill: #ffffff"/>
   </g>
   <g id="matplotlib.axis_1">
    <g id="xtick_1">
     <g id="line2d_1">
      <defs>
       <path id="m15e87d404e" d="M 0 0 
L 0 3.5 
" style="stroke: #000000; stroke-width: 0.8"/>
      </defs>
      <g>
       <use xlink:href="#m15e87d404e" x="82.147045" y="320.4" style="stroke: #000000; stroke-width: 0.8"/>
      </g>
     </g>
     <g id="text_1">
      <!-- 0 -->
      <g transform="translate(77.37517 338.797656) scale(0.15 -0.15)">
       <defs>
        <path id="DejaVuSans-30" d="M 2034 4250 
Q 1547 4250 1301 3770 
Q 1056 3291 1056 2328 
Q 1056 1369 1301 889 
Q 1547 409 2034 409 
Q 2525 409 2770 889 
Q 3016 1369 3016 2328 
Q 3016 3291 2770 3770 
Q 2525 4250 2034 4250 
z
M 2034 4750 
Q 2819 4750 3233 4129 
Q 3647 3509 3647 2328 
Q 3647 1150 3233 529 
Q 2819 -91 2034 -91 
Q 1250 -91 836 529 
Q 422 1150 422 2328 
Q 422 3509 836 4129 
Q 1250 4750 2034 4750 
z
" transform="scale(0.015625)"/>
       </defs>
       <use xlink:href="#DejaVuSans-30"/>
      </g>
     </g>
    </g>
    <g id="xtick_2">
     <g id="line2d_2">
      <g>
       <use xlink:href="#m15e87d404e" x="132.874318" y="320.4" style="stroke: #000000; stroke-width: 0.8"/>
      </g>
     </g>
     <g id="text_2">
      <!-- 50 -->
      <g transform="translate(123.330568 338.797656) scale(0.15 -0.15)">
       <defs>
        <path id="DejaVuSans-35" d="M 691 4666 
L 3169 4666 
L 3169 4134 
L 1269 4134 
L 1269 2991 
Q 1406 3038 1543 3061 
Q 1681 3084 1819 3084 
Q 2600 3084 3056 2656 
Q 3513 2228 3513 1497 
Q 3513 744 3044 326 
Q 2575 -91 1722 -91 
Q 1428 -91 1123 -41 
Q 819 9 494 109 
L 494 744 
Q 775 591 1075 516 
Q 1375 441 1709 441 
Q 2250 441 2565 725 
Q 2881 1009 2881 1497 
Q 2881 1984 2565 2268 
Q 2250 2553 1709 2553 
Q 1456 2553 1204 2497 
Q 953 2441 691 2322 
L 691 4666 
z
" transform="scale(0.015625)"/>
       </defs>
       <use xlink:href="#DejaVuSans-35"/>
       <use xlink:href="#DejaVuSans-30" transform="translate(63.623047 0)"/>
      </g>
     </g>
    </g>
    <g id="xtick_3">
     <g id="line2d_3">
      <g>
       <use xlink:href="#m15e87d404e" x="183.601591" y="320.4" style="stroke: #000000; stroke-width: 0.8"/>
      </g>
     </g>
     <g id="text_3">
      <!-- 100 -->
      <g transform="translate(169.285966 338.797656) scale(0.15 -0.15)">
       <defs>
        <path id="DejaVuSans-31" d="M 794 531 
L 1825 531 
L 1825 4091 
L 703 3866 
L 703 4441 
L 1819 4666 
L 2450 4666 
L 2450 531 
L 3481 531 
L 3481 0 
L 794 0 
L 794 531 
z
" transform="scale(0.015625)"/>
       </defs>
       <use xlink:href="#DejaVuSans-31"/>
       <use xlink:href="#DejaVuSans-30" transform="translate(63.623047 0)"/>
       <use xlink:href="#DejaVuSans-30" transform="translate(127.246094 0)"/>
      </g>
     </g>
    </g>
    <g id="xtick_4">
     <g id="line2d_4">
      <g>
       <use xlink:href="#m15e87d404e" x="234.328864" y="320.4" style="stroke: #000000; stroke-width: 0.8"/>
      </g>
     </g>
     <g id="text_4">
      <!-- 150 -->
      <g transform="translate(220.013239 338.797656) scale(0.15 -0.15)">
       <use xlink:href="#DejaVuSans-31"/>
       <use xlink:href="#DejaVuSans-35" transform="translate(63.623047 0)"/>
       <use xlink:href="#DejaVuSans-30" transform="translate(127.246094 0)"/>
      </g>
     </g>
    </g>
    <g id="xtick_5">
     <g id="line2d_5">
      <g>
       <use xlink:href="#m15e87d404e" x="285.056136" y="320.4" style="stroke: #000000; stroke-width: 0.8"/>
      </g>
     </g>
     <g id="text_5">
      <!-- 200 -->
      <g transform="translate(270.740511 338.797656) scale(0.15 -0.15)">
       <defs>
        <path id="DejaVuSans-32" d="M 1228 531 
L 3431 531 
L 3431 0 
L 469 0 
L 469 531 
Q 828 903 1448 1529 
Q 2069 2156 2228 2338 
Q 2531 2678 2651 2914 
Q 2772 3150 2772 3378 
Q 2772 3750 2511 3984 
Q 2250 4219 1831 4219 
Q 1534 4219 1204 4116 
Q 875 4013 500 3803 
L 500 4441 
Q 881 4594 1212 4672 
Q 1544 4750 1819 4750 
Q 2544 4750 2975 4387 
Q 3406 4025 3406 3419 
Q 3406 3131 3298 2873 
Q 3191 2616 2906 2266 
Q 2828 2175 2409 1742 
Q 1991 1309 1228 531 
z
" transform="scale(0.015625)"/>
       </defs>
       <use xlink:href="#DejaVuSans-32"/>
       <use xlink:href="#DejaVuSans-30" transform="translate(63.623047 0)"/>
       <use xlink:href="#DejaVuSans-30" transform="translate(127.246094 0)"/>
      </g>
     </g>
    </g>
    <g id="xtick_6">
     <g id="line2d_6">
      <g>
       <use xlink:href="#m15e87d404e" x="335.783409" y="320.4" style="stroke: #000000; stroke-width: 0.8"/>
      </g>
     </g>
     <g id="text_6">
      <!-- 250 -->
      <g transform="translate(321.467784 338.797656) scale(0.15 -0.15)">
       <use xlink:href="#DejaVuSans-32"/>
       <use xlink:href="#DejaVuSans-35" transform="translate(63.623047 0)"/>
       <use xlink:href="#DejaVuSans-30" transform="translate(127.246094 0)"/>
      </g>
     </g>
    </g>
    <g id="xtick_7">
     <g id="line2d_7">
      <g>
       <use xlink:href="#m15e87d404e" x="386.510682" y="320.4" style="stroke: #000000; stroke-width: 0.8"/>
      </g>
     </g>
     <g id="text_7">
      <!-- 300 -->
      <g transform="translate(372.195057 338.797656) scale(0.15 -0.15)">
       <defs>
        <path id="DejaVuSans-33" d="M 2597 2516 
Q 3050 2419 3304 2112 
Q 3559 1806 3559 1356 
Q 3559 666 3084 287 
Q 2609 -91 1734 -91 
Q 1441 -91 1130 -33 
Q 819 25 488 141 
L 488 750 
Q 750 597 1062 519 
Q 1375 441 1716 441 
Q 2309 441 2620 675 
Q 2931 909 2931 1356 
Q 2931 1769 2642 2001 
Q 2353 2234 1838 2234 
L 1294 2234 
L 1294 2753 
L 1863 2753 
Q 2328 2753 2575 2939 
Q 2822 3125 2822 3475 
Q 2822 3834 2567 4026 
Q 2313 4219 1838 4219 
Q 1578 4219 1281 4162 
Q 984 4106 628 3988 
L 628 4550 
Q 988 4650 1302 4700 
Q 1616 4750 1894 4750 
Q 2613 4750 3031 4423 
Q 3450 4097 3450 3541 
Q 3450 3153 3228 2886 
Q 3006 2619 2597 2516 
z
" transform="scale(0.015625)"/>
       </defs>
       <use xlink:href="#DejaVuSans-33"/>
       <use xlink:href="#DejaVuSans-30" transform="translate(63.623047 0)"/>
       <use xlink:href="#DejaVuSans-30" transform="translate(127.246094 0)"/>
      </g>
     </g>
    </g>
    <g id="xtick_8">
     <g id="line2d_8">
      <g>
       <use xlink:href="#m15e87d404e" x="437.237955" y="320.4" style="stroke: #000000; stroke-width: 0.8"/>
      </g>
     </g>
     <g id="text_8">
      <!-- 350 -->
      <g transform="translate(422.92233 338.797656) scale(0.15 -0.15)">
       <use xlink:href="#DejaVuSans-33"/>
       <use xlink:href="#DejaVuSans-35" transform="translate(63.623047 0)"/>
       <use xlink:href="#DejaVuSans-30" transform="translate(127.246094 0)"/>
      </g>
     </g>
    </g>
    <g id="text_9">
     <!-- time [hr] -->
     <g transform="translate(214.617969 359.594375) scale(0.18 -0.18)">
      <defs>
       <path id="DejaVuSans-Bold-74" d="M 1759 4494 
L 1759 3500 
L 2913 3500 
L 2913 2700 
L 1759 2700 
L 1759 1216 
Q 1759 972 1856 886 
Q 1953 800 2241 800 
L 2816 800 
L 2816 0 
L 1856 0 
Q 1194 0 917 276 
Q 641 553 641 1216 
L 641 2700 
L 84 2700 
L 84 3500 
L 641 3500 
L 641 4494 
L 1759 4494 
z
" transform="scale(0.015625)"/>
       <path id="DejaVuSans-Bold-69" d="M 538 3500 
L 1656 3500 
L 1656 0 
L 538 0 
L 538 3500 
z
M 538 4863 
L 1656 4863 
L 1656 3950 
L 538 3950 
L 538 4863 
z
" transform="scale(0.015625)"/>
       <path id="DejaVuSans-Bold-6d" d="M 3781 2919 
Q 3994 3244 4286 3414 
Q 4578 3584 4928 3584 
Q 5531 3584 5847 3212 
Q 6163 2841 6163 2131 
L 6163 0 
L 5038 0 
L 5038 1825 
Q 5041 1866 5042 1909 
Q 5044 1953 5044 2034 
Q 5044 2406 4934 2573 
Q 4825 2741 4581 2741 
Q 4263 2741 4089 2478 
Q 3916 2216 3909 1719 
L 3909 0 
L 2784 0 
L 2784 1825 
Q 2784 2406 2684 2573 
Q 2584 2741 2328 2741 
Q 2006 2741 1831 2477 
Q 1656 2213 1656 1722 
L 1656 0 
L 531 0 
L 531 3500 
L 1656 3500 
L 1656 2988 
Q 1863 3284 2130 3434 
Q 2397 3584 2719 3584 
Q 3081 3584 3359 3409 
Q 3638 3234 3781 2919 
z
" transform="scale(0.015625)"/>
       <path id="DejaVuSans-Bold-65" d="M 4031 1759 
L 4031 1441 
L 1416 1441 
Q 1456 1047 1700 850 
Q 1944 653 2381 653 
Q 2734 653 3104 758 
Q 3475 863 3866 1075 
L 3866 213 
Q 3469 63 3072 -14 
Q 2675 -91 2278 -91 
Q 1328 -91 801 392 
Q 275 875 275 1747 
Q 275 2603 792 3093 
Q 1309 3584 2216 3584 
Q 3041 3584 3536 3087 
Q 4031 2591 4031 1759 
z
M 2881 2131 
Q 2881 2450 2695 2645 
Q 2509 2841 2209 2841 
Q 1884 2841 1681 2658 
Q 1478 2475 1428 2131 
L 2881 2131 
z
" transform="scale(0.015625)"/>
       <path id="DejaVuSans-Bold-20" transform="scale(0.015625)"/>
       <path id="DejaVuSans-Bold-5b" d="M 550 4863 
L 2491 4863 
L 2491 4159 
L 1613 4159 
L 1613 -141 
L 2491 -141 
L 2491 -844 
L 550 -844 
L 550 4863 
z
" transform="scale(0.015625)"/>
       <path id="DejaVuSans-Bold-68" d="M 4056 2131 
L 4056 0 
L 2931 0 
L 2931 347 
L 2931 1625 
Q 2931 2084 2911 2256 
Q 2891 2428 2841 2509 
Q 2775 2619 2662 2680 
Q 2550 2741 2406 2741 
Q 2056 2741 1856 2470 
Q 1656 2200 1656 1722 
L 1656 0 
L 538 0 
L 538 4863 
L 1656 4863 
L 1656 2988 
Q 1909 3294 2193 3439 
Q 2478 3584 2822 3584 
Q 3428 3584 3742 3212 
Q 4056 2841 4056 2131 
z
" transform="scale(0.015625)"/>
       <path id="DejaVuSans-Bold-72" d="M 3138 2547 
Q 2991 2616 2845 2648 
Q 2700 2681 2553 2681 
Q 2122 2681 1889 2404 
Q 1656 2128 1656 1613 
L 1656 0 
L 538 0 
L 538 3500 
L 1656 3500 
L 1656 2925 
Q 1872 3269 2151 3426 
Q 2431 3584 2822 3584 
Q 2878 3584 2943 3579 
Q 3009 3575 3134 3559 
L 3138 2547 
z
" transform="scale(0.015625)"/>
       <path id="DejaVuSans-Bold-5d" d="M 2375 -844 
L 434 -844 
L 434 -141 
L 1313 -141 
L 1313 4159 
L 434 4159 
L 434 4863 
L 2375 4863 
L 2375 -844 
z
" transform="scale(0.015625)"/>
      </defs>
      <use xlink:href="#DejaVuSans-Bold-74"/>
      <use xlink:href="#DejaVuSans-Bold-69" transform="translate(47.802734 0)"/>
      <use xlink:href="#DejaVuSans-Bold-6d" transform="translate(82.080078 0)"/>
      <use xlink:href="#DejaVuSans-Bold-65" transform="translate(186.279297 0)"/>
      <use xlink:href="#DejaVuSans-Bold-20" transform="translate(254.101562 0)"/>
      <use xlink:href="#DejaVuSans-Bold-5b" transform="translate(288.916016 0)"/>
      <use xlink:href="#DejaVuSans-Bold-68" transform="translate(334.619141 0)"/>
      <use xlink:href="#DejaVuSans-Bold-72" transform="translate(405.810547 0)"/>
      <use xlink:href="#DejaVuSans-Bold-5d" transform="translate(455.126953 0)"/>
     </g>
    </g>
   </g>
   <g id="matplotlib.axis_2">
    <g id="ytick_1">
     <g id="line2d_9">
      <defs>
       <path id="mfeee46e801" d="M 0 0 
L -3.5 0 
" style="stroke: #000000; stroke-width: 0.8"/>
      </defs>
      <g>
       <use xlink:href="#mfeee46e801" x="64.3925" y="307.8" style="stroke: #000000; stroke-width: 0.8"/>
      </g>
     </g>
     <g id="text_10">
      <!-- 0 -->
      <g transform="translate(47.84875 313.498828) scale(0.15 -0.15)">
       <use xlink:href="#DejaVuSans-30"/>
      </g>
     </g>
    </g>
    <g id="ytick_2">
     <g id="line2d_10">
      <g>
       <use xlink:href="#mfeee46e801" x="64.3925" y="268.661009" style="stroke: #000000; stroke-width: 0.8"/>
      </g>
     </g>
     <g id="text_11">
      <!-- 20 -->
      <g transform="translate(38.305 274.359837) scale(0.15 -0.15)">
       <use xlink:href="#DejaVuSans-32"/>
       <use xlink:href="#DejaVuSans-30" transform="translate(63.623047 0)"/>
      </g>
     </g>
    </g>
    <g id="ytick_3">
     <g id="line2d_11">
      <g>
       <use xlink:href="#mfeee46e801" x="64.3925" y="229.522018" style="stroke: #000000; stroke-width: 0.8"/>
      </g>
     </g>
     <g id="text_12">
      <!-- 40 -->
      <g transform="translate(38.305 235.220846) scale(0.15 -0.15)">
       <defs>
        <path id="DejaVuSans-34" d="M 2419 4116 
L 825 1625 
L 2419 1625 
L 2419 4116 
z
M 2253 4666 
L 3047 4666 
L 3047 1625 
L 3713 1625 
L 3713 1100 
L 3047 1100 
L 3047 0 
L 2419 0 
L 2419 1100 
L 313 1100 
L 313 1709 
L 2253 4666 
z
" transform="scale(0.015625)"/>
       </defs>
       <use xlink:href="#DejaVuSans-34"/>
       <use xlink:href="#DejaVuSans-30" transform="translate(63.623047 0)"/>
      </g>
     </g>
    </g>
    <g id="ytick_4">
     <g id="line2d_12">
      <g>
       <use xlink:href="#mfeee46e801" x="64.3925" y="190.383027" style="stroke: #000000; stroke-width: 0.8"/>
      </g>
     </g>
     <g id="text_13">
      <!-- 60 -->
      <g transform="translate(38.305 196.081855) scale(0.15 -0.15)">
       <defs>
        <path id="DejaVuSans-36" d="M 2113 2584 
Q 1688 2584 1439 2293 
Q 1191 2003 1191 1497 
Q 1191 994 1439 701 
Q 1688 409 2113 409 
Q 2538 409 2786 701 
Q 3034 994 3034 1497 
Q 3034 2003 2786 2293 
Q 2538 2584 2113 2584 
z
M 3366 4563 
L 3366 3988 
Q 3128 4100 2886 4159 
Q 2644 4219 2406 4219 
Q 1781 4219 1451 3797 
Q 1122 3375 1075 2522 
Q 1259 2794 1537 2939 
Q 1816 3084 2150 3084 
Q 2853 3084 3261 2657 
Q 3669 2231 3669 1497 
Q 3669 778 3244 343 
Q 2819 -91 2113 -91 
Q 1303 -91 875 529 
Q 447 1150 447 2328 
Q 447 3434 972 4092 
Q 1497 4750 2381 4750 
Q 2619 4750 2861 4703 
Q 3103 4656 3366 4563 
z
" transform="scale(0.015625)"/>
       </defs>
       <use xlink:href="#DejaVuSans-36"/>
       <use xlink:href="#DejaVuSans-30" transform="translate(63.623047 0)"/>
      </g>
     </g>
    </g>
    <g id="ytick_5">
     <g id="line2d_13">
      <g>
       <use xlink:href="#mfeee46e801" x="64.3925" y="151.244036" style="stroke: #000000; stroke-width: 0.8"/>
      </g>
     </g>
     <g id="text_14">
      <!-- 80 -->
      <g transform="translate(38.305 156.942865) scale(0.15 -0.15)">
       <defs>
        <path id="DejaVuSans-38" d="M 2034 2216 
Q 1584 2216 1326 1975 
Q 1069 1734 1069 1313 
Q 1069 891 1326 650 
Q 1584 409 2034 409 
Q 2484 409 2743 651 
Q 3003 894 3003 1313 
Q 3003 1734 2745 1975 
Q 2488 2216 2034 2216 
z
M 1403 2484 
Q 997 2584 770 2862 
Q 544 3141 544 3541 
Q 544 4100 942 4425 
Q 1341 4750 2034 4750 
Q 2731 4750 3128 4425 
Q 3525 4100 3525 3541 
Q 3525 3141 3298 2862 
Q 3072 2584 2669 2484 
Q 3125 2378 3379 2068 
Q 3634 1759 3634 1313 
Q 3634 634 3220 271 
Q 2806 -91 2034 -91 
Q 1263 -91 848 271 
Q 434 634 434 1313 
Q 434 1759 690 2068 
Q 947 2378 1403 2484 
z
M 1172 3481 
Q 1172 3119 1398 2916 
Q 1625 2713 2034 2713 
Q 2441 2713 2670 2916 
Q 2900 3119 2900 3481 
Q 2900 3844 2670 4047 
Q 2441 4250 2034 4250 
Q 1625 4250 1398 4047 
Q 1172 3844 1172 3481 
z
" transform="scale(0.015625)"/>
       </defs>
       <use xlink:href="#DejaVuSans-38"/>
       <use xlink:href="#DejaVuSans-30" transform="translate(63.623047 0)"/>
      </g>
     </g>
    </g>
    <g id="ytick_6">
     <g id="line2d_14">
      <g>
       <use xlink:href="#mfeee46e801" x="64.3925" y="112.105046" style="stroke: #000000; stroke-width: 0.8"/>
      </g>
     </g>
     <g id="text_15">
      <!-- 100 -->
      <g transform="translate(28.76125 117.803874) scale(0.15 -0.15)">
       <use xlink:href="#DejaVuSans-31"/>
       <use xlink:href="#DejaVuSans-30" transform="translate(63.623047 0)"/>
       <use xlink:href="#DejaVuSans-30" transform="translate(127.246094 0)"/>
      </g>
     </g>
    </g>
    <g id="ytick_7">
     <g id="line2d_15">
      <g>
       <use xlink:href="#mfeee46e801" x="64.3925" y="72.966055" style="stroke: #000000; stroke-width: 0.8"/>
      </g>
     </g>
     <g id="text_16">
      <!-- 120 -->
      <g transform="translate(28.76125 78.664883) scale(0.15 -0.15)">
       <use xlink:href="#DejaVuSans-31"/>
       <use xlink:href="#DejaVuSans-32" transform="translate(63.623047 0)"/>
       <use xlink:href="#DejaVuSans-30" transform="translate(127.246094 0)"/>
      </g>
     </g>
    </g>
    <g id="text_17">
     <!-- rapamycin blood [nM] -->
     <g transform="translate(20.877187 293.092031) rotate(-90) scale(0.18 -0.18)">
      <defs>
       <path id="DejaVuSans-Bold-61" d="M 2106 1575 
Q 1756 1575 1579 1456 
Q 1403 1338 1403 1106 
Q 1403 894 1545 773 
Q 1688 653 1941 653 
Q 2256 653 2472 879 
Q 2688 1106 2688 1447 
L 2688 1575 
L 2106 1575 
z
M 3816 1997 
L 3816 0 
L 2688 0 
L 2688 519 
Q 2463 200 2181 54 
Q 1900 -91 1497 -91 
Q 953 -91 614 226 
Q 275 544 275 1050 
Q 275 1666 698 1953 
Q 1122 2241 2028 2241 
L 2688 2241 
L 2688 2328 
Q 2688 2594 2478 2717 
Q 2269 2841 1825 2841 
Q 1466 2841 1156 2769 
Q 847 2697 581 2553 
L 581 3406 
Q 941 3494 1303 3539 
Q 1666 3584 2028 3584 
Q 2975 3584 3395 3211 
Q 3816 2838 3816 1997 
z
" transform="scale(0.015625)"/>
       <path id="DejaVuSans-Bold-70" d="M 1656 506 
L 1656 -1331 
L 538 -1331 
L 538 3500 
L 1656 3500 
L 1656 2988 
Q 1888 3294 2169 3439 
Q 2450 3584 2816 3584 
Q 3463 3584 3878 3070 
Q 4294 2556 4294 1747 
Q 4294 938 3878 423 
Q 3463 -91 2816 -91 
Q 2450 -91 2169 54 
Q 1888 200 1656 506 
z
M 2400 2772 
Q 2041 2772 1848 2508 
Q 1656 2244 1656 1747 
Q 1656 1250 1848 986 
Q 2041 722 2400 722 
Q 2759 722 2948 984 
Q 3138 1247 3138 1747 
Q 3138 2247 2948 2509 
Q 2759 2772 2400 2772 
z
" transform="scale(0.015625)"/>
       <path id="DejaVuSans-Bold-79" d="M 78 3500 
L 1197 3500 
L 2138 1125 
L 2938 3500 
L 4056 3500 
L 2584 -331 
Q 2363 -916 2067 -1148 
Q 1772 -1381 1288 -1381 
L 641 -1381 
L 641 -647 
L 991 -647 
Q 1275 -647 1404 -556 
Q 1534 -466 1606 -231 
L 1638 -134 
L 78 3500 
z
" transform="scale(0.015625)"/>
       <path id="DejaVuSans-Bold-63" d="M 3366 3391 
L 3366 2478 
Q 3138 2634 2908 2709 
Q 2678 2784 2431 2784 
Q 1963 2784 1702 2511 
Q 1441 2238 1441 1747 
Q 1441 1256 1702 982 
Q 1963 709 2431 709 
Q 2694 709 2930 787 
Q 3166 866 3366 1019 
L 3366 103 
Q 3103 6 2833 -42 
Q 2563 -91 2291 -91 
Q 1344 -91 809 395 
Q 275 881 275 1747 
Q 275 2613 809 3098 
Q 1344 3584 2291 3584 
Q 2566 3584 2833 3536 
Q 3100 3488 3366 3391 
z
" transform="scale(0.015625)"/>
       <path id="DejaVuSans-Bold-6e" d="M 4056 2131 
L 4056 0 
L 2931 0 
L 2931 347 
L 2931 1631 
Q 2931 2084 2911 2256 
Q 2891 2428 2841 2509 
Q 2775 2619 2662 2680 
Q 2550 2741 2406 2741 
Q 2056 2741 1856 2470 
Q 1656 2200 1656 1722 
L 1656 0 
L 538 0 
L 538 3500 
L 1656 3500 
L 1656 2988 
Q 1909 3294 2193 3439 
Q 2478 3584 2822 3584 
Q 3428 3584 3742 3212 
Q 4056 2841 4056 2131 
z
" transform="scale(0.015625)"/>
       <path id="DejaVuSans-Bold-62" d="M 2400 722 
Q 2759 722 2948 984 
Q 3138 1247 3138 1747 
Q 3138 2247 2948 2509 
Q 2759 2772 2400 2772 
Q 2041 2772 1848 2508 
Q 1656 2244 1656 1747 
Q 1656 1250 1848 986 
Q 2041 722 2400 722 
z
M 1656 2988 
Q 1888 3294 2169 3439 
Q 2450 3584 2816 3584 
Q 3463 3584 3878 3070 
Q 4294 2556 4294 1747 
Q 4294 938 3878 423 
Q 3463 -91 2816 -91 
Q 2450 -91 2169 54 
Q 1888 200 1656 506 
L 1656 0 
L 538 0 
L 538 4863 
L 1656 4863 
L 1656 2988 
z
" transform="scale(0.015625)"/>
       <path id="DejaVuSans-Bold-6c" d="M 538 4863 
L 1656 4863 
L 1656 0 
L 538 0 
L 538 4863 
z
" transform="scale(0.015625)"/>
       <path id="DejaVuSans-Bold-6f" d="M 2203 2784 
Q 1831 2784 1636 2517 
Q 1441 2250 1441 1747 
Q 1441 1244 1636 976 
Q 1831 709 2203 709 
Q 2569 709 2762 976 
Q 2956 1244 2956 1747 
Q 2956 2250 2762 2517 
Q 2569 2784 2203 2784 
z
M 2203 3584 
Q 3106 3584 3614 3096 
Q 4122 2609 4122 1747 
Q 4122 884 3614 396 
Q 3106 -91 2203 -91 
Q 1297 -91 786 396 
Q 275 884 275 1747 
Q 275 2609 786 3096 
Q 1297 3584 2203 3584 
z
" transform="scale(0.015625)"/>
       <path id="DejaVuSans-Bold-64" d="M 2919 2988 
L 2919 4863 
L 4044 4863 
L 4044 0 
L 2919 0 
L 2919 506 
Q 2688 197 2409 53 
Q 2131 -91 1766 -91 
Q 1119 -91 703 423 
Q 288 938 288 1747 
Q 288 2556 703 3070 
Q 1119 3584 1766 3584 
Q 2128 3584 2408 3439 
Q 2688 3294 2919 2988 
z
M 2181 722 
Q 2541 722 2730 984 
Q 2919 1247 2919 1747 
Q 2919 2247 2730 2509 
Q 2541 2772 2181 2772 
Q 1825 2772 1636 2509 
Q 1447 2247 1447 1747 
Q 1447 1247 1636 984 
Q 1825 722 2181 722 
z
" transform="scale(0.015625)"/>
       <path id="DejaVuSans-Bold-4d" d="M 588 4666 
L 2119 4666 
L 3181 2169 
L 4250 4666 
L 5778 4666 
L 5778 0 
L 4641 0 
L 4641 3413 
L 3566 897 
L 2803 897 
L 1728 3413 
L 1728 0 
L 588 0 
L 588 4666 
z
" transform="scale(0.015625)"/>
      </defs>
      <use xlink:href="#DejaVuSans-Bold-72"/>
      <use xlink:href="#DejaVuSans-Bold-61" transform="translate(49.316406 0)"/>
      <use xlink:href="#DejaVuSans-Bold-70" transform="translate(116.796875 0)"/>
      <use xlink:href="#DejaVuSans-Bold-61" transform="translate(188.378906 0)"/>
      <use xlink:href="#DejaVuSans-Bold-6d" transform="translate(255.859375 0)"/>
      <use xlink:href="#DejaVuSans-Bold-79" transform="translate(360.058594 0)"/>
      <use xlink:href="#DejaVuSans-Bold-63" transform="translate(425.244141 0)"/>
      <use xlink:href="#DejaVuSans-Bold-69" transform="translate(484.521484 0)"/>
      <use xlink:href="#DejaVuSans-Bold-6e" transform="translate(518.798828 0)"/>
      <use xlink:href="#DejaVuSans-Bold-20" transform="translate(589.990234 0)"/>
      <use xlink:href="#DejaVuSans-Bold-62" transform="translate(624.804688 0)"/>
      <use xlink:href="#DejaVuSans-Bold-6c" transform="translate(696.386719 0)"/>
      <use xlink:href="#DejaVuSans-Bold-6f" transform="translate(730.664062 0)"/>
      <use xlink:href="#DejaVuSans-Bold-6f" transform="translate(799.365234 0)"/>
      <use xlink:href="#DejaVuSans-Bold-64" transform="translate(868.066406 0)"/>
      <use xlink:href="#DejaVuSans-Bold-20" transform="translate(939.648438 0)"/>
      <use xlink:href="#DejaVuSans-Bold-5b" transform="translate(974.462891 0)"/>
      <use xlink:href="#DejaVuSans-Bold-6e" transform="translate(1020.166016 0)"/>
      <use xlink:href="#DejaVuSans-Bold-4d" transform="translate(1091.357422 0)"/>
      <use xlink:href="#DejaVuSans-Bold-5d" transform="translate(1190.869141 0)"/>
     </g>
    </g>
   </g>
   <g id="LineCollection_1">
    <path d="M 82.147045 307.010483 
L 82.147045 304.469556 
" clip-path="url(#p267931bef9)" style="fill: none; stroke: #000000"/>
    <path d="M 82.481845 306.463812 
L 82.481845 296.236505 
" clip-path="url(#p267931bef9)" style="fill: none; stroke: #000000"/>
    <path clip-path="url(#p267931bef9)" style="fill: none; stroke: #000000"/>
    <path d="M 83.161591 306.069571 
L 83.161591 298.104743 
" clip-path="url(#p267931bef9)" style="fill: none; stroke: #000000"/>
    <path d="M 84.176136 305.103361 
L 84.176136 300.434951 
" clip-path="url(#p267931bef9)" style="fill: none; stroke: #000000"/>
    <path d="M 85.190682 305.767359 
L 85.190682 302.510587 
" clip-path="url(#p267931bef9)" style="fill: none; stroke: #000000"/>
    <path clip-path="url(#p267931bef9)" style="fill: none; stroke: #000000"/>
    <path d="M 88.234318 307.334868 
L 88.234318 303.058413 
" clip-path="url(#p267931bef9)" style="fill: none; stroke: #000000"/>
    <path d="M 90.263409 307.551036 
L 90.263409 303.568559 
" clip-path="url(#p267931bef9)" style="fill: none; stroke: #000000"/>
    <path d="M 94.321591 307.618567 
L 94.321591 305.0087 
" clip-path="url(#p267931bef9)" style="fill: none; stroke: #000000"/>
    <path d="M 98.379773 307.577648 
L 98.379773 305.858906 
" clip-path="url(#p267931bef9)" style="fill: none; stroke: #000000"/>
    <path d="M 106.496136 307.561148 
L 106.496136 306.111198 
" clip-path="url(#p267931bef9)" style="fill: none; stroke: #000000"/>
    <path d="M 130.845227 307.653594 
L 130.845227 306.167477 
" clip-path="url(#p267931bef9)" style="fill: none; stroke: #000000"/>
    <path clip-path="url(#p267931bef9)" style="fill: none; stroke: #000000"/>
    <path clip-path="url(#p267931bef9)" style="fill: none; stroke: #000000"/>
    <path clip-path="url(#p267931bef9)" style="fill: none; stroke: #000000"/>
    <path clip-path="url(#p267931bef9)" style="fill: none; stroke: #000000"/>
    <path clip-path="url(#p267931bef9)" style="fill: none; stroke: #000000"/>
   </g>
   <g id="LineCollection_2">
    <path d="M 82.147045 297.424021 
L 82.147045 283.15322 
" clip-path="url(#p267931bef9)" style="fill: none; stroke: #ffe299"/>
    <path clip-path="url(#p267931bef9)" style="fill: none; stroke: #ffe299"/>
    <path clip-path="url(#p267931bef9)" style="fill: none; stroke: #ffe299"/>
    <path d="M 83.161591 297.578442 
L 83.161591 285.913955 
" clip-path="url(#p267931bef9)" style="fill: none; stroke: #ffe299"/>
    <path d="M 84.176136 300.105169 
L 84.176136 289.708445 
" clip-path="url(#p267931bef9)" style="fill: none; stroke: #ffe299"/>
    <path d="M 85.190682 300.971565 
L 85.190682 295.406159 
" clip-path="url(#p267931bef9)" style="fill: none; stroke: #ffe299"/>
    <path clip-path="url(#p267931bef9)" style="fill: none; stroke: #ffe299"/>
    <path d="M 88.234318 303.422123 
L 88.234318 298.323191 
" clip-path="url(#p267931bef9)" style="fill: none; stroke: #ffe299"/>
    <path d="M 90.263409 304.715865 
L 90.263409 301.3219 
" clip-path="url(#p267931bef9)" style="fill: none; stroke: #ffe299"/>
    <path d="M 94.321591 305.620196 
L 94.321591 303.720457 
" clip-path="url(#p267931bef9)" style="fill: none; stroke: #ffe299"/>
    <path d="M 98.379773 306.383532 
L 98.379773 304.504941 
" clip-path="url(#p267931bef9)" style="fill: none; stroke: #ffe299"/>
    <path d="M 106.496136 306.651141 
L 106.496136 305.005574 
" clip-path="url(#p267931bef9)" style="fill: none; stroke: #ffe299"/>
    <path d="M 130.845227 306.874086 
L 130.845227 305.895882 
" clip-path="url(#p267931bef9)" style="fill: none; stroke: #ffe299"/>
    <path d="M 155.194318 307.06523 
L 155.194318 306.393197 
" clip-path="url(#p267931bef9)" style="fill: none; stroke: #ffe299"/>
    <path d="M 179.543409 307.121455 
L 179.543409 306.744923 
" clip-path="url(#p267931bef9)" style="fill: none; stroke: #ffe299"/>
    <path d="M 203.8925 307.069455 
L 203.8925 306.901165 
" clip-path="url(#p267931bef9)" style="fill: none; stroke: #ffe299"/>
    <path d="M 228.241591 307.154468 
L 228.241591 306.936094 
" clip-path="url(#p267931bef9)" style="fill: none; stroke: #ffe299"/>
    <path clip-path="url(#p267931bef9)" style="fill: none; stroke: #ffe299"/>
   </g>
   <g id="LineCollection_3">
    <path d="M 82.147045 287.143914 
L 82.147045 268.245315 
" clip-path="url(#p267931bef9)" style="fill: none; stroke: #ffb347"/>
    <path clip-path="url(#p267931bef9)" style="fill: none; stroke: #ffb347"/>
    <path clip-path="url(#p267931bef9)" style="fill: none; stroke: #ffb347"/>
    <path d="M 83.161591 281.751865 
L 83.161591 251.113084 
" clip-path="url(#p267931bef9)" style="fill: none; stroke: #ffb347"/>
    <path d="M 84.176136 305.050546 
L 84.176136 252.315609 
" clip-path="url(#p267931bef9)" style="fill: none; stroke: #ffb347"/>
    <path clip-path="url(#p267931bef9)" style="fill: none; stroke: #ffb347"/>
    <path clip-path="url(#p267931bef9)" style="fill: none; stroke: #ffb347"/>
    <path d="M 88.234318 298.926268 
L 88.234318 287.530885 
" clip-path="url(#p267931bef9)" style="fill: none; stroke: #ffb347"/>
    <path d="M 90.263409 302.298427 
L 90.263409 293.462969 
" clip-path="url(#p267931bef9)" style="fill: none; stroke: #ffb347"/>
    <path d="M 94.321591 305.156805 
L 94.321591 298.863734 
" clip-path="url(#p267931bef9)" style="fill: none; stroke: #ffb347"/>
    <path d="M 98.379773 305.021562 
L 98.379773 301.135289 
" clip-path="url(#p267931bef9)" style="fill: none; stroke: #ffb347"/>
    <path d="M 106.496136 305.531628 
L 106.496136 301.888469 
" clip-path="url(#p267931bef9)" style="fill: none; stroke: #ffb347"/>
    <path d="M 130.845227 306.318896 
L 130.845227 303.874914 
" clip-path="url(#p267931bef9)" style="fill: none; stroke: #ffb347"/>
    <path d="M 155.194318 306.679024 
L 155.194318 304.509911 
" clip-path="url(#p267931bef9)" style="fill: none; stroke: #ffb347"/>
    <path d="M 179.543409 306.742799 
L 179.543409 305.221791 
" clip-path="url(#p267931bef9)" style="fill: none; stroke: #ffb347"/>
    <path d="M 203.8925 306.896827 
L 203.8925 305.736938 
" clip-path="url(#p267931bef9)" style="fill: none; stroke: #ffb347"/>
    <path d="M 228.241591 307.03708 
L 228.241591 306.085367 
" clip-path="url(#p267931bef9)" style="fill: none; stroke: #ffb347"/>
    <path clip-path="url(#p267931bef9)" style="fill: none; stroke: #ffb347"/>
   </g>
   <g id="LineCollection_4">
    <path clip-path="url(#p267931bef9)" style="fill: none; stroke: #ff944d"/>
    <path d="M 82.481845 235.172731 
L 82.481845 184.38379 
" clip-path="url(#p267931bef9)" style="fill: none; stroke: #ff944d"/>
    <path d="M 82.816645 236.503157 
L 82.816645 210.967832 
" clip-path="url(#p267931bef9)" style="fill: none; stroke: #ff944d"/>
    <path d="M 83.161591 270.450631 
L 83.161591 225.228473 
" clip-path="url(#p267931bef9)" style="fill: none; stroke: #ff944d"/>
    <path d="M 84.176136 282.432014 
L 84.176136 246.170749 
" clip-path="url(#p267931bef9)" style="fill: none; stroke: #ff944d"/>
    <path d="M 85.190682 277.523994 
L 85.190682 266.66292 
" clip-path="url(#p267931bef9)" style="fill: none; stroke: #ff944d"/>
    <path clip-path="url(#p267931bef9)" style="fill: none; stroke: #ff944d"/>
    <path d="M 88.234318 293.253437 
L 88.234318 276.53601 
" clip-path="url(#p267931bef9)" style="fill: none; stroke: #ff944d"/>
    <path d="M 90.263409 295.900537 
L 90.263409 285.362955 
" clip-path="url(#p267931bef9)" style="fill: none; stroke: #ff944d"/>
    <path d="M 94.321591 300.129828 
L 94.321591 291.152046 
" clip-path="url(#p267931bef9)" style="fill: none; stroke: #ff944d"/>
    <path d="M 98.379773 301.91085 
L 98.379773 294.380216 
" clip-path="url(#p267931bef9)" style="fill: none; stroke: #ff944d"/>
    <path d="M 106.496136 302.36342 
L 106.496136 297.053039 
" clip-path="url(#p267931bef9)" style="fill: none; stroke: #ff944d"/>
    <path d="M 130.845227 304.198832 
L 130.845227 300.184005 
" clip-path="url(#p267931bef9)" style="fill: none; stroke: #ff944d"/>
    <path d="M 155.194318 305.228745 
L 155.194318 302.407926 
" clip-path="url(#p267931bef9)" style="fill: none; stroke: #ff944d"/>
    <path d="M 179.543409 305.555196 
L 179.543409 303.836832 
" clip-path="url(#p267931bef9)" style="fill: none; stroke: #ff944d"/>
    <path d="M 203.8925 306.381526 
L 203.8925 303.909588 
" clip-path="url(#p267931bef9)" style="fill: none; stroke: #ff944d"/>
    <path d="M 228.241591 306.821354 
L 228.241591 304.925422 
" clip-path="url(#p267931bef9)" style="fill: none; stroke: #ff944d"/>
    <path clip-path="url(#p267931bef9)" style="fill: none; stroke: #ff944d"/>
   </g>
   <g id="LineCollection_5">
    <path d="M 82.147045 200.651865 
L 82.147045 106.961462 
" clip-path="url(#p267931bef9)" style="fill: none; stroke: #d2691e"/>
    <path d="M 82.481845 220.445469 
L 82.481845 55.8 
" clip-path="url(#p267931bef9)" style="fill: none; stroke: #d2691e"/>
    <path clip-path="url(#p267931bef9)" style="fill: none; stroke: #d2691e"/>
    <path clip-path="url(#p267931bef9)" style="fill: none; stroke: #d2691e"/>
    <path d="M 84.176136 236.261827 
L 84.176136 190.960715 
" clip-path="url(#p267931bef9)" style="fill: none; stroke: #d2691e"/>
    <path d="M 85.190682 250.907522 
L 85.190682 216.628454 
" clip-path="url(#p267931bef9)" style="fill: none; stroke: #d2691e"/>
    <path d="M 86.205227 268.225094 
L 86.205227 227.03734 
" clip-path="url(#p267931bef9)" style="fill: none; stroke: #d2691e"/>
    <path d="M 88.234318 278.713566 
L 88.234318 256.327293 
" clip-path="url(#p267931bef9)" style="fill: none; stroke: #d2691e"/>
    <path d="M 90.263409 285.623756 
L 90.263409 270.950017 
" clip-path="url(#p267931bef9)" style="fill: none; stroke: #d2691e"/>
    <path d="M 94.321591 292.352756 
L 94.321591 286.533918 
" clip-path="url(#p267931bef9)" style="fill: none; stroke: #d2691e"/>
    <path d="M 98.379773 297.029752 
L 98.379773 287.817719 
" clip-path="url(#p267931bef9)" style="fill: none; stroke: #d2691e"/>
    <path d="M 106.496136 298.627447 
L 106.496136 290.95083 
" clip-path="url(#p267931bef9)" style="fill: none; stroke: #d2691e"/>
    <path d="M 130.845227 302.47108 
L 130.845227 297.097376 
" clip-path="url(#p267931bef9)" style="fill: none; stroke: #d2691e"/>
    <path d="M 155.194318 303.520682 
L 155.194318 299.085931 
" clip-path="url(#p267931bef9)" style="fill: none; stroke: #d2691e"/>
    <path d="M 179.543409 304.619776 
L 179.543409 301.612597 
" clip-path="url(#p267931bef9)" style="fill: none; stroke: #d2691e"/>
    <path d="M 203.8925 305.107542 
L 203.8925 302.126834 
" clip-path="url(#p267931bef9)" style="fill: none; stroke: #d2691e"/>
    <path d="M 228.241591 305.424633 
L 228.241591 303.529831 
" clip-path="url(#p267931bef9)" style="fill: none; stroke: #d2691e"/>
    <path d="M 398.685227 307.170751 
L 398.685227 306.80238 
" clip-path="url(#p267931bef9)" style="fill: none; stroke: #d2691e"/>
   </g>
   <g id="line2d_16">
    <path d="M 82.147045 307.8 
L 82.679682 306.400733 
L 83.034773 306.070724 
L 83.567409 306.02751 
L 88.361136 306.857445 
L 93.509955 307.121052 
L 104.340227 307.435654 
L 119.964227 307.651251 
L 146.773591 307.768021 
L 224.893591 307.799637 
L 437.237955 307.8 
L 437.237955 307.8 
" clip-path="url(#p267931bef9)" style="fill: none; stroke: #000000; stroke-width: 2; stroke-linecap: square"/>
   </g>
   <g id="line2d_17">
    <path d="M 82.147045 305.740019 
L 82.481845 301.350158 
L 82.816645 300.433104 
L 83.161591 302.087157 
L 84.176136 302.769156 
L 85.190682 304.138973 
M 88.234318 305.19664 
L 90.263409 305.559798 
L 94.321591 306.313633 
L 98.379773 306.718277 
L 106.496136 306.836173 
L 130.845227 306.910535 
" clip-path="url(#p267931bef9)" style="fill: none; stroke-dasharray: 3.7,1.6; stroke-dashoffset: 0; stroke: #000000"/>
    <defs>
     <path id="m95843c4c7e" d="M -3 3 
L 3 3 
L 3 -3 
L -3 -3 
z
" style="stroke: #000000; stroke-linejoin: miter"/>
    </defs>
    <g clip-path="url(#p267931bef9)">
     <use xlink:href="#m95843c4c7e" x="82.147045" y="305.740019" style="stroke: #000000; stroke-linejoin: miter"/>
     <use xlink:href="#m95843c4c7e" x="82.481845" y="301.350158" style="stroke: #000000; stroke-linejoin: miter"/>
     <use xlink:href="#m95843c4c7e" x="82.816645" y="300.433104" style="stroke: #000000; stroke-linejoin: miter"/>
     <use xlink:href="#m95843c4c7e" x="83.161591" y="302.087157" style="stroke: #000000; stroke-linejoin: miter"/>
     <use xlink:href="#m95843c4c7e" x="84.176136" y="302.769156" style="stroke: #000000; stroke-linejoin: miter"/>
     <use xlink:href="#m95843c4c7e" x="85.190682" y="304.138973" style="stroke: #000000; stroke-linejoin: miter"/>
     <use xlink:href="#m95843c4c7e" x="88.234318" y="305.19664" style="stroke: #000000; stroke-linejoin: miter"/>
     <use xlink:href="#m95843c4c7e" x="90.263409" y="305.559798" style="stroke: #000000; stroke-linejoin: miter"/>
     <use xlink:href="#m95843c4c7e" x="94.321591" y="306.313633" style="stroke: #000000; stroke-linejoin: miter"/>
     <use xlink:href="#m95843c4c7e" x="98.379773" y="306.718277" style="stroke: #000000; stroke-linejoin: miter"/>
     <use xlink:href="#m95843c4c7e" x="106.496136" y="306.836173" style="stroke: #000000; stroke-linejoin: miter"/>
     <use xlink:href="#m95843c4c7e" x="130.845227" y="306.910535" style="stroke: #000000; stroke-linejoin: miter"/>
    </g>
   </g>
   <g id="line2d_18">
    <path d="M 82.147045 307.8 
L 82.679682 303.575167 
L 83.034773 302.580517 
L 83.389864 302.398596 
L 83.744955 302.560964 
L 86.053045 304.228542 
L 87.295864 304.698032 
L 89.071318 305.116815 
L 92.267136 305.608609 
L 97.5935 306.18975 
L 104.517773 306.717079 
L 113.039955 307.135337 
L 124.225318 307.449766 
L 140.381955 307.66118 
L 168.434136 307.772162 
L 255.7865 307.799813 
L 437.237955 307.8 
L 437.237955 307.8 
" clip-path="url(#p267931bef9)" style="fill: none; stroke: #ffe299; stroke-width: 2; stroke-linecap: square"/>
   </g>
   <g id="line2d_19">
    <path d="M 82.147045 290.28862 
L 82.481845 283.085862 
L 82.816645 285.445319 
L 83.161591 291.746198 
L 84.176136 294.906807 
L 85.190682 298.188862 
M 88.234318 300.872657 
L 90.263409 303.018882 
L 94.321591 304.670327 
L 98.379773 305.444237 
L 106.496136 305.828357 
L 130.845227 306.384984 
L 155.194318 306.729213 
L 179.543409 306.933189 
L 203.8925 306.98531 
L 228.241591 307.045281 
" clip-path="url(#p267931bef9)" style="fill: none; stroke-dasharray: 3.7,1.6; stroke-dashoffset: 0; stroke: #ffe299"/>
    <defs>
     <path id="m330be75b3f" d="M -3 3 
L 3 3 
L 3 -3 
L -3 -3 
z
" style="stroke: #000000; stroke-linejoin: miter"/>
    </defs>
    <g clip-path="url(#p267931bef9)">
     <use xlink:href="#m330be75b3f" x="82.147045" y="290.28862" style="fill: #ffe299; stroke: #000000; stroke-linejoin: miter"/>
     <use xlink:href="#m330be75b3f" x="82.481845" y="283.085862" style="fill: #ffe299; stroke: #000000; stroke-linejoin: miter"/>
     <use xlink:href="#m330be75b3f" x="82.816645" y="285.445319" style="fill: #ffe299; stroke: #000000; stroke-linejoin: miter"/>
     <use xlink:href="#m330be75b3f" x="83.161591" y="291.746198" style="fill: #ffe299; stroke: #000000; stroke-linejoin: miter"/>
     <use xlink:href="#m330be75b3f" x="84.176136" y="294.906807" style="fill: #ffe299; stroke: #000000; stroke-linejoin: miter"/>
     <use xlink:href="#m330be75b3f" x="85.190682" y="298.188862" style="fill: #ffe299; stroke: #000000; stroke-linejoin: miter"/>
     <use xlink:href="#m330be75b3f" x="88.234318" y="300.872657" style="fill: #ffe299; stroke: #000000; stroke-linejoin: miter"/>
     <use xlink:href="#m330be75b3f" x="90.263409" y="303.018882" style="fill: #ffe299; stroke: #000000; stroke-linejoin: miter"/>
     <use xlink:href="#m330be75b3f" x="94.321591" y="304.670327" style="fill: #ffe299; stroke: #000000; stroke-linejoin: miter"/>
     <use xlink:href="#m330be75b3f" x="98.379773" y="305.444237" style="fill: #ffe299; stroke: #000000; stroke-linejoin: miter"/>
     <use xlink:href="#m330be75b3f" x="106.496136" y="305.828357" style="fill: #ffe299; stroke: #000000; stroke-linejoin: miter"/>
     <use xlink:href="#m330be75b3f" x="130.845227" y="306.384984" style="fill: #ffe299; stroke: #000000; stroke-linejoin: miter"/>
     <use xlink:href="#m330be75b3f" x="155.194318" y="306.729213" style="fill: #ffe299; stroke: #000000; stroke-linejoin: miter"/>
     <use xlink:href="#m330be75b3f" x="179.543409" y="306.933189" style="fill: #ffe299; stroke: #000000; stroke-linejoin: miter"/>
     <use xlink:href="#m330be75b3f" x="203.8925" y="306.98531" style="fill: #ffe299; stroke: #000000; stroke-linejoin: miter"/>
     <use xlink:href="#m330be75b3f" x="228.241591" y="307.045281" style="fill: #ffe299; stroke: #000000; stroke-linejoin: miter"/>
    </g>
   </g>
   <g id="line2d_20">
    <path d="M 82.147045 307.8 
L 82.679682 293.860861 
L 83.034773 290.573521 
L 83.212318 290.056777 
L 83.389864 289.964214 
L 83.567409 290.143594 
L 84.100045 291.427728 
L 85.165318 294.274825 
L 86.053045 295.962656 
L 86.940773 297.137731 
L 88.006045 298.140628 
L 89.426409 299.112152 
L 91.379409 300.12918 
L 94.042591 301.244119 
L 97.415955 302.401995 
L 101.144409 303.441454 
L 105.227955 304.35131 
L 109.844136 305.153277 
L 115.1705 305.849799 
L 121.384591 306.434331 
L 129.019045 306.918456 
L 138.6065 307.291242 
L 151.567318 307.558019 
L 171.452409 307.722619 
L 212.465409 307.792631 
L 437.237955 307.8 
L 437.237955 307.8 
" clip-path="url(#p267931bef9)" style="fill: none; stroke: #ffb347; stroke-width: 2; stroke-linecap: square"/>
   </g>
   <g id="line2d_21">
    <path d="M 82.147045 277.694615 
M 83.161591 266.432474 
L 84.176136 278.683077 
L 85.190682 285.814553 
M 88.234318 293.228576 
L 90.263409 297.880698 
L 94.321591 302.010269 
L 98.379773 303.078425 
L 106.496136 303.710049 
L 130.845227 305.096905 
L 155.194318 305.594467 
L 179.543409 305.982295 
L 203.8925 306.316883 
L 228.241591 306.561223 
" clip-path="url(#p267931bef9)" style="fill: none; stroke-dasharray: 3.7,1.6; stroke-dashoffset: 0; stroke: #ffb347"/>
    <defs>
     <path id="m0af161fa02" d="M -3 3 
L 3 3 
L 3 -3 
L -3 -3 
z
" style="stroke: #000000; stroke-linejoin: miter"/>
    </defs>
    <g clip-path="url(#p267931bef9)">
     <use xlink:href="#m0af161fa02" x="82.147045" y="277.694615" style="fill: #ffb347; stroke: #000000; stroke-linejoin: miter"/>
     <use xlink:href="#m0af161fa02" x="83.161591" y="266.432474" style="fill: #ffb347; stroke: #000000; stroke-linejoin: miter"/>
     <use xlink:href="#m0af161fa02" x="84.176136" y="278.683077" style="fill: #ffb347; stroke: #000000; stroke-linejoin: miter"/>
     <use xlink:href="#m0af161fa02" x="85.190682" y="285.814553" style="fill: #ffb347; stroke: #000000; stroke-linejoin: miter"/>
     <use xlink:href="#m0af161fa02" x="88.234318" y="293.228576" style="fill: #ffb347; stroke: #000000; stroke-linejoin: miter"/>
     <use xlink:href="#m0af161fa02" x="90.263409" y="297.880698" style="fill: #ffb347; stroke: #000000; stroke-linejoin: miter"/>
     <use xlink:href="#m0af161fa02" x="94.321591" y="302.010269" style="fill: #ffb347; stroke: #000000; stroke-linejoin: miter"/>
     <use xlink:href="#m0af161fa02" x="98.379773" y="303.078425" style="fill: #ffb347; stroke: #000000; stroke-linejoin: miter"/>
     <use xlink:href="#m0af161fa02" x="106.496136" y="303.710049" style="fill: #ffb347; stroke: #000000; stroke-linejoin: miter"/>
     <use xlink:href="#m0af161fa02" x="130.845227" y="305.096905" style="fill: #ffb347; stroke: #000000; stroke-linejoin: miter"/>
     <use xlink:href="#m0af161fa02" x="155.194318" y="305.594467" style="fill: #ffb347; stroke: #000000; stroke-linejoin: miter"/>
     <use xlink:href="#m0af161fa02" x="179.543409" y="305.982295" style="fill: #ffb347; stroke: #000000; stroke-linejoin: miter"/>
     <use xlink:href="#m0af161fa02" x="203.8925" y="306.316883" style="fill: #ffb347; stroke: #000000; stroke-linejoin: miter"/>
     <use xlink:href="#m0af161fa02" x="228.241591" y="306.561223" style="fill: #ffb347; stroke: #000000; stroke-linejoin: miter"/>
    </g>
   </g>
   <g id="line2d_22">
    <path d="M 82.147045 307.8 
L 82.679682 284.948946 
L 83.034773 279.561289 
L 83.212318 278.715362 
L 83.389864 278.564928 
L 83.567409 278.860317 
L 83.9225 280.159418 
L 85.342864 286.279026 
L 86.053045 288.40939 
L 86.940773 290.336178 
L 87.8285 291.741249 
L 88.893773 293.029068 
L 90.314136 294.379319 
L 92.267136 295.888083 
L 94.752773 297.495473 
L 97.5935 299.048947 
L 100.611773 300.440079 
L 103.807591 301.672234 
L 107.3585 302.800845 
L 111.2645 303.803761 
L 115.703136 304.701541 
L 120.674409 305.469875 
L 126.355864 306.11759 
L 133.102591 306.657219 
L 141.447227 307.091708 
L 152.2775 307.419304 
L 167.546409 307.641351 
L 193.2905 307.763734 
L 264.131136 307.799375 
L 437.237955 307.8 
L 437.237955 307.8 
" clip-path="url(#p267931bef9)" style="fill: none; stroke: #ff944d; stroke-width: 2; stroke-linecap: square"/>
   </g>
   <g id="line2d_23">
    <path d="M 82.481845 209.778261 
L 82.816645 223.735495 
L 83.161591 247.839552 
L 84.176136 264.301381 
L 85.190682 272.093457 
M 88.234318 284.894724 
L 90.263409 290.631746 
L 94.321591 295.640937 
L 98.379773 298.145533 
L 106.496136 299.708229 
L 130.845227 302.191418 
L 155.194318 303.818335 
L 179.543409 304.696014 
L 203.8925 305.145557 
L 228.241591 305.873388 
" clip-path="url(#p267931bef9)" style="fill: none; stroke-dasharray: 3.7,1.6; stroke-dashoffset: 0; stroke: #ff944d"/>
    <defs>
     <path id="m21c60b91bc" d="M -3 3 
L 3 3 
L 3 -3 
L -3 -3 
z
" style="stroke: #000000; stroke-linejoin: miter"/>
    </defs>
    <g clip-path="url(#p267931bef9)">
     <use xlink:href="#m21c60b91bc" x="82.481845" y="209.778261" style="fill: #ff944d; stroke: #000000; stroke-linejoin: miter"/>
     <use xlink:href="#m21c60b91bc" x="82.816645" y="223.735495" style="fill: #ff944d; stroke: #000000; stroke-linejoin: miter"/>
     <use xlink:href="#m21c60b91bc" x="83.161591" y="247.839552" style="fill: #ff944d; stroke: #000000; stroke-linejoin: miter"/>
     <use xlink:href="#m21c60b91bc" x="84.176136" y="264.301381" style="fill: #ff944d; stroke: #000000; stroke-linejoin: miter"/>
     <use xlink:href="#m21c60b91bc" x="85.190682" y="272.093457" style="fill: #ff944d; stroke: #000000; stroke-linejoin: miter"/>
     <use xlink:href="#m21c60b91bc" x="88.234318" y="284.894724" style="fill: #ff944d; stroke: #000000; stroke-linejoin: miter"/>
     <use xlink:href="#m21c60b91bc" x="90.263409" y="290.631746" style="fill: #ff944d; stroke: #000000; stroke-linejoin: miter"/>
     <use xlink:href="#m21c60b91bc" x="94.321591" y="295.640937" style="fill: #ff944d; stroke: #000000; stroke-linejoin: miter"/>
     <use xlink:href="#m21c60b91bc" x="98.379773" y="298.145533" style="fill: #ff944d; stroke: #000000; stroke-linejoin: miter"/>
     <use xlink:href="#m21c60b91bc" x="106.496136" y="299.708229" style="fill: #ff944d; stroke: #000000; stroke-linejoin: miter"/>
     <use xlink:href="#m21c60b91bc" x="130.845227" y="302.191418" style="fill: #ff944d; stroke: #000000; stroke-linejoin: miter"/>
     <use xlink:href="#m21c60b91bc" x="155.194318" y="303.818335" style="fill: #ff944d; stroke: #000000; stroke-linejoin: miter"/>
     <use xlink:href="#m21c60b91bc" x="179.543409" y="304.696014" style="fill: #ff944d; stroke: #000000; stroke-linejoin: miter"/>
     <use xlink:href="#m21c60b91bc" x="203.8925" y="305.145557" style="fill: #ff944d; stroke: #000000; stroke-linejoin: miter"/>
     <use xlink:href="#m21c60b91bc" x="228.241591" y="305.873388" style="fill: #ff944d; stroke: #000000; stroke-linejoin: miter"/>
    </g>
   </g>
   <g id="line2d_24">
    <path d="M 82.147045 307.8 
L 82.679682 270.769678 
L 83.034773 262.036734 
L 83.212318 260.664385 
L 83.389864 260.419024 
L 83.567409 260.896142 
L 83.9225 262.99845 
L 85.342864 272.908186 
L 86.053045 276.359062 
L 86.940773 279.480861 
L 87.8285 281.757967 
L 88.893773 283.8456 
L 90.136591 285.785929 
L 91.7345 287.858546 
L 93.6875 290.025208 
L 95.995591 292.243822 
L 98.481227 294.31334 
L 101.144409 296.223729 
L 103.807591 297.863071 
L 106.648318 299.356576 
L 109.666591 300.698257 
L 113.039955 301.947117 
L 116.590864 303.025214 
L 120.496864 303.983226 
L 124.9355 304.840785 
L 129.906773 305.574672 
L 135.765773 306.209595 
L 142.690045 306.730707 
L 151.389773 307.150652 
L 162.752682 307.46151 
L 179.086864 307.667312 
L 207.849227 307.774493 
L 301.593227 307.799882 
L 437.237955 307.8 
L 437.237955 307.8 
" clip-path="url(#p267931bef9)" style="fill: none; stroke: #d2691e; stroke-width: 2; stroke-linecap: square"/>
   </g>
   <g id="line2d_25">
    <path d="M 82.147045 153.806664 
L 82.481845 138.122735 
M 84.176136 213.611271 
L 85.190682 233.767988 
L 86.205227 247.631217 
L 88.234318 267.52043 
L 90.263409 278.286886 
L 94.321591 289.443337 
L 98.379773 292.423736 
L 106.496136 294.789138 
L 130.845227 299.784228 
L 155.194318 301.303306 
L 179.543409 303.116186 
L 203.8925 303.617188 
L 228.241591 304.477232 
L 398.685227 306.986565 
" clip-path="url(#p267931bef9)" style="fill: none; stroke-dasharray: 3.7,1.6; stroke-dashoffset: 0; stroke: #d2691e"/>
    <defs>
     <path id="mb3181129b6" d="M -3 3 
L 3 3 
L 3 -3 
L -3 -3 
z
" style="stroke: #000000; stroke-linejoin: miter"/>
    </defs>
    <g clip-path="url(#p267931bef9)">
     <use xlink:href="#mb3181129b6" x="82.147045" y="153.806664" style="fill: #d2691e; stroke: #000000; stroke-linejoin: miter"/>
     <use xlink:href="#mb3181129b6" x="82.481845" y="138.122735" style="fill: #d2691e; stroke: #000000; stroke-linejoin: miter"/>
     <use xlink:href="#mb3181129b6" x="84.176136" y="213.611271" style="fill: #d2691e; stroke: #000000; stroke-linejoin: miter"/>
     <use xlink:href="#mb3181129b6" x="85.190682" y="233.767988" style="fill: #d2691e; stroke: #000000; stroke-linejoin: miter"/>
     <use xlink:href="#mb3181129b6" x="86.205227" y="247.631217" style="fill: #d2691e; stroke: #000000; stroke-linejoin: miter"/>
     <use xlink:href="#mb3181129b6" x="88.234318" y="267.52043" style="fill: #d2691e; stroke: #000000; stroke-linejoin: miter"/>
     <use xlink:href="#mb3181129b6" x="90.263409" y="278.286886" style="fill: #d2691e; stroke: #000000; stroke-linejoin: miter"/>
     <use xlink:href="#mb3181129b6" x="94.321591" y="289.443337" style="fill: #d2691e; stroke: #000000; stroke-linejoin: miter"/>
     <use xlink:href="#mb3181129b6" x="98.379773" y="292.423736" style="fill: #d2691e; stroke: #000000; stroke-linejoin: miter"/>
     <use xlink:href="#mb3181129b6" x="106.496136" y="294.789138" style="fill: #d2691e; stroke: #000000; stroke-linejoin: miter"/>
     <use xlink:href="#mb3181129b6" x="130.845227" y="299.784228" style="fill: #d2691e; stroke: #000000; stroke-linejoin: miter"/>
     <use xlink:href="#mb3181129b6" x="155.194318" y="301.303306" style="fill: #d2691e; stroke: #000000; stroke-linejoin: miter"/>
     <use xlink:href="#mb3181129b6" x="179.543409" y="303.116186" style="fill: #d2691e; stroke: #000000; stroke-linejoin: miter"/>
     <use xlink:href="#mb3181129b6" x="203.8925" y="303.617188" style="fill: #d2691e; stroke: #000000; stroke-linejoin: miter"/>
     <use xlink:href="#mb3181129b6" x="228.241591" y="304.477232" style="fill: #d2691e; stroke: #000000; stroke-linejoin: miter"/>
     <use xlink:href="#mb3181129b6" x="398.685227" y="306.986565" style="fill: #d2691e; stroke: #000000; stroke-linejoin: miter"/>
    </g>
   </g>
   <g id="patch_3">
    <path d="M 64.3925 320.4 
L 64.3925 43.2 
" style="fill: none; stroke: #000000; stroke-width: 0.8; stroke-linejoin: miter; stroke-linecap: square"/>
   </g>
   <g id="patch_4">
    <path d="M 454.9925 320.4 
L 454.9925 43.2 
" style="fill: none; stroke: #000000; stroke-width: 0.8; stroke-linejoin: miter; stroke-linecap: square"/>
   </g>
   <g id="patch_5">
    <path d="M 64.3925 320.4 
L 454.9925 320.4 
" style="fill: none; stroke: #000000; stroke-width: 0.8; stroke-linejoin: miter; stroke-linecap: square"/>
   </g>
   <g id="patch_6">
    <path d="M 64.3925 43.2 
L 454.9925 43.2 
" style="fill: none; stroke: #000000; stroke-width: 0.8; stroke-linejoin: miter; stroke-linecap: square"/>
   </g>
   <g id="legend_1">
    <g id="patch_7">
     <path d="M 329.359688 197.98125 
L 447.9925 197.98125 
Q 449.9925 197.98125 449.9925 195.98125 
L 449.9925 50.2 
Q 449.9925 48.2 447.9925 48.2 
L 329.359688 48.2 
Q 327.359688 48.2 327.359688 50.2 
L 327.359688 195.98125 
Q 327.359688 197.98125 329.359688 197.98125 
z
" style="fill: #ffffff; opacity: 0.8; stroke: #cccccc; stroke-linejoin: miter"/>
    </g>
    <g id="line2d_26">
     <path d="M 331.359688 56.298437 
L 351.359688 56.298437 
" style="fill: none; stroke: #000000; stroke-width: 2; stroke-linecap: square"/>
    </g>
    <g id="line2d_27"/>
    <g id="text_18">
     <!-- RAP03 -->
     <g transform="translate(359.359688 59.798437) scale(0.1 -0.1)">
      <defs>
       <path id="DejaVuSans-52" d="M 2841 2188 
Q 3044 2119 3236 1894 
Q 3428 1669 3622 1275 
L 4263 0 
L 3584 0 
L 2988 1197 
Q 2756 1666 2539 1819 
Q 2322 1972 1947 1972 
L 1259 1972 
L 1259 0 
L 628 0 
L 628 4666 
L 2053 4666 
Q 2853 4666 3247 4331 
Q 3641 3997 3641 3322 
Q 3641 2881 3436 2590 
Q 3231 2300 2841 2188 
z
M 1259 4147 
L 1259 2491 
L 2053 2491 
Q 2509 2491 2742 2702 
Q 2975 2913 2975 3322 
Q 2975 3731 2742 3939 
Q 2509 4147 2053 4147 
L 1259 4147 
z
" transform="scale(0.015625)"/>
       <path id="DejaVuSans-41" d="M 2188 4044 
L 1331 1722 
L 3047 1722 
L 2188 4044 
z
M 1831 4666 
L 2547 4666 
L 4325 0 
L 3669 0 
L 3244 1197 
L 1141 1197 
L 716 0 
L 50 0 
L 1831 4666 
z
" transform="scale(0.015625)"/>
       <path id="DejaVuSans-50" d="M 1259 4147 
L 1259 2394 
L 2053 2394 
Q 2494 2394 2734 2622 
Q 2975 2850 2975 3272 
Q 2975 3691 2734 3919 
Q 2494 4147 2053 4147 
L 1259 4147 
z
M 628 4666 
L 2053 4666 
Q 2838 4666 3239 4311 
Q 3641 3956 3641 3272 
Q 3641 2581 3239 2228 
Q 2838 1875 2053 1875 
L 1259 1875 
L 1259 0 
L 628 0 
L 628 4666 
z
" transform="scale(0.015625)"/>
      </defs>
      <use xlink:href="#DejaVuSans-52"/>
      <use xlink:href="#DejaVuSans-41" transform="translate(65.482422 0)"/>
      <use xlink:href="#DejaVuSans-50" transform="translate(133.890625 0)"/>
      <use xlink:href="#DejaVuSans-30" transform="translate(194.193359 0)"/>
      <use xlink:href="#DejaVuSans-33" transform="translate(257.816406 0)"/>
     </g>
    </g>
    <g id="LineCollection_6">
     <path d="M 341.359688 75.976562 
L 341.359688 65.976562 
" style="fill: none; stroke: #000000"/>
    </g>
    <g id="line2d_28">
     <path d="M 331.359688 70.976562 
L 351.359688 70.976562 
" style="fill: none; stroke-dasharray: 3.7,1.6; stroke-dashoffset: 0; stroke: #000000"/>
    </g>
    <g id="line2d_29">
     <g>
      <use xlink:href="#m95843c4c7e" x="341.359688" y="70.976562" style="stroke: #000000; stroke-linejoin: miter"/>
     </g>
    </g>
    <g id="text_19">
     <!-- RAP03SD (n=6) -->
     <g transform="translate(359.359688 74.476562) scale(0.1 -0.1)">
      <defs>
       <path id="DejaVuSans-b1" d="M 2944 4013 
L 2944 2803 
L 4684 2803 
L 4684 2272 
L 2944 2272 
L 2944 1063 
L 2419 1063 
L 2419 2272 
L 678 2272 
L 678 2803 
L 2419 2803 
L 2419 4013 
L 2944 4013 
z
M 678 531 
L 4684 531 
L 4684 0 
L 678 0 
L 678 531 
z
" transform="scale(0.015625)"/>
       <path id="DejaVuSans-53" d="M 3425 4513 
L 3425 3897 
Q 3066 4069 2747 4153 
Q 2428 4238 2131 4238 
Q 1616 4238 1336 4038 
Q 1056 3838 1056 3469 
Q 1056 3159 1242 3001 
Q 1428 2844 1947 2747 
L 2328 2669 
Q 3034 2534 3370 2195 
Q 3706 1856 3706 1288 
Q 3706 609 3251 259 
Q 2797 -91 1919 -91 
Q 1588 -91 1214 -16 
Q 841 59 441 206 
L 441 856 
Q 825 641 1194 531 
Q 1563 422 1919 422 
Q 2459 422 2753 634 
Q 3047 847 3047 1241 
Q 3047 1584 2836 1778 
Q 2625 1972 2144 2069 
L 1759 2144 
Q 1053 2284 737 2584 
Q 422 2884 422 3419 
Q 422 4038 858 4394 
Q 1294 4750 2059 4750 
Q 2388 4750 2728 4690 
Q 3069 4631 3425 4513 
z
" transform="scale(0.015625)"/>
       <path id="DejaVuSans-44" d="M 1259 4147 
L 1259 519 
L 2022 519 
Q 2988 519 3436 956 
Q 3884 1394 3884 2338 
Q 3884 3275 3436 3711 
Q 2988 4147 2022 4147 
L 1259 4147 
z
M 628 4666 
L 1925 4666 
Q 3281 4666 3915 4102 
Q 4550 3538 4550 2338 
Q 4550 1131 3912 565 
Q 3275 0 1925 0 
L 628 0 
L 628 4666 
z
" transform="scale(0.015625)"/>
       <path id="DejaVuSans-20" transform="scale(0.015625)"/>
       <path id="DejaVuSans-28" d="M 1984 4856 
Q 1566 4138 1362 3434 
Q 1159 2731 1159 2009 
Q 1159 1288 1364 580 
Q 1569 -128 1984 -844 
L 1484 -844 
Q 1016 -109 783 600 
Q 550 1309 550 2009 
Q 550 2706 781 3412 
Q 1013 4119 1484 4856 
L 1984 4856 
z
" transform="scale(0.015625)"/>
       <path id="DejaVuSans-6e" d="M 3513 2113 
L 3513 0 
L 2938 0 
L 2938 2094 
Q 2938 2591 2744 2837 
Q 2550 3084 2163 3084 
Q 1697 3084 1428 2787 
Q 1159 2491 1159 1978 
L 1159 0 
L 581 0 
L 581 3500 
L 1159 3500 
L 1159 2956 
Q 1366 3272 1645 3428 
Q 1925 3584 2291 3584 
Q 2894 3584 3203 3211 
Q 3513 2838 3513 2113 
z
" transform="scale(0.015625)"/>
       <path id="DejaVuSans-3d" d="M 678 2906 
L 4684 2906 
L 4684 2381 
L 678 2381 
L 678 2906 
z
M 678 1631 
L 4684 1631 
L 4684 1100 
L 678 1100 
L 678 1631 
z
" transform="scale(0.015625)"/>
       <path id="DejaVuSans-29" d="M 513 4856 
L 1013 4856 
Q 1481 4119 1714 3412 
Q 1947 2706 1947 2009 
Q 1947 1309 1714 600 
Q 1481 -109 1013 -844 
L 513 -844 
Q 928 -128 1133 580 
Q 1338 1288 1338 2009 
Q 1338 2731 1133 3434 
Q 928 4138 513 4856 
z
" transform="scale(0.015625)"/>
      </defs>
      <use xlink:href="#DejaVuSans-52"/>
      <use xlink:href="#DejaVuSans-41" transform="translate(65.482422 0)"/>
      <use xlink:href="#DejaVuSans-50" transform="translate(133.890625 0)"/>
      <use xlink:href="#DejaVuSans-30" transform="translate(194.193359 0)"/>
      <use xlink:href="#DejaVuSans-33" transform="translate(257.816406 0)"/>
      <use xlink:href="#DejaVuSans-b1" transform="translate(321.439453 0)"/>
      <use xlink:href="#DejaVuSans-53" transform="translate(405.228516 0)"/>
      <use xlink:href="#DejaVuSans-44" transform="translate(468.705078 0)"/>
      <use xlink:href="#DejaVuSans-20" transform="translate(545.707031 0)"/>
      <use xlink:href="#DejaVuSans-28" transform="translate(577.494141 0)"/>
      <use xlink:href="#DejaVuSans-6e" transform="translate(616.507812 0)"/>
      <use xlink:href="#DejaVuSans-3d" transform="translate(679.886719 0)"/>
      <use xlink:href="#DejaVuSans-36" transform="translate(763.675781 0)"/>
      <use xlink:href="#DejaVuSans-29" transform="translate(827.298828 0)"/>
     </g>
    </g>
    <g id="line2d_30">
     <path d="M 331.359688 85.654687 
L 351.359688 85.654687 
" style="fill: none; stroke: #ffe299; stroke-width: 2; stroke-linecap: square"/>
    </g>
    <g id="line2d_31"/>
    <g id="text_20">
     <!-- RAP1 -->
     <g transform="translate(359.359688 89.154687) scale(0.1 -0.1)">
      <use xlink:href="#DejaVuSans-52"/>
      <use xlink:href="#DejaVuSans-41" transform="translate(65.482422 0)"/>
      <use xlink:href="#DejaVuSans-50" transform="translate(133.890625 0)"/>
      <use xlink:href="#DejaVuSans-31" transform="translate(194.193359 0)"/>
     </g>
    </g>
    <g id="LineCollection_7">
     <path d="M 341.359688 105.332812 
L 341.359688 95.332812 
" style="fill: none; stroke: #ffe299"/>
    </g>
    <g id="line2d_32">
     <path d="M 331.359688 100.332812 
L 351.359688 100.332812 
" style="fill: none; stroke-dasharray: 3.7,1.6; stroke-dashoffset: 0; stroke: #ffe299"/>
    </g>
    <g id="line2d_33">
     <g>
      <use xlink:href="#m330be75b3f" x="341.359688" y="100.332812" style="fill: #ffe299; stroke: #000000; stroke-linejoin: miter"/>
     </g>
    </g>
    <g id="text_21">
     <!-- RAP1SD (n=6) -->
     <g transform="translate(359.359688 103.832812) scale(0.1 -0.1)">
      <use xlink:href="#DejaVuSans-52"/>
      <use xlink:href="#DejaVuSans-41" transform="translate(65.482422 0)"/>
      <use xlink:href="#DejaVuSans-50" transform="translate(133.890625 0)"/>
      <use xlink:href="#DejaVuSans-31" transform="translate(194.193359 0)"/>
      <use xlink:href="#DejaVuSans-b1" transform="translate(257.816406 0)"/>
      <use xlink:href="#DejaVuSans-53" transform="translate(341.605469 0)"/>
      <use xlink:href="#DejaVuSans-44" transform="translate(405.082031 0)"/>
      <use xlink:href="#DejaVuSans-20" transform="translate(482.083984 0)"/>
      <use xlink:href="#DejaVuSans-28" transform="translate(513.871094 0)"/>
      <use xlink:href="#DejaVuSans-6e" transform="translate(552.884766 0)"/>
      <use xlink:href="#DejaVuSans-3d" transform="translate(616.263672 0)"/>
      <use xlink:href="#DejaVuSans-36" transform="translate(700.052734 0)"/>
      <use xlink:href="#DejaVuSans-29" transform="translate(763.675781 0)"/>
     </g>
    </g>
    <g id="line2d_34">
     <path d="M 331.359688 115.010937 
L 351.359688 115.010937 
" style="fill: none; stroke: #ffb347; stroke-width: 2; stroke-linecap: square"/>
    </g>
    <g id="line2d_35"/>
    <g id="text_22">
     <!-- RAP3 -->
     <g transform="translate(359.359688 118.510937) scale(0.1 -0.1)">
      <use xlink:href="#DejaVuSans-52"/>
      <use xlink:href="#DejaVuSans-41" transform="translate(65.482422 0)"/>
      <use xlink:href="#DejaVuSans-50" transform="translate(133.890625 0)"/>
      <use xlink:href="#DejaVuSans-33" transform="translate(194.193359 0)"/>
     </g>
    </g>
    <g id="LineCollection_8">
     <path d="M 341.359688 134.689062 
L 341.359688 124.689062 
" style="fill: none; stroke: #ffb347"/>
    </g>
    <g id="line2d_36">
     <path d="M 331.359688 129.689062 
L 351.359688 129.689062 
" style="fill: none; stroke-dasharray: 3.7,1.6; stroke-dashoffset: 0; stroke: #ffb347"/>
    </g>
    <g id="line2d_37">
     <g>
      <use xlink:href="#m0af161fa02" x="341.359688" y="129.689062" style="fill: #ffb347; stroke: #000000; stroke-linejoin: miter"/>
     </g>
    </g>
    <g id="text_23">
     <!-- RAP3SD (n=6) -->
     <g transform="translate(359.359688 133.189062) scale(0.1 -0.1)">
      <use xlink:href="#DejaVuSans-52"/>
      <use xlink:href="#DejaVuSans-41" transform="translate(65.482422 0)"/>
      <use xlink:href="#DejaVuSans-50" transform="translate(133.890625 0)"/>
      <use xlink:href="#DejaVuSans-33" transform="translate(194.193359 0)"/>
      <use xlink:href="#DejaVuSans-b1" transform="translate(257.816406 0)"/>
      <use xlink:href="#DejaVuSans-53" transform="translate(341.605469 0)"/>
      <use xlink:href="#DejaVuSans-44" transform="translate(405.082031 0)"/>
      <use xlink:href="#DejaVuSans-20" transform="translate(482.083984 0)"/>
      <use xlink:href="#DejaVuSans-28" transform="translate(513.871094 0)"/>
      <use xlink:href="#DejaVuSans-6e" transform="translate(552.884766 0)"/>
      <use xlink:href="#DejaVuSans-3d" transform="translate(616.263672 0)"/>
      <use xlink:href="#DejaVuSans-36" transform="translate(700.052734 0)"/>
      <use xlink:href="#DejaVuSans-29" transform="translate(763.675781 0)"/>
     </g>
    </g>
    <g id="line2d_38">
     <path d="M 331.359688 144.367187 
L 351.359688 144.367187 
" style="fill: none; stroke: #ff944d; stroke-width: 2; stroke-linecap: square"/>
    </g>
    <g id="line2d_39"/>
    <g id="text_24">
     <!-- RAP5 -->
     <g transform="translate(359.359688 147.867187) scale(0.1 -0.1)">
      <use xlink:href="#DejaVuSans-52"/>
      <use xlink:href="#DejaVuSans-41" transform="translate(65.482422 0)"/>
      <use xlink:href="#DejaVuSans-50" transform="translate(133.890625 0)"/>
      <use xlink:href="#DejaVuSans-35" transform="translate(194.193359 0)"/>
     </g>
    </g>
    <g id="LineCollection_9">
     <path d="M 341.359688 164.045312 
L 341.359688 154.045312 
" style="fill: none; stroke: #ff944d"/>
    </g>
    <g id="line2d_40">
     <path d="M 331.359688 159.045312 
L 351.359688 159.045312 
" style="fill: none; stroke-dasharray: 3.7,1.6; stroke-dashoffset: 0; stroke: #ff944d"/>
    </g>
    <g id="line2d_41">
     <g>
      <use xlink:href="#m21c60b91bc" x="341.359688" y="159.045312" style="fill: #ff944d; stroke: #000000; stroke-linejoin: miter"/>
     </g>
    </g>
    <g id="text_25">
     <!-- RAP5SD (n=6) -->
     <g transform="translate(359.359688 162.545312) scale(0.1 -0.1)">
      <use xlink:href="#DejaVuSans-52"/>
      <use xlink:href="#DejaVuSans-41" transform="translate(65.482422 0)"/>
      <use xlink:href="#DejaVuSans-50" transform="translate(133.890625 0)"/>
      <use xlink:href="#DejaVuSans-35" transform="translate(194.193359 0)"/>
      <use xlink:href="#DejaVuSans-b1" transform="translate(257.816406 0)"/>
      <use xlink:href="#DejaVuSans-53" transform="translate(341.605469 0)"/>
      <use xlink:href="#DejaVuSans-44" transform="translate(405.082031 0)"/>
      <use xlink:href="#DejaVuSans-20" transform="translate(482.083984 0)"/>
      <use xlink:href="#DejaVuSans-28" transform="translate(513.871094 0)"/>
      <use xlink:href="#DejaVuSans-6e" transform="translate(552.884766 0)"/>
      <use xlink:href="#DejaVuSans-3d" transform="translate(616.263672 0)"/>
      <use xlink:href="#DejaVuSans-36" transform="translate(700.052734 0)"/>
      <use xlink:href="#DejaVuSans-29" transform="translate(763.675781 0)"/>
     </g>
    </g>
    <g id="line2d_42">
     <path d="M 331.359688 173.723437 
L 351.359688 173.723437 
" style="fill: none; stroke: #d2691e; stroke-width: 2; stroke-linecap: square"/>
    </g>
    <g id="line2d_43"/>
    <g id="text_26">
     <!-- RAP8 -->
     <g transform="translate(359.359688 177.223437) scale(0.1 -0.1)">
      <use xlink:href="#DejaVuSans-52"/>
      <use xlink:href="#DejaVuSans-41" transform="translate(65.482422 0)"/>
      <use xlink:href="#DejaVuSans-50" transform="translate(133.890625 0)"/>
      <use xlink:href="#DejaVuSans-38" transform="translate(194.193359 0)"/>
     </g>
    </g>
    <g id="LineCollection_10">
     <path d="M 341.359688 193.401562 
L 341.359688 183.401562 
" style="fill: none; stroke: #d2691e"/>
    </g>
    <g id="line2d_44">
     <path d="M 331.359688 188.401562 
L 351.359688 188.401562 
" style="fill: none; stroke-dasharray: 3.7,1.6; stroke-dashoffset: 0; stroke: #d2691e"/>
    </g>
    <g id="line2d_45">
     <g>
      <use xlink:href="#mb3181129b6" x="341.359688" y="188.401562" style="fill: #d2691e; stroke: #000000; stroke-linejoin: miter"/>
     </g>
    </g>
    <g id="text_27">
     <!-- RAP8SD (n=6) -->
     <g transform="translate(359.359688 191.901562) scale(0.1 -0.1)">
      <use xlink:href="#DejaVuSans-52"/>
      <use xlink:href="#DejaVuSans-41" transform="translate(65.482422 0)"/>
      <use xlink:href="#DejaVuSans-50" transform="translate(133.890625 0)"/>
      <use xlink:href="#DejaVuSans-38" transform="translate(194.193359 0)"/>
      <use xlink:href="#DejaVuSans-b1" transform="translate(257.816406 0)"/>
      <use xlink:href="#DejaVuSans-53" transform="translate(341.605469 0)"/>
      <use xlink:href="#DejaVuSans-44" transform="translate(405.082031 0)"/>
      <use xlink:href="#DejaVuSans-20" transform="translate(482.083984 0)"/>
      <use xlink:href="#DejaVuSans-28" transform="translate(513.871094 0)"/>
      <use xlink:href="#DejaVuSans-6e" transform="translate(552.884766 0)"/>
      <use xlink:href="#DejaVuSans-3d" transform="translate(616.263672 0)"/>
      <use xlink:href="#DejaVuSans-36" transform="translate(700.052734 0)"/>
      <use xlink:href="#DejaVuSans-29" transform="translate(763.675781 0)"/>
     </g>
    </g>
   </g>
  </g>
  <g id="text_28">
   <!-- Brattstrom2000 -->
   <g transform="translate(141.335859 26.196094) scale(0.25 -0.25)">
    <defs>
     <path id="DejaVuSans-Bold-42" d="M 2456 2859 
Q 2741 2859 2887 2984 
Q 3034 3109 3034 3353 
Q 3034 3594 2887 3720 
Q 2741 3847 2456 3847 
L 1791 3847 
L 1791 2859 
L 2456 2859 
z
M 2497 819 
Q 2859 819 3042 972 
Q 3225 1125 3225 1434 
Q 3225 1738 3044 1889 
Q 2863 2041 2497 2041 
L 1791 2041 
L 1791 819 
L 2497 819 
z
M 3616 2497 
Q 4003 2384 4215 2081 
Q 4428 1778 4428 1338 
Q 4428 663 3972 331 
Q 3516 0 2584 0 
L 588 0 
L 588 4666 
L 2394 4666 
Q 3366 4666 3802 4372 
Q 4238 4078 4238 3431 
Q 4238 3091 4078 2852 
Q 3919 2613 3616 2497 
z
" transform="scale(0.015625)"/>
     <path id="DejaVuSans-Bold-73" d="M 3272 3391 
L 3272 2541 
Q 2913 2691 2578 2766 
Q 2244 2841 1947 2841 
Q 1628 2841 1473 2761 
Q 1319 2681 1319 2516 
Q 1319 2381 1436 2309 
Q 1553 2238 1856 2203 
L 2053 2175 
Q 2913 2066 3209 1816 
Q 3506 1566 3506 1031 
Q 3506 472 3093 190 
Q 2681 -91 1863 -91 
Q 1516 -91 1145 -36 
Q 775 19 384 128 
L 384 978 
Q 719 816 1070 734 
Q 1422 653 1784 653 
Q 2113 653 2278 743 
Q 2444 834 2444 1013 
Q 2444 1163 2330 1236 
Q 2216 1309 1875 1350 
L 1678 1375 
Q 931 1469 631 1722 
Q 331 1975 331 2491 
Q 331 3047 712 3315 
Q 1094 3584 1881 3584 
Q 2191 3584 2531 3537 
Q 2872 3491 3272 3391 
z
" transform="scale(0.015625)"/>
     <path id="DejaVuSans-Bold-32" d="M 1844 884 
L 3897 884 
L 3897 0 
L 506 0 
L 506 884 
L 2209 2388 
Q 2438 2594 2547 2791 
Q 2656 2988 2656 3200 
Q 2656 3528 2436 3728 
Q 2216 3928 1850 3928 
Q 1569 3928 1234 3808 
Q 900 3688 519 3450 
L 519 4475 
Q 925 4609 1322 4679 
Q 1719 4750 2100 4750 
Q 2938 4750 3402 4381 
Q 3866 4013 3866 3353 
Q 3866 2972 3669 2642 
Q 3472 2313 2841 1759 
L 1844 884 
z
" transform="scale(0.015625)"/>
     <path id="DejaVuSans-Bold-30" d="M 2944 2338 
Q 2944 3213 2780 3570 
Q 2616 3928 2228 3928 
Q 1841 3928 1675 3570 
Q 1509 3213 1509 2338 
Q 1509 1453 1675 1090 
Q 1841 728 2228 728 
Q 2613 728 2778 1090 
Q 2944 1453 2944 2338 
z
M 4147 2328 
Q 4147 1169 3647 539 
Q 3147 -91 2228 -91 
Q 1306 -91 806 539 
Q 306 1169 306 2328 
Q 306 3491 806 4120 
Q 1306 4750 2228 4750 
Q 3147 4750 3647 4120 
Q 4147 3491 4147 2328 
z
" transform="scale(0.015625)"/>
    </defs>
    <use xlink:href="#DejaVuSans-Bold-42"/>
    <use xlink:href="#DejaVuSans-Bold-72" transform="translate(76.220703 0)"/>
    <use xlink:href="#DejaVuSans-Bold-61" transform="translate(125.537109 0)"/>
    <use xlink:href="#DejaVuSans-Bold-74" transform="translate(193.017578 0)"/>
    <use xlink:href="#DejaVuSans-Bold-74" transform="translate(240.820312 0)"/>
    <use xlink:href="#DejaVuSans-Bold-73" transform="translate(288.623047 0)"/>
    <use xlink:href="#DejaVuSans-Bold-74" transform="translate(348.144531 0)"/>
    <use xlink:href="#DejaVuSans-Bold-72" transform="translate(395.947266 0)"/>
    <use xlink:href="#DejaVuSans-Bold-6f" transform="translate(445.263672 0)"/>
    <use xlink:href="#DejaVuSans-Bold-6d" transform="translate(513.964844 0)"/>
    <use xlink:href="#DejaVuSans-Bold-32" transform="translate(618.164062 0)"/>
    <use xlink:href="#DejaVuSans-Bold-30" transform="translate(687.744141 0)"/>
    <use xlink:href="#DejaVuSans-Bold-30" transform="translate(757.324219 0)"/>
    <use xlink:href="#DejaVuSans-Bold-30" transform="translate(826.904297 0)"/>
   </g>
  </g>
 </g>
 <defs>
  <clipPath id="p267931bef9">
   <rect x="64.3925" y="43.2" width="390.6" height="277.2"/>
  </clipPath>
 </defs>
</svg>
