<?xml version="1.0" encoding="utf-8" standalone="no"?>
<!DOCTYPE svg PUBLIC "-//W3C//DTD SVG 1.1//EN"
  "http://www.w3.org/Graphics/SVG/1.1/DTD/svg11.dtd">
<svg xmlns:xlink="http://www.w3.org/1999/xlink" width="620.719625pt" height="683.737812pt" viewBox="0 0 620.719625 683.737812" xmlns="http://www.w3.org/2000/svg" version="1.1">
 <metadata>
  <rdf:RDF xmlns:dc="http://purl.org/dc/elements/1.1/" xmlns:cc="http://creativecommons.org/ns#" xmlns:rdf="http://www.w3.org/1999/02/22-rdf-syntax-ns#">
   <cc:Work>
    <dc:type rdf:resource="http://purl.org/dc/dcmitype/StillImage"/>
    <dc:date>2025-09-10T11:20:02.370722</dc:date>
    <dc:format>image/svg+xml</dc:format>
    <dc:creator>
     <cc:Agent>
      <dc:title>Matplotlib v3.10.6, https://matplotlib.org/</dc:title>
     </cc:Agent>
    </dc:creator>
   </cc:Work>
  </rdf:RDF>
 </metadata>
 <defs>
  <style type="text/css">*{stroke-linejoin: round; stroke-linecap: butt}</style>
 </defs>
 <g id="figure_1">
  <g id="patch_1">
   <path d="M 0 683.737812 
L 620.719625 683.737812 
L 620.719625 0 
L 0 0 
z
" style="fill: #ffffff"/>
  </g>
  <g id="axes_1">
   <g id="patch_2">
    <path d="M 54.84875 320.243478 
L 445.44875 320.243478 
L 445.44875 79.2 
L 54.84875 79.2 
z
" style="fill: #ffffff"/>
   </g>
   <g id="matplotlib.axis_1">
    <g id="xtick_1">
     <g id="line2d_1">
      <defs>
       <path id="md6d185f656" d="M 0 0 
L 0 3.5 
" style="stroke: #000000; stroke-width: 0.8"/>
      </defs>
      <g>
       <use xlink:href="#md6d185f656" x="72.603295" y="320.243478" style="stroke: #000000; stroke-width: 0.8"/>
      </g>
     </g>
     <g id="text_1">
      <!-- 0 -->
      <g transform="translate(67.83142 338.641135) scale(0.15 -0.15)">
       <defs>
        <path id="DejaVuSans-30" d="M 2034 4250 
Q 1547 4250 1301 3770 
Q 1056 3291 1056 2328 
Q 1056 1369 1301 889 
Q 1547 409 2034 409 
Q 2525 409 2770 889 
Q 3016 1369 3016 2328 
Q 3016 3291 2770 3770 
Q 2525 4250 2034 4250 
z
M 2034 4750 
Q 2819 4750 3233 4129 
Q 3647 3509 3647 2328 
Q 3647 1150 3233 529 
Q 2819 -91 2034 -91 
Q 1250 -91 836 529 
Q 422 1150 422 2328 
Q 422 3509 836 4129 
Q 1250 4750 2034 4750 
z
" transform="scale(0.015625)"/>
       </defs>
       <use xlink:href="#DejaVuSans-30"/>
      </g>
     </g>
    </g>
    <g id="xtick_2">
     <g id="line2d_2">
      <g>
       <use xlink:href="#md6d185f656" x="131.785114" y="320.243478" style="stroke: #000000; stroke-width: 0.8"/>
      </g>
     </g>
     <g id="text_2">
      <!-- 25 -->
      <g transform="translate(122.241364 338.641135) scale(0.15 -0.15)">
       <defs>
        <path id="DejaVuSans-32" d="M 1228 531 
L 3431 531 
L 3431 0 
L 469 0 
L 469 531 
Q 828 903 1448 1529 
Q 2069 2156 2228 2338 
Q 2531 2678 2651 2914 
Q 2772 3150 2772 3378 
Q 2772 3750 2511 3984 
Q 2250 4219 1831 4219 
Q 1534 4219 1204 4116 
Q 875 4013 500 3803 
L 500 4441 
Q 881 4594 1212 4672 
Q 1544 4750 1819 4750 
Q 2544 4750 2975 4387 
Q 3406 4025 3406 3419 
Q 3406 3131 3298 2873 
Q 3191 2616 2906 2266 
Q 2828 2175 2409 1742 
Q 1991 1309 1228 531 
z
" transform="scale(0.015625)"/>
        <path id="DejaVuSans-35" d="M 691 4666 
L 3169 4666 
L 3169 4134 
L 1269 4134 
L 1269 2991 
Q 1406 3038 1543 3061 
Q 1681 3084 1819 3084 
Q 2600 3084 3056 2656 
Q 3513 2228 3513 1497 
Q 3513 744 3044 326 
Q 2575 -91 1722 -91 
Q 1428 -91 1123 -41 
Q 819 9 494 109 
L 494 744 
Q 775 591 1075 516 
Q 1375 441 1709 441 
Q 2250 441 2565 725 
Q 2881 1009 2881 1497 
Q 2881 1984 2565 2268 
Q 2250 2553 1709 2553 
Q 1456 2553 1204 2497 
Q 953 2441 691 2322 
L 691 4666 
z
" transform="scale(0.015625)"/>
       </defs>
       <use xlink:href="#DejaVuSans-32"/>
       <use xlink:href="#DejaVuSans-35" transform="translate(63.623047 0)"/>
      </g>
     </g>
    </g>
    <g id="xtick_3">
     <g id="line2d_3">
      <g>
       <use xlink:href="#md6d185f656" x="190.966932" y="320.243478" style="stroke: #000000; stroke-width: 0.8"/>
      </g>
     </g>
     <g id="text_3">
      <!-- 50 -->
      <g transform="translate(181.423182 338.641135) scale(0.15 -0.15)">
       <use xlink:href="#DejaVuSans-35"/>
       <use xlink:href="#DejaVuSans-30" transform="translate(63.623047 0)"/>
      </g>
     </g>
    </g>
    <g id="xtick_4">
     <g id="line2d_4">
      <g>
       <use xlink:href="#md6d185f656" x="250.14875" y="320.243478" style="stroke: #000000; stroke-width: 0.8"/>
      </g>
     </g>
     <g id="text_4">
      <!-- 75 -->
      <g transform="translate(240.605 338.641135) scale(0.15 -0.15)">
       <defs>
        <path id="DejaVuSans-37" d="M 525 4666 
L 3525 4666 
L 3525 4397 
L 1831 0 
L 1172 0 
L 2766 4134 
L 525 4134 
L 525 4666 
z
" transform="scale(0.015625)"/>
       </defs>
       <use xlink:href="#DejaVuSans-37"/>
       <use xlink:href="#DejaVuSans-35" transform="translate(63.623047 0)"/>
      </g>
     </g>
    </g>
    <g id="xtick_5">
     <g id="line2d_5">
      <g>
       <use xlink:href="#md6d185f656" x="309.330568" y="320.243478" style="stroke: #000000; stroke-width: 0.8"/>
      </g>
     </g>
     <g id="text_5">
      <!-- 100 -->
      <g transform="translate(295.014943 338.641135) scale(0.15 -0.15)">
       <defs>
        <path id="DejaVuSans-31" d="M 794 531 
L 1825 531 
L 1825 4091 
L 703 3866 
L 703 4441 
L 1819 4666 
L 2450 4666 
L 2450 531 
L 3481 531 
L 3481 0 
L 794 0 
L 794 531 
z
" transform="scale(0.015625)"/>
       </defs>
       <use xlink:href="#DejaVuSans-31"/>
       <use xlink:href="#DejaVuSans-30" transform="translate(63.623047 0)"/>
       <use xlink:href="#DejaVuSans-30" transform="translate(127.246094 0)"/>
      </g>
     </g>
    </g>
    <g id="xtick_6">
     <g id="line2d_6">
      <g>
       <use xlink:href="#md6d185f656" x="368.512386" y="320.243478" style="stroke: #000000; stroke-width: 0.8"/>
      </g>
     </g>
     <g id="text_6">
      <!-- 125 -->
      <g transform="translate(354.196761 338.641135) scale(0.15 -0.15)">
       <use xlink:href="#DejaVuSans-31"/>
       <use xlink:href="#DejaVuSans-32" transform="translate(63.623047 0)"/>
       <use xlink:href="#DejaVuSans-35" transform="translate(127.246094 0)"/>
      </g>
     </g>
    </g>
    <g id="xtick_7">
     <g id="line2d_7">
      <g>
       <use xlink:href="#md6d185f656" x="427.694205" y="320.243478" style="stroke: #000000; stroke-width: 0.8"/>
      </g>
     </g>
     <g id="text_7">
      <!-- 150 -->
      <g transform="translate(413.37858 338.641135) scale(0.15 -0.15)">
       <use xlink:href="#DejaVuSans-31"/>
       <use xlink:href="#DejaVuSans-35" transform="translate(63.623047 0)"/>
       <use xlink:href="#DejaVuSans-30" transform="translate(127.246094 0)"/>
      </g>
     </g>
    </g>
    <g id="text_8">
     <!-- time [hr] -->
     <g transform="translate(205.074219 359.437853) scale(0.18 -0.18)">
      <defs>
       <path id="DejaVuSans-Bold-74" d="M 1759 4494 
L 1759 3500 
L 2913 3500 
L 2913 2700 
L 1759 2700 
L 1759 1216 
Q 1759 972 1856 886 
Q 1953 800 2241 800 
L 2816 800 
L 2816 0 
L 1856 0 
Q 1194 0 917 276 
Q 641 553 641 1216 
L 641 2700 
L 84 2700 
L 84 3500 
L 641 3500 
L 641 4494 
L 1759 4494 
z
" transform="scale(0.015625)"/>
       <path id="DejaVuSans-Bold-69" d="M 538 3500 
L 1656 3500 
L 1656 0 
L 538 0 
L 538 3500 
z
M 538 4863 
L 1656 4863 
L 1656 3950 
L 538 3950 
L 538 4863 
z
" transform="scale(0.015625)"/>
       <path id="DejaVuSans-Bold-6d" d="M 3781 2919 
Q 3994 3244 4286 3414 
Q 4578 3584 4928 3584 
Q 5531 3584 5847 3212 
Q 6163 2841 6163 2131 
L 6163 0 
L 5038 0 
L 5038 1825 
Q 5041 1866 5042 1909 
Q 5044 1953 5044 2034 
Q 5044 2406 4934 2573 
Q 4825 2741 4581 2741 
Q 4263 2741 4089 2478 
Q 3916 2216 3909 1719 
L 3909 0 
L 2784 0 
L 2784 1825 
Q 2784 2406 2684 2573 
Q 2584 2741 2328 2741 
Q 2006 2741 1831 2477 
Q 1656 2213 1656 1722 
L 1656 0 
L 531 0 
L 531 3500 
L 1656 3500 
L 1656 2988 
Q 1863 3284 2130 3434 
Q 2397 3584 2719 3584 
Q 3081 3584 3359 3409 
Q 3638 3234 3781 2919 
z
" transform="scale(0.015625)"/>
       <path id="DejaVuSans-Bold-65" d="M 4031 1759 
L 4031 1441 
L 1416 1441 
Q 1456 1047 1700 850 
Q 1944 653 2381 653 
Q 2734 653 3104 758 
Q 3475 863 3866 1075 
L 3866 213 
Q 3469 63 3072 -14 
Q 2675 -91 2278 -91 
Q 1328 -91 801 392 
Q 275 875 275 1747 
Q 275 2603 792 3093 
Q 1309 3584 2216 3584 
Q 3041 3584 3536 3087 
Q 4031 2591 4031 1759 
z
M 2881 2131 
Q 2881 2450 2695 2645 
Q 2509 2841 2209 2841 
Q 1884 2841 1681 2658 
Q 1478 2475 1428 2131 
L 2881 2131 
z
" transform="scale(0.015625)"/>
       <path id="DejaVuSans-Bold-20" transform="scale(0.015625)"/>
       <path id="DejaVuSans-Bold-5b" d="M 550 4863 
L 2491 4863 
L 2491 4159 
L 1613 4159 
L 1613 -141 
L 2491 -141 
L 2491 -844 
L 550 -844 
L 550 4863 
z
" transform="scale(0.015625)"/>
       <path id="DejaVuSans-Bold-68" d="M 4056 2131 
L 4056 0 
L 2931 0 
L 2931 347 
L 2931 1625 
Q 2931 2084 2911 2256 
Q 2891 2428 2841 2509 
Q 2775 2619 2662 2680 
Q 2550 2741 2406 2741 
Q 2056 2741 1856 2470 
Q 1656 2200 1656 1722 
L 1656 0 
L 538 0 
L 538 4863 
L 1656 4863 
L 1656 2988 
Q 1909 3294 2193 3439 
Q 2478 3584 2822 3584 
Q 3428 3584 3742 3212 
Q 4056 2841 4056 2131 
z
" transform="scale(0.015625)"/>
       <path id="DejaVuSans-Bold-72" d="M 3138 2547 
Q 2991 2616 2845 2648 
Q 2700 2681 2553 2681 
Q 2122 2681 1889 2404 
Q 1656 2128 1656 1613 
L 1656 0 
L 538 0 
L 538 3500 
L 1656 3500 
L 1656 2925 
Q 1872 3269 2151 3426 
Q 2431 3584 2822 3584 
Q 2878 3584 2943 3579 
Q 3009 3575 3134 3559 
L 3138 2547 
z
" transform="scale(0.015625)"/>
       <path id="DejaVuSans-Bold-5d" d="M 2375 -844 
L 434 -844 
L 434 -141 
L 1313 -141 
L 1313 4159 
L 434 4159 
L 434 4863 
L 2375 4863 
L 2375 -844 
z
" transform="scale(0.015625)"/>
      </defs>
      <use xlink:href="#DejaVuSans-Bold-74"/>
      <use xlink:href="#DejaVuSans-Bold-69" transform="translate(47.802734 0)"/>
      <use xlink:href="#DejaVuSans-Bold-6d" transform="translate(82.080078 0)"/>
      <use xlink:href="#DejaVuSans-Bold-65" transform="translate(186.279297 0)"/>
      <use xlink:href="#DejaVuSans-Bold-20" transform="translate(254.101562 0)"/>
      <use xlink:href="#DejaVuSans-Bold-5b" transform="translate(288.916016 0)"/>
      <use xlink:href="#DejaVuSans-Bold-68" transform="translate(334.619141 0)"/>
      <use xlink:href="#DejaVuSans-Bold-72" transform="translate(405.810547 0)"/>
      <use xlink:href="#DejaVuSans-Bold-5d" transform="translate(455.126953 0)"/>
     </g>
    </g>
   </g>
   <g id="matplotlib.axis_2">
    <g id="ytick_1">
     <g id="line2d_8">
      <defs>
       <path id="mc421e55f14" d="M 0 0 
L -3.5 0 
" style="stroke: #000000; stroke-width: 0.8"/>
      </defs>
      <g>
       <use xlink:href="#mc421e55f14" x="54.84875" y="309.286957" style="stroke: #000000; stroke-width: 0.8"/>
      </g>
     </g>
     <g id="text_9">
      <!-- 0 -->
      <g transform="translate(38.305 314.985785) scale(0.15 -0.15)">
       <use xlink:href="#DejaVuSans-30"/>
      </g>
     </g>
    </g>
    <g id="ytick_2">
     <g id="line2d_9">
      <g>
       <use xlink:href="#mc421e55f14" x="54.84875" y="266.751384" style="stroke: #000000; stroke-width: 0.8"/>
      </g>
     </g>
     <g id="text_10">
      <!-- 5 -->
      <g transform="translate(38.305 272.450212) scale(0.15 -0.15)">
       <use xlink:href="#DejaVuSans-35"/>
      </g>
     </g>
    </g>
    <g id="ytick_3">
     <g id="line2d_10">
      <g>
       <use xlink:href="#mc421e55f14" x="54.84875" y="224.215812" style="stroke: #000000; stroke-width: 0.8"/>
      </g>
     </g>
     <g id="text_11">
      <!-- 10 -->
      <g transform="translate(28.76125 229.91464) scale(0.15 -0.15)">
       <use xlink:href="#DejaVuSans-31"/>
       <use xlink:href="#DejaVuSans-30" transform="translate(63.623047 0)"/>
      </g>
     </g>
    </g>
    <g id="ytick_4">
     <g id="line2d_11">
      <g>
       <use xlink:href="#mc421e55f14" x="54.84875" y="181.680239" style="stroke: #000000; stroke-width: 0.8"/>
      </g>
     </g>
     <g id="text_12">
      <!-- 15 -->
      <g transform="translate(28.76125 187.379067) scale(0.15 -0.15)">
       <use xlink:href="#DejaVuSans-31"/>
       <use xlink:href="#DejaVuSans-35" transform="translate(63.623047 0)"/>
      </g>
     </g>
    </g>
    <g id="ytick_5">
     <g id="line2d_12">
      <g>
       <use xlink:href="#mc421e55f14" x="54.84875" y="139.144667" style="stroke: #000000; stroke-width: 0.8"/>
      </g>
     </g>
     <g id="text_13">
      <!-- 20 -->
      <g transform="translate(28.76125 144.843495) scale(0.15 -0.15)">
       <use xlink:href="#DejaVuSans-32"/>
       <use xlink:href="#DejaVuSans-30" transform="translate(63.623047 0)"/>
      </g>
     </g>
    </g>
    <g id="ytick_6">
     <g id="line2d_13">
      <g>
       <use xlink:href="#mc421e55f14" x="54.84875" y="96.609094" style="stroke: #000000; stroke-width: 0.8"/>
      </g>
     </g>
     <g id="text_14">
      <!-- 25 -->
      <g transform="translate(28.76125 102.307922) scale(0.15 -0.15)">
       <use xlink:href="#DejaVuSans-32"/>
       <use xlink:href="#DejaVuSans-35" transform="translate(63.623047 0)"/>
      </g>
     </g>
    </g>
    <g id="text_15">
     <!-- rapamycin [µM] -->
     <g transform="translate(20.877188 279.759864) rotate(-90) scale(0.18 -0.18)">
      <defs>
       <path id="DejaVuSans-Bold-61" d="M 2106 1575 
Q 1756 1575 1579 1456 
Q 1403 1338 1403 1106 
Q 1403 894 1545 773 
Q 1688 653 1941 653 
Q 2256 653 2472 879 
Q 2688 1106 2688 1447 
L 2688 1575 
L 2106 1575 
z
M 3816 1997 
L 3816 0 
L 2688 0 
L 2688 519 
Q 2463 200 2181 54 
Q 1900 -91 1497 -91 
Q 953 -91 614 226 
Q 275 544 275 1050 
Q 275 1666 698 1953 
Q 1122 2241 2028 2241 
L 2688 2241 
L 2688 2328 
Q 2688 2594 2478 2717 
Q 2269 2841 1825 2841 
Q 1466 2841 1156 2769 
Q 847 2697 581 2553 
L 581 3406 
Q 941 3494 1303 3539 
Q 1666 3584 2028 3584 
Q 2975 3584 3395 3211 
Q 3816 2838 3816 1997 
z
" transform="scale(0.015625)"/>
       <path id="DejaVuSans-Bold-70" d="M 1656 506 
L 1656 -1331 
L 538 -1331 
L 538 3500 
L 1656 3500 
L 1656 2988 
Q 1888 3294 2169 3439 
Q 2450 3584 2816 3584 
Q 3463 3584 3878 3070 
Q 4294 2556 4294 1747 
Q 4294 938 3878 423 
Q 3463 -91 2816 -91 
Q 2450 -91 2169 54 
Q 1888 200 1656 506 
z
M 2400 2772 
Q 2041 2772 1848 2508 
Q 1656 2244 1656 1747 
Q 1656 1250 1848 986 
Q 2041 722 2400 722 
Q 2759 722 2948 984 
Q 3138 1247 3138 1747 
Q 3138 2247 2948 2509 
Q 2759 2772 2400 2772 
z
" transform="scale(0.015625)"/>
       <path id="DejaVuSans-Bold-79" d="M 78 3500 
L 1197 3500 
L 2138 1125 
L 2938 3500 
L 4056 3500 
L 2584 -331 
Q 2363 -916 2067 -1148 
Q 1772 -1381 1288 -1381 
L 641 -1381 
L 641 -647 
L 991 -647 
Q 1275 -647 1404 -556 
Q 1534 -466 1606 -231 
L 1638 -134 
L 78 3500 
z
" transform="scale(0.015625)"/>
       <path id="DejaVuSans-Bold-63" d="M 3366 3391 
L 3366 2478 
Q 3138 2634 2908 2709 
Q 2678 2784 2431 2784 
Q 1963 2784 1702 2511 
Q 1441 2238 1441 1747 
Q 1441 1256 1702 982 
Q 1963 709 2431 709 
Q 2694 709 2930 787 
Q 3166 866 3366 1019 
L 3366 103 
Q 3103 6 2833 -42 
Q 2563 -91 2291 -91 
Q 1344 -91 809 395 
Q 275 881 275 1747 
Q 275 2613 809 3098 
Q 1344 3584 2291 3584 
Q 2566 3584 2833 3536 
Q 3100 3488 3366 3391 
z
" transform="scale(0.015625)"/>
       <path id="DejaVuSans-Bold-6e" d="M 4056 2131 
L 4056 0 
L 2931 0 
L 2931 347 
L 2931 1631 
Q 2931 2084 2911 2256 
Q 2891 2428 2841 2509 
Q 2775 2619 2662 2680 
Q 2550 2741 2406 2741 
Q 2056 2741 1856 2470 
Q 1656 2200 1656 1722 
L 1656 0 
L 538 0 
L 538 3500 
L 1656 3500 
L 1656 2988 
Q 1909 3294 2193 3439 
Q 2478 3584 2822 3584 
Q 3428 3584 3742 3212 
Q 4056 2841 4056 2131 
z
" transform="scale(0.015625)"/>
       <path id="DejaVuSans-Bold-b5" d="M 544 -1338 
L 544 3500 
L 1672 3500 
L 1672 1466 
Q 1672 1103 1828 926 
Q 1984 750 2303 750 
Q 2625 750 2781 926 
Q 2938 1103 2938 1466 
L 2938 3500 
L 4063 3500 
L 4063 1159 
Q 4063 938 4114 850 
Q 4166 763 4288 763 
Q 4344 763 4395 778 
Q 4447 794 4506 831 
L 4506 50 
Q 4341 -22 4195 -56 
Q 4050 -91 3909 -91 
Q 3631 -91 3454 26 
Q 3278 144 3169 403 
Q 3022 156 2811 32 
Q 2600 -91 2322 -91 
Q 2091 -91 1928 -17 
Q 1766 56 1672 206 
L 1672 -1338 
L 544 -1338 
z
" transform="scale(0.015625)"/>
       <path id="DejaVuSans-Bold-4d" d="M 588 4666 
L 2119 4666 
L 3181 2169 
L 4250 4666 
L 5778 4666 
L 5778 0 
L 4641 0 
L 4641 3413 
L 3566 897 
L 2803 897 
L 1728 3413 
L 1728 0 
L 588 0 
L 588 4666 
z
" transform="scale(0.015625)"/>
      </defs>
      <use xlink:href="#DejaVuSans-Bold-72"/>
      <use xlink:href="#DejaVuSans-Bold-61" transform="translate(49.316406 0)"/>
      <use xlink:href="#DejaVuSans-Bold-70" transform="translate(116.796875 0)"/>
      <use xlink:href="#DejaVuSans-Bold-61" transform="translate(188.378906 0)"/>
      <use xlink:href="#DejaVuSans-Bold-6d" transform="translate(255.859375 0)"/>
      <use xlink:href="#DejaVuSans-Bold-79" transform="translate(360.058594 0)"/>
      <use xlink:href="#DejaVuSans-Bold-63" transform="translate(425.244141 0)"/>
      <use xlink:href="#DejaVuSans-Bold-69" transform="translate(484.521484 0)"/>
      <use xlink:href="#DejaVuSans-Bold-6e" transform="translate(518.798828 0)"/>
      <use xlink:href="#DejaVuSans-Bold-20" transform="translate(589.990234 0)"/>
      <use xlink:href="#DejaVuSans-Bold-5b" transform="translate(624.804688 0)"/>
      <use xlink:href="#DejaVuSans-Bold-b5" transform="translate(670.507812 0)"/>
      <use xlink:href="#DejaVuSans-Bold-4d" transform="translate(744.091797 0)"/>
      <use xlink:href="#DejaVuSans-Bold-5d" transform="translate(843.603516 0)"/>
     </g>
    </g>
   </g>
   <g id="LineCollection_1">
    <path d="M 73.384495 309.057664 
L 73.384495 308.984824 
" clip-path="url(#pc30dc05992)" style="fill: none; stroke: #000000"/>
    <path d="M 74.189368 308.745339 
L 74.189368 308.649497 
" clip-path="url(#pc30dc05992)" style="fill: none; stroke: #000000"/>
    <path d="M 74.970568 308.762703 
L 74.970568 308.689863 
" clip-path="url(#pc30dc05992)" style="fill: none; stroke: #000000"/>
    <path d="M 77.337841 308.924066 
L 77.337841 308.885717 
" clip-path="url(#pc30dc05992)" style="fill: none; stroke: #000000"/>
    <path d="M 79.705114 309.035586 
L 79.705114 308.997249 
" clip-path="url(#pc30dc05992)" style="fill: none; stroke: #000000"/>
    <path d="M 82.072386 309.089601 
L 82.072386 309.055098 
" clip-path="url(#pc30dc05992)" style="fill: none; stroke: #000000"/>
    <path d="M 84.439659 309.130197 
L 84.439659 309.103362 
" clip-path="url(#pc30dc05992)" style="fill: none; stroke: #000000"/>
    <path d="M 91.541477 309.192572 
L 91.541477 309.173392 
" clip-path="url(#pc30dc05992)" style="fill: none; stroke: #000000"/>
    <path d="M 101.010568 309.221834 
L 101.010568 309.20785 
" clip-path="url(#pc30dc05992)" style="fill: none; stroke: #000000"/>
    <path d="M 115.214205 309.239 
L 115.214205 309.229531 
" clip-path="url(#pc30dc05992)" style="fill: none; stroke: #000000"/>
    <path d="M 129.417841 309.244324 
L 129.417841 309.235169 
" clip-path="url(#pc30dc05992)" style="fill: none; stroke: #000000"/>
    <path d="M 186.232386 309.257702 
L 186.232386 309.251419 
" clip-path="url(#pc30dc05992)" style="fill: none; stroke: #000000"/>
    <path d="M 243.046932 309.2649 
L 243.046932 309.260545 
" clip-path="url(#pc30dc05992)" style="fill: none; stroke: #000000"/>
    <path d="M 299.861477 309.26925 
L 299.861477 309.265754 
" clip-path="url(#pc30dc05992)" style="fill: none; stroke: #000000"/>
    <path d="M 356.676023 309.273072 
L 356.676023 309.270091 
" clip-path="url(#pc30dc05992)" style="fill: none; stroke: #000000"/>
    <path d="M 413.490568 309.275545 
L 413.490568 309.273095 
" clip-path="url(#pc30dc05992)" style="fill: none; stroke: #000000"/>
   </g>
   <g id="LineCollection_2">
    <path d="M 73.384495 309.245513 
L 73.384495 309.214844 
" clip-path="url(#pc30dc05992)" style="fill: none; stroke: #d62728"/>
    <path d="M 74.189368 309.176626 
L 74.189368 309.145944 
" clip-path="url(#pc30dc05992)" style="fill: none; stroke: #d62728"/>
    <path d="M 74.970568 309.119233 
L 74.970568 309.08473 
" clip-path="url(#pc30dc05992)" style="fill: none; stroke: #d62728"/>
    <path d="M 77.337841 308.970064 
L 77.337841 308.920226 
" clip-path="url(#pc30dc05992)" style="fill: none; stroke: #d62728"/>
    <path d="M 79.705114 308.932077 
L 79.705114 308.878406 
" clip-path="url(#pc30dc05992)" style="fill: none; stroke: #d62728"/>
    <path d="M 82.072386 308.936254 
L 82.072386 308.874915 
" clip-path="url(#pc30dc05992)" style="fill: none; stroke: #d62728"/>
    <path d="M 84.439659 308.974934 
L 84.439659 308.921263 
" clip-path="url(#pc30dc05992)" style="fill: none; stroke: #d62728"/>
    <path d="M 91.541477 309.115899 
L 91.541477 309.085217 
" clip-path="url(#pc30dc05992)" style="fill: none; stroke: #d62728"/>
    <path d="M 101.010568 309.169665 
L 101.010568 309.156422 
" clip-path="url(#pc30dc05992)" style="fill: none; stroke: #d62728"/>
    <path d="M 115.214205 309.209566 
L 115.214205 309.199541 
" clip-path="url(#pc30dc05992)" style="fill: none; stroke: #d62728"/>
    <path d="M 129.417841 309.221834 
L 129.417841 309.211205 
" clip-path="url(#pc30dc05992)" style="fill: none; stroke: #d62728"/>
    <path d="M 186.232386 309.244324 
L 186.232386 309.237365 
" clip-path="url(#pc30dc05992)" style="fill: none; stroke: #d62728"/>
    <path d="M 243.046932 309.255314 
L 243.046932 309.24961 
" clip-path="url(#pc30dc05992)" style="fill: none; stroke: #d62728"/>
    <path d="M 299.861477 309.262339 
L 299.861477 309.258321 
" clip-path="url(#pc30dc05992)" style="fill: none; stroke: #d62728"/>
    <path d="M 356.676023 309.267194 
L 356.676023 309.263968 
" clip-path="url(#pc30dc05992)" style="fill: none; stroke: #d62728"/>
    <path d="M 413.490568 309.270841 
L 413.490568 309.26821 
" clip-path="url(#pc30dc05992)" style="fill: none; stroke: #d62728"/>
   </g>
   <g id="line2d_14">
    <path d="M 72.603295 309.286957 
L 72.780841 286.03019 
L 73.313477 130.902 
L 73.668568 92.464577 
L 73.846114 90.156522 
L 74.023659 95.209544 
L 74.37875 117.923634 
L 75.621568 209.14478 
L 76.154205 233.774312 
L 76.686841 250.417137 
L 77.219477 261.358269 
L 77.752114 268.453779 
L 78.28475 273.025867 
L 78.817386 275.964961 
L 79.350023 277.854801 
L 79.882659 279.072944 
L 80.415295 279.86191 
L 81.125477 280.506038 
L 82.013205 280.945887 
L 83.256023 281.246153 
L 85.386568 281.476602 
L 93.376114 281.977359 
L 135.276841 284.366863 
L 179.308114 286.654132 
L 225.469932 288.828114 
L 274.117386 290.894573 
L 325.428023 292.849309 
L 379.756932 294.693876 
L 427.694205 296.14931 
L 427.694205 296.14931 
" clip-path="url(#pc30dc05992)" style="fill: none; stroke: #000000; stroke-width: 2; stroke-linecap: square"/>
   </g>
   <g id="line2d_15">
    <path d="M 73.384495 309.021244 
L 74.189368 308.697418 
L 74.970568 308.726283 
L 77.337841 308.904892 
L 79.705114 309.016418 
L 82.072386 309.072349 
L 84.439659 309.11678 
L 91.541477 309.182982 
L 101.010568 309.214842 
L 115.214205 309.234266 
L 129.417841 309.239746 
L 186.232386 309.25456 
L 243.046932 309.262722 
L 299.861477 309.267502 
L 356.676023 309.271582 
L 413.490568 309.27432 
" clip-path="url(#pc30dc05992)" style="fill: none; stroke-dasharray: 3.7,1.6; stroke-dashoffset: 0; stroke: #000000"/>
    <defs>
     <path id="m28420704b4" d="M -3 3 
L 3 3 
L 3 -3 
L -3 -3 
z
" style="stroke: #000000; stroke-linejoin: miter"/>
    </defs>
    <g clip-path="url(#pc30dc05992)">
     <use xlink:href="#m28420704b4" x="73.384495" y="309.021244" style="stroke: #000000; stroke-linejoin: miter"/>
     <use xlink:href="#m28420704b4" x="74.189368" y="308.697418" style="stroke: #000000; stroke-linejoin: miter"/>
     <use xlink:href="#m28420704b4" x="74.970568" y="308.726283" style="stroke: #000000; stroke-linejoin: miter"/>
     <use xlink:href="#m28420704b4" x="77.337841" y="308.904892" style="stroke: #000000; stroke-linejoin: miter"/>
     <use xlink:href="#m28420704b4" x="79.705114" y="309.016418" style="stroke: #000000; stroke-linejoin: miter"/>
     <use xlink:href="#m28420704b4" x="82.072386" y="309.072349" style="stroke: #000000; stroke-linejoin: miter"/>
     <use xlink:href="#m28420704b4" x="84.439659" y="309.11678" style="stroke: #000000; stroke-linejoin: miter"/>
     <use xlink:href="#m28420704b4" x="91.541477" y="309.182982" style="stroke: #000000; stroke-linejoin: miter"/>
     <use xlink:href="#m28420704b4" x="101.010568" y="309.214842" style="stroke: #000000; stroke-linejoin: miter"/>
     <use xlink:href="#m28420704b4" x="115.214205" y="309.234266" style="stroke: #000000; stroke-linejoin: miter"/>
     <use xlink:href="#m28420704b4" x="129.417841" y="309.239746" style="stroke: #000000; stroke-linejoin: miter"/>
     <use xlink:href="#m28420704b4" x="186.232386" y="309.25456" style="stroke: #000000; stroke-linejoin: miter"/>
     <use xlink:href="#m28420704b4" x="243.046932" y="309.262722" style="stroke: #000000; stroke-linejoin: miter"/>
     <use xlink:href="#m28420704b4" x="299.861477" y="309.267502" style="stroke: #000000; stroke-linejoin: miter"/>
     <use xlink:href="#m28420704b4" x="356.676023" y="309.271582" style="stroke: #000000; stroke-linejoin: miter"/>
     <use xlink:href="#m28420704b4" x="413.490568" y="309.27432" style="stroke: #000000; stroke-linejoin: miter"/>
    </g>
   </g>
   <g id="line2d_16">
    <path d="M 72.603295 309.286957 
L 72.780841 286.03019 
L 73.313477 130.902 
L 73.668568 92.464577 
L 73.846114 90.156522 
L 74.023659 95.209544 
L 74.37875 117.923634 
L 75.621568 209.14478 
L 76.154205 233.774312 
L 76.686841 250.417137 
L 77.219477 261.358269 
L 77.752114 268.453779 
L 78.28475 273.025867 
L 78.817386 275.964961 
L 79.350023 277.854801 
L 79.882659 279.072944 
L 80.415295 279.86191 
L 81.125477 280.506038 
L 82.013205 280.945887 
L 83.256023 281.246153 
L 85.386568 281.476602 
L 93.376114 281.977359 
L 135.276841 284.366863 
L 179.308114 286.654132 
L 225.469932 288.828114 
L 274.117386 290.894573 
L 325.428023 292.849309 
L 379.756932 294.693876 
L 427.694205 296.14931 
L 427.694205 296.14931 
" clip-path="url(#pc30dc05992)" style="fill: none; stroke: #d62728; stroke-width: 2; stroke-linecap: square"/>
   </g>
   <g id="line2d_17">
    <path d="M 73.384495 309.230179 
L 74.189368 309.161285 
L 74.970568 309.101982 
L 77.337841 308.945145 
L 79.705114 308.905241 
L 82.072386 308.905585 
L 84.439659 308.948098 
L 91.541477 309.100558 
L 101.010568 309.163044 
L 115.214205 309.204553 
L 129.417841 309.21652 
L 186.232386 309.240845 
L 243.046932 309.252462 
L 299.861477 309.26033 
L 356.676023 309.265581 
L 413.490568 309.269525 
" clip-path="url(#pc30dc05992)" style="fill: none; stroke-dasharray: 3.7,1.6; stroke-dashoffset: 0; stroke: #d62728"/>
    <defs>
     <path id="m8ba70b51b9" d="M -3 3 
L 3 3 
L 3 -3 
L -3 -3 
z
" style="stroke: #000000; stroke-linejoin: miter"/>
    </defs>
    <g clip-path="url(#pc30dc05992)">
     <use xlink:href="#m8ba70b51b9" x="73.384495" y="309.230179" style="fill: #d62728; stroke: #000000; stroke-linejoin: miter"/>
     <use xlink:href="#m8ba70b51b9" x="74.189368" y="309.161285" style="fill: #d62728; stroke: #000000; stroke-linejoin: miter"/>
     <use xlink:href="#m8ba70b51b9" x="74.970568" y="309.101982" style="fill: #d62728; stroke: #000000; stroke-linejoin: miter"/>
     <use xlink:href="#m8ba70b51b9" x="77.337841" y="308.945145" style="fill: #d62728; stroke: #000000; stroke-linejoin: miter"/>
     <use xlink:href="#m8ba70b51b9" x="79.705114" y="308.905241" style="fill: #d62728; stroke: #000000; stroke-linejoin: miter"/>
     <use xlink:href="#m8ba70b51b9" x="82.072386" y="308.905585" style="fill: #d62728; stroke: #000000; stroke-linejoin: miter"/>
     <use xlink:href="#m8ba70b51b9" x="84.439659" y="308.948098" style="fill: #d62728; stroke: #000000; stroke-linejoin: miter"/>
     <use xlink:href="#m8ba70b51b9" x="91.541477" y="309.100558" style="fill: #d62728; stroke: #000000; stroke-linejoin: miter"/>
     <use xlink:href="#m8ba70b51b9" x="101.010568" y="309.163044" style="fill: #d62728; stroke: #000000; stroke-linejoin: miter"/>
     <use xlink:href="#m8ba70b51b9" x="115.214205" y="309.204553" style="fill: #d62728; stroke: #000000; stroke-linejoin: miter"/>
     <use xlink:href="#m8ba70b51b9" x="129.417841" y="309.21652" style="fill: #d62728; stroke: #000000; stroke-linejoin: miter"/>
     <use xlink:href="#m8ba70b51b9" x="186.232386" y="309.240845" style="fill: #d62728; stroke: #000000; stroke-linejoin: miter"/>
     <use xlink:href="#m8ba70b51b9" x="243.046932" y="309.252462" style="fill: #d62728; stroke: #000000; stroke-linejoin: miter"/>
     <use xlink:href="#m8ba70b51b9" x="299.861477" y="309.26033" style="fill: #d62728; stroke: #000000; stroke-linejoin: miter"/>
     <use xlink:href="#m8ba70b51b9" x="356.676023" y="309.265581" style="fill: #d62728; stroke: #000000; stroke-linejoin: miter"/>
     <use xlink:href="#m8ba70b51b9" x="413.490568" y="309.269525" style="fill: #d62728; stroke: #000000; stroke-linejoin: miter"/>
    </g>
   </g>
   <g id="patch_3">
    <path d="M 54.84875 320.243478 
L 54.84875 79.2 
" style="fill: none; stroke: #000000; stroke-width: 0.8; stroke-linejoin: miter; stroke-linecap: square"/>
   </g>
   <g id="patch_4">
    <path d="M 445.44875 320.243478 
L 445.44875 79.2 
" style="fill: none; stroke: #000000; stroke-width: 0.8; stroke-linejoin: miter; stroke-linecap: square"/>
   </g>
   <g id="patch_5">
    <path d="M 54.84875 320.243478 
L 445.44875 320.243478 
" style="fill: none; stroke: #000000; stroke-width: 0.8; stroke-linejoin: miter; stroke-linecap: square"/>
   </g>
   <g id="patch_6">
    <path d="M 54.84875 79.2 
L 445.44875 79.2 
" style="fill: none; stroke: #000000; stroke-width: 0.8; stroke-linejoin: miter; stroke-linecap: square"/>
   </g>
   <g id="legend_1">
    <g id="patch_7">
     <path d="M 468.07275 146.46875 
L 611.519625 146.46875 
Q 613.519625 146.46875 613.519625 144.46875 
L 613.519625 86.2 
Q 613.519625 84.2 611.519625 84.2 
L 468.07275 84.2 
Q 466.07275 84.2 466.07275 86.2 
L 466.07275 144.46875 
Q 466.07275 146.46875 468.07275 146.46875 
z
" style="fill: #ffffff; opacity: 0.8; stroke: #cccccc; stroke-linejoin: miter"/>
    </g>
    <g id="line2d_18">
     <path d="M 470.07275 92.298437 
L 490.07275 92.298437 
" style="fill: none; stroke: #000000; stroke-width: 2; stroke-linecap: square"/>
    </g>
    <g id="line2d_19"/>
    <g id="text_16">
     <!-- RAP15 -->
     <g transform="translate(498.07275 95.798437) scale(0.1 -0.1)">
      <defs>
       <path id="DejaVuSans-52" d="M 2841 2188 
Q 3044 2119 3236 1894 
Q 3428 1669 3622 1275 
L 4263 0 
L 3584 0 
L 2988 1197 
Q 2756 1666 2539 1819 
Q 2322 1972 1947 1972 
L 1259 1972 
L 1259 0 
L 628 0 
L 628 4666 
L 2053 4666 
Q 2853 4666 3247 4331 
Q 3641 3997 3641 3322 
Q 3641 2881 3436 2590 
Q 3231 2300 2841 2188 
z
M 1259 4147 
L 1259 2491 
L 2053 2491 
Q 2509 2491 2742 2702 
Q 2975 2913 2975 3322 
Q 2975 3731 2742 3939 
Q 2509 4147 2053 4147 
L 1259 4147 
z
" transform="scale(0.015625)"/>
       <path id="DejaVuSans-41" d="M 2188 4044 
L 1331 1722 
L 3047 1722 
L 2188 4044 
z
M 1831 4666 
L 2547 4666 
L 4325 0 
L 3669 0 
L 3244 1197 
L 1141 1197 
L 716 0 
L 50 0 
L 1831 4666 
z
" transform="scale(0.015625)"/>
       <path id="DejaVuSans-50" d="M 1259 4147 
L 1259 2394 
L 2053 2394 
Q 2494 2394 2734 2622 
Q 2975 2850 2975 3272 
Q 2975 3691 2734 3919 
Q 2494 4147 2053 4147 
L 1259 4147 
z
M 628 4666 
L 2053 4666 
Q 2838 4666 3239 4311 
Q 3641 3956 3641 3272 
Q 3641 2581 3239 2228 
Q 2838 1875 2053 1875 
L 1259 1875 
L 1259 0 
L 628 0 
L 628 4666 
z
" transform="scale(0.015625)"/>
      </defs>
      <use xlink:href="#DejaVuSans-52"/>
      <use xlink:href="#DejaVuSans-41" transform="translate(65.482422 0)"/>
      <use xlink:href="#DejaVuSans-50" transform="translate(133.890625 0)"/>
      <use xlink:href="#DejaVuSans-31" transform="translate(194.193359 0)"/>
      <use xlink:href="#DejaVuSans-35" transform="translate(257.816406 0)"/>
     </g>
    </g>
    <g id="LineCollection_3">
     <path d="M 480.07275 111.976562 
L 480.07275 101.976562 
" style="fill: none; stroke: #000000"/>
    </g>
    <g id="line2d_20">
     <path d="M 470.07275 106.976562 
L 490.07275 106.976562 
" style="fill: none; stroke-dasharray: 3.7,1.6; stroke-dashoffset: 0; stroke: #000000"/>
    </g>
    <g id="line2d_21">
     <g>
      <use xlink:href="#m28420704b4" x="480.07275" y="106.976562" style="stroke: #000000; stroke-linejoin: miter"/>
     </g>
    </g>
    <g id="text_17">
     <!-- RAP15±SD (n=22) -->
     <g transform="translate(498.07275 110.476562) scale(0.1 -0.1)">
      <defs>
       <path id="DejaVuSans-b1" d="M 2944 4013 
L 2944 2803 
L 4684 2803 
L 4684 2272 
L 2944 2272 
L 2944 1063 
L 2419 1063 
L 2419 2272 
L 678 2272 
L 678 2803 
L 2419 2803 
L 2419 4013 
L 2944 4013 
z
M 678 531 
L 4684 531 
L 4684 0 
L 678 0 
L 678 531 
z
" transform="scale(0.015625)"/>
       <path id="DejaVuSans-53" d="M 3425 4513 
L 3425 3897 
Q 3066 4069 2747 4153 
Q 2428 4238 2131 4238 
Q 1616 4238 1336 4038 
Q 1056 3838 1056 3469 
Q 1056 3159 1242 3001 
Q 1428 2844 1947 2747 
L 2328 2669 
Q 3034 2534 3370 2195 
Q 3706 1856 3706 1288 
Q 3706 609 3251 259 
Q 2797 -91 1919 -91 
Q 1588 -91 1214 -16 
Q 841 59 441 206 
L 441 856 
Q 825 641 1194 531 
Q 1563 422 1919 422 
Q 2459 422 2753 634 
Q 3047 847 3047 1241 
Q 3047 1584 2836 1778 
Q 2625 1972 2144 2069 
L 1759 2144 
Q 1053 2284 737 2584 
Q 422 2884 422 3419 
Q 422 4038 858 4394 
Q 1294 4750 2059 4750 
Q 2388 4750 2728 4690 
Q 3069 4631 3425 4513 
z
" transform="scale(0.015625)"/>
       <path id="DejaVuSans-44" d="M 1259 4147 
L 1259 519 
L 2022 519 
Q 2988 519 3436 956 
Q 3884 1394 3884 2338 
Q 3884 3275 3436 3711 
Q 2988 4147 2022 4147 
L 1259 4147 
z
M 628 4666 
L 1925 4666 
Q 3281 4666 3915 4102 
Q 4550 3538 4550 2338 
Q 4550 1131 3912 565 
Q 3275 0 1925 0 
L 628 0 
L 628 4666 
z
" transform="scale(0.015625)"/>
       <path id="DejaVuSans-20" transform="scale(0.015625)"/>
       <path id="DejaVuSans-28" d="M 1984 4856 
Q 1566 4138 1362 3434 
Q 1159 2731 1159 2009 
Q 1159 1288 1364 580 
Q 1569 -128 1984 -844 
L 1484 -844 
Q 1016 -109 783 600 
Q 550 1309 550 2009 
Q 550 2706 781 3412 
Q 1013 4119 1484 4856 
L 1984 4856 
z
" transform="scale(0.015625)"/>
       <path id="DejaVuSans-6e" d="M 3513 2113 
L 3513 0 
L 2938 0 
L 2938 2094 
Q 2938 2591 2744 2837 
Q 2550 3084 2163 3084 
Q 1697 3084 1428 2787 
Q 1159 2491 1159 1978 
L 1159 0 
L 581 0 
L 581 3500 
L 1159 3500 
L 1159 2956 
Q 1366 3272 1645 3428 
Q 1925 3584 2291 3584 
Q 2894 3584 3203 3211 
Q 3513 2838 3513 2113 
z
" transform="scale(0.015625)"/>
       <path id="DejaVuSans-3d" d="M 678 2906 
L 4684 2906 
L 4684 2381 
L 678 2381 
L 678 2906 
z
M 678 1631 
L 4684 1631 
L 4684 1100 
L 678 1100 
L 678 1631 
z
" transform="scale(0.015625)"/>
       <path id="DejaVuSans-29" d="M 513 4856 
L 1013 4856 
Q 1481 4119 1714 3412 
Q 1947 2706 1947 2009 
Q 1947 1309 1714 600 
Q 1481 -109 1013 -844 
L 513 -844 
Q 928 -128 1133 580 
Q 1338 1288 1338 2009 
Q 1338 2731 1133 3434 
Q 928 4138 513 4856 
z
" transform="scale(0.015625)"/>
      </defs>
      <use xlink:href="#DejaVuSans-52"/>
      <use xlink:href="#DejaVuSans-41" transform="translate(65.482422 0)"/>
      <use xlink:href="#DejaVuSans-50" transform="translate(133.890625 0)"/>
      <use xlink:href="#DejaVuSans-31" transform="translate(194.193359 0)"/>
      <use xlink:href="#DejaVuSans-35" transform="translate(257.816406 0)"/>
      <use xlink:href="#DejaVuSans-b1" transform="translate(321.439453 0)"/>
      <use xlink:href="#DejaVuSans-53" transform="translate(405.228516 0)"/>
      <use xlink:href="#DejaVuSans-44" transform="translate(468.705078 0)"/>
      <use xlink:href="#DejaVuSans-20" transform="translate(545.707031 0)"/>
      <use xlink:href="#DejaVuSans-28" transform="translate(577.494141 0)"/>
      <use xlink:href="#DejaVuSans-6e" transform="translate(616.507812 0)"/>
      <use xlink:href="#DejaVuSans-3d" transform="translate(679.886719 0)"/>
      <use xlink:href="#DejaVuSans-32" transform="translate(763.675781 0)"/>
      <use xlink:href="#DejaVuSans-32" transform="translate(827.298828 0)"/>
      <use xlink:href="#DejaVuSans-29" transform="translate(890.921875 0)"/>
     </g>
    </g>
    <g id="line2d_22">
     <path d="M 470.07275 121.654687 
L 490.07275 121.654687 
" style="fill: none; stroke: #d62728; stroke-width: 2; stroke-linecap: square"/>
    </g>
    <g id="line2d_23"/>
    <g id="text_18">
     <!-- RAP15_FD -->
     <g transform="translate(498.07275 125.154687) scale(0.1 -0.1)">
      <defs>
       <path id="DejaVuSans-5f" d="M 3263 -1063 
L 3263 -1509 
L -63 -1509 
L -63 -1063 
L 3263 -1063 
z
" transform="scale(0.015625)"/>
       <path id="DejaVuSans-46" d="M 628 4666 
L 3309 4666 
L 3309 4134 
L 1259 4134 
L 1259 2759 
L 3109 2759 
L 3109 2228 
L 1259 2228 
L 1259 0 
L 628 0 
L 628 4666 
z
" transform="scale(0.015625)"/>
      </defs>
      <use xlink:href="#DejaVuSans-52"/>
      <use xlink:href="#DejaVuSans-41" transform="translate(65.482422 0)"/>
      <use xlink:href="#DejaVuSans-50" transform="translate(133.890625 0)"/>
      <use xlink:href="#DejaVuSans-31" transform="translate(194.193359 0)"/>
      <use xlink:href="#DejaVuSans-35" transform="translate(257.816406 0)"/>
      <use xlink:href="#DejaVuSans-5f" transform="translate(321.439453 0)"/>
      <use xlink:href="#DejaVuSans-46" transform="translate(371.439453 0)"/>
      <use xlink:href="#DejaVuSans-44" transform="translate(428.958984 0)"/>
     </g>
    </g>
    <g id="LineCollection_4">
     <path d="M 480.07275 141.610937 
L 480.07275 131.610937 
" style="fill: none; stroke: #d62728"/>
    </g>
    <g id="line2d_24">
     <path d="M 470.07275 136.610937 
L 490.07275 136.610937 
" style="fill: none; stroke-dasharray: 3.7,1.6; stroke-dashoffset: 0; stroke: #d62728"/>
    </g>
    <g id="line2d_25">
     <g>
      <use xlink:href="#m8ba70b51b9" x="480.07275" y="136.610937" style="fill: #d62728; stroke: #000000; stroke-linejoin: miter"/>
     </g>
    </g>
    <g id="text_19">
     <!-- RAP15_FD±SD (n=22) -->
     <g transform="translate(498.07275 140.110937) scale(0.1 -0.1)">
      <use xlink:href="#DejaVuSans-52"/>
      <use xlink:href="#DejaVuSans-41" transform="translate(65.482422 0)"/>
      <use xlink:href="#DejaVuSans-50" transform="translate(133.890625 0)"/>
      <use xlink:href="#DejaVuSans-31" transform="translate(194.193359 0)"/>
      <use xlink:href="#DejaVuSans-35" transform="translate(257.816406 0)"/>
      <use xlink:href="#DejaVuSans-5f" transform="translate(321.439453 0)"/>
      <use xlink:href="#DejaVuSans-46" transform="translate(371.439453 0)"/>
      <use xlink:href="#DejaVuSans-44" transform="translate(428.958984 0)"/>
      <use xlink:href="#DejaVuSans-b1" transform="translate(505.960938 0)"/>
      <use xlink:href="#DejaVuSans-53" transform="translate(589.75 0)"/>
      <use xlink:href="#DejaVuSans-44" transform="translate(653.226562 0)"/>
      <use xlink:href="#DejaVuSans-20" transform="translate(730.228516 0)"/>
      <use xlink:href="#DejaVuSans-28" transform="translate(762.015625 0)"/>
      <use xlink:href="#DejaVuSans-6e" transform="translate(801.029297 0)"/>
      <use xlink:href="#DejaVuSans-3d" transform="translate(864.408203 0)"/>
      <use xlink:href="#DejaVuSans-32" transform="translate(948.197266 0)"/>
      <use xlink:href="#DejaVuSans-32" transform="translate(1011.820312 0)"/>
      <use xlink:href="#DejaVuSans-29" transform="translate(1075.443359 0)"/>
     </g>
    </g>
   </g>
  </g>
  <g id="axes_2">
   <g id="patch_8">
    <path d="M 54.84875 633.6 
L 445.44875 633.6 
L 445.44875 392.556522 
L 54.84875 392.556522 
z
" style="fill: #ffffff"/>
   </g>
   <g id="matplotlib.axis_3">
    <g id="xtick_8">
     <g id="line2d_26">
      <g>
       <use xlink:href="#md6d185f656" x="62.820179" y="633.6" style="stroke: #000000; stroke-width: 0.8"/>
      </g>
     </g>
     <g id="text_20">
      <!-- 0 -->
      <g transform="translate(58.048304 651.997656) scale(0.15 -0.15)">
       <use xlink:href="#DejaVuSans-30"/>
      </g>
     </g>
    </g>
    <g id="xtick_9">
     <g id="line2d_27">
      <g>
       <use xlink:href="#md6d185f656" x="142.534464" y="633.6" style="stroke: #000000; stroke-width: 0.8"/>
      </g>
     </g>
     <g id="text_21">
      <!-- 10 -->
      <g transform="translate(132.990714 651.997656) scale(0.15 -0.15)">
       <use xlink:href="#DejaVuSans-31"/>
       <use xlink:href="#DejaVuSans-30" transform="translate(63.623047 0)"/>
      </g>
     </g>
    </g>
    <g id="xtick_10">
     <g id="line2d_28">
      <g>
       <use xlink:href="#md6d185f656" x="222.24875" y="633.6" style="stroke: #000000; stroke-width: 0.8"/>
      </g>
     </g>
     <g id="text_22">
      <!-- 20 -->
      <g transform="translate(212.705 651.997656) scale(0.15 -0.15)">
       <use xlink:href="#DejaVuSans-32"/>
       <use xlink:href="#DejaVuSans-30" transform="translate(63.623047 0)"/>
      </g>
     </g>
    </g>
    <g id="xtick_11">
     <g id="line2d_29">
      <g>
       <use xlink:href="#md6d185f656" x="301.963036" y="633.6" style="stroke: #000000; stroke-width: 0.8"/>
      </g>
     </g>
     <g id="text_23">
      <!-- 30 -->
      <g transform="translate(292.419286 651.997656) scale(0.15 -0.15)">
       <defs>
        <path id="DejaVuSans-33" d="M 2597 2516 
Q 3050 2419 3304 2112 
Q 3559 1806 3559 1356 
Q 3559 666 3084 287 
Q 2609 -91 1734 -91 
Q 1441 -91 1130 -33 
Q 819 25 488 141 
L 488 750 
Q 750 597 1062 519 
Q 1375 441 1716 441 
Q 2309 441 2620 675 
Q 2931 909 2931 1356 
Q 2931 1769 2642 2001 
Q 2353 2234 1838 2234 
L 1294 2234 
L 1294 2753 
L 1863 2753 
Q 2328 2753 2575 2939 
Q 2822 3125 2822 3475 
Q 2822 3834 2567 4026 
Q 2313 4219 1838 4219 
Q 1578 4219 1281 4162 
Q 984 4106 628 3988 
L 628 4550 
Q 988 4650 1302 4700 
Q 1616 4750 1894 4750 
Q 2613 4750 3031 4423 
Q 3450 4097 3450 3541 
Q 3450 3153 3228 2886 
Q 3006 2619 2597 2516 
z
" transform="scale(0.015625)"/>
       </defs>
       <use xlink:href="#DejaVuSans-33"/>
       <use xlink:href="#DejaVuSans-30" transform="translate(63.623047 0)"/>
      </g>
     </g>
    </g>
    <g id="xtick_12">
     <g id="line2d_30">
      <g>
       <use xlink:href="#md6d185f656" x="381.677321" y="633.6" style="stroke: #000000; stroke-width: 0.8"/>
      </g>
     </g>
     <g id="text_24">
      <!-- 40 -->
      <g transform="translate(372.133571 651.997656) scale(0.15 -0.15)">
       <defs>
        <path id="DejaVuSans-34" d="M 2419 4116 
L 825 1625 
L 2419 1625 
L 2419 4116 
z
M 2253 4666 
L 3047 4666 
L 3047 1625 
L 3713 1625 
L 3713 1100 
L 3047 1100 
L 3047 0 
L 2419 0 
L 2419 1100 
L 313 1100 
L 313 1709 
L 2253 4666 
z
" transform="scale(0.015625)"/>
       </defs>
       <use xlink:href="#DejaVuSans-34"/>
       <use xlink:href="#DejaVuSans-30" transform="translate(63.623047 0)"/>
      </g>
     </g>
    </g>
    <g id="text_25">
     <!-- time [hr] -->
     <g transform="translate(205.074219 672.794375) scale(0.18 -0.18)">
      <use xlink:href="#DejaVuSans-Bold-74"/>
      <use xlink:href="#DejaVuSans-Bold-69" transform="translate(47.802734 0)"/>
      <use xlink:href="#DejaVuSans-Bold-6d" transform="translate(82.080078 0)"/>
      <use xlink:href="#DejaVuSans-Bold-65" transform="translate(186.279297 0)"/>
      <use xlink:href="#DejaVuSans-Bold-20" transform="translate(254.101562 0)"/>
      <use xlink:href="#DejaVuSans-Bold-5b" transform="translate(288.916016 0)"/>
      <use xlink:href="#DejaVuSans-Bold-68" transform="translate(334.619141 0)"/>
      <use xlink:href="#DejaVuSans-Bold-72" transform="translate(405.810547 0)"/>
      <use xlink:href="#DejaVuSans-Bold-5d" transform="translate(455.126953 0)"/>
     </g>
    </g>
   </g>
   <g id="matplotlib.axis_4">
    <g id="ytick_7">
     <g id="line2d_31">
      <g>
       <use xlink:href="#mc421e55f14" x="54.84875" y="622.643478" style="stroke: #000000; stroke-width: 0.8"/>
      </g>
     </g>
     <g id="text_26">
      <!-- 0 -->
      <g transform="translate(38.305 628.342306) scale(0.15 -0.15)">
       <use xlink:href="#DejaVuSans-30"/>
      </g>
     </g>
    </g>
    <g id="ytick_8">
     <g id="line2d_32">
      <g>
       <use xlink:href="#mc421e55f14" x="54.84875" y="580.107906" style="stroke: #000000; stroke-width: 0.8"/>
      </g>
     </g>
     <g id="text_27">
      <!-- 5 -->
      <g transform="translate(38.305 585.806734) scale(0.15 -0.15)">
       <use xlink:href="#DejaVuSans-35"/>
      </g>
     </g>
    </g>
    <g id="ytick_9">
     <g id="line2d_33">
      <g>
       <use xlink:href="#mc421e55f14" x="54.84875" y="537.572333" style="stroke: #000000; stroke-width: 0.8"/>
      </g>
     </g>
     <g id="text_28">
      <!-- 10 -->
      <g transform="translate(28.76125 543.271161) scale(0.15 -0.15)">
       <use xlink:href="#DejaVuSans-31"/>
       <use xlink:href="#DejaVuSans-30" transform="translate(63.623047 0)"/>
      </g>
     </g>
    </g>
    <g id="ytick_10">
     <g id="line2d_34">
      <g>
       <use xlink:href="#mc421e55f14" x="54.84875" y="495.036761" style="stroke: #000000; stroke-width: 0.8"/>
      </g>
     </g>
     <g id="text_29">
      <!-- 15 -->
      <g transform="translate(28.76125 500.735589) scale(0.15 -0.15)">
       <use xlink:href="#DejaVuSans-31"/>
       <use xlink:href="#DejaVuSans-35" transform="translate(63.623047 0)"/>
      </g>
     </g>
    </g>
    <g id="ytick_11">
     <g id="line2d_35">
      <g>
       <use xlink:href="#mc421e55f14" x="54.84875" y="452.501188" style="stroke: #000000; stroke-width: 0.8"/>
      </g>
     </g>
     <g id="text_30">
      <!-- 20 -->
      <g transform="translate(28.76125 458.200016) scale(0.15 -0.15)">
       <use xlink:href="#DejaVuSans-32"/>
       <use xlink:href="#DejaVuSans-30" transform="translate(63.623047 0)"/>
      </g>
     </g>
    </g>
    <g id="ytick_12">
     <g id="line2d_36">
      <g>
       <use xlink:href="#mc421e55f14" x="54.84875" y="409.965616" style="stroke: #000000; stroke-width: 0.8"/>
      </g>
     </g>
     <g id="text_31">
      <!-- 25 -->
      <g transform="translate(28.76125 415.664444) scale(0.15 -0.15)">
       <use xlink:href="#DejaVuSans-32"/>
       <use xlink:href="#DejaVuSans-35" transform="translate(63.623047 0)"/>
      </g>
     </g>
    </g>
    <g id="text_32">
     <!-- rapamycin [µM] -->
     <g transform="translate(20.877188 593.116386) rotate(-90) scale(0.18 -0.18)">
      <use xlink:href="#DejaVuSans-Bold-72"/>
      <use xlink:href="#DejaVuSans-Bold-61" transform="translate(49.316406 0)"/>
      <use xlink:href="#DejaVuSans-Bold-70" transform="translate(116.796875 0)"/>
      <use xlink:href="#DejaVuSans-Bold-61" transform="translate(188.378906 0)"/>
      <use xlink:href="#DejaVuSans-Bold-6d" transform="translate(255.859375 0)"/>
      <use xlink:href="#DejaVuSans-Bold-79" transform="translate(360.058594 0)"/>
      <use xlink:href="#DejaVuSans-Bold-63" transform="translate(425.244141 0)"/>
      <use xlink:href="#DejaVuSans-Bold-69" transform="translate(484.521484 0)"/>
      <use xlink:href="#DejaVuSans-Bold-6e" transform="translate(518.798828 0)"/>
      <use xlink:href="#DejaVuSans-Bold-20" transform="translate(589.990234 0)"/>
      <use xlink:href="#DejaVuSans-Bold-5b" transform="translate(624.804688 0)"/>
      <use xlink:href="#DejaVuSans-Bold-b5" transform="translate(670.507812 0)"/>
      <use xlink:href="#DejaVuSans-Bold-4d" transform="translate(744.091797 0)"/>
      <use xlink:href="#DejaVuSans-Bold-5d" transform="translate(843.603516 0)"/>
     </g>
    </g>
   </g>
   <g id="LineCollection_5">
    <path d="M 65.45075 622.414185 
L 65.45075 622.341346 
" clip-path="url(#pb679870647)" style="fill: none; stroke: #000000"/>
    <path d="M 68.161036 622.101861 
L 68.161036 622.006019 
" clip-path="url(#pb679870647)" style="fill: none; stroke: #000000"/>
    <path d="M 70.791607 622.119224 
L 70.791607 622.046385 
" clip-path="url(#pb679870647)" style="fill: none; stroke: #000000"/>
    <path d="M 78.763036 622.280588 
L 78.763036 622.242239 
" clip-path="url(#pb679870647)" style="fill: none; stroke: #000000"/>
    <path d="M 86.734464 622.392108 
L 86.734464 622.353771 
" clip-path="url(#pb679870647)" style="fill: none; stroke: #000000"/>
    <path d="M 94.705893 622.446122 
L 94.705893 622.411619 
" clip-path="url(#pb679870647)" style="fill: none; stroke: #000000"/>
    <path d="M 102.677321 622.486719 
L 102.677321 622.459884 
" clip-path="url(#pb679870647)" style="fill: none; stroke: #000000"/>
    <path d="M 126.591607 622.549094 
L 126.591607 622.529913 
" clip-path="url(#pb679870647)" style="fill: none; stroke: #000000"/>
    <path d="M 158.477321 622.578356 
L 158.477321 622.564372 
" clip-path="url(#pb679870647)" style="fill: none; stroke: #000000"/>
    <path d="M 206.305893 622.595522 
L 206.305893 622.586053 
" clip-path="url(#pb679870647)" style="fill: none; stroke: #000000"/>
    <path d="M 254.134464 622.600846 
L 254.134464 622.591691 
" clip-path="url(#pb679870647)" style="fill: none; stroke: #000000"/>
    <path d="M 445.44875 622.614223 
L 445.44875 622.607941 
" clip-path="url(#pb679870647)" style="fill: none; stroke: #000000"/>
    <path clip-path="url(#pb679870647)" style="fill: none; stroke: #000000"/>
    <path clip-path="url(#pb679870647)" style="fill: none; stroke: #000000"/>
    <path clip-path="url(#pb679870647)" style="fill: none; stroke: #000000"/>
    <path clip-path="url(#pb679870647)" style="fill: none; stroke: #000000"/>
   </g>
   <g id="LineCollection_6">
    <path d="M 65.45075 622.602035 
L 65.45075 622.571366 
" clip-path="url(#pb679870647)" style="fill: none; stroke: #d62728"/>
    <path d="M 68.161036 622.533148 
L 68.161036 622.502466 
" clip-path="url(#pb679870647)" style="fill: none; stroke: #d62728"/>
    <path d="M 70.791607 622.475755 
L 70.791607 622.441252 
" clip-path="url(#pb679870647)" style="fill: none; stroke: #d62728"/>
    <path d="M 78.763036 622.326586 
L 78.763036 622.276748 
" clip-path="url(#pb679870647)" style="fill: none; stroke: #d62728"/>
    <path d="M 86.734464 622.288599 
L 86.734464 622.234927 
" clip-path="url(#pb679870647)" style="fill: none; stroke: #d62728"/>
    <path d="M 94.705893 622.292776 
L 94.705893 622.231437 
" clip-path="url(#pb679870647)" style="fill: none; stroke: #d62728"/>
    <path d="M 102.677321 622.331456 
L 102.677321 622.277785 
" clip-path="url(#pb679870647)" style="fill: none; stroke: #d62728"/>
    <path d="M 126.591607 622.472421 
L 126.591607 622.441739 
" clip-path="url(#pb679870647)" style="fill: none; stroke: #d62728"/>
    <path d="M 158.477321 622.526187 
L 158.477321 622.512944 
" clip-path="url(#pb679870647)" style="fill: none; stroke: #d62728"/>
    <path d="M 206.305893 622.566088 
L 206.305893 622.556062 
" clip-path="url(#pb679870647)" style="fill: none; stroke: #d62728"/>
    <path d="M 254.134464 622.578356 
L 254.134464 622.567727 
" clip-path="url(#pb679870647)" style="fill: none; stroke: #d62728"/>
    <path d="M 445.44875 622.600846 
L 445.44875 622.593887 
" clip-path="url(#pb679870647)" style="fill: none; stroke: #d62728"/>
    <path clip-path="url(#pb679870647)" style="fill: none; stroke: #d62728"/>
    <path clip-path="url(#pb679870647)" style="fill: none; stroke: #d62728"/>
    <path clip-path="url(#pb679870647)" style="fill: none; stroke: #d62728"/>
    <path clip-path="url(#pb679870647)" style="fill: none; stroke: #d62728"/>
   </g>
   <g id="line2d_37">
    <path d="M 62.820179 622.643478 
L 63.418036 599.386712 
L 64.61375 485.3676 
L 65.211607 444.258522 
L 65.809464 418.416918 
L 66.407321 405.821098 
L 67.005179 403.513043 
L 67.603036 408.566066 
L 68.200893 418.478259 
L 69.396607 445.509473 
L 71.190179 488.048368 
L 72.385893 512.146314 
L 73.581607 531.740751 
L 74.777321 547.130834 
L 75.973036 558.966885 
L 77.16875 567.951123 
L 78.364464 574.714791 
L 79.560179 579.78066 
L 80.755893 583.56312 
L 81.951607 586.382389 
L 83.147321 588.482121 
L 84.343036 590.045925 
L 85.53875 591.211322 
L 86.734464 592.080909 
L 87.930179 592.731036 
L 89.72375 593.414723 
L 91.517321 593.862559 
L 93.90875 594.235693 
L 97.495893 594.538754 
L 103.474464 594.773566 
L 120.214464 595.110015 
L 250.547321 597.343356 
L 397.620179 599.647461 
L 446.046607 600.359489 
L 446.046607 600.359489 
" clip-path="url(#pb679870647)" style="fill: none; stroke: #000000; stroke-width: 2; stroke-linecap: square"/>
   </g>
   <g id="line2d_38">
    <path d="M 65.45075 622.377766 
L 68.161036 622.05394 
L 70.791607 622.082805 
L 78.763036 622.261413 
L 86.734464 622.372939 
L 94.705893 622.428871 
L 102.677321 622.473301 
L 126.591607 622.539504 
L 158.477321 622.571364 
L 206.305893 622.590787 
L 254.134464 622.596268 
L 445.44875 622.611082 
L 621.719625 622.618602 
" clip-path="url(#pb679870647)" style="fill: none; stroke-dasharray: 3.7,1.6; stroke-dashoffset: 0; stroke: #000000"/>
    <g clip-path="url(#pb679870647)">
     <use xlink:href="#m28420704b4" x="65.45075" y="622.377766" style="stroke: #000000; stroke-linejoin: miter"/>
     <use xlink:href="#m28420704b4" x="68.161036" y="622.05394" style="stroke: #000000; stroke-linejoin: miter"/>
     <use xlink:href="#m28420704b4" x="70.791607" y="622.082805" style="stroke: #000000; stroke-linejoin: miter"/>
     <use xlink:href="#m28420704b4" x="78.763036" y="622.261413" style="stroke: #000000; stroke-linejoin: miter"/>
     <use xlink:href="#m28420704b4" x="86.734464" y="622.372939" style="stroke: #000000; stroke-linejoin: miter"/>
     <use xlink:href="#m28420704b4" x="94.705893" y="622.428871" style="stroke: #000000; stroke-linejoin: miter"/>
     <use xlink:href="#m28420704b4" x="102.677321" y="622.473301" style="stroke: #000000; stroke-linejoin: miter"/>
     <use xlink:href="#m28420704b4" x="126.591607" y="622.539504" style="stroke: #000000; stroke-linejoin: miter"/>
     <use xlink:href="#m28420704b4" x="158.477321" y="622.571364" style="stroke: #000000; stroke-linejoin: miter"/>
     <use xlink:href="#m28420704b4" x="206.305893" y="622.590787" style="stroke: #000000; stroke-linejoin: miter"/>
     <use xlink:href="#m28420704b4" x="254.134464" y="622.596268" style="stroke: #000000; stroke-linejoin: miter"/>
     <use xlink:href="#m28420704b4" x="445.44875" y="622.611082" style="stroke: #000000; stroke-linejoin: miter"/>
     <use xlink:href="#m28420704b4" x="636.763036" y="622.619244" style="stroke: #000000; stroke-linejoin: miter"/>
     <use xlink:href="#m28420704b4" x="828.077321" y="622.624023" style="stroke: #000000; stroke-linejoin: miter"/>
     <use xlink:href="#m28420704b4" x="1019.391607" y="622.628103" style="stroke: #000000; stroke-linejoin: miter"/>
     <use xlink:href="#m28420704b4" x="1210.705893" y="622.630842" style="stroke: #000000; stroke-linejoin: miter"/>
    </g>
   </g>
   <g id="line2d_39">
    <path d="M 62.820179 622.643478 
L 63.418036 599.386712 
L 64.61375 485.3676 
L 65.211607 444.258522 
L 65.809464 418.416918 
L 66.407321 405.821098 
L 67.005179 403.513043 
L 67.603036 408.566066 
L 68.200893 418.478259 
L 69.396607 445.509473 
L 71.190179 488.048368 
L 72.385893 512.146314 
L 73.581607 531.740751 
L 74.777321 547.130834 
L 75.973036 558.966885 
L 77.16875 567.951123 
L 78.364464 574.714791 
L 79.560179 579.78066 
L 80.755893 583.56312 
L 81.951607 586.382389 
L 83.147321 588.482121 
L 84.343036 590.045925 
L 85.53875 591.211322 
L 86.734464 592.080909 
L 87.930179 592.731036 
L 89.72375 593.414723 
L 91.517321 593.862559 
L 93.90875 594.235693 
L 97.495893 594.538754 
L 103.474464 594.773566 
L 120.214464 595.110015 
L 250.547321 597.343356 
L 397.620179 599.647461 
L 446.046607 600.359489 
L 446.046607 600.359489 
" clip-path="url(#pb679870647)" style="fill: none; stroke: #d62728; stroke-width: 2; stroke-linecap: square"/>
   </g>
   <g id="line2d_40">
    <path d="M 65.45075 622.5867 
L 68.161036 622.517807 
L 70.791607 622.458504 
L 78.763036 622.301667 
L 86.734464 622.261763 
L 94.705893 622.262106 
L 102.677321 622.30462 
L 126.591607 622.45708 
L 158.477321 622.519566 
L 206.305893 622.561075 
L 254.134464 622.573041 
L 445.44875 622.597366 
L 621.719625 622.60807 
" clip-path="url(#pb679870647)" style="fill: none; stroke-dasharray: 3.7,1.6; stroke-dashoffset: 0; stroke: #d62728"/>
    <g clip-path="url(#pb679870647)">
     <use xlink:href="#m8ba70b51b9" x="65.45075" y="622.5867" style="fill: #d62728; stroke: #000000; stroke-linejoin: miter"/>
     <use xlink:href="#m8ba70b51b9" x="68.161036" y="622.517807" style="fill: #d62728; stroke: #000000; stroke-linejoin: miter"/>
     <use xlink:href="#m8ba70b51b9" x="70.791607" y="622.458504" style="fill: #d62728; stroke: #000000; stroke-linejoin: miter"/>
     <use xlink:href="#m8ba70b51b9" x="78.763036" y="622.301667" style="fill: #d62728; stroke: #000000; stroke-linejoin: miter"/>
     <use xlink:href="#m8ba70b51b9" x="86.734464" y="622.261763" style="fill: #d62728; stroke: #000000; stroke-linejoin: miter"/>
     <use xlink:href="#m8ba70b51b9" x="94.705893" y="622.262106" style="fill: #d62728; stroke: #000000; stroke-linejoin: miter"/>
     <use xlink:href="#m8ba70b51b9" x="102.677321" y="622.30462" style="fill: #d62728; stroke: #000000; stroke-linejoin: miter"/>
     <use xlink:href="#m8ba70b51b9" x="126.591607" y="622.45708" style="fill: #d62728; stroke: #000000; stroke-linejoin: miter"/>
     <use xlink:href="#m8ba70b51b9" x="158.477321" y="622.519566" style="fill: #d62728; stroke: #000000; stroke-linejoin: miter"/>
     <use xlink:href="#m8ba70b51b9" x="206.305893" y="622.561075" style="fill: #d62728; stroke: #000000; stroke-linejoin: miter"/>
     <use xlink:href="#m8ba70b51b9" x="254.134464" y="622.573041" style="fill: #d62728; stroke: #000000; stroke-linejoin: miter"/>
     <use xlink:href="#m8ba70b51b9" x="445.44875" y="622.597366" style="fill: #d62728; stroke: #000000; stroke-linejoin: miter"/>
     <use xlink:href="#m8ba70b51b9" x="636.763036" y="622.608984" style="fill: #d62728; stroke: #000000; stroke-linejoin: miter"/>
     <use xlink:href="#m8ba70b51b9" x="828.077321" y="622.616852" style="fill: #d62728; stroke: #000000; stroke-linejoin: miter"/>
     <use xlink:href="#m8ba70b51b9" x="1019.391607" y="622.622103" style="fill: #d62728; stroke: #000000; stroke-linejoin: miter"/>
     <use xlink:href="#m8ba70b51b9" x="1210.705893" y="622.626047" style="fill: #d62728; stroke: #000000; stroke-linejoin: miter"/>
    </g>
   </g>
   <g id="patch_9">
    <path d="M 54.84875 633.6 
L 54.84875 392.556522 
" style="fill: none; stroke: #000000; stroke-width: 0.8; stroke-linejoin: miter; stroke-linecap: square"/>
   </g>
   <g id="patch_10">
    <path d="M 445.44875 633.6 
L 445.44875 392.556522 
" style="fill: none; stroke: #000000; stroke-width: 0.8; stroke-linejoin: miter; stroke-linecap: square"/>
   </g>
   <g id="patch_11">
    <path d="M 54.84875 633.6 
L 445.44875 633.6 
" style="fill: none; stroke: #000000; stroke-width: 0.8; stroke-linejoin: miter; stroke-linecap: square"/>
   </g>
   <g id="patch_12">
    <path d="M 54.84875 392.556522 
L 445.44875 392.556522 
" style="fill: none; stroke: #000000; stroke-width: 0.8; stroke-linejoin: miter; stroke-linecap: square"/>
   </g>
   <g id="legend_2">
    <g id="patch_13">
     <path d="M 468.07275 459.825272 
L 611.519625 459.825272 
Q 613.519625 459.825272 613.519625 457.825272 
L 613.519625 399.556522 
Q 613.519625 397.556522 611.519625 397.556522 
L 468.07275 397.556522 
Q 466.07275 397.556522 466.07275 399.556522 
L 466.07275 457.825272 
Q 466.07275 459.825272 468.07275 459.825272 
z
" style="fill: #ffffff; opacity: 0.8; stroke: #cccccc; stroke-linejoin: miter"/>
    </g>
    <g id="line2d_41">
     <path d="M 470.07275 405.654959 
L 490.07275 405.654959 
" style="fill: none; stroke: #000000; stroke-width: 2; stroke-linecap: square"/>
    </g>
    <g id="line2d_42"/>
    <g id="text_33">
     <!-- RAP15 -->
     <g transform="translate(498.07275 409.154959) scale(0.1 -0.1)">
      <use xlink:href="#DejaVuSans-52"/>
      <use xlink:href="#DejaVuSans-41" transform="translate(65.482422 0)"/>
      <use xlink:href="#DejaVuSans-50" transform="translate(133.890625 0)"/>
      <use xlink:href="#DejaVuSans-31" transform="translate(194.193359 0)"/>
      <use xlink:href="#DejaVuSans-35" transform="translate(257.816406 0)"/>
     </g>
    </g>
    <g id="LineCollection_7">
     <path d="M 480.07275 425.333084 
L 480.07275 415.333084 
" style="fill: none; stroke: #000000"/>
    </g>
    <g id="line2d_43">
     <path d="M 470.07275 420.333084 
L 490.07275 420.333084 
" style="fill: none; stroke-dasharray: 3.7,1.6; stroke-dashoffset: 0; stroke: #000000"/>
    </g>
    <g id="line2d_44">
     <g>
      <use xlink:href="#m28420704b4" x="480.07275" y="420.333084" style="stroke: #000000; stroke-linejoin: miter"/>
     </g>
    </g>
    <g id="text_34">
     <!-- RAP15±SD (n=22) -->
     <g transform="translate(498.07275 423.833084) scale(0.1 -0.1)">
      <use xlink:href="#DejaVuSans-52"/>
      <use xlink:href="#DejaVuSans-41" transform="translate(65.482422 0)"/>
      <use xlink:href="#DejaVuSans-50" transform="translate(133.890625 0)"/>
      <use xlink:href="#DejaVuSans-31" transform="translate(194.193359 0)"/>
      <use xlink:href="#DejaVuSans-35" transform="translate(257.816406 0)"/>
      <use xlink:href="#DejaVuSans-b1" transform="translate(321.439453 0)"/>
      <use xlink:href="#DejaVuSans-53" transform="translate(405.228516 0)"/>
      <use xlink:href="#DejaVuSans-44" transform="translate(468.705078 0)"/>
      <use xlink:href="#DejaVuSans-20" transform="translate(545.707031 0)"/>
      <use xlink:href="#DejaVuSans-28" transform="translate(577.494141 0)"/>
      <use xlink:href="#DejaVuSans-6e" transform="translate(616.507812 0)"/>
      <use xlink:href="#DejaVuSans-3d" transform="translate(679.886719 0)"/>
      <use xlink:href="#DejaVuSans-32" transform="translate(763.675781 0)"/>
      <use xlink:href="#DejaVuSans-32" transform="translate(827.298828 0)"/>
      <use xlink:href="#DejaVuSans-29" transform="translate(890.921875 0)"/>
     </g>
    </g>
    <g id="line2d_45">
     <path d="M 470.07275 435.011209 
L 490.07275 435.011209 
" style="fill: none; stroke: #d62728; stroke-width: 2; stroke-linecap: square"/>
    </g>
    <g id="line2d_46"/>
    <g id="text_35">
     <!-- RAP15_FD -->
     <g transform="translate(498.07275 438.511209) scale(0.1 -0.1)">
      <use xlink:href="#DejaVuSans-52"/>
      <use xlink:href="#DejaVuSans-41" transform="translate(65.482422 0)"/>
      <use xlink:href="#DejaVuSans-50" transform="translate(133.890625 0)"/>
      <use xlink:href="#DejaVuSans-31" transform="translate(194.193359 0)"/>
      <use xlink:href="#DejaVuSans-35" transform="translate(257.816406 0)"/>
      <use xlink:href="#DejaVuSans-5f" transform="translate(321.439453 0)"/>
      <use xlink:href="#DejaVuSans-46" transform="translate(371.439453 0)"/>
      <use xlink:href="#DejaVuSans-44" transform="translate(428.958984 0)"/>
     </g>
    </g>
    <g id="LineCollection_8">
     <path d="M 480.07275 454.967459 
L 480.07275 444.967459 
" style="fill: none; stroke: #d62728"/>
    </g>
    <g id="line2d_47">
     <path d="M 470.07275 449.967459 
L 490.07275 449.967459 
" style="fill: none; stroke-dasharray: 3.7,1.6; stroke-dashoffset: 0; stroke: #d62728"/>
    </g>
    <g id="line2d_48">
     <g>
      <use xlink:href="#m8ba70b51b9" x="480.07275" y="449.967459" style="fill: #d62728; stroke: #000000; stroke-linejoin: miter"/>
     </g>
    </g>
    <g id="text_36">
     <!-- RAP15_FD±SD (n=22) -->
     <g transform="translate(498.07275 453.467459) scale(0.1 -0.1)">
      <use xlink:href="#DejaVuSans-52"/>
      <use xlink:href="#DejaVuSans-41" transform="translate(65.482422 0)"/>
      <use xlink:href="#DejaVuSans-50" transform="translate(133.890625 0)"/>
      <use xlink:href="#DejaVuSans-31" transform="translate(194.193359 0)"/>
      <use xlink:href="#DejaVuSans-35" transform="translate(257.816406 0)"/>
      <use xlink:href="#DejaVuSans-5f" transform="translate(321.439453 0)"/>
      <use xlink:href="#DejaVuSans-46" transform="translate(371.439453 0)"/>
      <use xlink:href="#DejaVuSans-44" transform="translate(428.958984 0)"/>
      <use xlink:href="#DejaVuSans-b1" transform="translate(505.960938 0)"/>
      <use xlink:href="#DejaVuSans-53" transform="translate(589.75 0)"/>
      <use xlink:href="#DejaVuSans-44" transform="translate(653.226562 0)"/>
      <use xlink:href="#DejaVuSans-20" transform="translate(730.228516 0)"/>
      <use xlink:href="#DejaVuSans-28" transform="translate(762.015625 0)"/>
      <use xlink:href="#DejaVuSans-6e" transform="translate(801.029297 0)"/>
      <use xlink:href="#DejaVuSans-3d" transform="translate(864.408203 0)"/>
      <use xlink:href="#DejaVuSans-32" transform="translate(948.197266 0)"/>
      <use xlink:href="#DejaVuSans-32" transform="translate(1011.820312 0)"/>
      <use xlink:href="#DejaVuSans-29" transform="translate(1075.443359 0)"/>
     </g>
    </g>
   </g>
  </g>
  <g id="text_37">
   <!-- Zimmerman1999 -->
   <g transform="translate(124.657344 26.196094) scale(0.25 -0.25)">
    <defs>
     <path id="DejaVuSans-Bold-5a" d="M 359 4666 
L 4281 4666 
L 4281 3938 
L 1778 909 
L 4353 909 
L 4353 0 
L 288 0 
L 288 728 
L 2791 3756 
L 359 3756 
L 359 4666 
z
" transform="scale(0.015625)"/>
     <path id="DejaVuSans-Bold-31" d="M 750 831 
L 1813 831 
L 1813 3847 
L 722 3622 
L 722 4441 
L 1806 4666 
L 2950 4666 
L 2950 831 
L 4013 831 
L 4013 0 
L 750 0 
L 750 831 
z
" transform="scale(0.015625)"/>
     <path id="DejaVuSans-Bold-39" d="M 641 103 
L 641 966 
Q 928 831 1190 764 
Q 1453 697 1709 697 
Q 2247 697 2547 995 
Q 2847 1294 2900 1881 
Q 2688 1725 2447 1647 
Q 2206 1569 1925 1569 
Q 1209 1569 770 1986 
Q 331 2403 331 3084 
Q 331 3838 820 4291 
Q 1309 4744 2131 4744 
Q 3044 4744 3544 4128 
Q 4044 3513 4044 2388 
Q 4044 1231 3459 570 
Q 2875 -91 1856 -91 
Q 1528 -91 1228 -42 
Q 928 6 641 103 
z
M 2125 2350 
Q 2441 2350 2600 2554 
Q 2759 2759 2759 3169 
Q 2759 3575 2600 3781 
Q 2441 3988 2125 3988 
Q 1809 3988 1650 3781 
Q 1491 3575 1491 3169 
Q 1491 2759 1650 2554 
Q 1809 2350 2125 2350 
z
" transform="scale(0.015625)"/>
    </defs>
    <use xlink:href="#DejaVuSans-Bold-5a"/>
    <use xlink:href="#DejaVuSans-Bold-69" transform="translate(72.509766 0)"/>
    <use xlink:href="#DejaVuSans-Bold-6d" transform="translate(106.787109 0)"/>
    <use xlink:href="#DejaVuSans-Bold-6d" transform="translate(210.986328 0)"/>
    <use xlink:href="#DejaVuSans-Bold-65" transform="translate(315.185547 0)"/>
    <use xlink:href="#DejaVuSans-Bold-72" transform="translate(383.007812 0)"/>
    <use xlink:href="#DejaVuSans-Bold-6d" transform="translate(432.324219 0)"/>
    <use xlink:href="#DejaVuSans-Bold-61" transform="translate(536.523438 0)"/>
    <use xlink:href="#DejaVuSans-Bold-6e" transform="translate(604.003906 0)"/>
    <use xlink:href="#DejaVuSans-Bold-31" transform="translate(675.195312 0)"/>
    <use xlink:href="#DejaVuSans-Bold-39" transform="translate(744.775391 0)"/>
    <use xlink:href="#DejaVuSans-Bold-39" transform="translate(814.355469 0)"/>
    <use xlink:href="#DejaVuSans-Bold-39" transform="translate(883.935547 0)"/>
   </g>
  </g>
 </g>
 <defs>
  <clipPath id="pc30dc05992">
   <rect x="54.84875" y="79.2" width="390.6" height="241.043478"/>
  </clipPath>
  <clipPath id="pb679870647">
   <rect x="54.84875" y="392.556522" width="390.6" height="241.043478"/>
  </clipPath>
 </defs>
</svg>
