<?xml version="1.0" encoding="utf-8" standalone="no"?>
<!DOCTYPE svg PUBLIC "-//W3C//DTD SVG 1.1//EN"
  "http://www.w3.org/Graphics/SVG/1.1/DTD/svg11.dtd">
<svg xmlns:xlink="http://www.w3.org/1999/xlink" width="462.1925pt" height="370.537812pt" viewBox="0 0 462.1925 370.537812" xmlns="http://www.w3.org/2000/svg" version="1.1">
 <metadata>
  <rdf:RDF xmlns:dc="http://purl.org/dc/elements/1.1/" xmlns:cc="http://creativecommons.org/ns#" xmlns:rdf="http://www.w3.org/1999/02/22-rdf-syntax-ns#">
   <cc:Work>
    <dc:type rdf:resource="http://purl.org/dc/dcmitype/StillImage"/>
    <dc:date>2026-02-12T15:19:33.049330</dc:date>
    <dc:format>image/svg+xml</dc:format>
    <dc:creator>
     <cc:Agent>
      <dc:title>Matplotlib v3.10.7, https://matplotlib.org/</dc:title>
     </cc:Agent>
    </dc:creator>
   </cc:Work>
  </rdf:RDF>
 </metadata>
 <defs>
  <style type="text/css">*{stroke-linejoin: round; stroke-linecap: butt}</style>
 </defs>
 <g id="figure_1">
  <g id="patch_1">
   <path d="M 0 370.537812 
L 462.1925 370.537812 
L 462.1925 0 
L 0 0 
z
" style="fill: #ffffff"/>
  </g>
  <g id="axes_1">
   <g id="patch_2">
    <path d="M 64.3925 320.4 
L 454.9925 320.4 
L 454.9925 43.2 
L 64.3925 43.2 
z
" style="fill: #ffffff"/>
   </g>
   <g id="matplotlib.axis_1">
    <g id="xtick_1">
     <g id="line2d_1">
      <defs>
       <path id="me64dcd16ae" d="M 0 0 
L 0 3.5 
" style="stroke: #000000; stroke-width: 0.8"/>
      </defs>
      <g>
       <use xlink:href="#me64dcd16ae" x="82.147045" y="320.4" style="stroke: #000000; stroke-width: 0.8"/>
      </g>
     </g>
     <g id="text_1">
      <!-- 0 -->
      <g transform="translate(77.37517 338.797656) scale(0.15 -0.15)">
       <defs>
        <path id="DejaVuSans-30" d="M 2034 4250 
Q 1547 4250 1301 3770 
Q 1056 3291 1056 2328 
Q 1056 1369 1301 889 
Q 1547 409 2034 409 
Q 2525 409 2770 889 
Q 3016 1369 3016 2328 
Q 3016 3291 2770 3770 
Q 2525 4250 2034 4250 
z
M 2034 4750 
Q 2819 4750 3233 4129 
Q 3647 3509 3647 2328 
Q 3647 1150 3233 529 
Q 2819 -91 2034 -91 
Q 1250 -91 836 529 
Q 422 1150 422 2328 
Q 422 3509 836 4129 
Q 1250 4750 2034 4750 
z
" transform="scale(0.015625)"/>
       </defs>
       <use xlink:href="#DejaVuSans-30"/>
      </g>
     </g>
    </g>
    <g id="xtick_2">
     <g id="line2d_2">
      <g>
       <use xlink:href="#me64dcd16ae" x="151.772714" y="320.4" style="stroke: #000000; stroke-width: 0.8"/>
      </g>
     </g>
     <g id="text_2">
      <!-- 10 -->
      <g transform="translate(142.228964 338.797656) scale(0.15 -0.15)">
       <defs>
        <path id="DejaVuSans-31" d="M 794 531 
L 1825 531 
L 1825 4091 
L 703 3866 
L 703 4441 
L 1819 4666 
L 2450 4666 
L 2450 531 
L 3481 531 
L 3481 0 
L 794 0 
L 794 531 
z
" transform="scale(0.015625)"/>
       </defs>
       <use xlink:href="#DejaVuSans-31"/>
       <use xlink:href="#DejaVuSans-30" transform="translate(63.623047 0)"/>
      </g>
     </g>
    </g>
    <g id="xtick_3">
     <g id="line2d_3">
      <g>
       <use xlink:href="#me64dcd16ae" x="221.398382" y="320.4" style="stroke: #000000; stroke-width: 0.8"/>
      </g>
     </g>
     <g id="text_3">
      <!-- 20 -->
      <g transform="translate(211.854632 338.797656) scale(0.15 -0.15)">
       <defs>
        <path id="DejaVuSans-32" d="M 1228 531 
L 3431 531 
L 3431 0 
L 469 0 
L 469 531 
Q 828 903 1448 1529 
Q 2069 2156 2228 2338 
Q 2531 2678 2651 2914 
Q 2772 3150 2772 3378 
Q 2772 3750 2511 3984 
Q 2250 4219 1831 4219 
Q 1534 4219 1204 4116 
Q 875 4013 500 3803 
L 500 4441 
Q 881 4594 1212 4672 
Q 1544 4750 1819 4750 
Q 2544 4750 2975 4387 
Q 3406 4025 3406 3419 
Q 3406 3131 3298 2873 
Q 3191 2616 2906 2266 
Q 2828 2175 2409 1742 
Q 1991 1309 1228 531 
z
" transform="scale(0.015625)"/>
       </defs>
       <use xlink:href="#DejaVuSans-32"/>
       <use xlink:href="#DejaVuSans-30" transform="translate(63.623047 0)"/>
      </g>
     </g>
    </g>
    <g id="xtick_4">
     <g id="line2d_4">
      <g>
       <use xlink:href="#me64dcd16ae" x="291.024051" y="320.4" style="stroke: #000000; stroke-width: 0.8"/>
      </g>
     </g>
     <g id="text_4">
      <!-- 30 -->
      <g transform="translate(281.480301 338.797656) scale(0.15 -0.15)">
       <defs>
        <path id="DejaVuSans-33" d="M 2597 2516 
Q 3050 2419 3304 2112 
Q 3559 1806 3559 1356 
Q 3559 666 3084 287 
Q 2609 -91 1734 -91 
Q 1441 -91 1130 -33 
Q 819 25 488 141 
L 488 750 
Q 750 597 1062 519 
Q 1375 441 1716 441 
Q 2309 441 2620 675 
Q 2931 909 2931 1356 
Q 2931 1769 2642 2001 
Q 2353 2234 1838 2234 
L 1294 2234 
L 1294 2753 
L 1863 2753 
Q 2328 2753 2575 2939 
Q 2822 3125 2822 3475 
Q 2822 3834 2567 4026 
Q 2313 4219 1838 4219 
Q 1578 4219 1281 4162 
Q 984 4106 628 3988 
L 628 4550 
Q 988 4650 1302 4700 
Q 1616 4750 1894 4750 
Q 2613 4750 3031 4423 
Q 3450 4097 3450 3541 
Q 3450 3153 3228 2886 
Q 3006 2619 2597 2516 
z
" transform="scale(0.015625)"/>
       </defs>
       <use xlink:href="#DejaVuSans-33"/>
       <use xlink:href="#DejaVuSans-30" transform="translate(63.623047 0)"/>
      </g>
     </g>
    </g>
    <g id="xtick_5">
     <g id="line2d_5">
      <g>
       <use xlink:href="#me64dcd16ae" x="360.649719" y="320.4" style="stroke: #000000; stroke-width: 0.8"/>
      </g>
     </g>
     <g id="text_5">
      <!-- 40 -->
      <g transform="translate(351.105969 338.797656) scale(0.15 -0.15)">
       <defs>
        <path id="DejaVuSans-34" d="M 2419 4116 
L 825 1625 
L 2419 1625 
L 2419 4116 
z
M 2253 4666 
L 3047 4666 
L 3047 1625 
L 3713 1625 
L 3713 1100 
L 3047 1100 
L 3047 0 
L 2419 0 
L 2419 1100 
L 313 1100 
L 313 1709 
L 2253 4666 
z
" transform="scale(0.015625)"/>
       </defs>
       <use xlink:href="#DejaVuSans-34"/>
       <use xlink:href="#DejaVuSans-30" transform="translate(63.623047 0)"/>
      </g>
     </g>
    </g>
    <g id="xtick_6">
     <g id="line2d_6">
      <g>
       <use xlink:href="#me64dcd16ae" x="430.275388" y="320.4" style="stroke: #000000; stroke-width: 0.8"/>
      </g>
     </g>
     <g id="text_6">
      <!-- 50 -->
      <g transform="translate(420.731638 338.797656) scale(0.15 -0.15)">
       <defs>
        <path id="DejaVuSans-35" d="M 691 4666 
L 3169 4666 
L 3169 4134 
L 1269 4134 
L 1269 2991 
Q 1406 3038 1543 3061 
Q 1681 3084 1819 3084 
Q 2600 3084 3056 2656 
Q 3513 2228 3513 1497 
Q 3513 744 3044 326 
Q 2575 -91 1722 -91 
Q 1428 -91 1123 -41 
Q 819 9 494 109 
L 494 744 
Q 775 591 1075 516 
Q 1375 441 1709 441 
Q 2250 441 2565 725 
Q 2881 1009 2881 1497 
Q 2881 1984 2565 2268 
Q 2250 2553 1709 2553 
Q 1456 2553 1204 2497 
Q 953 2441 691 2322 
L 691 4666 
z
" transform="scale(0.015625)"/>
       </defs>
       <use xlink:href="#DejaVuSans-35"/>
       <use xlink:href="#DejaVuSans-30" transform="translate(63.623047 0)"/>
      </g>
     </g>
    </g>
    <g id="text_7">
     <!-- time [hr] -->
     <g transform="translate(214.617969 359.594375) scale(0.18 -0.18)">
      <defs>
       <path id="DejaVuSans-Bold-74" d="M 1759 4494 
L 1759 3500 
L 2913 3500 
L 2913 2700 
L 1759 2700 
L 1759 1216 
Q 1759 972 1856 886 
Q 1953 800 2241 800 
L 2816 800 
L 2816 0 
L 1856 0 
Q 1194 0 917 276 
Q 641 553 641 1216 
L 641 2700 
L 84 2700 
L 84 3500 
L 641 3500 
L 641 4494 
L 1759 4494 
z
" transform="scale(0.015625)"/>
       <path id="DejaVuSans-Bold-69" d="M 538 3500 
L 1656 3500 
L 1656 0 
L 538 0 
L 538 3500 
z
M 538 4863 
L 1656 4863 
L 1656 3950 
L 538 3950 
L 538 4863 
z
" transform="scale(0.015625)"/>
       <path id="DejaVuSans-Bold-6d" d="M 3781 2919 
Q 3994 3244 4286 3414 
Q 4578 3584 4928 3584 
Q 5531 3584 5847 3212 
Q 6163 2841 6163 2131 
L 6163 0 
L 5038 0 
L 5038 1825 
Q 5041 1866 5042 1909 
Q 5044 1953 5044 2034 
Q 5044 2406 4934 2573 
Q 4825 2741 4581 2741 
Q 4263 2741 4089 2478 
Q 3916 2216 3909 1719 
L 3909 0 
L 2784 0 
L 2784 1825 
Q 2784 2406 2684 2573 
Q 2584 2741 2328 2741 
Q 2006 2741 1831 2477 
Q 1656 2213 1656 1722 
L 1656 0 
L 531 0 
L 531 3500 
L 1656 3500 
L 1656 2988 
Q 1863 3284 2130 3434 
Q 2397 3584 2719 3584 
Q 3081 3584 3359 3409 
Q 3638 3234 3781 2919 
z
" transform="scale(0.015625)"/>
       <path id="DejaVuSans-Bold-65" d="M 4031 1759 
L 4031 1441 
L 1416 1441 
Q 1456 1047 1700 850 
Q 1944 653 2381 653 
Q 2734 653 3104 758 
Q 3475 863 3866 1075 
L 3866 213 
Q 3469 63 3072 -14 
Q 2675 -91 2278 -91 
Q 1328 -91 801 392 
Q 275 875 275 1747 
Q 275 2603 792 3093 
Q 1309 3584 2216 3584 
Q 3041 3584 3536 3087 
Q 4031 2591 4031 1759 
z
M 2881 2131 
Q 2881 2450 2695 2645 
Q 2509 2841 2209 2841 
Q 1884 2841 1681 2658 
Q 1478 2475 1428 2131 
L 2881 2131 
z
" transform="scale(0.015625)"/>
       <path id="DejaVuSans-Bold-20" transform="scale(0.015625)"/>
       <path id="DejaVuSans-Bold-5b" d="M 550 4863 
L 2491 4863 
L 2491 4159 
L 1613 4159 
L 1613 -141 
L 2491 -141 
L 2491 -844 
L 550 -844 
L 550 4863 
z
" transform="scale(0.015625)"/>
       <path id="DejaVuSans-Bold-68" d="M 4056 2131 
L 4056 0 
L 2931 0 
L 2931 347 
L 2931 1625 
Q 2931 2084 2911 2256 
Q 2891 2428 2841 2509 
Q 2775 2619 2662 2680 
Q 2550 2741 2406 2741 
Q 2056 2741 1856 2470 
Q 1656 2200 1656 1722 
L 1656 0 
L 538 0 
L 538 4863 
L 1656 4863 
L 1656 2988 
Q 1909 3294 2193 3439 
Q 2478 3584 2822 3584 
Q 3428 3584 3742 3212 
Q 4056 2841 4056 2131 
z
" transform="scale(0.015625)"/>
       <path id="DejaVuSans-Bold-72" d="M 3138 2547 
Q 2991 2616 2845 2648 
Q 2700 2681 2553 2681 
Q 2122 2681 1889 2404 
Q 1656 2128 1656 1613 
L 1656 0 
L 538 0 
L 538 3500 
L 1656 3500 
L 1656 2925 
Q 1872 3269 2151 3426 
Q 2431 3584 2822 3584 
Q 2878 3584 2943 3579 
Q 3009 3575 3134 3559 
L 3138 2547 
z
" transform="scale(0.015625)"/>
       <path id="DejaVuSans-Bold-5d" d="M 2375 -844 
L 434 -844 
L 434 -141 
L 1313 -141 
L 1313 4159 
L 434 4159 
L 434 4863 
L 2375 4863 
L 2375 -844 
z
" transform="scale(0.015625)"/>
      </defs>
      <use xlink:href="#DejaVuSans-Bold-74"/>
      <use xlink:href="#DejaVuSans-Bold-69" transform="translate(47.802734 0)"/>
      <use xlink:href="#DejaVuSans-Bold-6d" transform="translate(82.080078 0)"/>
      <use xlink:href="#DejaVuSans-Bold-65" transform="translate(186.279297 0)"/>
      <use xlink:href="#DejaVuSans-Bold-20" transform="translate(254.101562 0)"/>
      <use xlink:href="#DejaVuSans-Bold-5b" transform="translate(288.916016 0)"/>
      <use xlink:href="#DejaVuSans-Bold-68" transform="translate(334.619141 0)"/>
      <use xlink:href="#DejaVuSans-Bold-72" transform="translate(405.810547 0)"/>
      <use xlink:href="#DejaVuSans-Bold-5d" transform="translate(455.126953 0)"/>
     </g>
    </g>
   </g>
   <g id="matplotlib.axis_2">
    <g id="ytick_1">
     <g id="line2d_7">
      <defs>
       <path id="mcfd860cd6e" d="M 0 0 
L -3.5 0 
" style="stroke: #000000; stroke-width: 0.8"/>
      </defs>
      <g>
       <use xlink:href="#mcfd860cd6e" x="64.3925" y="307.8" style="stroke: #000000; stroke-width: 0.8"/>
      </g>
     </g>
     <g id="text_8">
      <!-- 0 -->
      <g transform="translate(47.84875 313.498828) scale(0.15 -0.15)">
       <use xlink:href="#DejaVuSans-30"/>
      </g>
     </g>
    </g>
    <g id="ytick_2">
     <g id="line2d_8">
      <g>
       <use xlink:href="#mcfd860cd6e" x="64.3925" y="276.506174" style="stroke: #000000; stroke-width: 0.8"/>
      </g>
     </g>
     <g id="text_9">
      <!-- 50 -->
      <g transform="translate(38.305 282.205002) scale(0.15 -0.15)">
       <use xlink:href="#DejaVuSans-35"/>
       <use xlink:href="#DejaVuSans-30" transform="translate(63.623047 0)"/>
      </g>
     </g>
    </g>
    <g id="ytick_3">
     <g id="line2d_9">
      <g>
       <use xlink:href="#mcfd860cd6e" x="64.3925" y="245.212348" style="stroke: #000000; stroke-width: 0.8"/>
      </g>
     </g>
     <g id="text_10">
      <!-- 100 -->
      <g transform="translate(28.76125 250.911176) scale(0.15 -0.15)">
       <use xlink:href="#DejaVuSans-31"/>
       <use xlink:href="#DejaVuSans-30" transform="translate(63.623047 0)"/>
       <use xlink:href="#DejaVuSans-30" transform="translate(127.246094 0)"/>
      </g>
     </g>
    </g>
    <g id="ytick_4">
     <g id="line2d_10">
      <g>
       <use xlink:href="#mcfd860cd6e" x="64.3925" y="213.918522" style="stroke: #000000; stroke-width: 0.8"/>
      </g>
     </g>
     <g id="text_11">
      <!-- 150 -->
      <g transform="translate(28.76125 219.61735) scale(0.15 -0.15)">
       <use xlink:href="#DejaVuSans-31"/>
       <use xlink:href="#DejaVuSans-35" transform="translate(63.623047 0)"/>
       <use xlink:href="#DejaVuSans-30" transform="translate(127.246094 0)"/>
      </g>
     </g>
    </g>
    <g id="ytick_5">
     <g id="line2d_11">
      <g>
       <use xlink:href="#mcfd860cd6e" x="64.3925" y="182.624696" style="stroke: #000000; stroke-width: 0.8"/>
      </g>
     </g>
     <g id="text_12">
      <!-- 200 -->
      <g transform="translate(28.76125 188.323524) scale(0.15 -0.15)">
       <use xlink:href="#DejaVuSans-32"/>
       <use xlink:href="#DejaVuSans-30" transform="translate(63.623047 0)"/>
       <use xlink:href="#DejaVuSans-30" transform="translate(127.246094 0)"/>
      </g>
     </g>
    </g>
    <g id="ytick_6">
     <g id="line2d_12">
      <g>
       <use xlink:href="#mcfd860cd6e" x="64.3925" y="151.33087" style="stroke: #000000; stroke-width: 0.8"/>
      </g>
     </g>
     <g id="text_13">
      <!-- 250 -->
      <g transform="translate(28.76125 157.029698) scale(0.15 -0.15)">
       <use xlink:href="#DejaVuSans-32"/>
       <use xlink:href="#DejaVuSans-35" transform="translate(63.623047 0)"/>
       <use xlink:href="#DejaVuSans-30" transform="translate(127.246094 0)"/>
      </g>
     </g>
    </g>
    <g id="ytick_7">
     <g id="line2d_13">
      <g>
       <use xlink:href="#mcfd860cd6e" x="64.3925" y="120.037044" style="stroke: #000000; stroke-width: 0.8"/>
      </g>
     </g>
     <g id="text_14">
      <!-- 300 -->
      <g transform="translate(28.76125 125.735873) scale(0.15 -0.15)">
       <use xlink:href="#DejaVuSans-33"/>
       <use xlink:href="#DejaVuSans-30" transform="translate(63.623047 0)"/>
       <use xlink:href="#DejaVuSans-30" transform="translate(127.246094 0)"/>
      </g>
     </g>
    </g>
    <g id="ytick_8">
     <g id="line2d_14">
      <g>
       <use xlink:href="#mcfd860cd6e" x="64.3925" y="88.743218" style="stroke: #000000; stroke-width: 0.8"/>
      </g>
     </g>
     <g id="text_15">
      <!-- 350 -->
      <g transform="translate(28.76125 94.442047) scale(0.15 -0.15)">
       <use xlink:href="#DejaVuSans-33"/>
       <use xlink:href="#DejaVuSans-35" transform="translate(63.623047 0)"/>
       <use xlink:href="#DejaVuSans-30" transform="translate(127.246094 0)"/>
      </g>
     </g>
    </g>
    <g id="ytick_9">
     <g id="line2d_15">
      <g>
       <use xlink:href="#mcfd860cd6e" x="64.3925" y="57.449393" style="stroke: #000000; stroke-width: 0.8"/>
      </g>
     </g>
     <g id="text_16">
      <!-- 400 -->
      <g transform="translate(28.76125 63.148221) scale(0.15 -0.15)">
       <use xlink:href="#DejaVuSans-34"/>
       <use xlink:href="#DejaVuSans-30" transform="translate(63.623047 0)"/>
       <use xlink:href="#DejaVuSans-30" transform="translate(127.246094 0)"/>
      </g>
     </g>
    </g>
    <g id="text_17">
     <!-- rapamycin blood [nM] -->
     <g transform="translate(20.877187 293.092031) rotate(-90) scale(0.18 -0.18)">
      <defs>
       <path id="DejaVuSans-Bold-61" d="M 2106 1575 
Q 1756 1575 1579 1456 
Q 1403 1338 1403 1106 
Q 1403 894 1545 773 
Q 1688 653 1941 653 
Q 2256 653 2472 879 
Q 2688 1106 2688 1447 
L 2688 1575 
L 2106 1575 
z
M 3816 1997 
L 3816 0 
L 2688 0 
L 2688 519 
Q 2463 200 2181 54 
Q 1900 -91 1497 -91 
Q 953 -91 614 226 
Q 275 544 275 1050 
Q 275 1666 698 1953 
Q 1122 2241 2028 2241 
L 2688 2241 
L 2688 2328 
Q 2688 2594 2478 2717 
Q 2269 2841 1825 2841 
Q 1466 2841 1156 2769 
Q 847 2697 581 2553 
L 581 3406 
Q 941 3494 1303 3539 
Q 1666 3584 2028 3584 
Q 2975 3584 3395 3211 
Q 3816 2838 3816 1997 
z
" transform="scale(0.015625)"/>
       <path id="DejaVuSans-Bold-70" d="M 1656 506 
L 1656 -1331 
L 538 -1331 
L 538 3500 
L 1656 3500 
L 1656 2988 
Q 1888 3294 2169 3439 
Q 2450 3584 2816 3584 
Q 3463 3584 3878 3070 
Q 4294 2556 4294 1747 
Q 4294 938 3878 423 
Q 3463 -91 2816 -91 
Q 2450 -91 2169 54 
Q 1888 200 1656 506 
z
M 2400 2772 
Q 2041 2772 1848 2508 
Q 1656 2244 1656 1747 
Q 1656 1250 1848 986 
Q 2041 722 2400 722 
Q 2759 722 2948 984 
Q 3138 1247 3138 1747 
Q 3138 2247 2948 2509 
Q 2759 2772 2400 2772 
z
" transform="scale(0.015625)"/>
       <path id="DejaVuSans-Bold-79" d="M 78 3500 
L 1197 3500 
L 2138 1125 
L 2938 3500 
L 4056 3500 
L 2584 -331 
Q 2363 -916 2067 -1148 
Q 1772 -1381 1288 -1381 
L 641 -1381 
L 641 -647 
L 991 -647 
Q 1275 -647 1404 -556 
Q 1534 -466 1606 -231 
L 1638 -134 
L 78 3500 
z
" transform="scale(0.015625)"/>
       <path id="DejaVuSans-Bold-63" d="M 3366 3391 
L 3366 2478 
Q 3138 2634 2908 2709 
Q 2678 2784 2431 2784 
Q 1963 2784 1702 2511 
Q 1441 2238 1441 1747 
Q 1441 1256 1702 982 
Q 1963 709 2431 709 
Q 2694 709 2930 787 
Q 3166 866 3366 1019 
L 3366 103 
Q 3103 6 2833 -42 
Q 2563 -91 2291 -91 
Q 1344 -91 809 395 
Q 275 881 275 1747 
Q 275 2613 809 3098 
Q 1344 3584 2291 3584 
Q 2566 3584 2833 3536 
Q 3100 3488 3366 3391 
z
" transform="scale(0.015625)"/>
       <path id="DejaVuSans-Bold-6e" d="M 4056 2131 
L 4056 0 
L 2931 0 
L 2931 347 
L 2931 1631 
Q 2931 2084 2911 2256 
Q 2891 2428 2841 2509 
Q 2775 2619 2662 2680 
Q 2550 2741 2406 2741 
Q 2056 2741 1856 2470 
Q 1656 2200 1656 1722 
L 1656 0 
L 538 0 
L 538 3500 
L 1656 3500 
L 1656 2988 
Q 1909 3294 2193 3439 
Q 2478 3584 2822 3584 
Q 3428 3584 3742 3212 
Q 4056 2841 4056 2131 
z
" transform="scale(0.015625)"/>
       <path id="DejaVuSans-Bold-62" d="M 2400 722 
Q 2759 722 2948 984 
Q 3138 1247 3138 1747 
Q 3138 2247 2948 2509 
Q 2759 2772 2400 2772 
Q 2041 2772 1848 2508 
Q 1656 2244 1656 1747 
Q 1656 1250 1848 986 
Q 2041 722 2400 722 
z
M 1656 2988 
Q 1888 3294 2169 3439 
Q 2450 3584 2816 3584 
Q 3463 3584 3878 3070 
Q 4294 2556 4294 1747 
Q 4294 938 3878 423 
Q 3463 -91 2816 -91 
Q 2450 -91 2169 54 
Q 1888 200 1656 506 
L 1656 0 
L 538 0 
L 538 4863 
L 1656 4863 
L 1656 2988 
z
" transform="scale(0.015625)"/>
       <path id="DejaVuSans-Bold-6c" d="M 538 4863 
L 1656 4863 
L 1656 0 
L 538 0 
L 538 4863 
z
" transform="scale(0.015625)"/>
       <path id="DejaVuSans-Bold-6f" d="M 2203 2784 
Q 1831 2784 1636 2517 
Q 1441 2250 1441 1747 
Q 1441 1244 1636 976 
Q 1831 709 2203 709 
Q 2569 709 2762 976 
Q 2956 1244 2956 1747 
Q 2956 2250 2762 2517 
Q 2569 2784 2203 2784 
z
M 2203 3584 
Q 3106 3584 3614 3096 
Q 4122 2609 4122 1747 
Q 4122 884 3614 396 
Q 3106 -91 2203 -91 
Q 1297 -91 786 396 
Q 275 884 275 1747 
Q 275 2609 786 3096 
Q 1297 3584 2203 3584 
z
" transform="scale(0.015625)"/>
       <path id="DejaVuSans-Bold-64" d="M 2919 2988 
L 2919 4863 
L 4044 4863 
L 4044 0 
L 2919 0 
L 2919 506 
Q 2688 197 2409 53 
Q 2131 -91 1766 -91 
Q 1119 -91 703 423 
Q 288 938 288 1747 
Q 288 2556 703 3070 
Q 1119 3584 1766 3584 
Q 2128 3584 2408 3439 
Q 2688 3294 2919 2988 
z
M 2181 722 
Q 2541 722 2730 984 
Q 2919 1247 2919 1747 
Q 2919 2247 2730 2509 
Q 2541 2772 2181 2772 
Q 1825 2772 1636 2509 
Q 1447 2247 1447 1747 
Q 1447 1247 1636 984 
Q 1825 722 2181 722 
z
" transform="scale(0.015625)"/>
       <path id="DejaVuSans-Bold-4d" d="M 588 4666 
L 2119 4666 
L 3181 2169 
L 4250 4666 
L 5778 4666 
L 5778 0 
L 4641 0 
L 4641 3413 
L 3566 897 
L 2803 897 
L 1728 3413 
L 1728 0 
L 588 0 
L 588 4666 
z
" transform="scale(0.015625)"/>
      </defs>
      <use xlink:href="#DejaVuSans-Bold-72"/>
      <use xlink:href="#DejaVuSans-Bold-61" transform="translate(49.316406 0)"/>
      <use xlink:href="#DejaVuSans-Bold-70" transform="translate(116.796875 0)"/>
      <use xlink:href="#DejaVuSans-Bold-61" transform="translate(188.378906 0)"/>
      <use xlink:href="#DejaVuSans-Bold-6d" transform="translate(255.859375 0)"/>
      <use xlink:href="#DejaVuSans-Bold-79" transform="translate(360.058594 0)"/>
      <use xlink:href="#DejaVuSans-Bold-63" transform="translate(425.244141 0)"/>
      <use xlink:href="#DejaVuSans-Bold-69" transform="translate(484.521484 0)"/>
      <use xlink:href="#DejaVuSans-Bold-6e" transform="translate(518.798828 0)"/>
      <use xlink:href="#DejaVuSans-Bold-20" transform="translate(589.990234 0)"/>
      <use xlink:href="#DejaVuSans-Bold-62" transform="translate(624.804688 0)"/>
      <use xlink:href="#DejaVuSans-Bold-6c" transform="translate(696.386719 0)"/>
      <use xlink:href="#DejaVuSans-Bold-6f" transform="translate(730.664062 0)"/>
      <use xlink:href="#DejaVuSans-Bold-6f" transform="translate(799.365234 0)"/>
      <use xlink:href="#DejaVuSans-Bold-64" transform="translate(868.066406 0)"/>
      <use xlink:href="#DejaVuSans-Bold-20" transform="translate(939.648438 0)"/>
      <use xlink:href="#DejaVuSans-Bold-5b" transform="translate(974.462891 0)"/>
      <use xlink:href="#DejaVuSans-Bold-6e" transform="translate(1020.166016 0)"/>
      <use xlink:href="#DejaVuSans-Bold-4d" transform="translate(1091.357422 0)"/>
      <use xlink:href="#DejaVuSans-Bold-5d" transform="translate(1190.869141 0)"/>
     </g>
    </g>
   </g>
   <g id="LineCollection_1">
    <path d="M 83.887687 272.153425 
L 83.887687 222.14702 
" clip-path="url(#pbb90ca8203)" style="fill: none; stroke: #000000"/>
    <path d="M 85.628329 272.153425 
L 85.628329 55.8 
" clip-path="url(#pbb90ca8203)" style="fill: none; stroke: #000000"/>
    <path d="M 87.368971 191.998625 
L 87.368971 144.538983 
" clip-path="url(#pbb90ca8203)" style="fill: none; stroke: #000000"/>
    <path d="M 89.109612 204.315186 
L 89.109612 160.299286 
" clip-path="url(#pbb90ca8203)" style="fill: none; stroke: #000000"/>
    <path d="M 96.072179 238.64131 
L 96.072179 210.227403 
" clip-path="url(#pbb90ca8203)" style="fill: none; stroke: #000000"/>
    <path d="M 103.034746 252.929987 
L 103.034746 229.828782 
" clip-path="url(#pbb90ca8203)" style="fill: none; stroke: #000000"/>
    <path d="M 109.997313 264.722087 
L 109.997313 245.038193 
" clip-path="url(#pbb90ca8203)" style="fill: none; stroke: #000000"/>
    <path d="M 116.95988 268.613522 
L 116.95988 254.636211 
" clip-path="url(#pbb90ca8203)" style="fill: none; stroke: #000000"/>
    <path d="M 123.922447 275.030629 
L 123.922447 258.759336 
" clip-path="url(#pbb90ca8203)" style="fill: none; stroke: #000000"/>
    <path d="M 137.84758 282.073086 
L 137.84758 269.325674 
" clip-path="url(#pbb90ca8203)" style="fill: none; stroke: #000000"/>
    <path d="M 151.772714 285.124173 
L 151.772714 273.60208 
" clip-path="url(#pbb90ca8203)" style="fill: none; stroke: #000000"/>
    <path d="M 165.697848 288.434334 
L 165.697848 277.540575 
" clip-path="url(#pbb90ca8203)" style="fill: none; stroke: #000000"/>
    <path d="M 249.24865 293.222698 
L 249.24865 282.235576 
" clip-path="url(#pbb90ca8203)" style="fill: none; stroke: #000000"/>
    <path d="M 416.350254 297.712764 
L 416.350254 290.813798 
" clip-path="url(#pbb90ca8203)" style="fill: none; stroke: #000000"/>
   </g>
   <g id="LineCollection_2">
    <path d="M 83.887687 281.248208 
L 83.887687 243.542934 
" clip-path="url(#pbb90ca8203)" style="fill: none; stroke: #800080"/>
    <path d="M 85.628329 250.571823 
L 85.628329 183.199114 
" clip-path="url(#pbb90ca8203)" style="fill: none; stroke: #800080"/>
    <path d="M 87.368971 243.55109 
L 87.368971 178.37301 
" clip-path="url(#pbb90ca8203)" style="fill: none; stroke: #800080"/>
    <path d="M 89.109612 243.55109 
L 89.109612 188.296935 
" clip-path="url(#pbb90ca8203)" style="fill: none; stroke: #800080"/>
    <path d="M 96.072179 241.491088 
L 96.072179 205.188432 
" clip-path="url(#pbb90ca8203)" style="fill: none; stroke: #800080"/>
    <path d="M 103.034746 244.223437 
L 103.034746 217.715482 
" clip-path="url(#pbb90ca8203)" style="fill: none; stroke: #800080"/>
    <path d="M 109.997313 254.072376 
L 109.997313 230.297607 
" clip-path="url(#pbb90ca8203)" style="fill: none; stroke: #800080"/>
    <path d="M 116.95988 267.780316 
L 116.95988 238.079659 
" clip-path="url(#pbb90ca8203)" style="fill: none; stroke: #800080"/>
    <path d="M 123.922447 277.035078 
L 123.922447 252.409097 
" clip-path="url(#pbb90ca8203)" style="fill: none; stroke: #800080"/>
    <path d="M 137.84758 281.801014 
L 137.84758 269.624755 
" clip-path="url(#pbb90ca8203)" style="fill: none; stroke: #800080"/>
    <path d="M 151.772714 284.884368 
L 151.772714 275.909397 
" clip-path="url(#pbb90ca8203)" style="fill: none; stroke: #800080"/>
    <path d="M 165.697848 288.229535 
L 165.697848 279.569497 
" clip-path="url(#pbb90ca8203)" style="fill: none; stroke: #800080"/>
    <path d="M 249.24865 293.068537 
L 249.24865 287.667617 
" clip-path="url(#pbb90ca8203)" style="fill: none; stroke: #800080"/>
    <path d="M 416.350254 297.818324 
L 416.350254 291.81291 
" clip-path="url(#pbb90ca8203)" style="fill: none; stroke: #800080"/>
   </g>
   <g id="line2d_16">
    <path d="M 82.147045 307.8 
L 82.324591 307.537693 
L 82.502136 306.053709 
L 82.857227 300.132433 
L 84.277591 273.194307 
L 85.165318 261.559817 
L 85.8755 254.776563 
L 86.585682 249.759535 
L 87.295864 246.151656 
L 88.006045 243.663507 
L 88.716227 242.060956 
L 89.248864 241.324998 
L 89.7815 240.914107 
L 90.314136 240.772215 
L 90.846773 240.851706 
L 91.556955 241.233173 
L 92.444682 242.044622 
L 93.509955 243.354722 
L 95.107864 245.707372 
L 101.144409 254.936849 
L 103.4525 257.917747 
L 105.760591 260.52129 
L 108.068682 262.781102 
L 110.376773 264.743511 
L 112.862409 266.57811 
L 115.703136 268.386771 
L 118.721409 270.042299 
L 122.094773 271.643206 
L 126.000773 273.250955 
L 130.616955 274.905128 
L 136.120864 276.634565 
L 142.867591 278.510409 
L 151.034682 280.538809 
L 160.622136 282.683277 
L 171.452409 284.873576 
L 183.170409 287.016193 
L 195.776136 289.093435 
L 209.092045 291.061114 
L 223.295682 292.931917 
L 238.387045 294.690962 
L 254.366136 296.327153 
L 271.4105 297.847965 
L 289.875227 299.268881 
L 309.760318 300.573077 
L 331.420864 301.767913 
L 355.211955 302.853913 
L 381.488682 303.827634 
L 410.961227 304.693604 
L 437.237955 305.305152 
L 437.237955 305.305152 
" clip-path="url(#pbb90ca8203)" style="fill: none; stroke: #000000; stroke-width: 2; stroke-linecap: square"/>
   </g>
   <g id="line2d_17">
    <path d="M 83.887687 247.150223 
L 85.628329 163.976713 
L 87.368971 168.268804 
L 89.109612 182.307236 
L 96.072179 224.434357 
L 103.034746 241.379384 
L 109.997313 254.88014 
L 116.95988 261.624867 
L 123.922447 266.894983 
L 137.84758 275.69938 
L 151.772714 279.363127 
L 165.697848 282.987455 
L 249.24865 287.729137 
L 416.350254 294.263281 
" clip-path="url(#pbb90ca8203)" style="fill: none; stroke-dasharray: 3.7,1.6; stroke-dashoffset: 0; stroke: #000000"/>
    <defs>
     <path id="m4ee3ae701e" d="M -3 3 
L 3 3 
L 3 -3 
L -3 -3 
z
" style="stroke: #000000; stroke-linejoin: miter"/>
    </defs>
    <g clip-path="url(#pbb90ca8203)">
     <use xlink:href="#m4ee3ae701e" x="83.887687" y="247.150223" style="stroke: #000000; stroke-linejoin: miter"/>
     <use xlink:href="#m4ee3ae701e" x="85.628329" y="163.976713" style="stroke: #000000; stroke-linejoin: miter"/>
     <use xlink:href="#m4ee3ae701e" x="87.368971" y="168.268804" style="stroke: #000000; stroke-linejoin: miter"/>
     <use xlink:href="#m4ee3ae701e" x="89.109612" y="182.307236" style="stroke: #000000; stroke-linejoin: miter"/>
     <use xlink:href="#m4ee3ae701e" x="96.072179" y="224.434357" style="stroke: #000000; stroke-linejoin: miter"/>
     <use xlink:href="#m4ee3ae701e" x="103.034746" y="241.379384" style="stroke: #000000; stroke-linejoin: miter"/>
     <use xlink:href="#m4ee3ae701e" x="109.997313" y="254.88014" style="stroke: #000000; stroke-linejoin: miter"/>
     <use xlink:href="#m4ee3ae701e" x="116.95988" y="261.624867" style="stroke: #000000; stroke-linejoin: miter"/>
     <use xlink:href="#m4ee3ae701e" x="123.922447" y="266.894983" style="stroke: #000000; stroke-linejoin: miter"/>
     <use xlink:href="#m4ee3ae701e" x="137.84758" y="275.69938" style="stroke: #000000; stroke-linejoin: miter"/>
     <use xlink:href="#m4ee3ae701e" x="151.772714" y="279.363127" style="stroke: #000000; stroke-linejoin: miter"/>
     <use xlink:href="#m4ee3ae701e" x="165.697848" y="282.987455" style="stroke: #000000; stroke-linejoin: miter"/>
     <use xlink:href="#m4ee3ae701e" x="249.24865" y="287.729137" style="stroke: #000000; stroke-linejoin: miter"/>
     <use xlink:href="#m4ee3ae701e" x="416.350254" y="294.263281" style="stroke: #000000; stroke-linejoin: miter"/>
    </g>
   </g>
   <g id="line2d_18">
    <path d="M 82.147045 307.8 
L 82.324591 307.616158 
L 82.502136 306.574122 
L 82.857227 302.396901 
L 84.277591 282.93024 
L 85.165318 274.101044 
L 86.053045 267.550521 
L 86.940773 262.757744 
L 87.8285 259.314754 
L 88.538682 257.317511 
L 89.248864 255.852893 
L 89.959045 254.816919 
L 90.669227 254.125047 
L 91.379409 253.708577 
L 92.089591 253.51172 
L 92.977318 253.506354 
L 94.042591 253.762895 
L 95.285409 254.312952 
L 97.060864 255.382057 
L 100.079136 257.524819 
L 105.583045 261.430997 
L 109.3115 263.789782 
L 113.039955 265.891812 
L 117.1235 267.936794 
L 121.562136 269.909353 
L 126.533409 271.873623 
L 132.214864 273.87333 
L 138.6065 275.884798 
L 146.063409 277.990473 
L 154.408045 280.112473 
L 163.817955 282.274753 
L 174.293136 284.451123 
L 185.656045 286.583585 
L 197.906682 288.65483 
L 211.045045 290.646942 
L 224.893591 292.520469 
L 239.629864 294.288904 
L 255.431409 295.958013 
L 272.298227 297.512622 
L 290.407864 298.955283 
L 309.937864 300.285198 
L 331.243318 301.509022 
L 354.501773 302.618658 
L 380.245864 303.620159 
L 409.008227 304.511933 
L 437.237955 305.201927 
L 437.237955 305.201927 
" clip-path="url(#pbb90ca8203)" style="fill: none; stroke: #800080; stroke-width: 2; stroke-linecap: square"/>
   </g>
   <g id="line2d_19">
    <path d="M 83.887687 262.395571 
L 85.628329 216.885468 
L 87.368971 210.96205 
L 89.109612 215.924013 
L 96.072179 223.33976 
L 103.034746 230.969459 
L 109.997313 242.184992 
L 116.95988 252.929987 
L 123.922447 264.722087 
L 137.84758 275.712885 
L 151.772714 280.396883 
L 165.697848 283.899516 
L 249.24865 290.368077 
L 416.350254 294.815617 
" clip-path="url(#pbb90ca8203)" style="fill: none; stroke-dasharray: 3.7,1.6; stroke-dashoffset: 0; stroke: #800080"/>
    <defs>
     <path id="m3e20c3acd0" d="M -3 3 
L 3 3 
L 3 -3 
L -3 -3 
z
" style="stroke: #000000; stroke-linejoin: miter"/>
    </defs>
    <g clip-path="url(#pbb90ca8203)">
     <use xlink:href="#m3e20c3acd0" x="83.887687" y="262.395571" style="fill: #800080; stroke: #000000; stroke-linejoin: miter"/>
     <use xlink:href="#m3e20c3acd0" x="85.628329" y="216.885468" style="fill: #800080; stroke: #000000; stroke-linejoin: miter"/>
     <use xlink:href="#m3e20c3acd0" x="87.368971" y="210.96205" style="fill: #800080; stroke: #000000; stroke-linejoin: miter"/>
     <use xlink:href="#m3e20c3acd0" x="89.109612" y="215.924013" style="fill: #800080; stroke: #000000; stroke-linejoin: miter"/>
     <use xlink:href="#m3e20c3acd0" x="96.072179" y="223.33976" style="fill: #800080; stroke: #000000; stroke-linejoin: miter"/>
     <use xlink:href="#m3e20c3acd0" x="103.034746" y="230.969459" style="fill: #800080; stroke: #000000; stroke-linejoin: miter"/>
     <use xlink:href="#m3e20c3acd0" x="109.997313" y="242.184992" style="fill: #800080; stroke: #000000; stroke-linejoin: miter"/>
     <use xlink:href="#m3e20c3acd0" x="116.95988" y="252.929987" style="fill: #800080; stroke: #000000; stroke-linejoin: miter"/>
     <use xlink:href="#m3e20c3acd0" x="123.922447" y="264.722087" style="fill: #800080; stroke: #000000; stroke-linejoin: miter"/>
     <use xlink:href="#m3e20c3acd0" x="137.84758" y="275.712885" style="fill: #800080; stroke: #000000; stroke-linejoin: miter"/>
     <use xlink:href="#m3e20c3acd0" x="151.772714" y="280.396883" style="fill: #800080; stroke: #000000; stroke-linejoin: miter"/>
     <use xlink:href="#m3e20c3acd0" x="165.697848" y="283.899516" style="fill: #800080; stroke: #000000; stroke-linejoin: miter"/>
     <use xlink:href="#m3e20c3acd0" x="249.24865" y="290.368077" style="fill: #800080; stroke: #000000; stroke-linejoin: miter"/>
     <use xlink:href="#m3e20c3acd0" x="416.350254" y="294.815617" style="fill: #800080; stroke: #000000; stroke-linejoin: miter"/>
    </g>
   </g>
   <g id="patch_3">
    <path d="M 64.3925 320.4 
L 64.3925 43.2 
" style="fill: none; stroke: #000000; stroke-width: 0.8; stroke-linejoin: miter; stroke-linecap: square"/>
   </g>
   <g id="patch_4">
    <path d="M 454.9925 320.4 
L 454.9925 43.2 
" style="fill: none; stroke: #000000; stroke-width: 0.8; stroke-linejoin: miter; stroke-linecap: square"/>
   </g>
   <g id="patch_5">
    <path d="M 64.3925 320.4 
L 454.9925 320.4 
" style="fill: none; stroke: #000000; stroke-width: 0.8; stroke-linejoin: miter; stroke-linecap: square"/>
   </g>
   <g id="patch_6">
    <path d="M 64.3925 43.2 
L 454.9925 43.2 
" style="fill: none; stroke: #000000; stroke-width: 0.8; stroke-linejoin: miter; stroke-linecap: square"/>
   </g>
   <g id="legend_1">
    <g id="patch_7">
     <path d="M 330.22375 109.9125 
L 447.9925 109.9125 
Q 449.9925 109.9125 449.9925 107.9125 
L 449.9925 50.2 
Q 449.9925 48.2 447.9925 48.2 
L 330.22375 48.2 
Q 328.22375 48.2 328.22375 50.2 
L 328.22375 107.9125 
Q 328.22375 109.9125 330.22375 109.9125 
z
" style="fill: #ffffff; opacity: 0.8; stroke: #cccccc; stroke-linejoin: miter"/>
    </g>
    <g id="line2d_20">
     <path d="M 332.22375 56.298437 
L 352.22375 56.298437 
" style="fill: none; stroke: #000000; stroke-width: 2; stroke-linecap: square"/>
    </g>
    <g id="line2d_21"/>
    <g id="text_18">
     <!-- fasted -->
     <g transform="translate(360.22375 59.798437) scale(0.1 -0.1)">
      <defs>
       <path id="DejaVuSans-66" d="M 2375 4863 
L 2375 4384 
L 1825 4384 
Q 1516 4384 1395 4259 
Q 1275 4134 1275 3809 
L 1275 3500 
L 2222 3500 
L 2222 3053 
L 1275 3053 
L 1275 0 
L 697 0 
L 697 3053 
L 147 3053 
L 147 3500 
L 697 3500 
L 697 3744 
Q 697 4328 969 4595 
Q 1241 4863 1831 4863 
L 2375 4863 
z
" transform="scale(0.015625)"/>
       <path id="DejaVuSans-61" d="M 2194 1759 
Q 1497 1759 1228 1600 
Q 959 1441 959 1056 
Q 959 750 1161 570 
Q 1363 391 1709 391 
Q 2188 391 2477 730 
Q 2766 1069 2766 1631 
L 2766 1759 
L 2194 1759 
z
M 3341 1997 
L 3341 0 
L 2766 0 
L 2766 531 
Q 2569 213 2275 61 
Q 1981 -91 1556 -91 
Q 1019 -91 701 211 
Q 384 513 384 1019 
Q 384 1609 779 1909 
Q 1175 2209 1959 2209 
L 2766 2209 
L 2766 2266 
Q 2766 2663 2505 2880 
Q 2244 3097 1772 3097 
Q 1472 3097 1187 3025 
Q 903 2953 641 2809 
L 641 3341 
Q 956 3463 1253 3523 
Q 1550 3584 1831 3584 
Q 2591 3584 2966 3190 
Q 3341 2797 3341 1997 
z
" transform="scale(0.015625)"/>
       <path id="DejaVuSans-73" d="M 2834 3397 
L 2834 2853 
Q 2591 2978 2328 3040 
Q 2066 3103 1784 3103 
Q 1356 3103 1142 2972 
Q 928 2841 928 2578 
Q 928 2378 1081 2264 
Q 1234 2150 1697 2047 
L 1894 2003 
Q 2506 1872 2764 1633 
Q 3022 1394 3022 966 
Q 3022 478 2636 193 
Q 2250 -91 1575 -91 
Q 1294 -91 989 -36 
Q 684 19 347 128 
L 347 722 
Q 666 556 975 473 
Q 1284 391 1588 391 
Q 1994 391 2212 530 
Q 2431 669 2431 922 
Q 2431 1156 2273 1281 
Q 2116 1406 1581 1522 
L 1381 1569 
Q 847 1681 609 1914 
Q 372 2147 372 2553 
Q 372 3047 722 3315 
Q 1072 3584 1716 3584 
Q 2034 3584 2315 3537 
Q 2597 3491 2834 3397 
z
" transform="scale(0.015625)"/>
       <path id="DejaVuSans-74" d="M 1172 4494 
L 1172 3500 
L 2356 3500 
L 2356 3053 
L 1172 3053 
L 1172 1153 
Q 1172 725 1289 603 
Q 1406 481 1766 481 
L 2356 481 
L 2356 0 
L 1766 0 
Q 1100 0 847 248 
Q 594 497 594 1153 
L 594 3053 
L 172 3053 
L 172 3500 
L 594 3500 
L 594 4494 
L 1172 4494 
z
" transform="scale(0.015625)"/>
       <path id="DejaVuSans-65" d="M 3597 1894 
L 3597 1613 
L 953 1613 
Q 991 1019 1311 708 
Q 1631 397 2203 397 
Q 2534 397 2845 478 
Q 3156 559 3463 722 
L 3463 178 
Q 3153 47 2828 -22 
Q 2503 -91 2169 -91 
Q 1331 -91 842 396 
Q 353 884 353 1716 
Q 353 2575 817 3079 
Q 1281 3584 2069 3584 
Q 2775 3584 3186 3129 
Q 3597 2675 3597 1894 
z
M 3022 2063 
Q 3016 2534 2758 2815 
Q 2500 3097 2075 3097 
Q 1594 3097 1305 2825 
Q 1016 2553 972 2059 
L 3022 2063 
z
" transform="scale(0.015625)"/>
       <path id="DejaVuSans-64" d="M 2906 2969 
L 2906 4863 
L 3481 4863 
L 3481 0 
L 2906 0 
L 2906 525 
Q 2725 213 2448 61 
Q 2172 -91 1784 -91 
Q 1150 -91 751 415 
Q 353 922 353 1747 
Q 353 2572 751 3078 
Q 1150 3584 1784 3584 
Q 2172 3584 2448 3432 
Q 2725 3281 2906 2969 
z
M 947 1747 
Q 947 1113 1208 752 
Q 1469 391 1925 391 
Q 2381 391 2643 752 
Q 2906 1113 2906 1747 
Q 2906 2381 2643 2742 
Q 2381 3103 1925 3103 
Q 1469 3103 1208 2742 
Q 947 2381 947 1747 
z
" transform="scale(0.015625)"/>
      </defs>
      <use xlink:href="#DejaVuSans-66"/>
      <use xlink:href="#DejaVuSans-61" transform="translate(35.205078 0)"/>
      <use xlink:href="#DejaVuSans-73" transform="translate(96.484375 0)"/>
      <use xlink:href="#DejaVuSans-74" transform="translate(148.583984 0)"/>
      <use xlink:href="#DejaVuSans-65" transform="translate(187.792969 0)"/>
      <use xlink:href="#DejaVuSans-64" transform="translate(249.316406 0)"/>
     </g>
    </g>
    <g id="LineCollection_3">
     <path d="M 342.22375 75.976562 
L 342.22375 65.976562 
" style="fill: none; stroke: #000000"/>
    </g>
    <g id="line2d_22">
     <path d="M 332.22375 70.976562 
L 352.22375 70.976562 
" style="fill: none; stroke-dasharray: 3.7,1.6; stroke-dashoffset: 0; stroke: #000000"/>
    </g>
    <g id="line2d_23">
     <g>
      <use xlink:href="#m4ee3ae701e" x="342.22375" y="70.976562" style="stroke: #000000; stroke-linejoin: miter"/>
     </g>
    </g>
    <g id="text_19">
     <!-- fasted±SD (n=8) -->
     <g transform="translate(360.22375 74.476562) scale(0.1 -0.1)">
      <defs>
       <path id="DejaVuSans-b1" d="M 2944 4013 
L 2944 2803 
L 4684 2803 
L 4684 2272 
L 2944 2272 
L 2944 1063 
L 2419 1063 
L 2419 2272 
L 678 2272 
L 678 2803 
L 2419 2803 
L 2419 4013 
L 2944 4013 
z
M 678 531 
L 4684 531 
L 4684 0 
L 678 0 
L 678 531 
z
" transform="scale(0.015625)"/>
       <path id="DejaVuSans-53" d="M 3425 4513 
L 3425 3897 
Q 3066 4069 2747 4153 
Q 2428 4238 2131 4238 
Q 1616 4238 1336 4038 
Q 1056 3838 1056 3469 
Q 1056 3159 1242 3001 
Q 1428 2844 1947 2747 
L 2328 2669 
Q 3034 2534 3370 2195 
Q 3706 1856 3706 1288 
Q 3706 609 3251 259 
Q 2797 -91 1919 -91 
Q 1588 -91 1214 -16 
Q 841 59 441 206 
L 441 856 
Q 825 641 1194 531 
Q 1563 422 1919 422 
Q 2459 422 2753 634 
Q 3047 847 3047 1241 
Q 3047 1584 2836 1778 
Q 2625 1972 2144 2069 
L 1759 2144 
Q 1053 2284 737 2584 
Q 422 2884 422 3419 
Q 422 4038 858 4394 
Q 1294 4750 2059 4750 
Q 2388 4750 2728 4690 
Q 3069 4631 3425 4513 
z
" transform="scale(0.015625)"/>
       <path id="DejaVuSans-44" d="M 1259 4147 
L 1259 519 
L 2022 519 
Q 2988 519 3436 956 
Q 3884 1394 3884 2338 
Q 3884 3275 3436 3711 
Q 2988 4147 2022 4147 
L 1259 4147 
z
M 628 4666 
L 1925 4666 
Q 3281 4666 3915 4102 
Q 4550 3538 4550 2338 
Q 4550 1131 3912 565 
Q 3275 0 1925 0 
L 628 0 
L 628 4666 
z
" transform="scale(0.015625)"/>
       <path id="DejaVuSans-20" transform="scale(0.015625)"/>
       <path id="DejaVuSans-28" d="M 1984 4856 
Q 1566 4138 1362 3434 
Q 1159 2731 1159 2009 
Q 1159 1288 1364 580 
Q 1569 -128 1984 -844 
L 1484 -844 
Q 1016 -109 783 600 
Q 550 1309 550 2009 
Q 550 2706 781 3412 
Q 1013 4119 1484 4856 
L 1984 4856 
z
" transform="scale(0.015625)"/>
       <path id="DejaVuSans-6e" d="M 3513 2113 
L 3513 0 
L 2938 0 
L 2938 2094 
Q 2938 2591 2744 2837 
Q 2550 3084 2163 3084 
Q 1697 3084 1428 2787 
Q 1159 2491 1159 1978 
L 1159 0 
L 581 0 
L 581 3500 
L 1159 3500 
L 1159 2956 
Q 1366 3272 1645 3428 
Q 1925 3584 2291 3584 
Q 2894 3584 3203 3211 
Q 3513 2838 3513 2113 
z
" transform="scale(0.015625)"/>
       <path id="DejaVuSans-3d" d="M 678 2906 
L 4684 2906 
L 4684 2381 
L 678 2381 
L 678 2906 
z
M 678 1631 
L 4684 1631 
L 4684 1100 
L 678 1100 
L 678 1631 
z
" transform="scale(0.015625)"/>
       <path id="DejaVuSans-38" d="M 2034 2216 
Q 1584 2216 1326 1975 
Q 1069 1734 1069 1313 
Q 1069 891 1326 650 
Q 1584 409 2034 409 
Q 2484 409 2743 651 
Q 3003 894 3003 1313 
Q 3003 1734 2745 1975 
Q 2488 2216 2034 2216 
z
M 1403 2484 
Q 997 2584 770 2862 
Q 544 3141 544 3541 
Q 544 4100 942 4425 
Q 1341 4750 2034 4750 
Q 2731 4750 3128 4425 
Q 3525 4100 3525 3541 
Q 3525 3141 3298 2862 
Q 3072 2584 2669 2484 
Q 3125 2378 3379 2068 
Q 3634 1759 3634 1313 
Q 3634 634 3220 271 
Q 2806 -91 2034 -91 
Q 1263 -91 848 271 
Q 434 634 434 1313 
Q 434 1759 690 2068 
Q 947 2378 1403 2484 
z
M 1172 3481 
Q 1172 3119 1398 2916 
Q 1625 2713 2034 2713 
Q 2441 2713 2670 2916 
Q 2900 3119 2900 3481 
Q 2900 3844 2670 4047 
Q 2441 4250 2034 4250 
Q 1625 4250 1398 4047 
Q 1172 3844 1172 3481 
z
" transform="scale(0.015625)"/>
       <path id="DejaVuSans-29" d="M 513 4856 
L 1013 4856 
Q 1481 4119 1714 3412 
Q 1947 2706 1947 2009 
Q 1947 1309 1714 600 
Q 1481 -109 1013 -844 
L 513 -844 
Q 928 -128 1133 580 
Q 1338 1288 1338 2009 
Q 1338 2731 1133 3434 
Q 928 4138 513 4856 
z
" transform="scale(0.015625)"/>
      </defs>
      <use xlink:href="#DejaVuSans-66"/>
      <use xlink:href="#DejaVuSans-61" transform="translate(35.205078 0)"/>
      <use xlink:href="#DejaVuSans-73" transform="translate(96.484375 0)"/>
      <use xlink:href="#DejaVuSans-74" transform="translate(148.583984 0)"/>
      <use xlink:href="#DejaVuSans-65" transform="translate(187.792969 0)"/>
      <use xlink:href="#DejaVuSans-64" transform="translate(249.316406 0)"/>
      <use xlink:href="#DejaVuSans-b1" transform="translate(312.792969 0)"/>
      <use xlink:href="#DejaVuSans-53" transform="translate(396.582031 0)"/>
      <use xlink:href="#DejaVuSans-44" transform="translate(460.058594 0)"/>
      <use xlink:href="#DejaVuSans-20" transform="translate(537.060547 0)"/>
      <use xlink:href="#DejaVuSans-28" transform="translate(568.847656 0)"/>
      <use xlink:href="#DejaVuSans-6e" transform="translate(607.861328 0)"/>
      <use xlink:href="#DejaVuSans-3d" transform="translate(671.240234 0)"/>
      <use xlink:href="#DejaVuSans-38" transform="translate(755.029297 0)"/>
      <use xlink:href="#DejaVuSans-29" transform="translate(818.652344 0)"/>
     </g>
    </g>
    <g id="line2d_24">
     <path d="M 332.22375 85.654687 
L 352.22375 85.654687 
" style="fill: none; stroke: #800080; stroke-width: 2; stroke-linecap: square"/>
    </g>
    <g id="line2d_25"/>
    <g id="text_20">
     <!-- fed -->
     <g transform="translate(360.22375 89.154687) scale(0.1 -0.1)">
      <use xlink:href="#DejaVuSans-66"/>
      <use xlink:href="#DejaVuSans-65" transform="translate(35.205078 0)"/>
      <use xlink:href="#DejaVuSans-64" transform="translate(96.728516 0)"/>
     </g>
    </g>
    <g id="LineCollection_4">
     <path d="M 342.22375 105.332812 
L 342.22375 95.332812 
" style="fill: none; stroke: #800080"/>
    </g>
    <g id="line2d_26">
     <path d="M 332.22375 100.332812 
L 352.22375 100.332812 
" style="fill: none; stroke-dasharray: 3.7,1.6; stroke-dashoffset: 0; stroke: #800080"/>
    </g>
    <g id="line2d_27">
     <g>
      <use xlink:href="#m3e20c3acd0" x="342.22375" y="100.332812" style="fill: #800080; stroke: #000000; stroke-linejoin: miter"/>
     </g>
    </g>
    <g id="text_21">
     <!-- fed±SD (n=8) -->
     <g transform="translate(360.22375 103.832812) scale(0.1 -0.1)">
      <use xlink:href="#DejaVuSans-66"/>
      <use xlink:href="#DejaVuSans-65" transform="translate(35.205078 0)"/>
      <use xlink:href="#DejaVuSans-64" transform="translate(96.728516 0)"/>
      <use xlink:href="#DejaVuSans-b1" transform="translate(160.205078 0)"/>
      <use xlink:href="#DejaVuSans-53" transform="translate(243.994141 0)"/>
      <use xlink:href="#DejaVuSans-44" transform="translate(307.470703 0)"/>
      <use xlink:href="#DejaVuSans-20" transform="translate(384.472656 0)"/>
      <use xlink:href="#DejaVuSans-28" transform="translate(416.259766 0)"/>
      <use xlink:href="#DejaVuSans-6e" transform="translate(455.273438 0)"/>
      <use xlink:href="#DejaVuSans-3d" transform="translate(518.652344 0)"/>
      <use xlink:href="#DejaVuSans-38" transform="translate(602.441406 0)"/>
      <use xlink:href="#DejaVuSans-29" transform="translate(666.064453 0)"/>
     </g>
    </g>
   </g>
  </g>
  <g id="text_22">
   <!-- BasaDenes2019 (food) -->
   <g transform="translate(93.755781 26.196094) scale(0.25 -0.25)">
    <defs>
     <path id="DejaVuSans-Bold-42" d="M 2456 2859 
Q 2741 2859 2887 2984 
Q 3034 3109 3034 3353 
Q 3034 3594 2887 3720 
Q 2741 3847 2456 3847 
L 1791 3847 
L 1791 2859 
L 2456 2859 
z
M 2497 819 
Q 2859 819 3042 972 
Q 3225 1125 3225 1434 
Q 3225 1738 3044 1889 
Q 2863 2041 2497 2041 
L 1791 2041 
L 1791 819 
L 2497 819 
z
M 3616 2497 
Q 4003 2384 4215 2081 
Q 4428 1778 4428 1338 
Q 4428 663 3972 331 
Q 3516 0 2584 0 
L 588 0 
L 588 4666 
L 2394 4666 
Q 3366 4666 3802 4372 
Q 4238 4078 4238 3431 
Q 4238 3091 4078 2852 
Q 3919 2613 3616 2497 
z
" transform="scale(0.015625)"/>
     <path id="DejaVuSans-Bold-73" d="M 3272 3391 
L 3272 2541 
Q 2913 2691 2578 2766 
Q 2244 2841 1947 2841 
Q 1628 2841 1473 2761 
Q 1319 2681 1319 2516 
Q 1319 2381 1436 2309 
Q 1553 2238 1856 2203 
L 2053 2175 
Q 2913 2066 3209 1816 
Q 3506 1566 3506 1031 
Q 3506 472 3093 190 
Q 2681 -91 1863 -91 
Q 1516 -91 1145 -36 
Q 775 19 384 128 
L 384 978 
Q 719 816 1070 734 
Q 1422 653 1784 653 
Q 2113 653 2278 743 
Q 2444 834 2444 1013 
Q 2444 1163 2330 1236 
Q 2216 1309 1875 1350 
L 1678 1375 
Q 931 1469 631 1722 
Q 331 1975 331 2491 
Q 331 3047 712 3315 
Q 1094 3584 1881 3584 
Q 2191 3584 2531 3537 
Q 2872 3491 3272 3391 
z
" transform="scale(0.015625)"/>
     <path id="DejaVuSans-Bold-44" d="M 1791 3756 
L 1791 909 
L 2222 909 
Q 2959 909 3348 1275 
Q 3738 1641 3738 2338 
Q 3738 3031 3350 3393 
Q 2963 3756 2222 3756 
L 1791 3756 
z
M 588 4666 
L 1856 4666 
Q 2919 4666 3439 4514 
Q 3959 4363 4331 4000 
Q 4659 3684 4818 3271 
Q 4978 2859 4978 2338 
Q 4978 1809 4818 1395 
Q 4659 981 4331 666 
Q 3956 303 3431 151 
Q 2906 0 1856 0 
L 588 0 
L 588 4666 
z
" transform="scale(0.015625)"/>
     <path id="DejaVuSans-Bold-32" d="M 1844 884 
L 3897 884 
L 3897 0 
L 506 0 
L 506 884 
L 2209 2388 
Q 2438 2594 2547 2791 
Q 2656 2988 2656 3200 
Q 2656 3528 2436 3728 
Q 2216 3928 1850 3928 
Q 1569 3928 1234 3808 
Q 900 3688 519 3450 
L 519 4475 
Q 925 4609 1322 4679 
Q 1719 4750 2100 4750 
Q 2938 4750 3402 4381 
Q 3866 4013 3866 3353 
Q 3866 2972 3669 2642 
Q 3472 2313 2841 1759 
L 1844 884 
z
" transform="scale(0.015625)"/>
     <path id="DejaVuSans-Bold-30" d="M 2944 2338 
Q 2944 3213 2780 3570 
Q 2616 3928 2228 3928 
Q 1841 3928 1675 3570 
Q 1509 3213 1509 2338 
Q 1509 1453 1675 1090 
Q 1841 728 2228 728 
Q 2613 728 2778 1090 
Q 2944 1453 2944 2338 
z
M 4147 2328 
Q 4147 1169 3647 539 
Q 3147 -91 2228 -91 
Q 1306 -91 806 539 
Q 306 1169 306 2328 
Q 306 3491 806 4120 
Q 1306 4750 2228 4750 
Q 3147 4750 3647 4120 
Q 4147 3491 4147 2328 
z
" transform="scale(0.015625)"/>
     <path id="DejaVuSans-Bold-31" d="M 750 831 
L 1813 831 
L 1813 3847 
L 722 3622 
L 722 4441 
L 1806 4666 
L 2950 4666 
L 2950 831 
L 4013 831 
L 4013 0 
L 750 0 
L 750 831 
z
" transform="scale(0.015625)"/>
     <path id="DejaVuSans-Bold-39" d="M 641 103 
L 641 966 
Q 928 831 1190 764 
Q 1453 697 1709 697 
Q 2247 697 2547 995 
Q 2847 1294 2900 1881 
Q 2688 1725 2447 1647 
Q 2206 1569 1925 1569 
Q 1209 1569 770 1986 
Q 331 2403 331 3084 
Q 331 3838 820 4291 
Q 1309 4744 2131 4744 
Q 3044 4744 3544 4128 
Q 4044 3513 4044 2388 
Q 4044 1231 3459 570 
Q 2875 -91 1856 -91 
Q 1528 -91 1228 -42 
Q 928 6 641 103 
z
M 2125 2350 
Q 2441 2350 2600 2554 
Q 2759 2759 2759 3169 
Q 2759 3575 2600 3781 
Q 2441 3988 2125 3988 
Q 1809 3988 1650 3781 
Q 1491 3575 1491 3169 
Q 1491 2759 1650 2554 
Q 1809 2350 2125 2350 
z
" transform="scale(0.015625)"/>
     <path id="DejaVuSans-Bold-28" d="M 2413 -844 
L 1484 -844 
Q 1006 -72 778 623 
Q 550 1319 550 2003 
Q 550 2688 779 3389 
Q 1009 4091 1484 4856 
L 2413 4856 
Q 2013 4116 1813 3408 
Q 1613 2700 1613 2009 
Q 1613 1319 1811 609 
Q 2009 -100 2413 -844 
z
" transform="scale(0.015625)"/>
     <path id="DejaVuSans-Bold-66" d="M 2841 4863 
L 2841 4128 
L 2222 4128 
Q 1984 4128 1890 4042 
Q 1797 3956 1797 3744 
L 1797 3500 
L 2753 3500 
L 2753 2700 
L 1797 2700 
L 1797 0 
L 678 0 
L 678 2700 
L 122 2700 
L 122 3500 
L 678 3500 
L 678 3744 
Q 678 4316 997 4589 
Q 1316 4863 1984 4863 
L 2841 4863 
z
" transform="scale(0.015625)"/>
     <path id="DejaVuSans-Bold-29" d="M 513 -844 
Q 913 -100 1113 609 
Q 1313 1319 1313 2009 
Q 1313 2700 1113 3408 
Q 913 4116 513 4856 
L 1441 4856 
Q 1916 4091 2145 3389 
Q 2375 2688 2375 2003 
Q 2375 1319 2147 623 
Q 1919 -72 1441 -844 
L 513 -844 
z
" transform="scale(0.015625)"/>
    </defs>
    <use xlink:href="#DejaVuSans-Bold-42"/>
    <use xlink:href="#DejaVuSans-Bold-61" transform="translate(76.220703 0)"/>
    <use xlink:href="#DejaVuSans-Bold-73" transform="translate(143.701172 0)"/>
    <use xlink:href="#DejaVuSans-Bold-61" transform="translate(203.222656 0)"/>
    <use xlink:href="#DejaVuSans-Bold-44" transform="translate(270.703125 0)"/>
    <use xlink:href="#DejaVuSans-Bold-65" transform="translate(353.710938 0)"/>
    <use xlink:href="#DejaVuSans-Bold-6e" transform="translate(421.533203 0)"/>
    <use xlink:href="#DejaVuSans-Bold-65" transform="translate(492.724609 0)"/>
    <use xlink:href="#DejaVuSans-Bold-73" transform="translate(560.546875 0)"/>
    <use xlink:href="#DejaVuSans-Bold-32" transform="translate(620.068359 0)"/>
    <use xlink:href="#DejaVuSans-Bold-30" transform="translate(689.648438 0)"/>
    <use xlink:href="#DejaVuSans-Bold-31" transform="translate(759.228516 0)"/>
    <use xlink:href="#DejaVuSans-Bold-39" transform="translate(828.808594 0)"/>
    <use xlink:href="#DejaVuSans-Bold-20" transform="translate(898.388672 0)"/>
    <use xlink:href="#DejaVuSans-Bold-28" transform="translate(933.203125 0)"/>
    <use xlink:href="#DejaVuSans-Bold-66" transform="translate(978.90625 0)"/>
    <use xlink:href="#DejaVuSans-Bold-6f" transform="translate(1022.412109 0)"/>
    <use xlink:href="#DejaVuSans-Bold-6f" transform="translate(1091.113281 0)"/>
    <use xlink:href="#DejaVuSans-Bold-64" transform="translate(1159.814453 0)"/>
    <use xlink:href="#DejaVuSans-Bold-29" transform="translate(1231.396484 0)"/>
   </g>
  </g>
 </g>
 <defs>
  <clipPath id="pbb90ca8203">
   <rect x="64.3925" y="43.2" width="390.6" height="277.2"/>
  </clipPath>
 </defs>
</svg>
