<?xml version="1.0" encoding="utf-8" standalone="no"?>
<!DOCTYPE svg PUBLIC "-//W3C//DTD SVG 1.1//EN"
  "http://www.w3.org/Graphics/SVG/1.1/DTD/svg11.dtd">
<svg xmlns:xlink="http://www.w3.org/1999/xlink" width="720pt" height="360pt" viewBox="0 0 720 360" xmlns="http://www.w3.org/2000/svg" version="1.1">
 <metadata>
  <rdf:RDF xmlns:dc="http://purl.org/dc/elements/1.1/" xmlns:cc="http://creativecommons.org/ns#" xmlns:rdf="http://www.w3.org/1999/02/22-rdf-syntax-ns#">
   <cc:Work>
    <dc:type rdf:resource="http://purl.org/dc/dcmitype/StillImage"/>
    <dc:date>2025-09-22T14:58:15.851065</dc:date>
    <dc:format>image/svg+xml</dc:format>
    <dc:creator>
     <cc:Agent>
      <dc:title>Matplotlib v3.10.6, https://matplotlib.org/</dc:title>
     </cc:Agent>
    </dc:creator>
   </cc:Work>
  </rdf:RDF>
 </metadata>
 <defs>
  <style type="text/css">*{stroke-linejoin: round; stroke-linecap: butt}</style>
 </defs>
 <g id="figure_1">
  <g id="patch_1">
   <path d="M 0 360 
L 720 360 
L 720 0 
L 0 0 
z
" style="fill: #ffffff"/>
  </g>
  <g id="axes_1">
   <g id="patch_2">
    <path d="M 90 320.4 
L 343.636364 320.4 
L 343.636364 43.2 
L 90 43.2 
z
" style="fill: #ffffff"/>
   </g>
   <g id="matplotlib.axis_1">
    <g id="xtick_1">
     <g id="line2d_1">
      <defs>
       <path id="mad8321072e" d="M 0 0 
L 0 3.5 
" style="stroke: #000000; stroke-width: 0.8"/>
      </defs>
      <g>
       <use xlink:href="#mad8321072e" x="111.136364" y="320.4" style="stroke: #000000; stroke-width: 0.8"/>
      </g>
     </g>
     <g id="text_1">
      <!-- 0 -->
      <g transform="translate(107.955114 334.998438) scale(0.1 -0.1)">
       <defs>
        <path id="DejaVuSans-30" d="M 2034 4250 
Q 1547 4250 1301 3770 
Q 1056 3291 1056 2328 
Q 1056 1369 1301 889 
Q 1547 409 2034 409 
Q 2525 409 2770 889 
Q 3016 1369 3016 2328 
Q 3016 3291 2770 3770 
Q 2525 4250 2034 4250 
z
M 2034 4750 
Q 2819 4750 3233 4129 
Q 3647 3509 3647 2328 
Q 3647 1150 3233 529 
Q 2819 -91 2034 -91 
Q 1250 -91 836 529 
Q 422 1150 422 2328 
Q 422 3509 836 4129 
Q 1250 4750 2034 4750 
z
" transform="scale(0.015625)"/>
       </defs>
       <use xlink:href="#DejaVuSans-30"/>
      </g>
     </g>
    </g>
    <g id="xtick_2">
     <g id="line2d_2">
      <g>
       <use xlink:href="#mad8321072e" x="160.063131" y="320.4" style="stroke: #000000; stroke-width: 0.8"/>
      </g>
     </g>
     <g id="text_2">
      <!-- 2000 -->
      <g transform="translate(147.338131 334.998438) scale(0.1 -0.1)">
       <defs>
        <path id="DejaVuSans-32" d="M 1228 531 
L 3431 531 
L 3431 0 
L 469 0 
L 469 531 
Q 828 903 1448 1529 
Q 2069 2156 2228 2338 
Q 2531 2678 2651 2914 
Q 2772 3150 2772 3378 
Q 2772 3750 2511 3984 
Q 2250 4219 1831 4219 
Q 1534 4219 1204 4116 
Q 875 4013 500 3803 
L 500 4441 
Q 881 4594 1212 4672 
Q 1544 4750 1819 4750 
Q 2544 4750 2975 4387 
Q 3406 4025 3406 3419 
Q 3406 3131 3298 2873 
Q 3191 2616 2906 2266 
Q 2828 2175 2409 1742 
Q 1991 1309 1228 531 
z
" transform="scale(0.015625)"/>
       </defs>
       <use xlink:href="#DejaVuSans-32"/>
       <use xlink:href="#DejaVuSans-30" transform="translate(63.623047 0)"/>
       <use xlink:href="#DejaVuSans-30" transform="translate(127.246094 0)"/>
       <use xlink:href="#DejaVuSans-30" transform="translate(190.869141 0)"/>
      </g>
     </g>
    </g>
    <g id="xtick_3">
     <g id="line2d_3">
      <g>
       <use xlink:href="#mad8321072e" x="208.989899" y="320.4" style="stroke: #000000; stroke-width: 0.8"/>
      </g>
     </g>
     <g id="text_3">
      <!-- 4000 -->
      <g transform="translate(196.264899 334.998438) scale(0.1 -0.1)">
       <defs>
        <path id="DejaVuSans-34" d="M 2419 4116 
L 825 1625 
L 2419 1625 
L 2419 4116 
z
M 2253 4666 
L 3047 4666 
L 3047 1625 
L 3713 1625 
L 3713 1100 
L 3047 1100 
L 3047 0 
L 2419 0 
L 2419 1100 
L 313 1100 
L 313 1709 
L 2253 4666 
z
" transform="scale(0.015625)"/>
       </defs>
       <use xlink:href="#DejaVuSans-34"/>
       <use xlink:href="#DejaVuSans-30" transform="translate(63.623047 0)"/>
       <use xlink:href="#DejaVuSans-30" transform="translate(127.246094 0)"/>
       <use xlink:href="#DejaVuSans-30" transform="translate(190.869141 0)"/>
      </g>
     </g>
    </g>
    <g id="xtick_4">
     <g id="line2d_4">
      <g>
       <use xlink:href="#mad8321072e" x="257.916667" y="320.4" style="stroke: #000000; stroke-width: 0.8"/>
      </g>
     </g>
     <g id="text_4">
      <!-- 6000 -->
      <g transform="translate(245.191667 334.998438) scale(0.1 -0.1)">
       <defs>
        <path id="DejaVuSans-36" d="M 2113 2584 
Q 1688 2584 1439 2293 
Q 1191 2003 1191 1497 
Q 1191 994 1439 701 
Q 1688 409 2113 409 
Q 2538 409 2786 701 
Q 3034 994 3034 1497 
Q 3034 2003 2786 2293 
Q 2538 2584 2113 2584 
z
M 3366 4563 
L 3366 3988 
Q 3128 4100 2886 4159 
Q 2644 4219 2406 4219 
Q 1781 4219 1451 3797 
Q 1122 3375 1075 2522 
Q 1259 2794 1537 2939 
Q 1816 3084 2150 3084 
Q 2853 3084 3261 2657 
Q 3669 2231 3669 1497 
Q 3669 778 3244 343 
Q 2819 -91 2113 -91 
Q 1303 -91 875 529 
Q 447 1150 447 2328 
Q 447 3434 972 4092 
Q 1497 4750 2381 4750 
Q 2619 4750 2861 4703 
Q 3103 4656 3366 4563 
z
" transform="scale(0.015625)"/>
       </defs>
       <use xlink:href="#DejaVuSans-36"/>
       <use xlink:href="#DejaVuSans-30" transform="translate(63.623047 0)"/>
       <use xlink:href="#DejaVuSans-30" transform="translate(127.246094 0)"/>
       <use xlink:href="#DejaVuSans-30" transform="translate(190.869141 0)"/>
      </g>
     </g>
    </g>
    <g id="xtick_5">
     <g id="line2d_5">
      <g>
       <use xlink:href="#mad8321072e" x="306.843434" y="320.4" style="stroke: #000000; stroke-width: 0.8"/>
      </g>
     </g>
     <g id="text_5">
      <!-- 8000 -->
      <g transform="translate(294.118434 334.998438) scale(0.1 -0.1)">
       <defs>
        <path id="DejaVuSans-38" d="M 2034 2216 
Q 1584 2216 1326 1975 
Q 1069 1734 1069 1313 
Q 1069 891 1326 650 
Q 1584 409 2034 409 
Q 2484 409 2743 651 
Q 3003 894 3003 1313 
Q 3003 1734 2745 1975 
Q 2488 2216 2034 2216 
z
M 1403 2484 
Q 997 2584 770 2862 
Q 544 3141 544 3541 
Q 544 4100 942 4425 
Q 1341 4750 2034 4750 
Q 2731 4750 3128 4425 
Q 3525 4100 3525 3541 
Q 3525 3141 3298 2862 
Q 3072 2584 2669 2484 
Q 3125 2378 3379 2068 
Q 3634 1759 3634 1313 
Q 3634 634 3220 271 
Q 2806 -91 2034 -91 
Q 1263 -91 848 271 
Q 434 634 434 1313 
Q 434 1759 690 2068 
Q 947 2378 1403 2484 
z
M 1172 3481 
Q 1172 3119 1398 2916 
Q 1625 2713 2034 2713 
Q 2441 2713 2670 2916 
Q 2900 3119 2900 3481 
Q 2900 3844 2670 4047 
Q 2441 4250 2034 4250 
Q 1625 4250 1398 4047 
Q 1172 3844 1172 3481 
z
" transform="scale(0.015625)"/>
       </defs>
       <use xlink:href="#DejaVuSans-38"/>
       <use xlink:href="#DejaVuSans-30" transform="translate(63.623047 0)"/>
       <use xlink:href="#DejaVuSans-30" transform="translate(127.246094 0)"/>
       <use xlink:href="#DejaVuSans-30" transform="translate(190.869141 0)"/>
      </g>
     </g>
    </g>
    <g id="text_6">
     <!-- time -->
     <g transform="translate(203.262869 350.19625) scale(0.12 -0.12)">
      <defs>
       <path id="DejaVuSans-74" d="M 1172 4494 
L 1172 3500 
L 2356 3500 
L 2356 3053 
L 1172 3053 
L 1172 1153 
Q 1172 725 1289 603 
Q 1406 481 1766 481 
L 2356 481 
L 2356 0 
L 1766 0 
Q 1100 0 847 248 
Q 594 497 594 1153 
L 594 3053 
L 172 3053 
L 172 3500 
L 594 3500 
L 594 4494 
L 1172 4494 
z
" transform="scale(0.015625)"/>
       <path id="DejaVuSans-69" d="M 603 3500 
L 1178 3500 
L 1178 0 
L 603 0 
L 603 3500 
z
M 603 4863 
L 1178 4863 
L 1178 4134 
L 603 4134 
L 603 4863 
z
" transform="scale(0.015625)"/>
       <path id="DejaVuSans-6d" d="M 3328 2828 
Q 3544 3216 3844 3400 
Q 4144 3584 4550 3584 
Q 5097 3584 5394 3201 
Q 5691 2819 5691 2113 
L 5691 0 
L 5113 0 
L 5113 2094 
Q 5113 2597 4934 2840 
Q 4756 3084 4391 3084 
Q 3944 3084 3684 2787 
Q 3425 2491 3425 1978 
L 3425 0 
L 2847 0 
L 2847 2094 
Q 2847 2600 2669 2842 
Q 2491 3084 2119 3084 
Q 1678 3084 1418 2786 
Q 1159 2488 1159 1978 
L 1159 0 
L 581 0 
L 581 3500 
L 1159 3500 
L 1159 2956 
Q 1356 3278 1631 3431 
Q 1906 3584 2284 3584 
Q 2666 3584 2933 3390 
Q 3200 3197 3328 2828 
z
" transform="scale(0.015625)"/>
       <path id="DejaVuSans-65" d="M 3597 1894 
L 3597 1613 
L 953 1613 
Q 991 1019 1311 708 
Q 1631 397 2203 397 
Q 2534 397 2845 478 
Q 3156 559 3463 722 
L 3463 178 
Q 3153 47 2828 -22 
Q 2503 -91 2169 -91 
Q 1331 -91 842 396 
Q 353 884 353 1716 
Q 353 2575 817 3079 
Q 1281 3584 2069 3584 
Q 2775 3584 3186 3129 
Q 3597 2675 3597 1894 
z
M 3022 2063 
Q 3016 2534 2758 2815 
Q 2500 3097 2075 3097 
Q 1594 3097 1305 2825 
Q 1016 2553 972 2059 
L 3022 2063 
z
" transform="scale(0.015625)"/>
      </defs>
      <use xlink:href="#DejaVuSans-74"/>
      <use xlink:href="#DejaVuSans-69" transform="translate(39.208984 0)"/>
      <use xlink:href="#DejaVuSans-6d" transform="translate(66.992188 0)"/>
      <use xlink:href="#DejaVuSans-65" transform="translate(164.404297 0)"/>
     </g>
    </g>
   </g>
   <g id="matplotlib.axis_2">
    <g id="ytick_1">
     <g id="line2d_6">
      <defs>
       <path id="m144795b39c" d="M 0 0 
L -3.5 0 
" style="stroke: #000000; stroke-width: 0.8"/>
      </defs>
      <g>
       <use xlink:href="#m144795b39c" x="90" y="307.8" style="stroke: #000000; stroke-width: 0.8"/>
      </g>
     </g>
     <g id="text_7">
      <!-- 0.00000 -->
      <g transform="translate(41.646875 311.599219) scale(0.1 -0.1)">
       <defs>
        <path id="DejaVuSans-2e" d="M 684 794 
L 1344 794 
L 1344 0 
L 684 0 
L 684 794 
z
" transform="scale(0.015625)"/>
       </defs>
       <use xlink:href="#DejaVuSans-30"/>
       <use xlink:href="#DejaVuSans-2e" transform="translate(63.623047 0)"/>
       <use xlink:href="#DejaVuSans-30" transform="translate(95.410156 0)"/>
       <use xlink:href="#DejaVuSans-30" transform="translate(159.033203 0)"/>
       <use xlink:href="#DejaVuSans-30" transform="translate(222.65625 0)"/>
       <use xlink:href="#DejaVuSans-30" transform="translate(286.279297 0)"/>
       <use xlink:href="#DejaVuSans-30" transform="translate(349.902344 0)"/>
      </g>
     </g>
    </g>
    <g id="ytick_2">
     <g id="line2d_7">
      <g>
       <use xlink:href="#m144795b39c" x="90" y="258.708368" style="stroke: #000000; stroke-width: 0.8"/>
      </g>
     </g>
     <g id="text_8">
      <!-- 0.00002 -->
      <g transform="translate(41.646875 262.507587) scale(0.1 -0.1)">
       <use xlink:href="#DejaVuSans-30"/>
       <use xlink:href="#DejaVuSans-2e" transform="translate(63.623047 0)"/>
       <use xlink:href="#DejaVuSans-30" transform="translate(95.410156 0)"/>
       <use xlink:href="#DejaVuSans-30" transform="translate(159.033203 0)"/>
       <use xlink:href="#DejaVuSans-30" transform="translate(222.65625 0)"/>
       <use xlink:href="#DejaVuSans-30" transform="translate(286.279297 0)"/>
       <use xlink:href="#DejaVuSans-32" transform="translate(349.902344 0)"/>
      </g>
     </g>
    </g>
    <g id="ytick_3">
     <g id="line2d_8">
      <g>
       <use xlink:href="#m144795b39c" x="90" y="209.616736" style="stroke: #000000; stroke-width: 0.8"/>
      </g>
     </g>
     <g id="text_9">
      <!-- 0.00004 -->
      <g transform="translate(41.646875 213.415955) scale(0.1 -0.1)">
       <use xlink:href="#DejaVuSans-30"/>
       <use xlink:href="#DejaVuSans-2e" transform="translate(63.623047 0)"/>
       <use xlink:href="#DejaVuSans-30" transform="translate(95.410156 0)"/>
       <use xlink:href="#DejaVuSans-30" transform="translate(159.033203 0)"/>
       <use xlink:href="#DejaVuSans-30" transform="translate(222.65625 0)"/>
       <use xlink:href="#DejaVuSans-30" transform="translate(286.279297 0)"/>
       <use xlink:href="#DejaVuSans-34" transform="translate(349.902344 0)"/>
      </g>
     </g>
    </g>
    <g id="ytick_4">
     <g id="line2d_9">
      <g>
       <use xlink:href="#m144795b39c" x="90" y="160.525104" style="stroke: #000000; stroke-width: 0.8"/>
      </g>
     </g>
     <g id="text_10">
      <!-- 0.00006 -->
      <g transform="translate(41.646875 164.324323) scale(0.1 -0.1)">
       <use xlink:href="#DejaVuSans-30"/>
       <use xlink:href="#DejaVuSans-2e" transform="translate(63.623047 0)"/>
       <use xlink:href="#DejaVuSans-30" transform="translate(95.410156 0)"/>
       <use xlink:href="#DejaVuSans-30" transform="translate(159.033203 0)"/>
       <use xlink:href="#DejaVuSans-30" transform="translate(222.65625 0)"/>
       <use xlink:href="#DejaVuSans-30" transform="translate(286.279297 0)"/>
       <use xlink:href="#DejaVuSans-36" transform="translate(349.902344 0)"/>
      </g>
     </g>
    </g>
    <g id="ytick_5">
     <g id="line2d_10">
      <g>
       <use xlink:href="#m144795b39c" x="90" y="111.433472" style="stroke: #000000; stroke-width: 0.8"/>
      </g>
     </g>
     <g id="text_11">
      <!-- 0.00008 -->
      <g transform="translate(41.646875 115.232691) scale(0.1 -0.1)">
       <use xlink:href="#DejaVuSans-30"/>
       <use xlink:href="#DejaVuSans-2e" transform="translate(63.623047 0)"/>
       <use xlink:href="#DejaVuSans-30" transform="translate(95.410156 0)"/>
       <use xlink:href="#DejaVuSans-30" transform="translate(159.033203 0)"/>
       <use xlink:href="#DejaVuSans-30" transform="translate(222.65625 0)"/>
       <use xlink:href="#DejaVuSans-30" transform="translate(286.279297 0)"/>
       <use xlink:href="#DejaVuSans-38" transform="translate(349.902344 0)"/>
      </g>
     </g>
    </g>
    <g id="ytick_6">
     <g id="line2d_11">
      <g>
       <use xlink:href="#m144795b39c" x="90" y="62.34184" style="stroke: #000000; stroke-width: 0.8"/>
      </g>
     </g>
     <g id="text_12">
      <!-- 0.00010 -->
      <g transform="translate(41.646875 66.141059) scale(0.1 -0.1)">
       <defs>
        <path id="DejaVuSans-31" d="M 794 531 
L 1825 531 
L 1825 4091 
L 703 3866 
L 703 4441 
L 1819 4666 
L 2450 4666 
L 2450 531 
L 3481 531 
L 3481 0 
L 794 0 
L 794 531 
z
" transform="scale(0.015625)"/>
       </defs>
       <use xlink:href="#DejaVuSans-30"/>
       <use xlink:href="#DejaVuSans-2e" transform="translate(63.623047 0)"/>
       <use xlink:href="#DejaVuSans-30" transform="translate(95.410156 0)"/>
       <use xlink:href="#DejaVuSans-30" transform="translate(159.033203 0)"/>
       <use xlink:href="#DejaVuSans-30" transform="translate(222.65625 0)"/>
       <use xlink:href="#DejaVuSans-31" transform="translate(286.279297 0)"/>
       <use xlink:href="#DejaVuSans-30" transform="translate(349.902344 0)"/>
      </g>
     </g>
    </g>
    <g id="text_13">
     <!-- [Cveblood_rap] -->
     <g transform="translate(34.8175 227.494687) rotate(-90) scale(0.12 -0.12)">
      <defs>
       <path id="DejaVuSans-5b" d="M 550 4863 
L 1875 4863 
L 1875 4416 
L 1125 4416 
L 1125 -397 
L 1875 -397 
L 1875 -844 
L 550 -844 
L 550 4863 
z
" transform="scale(0.015625)"/>
       <path id="DejaVuSans-43" d="M 4122 4306 
L 4122 3641 
Q 3803 3938 3442 4084 
Q 3081 4231 2675 4231 
Q 1875 4231 1450 3742 
Q 1025 3253 1025 2328 
Q 1025 1406 1450 917 
Q 1875 428 2675 428 
Q 3081 428 3442 575 
Q 3803 722 4122 1019 
L 4122 359 
Q 3791 134 3420 21 
Q 3050 -91 2638 -91 
Q 1578 -91 968 557 
Q 359 1206 359 2328 
Q 359 3453 968 4101 
Q 1578 4750 2638 4750 
Q 3056 4750 3426 4639 
Q 3797 4528 4122 4306 
z
" transform="scale(0.015625)"/>
       <path id="DejaVuSans-76" d="M 191 3500 
L 800 3500 
L 1894 563 
L 2988 3500 
L 3597 3500 
L 2284 0 
L 1503 0 
L 191 3500 
z
" transform="scale(0.015625)"/>
       <path id="DejaVuSans-62" d="M 3116 1747 
Q 3116 2381 2855 2742 
Q 2594 3103 2138 3103 
Q 1681 3103 1420 2742 
Q 1159 2381 1159 1747 
Q 1159 1113 1420 752 
Q 1681 391 2138 391 
Q 2594 391 2855 752 
Q 3116 1113 3116 1747 
z
M 1159 2969 
Q 1341 3281 1617 3432 
Q 1894 3584 2278 3584 
Q 2916 3584 3314 3078 
Q 3713 2572 3713 1747 
Q 3713 922 3314 415 
Q 2916 -91 2278 -91 
Q 1894 -91 1617 61 
Q 1341 213 1159 525 
L 1159 0 
L 581 0 
L 581 4863 
L 1159 4863 
L 1159 2969 
z
" transform="scale(0.015625)"/>
       <path id="DejaVuSans-6c" d="M 603 4863 
L 1178 4863 
L 1178 0 
L 603 0 
L 603 4863 
z
" transform="scale(0.015625)"/>
       <path id="DejaVuSans-6f" d="M 1959 3097 
Q 1497 3097 1228 2736 
Q 959 2375 959 1747 
Q 959 1119 1226 758 
Q 1494 397 1959 397 
Q 2419 397 2687 759 
Q 2956 1122 2956 1747 
Q 2956 2369 2687 2733 
Q 2419 3097 1959 3097 
z
M 1959 3584 
Q 2709 3584 3137 3096 
Q 3566 2609 3566 1747 
Q 3566 888 3137 398 
Q 2709 -91 1959 -91 
Q 1206 -91 779 398 
Q 353 888 353 1747 
Q 353 2609 779 3096 
Q 1206 3584 1959 3584 
z
" transform="scale(0.015625)"/>
       <path id="DejaVuSans-64" d="M 2906 2969 
L 2906 4863 
L 3481 4863 
L 3481 0 
L 2906 0 
L 2906 525 
Q 2725 213 2448 61 
Q 2172 -91 1784 -91 
Q 1150 -91 751 415 
Q 353 922 353 1747 
Q 353 2572 751 3078 
Q 1150 3584 1784 3584 
Q 2172 3584 2448 3432 
Q 2725 3281 2906 2969 
z
M 947 1747 
Q 947 1113 1208 752 
Q 1469 391 1925 391 
Q 2381 391 2643 752 
Q 2906 1113 2906 1747 
Q 2906 2381 2643 2742 
Q 2381 3103 1925 3103 
Q 1469 3103 1208 2742 
Q 947 2381 947 1747 
z
" transform="scale(0.015625)"/>
       <path id="DejaVuSans-5f" d="M 3263 -1063 
L 3263 -1509 
L -63 -1509 
L -63 -1063 
L 3263 -1063 
z
" transform="scale(0.015625)"/>
       <path id="DejaVuSans-72" d="M 2631 2963 
Q 2534 3019 2420 3045 
Q 2306 3072 2169 3072 
Q 1681 3072 1420 2755 
Q 1159 2438 1159 1844 
L 1159 0 
L 581 0 
L 581 3500 
L 1159 3500 
L 1159 2956 
Q 1341 3275 1631 3429 
Q 1922 3584 2338 3584 
Q 2397 3584 2469 3576 
Q 2541 3569 2628 3553 
L 2631 2963 
z
" transform="scale(0.015625)"/>
       <path id="DejaVuSans-61" d="M 2194 1759 
Q 1497 1759 1228 1600 
Q 959 1441 959 1056 
Q 959 750 1161 570 
Q 1363 391 1709 391 
Q 2188 391 2477 730 
Q 2766 1069 2766 1631 
L 2766 1759 
L 2194 1759 
z
M 3341 1997 
L 3341 0 
L 2766 0 
L 2766 531 
Q 2569 213 2275 61 
Q 1981 -91 1556 -91 
Q 1019 -91 701 211 
Q 384 513 384 1019 
Q 384 1609 779 1909 
Q 1175 2209 1959 2209 
L 2766 2209 
L 2766 2266 
Q 2766 2663 2505 2880 
Q 2244 3097 1772 3097 
Q 1472 3097 1187 3025 
Q 903 2953 641 2809 
L 641 3341 
Q 956 3463 1253 3523 
Q 1550 3584 1831 3584 
Q 2591 3584 2966 3190 
Q 3341 2797 3341 1997 
z
" transform="scale(0.015625)"/>
       <path id="DejaVuSans-70" d="M 1159 525 
L 1159 -1331 
L 581 -1331 
L 581 3500 
L 1159 3500 
L 1159 2969 
Q 1341 3281 1617 3432 
Q 1894 3584 2278 3584 
Q 2916 3584 3314 3078 
Q 3713 2572 3713 1747 
Q 3713 922 3314 415 
Q 2916 -91 2278 -91 
Q 1894 -91 1617 61 
Q 1341 213 1159 525 
z
M 3116 1747 
Q 3116 2381 2855 2742 
Q 2594 3103 2138 3103 
Q 1681 3103 1420 2742 
Q 1159 2381 1159 1747 
Q 1159 1113 1420 752 
Q 1681 391 2138 391 
Q 2594 391 2855 752 
Q 3116 1113 3116 1747 
z
" transform="scale(0.015625)"/>
       <path id="DejaVuSans-5d" d="M 1947 4863 
L 1947 -844 
L 622 -844 
L 622 -397 
L 1369 -397 
L 1369 4416 
L 622 4416 
L 622 4863 
L 1947 4863 
z
" transform="scale(0.015625)"/>
      </defs>
      <use xlink:href="#DejaVuSans-5b"/>
      <use xlink:href="#DejaVuSans-43" transform="translate(39.013672 0)"/>
      <use xlink:href="#DejaVuSans-76" transform="translate(108.837891 0)"/>
      <use xlink:href="#DejaVuSans-65" transform="translate(168.017578 0)"/>
      <use xlink:href="#DejaVuSans-62" transform="translate(229.541016 0)"/>
      <use xlink:href="#DejaVuSans-6c" transform="translate(293.017578 0)"/>
      <use xlink:href="#DejaVuSans-6f" transform="translate(320.800781 0)"/>
      <use xlink:href="#DejaVuSans-6f" transform="translate(381.982422 0)"/>
      <use xlink:href="#DejaVuSans-64" transform="translate(443.164062 0)"/>
      <use xlink:href="#DejaVuSans-5f" transform="translate(506.640625 0)"/>
      <use xlink:href="#DejaVuSans-72" transform="translate(556.640625 0)"/>
      <use xlink:href="#DejaVuSans-61" transform="translate(597.753906 0)"/>
      <use xlink:href="#DejaVuSans-70" transform="translate(659.033203 0)"/>
      <use xlink:href="#DejaVuSans-5d" transform="translate(722.509766 0)"/>
     </g>
    </g>
   </g>
   <g id="LineCollection_1">
    <path d="M 111.136364 173.104257 
L 111.136364 72.450357 
" clip-path="url(#p61103d6032)" style="fill: none; stroke: #000000; stroke-width: 1.5"/>
    <path d="M 112.119792 217.685225 
L 112.119792 55.8 
" clip-path="url(#p61103d6032)" style="fill: none; stroke: #000000; stroke-width: 1.5"/>
    <path d="M 112.604167 259.319992 
L 112.604167 156.822639 
" clip-path="url(#p61103d6032)" style="fill: none; stroke: #000000; stroke-width: 1.5"/>
    <path d="M 114.07197 255.190281 
L 114.07197 207.364625 
" clip-path="url(#p61103d6032)" style="fill: none; stroke: #000000; stroke-width: 1.5"/>
    <path d="M 115.539773 269.863889 
L 115.539773 227.14582 
" clip-path="url(#p61103d6032)" style="fill: none; stroke: #000000; stroke-width: 1.5"/>
    <path d="M 117.007576 284.091239 
L 117.007576 253.731592 
" clip-path="url(#p61103d6032)" style="fill: none; stroke: #000000; stroke-width: 1.5"/>
    <path d="M 119.943182 292.881556 
L 119.943182 267.000037 
" clip-path="url(#p61103d6032)" style="fill: none; stroke: #000000; stroke-width: 1.5"/>
    <path d="M 122.878788 295.966019 
L 122.878788 282.367148 
" clip-path="url(#p61103d6032)" style="fill: none; stroke: #000000; stroke-width: 1.5"/>
    <path d="M 128.75 297.473368 
L 128.75 287.797905 
" clip-path="url(#p61103d6032)" style="fill: none; stroke: #000000; stroke-width: 1.5"/>
    <path d="M 133.153409 299.719303 
L 133.153409 290.709338 
" clip-path="url(#p61103d6032)" style="fill: none; stroke: #000000; stroke-width: 1.5"/>
    <path d="M 146.363636 302.466974 
L 146.363636 295.450984 
" clip-path="url(#p61103d6032)" style="fill: none; stroke: #000000; stroke-width: 1.5"/>
    <path d="M 181.590909 303.901677 
L 181.590909 297.023092 
" clip-path="url(#p61103d6032)" style="fill: none; stroke: #000000; stroke-width: 1.5"/>
    <path d="M 216.818182 305.313379 
L 216.818182 298.575572 
" clip-path="url(#p61103d6032)" style="fill: none; stroke: #000000; stroke-width: 1.5"/>
    <path d="M 287.272727 306.055134 
L 287.272727 300.819494 
" clip-path="url(#p61103d6032)" style="fill: none; stroke: #000000; stroke-width: 1.5"/>
    <path d="M 322.5 306.170044 
L 322.5 302.466981 
" clip-path="url(#p61103d6032)" style="fill: none; stroke: #000000; stroke-width: 1.5"/>
   </g>
   <g id="line2d_12">
    <path d="M 111.136364 307.8 
L 111.162971 307.703205 
L 111.220861 305.249256 
L 111.528136 274.837608 
L 111.904854 250.709984 
L 112.259073 239.750736 
L 112.55144 235.791852 
L 112.751753 234.763497 
L 112.952065 234.664206 
L 113.152378 235.218021 
L 113.553003 237.520254 
L 114.654722 246.273921 
L 115.656285 253.320938 
L 116.557691 258.224967 
L 117.459097 262.011023 
L 118.46066 265.27783 
L 119.562379 268.102899 
L 120.764254 270.594599 
L 122.173941 273.028445 
L 123.923288 275.602801 
L 125.97758 278.239099 
L 128.554132 281.159347 
L 131.130684 283.760316 
L 134.158881 286.483365 
L 137.023931 288.772131 
L 139.888981 290.814406 
L 142.80385 292.667186 
L 146.341549 294.64646 
L 149.879247 296.366842 
L 153.555274 297.916528 
L 158.404334 299.644183 
L 163.253395 301.06984 
L 167.945022 302.211537 
L 174.095571 303.420191 
L 180.24612 304.367442 
L 186.396668 305.109826 
L 195.622491 305.933516 
L 203.352869 306.42595 
L 217.318179 307.009855 
L 231.283489 307.345636 
L 254.559006 307.619323 
L 287.354605 307.750719 
L 331.306818 307.791301 
L 331.306818 307.791301 
" clip-path="url(#p61103d6032)" style="fill: none; stroke: #0000ff; stroke-width: 1.5; stroke-linecap: square"/>
   </g>
   <g id="line2d_13">
    <path d="M 111.136364 122.777307 
L 112.119792 136.742612 
L 112.604167 208.071315 
L 114.07197 231.277453 
L 115.539773 248.504855 
L 117.007576 268.911416 
L 119.943182 279.940797 
L 122.878788 289.166584 
L 128.75 292.635637 
L 133.153409 295.21432 
L 146.363636 298.958979 
L 181.590909 300.462385 
L 216.818182 301.944475 
L 287.272727 303.437314 
L 322.5 304.318512 
" clip-path="url(#p61103d6032)" style="fill: none; stroke: #000000; stroke-width: 1.5; stroke-linecap: square"/>
    <defs>
     <path id="m0dc0fa6275" d="M -5 5 
L 5 5 
L 5 -5 
L -5 -5 
z
" style="stroke: #000000; stroke-linejoin: miter"/>
    </defs>
    <g clip-path="url(#p61103d6032)">
     <use xlink:href="#m0dc0fa6275" x="111.136364" y="122.777307" style="stroke: #000000; stroke-linejoin: miter"/>
     <use xlink:href="#m0dc0fa6275" x="112.119792" y="136.742612" style="stroke: #000000; stroke-linejoin: miter"/>
     <use xlink:href="#m0dc0fa6275" x="112.604167" y="208.071315" style="stroke: #000000; stroke-linejoin: miter"/>
     <use xlink:href="#m0dc0fa6275" x="114.07197" y="231.277453" style="stroke: #000000; stroke-linejoin: miter"/>
     <use xlink:href="#m0dc0fa6275" x="115.539773" y="248.504855" style="stroke: #000000; stroke-linejoin: miter"/>
     <use xlink:href="#m0dc0fa6275" x="117.007576" y="268.911416" style="stroke: #000000; stroke-linejoin: miter"/>
     <use xlink:href="#m0dc0fa6275" x="119.943182" y="279.940797" style="stroke: #000000; stroke-linejoin: miter"/>
     <use xlink:href="#m0dc0fa6275" x="122.878788" y="289.166584" style="stroke: #000000; stroke-linejoin: miter"/>
     <use xlink:href="#m0dc0fa6275" x="128.75" y="292.635637" style="stroke: #000000; stroke-linejoin: miter"/>
     <use xlink:href="#m0dc0fa6275" x="133.153409" y="295.21432" style="stroke: #000000; stroke-linejoin: miter"/>
     <use xlink:href="#m0dc0fa6275" x="146.363636" y="298.958979" style="stroke: #000000; stroke-linejoin: miter"/>
     <use xlink:href="#m0dc0fa6275" x="181.590909" y="300.462385" style="stroke: #000000; stroke-linejoin: miter"/>
     <use xlink:href="#m0dc0fa6275" x="216.818182" y="301.944475" style="stroke: #000000; stroke-linejoin: miter"/>
     <use xlink:href="#m0dc0fa6275" x="287.272727" y="303.437314" style="stroke: #000000; stroke-linejoin: miter"/>
     <use xlink:href="#m0dc0fa6275" x="322.5" y="304.318512" style="stroke: #000000; stroke-linejoin: miter"/>
    </g>
   </g>
   <g id="patch_3">
    <path d="M 90 320.4 
L 90 43.2 
" style="fill: none; stroke: #000000; stroke-width: 0.8; stroke-linejoin: miter; stroke-linecap: square"/>
   </g>
   <g id="patch_4">
    <path d="M 343.636364 320.4 
L 343.636364 43.2 
" style="fill: none; stroke: #000000; stroke-width: 0.8; stroke-linejoin: miter; stroke-linecap: square"/>
   </g>
   <g id="patch_5">
    <path d="M 90 320.4 
L 343.636364 320.4 
" style="fill: none; stroke: #000000; stroke-width: 0.8; stroke-linejoin: miter; stroke-linecap: square"/>
   </g>
   <g id="patch_6">
    <path d="M 90 43.2 
L 343.636364 43.2 
" style="fill: none; stroke: #000000; stroke-width: 0.8; stroke-linejoin: miter; stroke-linecap: square"/>
   </g>
   <g id="text_14">
    <!-- Bottiger2001 fm_rap_RAP10 -->
    <g transform="translate(118.236307 37.2) scale(0.14 -0.14)">
     <defs>
      <path id="DejaVuSans-42" d="M 1259 2228 
L 1259 519 
L 2272 519 
Q 2781 519 3026 730 
Q 3272 941 3272 1375 
Q 3272 1813 3026 2020 
Q 2781 2228 2272 2228 
L 1259 2228 
z
M 1259 4147 
L 1259 2741 
L 2194 2741 
Q 2656 2741 2882 2914 
Q 3109 3088 3109 3444 
Q 3109 3797 2882 3972 
Q 2656 4147 2194 4147 
L 1259 4147 
z
M 628 4666 
L 2241 4666 
Q 2963 4666 3353 4366 
Q 3744 4066 3744 3513 
Q 3744 3084 3544 2831 
Q 3344 2578 2956 2516 
Q 3422 2416 3680 2098 
Q 3938 1781 3938 1306 
Q 3938 681 3513 340 
Q 3088 0 2303 0 
L 628 0 
L 628 4666 
z
" transform="scale(0.015625)"/>
      <path id="DejaVuSans-67" d="M 2906 1791 
Q 2906 2416 2648 2759 
Q 2391 3103 1925 3103 
Q 1463 3103 1205 2759 
Q 947 2416 947 1791 
Q 947 1169 1205 825 
Q 1463 481 1925 481 
Q 2391 481 2648 825 
Q 2906 1169 2906 1791 
z
M 3481 434 
Q 3481 -459 3084 -895 
Q 2688 -1331 1869 -1331 
Q 1566 -1331 1297 -1286 
Q 1028 -1241 775 -1147 
L 775 -588 
Q 1028 -725 1275 -790 
Q 1522 -856 1778 -856 
Q 2344 -856 2625 -561 
Q 2906 -266 2906 331 
L 2906 616 
Q 2728 306 2450 153 
Q 2172 0 1784 0 
Q 1141 0 747 490 
Q 353 981 353 1791 
Q 353 2603 747 3093 
Q 1141 3584 1784 3584 
Q 2172 3584 2450 3431 
Q 2728 3278 2906 2969 
L 2906 3500 
L 3481 3500 
L 3481 434 
z
" transform="scale(0.015625)"/>
      <path id="DejaVuSans-20" transform="scale(0.015625)"/>
      <path id="DejaVuSans-66" d="M 2375 4863 
L 2375 4384 
L 1825 4384 
Q 1516 4384 1395 4259 
Q 1275 4134 1275 3809 
L 1275 3500 
L 2222 3500 
L 2222 3053 
L 1275 3053 
L 1275 0 
L 697 0 
L 697 3053 
L 147 3053 
L 147 3500 
L 697 3500 
L 697 3744 
Q 697 4328 969 4595 
Q 1241 4863 1831 4863 
L 2375 4863 
z
" transform="scale(0.015625)"/>
      <path id="DejaVuSans-52" d="M 2841 2188 
Q 3044 2119 3236 1894 
Q 3428 1669 3622 1275 
L 4263 0 
L 3584 0 
L 2988 1197 
Q 2756 1666 2539 1819 
Q 2322 1972 1947 1972 
L 1259 1972 
L 1259 0 
L 628 0 
L 628 4666 
L 2053 4666 
Q 2853 4666 3247 4331 
Q 3641 3997 3641 3322 
Q 3641 2881 3436 2590 
Q 3231 2300 2841 2188 
z
M 1259 4147 
L 1259 2491 
L 2053 2491 
Q 2509 2491 2742 2702 
Q 2975 2913 2975 3322 
Q 2975 3731 2742 3939 
Q 2509 4147 2053 4147 
L 1259 4147 
z
" transform="scale(0.015625)"/>
      <path id="DejaVuSans-41" d="M 2188 4044 
L 1331 1722 
L 3047 1722 
L 2188 4044 
z
M 1831 4666 
L 2547 4666 
L 4325 0 
L 3669 0 
L 3244 1197 
L 1141 1197 
L 716 0 
L 50 0 
L 1831 4666 
z
" transform="scale(0.015625)"/>
      <path id="DejaVuSans-50" d="M 1259 4147 
L 1259 2394 
L 2053 2394 
Q 2494 2394 2734 2622 
Q 2975 2850 2975 3272 
Q 2975 3691 2734 3919 
Q 2494 4147 2053 4147 
L 1259 4147 
z
M 628 4666 
L 2053 4666 
Q 2838 4666 3239 4311 
Q 3641 3956 3641 3272 
Q 3641 2581 3239 2228 
Q 2838 1875 2053 1875 
L 1259 1875 
L 1259 0 
L 628 0 
L 628 4666 
z
" transform="scale(0.015625)"/>
     </defs>
     <use xlink:href="#DejaVuSans-42"/>
     <use xlink:href="#DejaVuSans-6f" transform="translate(68.603516 0)"/>
     <use xlink:href="#DejaVuSans-74" transform="translate(129.785156 0)"/>
     <use xlink:href="#DejaVuSans-74" transform="translate(168.994141 0)"/>
     <use xlink:href="#DejaVuSans-69" transform="translate(208.203125 0)"/>
     <use xlink:href="#DejaVuSans-67" transform="translate(235.986328 0)"/>
     <use xlink:href="#DejaVuSans-65" transform="translate(299.462891 0)"/>
     <use xlink:href="#DejaVuSans-72" transform="translate(360.986328 0)"/>
     <use xlink:href="#DejaVuSans-32" transform="translate(402.099609 0)"/>
     <use xlink:href="#DejaVuSans-30" transform="translate(465.722656 0)"/>
     <use xlink:href="#DejaVuSans-30" transform="translate(529.345703 0)"/>
     <use xlink:href="#DejaVuSans-31" transform="translate(592.96875 0)"/>
     <use xlink:href="#DejaVuSans-20" transform="translate(656.591797 0)"/>
     <use xlink:href="#DejaVuSans-66" transform="translate(688.378906 0)"/>
     <use xlink:href="#DejaVuSans-6d" transform="translate(723.583984 0)"/>
     <use xlink:href="#DejaVuSans-5f" transform="translate(820.996094 0)"/>
     <use xlink:href="#DejaVuSans-72" transform="translate(870.996094 0)"/>
     <use xlink:href="#DejaVuSans-61" transform="translate(912.109375 0)"/>
     <use xlink:href="#DejaVuSans-70" transform="translate(973.388672 0)"/>
     <use xlink:href="#DejaVuSans-5f" transform="translate(1036.865234 0)"/>
     <use xlink:href="#DejaVuSans-52" transform="translate(1086.865234 0)"/>
     <use xlink:href="#DejaVuSans-41" transform="translate(1152.347656 0)"/>
     <use xlink:href="#DejaVuSans-50" transform="translate(1220.755859 0)"/>
     <use xlink:href="#DejaVuSans-31" transform="translate(1281.058594 0)"/>
     <use xlink:href="#DejaVuSans-30" transform="translate(1344.681641 0)"/>
    </g>
   </g>
   <g id="legend_1">
    <g id="patch_7">
     <path d="M 200.586364 80.834375 
L 336.636364 80.834375 
Q 338.636364 80.834375 338.636364 78.834375 
L 338.636364 50.2 
Q 338.636364 48.2 336.636364 48.2 
L 200.586364 48.2 
Q 198.586364 48.2 198.586364 50.2 
L 198.586364 78.834375 
Q 198.586364 80.834375 200.586364 80.834375 
z
" style="fill: #ffffff; opacity: 0.8; stroke: #cccccc; stroke-linejoin: miter"/>
    </g>
    <g id="line2d_14">
     <path d="M 202.586364 56.298437 
L 212.586364 56.298437 
L 222.586364 56.298437 
" style="fill: none; stroke: #0000ff; stroke-width: 1.5; stroke-linecap: square"/>
    </g>
    <g id="text_15">
     <!-- observable -->
     <g transform="translate(230.586364 59.798437) scale(0.1 -0.1)">
      <defs>
       <path id="DejaVuSans-73" d="M 2834 3397 
L 2834 2853 
Q 2591 2978 2328 3040 
Q 2066 3103 1784 3103 
Q 1356 3103 1142 2972 
Q 928 2841 928 2578 
Q 928 2378 1081 2264 
Q 1234 2150 1697 2047 
L 1894 2003 
Q 2506 1872 2764 1633 
Q 3022 1394 3022 966 
Q 3022 478 2636 193 
Q 2250 -91 1575 -91 
Q 1294 -91 989 -36 
Q 684 19 347 128 
L 347 722 
Q 666 556 975 473 
Q 1284 391 1588 391 
Q 1994 391 2212 530 
Q 2431 669 2431 922 
Q 2431 1156 2273 1281 
Q 2116 1406 1581 1522 
L 1381 1569 
Q 847 1681 609 1914 
Q 372 2147 372 2553 
Q 372 3047 722 3315 
Q 1072 3584 1716 3584 
Q 2034 3584 2315 3537 
Q 2597 3491 2834 3397 
z
" transform="scale(0.015625)"/>
      </defs>
      <use xlink:href="#DejaVuSans-6f"/>
      <use xlink:href="#DejaVuSans-62" transform="translate(61.181641 0)"/>
      <use xlink:href="#DejaVuSans-73" transform="translate(124.658203 0)"/>
      <use xlink:href="#DejaVuSans-65" transform="translate(176.757812 0)"/>
      <use xlink:href="#DejaVuSans-72" transform="translate(238.28125 0)"/>
      <use xlink:href="#DejaVuSans-76" transform="translate(279.394531 0)"/>
      <use xlink:href="#DejaVuSans-61" transform="translate(338.574219 0)"/>
      <use xlink:href="#DejaVuSans-62" transform="translate(399.853516 0)"/>
      <use xlink:href="#DejaVuSans-6c" transform="translate(463.330078 0)"/>
      <use xlink:href="#DejaVuSans-65" transform="translate(491.113281 0)"/>
     </g>
    </g>
    <g id="LineCollection_2">
     <path d="M 212.586364 75.976562 
L 212.586364 65.976562 
" style="fill: none; stroke: #000000; stroke-width: 1.5"/>
    </g>
    <g id="line2d_15">
     <path d="M 202.586364 70.976562 
L 222.586364 70.976562 
" style="fill: none; stroke: #000000; stroke-width: 1.5; stroke-linecap: square"/>
    </g>
    <g id="line2d_16">
     <g>
      <use xlink:href="#m0dc0fa6275" x="212.586364" y="70.976562" style="stroke: #000000; stroke-linejoin: miter"/>
     </g>
    </g>
    <g id="text_16">
     <!-- reference_data ± SD -->
     <g transform="translate(230.586364 74.476562) scale(0.1 -0.1)">
      <defs>
       <path id="DejaVuSans-6e" d="M 3513 2113 
L 3513 0 
L 2938 0 
L 2938 2094 
Q 2938 2591 2744 2837 
Q 2550 3084 2163 3084 
Q 1697 3084 1428 2787 
Q 1159 2491 1159 1978 
L 1159 0 
L 581 0 
L 581 3500 
L 1159 3500 
L 1159 2956 
Q 1366 3272 1645 3428 
Q 1925 3584 2291 3584 
Q 2894 3584 3203 3211 
Q 3513 2838 3513 2113 
z
" transform="scale(0.015625)"/>
       <path id="DejaVuSans-63" d="M 3122 3366 
L 3122 2828 
Q 2878 2963 2633 3030 
Q 2388 3097 2138 3097 
Q 1578 3097 1268 2742 
Q 959 2388 959 1747 
Q 959 1106 1268 751 
Q 1578 397 2138 397 
Q 2388 397 2633 464 
Q 2878 531 3122 666 
L 3122 134 
Q 2881 22 2623 -34 
Q 2366 -91 2075 -91 
Q 1284 -91 818 406 
Q 353 903 353 1747 
Q 353 2603 823 3093 
Q 1294 3584 2113 3584 
Q 2378 3584 2631 3529 
Q 2884 3475 3122 3366 
z
" transform="scale(0.015625)"/>
       <path id="DejaVuSans-b1" d="M 2944 4013 
L 2944 2803 
L 4684 2803 
L 4684 2272 
L 2944 2272 
L 2944 1063 
L 2419 1063 
L 2419 2272 
L 678 2272 
L 678 2803 
L 2419 2803 
L 2419 4013 
L 2944 4013 
z
M 678 531 
L 4684 531 
L 4684 0 
L 678 0 
L 678 531 
z
" transform="scale(0.015625)"/>
       <path id="DejaVuSans-53" d="M 3425 4513 
L 3425 3897 
Q 3066 4069 2747 4153 
Q 2428 4238 2131 4238 
Q 1616 4238 1336 4038 
Q 1056 3838 1056 3469 
Q 1056 3159 1242 3001 
Q 1428 2844 1947 2747 
L 2328 2669 
Q 3034 2534 3370 2195 
Q 3706 1856 3706 1288 
Q 3706 609 3251 259 
Q 2797 -91 1919 -91 
Q 1588 -91 1214 -16 
Q 841 59 441 206 
L 441 856 
Q 825 641 1194 531 
Q 1563 422 1919 422 
Q 2459 422 2753 634 
Q 3047 847 3047 1241 
Q 3047 1584 2836 1778 
Q 2625 1972 2144 2069 
L 1759 2144 
Q 1053 2284 737 2584 
Q 422 2884 422 3419 
Q 422 4038 858 4394 
Q 1294 4750 2059 4750 
Q 2388 4750 2728 4690 
Q 3069 4631 3425 4513 
z
" transform="scale(0.015625)"/>
       <path id="DejaVuSans-44" d="M 1259 4147 
L 1259 519 
L 2022 519 
Q 2988 519 3436 956 
Q 3884 1394 3884 2338 
Q 3884 3275 3436 3711 
Q 2988 4147 2022 4147 
L 1259 4147 
z
M 628 4666 
L 1925 4666 
Q 3281 4666 3915 4102 
Q 4550 3538 4550 2338 
Q 4550 1131 3912 565 
Q 3275 0 1925 0 
L 628 0 
L 628 4666 
z
" transform="scale(0.015625)"/>
      </defs>
      <use xlink:href="#DejaVuSans-72"/>
      <use xlink:href="#DejaVuSans-65" transform="translate(38.863281 0)"/>
      <use xlink:href="#DejaVuSans-66" transform="translate(100.386719 0)"/>
      <use xlink:href="#DejaVuSans-65" transform="translate(135.591797 0)"/>
      <use xlink:href="#DejaVuSans-72" transform="translate(197.115234 0)"/>
      <use xlink:href="#DejaVuSans-65" transform="translate(235.978516 0)"/>
      <use xlink:href="#DejaVuSans-6e" transform="translate(297.501953 0)"/>
      <use xlink:href="#DejaVuSans-63" transform="translate(360.880859 0)"/>
      <use xlink:href="#DejaVuSans-65" transform="translate(415.861328 0)"/>
      <use xlink:href="#DejaVuSans-5f" transform="translate(477.384766 0)"/>
      <use xlink:href="#DejaVuSans-64" transform="translate(527.384766 0)"/>
      <use xlink:href="#DejaVuSans-61" transform="translate(590.861328 0)"/>
      <use xlink:href="#DejaVuSans-74" transform="translate(652.140625 0)"/>
      <use xlink:href="#DejaVuSans-61" transform="translate(691.349609 0)"/>
      <use xlink:href="#DejaVuSans-20" transform="translate(752.628906 0)"/>
      <use xlink:href="#DejaVuSans-b1" transform="translate(784.416016 0)"/>
      <use xlink:href="#DejaVuSans-20" transform="translate(868.205078 0)"/>
      <use xlink:href="#DejaVuSans-53" transform="translate(899.992188 0)"/>
      <use xlink:href="#DejaVuSans-44" transform="translate(963.46875 0)"/>
     </g>
    </g>
   </g>
  </g>
  <g id="axes_2">
   <g id="patch_8">
    <path d="M 394.363636 320.4 
L 648 320.4 
L 648 43.2 
L 394.363636 43.2 
z
" style="fill: #ffffff"/>
   </g>
   <g id="matplotlib.axis_3">
    <g id="xtick_6">
     <g id="line2d_17">
      <g>
       <use xlink:href="#mad8321072e" x="415.5" y="320.4" style="stroke: #000000; stroke-width: 0.8"/>
      </g>
     </g>
     <g id="text_17">
      <!-- 0 -->
      <g transform="translate(412.31875 334.998438) scale(0.1 -0.1)">
       <use xlink:href="#DejaVuSans-30"/>
      </g>
     </g>
    </g>
    <g id="xtick_7">
     <g id="line2d_18">
      <g>
       <use xlink:href="#mad8321072e" x="464.426768" y="320.4" style="stroke: #000000; stroke-width: 0.8"/>
      </g>
     </g>
     <g id="text_18">
      <!-- 2000 -->
      <g transform="translate(451.701768 334.998438) scale(0.1 -0.1)">
       <use xlink:href="#DejaVuSans-32"/>
       <use xlink:href="#DejaVuSans-30" transform="translate(63.623047 0)"/>
       <use xlink:href="#DejaVuSans-30" transform="translate(127.246094 0)"/>
       <use xlink:href="#DejaVuSans-30" transform="translate(190.869141 0)"/>
      </g>
     </g>
    </g>
    <g id="xtick_8">
     <g id="line2d_19">
      <g>
       <use xlink:href="#mad8321072e" x="513.353535" y="320.4" style="stroke: #000000; stroke-width: 0.8"/>
      </g>
     </g>
     <g id="text_19">
      <!-- 4000 -->
      <g transform="translate(500.628535 334.998438) scale(0.1 -0.1)">
       <use xlink:href="#DejaVuSans-34"/>
       <use xlink:href="#DejaVuSans-30" transform="translate(63.623047 0)"/>
       <use xlink:href="#DejaVuSans-30" transform="translate(127.246094 0)"/>
       <use xlink:href="#DejaVuSans-30" transform="translate(190.869141 0)"/>
      </g>
     </g>
    </g>
    <g id="xtick_9">
     <g id="line2d_20">
      <g>
       <use xlink:href="#mad8321072e" x="562.280303" y="320.4" style="stroke: #000000; stroke-width: 0.8"/>
      </g>
     </g>
     <g id="text_20">
      <!-- 6000 -->
      <g transform="translate(549.555303 334.998438) scale(0.1 -0.1)">
       <use xlink:href="#DejaVuSans-36"/>
       <use xlink:href="#DejaVuSans-30" transform="translate(63.623047 0)"/>
       <use xlink:href="#DejaVuSans-30" transform="translate(127.246094 0)"/>
       <use xlink:href="#DejaVuSans-30" transform="translate(190.869141 0)"/>
      </g>
     </g>
    </g>
    <g id="xtick_10">
     <g id="line2d_21">
      <g>
       <use xlink:href="#mad8321072e" x="611.207071" y="320.4" style="stroke: #000000; stroke-width: 0.8"/>
      </g>
     </g>
     <g id="text_21">
      <!-- 8000 -->
      <g transform="translate(598.482071 334.998438) scale(0.1 -0.1)">
       <use xlink:href="#DejaVuSans-38"/>
       <use xlink:href="#DejaVuSans-30" transform="translate(63.623047 0)"/>
       <use xlink:href="#DejaVuSans-30" transform="translate(127.246094 0)"/>
       <use xlink:href="#DejaVuSans-30" transform="translate(190.869141 0)"/>
      </g>
     </g>
    </g>
    <g id="text_22">
     <!-- time -->
     <g transform="translate(507.626506 350.19625) scale(0.12 -0.12)">
      <use xlink:href="#DejaVuSans-74"/>
      <use xlink:href="#DejaVuSans-69" transform="translate(39.208984 0)"/>
      <use xlink:href="#DejaVuSans-6d" transform="translate(66.992188 0)"/>
      <use xlink:href="#DejaVuSans-65" transform="translate(164.404297 0)"/>
     </g>
    </g>
   </g>
   <g id="matplotlib.axis_4">
    <g id="ytick_7">
     <g id="line2d_22">
      <g>
       <use xlink:href="#m144795b39c" x="394.363636" y="299.200955" style="stroke: #000000; stroke-width: 0.8"/>
      </g>
     </g>
     <g id="text_23">
      <!-- $\mathdefault{10^{-6}}$ -->
      <g transform="translate(363.863636 303.000174) scale(0.1 -0.1)">
       <defs>
        <path id="DejaVuSans-2212" d="M 678 2272 
L 4684 2272 
L 4684 1741 
L 678 1741 
L 678 2272 
z
" transform="scale(0.015625)"/>
       </defs>
       <use xlink:href="#DejaVuSans-31" transform="translate(0 0.765625)"/>
       <use xlink:href="#DejaVuSans-30" transform="translate(63.623047 0.765625)"/>
       <use xlink:href="#DejaVuSans-2212" transform="translate(128.203125 39.046875) scale(0.7)"/>
       <use xlink:href="#DejaVuSans-36" transform="translate(186.855469 39.046875) scale(0.7)"/>
      </g>
     </g>
    </g>
    <g id="ytick_8">
     <g id="line2d_23">
      <g>
       <use xlink:href="#m144795b39c" x="394.363636" y="242.074737" style="stroke: #000000; stroke-width: 0.8"/>
      </g>
     </g>
     <g id="text_24">
      <!-- $\mathdefault{10^{-5}}$ -->
      <g transform="translate(363.863636 245.873956) scale(0.1 -0.1)">
       <defs>
        <path id="DejaVuSans-35" d="M 691 4666 
L 3169 4666 
L 3169 4134 
L 1269 4134 
L 1269 2991 
Q 1406 3038 1543 3061 
Q 1681 3084 1819 3084 
Q 2600 3084 3056 2656 
Q 3513 2228 3513 1497 
Q 3513 744 3044 326 
Q 2575 -91 1722 -91 
Q 1428 -91 1123 -41 
Q 819 9 494 109 
L 494 744 
Q 775 591 1075 516 
Q 1375 441 1709 441 
Q 2250 441 2565 725 
Q 2881 1009 2881 1497 
Q 2881 1984 2565 2268 
Q 2250 2553 1709 2553 
Q 1456 2553 1204 2497 
Q 953 2441 691 2322 
L 691 4666 
z
" transform="scale(0.015625)"/>
       </defs>
       <use xlink:href="#DejaVuSans-31" transform="translate(0 0.684375)"/>
       <use xlink:href="#DejaVuSans-30" transform="translate(63.623047 0.684375)"/>
       <use xlink:href="#DejaVuSans-2212" transform="translate(128.203125 38.965625) scale(0.7)"/>
       <use xlink:href="#DejaVuSans-35" transform="translate(186.855469 38.965625) scale(0.7)"/>
      </g>
     </g>
    </g>
    <g id="ytick_9">
     <g id="line2d_24">
      <g>
       <use xlink:href="#m144795b39c" x="394.363636" y="184.948519" style="stroke: #000000; stroke-width: 0.8"/>
      </g>
     </g>
     <g id="text_25">
      <!-- $\mathdefault{10^{-4}}$ -->
      <g transform="translate(363.863636 188.747738) scale(0.1 -0.1)">
       <use xlink:href="#DejaVuSans-31" transform="translate(0 0.684375)"/>
       <use xlink:href="#DejaVuSans-30" transform="translate(63.623047 0.684375)"/>
       <use xlink:href="#DejaVuSans-2212" transform="translate(128.203125 38.965625) scale(0.7)"/>
       <use xlink:href="#DejaVuSans-34" transform="translate(186.855469 38.965625) scale(0.7)"/>
      </g>
     </g>
    </g>
    <g id="ytick_10">
     <g id="line2d_25">
      <g>
       <use xlink:href="#m144795b39c" x="394.363636" y="127.822301" style="stroke: #000000; stroke-width: 0.8"/>
      </g>
     </g>
     <g id="text_26">
      <!-- $\mathdefault{10^{-3}}$ -->
      <g transform="translate(363.863636 131.62152) scale(0.1 -0.1)">
       <defs>
        <path id="DejaVuSans-33" d="M 2597 2516 
Q 3050 2419 3304 2112 
Q 3559 1806 3559 1356 
Q 3559 666 3084 287 
Q 2609 -91 1734 -91 
Q 1441 -91 1130 -33 
Q 819 25 488 141 
L 488 750 
Q 750 597 1062 519 
Q 1375 441 1716 441 
Q 2309 441 2620 675 
Q 2931 909 2931 1356 
Q 2931 1769 2642 2001 
Q 2353 2234 1838 2234 
L 1294 2234 
L 1294 2753 
L 1863 2753 
Q 2328 2753 2575 2939 
Q 2822 3125 2822 3475 
Q 2822 3834 2567 4026 
Q 2313 4219 1838 4219 
Q 1578 4219 1281 4162 
Q 984 4106 628 3988 
L 628 4550 
Q 988 4650 1302 4700 
Q 1616 4750 1894 4750 
Q 2613 4750 3031 4423 
Q 3450 4097 3450 3541 
Q 3450 3153 3228 2886 
Q 3006 2619 2597 2516 
z
" transform="scale(0.015625)"/>
       </defs>
       <use xlink:href="#DejaVuSans-31" transform="translate(0 0.765625)"/>
       <use xlink:href="#DejaVuSans-30" transform="translate(63.623047 0.765625)"/>
       <use xlink:href="#DejaVuSans-2212" transform="translate(128.203125 39.046875) scale(0.7)"/>
       <use xlink:href="#DejaVuSans-33" transform="translate(186.855469 39.046875) scale(0.7)"/>
      </g>
     </g>
    </g>
    <g id="ytick_11">
     <g id="line2d_26">
      <g>
       <use xlink:href="#m144795b39c" x="394.363636" y="70.696083" style="stroke: #000000; stroke-width: 0.8"/>
      </g>
     </g>
     <g id="text_27">
      <!-- $\mathdefault{10^{-2}}$ -->
      <g transform="translate(363.863636 74.495302) scale(0.1 -0.1)">
       <use xlink:href="#DejaVuSans-31" transform="translate(0 0.765625)"/>
       <use xlink:href="#DejaVuSans-30" transform="translate(63.623047 0.765625)"/>
       <use xlink:href="#DejaVuSans-2212" transform="translate(128.203125 39.046875) scale(0.7)"/>
       <use xlink:href="#DejaVuSans-32" transform="translate(186.855469 39.046875) scale(0.7)"/>
      </g>
     </g>
    </g>
    <g id="ytick_12">
     <g id="line2d_27">
      <defs>
       <path id="m6d2d3f8ff5" d="M 0 0 
L -2 0 
" style="stroke: #000000; stroke-width: 0.6"/>
      </defs>
      <g>
       <use xlink:href="#m6d2d3f8ff5" x="394.363636" y="316.39766" style="stroke: #000000; stroke-width: 0.6"/>
      </g>
     </g>
    </g>
    <g id="ytick_13">
     <g id="line2d_28">
      <g>
       <use xlink:href="#m6d2d3f8ff5" x="394.363636" y="311.874335" style="stroke: #000000; stroke-width: 0.6"/>
      </g>
     </g>
    </g>
    <g id="ytick_14">
     <g id="line2d_29">
      <g>
       <use xlink:href="#m6d2d3f8ff5" x="394.363636" y="308.049918" style="stroke: #000000; stroke-width: 0.6"/>
      </g>
     </g>
    </g>
    <g id="ytick_15">
     <g id="line2d_30">
      <g>
       <use xlink:href="#m6d2d3f8ff5" x="394.363636" y="304.737058" style="stroke: #000000; stroke-width: 0.6"/>
      </g>
     </g>
    </g>
    <g id="ytick_16">
     <g id="line2d_31">
      <g>
       <use xlink:href="#m6d2d3f8ff5" x="394.363636" y="301.814907" style="stroke: #000000; stroke-width: 0.6"/>
      </g>
     </g>
    </g>
    <g id="ytick_17">
     <g id="line2d_32">
      <g>
       <use xlink:href="#m6d2d3f8ff5" x="394.363636" y="282.00425" style="stroke: #000000; stroke-width: 0.6"/>
      </g>
     </g>
    </g>
    <g id="ytick_18">
     <g id="line2d_33">
      <g>
       <use xlink:href="#m6d2d3f8ff5" x="394.363636" y="271.944822" style="stroke: #000000; stroke-width: 0.6"/>
      </g>
     </g>
    </g>
    <g id="ytick_19">
     <g id="line2d_34">
      <g>
       <use xlink:href="#m6d2d3f8ff5" x="394.363636" y="264.807545" style="stroke: #000000; stroke-width: 0.6"/>
      </g>
     </g>
    </g>
    <g id="ytick_20">
     <g id="line2d_35">
      <g>
       <use xlink:href="#m6d2d3f8ff5" x="394.363636" y="259.271442" style="stroke: #000000; stroke-width: 0.6"/>
      </g>
     </g>
    </g>
    <g id="ytick_21">
     <g id="line2d_36">
      <g>
       <use xlink:href="#m6d2d3f8ff5" x="394.363636" y="254.748117" style="stroke: #000000; stroke-width: 0.6"/>
      </g>
     </g>
    </g>
    <g id="ytick_22">
     <g id="line2d_37">
      <g>
       <use xlink:href="#m6d2d3f8ff5" x="394.363636" y="250.9237" style="stroke: #000000; stroke-width: 0.6"/>
      </g>
     </g>
    </g>
    <g id="ytick_23">
     <g id="line2d_38">
      <g>
       <use xlink:href="#m6d2d3f8ff5" x="394.363636" y="247.61084" style="stroke: #000000; stroke-width: 0.6"/>
      </g>
     </g>
    </g>
    <g id="ytick_24">
     <g id="line2d_39">
      <g>
       <use xlink:href="#m6d2d3f8ff5" x="394.363636" y="244.688689" style="stroke: #000000; stroke-width: 0.6"/>
      </g>
     </g>
    </g>
    <g id="ytick_25">
     <g id="line2d_40">
      <g>
       <use xlink:href="#m6d2d3f8ff5" x="394.363636" y="224.878032" style="stroke: #000000; stroke-width: 0.6"/>
      </g>
     </g>
    </g>
    <g id="ytick_26">
     <g id="line2d_41">
      <g>
       <use xlink:href="#m6d2d3f8ff5" x="394.363636" y="214.818604" style="stroke: #000000; stroke-width: 0.6"/>
      </g>
     </g>
    </g>
    <g id="ytick_27">
     <g id="line2d_42">
      <g>
       <use xlink:href="#m6d2d3f8ff5" x="394.363636" y="207.681327" style="stroke: #000000; stroke-width: 0.6"/>
      </g>
     </g>
    </g>
    <g id="ytick_28">
     <g id="line2d_43">
      <g>
       <use xlink:href="#m6d2d3f8ff5" x="394.363636" y="202.145224" style="stroke: #000000; stroke-width: 0.6"/>
      </g>
     </g>
    </g>
    <g id="ytick_29">
     <g id="line2d_44">
      <g>
       <use xlink:href="#m6d2d3f8ff5" x="394.363636" y="197.621899" style="stroke: #000000; stroke-width: 0.6"/>
      </g>
     </g>
    </g>
    <g id="ytick_30">
     <g id="line2d_45">
      <g>
       <use xlink:href="#m6d2d3f8ff5" x="394.363636" y="193.797482" style="stroke: #000000; stroke-width: 0.6"/>
      </g>
     </g>
    </g>
    <g id="ytick_31">
     <g id="line2d_46">
      <g>
       <use xlink:href="#m6d2d3f8ff5" x="394.363636" y="190.484622" style="stroke: #000000; stroke-width: 0.6"/>
      </g>
     </g>
    </g>
    <g id="ytick_32">
     <g id="line2d_47">
      <g>
       <use xlink:href="#m6d2d3f8ff5" x="394.363636" y="187.562472" style="stroke: #000000; stroke-width: 0.6"/>
      </g>
     </g>
    </g>
    <g id="ytick_33">
     <g id="line2d_48">
      <g>
       <use xlink:href="#m6d2d3f8ff5" x="394.363636" y="167.751814" style="stroke: #000000; stroke-width: 0.6"/>
      </g>
     </g>
    </g>
    <g id="ytick_34">
     <g id="line2d_49">
      <g>
       <use xlink:href="#m6d2d3f8ff5" x="394.363636" y="157.692386" style="stroke: #000000; stroke-width: 0.6"/>
      </g>
     </g>
    </g>
    <g id="ytick_35">
     <g id="line2d_50">
      <g>
       <use xlink:href="#m6d2d3f8ff5" x="394.363636" y="150.555109" style="stroke: #000000; stroke-width: 0.6"/>
      </g>
     </g>
    </g>
    <g id="ytick_36">
     <g id="line2d_51">
      <g>
       <use xlink:href="#m6d2d3f8ff5" x="394.363636" y="145.019006" style="stroke: #000000; stroke-width: 0.6"/>
      </g>
     </g>
    </g>
    <g id="ytick_37">
     <g id="line2d_52">
      <g>
       <use xlink:href="#m6d2d3f8ff5" x="394.363636" y="140.495681" style="stroke: #000000; stroke-width: 0.6"/>
      </g>
     </g>
    </g>
    <g id="ytick_38">
     <g id="line2d_53">
      <g>
       <use xlink:href="#m6d2d3f8ff5" x="394.363636" y="136.671264" style="stroke: #000000; stroke-width: 0.6"/>
      </g>
     </g>
    </g>
    <g id="ytick_39">
     <g id="line2d_54">
      <g>
       <use xlink:href="#m6d2d3f8ff5" x="394.363636" y="133.358404" style="stroke: #000000; stroke-width: 0.6"/>
      </g>
     </g>
    </g>
    <g id="ytick_40">
     <g id="line2d_55">
      <g>
       <use xlink:href="#m6d2d3f8ff5" x="394.363636" y="130.436254" style="stroke: #000000; stroke-width: 0.6"/>
      </g>
     </g>
    </g>
    <g id="ytick_41">
     <g id="line2d_56">
      <g>
       <use xlink:href="#m6d2d3f8ff5" x="394.363636" y="110.625596" style="stroke: #000000; stroke-width: 0.6"/>
      </g>
     </g>
    </g>
    <g id="ytick_42">
     <g id="line2d_57">
      <g>
       <use xlink:href="#m6d2d3f8ff5" x="394.363636" y="100.566169" style="stroke: #000000; stroke-width: 0.6"/>
      </g>
     </g>
    </g>
    <g id="ytick_43">
     <g id="line2d_58">
      <g>
       <use xlink:href="#m6d2d3f8ff5" x="394.363636" y="93.428891" style="stroke: #000000; stroke-width: 0.6"/>
      </g>
     </g>
    </g>
    <g id="ytick_44">
     <g id="line2d_59">
      <g>
       <use xlink:href="#m6d2d3f8ff5" x="394.363636" y="87.892788" style="stroke: #000000; stroke-width: 0.6"/>
      </g>
     </g>
    </g>
    <g id="ytick_45">
     <g id="line2d_60">
      <g>
       <use xlink:href="#m6d2d3f8ff5" x="394.363636" y="83.369463" style="stroke: #000000; stroke-width: 0.6"/>
      </g>
     </g>
    </g>
    <g id="ytick_46">
     <g id="line2d_61">
      <g>
       <use xlink:href="#m6d2d3f8ff5" x="394.363636" y="79.545046" style="stroke: #000000; stroke-width: 0.6"/>
      </g>
     </g>
    </g>
    <g id="ytick_47">
     <g id="line2d_62">
      <g>
       <use xlink:href="#m6d2d3f8ff5" x="394.363636" y="76.232186" style="stroke: #000000; stroke-width: 0.6"/>
      </g>
     </g>
    </g>
    <g id="ytick_48">
     <g id="line2d_63">
      <g>
       <use xlink:href="#m6d2d3f8ff5" x="394.363636" y="73.310036" style="stroke: #000000; stroke-width: 0.6"/>
      </g>
     </g>
    </g>
    <g id="ytick_49">
     <g id="line2d_64">
      <g>
       <use xlink:href="#m6d2d3f8ff5" x="394.363636" y="53.499378" style="stroke: #000000; stroke-width: 0.6"/>
      </g>
     </g>
    </g>
    <g id="ytick_50">
     <g id="line2d_65">
      <g>
       <use xlink:href="#m6d2d3f8ff5" x="394.363636" y="43.439951" style="stroke: #000000; stroke-width: 0.6"/>
      </g>
     </g>
    </g>
    <g id="text_28">
     <!-- [Cveblood_rap] -->
     <g transform="translate(357.034261 227.494687) rotate(-90) scale(0.12 -0.12)">
      <use xlink:href="#DejaVuSans-5b"/>
      <use xlink:href="#DejaVuSans-43" transform="translate(39.013672 0)"/>
      <use xlink:href="#DejaVuSans-76" transform="translate(108.837891 0)"/>
      <use xlink:href="#DejaVuSans-65" transform="translate(168.017578 0)"/>
      <use xlink:href="#DejaVuSans-62" transform="translate(229.541016 0)"/>
      <use xlink:href="#DejaVuSans-6c" transform="translate(293.017578 0)"/>
      <use xlink:href="#DejaVuSans-6f" transform="translate(320.800781 0)"/>
      <use xlink:href="#DejaVuSans-6f" transform="translate(381.982422 0)"/>
      <use xlink:href="#DejaVuSans-64" transform="translate(443.164062 0)"/>
      <use xlink:href="#DejaVuSans-5f" transform="translate(506.640625 0)"/>
      <use xlink:href="#DejaVuSans-72" transform="translate(556.640625 0)"/>
      <use xlink:href="#DejaVuSans-61" transform="translate(597.753906 0)"/>
      <use xlink:href="#DejaVuSans-70" transform="translate(659.033203 0)"/>
      <use xlink:href="#DejaVuSans-5d" transform="translate(722.509766 0)"/>
     </g>
    </g>
   </g>
   <g id="LineCollection_3">
    <path d="M 415.5 199.83696 
L 415.5 185.991868 
" clip-path="url(#p1d5c688822)" style="fill: none; stroke: #000000; stroke-width: 1.5"/>
    <path d="M 416.483428 209.808791 
L 416.483428 184.295963 
" clip-path="url(#p1d5c688822)" style="fill: none; stroke: #000000; stroke-width: 1.5"/>
    <path d="M 416.967803 225.189072 
L 416.967803 197.005901 
" clip-path="url(#p1d5c688822)" style="fill: none; stroke: #000000; stroke-width: 1.5"/>
    <path d="M 418.435606 223.160903 
L 418.435606 207.118677 
" clip-path="url(#p1d5c688822)" style="fill: none; stroke: #000000; stroke-width: 1.5"/>
    <path d="M 419.903409 231.273579 
L 419.903409 212.560511 
" clip-path="url(#p1d5c688822)" style="fill: none; stroke: #000000; stroke-width: 1.5"/>
    <path d="M 421.371212 242.93555 
L 421.371212 222.48238 
" clip-path="url(#p1d5c688822)" style="fill: none; stroke: #000000; stroke-width: 1.5"/>
    <path d="M 424.306818 254.428508 
L 424.306818 229.467992 
" clip-path="url(#p1d5c688822)" style="fill: none; stroke: #000000; stroke-width: 1.5"/>
    <path d="M 427.242424 260.174986 
L 427.242424 241.193989 
" clip-path="url(#p1d5c688822)" style="fill: none; stroke: #000000; stroke-width: 1.5"/>
    <path d="M 433.113636 263.555268 
L 433.113636 247.153372 
" clip-path="url(#p1d5c688822)" style="fill: none; stroke: #000000; stroke-width: 1.5"/>
    <path d="M 437.517045 269.639775 
L 437.517045 251.05604 
" clip-path="url(#p1d5c688822)" style="fill: none; stroke: #000000; stroke-width: 1.5"/>
    <path d="M 450.727273 279.949633 
L 450.727273 259.118065 
" clip-path="url(#p1d5c688822)" style="fill: none; stroke: #000000; stroke-width: 1.5"/>
    <path d="M 485.954545 287.724281 
L 485.954545 262.496407 
" clip-path="url(#p1d5c688822)" style="fill: none; stroke: #000000; stroke-width: 1.5"/>
    <path d="M 521.181818 298.87921 
L 521.181818 266.355551 
" clip-path="url(#p1d5c688822)" style="fill: none; stroke: #000000; stroke-width: 1.5"/>
    <path d="M 591.636364 307.667942 
L 591.636364 273.270824 
" clip-path="url(#p1d5c688822)" style="fill: none; stroke: #000000; stroke-width: 1.5"/>
    <path d="M 626.863636 309.358083 
L 626.863636 279.949666 
" clip-path="url(#p1d5c688822)" style="fill: none; stroke: #000000; stroke-width: 1.5"/>
   </g>
   <g id="line2d_66">
    <path d="M 415.533581 361 
L 415.671978 262.633457 
L 415.891773 234.760225 
L 416.187487 222.873443 
L 416.494569 217.8992 
L 416.81492 215.711414 
L 417.115389 215.021903 
L 417.315702 214.988198 
L 417.616171 215.333077 
L 418.116952 216.506396 
L 419.51914 220.830861 
L 420.721015 224.148368 
L 421.92289 226.804722 
L 423.124765 228.935281 
L 424.526953 230.978152 
L 426.385468 233.261119 
L 428.971689 236.059421 
L 434.022005 241.137374 
L 462.767971 269.410204 
L 555.94267 361 
L 555.94267 361 
" clip-path="url(#p1d5c688822)" style="fill: none; stroke: #0000ff; stroke-width: 1.5; stroke-linecap: square"/>
   </g>
   <g id="line2d_67">
    <path d="M 415.5 191.960904 
L 416.483428 193.907946 
L 416.967803 207.293861 
L 418.435606 213.865129 
L 419.903409 220.193016 
L 421.371212 230.658367 
L 424.306818 238.933297 
L 427.242424 248.911888 
L 433.113636 254.022874 
L 437.517045 258.647099 
L 450.727273 267.408789 
L 485.954545 272.033014 
L 521.181818 277.63076 
L 591.636364 284.932169 
L 626.863636 290.529915 
" clip-path="url(#p1d5c688822)" style="fill: none; stroke: #000000; stroke-width: 1.5; stroke-linecap: square"/>
    <g clip-path="url(#p1d5c688822)">
     <use xlink:href="#m0dc0fa6275" x="415.5" y="191.960904" style="stroke: #000000; stroke-linejoin: miter"/>
     <use xlink:href="#m0dc0fa6275" x="416.483428" y="193.907946" style="stroke: #000000; stroke-linejoin: miter"/>
     <use xlink:href="#m0dc0fa6275" x="416.967803" y="207.293861" style="stroke: #000000; stroke-linejoin: miter"/>
     <use xlink:href="#m0dc0fa6275" x="418.435606" y="213.865129" style="stroke: #000000; stroke-linejoin: miter"/>
     <use xlink:href="#m0dc0fa6275" x="419.903409" y="220.193016" style="stroke: #000000; stroke-linejoin: miter"/>
     <use xlink:href="#m0dc0fa6275" x="421.371212" y="230.658367" style="stroke: #000000; stroke-linejoin: miter"/>
     <use xlink:href="#m0dc0fa6275" x="424.306818" y="238.933297" style="stroke: #000000; stroke-linejoin: miter"/>
     <use xlink:href="#m0dc0fa6275" x="427.242424" y="248.911888" style="stroke: #000000; stroke-linejoin: miter"/>
     <use xlink:href="#m0dc0fa6275" x="433.113636" y="254.022874" style="stroke: #000000; stroke-linejoin: miter"/>
     <use xlink:href="#m0dc0fa6275" x="437.517045" y="258.647099" style="stroke: #000000; stroke-linejoin: miter"/>
     <use xlink:href="#m0dc0fa6275" x="450.727273" y="267.408789" style="stroke: #000000; stroke-linejoin: miter"/>
     <use xlink:href="#m0dc0fa6275" x="485.954545" y="272.033014" style="stroke: #000000; stroke-linejoin: miter"/>
     <use xlink:href="#m0dc0fa6275" x="521.181818" y="277.63076" style="stroke: #000000; stroke-linejoin: miter"/>
     <use xlink:href="#m0dc0fa6275" x="591.636364" y="284.932169" style="stroke: #000000; stroke-linejoin: miter"/>
     <use xlink:href="#m0dc0fa6275" x="626.863636" y="290.529915" style="stroke: #000000; stroke-linejoin: miter"/>
    </g>
   </g>
   <g id="patch_9">
    <path d="M 394.363636 320.4 
L 394.363636 43.2 
" style="fill: none; stroke: #000000; stroke-width: 0.8; stroke-linejoin: miter; stroke-linecap: square"/>
   </g>
   <g id="patch_10">
    <path d="M 648 320.4 
L 648 43.2 
" style="fill: none; stroke: #000000; stroke-width: 0.8; stroke-linejoin: miter; stroke-linecap: square"/>
   </g>
   <g id="patch_11">
    <path d="M 394.363636 320.4 
L 648 320.4 
" style="fill: none; stroke: #000000; stroke-width: 0.8; stroke-linejoin: miter; stroke-linecap: square"/>
   </g>
   <g id="patch_12">
    <path d="M 394.363636 43.2 
L 648 43.2 
" style="fill: none; stroke: #000000; stroke-width: 0.8; stroke-linejoin: miter; stroke-linecap: square"/>
   </g>
   <g id="text_29">
    <!-- Bottiger2001 fm_rap_RAP10 -->
    <g transform="translate(422.599943 37.2) scale(0.14 -0.14)">
     <use xlink:href="#DejaVuSans-42"/>
     <use xlink:href="#DejaVuSans-6f" transform="translate(68.603516 0)"/>
     <use xlink:href="#DejaVuSans-74" transform="translate(129.785156 0)"/>
     <use xlink:href="#DejaVuSans-74" transform="translate(168.994141 0)"/>
     <use xlink:href="#DejaVuSans-69" transform="translate(208.203125 0)"/>
     <use xlink:href="#DejaVuSans-67" transform="translate(235.986328 0)"/>
     <use xlink:href="#DejaVuSans-65" transform="translate(299.462891 0)"/>
     <use xlink:href="#DejaVuSans-72" transform="translate(360.986328 0)"/>
     <use xlink:href="#DejaVuSans-32" transform="translate(402.099609 0)"/>
     <use xlink:href="#DejaVuSans-30" transform="translate(465.722656 0)"/>
     <use xlink:href="#DejaVuSans-30" transform="translate(529.345703 0)"/>
     <use xlink:href="#DejaVuSans-31" transform="translate(592.96875 0)"/>
     <use xlink:href="#DejaVuSans-20" transform="translate(656.591797 0)"/>
     <use xlink:href="#DejaVuSans-66" transform="translate(688.378906 0)"/>
     <use xlink:href="#DejaVuSans-6d" transform="translate(723.583984 0)"/>
     <use xlink:href="#DejaVuSans-5f" transform="translate(820.996094 0)"/>
     <use xlink:href="#DejaVuSans-72" transform="translate(870.996094 0)"/>
     <use xlink:href="#DejaVuSans-61" transform="translate(912.109375 0)"/>
     <use xlink:href="#DejaVuSans-70" transform="translate(973.388672 0)"/>
     <use xlink:href="#DejaVuSans-5f" transform="translate(1036.865234 0)"/>
     <use xlink:href="#DejaVuSans-52" transform="translate(1086.865234 0)"/>
     <use xlink:href="#DejaVuSans-41" transform="translate(1152.347656 0)"/>
     <use xlink:href="#DejaVuSans-50" transform="translate(1220.755859 0)"/>
     <use xlink:href="#DejaVuSans-31" transform="translate(1281.058594 0)"/>
     <use xlink:href="#DejaVuSans-30" transform="translate(1344.681641 0)"/>
    </g>
   </g>
   <g id="legend_2">
    <g id="patch_13">
     <path d="M 504.95 80.834375 
L 641 80.834375 
Q 643 80.834375 643 78.834375 
L 643 50.2 
Q 643 48.2 641 48.2 
L 504.95 48.2 
Q 502.95 48.2 502.95 50.2 
L 502.95 78.834375 
Q 502.95 80.834375 504.95 80.834375 
z
" style="fill: #ffffff; opacity: 0.8; stroke: #cccccc; stroke-linejoin: miter"/>
    </g>
    <g id="line2d_68">
     <path d="M 506.95 56.298437 
L 516.95 56.298437 
L 526.95 56.298437 
" style="fill: none; stroke: #0000ff; stroke-width: 1.5; stroke-linecap: square"/>
    </g>
    <g id="text_30">
     <!-- observable -->
     <g transform="translate(534.95 59.798437) scale(0.1 -0.1)">
      <use xlink:href="#DejaVuSans-6f"/>
      <use xlink:href="#DejaVuSans-62" transform="translate(61.181641 0)"/>
      <use xlink:href="#DejaVuSans-73" transform="translate(124.658203 0)"/>
      <use xlink:href="#DejaVuSans-65" transform="translate(176.757812 0)"/>
      <use xlink:href="#DejaVuSans-72" transform="translate(238.28125 0)"/>
      <use xlink:href="#DejaVuSans-76" transform="translate(279.394531 0)"/>
      <use xlink:href="#DejaVuSans-61" transform="translate(338.574219 0)"/>
      <use xlink:href="#DejaVuSans-62" transform="translate(399.853516 0)"/>
      <use xlink:href="#DejaVuSans-6c" transform="translate(463.330078 0)"/>
      <use xlink:href="#DejaVuSans-65" transform="translate(491.113281 0)"/>
     </g>
    </g>
    <g id="LineCollection_4">
     <path d="M 516.95 75.976562 
L 516.95 65.976562 
" style="fill: none; stroke: #000000; stroke-width: 1.5"/>
    </g>
    <g id="line2d_69">
     <path d="M 506.95 70.976562 
L 526.95 70.976562 
" style="fill: none; stroke: #000000; stroke-width: 1.5; stroke-linecap: square"/>
    </g>
    <g id="line2d_70">
     <g>
      <use xlink:href="#m0dc0fa6275" x="516.95" y="70.976562" style="stroke: #000000; stroke-linejoin: miter"/>
     </g>
    </g>
    <g id="text_31">
     <!-- reference_data ± SD -->
     <g transform="translate(534.95 74.476562) scale(0.1 -0.1)">
      <use xlink:href="#DejaVuSans-72"/>
      <use xlink:href="#DejaVuSans-65" transform="translate(38.863281 0)"/>
      <use xlink:href="#DejaVuSans-66" transform="translate(100.386719 0)"/>
      <use xlink:href="#DejaVuSans-65" transform="translate(135.591797 0)"/>
      <use xlink:href="#DejaVuSans-72" transform="translate(197.115234 0)"/>
      <use xlink:href="#DejaVuSans-65" transform="translate(235.978516 0)"/>
      <use xlink:href="#DejaVuSans-6e" transform="translate(297.501953 0)"/>
      <use xlink:href="#DejaVuSans-63" transform="translate(360.880859 0)"/>
      <use xlink:href="#DejaVuSans-65" transform="translate(415.861328 0)"/>
      <use xlink:href="#DejaVuSans-5f" transform="translate(477.384766 0)"/>
      <use xlink:href="#DejaVuSans-64" transform="translate(527.384766 0)"/>
      <use xlink:href="#DejaVuSans-61" transform="translate(590.861328 0)"/>
      <use xlink:href="#DejaVuSans-74" transform="translate(652.140625 0)"/>
      <use xlink:href="#DejaVuSans-61" transform="translate(691.349609 0)"/>
      <use xlink:href="#DejaVuSans-20" transform="translate(752.628906 0)"/>
      <use xlink:href="#DejaVuSans-b1" transform="translate(784.416016 0)"/>
      <use xlink:href="#DejaVuSans-20" transform="translate(868.205078 0)"/>
      <use xlink:href="#DejaVuSans-53" transform="translate(899.992188 0)"/>
      <use xlink:href="#DejaVuSans-44" transform="translate(963.46875 0)"/>
     </g>
    </g>
   </g>
  </g>
 </g>
 <defs>
  <clipPath id="p61103d6032">
   <rect x="90" y="43.2" width="253.636364" height="277.2"/>
  </clipPath>
  <clipPath id="p1d5c688822">
   <rect x="394.363636" y="43.2" width="253.636364" height="277.2"/>
  </clipPath>
 </defs>
</svg>
