<?xml version="1.0" encoding="utf-8" standalone="no"?>
<!DOCTYPE svg PUBLIC "-//W3C//DTD SVG 1.1//EN"
  "http://www.w3.org/Graphics/SVG/1.1/DTD/svg11.dtd">
<svg xmlns:xlink="http://www.w3.org/1999/xlink" width="360pt" height="360pt" viewBox="0 0 360 360" xmlns="http://www.w3.org/2000/svg" version="1.1">
 <metadata>
  <rdf:RDF xmlns:dc="http://purl.org/dc/elements/1.1/" xmlns:cc="http://creativecommons.org/ns#" xmlns:rdf="http://www.w3.org/1999/02/22-rdf-syntax-ns#">
   <cc:Work>
    <dc:type rdf:resource="http://purl.org/dc/dcmitype/StillImage"/>
    <dc:date>2025-09-22T14:58:07.865376</dc:date>
    <dc:format>image/svg+xml</dc:format>
    <dc:creator>
     <cc:Agent>
      <dc:title>Matplotlib v3.10.6, https://matplotlib.org/</dc:title>
     </cc:Agent>
    </dc:creator>
   </cc:Work>
  </rdf:RDF>
 </metadata>
 <defs>
  <style type="text/css">*{stroke-linejoin: round; stroke-linecap: butt}</style>
 </defs>
 <g id="figure_1">
  <g id="patch_1">
   <path d="M 0 360 
L 360 360 
L 360 0 
L 0 0 
z
" style="fill: #ffffff"/>
  </g>
  <g id="axes_1">
   <g id="patch_2">
    <path d="M 45 320.4 
L 324 320.4 
L 324 43.2 
L 45 43.2 
z
" style="fill: #ffffff"/>
   </g>
   <g id="matplotlib.axis_1">
    <g id="xtick_1">
     <g id="line2d_1">
      <defs>
       <path id="ma5919787d9" d="M 0 0 
L 0 3.5 
" style="stroke: #000000; stroke-width: 0.8"/>
      </defs>
      <g>
       <use xlink:href="#ma5919787d9" x="57.681818" y="320.4" style="stroke: #000000; stroke-width: 0.8"/>
      </g>
     </g>
     <g id="text_1">
      <!-- 0 -->
      <g transform="translate(54.500568 334.998438) scale(0.1 -0.1)">
       <defs>
        <path id="DejaVuSans-30" d="M 2034 4250 
Q 1547 4250 1301 3770 
Q 1056 3291 1056 2328 
Q 1056 1369 1301 889 
Q 1547 409 2034 409 
Q 2525 409 2770 889 
Q 3016 1369 3016 2328 
Q 3016 3291 2770 3770 
Q 2525 4250 2034 4250 
z
M 2034 4750 
Q 2819 4750 3233 4129 
Q 3647 3509 3647 2328 
Q 3647 1150 3233 529 
Q 2819 -91 2034 -91 
Q 1250 -91 836 529 
Q 422 1150 422 2328 
Q 422 3509 836 4129 
Q 1250 4750 2034 4750 
z
" transform="scale(0.015625)"/>
       </defs>
       <use xlink:href="#DejaVuSans-30"/>
      </g>
     </g>
    </g>
    <g id="xtick_2">
     <g id="line2d_2">
      <g>
       <use xlink:href="#ma5919787d9" x="117.220871" y="320.4" style="stroke: #000000; stroke-width: 0.8"/>
      </g>
     </g>
     <g id="text_2">
      <!-- 100 -->
      <g transform="translate(107.677121 334.998438) scale(0.1 -0.1)">
       <defs>
        <path id="DejaVuSans-31" d="M 794 531 
L 1825 531 
L 1825 4091 
L 703 3866 
L 703 4441 
L 1819 4666 
L 2450 4666 
L 2450 531 
L 3481 531 
L 3481 0 
L 794 0 
L 794 531 
z
" transform="scale(0.015625)"/>
       </defs>
       <use xlink:href="#DejaVuSans-31"/>
       <use xlink:href="#DejaVuSans-30" transform="translate(63.623047 0)"/>
       <use xlink:href="#DejaVuSans-30" transform="translate(127.246094 0)"/>
      </g>
     </g>
    </g>
    <g id="xtick_3">
     <g id="line2d_3">
      <g>
       <use xlink:href="#ma5919787d9" x="176.759923" y="320.4" style="stroke: #000000; stroke-width: 0.8"/>
      </g>
     </g>
     <g id="text_3">
      <!-- 200 -->
      <g transform="translate(167.216173 334.998438) scale(0.1 -0.1)">
       <defs>
        <path id="DejaVuSans-32" d="M 1228 531 
L 3431 531 
L 3431 0 
L 469 0 
L 469 531 
Q 828 903 1448 1529 
Q 2069 2156 2228 2338 
Q 2531 2678 2651 2914 
Q 2772 3150 2772 3378 
Q 2772 3750 2511 3984 
Q 2250 4219 1831 4219 
Q 1534 4219 1204 4116 
Q 875 4013 500 3803 
L 500 4441 
Q 881 4594 1212 4672 
Q 1544 4750 1819 4750 
Q 2544 4750 2975 4387 
Q 3406 4025 3406 3419 
Q 3406 3131 3298 2873 
Q 3191 2616 2906 2266 
Q 2828 2175 2409 1742 
Q 1991 1309 1228 531 
z
" transform="scale(0.015625)"/>
       </defs>
       <use xlink:href="#DejaVuSans-32"/>
       <use xlink:href="#DejaVuSans-30" transform="translate(63.623047 0)"/>
       <use xlink:href="#DejaVuSans-30" transform="translate(127.246094 0)"/>
      </g>
     </g>
    </g>
    <g id="xtick_4">
     <g id="line2d_4">
      <g>
       <use xlink:href="#ma5919787d9" x="236.298976" y="320.4" style="stroke: #000000; stroke-width: 0.8"/>
      </g>
     </g>
     <g id="text_4">
      <!-- 300 -->
      <g transform="translate(226.755226 334.998438) scale(0.1 -0.1)">
       <defs>
        <path id="DejaVuSans-33" d="M 2597 2516 
Q 3050 2419 3304 2112 
Q 3559 1806 3559 1356 
Q 3559 666 3084 287 
Q 2609 -91 1734 -91 
Q 1441 -91 1130 -33 
Q 819 25 488 141 
L 488 750 
Q 750 597 1062 519 
Q 1375 441 1716 441 
Q 2309 441 2620 675 
Q 2931 909 2931 1356 
Q 2931 1769 2642 2001 
Q 2353 2234 1838 2234 
L 1294 2234 
L 1294 2753 
L 1863 2753 
Q 2328 2753 2575 2939 
Q 2822 3125 2822 3475 
Q 2822 3834 2567 4026 
Q 2313 4219 1838 4219 
Q 1578 4219 1281 4162 
Q 984 4106 628 3988 
L 628 4550 
Q 988 4650 1302 4700 
Q 1616 4750 1894 4750 
Q 2613 4750 3031 4423 
Q 3450 4097 3450 3541 
Q 3450 3153 3228 2886 
Q 3006 2619 2597 2516 
z
" transform="scale(0.015625)"/>
       </defs>
       <use xlink:href="#DejaVuSans-33"/>
       <use xlink:href="#DejaVuSans-30" transform="translate(63.623047 0)"/>
       <use xlink:href="#DejaVuSans-30" transform="translate(127.246094 0)"/>
      </g>
     </g>
    </g>
    <g id="xtick_5">
     <g id="line2d_5">
      <g>
       <use xlink:href="#ma5919787d9" x="295.838028" y="320.4" style="stroke: #000000; stroke-width: 0.8"/>
      </g>
     </g>
     <g id="text_5">
      <!-- 400 -->
      <g transform="translate(286.294278 334.998438) scale(0.1 -0.1)">
       <defs>
        <path id="DejaVuSans-34" d="M 2419 4116 
L 825 1625 
L 2419 1625 
L 2419 4116 
z
M 2253 4666 
L 3047 4666 
L 3047 1625 
L 3713 1625 
L 3713 1100 
L 3047 1100 
L 3047 0 
L 2419 0 
L 2419 1100 
L 313 1100 
L 313 1709 
L 2253 4666 
z
" transform="scale(0.015625)"/>
       </defs>
       <use xlink:href="#DejaVuSans-34"/>
       <use xlink:href="#DejaVuSans-30" transform="translate(63.623047 0)"/>
       <use xlink:href="#DejaVuSans-30" transform="translate(127.246094 0)"/>
      </g>
     </g>
    </g>
    <g id="text_6">
     <!-- Optimization step -->
     <g transform="translate(131.233125 350.19625) scale(0.12 -0.12)">
      <defs>
       <path id="DejaVuSans-4f" d="M 2522 4238 
Q 1834 4238 1429 3725 
Q 1025 3213 1025 2328 
Q 1025 1447 1429 934 
Q 1834 422 2522 422 
Q 3209 422 3611 934 
Q 4013 1447 4013 2328 
Q 4013 3213 3611 3725 
Q 3209 4238 2522 4238 
z
M 2522 4750 
Q 3503 4750 4090 4092 
Q 4678 3434 4678 2328 
Q 4678 1225 4090 567 
Q 3503 -91 2522 -91 
Q 1538 -91 948 565 
Q 359 1222 359 2328 
Q 359 3434 948 4092 
Q 1538 4750 2522 4750 
z
" transform="scale(0.015625)"/>
       <path id="DejaVuSans-70" d="M 1159 525 
L 1159 -1331 
L 581 -1331 
L 581 3500 
L 1159 3500 
L 1159 2969 
Q 1341 3281 1617 3432 
Q 1894 3584 2278 3584 
Q 2916 3584 3314 3078 
Q 3713 2572 3713 1747 
Q 3713 922 3314 415 
Q 2916 -91 2278 -91 
Q 1894 -91 1617 61 
Q 1341 213 1159 525 
z
M 3116 1747 
Q 3116 2381 2855 2742 
Q 2594 3103 2138 3103 
Q 1681 3103 1420 2742 
Q 1159 2381 1159 1747 
Q 1159 1113 1420 752 
Q 1681 391 2138 391 
Q 2594 391 2855 752 
Q 3116 1113 3116 1747 
z
" transform="scale(0.015625)"/>
       <path id="DejaVuSans-74" d="M 1172 4494 
L 1172 3500 
L 2356 3500 
L 2356 3053 
L 1172 3053 
L 1172 1153 
Q 1172 725 1289 603 
Q 1406 481 1766 481 
L 2356 481 
L 2356 0 
L 1766 0 
Q 1100 0 847 248 
Q 594 497 594 1153 
L 594 3053 
L 172 3053 
L 172 3500 
L 594 3500 
L 594 4494 
L 1172 4494 
z
" transform="scale(0.015625)"/>
       <path id="DejaVuSans-69" d="M 603 3500 
L 1178 3500 
L 1178 0 
L 603 0 
L 603 3500 
z
M 603 4863 
L 1178 4863 
L 1178 4134 
L 603 4134 
L 603 4863 
z
" transform="scale(0.015625)"/>
       <path id="DejaVuSans-6d" d="M 3328 2828 
Q 3544 3216 3844 3400 
Q 4144 3584 4550 3584 
Q 5097 3584 5394 3201 
Q 5691 2819 5691 2113 
L 5691 0 
L 5113 0 
L 5113 2094 
Q 5113 2597 4934 2840 
Q 4756 3084 4391 3084 
Q 3944 3084 3684 2787 
Q 3425 2491 3425 1978 
L 3425 0 
L 2847 0 
L 2847 2094 
Q 2847 2600 2669 2842 
Q 2491 3084 2119 3084 
Q 1678 3084 1418 2786 
Q 1159 2488 1159 1978 
L 1159 0 
L 581 0 
L 581 3500 
L 1159 3500 
L 1159 2956 
Q 1356 3278 1631 3431 
Q 1906 3584 2284 3584 
Q 2666 3584 2933 3390 
Q 3200 3197 3328 2828 
z
" transform="scale(0.015625)"/>
       <path id="DejaVuSans-7a" d="M 353 3500 
L 3084 3500 
L 3084 2975 
L 922 459 
L 3084 459 
L 3084 0 
L 275 0 
L 275 525 
L 2438 3041 
L 353 3041 
L 353 3500 
z
" transform="scale(0.015625)"/>
       <path id="DejaVuSans-61" d="M 2194 1759 
Q 1497 1759 1228 1600 
Q 959 1441 959 1056 
Q 959 750 1161 570 
Q 1363 391 1709 391 
Q 2188 391 2477 730 
Q 2766 1069 2766 1631 
L 2766 1759 
L 2194 1759 
z
M 3341 1997 
L 3341 0 
L 2766 0 
L 2766 531 
Q 2569 213 2275 61 
Q 1981 -91 1556 -91 
Q 1019 -91 701 211 
Q 384 513 384 1019 
Q 384 1609 779 1909 
Q 1175 2209 1959 2209 
L 2766 2209 
L 2766 2266 
Q 2766 2663 2505 2880 
Q 2244 3097 1772 3097 
Q 1472 3097 1187 3025 
Q 903 2953 641 2809 
L 641 3341 
Q 956 3463 1253 3523 
Q 1550 3584 1831 3584 
Q 2591 3584 2966 3190 
Q 3341 2797 3341 1997 
z
" transform="scale(0.015625)"/>
       <path id="DejaVuSans-6f" d="M 1959 3097 
Q 1497 3097 1228 2736 
Q 959 2375 959 1747 
Q 959 1119 1226 758 
Q 1494 397 1959 397 
Q 2419 397 2687 759 
Q 2956 1122 2956 1747 
Q 2956 2369 2687 2733 
Q 2419 3097 1959 3097 
z
M 1959 3584 
Q 2709 3584 3137 3096 
Q 3566 2609 3566 1747 
Q 3566 888 3137 398 
Q 2709 -91 1959 -91 
Q 1206 -91 779 398 
Q 353 888 353 1747 
Q 353 2609 779 3096 
Q 1206 3584 1959 3584 
z
" transform="scale(0.015625)"/>
       <path id="DejaVuSans-6e" d="M 3513 2113 
L 3513 0 
L 2938 0 
L 2938 2094 
Q 2938 2591 2744 2837 
Q 2550 3084 2163 3084 
Q 1697 3084 1428 2787 
Q 1159 2491 1159 1978 
L 1159 0 
L 581 0 
L 581 3500 
L 1159 3500 
L 1159 2956 
Q 1366 3272 1645 3428 
Q 1925 3584 2291 3584 
Q 2894 3584 3203 3211 
Q 3513 2838 3513 2113 
z
" transform="scale(0.015625)"/>
       <path id="DejaVuSans-20" transform="scale(0.015625)"/>
       <path id="DejaVuSans-73" d="M 2834 3397 
L 2834 2853 
Q 2591 2978 2328 3040 
Q 2066 3103 1784 3103 
Q 1356 3103 1142 2972 
Q 928 2841 928 2578 
Q 928 2378 1081 2264 
Q 1234 2150 1697 2047 
L 1894 2003 
Q 2506 1872 2764 1633 
Q 3022 1394 3022 966 
Q 3022 478 2636 193 
Q 2250 -91 1575 -91 
Q 1294 -91 989 -36 
Q 684 19 347 128 
L 347 722 
Q 666 556 975 473 
Q 1284 391 1588 391 
Q 1994 391 2212 530 
Q 2431 669 2431 922 
Q 2431 1156 2273 1281 
Q 2116 1406 1581 1522 
L 1381 1569 
Q 847 1681 609 1914 
Q 372 2147 372 2553 
Q 372 3047 722 3315 
Q 1072 3584 1716 3584 
Q 2034 3584 2315 3537 
Q 2597 3491 2834 3397 
z
" transform="scale(0.015625)"/>
       <path id="DejaVuSans-65" d="M 3597 1894 
L 3597 1613 
L 953 1613 
Q 991 1019 1311 708 
Q 1631 397 2203 397 
Q 2534 397 2845 478 
Q 3156 559 3463 722 
L 3463 178 
Q 3153 47 2828 -22 
Q 2503 -91 2169 -91 
Q 1331 -91 842 396 
Q 353 884 353 1716 
Q 353 2575 817 3079 
Q 1281 3584 2069 3584 
Q 2775 3584 3186 3129 
Q 3597 2675 3597 1894 
z
M 3022 2063 
Q 3016 2534 2758 2815 
Q 2500 3097 2075 3097 
Q 1594 3097 1305 2825 
Q 1016 2553 972 2059 
L 3022 2063 
z
" transform="scale(0.015625)"/>
      </defs>
      <use xlink:href="#DejaVuSans-4f"/>
      <use xlink:href="#DejaVuSans-70" transform="translate(78.710938 0)"/>
      <use xlink:href="#DejaVuSans-74" transform="translate(142.1875 0)"/>
      <use xlink:href="#DejaVuSans-69" transform="translate(181.396484 0)"/>
      <use xlink:href="#DejaVuSans-6d" transform="translate(209.179688 0)"/>
      <use xlink:href="#DejaVuSans-69" transform="translate(306.591797 0)"/>
      <use xlink:href="#DejaVuSans-7a" transform="translate(334.375 0)"/>
      <use xlink:href="#DejaVuSans-61" transform="translate(386.865234 0)"/>
      <use xlink:href="#DejaVuSans-74" transform="translate(448.144531 0)"/>
      <use xlink:href="#DejaVuSans-69" transform="translate(487.353516 0)"/>
      <use xlink:href="#DejaVuSans-6f" transform="translate(515.136719 0)"/>
      <use xlink:href="#DejaVuSans-6e" transform="translate(576.318359 0)"/>
      <use xlink:href="#DejaVuSans-20" transform="translate(639.697266 0)"/>
      <use xlink:href="#DejaVuSans-73" transform="translate(671.484375 0)"/>
      <use xlink:href="#DejaVuSans-74" transform="translate(723.583984 0)"/>
      <use xlink:href="#DejaVuSans-65" transform="translate(762.792969 0)"/>
      <use xlink:href="#DejaVuSans-70" transform="translate(824.316406 0)"/>
     </g>
    </g>
   </g>
   <g id="matplotlib.axis_2">
    <g id="ytick_1">
     <g id="line2d_6">
      <defs>
       <path id="mda4f82ef3a" d="M 0 0 
L -3.5 0 
" style="stroke: #000000; stroke-width: 0.8"/>
      </defs>
      <g>
       <use xlink:href="#mda4f82ef3a" x="45" y="294.088604" style="stroke: #000000; stroke-width: 0.8"/>
      </g>
     </g>
     <g id="text_7">
      <!-- $\mathdefault{10^{3}}$ -->
      <g transform="translate(20.4 297.887823) scale(0.1 -0.1)">
       <use xlink:href="#DejaVuSans-31" transform="translate(0 0.765625)"/>
       <use xlink:href="#DejaVuSans-30" transform="translate(63.623047 0.765625)"/>
       <use xlink:href="#DejaVuSans-33" transform="translate(128.203125 39.046875) scale(0.7)"/>
      </g>
     </g>
    </g>
    <g id="ytick_2">
     <g id="line2d_7">
      <g>
       <use xlink:href="#mda4f82ef3a" x="45" y="247.46975" style="stroke: #000000; stroke-width: 0.8"/>
      </g>
     </g>
     <g id="text_8">
      <!-- $\mathdefault{10^{4}}$ -->
      <g transform="translate(20.4 251.268969) scale(0.1 -0.1)">
       <use xlink:href="#DejaVuSans-31" transform="translate(0 0.684375)"/>
       <use xlink:href="#DejaVuSans-30" transform="translate(63.623047 0.684375)"/>
       <use xlink:href="#DejaVuSans-34" transform="translate(128.203125 38.965625) scale(0.7)"/>
      </g>
     </g>
    </g>
    <g id="ytick_3">
     <g id="line2d_8">
      <g>
       <use xlink:href="#mda4f82ef3a" x="45" y="200.850896" style="stroke: #000000; stroke-width: 0.8"/>
      </g>
     </g>
     <g id="text_9">
      <!-- $\mathdefault{10^{5}}$ -->
      <g transform="translate(20.4 204.650114) scale(0.1 -0.1)">
       <defs>
        <path id="DejaVuSans-35" d="M 691 4666 
L 3169 4666 
L 3169 4134 
L 1269 4134 
L 1269 2991 
Q 1406 3038 1543 3061 
Q 1681 3084 1819 3084 
Q 2600 3084 3056 2656 
Q 3513 2228 3513 1497 
Q 3513 744 3044 326 
Q 2575 -91 1722 -91 
Q 1428 -91 1123 -41 
Q 819 9 494 109 
L 494 744 
Q 775 591 1075 516 
Q 1375 441 1709 441 
Q 2250 441 2565 725 
Q 2881 1009 2881 1497 
Q 2881 1984 2565 2268 
Q 2250 2553 1709 2553 
Q 1456 2553 1204 2497 
Q 953 2441 691 2322 
L 691 4666 
z
" transform="scale(0.015625)"/>
       </defs>
       <use xlink:href="#DejaVuSans-31" transform="translate(0 0.684375)"/>
       <use xlink:href="#DejaVuSans-30" transform="translate(63.623047 0.684375)"/>
       <use xlink:href="#DejaVuSans-35" transform="translate(128.203125 38.965625) scale(0.7)"/>
      </g>
     </g>
    </g>
    <g id="ytick_4">
     <g id="line2d_9">
      <g>
       <use xlink:href="#mda4f82ef3a" x="45" y="154.232042" style="stroke: #000000; stroke-width: 0.8"/>
      </g>
     </g>
     <g id="text_10">
      <!-- $\mathdefault{10^{6}}$ -->
      <g transform="translate(20.4 158.03126) scale(0.1 -0.1)">
       <defs>
        <path id="DejaVuSans-36" d="M 2113 2584 
Q 1688 2584 1439 2293 
Q 1191 2003 1191 1497 
Q 1191 994 1439 701 
Q 1688 409 2113 409 
Q 2538 409 2786 701 
Q 3034 994 3034 1497 
Q 3034 2003 2786 2293 
Q 2538 2584 2113 2584 
z
M 3366 4563 
L 3366 3988 
Q 3128 4100 2886 4159 
Q 2644 4219 2406 4219 
Q 1781 4219 1451 3797 
Q 1122 3375 1075 2522 
Q 1259 2794 1537 2939 
Q 1816 3084 2150 3084 
Q 2853 3084 3261 2657 
Q 3669 2231 3669 1497 
Q 3669 778 3244 343 
Q 2819 -91 2113 -91 
Q 1303 -91 875 529 
Q 447 1150 447 2328 
Q 447 3434 972 4092 
Q 1497 4750 2381 4750 
Q 2619 4750 2861 4703 
Q 3103 4656 3366 4563 
z
" transform="scale(0.015625)"/>
       </defs>
       <use xlink:href="#DejaVuSans-31" transform="translate(0 0.765625)"/>
       <use xlink:href="#DejaVuSans-30" transform="translate(63.623047 0.765625)"/>
       <use xlink:href="#DejaVuSans-36" transform="translate(128.203125 39.046875) scale(0.7)"/>
      </g>
     </g>
    </g>
    <g id="ytick_5">
     <g id="line2d_10">
      <g>
       <use xlink:href="#mda4f82ef3a" x="45" y="107.613187" style="stroke: #000000; stroke-width: 0.8"/>
      </g>
     </g>
     <g id="text_11">
      <!-- $\mathdefault{10^{7}}$ -->
      <g transform="translate(20.4 111.412406) scale(0.1 -0.1)">
       <defs>
        <path id="DejaVuSans-37" d="M 525 4666 
L 3525 4666 
L 3525 4397 
L 1831 0 
L 1172 0 
L 2766 4134 
L 525 4134 
L 525 4666 
z
" transform="scale(0.015625)"/>
       </defs>
       <use xlink:href="#DejaVuSans-31" transform="translate(0 0.684375)"/>
       <use xlink:href="#DejaVuSans-30" transform="translate(63.623047 0.684375)"/>
       <use xlink:href="#DejaVuSans-37" transform="translate(128.203125 38.965625) scale(0.7)"/>
      </g>
     </g>
    </g>
    <g id="ytick_6">
     <g id="line2d_11">
      <g>
       <use xlink:href="#mda4f82ef3a" x="45" y="60.994333" style="stroke: #000000; stroke-width: 0.8"/>
      </g>
     </g>
     <g id="text_12">
      <!-- $\mathdefault{10^{8}}$ -->
      <g transform="translate(20.4 64.793552) scale(0.1 -0.1)">
       <defs>
        <path id="DejaVuSans-38" d="M 2034 2216 
Q 1584 2216 1326 1975 
Q 1069 1734 1069 1313 
Q 1069 891 1326 650 
Q 1584 409 2034 409 
Q 2484 409 2743 651 
Q 3003 894 3003 1313 
Q 3003 1734 2745 1975 
Q 2488 2216 2034 2216 
z
M 1403 2484 
Q 997 2584 770 2862 
Q 544 3141 544 3541 
Q 544 4100 942 4425 
Q 1341 4750 2034 4750 
Q 2731 4750 3128 4425 
Q 3525 4100 3525 3541 
Q 3525 3141 3298 2862 
Q 3072 2584 2669 2484 
Q 3125 2378 3379 2068 
Q 3634 1759 3634 1313 
Q 3634 634 3220 271 
Q 2806 -91 2034 -91 
Q 1263 -91 848 271 
Q 434 634 434 1313 
Q 434 1759 690 2068 
Q 947 2378 1403 2484 
z
M 1172 3481 
Q 1172 3119 1398 2916 
Q 1625 2713 2034 2713 
Q 2441 2713 2670 2916 
Q 2900 3119 2900 3481 
Q 2900 3844 2670 4047 
Q 2441 4250 2034 4250 
Q 1625 4250 1398 4047 
Q 1172 3844 1172 3481 
z
" transform="scale(0.015625)"/>
       </defs>
       <use xlink:href="#DejaVuSans-31" transform="translate(0 0.765625)"/>
       <use xlink:href="#DejaVuSans-30" transform="translate(63.623047 0.765625)"/>
       <use xlink:href="#DejaVuSans-38" transform="translate(128.203125 39.046875) scale(0.7)"/>
      </g>
     </g>
    </g>
    <g id="ytick_7">
     <g id="line2d_12">
      <defs>
       <path id="m32a9b0dde8" d="M 0 0 
L -2 0 
" style="stroke: #000000; stroke-width: 0.6"/>
      </defs>
      <g>
       <use xlink:href="#m32a9b0dde8" x="45" y="318.464612" style="stroke: #000000; stroke-width: 0.6"/>
      </g>
     </g>
    </g>
    <g id="ytick_8">
     <g id="line2d_13">
      <g>
       <use xlink:href="#m32a9b0dde8" x="45" y="312.640111" style="stroke: #000000; stroke-width: 0.6"/>
      </g>
     </g>
    </g>
    <g id="ytick_9">
     <g id="line2d_14">
      <g>
       <use xlink:href="#m32a9b0dde8" x="45" y="308.122277" style="stroke: #000000; stroke-width: 0.6"/>
      </g>
     </g>
    </g>
    <g id="ytick_10">
     <g id="line2d_15">
      <g>
       <use xlink:href="#m32a9b0dde8" x="45" y="304.430938" style="stroke: #000000; stroke-width: 0.6"/>
      </g>
     </g>
    </g>
    <g id="ytick_11">
     <g id="line2d_16">
      <g>
       <use xlink:href="#m32a9b0dde8" x="45" y="301.309956" style="stroke: #000000; stroke-width: 0.6"/>
      </g>
     </g>
    </g>
    <g id="ytick_12">
     <g id="line2d_17">
      <g>
       <use xlink:href="#m32a9b0dde8" x="45" y="298.606438" style="stroke: #000000; stroke-width: 0.6"/>
      </g>
     </g>
    </g>
    <g id="ytick_13">
     <g id="line2d_18">
      <g>
       <use xlink:href="#m32a9b0dde8" x="45" y="296.221766" style="stroke: #000000; stroke-width: 0.6"/>
      </g>
     </g>
    </g>
    <g id="ytick_14">
     <g id="line2d_19">
      <g>
       <use xlink:href="#m32a9b0dde8" x="45" y="280.05493" style="stroke: #000000; stroke-width: 0.6"/>
      </g>
     </g>
    </g>
    <g id="ytick_15">
     <g id="line2d_20">
      <g>
       <use xlink:href="#m32a9b0dde8" x="45" y="271.845758" style="stroke: #000000; stroke-width: 0.6"/>
      </g>
     </g>
    </g>
    <g id="ytick_16">
     <g id="line2d_21">
      <g>
       <use xlink:href="#m32a9b0dde8" x="45" y="266.021257" style="stroke: #000000; stroke-width: 0.6"/>
      </g>
     </g>
    </g>
    <g id="ytick_17">
     <g id="line2d_22">
      <g>
       <use xlink:href="#m32a9b0dde8" x="45" y="261.503423" style="stroke: #000000; stroke-width: 0.6"/>
      </g>
     </g>
    </g>
    <g id="ytick_18">
     <g id="line2d_23">
      <g>
       <use xlink:href="#m32a9b0dde8" x="45" y="257.812084" style="stroke: #000000; stroke-width: 0.6"/>
      </g>
     </g>
    </g>
    <g id="ytick_19">
     <g id="line2d_24">
      <g>
       <use xlink:href="#m32a9b0dde8" x="45" y="254.691102" style="stroke: #000000; stroke-width: 0.6"/>
      </g>
     </g>
    </g>
    <g id="ytick_20">
     <g id="line2d_25">
      <g>
       <use xlink:href="#m32a9b0dde8" x="45" y="251.987584" style="stroke: #000000; stroke-width: 0.6"/>
      </g>
     </g>
    </g>
    <g id="ytick_21">
     <g id="line2d_26">
      <g>
       <use xlink:href="#m32a9b0dde8" x="45" y="249.602912" style="stroke: #000000; stroke-width: 0.6"/>
      </g>
     </g>
    </g>
    <g id="ytick_22">
     <g id="line2d_27">
      <g>
       <use xlink:href="#m32a9b0dde8" x="45" y="233.436076" style="stroke: #000000; stroke-width: 0.6"/>
      </g>
     </g>
    </g>
    <g id="ytick_23">
     <g id="line2d_28">
      <g>
       <use xlink:href="#m32a9b0dde8" x="45" y="225.226904" style="stroke: #000000; stroke-width: 0.6"/>
      </g>
     </g>
    </g>
    <g id="ytick_24">
     <g id="line2d_29">
      <g>
       <use xlink:href="#m32a9b0dde8" x="45" y="219.402403" style="stroke: #000000; stroke-width: 0.6"/>
      </g>
     </g>
    </g>
    <g id="ytick_25">
     <g id="line2d_30">
      <g>
       <use xlink:href="#m32a9b0dde8" x="45" y="214.884569" style="stroke: #000000; stroke-width: 0.6"/>
      </g>
     </g>
    </g>
    <g id="ytick_26">
     <g id="line2d_31">
      <g>
       <use xlink:href="#m32a9b0dde8" x="45" y="211.19323" style="stroke: #000000; stroke-width: 0.6"/>
      </g>
     </g>
    </g>
    <g id="ytick_27">
     <g id="line2d_32">
      <g>
       <use xlink:href="#m32a9b0dde8" x="45" y="208.072248" style="stroke: #000000; stroke-width: 0.6"/>
      </g>
     </g>
    </g>
    <g id="ytick_28">
     <g id="line2d_33">
      <g>
       <use xlink:href="#m32a9b0dde8" x="45" y="205.368729" style="stroke: #000000; stroke-width: 0.6"/>
      </g>
     </g>
    </g>
    <g id="ytick_29">
     <g id="line2d_34">
      <g>
       <use xlink:href="#m32a9b0dde8" x="45" y="202.984057" style="stroke: #000000; stroke-width: 0.6"/>
      </g>
     </g>
    </g>
    <g id="ytick_30">
     <g id="line2d_35">
      <g>
       <use xlink:href="#m32a9b0dde8" x="45" y="186.817222" style="stroke: #000000; stroke-width: 0.6"/>
      </g>
     </g>
    </g>
    <g id="ytick_31">
     <g id="line2d_36">
      <g>
       <use xlink:href="#m32a9b0dde8" x="45" y="178.60805" style="stroke: #000000; stroke-width: 0.6"/>
      </g>
     </g>
    </g>
    <g id="ytick_32">
     <g id="line2d_37">
      <g>
       <use xlink:href="#m32a9b0dde8" x="45" y="172.783549" style="stroke: #000000; stroke-width: 0.6"/>
      </g>
     </g>
    </g>
    <g id="ytick_33">
     <g id="line2d_38">
      <g>
       <use xlink:href="#m32a9b0dde8" x="45" y="168.265715" style="stroke: #000000; stroke-width: 0.6"/>
      </g>
     </g>
    </g>
    <g id="ytick_34">
     <g id="line2d_39">
      <g>
       <use xlink:href="#m32a9b0dde8" x="45" y="164.574376" style="stroke: #000000; stroke-width: 0.6"/>
      </g>
     </g>
    </g>
    <g id="ytick_35">
     <g id="line2d_40">
      <g>
       <use xlink:href="#m32a9b0dde8" x="45" y="161.453393" style="stroke: #000000; stroke-width: 0.6"/>
      </g>
     </g>
    </g>
    <g id="ytick_36">
     <g id="line2d_41">
      <g>
       <use xlink:href="#m32a9b0dde8" x="45" y="158.749875" style="stroke: #000000; stroke-width: 0.6"/>
      </g>
     </g>
    </g>
    <g id="ytick_37">
     <g id="line2d_42">
      <g>
       <use xlink:href="#m32a9b0dde8" x="45" y="156.365203" style="stroke: #000000; stroke-width: 0.6"/>
      </g>
     </g>
    </g>
    <g id="ytick_38">
     <g id="line2d_43">
      <g>
       <use xlink:href="#m32a9b0dde8" x="45" y="140.198368" style="stroke: #000000; stroke-width: 0.6"/>
      </g>
     </g>
    </g>
    <g id="ytick_39">
     <g id="line2d_44">
      <g>
       <use xlink:href="#m32a9b0dde8" x="45" y="131.989195" style="stroke: #000000; stroke-width: 0.6"/>
      </g>
     </g>
    </g>
    <g id="ytick_40">
     <g id="line2d_45">
      <g>
       <use xlink:href="#m32a9b0dde8" x="45" y="126.164695" style="stroke: #000000; stroke-width: 0.6"/>
      </g>
     </g>
    </g>
    <g id="ytick_41">
     <g id="line2d_46">
      <g>
       <use xlink:href="#m32a9b0dde8" x="45" y="121.646861" style="stroke: #000000; stroke-width: 0.6"/>
      </g>
     </g>
    </g>
    <g id="ytick_42">
     <g id="line2d_47">
      <g>
       <use xlink:href="#m32a9b0dde8" x="45" y="117.955522" style="stroke: #000000; stroke-width: 0.6"/>
      </g>
     </g>
    </g>
    <g id="ytick_43">
     <g id="line2d_48">
      <g>
       <use xlink:href="#m32a9b0dde8" x="45" y="114.834539" style="stroke: #000000; stroke-width: 0.6"/>
      </g>
     </g>
    </g>
    <g id="ytick_44">
     <g id="line2d_49">
      <g>
       <use xlink:href="#m32a9b0dde8" x="45" y="112.131021" style="stroke: #000000; stroke-width: 0.6"/>
      </g>
     </g>
    </g>
    <g id="ytick_45">
     <g id="line2d_50">
      <g>
       <use xlink:href="#m32a9b0dde8" x="45" y="109.746349" style="stroke: #000000; stroke-width: 0.6"/>
      </g>
     </g>
    </g>
    <g id="ytick_46">
     <g id="line2d_51">
      <g>
       <use xlink:href="#m32a9b0dde8" x="45" y="93.579514" style="stroke: #000000; stroke-width: 0.6"/>
      </g>
     </g>
    </g>
    <g id="ytick_47">
     <g id="line2d_52">
      <g>
       <use xlink:href="#m32a9b0dde8" x="45" y="85.370341" style="stroke: #000000; stroke-width: 0.6"/>
      </g>
     </g>
    </g>
    <g id="ytick_48">
     <g id="line2d_53">
      <g>
       <use xlink:href="#m32a9b0dde8" x="45" y="79.545841" style="stroke: #000000; stroke-width: 0.6"/>
      </g>
     </g>
    </g>
    <g id="ytick_49">
     <g id="line2d_54">
      <g>
       <use xlink:href="#m32a9b0dde8" x="45" y="75.028007" style="stroke: #000000; stroke-width: 0.6"/>
      </g>
     </g>
    </g>
    <g id="ytick_50">
     <g id="line2d_55">
      <g>
       <use xlink:href="#m32a9b0dde8" x="45" y="71.336668" style="stroke: #000000; stroke-width: 0.6"/>
      </g>
     </g>
    </g>
    <g id="ytick_51">
     <g id="line2d_56">
      <g>
       <use xlink:href="#m32a9b0dde8" x="45" y="68.215685" style="stroke: #000000; stroke-width: 0.6"/>
      </g>
     </g>
    </g>
    <g id="ytick_52">
     <g id="line2d_57">
      <g>
       <use xlink:href="#m32a9b0dde8" x="45" y="65.512167" style="stroke: #000000; stroke-width: 0.6"/>
      </g>
     </g>
    </g>
    <g id="ytick_53">
     <g id="line2d_58">
      <g>
       <use xlink:href="#m32a9b0dde8" x="45" y="63.127495" style="stroke: #000000; stroke-width: 0.6"/>
      </g>
     </g>
    </g>
    <g id="ytick_54">
     <g id="line2d_59">
      <g>
       <use xlink:href="#m32a9b0dde8" x="45" y="46.96066" style="stroke: #000000; stroke-width: 0.6"/>
      </g>
     </g>
    </g>
    <g id="text_13">
     <!-- Cost -->
     <g transform="translate(13.904375 195.13875) rotate(-90) scale(0.12 -0.12)">
      <defs>
       <path id="DejaVuSans-43" d="M 4122 4306 
L 4122 3641 
Q 3803 3938 3442 4084 
Q 3081 4231 2675 4231 
Q 1875 4231 1450 3742 
Q 1025 3253 1025 2328 
Q 1025 1406 1450 917 
Q 1875 428 2675 428 
Q 3081 428 3442 575 
Q 3803 722 4122 1019 
L 4122 359 
Q 3791 134 3420 21 
Q 3050 -91 2638 -91 
Q 1578 -91 968 557 
Q 359 1206 359 2328 
Q 359 3453 968 4101 
Q 1578 4750 2638 4750 
Q 3056 4750 3426 4639 
Q 3797 4528 4122 4306 
z
" transform="scale(0.015625)"/>
      </defs>
      <use xlink:href="#DejaVuSans-43"/>
      <use xlink:href="#DejaVuSans-6f" transform="translate(69.824219 0)"/>
      <use xlink:href="#DejaVuSans-73" transform="translate(131.005859 0)"/>
      <use xlink:href="#DejaVuSans-74" transform="translate(183.105469 0)"/>
     </g>
    </g>
   </g>
   <g id="line2d_60">
    <path d="M 57.681818 58.646432 
L 58.277209 55.8 
L 58.872599 63.286768 
L 59.46799 58.641067 
L 60.06338 58.577069 
L 61.254161 58.646425 
L 61.849552 58.646321 
L 62.444942 60.474252 
L 63.040333 58.646309 
L 63.635723 89.141241 
L 64.231114 88.011405 
L 64.826504 92.309256 
L 65.421895 89.280046 
L 66.017286 88.933759 
L 66.612676 89.141243 
L 67.803457 89.141231 
L 68.398848 86.788425 
L 68.994238 89.141241 
L 69.589629 114.368123 
L 70.185019 114.266656 
L 70.78041 116.309745 
L 71.3758 114.660511 
L 71.971191 114.09104 
L 72.566581 114.368121 
L 73.757362 114.367874 
L 74.352753 110.605229 
L 74.948143 114.368123 
L 75.543534 162.289627 
L 76.138924 162.285835 
L 76.734315 163.548008 
L 77.329706 163.468358 
L 77.925096 161.185372 
L 78.520487 162.289631 
L 79.711268 162.289632 
L 80.306658 155.190821 
L 80.902049 162.289627 
L 81.497439 201.356336 
L 82.09283 201.356342 
L 82.68822 202.296655 
L 83.283611 204.13567 
L 83.879001 199.241104 
L 84.474392 201.356246 
L 85.665173 201.356327 
L 86.260563 194.009046 
L 86.855954 201.356336 
L 87.451344 240.953903 
L 88.046735 240.95432 
L 88.642125 241.681484 
L 89.237516 246.554144 
L 89.832907 237.778319 
L 90.428297 240.954148 
L 91.619078 240.9539 
L 92.214469 233.800736 
L 92.809859 240.953903 
L 93.40525 277.582857 
L 94.00064 277.583164 
L 94.596031 277.980737 
L 95.191421 284.878612 
L 95.786812 274.3631 
L 96.382202 277.579859 
L 97.572983 277.582631 
L 98.168374 271.696463 
L 98.763764 277.58285 
L 99.359155 293.864199 
L 99.954545 293.864188 
L 100.549936 293.7457 
L 101.145327 295.592754 
L 101.740717 293.106398 
L 102.336108 293.864757 
L 103.526889 293.864197 
L 104.122279 292.308698 
L 104.71767 293.864199 
L 105.31306 296.827877 
L 106.503841 296.900621 
L 107.099232 296.682601 
L 108.885403 296.827877 
L 109.480794 296.827847 
L 110.076184 296.308378 
L 110.671575 296.827875 
L 111.266965 294.209865 
L 111.862356 299.260669 
L 112.457746 299.276049 
L 113.053137 298.904211 
L 113.648528 294.478401 
L 114.243918 300.78482 
L 114.839309 299.259298 
L 116.03009 299.260594 
L 116.62548 301.70144 
L 117.220871 299.260664 
L 117.816261 304.033448 
L 119.007042 304.002919 
L 119.602433 300.206 
L 120.197823 303.700199 
L 120.793214 304.032518 
L 121.983995 304.03346 
L 122.579385 303.275912 
L 123.174776 304.033448 
L 123.770166 302.462085 
L 124.365557 304.37162 
L 124.960948 304.386132 
L 125.556338 304.087804 
L 126.151729 298.359892 
L 126.747119 304.98039 
L 127.34251 304.371119 
L 128.533291 304.371624 
L 129.128681 305.205759 
L 129.724072 304.371617 
L 130.319462 305.438449 
L 130.914853 305.443056 
L 131.510243 305.296495 
L 132.105634 300.306146 
L 132.701024 304.967545 
L 133.296415 305.437327 
L 134.487196 305.438432 
L 135.082586 305.016071 
L 135.677977 305.438452 
L 136.273367 305.255353 
L 136.868758 305.661842 
L 137.464149 305.666124 
L 138.059539 305.541147 
L 138.65493 300.441867 
L 139.25032 305.11766 
L 139.845711 305.662458 
L 141.036492 305.661874 
L 141.631882 305.282899 
L 142.822663 305.931199 
L 143.418054 305.936668 
L 144.013444 305.735701 
L 144.608835 300.209553 
L 145.204225 305.642115 
L 145.799616 305.931513 
L 148.181178 305.931199 
L 148.776569 306.231663 
L 149.371959 306.243163 
L 149.96735 306.005978 
L 150.56274 300.551053 
L 151.158131 305.890484 
L 151.753521 306.233469 
L 154.135083 306.231663 
L 154.730474 306.435705 
L 155.325864 306.450431 
L 155.921255 306.306432 
L 156.516645 301.316174 
L 157.112036 305.741026 
L 157.707426 306.435486 
L 160.088988 306.435705 
L 161.27977 306.637506 
L 161.87516 306.213668 
L 162.470551 300.853223 
L 163.065941 306.283365 
L 163.661332 306.583869 
L 167.829065 306.507153 
L 168.424456 301.895252 
L 169.019846 305.782661 
L 169.615237 306.608436 
L 173.18758 306.621342 
L 173.782971 306.416187 
L 174.378361 301.584857 
L 174.973752 306.059144 
L 175.569142 306.680328 
L 179.141485 306.594605 
L 179.736876 306.308398 
L 180.332266 301.272432 
L 180.927657 306.2429 
L 181.523047 306.68992 
L 185.095391 306.629609 
L 185.690781 306.437625 
L 186.286172 301.774989 
L 186.881562 306.03187 
L 187.476953 306.695153 
L 190.453905 306.719858 
L 191.049296 306.578482 
L 191.644686 306.251442 
L 192.240077 301.287347 
L 192.835467 306.319261 
L 193.430858 306.719862 
L 197.003201 306.721896 
L 197.598592 306.579074 
L 198.193982 306.248287 
L 198.789373 301.211014 
L 199.384763 306.325447 
L 199.980154 306.720468 
L 204.147887 306.724234 
L 204.743278 306.606512 
L 205.338668 306.318561 
L 205.934059 301.419529 
L 206.529449 306.24054 
L 207.12484 306.722542 
L 210.101793 306.724858 
L 210.697183 306.59578 
L 211.292574 306.289512 
L 211.887964 301.365436 
L 212.483355 306.278322 
L 213.078745 306.725283 
L 216.055698 306.725087 
L 216.651088 306.593396 
L 217.246479 306.286016 
L 217.841869 301.368516 
L 218.43726 306.280165 
L 219.03265 306.72379 
L 224.391165 306.725095 
L 224.986556 306.592694 
L 225.581946 306.284066 
L 226.177337 301.363857 
L 226.772727 306.282632 
L 227.368118 306.723797 
L 230.34507 306.725095 
L 230.940461 306.591987 
L 231.535851 306.28212 
L 232.131242 301.359218 
L 232.726633 306.285083 
L 233.322023 306.723799 
L 237.489757 306.725096 
L 238.085147 306.591976 
L 238.680538 306.28209 
L 239.275928 301.359146 
L 239.871319 306.285121 
L 240.466709 306.723798 
L 246.420615 306.725096 
L 247.016005 306.591976 
L 247.611396 306.282089 
L 248.206786 301.359145 
L 248.802177 306.285121 
L 249.397567 306.723799 
L 251.779129 306.725096 
L 251.779129 306.725096 
" clip-path="url(#pe40423e688)" style="fill: none; stroke: #1f77b4; stroke-opacity: 0.8; stroke-width: 1.5; stroke-linecap: square"/>
   </g>
   <g id="line2d_61">
    <path d="M 57.681818 213.179996 
L 58.277209 213.18199 
L 58.872599 215.052625 
L 59.46799 227.051284 
L 60.06338 208.694113 
L 60.658771 213.180656 
L 61.849552 213.180657 
L 62.444942 208.01019 
L 63.040333 213.180656 
L 63.635723 260.452435 
L 64.231114 260.453627 
L 64.826504 262.458802 
L 65.421895 279.381659 
L 66.017286 253.562337 
L 66.612676 260.452433 
L 67.803457 260.452305 
L 68.398848 252.782579 
L 68.994238 260.452434 
L 69.589629 295.310764 
L 70.185019 295.31141 
L 70.78041 296.688267 
L 71.3758 300.725425 
L 71.971191 289.006912 
L 72.566581 295.310863 
L 73.757362 295.310819 
L 74.352753 288.647736 
L 75.543534 302.978632 
L 76.138924 302.978672 
L 76.734315 303.291228 
L 77.329706 298.863261 
L 78.520487 302.978588 
L 79.711268 302.978628 
L 80.306658 301.02576 
L 80.902049 302.978632 
L 81.497439 304.498945 
L 82.68822 304.547507 
L 83.283611 298.809648 
L 83.879001 303.545611 
L 84.474392 304.49974 
L 85.665173 304.498957 
L 86.260563 303.974047 
L 86.855954 304.498934 
L 87.451344 305.320124 
L 88.046735 305.325542 
L 88.642125 304.964017 
L 89.237516 298.316957 
L 89.832907 305.836535 
L 90.428297 305.320599 
L 91.619078 305.320124 
L 92.214469 305.9312 
L 92.809859 305.320124 
L 93.40525 305.957897 
L 94.596031 306.007652 
L 95.191421 300.875484 
L 95.786812 304.817784 
L 96.382202 305.95947 
L 97.572983 305.957898 
L 98.168374 305.523414 
L 98.763764 305.957898 
L 99.359155 304.247019 
L 99.954545 303.9982 
L 100.549936 306.221937 
L 101.740717 306.157726 
L 102.336108 300.873167 
L 102.931498 305.435324 
L 103.526889 306.221269 
L 104.71767 306.221937 
L 105.31306 306.098403 
L 106.503841 306.352927 
L 107.694622 306.269225 
L 108.290013 301.21437 
L 108.885403 305.611477 
L 109.480794 306.35529 
L 112.457746 306.450876 
L 113.053137 306.453522 
L 113.648528 306.265998 
L 114.243918 300.886197 
L 114.839309 306.020651 
L 115.434699 306.449793 
L 119.602433 306.372603 
L 120.197823 301.33973 
L 120.793214 305.837582 
L 121.388604 306.512201 
L 123.770166 306.510972 
L 124.365557 306.636837 
L 124.960948 306.629012 
L 125.556338 306.480732 
L 126.151729 301.804821 
L 126.747119 305.77229 
L 127.34251 306.637196 
L 130.914853 306.609946 
L 131.510243 306.308565 
L 132.105634 301.168717 
L 132.701024 306.197324 
L 133.296415 306.683112 
L 135.677977 306.682589 
L 136.273367 305.927636 
L 136.868758 305.930664 
L 137.464149 306.5678 
L 138.059539 306.69265 
L 138.65493 306.6356 
L 139.25032 306.398422 
L 139.845711 301.461703 
L 140.441101 306.072303 
L 141.036492 306.692647 
L 144.608835 306.623612 
L 145.204225 306.352768 
L 145.799616 301.341499 
L 146.395006 306.168388 
L 146.990397 306.702564 
L 151.158131 306.622672 
L 151.753521 306.351738 
L 152.348912 301.34778 
L 152.944302 306.178418 
L 153.539693 306.705693 
L 157.112036 306.619696 
L 157.707426 306.34137 
L 158.302817 301.343033 
L 158.898207 306.197101 
L 159.493598 306.708513 
L 163.065941 306.622143 
L 163.661332 306.366644 
L 164.256722 301.464295 
L 164.852113 306.158215 
L 165.447503 306.71022 
L 169.019846 306.602327 
L 169.615237 306.305558 
L 170.210627 301.308426 
L 170.806018 306.249618 
L 171.401408 306.713587 
L 174.973752 306.607841 
L 175.569142 306.328852 
L 176.164533 301.401596 
L 176.759923 306.215685 
L 177.355314 306.714127 
L 180.332266 306.714959 
L 180.927657 306.596245 
L 181.523047 306.295393 
L 182.118438 301.320967 
L 182.713828 306.261921 
L 183.309219 306.71496 
L 186.286172 306.715249 
L 186.881562 306.597237 
L 187.476953 306.299427 
L 188.072343 301.336676 
L 188.667734 306.254553 
L 189.263124 306.715322 
L 192.240077 306.715893 
L 192.835467 306.59626 
L 193.430858 306.298976 
L 194.026248 301.349295 
L 194.621639 306.254357 
L 195.217029 306.715825 
L 198.193982 306.716331 
L 198.789373 306.59523 
L 199.384763 306.298254 
L 199.980154 301.366393 
L 200.575544 306.253734 
L 201.170935 306.716086 
L 204.147887 306.717182 
L 204.743278 306.590971 
L 205.338668 306.287413 
L 205.934059 301.349229 
L 206.529449 306.266833 
L 207.12484 306.717269 
L 210.101793 306.719593 
L 210.697183 306.590534 
L 211.292574 306.288601 
L 211.887964 301.365356 
L 212.483355 306.264493 
L 213.078745 306.719459 
L 216.055698 306.721684 
L 216.651088 306.592617 
L 217.246479 306.297417 
L 217.841869 301.426383 
L 218.43726 306.253041 
L 219.03265 306.722018 
L 222.009603 306.724456 
L 222.604994 306.579758 
L 223.200384 306.258368 
L 223.795775 301.336115 
L 224.391165 306.306197 
L 224.986556 306.724388 
L 227.963508 306.724817 
L 228.558899 306.582453 
L 229.154289 306.263559 
L 229.74968 301.343512 
L 230.34507 306.300828 
L 230.940461 306.724813 
L 234.512804 306.724825 
L 235.108195 306.583811 
L 235.703585 306.268996 
L 236.298976 301.366533 
L 236.894366 306.290791 
L 237.489757 306.724648 
L 241.0621 306.724921 
L 241.65749 306.582107 
L 242.252881 306.268132 
L 242.848271 301.379883 
L 243.443662 306.289916 
L 244.039052 306.72485 
L 249.397567 306.724942 
L 249.992958 306.581025 
L 250.588348 306.265214 
L 251.183739 301.373103 
L 251.779129 306.293444 
L 252.37452 306.724868 
L 255.351472 306.724946 
L 255.946863 306.579927 
L 256.542254 306.262302 
L 257.137644 301.366316 
L 257.733035 306.296915 
L 258.328425 306.724883 
L 263.091549 306.725153 
L 263.68694 306.580124 
L 264.28233 306.262486 
L 264.877721 301.366289 
L 265.473111 306.296954 
L 266.068502 306.725095 
L 272.022407 306.724946 
L 272.022407 306.724946 
" clip-path="url(#pe40423e688)" style="fill: none; stroke: #ff7f0e; stroke-opacity: 0.8; stroke-width: 1.5; stroke-linecap: square"/>
   </g>
   <g id="line2d_62">
    <path d="M 57.681818 291.062721 
L 58.277209 291.076883 
L 58.872599 290.673167 
L 59.46799 288.694685 
L 60.06338 291.954586 
L 60.658771 291.062863 
L 63.040333 291.062856 
L 63.635723 286.706795 
L 64.231114 301.448197 
L 64.826504 301.357671 
L 65.421895 301.93402 
L 66.017286 304.127084 
L 66.612676 300.69162 
L 67.208067 301.448208 
L 68.398848 301.447984 
L 68.994238 300.552975 
L 69.589629 301.448197 
L 70.185019 304.860915 
L 70.78041 304.86689 
L 71.3758 304.744407 
L 71.971191 304.001596 
L 72.566581 304.749591 
L 73.757362 304.860821 
L 75.543534 304.860915 
L 76.138924 303.424252 
L 76.734315 305.216554 
L 77.329706 305.223981 
L 77.925096 305.102025 
L 78.520487 303.611406 
L 79.115877 304.983574 
L 79.711268 305.216472 
L 82.09283 305.216554 
L 82.68822 305.396621 
L 83.283611 305.390383 
L 83.879001 305.079291 
L 84.474392 302.057165 
L 85.069782 305.622788 
L 85.665173 305.397245 
L 86.855954 305.39654 
L 87.451344 305.802581 
L 88.046735 305.396621 
L 88.642125 306.194543 
L 89.832907 306.109774 
L 90.428297 303.752319 
L 91.023688 305.398531 
L 91.619078 306.194233 
L 92.809859 306.194822 
L 93.40525 305.469194 
L 94.00064 306.194543 
L 94.596031 302.774612 
L 95.191421 306.365279 
L 95.786812 306.360031 
L 96.382202 306.143173 
L 96.977593 302.400017 
L 97.572983 306.190745 
L 98.168374 306.365322 
L 99.359155 306.365258 
L 99.954545 306.192496 
L 100.549936 306.365279 
L 101.145327 306.836185 
L 101.740717 306.833994 
L 102.336108 306.65887 
L 102.931498 302.875297 
L 103.526889 306.446661 
L 104.122279 306.837311 
L 105.31306 306.836185 
L 105.908451 306.009567 
L 106.503841 306.836185 
L 107.099232 307.122971 
L 107.694622 307.128785 
L 108.290013 306.895555 
L 108.885403 302.562057 
L 109.480794 307.018013 
L 110.671575 307.123271 
L 111.266965 307.122973 
L 111.862356 306.285965 
L 112.457746 307.122971 
L 113.053137 307.36152 
L 113.648528 307.367476 
L 114.243918 307.242275 
L 114.839309 303.684357 
L 115.434699 306.782884 
L 116.03009 307.361153 
L 117.220871 307.361517 
L 117.816261 305.300518 
L 118.411652 307.36152 
L 119.007042 307.259674 
L 119.602433 307.443461 
L 120.197823 307.440811 
L 120.793214 307.267792 
L 121.388604 303.098639 
L 121.983995 307.17033 
L 122.579385 307.44471 
L 123.770166 307.443465 
L 124.365557 305.818995 
L 124.960948 307.443461 
L 125.556338 307.579256 
L 126.151729 307.580313 
L 126.747119 307.433059 
L 127.34251 303.489702 
L 127.9379 307.246825 
L 128.533291 307.579992 
L 129.724072 307.57926 
L 130.319462 305.532374 
L 130.914853 307.579256 
L 131.510243 307.694342 
L 132.105634 307.691091 
L 132.701024 307.465581 
L 133.296415 303.348292 
L 133.891805 307.632437 
L 135.082586 307.694278 
L 135.677977 307.694342 
L 136.273367 306.013278 
L 136.868758 307.694342 
L 138.059539 307.73779 
L 138.65493 307.611765 
L 139.25032 304.256437 
L 139.845711 307.458562 
L 140.441101 307.734272 
L 141.631882 307.732932 
L 142.227273 305.205783 
L 142.822663 307.732932 
L 144.013444 307.784935 
L 144.608835 307.632382 
L 145.204225 303.943816 
L 145.799616 307.64107 
L 146.395006 307.785052 
L 147.585787 307.784879 
L 148.181178 305.608423 
L 148.776569 307.784879 
L 149.96735 307.790061 
L 150.56274 307.629917 
L 151.158131 304.208377 
L 151.753521 307.674119 
L 152.348912 307.792545 
L 153.539693 307.792625 
L 154.135083 305.59001 
L 154.730474 307.792606 
L 155.921255 307.8 
L 156.516645 307.626181 
L 157.112036 304.022902 
L 157.707426 307.714618 
L 158.898207 307.799642 
L 159.493598 307.797974 
L 160.088988 305.75023 
L 160.684379 307.797968 
L 161.27977 307.690873 
L 162.470551 307.799202 
L 163.065941 307.63506 
L 163.661332 304.101002 
L 164.256722 307.699752 
L 165.447503 307.79829 
L 166.042894 307.798332 
L 166.638284 305.675941 
L 167.233675 307.798331 
L 168.424456 307.799193 
L 169.019846 307.635072 
L 169.615237 304.089103 
L 170.210627 307.706369 
L 171.401408 307.798671 
L 171.996799 307.798768 
L 172.59219 305.693617 
L 173.18758 307.798768 
L 174.378361 307.799581 
L 174.973752 307.637968 
L 175.569142 304.076305 
L 176.164533 307.705927 
L 177.355314 307.799356 
L 177.950704 307.799429 
L 178.546095 305.692385 
L 179.141485 307.799432 
L 185.095391 307.799583 
L 185.690781 307.638003 
L 186.286172 304.076467 
L 186.881562 307.705884 
L 188.072343 307.799356 
L 188.667734 307.799429 
L 189.263124 305.69218 
L 189.858515 307.799432 
L 191.049296 307.799583 
L 191.644686 307.638011 
L 192.240077 304.076319 
L 192.835467 307.705873 
L 194.026248 307.799356 
L 194.621639 307.799429 
L 195.217029 305.692129 
L 195.81242 307.799432 
L 197.003201 307.799584 
L 197.598592 307.63802 
L 198.193982 304.076538 
L 198.789373 307.705863 
L 199.980154 307.799356 
L 200.575544 307.799429 
L 201.170935 305.692079 
L 201.766325 307.799432 
L 202.957106 307.799584 
L 203.552497 307.638022 
L 204.147887 304.076596 
L 204.743278 307.70586 
L 205.934059 307.799356 
L 206.529449 307.799429 
L 207.12484 305.692066 
L 207.72023 307.799432 
L 210.101793 307.799584 
L 210.697183 307.638023 
L 211.292574 304.076565 
L 211.887964 307.70586 
L 213.078745 307.799356 
L 213.674136 307.799429 
L 214.269526 305.692064 
L 214.864917 307.799432 
L 217.246479 307.799584 
L 217.841869 307.638023 
L 218.43726 304.076565 
L 219.03265 307.70586 
L 220.223431 307.799356 
L 220.818822 307.799429 
L 221.414213 305.692064 
L 222.009603 307.799432 
L 222.009603 307.799432 
" clip-path="url(#pe40423e688)" style="fill: none; stroke: #2ca02c; stroke-opacity: 0.8; stroke-width: 1.5; stroke-linecap: square"/>
   </g>
   <g id="line2d_63">
    <path d="M 57.681818 119.837579 
L 58.277209 119.661687 
L 58.872599 121.376569 
L 59.46799 120.079224 
L 60.06338 119.772886 
L 61.254161 119.839402 
L 61.849552 119.839935 
L 62.444942 117.037218 
L 63.040333 119.839393 
L 63.635723 177.186519 
L 64.231114 177.182211 
L 64.826504 177.723952 
L 65.421895 178.057092 
L 66.017286 176.457354 
L 66.612676 177.186519 
L 67.803457 177.186546 
L 68.398848 169.994931 
L 68.994238 177.186519 
L 69.589629 213.752131 
L 70.185019 213.751289 
L 70.78041 214.129606 
L 71.3758 215.734727 
L 71.971191 212.14807 
L 72.566581 213.752126 
L 73.757362 213.752138 
L 74.352753 206.877709 
L 74.948143 213.752131 
L 75.543534 251.208232 
L 76.138924 251.208106 
L 76.734315 251.445553 
L 77.329706 255.432976 
L 77.925096 248.542747 
L 78.520487 251.205962 
L 79.711268 251.205801 
L 80.306658 245.138909 
L 80.902049 251.208232 
L 81.497439 282.936537 
L 82.68822 282.911402 
L 83.283611 287.646945 
L 83.879001 280.67724 
L 84.474392 282.936789 
L 85.665173 282.936509 
L 86.260563 279.178229 
L 86.855954 282.936537 
L 87.451344 292.588923 
L 88.642125 292.538726 
L 89.237516 296.333664 
L 89.832907 290.87028 
L 90.428297 292.588811 
L 91.619078 292.58881 
L 92.214469 290.037557 
L 92.809859 292.588925 
L 93.40525 298.633688 
L 94.00064 298.640782 
L 94.596031 298.362425 
L 95.191421 299.547115 
L 95.786812 298.131739 
L 96.382202 298.633736 
L 97.572983 298.633688 
L 98.168374 297.789232 
L 98.763764 298.633688 
L 99.359155 304.404314 
L 99.954545 304.406163 
L 100.549936 303.826318 
L 101.145327 300.943131 
L 101.740717 305.325014 
L 102.336108 304.404313 
L 103.526889 304.404301 
L 104.122279 305.436672 
L 104.71767 304.404314 
L 105.31306 305.892673 
L 105.908451 305.908948 
L 106.503841 305.513195 
L 107.099232 303.358232 
L 107.694622 305.825159 
L 108.885403 305.892483 
L 109.480794 305.892645 
L 110.076184 305.440147 
L 111.266965 306.418134 
L 111.862356 306.403885 
L 112.457746 305.978871 
L 113.053137 301.157163 
L 113.648528 307.114936 
L 114.243918 306.418134 
L 115.434699 306.4181 
L 116.03009 307.162593 
L 116.62548 306.418134 
L 117.220871 307.287751 
L 117.816261 307.291667 
L 118.411652 307.178375 
L 119.007042 303.774919 
L 119.602433 306.649809 
L 120.197823 307.28775 
L 121.388604 307.287762 
L 121.983995 305.305465 
L 122.579385 307.287752 
L 123.174776 306.940646 
L 123.770166 306.958469 
L 124.365557 307.383866 
L 124.960948 307.380899 
L 125.556338 307.202698 
L 126.151729 303.058707 
L 126.747119 307.126228 
L 127.34251 307.383919 
L 128.533291 307.383832 
L 129.128681 305.919704 
L 129.724072 307.383866 
L 130.319462 307.548698 
L 130.914853 307.548443 
L 131.510243 307.397068 
L 132.105634 303.466163 
L 132.701024 307.227173 
L 133.296415 307.548693 
L 134.487196 307.548692 
L 135.082586 305.615551 
L 135.677977 307.548696 
L 136.273367 307.680005 
L 136.868758 307.683013 
L 137.464149 307.448291 
L 138.059539 303.346699 
L 138.65493 307.635322 
L 140.441101 307.680001 
L 141.036492 306.062431 
L 141.631882 307.679986 
L 142.822663 307.723763 
L 143.418054 307.567864 
L 144.013444 304.030014 
L 144.608835 307.474537 
L 145.204225 307.719288 
L 146.395006 307.719655 
L 146.990397 305.394265 
L 147.585787 307.719605 
L 148.776569 307.778496 
L 149.371959 307.555239 
L 149.96735 303.772981 
L 150.56274 307.743153 
L 152.348912 307.779809 
L 152.944302 305.990144 
L 153.539693 307.779811 
L 154.730474 307.794787 
L 155.325864 307.634818 
L 155.921255 304.093766 
L 156.516645 307.665283 
L 157.112036 307.793241 
L 158.302817 307.793383 
L 158.898207 305.6015 
L 159.493598 307.793389 
L 160.684379 307.795931 
L 161.27977 307.626268 
L 161.87516 304.162063 
L 162.470551 307.697047 
L 163.661332 307.794486 
L 164.256722 307.79448 
L 164.852113 305.666835 
L 165.447503 307.794487 
L 166.638284 307.798189 
L 167.233675 307.62764 
L 167.829065 304.060472 
L 168.424456 307.715266 
L 169.615237 307.798634 
L 170.210627 307.798629 
L 170.806018 305.733697 
L 171.401408 307.798635 
L 174.973752 307.798775 
L 175.569142 307.636343 
L 176.164533 304.101882 
L 176.759923 307.705074 
L 177.950704 307.798801 
L 178.546095 307.7988 
L 179.141485 305.683963 
L 179.736876 307.798801 
L 181.523047 307.798919 
L 182.118438 307.637195 
L 182.713828 304.106903 
L 183.309219 307.704083 
L 184.5 307.798859 
L 185.095391 307.798855 
L 185.690781 305.678701 
L 186.286172 307.798859 
L 193.430858 307.798919 
L 194.026248 307.637195 
L 194.621639 304.106903 
L 195.217029 307.704083 
L 196.40781 307.798859 
L 197.003201 307.798855 
L 197.598592 305.678701 
L 198.193982 307.798859 
L 198.193982 307.798859 
" clip-path="url(#pe40423e688)" style="fill: none; stroke: #d62728; stroke-opacity: 0.8; stroke-width: 1.5; stroke-linecap: square"/>
   </g>
   <g id="line2d_64">
    <path d="M 57.681818 287.901114 
L 58.277209 288.028557 
L 58.872599 287.534151 
L 59.46799 284.629859 
L 60.06338 288.705759 
L 60.658771 287.901092 
L 61.849552 287.901068 
L 62.444942 288.08543 
L 63.040333 287.901068 
L 63.635723 278.467827 
L 64.231114 281.177544 
L 64.826504 293.391885 
L 65.421895 293.541522 
L 66.017286 293.121882 
L 66.612676 288.424734 
L 67.208067 293.494289 
L 68.398848 293.391888 
L 68.994238 293.391877 
L 69.589629 293.527131 
L 70.185019 293.391885 
L 70.78041 298.807184 
L 71.3758 298.632625 
L 71.971191 299.436438 
L 72.566581 295.06782 
L 73.161972 295.864745 
L 73.757362 298.807226 
L 74.948143 298.807182 
L 75.543534 298.397269 
L 76.138924 298.807183 
L 76.734315 303.64672 
L 77.329706 303.488265 
L 77.925096 303.989944 
L 78.520487 299.333536 
L 79.115877 301.154571 
L 79.711268 303.64658 
L 80.902049 303.64672 
L 81.497439 302.882019 
L 82.09283 303.64672 
L 82.68822 305.426222 
L 83.283611 305.309672 
L 83.879001 305.522737 
L 84.474392 300.672298 
L 85.069782 303.756687 
L 85.665173 305.42427 
L 86.855954 305.426222 
L 87.451344 304.578609 
L 88.046735 305.426222 
L 88.642125 306.073117 
L 89.237516 305.879799 
L 89.832907 306.125391 
L 90.428297 301.442248 
L 91.023688 304.728818 
L 91.619078 306.073119 
L 92.809859 306.073112 
L 93.40525 304.916942 
L 94.00064 306.073117 
L 94.596031 306.60266 
L 95.191421 306.341535 
L 95.786812 306.478878 
L 96.382202 301.561913 
L 96.977593 305.64718 
L 97.572983 306.602789 
L 98.763764 306.60266 
L 99.359155 305.057024 
L 99.954545 306.60266 
L 100.549936 306.898085 
L 101.145327 306.541871 
L 101.740717 306.870298 
L 102.336108 301.952571 
L 102.931498 305.978082 
L 103.526889 306.899314 
L 104.71767 306.898085 
L 105.31306 304.690408 
L 105.908451 306.898085 
L 106.503841 307.059983 
L 107.099232 306.745904 
L 107.694622 307.057921 
L 108.290013 302.146432 
L 108.885403 306.205313 
L 109.480794 307.059932 
L 110.671575 307.059984 
L 111.266965 304.716698 
L 111.862356 307.059983 
L 112.457746 307.275257 
L 113.053137 307.052304 
L 113.648528 307.301275 
L 114.243918 302.500169 
L 114.839309 306.52183 
L 115.434699 307.274951 
L 116.62548 307.27526 
L 117.220871 304.787693 
L 117.816261 307.275257 
L 118.411652 307.376332 
L 119.007042 307.20779 
L 119.602433 307.393298 
L 120.197823 302.705565 
L 120.793214 306.707422 
L 121.388604 307.374989 
L 122.579385 307.376376 
L 123.174776 304.908981 
L 123.770166 307.376332 
L 124.365557 307.475871 
L 124.960948 307.363787 
L 125.556338 307.449094 
L 126.151729 302.808557 
L 126.747119 306.913524 
L 127.34251 307.475957 
L 128.533291 307.475871 
L 129.128681 305.127712 
L 129.724072 307.475871 
L 130.319462 307.547105 
L 130.914853 307.467106 
L 131.510243 307.522912 
L 132.105634 303.055303 
L 132.701024 307.062972 
L 133.296415 307.547162 
L 134.487196 307.547105 
L 135.082586 305.171738 
L 135.677977 307.547105 
L 136.868758 307.567712 
L 137.464149 307.545979 
L 138.059539 303.101729 
L 138.65493 307.227837 
L 139.25032 307.612143 
L 140.441101 307.612142 
L 141.036492 305.366873 
L 141.631882 307.612144 
L 142.822663 307.625392 
L 143.418054 307.576479 
L 144.013444 303.218862 
L 144.608835 307.333139 
L 145.204225 307.656293 
L 146.395006 307.654428 
L 146.990397 305.439699 
L 147.585787 307.654435 
L 148.776569 307.665838 
L 149.371959 307.61917 
L 149.96735 303.395 
L 150.56274 307.401823 
L 151.158131 307.68699 
L 152.348912 307.686953 
L 152.944302 305.405372 
L 153.539693 307.686952 
L 154.730474 307.707401 
L 155.325864 307.634825 
L 155.921255 303.479275 
L 156.516645 307.488085 
L 157.112036 307.719691 
L 158.302817 307.719689 
L 158.898207 305.4866 
L 159.493598 307.719685 
L 160.684379 307.73202 
L 161.27977 307.666243 
L 161.87516 303.680036 
L 162.470551 307.52801 
L 163.065941 307.739853 
L 164.256722 307.739849 
L 164.852113 305.436463 
L 165.447503 307.739848 
L 166.638284 307.762507 
L 167.233675 307.673713 
L 167.829065 303.732928 
L 168.424456 307.59797 
L 169.019846 307.76561 
L 170.210627 307.765568 
L 170.806018 305.520854 
L 171.401408 307.765567 
L 172.59219 307.770944 
L 173.18758 307.625306 
L 173.782971 303.581151 
L 174.378361 307.659765 
L 175.569142 307.772398 
L 176.164533 307.772401 
L 176.759923 305.772264 
L 177.355314 307.772419 
L 178.546095 307.728317 
L 179.736876 307.776378 
L 180.332266 307.641366 
L 180.927657 303.689116 
L 181.523047 307.656918 
L 182.118438 307.776956 
L 183.309219 307.777071 
L 183.904609 305.719484 
L 184.5 307.776955 
L 185.690781 307.779301 
L 186.286172 307.630599 
L 186.881562 303.642695 
L 187.476953 307.676167 
L 188.667734 307.779719 
L 189.263124 307.779723 
L 189.858515 305.786626 
L 190.453905 307.779719 
L 192.240077 307.781517 
L 192.835467 307.623381 
L 193.430858 303.60786 
L 194.026248 307.689544 
L 195.217029 307.781651 
L 195.81242 307.781652 
L 196.40781 305.832837 
L 197.003201 307.78165 
L 198.789373 307.781745 
L 199.384763 307.621775 
L 199.980154 303.602191 
L 200.575544 307.692028 
L 201.766325 307.781847 
L 202.361716 307.781843 
L 202.957106 305.841852 
L 203.552497 307.781846 
L 204.743278 307.78178 
L 205.338668 307.622349 
L 205.934059 303.60768 
L 206.529449 307.691565 
L 207.72023 307.781858 
L 208.315621 307.781869 
L 208.911012 305.839352 
L 209.506402 307.781861 
L 210.697183 307.782022 
L 211.292574 307.621297 
L 211.887964 303.603662 
L 212.483355 307.69329 
L 213.674136 307.782095 
L 214.269526 307.78209 
L 214.864917 305.844769 
L 215.460307 307.782097 
L 216.651088 307.782086 
L 217.246479 307.621768 
L 217.841869 303.607627 
L 218.43726 307.693024 
L 219.628041 307.782142 
L 220.223431 307.782135 
L 220.818822 305.842541 
L 221.414213 307.782144 
L 222.604994 307.782117 
L 223.200384 307.621213 
L 223.795775 303.605687 
L 224.391165 307.693653 
L 225.581946 307.782169 
L 226.177337 307.782162 
L 226.772727 305.845224 
L 227.368118 307.78217 
L 228.558899 307.782129 
L 229.154289 307.621206 
L 229.74968 303.60618 
L 230.34507 307.693717 
L 231.535851 307.782182 
L 232.131242 307.782176 
L 232.726633 305.845253 
L 233.322023 307.782183 
L 234.512804 307.78221 
L 235.108195 307.621295 
L 235.703585 303.606588 
L 236.298976 307.693782 
L 237.489757 307.78226 
L 238.085147 307.782256 
L 238.680538 305.845333 
L 239.275928 307.782262 
L 244.634443 307.78221 
L 245.229834 307.621295 
L 245.825224 303.606587 
L 246.420615 307.693782 
L 247.611396 307.78226 
L 248.206786 307.782256 
L 248.802177 305.845334 
L 249.397567 307.782262 
L 251.779129 307.78221 
L 252.37452 307.621295 
L 252.96991 303.606587 
L 253.565301 307.693782 
L 254.756082 307.78226 
L 255.351472 307.782256 
L 255.946863 305.845334 
L 256.542254 307.782262 
L 258.328425 307.78221 
L 258.923816 307.621295 
L 259.519206 303.606587 
L 260.114597 307.693782 
L 261.305378 307.78226 
L 261.900768 307.782256 
L 262.496159 305.845334 
L 263.091549 307.782262 
L 263.091549 307.782262 
" clip-path="url(#pe40423e688)" style="fill: none; stroke: #9467bd; stroke-opacity: 0.8; stroke-width: 1.5; stroke-linecap: square"/>
   </g>
   <g id="line2d_65">
    <path d="M 57.681818 210.58536 
L 58.277209 209.968551 
L 58.872599 213.387295 
L 59.46799 227.264 
L 60.06338 204.765749 
L 60.658771 210.585608 
L 61.849552 210.585615 
L 62.444942 212.242063 
L 63.040333 210.585614 
L 63.635723 254.021277 
L 64.231114 253.725762 
L 64.826504 256.6101 
L 65.421895 276.097062 
L 66.017286 246.66789 
L 66.612676 254.021291 
L 67.803457 254.021277 
L 68.398848 251.658024 
L 68.994238 254.021277 
L 69.589629 292.343057 
L 70.185019 292.104274 
L 70.78041 294.244861 
L 71.3758 301.236102 
L 71.971191 285.205116 
L 72.566581 292.343056 
L 73.757362 292.343056 
L 74.352753 290.177461 
L 74.948143 292.343057 
L 75.543534 302.128931 
L 76.138924 302.08856 
L 76.734315 302.183375 
L 77.329706 297.358633 
L 78.520487 302.128895 
L 79.711268 302.128923 
L 80.306658 301.706882 
L 80.902049 302.128931 
L 81.497439 304.31105 
L 82.09283 304.241605 
L 82.68822 304.589916 
L 83.283611 300.3699 
L 83.879001 301.965209 
L 84.474392 304.311051 
L 85.665173 304.31105 
L 86.260563 303.65926 
L 86.855954 304.31105 
L 87.451344 305.351795 
L 88.046735 305.300129 
L 88.642125 305.415743 
L 89.237516 300.582416 
L 89.832907 303.929147 
L 90.428297 305.351434 
L 91.619078 305.351792 
L 92.214469 304.969286 
L 93.40525 305.62108 
L 94.00064 305.491331 
L 94.596031 305.709011 
L 95.191421 301.082501 
L 95.786812 304.307503 
L 96.382202 305.620921 
L 97.572983 305.62108 
L 98.168374 305.284914 
L 99.359155 305.884436 
L 99.954545 305.56102 
L 100.549936 305.929718 
L 101.145327 301.355801 
L 101.740717 304.7436 
L 102.336108 305.884433 
L 103.526889 305.884436 
L 104.122279 305.535141 
L 105.31306 306.196445 
L 105.908451 305.809344 
L 106.503841 305.943011 
L 107.099232 301.087218 
L 107.694622 305.446593 
L 108.290013 306.196445 
L 109.480794 306.196445 
L 110.076184 305.84863 
L 111.266965 306.459561 
L 111.862356 305.944331 
L 112.457746 306.015494 
L 113.053137 301.019129 
L 113.648528 305.956042 
L 114.243918 306.4595 
L 115.434699 306.459561 
L 116.03009 305.801705 
L 116.62548 306.459561 
L 117.220871 306.718231 
L 117.816261 306.327575 
L 118.411652 306.223625 
L 119.007042 300.662108 
L 119.602433 306.484153 
L 120.197823 306.718231 
L 121.388604 306.718231 
L 121.983995 305.677149 
L 122.579385 306.718231 
L 123.174776 306.726808 
L 123.770166 305.77247 
L 124.365557 306.931422 
L 124.960948 302.192092 
L 125.556338 306.292796 
L 126.151729 306.726807 
L 127.34251 306.726806 
L 127.9379 304.661966 
L 128.533291 306.726808 
L 129.128681 307.175014 
L 129.724072 306.710357 
L 130.319462 307.047648 
L 130.914853 301.870025 
L 131.510243 306.921566 
L 132.105634 307.175014 
L 133.296415 307.175014 
L 133.891805 305.714096 
L 134.487196 307.175014 
L 135.082586 307.325846 
L 135.677977 306.934176 
L 136.273367 307.327333 
L 136.868758 302.49889 
L 137.464149 307.010273 
L 138.059539 307.325846 
L 139.25032 307.325845 
L 139.845711 305.493635 
L 140.441101 307.325845 
L 141.036492 307.445077 
L 141.631882 307.169896 
L 142.227273 307.44775 
L 142.822663 302.830164 
L 143.418054 307.134723 
L 144.013444 307.445077 
L 145.204225 307.445076 
L 145.799616 305.522789 
L 146.395006 307.445077 
L 146.990397 307.570072 
L 147.585787 307.424525 
L 148.181178 307.487999 
L 148.776569 302.815894 
L 149.371959 307.345956 
L 149.96735 307.570072 
L 151.158131 307.570073 
L 151.753521 305.775595 
L 152.348912 307.570072 
L 152.944302 307.615732 
L 153.539693 307.51501 
L 154.135083 307.552969 
L 154.730474 303.121625 
L 155.325864 307.380925 
L 155.921255 307.615732 
L 157.112036 307.615732 
L 157.707426 305.68872 
L 158.302817 307.615732 
L 159.493598 307.611973 
L 160.088988 307.575796 
L 160.684379 303.183379 
L 161.27977 307.485836 
L 161.87516 307.668749 
L 163.065941 307.668749 
L 163.661332 305.771038 
L 164.256722 307.668749 
L 165.447503 307.659106 
L 166.042894 307.599773 
L 166.638284 303.302956 
L 167.233675 307.530499 
L 167.829065 307.696986 
L 169.019846 307.696986 
L 169.615237 305.763077 
L 170.210627 307.696986 
L 171.401408 307.693562 
L 171.996799 307.629394 
L 172.59219 303.464447 
L 173.18758 307.56851 
L 173.782971 307.719627 
L 174.973752 307.719626 
L 175.569142 305.715253 
L 176.164533 307.719627 
L 177.355314 307.722388 
L 177.950704 307.642977 
L 178.546095 303.51942 
L 179.141485 307.606873 
L 179.736876 307.739827 
L 180.927657 307.73982 
L 181.523047 305.724628 
L 182.118438 307.739827 
L 183.309219 307.744972 
L 183.904609 307.598565 
L 184.5 303.390914 
L 185.095391 307.665601 
L 186.286172 307.753379 
L 186.881562 307.75355 
L 187.476953 305.944719 
L 188.072343 307.753548 
L 191.049296 307.576708 
L 191.644686 303.276291 
L 192.240077 307.693298 
L 193.430858 307.758818 
L 194.026248 307.758849 
L 194.621639 306.056542 
L 195.217029 307.75885 
L 197.598592 307.753682 
L 198.193982 307.584466 
L 198.789373 303.309146 
L 199.384763 307.68697 
L 200.575544 307.758906 
L 201.170935 307.758935 
L 201.766325 306.025992 
L 202.361716 307.758932 
L 203.552497 307.753828 
L 204.147887 307.584147 
L 204.743278 303.307631 
L 205.338668 307.687309 
L 206.529449 307.758957 
L 207.12484 307.758984 
L 207.72023 306.02753 
L 208.315621 307.758985 
L 209.506402 307.753954 
L 210.101793 307.584365 
L 210.697183 303.308232 
L 211.292574 307.687275 
L 212.483355 307.759037 
L 213.078745 307.759068 
L 213.674136 306.027069 
L 214.269526 307.759069 
L 215.460307 307.754072 
L 216.055698 307.584555 
L 216.651088 303.308836 
L 217.246479 307.687251 
L 218.43726 307.759111 
L 219.03265 307.759147 
L 219.628041 306.026677 
L 220.223431 307.759148 
L 221.414213 307.75418 
L 222.009603 307.584741 
L 222.604994 303.309483 
L 223.200384 307.687237 
L 224.391165 307.75917 
L 224.986556 307.759229 
L 225.581946 306.026342 
L 226.177337 307.75923 
L 227.368118 307.754281 
L 227.963508 307.585036 
L 228.558899 303.310131 
L 229.154289 307.687226 
L 230.34507 307.75923 
L 230.940461 307.759292 
L 231.535851 306.02605 
L 232.131242 307.759293 
L 233.322023 307.754441 
L 233.917414 307.585227 
L 234.512804 303.310879 
L 235.108195 307.687249 
L 236.298976 307.759357 
L 236.894366 307.759412 
L 237.489757 306.025798 
L 238.085147 307.759415 
L 239.275928 307.754506 
L 239.871319 307.585043 
L 240.466709 303.313753 
L 241.0621 307.6869 
L 242.252881 307.759382 
L 242.848271 307.759426 
L 243.443662 306.023983 
L 244.039052 307.759426 
L 245.229834 307.7546 
L 245.825224 307.584687 
L 246.420615 303.312391 
L 247.016005 307.687101 
L 248.206786 307.75941 
L 248.802177 307.759453 
L 249.397567 306.025537 
L 249.992958 307.759454 
L 251.183739 307.754648 
L 251.779129 307.584602 
L 252.37452 303.312325 
L 252.96991 307.687185 
L 254.160691 307.75943 
L 254.756082 307.759473 
L 255.351472 306.025946 
L 255.946863 307.759473 
L 257.137644 307.75466 
L 257.733035 307.584573 
L 258.328425 303.3121 
L 258.923816 307.687224 
L 260.114597 307.759436 
L 260.709987 307.759477 
L 261.305378 306.026095 
L 261.900768 307.759477 
L 263.091549 307.754665 
L 263.68694 307.584562 
L 264.28233 303.312065 
L 264.877721 307.687235 
L 266.068502 307.759436 
L 266.663892 307.759478 
L 267.259283 306.026138 
L 267.854673 307.759477 
L 269.045455 307.754665 
L 269.640845 307.584559 
L 270.236236 303.312053 
L 270.831626 307.687238 
L 272.022407 307.759438 
L 272.617798 307.759479 
L 273.213188 306.026158 
L 273.808579 307.759479 
L 274.99936 307.754667 
L 275.59475 307.584554 
L 276.190141 303.312661 
L 276.785531 307.687244 
L 277.976312 307.759438 
L 278.571703 307.75948 
L 279.167093 306.026181 
L 279.762484 307.759479 
L 281.548656 307.754667 
L 282.144046 307.584553 
L 282.739437 303.312035 
L 283.334827 307.687244 
L 284.525608 307.759438 
L 285.120999 307.75948 
L 285.716389 306.026183 
L 286.31178 307.759479 
L 287.502561 307.754667 
L 288.097951 307.584553 
L 288.693342 303.312033 
L 289.288732 307.687245 
L 290.479513 307.759438 
L 291.074904 307.75948 
L 291.670294 306.026185 
L 292.265685 307.759479 
L 294.051857 307.754667 
L 294.647247 307.584553 
L 295.242638 303.312022 
L 295.838028 307.687245 
L 297.028809 307.759438 
L 297.6242 307.75948 
L 298.21959 306.026185 
L 298.814981 307.759479 
L 300.601152 307.754667 
L 301.196543 307.584553 
L 301.791933 303.312022 
L 302.387324 307.687245 
L 303.578105 307.759438 
L 304.173496 307.75948 
L 304.768886 306.026185 
L 305.364277 307.759479 
L 306.555058 307.754667 
L 307.150448 307.584553 
L 307.745839 303.312022 
L 308.341229 307.687245 
L 309.53201 307.759438 
L 310.127401 307.75948 
L 310.722791 306.026185 
L 311.318182 307.759479 
L 311.318182 307.759479 
" clip-path="url(#pe40423e688)" style="fill: none; stroke: #8c564b; stroke-opacity: 0.8; stroke-width: 1.5; stroke-linecap: square"/>
   </g>
   <g id="line2d_66">
    <path d="M 57.681818 278.74349 
L 58.277209 278.74358 
L 59.46799 280.915508 
L 60.06338 276.164109 
L 60.658771 278.743583 
L 61.849552 278.743429 
L 62.444942 276.910708 
L 63.040333 278.743442 
L 63.635723 282.174322 
L 64.231114 282.176034 
L 64.826504 282.354146 
L 65.421895 281.843533 
L 66.017286 281.562884 
L 66.612676 282.174327 
L 67.803457 282.174322 
L 68.398848 281.949061 
L 68.994238 282.174322 
L 69.589629 285.356475 
L 70.78041 285.449623 
L 71.3758 283.656389 
L 71.971191 284.88023 
L 72.566581 285.35647 
L 74.948143 285.356475 
L 75.543534 293.385209 
L 76.138924 293.412082 
L 76.734315 293.2225 
L 77.329706 288.396392 
L 77.925096 293.850585 
L 78.520487 293.385211 
L 79.711268 293.385209 
L 80.306658 294.2771 
L 80.902049 293.38521 
L 81.497439 296.180403 
L 82.09283 296.162795 
L 82.68822 296.912076 
L 83.283611 293.611461 
L 83.879001 292.640601 
L 84.474392 296.180396 
L 85.665173 296.18041 
L 86.260563 293.875742 
L 86.855954 296.180402 
L 87.451344 302.414096 
L 88.046735 302.402551 
L 88.642125 302.601829 
L 89.237516 297.702786 
L 90.428297 302.414096 
L 91.619078 302.414089 
L 92.214469 300.459985 
L 92.809859 302.414093 
L 93.40525 303.670769 
L 94.00064 303.65178 
L 94.596031 303.876797 
L 95.191421 299.278204 
L 95.786812 301.106383 
L 96.382202 303.671271 
L 97.572983 303.670822 
L 98.168374 301.138845 
L 98.763764 303.670769 
L 99.359155 305.575765 
L 99.954545 305.54058 
L 100.549936 305.742113 
L 101.145327 301.768368 
L 101.740717 303.238809 
L 102.336108 305.576094 
L 103.526889 305.575764 
L 104.122279 302.291297 
L 104.71767 305.575765 
L 105.31306 306.451867 
L 105.908451 306.411057 
L 106.503841 306.567568 
L 107.099232 302.356103 
L 107.694622 304.649598 
L 108.290013 306.451867 
L 109.480794 306.451875 
L 110.076184 303.216919 
L 110.671575 306.451868 
L 111.266965 306.652388 
L 111.862356 306.651323 
L 112.457746 306.465331 
L 113.053137 301.1633 
L 113.648528 305.777061 
L 114.243918 306.652385 
L 115.434699 306.652389 
L 116.03009 304.846759 
L 116.62548 306.652388 
L 117.220871 306.42771 
L 117.816261 305.598224 
L 118.411652 306.93516 
L 119.602433 306.868995 
L 120.197823 302.500906 
L 120.793214 305.757615 
L 121.388604 306.935166 
L 122.579385 306.93516 
L 123.174776 304.312622 
L 123.770166 306.93516 
L 124.365557 307.168688 
L 124.960948 307.112872 
L 125.556338 307.29949 
L 126.151729 303.256123 
L 126.747119 305.931504 
L 127.34251 307.168693 
L 128.533291 307.168695 
L 129.128681 303.815372 
L 129.724072 307.168687 
L 130.319462 307.43163 
L 131.510243 307.364622 
L 132.105634 302.799162 
L 132.701024 306.725327 
L 133.296415 307.43167 
L 134.487196 307.431617 
L 135.082586 304.90821 
L 135.677977 307.43163 
L 136.868758 307.498605 
L 137.464149 307.522621 
L 138.059539 303.428431 
L 138.65493 306.841186 
L 139.25032 307.518687 
L 140.441101 307.518686 
L 141.036492 304.692348 
L 141.631882 307.518688 
L 142.822663 307.614056 
L 143.418054 307.535971 
L 144.013444 303.223167 
L 144.608835 307.183686 
L 145.204225 307.620857 
L 146.395006 307.620901 
L 146.990397 305.209168 
L 147.585787 307.620898 
L 148.776569 307.659338 
L 149.371959 307.609522 
L 149.96735 303.550751 
L 150.56274 307.270128 
L 151.158131 307.665813 
L 152.348912 307.665678 
L 152.944302 305.128938 
L 153.539693 307.665677 
L 154.730474 307.706234 
L 155.325864 307.63543 
L 155.921255 303.639076 
L 156.516645 307.390682 
L 157.112036 307.708127 
L 158.302817 307.708152 
L 158.898207 305.241834 
L 159.493598 307.708152 
L 160.684379 307.737883 
L 161.27977 307.676041 
L 161.87516 303.851993 
L 162.470551 307.463583 
L 163.065941 307.737018 
L 164.256722 307.737033 
L 164.852113 305.219443 
L 165.447503 307.737032 
L 166.638284 307.773454 
L 167.233675 307.680889 
L 167.829065 303.817598 
L 168.424456 307.56908 
L 169.019846 307.772003 
L 170.210627 307.771959 
L 170.806018 305.394961 
L 171.401408 307.772002 
L 172.59219 307.780726 
L 173.18758 307.649285 
L 173.782971 303.733548 
L 174.378361 307.630399 
L 174.973752 307.779569 
L 176.164533 307.779554 
L 176.759923 305.596378 
L 177.355314 307.779558 
L 178.546095 307.783 
L 179.141485 307.655517 
L 179.736876 303.951619 
L 180.332266 307.627939 
L 180.927657 307.779959 
L 182.118438 307.780012 
L 182.713828 305.531245 
L 183.309219 307.780006 
L 184.5 307.786268 
L 185.095391 307.618946 
L 185.690781 303.761263 
L 186.286172 307.683154 
L 187.476953 307.785254 
L 188.072343 307.785139 
L 188.667734 305.755748 
L 189.263124 307.785133 
L 191.049296 307.789562 
L 191.644686 307.632205 
L 192.240077 303.787209 
L 192.835467 307.686496 
L 194.026248 307.78882 
L 194.621639 307.788872 
L 195.217029 305.742055 
L 195.81242 307.78887 
L 197.003201 307.790427 
L 197.598592 307.640093 
L 198.193982 303.831388 
L 198.789373 307.682946 
L 199.980154 307.789514 
L 200.575544 307.789552 
L 201.170935 305.713931 
L 201.766325 307.789557 
L 202.957106 307.791975 
L 203.552497 307.641315 
L 204.147887 303.862776 
L 204.743278 307.684299 
L 205.934059 307.791066 
L 206.529449 307.79105 
L 207.12484 305.712604 
L 207.72023 307.79105 
L 208.911012 307.792337 
L 209.506402 307.639135 
L 210.101793 303.903076 
L 210.697183 307.689675 
L 211.887964 307.79123 
L 212.483355 307.791192 
L 213.078745 305.720699 
L 213.674136 307.791192 
L 214.864917 307.792402 
L 215.460307 307.629836 
L 216.055698 303.85402 
L 216.651088 307.702993 
L 217.841869 307.792019 
L 218.43726 307.792 
L 219.03265 305.778611 
L 219.628041 307.792003 
L 221.414213 307.792843 
L 222.009603 307.632258 
L 222.604994 303.863849 
L 223.200384 307.701841 
L 224.391165 307.792305 
L 224.986556 307.792255 
L 225.581946 305.772798 
L 226.177337 307.792257 
L 233.917414 307.792843 
L 234.512804 307.632258 
L 235.108195 303.863844 
L 235.703585 307.701841 
L 236.894366 307.792305 
L 237.489757 307.792255 
L 238.085147 305.7728 
L 238.680538 307.792257 
L 240.466709 307.792257 
L 240.466709 307.792257 
" clip-path="url(#pe40423e688)" style="fill: none; stroke: #e377c2; stroke-opacity: 0.8; stroke-width: 1.5; stroke-linecap: square"/>
   </g>
   <g id="line2d_67">
    <path d="M 57.681818 290.322762 
L 58.277209 290.737947 
L 58.872599 289.830386 
L 59.46799 286.16359 
L 60.06338 290.994777 
L 60.658771 290.322769 
L 61.849552 290.322762 
L 62.444942 291.837982 
L 63.040333 290.322762 
L 63.635723 292.685413 
L 64.231114 291.779297 
L 64.826504 293.488327 
L 65.421895 292.872617 
L 66.017286 287.829469 
L 66.612676 292.685456 
L 67.803457 292.685415 
L 68.398848 287.43369 
L 69.589629 298.656977 
L 70.185019 298.650504 
L 70.78041 298.483501 
L 71.3758 293.435933 
L 71.971191 296.914257 
L 72.566581 298.65699 
L 73.757362 298.656991 
L 74.352753 296.979329 
L 74.948143 298.656977 
L 75.543534 302.228636 
L 76.138924 302.065636 
L 76.734315 302.096581 
L 77.329706 296.323691 
L 77.925096 300.526093 
L 78.520487 302.228644 
L 79.711268 302.228646 
L 80.306658 299.640732 
L 81.497439 305.292261 
L 82.09283 304.550597 
L 82.68822 306.046763 
L 83.283611 303.130758 
L 83.879001 302.54428 
L 84.474392 305.292271 
L 85.665173 305.292263 
L 86.260563 300.312089 
L 86.855954 305.292261 
L 87.451344 306.345139 
L 88.642125 306.024733 
L 89.237516 300.647669 
L 89.832907 305.540268 
L 90.428297 306.345138 
L 91.619078 306.345143 
L 92.214469 304.501774 
L 92.809859 306.345139 
L 93.40525 306.906277 
L 94.00064 307.051356 
L 94.596031 306.19368 
L 95.191421 299.871446 
L 95.786812 307.043191 
L 96.382202 306.90628 
L 97.572983 306.906278 
L 98.168374 306.513619 
L 99.359155 307.227637 
L 99.954545 306.959395 
L 100.549936 307.144683 
L 101.145327 302.176472 
L 101.740717 306.613574 
L 102.336108 307.227636 
L 103.526889 307.227636 
L 104.122279 305.185312 
L 104.71767 307.227637 
L 105.31306 307.322496 
L 105.908451 307.087054 
L 106.503841 307.303002 
L 107.099232 302.471498 
L 107.694622 306.712062 
L 108.290013 307.322497 
L 109.480794 307.322497 
L 110.076184 305.088991 
L 110.671575 307.322497 
L 111.266965 307.431928 
L 111.862356 307.265899 
L 112.457746 307.417106 
L 113.053137 302.709159 
L 113.648528 306.880998 
L 114.243918 307.432006 
L 115.434699 307.431928 
L 116.03009 305.154213 
L 116.62548 307.431928 
L 117.220871 307.502411 
L 117.816261 307.384514 
L 118.411652 307.486211 
L 119.007042 302.989348 
L 119.602433 307.005343 
L 120.197823 307.503267 
L 121.388604 307.502411 
L 121.983995 305.209466 
L 122.579385 307.502411 
L 123.174776 307.54699 
L 123.770166 307.45699 
L 124.365557 307.497425 
L 124.960948 302.950485 
L 125.556338 307.112838 
L 126.151729 307.5472 
L 127.34251 307.54699 
L 127.9379 305.344867 
L 128.533291 307.54699 
L 129.128681 307.602606 
L 130.319462 307.525679 
L 130.914853 302.998662 
L 131.510243 307.239984 
L 132.105634 307.602613 
L 133.296415 307.602608 
L 133.891805 305.469776 
L 134.487196 307.602605 
L 135.677977 307.598296 
L 136.273367 307.559555 
L 136.868758 303.119201 
L 137.464149 307.326133 
L 138.059539 307.641637 
L 139.25032 307.641656 
L 139.845711 305.506815 
L 140.441101 307.641645 
L 141.631882 307.636119 
L 142.227273 307.604089 
L 142.822663 303.367402 
L 143.418054 307.376988 
L 144.013444 307.667863 
L 145.204225 307.667888 
L 145.799616 305.440474 
L 146.395006 307.667871 
L 147.585787 307.688884 
L 148.181178 307.609028 
L 148.776569 303.335686 
L 149.371959 307.478626 
L 149.96735 307.706489 
L 151.158131 307.706487 
L 151.753521 305.581572 
L 152.348912 307.706487 
L 154.135083 307.657999 
L 154.730474 303.67078 
L 155.325864 307.485728 
L 155.921255 307.718264 
L 157.112036 307.718457 
L 157.707426 305.413363 
L 158.302817 307.718457 
L 159.493598 307.749789 
L 160.088988 307.661488 
L 160.684379 303.605731 
L 161.27977 307.592791 
L 161.87516 307.756239 
L 163.065941 307.756251 
L 163.661332 305.576207 
L 164.256722 307.756248 
L 166.042894 307.68214 
L 166.638284 303.795095 
L 167.233675 307.586781 
L 167.829065 307.760281 
L 169.019846 307.760283 
L 169.615237 305.481183 
L 170.210627 307.760281 
L 171.401408 307.774894 
L 171.996799 307.612026 
L 172.59219 303.453954 
L 173.18758 307.686081 
L 174.378361 307.775916 
L 174.973752 307.775799 
L 175.569142 305.878436 
L 176.164533 307.775798 
L 176.759923 307.693461 
L 177.950704 307.776476 
L 178.546095 307.77504 
L 179.141485 307.624797 
L 179.736876 303.539518 
L 180.332266 307.675711 
L 181.523047 307.776478 
L 182.118438 307.776476 
L 182.713828 305.825013 
L 183.309219 307.776476 
L 184.5 307.777021 
L 185.095391 307.620554 
L 185.690781 303.519391 
L 186.286172 307.684107 
L 187.476953 307.77792 
L 188.072343 307.777913 
L 188.667734 305.855516 
L 189.263124 307.777913 
L 190.453905 307.777581 
L 191.049296 307.623467 
L 191.644686 303.547627 
L 192.240077 307.683395 
L 193.430858 307.778489 
L 194.026248 307.778454 
L 194.621639 305.844542 
L 195.217029 307.778452 
L 196.40781 307.778575 
L 197.003201 307.623142 
L 197.598592 303.560618 
L 198.193982 307.686108 
L 199.384763 307.779018 
L 199.980154 307.779306 
L 200.575544 305.849432 
L 201.170935 307.779306 
L 202.361716 307.778969 
L 202.957106 307.622799 
L 203.552497 303.576357 
L 204.147887 307.688002 
L 205.338668 307.779545 
L 205.934059 307.779579 
L 206.529449 305.851413 
L 207.12484 307.779593 
L 208.315621 307.779449 
L 208.911012 307.618002 
L 209.506402 303.557067 
L 210.101793 307.693527 
L 211.292574 307.779905 
L 211.887964 307.779934 
L 212.483355 305.875279 
L 213.078745 307.779916 
L 214.269526 307.779534 
L 214.864917 307.618619 
L 215.460307 303.563262 
L 216.055698 307.693278 
L 217.246479 307.780028 
L 217.841869 307.779994 
L 218.43726 305.872492 
L 219.03265 307.779991 
L 220.223431 307.77962 
L 220.818822 307.617585 
L 221.414213 303.559363 
L 222.009603 307.694482 
L 223.200384 307.780091 
L 223.795775 307.780043 
L 224.391165 305.877541 
L 224.986556 307.780044 
L 226.177337 307.77963 
L 226.772727 307.617618 
L 227.368118 303.560245 
L 227.963508 307.694562 
L 229.154289 307.780129 
L 229.74968 307.780048 
L 230.34507 305.877437 
L 230.940461 307.780049 
L 232.131242 307.779643 
L 232.726633 307.617437 
L 233.322023 303.559668 
L 233.917414 307.694768 
L 235.108195 307.780136 
L 235.703585 307.780054 
L 236.298976 305.878301 
L 236.894366 307.780056 
L 238.085147 307.779648 
L 238.680538 307.617419 
L 239.275928 303.559739 
L 239.871319 307.694823 
L 241.0621 307.780132 
L 241.65749 307.780059 
L 242.252881 305.878445 
L 242.848271 307.780058 
L 244.039052 307.779651 
L 244.634443 307.617382 
L 245.229834 303.559664 
L 245.825224 307.694855 
L 247.016005 307.780148 
L 247.611396 307.780075 
L 248.206786 305.878579 
L 248.802177 307.78006 
L 249.992958 307.779655 
L 250.588348 307.617373 
L 251.183739 303.559644 
L 251.779129 307.694878 
L 252.96991 307.780139 
L 253.565301 307.780079 
L 254.160691 305.878664 
L 254.756082 307.780065 
L 256.542254 307.779657 
L 257.137644 307.61736 
L 257.733035 303.559634 
L 258.328425 307.694889 
L 259.519206 307.780153 
L 260.114597 307.780081 
L 260.709987 305.878694 
L 261.305378 307.780067 
L 266.663892 307.779657 
L 267.259283 307.61736 
L 267.854673 303.559633 
L 268.450064 307.694889 
L 269.640845 307.780153 
L 270.236236 307.780081 
L 270.831626 305.878694 
L 271.427017 307.780067 
L 272.617798 307.779657 
L 273.213188 307.61736 
L 273.808579 303.559633 
L 274.403969 307.694889 
L 275.59475 307.780153 
L 276.190141 307.780081 
L 276.785531 305.878694 
L 277.380922 307.780067 
L 277.380922 307.780067 
" clip-path="url(#pe40423e688)" style="fill: none; stroke: #7f7f7f; stroke-opacity: 0.8; stroke-width: 1.5; stroke-linecap: square"/>
   </g>
   <g id="line2d_68">
    <path d="M 57.681818 152.449801 
L 58.277209 152.448895 
L 58.872599 153.399574 
L 59.46799 156.663792 
L 60.06338 150.017372 
L 60.658771 152.449919 
L 61.849552 152.449893 
L 62.444942 148.751069 
L 63.040333 152.449919 
L 63.635723 200.430391 
L 64.231114 200.430493 
L 64.826504 201.135922 
L 65.421895 208.535151 
L 66.017286 196.769928 
L 66.612676 200.430382 
L 67.803457 200.430407 
L 68.398848 194.232846 
L 68.994238 200.430391 
L 69.589629 240.817873 
L 70.185019 240.818099 
L 70.78041 241.447819 
L 71.3758 252.83514 
L 71.971191 236.400215 
L 72.566581 240.817874 
L 73.757362 240.817798 
L 74.352753 233.169377 
L 74.948143 240.817872 
L 75.543534 281.218789 
L 76.138924 281.219033 
L 76.734315 281.611979 
L 77.329706 294.115839 
L 77.925096 276.74499 
L 78.520487 281.218593 
L 79.711268 281.218795 
L 80.306658 273.209968 
L 80.902049 281.218785 
L 81.497439 300.453614 
L 82.09283 300.453626 
L 82.68822 300.325069 
L 83.283611 300.905537 
L 83.879001 299.273281 
L 84.474392 300.453619 
L 85.665173 300.453614 
L 86.260563 297.840989 
L 86.855954 300.453615 
L 87.451344 303.962372 
L 88.046735 304.059811 
L 88.642125 303.784676 
L 89.237516 300.443261 
L 89.832907 303.732393 
L 90.428297 303.962574 
L 91.619078 303.962446 
L 92.214469 303.166078 
L 92.809859 303.962365 
L 94.00064 304.344958 
L 94.596031 303.451941 
L 95.191421 297.784849 
L 95.786812 305.281299 
L 96.382202 304.188539 
L 97.572983 304.188533 
L 98.168374 305.616699 
L 98.763764 304.188509 
L 99.359155 305.891987 
L 99.954545 305.941222 
L 100.549936 305.691722 
L 101.145327 300.919261 
L 101.740717 305.336686 
L 102.336108 305.892175 
L 103.526889 305.891947 
L 104.122279 305.426493 
L 104.71767 305.891987 
L 105.31306 304.922247 
L 105.908451 306.103706 
L 106.503841 306.197227 
L 107.099232 305.713834 
L 107.694622 300.277448 
L 108.290013 305.959495 
L 108.885403 306.10378 
L 111.266965 306.103706 
L 111.862356 306.352426 
L 112.457746 306.4025 
L 113.053137 306.08068 
L 113.648528 300.947495 
L 114.243918 305.867594 
L 114.839309 306.351559 
L 117.220871 306.352426 
L 117.816261 306.555844 
L 118.411652 306.613572 
L 119.007042 306.19496 
L 119.602433 301.12261 
L 120.197823 306.137834 
L 120.793214 306.555935 
L 123.174776 306.555844 
L 123.770166 306.677712 
L 124.365557 306.569276 
L 124.960948 306.282216 
L 125.556338 301.31213 
L 126.151729 306.220479 
L 126.747119 306.677252 
L 130.319462 306.60273 
L 130.914853 306.32088 
L 131.510243 301.506322 
L 132.105634 306.227966 
L 132.701024 306.720823 
L 135.677977 306.722603 
L 136.273367 306.578418 
L 136.868758 306.253306 
L 137.464149 301.341831 
L 138.059539 306.312709 
L 138.65493 306.722922 
L 141.631882 306.722637 
L 142.227273 306.582144 
L 142.822663 306.269228 
L 143.418054 301.388698 
L 144.013444 306.289421 
L 144.608835 306.722865 
L 149.371959 306.722735 
L 149.96735 306.575118 
L 150.56274 306.250623 
L 151.158131 301.337363 
L 151.753521 306.311287 
L 152.348912 306.722905 
L 155.325864 306.722843 
L 155.921255 306.575749 
L 156.516645 306.25278 
L 157.112036 301.330305 
L 157.707426 306.308034 
L 158.302817 306.723253 
L 161.27977 306.722883 
L 161.87516 306.577911 
L 162.470551 306.258556 
L 163.065941 301.338427 
L 163.661332 306.301579 
L 164.256722 306.723455 
L 167.233675 306.722975 
L 167.829065 306.578685 
L 168.424456 306.260071 
L 169.019846 301.33925 
L 169.615237 306.299822 
L 170.210627 306.723446 
L 173.18758 306.723016 
L 173.782971 306.579219 
L 174.378361 306.261134 
L 174.973752 301.3382 
L 175.569142 306.29904 
L 176.164533 306.723127 
L 179.141485 306.723334 
L 179.736876 306.579818 
L 180.332266 306.262839 
L 180.927657 301.341228 
L 181.523047 306.297326 
L 182.118438 306.723022 
L 185.095391 306.723386 
L 185.690781 306.580643 
L 186.286172 306.263602 
L 186.881562 301.342644 
L 187.476953 306.297575 
L 188.072343 306.723374 
L 197.003201 306.723386 
L 197.598592 306.580643 
L 198.193982 306.263602 
L 198.789373 301.342634 
L 199.384763 306.297575 
L 199.980154 306.723374 
L 204.147887 306.723386 
L 204.743278 306.580643 
L 205.338668 306.263602 
L 205.934059 301.342634 
L 206.529449 306.297575 
L 207.12484 306.723374 
L 209.506402 306.723386 
L 209.506402 306.723386 
" clip-path="url(#pe40423e688)" style="fill: none; stroke: #bcbd22; stroke-opacity: 0.8; stroke-width: 1.5; stroke-linecap: square"/>
   </g>
   <g id="line2d_69">
    <path d="M 57.681818 102.077606 
L 58.277209 97.938846 
L 58.872599 107.47959 
L 59.46799 109.592461 
L 60.06338 100.913138 
L 60.658771 102.078161 
L 61.849552 102.07816 
L 62.444942 99.240815 
L 63.040333 102.07816 
L 63.635723 140.99373 
L 64.231114 138.264507 
L 64.826504 145.540225 
L 65.421895 150.449016 
L 66.017286 138.792056 
L 66.612676 140.993727 
L 67.803457 140.99373 
L 68.398848 137.174418 
L 68.994238 140.99373 
L 69.589629 181.718632 
L 70.185019 180.207098 
L 70.78041 185.124432 
L 71.3758 194.146721 
L 71.971191 178.01127 
L 72.566581 181.718647 
L 73.757362 181.718583 
L 74.352753 176.546138 
L 74.948143 181.718631 
L 75.543534 224.562098 
L 76.138924 223.757848 
L 76.734315 227.162418 
L 77.329706 241.318815 
L 77.925096 219.077083 
L 78.520487 224.562105 
L 79.711268 224.562125 
L 80.306658 217.71408 
L 80.902049 224.562098 
L 81.497439 268.037725 
L 82.09283 267.574895 
L 82.68822 270.181086 
L 83.283611 287.264669 
L 83.879001 260.623538 
L 84.474392 268.037697 
L 85.665173 268.037656 
L 86.260563 259.336617 
L 86.855954 268.037725 
L 87.451344 297.26707 
L 88.046735 297.104989 
L 88.642125 298.076738 
L 89.237516 299.780294 
L 89.832907 291.643561 
L 90.428297 297.267051 
L 91.619078 297.267049 
L 92.214469 291.102267 
L 93.40525 302.790354 
L 94.596031 302.732648 
L 95.191421 298.251436 
L 96.382202 302.789877 
L 97.572983 302.790316 
L 98.168374 300.757544 
L 98.763764 302.790354 
L 99.359155 304.419554 
L 99.954545 304.248387 
L 100.549936 304.814887 
L 101.145327 301.210515 
L 101.740717 301.379544 
L 102.336108 304.418785 
L 103.526889 304.419554 
L 104.122279 300.349511 
L 104.71767 304.419551 
L 105.31306 305.971072 
L 105.908451 305.881154 
L 106.503841 306.057684 
L 107.099232 301.498995 
L 107.694622 304.094854 
L 108.290013 305.971066 
L 109.480794 305.971071 
L 110.076184 302.866426 
L 110.671575 305.971072 
L 111.266965 306.655954 
L 111.862356 306.568323 
L 112.457746 306.782436 
L 113.053137 302.398122 
L 113.648528 305.02579 
L 114.243918 306.655954 
L 115.434699 306.655947 
L 116.03009 303.296091 
L 116.62548 306.655954 
L 117.220871 306.922768 
L 117.816261 306.858154 
L 118.411652 306.989575 
L 119.007042 302.529799 
L 119.602433 305.563062 
L 120.197823 306.92217 
L 121.388604 306.922768 
L 121.983995 303.776613 
L 122.579385 306.922768 
L 123.174776 307.246227 
L 124.365557 307.25669 
L 124.960948 302.826141 
L 125.556338 306.228354 
L 126.151729 307.246212 
L 127.34251 307.246226 
L 127.9379 304.324259 
L 128.533291 307.246227 
L 129.128681 307.38136 
L 130.319462 307.38664 
L 130.914853 303.084606 
L 131.510243 306.50935 
L 132.105634 307.381379 
L 133.296415 307.381361 
L 133.891805 304.478339 
L 134.487196 307.38136 
L 135.082586 307.510317 
L 136.273367 307.480726 
L 136.868758 303.262072 
L 137.464149 306.836151 
L 138.059539 307.510309 
L 139.25032 307.510316 
L 139.845711 304.771255 
L 140.441101 307.510317 
L 141.631882 307.573865 
L 142.227273 307.534542 
L 142.822663 303.368962 
L 143.418054 307.031869 
L 144.013444 307.582211 
L 145.204225 307.582322 
L 145.799616 304.940696 
L 146.395006 307.582323 
L 147.585787 307.636592 
L 148.181178 307.578569 
L 148.776569 303.466753 
L 149.371959 307.193794 
L 149.96735 307.640632 
L 151.158131 307.640732 
L 151.753521 305.077524 
L 152.348912 307.640727 
L 154.135083 307.61551 
L 154.730474 303.726634 
L 155.325864 307.251499 
L 155.921255 307.663052 
L 157.112036 307.663043 
L 157.707426 305.025015 
L 158.302817 307.663043 
L 159.493598 307.727006 
L 160.088988 307.628076 
L 160.684379 303.544662 
L 161.27977 307.45971 
L 161.87516 307.727376 
L 163.065941 307.727181 
L 163.661332 305.377098 
L 164.256722 307.727181 
L 166.042894 307.696902 
L 166.638284 304.061677 
L 167.233675 307.455531 
L 167.829065 307.73877 
L 169.019846 307.738812 
L 169.615237 305.089226 
L 170.210627 307.738819 
L 171.401408 307.780381 
L 171.996799 307.656134 
L 172.59219 303.78514 
L 173.18758 307.615947 
L 173.782971 307.778641 
L 174.973752 307.779115 
L 175.569142 305.54128 
L 176.164533 307.779116 
L 177.355314 307.78297 
L 177.950704 307.641794 
L 178.546095 303.736624 
L 179.141485 307.643048 
L 179.736876 307.781661 
L 180.927657 307.78173 
L 181.523047 305.63454 
L 182.118438 307.781731 
L 183.309219 307.756517 
L 184.5 307.789329 
L 185.095391 307.647083 
L 185.690781 303.773829 
L 186.286172 307.661646 
L 186.881562 307.788271 
L 188.072343 307.789353 
L 188.667734 305.663356 
L 189.263124 307.789353 
L 191.644686 307.790095 
L 192.240077 307.635666 
L 192.835467 303.708988 
L 193.430858 307.679947 
L 194.621639 307.789906 
L 195.217029 307.78982 
L 195.81242 305.736988 
L 196.40781 307.78982 
L 197.598592 307.790582 
L 198.193982 307.63949 
L 198.789373 303.732879 
L 199.384763 307.67691 
L 200.575544 307.790088 
L 201.170935 307.790032 
L 201.766325 305.720004 
L 202.361716 307.790032 
L 208.911012 307.790582 
L 209.506402 307.63949 
L 210.101793 303.732867 
L 210.697183 307.67691 
L 211.887964 307.790088 
L 212.483355 307.790032 
L 213.078745 305.720004 
L 213.674136 307.790032 
L 216.651088 307.790582 
L 217.246479 307.63949 
L 217.841869 303.732867 
L 218.43726 307.67691 
L 219.628041 307.790088 
L 220.223431 307.790032 
L 220.818822 305.720005 
L 221.414213 307.790032 
L 221.414213 307.790032 
" clip-path="url(#pe40423e688)" style="fill: none; stroke: #17becf; stroke-opacity: 0.8; stroke-width: 1.5; stroke-linecap: square"/>
   </g>
   <g id="line2d_70">
    <defs>
     <path id="m7764f05df2" d="M 0 3 
C 0.795609 3 1.55874 2.683901 2.12132 2.12132 
C 2.683901 1.55874 3 0.795609 3 0 
C 3 -0.795609 2.683901 -1.55874 2.12132 -2.12132 
C 1.55874 -2.683901 0.795609 -3 0 -3 
C -0.795609 -3 -1.55874 -2.683901 -2.12132 -2.12132 
C -2.683901 -1.55874 -3 -0.795609 -3 0 
C -3 0.795609 -2.683901 1.55874 -2.12132 2.12132 
C -1.55874 2.683901 -0.795609 3 0 3 
z
" style="stroke: #000000; stroke-opacity: 0.8"/>
    </defs>
    <g clip-path="url(#pe40423e688)">
     <use xlink:href="#m7764f05df2" x="251.779129" y="306.725096" style="fill-opacity: 0.8; stroke: #000000; stroke-opacity: 0.8"/>
    </g>
   </g>
   <g id="line2d_71">
    <g clip-path="url(#pe40423e688)">
     <use xlink:href="#m7764f05df2" x="272.022407" y="306.724946" style="fill-opacity: 0.8; stroke: #000000; stroke-opacity: 0.8"/>
    </g>
   </g>
   <g id="line2d_72">
    <g clip-path="url(#pe40423e688)">
     <use xlink:href="#m7764f05df2" x="222.009603" y="307.799432" style="fill-opacity: 0.8; stroke: #000000; stroke-opacity: 0.8"/>
    </g>
   </g>
   <g id="line2d_73">
    <g clip-path="url(#pe40423e688)">
     <use xlink:href="#m7764f05df2" x="198.193982" y="307.798859" style="fill-opacity: 0.8; stroke: #000000; stroke-opacity: 0.8"/>
    </g>
   </g>
   <g id="line2d_74">
    <g clip-path="url(#pe40423e688)">
     <use xlink:href="#m7764f05df2" x="263.091549" y="307.782262" style="fill-opacity: 0.8; stroke: #000000; stroke-opacity: 0.8"/>
    </g>
   </g>
   <g id="line2d_75">
    <g clip-path="url(#pe40423e688)">
     <use xlink:href="#m7764f05df2" x="311.318182" y="307.759479" style="fill-opacity: 0.8; stroke: #000000; stroke-opacity: 0.8"/>
    </g>
   </g>
   <g id="line2d_76">
    <g clip-path="url(#pe40423e688)">
     <use xlink:href="#m7764f05df2" x="240.466709" y="307.792257" style="fill-opacity: 0.8; stroke: #000000; stroke-opacity: 0.8"/>
    </g>
   </g>
   <g id="line2d_77">
    <g clip-path="url(#pe40423e688)">
     <use xlink:href="#m7764f05df2" x="277.380922" y="307.780067" style="fill-opacity: 0.8; stroke: #000000; stroke-opacity: 0.8"/>
    </g>
   </g>
   <g id="line2d_78">
    <g clip-path="url(#pe40423e688)">
     <use xlink:href="#m7764f05df2" x="209.506402" y="306.723386" style="fill-opacity: 0.8; stroke: #000000; stroke-opacity: 0.8"/>
    </g>
   </g>
   <g id="line2d_79">
    <g clip-path="url(#pe40423e688)">
     <use xlink:href="#m7764f05df2" x="221.414213" y="307.790032" style="fill-opacity: 0.8; stroke: #000000; stroke-opacity: 0.8"/>
    </g>
   </g>
   <g id="patch_3">
    <path d="M 45 320.4 
L 45 43.2 
" style="fill: none; stroke: #000000; stroke-width: 0.8; stroke-linejoin: miter; stroke-linecap: square"/>
   </g>
   <g id="patch_4">
    <path d="M 324 320.4 
L 324 43.2 
" style="fill: none; stroke: #000000; stroke-width: 0.8; stroke-linejoin: miter; stroke-linecap: square"/>
   </g>
   <g id="patch_5">
    <path d="M 45 320.4 
L 324 320.4 
" style="fill: none; stroke: #000000; stroke-width: 0.8; stroke-linejoin: miter; stroke-linecap: square"/>
   </g>
   <g id="patch_6">
    <path d="M 45 43.2 
L 324 43.2 
" style="fill: none; stroke: #000000; stroke-width: 0.8; stroke-linejoin: miter; stroke-linecap: square"/>
   </g>
  </g>
 </g>
 <defs>
  <clipPath id="pe40423e688">
   <rect x="45" y="43.2" width="279" height="277.2"/>
  </clipPath>
 </defs>
</svg>
